<?xml version="1.0" encoding="UTF-8" standalone="no"?>
<!-- Created with Inkscape (http://www.inkscape.org/) -->

<svg
   xmlns:dc="http://purl.org/dc/elements/1.1/"
   xmlns:cc="http://creativecommons.org/ns#"
   xmlns:rdf="http://www.w3.org/1999/02/22-rdf-syntax-ns#"
   xmlns:svg="http://www.w3.org/2000/svg"
   xmlns="http://www.w3.org/2000/svg"
   xmlns:xlink="http://www.w3.org/1999/xlink"
   xmlns:sodipodi="http://sodipodi.sourceforge.net/DTD/sodipodi-0.dtd"
   xmlns:inkscape="http://www.inkscape.org/namespaces/inkscape"
   inkscape:export-ydpi="90.000000"
   inkscape:export-xdpi="90.000000"
   width="480"
   height="300"
   id="svg11300"
   sodipodi:version="0.32"
   inkscape:version="0.91 r13725"
   sodipodi:docname="emblem-ohno.svg"
   inkscape:output_extension="org.inkscape.output.svg.inkscape"
   version="1.0"
   style="display:inline;enable-background:new"
   inkscape:export-filename="/home/sam/moka-next-template.png">
  <sodipodi:namedview
     stroke="#ef2929"
     fill="#f57900"
     id="base"
     pagecolor="#777777"
     bordercolor="#666666"
     borderopacity="0.25490196"
     inkscape:pageopacity="0"
     inkscape:pageshadow="2"
     inkscape:zoom="2.0000001"
     inkscape:cx="250.39094"
     inkscape:cy="148.60175"
     inkscape:current-layer="layer6"
     showgrid="false"
     inkscape:grid-bbox="true"
     inkscape:document-units="px"
     inkscape:showpageshadow="false"
     inkscape:window-width="1920"
     inkscape:window-height="1026"
     inkscape:window-x="0"
     inkscape:window-y="0"
     width="400px"
     height="300px"
     inkscape:snap-nodes="true"
     inkscape:snap-bbox="true"
     gridtolerance="10000"
     inkscape:object-nodes="true"
     inkscape:snap-grids="true"
     showguides="true"
     inkscape:guide-bbox="true"
     inkscape:window-maximized="1"
     inkscape:bbox-nodes="true"
     inkscape:bbox-paths="true"
     inkscape:snap-bbox-edge-midpoints="true"
     inkscape:snap-bbox-midpoints="true">
    <inkscape:grid
       spacingy="1px"
       spacingx="1px"
       id="grid5883"
       type="xygrid"
       enabled="true"
       visible="true"
       empspacing="4"
       snapvisiblegridlinesonly="true"
       dotted="false"
       color="#000000"
       opacity="0.1254902"
       empcolor="#203ef3"
       empopacity="0.36470588" />
    <inkscape:grid
       type="xygrid"
       id="grid11592"
       empspacing="8"
       visible="true"
       enabled="false"
       spacingx="0.5px"
       spacingy="0.5px"
       color="#ff0000"
       opacity="0.1254902"
       empcolor="#ff0000"
       empopacity="0.25098039"
       snapvisiblegridlinesonly="true"
       dotted="true" />
  </sodipodi:namedview>
  <defs
     id="defs3">
    <linearGradient
       inkscape:collect="always"
       xlink:href="#linearGradient3841"
       id="linearGradient4254"
       x1="35"
       y1="156"
       x2="253"
       y2="156"
       gradientUnits="userSpaceOnUse"
       gradientTransform="matrix(0,-1,1,0,-12,300)" />
    <linearGradient
       inkscape:collect="always"
       xlink:href="#linearGradient3841"
       id="linearGradient4256"
       x1="417"
       y1="148"
       x2="431"
       y2="148"
       gradientUnits="userSpaceOnUse"
       gradientTransform="matrix(0,-1,1,0,276,572)" />
    <linearGradient
       inkscape:collect="always"
       xlink:href="#linearGradient3841"
       id="linearGradient4260"
       x1="418"
       y1="68"
       x2="446"
       y2="68"
       gradientUnits="userSpaceOnUse"
       gradientTransform="matrix(0,-1,1,0,364,500)" />
    <linearGradient
       inkscape:collect="always"
       xlink:href="#linearGradient3841"
       id="linearGradient4262"
       x1="292"
       y1="244"
       x2="332"
       y2="244"
       gradientUnits="userSpaceOnUse"
       gradientTransform="matrix(0,-1,1,0,68,556)" />
    <linearGradient
       inkscape:collect="always"
       xlink:href="#linearGradient3841"
       id="linearGradient4264"
       x1="293"
       y1="76"
       x2="379"
       y2="76"
       gradientUnits="userSpaceOnUse"
       gradientTransform="matrix(0,-1,1,0,260,412)" />
    <linearGradient
       inkscape:collect="always"
       xlink:href="#linearGradient3841"
       id="linearGradient4266"
       x1="291"
       y1="172"
       x2="349"
       y2="172"
       gradientUnits="userSpaceOnUse"
       gradientTransform="matrix(0,-1,1,0,148,492)" />
    <linearGradient
       inkscape:collect="always"
       xlink:href="#linearGradient3841"
       id="linearGradient3870"
       gradientUnits="userSpaceOnUse"
       gradientTransform="matrix(0,-1,1,0,316,540)"
       x1="418"
       y1="112"
       x2="438"
       y2="112" />
    <linearGradient
       id="linearGradient3841">
      <stop
         style="stop-color:#a40000;stop-opacity:1;"
         offset="0"
         id="stop3843" />
      <stop
         style="stop-color:#ea0000;stop-opacity:1"
         offset="1"
         id="stop3845" />
    </linearGradient>
  </defs>
  <metadata
     id="metadata4">
    <rdf:RDF>
      <cc:Work
         rdf:about="">
        <dc:format>image/svg+xml</dc:format>
        <dc:type
           rdf:resource="http://purl.org/dc/dcmitype/StillImage" />
        <dc:creator>
          <cc:Agent>
            <dc:title>Sam Hewitt</dc:title>
          </cc:Agent>
        </dc:creator>
        <dc:source />
        <cc:license
           rdf:resource="" />
        <dc:title />
        <dc:subject>
          <rdf:Bag />
        </dc:subject>
        <dc:date />
        <dc:rights>
          <cc:Agent>
            <dc:title />
          </cc:Agent>
        </dc:rights>
        <dc:publisher>
          <cc:Agent>
            <dc:title />
          </cc:Agent>
        </dc:publisher>
        <dc:identifier />
        <dc:relation />
        <dc:language />
        <dc:coverage />
        <dc:description />
        <dc:contributor>
          <cc:Agent>
            <dc:title />
          </cc:Agent>
        </dc:contributor>
      </cc:Work>
      <cc:Work
         rdf:about="">
        <dc:format>image/svg+xml</dc:format>
        <dc:type
           rdf:resource="http://purl.org/dc/dcmitype/StillImage" />
      </cc:Work>
    </rdf:RDF>
  </metadata>
  <g
     style="display:inline"
     inkscape:groupmode="layer"
     inkscape:label="Icon"
     id="layer1">
    <g
       style="display:none"
       inkscape:label="Baseplate"
       id="layer7"
       inkscape:groupmode="layer">
      <text
         y="19.745117"
         xml:space="preserve"
         x="15.006836"
         style="font-style:normal;font-variant:normal;font-weight:normal;font-stretch:normal;line-height:0%;font-family:'DejaVu Sans';-inkscape-font-specification:'DejaVu Sans';display:inline;fill:#000000;fill-opacity:1;stroke:none;enable-background:new"
         inkscape:label="context"
         id="context"><tspan
           style="font-style:normal;font-variant:normal;font-weight:normal;font-stretch:normal;font-size:18px;line-height:1.25;font-family:'DejaVu Sans';-inkscape-font-specification:'DejaVu Sans'"
           y="19.745117"
           x="15.006836"
           sodipodi:role="line"
           id="tspan3933">emblems</tspan></text>
      <text
         y="19.745117"
         xml:space="preserve"
         x="122.48828"
         style="font-style:normal;font-variant:normal;font-weight:bold;font-stretch:normal;line-height:0%;font-family:'DejaVu Sans';-inkscape-font-specification:'DejaVu Sans Bold';text-align:start;writing-mode:lr-tb;text-anchor:start;display:inline;fill:#000000;fill-opacity:1;stroke:none;enable-background:new"
         inkscape:label="icon-name"
         id="icon-name"><tspan
           style="font-style:normal;font-variant:normal;font-weight:bold;font-stretch:normal;font-size:18px;line-height:1.25;font-family:'DejaVu Sans';-inkscape-font-specification:'DejaVu Sans Bold'"
           y="19.745117"
           x="122.48828"
           sodipodi:role="line"
           id="tspan3937">emblem-ohno</tspan></text>
      <rect
         style="fill:#eeeeec;fill-opacity:1;fill-rule:nonzero;stroke:none;stroke-width:2;marker:none;visibility:visible;display:inline;overflow:visible;enable-background:accumulate"
         id="rect16x16"
         width="16"
         height="16"
         x="416"
         y="140"
         inkscape:label="16x16" />
      <rect
         style="fill:#d4d4d4;fill-opacity:1;fill-rule:nonzero;stroke:none;stroke-width:2;marker:none;visibility:visible;display:inline;overflow:visible;enable-background:accumulate"
         id="rect24x24"
         width="24"
         height="24"
         x="416"
         y="100"
         inkscape:label="24x24" />
      <rect
         style="fill:#eeeeec;fill-opacity:1;fill-rule:nonzero;stroke:none;stroke-width:2;marker:none;visibility:visible;display:inline;overflow:visible;enable-background:accumulate"
         id="rect32x32"
         width="32"
         height="32"
         x="416"
         y="52"
         inkscape:label="32x32" />
      <rect
         inkscape:label="22x22"
         y="101"
         x="417"
         height="22"
         width="22"
         id="rect22x22"
         style="fill:#eeeeec;fill-opacity:1;fill-rule:nonzero;stroke:none;stroke-width:2;marker:none;visibility:visible;display:inline;overflow:visible;enable-background:accumulate" />
      <rect
         inkscape:label="48x48"
         y="220"
         x="288"
         height="48"
         width="48"
         id="rect48x48"
         style="fill:#eeeeec;fill-opacity:1;fill-rule:nonzero;stroke:none;stroke-width:2;marker:none;visibility:visible;display:inline;overflow:visible;enable-background:accumulate" />
      <rect
         style="fill:#eeeeec;fill-opacity:1;fill-rule:nonzero;stroke:none;stroke-width:2;marker:none;visibility:visible;display:inline;overflow:visible;enable-background:accumulate"
         id="rect256x256"
         width="256"
         height="256"
         x="16"
         y="28"
         inkscape:label="256x256" />
      <rect
         style="fill:#eeeeec;fill-opacity:1;fill-rule:nonzero;stroke:none;stroke-width:2;marker:none;visibility:visible;display:inline;overflow:visible;enable-background:accumulate"
         id="rect64x64"
         width="64"
         height="64"
         x="288"
         y="140"
         inkscape:label="64x64" />
      <rect
         style="fill:#eeeeec;fill-opacity:1;fill-rule:nonzero;stroke:none;stroke-width:2;marker:none;visibility:visible;display:inline;overflow:visible;enable-background:accumulate"
         id="rect96x96"
         width="96"
         height="96"
         x="288"
         y="28"
         inkscape:label="96x96" />
    </g>
    <g
       inkscape:groupmode="layer"
       id="layer4"
       inkscape:label="Shadow"
       style="display:inline"
       sodipodi:insensitive="true">
      <rect
         ry="50"
         y="47"
         x="34"
         height="220"
         width="220"
         id="rect4114"
         style="opacity:0.1;color:#bebebe;fill:#000000;fill-opacity:1;fill-rule:nonzero;stroke:none;stroke-width:0;marker:none;visibility:visible;display:inline;overflow:visible;enable-background:accumulate" />
      <rect
         style="opacity:0.1;color:#bebebe;fill:#000000;fill-opacity:1;fill-rule:nonzero;stroke:none;stroke-width:0;marker:none;visibility:visible;display:inline;overflow:visible;enable-background:accumulate"
         id="rect4120"
         width="30"
         height="30"
         x="417"
         y="54"
         ry="7" />
      <rect
         transform="scale(1,-1)"
         ry="9"
         y="-266"
         x="291"
         height="42"
         width="42"
         id="rect4122"
         style="opacity:0.1;color:#bebebe;fill:#000000;fill-opacity:1;fill-rule:nonzero;stroke:none;stroke-width:0;marker:none;visibility:visible;display:inline;overflow:visible;enable-background:accumulate" />
      <rect
         style="opacity:0.1;color:#bebebe;fill:#000000;fill-opacity:1;fill-rule:nonzero;stroke:none;stroke-width:0;marker:none;visibility:visible;display:inline;overflow:visible;enable-background:accumulate"
         id="rect4124"
         width="88"
         height="88"
         x="292"
         y="33"
         ry="18" />
      <rect
         ry="12.5"
         y="143"
         x="290"
         height="60"
         width="60"
         id="rect4126"
         style="opacity:0.1;color:#bebebe;fill:#000000;fill-opacity:1;fill-rule:nonzero;stroke:none;stroke-width:0;marker:none;visibility:visible;display:inline;overflow:visible;enable-background:accumulate" />
      <path
         id="path4268"
         d="m 422,101 c -2.77,0 -5,2.23 -5,5 l 0,12 c 0,2.77 2.23,5 5,5 l 12,0 c 2.77,0 5,-2.23 5,-5 l 0,-12 c 0,-2.77 -2.23,-5 -5,-5 z"
         style="opacity:0.1;color:#bebebe;fill:#000000;fill-opacity:1;fill-rule:nonzero;stroke:none;stroke-width:0;marker:none;visibility:visible;display:inline;overflow:visible;enable-background:accumulate"
         inkscape:connector-curvature="0"
         sodipodi:nodetypes="sssssssss" />
      <path
         id="path4270"
         d="m 419,140 c -1.662,0 -3,1.338 -3,3 l 0,10 c 0,1.662 1.338,3 3,3 l 10,0 c 1.662,0 3,-1.338 3,-3 l 0,-10 c 0,-1.662 -1.338,-3 -3,-3 z"
         style="opacity:0.1;color:#bebebe;fill:#000000;fill-opacity:1;fill-rule:nonzero;stroke:none;stroke-width:0;marker:none;visibility:visible;display:inline;overflow:visible;enable-background:accumulate"
         inkscape:connector-curvature="0"
         sodipodi:nodetypes="sssssssss" />
    </g>
    <g
       inkscape:groupmode="layer"
       id="layer2"
       inkscape:label="Background"
       style="display:inline">
      <path
         style="color:#bebebe;fill:url(#linearGradient4254);fill-opacity:1.0;fill-rule:nonzero;stroke:none;stroke-width:2;marker:none;visibility:visible;display:inline;overflow:visible;enable-background:accumulate"
         d="M 84 46.5 C 56.568735 46.5 34.5 68.568732 34.5 96 L 34.5 216 C 34.5 243.43127 56.568735 265.5 84 265.5 L 204 265.5 C 231.43127 265.5 253.5 243.43127 253.5 216 L 253.5 96 C 253.5 68.568732 231.43127 46.5 204 46.5 L 84 46.5 z "
         id="path4200" />
      <path
         style="color:#bebebe;fill:url(#linearGradient4256);fill-opacity:1.0;fill-rule:nonzero;stroke:none;stroke-width:2;marker:none;visibility:visible;display:inline;overflow:visible;enable-background:accumulate"
         d="M 419 140.5 C 417.6156 140.5 416.5 141.6156 416.5 143 L 416.5 153 C 416.5 154.3844 417.6156 155.5 419 155.5 L 429 155.5 C 430.3844 155.5 431.5 154.3844 431.5 153 L 431.5 143 C 431.5 141.6156 430.3844 140.5 429 140.5 L 419 140.5 z "
         id="path4202" />
      <path
         style="color:#bebebe;fill:url(#linearGradient3870);fill-opacity:1.0;fill-rule:nonzero;stroke:none;stroke-width:2;marker:none;visibility:visible;display:inline;overflow:visible;enable-background:accumulate"
         d="M 422 101.5 C 419.50301 101.5 417.5 103.50301 417.5 106 L 417.5 118 C 417.5 120.49699 419.50301 122.5 422 122.5 L 434 122.5 C 436.49699 122.5 438.5 120.49699 438.5 118 L 438.5 106 C 438.5 103.50301 436.49699 101.5 434 101.5 L 422 101.5 z "
         id="path4204" />
      <path
         style="color:#bebebe;fill:url(#linearGradient4260);fill-opacity:1.0;fill-rule:nonzero;stroke:none;stroke-width:2;marker:none;visibility:visible;display:inline;overflow:visible;enable-background:accumulate"
         d="M 424 53.5 C 420.39346 53.5 417.5 56.393464 417.5 60 L 417.5 76 C 417.5 79.606536 420.39346 82.5 424 82.5 L 440 82.5 C 443.60654 82.5 446.5 79.606536 446.5 76 L 446.5 60 C 446.5 56.393464 443.60654 53.5 440 53.5 L 424 53.5 z "
         id="path4206" />
      <path
         style="color:#bebebe;fill:url(#linearGradient4262);fill-opacity:1.0;fill-rule:nonzero;stroke:none;stroke-width:2;marker:none;visibility:visible;display:inline;overflow:visible;enable-background:accumulate"
         d="M 300 223.5 C 295.28469 223.5 291.5 227.28469 291.5 232 L 291.5 256 C 291.5 260.71531 295.28469 264.5 300 264.5 L 324 264.5 C 328.71531 264.5 332.5 260.71531 332.5 256 L 332.5 232 C 332.5 227.28469 328.71531 223.5 324 223.5 L 300 223.5 z "
         id="path4208" />
      <path
         style="color:#bebebe;fill:url(#linearGradient4264);fill-opacity:1.0;fill-rule:nonzero;stroke:none;stroke-width:2;marker:none;visibility:visible;display:inline;overflow:visible;enable-background:accumulate"
         d="M 310 32.5 C 300.29745 32.5 292.5 40.297452 292.5 50 L 292.5 102 C 292.5 111.70255 300.29745 119.5 310 119.5 L 362 119.5 C 371.70255 119.5 379.5 111.70255 379.5 102 L 379.5 50 C 379.5 40.297452 371.70255 32.5 362 32.5 L 310 32.5 z "
         id="path4210" />
      <path
         style="color:#bebebe;fill:url(#linearGradient4266);fill-opacity:1.0;fill-rule:nonzero;stroke:none;stroke-width:2;marker:none;visibility:visible;display:inline;overflow:visible;enable-background:accumulate"
         d="M 302.5 142.5 C 295.84498 142.5 290.5 147.84498 290.5 154.5 L 290.5 189.5 C 290.5 196.15502 295.84498 201.5 302.5 201.5 L 337.5 201.5 C 344.15502 201.5 349.5 196.15502 349.5 189.5 L 349.5 154.5 C 349.5 147.84498 344.15502 142.5 337.5 142.5 L 302.5 142.5 z "
         id="path4212" />
    </g>
    <g
       inkscape:groupmode="layer"
       id="layer6"
       inkscape:label="Symbols"
       style="display:inline">
      <path
         inkscape:connector-curvature="0"
         style="display:inline;fill:#000000;fill-opacity:1;fill-rule:nonzero;stroke:none;enable-background:new;opacity:0.2"
         d="m 313.11328,232.80664 c -0.68754,-0.0124 -1.3858,0.0198 -2.0918,0.10156 -7.53063,0.87142 -13.0648,6.9076 -12.36132,13.47852 0.28013,2.6166 1.50698,4.92577 3.35937,6.70117 -0.74788,1.75735 -2.06302,3.02839 -4.01953,3.2793 3.09303,1.15383 6.64767,0.5198 9.22266,-0.24024 1.95291,0.61822 4.11057,0.84481 6.34765,0.58594 7.53062,-0.87141 13.07262,-6.9115 12.36914,-13.48242 -0.57159,-5.33888 -5.08901,-9.3885 -10.80273,-10.25391 -0.65928,-0.0999 -1.3359,-0.1575 -2.02344,-0.16992 z m -9.21289,4.09375 2.88867,0 5.14844,5.14844 5.14844,-5.14844 2.88672,0 0,2.88867 -5.14844,5.14844 5.14844,5.14844 0,2.88672 -2.88672,0 -5.14844,-5.14844 -5.14844,5.14844 -2.88867,0 0,-2.88672 5.14844,-5.14844 -5.14844,-5.14844 0,-2.88867 z"
         id="path3856-7" />
      <path
         style="display:inline;fill:#ffffff;fill-opacity:1;fill-rule:nonzero;stroke:none;enable-background:new"
         d="M 313.11328 231.80664 C 312.42574 231.79422 311.72748 231.82648 311.02148 231.9082 C 303.49085 232.77962 297.95668 238.8158 298.66016 245.38672 C 298.94029 248.00332 300.16714 250.31249 302.01953 252.08789 C 301.27165 253.84524 299.95651 255.11628 298 255.36719 C 301.09303 256.52102 304.64767 255.88699 307.22266 255.12695 C 309.17557 255.74517 311.33323 255.97176 313.57031 255.71289 C 321.10093 254.84148 326.64293 248.80139 325.93945 242.23047 C 325.36786 236.89159 320.85044 232.84197 315.13672 231.97656 C 314.47744 231.87671 313.80082 231.81906 313.11328 231.80664 z M 303.90039 235.90039 L 306.78906 235.90039 L 311.9375 241.04883 L 317.08594 235.90039 L 319.97266 235.90039 L 319.97266 238.78906 L 314.82422 243.9375 L 319.97266 249.08594 L 319.97266 251.97266 L 317.08594 251.97266 L 311.9375 246.82422 L 306.78906 251.97266 L 303.90039 251.97266 L 303.90039 249.08594 L 309.04883 243.9375 L 303.90039 238.78906 L 303.90039 235.90039 z "
         id="path3856" />
      <path
         inkscape:connector-curvature="0"
         style="display:inline;fill:#000000;fill-opacity:1;fill-rule:nonzero;stroke:none;enable-background:new;opacity:0.2"
         d="m 321.58984,155.62306 c -0.98219,-0.0178 -1.97971,0.0298 -2.98828,0.14648 -10.75804,1.24489 -18.66513,9.86492 -17.66015,19.25195 0.40018,3.73799 2.15647,7.03793 4.80273,9.57422 -1.0684,2.5105 -2.94913,4.32516 -5.74414,4.6836 4.41862,1.64834 9.49722,0.74398 13.17578,-0.3418 2.78987,0.88318 5.87058,1.2077 9.06641,0.83789 10.75803,-1.24488 18.67684,-9.87469 17.67187,-19.26172 -0.81655,-7.62696 -7.27113,-13.41214 -15.43359,-14.64844 -0.94183,-0.14265 -1.90843,-0.22444 -2.89063,-0.24218 z M 309,162.00001 l 4.125,0 6.78516,6.78516 6.96484,-6.78516 4.125,0 0,4.125 -6.96484,6.78516 6.96484,6.96484 0,4.125 -4.125,0 -6.96484,-6.96484 -6.78516,6.96484 -4.125,0 0,-4.125 6.78516,-6.96484 -6.78516,-6.78516 0,-4.125 z"
         id="path3854-5" />
      <path
         style="display:inline;fill:#ffffff;fill-opacity:1;fill-rule:nonzero;stroke:none;enable-background:new"
         d="M 321.58984 154.62305 C 320.60765 154.6053 319.61013 154.65281 318.60156 154.76953 C 307.84352 156.01442 299.93643 164.63445 300.94141 174.02148 C 301.34159 177.75947 303.09788 181.05941 305.74414 183.5957 C 304.67574 186.1062 302.79501 187.92086 300 188.2793 C 304.41862 189.92764 309.49722 189.02328 313.17578 187.9375 C 315.96565 188.82068 319.04636 189.1452 322.24219 188.77539 C 333.00022 187.53051 340.91903 178.9007 339.91406 169.51367 C 339.09751 161.88671 332.64293 156.10153 324.48047 154.86523 C 323.53864 154.72258 322.57204 154.64079 321.58984 154.62305 z M 309 161 L 313.125 161 L 319.91016 167.78516 L 326.875 161 L 331 161 L 331 165.125 L 324.03516 171.91016 L 331 178.875 L 331 183 L 326.875 183 L 319.91016 176.03516 L 313.125 183 L 309 183 L 309 178.875 L 315.78516 171.91016 L 309 165.125 L 309 161 z "
         id="path3854" />
      <path
         inkscape:connector-curvature="0"
         style="display:inline;fill:#000000;fill-opacity:1;fill-rule:nonzero;stroke:none;enable-background:new;opacity:0.2"
         d="m 432.79492,60.263683 c -0.4911,-0.0089 -0.98985,0.01391 -1.49414,0.07227 -5.37901,0.622444 -9.33256,4.93344 -8.83008,9.626953 0.2001,1.868997 1.07726,3.518959 2.40039,4.787109 -0.5342,1.25524 -1.47358,2.162577 -2.87109,2.341797 2.20931,0.82417 4.74861,0.371015 6.58789,-0.171875 1.39494,0.44159 2.93529,0.604822 4.5332,0.419922 5.37902,-0.62244 9.33842,-4.937348 8.83594,-9.63086 -0.40827,-3.81348 -3.63557,-6.706068 -7.7168,-7.324218 -0.47091,-0.07133 -0.95421,-0.11222 -1.44531,-0.121094 z M 427,64.000011 l 1.85742,0 3.10156,3.103516 3.1836,-3.103516 1.85742,0 0,1.857422 -3.18359,3.101562 3.18359,3.183594 0,1.857422 -1.85742,0 -3.1836,-3.183594 -3.10156,3.183594 -1.85742,0 0,-1.857422 3.10352,-3.183594 L 427,65.857433 l 0,-1.857422 z"
         id="path3860-0" />
      <path
         style="display:inline;fill:#ffffff;fill-opacity:1;fill-rule:nonzero;stroke:none;enable-background:new"
         d="M 432.79492 59.263672 C 432.30382 59.254798 431.80507 59.277586 431.30078 59.335938 C 425.92177 59.958382 421.96822 64.269378 422.4707 68.962891 C 422.6708 70.831888 423.54796 72.48185 424.87109 73.75 C 424.33689 75.00524 423.39751 75.912577 422 76.091797 C 424.20931 76.915967 426.74861 76.462812 428.58789 75.919922 C 429.98283 76.361512 431.52318 76.524744 433.12109 76.339844 C 438.50011 75.717404 442.45951 71.402496 441.95703 66.708984 C 441.54876 62.895504 438.32146 60.002916 434.24023 59.384766 C 433.76932 59.313441 433.28602 59.272546 432.79492 59.263672 z M 427 63 L 428.85742 63 L 431.95898 66.103516 L 435.14258 63 L 437 63 L 437 64.857422 L 433.81641 67.958984 L 437 71.142578 L 437 73 L 435.14258 73 L 431.95898 69.816406 L 428.85742 73 L 427 73 L 427 71.142578 L 430.10352 67.958984 L 427 64.857422 L 427 63 z "
         id="path3860" />
      <path
         inkscape:connector-curvature="0"
         style="display:inline;fill:#000000;fill-opacity:1;fill-rule:nonzero;stroke:none;enable-background:new;opacity:0.2"
         d="m 338.38477,50.984373 c -1.4733,-0.02662 -2.97153,0.04369 -4.48438,0.21875 -16.13705,1.86733 -27.99574,14.798366 -26.48828,28.878906 0.60028,5.60699 3.23373,10.558842 7.20312,14.363281 -1.6026,3.765737 -4.42271,6.48773 -8.61523,7.02539 6.62793,2.47251 14.24583,1.11305 19.76367,-0.51562 4.18481,1.32477 8.80587,1.81253 13.59961,1.25781 16.13705,-1.86732 28.01526,-14.813993 26.50781,-28.894533 -1.22482,-11.44044 -10.9067,-20.116253 -23.15039,-21.970703 -1.41273,-0.213975 -2.86264,-0.33666 -4.33593,-0.363281 z M 319,59.999998 l 6.1875,0 10.67773,10.677734 10.94727,-10.677734 6.1875,0 0,6.1875 -10.94531,10.677734 11.03125,11.03125 0,6.189454 -6.18946,0 -11.03125,-11.03125 -10.67773,10.945312 -6.1875,0 0,-6.1875 L 329.67773,76.865232 319,66.187498 l 0,-6.1875 z"
         id="path1969-3" />
      <path
         style="display:inline;fill:#ffffff;fill-opacity:1;fill-rule:nonzero;stroke:none;enable-background:new"
         d="M 338.38477 49.984375 C 336.91147 49.957754 335.41324 50.028065 333.90039 50.203125 C 317.76334 52.070455 305.90465 65.001491 307.41211 79.082031 C 308.01239 84.689021 310.64584 89.640873 314.61523 93.445312 C 313.01263 97.211049 310.19252 99.933046 306 100.4707 C 312.62793 102.94321 320.24583 101.58375 325.76367 99.955078 C 329.94848 101.27985 334.56954 101.76761 339.36328 101.21289 C 355.50033 99.345575 367.37854 86.398899 365.87109 72.318359 C 364.64627 60.877919 354.96439 52.202106 342.7207 50.347656 C 341.30797 50.133681 339.85806 50.010996 338.38477 49.984375 z M 319 59 L 325.1875 59 L 335.86523 69.677734 L 346.8125 59 L 353 59 L 353 65.1875 L 342.05469 75.865234 L 353.08594 86.896484 L 353.08594 93.085938 L 346.89648 93.085938 L 335.86523 82.054688 L 325.1875 93 L 319 93 L 319 86.8125 L 329.67773 75.865234 L 319 65.1875 L 319 59 z "
         id="path1969" />
      <path
         inkscape:connector-curvature="0"
         style="display:inline;fill:#000000;fill-opacity:1;fill-rule:nonzero;stroke:none;enable-background:new;opacity:0.2"
         d="m 428.58594,106.6289 c -0.36217,-0.006 -0.73163,0.01 -1.10352,0.0527 -3.9668,0.45902 -6.88031,3.63834 -6.50976,7.09961 0.14757,1.37831 0.79377,2.59604 1.76953,3.53125 -0.39395,0.92569 -1.08658,1.5944 -2.11719,1.72656 1.62928,0.60779 3.50103,0.27341 4.85742,-0.12695 1.02871,0.32566 2.16535,0.44495 3.34375,0.30859 3.96679,-0.45902 6.88814,-3.6403 6.51758,-7.10156 -0.30108,-2.81229 -2.68167,-4.94648 -5.69141,-5.40234 -0.34728,-0.0526 -0.70424,-0.0814 -1.0664,-0.0879 z M 424,108.99999 l 1.4375,0 2.5625,2.5625 2.5625,-2.5625 1.4375,0 0,1.4375 -2.5625,2.5625 2.5625,2.5625 0,1.4375 -1.4375,0 -2.5625,-2.5625 -2.5625,2.5625 -1.4375,0 0,-1.4375 2.5625,-2.5625 -2.5625,-2.5625 0,-1.4375 z"
         id="path3862-9-9-2" />
      <path
         style="display:inline;fill:#ffffff;fill-opacity:1;fill-rule:nonzero;stroke:none;enable-background:new"
         d="M 428.58594 105.62891 C 428.22377 105.62291 427.85431 105.63864 427.48242 105.68164 C 423.51562 106.14066 420.60211 109.31998 420.97266 112.78125 C 421.12023 114.15956 421.76643 115.37729 422.74219 116.3125 C 422.34824 117.23819 421.65561 117.9069 420.625 118.03906 C 422.25428 118.64685 424.12603 118.31247 425.48242 117.91211 C 426.51113 118.23777 427.64777 118.35706 428.82617 118.2207 C 432.79296 117.76168 435.71431 114.5804 435.34375 111.11914 C 435.04267 108.30685 432.66208 106.17266 429.65234 105.7168 C 429.30506 105.6642 428.9481 105.63541 428.58594 105.62891 z M 424 108 L 425.4375 108 L 428 110.5625 L 430.5625 108 L 432 108 L 432 109.4375 L 429.4375 112 L 432 114.5625 L 432 116 L 430.5625 116 L 428 113.4375 L 425.4375 116 L 424 116 L 424 114.5625 L 426.5625 112 L 424 109.4375 L 424 108 z "
         id="path3862-9-9" />
      <path
         inkscape:connector-curvature="0"
         style="display:inline;fill:#000000;fill-opacity:1;fill-rule:nonzero;stroke:none;enable-background:new;opacity:0.2"
         d="m 147.40234,87.783205 c -2.9703,0.04496 -5.9743,0.237641 -9,0.587891 -43.032165,4.97955 -74.654642,39.463604 -70.634762,77.011714 1.60075,14.952 8.619988,28.15369 19.205078,38.29883 -4.2736,10.042 -11.792596,17.30061 -22.972656,18.73438 17.67446,6.59332 37.98889,2.97004 52.70312,-1.37305 11.15949,3.53269 23.48232,4.83473 36.26563,3.35547 43.03211,-4.97949 74.70739,-39.50266 70.6875,-77.05078 -3.26623,-30.50788 -29.0865,-53.644646 -61.73633,-58.589846 -4.70914,-0.71325 -9.56706,-1.049534 -14.51758,-0.974609 z M 104,117 l 14.43945,0 25.2461,25.24609 L 169.56055,117 184,117 l 0,14.43945 -25.875,25.2461 25.875,25.875 0,14.43945 -14.43945,0 -25.875,-25.875 L 118.43945,197 104,197 l 0,-14.43945 25.24609,-25.875 L 104,131.43945 104,117 Z"
         id="path3858-0" />
      <path
         style="display:inline;fill:#ffffff;fill-opacity:1;fill-rule:nonzero;stroke:none;enable-background:new"
         d="M 147.40234 86.783203 C 144.43204 86.828158 141.42804 87.020844 138.40234 87.371094 C 95.370175 92.350644 63.747698 126.8347 67.767578 164.38281 C 69.368328 179.33481 76.387566 192.5365 86.972656 202.68164 C 82.699056 212.72364 75.18006 219.98225 64 221.41602 C 81.67446 228.00934 101.98889 224.38606 116.70312 220.04297 C 127.86261 223.57566 140.18544 224.8777 152.96875 223.39844 C 196.00086 218.41895 227.67614 183.89578 223.65625 146.34766 C 220.39002 115.83978 194.56975 92.703012 161.91992 87.757812 C 157.21078 87.044562 152.35286 86.708278 147.40234 86.783203 z M 104 116 L 118.43945 116 L 143.68555 141.24609 L 169.56055 116 L 184 116 L 184 130.43945 L 158.125 155.68555 L 184 181.56055 L 184 196 L 169.56055 196 L 143.68555 170.125 L 118.43945 196 L 104 196 L 104 181.56055 L 129.24609 155.68555 L 104 130.43945 L 104 116 z "
         id="path3858" />
      <path
         inkscape:connector-curvature="0"
         style="display:inline;fill:#000000;fill-opacity:1;fill-rule:nonzero;stroke:none;enable-background:new;opacity:0.2"
         d="m 424.39844,144.5819 c -0.24555,-0.004 -0.4959,0.008 -0.74805,0.0371 -2.6895,0.31123 -4.66529,2.46575 -4.41406,4.8125 0.10005,0.9345 0.53765,1.76046 1.19922,2.39453 -0.2671,0.62763 -0.73679,1.08031 -1.43555,1.16992 1.10466,0.41208 2.37528,0.18741 3.29492,-0.084 0.69746,0.22079 1.46667,0.30143 2.26563,0.20898 2.68951,-0.31123 4.66921,-2.46965 4.41797,-4.8164 -0.20413,-1.90675 -1.81876,-3.35303 -3.85938,-3.66211 -0.23545,-0.0356 -0.47515,-0.0561 -0.7207,-0.0606 z m -3.29102,1.52539 1.03125,0 1.83985,1.83789 1.83789,-1.83789 1.03125,0 0,1.03125 -1.83789,1.83985 1.83789,1.83789 0,1.03125 -1.03125,0 -1.83789,-1.83789 -1.83985,1.83789 -1.03125,0 0,-1.03125 1.83789,-1.83789 -1.83789,-1.83985 0,-1.03125 z"
         id="path3864-2" />
      <path
         style="display:inline;fill:#ffffff;fill-opacity:1;fill-rule:nonzero;stroke:none;enable-background:new"
         d="M 424.39844 143.58203 C 424.15289 143.57758 423.90254 143.58994 423.65039 143.61914 C 420.96089 143.93037 418.9851 146.08489 419.23633 148.43164 C 419.33638 149.36614 419.77398 150.1921 420.43555 150.82617 C 420.16845 151.4538 419.69876 151.90648 419 151.99609 C 420.10466 152.40817 421.37528 152.1835 422.29492 151.91211 C 422.99238 152.1329 423.76159 152.21354 424.56055 152.12109 C 427.25006 151.80986 429.22976 149.65144 428.97852 147.30469 C 428.77439 145.39794 427.15976 143.95166 425.11914 143.64258 C 424.88369 143.60698 424.64399 143.58648 424.39844 143.58203 z M 421.10742 145.10742 L 422.13867 145.10742 L 423.97852 146.94531 L 425.81641 145.10742 L 426.84766 145.10742 L 426.84766 146.13867 L 425.00977 147.97852 L 426.84766 149.81641 L 426.84766 150.84766 L 425.81641 150.84766 L 423.97852 149.00977 L 422.13867 150.84766 L 421.10742 150.84766 L 421.10742 149.81641 L 422.94531 147.97852 L 421.10742 146.13867 L 421.10742 145.10742 z "
         id="path3864" />
    </g>
    <g
       inkscape:groupmode="layer"
       id="layer5"
       inkscape:label="Highlights"
       style="display:inline"
       sodipodi:insensitive="true">
      <path
         style="opacity:0.12999998;color:#bebebe;fill:#ffffff;fill-opacity:1;fill-rule:nonzero;stroke:none;stroke-width:0;marker:none;visibility:visible;display:inline;overflow:visible;enable-background:accumulate"
         d="M 84,47 C 56.836703,47 35,68.836703 35,96 l 0,1 C 35,69.836703 56.836703,48 84,48 l 120,0 c 27.1633,0 49,21.836703 49,49 l 0,-1 C 253,68.836703 231.1633,47 204,47 L 84,47 z"
         id="rect3894"
         inkscape:connector-curvature="0" />
      <path
         style="opacity:0.12999998;color:#bebebe;fill:#ffffff;fill-opacity:1;fill-rule:nonzero;stroke:none;stroke-width:0;marker:none;visibility:visible;display:inline;overflow:visible;enable-background:accumulate"
         d="m 419,141 c -1.1253,0 -2,0.8747 -2,2 l 0,1 c 0,-1.1253 0.8747,-2 2,-2 l 10,0 c 1.1253,0 2,0.8747 2,2 l 0,-1 c 0,-1.1253 -0.8747,-2 -2,-2 l -10,0 z"
         id="rect3896"
         inkscape:connector-curvature="0" />
      <path
         style="opacity:0.12999998;color:#bebebe;fill:#ffffff;fill-opacity:1;fill-rule:nonzero;stroke:none;stroke-width:0;marker:none;visibility:visible;display:inline;overflow:visible;enable-background:accumulate"
         d="m 422,102 c -2.2333,0 -4,1.7667 -4,4 l 0,1 c 0,-2.2333 1.7667,-4 4,-4 l 12,0 c 2.2333,0 4,1.7667 4,4 l 0,-1 c 0,-2.2333 -1.7667,-4 -4,-4 l -12,0 z"
         id="rect3898"
         inkscape:connector-curvature="0" />
      <path
         style="opacity:0.12999998;color:#bebebe;fill:#ffffff;fill-opacity:1;fill-rule:nonzero;stroke:none;stroke-width:0;marker:none;visibility:visible;display:inline;overflow:visible;enable-background:accumulate"
         d="m 424,54 c -3.3413,0 -6,2.658703 -6,6 l 0,1 c 0,-3.341297 2.6587,-6 6,-6 l 16,0 c 3.3413,0 6,2.658703 6,6 l 0,-1 c 0,-3.341297 -2.6587,-6 -6,-6 l -16,0 z"
         id="rect3900"
         inkscape:connector-curvature="0" />
      <path
         style="opacity:0.12999998;color:#bebebe;fill:#ffffff;fill-opacity:1;fill-rule:nonzero;stroke:none;stroke-width:0;marker:none;visibility:visible;display:inline;overflow:visible;enable-background:accumulate"
         d="m 300,224 c -4.4493,0 -8,3.5507 -8,8 l 0,1 c 0,-4.4493 3.5507,-8 8,-8 l 24,0 c 4.4493,0 8,3.5507 8,8 l 0,-1 c 0,-4.4493 -3.5507,-8 -8,-8 l -24,0 z"
         id="rect3902"
         inkscape:connector-curvature="0" />
      <path
         style="opacity:0.12999998;color:#bebebe;fill:#ffffff;fill-opacity:1;fill-rule:nonzero;stroke:none;stroke-width:0;marker:none;visibility:visible;display:inline;overflow:visible;enable-background:accumulate"
         d="m 310,33 c -9.4353,0 -17,7.564703 -17,17 l 0,1 c 0,-9.435297 7.5647,-17 17,-17 l 52,0 c 9.4353,0 17,7.564703 17,17 l 0,-1 c 0,-9.435297 -7.5647,-17 -17,-17 l -52,0 z"
         id="rect3904"
         inkscape:connector-curvature="0" />
      <path
         style="opacity:0.12999998;color:#bebebe;fill:#ffffff;fill-opacity:1;fill-rule:nonzero;stroke:none;stroke-width:0;marker:none;visibility:visible;display:inline;overflow:visible;enable-background:accumulate"
         d="m 302.5,143 c -6.3883,0 -11.5,5.1117 -11.5,11.5 l 0,1 c 0,-6.3883 5.1117,-11.5 11.5,-11.5 l 35,0 c 6.3883,0 11.5,5.1117 11.5,11.5 l 0,-1 c 0,-6.3883 -5.1117,-11.5 -11.5,-11.5 l -35,0 z"
         id="rect3906"
         inkscape:connector-curvature="0" />
      <path
         id="path4085"
         d="m 204,266 c 27.1633,0 49,-21.8367 49,-49 l 0,-1 c 0,27.1633 -21.8367,49 -49,49 L 84,265 C 56.8367,265 35,243.1633 35,216 l 0,1 c 0,27.1633 21.8367,49 49,49 l 120,0 z"
         style="opacity:0.41;color:#bebebe;fill:#000000;fill-opacity:1;fill-rule:nonzero;stroke:none;stroke-width:0;marker:none;visibility:visible;display:inline;overflow:visible;enable-background:accumulate"
         inkscape:connector-curvature="0" />
      <path
         id="path4087"
         d="m 429,156 c 1.1253,0 2,-0.8747 2,-2 l 0,-1 c 0,1.1253 -0.8747,2 -2,2 l -10,0 c -1.1253,0 -2,-0.8747 -2,-2 l 0,1 c 0,1.1253 0.8747,2 2,2 l 10,0 z"
         style="opacity:0.3;color:#bebebe;fill:#000000;fill-opacity:1;fill-rule:nonzero;stroke:none;stroke-width:0;marker:none;visibility:visible;display:inline;overflow:visible;enable-background:accumulate"
         inkscape:connector-curvature="0" />
      <path
         id="path4089"
         d="m 434,123 c 2.2333,0 4,-1.7667 4,-4 l 0,-1 c 0,2.2333 -1.7667,4 -4,4 l -12,0 c -2.2333,0 -4,-1.7667 -4,-4 l 0,1 c 0,2.2333 1.7667,4 4,4 l 12,0 z"
         style="opacity:0.3;color:#bebebe;fill:#000000;fill-opacity:1;fill-rule:nonzero;stroke:none;stroke-width:0;marker:none;visibility:visible;display:inline;overflow:visible;enable-background:accumulate"
         inkscape:connector-curvature="0" />
      <path
         id="path4091"
         d="m 440,83 c 3.3413,0 6,-2.6587 6,-6 l 0,-1 c 0,3.3413 -2.6587,6 -6,6 l -16,0 c -3.3413,0 -6,-2.6587 -6,-6 l 0,1 c 0,3.3413 2.6587,6 6,6 l 16,0 z"
         style="opacity:0.41;color:#bebebe;fill:#000000;fill-opacity:1;fill-rule:nonzero;stroke:none;stroke-width:0;marker:none;visibility:visible;display:inline;overflow:visible;enable-background:accumulate"
         inkscape:connector-curvature="0" />
      <path
         id="path4093"
         d="m 324,265 c 4.4493,0 8,-3.5507 8,-8 l 0,-1 c 0,4.4493 -3.5507,8 -8,8 l -24,0 c -4.4493,0 -8,-3.5507 -8,-8 l 0,1 c 0,4.4493 3.5507,8 8,8 l 24,0 z"
         style="opacity:0.41;color:#bebebe;fill:#000000;fill-opacity:1;fill-rule:nonzero;stroke:none;stroke-width:0;marker:none;visibility:visible;display:inline;overflow:visible;enable-background:accumulate"
         inkscape:connector-curvature="0" />
      <path
         id="path4095"
         d="m 362,120 c 9.4353,0 17,-7.5647 17,-17 l 0,-1 c 0,9.4353 -7.5647,17 -17,17 l -52,0 c -9.4353,0 -17,-7.5647 -17,-17 l 0,1 c 0,9.4353 7.5647,17 17,17 l 52,0 z"
         style="opacity:0.41;color:#bebebe;fill:#000000;fill-opacity:1;fill-rule:nonzero;stroke:none;stroke-width:0;marker:none;visibility:visible;display:inline;overflow:visible;enable-background:accumulate"
         inkscape:connector-curvature="0" />
      <path
         id="path4097"
         d="m 337.5,202 c 6.3883,0 11.5,-5.1117 11.5,-11.5 l 0,-1 c 0,6.3883 -5.1117,11.5 -11.5,11.5 l -35,0 c -6.3883,0 -11.5,-5.1117 -11.5,-11.5 l 0,1 c 0,6.3883 5.1117,11.5 11.5,11.5 l 35,0 z"
         style="opacity:0.41;color:#bebebe;fill:#000000;fill-opacity:1;fill-rule:nonzero;stroke:none;stroke-width:0;marker:none;visibility:visible;display:inline;overflow:visible;enable-background:accumulate"
         inkscape:connector-curvature="0" />
      <path
         inkscape:connector-curvature="0"
         id="path4280"
         d="M 84,265 C 56.836703,265 35,243.1633 35,216 l 0,-1 c 0,27.1633 21.836703,49 49,49 l 120,0 c 27.1633,0 49,-21.8367 49,-49 l 0,1 c 0,27.1633 -21.8367,49 -49,49 l -120,0 z"
         style="opacity:0.1;color:#bebebe;fill:#ffffff;fill-opacity:1;fill-rule:nonzero;stroke:none;stroke-width:0;marker:none;visibility:visible;display:inline;overflow:visible;enable-background:accumulate" />
      <path
         style="opacity:0.1;color:#bebebe;fill:#ffffff;fill-opacity:1;fill-rule:nonzero;stroke:none;stroke-width:0;marker:none;visibility:visible;display:inline;overflow:visible;enable-background:accumulate"
         d="m 300,264 c -4.4493,0 -8,-3.5507 -8,-8 l 0,-1 c 0,4.4493 3.5507,8 8,8 l 24,0 c 4.4493,0 8,-3.5507 8,-8 l 0,1 c 0,4.4493 -3.5507,8 -8,8 l -24,0 z"
         id="path4294"
         inkscape:connector-curvature="0" />
      <path
         style="opacity:0.1;color:#bebebe;fill:#ffffff;fill-opacity:1;fill-rule:nonzero;stroke:none;stroke-width:0;marker:none;visibility:visible;display:inline;overflow:visible;enable-background:accumulate"
         d="m 302.5,201 c -6.3883,0 -11.5,-5.1117 -11.5,-11.5 l 0,-1 c 0,6.3883 5.1117,11.5 11.5,11.5 l 35,0 c 6.3883,0 11.5,-5.1117 11.5,-11.5 l 0,1 c 0,6.3883 -5.1117,11.5 -11.5,11.5 l -35,0 z"
         id="path4296"
         inkscape:connector-curvature="0" />
      <path
         style="opacity:0.1;color:#bebebe;fill:#ffffff;fill-opacity:1;fill-rule:nonzero;stroke:none;stroke-width:0;marker:none;visibility:visible;display:inline;overflow:visible;enable-background:accumulate"
         d="m 310,119 c -9.4353,0 -17,-7.5647 -17,-17 l 0,-1 c 0,9.4353 7.5647,17 17,17 l 52,0 c 9.4353,0 17,-7.5647 17,-17 l 0,1 c 0,9.4353 -7.5647,17 -17,17 l -52,0 z"
         id="path4298"
         inkscape:connector-curvature="0" />
      <path
         style="opacity:0.1;color:#bebebe;fill:#ffffff;fill-opacity:1;fill-rule:nonzero;stroke:none;stroke-width:0;marker:none;visibility:visible;display:inline;overflow:visible;enable-background:accumulate"
         d="m 424,82 c -3.3413,0 -6,-2.658703 -6,-6 l 0,-1 c 0,3.341297 2.6587,6 6,6 l 16,0 c 3.3413,0 6,-2.658703 6,-6 l 0,1 c 0,3.341297 -2.6587,6 -6,6 l -16,0 z"
         id="path4300"
         inkscape:connector-curvature="0" />
      <path
         style="opacity:0.1;color:#bebebe;fill:#ffffff;fill-opacity:1;fill-rule:nonzero;stroke:none;stroke-width:0;marker:none;visibility:visible;display:inline;overflow:visible;enable-background:accumulate"
         d="m 422,122 c -2.2333,0 -4,-1.7667 -4,-4 l 0,-1 c 0,2.2333 1.7667,4 4,4 l 12,0 c 2.2333,0 4,-1.7667 4,-4 l 0,1 c 0,2.2333 -1.7667,4 -4,4 l -12,0 z"
         id="path4302"
         inkscape:connector-curvature="0" />
      <path
         style="opacity:0.1;color:#bebebe;fill:#ffffff;fill-opacity:1;fill-rule:nonzero;stroke:none;stroke-width:0;marker:none;visibility:visible;display:inline;overflow:visible;enable-background:accumulate"
         d="m 419,154.5 c -1.1253,0 -2,-0.8747 -2,-2 l 0,-1 c 0,1.1253 0.8747,2 2,2 l 10,0 c 1.1253,0 2,-0.8747 2,-2 l 0,1 c 0,1.1253 -0.8747,2 -2,2 l -10,0 z"
         id="path4304"
         inkscape:connector-curvature="0" />
    </g>
    <g
       inkscape:groupmode="layer"
       id="layer3"
       inkscape:label="Border"
       style="display:inline"
       sodipodi:insensitive="true">
      <path
         style="opacity:0.41;color:#bebebe;fill:#000000;fill-opacity:1;fill-rule:nonzero;stroke:none;stroke-width:0;marker:none;visibility:visible;display:inline;overflow:visible;enable-background:accumulate"
         d="m 422,101 c -2.77,0 -5,2.23 -5,5 l 0,12 c 0,2.77 2.23,5 5,5 l 12,0 c 2.77,0 5,-2.23 5,-5 l 0,-12 c 0,-2.77 -2.23,-5 -5,-5 l -12,0 z m 0,1 12,0 c 2.2333,0 4,1.7667 4,4 l 0,12 c 0,2.2333 -1.7667,4 -4,4 l -12,0 c -2.2333,0 -4,-1.7667 -4,-4 l 0,-12 c 0,-2.2333 1.7667,-4 4,-4 z"
         id="rect4099"
         inkscape:connector-curvature="0" />
      <path
         style="opacity:0.41;color:#bebebe;fill:#000000;fill-opacity:1;fill-rule:nonzero;stroke:none;stroke-width:0;marker:none;visibility:visible;display:inline;overflow:visible;enable-background:accumulate"
         d="m 424,53 c -3.878,0 -7,3.122 -7,7 l 0,16 c 0,3.878 3.122,7 7,7 l 16,0 c 3.878,0 7,-3.122 7,-7 l 0,-16 c 0,-3.878 -3.122,-7 -7,-7 l -16,0 z m 0,1 16,0 c 3.3413,0 6,2.658703 6,6 l 0,16 c 0,3.341297 -2.6587,6 -6,6 l -16,0 c -3.3413,0 -6,-2.658703 -6,-6 l 0,-16 c 0,-3.341297 2.6587,-6 6,-6 z"
         id="rect4151"
         inkscape:connector-curvature="0" />
      <path
         style="opacity:0.41;color:#bebebe;fill:#000000;fill-opacity:1;fill-rule:nonzero;stroke:none;stroke-width:0;marker:none;visibility:visible;display:inline;overflow:visible;enable-background:accumulate"
         d="m 419,140 c -1.662,0 -3,1.338 -3,3 l 0,10 c 0,1.662 1.338,3 3,3 l 10,0 c 1.662,0 3,-1.338 3,-3 l 0,-10 c 0,-1.662 -1.338,-3 -3,-3 l -10,0 z m 0,1 10,0 c 1.1253,0 2,0.8747 2,2 l 0,10 c 0,1.1253 -0.8747,2 -2,2 l -10,0 c -1.1253,0 -2,-0.8747 -2,-2 l 0,-10 c 0,-1.1253 0.8747,-2 2,-2 z"
         id="rect4095"
         inkscape:connector-curvature="0" />
      <path
         style="opacity:0.41;color:#bebebe;fill:#000000;fill-opacity:1;fill-rule:nonzero;stroke:none;stroke-width:0;marker:none;visibility:visible;display:inline;overflow:visible;enable-background:accumulate"
         d="m 300,223 c -4.986,0 -9,4.014 -9,9 l 0,24 c 0,4.986 4.014,9 9,9 l 24,0 c 4.986,0 9,-4.014 9,-9 l 0,-24 c 0,-4.986 -4.014,-9 -9,-9 l -24,0 z m 0,1 24,0 c 4.4493,0 8,3.5507 8,8 l 0,24 c 0,4.4493 -3.5507,8 -8,8 l -24,0 c -4.4493,0 -8,-3.5507 -8,-8 l 0,-24 c 0,-4.4493 3.5507,-8 8,-8 z"
         id="rect4783"
         inkscape:connector-curvature="0" />
      <path
         style="opacity:0.41;color:#bebebe;fill:#000000;fill-opacity:1;fill-rule:nonzero;stroke:none;stroke-width:0;marker:none;visibility:visible;display:inline;overflow:visible;enable-background:accumulate"
         d="m 302.5,142 c -6.925,0 -12.5,5.575 -12.5,12.5 l 0,35 c 0,6.925 5.575,12.5 12.5,12.5 l 35,0 c 6.925,0 12.5,-5.575 12.5,-12.5 l 0,-35 c 0,-6.925 -5.575,-12.5 -12.5,-12.5 l -35,0 z m 0,1 35,0 c 6.3883,0 11.5,5.1117 11.5,11.5 l 0,35 c 0,6.3883 -5.1117,11.5 -11.5,11.5 l -35,0 c -6.3883,0 -11.5,-5.1117 -11.5,-11.5 l 0,-35 c 0,-6.3883 5.1117,-11.5 11.5,-11.5 z"
         id="rect4515"
         inkscape:connector-curvature="0" />
      <path
         style="opacity:0.41;color:#bebebe;fill:#000000;fill-opacity:1;fill-rule:nonzero;stroke:none;stroke-width:0;marker:none;visibility:visible;display:inline;overflow:visible;enable-background:accumulate"
         d="m 310,32 c -9.972,0 -18,8.028 -18,18 l 0,52 c 0,9.972 8.028,18 18,18 l 52,0 c 9.972,0 18,-8.028 18,-18 l 0,-52 c 0,-9.972 -8.028,-18 -18,-18 l -52,0 z m 0,1 52,0 c 9.4353,0 17,7.564703 17,17 l 0,52 c 0,9.4353 -7.5647,17 -17,17 l -52,0 c -9.4353,0 -17,-7.5647 -17,-17 l 0,-52 c 0,-9.435297 7.5647,-17 17,-17 z"
         id="rect4511"
         inkscape:connector-curvature="0" />
      <path
         style="opacity:0.41;color:#bebebe;fill:#000000;fill-opacity:1;fill-rule:nonzero;stroke:none;stroke-width:0;marker:none;visibility:visible;display:inline;overflow:visible;enable-background:accumulate"
         d="M 84,46 C 56.3,46 34,68.3 34,96 l 0,120 c 0,27.7 22.3,50 50,50 l 120,0 c 27.7,0 50,-22.3 50,-50 L 254,96 C 254,68.3 231.7,46 204,46 L 84,46 z m 0,1 120,0 c 27.1633,0 49,21.836703 49,49 l 0,120 c 0,27.1633 -21.8367,49 -49,49 L 84,265 C 56.836703,265 35,243.1633 35,216 L 35,96 C 35,68.836703 56.836703,47 84,47 z"
         id="rect4040"
         inkscape:connector-curvature="0" />
    </g>
  </g>
</svg>
