<?xml version="1.0" encoding="UTF-8" standalone="no"?>
<svg
   xmlns:dc="http://purl.org/dc/elements/1.1/"
   xmlns:cc="http://creativecommons.org/ns#"
   xmlns:rdf="http://www.w3.org/1999/02/22-rdf-syntax-ns#"
   xmlns:svg="http://www.w3.org/2000/svg"
   xmlns="http://www.w3.org/2000/svg"
   xmlns:sodipodi="http://sodipodi.sourceforge.net/DTD/sodipodi-0.dtd"
   xmlns:inkscape="http://www.inkscape.org/namespaces/inkscape"
   width="16"
   height="16"
   version="1.1"
   id="svg4"
   sodipodi:docname="drive-removable-media-symbolic.svg"
   inkscape:version="0.92.3 (2405546, 2018-03-11)">
  <metadata
     id="metadata10">
    <rdf:RDF>
      <cc:Work
         rdf:about="">
        <dc:format>image/svg+xml</dc:format>
        <dc:type
           rdf:resource="http://purl.org/dc/dcmitype/StillImage" />
      </cc:Work>
    </rdf:RDF>
  </metadata>
  <defs
     id="defs8" />
  <sodipodi:namedview
     pagecolor="#ffffff"
     bordercolor="#666666"
     borderopacity="1"
     objecttolerance="10"
     gridtolerance="10"
     guidetolerance="10"
     inkscape:pageopacity="0"
     inkscape:pageshadow="2"
     inkscape:window-width="1280"
     inkscape:window-height="747"
     id="namedview6"
     showgrid="true"
     inkscape:zoom="20.85965"
     inkscape:cx="-1.4281701"
     inkscape:cy="7.0667303"
     inkscape:window-x="0"
     inkscape:window-y="0"
     inkscape:window-maximized="1"
     inkscape:current-layer="svg4"
     showguides="false">
    <inkscape:grid
       type="xygrid"
       id="grid812" />
  </sodipodi:namedview>
  <path
     style="fill:#bebebe;fill-opacity:1"
     d="M 3 1 C 3 1 1 1 1 3 L 1 13 C 1 13 1 15 3 15 L 13 15 C 15 15 15 13 15 13 L 15 3 C 15 1 13 1 13 1 L 3 1 z M 8 4.5 C 8.13299 4.5 8.266585 4.544565 8.359375 4.640625 L 10.859375 7.140625 C 10.937475 7.22017 10.988 7.326575 11 7.4375 L 11 7.5 L 11 8 L 5 8 L 5 7.5 L 5 7.4375 C 5.012 7.326575 5.062525 7.22017 5.140625 7.140625 L 7.640625 4.640625 C 7.733415 4.54455 7.86701 4.5 8 4.5 z M 5 9 L 11 9 L 11 11 L 5 11 L 5 9 z "
     id="path2" />
</svg>
