<?xml version="1.0" encoding="UTF-8" standalone="no"?>
<!-- Created with Inkscape (http://www.inkscape.org/) -->

<svg
   inkscape:export-ydpi="90.000000"
   inkscape:export-xdpi="90.000000"
   width="480"
   height="300"
   id="svg11300"
   sodipodi:version="0.32"
   inkscape:version="1.1.2 (0a00cf5339, 2022-02-04)"
   sodipodi:docname="element.svg"
   inkscape:output_extension="org.inkscape.output.svg.inkscape"
   version="1.0"
   style="display:inline;enable-background:new"
   inkscape:export-filename="/home/sam/moka-next-template.png"
   xmlns:inkscape="http://www.inkscape.org/namespaces/inkscape"
   xmlns:sodipodi="http://sodipodi.sourceforge.net/DTD/sodipodi-0.dtd"
   xmlns="http://www.w3.org/2000/svg"
   xmlns:svg="http://www.w3.org/2000/svg"
   xmlns:rdf="http://www.w3.org/1999/02/22-rdf-syntax-ns#"
   xmlns:cc="http://creativecommons.org/ns#"
   xmlns:dc="http://purl.org/dc/elements/1.1/">
  <sodipodi:namedview
     stroke="#ef2929"
     fill="#f57900"
     id="base"
     pagecolor="#ffffff"
     bordercolor="#000000"
     borderopacity="0.54509804"
     inkscape:pageopacity="0"
     inkscape:pageshadow="2"
     inkscape:zoom="2"
     inkscape:cx="327.25"
     inkscape:cy="118.75"
     inkscape:current-layer="layer2"
     showgrid="false"
     inkscape:grid-bbox="true"
     inkscape:document-units="px"
     inkscape:showpageshadow="false"
     inkscape:window-width="1920"
     inkscape:window-height="1008"
     inkscape:window-x="0"
     inkscape:window-y="40"
     width="400px"
     height="300px"
     inkscape:snap-nodes="true"
     inkscape:snap-bbox="true"
     gridtolerance="10000"
     inkscape:object-nodes="true"
     inkscape:snap-grids="true"
     showguides="true"
     inkscape:guide-bbox="true"
     inkscape:window-maximized="1"
     inkscape:bbox-nodes="true"
     inkscape:bbox-paths="true"
     inkscape:snap-bbox-edge-midpoints="true"
     inkscape:snap-bbox-midpoints="true"
     inkscape:pagecheckerboard="0">
    <inkscape:grid
       spacingy="1"
       spacingx="1"
       id="grid5883"
       type="xygrid"
       enabled="true"
       visible="true"
       empspacing="4"
       snapvisiblegridlinesonly="true"
       dotted="false"
       color="#000000"
       opacity="0.1254902"
       empcolor="#203ef3"
       empopacity="0.36470588"
       originx="0"
       originy="0" />
    <inkscape:grid
       type="xygrid"
       id="grid11592"
       empspacing="8"
       visible="true"
       enabled="false"
       spacingx="0.5"
       spacingy="0.5"
       color="#ff0000"
       opacity="0.1254902"
       empcolor="#ff0000"
       empopacity="0.25098039"
       snapvisiblegridlinesonly="true"
       dotted="true"
       originx="0"
       originy="0" />
  </sodipodi:namedview>
  <defs
     id="defs3"><linearGradient
   id="linearGradient905">
  <stop
     style="stop-color:#ff7139;stop-opacity:1"
     offset="0"
     id="stop901" />
  <stop
     style="stop-color:#ff7139;stop-opacity:1"
     offset="1"
     id="stop903" />
</linearGradient>
<linearGradient
   id="linearGradient3984">
  <stop
     id="stop3986"
     offset="0"
     style="stop-color:#f57d33;stop-opacity:1" />
  <stop
     id="stop3988"
     offset="1"
     style="stop-color:#faa653;stop-opacity:1;" />
</linearGradient>

	
	
	

		
		
	
		
		
	

				
			
		</defs>
  <metadata
     id="metadata4">
    <rdf:RDF>
      <cc:Work
         rdf:about="">
        <dc:format>image/svg+xml</dc:format>
        <dc:type
           rdf:resource="http://purl.org/dc/dcmitype/StillImage" />
        <dc:creator>
          <cc:Agent>
            <dc:title>Sam Hewitt</dc:title>
          </cc:Agent>
        </dc:creator>
        <dc:source />
        <cc:license
           rdf:resource="" />
        <dc:title />
        <dc:subject>
          <rdf:Bag />
        </dc:subject>
        <dc:date />
        <dc:rights>
          <cc:Agent>
            <dc:title />
          </cc:Agent>
        </dc:rights>
        <dc:publisher>
          <cc:Agent>
            <dc:title />
          </cc:Agent>
        </dc:publisher>
        <dc:identifier />
        <dc:relation />
        <dc:language />
        <dc:coverage />
        <dc:description />
        <dc:contributor>
          <cc:Agent>
            <dc:title />
          </cc:Agent>
        </dc:contributor>
      </cc:Work>
      <cc:Work
         rdf:about="">
        <dc:format>image/svg+xml</dc:format>
        <dc:type
           rdf:resource="http://purl.org/dc/dcmitype/StillImage" />
      </cc:Work>
    </rdf:RDF>
  </metadata>
  <g
     style="display:inline"
     inkscape:groupmode="layer"
     inkscape:label="Icon"
     id="layer1">
    <g
       style="display:none"
       inkscape:label="Baseplate"
       id="layer7"
       inkscape:groupmode="layer">
      <text
         y="19.745117"
         xml:space="preserve"
         x="15.006836"
         style="font-style:normal;font-variant:normal;font-weight:normal;font-stretch:normal;line-height:0%;font-family:'DejaVu Sans';-inkscape-font-specification:'DejaVu Sans';display:inline;fill:#000000;fill-opacity:1;stroke:none;enable-background:new"
         inkscape:label="context"
         id="context"><tspan
           style="font-style:normal;font-variant:normal;font-weight:normal;font-stretch:normal;font-size:18px;line-height:1.25;font-family:'DejaVu Sans';-inkscape-font-specification:'DejaVu Sans'"
           y="19.745117"
           x="15.006836"
           sodipodi:role="line"
           id="tspan3933">apps</tspan></text>
      <text
         y="19.745117"
         xml:space="preserve"
         x="122.48828"
         style="font-style:normal;font-variant:normal;font-weight:bold;font-stretch:normal;line-height:0%;font-family:'DejaVu Sans';-inkscape-font-specification:'DejaVu Sans Bold';text-align:start;writing-mode:lr-tb;text-anchor:start;display:inline;fill:#000000;fill-opacity:1;stroke:none;enable-background:new"
         inkscape:label="icon-name"
         id="icon-name"><tspan
           style="font-style:normal;font-variant:normal;font-weight:bold;font-stretch:normal;font-size:18px;line-height:1.25;font-family:'DejaVu Sans';-inkscape-font-specification:'DejaVu Sans Bold'"
           y="19.745117"
           x="122.48828"
           sodipodi:role="line"
           id="tspan3937">sheet</tspan></text>
      <rect
         style="fill:#eeeeec;fill-opacity:1;fill-rule:nonzero;stroke:none;stroke-width:2;marker:none;visibility:visible;display:inline;overflow:visible;enable-background:accumulate"
         id="rect16x16"
         width="16"
         height="16"
         x="416"
         y="140"
         inkscape:label="16x16" />
      <rect
         style="fill:#d4d4d4;fill-opacity:1;fill-rule:nonzero;stroke:none;stroke-width:2;marker:none;visibility:visible;display:inline;overflow:visible;enable-background:accumulate"
         id="rect24x24"
         width="24"
         height="24"
         x="416"
         y="100"
         inkscape:label="24x24" />
      <rect
         style="fill:#eeeeec;fill-opacity:1;fill-rule:nonzero;stroke:none;stroke-width:2;marker:none;visibility:visible;display:inline;overflow:visible;enable-background:accumulate"
         id="rect32x32"
         width="32"
         height="32"
         x="416"
         y="52"
         inkscape:label="32x32" />
      <rect
         inkscape:label="22x22"
         y="101"
         x="417"
         height="22"
         width="22"
         id="rect22x22"
         style="fill:#eeeeec;fill-opacity:1;fill-rule:nonzero;stroke:none;stroke-width:2;marker:none;visibility:visible;display:inline;overflow:visible;enable-background:accumulate" />
      <rect
         inkscape:label="48x48"
         y="220"
         x="288"
         height="48"
         width="48"
         id="rect48x48"
         style="fill:#eeeeec;fill-opacity:1;fill-rule:nonzero;stroke:none;stroke-width:2;marker:none;visibility:visible;display:inline;overflow:visible;enable-background:accumulate" />
      <rect
         style="fill:#eeeeec;fill-opacity:1;fill-rule:nonzero;stroke:none;stroke-width:2;marker:none;visibility:visible;display:inline;overflow:visible;enable-background:accumulate"
         id="rect256x256"
         width="256"
         height="256"
         x="16"
         y="28"
         inkscape:label="256x256" />
      <rect
         style="fill:#eeeeec;fill-opacity:1;fill-rule:nonzero;stroke:none;stroke-width:2;marker:none;visibility:visible;display:inline;overflow:visible;enable-background:accumulate"
         id="rect64x64"
         width="64"
         height="64"
         x="288"
         y="140"
         inkscape:label="64x64" />
      <rect
         style="fill:#eeeeec;fill-opacity:1;fill-rule:nonzero;stroke:none;stroke-width:2;marker:none;visibility:visible;display:inline;overflow:visible;enable-background:accumulate"
         id="rect96x96"
         width="96"
         height="96"
         x="288"
         y="28"
         inkscape:label="96x96" />
    </g>
    <g
       inkscape:groupmode="layer"
       id="layer4"
       inkscape:label="Shadow"
       style="display:inline"
       sodipodi:insensitive="true">
      <rect
         ry="50"
         y="47"
         x="34"
         height="220"
         width="220"
         id="rect4114"
         style="opacity:0.1;color:#bebebe;fill:#000000;fill-opacity:1;fill-rule:nonzero;stroke:none;stroke-width:0;marker:none;visibility:visible;display:inline;overflow:visible;enable-background:accumulate" />
      <rect
         style="opacity:0.1;color:#bebebe;fill:#000000;fill-opacity:1;fill-rule:nonzero;stroke:none;stroke-width:0;marker:none;visibility:visible;display:inline;overflow:visible;enable-background:accumulate"
         id="rect4120"
         width="30"
         height="30"
         x="417"
         y="54"
         ry="7" />
      <rect
         transform="scale(1,-1)"
         ry="9"
         y="-266"
         x="291"
         height="42"
         width="42"
         id="rect4122"
         style="opacity:0.1;color:#bebebe;fill:#000000;fill-opacity:1;fill-rule:nonzero;stroke:none;stroke-width:0;marker:none;visibility:visible;display:inline;overflow:visible;enable-background:accumulate" />
      <rect
         style="opacity:0.1;color:#bebebe;fill:#000000;fill-opacity:1;fill-rule:nonzero;stroke:none;stroke-width:0;marker:none;visibility:visible;display:inline;overflow:visible;enable-background:accumulate"
         id="rect4124"
         width="88"
         height="88"
         x="292"
         y="33"
         ry="18" />
      <rect
         ry="12.5"
         y="143"
         x="290"
         height="60"
         width="60"
         id="rect4126"
         style="opacity:0.1;color:#bebebe;fill:#000000;fill-opacity:1;fill-rule:nonzero;stroke:none;stroke-width:0;marker:none;visibility:visible;display:inline;overflow:visible;enable-background:accumulate" />
      <path
         id="path4268"
         d="m 422,101 c -2.77,0 -5,2.23 -5,5 l 0,12 c 0,2.77 2.23,5 5,5 l 12,0 c 2.77,0 5,-2.23 5,-5 l 0,-12 c 0,-2.77 -2.23,-5 -5,-5 z"
         style="opacity:0.1;color:#bebebe;fill:#000000;fill-opacity:1;fill-rule:nonzero;stroke:none;stroke-width:0;marker:none;visibility:visible;display:inline;overflow:visible;enable-background:accumulate"
         inkscape:connector-curvature="0"
         sodipodi:nodetypes="sssssssss" />
      <path
         id="path4270"
         d="m 419,140 c -1.662,0 -3,1.338 -3,3 l 0,10 c 0,1.662 1.338,3 3,3 l 10,0 c 1.662,0 3,-1.338 3,-3 l 0,-10 c 0,-1.662 -1.338,-3 -3,-3 z"
         style="opacity:0.1;color:#bebebe;fill:#000000;fill-opacity:1;fill-rule:nonzero;stroke:none;stroke-width:0;marker:none;visibility:visible;display:inline;overflow:visible;enable-background:accumulate"
         inkscape:connector-curvature="0"
         sodipodi:nodetypes="sssssssss" />
    </g>
    <g
       inkscape:groupmode="layer"
       id="layer2"
       inkscape:label="Background"
       style="display:inline">
      <g
         id="g12444">
        <g
           id="g11672">
          <path
             style="color:#bebebe;display:inline;overflow:visible;visibility:visible;fill:#4cc464;fill-opacity:1;fill-rule:nonzero;stroke:none;stroke-width:2;marker:none;enable-background:accumulate"
             d="M 84,46.5 C 56.568735,46.5 34.5,68.568732 34.5,96 v 120 c 0,27.43127 22.068735,49.5 49.5,49.5 h 120 c 27.43127,0 49.5,-22.06873 49.5,-49.5 V 96 C 253.5,68.568732 231.43127,46.5 204,46.5 Z"
             id="path4200" />
          <path
             id="path4508"
             style="fill:#ffffff;stroke-width:0.158985"
             d="m 143.78002,81.000065 c -26.74963,0 -41.53309,22.816505 -41.57868,45.128875 -1.91472,0.46391 -3.878366,0.99788 -5.901461,1.62695 0,0 -1.563448,9.35582 0.746497,17.84177 a 13.259234,13.351935 0 0 1 -0.109716,7.27343 c -0.814344,2.80313 -1.696685,7.10002 -1.704612,12.57226 -0.01374,9.33681 2.675345,17.1415 6.769452,23.64451 h -6.373664 a 8.1941398,8.2514287 0 0 0 -3.754055,0.93164 c -3.138552,1.61614 -5.690043,5.22025 -7.180896,10.16601 -1.384702,4.59635 -1.749134,9.9179 -1.026681,14.99608 1.348262,9.46074 6.153861,15.81834 11.963592,15.81834 h 16.264284 0.13324 v -0.008 c 0.69891,-0.0358 1.38809,-0.34686 2.04945,-0.94531 l 7.87254,-6.99219 c 1.61442,-1.45182 2.81457,-5.10601 3.19956,-9.77734 0.0913,-1.10535 0.13291,-2.26738 0.12539,-3.44336 9.89595,5.4295 18.43717,7.63281 18.43717,7.63281 0,0 8.08743,-2.0706 17.64561,-7.14647 0.006,1.00896 0.0448,2.00483 0.12344,2.95702 0.385,4.67133 1.58513,8.32552 3.19956,9.77734 l 7.87058,6.99219 c 0.66221,0.59789 1.3512,0.90906 2.04945,0.94531 v 0.008 h 0.13519 16.26429 c 5.80814,0 10.61532,-6.3576 11.96359,-15.81834 0.72244,-5.07818 0.35801,-10.39973 -1.02668,-14.99608 -1.49085,-4.94576 -4.04236,-8.54987 -7.18091,-10.16601 a 8.1941398,8.2514287 0 0 0 -3.75404,-0.93164 h -5.41947 c 4.06824,-6.46578 6.74596,-14.22113 6.75963,-23.49803 0,-5.47224 -0.86878,-9.76505 -1.6752,-12.57616 a 13.248143,13.340767 0 0 1 -0.0882,-7.27538 c 2.33529,-8.47637 0.80136,-17.83396 0.80136,-17.83396 -2.06406,-0.64881 -4.06739,-1.19736 -6.01902,-1.67383 -8.7e-4,-22.34462 -16.68838,-45.230435 -41.58059,-45.230435 z m -15.48645,20.912095 a 9.6073593,9.6745287 0 0 1 9.60653,9.67578 h -19.21502 a 9.6073593,9.6745287 0 0 1 9.60849,-9.67578 z m 29.6954,0 a 9.6073593,9.6745287 0 0 1 9.60457,9.67578 h -19.21109 a 9.6073593,9.6745287 0 0 1 9.60652,-9.67578 z m -25.21443,13.8535 a 1.8251449,1.8379052 0 0 1 1.82608,1.8379 1.8251449,1.8379052 0 0 1 -1.82608,1.83789 1.8251449,1.8379052 0 0 1 -1.82413,-1.83789 1.8251449,1.8379052 0 0 1 1.82413,-1.8379 z m 7.17501,0 a 1.8251449,1.8379052 0 0 1 1.82608,1.8379 1.8251449,1.8379052 0 0 1 -1.82608,1.83789 1.8251449,1.8379052 0 0 1 -1.82413,-1.83789 1.8251449,1.8379052 0 0 1 1.82413,-1.8379 z m 7.17501,0 a 1.8251449,1.8379052 0 0 1 1.82413,1.8379 1.8251449,1.8379052 0 0 1 -1.82413,1.83789 1.8251449,1.8379052 0 0 1 -1.82608,-1.83789 1.8251449,1.8379052 0 0 1 1.82608,-1.8379 z m 7.17503,0 a 1.8251449,1.8379052 0 0 1 1.82608,1.8379 1.8251449,1.8379052 0 0 1 -1.82608,1.83789 1.8251449,1.8379052 0 0 1 -1.82413,-1.83789 1.8251449,1.8379052 0 0 1 1.82413,-1.8379 z m -62.81767,15.08788 a 11.890375,11.973506 0 0 0 -11.891096,11.97264 11.890375,11.973506 0 0 0 2.313953,7.07226 l -3.062412,6.02735 c -2.393258,0.36353 -4.575766,1.8378 -5.76235,4.17382 l -3.313205,6.52344 c -1.07786,2.12196 -1.101198,4.49896 -0.266467,6.541 a 13.116644,13.208349 0 0 0 -11.64422,19.05662 3.1686542,3.1908077 0 0 0 5.544866,-3.08008 6.7809201,6.8283286 0 1 1 6.689109,3.48046 3.1686542,3.1908077 0 0 0 0.352676,6.36329 v -0.002 a 3.4506644,3.4747895 0 0 0 0.366393,-0.0195 13.116644,13.208349 0 0 0 8.607279,-20.68552 c 2.135197,-0.51232 4.036931,-1.92492 5.115775,-4.04883 l 3.313205,-6.52368 c 1.21646,-2.39482 1.092256,-5.11428 -0.096,-7.31054 l 2.86844,-5.65038 a 11.890375,11.973506 0 0 0 0.864061,0.0566 11.890375,11.973506 0 0 0 2.656832,-0.33398 c 0.136136,-0.55312 0.272816,-1.12522 0.409497,-1.59571 a 13.259234,13.351935 0 0 0 0.109722,-7.27342 c -1.463638,-5.3769 -1.372066,-11.08461 -1.108973,-14.55859 a 11.890375,11.973506 0 0 0 -2.067078,-0.18554 z m 105.03115,0 a 11.890375,11.973506 0 0 0 -2.28065,0.25 c 0.25804,3.46366 0.34701,9.2149 -1.14619,14.63475 a 13.248143,13.340767 0 0 0 0.0882,7.27538 c 0.11676,0.40705 0.23216,0.91063 0.34876,1.37891 a 11.890375,11.973506 0 0 0 2.98992,0.40819 11.890375,11.973506 0 0 0 0.86405,-0.0352 l 2.86257,5.63671 c -1.18827,2.19626 -1.31247,4.91572 -0.096,7.31055 l 3.31515,6.52538 c 1.07781,2.12185 2.97722,3.53134 5.1099,4.04492 a 13.118228,13.209944 0 0 0 8.61903,20.67967 3.4997785,3.5242471 0 0 0 0.36053,0.0215 h 0.006 a 3.1686542,3.1908077 0 0 0 0.35269,-6.36328 6.7809201,6.8283286 0 1 1 6.69106,-3.48047 3.1686542,3.1908077 0 1 0 5.54486,3.08008 13.118228,13.209944 0 0 0 -11.64813,-19.06052 c 0.8295,-2.03922 0.80526,-4.40973 -0.2704,-6.52735 l -3.31516,-6.52538 c -1.18657,-2.33598 -3.36913,-3.80831 -5.76235,-4.17187 l -3.05654,-6.01757 a 11.890375,11.973506 0 0 0 2.312,-7.0918 11.890375,11.973506 0 0 0 -11.88913,-11.97264 z m -52.04533,17.36716 a 9.1035435,9.1671909 0 0 1 8.41526,9.16016 9.1035435,9.1671909 0 0 1 -7.11429,8.92772 l 5.04525,21.62889 -7.08294,2.0293 -7.07705,-2.05078 5.11578,-21.61327 a 9.1035435,9.1671909 0 0 1 2.69799,-18.08202 z m -36.38451,48.6777 c 4.77192,5.04004 10.29696,9.00301 15.56088,12.04492 0.0403,1.28984 0.0143,2.62307 -0.094,3.94921 -0.31686,3.87205 -1.24186,6.69176 -2.34138,7.67772 l -7.86469,6.98633 c -2.94367,2.61327 -5.98858,-3.09891 -6.78708,-12.77343 -0.54897,-6.65124 0.10641,-13.44065 1.52631,-17.88475 z m 70.68627,0.76367 c 1.26056,4.43562 1.8216,10.82908 1.30293,17.11326 -0.79851,9.67454 -3.83668,15.39345 -6.78511,12.77539 l -7.86666,-6.98633 c -1.09951,-0.98596 -2.02257,-3.80568 -2.33942,-7.67772 -0.0946,-1.14603 -0.12753,-2.29745 -0.10972,-3.42188 5.29001,-2.95634 10.90113,-6.82497 15.79798,-11.80272 z" />
        </g>
        <g
           id="g11791">
          <path
             style="color:#bebebe;display:inline;overflow:visible;visibility:visible;fill:#4cc464;fill-opacity:1;fill-rule:nonzero;stroke:none;stroke-width:2;marker:none;enable-background:accumulate"
             d="m 300,223.5 c -4.71531,0 -8.5,3.78469 -8.5,8.5 v 24 c 0,4.71531 3.78469,8.5 8.5,8.5 h 24 c 4.71531,0 8.5,-3.78469 8.5,-8.5 v -24 c 0,-4.71531 -3.78469,-8.5 -8.5,-8.5 z"
             id="path4208" />
          <path
             id="path11753"
             style="fill:#ffffff;stroke-width:0.0297643"
             d="m 311.95889,229.95892 c -5.00792,0 -7.7756,4.27158 -7.78413,8.44878 -0.35847,0.0869 -0.72609,0.18682 -1.10484,0.30459 0,0 -0.2927,1.75155 0.13975,3.34024 a 2.4823223,2.4996773 0 0 1 -0.0205,1.36169 c -0.15246,0.52479 -0.31764,1.32923 -0.31913,2.35371 -0.003,1.74799 0.50087,3.20914 1.26734,4.4266 h -1.19324 a 1.5340627,1.544788 0 0 0 -0.70281,0.17442 c -0.58759,0.30256 -1.06526,0.9773 -1.34437,1.90322 -0.25924,0.86051 -0.32747,1.85678 -0.19221,2.80749 0.25241,1.77119 1.15209,2.96142 2.23976,2.96142 h 3.04491 0.0249 v -0.002 c 0.13084,-0.007 0.25987,-0.0649 0.38369,-0.17697 l 1.47385,-1.30904 c 0.30224,-0.2718 0.52693,-0.95592 0.599,-1.83046 0.0171,-0.20694 0.0249,-0.42449 0.0235,-0.64465 1.85267,1.01648 3.45171,1.42897 3.45171,1.42897 0,0 1.51409,-0.38764 3.30352,-1.33792 10e-4,0.18889 0.008,0.37533 0.0231,0.5536 0.0721,0.87454 0.29676,1.55866 0.599,1.83046 l 1.47349,1.30904 c 0.12397,0.11193 0.25296,0.17019 0.38369,0.17697 v 0.002 h 0.0253 3.04491 c 1.08737,0 1.98734,-1.19023 2.23976,-2.96142 0.13525,-0.95071 0.067,-1.94698 -0.19221,-2.80749 -0.27911,-0.92592 -0.75679,-1.60066 -1.34437,-1.90322 a 1.5340627,1.544788 0 0 0 -0.70281,-0.17442 h -1.01461 c 0.76164,-1.21049 1.26294,-2.6624 1.2655,-4.39917 0,-1.02449 -0.16265,-1.82816 -0.31362,-2.35445 a 2.4802459,2.4975865 0 0 1 -0.0165,-1.36205 c 0.4372,-1.5869 0.15003,-3.33878 0.15003,-3.33878 -0.38642,-0.12147 -0.76148,-0.22416 -1.12685,-0.31337 -1.6e-4,-4.18324 -3.12431,-8.46779 -7.78449,-8.46779 z m -2.89929,3.91505 a 1.798638,1.8112131 0 0 1 1.79848,1.81144 h -3.59733 a 1.798638,1.8112131 0 0 1 1.79885,-1.81144 z m 5.55941,0 a 1.798638,1.8112131 0 0 1 1.79812,1.81144 h -3.5966 a 1.798638,1.8112131 0 0 1 1.79848,-1.81144 z m -4.7205,2.59357 a 0.34169379,0.34408271 0 0 1 0.34186,0.34408 0.34169379,0.34408271 0 0 1 -0.34186,0.34408 0.34169379,0.34408271 0 0 1 -0.34151,-0.34408 0.34169379,0.34408271 0 0 1 0.34151,-0.34408 z m 1.34326,0 a 0.34169379,0.34408271 0 0 1 0.34187,0.34408 0.34169379,0.34408271 0 0 1 -0.34187,0.34408 0.34169379,0.34408271 0 0 1 -0.3415,-0.34408 0.34169379,0.34408271 0 0 1 0.3415,-0.34408 z m 1.34327,0 a 0.34169379,0.34408271 0 0 1 0.3415,0.34408 0.34169379,0.34408271 0 0 1 -0.3415,0.34408 0.34169379,0.34408271 0 0 1 -0.34187,-0.34408 0.34169379,0.34408271 0 0 1 0.34187,-0.34408 z m 1.34327,0 a 0.34169379,0.34408271 0 0 1 0.34187,0.34408 0.34169379,0.34408271 0 0 1 -0.34187,0.34408 0.34169379,0.34408271 0 0 1 -0.3415,-0.34408 0.34169379,0.34408271 0 0 1 0.3415,-0.34408 z m -11.76039,2.82467 a 2.2260519,2.2416153 0 0 0 -2.22618,2.24146 2.2260519,2.2416153 0 0 0 0.4332,1.32403 l -0.57333,1.12841 c -0.44805,0.0681 -0.85665,0.34406 -1.07879,0.7814 l -0.62028,1.22128 c -0.20179,0.39726 -0.20616,0.84227 -0.0499,1.22457 a 2.4556274,2.4727959 0 0 0 -2.17997,3.56768 0.59321836,0.59736582 0 0 0 1.03808,-0.57664 1.2694873,1.2783629 0 1 1 1.2523,0.65159 0.59321836,0.59736582 0 0 0 0.066,1.19131 v -3.8e-4 a 0.64601479,0.65053136 0 0 0 0.0686,-0.004 2.4556274,2.4727959 0 0 0 1.61141,-3.87263 c 0.39974,-0.0959 0.75577,-0.36037 0.95774,-0.758 l 0.62028,-1.22133 c 0.22774,-0.44834 0.20449,-0.95747 -0.018,-1.36864 l 0.53702,-1.05783 a 2.2260519,2.2416153 0 0 0 0.16176,0.0106 2.2260519,2.2416153 0 0 0 0.4974,-0.0625 c 0.0255,-0.10355 0.0511,-0.21066 0.0767,-0.29874 a 2.4823223,2.4996773 0 0 0 0.0205,-1.36169 c -0.27401,-1.00664 -0.25687,-2.0752 -0.20762,-2.72558 a 2.2260519,2.2416153 0 0 0 -0.38698,-0.0347 z m 19.66337,0 a 2.2260519,2.2416153 0 0 0 -0.42697,0.0468 c 0.0483,0.64845 0.065,1.72516 -0.21459,2.73984 a 2.4802459,2.4975865 0 0 0 0.0165,1.36205 c 0.0219,0.0762 0.0435,0.17049 0.0653,0.25816 a 2.2260519,2.2416153 0 0 0 0.55976,0.0764 2.2260519,2.2416153 0 0 0 0.16176,-0.007 l 0.53592,1.05527 c -0.22246,0.41117 -0.24572,0.92029 -0.018,1.36864 l 0.62064,1.22165 c 0.20179,0.39724 0.55738,0.66112 0.95666,0.75727 a 2.4559239,2.4730945 0 0 0 1.61361,3.87153 0.65520967,0.65979055 0 0 0 0.0675,0.004 h 10e-4 a 0.59321836,0.59736582 0 0 0 0.066,-1.1913 1.2694873,1.2783629 0 1 1 1.25266,-0.6516 0.59321836,0.59736582 0 1 0 1.03808,0.57664 2.4559239,2.4730945 0 0 0 -2.1807,-3.56841 c 0.15529,-0.38177 0.15075,-0.82556 -0.0506,-1.22201 l -0.62065,-1.22165 c -0.22214,-0.43733 -0.63075,-0.71297 -1.0788,-0.78103 l -0.57223,-1.12658 a 2.2260519,2.2416153 0 0 0 0.43284,-1.32769 2.2260519,2.2416153 0 0 0 -2.22582,-2.24145 z m -9.74365,3.25139 a 1.7043163,1.7162321 0 0 1 1.57546,1.71492 1.7043163,1.7162321 0 0 1 -1.3319,1.6714 l 0.94455,4.04924 -1.32603,0.37991 -1.32493,-0.38393 0.95775,-4.04632 a 1.7043163,1.7162321 0 0 1 0.5051,-3.38522 z m -6.81171,9.11318 c 0.89337,0.94357 1.92774,1.68549 2.91323,2.25498 0.007,0.24148 0.003,0.49108 -0.0176,0.73935 -0.0593,0.72491 -0.2325,1.2528 -0.43835,1.43738 l -1.47238,1.30795 c -0.5511,0.48924 -1.12115,-0.58016 -1.27064,-2.39138 -0.10278,-1.24521 0.0199,-2.51628 0.28575,-3.34828 z m 13.2335,0.14297 c 0.236,0.83041 0.34103,2.02736 0.24393,3.20385 -0.14949,1.81121 -0.71828,2.88188 -1.27027,2.39174 l -1.47275,-1.30794 c -0.20585,-0.18459 -0.37866,-0.71248 -0.43798,-1.43739 -0.0177,-0.21455 -0.0239,-0.43011 -0.0205,-0.64062 0.99037,-0.55347 2.04085,-1.27774 2.95761,-2.20964 z" />
        </g>
        <g
           id="g11797">
          <path
             style="color:#bebebe;display:inline;overflow:visible;visibility:visible;fill:#4cc464;fill-opacity:1;fill-rule:nonzero;stroke:none;stroke-width:2;marker:none;enable-background:accumulate"
             d="m 302.5,142.5 c -6.65502,0 -12,5.34498 -12,12 v 35 c 0,6.65502 5.34498,12 12,12 h 35 c 6.65502,0 12,-5.34498 12,-12 v -35 c 0,-6.65502 -5.34498,-12 -12,-12 z"
             id="path4212" />
          <path
             id="path11759"
             style="fill:#ffffff;stroke-width:0.0428316"
             d="m 319.94056,151.79454 c -7.20653,0 -11.18928,6.14691 -11.20157,12.158 -0.51583,0.12498 -1.04485,0.26884 -1.58989,0.43831 0,0 -0.4212,2.52052 0.20111,4.80669 a 3.5721224,3.5970966 0 0 1 -0.0296,1.95951 c -0.21939,0.75518 -0.4571,1.91279 -0.45924,3.38705 -0.004,2.51539 0.72076,4.61803 1.82374,6.36998 H 306.968 a 2.2075536,2.2229876 0 0 0 -1.01137,0.25099 c -0.84554,0.4354 -1.53293,1.40637 -1.93458,2.73879 -0.37304,1.23828 -0.47122,2.67194 -0.27659,4.04004 0.36323,2.54878 1.65789,4.26156 3.22307,4.26156 h 4.3817 0.0359 v -0.002 c 0.18829,-0.01 0.37396,-0.0934 0.55213,-0.25467 l 2.12091,-1.88374 c 0.43494,-0.39113 0.75827,-1.37559 0.86199,-2.63408 0.0246,-0.29779 0.0358,-0.61085 0.0338,-0.92766 2.66603,1.46274 4.96709,2.05633 4.96709,2.05633 0,0 2.1788,-0.55784 4.75384,-1.92531 0.002,0.27182 0.0121,0.54011 0.0333,0.79664 0.10372,1.25849 0.42705,2.24295 0.86199,2.63408 l 2.12038,1.88374 c 0.1784,0.16107 0.36402,0.24491 0.55213,0.25467 v 0.002 h 0.0364 4.3817 c 1.56475,0 2.85983,-1.71278 3.22307,-4.26156 0.19463,-1.3681 0.0965,-2.80176 -0.2766,-4.04004 -0.40164,-1.33242 -1.08903,-2.30339 -1.93458,-2.73879 a 2.2075536,2.2229876 0 0 0 -1.01136,-0.25099 h -1.46004 c 1.09601,-1.74192 1.8174,-3.83127 1.82108,-6.33052 0,-1.47426 -0.23405,-2.63077 -0.4513,-3.3881 a 3.5691344,3.5940879 0 0 1 -0.0238,-1.96003 c 0.62915,-2.28359 0.2159,-4.80459 0.2159,-4.80459 -0.55608,-0.17479 -1.09579,-0.32257 -1.62157,-0.45094 -2.3e-4,-6.01978 -4.49595,-12.18536 -11.20207,-12.18536 z m -4.17215,5.63385 a 2.588284,2.6063799 0 0 1 2.58806,2.60671 h -5.17665 a 2.588284,2.6063799 0 0 1 2.58859,-2.60671 z m 8.00013,0 a 2.588284,2.6063799 0 0 1 2.58753,2.60671 h -5.17559 a 2.588284,2.6063799 0 0 1 2.58806,-2.60671 z m -6.79293,3.73222 a 0.4917057,0.49514341 0 0 1 0.49196,0.49514 0.4917057,0.49514341 0 0 1 -0.49196,0.49514 0.4917057,0.49514341 0 0 1 -0.49143,-0.49514 0.4917057,0.49514341 0 0 1 0.49143,-0.49514 z m 1.93299,0 a 0.4917057,0.49514341 0 0 1 0.49196,0.49514 0.4917057,0.49514341 0 0 1 -0.49196,0.49514 0.4917057,0.49514341 0 0 1 -0.49143,-0.49514 0.4917057,0.49514341 0 0 1 0.49143,-0.49514 z m 1.933,0 a 0.4917057,0.49514341 0 0 1 0.49143,0.49514 0.4917057,0.49514341 0 0 1 -0.49143,0.49514 0.4917057,0.49514341 0 0 1 -0.49196,-0.49514 0.4917057,0.49514341 0 0 1 0.49196,-0.49514 z m 1.933,0 a 0.4917057,0.49514341 0 0 1 0.49195,0.49514 0.4917057,0.49514341 0 0 1 -0.49195,0.49514 0.4917057,0.49514341 0 0 1 -0.49144,-0.49514 0.4917057,0.49514341 0 0 1 0.49144,-0.49514 z m -16.92349,4.06477 a 3.203343,3.225739 0 0 0 -3.20353,3.22551 3.203343,3.225739 0 0 0 0.62339,1.90531 l -0.82503,1.6238 c -0.64476,0.0979 -1.23274,0.49512 -1.55242,1.12446 l -0.8926,1.75745 c -0.29038,0.57167 -0.29667,1.21205 -0.0718,1.76219 a 3.5337077,3.5584136 0 0 0 -3.13703,5.13398 0.85365569,0.85962398 0 0 0 1.49382,-0.8298 1.8268232,1.8395954 0 1 1 1.80209,0.93766 0.85365569,0.85962398 0 0 0 0.095,1.71431 v -5.4e-4 a 0.92963104,0.9361305 0 0 0 0.0987,-0.005 3.5337077,3.5584136 0 0 0 2.31886,-5.57281 c 0.57523,-0.13802 1.08757,-0.51859 1.37822,-1.09078 l 0.8926,-1.75752 c 0.32772,-0.64518 0.29426,-1.37782 -0.0259,-1.96951 l 0.77277,-1.52225 a 3.203343,3.225739 0 0 0 0.23279,0.0153 3.203343,3.225739 0 0 0 0.71576,-0.09 c 0.0367,-0.14901 0.0735,-0.30314 0.11032,-0.42989 a 3.5721224,3.5970966 0 0 0 0.0296,-1.95951 c -0.39431,-1.44857 -0.36964,-2.98626 -0.29876,-3.92217 a 3.203343,3.225739 0 0 0 -0.55688,-0.05 z m 28.29607,0 a 3.203343,3.225739 0 0 0 -0.61442,0.0674 c 0.0695,0.93313 0.0935,2.48255 -0.3088,3.9427 a 3.5691344,3.5940879 0 0 0 0.0238,1.96003 c 0.0315,0.10966 0.0625,0.24533 0.094,0.37149 a 3.203343,3.225739 0 0 0 0.80551,0.10997 3.203343,3.225739 0 0 0 0.23278,-0.009 l 0.77119,1.51857 c -0.32012,0.59169 -0.35359,1.32433 -0.0259,1.96951 l 0.89312,1.75798 c 0.29037,0.57164 0.80208,0.95136 1.37664,1.08972 a 3.5341344,3.5588433 0 0 0 2.32202,5.57124 0.94286269,0.94945469 0 0 0 0.0971,0.006 h 0.002 a 0.85365569,0.85962398 0 0 0 0.095,-1.71431 1.8268232,1.8395954 0 1 1 1.80261,-0.93766 0.85365569,0.85962398 0 1 0 1.49382,0.8298 3.5341344,3.5588433 0 0 0 -3.13808,-5.13503 c 0.22347,-0.54938 0.21694,-1.18801 -0.0728,-1.75851 l -0.89312,-1.75798 c -0.31967,-0.62933 -0.90767,-1.02598 -1.55242,-1.12393 l -0.82345,-1.62117 a 3.203343,3.225739 0 0 0 0.62287,-1.91058 3.203343,3.225739 0 0 0 -3.20301,-3.2255 z m -14.02135,4.67882 a 2.4525528,2.4696998 0 0 1 2.26713,2.46781 2.4525528,2.4696998 0 0 1 -1.91664,2.40518 l 1.35922,5.82697 -1.90818,0.5467 -1.90661,-0.55249 1.37823,-5.82275 a 2.4525528,2.4696998 0 0 1 0.72685,-4.87142 z m -9.80222,13.11409 c 1.28559,1.35782 2.77407,2.42547 4.1922,3.24498 0.0109,0.34749 0.004,0.70667 -0.0253,1.06394 -0.0854,1.04315 -0.33457,1.8028 -0.63078,2.06842 l -2.1188,1.88217 c -0.79304,0.70403 -1.61336,-0.83487 -1.82848,-3.44125 -0.1479,-1.79188 0.0287,-3.62099 0.41119,-4.81826 z m 19.04334,0.20573 c 0.3396,1.19499 0.49075,2.91743 0.35101,4.61043 -0.21512,2.60638 -1.03362,4.14709 -1.82795,3.44177 l -2.11933,-1.88216 c -0.29621,-0.26563 -0.54489,-1.02528 -0.63025,-2.06843 -0.0255,-0.30875 -0.0344,-0.61895 -0.0296,-0.92188 1.42516,-0.79645 2.93683,-1.83869 4.25608,-3.17973 z" />
        </g>
        <g
           id="g11883">
          <path
             style="color:#bebebe;display:inline;overflow:visible;visibility:visible;fill:#4cc464;fill-opacity:1;fill-rule:nonzero;stroke:none;stroke-width:2;marker:none;enable-background:accumulate"
             d="m 310,32.5 c -9.70255,0 -17.5,7.797452 -17.5,17.5 v 52 c 0,9.70255 7.79745,17.5 17.5,17.5 h 52 c 9.70255,0 17.5,-7.79745 17.5,-17.5 V 50 c 0,-9.702548 -7.79745,-17.5 -17.5,-17.5 z"
             id="path4210" />
          <path
             id="path11765"
             style="fill:#ffffff;stroke-width:0.0631584"
             d="m 335.9128,46.20551 c -10.62657,0 -16.49945,9.06409 -16.51756,17.92791 -0.76064,0.18429 -1.54072,0.39641 -2.34441,0.64632 0,0 -0.6211,3.71669 0.29655,7.08783 a 5.2673669,5.3041933 0 0 1 -0.0436,2.88944 c -0.3235,1.11357 -0.67402,2.82056 -0.67717,4.99446 -0.005,3.70914 1.06281,6.80964 2.68923,9.39302 h -2.532 a 3.2552062,3.2779648 0 0 0 -1.49134,0.37011 c -1.24682,0.64203 -2.26042,2.0738 -2.85268,4.03855 -0.55009,1.82595 -0.69486,3.93999 -0.40786,5.95735 0.53561,3.75837 2.44468,6.28399 4.75266,6.28399 h 6.46115 0.0529 v -0.003 c 0.27765,-0.0142 0.55144,-0.1378 0.81417,-0.37554 l 3.12745,-2.77772 c 0.64134,-0.57675 1.11811,-2.02841 1.27105,-3.88415 0.0363,-0.43911 0.0528,-0.90074 0.0498,-1.36791 3.93126,2.15693 7.32435,3.03222 7.32435,3.03222 0,0 3.21282,-0.82257 7.0099,-2.83901 0.002,0.40082 0.0178,0.79644 0.049,1.1747 0.15294,1.85574 0.62971,3.3074 1.27106,3.88415 l 3.12667,2.77772 c 0.26307,0.23752 0.53677,0.36114 0.81416,0.37554 v 0.003 h 0.0537 6.46115 c 2.30735,0 4.21705,-2.52562 4.75266,-6.28399 0.287,-2.01736 0.14222,-4.1314 -0.40786,-5.95735 -0.59225,-1.96475 -1.60587,-3.39652 -2.85269,-4.03855 a 3.2552062,3.2779648 0 0 0 -1.49133,-0.37011 h -2.15294 c 1.61615,-2.56859 2.6799,-5.64949 2.68533,-9.33483 0,-2.1739 -0.34513,-3.87927 -0.66549,-4.99601 a 5.2629609,5.2997567 0 0 1 -0.035,-2.89022 c 0.92772,-3.36732 0.31835,-7.08472 0.31835,-7.08472 -0.81997,-0.25775 -1.61581,-0.47566 -2.39111,-0.66495 -3.5e-4,-8.87663 -6.62963,-17.96825 -16.51832,-17.96825 z m -6.15215,8.30754 a 3.8166221,3.8433059 0 0 1 3.81629,3.84381 h -7.63336 a 3.8166221,3.8433059 0 0 1 3.81707,-3.84381 z m 11.7968,0 a 3.8166221,3.8433059 0 0 1 3.81551,3.84381 h -7.6318 a 3.8166221,3.8433059 0 0 1 3.81629,-3.84381 z m -10.01669,5.50345 a 0.72505756,0.73012672 0 0 1 0.72543,0.73012 0.72505756,0.73012672 0 0 1 -0.72543,0.73012 0.72505756,0.73012672 0 0 1 -0.72465,-0.73012 0.72505756,0.73012672 0 0 1 0.72465,-0.73012 z m 2.85035,0 a 0.72505756,0.73012672 0 0 1 0.72543,0.73012 0.72505756,0.73012672 0 0 1 -0.72543,0.73012 0.72505756,0.73012672 0 0 1 -0.72466,-0.73012 0.72505756,0.73012672 0 0 1 0.72466,-0.73012 z m 2.85034,0 a 0.72505756,0.73012672 0 0 1 0.72466,0.73012 0.72505756,0.73012672 0 0 1 -0.72466,0.73012 0.72505756,0.73012672 0 0 1 -0.72543,-0.73012 0.72505756,0.73012672 0 0 1 0.72543,-0.73012 z m 2.85036,0 a 0.72505756,0.73012672 0 0 1 0.72543,0.73012 0.72505756,0.73012672 0 0 1 -0.72543,0.73012 0.72505756,0.73012672 0 0 1 -0.72466,-0.73012 0.72505756,0.73012672 0 0 1 0.72466,-0.73012 z m -24.95497,5.99381 a 4.7235736,4.7565982 0 0 0 -4.72386,4.75626 4.7235736,4.7565982 0 0 0 0.91924,2.80952 l -1.21657,2.39443 c -0.95075,0.14442 -1.81777,0.73009 -2.28915,1.65809 l -1.31621,2.59151 c -0.42819,0.84297 -0.43746,1.78726 -0.10585,2.59848 a 5.2107215,5.2471523 0 0 0 -4.62579,7.57044 1.2587804,1.2675811 0 0 0 2.20275,-1.2236 2.6937901,2.7126237 0 1 1 2.65732,1.38265 1.2587804,1.2675811 0 0 0 0.14011,2.52788 v -7.9e-4 a 1.3708119,1.3803958 0 0 0 0.14555,-0.008 5.2107215,5.2471523 0 0 0 3.41933,-8.21753 c 0.84823,-0.20353 1.60371,-0.7647 2.03229,-1.60844 l 1.31621,-2.5916 c 0.48325,-0.95137 0.43391,-2.0317 -0.0381,-2.90419 l 1.13952,-2.24467 a 4.7235736,4.7565982 0 0 0 0.34326,0.0225 4.7235736,4.7565982 0 0 0 1.05545,-0.13267 c 0.0541,-0.21974 0.10838,-0.44701 0.16268,-0.63391 a 5.2673669,5.3041933 0 0 0 0.0436,-2.88945 c -0.58144,-2.13602 -0.54506,-4.40347 -0.44055,-5.78354 a 4.7235736,4.7565982 0 0 0 -0.82116,-0.0737 z m 41.72471,0 a 4.7235736,4.7565982 0 0 0 -0.90602,0.0993 c 0.10251,1.37597 0.13786,3.66071 -0.45533,5.8138 a 5.2629609,5.2997567 0 0 0 0.035,2.89022 c 0.0464,0.16171 0.0922,0.36176 0.13854,0.54779 a 4.7235736,4.7565982 0 0 0 1.18778,0.16216 4.7235736,4.7565982 0 0 0 0.34325,-0.014 l 1.13719,2.23924 c -0.47205,0.87249 -0.52139,1.95282 -0.0381,2.90419 l 1.31698,2.59228 c 0.42817,0.84293 1.18273,1.40286 2.02996,1.60688 a 5.2113508,5.2477859 0 0 0 3.424,8.21522 1.390323,1.4000434 0 0 0 0.14322,0.009 h 0.002 a 1.2587804,1.2675811 0 0 0 0.14011,-2.52788 2.6937901,2.7126237 0 1 1 2.65809,-1.38265 1.2587804,1.2675811 0 1 0 2.20275,1.22359 5.2113508,5.2477859 0 0 0 -4.62734,-7.57199 c 0.32953,-0.8101 0.3199,-1.75181 -0.10742,-2.59305 l -1.31698,-2.59228 c -0.47138,-0.92799 -1.33842,-1.51289 -2.28915,-1.65732 l -1.21424,-2.39054 a 4.7235736,4.7565982 0 0 0 0.91846,-2.81729 4.7235736,4.7565982 0 0 0 -4.72308,-4.75625 z M 336.186,72.9096 a 3.6164761,3.6417607 0 0 1 3.34305,3.63896 3.6164761,3.6417607 0 0 1 -2.82622,3.54663 l 2.00427,8.5923 -2.81377,0.80616 -2.81143,-0.81469 2.0323,-8.5861 a 3.6164761,3.6417607 0 0 1 1.0718,-7.18326 z m -14.45412,19.33771 c 1.8957,2.00221 4.09058,3.57654 6.18172,4.78497 0.016,0.5124 0.006,1.04204 -0.0373,1.56886 -0.12588,1.53822 -0.49334,2.65837 -0.93014,3.05006 l -3.12433,2.77539 c -1.1694,1.03815 -2.37902,-1.23108 -2.69623,-5.07438 -0.21809,-2.64227 0.0423,-5.33943 0.60634,-7.1049 z m 28.08085,0.30338 c 0.50077,1.76209 0.72365,4.30196 0.5176,6.79842 -0.31721,3.84331 -1.52416,6.1152 -2.69545,5.07515 l -3.12511,-2.77539 c -0.4368,-0.39168 -0.80349,-1.51185 -0.92936,-3.05005 -0.0376,-0.45528 -0.0507,-0.91269 -0.0436,-1.35938 2.10151,-1.17444 4.33059,-2.71129 6.27591,-4.68875 z" />
        </g>
        <g
           id="g12332">
          <path
             style="color:#bebebe;display:inline;overflow:visible;visibility:visible;fill:#4cc464;fill-opacity:1;fill-rule:nonzero;stroke:none;stroke-width:2;marker:none;enable-background:accumulate"
             d="m 419,140.5 c -1.3844,0 -2.5,1.1156 -2.5,2.5 v 10 c 0,1.3844 1.1156,2.5 2.5,2.5 h 10 c 1.3844,0 2.5,-1.1156 2.5,-2.5 v -10 c 0,-1.3844 -1.1156,-2.5 -2.5,-2.5 z"
             id="path4202" />
          <path
             id="path11771"
             style="fill:#ffffff;stroke-width:0.0108894"
             d="m 423.98509,142.86302 c -1.83217,0 -2.84474,1.56277 -2.84786,3.09102 -0.13114,0.0318 -0.26564,0.0683 -0.40421,0.11143 0,0 -0.10708,0.64081 0.0511,1.22204 a 0.9081667,0.91451609 0 0 1 -0.008,0.49818 c -0.0558,0.192 -0.11621,0.48631 -0.11676,0.86112 -9.4e-4,0.6395 0.18325,1.17407 0.46366,1.61949 h -0.43655 a 0.56124245,0.56516634 0 0 0 -0.25713,0.0638 c -0.21496,0.1107 -0.38972,0.35755 -0.49184,0.6963 -0.0948,0.31482 -0.1198,0.67931 -0.0703,1.02713 0.0924,0.648 0.4215,1.08345 0.81943,1.08345 h 1.11399 0.009 v -5.5e-4 c 0.0479,-0.002 0.0951,-0.0238 0.14038,-0.0647 l 0.53921,-0.47892 c 0.11058,-0.0994 0.19278,-0.34973 0.21915,-0.66968 0.006,-0.0757 0.009,-0.1553 0.009,-0.23586 0.6778,0.37189 1.26282,0.52281 1.26282,0.52281 0,0 0.55393,-0.14182 1.2086,-0.48949 4.1e-4,0.0691 0.003,0.13732 0.008,0.20254 0.0264,0.31995 0.10857,0.57024 0.21914,0.66968 l 0.53909,0.47892 c 0.0453,0.041 0.0925,0.0623 0.14037,0.0647 v 5.5e-4 h 0.009 1.11399 c 0.39782,0 0.72708,-0.43545 0.81942,-1.08345 0.0495,-0.34782 0.0245,-0.71231 -0.0703,-1.02713 -0.10211,-0.33875 -0.27687,-0.5856 -0.49184,-0.6963 a 0.56124245,0.56516634 0 0 0 -0.25712,-0.0638 h -0.3712 c 0.27865,-0.44286 0.46205,-0.97405 0.46299,-1.60945 0,-0.37482 -0.0595,-0.66884 -0.11474,-0.86138 a 0.90740705,0.91375116 0 0 1 -0.006,-0.49832 c 0.15995,-0.58057 0.0549,-1.2215 0.0549,-1.2215 -0.14137,-0.0444 -0.27858,-0.082 -0.41226,-0.11465 -6e-5,-1.53045 -1.14304,-3.09797 -2.84798,-3.09797 z m -1.06072,1.43233 a 0.6580383,0.66263895 0 0 1 0.65798,0.66273 h -1.3161 a 0.6580383,0.66263895 0 0 1 0.65812,-0.66273 z m 2.03393,0 a 0.6580383,0.66263895 0 0 1 0.65785,0.66273 h -1.31583 a 0.6580383,0.66263895 0 0 1 0.65798,-0.66273 z m -1.72701,0.94887 a 0.12500992,0.12588392 0 0 1 0.12507,0.12589 0.12500992,0.12588392 0 0 1 -0.12507,0.12588 0.12500992,0.12588392 0 0 1 -0.12494,-0.12588 0.12500992,0.12588392 0 0 1 0.12494,-0.12589 z m 0.49144,0 a 0.12500992,0.12588392 0 0 1 0.12507,0.12589 0.12500992,0.12588392 0 0 1 -0.12507,0.12588 0.12500992,0.12588392 0 0 1 -0.12494,-0.12588 0.12500992,0.12588392 0 0 1 0.12494,-0.12589 z m 0.49143,0 a 0.12500992,0.12588392 0 0 1 0.12494,0.12589 0.12500992,0.12588392 0 0 1 -0.12494,0.12588 0.12500992,0.12588392 0 0 1 -0.12507,-0.12588 0.12500992,0.12588392 0 0 1 0.12507,-0.12589 z m 0.49144,0 a 0.12500992,0.12588392 0 0 1 0.12508,0.12589 0.12500992,0.12588392 0 0 1 -0.12508,0.12588 0.12500992,0.12588392 0 0 1 -0.12494,-0.12588 0.12500992,0.12588392 0 0 1 0.12494,-0.12589 z m -4.30258,1.03342 a 0.81440924,0.82010314 0 0 0 -0.81445,0.82004 0.81440924,0.82010314 0 0 0 0.15849,0.48441 l -0.20976,0.41283 c -0.16392,0.0249 -0.31341,0.12588 -0.39468,0.28588 l -0.22693,0.44682 c -0.0738,0.14533 -0.0754,0.30815 -0.0182,0.44801 a 0.89840026,0.90468143 0 0 0 -0.79755,1.30525 0.21703111,0.21854847 0 0 0 0.37978,-0.21097 0.46444658,0.46769374 0 1 1 0.45816,0.23839 0.21703111,0.21854847 0 0 0 0.0242,0.43584 v -1.4e-4 a 0.23634687,0.23799928 0 0 0 0.0251,-9.9e-4 0.89840026,0.90468143 0 0 0 0.58954,-1.41681 c 0.14625,-0.0351 0.2765,-0.13185 0.3504,-0.27732 l 0.22693,-0.44683 c 0.0833,-0.16403 0.0748,-0.35029 -0.007,-0.50072 l 0.19647,-0.38701 a 0.81440924,0.82010314 0 0 0 0.0592,0.004 0.81440924,0.82010314 0 0 0 0.18197,-0.0229 c 0.009,-0.0379 0.0187,-0.0771 0.0281,-0.1093 a 0.9081667,0.91451609 0 0 0 0.008,-0.49818 c -0.10025,-0.36828 -0.094,-0.75922 -0.076,-0.99716 a 0.81440924,0.82010314 0 0 0 -0.14158,-0.0127 z m 7.19392,0 a 0.81440924,0.82010314 0 0 0 -0.15621,0.0171 c 0.0177,0.23724 0.0238,0.63116 -0.0785,1.00238 a 0.90740705,0.91375116 0 0 0 0.006,0.49832 c 0.008,0.0279 0.0159,0.0624 0.0239,0.0944 a 0.81440924,0.82010314 0 0 0 0.20479,0.028 0.81440924,0.82010314 0 0 0 0.0592,-0.002 l 0.19607,0.38608 c -0.0814,0.15043 -0.0899,0.33669 -0.007,0.50072 l 0.22707,0.44694 c 0.0738,0.14534 0.20392,0.24188 0.34999,0.27705 a 0.89850876,0.90479068 0 0 0 0.59035,1.41642 0.23971085,0.24138679 0 0 0 0.0247,0.001 h 4.1e-4 a 0.21703111,0.21854847 0 0 0 0.0242,-0.43584 0.46444658,0.46769374 0 1 1 0.45829,-0.23839 0.21703111,0.21854847 0 1 0 0.37979,0.21097 0.89850876,0.90479068 0 0 0 -0.79782,-1.30552 c 0.0568,-0.13967 0.0551,-0.30203 -0.0185,-0.44708 l -0.22707,-0.44694 c -0.0813,-0.16 -0.23076,-0.26084 -0.39468,-0.28575 l -0.20935,-0.41216 a 0.81440924,0.82010314 0 0 0 0.15835,-0.48574 0.81440924,0.82010314 0 0 0 -0.81432,-0.82004 z m -3.56475,1.18953 a 0.62353037,0.62788978 0 0 1 0.57639,0.62741 0.62353037,0.62788978 0 0 1 -0.48728,0.61149 l 0.34556,1.48143 -0.48513,0.13899 -0.48473,-0.14046 0.3504,-1.48036 a 0.62353037,0.62788978 0 0 1 0.18479,-1.2385 z m -2.49209,3.33409 c 0.32684,0.34521 0.70527,0.61665 1.06581,0.825 0.003,0.0883 9.8e-4,0.17966 -0.006,0.27049 -0.0217,0.26521 -0.0851,0.45834 -0.16037,0.52587 l -0.53868,0.47852 c -0.20162,0.17899 -0.41018,-0.21226 -0.46487,-0.8749 -0.0376,-0.45556 0.007,-0.92059 0.10454,-1.22498 z m 4.84153,0.0523 c 0.0863,0.30381 0.12476,0.74172 0.0892,1.17214 -0.0547,0.66264 -0.26279,1.05434 -0.46474,0.87503 l -0.53881,-0.47852 c -0.0753,-0.0675 -0.13853,-0.26066 -0.16023,-0.52587 -0.006,-0.0785 -0.009,-0.15736 -0.008,-0.23438 0.36233,-0.20249 0.74666,-0.46746 1.08206,-0.8084 z" />
        </g>
        <g
           id="g12328">
          <path
             style="color:#bebebe;display:inline;overflow:visible;visibility:visible;fill:#4cc464;fill-opacity:1;fill-rule:nonzero;stroke:none;stroke-width:2;marker:none;enable-background:accumulate"
             d="m 422,101.5 c -2.49699,0 -4.5,2.00301 -4.5,4.5 v 12 c 0,2.49699 2.00301,4.5 4.5,4.5 h 12 c 2.49699,0 4.5,-2.00301 4.5,-4.5 v -12 c 0,-2.49699 -2.00301,-4.5 -4.5,-4.5 z"
             id="path4204" />
          <path
             id="path11777"
             style="fill:#ffffff;stroke-width:0.0152451"
             d="m 427.97905,104.80824 c -2.56504,0 -3.98263,2.18788 -3.987,4.32743 -0.1836,0.0445 -0.3719,0.0957 -0.5659,0.156 0,0 -0.14991,0.89714 0.0716,1.71086 a 1.2714334,1.2803225 0 0 1 -0.0105,0.69745 c -0.0781,0.26879 -0.1627,0.68083 -0.16346,1.20556 -10e-4,0.89531 0.25654,1.64371 0.64913,2.26728 h -0.61118 a 0.78573943,0.79123288 0 0 0 -0.35998,0.0893 c -0.30095,0.15497 -0.54562,0.50057 -0.68857,0.97482 -0.13278,0.44075 -0.16773,0.95103 -0.0984,1.43798 0.12928,0.9072 0.59009,1.51684 1.14719,1.51684 h 1.55959 0.0128 v -7.7e-4 c 0.067,-0.003 0.1331,-0.0333 0.19652,-0.0906 l 0.7549,-0.67048 c 0.15481,-0.13921 0.26989,-0.48962 0.30681,-0.93755 0.009,-0.10599 0.0127,-0.21742 0.012,-0.33019 0.94893,0.52064 1.76795,0.73192 1.76795,0.73192 0,0 0.7755,-0.19856 1.69204,-0.68528 5.8e-4,0.0967 0.004,0.19224 0.0118,0.28355 0.0369,0.44793 0.152,0.79834 0.30681,0.93755 l 0.75471,0.67048 c 0.0635,0.0573 0.12957,0.0872 0.19652,0.0906 v 7.7e-4 h 0.013 1.55959 c 0.55694,0 1.0179,-0.60963 1.14719,-1.51684 0.0693,-0.48695 0.0343,-0.99723 -0.0984,-1.43798 -0.14296,-0.47424 -0.38762,-0.81984 -0.68858,-0.97482 a 0.78573943,0.79123288 0 0 0 -0.35998,-0.0893 h -0.51967 c 0.3901,-0.62 0.64687,-1.36367 0.64818,-2.25322 0,-0.52474 -0.0833,-0.93638 -0.16063,-1.20594 a 1.2703699,1.2792516 0 0 1 -0.008,-0.69764 c 0.22393,-0.8128 0.0768,-1.7101 0.0768,-1.7101 -0.19792,-0.0622 -0.39002,-0.11482 -0.57717,-0.16051 -8e-5,-2.14263 -1.60025,-4.33716 -3.98717,-4.33716 z m -1.48501,2.00527 a 0.92125362,0.92769452 0 0 1 0.92118,0.92781 h -1.84254 a 0.92125362,0.92769452 0 0 1 0.92136,-0.92781 z m 2.84751,0 a 0.92125362,0.92769452 0 0 1 0.92098,0.92781 h -1.84216 a 0.92125362,0.92769452 0 0 1 0.92118,-0.92781 z m -2.41782,1.32842 a 0.17501389,0.17623748 0 0 1 0.1751,0.17623 0.17501389,0.17623748 0 0 1 -0.1751,0.17624 0.17501389,0.17623748 0 0 1 -0.17492,-0.17624 0.17501389,0.17623748 0 0 1 0.17492,-0.17623 z m 0.68801,0 a 0.17501389,0.17623748 0 0 1 0.1751,0.17623 0.17501389,0.17623748 0 0 1 -0.1751,0.17624 0.17501389,0.17623748 0 0 1 -0.17492,-0.17624 0.17501389,0.17623748 0 0 1 0.17492,-0.17623 z m 0.68801,0 a 0.17501389,0.17623748 0 0 1 0.17492,0.17623 0.17501389,0.17623748 0 0 1 -0.17492,0.17624 0.17501389,0.17623748 0 0 1 -0.1751,-0.17624 0.17501389,0.17623748 0 0 1 0.1751,-0.17623 z m 0.68802,0 a 0.17501389,0.17623748 0 0 1 0.1751,0.17623 0.17501389,0.17623748 0 0 1 -0.1751,0.17624 0.17501389,0.17623748 0 0 1 -0.17492,-0.17624 0.17501389,0.17623748 0 0 1 0.17492,-0.17623 z m -6.02361,1.44678 a 1.1401729,1.1481444 0 0 0 -1.14024,1.14806 1.1401729,1.1481444 0 0 0 0.22188,0.67816 l -0.29365,0.57797 c -0.22949,0.0349 -0.43878,0.17623 -0.55256,0.40023 l -0.3177,0.62553 c -0.10336,0.20348 -0.1056,0.43141 -0.0256,0.62722 a 1.2577604,1.266554 0 0 0 -1.11657,1.82735 0.30384355,0.30596786 0 0 0 0.5317,-0.29534 0.65022521,0.65477123 0 1 1 0.64142,0.33373 0.30384355,0.30596786 0 0 0 0.0338,0.61018 v -1.8e-4 a 0.33088562,0.33319899 0 0 0 0.0351,-0.002 1.2577604,1.266554 0 0 0 0.82536,-1.98354 c 0.20474,-0.0491 0.3871,-0.1846 0.49055,-0.38826 l 0.3177,-0.62556 c 0.11665,-0.22964 0.10474,-0.49041 -0.009,-0.70101 l 0.27505,-0.54181 a 1.1401729,1.1481444 0 0 0 0.0829,0.005 1.1401729,1.1481444 0 0 0 0.25476,-0.032 c 0.0131,-0.053 0.0262,-0.10789 0.0393,-0.15302 a 1.2714334,1.2803225 0 0 0 0.0105,-0.69745 c -0.14035,-0.51559 -0.13157,-1.06291 -0.10634,-1.39603 a 1.1401729,1.1481444 0 0 0 -0.19821,-0.0178 z m 10.07148,0 a 1.1401729,1.1481444 0 0 0 -0.21869,0.024 c 0.0247,0.33213 0.0333,0.88362 -0.10991,1.40333 a 1.2703699,1.2792516 0 0 0 0.008,0.69764 c 0.0112,0.039 0.0223,0.0873 0.0334,0.13223 a 1.1401729,1.1481444 0 0 0 0.2867,0.0391 1.1401729,1.1481444 0 0 0 0.0829,-0.003 l 0.27449,0.54051 c -0.11394,0.2106 -0.12585,0.47137 -0.009,0.70101 l 0.3179,0.62572 c 0.10335,0.20347 0.28548,0.33863 0.48999,0.38787 a 1.2579123,1.2667069 0 0 0 0.82648,1.98298 0.3355952,0.3379415 0 0 0 0.0346,0.002 h 5.7e-4 a 0.30384355,0.30596786 0 0 0 0.0338,-0.61018 0.65022521,0.65477123 0 1 1 0.64161,-0.33375 0.30384355,0.30596786 0 1 0 0.5317,0.29536 1.2579123,1.2667069 0 0 0 -1.11694,-1.82773 c 0.0795,-0.19554 0.0772,-0.42285 -0.0259,-0.62591 l -0.31789,-0.62572 c -0.11378,-0.224 -0.32307,-0.36518 -0.55256,-0.40004 l -0.29309,-0.57703 a 1.1401729,1.1481444 0 0 0 0.2217,-0.68002 1.1401729,1.1481444 0 0 0 -1.14005,-1.14806 z m -4.99065,1.66534 a 0.87294252,0.87904569 0 0 1 0.80694,0.87838 0.87294252,0.87904569 0 0 1 -0.68219,0.85608 l 0.48379,2.074 -0.67918,0.19459 -0.67862,-0.19665 0.49055,-2.07249 a 0.87294252,0.87904569 0 0 1 0.25871,-1.73391 z m -3.48892,4.66773 c 0.45758,0.48329 0.98737,0.8633 1.49213,1.15499 0.004,0.12368 10e-4,0.25153 -0.009,0.37869 -0.0304,0.37129 -0.11908,0.64168 -0.22452,0.73622 l -0.75414,0.66992 c -0.28227,0.25059 -0.57425,-0.29715 -0.65082,-1.22485 -0.0526,-0.63779 0.0102,-1.28883 0.14636,-1.71497 z m 6.77813,0.0732 c 0.12088,0.42533 0.17467,1.0384 0.12494,1.64099 -0.0766,0.9277 -0.3679,1.47609 -0.65063,1.22504 l -0.75434,-0.66992 c -0.10543,-0.0945 -0.19394,-0.36493 -0.22432,-0.73622 -0.009,-0.10989 -0.0122,-0.2203 -0.0105,-0.32813 0.50726,-0.28348 1.04531,-0.65444 1.51487,-1.13176 z" />
        </g>
        <g
           id="g12324">
          <path
             style="color:#bebebe;display:inline;overflow:visible;visibility:visible;fill:#4cc464;fill-opacity:1;fill-rule:nonzero;stroke:none;stroke-width:2;marker:none;enable-background:accumulate"
             d="m 424,53.5 c -3.60654,0 -6.5,2.893464 -6.5,6.5 v 16 c 0,3.606536 2.89346,6.5 6.5,6.5 h 16 c 3.60654,0 6.5,-2.893464 6.5,-6.5 V 60 c 0,-3.606536 -2.89346,-6.5 -6.5,-6.5 z"
             id="path4206" />
          <path
             id="path11783"
             style="fill:#ffffff;stroke-width:0.0210528"
             d="m 431.97088,58.068505 c -3.54219,0 -5.49982,3.02136 -5.50586,5.97597 -0.25354,0.0614 -0.51357,0.13213 -0.78147,0.21544 0,0 -0.20703,1.23889 0.0988,2.36261 a 1.755789,1.7680644 0 0 1 -0.0145,0.96314 c -0.10783,0.37119 -0.22467,0.94019 -0.22572,1.66482 -0.002,1.23638 0.35427,2.26988 0.89641,3.13101 h -0.844 a 1.0850687,1.0926549 0 0 0 -0.49711,0.12337 c -0.41561,0.21401 -0.75348,0.69127 -0.9509,1.34618 -0.18336,0.60865 -0.23162,1.31333 -0.13595,1.98579 0.17853,1.25279 0.81489,2.09466 1.58422,2.09466 h 2.15372 0.0176 v -0.001 c 0.0925,-0.005 0.18381,-0.0459 0.27138,-0.12518 l 1.04249,-0.9259 c 0.21378,-0.19225 0.3727,-0.67614 0.42368,-1.29472 0.0121,-0.14637 0.0176,-0.30025 0.0166,-0.45597 1.31042,0.71898 2.44145,1.01074 2.44145,1.01074 0,0 1.07094,-0.27419 2.33664,-0.94634 7.9e-4,0.13361 0.006,0.26548 0.0163,0.39157 0.051,0.61858 0.2099,1.10247 0.42368,1.29472 l 1.04223,0.9259 c 0.0877,0.0792 0.17892,0.12038 0.27138,0.12518 v 0.001 h 0.0179 2.15372 c 0.76912,0 1.40568,-0.84187 1.58422,-2.09466 0.0957,-0.67246 0.0474,-1.37714 -0.13595,-1.98579 -0.19742,-0.65491 -0.53529,-1.13217 -0.9509,-1.34618 a 1.0850687,1.0926549 0 0 0 -0.49711,-0.12337 h -0.71764 c 0.53871,-0.8562 0.8933,-1.88316 0.89511,-3.11161 0,-0.72463 -0.11505,-1.29309 -0.22183,-1.66534 a 1.7543203,1.7665856 0 0 1 -0.0117,-0.9634 c 0.30924,-1.12244 0.10611,-2.36158 0.10611,-2.36158 -0.27332,-0.0859 -0.5386,-0.15855 -0.79704,-0.22165 -1.1e-4,-2.95887 -2.20987,-5.98941 -5.5061,-5.98941 z m -2.05072,2.76918 a 1.2722074,1.281102 0 0 1 1.2721,1.28127 h -2.54446 a 1.2722074,1.281102 0 0 1 1.27236,-1.28127 z m 3.93227,0 a 1.2722074,1.281102 0 0 1 1.27184,1.28127 h -2.54394 a 1.2722074,1.281102 0 0 1 1.2721,-1.28127 z m -3.3389,1.83448 a 0.24168585,0.24337557 0 0 1 0.24181,0.24337 0.24168585,0.24337557 0 0 1 -0.24181,0.24338 0.24168585,0.24337557 0 0 1 -0.24155,-0.24338 0.24168585,0.24337557 0 0 1 0.24155,-0.24337 z m 0.95012,0 a 0.24168585,0.24337557 0 0 1 0.24181,0.24337 0.24168585,0.24337557 0 0 1 -0.24181,0.24338 0.24168585,0.24337557 0 0 1 -0.24156,-0.24338 0.24168585,0.24337557 0 0 1 0.24156,-0.24337 z m 0.95011,0 a 0.24168585,0.24337557 0 0 1 0.24155,0.24337 0.24168585,0.24337557 0 0 1 -0.24155,0.24338 0.24168585,0.24337557 0 0 1 -0.24181,-0.24338 0.24168585,0.24337557 0 0 1 0.24181,-0.24337 z m 0.95012,0 a 0.24168585,0.24337557 0 0 1 0.24181,0.24337 0.24168585,0.24337557 0 0 1 -0.24181,0.24338 0.24168585,0.24337557 0 0 1 -0.24155,-0.24338 0.24168585,0.24337557 0 0 1 0.24155,-0.24337 z m -8.31832,1.99794 a 1.5745245,1.5855327 0 0 0 -1.57462,1.58542 1.5745245,1.5855327 0 0 0 0.30641,0.9365 l -0.40552,0.79815 c -0.31692,0.0481 -0.60593,0.24336 -0.76305,0.55269 l -0.43874,0.86384 c -0.14273,0.28099 -0.14582,0.59575 -0.0353,0.86616 a 1.7369072,1.7490508 0 0 0 -1.54193,2.52348 0.41959347,0.42252704 0 0 0 0.73425,-0.40787 0.89793005,0.90420789 0 1 1 0.88578,0.46089 0.41959347,0.42252704 0 0 0 0.0467,0.84262 v -2.6e-4 a 0.45693729,0.46013194 0 0 0 0.0485,-0.003 1.7369072,1.7490508 0 0 0 1.13977,-2.73918 c 0.28275,-0.0678 0.53457,-0.2549 0.67743,-0.53615 l 0.43874,-0.86386 c 0.16108,-0.31713 0.14464,-0.67724 -0.0127,-0.96807 l 0.37984,-0.74822 a 1.5745245,1.5855327 0 0 0 0.11442,0.007 1.5745245,1.5855327 0 0 0 0.35181,-0.0442 c 0.018,-0.0733 0.0361,-0.149 0.0542,-0.2113 a 1.755789,1.7680644 0 0 0 0.0145,-0.96315 c -0.19381,-0.71201 -0.18168,-1.46783 -0.14685,-1.92785 a 1.5745245,1.5855327 0 0 0 -0.27372,-0.0246 z m 13.90823,0 a 1.5745245,1.5855327 0 0 0 -0.302,0.0331 c 0.0342,0.45866 0.046,1.22024 -0.15178,1.93794 a 1.7543203,1.7665856 0 0 0 0.0117,0.9634 c 0.0155,0.0539 0.0307,0.12059 0.0462,0.1826 a 1.5745245,1.5855327 0 0 0 0.39593,0.0541 1.5745245,1.5855327 0 0 0 0.11441,-0.005 l 0.37906,0.74641 c -0.15735,0.29083 -0.17379,0.65094 -0.0127,0.96807 l 0.439,0.86409 c 0.14272,0.28098 0.39424,0.46762 0.67665,0.53563 a 1.7371169,1.749262 0 0 0 1.14133,2.7384 0.46344098,0.46668112 0 0 0 0.0477,0.003 h 8e-4 a 0.41959347,0.42252704 0 0 0 0.0467,-0.84263 0.89793005,0.90420789 0 1 1 0.88603,-0.46088 0.41959347,0.42252704 0 1 0 0.73425,0.40786 1.7371169,1.749262 0 0 0 -1.54245,-2.52399 c 0.10984,-0.27004 0.10663,-0.58394 -0.0358,-0.86435 l -0.43899,-0.8641 c -0.15713,-0.30933 -0.44614,-0.50429 -0.76305,-0.55244 l -0.40475,-0.79684 a 1.5745245,1.5855327 0 0 0 0.30616,-0.9391 1.5745245,1.5855327 0 0 0 -1.57436,-1.58542 z m -6.89185,2.29976 a 1.205492,1.2139202 0 0 1 1.11435,1.21299 1.205492,1.2139202 0 0 1 -0.94207,1.18221 l 0.66809,2.8641 -0.93792,0.26872 -0.93715,-0.27157 0.67744,-2.86203 a 1.205492,1.2139202 0 0 1 0.35726,-2.39442 z m -4.81804,6.4459 c 0.6319,0.66741 1.36353,1.19218 2.06058,1.59499 0.005,0.1708 0.002,0.34735 -0.0125,0.52296 -0.042,0.51274 -0.16445,0.88612 -0.31005,1.01668 l -1.04144,0.92513 c -0.3898,0.34605 -0.79301,-0.41036 -0.89875,-1.69146 -0.0727,-0.88075 0.0141,-1.77981 0.20212,-2.3683 z m 9.36029,0.10113 c 0.16692,0.58736 0.24121,1.43399 0.17253,2.26614 -0.10574,1.2811 -0.50805,2.0384 -0.89848,1.69172 l -1.04171,-0.92513 c -0.1456,-0.13056 -0.26783,-0.50395 -0.30978,-1.01669 -0.0125,-0.15176 -0.0169,-0.30423 -0.0145,-0.45312 0.7005,-0.39148 1.44352,-0.90377 2.09197,-1.56292 z" />
        </g>
      </g>
    </g>
    <g
       inkscape:groupmode="layer"
       id="layer6"
       inkscape:label="Symbols"
       style="display:inline" />
    <g
       inkscape:groupmode="layer"
       id="layer5"
       inkscape:label="Highlights"
       style="display:inline"
       sodipodi:insensitive="true">
      <path
         style="opacity:0.12999998;color:#bebebe;fill:#ffffff;fill-opacity:1;fill-rule:nonzero;stroke:none;stroke-width:0;marker:none;visibility:visible;display:inline;overflow:visible;enable-background:accumulate"
         d="M 84,47 C 56.836703,47 35,68.836703 35,96 l 0,1 C 35,69.836703 56.836703,48 84,48 l 120,0 c 27.1633,0 49,21.836703 49,49 l 0,-1 C 253,68.836703 231.1633,47 204,47 L 84,47 z"
         id="rect3894"
         inkscape:connector-curvature="0" />
      <path
         style="opacity:0.12999998;color:#bebebe;fill:#ffffff;fill-opacity:1;fill-rule:nonzero;stroke:none;stroke-width:0;marker:none;visibility:visible;display:inline;overflow:visible;enable-background:accumulate"
         d="m 419,141 c -1.1253,0 -2,0.8747 -2,2 l 0,1 c 0,-1.1253 0.8747,-2 2,-2 l 10,0 c 1.1253,0 2,0.8747 2,2 l 0,-1 c 0,-1.1253 -0.8747,-2 -2,-2 l -10,0 z"
         id="rect3896"
         inkscape:connector-curvature="0" />
      <path
         style="opacity:0.12999998;color:#bebebe;fill:#ffffff;fill-opacity:1;fill-rule:nonzero;stroke:none;stroke-width:0;marker:none;visibility:visible;display:inline;overflow:visible;enable-background:accumulate"
         d="m 422,102 c -2.2333,0 -4,1.7667 -4,4 l 0,1 c 0,-2.2333 1.7667,-4 4,-4 l 12,0 c 2.2333,0 4,1.7667 4,4 l 0,-1 c 0,-2.2333 -1.7667,-4 -4,-4 l -12,0 z"
         id="rect3898"
         inkscape:connector-curvature="0" />
      <path
         style="opacity:0.12999998;color:#bebebe;fill:#ffffff;fill-opacity:1;fill-rule:nonzero;stroke:none;stroke-width:0;marker:none;visibility:visible;display:inline;overflow:visible;enable-background:accumulate"
         d="m 424,54 c -3.3413,0 -6,2.658703 -6,6 l 0,1 c 0,-3.341297 2.6587,-6 6,-6 l 16,0 c 3.3413,0 6,2.658703 6,6 l 0,-1 c 0,-3.341297 -2.6587,-6 -6,-6 l -16,0 z"
         id="rect3900"
         inkscape:connector-curvature="0" />
      <path
         style="opacity:0.12999998;color:#bebebe;fill:#ffffff;fill-opacity:1;fill-rule:nonzero;stroke:none;stroke-width:0;marker:none;visibility:visible;display:inline;overflow:visible;enable-background:accumulate"
         d="m 300,224 c -4.4493,0 -8,3.5507 -8,8 l 0,1 c 0,-4.4493 3.5507,-8 8,-8 l 24,0 c 4.4493,0 8,3.5507 8,8 l 0,-1 c 0,-4.4493 -3.5507,-8 -8,-8 l -24,0 z"
         id="rect3902"
         inkscape:connector-curvature="0" />
      <path
         style="opacity:0.12999998;color:#bebebe;fill:#ffffff;fill-opacity:1;fill-rule:nonzero;stroke:none;stroke-width:0;marker:none;visibility:visible;display:inline;overflow:visible;enable-background:accumulate"
         d="m 310,33 c -9.4353,0 -17,7.564703 -17,17 l 0,1 c 0,-9.435297 7.5647,-17 17,-17 l 52,0 c 9.4353,0 17,7.564703 17,17 l 0,-1 c 0,-9.435297 -7.5647,-17 -17,-17 l -52,0 z"
         id="rect3904"
         inkscape:connector-curvature="0" />
      <path
         style="opacity:0.12999998;color:#bebebe;fill:#ffffff;fill-opacity:1;fill-rule:nonzero;stroke:none;stroke-width:0;marker:none;visibility:visible;display:inline;overflow:visible;enable-background:accumulate"
         d="m 302.5,143 c -6.3883,0 -11.5,5.1117 -11.5,11.5 l 0,1 c 0,-6.3883 5.1117,-11.5 11.5,-11.5 l 35,0 c 6.3883,0 11.5,5.1117 11.5,11.5 l 0,-1 c 0,-6.3883 -5.1117,-11.5 -11.5,-11.5 l -35,0 z"
         id="rect3906"
         inkscape:connector-curvature="0" />
      <path
         id="path4085"
         d="m 204,266 c 27.1633,0 49,-21.8367 49,-49 l 0,-1 c 0,27.1633 -21.8367,49 -49,49 L 84,265 C 56.8367,265 35,243.1633 35,216 l 0,1 c 0,27.1633 21.8367,49 49,49 l 120,0 z"
         style="opacity:0.41;color:#bebebe;fill:#000000;fill-opacity:1;fill-rule:nonzero;stroke:none;stroke-width:0;marker:none;visibility:visible;display:inline;overflow:visible;enable-background:accumulate"
         inkscape:connector-curvature="0" />
      <path
         id="path4087"
         d="m 429,156 c 1.1253,0 2,-0.8747 2,-2 l 0,-1 c 0,1.1253 -0.8747,2 -2,2 l -10,0 c -1.1253,0 -2,-0.8747 -2,-2 l 0,1 c 0,1.1253 0.8747,2 2,2 l 10,0 z"
         style="opacity:0.3;color:#bebebe;fill:#000000;fill-opacity:1;fill-rule:nonzero;stroke:none;stroke-width:0;marker:none;visibility:visible;display:inline;overflow:visible;enable-background:accumulate"
         inkscape:connector-curvature="0" />
      <path
         id="path4089"
         d="m 434,123 c 2.2333,0 4,-1.7667 4,-4 l 0,-1 c 0,2.2333 -1.7667,4 -4,4 l -12,0 c -2.2333,0 -4,-1.7667 -4,-4 l 0,1 c 0,2.2333 1.7667,4 4,4 l 12,0 z"
         style="opacity:0.3;color:#bebebe;fill:#000000;fill-opacity:1;fill-rule:nonzero;stroke:none;stroke-width:0;marker:none;visibility:visible;display:inline;overflow:visible;enable-background:accumulate"
         inkscape:connector-curvature="0" />
      <path
         id="path4091"
         d="m 440,83 c 3.3413,0 6,-2.6587 6,-6 l 0,-1 c 0,3.3413 -2.6587,6 -6,6 l -16,0 c -3.3413,0 -6,-2.6587 -6,-6 l 0,1 c 0,3.3413 2.6587,6 6,6 l 16,0 z"
         style="opacity:0.41;color:#bebebe;fill:#000000;fill-opacity:1;fill-rule:nonzero;stroke:none;stroke-width:0;marker:none;visibility:visible;display:inline;overflow:visible;enable-background:accumulate"
         inkscape:connector-curvature="0" />
      <path
         id="path4093"
         d="m 324,265 c 4.4493,0 8,-3.5507 8,-8 l 0,-1 c 0,4.4493 -3.5507,8 -8,8 l -24,0 c -4.4493,0 -8,-3.5507 -8,-8 l 0,1 c 0,4.4493 3.5507,8 8,8 l 24,0 z"
         style="opacity:0.41;color:#bebebe;fill:#000000;fill-opacity:1;fill-rule:nonzero;stroke:none;stroke-width:0;marker:none;visibility:visible;display:inline;overflow:visible;enable-background:accumulate"
         inkscape:connector-curvature="0" />
      <path
         id="path4095"
         d="m 362,120 c 9.4353,0 17,-7.5647 17,-17 l 0,-1 c 0,9.4353 -7.5647,17 -17,17 l -52,0 c -9.4353,0 -17,-7.5647 -17,-17 l 0,1 c 0,9.4353 7.5647,17 17,17 l 52,0 z"
         style="opacity:0.41;color:#bebebe;fill:#000000;fill-opacity:1;fill-rule:nonzero;stroke:none;stroke-width:0;marker:none;visibility:visible;display:inline;overflow:visible;enable-background:accumulate"
         inkscape:connector-curvature="0" />
      <path
         id="path4097"
         d="m 337.5,202 c 6.3883,0 11.5,-5.1117 11.5,-11.5 l 0,-1 c 0,6.3883 -5.1117,11.5 -11.5,11.5 l -35,0 c -6.3883,0 -11.5,-5.1117 -11.5,-11.5 l 0,1 c 0,6.3883 5.1117,11.5 11.5,11.5 l 35,0 z"
         style="opacity:0.41;color:#bebebe;fill:#000000;fill-opacity:1;fill-rule:nonzero;stroke:none;stroke-width:0;marker:none;visibility:visible;display:inline;overflow:visible;enable-background:accumulate"
         inkscape:connector-curvature="0" />
      <path
         inkscape:connector-curvature="0"
         id="path4280"
         d="M 84,265 C 56.836703,265 35,243.1633 35,216 l 0,-1 c 0,27.1633 21.836703,49 49,49 l 120,0 c 27.1633,0 49,-21.8367 49,-49 l 0,1 c 0,27.1633 -21.8367,49 -49,49 l -120,0 z"
         style="opacity:0.1;color:#bebebe;fill:#ffffff;fill-opacity:1;fill-rule:nonzero;stroke:none;stroke-width:0;marker:none;visibility:visible;display:inline;overflow:visible;enable-background:accumulate" />
      <path
         style="opacity:0.1;color:#bebebe;fill:#ffffff;fill-opacity:1;fill-rule:nonzero;stroke:none;stroke-width:0;marker:none;visibility:visible;display:inline;overflow:visible;enable-background:accumulate"
         d="m 300,264 c -4.4493,0 -8,-3.5507 -8,-8 l 0,-1 c 0,4.4493 3.5507,8 8,8 l 24,0 c 4.4493,0 8,-3.5507 8,-8 l 0,1 c 0,4.4493 -3.5507,8 -8,8 l -24,0 z"
         id="path4294"
         inkscape:connector-curvature="0" />
      <path
         style="opacity:0.1;color:#bebebe;fill:#ffffff;fill-opacity:1;fill-rule:nonzero;stroke:none;stroke-width:0;marker:none;visibility:visible;display:inline;overflow:visible;enable-background:accumulate"
         d="m 302.5,201 c -6.3883,0 -11.5,-5.1117 -11.5,-11.5 l 0,-1 c 0,6.3883 5.1117,11.5 11.5,11.5 l 35,0 c 6.3883,0 11.5,-5.1117 11.5,-11.5 l 0,1 c 0,6.3883 -5.1117,11.5 -11.5,11.5 l -35,0 z"
         id="path4296"
         inkscape:connector-curvature="0" />
      <path
         style="opacity:0.1;color:#bebebe;fill:#ffffff;fill-opacity:1;fill-rule:nonzero;stroke:none;stroke-width:0;marker:none;visibility:visible;display:inline;overflow:visible;enable-background:accumulate"
         d="m 310,119 c -9.4353,0 -17,-7.5647 -17,-17 l 0,-1 c 0,9.4353 7.5647,17 17,17 l 52,0 c 9.4353,0 17,-7.5647 17,-17 l 0,1 c 0,9.4353 -7.5647,17 -17,17 l -52,0 z"
         id="path4298"
         inkscape:connector-curvature="0" />
      <path
         style="opacity:0.1;color:#bebebe;fill:#ffffff;fill-opacity:1;fill-rule:nonzero;stroke:none;stroke-width:0;marker:none;visibility:visible;display:inline;overflow:visible;enable-background:accumulate"
         d="m 424,82 c -3.3413,0 -6,-2.658703 -6,-6 l 0,-1 c 0,3.341297 2.6587,6 6,6 l 16,0 c 3.3413,0 6,-2.658703 6,-6 l 0,1 c 0,3.341297 -2.6587,6 -6,6 l -16,0 z"
         id="path4300"
         inkscape:connector-curvature="0" />
      <path
         style="opacity:0.1;color:#bebebe;fill:#ffffff;fill-opacity:1;fill-rule:nonzero;stroke:none;stroke-width:0;marker:none;visibility:visible;display:inline;overflow:visible;enable-background:accumulate"
         d="m 422,122 c -2.2333,0 -4,-1.7667 -4,-4 l 0,-1 c 0,2.2333 1.7667,4 4,4 l 12,0 c 2.2333,0 4,-1.7667 4,-4 l 0,1 c 0,2.2333 -1.7667,4 -4,4 l -12,0 z"
         id="path4302"
         inkscape:connector-curvature="0" />
      <path
         style="opacity:0.1;color:#bebebe;fill:#ffffff;fill-opacity:1;fill-rule:nonzero;stroke:none;stroke-width:0;marker:none;visibility:visible;display:inline;overflow:visible;enable-background:accumulate"
         d="m 419,154.5 c -1.1253,0 -2,-0.8747 -2,-2 l 0,-1 c 0,1.1253 0.8747,2 2,2 l 10,0 c 1.1253,0 2,-0.8747 2,-2 l 0,1 c 0,1.1253 -0.8747,2 -2,2 l -10,0 z"
         id="path4304"
         inkscape:connector-curvature="0" />
    </g>
    <g
       inkscape:groupmode="layer"
       id="layer3"
       inkscape:label="Border"
       style="display:inline"
       sodipodi:insensitive="true">
      <path
         style="opacity:0.41;color:#bebebe;fill:#000000;fill-opacity:1;fill-rule:nonzero;stroke:none;stroke-width:0;marker:none;visibility:visible;display:inline;overflow:visible;enable-background:accumulate"
         d="m 422,101 c -2.77,0 -5,2.23 -5,5 l 0,12 c 0,2.77 2.23,5 5,5 l 12,0 c 2.77,0 5,-2.23 5,-5 l 0,-12 c 0,-2.77 -2.23,-5 -5,-5 l -12,0 z m 0,1 12,0 c 2.2333,0 4,1.7667 4,4 l 0,12 c 0,2.2333 -1.7667,4 -4,4 l -12,0 c -2.2333,0 -4,-1.7667 -4,-4 l 0,-12 c 0,-2.2333 1.7667,-4 4,-4 z"
         id="rect4099"
         inkscape:connector-curvature="0" />
      <path
         style="opacity:0.41;color:#bebebe;fill:#000000;fill-opacity:1;fill-rule:nonzero;stroke:none;stroke-width:0;marker:none;visibility:visible;display:inline;overflow:visible;enable-background:accumulate"
         d="m 424,53 c -3.878,0 -7,3.122 -7,7 l 0,16 c 0,3.878 3.122,7 7,7 l 16,0 c 3.878,0 7,-3.122 7,-7 l 0,-16 c 0,-3.878 -3.122,-7 -7,-7 l -16,0 z m 0,1 16,0 c 3.3413,0 6,2.658703 6,6 l 0,16 c 0,3.341297 -2.6587,6 -6,6 l -16,0 c -3.3413,0 -6,-2.658703 -6,-6 l 0,-16 c 0,-3.341297 2.6587,-6 6,-6 z"
         id="rect4151"
         inkscape:connector-curvature="0" />
      <path
         style="opacity:0.41;color:#bebebe;fill:#000000;fill-opacity:1;fill-rule:nonzero;stroke:none;stroke-width:0;marker:none;visibility:visible;display:inline;overflow:visible;enable-background:accumulate"
         d="m 419,140 c -1.662,0 -3,1.338 -3,3 l 0,10 c 0,1.662 1.338,3 3,3 l 10,0 c 1.662,0 3,-1.338 3,-3 l 0,-10 c 0,-1.662 -1.338,-3 -3,-3 l -10,0 z m 0,1 10,0 c 1.1253,0 2,0.8747 2,2 l 0,10 c 0,1.1253 -0.8747,2 -2,2 l -10,0 c -1.1253,0 -2,-0.8747 -2,-2 l 0,-10 c 0,-1.1253 0.8747,-2 2,-2 z"
         id="rect4095"
         inkscape:connector-curvature="0" />
      <path
         style="opacity:0.41;color:#bebebe;fill:#000000;fill-opacity:1;fill-rule:nonzero;stroke:none;stroke-width:0;marker:none;visibility:visible;display:inline;overflow:visible;enable-background:accumulate"
         d="m 300,223 c -4.986,0 -9,4.014 -9,9 l 0,24 c 0,4.986 4.014,9 9,9 l 24,0 c 4.986,0 9,-4.014 9,-9 l 0,-24 c 0,-4.986 -4.014,-9 -9,-9 l -24,0 z m 0,1 24,0 c 4.4493,0 8,3.5507 8,8 l 0,24 c 0,4.4493 -3.5507,8 -8,8 l -24,0 c -4.4493,0 -8,-3.5507 -8,-8 l 0,-24 c 0,-4.4493 3.5507,-8 8,-8 z"
         id="rect4783"
         inkscape:connector-curvature="0" />
      <path
         style="opacity:0.41;color:#bebebe;fill:#000000;fill-opacity:1;fill-rule:nonzero;stroke:none;stroke-width:0;marker:none;visibility:visible;display:inline;overflow:visible;enable-background:accumulate"
         d="m 302.5,142 c -6.925,0 -12.5,5.575 -12.5,12.5 l 0,35 c 0,6.925 5.575,12.5 12.5,12.5 l 35,0 c 6.925,0 12.5,-5.575 12.5,-12.5 l 0,-35 c 0,-6.925 -5.575,-12.5 -12.5,-12.5 l -35,0 z m 0,1 35,0 c 6.3883,0 11.5,5.1117 11.5,11.5 l 0,35 c 0,6.3883 -5.1117,11.5 -11.5,11.5 l -35,0 c -6.3883,0 -11.5,-5.1117 -11.5,-11.5 l 0,-35 c 0,-6.3883 5.1117,-11.5 11.5,-11.5 z"
         id="rect4515"
         inkscape:connector-curvature="0" />
      <path
         style="opacity:0.41;color:#bebebe;fill:#000000;fill-opacity:1;fill-rule:nonzero;stroke:none;stroke-width:0;marker:none;visibility:visible;display:inline;overflow:visible;enable-background:accumulate"
         d="m 310,32 c -9.972,0 -18,8.028 -18,18 l 0,52 c 0,9.972 8.028,18 18,18 l 52,0 c 9.972,0 18,-8.028 18,-18 l 0,-52 c 0,-9.972 -8.028,-18 -18,-18 l -52,0 z m 0,1 52,0 c 9.4353,0 17,7.564703 17,17 l 0,52 c 0,9.4353 -7.5647,17 -17,17 l -52,0 c -9.4353,0 -17,-7.5647 -17,-17 l 0,-52 c 0,-9.435297 7.5647,-17 17,-17 z"
         id="rect4511"
         inkscape:connector-curvature="0" />
      <path
         style="opacity:0.41;color:#bebebe;fill:#000000;fill-opacity:1;fill-rule:nonzero;stroke:none;stroke-width:0;marker:none;visibility:visible;display:inline;overflow:visible;enable-background:accumulate"
         d="M 84,46 C 56.3,46 34,68.3 34,96 l 0,120 c 0,27.7 22.3,50 50,50 l 120,0 c 27.7,0 50,-22.3 50,-50 L 254,96 C 254,68.3 231.7,46 204,46 L 84,46 z m 0,1 120,0 c 27.1633,0 49,21.836703 49,49 l 0,120 c 0,27.1633 -21.8367,49 -49,49 L 84,265 C 56.836703,265 35,243.1633 35,216 L 35,96 C 35,68.836703 56.836703,47 84,47 z"
         id="rect4040"
         inkscape:connector-curvature="0" />
    </g>
  </g>
  <style
     type="text/css"
     id="style134">
	.st0{fill:#EF443B;}
</style>
  <style
     type="text/css"
     id="style1207">
	.background{fill-rule:evenodd;clip-rule:evenodd;fill:#192E45;}
	.fur{fill-rule:evenodd;clip-rule:evenodd;fill:#D2943B;}
	.nose{fill-rule:evenodd;clip-rule:evenodd;fill:#FFCD86;}
	.helmet{fill-rule:evenodd;clip-rule:evenodd;fill:#FFD524;}
	.lamp-light{fill:#FFFFFF;}
	.lamp-ring{fill:#192E45;}
</style>
</svg>
