<?xml version="1.0" encoding="UTF-8" standalone="no"?>
<!-- Created with Inkscape (http://www.inkscape.org/) -->

<svg
   inkscape:export-ydpi="90.000000"
   inkscape:export-xdpi="90.000000"
   width="480"
   height="300"
   id="svg11300"
   sodipodi:version="0.32"
   inkscape:version="1.1.2 (0a00cf5339, 2022-02-04)"
   sodipodi:docname="bacula (copy).svg"
   inkscape:output_extension="org.inkscape.output.svg.inkscape"
   version="1.0"
   style="display:inline;enable-background:new"
   inkscape:export-filename="/home/sam/moka-next-template.png"
   xmlns:inkscape="http://www.inkscape.org/namespaces/inkscape"
   xmlns:sodipodi="http://sodipodi.sourceforge.net/DTD/sodipodi-0.dtd"
   xmlns="http://www.w3.org/2000/svg"
   xmlns:svg="http://www.w3.org/2000/svg"
   xmlns:rdf="http://www.w3.org/1999/02/22-rdf-syntax-ns#"
   xmlns:cc="http://creativecommons.org/ns#"
   xmlns:dc="http://purl.org/dc/elements/1.1/"
   xmlns:sketch="http://www.bohemiancoding.com/sketch/ns">
  <sodipodi:namedview
     stroke="#ef2929"
     fill="#f57900"
     id="base"
     pagecolor="#ffffff"
     bordercolor="#000000"
     borderopacity="0.54509804"
     inkscape:pageopacity="0"
     inkscape:pageshadow="2"
     inkscape:zoom="1.4142136"
     inkscape:cx="260.56884"
     inkscape:cy="116.31906"
     inkscape:current-layer="layer2"
     showgrid="false"
     inkscape:grid-bbox="true"
     inkscape:document-units="px"
     inkscape:showpageshadow="false"
     inkscape:window-width="1920"
     inkscape:window-height="1008"
     inkscape:window-x="0"
     inkscape:window-y="40"
     width="400px"
     height="300px"
     inkscape:snap-nodes="true"
     inkscape:snap-bbox="true"
     gridtolerance="10000"
     inkscape:object-nodes="true"
     inkscape:snap-grids="true"
     showguides="true"
     inkscape:guide-bbox="true"
     inkscape:window-maximized="1"
     inkscape:bbox-nodes="true"
     inkscape:bbox-paths="true"
     inkscape:snap-bbox-edge-midpoints="true"
     inkscape:snap-bbox-midpoints="true"
     inkscape:pagecheckerboard="0">
    <inkscape:grid
       spacingy="1"
       spacingx="1"
       id="grid5883"
       type="xygrid"
       enabled="true"
       visible="true"
       empspacing="4"
       snapvisiblegridlinesonly="true"
       dotted="false"
       color="#000000"
       opacity="0.1254902"
       empcolor="#203ef3"
       empopacity="0.36470588"
       originx="0"
       originy="0" />
    <inkscape:grid
       type="xygrid"
       id="grid11592"
       empspacing="8"
       visible="true"
       enabled="false"
       spacingx="0.5"
       spacingy="0.5"
       color="#ff0000"
       opacity="0.1254902"
       empcolor="#ff0000"
       empopacity="0.25098039"
       snapvisiblegridlinesonly="true"
       dotted="true"
       originx="0"
       originy="0" />
  </sodipodi:namedview>
  <defs
     id="defs3">
    <linearGradient
       id="linearGradient905">
      <stop
         style="stop-color:#ff7139;stop-opacity:1"
         offset="0"
         id="stop901" />
      <stop
         style="stop-color:#ff7139;stop-opacity:1"
         offset="1"
         id="stop903" />
    </linearGradient>
    <linearGradient
       id="linearGradient3984">
      <stop
         id="stop3986"
         offset="0"
         style="stop-color:#f57d33;stop-opacity:1" />
      <stop
         id="stop3988"
         offset="1"
         style="stop-color:#faa653;stop-opacity:1;" />
    </linearGradient>
    <style
       id="style2">.cls-1,.cls-2{fill:red;}.cls-2,.cls-4,.cls-5{fill-rule:evenodd;}.cls-3{fill:none;stroke:#000;stroke-miterlimit:22.93;stroke-width:0.13px;}.cls-5{fill:#fefefe;}</style>
  </defs>
  <metadata
     id="metadata4">
    <rdf:RDF>
      <cc:Work
         rdf:about="">
        <dc:format>image/svg+xml</dc:format>
        <dc:type
           rdf:resource="http://purl.org/dc/dcmitype/StillImage" />
        <dc:creator>
          <cc:Agent>
            <dc:title>Sam Hewitt</dc:title>
          </cc:Agent>
        </dc:creator>
        <dc:source />
        <cc:license
           rdf:resource="" />
        <dc:title />
        <dc:subject>
          <rdf:Bag />
        </dc:subject>
        <dc:date />
        <dc:rights>
          <cc:Agent>
            <dc:title />
          </cc:Agent>
        </dc:rights>
        <dc:publisher>
          <cc:Agent>
            <dc:title />
          </cc:Agent>
        </dc:publisher>
        <dc:identifier />
        <dc:relation />
        <dc:language />
        <dc:coverage />
        <dc:description />
        <dc:contributor>
          <cc:Agent>
            <dc:title />
          </cc:Agent>
        </dc:contributor>
      </cc:Work>
      <cc:Work
         rdf:about="">
        <dc:format>image/svg+xml</dc:format>
        <dc:type
           rdf:resource="http://purl.org/dc/dcmitype/StillImage" />
      </cc:Work>
    </rdf:RDF>
  </metadata>
  <g
     style="display:inline"
     inkscape:groupmode="layer"
     inkscape:label="Icon"
     id="layer1">
    <g
       style="display:none"
       inkscape:label="Baseplate"
       id="layer7"
       inkscape:groupmode="layer">
      <text
         y="19.745117"
         xml:space="preserve"
         x="15.006836"
         style="font-style:normal;font-variant:normal;font-weight:normal;font-stretch:normal;line-height:0%;font-family:'DejaVu Sans';-inkscape-font-specification:'DejaVu Sans';display:inline;fill:#000000;fill-opacity:1;stroke:none;enable-background:new"
         inkscape:label="context"
         id="context"><tspan
           style="font-style:normal;font-variant:normal;font-weight:normal;font-stretch:normal;font-size:18px;line-height:1.25;font-family:'DejaVu Sans';-inkscape-font-specification:'DejaVu Sans'"
           y="19.745117"
           x="15.006836"
           sodipodi:role="line"
           id="tspan3933">apps</tspan></text>
      <text
         y="19.745117"
         xml:space="preserve"
         x="122.48828"
         style="font-style:normal;font-variant:normal;font-weight:bold;font-stretch:normal;line-height:0%;font-family:'DejaVu Sans';-inkscape-font-specification:'DejaVu Sans Bold';text-align:start;writing-mode:lr-tb;text-anchor:start;display:inline;fill:#000000;fill-opacity:1;stroke:none;enable-background:new"
         inkscape:label="icon-name"
         id="icon-name"><tspan
           style="font-style:normal;font-variant:normal;font-weight:bold;font-stretch:normal;font-size:18px;line-height:1.25;font-family:'DejaVu Sans';-inkscape-font-specification:'DejaVu Sans Bold'"
           y="19.745117"
           x="122.48828"
           sodipodi:role="line"
           id="tspan3937">sheet</tspan></text>
      <rect
         style="fill:#eeeeec;fill-opacity:1;fill-rule:nonzero;stroke:none;stroke-width:2;marker:none;visibility:visible;display:inline;overflow:visible;enable-background:accumulate"
         id="rect16x16"
         width="16"
         height="16"
         x="416"
         y="140"
         inkscape:label="16x16" />
      <rect
         style="fill:#d4d4d4;fill-opacity:1;fill-rule:nonzero;stroke:none;stroke-width:2;marker:none;visibility:visible;display:inline;overflow:visible;enable-background:accumulate"
         id="rect24x24"
         width="24"
         height="24"
         x="416"
         y="100"
         inkscape:label="24x24" />
      <rect
         style="fill:#eeeeec;fill-opacity:1;fill-rule:nonzero;stroke:none;stroke-width:2;marker:none;visibility:visible;display:inline;overflow:visible;enable-background:accumulate"
         id="rect32x32"
         width="32"
         height="32"
         x="416"
         y="52"
         inkscape:label="32x32" />
      <rect
         inkscape:label="22x22"
         y="101"
         x="417"
         height="22"
         width="22"
         id="rect22x22"
         style="fill:#eeeeec;fill-opacity:1;fill-rule:nonzero;stroke:none;stroke-width:2;marker:none;visibility:visible;display:inline;overflow:visible;enable-background:accumulate" />
      <rect
         inkscape:label="48x48"
         y="220"
         x="288"
         height="48"
         width="48"
         id="rect48x48"
         style="fill:#eeeeec;fill-opacity:1;fill-rule:nonzero;stroke:none;stroke-width:2;marker:none;visibility:visible;display:inline;overflow:visible;enable-background:accumulate" />
      <rect
         style="fill:#eeeeec;fill-opacity:1;fill-rule:nonzero;stroke:none;stroke-width:2;marker:none;visibility:visible;display:inline;overflow:visible;enable-background:accumulate"
         id="rect256x256"
         width="256"
         height="256"
         x="16"
         y="28"
         inkscape:label="256x256" />
      <rect
         style="fill:#eeeeec;fill-opacity:1;fill-rule:nonzero;stroke:none;stroke-width:2;marker:none;visibility:visible;display:inline;overflow:visible;enable-background:accumulate"
         id="rect64x64"
         width="64"
         height="64"
         x="288"
         y="140"
         inkscape:label="64x64" />
      <rect
         style="fill:#eeeeec;fill-opacity:1;fill-rule:nonzero;stroke:none;stroke-width:2;marker:none;visibility:visible;display:inline;overflow:visible;enable-background:accumulate"
         id="rect96x96"
         width="96"
         height="96"
         x="288"
         y="28"
         inkscape:label="96x96" />
    </g>
    <g
       inkscape:groupmode="layer"
       id="layer4"
       inkscape:label="Shadow"
       style="display:inline"
       sodipodi:insensitive="true">
      <rect
         ry="50"
         y="47"
         x="34"
         height="220"
         width="220"
         id="rect4114"
         style="opacity:0.1;color:#bebebe;fill:#000000;fill-opacity:1;fill-rule:nonzero;stroke:none;stroke-width:0;marker:none;visibility:visible;display:inline;overflow:visible;enable-background:accumulate" />
      <rect
         style="opacity:0.1;color:#bebebe;fill:#000000;fill-opacity:1;fill-rule:nonzero;stroke:none;stroke-width:0;marker:none;visibility:visible;display:inline;overflow:visible;enable-background:accumulate"
         id="rect4120"
         width="30"
         height="30"
         x="417"
         y="54"
         ry="7" />
      <rect
         transform="scale(1,-1)"
         ry="9"
         y="-266"
         x="291"
         height="42"
         width="42"
         id="rect4122"
         style="opacity:0.1;color:#bebebe;fill:#000000;fill-opacity:1;fill-rule:nonzero;stroke:none;stroke-width:0;marker:none;visibility:visible;display:inline;overflow:visible;enable-background:accumulate" />
      <rect
         style="opacity:0.1;color:#bebebe;fill:#000000;fill-opacity:1;fill-rule:nonzero;stroke:none;stroke-width:0;marker:none;visibility:visible;display:inline;overflow:visible;enable-background:accumulate"
         id="rect4124"
         width="88"
         height="88"
         x="292"
         y="33"
         ry="18" />
      <rect
         ry="12.5"
         y="143"
         x="290"
         height="60"
         width="60"
         id="rect4126"
         style="opacity:0.1;color:#bebebe;fill:#000000;fill-opacity:1;fill-rule:nonzero;stroke:none;stroke-width:0;marker:none;visibility:visible;display:inline;overflow:visible;enable-background:accumulate" />
      <path
         id="path4268"
         d="m 422,101 c -2.77,0 -5,2.23 -5,5 l 0,12 c 0,2.77 2.23,5 5,5 l 12,0 c 2.77,0 5,-2.23 5,-5 l 0,-12 c 0,-2.77 -2.23,-5 -5,-5 z"
         style="opacity:0.1;color:#bebebe;fill:#000000;fill-opacity:1;fill-rule:nonzero;stroke:none;stroke-width:0;marker:none;visibility:visible;display:inline;overflow:visible;enable-background:accumulate"
         inkscape:connector-curvature="0"
         sodipodi:nodetypes="sssssssss" />
      <path
         id="path4270"
         d="m 419,140 c -1.662,0 -3,1.338 -3,3 l 0,10 c 0,1.662 1.338,3 3,3 l 10,0 c 1.662,0 3,-1.338 3,-3 l 0,-10 c 0,-1.662 -1.338,-3 -3,-3 z"
         style="opacity:0.1;color:#bebebe;fill:#000000;fill-opacity:1;fill-rule:nonzero;stroke:none;stroke-width:0;marker:none;visibility:visible;display:inline;overflow:visible;enable-background:accumulate"
         inkscape:connector-curvature="0"
         sodipodi:nodetypes="sssssssss" />
    </g>
    <g
       inkscape:groupmode="layer"
       id="layer2"
       inkscape:label="Background"
       style="display:inline">
      <g
         id="g4817">
        <g
           id="g3895">
          <path
             style="color:#bebebe;display:inline;overflow:visible;visibility:visible;fill:#ff3b53;fill-opacity:1;fill-rule:nonzero;stroke:none;stroke-width:2;marker:none;enable-background:accumulate"
             d="M 84,46.5 C 56.568735,46.5 34.5,68.568732 34.5,96 v 120 c 0,27.43127 22.068735,49.5 49.5,49.5 h 120 c 27.43127,0 49.5,-22.06873 49.5,-49.5 V 96 C 253.5,68.568732 231.43127,46.5 204,46.5 Z"
             id="path4200" />
          <g
             id="Page-1"
             sketch:type="MSPage"
             transform="matrix(0.08000534,0,0,0.08000534,44.001686,100.47826)"
             style="fill:#ffffff">
	<g
   id="Black"
   sketch:type="MSArtboardGroup"
   style="fill:#ffffff">
		<path
   id="Fill-17-Copy-4"
   sketch:type="MSShapeGroup"
   class="st0"
   d="m 1250.3,399.1 c 0.4,0 0.7,0.1 1,0.1 0.3,0 0.6,-0.1 1,-0.1 135.4,0 245.2,109.7 245.2,245.3 0,75.8 -34.5,143.6 -88.6,188.6 -23.6,22.3 -53.1,38.7 -89.1,47 -21.4,6.2 -44.2,9.6 -67.5,9.6 h -1 -1 c -23.4,0 -46.1,-3.4 -67.6,-9.6 -36,-8.3 -65.6,-24.7 -89.1,-47 -54.1,-45 -88.6,-112.7 -88.6,-188.6 0,-135.6 109.9,-245.3 245.3,-245.3 M 211.5,1385.8 c 131.8,16.6 248.8,-79.4 261.2,-214.2 4.1,-45.5 -4.4,-89.7 -22.2,-128.8 -184.6,-405.1 726.2,-414.4 572.3,-32 -0.3,0.5 -0.7,0.9 -1.1,1.6 -72.8,116.3 -33.4,267.6 87.7,337.5 44.5,25.7 93.7,36.5 141.9,34.5 48.2,2 97.5,-8.8 141.9,-34.5 121,-70 160.4,-221.2 87.6,-337.5 -0.3,-0.7 -0.8,-1.1 -1.1,-1.6 -153.8,-382.4 757.1,-373.2 572.3,32 -17.8,39.1 -26.3,83.3 -22.2,128.8 12.5,134.9 129.4,230.8 261.2,214.2 58.6,-7.4 110.3,-35.7 148.5,-76.8 0,0 61.3,-50.8 60.3,-180.6 -0.9,-105.7 -60.3,-164.3 -60.3,-164.3 -47.9,-48.4 -116,-75 -189,-67.2 -169.1,-3.8 -194.2,-136.1 -146.4,-385.8 17.5,-44.2 25.1,-91.7 23.6,-139.1 4.7,-127.6 -59.5,-253.5 -177.7,-321.9 -14.4,-8.3 -29.2,-15.1 -44.3,-21.3 -4,-1.8 -8.2,-3.2 -12.3,-4.9 -4.7,-1.7 -9.2,-3.5 -13.9,-4.8 -36.8,-12.4 -76.1,-19.2 -117,-18.7 -127.2,1.2 -238,69.2 -300.1,170.1 -85.2,93.4 -123.6,150.1 -211.2,150.1 -83.2,0 -126.1,-56.8 -211.3,-150.1 C 978,69.5 867.2,1.5 740,0.3 699,-0.1 659.8,6.6 623.1,19 c -4.7,1.4 -9.4,3.2 -13.9,4.8 -4.2,1.6 -8.2,3.1 -12.4,4.9 -15,6.2 -29.9,13 -44.2,21.3 -118.3,68.5 -182.4,194.4 -177.8,322 -1.6,47.4 6.1,94.9 23.6,139.1 47.7,249.7 22.6,382 -146.4,385.8 -82.7,-8.9 -144.5,25.2 -207,87.7 -62.6,62.5 -57.4,229.8 0,302.8 41.6,53.1 98.1,89.8 166.5,98.4"
   style="fill:#ffffff" />

	</g>

</g>
        </g>
        <g
           id="g3915">
          <path
             style="color:#bebebe;display:inline;overflow:visible;visibility:visible;fill:#ff3b53;fill-opacity:1;fill-rule:nonzero;stroke:none;stroke-width:2;marker:none;enable-background:accumulate"
             d="m 424,53.5 c -3.60654,0 -6.5,2.893464 -6.5,6.5 v 16 c 0,3.606536 2.89346,6.5 6.5,6.5 h 16 c 3.60654,0 6.5,-2.893464 6.5,-6.5 V 60 c 0,-3.606536 -2.89346,-6.5 -6.5,-6.5 z"
             id="path4206" />
          <g
             id="g3903"
             sketch:type="MSPage"
             transform="matrix(0.01059431,0,0,0.01059431,418.75822,60.64781)"
             style="fill:#ffffff">
	<g
   id="g3901"
   sketch:type="MSArtboardGroup"
   style="fill:#ffffff">
		<path
   id="path3899"
   sketch:type="MSShapeGroup"
   class="st0"
   d="m 1250.3,399.1 c 0.4,0 0.7,0.1 1,0.1 0.3,0 0.6,-0.1 1,-0.1 135.4,0 245.2,109.7 245.2,245.3 0,75.8 -34.5,143.6 -88.6,188.6 -23.6,22.3 -53.1,38.7 -89.1,47 -21.4,6.2 -44.2,9.6 -67.5,9.6 h -1 -1 c -23.4,0 -46.1,-3.4 -67.6,-9.6 -36,-8.3 -65.6,-24.7 -89.1,-47 -54.1,-45 -88.6,-112.7 -88.6,-188.6 0,-135.6 109.9,-245.3 245.3,-245.3 M 211.5,1385.8 c 131.8,16.6 248.8,-79.4 261.2,-214.2 4.1,-45.5 -4.4,-89.7 -22.2,-128.8 -184.6,-405.1 726.2,-414.4 572.3,-32 -0.3,0.5 -0.7,0.9 -1.1,1.6 -72.8,116.3 -33.4,267.6 87.7,337.5 44.5,25.7 93.7,36.5 141.9,34.5 48.2,2 97.5,-8.8 141.9,-34.5 121,-70 160.4,-221.2 87.6,-337.5 -0.3,-0.7 -0.8,-1.1 -1.1,-1.6 -153.8,-382.4 757.1,-373.2 572.3,32 -17.8,39.1 -26.3,83.3 -22.2,128.8 12.5,134.9 129.4,230.8 261.2,214.2 58.6,-7.4 110.3,-35.7 148.5,-76.8 0,0 61.3,-50.8 60.3,-180.6 -0.9,-105.7 -60.3,-164.3 -60.3,-164.3 -47.9,-48.4 -116,-75 -189,-67.2 -169.1,-3.8 -194.2,-136.1 -146.4,-385.8 17.5,-44.2 25.1,-91.7 23.6,-139.1 4.7,-127.6 -59.5,-253.5 -177.7,-321.9 -14.4,-8.3 -29.2,-15.1 -44.3,-21.3 -4,-1.8 -8.2,-3.2 -12.3,-4.9 -4.7,-1.7 -9.2,-3.5 -13.9,-4.8 -36.8,-12.4 -76.1,-19.2 -117,-18.7 -127.2,1.2 -238,69.2 -300.1,170.1 -85.2,93.4 -123.6,150.1 -211.2,150.1 -83.2,0 -126.1,-56.8 -211.3,-150.1 C 978,69.5 867.2,1.5 740,0.3 699,-0.1 659.8,6.6 623.1,19 c -4.7,1.4 -9.4,3.2 -13.9,4.8 -4.2,1.6 -8.2,3.1 -12.4,4.9 -15,6.2 -29.9,13 -44.2,21.3 -118.3,68.5 -182.4,194.4 -177.8,322 -1.6,47.4 6.1,94.9 23.6,139.1 47.7,249.7 22.6,382 -146.4,385.8 -82.7,-8.9 -144.5,25.2 -207,87.7 -62.6,62.5 -57.4,229.8 0,302.8 41.6,53.1 98.1,89.8 166.5,98.4"
   style="fill:#ffffff" />

	</g>

</g>
        </g>
        <g
           id="g4099">
          <path
             style="color:#bebebe;display:inline;overflow:visible;visibility:visible;fill:#ff3b53;fill-opacity:1;fill-rule:nonzero;stroke:none;stroke-width:2;marker:none;enable-background:accumulate"
             d="m 310,32.5 c -9.70255,0 -17.5,7.797452 -17.5,17.5 v 52 c 0,9.70255 7.79745,17.5 17.5,17.5 h 52 c 9.70255,0 17.5,-7.79745 17.5,-17.5 V 50 c 0,-9.702548 -7.79745,-17.5 -17.5,-17.5 z"
             id="path4210" />
          <g
             id="g4087"
             sketch:type="MSPage"
             transform="matrix(0.03178294,0,0,0.03178294,296.27465,53.943422)"
             style="fill:#ffffff">
	<g
   id="g4085"
   sketch:type="MSArtboardGroup"
   style="fill:#ffffff">
		<path
   id="path4083"
   sketch:type="MSShapeGroup"
   class="st0"
   d="m 1250.3,399.1 c 0.4,0 0.7,0.1 1,0.1 0.3,0 0.6,-0.1 1,-0.1 135.4,0 245.2,109.7 245.2,245.3 0,75.8 -34.5,143.6 -88.6,188.6 -23.6,22.3 -53.1,38.7 -89.1,47 -21.4,6.2 -44.2,9.6 -67.5,9.6 h -1 -1 c -23.4,0 -46.1,-3.4 -67.6,-9.6 -36,-8.3 -65.6,-24.7 -89.1,-47 -54.1,-45 -88.6,-112.7 -88.6,-188.6 0,-135.6 109.9,-245.3 245.3,-245.3 M 211.5,1385.8 c 131.8,16.6 248.8,-79.4 261.2,-214.2 4.1,-45.5 -4.4,-89.7 -22.2,-128.8 -184.6,-405.1 726.2,-414.4 572.3,-32 -0.3,0.5 -0.7,0.9 -1.1,1.6 -72.8,116.3 -33.4,267.6 87.7,337.5 44.5,25.7 93.7,36.5 141.9,34.5 48.2,2 97.5,-8.8 141.9,-34.5 121,-70 160.4,-221.2 87.6,-337.5 -0.3,-0.7 -0.8,-1.1 -1.1,-1.6 -153.8,-382.4 757.1,-373.2 572.3,32 -17.8,39.1 -26.3,83.3 -22.2,128.8 12.5,134.9 129.4,230.8 261.2,214.2 58.6,-7.4 110.3,-35.7 148.5,-76.8 0,0 61.3,-50.8 60.3,-180.6 -0.9,-105.7 -60.3,-164.3 -60.3,-164.3 -47.9,-48.4 -116,-75 -189,-67.2 -169.1,-3.8 -194.2,-136.1 -146.4,-385.8 17.5,-44.2 25.1,-91.7 23.6,-139.1 4.7,-127.6 -59.5,-253.5 -177.7,-321.9 -14.4,-8.3 -29.2,-15.1 -44.3,-21.3 -4,-1.8 -8.2,-3.2 -12.3,-4.9 -4.7,-1.7 -9.2,-3.5 -13.9,-4.8 -36.8,-12.4 -76.1,-19.2 -117,-18.7 -127.2,1.2 -238,69.2 -300.1,170.1 -85.2,93.4 -123.6,150.1 -211.2,150.1 -83.2,0 -126.1,-56.8 -211.3,-150.1 C 978,69.5 867.2,1.5 740,0.3 699,-0.1 659.8,6.6 623.1,19 c -4.7,1.4 -9.4,3.2 -13.9,4.8 -4.2,1.6 -8.2,3.1 -12.4,4.9 -15,6.2 -29.9,13 -44.2,21.3 -118.3,68.5 -182.4,194.4 -177.8,322 -1.6,47.4 6.1,94.9 23.6,139.1 47.7,249.7 22.6,382 -146.4,385.8 -82.7,-8.9 -144.5,25.2 -207,87.7 -62.6,62.5 -57.4,229.8 0,302.8 41.6,53.1 98.1,89.8 166.5,98.4"
   style="fill:#ffffff" />

	</g>

</g>
        </g>
        <g
           id="g4297">
          <path
             style="color:#bebebe;display:inline;overflow:visible;visibility:visible;fill:#ff3b53;fill-opacity:1;fill-rule:nonzero;stroke:none;stroke-width:2;marker:none;enable-background:accumulate"
             d="m 302.5,142.5 c -6.65502,0 -12,5.34498 -12,12 v 35 c 0,6.65502 5.34498,12 12,12 h 35 c 6.65502,0 12,-5.34498 12,-12 v -35 c 0,-6.65502 -5.34498,-12 -12,-12 z"
             id="path4212" />
          <g
             id="g4275"
             sketch:type="MSPage"
             transform="matrix(0.02155395,0,0,0.02155395,293.05981,157.04209)"
             style="fill:#ffffff">
	<g
   id="g4273"
   sketch:type="MSArtboardGroup"
   style="fill:#ffffff">
		<path
   id="path4271"
   sketch:type="MSShapeGroup"
   class="st0"
   d="m 1250.3,399.1 c 0.4,0 0.7,0.1 1,0.1 0.3,0 0.6,-0.1 1,-0.1 135.4,0 245.2,109.7 245.2,245.3 0,75.8 -34.5,143.6 -88.6,188.6 -23.6,22.3 -53.1,38.7 -89.1,47 -21.4,6.2 -44.2,9.6 -67.5,9.6 h -1 -1 c -23.4,0 -46.1,-3.4 -67.6,-9.6 -36,-8.3 -65.6,-24.7 -89.1,-47 -54.1,-45 -88.6,-112.7 -88.6,-188.6 0,-135.6 109.9,-245.3 245.3,-245.3 M 211.5,1385.8 c 131.8,16.6 248.8,-79.4 261.2,-214.2 4.1,-45.5 -4.4,-89.7 -22.2,-128.8 -184.6,-405.1 726.2,-414.4 572.3,-32 -0.3,0.5 -0.7,0.9 -1.1,1.6 -72.8,116.3 -33.4,267.6 87.7,337.5 44.5,25.7 93.7,36.5 141.9,34.5 48.2,2 97.5,-8.8 141.9,-34.5 121,-70 160.4,-221.2 87.6,-337.5 -0.3,-0.7 -0.8,-1.1 -1.1,-1.6 -153.8,-382.4 757.1,-373.2 572.3,32 -17.8,39.1 -26.3,83.3 -22.2,128.8 12.5,134.9 129.4,230.8 261.2,214.2 58.6,-7.4 110.3,-35.7 148.5,-76.8 0,0 61.3,-50.8 60.3,-180.6 -0.9,-105.7 -60.3,-164.3 -60.3,-164.3 -47.9,-48.4 -116,-75 -189,-67.2 -169.1,-3.8 -194.2,-136.1 -146.4,-385.8 17.5,-44.2 25.1,-91.7 23.6,-139.1 4.7,-127.6 -59.5,-253.5 -177.7,-321.9 -14.4,-8.3 -29.2,-15.1 -44.3,-21.3 -4,-1.8 -8.2,-3.2 -12.3,-4.9 -4.7,-1.7 -9.2,-3.5 -13.9,-4.8 -36.8,-12.4 -76.1,-19.2 -117,-18.7 -127.2,1.2 -238,69.2 -300.1,170.1 -85.2,93.4 -123.6,150.1 -211.2,150.1 -83.2,0 -126.1,-56.8 -211.3,-150.1 C 978,69.5 867.2,1.5 740,0.3 699,-0.1 659.8,6.6 623.1,19 c -4.7,1.4 -9.4,3.2 -13.9,4.8 -4.2,1.6 -8.2,3.1 -12.4,4.9 -15,6.2 -29.9,13 -44.2,21.3 -118.3,68.5 -182.4,194.4 -177.8,322 -1.6,47.4 6.1,94.9 23.6,139.1 47.7,249.7 22.6,382 -146.4,385.8 -82.7,-8.9 -144.5,25.2 -207,87.7 -62.6,62.5 -57.4,229.8 0,302.8 41.6,53.1 98.1,89.8 166.5,98.4"
   style="fill:#ffffff" />

	</g>

</g>
        </g>
        <g
           id="g4387">
          <path
             style="color:#bebebe;display:inline;overflow:visible;visibility:visible;fill:#ff3b53;fill-opacity:1;fill-rule:nonzero;stroke:none;stroke-width:2;marker:none;enable-background:accumulate"
             d="m 300,223.5 c -4.71531,0 -8.5,3.78469 -8.5,8.5 v 24 c 0,4.71531 3.78469,8.5 8.5,8.5 h 24 c 4.71531,0 8.5,-3.78469 8.5,-8.5 v -24 c 0,-4.71531 -3.78469,-8.5 -8.5,-8.5 z"
             id="path4208" />
          <g
             id="g4285"
             sketch:type="MSPage"
             transform="matrix(0.01497817,0,0,0.01497817,293.27885,233.60552)"
             style="fill:#ffffff">
	<g
   id="g4283"
   sketch:type="MSArtboardGroup"
   style="fill:#ffffff">
		<path
   id="path4281"
   sketch:type="MSShapeGroup"
   class="st0"
   d="m 1250.3,399.1 c 0.4,0 0.7,0.1 1,0.1 0.3,0 0.6,-0.1 1,-0.1 135.4,0 245.2,109.7 245.2,245.3 0,75.8 -34.5,143.6 -88.6,188.6 -23.6,22.3 -53.1,38.7 -89.1,47 -21.4,6.2 -44.2,9.6 -67.5,9.6 h -1 -1 c -23.4,0 -46.1,-3.4 -67.6,-9.6 -36,-8.3 -65.6,-24.7 -89.1,-47 -54.1,-45 -88.6,-112.7 -88.6,-188.6 0,-135.6 109.9,-245.3 245.3,-245.3 M 211.5,1385.8 c 131.8,16.6 248.8,-79.4 261.2,-214.2 4.1,-45.5 -4.4,-89.7 -22.2,-128.8 -184.6,-405.1 726.2,-414.4 572.3,-32 -0.3,0.5 -0.7,0.9 -1.1,1.6 -72.8,116.3 -33.4,267.6 87.7,337.5 44.5,25.7 93.7,36.5 141.9,34.5 48.2,2 97.5,-8.8 141.9,-34.5 121,-70 160.4,-221.2 87.6,-337.5 -0.3,-0.7 -0.8,-1.1 -1.1,-1.6 -153.8,-382.4 757.1,-373.2 572.3,32 -17.8,39.1 -26.3,83.3 -22.2,128.8 12.5,134.9 129.4,230.8 261.2,214.2 58.6,-7.4 110.3,-35.7 148.5,-76.8 0,0 61.3,-50.8 60.3,-180.6 -0.9,-105.7 -60.3,-164.3 -60.3,-164.3 -47.9,-48.4 -116,-75 -189,-67.2 -169.1,-3.8 -194.2,-136.1 -146.4,-385.8 17.5,-44.2 25.1,-91.7 23.6,-139.1 4.7,-127.6 -59.5,-253.5 -177.7,-321.9 -14.4,-8.3 -29.2,-15.1 -44.3,-21.3 -4,-1.8 -8.2,-3.2 -12.3,-4.9 -4.7,-1.7 -9.2,-3.5 -13.9,-4.8 -36.8,-12.4 -76.1,-19.2 -117,-18.7 -127.2,1.2 -238,69.2 -300.1,170.1 -85.2,93.4 -123.6,150.1 -211.2,150.1 -83.2,0 -126.1,-56.8 -211.3,-150.1 C 978,69.5 867.2,1.5 740,0.3 699,-0.1 659.8,6.6 623.1,19 c -4.7,1.4 -9.4,3.2 -13.9,4.8 -4.2,1.6 -8.2,3.1 -12.4,4.9 -15,6.2 -29.9,13 -44.2,21.3 -118.3,68.5 -182.4,194.4 -177.8,322 -1.6,47.4 6.1,94.9 23.6,139.1 47.7,249.7 22.6,382 -146.4,385.8 -82.7,-8.9 -144.5,25.2 -207,87.7 -62.6,62.5 -57.4,229.8 0,302.8 41.6,53.1 98.1,89.8 166.5,98.4"
   style="fill:#ffffff" />

	</g>

</g>
        </g>
        <g
           id="g4700">
          <path
             style="color:#bebebe;display:inline;overflow:visible;visibility:visible;fill:#ff3b53;fill-opacity:1;fill-rule:nonzero;stroke:none;stroke-width:2;marker:none;enable-background:accumulate"
             d="m 419,140.5 c -1.3844,0 -2.5,1.1156 -2.5,2.5 v 10 c 0,1.3844 1.1156,2.5 2.5,2.5 h 10 c 1.3844,0 2.5,-1.1156 2.5,-2.5 v -10 c 0,-1.3844 -1.1156,-2.5 -2.5,-2.5 z"
             id="path4202" />
          <g
             id="g4668"
             sketch:type="MSPage"
             transform="matrix(0.00547982,0,0,0.00547982,417.1508,144.19714)"
             style="fill:#ffffff">
	<g
   id="g4666"
   sketch:type="MSArtboardGroup"
   style="fill:#ffffff">
		<path
   id="path4664"
   sketch:type="MSShapeGroup"
   class="st0"
   d="m 1250.3,399.1 c 0.4,0 0.7,0.1 1,0.1 0.3,0 0.6,-0.1 1,-0.1 135.4,0 245.2,109.7 245.2,245.3 0,75.8 -34.5,143.6 -88.6,188.6 -23.6,22.3 -53.1,38.7 -89.1,47 -21.4,6.2 -44.2,9.6 -67.5,9.6 h -1 -1 c -23.4,0 -46.1,-3.4 -67.6,-9.6 -36,-8.3 -65.6,-24.7 -89.1,-47 -54.1,-45 -88.6,-112.7 -88.6,-188.6 0,-135.6 109.9,-245.3 245.3,-245.3 M 211.5,1385.8 c 131.8,16.6 248.8,-79.4 261.2,-214.2 4.1,-45.5 -4.4,-89.7 -22.2,-128.8 -184.6,-405.1 726.2,-414.4 572.3,-32 -0.3,0.5 -0.7,0.9 -1.1,1.6 -72.8,116.3 -33.4,267.6 87.7,337.5 44.5,25.7 93.7,36.5 141.9,34.5 48.2,2 97.5,-8.8 141.9,-34.5 121,-70 160.4,-221.2 87.6,-337.5 -0.3,-0.7 -0.8,-1.1 -1.1,-1.6 -153.8,-382.4 757.1,-373.2 572.3,32 -17.8,39.1 -26.3,83.3 -22.2,128.8 12.5,134.9 129.4,230.8 261.2,214.2 58.6,-7.4 110.3,-35.7 148.5,-76.8 0,0 61.3,-50.8 60.3,-180.6 -0.9,-105.7 -60.3,-164.3 -60.3,-164.3 -47.9,-48.4 -116,-75 -189,-67.2 -169.1,-3.8 -194.2,-136.1 -146.4,-385.8 17.5,-44.2 25.1,-91.7 23.6,-139.1 4.7,-127.6 -59.5,-253.5 -177.7,-321.9 -14.4,-8.3 -29.2,-15.1 -44.3,-21.3 -4,-1.8 -8.2,-3.2 -12.3,-4.9 -4.7,-1.7 -9.2,-3.5 -13.9,-4.8 -36.8,-12.4 -76.1,-19.2 -117,-18.7 -127.2,1.2 -238,69.2 -300.1,170.1 -85.2,93.4 -123.6,150.1 -211.2,150.1 -83.2,0 -126.1,-56.8 -211.3,-150.1 C 978,69.5 867.2,1.5 740,0.3 699,-0.1 659.8,6.6 623.1,19 c -4.7,1.4 -9.4,3.2 -13.9,4.8 -4.2,1.6 -8.2,3.1 -12.4,4.9 -15,6.2 -29.9,13 -44.2,21.3 -118.3,68.5 -182.4,194.4 -177.8,322 -1.6,47.4 6.1,94.9 23.6,139.1 47.7,249.7 22.6,382 -146.4,385.8 -82.7,-8.9 -144.5,25.2 -207,87.7 -62.6,62.5 -57.4,229.8 0,302.8 41.6,53.1 98.1,89.8 166.5,98.4"
   style="fill:#ffffff" />

	</g>

</g>
        </g>
        <g
           id="g4694">
          <path
             style="color:#bebebe;display:inline;overflow:visible;visibility:visible;fill:#ff3b53;fill-opacity:1;fill-rule:nonzero;stroke:none;stroke-width:2;marker:none;enable-background:accumulate"
             d="m 422,101.5 c -2.49699,0 -4.5,2.00301 -4.5,4.5 v 12 c 0,2.49699 2.00301,4.5 4.5,4.5 h 12 c 2.49699,0 4.5,-2.00301 4.5,-4.5 v -12 c 0,-2.49699 -2.00301,-4.5 -4.5,-4.5 z"
             id="path4204" />
          <g
             id="g4678"
             sketch:type="MSPage"
             transform="matrix(0.00767174,0,0,0.00767174,418.41113,106.676)"
             style="fill:#ffffff">
	<g
   id="g4676"
   sketch:type="MSArtboardGroup"
   style="fill:#ffffff">
		<path
   id="path4674"
   sketch:type="MSShapeGroup"
   class="st0"
   d="m 1250.3,399.1 c 0.4,0 0.7,0.1 1,0.1 0.3,0 0.6,-0.1 1,-0.1 135.4,0 245.2,109.7 245.2,245.3 0,75.8 -34.5,143.6 -88.6,188.6 -23.6,22.3 -53.1,38.7 -89.1,47 -21.4,6.2 -44.2,9.6 -67.5,9.6 h -1 -1 c -23.4,0 -46.1,-3.4 -67.6,-9.6 -36,-8.3 -65.6,-24.7 -89.1,-47 -54.1,-45 -88.6,-112.7 -88.6,-188.6 0,-135.6 109.9,-245.3 245.3,-245.3 M 211.5,1385.8 c 131.8,16.6 248.8,-79.4 261.2,-214.2 4.1,-45.5 -4.4,-89.7 -22.2,-128.8 -184.6,-405.1 726.2,-414.4 572.3,-32 -0.3,0.5 -0.7,0.9 -1.1,1.6 -72.8,116.3 -33.4,267.6 87.7,337.5 44.5,25.7 93.7,36.5 141.9,34.5 48.2,2 97.5,-8.8 141.9,-34.5 121,-70 160.4,-221.2 87.6,-337.5 -0.3,-0.7 -0.8,-1.1 -1.1,-1.6 -153.8,-382.4 757.1,-373.2 572.3,32 -17.8,39.1 -26.3,83.3 -22.2,128.8 12.5,134.9 129.4,230.8 261.2,214.2 58.6,-7.4 110.3,-35.7 148.5,-76.8 0,0 61.3,-50.8 60.3,-180.6 -0.9,-105.7 -60.3,-164.3 -60.3,-164.3 -47.9,-48.4 -116,-75 -189,-67.2 -169.1,-3.8 -194.2,-136.1 -146.4,-385.8 17.5,-44.2 25.1,-91.7 23.6,-139.1 4.7,-127.6 -59.5,-253.5 -177.7,-321.9 -14.4,-8.3 -29.2,-15.1 -44.3,-21.3 -4,-1.8 -8.2,-3.2 -12.3,-4.9 -4.7,-1.7 -9.2,-3.5 -13.9,-4.8 -36.8,-12.4 -76.1,-19.2 -117,-18.7 -127.2,1.2 -238,69.2 -300.1,170.1 -85.2,93.4 -123.6,150.1 -211.2,150.1 -83.2,0 -126.1,-56.8 -211.3,-150.1 C 978,69.5 867.2,1.5 740,0.3 699,-0.1 659.8,6.6 623.1,19 c -4.7,1.4 -9.4,3.2 -13.9,4.8 -4.2,1.6 -8.2,3.1 -12.4,4.9 -15,6.2 -29.9,13 -44.2,21.3 -118.3,68.5 -182.4,194.4 -177.8,322 -1.6,47.4 6.1,94.9 23.6,139.1 47.7,249.7 22.6,382 -146.4,385.8 -82.7,-8.9 -144.5,25.2 -207,87.7 -62.6,62.5 -57.4,229.8 0,302.8 41.6,53.1 98.1,89.8 166.5,98.4"
   style="fill:#ffffff" />

	</g>

</g>
        </g>
      </g>
    </g>
    <g
       inkscape:groupmode="layer"
       id="layer6"
       inkscape:label="Symbols"
       style="display:inline" />
    <g
       inkscape:groupmode="layer"
       id="layer5"
       inkscape:label="Highlights"
       style="display:inline"
       sodipodi:insensitive="true">
      <path
         style="opacity:0.12999998;color:#bebebe;fill:#ffffff;fill-opacity:1;fill-rule:nonzero;stroke:none;stroke-width:0;marker:none;visibility:visible;display:inline;overflow:visible;enable-background:accumulate"
         d="M 84,47 C 56.836703,47 35,68.836703 35,96 l 0,1 C 35,69.836703 56.836703,48 84,48 l 120,0 c 27.1633,0 49,21.836703 49,49 l 0,-1 C 253,68.836703 231.1633,47 204,47 L 84,47 z"
         id="rect3894"
         inkscape:connector-curvature="0" />
      <path
         style="opacity:0.12999998;color:#bebebe;fill:#ffffff;fill-opacity:1;fill-rule:nonzero;stroke:none;stroke-width:0;marker:none;visibility:visible;display:inline;overflow:visible;enable-background:accumulate"
         d="m 419,141 c -1.1253,0 -2,0.8747 -2,2 l 0,1 c 0,-1.1253 0.8747,-2 2,-2 l 10,0 c 1.1253,0 2,0.8747 2,2 l 0,-1 c 0,-1.1253 -0.8747,-2 -2,-2 l -10,0 z"
         id="rect3896"
         inkscape:connector-curvature="0" />
      <path
         style="opacity:0.12999998;color:#bebebe;fill:#ffffff;fill-opacity:1;fill-rule:nonzero;stroke:none;stroke-width:0;marker:none;visibility:visible;display:inline;overflow:visible;enable-background:accumulate"
         d="m 422,102 c -2.2333,0 -4,1.7667 -4,4 l 0,1 c 0,-2.2333 1.7667,-4 4,-4 l 12,0 c 2.2333,0 4,1.7667 4,4 l 0,-1 c 0,-2.2333 -1.7667,-4 -4,-4 l -12,0 z"
         id="rect3898"
         inkscape:connector-curvature="0" />
      <path
         style="opacity:0.12999998;color:#bebebe;fill:#ffffff;fill-opacity:1;fill-rule:nonzero;stroke:none;stroke-width:0;marker:none;visibility:visible;display:inline;overflow:visible;enable-background:accumulate"
         d="m 424,54 c -3.3413,0 -6,2.658703 -6,6 l 0,1 c 0,-3.341297 2.6587,-6 6,-6 l 16,0 c 3.3413,0 6,2.658703 6,6 l 0,-1 c 0,-3.341297 -2.6587,-6 -6,-6 l -16,0 z"
         id="rect3900"
         inkscape:connector-curvature="0" />
      <path
         style="opacity:0.12999998;color:#bebebe;fill:#ffffff;fill-opacity:1;fill-rule:nonzero;stroke:none;stroke-width:0;marker:none;visibility:visible;display:inline;overflow:visible;enable-background:accumulate"
         d="m 300,224 c -4.4493,0 -8,3.5507 -8,8 l 0,1 c 0,-4.4493 3.5507,-8 8,-8 l 24,0 c 4.4493,0 8,3.5507 8,8 l 0,-1 c 0,-4.4493 -3.5507,-8 -8,-8 l -24,0 z"
         id="rect3902"
         inkscape:connector-curvature="0" />
      <path
         style="opacity:0.12999998;color:#bebebe;fill:#ffffff;fill-opacity:1;fill-rule:nonzero;stroke:none;stroke-width:0;marker:none;visibility:visible;display:inline;overflow:visible;enable-background:accumulate"
         d="m 310,33 c -9.4353,0 -17,7.564703 -17,17 l 0,1 c 0,-9.435297 7.5647,-17 17,-17 l 52,0 c 9.4353,0 17,7.564703 17,17 l 0,-1 c 0,-9.435297 -7.5647,-17 -17,-17 l -52,0 z"
         id="rect3904"
         inkscape:connector-curvature="0" />
      <path
         style="opacity:0.12999998;color:#bebebe;fill:#ffffff;fill-opacity:1;fill-rule:nonzero;stroke:none;stroke-width:0;marker:none;visibility:visible;display:inline;overflow:visible;enable-background:accumulate"
         d="m 302.5,143 c -6.3883,0 -11.5,5.1117 -11.5,11.5 l 0,1 c 0,-6.3883 5.1117,-11.5 11.5,-11.5 l 35,0 c 6.3883,0 11.5,5.1117 11.5,11.5 l 0,-1 c 0,-6.3883 -5.1117,-11.5 -11.5,-11.5 l -35,0 z"
         id="rect3906"
         inkscape:connector-curvature="0" />
      <path
         id="path4085"
         d="m 204,266 c 27.1633,0 49,-21.8367 49,-49 l 0,-1 c 0,27.1633 -21.8367,49 -49,49 L 84,265 C 56.8367,265 35,243.1633 35,216 l 0,1 c 0,27.1633 21.8367,49 49,49 l 120,0 z"
         style="opacity:0.41;color:#bebebe;fill:#000000;fill-opacity:1;fill-rule:nonzero;stroke:none;stroke-width:0;marker:none;visibility:visible;display:inline;overflow:visible;enable-background:accumulate"
         inkscape:connector-curvature="0" />
      <path
         id="path4087"
         d="m 429,156 c 1.1253,0 2,-0.8747 2,-2 l 0,-1 c 0,1.1253 -0.8747,2 -2,2 l -10,0 c -1.1253,0 -2,-0.8747 -2,-2 l 0,1 c 0,1.1253 0.8747,2 2,2 l 10,0 z"
         style="opacity:0.3;color:#bebebe;fill:#000000;fill-opacity:1;fill-rule:nonzero;stroke:none;stroke-width:0;marker:none;visibility:visible;display:inline;overflow:visible;enable-background:accumulate"
         inkscape:connector-curvature="0" />
      <path
         id="path4089"
         d="m 434,123 c 2.2333,0 4,-1.7667 4,-4 l 0,-1 c 0,2.2333 -1.7667,4 -4,4 l -12,0 c -2.2333,0 -4,-1.7667 -4,-4 l 0,1 c 0,2.2333 1.7667,4 4,4 l 12,0 z"
         style="opacity:0.3;color:#bebebe;fill:#000000;fill-opacity:1;fill-rule:nonzero;stroke:none;stroke-width:0;marker:none;visibility:visible;display:inline;overflow:visible;enable-background:accumulate"
         inkscape:connector-curvature="0" />
      <path
         id="path4091"
         d="m 440,83 c 3.3413,0 6,-2.6587 6,-6 l 0,-1 c 0,3.3413 -2.6587,6 -6,6 l -16,0 c -3.3413,0 -6,-2.6587 -6,-6 l 0,1 c 0,3.3413 2.6587,6 6,6 l 16,0 z"
         style="opacity:0.41;color:#bebebe;fill:#000000;fill-opacity:1;fill-rule:nonzero;stroke:none;stroke-width:0;marker:none;visibility:visible;display:inline;overflow:visible;enable-background:accumulate"
         inkscape:connector-curvature="0" />
      <path
         id="path4093"
         d="m 324,265 c 4.4493,0 8,-3.5507 8,-8 l 0,-1 c 0,4.4493 -3.5507,8 -8,8 l -24,0 c -4.4493,0 -8,-3.5507 -8,-8 l 0,1 c 0,4.4493 3.5507,8 8,8 l 24,0 z"
         style="opacity:0.41;color:#bebebe;fill:#000000;fill-opacity:1;fill-rule:nonzero;stroke:none;stroke-width:0;marker:none;visibility:visible;display:inline;overflow:visible;enable-background:accumulate"
         inkscape:connector-curvature="0" />
      <path
         id="path4095"
         d="m 362,120 c 9.4353,0 17,-7.5647 17,-17 l 0,-1 c 0,9.4353 -7.5647,17 -17,17 l -52,0 c -9.4353,0 -17,-7.5647 -17,-17 l 0,1 c 0,9.4353 7.5647,17 17,17 l 52,0 z"
         style="opacity:0.41;color:#bebebe;fill:#000000;fill-opacity:1;fill-rule:nonzero;stroke:none;stroke-width:0;marker:none;visibility:visible;display:inline;overflow:visible;enable-background:accumulate"
         inkscape:connector-curvature="0" />
      <path
         id="path4097"
         d="m 337.5,202 c 6.3883,0 11.5,-5.1117 11.5,-11.5 l 0,-1 c 0,6.3883 -5.1117,11.5 -11.5,11.5 l -35,0 c -6.3883,0 -11.5,-5.1117 -11.5,-11.5 l 0,1 c 0,6.3883 5.1117,11.5 11.5,11.5 l 35,0 z"
         style="opacity:0.41;color:#bebebe;fill:#000000;fill-opacity:1;fill-rule:nonzero;stroke:none;stroke-width:0;marker:none;visibility:visible;display:inline;overflow:visible;enable-background:accumulate"
         inkscape:connector-curvature="0" />
      <path
         inkscape:connector-curvature="0"
         id="path4280"
         d="M 84,265 C 56.836703,265 35,243.1633 35,216 l 0,-1 c 0,27.1633 21.836703,49 49,49 l 120,0 c 27.1633,0 49,-21.8367 49,-49 l 0,1 c 0,27.1633 -21.8367,49 -49,49 l -120,0 z"
         style="opacity:0.1;color:#bebebe;fill:#ffffff;fill-opacity:1;fill-rule:nonzero;stroke:none;stroke-width:0;marker:none;visibility:visible;display:inline;overflow:visible;enable-background:accumulate" />
      <path
         style="opacity:0.1;color:#bebebe;fill:#ffffff;fill-opacity:1;fill-rule:nonzero;stroke:none;stroke-width:0;marker:none;visibility:visible;display:inline;overflow:visible;enable-background:accumulate"
         d="m 300,264 c -4.4493,0 -8,-3.5507 -8,-8 l 0,-1 c 0,4.4493 3.5507,8 8,8 l 24,0 c 4.4493,0 8,-3.5507 8,-8 l 0,1 c 0,4.4493 -3.5507,8 -8,8 l -24,0 z"
         id="path4294"
         inkscape:connector-curvature="0" />
      <path
         style="opacity:0.1;color:#bebebe;fill:#ffffff;fill-opacity:1;fill-rule:nonzero;stroke:none;stroke-width:0;marker:none;visibility:visible;display:inline;overflow:visible;enable-background:accumulate"
         d="m 302.5,201 c -6.3883,0 -11.5,-5.1117 -11.5,-11.5 l 0,-1 c 0,6.3883 5.1117,11.5 11.5,11.5 l 35,0 c 6.3883,0 11.5,-5.1117 11.5,-11.5 l 0,1 c 0,6.3883 -5.1117,11.5 -11.5,11.5 l -35,0 z"
         id="path4296"
         inkscape:connector-curvature="0" />
      <path
         style="opacity:0.1;color:#bebebe;fill:#ffffff;fill-opacity:1;fill-rule:nonzero;stroke:none;stroke-width:0;marker:none;visibility:visible;display:inline;overflow:visible;enable-background:accumulate"
         d="m 310,119 c -9.4353,0 -17,-7.5647 -17,-17 l 0,-1 c 0,9.4353 7.5647,17 17,17 l 52,0 c 9.4353,0 17,-7.5647 17,-17 l 0,1 c 0,9.4353 -7.5647,17 -17,17 l -52,0 z"
         id="path4298"
         inkscape:connector-curvature="0" />
      <path
         style="opacity:0.1;color:#bebebe;fill:#ffffff;fill-opacity:1;fill-rule:nonzero;stroke:none;stroke-width:0;marker:none;visibility:visible;display:inline;overflow:visible;enable-background:accumulate"
         d="m 424,82 c -3.3413,0 -6,-2.658703 -6,-6 l 0,-1 c 0,3.341297 2.6587,6 6,6 l 16,0 c 3.3413,0 6,-2.658703 6,-6 l 0,1 c 0,3.341297 -2.6587,6 -6,6 l -16,0 z"
         id="path4300"
         inkscape:connector-curvature="0" />
      <path
         style="opacity:0.1;color:#bebebe;fill:#ffffff;fill-opacity:1;fill-rule:nonzero;stroke:none;stroke-width:0;marker:none;visibility:visible;display:inline;overflow:visible;enable-background:accumulate"
         d="m 422,122 c -2.2333,0 -4,-1.7667 -4,-4 l 0,-1 c 0,2.2333 1.7667,4 4,4 l 12,0 c 2.2333,0 4,-1.7667 4,-4 l 0,1 c 0,2.2333 -1.7667,4 -4,4 l -12,0 z"
         id="path4302"
         inkscape:connector-curvature="0" />
      <path
         style="opacity:0.1;color:#bebebe;fill:#ffffff;fill-opacity:1;fill-rule:nonzero;stroke:none;stroke-width:0;marker:none;visibility:visible;display:inline;overflow:visible;enable-background:accumulate"
         d="m 419,154.5 c -1.1253,0 -2,-0.8747 -2,-2 l 0,-1 c 0,1.1253 0.8747,2 2,2 l 10,0 c 1.1253,0 2,-0.8747 2,-2 l 0,1 c 0,1.1253 -0.8747,2 -2,2 l -10,0 z"
         id="path4304"
         inkscape:connector-curvature="0" />
    </g>
    <g
       inkscape:groupmode="layer"
       id="layer3"
       inkscape:label="Border"
       style="display:inline"
       sodipodi:insensitive="true">
      <path
         style="opacity:0.41;color:#bebebe;fill:#000000;fill-opacity:1;fill-rule:nonzero;stroke:none;stroke-width:0;marker:none;visibility:visible;display:inline;overflow:visible;enable-background:accumulate"
         d="m 422,101 c -2.77,0 -5,2.23 -5,5 l 0,12 c 0,2.77 2.23,5 5,5 l 12,0 c 2.77,0 5,-2.23 5,-5 l 0,-12 c 0,-2.77 -2.23,-5 -5,-5 l -12,0 z m 0,1 12,0 c 2.2333,0 4,1.7667 4,4 l 0,12 c 0,2.2333 -1.7667,4 -4,4 l -12,0 c -2.2333,0 -4,-1.7667 -4,-4 l 0,-12 c 0,-2.2333 1.7667,-4 4,-4 z"
         id="rect4099"
         inkscape:connector-curvature="0" />
      <path
         style="opacity:0.41;color:#bebebe;fill:#000000;fill-opacity:1;fill-rule:nonzero;stroke:none;stroke-width:0;marker:none;visibility:visible;display:inline;overflow:visible;enable-background:accumulate"
         d="m 424,53 c -3.878,0 -7,3.122 -7,7 l 0,16 c 0,3.878 3.122,7 7,7 l 16,0 c 3.878,0 7,-3.122 7,-7 l 0,-16 c 0,-3.878 -3.122,-7 -7,-7 l -16,0 z m 0,1 16,0 c 3.3413,0 6,2.658703 6,6 l 0,16 c 0,3.341297 -2.6587,6 -6,6 l -16,0 c -3.3413,0 -6,-2.658703 -6,-6 l 0,-16 c 0,-3.341297 2.6587,-6 6,-6 z"
         id="rect4151"
         inkscape:connector-curvature="0" />
      <path
         style="opacity:0.41;color:#bebebe;fill:#000000;fill-opacity:1;fill-rule:nonzero;stroke:none;stroke-width:0;marker:none;visibility:visible;display:inline;overflow:visible;enable-background:accumulate"
         d="m 419,140 c -1.662,0 -3,1.338 -3,3 l 0,10 c 0,1.662 1.338,3 3,3 l 10,0 c 1.662,0 3,-1.338 3,-3 l 0,-10 c 0,-1.662 -1.338,-3 -3,-3 l -10,0 z m 0,1 10,0 c 1.1253,0 2,0.8747 2,2 l 0,10 c 0,1.1253 -0.8747,2 -2,2 l -10,0 c -1.1253,0 -2,-0.8747 -2,-2 l 0,-10 c 0,-1.1253 0.8747,-2 2,-2 z"
         id="rect4095"
         inkscape:connector-curvature="0" />
      <path
         style="opacity:0.41;color:#bebebe;fill:#000000;fill-opacity:1;fill-rule:nonzero;stroke:none;stroke-width:0;marker:none;visibility:visible;display:inline;overflow:visible;enable-background:accumulate"
         d="m 300,223 c -4.986,0 -9,4.014 -9,9 l 0,24 c 0,4.986 4.014,9 9,9 l 24,0 c 4.986,0 9,-4.014 9,-9 l 0,-24 c 0,-4.986 -4.014,-9 -9,-9 l -24,0 z m 0,1 24,0 c 4.4493,0 8,3.5507 8,8 l 0,24 c 0,4.4493 -3.5507,8 -8,8 l -24,0 c -4.4493,0 -8,-3.5507 -8,-8 l 0,-24 c 0,-4.4493 3.5507,-8 8,-8 z"
         id="rect4783"
         inkscape:connector-curvature="0" />
      <path
         style="opacity:0.41;color:#bebebe;fill:#000000;fill-opacity:1;fill-rule:nonzero;stroke:none;stroke-width:0;marker:none;visibility:visible;display:inline;overflow:visible;enable-background:accumulate"
         d="m 302.5,142 c -6.925,0 -12.5,5.575 -12.5,12.5 l 0,35 c 0,6.925 5.575,12.5 12.5,12.5 l 35,0 c 6.925,0 12.5,-5.575 12.5,-12.5 l 0,-35 c 0,-6.925 -5.575,-12.5 -12.5,-12.5 l -35,0 z m 0,1 35,0 c 6.3883,0 11.5,5.1117 11.5,11.5 l 0,35 c 0,6.3883 -5.1117,11.5 -11.5,11.5 l -35,0 c -6.3883,0 -11.5,-5.1117 -11.5,-11.5 l 0,-35 c 0,-6.3883 5.1117,-11.5 11.5,-11.5 z"
         id="rect4515"
         inkscape:connector-curvature="0" />
      <path
         style="opacity:0.41;color:#bebebe;fill:#000000;fill-opacity:1;fill-rule:nonzero;stroke:none;stroke-width:0;marker:none;visibility:visible;display:inline;overflow:visible;enable-background:accumulate"
         d="m 310,32 c -9.972,0 -18,8.028 -18,18 l 0,52 c 0,9.972 8.028,18 18,18 l 52,0 c 9.972,0 18,-8.028 18,-18 l 0,-52 c 0,-9.972 -8.028,-18 -18,-18 l -52,0 z m 0,1 52,0 c 9.4353,0 17,7.564703 17,17 l 0,52 c 0,9.4353 -7.5647,17 -17,17 l -52,0 c -9.4353,0 -17,-7.5647 -17,-17 l 0,-52 c 0,-9.435297 7.5647,-17 17,-17 z"
         id="rect4511"
         inkscape:connector-curvature="0" />
      <path
         style="opacity:0.41;color:#bebebe;fill:#000000;fill-opacity:1;fill-rule:nonzero;stroke:none;stroke-width:0;marker:none;visibility:visible;display:inline;overflow:visible;enable-background:accumulate"
         d="M 84,46 C 56.3,46 34,68.3 34,96 l 0,120 c 0,27.7 22.3,50 50,50 l 120,0 c 27.7,0 50,-22.3 50,-50 L 254,96 C 254,68.3 231.7,46 204,46 L 84,46 z m 0,1 120,0 c 27.1633,0 49,21.836703 49,49 l 0,120 c 0,27.1633 -21.8367,49 -49,49 L 84,265 C 56.836703,265 35,243.1633 35,216 L 35,96 C 35,68.836703 56.836703,47 84,47 z"
         id="rect4040"
         inkscape:connector-curvature="0" />
    </g>
  </g>
  <style
     type="text/css"
     id="style134">
	.st0{fill:#EF443B;}
</style>
  <style
     type="text/css"
     id="style1213">
	.st0{fill:#323232;}
</style>
</svg>
