<?xml version="1.0" encoding="UTF-8" standalone="no"?>
<!-- Created with Inkscape (http://www.inkscape.org/) -->

<svg
   inkscape:export-ydpi="90.000000"
   inkscape:export-xdpi="90.000000"
   width="480"
   height="300"
   id="svg11300"
   sodipodi:version="0.32"
   inkscape:version="1.1.2 (0a00cf5339, 2022-02-04)"
   sodipodi:docname="element.svg"
   inkscape:output_extension="org.inkscape.output.svg.inkscape"
   version="1.0"
   style="display:inline;enable-background:new"
   inkscape:export-filename="/home/sam/moka-next-template.png"
   xmlns:inkscape="http://www.inkscape.org/namespaces/inkscape"
   xmlns:sodipodi="http://sodipodi.sourceforge.net/DTD/sodipodi-0.dtd"
   xmlns="http://www.w3.org/2000/svg"
   xmlns:svg="http://www.w3.org/2000/svg"
   xmlns:rdf="http://www.w3.org/1999/02/22-rdf-syntax-ns#"
   xmlns:cc="http://creativecommons.org/ns#"
   xmlns:dc="http://purl.org/dc/elements/1.1/">
  <sodipodi:namedview
     stroke="#ef2929"
     fill="#f57900"
     id="base"
     pagecolor="#ffffff"
     bordercolor="#000000"
     borderopacity="0.54509804"
     inkscape:pageopacity="0"
     inkscape:pageshadow="2"
     inkscape:zoom="1.4142136"
     inkscape:cx="416.13234"
     inkscape:cy="170.05918"
     inkscape:current-layer="layer2"
     showgrid="false"
     inkscape:grid-bbox="true"
     inkscape:document-units="px"
     inkscape:showpageshadow="false"
     inkscape:window-width="1920"
     inkscape:window-height="1008"
     inkscape:window-x="0"
     inkscape:window-y="40"
     width="400px"
     height="300px"
     inkscape:snap-nodes="true"
     inkscape:snap-bbox="true"
     gridtolerance="10000"
     inkscape:object-nodes="true"
     inkscape:snap-grids="true"
     showguides="true"
     inkscape:guide-bbox="true"
     inkscape:window-maximized="1"
     inkscape:bbox-nodes="true"
     inkscape:bbox-paths="true"
     inkscape:snap-bbox-edge-midpoints="true"
     inkscape:snap-bbox-midpoints="true"
     inkscape:pagecheckerboard="0">
    <inkscape:grid
       spacingy="1"
       spacingx="1"
       id="grid5883"
       type="xygrid"
       enabled="true"
       visible="true"
       empspacing="4"
       snapvisiblegridlinesonly="true"
       dotted="false"
       color="#000000"
       opacity="0.1254902"
       empcolor="#203ef3"
       empopacity="0.36470588"
       originx="0"
       originy="0" />
    <inkscape:grid
       type="xygrid"
       id="grid11592"
       empspacing="8"
       visible="true"
       enabled="false"
       spacingx="0.5"
       spacingy="0.5"
       color="#ff0000"
       opacity="0.1254902"
       empcolor="#ff0000"
       empopacity="0.25098039"
       snapvisiblegridlinesonly="true"
       dotted="true"
       originx="0"
       originy="0" />
  </sodipodi:namedview>
  <defs
     id="defs3"><linearGradient
   id="linearGradient905">
  <stop
     style="stop-color:#ff7139;stop-opacity:1"
     offset="0"
     id="stop901" />
  <stop
     style="stop-color:#ff7139;stop-opacity:1"
     offset="1"
     id="stop903" />
</linearGradient>
<linearGradient
   id="linearGradient3984">
  <stop
     id="stop3986"
     offset="0"
     style="stop-color:#f57d33;stop-opacity:1" />
  <stop
     id="stop3988"
     offset="1"
     style="stop-color:#faa653;stop-opacity:1;" />
</linearGradient>

	
	
	
</defs>
  <metadata
     id="metadata4">
    <rdf:RDF>
      <cc:Work
         rdf:about="">
        <dc:format>image/svg+xml</dc:format>
        <dc:type
           rdf:resource="http://purl.org/dc/dcmitype/StillImage" />
        <dc:creator>
          <cc:Agent>
            <dc:title>Sam Hewitt</dc:title>
          </cc:Agent>
        </dc:creator>
        <dc:source />
        <cc:license
           rdf:resource="" />
        <dc:title />
        <dc:subject>
          <rdf:Bag />
        </dc:subject>
        <dc:date />
        <dc:rights>
          <cc:Agent>
            <dc:title />
          </cc:Agent>
        </dc:rights>
        <dc:publisher>
          <cc:Agent>
            <dc:title />
          </cc:Agent>
        </dc:publisher>
        <dc:identifier />
        <dc:relation />
        <dc:language />
        <dc:coverage />
        <dc:description />
        <dc:contributor>
          <cc:Agent>
            <dc:title />
          </cc:Agent>
        </dc:contributor>
      </cc:Work>
      <cc:Work
         rdf:about="">
        <dc:format>image/svg+xml</dc:format>
        <dc:type
           rdf:resource="http://purl.org/dc/dcmitype/StillImage" />
      </cc:Work>
    </rdf:RDF>
  </metadata>
  <g
     style="display:inline"
     inkscape:groupmode="layer"
     inkscape:label="Icon"
     id="layer1">
    <g
       style="display:none"
       inkscape:label="Baseplate"
       id="layer7"
       inkscape:groupmode="layer">
      <text
         y="19.745117"
         xml:space="preserve"
         x="15.006836"
         style="font-style:normal;font-variant:normal;font-weight:normal;font-stretch:normal;line-height:0%;font-family:'DejaVu Sans';-inkscape-font-specification:'DejaVu Sans';display:inline;fill:#000000;fill-opacity:1;stroke:none;enable-background:new"
         inkscape:label="context"
         id="context"><tspan
           style="font-style:normal;font-variant:normal;font-weight:normal;font-stretch:normal;font-size:18px;line-height:1.25;font-family:'DejaVu Sans';-inkscape-font-specification:'DejaVu Sans'"
           y="19.745117"
           x="15.006836"
           sodipodi:role="line"
           id="tspan3933">apps</tspan></text>
      <text
         y="19.745117"
         xml:space="preserve"
         x="122.48828"
         style="font-style:normal;font-variant:normal;font-weight:bold;font-stretch:normal;line-height:0%;font-family:'DejaVu Sans';-inkscape-font-specification:'DejaVu Sans Bold';text-align:start;writing-mode:lr-tb;text-anchor:start;display:inline;fill:#000000;fill-opacity:1;stroke:none;enable-background:new"
         inkscape:label="icon-name"
         id="icon-name"><tspan
           style="font-style:normal;font-variant:normal;font-weight:bold;font-stretch:normal;font-size:18px;line-height:1.25;font-family:'DejaVu Sans';-inkscape-font-specification:'DejaVu Sans Bold'"
           y="19.745117"
           x="122.48828"
           sodipodi:role="line"
           id="tspan3937">sheet</tspan></text>
      <rect
         style="fill:#eeeeec;fill-opacity:1;fill-rule:nonzero;stroke:none;stroke-width:2;marker:none;visibility:visible;display:inline;overflow:visible;enable-background:accumulate"
         id="rect16x16"
         width="16"
         height="16"
         x="416"
         y="140"
         inkscape:label="16x16" />
      <rect
         style="fill:#d4d4d4;fill-opacity:1;fill-rule:nonzero;stroke:none;stroke-width:2;marker:none;visibility:visible;display:inline;overflow:visible;enable-background:accumulate"
         id="rect24x24"
         width="24"
         height="24"
         x="416"
         y="100"
         inkscape:label="24x24" />
      <rect
         style="fill:#eeeeec;fill-opacity:1;fill-rule:nonzero;stroke:none;stroke-width:2;marker:none;visibility:visible;display:inline;overflow:visible;enable-background:accumulate"
         id="rect32x32"
         width="32"
         height="32"
         x="416"
         y="52"
         inkscape:label="32x32" />
      <rect
         inkscape:label="22x22"
         y="101"
         x="417"
         height="22"
         width="22"
         id="rect22x22"
         style="fill:#eeeeec;fill-opacity:1;fill-rule:nonzero;stroke:none;stroke-width:2;marker:none;visibility:visible;display:inline;overflow:visible;enable-background:accumulate" />
      <rect
         inkscape:label="48x48"
         y="220"
         x="288"
         height="48"
         width="48"
         id="rect48x48"
         style="fill:#eeeeec;fill-opacity:1;fill-rule:nonzero;stroke:none;stroke-width:2;marker:none;visibility:visible;display:inline;overflow:visible;enable-background:accumulate" />
      <rect
         style="fill:#eeeeec;fill-opacity:1;fill-rule:nonzero;stroke:none;stroke-width:2;marker:none;visibility:visible;display:inline;overflow:visible;enable-background:accumulate"
         id="rect256x256"
         width="256"
         height="256"
         x="16"
         y="28"
         inkscape:label="256x256" />
      <rect
         style="fill:#eeeeec;fill-opacity:1;fill-rule:nonzero;stroke:none;stroke-width:2;marker:none;visibility:visible;display:inline;overflow:visible;enable-background:accumulate"
         id="rect64x64"
         width="64"
         height="64"
         x="288"
         y="140"
         inkscape:label="64x64" />
      <rect
         style="fill:#eeeeec;fill-opacity:1;fill-rule:nonzero;stroke:none;stroke-width:2;marker:none;visibility:visible;display:inline;overflow:visible;enable-background:accumulate"
         id="rect96x96"
         width="96"
         height="96"
         x="288"
         y="28"
         inkscape:label="96x96" />
    </g>
    <g
       inkscape:groupmode="layer"
       id="layer4"
       inkscape:label="Shadow"
       style="display:inline"
       sodipodi:insensitive="true">
      <rect
         ry="50"
         y="47"
         x="34"
         height="220"
         width="220"
         id="rect4114"
         style="opacity:0.1;color:#bebebe;fill:#000000;fill-opacity:1;fill-rule:nonzero;stroke:none;stroke-width:0;marker:none;visibility:visible;display:inline;overflow:visible;enable-background:accumulate" />
      <rect
         style="opacity:0.1;color:#bebebe;fill:#000000;fill-opacity:1;fill-rule:nonzero;stroke:none;stroke-width:0;marker:none;visibility:visible;display:inline;overflow:visible;enable-background:accumulate"
         id="rect4120"
         width="30"
         height="30"
         x="417"
         y="54"
         ry="7" />
      <rect
         transform="scale(1,-1)"
         ry="9"
         y="-266"
         x="291"
         height="42"
         width="42"
         id="rect4122"
         style="opacity:0.1;color:#bebebe;fill:#000000;fill-opacity:1;fill-rule:nonzero;stroke:none;stroke-width:0;marker:none;visibility:visible;display:inline;overflow:visible;enable-background:accumulate" />
      <rect
         style="opacity:0.1;color:#bebebe;fill:#000000;fill-opacity:1;fill-rule:nonzero;stroke:none;stroke-width:0;marker:none;visibility:visible;display:inline;overflow:visible;enable-background:accumulate"
         id="rect4124"
         width="88"
         height="88"
         x="292"
         y="33"
         ry="18" />
      <rect
         ry="12.5"
         y="143"
         x="290"
         height="60"
         width="60"
         id="rect4126"
         style="opacity:0.1;color:#bebebe;fill:#000000;fill-opacity:1;fill-rule:nonzero;stroke:none;stroke-width:0;marker:none;visibility:visible;display:inline;overflow:visible;enable-background:accumulate" />
      <path
         id="path4268"
         d="m 422,101 c -2.77,0 -5,2.23 -5,5 l 0,12 c 0,2.77 2.23,5 5,5 l 12,0 c 2.77,0 5,-2.23 5,-5 l 0,-12 c 0,-2.77 -2.23,-5 -5,-5 z"
         style="opacity:0.1;color:#bebebe;fill:#000000;fill-opacity:1;fill-rule:nonzero;stroke:none;stroke-width:0;marker:none;visibility:visible;display:inline;overflow:visible;enable-background:accumulate"
         inkscape:connector-curvature="0"
         sodipodi:nodetypes="sssssssss" />
      <path
         id="path4270"
         d="m 419,140 c -1.662,0 -3,1.338 -3,3 l 0,10 c 0,1.662 1.338,3 3,3 l 10,0 c 1.662,0 3,-1.338 3,-3 l 0,-10 c 0,-1.662 -1.338,-3 -3,-3 z"
         style="opacity:0.1;color:#bebebe;fill:#000000;fill-opacity:1;fill-rule:nonzero;stroke:none;stroke-width:0;marker:none;visibility:visible;display:inline;overflow:visible;enable-background:accumulate"
         inkscape:connector-curvature="0"
         sodipodi:nodetypes="sssssssss" />
    </g>
    <g
       inkscape:groupmode="layer"
       id="layer2"
       inkscape:label="Background"
       style="display:inline">
      <g
         id="g4247">
        <g
           id="g2656">
          <path
             style="color:#bebebe;display:inline;overflow:visible;visibility:visible;fill:#192e45;fill-opacity:1;fill-rule:nonzero;stroke:none;stroke-width:2;marker:none;enable-background:accumulate"
             d="M 84,46.5 C 56.568735,46.5 34.5,68.568732 34.5,96 v 120 c 0,27.43127 22.068735,49.5 49.5,49.5 h 120 c 27.43127,0 49.5,-22.06873 49.5,-49.5 V 96 C 253.5,68.568732 231.43127,46.5 204,46.5 Z"
             id="path4200" />
          <g
             id="body"
             transform="matrix(0.75,0,0,0.75,49.5,61.5)">
		<path
   id="fur"
   class="fur"
   d="M 23.9,96.6 16.8,111 26.4,97.6 c 0,0.1 -0.6,19.3 -0.6,19.3 l 2.7,-14.5 c 7.2,13.7 23.1,34.8 45.4,50.5 1.7,1.2 3.9,3.3 4.6,4.1 0,0 21.3,10.8 54.1,-14.2 0.3,-0.2 0.7,-0.4 1,-0.6 l 0.5,0.3 7.2,4.8 c -2.5,-0.7 -7.3,-1.9 -7.3,-1.9 -15.8,18.2 -41.5,21.2 -55.3,12 -0.6,-0.4 -4,1 -4.6,3 -0.4,1.1 0,2.3 0.5,3.2 2.8,5.2 7,4.7 5,10.8 -1.4,3.3 -3.4,6.5 -5.6,9.5 -4.6,6.2 -11.8,11.7 -11.1,15 32.6,40.2 106.1,34.6 134.1,-1.3 -0.4,-5.2 -8.6,-7.7 -14.3,-20.4 1.6,0.5 4,1.2 4,1.1 0,-0.1 -6.8,-11.1 -7.1,-12.2 l 4.4,0.3 c 0,0 -5.8,-7.2 -6,-7.9 l 5.9,-0.8 c 0,0 -7.4,-8.5 -7.5,-9.2 l 7.5,1.2 -8.2,-9.9 h 3.9 l -4.6,-6.7 -37.3,-14.7 c -14.3,-8.9 -27,-19.8 -36.6,-28.2 L 81.8,80.8 C 63.3,79.4 46,79.9 35.4,82 L 42.2,70.4 32.3,82.2 C 31.7,82 31,81.8 31,81.8 l 0.7,-15 -3.3,14 z" />

		<path
   id="nose"
   class="nose"
   d="m 28.4,80.8 c -4.9,-2.3 -10.6,1 -11.6,5.5 -1.2,4.3 1.8,9.6 7.1,10.3 5,-3.1 9.3,-11.1 4.5,-15.8 z" />

	</g>
          <g
             id="g1039"
             transform="matrix(0.75,0,0,0.75,49.5,61.5)">
		<path
   id="helmet"
   class="helmet"
   d="m 101.2,69.9 c -1.5,-4.1 -1.1,-9.4 1,-14.4 3,-6.9 8.7,-11.5 14.1,-11.5 1.1,0 2.1,0.2 3.1,0.6 3.1,-2.8 6.7,-5.1 10.7,-6.7 22,-8.8 54.3,6.9 62.6,28.5 4,10.5 2.8,21.9 -0.6,32.4 -2.8,8.6 -13,21 -9.2,30.3 -1.5,-0.4 -32.8,-11 -41.8,-15.8 C 127,104.5 114.4,93.7 104.9,85.4 l -0.3,-0.3 -32,-15.2 c -0.4,-0.2 -0.8,-0.4 -1.1,-0.6 4.4,0.2 21.9,2.3 29.7,0.6" />

		<g
   id="lamp">

				<ellipse
   id="lamp-light"
   transform="matrix(0.4007,-0.9162,0.9162,0.4007,12.8553,140.4693)"
   class="lamp-light"
   cx="113.8"
   cy="60.400002"
   rx="13.6"
   ry="8.1000004" />

			<path
   id="lamp-ring"
   class="lamp-ring"
   d="m 120.1,46.1 c -5.3,-2.3 -12.4,2.2 -15.9,10.1 -3.5,7.9 -1.9,16.1 3.4,18.5 5.3,2.3 12.4,-2.2 15.9,-10.1 3.5,-7.9 1.9,-16.1 -3.4,-18.5 z m 0.5,17.3 c -2.8,6.3 -8.1,10.1 -11.8,8.5 -3.8,-1.7 -4.6,-8.1 -1.8,-14.5 2.8,-6.3 8.1,-10.1 11.9,-8.5 3.7,1.7 4.5,8.2 1.7,14.5 z" />

		</g>

	</g>
        </g>
        <g
           id="g2887">
          <path
             style="color:#bebebe;display:inline;overflow:visible;visibility:visible;fill:#192e45;fill-opacity:1;fill-rule:nonzero;stroke:none;stroke-width:2;marker:none;enable-background:accumulate"
             d="m 310,32.5 c -9.70255,0 -17.5,7.797452 -17.5,17.5 v 52 c 0,9.70255 7.79745,17.5 17.5,17.5 h 52 c 9.70255,0 17.5,-7.79745 17.5,-17.5 V 50 c 0,-9.702548 -7.79745,-17.5 -17.5,-17.5 z"
             id="path4210" />
          <g
             id="g2483"
             transform="matrix(0.2979452,0,0,0.2979452,298.4589,38.458904)">
		<path
   id="path2479"
   class="fur"
   d="M 23.9,96.6 16.8,111 26.4,97.6 c 0,0.1 -0.6,19.3 -0.6,19.3 l 2.7,-14.5 c 7.2,13.7 23.1,34.8 45.4,50.5 1.7,1.2 3.9,3.3 4.6,4.1 0,0 21.3,10.8 54.1,-14.2 0.3,-0.2 0.7,-0.4 1,-0.6 l 0.5,0.3 7.2,4.8 c -2.5,-0.7 -7.3,-1.9 -7.3,-1.9 -15.8,18.2 -41.5,21.2 -55.3,12 -0.6,-0.4 -4,1 -4.6,3 -0.4,1.1 0,2.3 0.5,3.2 2.8,5.2 7,4.7 5,10.8 -1.4,3.3 -3.4,6.5 -5.6,9.5 -4.6,6.2 -11.8,11.7 -11.1,15 32.6,40.2 106.1,34.6 134.1,-1.3 -0.4,-5.2 -8.6,-7.7 -14.3,-20.4 1.6,0.5 4,1.2 4,1.1 0,-0.1 -6.8,-11.1 -7.1,-12.2 l 4.4,0.3 c 0,0 -5.8,-7.2 -6,-7.9 l 5.9,-0.8 c 0,0 -7.4,-8.5 -7.5,-9.2 l 7.5,1.2 -8.2,-9.9 h 3.9 l -4.6,-6.7 -37.3,-14.7 c -14.3,-8.9 -27,-19.8 -36.6,-28.2 L 81.8,80.8 C 63.3,79.4 46,79.9 35.4,82 L 42.2,70.4 32.3,82.2 C 31.7,82 31,81.8 31,81.8 l 0.7,-15 -3.3,14 z" />

		<path
   id="path2481"
   class="nose"
   d="m 28.4,80.8 c -4.9,-2.3 -10.6,1 -11.6,5.5 -1.2,4.3 1.8,9.6 7.1,10.3 5,-3.1 9.3,-11.1 4.5,-15.8 z" />

	</g>
          <g
             id="g2493"
             transform="matrix(0.2979452,0,0,0.2979452,298.4589,38.458904)">
		<path
   id="path2485"
   class="helmet"
   d="m 101.2,69.9 c -1.5,-4.1 -1.1,-9.4 1,-14.4 3,-6.9 8.7,-11.5 14.1,-11.5 1.1,0 2.1,0.2 3.1,0.6 3.1,-2.8 6.7,-5.1 10.7,-6.7 22,-8.8 54.3,6.9 62.6,28.5 4,10.5 2.8,21.9 -0.6,32.4 -2.8,8.6 -13,21 -9.2,30.3 -1.5,-0.4 -32.8,-11 -41.8,-15.8 C 127,104.5 114.4,93.7 104.9,85.4 l -0.3,-0.3 -32,-15.2 c -0.4,-0.2 -0.8,-0.4 -1.1,-0.6 4.4,0.2 21.9,2.3 29.7,0.6" />

		<g
   id="g2491">

				<ellipse
   id="ellipse2487"
   transform="matrix(0.4007,-0.9162,0.9162,0.4007,12.8553,140.4693)"
   class="lamp-light"
   cx="113.8"
   cy="60.400002"
   rx="13.6"
   ry="8.1000004" />

			<path
   id="path2489"
   class="lamp-ring"
   d="m 120.1,46.1 c -5.3,-2.3 -12.4,2.2 -15.9,10.1 -3.5,7.9 -1.9,16.1 3.4,18.5 5.3,2.3 12.4,-2.2 15.9,-10.1 3.5,-7.9 1.9,-16.1 -3.4,-18.5 z m 0.5,17.3 c -2.8,6.3 -8.1,10.1 -11.8,8.5 -3.8,-1.7 -4.6,-8.1 -1.8,-14.5 2.8,-6.3 8.1,-10.1 11.9,-8.5 3.7,1.7 4.5,8.2 1.7,14.5 z" />

		</g>

	</g>
        </g>
        <g
           id="g3571">
          <path
             style="color:#bebebe;display:inline;overflow:visible;visibility:visible;fill:#192e45;fill-opacity:1;fill-rule:nonzero;stroke:none;stroke-width:2;marker:none;enable-background:accumulate"
             d="m 300,223.5 c -4.71531,0 -8.5,3.78469 -8.5,8.5 v 24 c 0,4.71531 3.78469,8.5 8.5,8.5 h 24 c 4.71531,0 8.5,-3.78469 8.5,-8.5 v -24 c 0,-4.71531 -3.78469,-8.5 -8.5,-8.5 z"
             id="path4208" />
          <g
             id="g2507"
             transform="matrix(0.14041096,0,0,0.14041096,294.30822,226.30822)">
		<path
   id="path2503"
   class="fur"
   d="M 23.9,96.6 16.8,111 26.4,97.6 c 0,0.1 -0.6,19.3 -0.6,19.3 l 2.7,-14.5 c 7.2,13.7 23.1,34.8 45.4,50.5 1.7,1.2 3.9,3.3 4.6,4.1 0,0 21.3,10.8 54.1,-14.2 0.3,-0.2 0.7,-0.4 1,-0.6 l 0.5,0.3 7.2,4.8 c -2.5,-0.7 -7.3,-1.9 -7.3,-1.9 -15.8,18.2 -41.5,21.2 -55.3,12 -0.6,-0.4 -4,1 -4.6,3 -0.4,1.1 0,2.3 0.5,3.2 2.8,5.2 7,4.7 5,10.8 -1.4,3.3 -3.4,6.5 -5.6,9.5 -4.6,6.2 -11.8,11.7 -11.1,15 32.6,40.2 106.1,34.6 134.1,-1.3 -0.4,-5.2 -8.6,-7.7 -14.3,-20.4 1.6,0.5 4,1.2 4,1.1 0,-0.1 -6.8,-11.1 -7.1,-12.2 l 4.4,0.3 c 0,0 -5.8,-7.2 -6,-7.9 l 5.9,-0.8 c 0,0 -7.4,-8.5 -7.5,-9.2 l 7.5,1.2 -8.2,-9.9 h 3.9 l -4.6,-6.7 -37.3,-14.7 c -14.3,-8.9 -27,-19.8 -36.6,-28.2 L 81.8,80.8 C 63.3,79.4 46,79.9 35.4,82 L 42.2,70.4 32.3,82.2 C 31.7,82 31,81.8 31,81.8 l 0.7,-15 -3.3,14 z" />

		<path
   id="path2505"
   class="nose"
   d="m 28.4,80.8 c -4.9,-2.3 -10.6,1 -11.6,5.5 -1.2,4.3 1.8,9.6 7.1,10.3 5,-3.1 9.3,-11.1 4.5,-15.8 z" />

	</g>
          <g
             id="g2517"
             transform="matrix(0.14041096,0,0,0.14041096,294.30822,226.30822)">
		<path
   id="path2509"
   class="helmet"
   d="m 101.2,69.9 c -1.5,-4.1 -1.1,-9.4 1,-14.4 3,-6.9 8.7,-11.5 14.1,-11.5 1.1,0 2.1,0.2 3.1,0.6 3.1,-2.8 6.7,-5.1 10.7,-6.7 22,-8.8 54.3,6.9 62.6,28.5 4,10.5 2.8,21.9 -0.6,32.4 -2.8,8.6 -13,21 -9.2,30.3 -1.5,-0.4 -32.8,-11 -41.8,-15.8 C 127,104.5 114.4,93.7 104.9,85.4 l -0.3,-0.3 -32,-15.2 c -0.4,-0.2 -0.8,-0.4 -1.1,-0.6 4.4,0.2 21.9,2.3 29.7,0.6" />

		<g
   id="g2515">

				<ellipse
   id="ellipse2511"
   transform="matrix(0.4007,-0.9162,0.9162,0.4007,12.8553,140.4693)"
   class="lamp-light"
   cx="113.8"
   cy="60.400002"
   rx="13.6"
   ry="8.1000004" />

			<path
   id="path2513"
   class="lamp-ring"
   d="m 120.1,46.1 c -5.3,-2.3 -12.4,2.2 -15.9,10.1 -3.5,7.9 -1.9,16.1 3.4,18.5 5.3,2.3 12.4,-2.2 15.9,-10.1 3.5,-7.9 1.9,-16.1 -3.4,-18.5 z m 0.5,17.3 c -2.8,6.3 -8.1,10.1 -11.8,8.5 -3.8,-1.7 -4.6,-8.1 -1.8,-14.5 2.8,-6.3 8.1,-10.1 11.9,-8.5 3.7,1.7 4.5,8.2 1.7,14.5 z" />

		</g>

	</g>
        </g>
        <g
           id="g3015">
          <path
             style="color:#bebebe;display:inline;overflow:visible;visibility:visible;fill:#192e45;fill-opacity:1;fill-rule:nonzero;stroke:none;stroke-width:2;marker:none;enable-background:accumulate"
             d="m 302.5,142.5 c -6.65502,0 -12,5.34498 -12,12 v 35 c 0,6.65502 5.34498,12 12,12 h 35 c 6.65502,0 12,-5.34498 12,-12 v -35 c 0,-6.65502 -5.34498,-12 -12,-12 z"
             id="path4212" />
          <g
             id="g2543"
             transform="matrix(0.26940639,0,0,0.26940639,157.00913,120.81279)">
            <path
               id="path2525"
               class="background"
               d="m 510.5,190 c 0,52.2 42.375,94.5 94.5,94.5 52.125,0 94.5,-42.3 94.5,-94.5 0,-52.2 -42.3,-94.5 -94.5,-94.5 -52.2,0 -94.5,42.3 -94.5,94.5 z"
               style="stroke-width:0.75" />
            <g
               id="g2531"
               transform="matrix(0.75,0,0,0.75,510.5,95.5)">
		<path
   id="path2527"
   class="fur"
   d="M 23.9,96.6 16.8,111 26.4,97.6 c 0,0.1 -0.6,19.3 -0.6,19.3 l 2.7,-14.5 c 7.2,13.7 23.1,34.8 45.4,50.5 1.7,1.2 3.9,3.3 4.6,4.1 0,0 21.3,10.8 54.1,-14.2 0.3,-0.2 0.7,-0.4 1,-0.6 l 0.5,0.3 7.2,4.8 c -2.5,-0.7 -7.3,-1.9 -7.3,-1.9 -15.8,18.2 -41.5,21.2 -55.3,12 -0.6,-0.4 -4,1 -4.6,3 -0.4,1.1 0,2.3 0.5,3.2 2.8,5.2 7,4.7 5,10.8 -1.4,3.3 -3.4,6.5 -5.6,9.5 -4.6,6.2 -11.8,11.7 -11.1,15 32.6,40.2 106.1,34.6 134.1,-1.3 -0.4,-5.2 -8.6,-7.7 -14.3,-20.4 1.6,0.5 4,1.2 4,1.1 0,-0.1 -6.8,-11.1 -7.1,-12.2 l 4.4,0.3 c 0,0 -5.8,-7.2 -6,-7.9 l 5.9,-0.8 c 0,0 -7.4,-8.5 -7.5,-9.2 l 7.5,1.2 -8.2,-9.9 h 3.9 l -4.6,-6.7 -37.3,-14.7 c -14.3,-8.9 -27,-19.8 -36.6,-28.2 L 81.8,80.8 C 63.3,79.4 46,79.9 35.4,82 L 42.2,70.4 32.3,82.2 C 31.7,82 31,81.8 31,81.8 l 0.7,-15 -3.3,14 z" />

		<path
   id="path2529"
   class="nose"
   d="m 28.4,80.8 c -4.9,-2.3 -10.6,1 -11.6,5.5 -1.2,4.3 1.8,9.6 7.1,10.3 5,-3.1 9.3,-11.1 4.5,-15.8 z" />

	</g>
            <g
               id="g2541"
               transform="matrix(0.75,0,0,0.75,510.5,95.5)">
		<path
   id="path2533"
   class="helmet"
   d="m 101.2,69.9 c -1.5,-4.1 -1.1,-9.4 1,-14.4 3,-6.9 8.7,-11.5 14.1,-11.5 1.1,0 2.1,0.2 3.1,0.6 3.1,-2.8 6.7,-5.1 10.7,-6.7 22,-8.8 54.3,6.9 62.6,28.5 4,10.5 2.8,21.9 -0.6,32.4 -2.8,8.6 -13,21 -9.2,30.3 -1.5,-0.4 -32.8,-11 -41.8,-15.8 C 127,104.5 114.4,93.7 104.9,85.4 l -0.3,-0.3 -32,-15.2 c -0.4,-0.2 -0.8,-0.4 -1.1,-0.6 4.4,0.2 21.9,2.3 29.7,0.6" />

		<g
   id="g2539">

				<ellipse
   id="ellipse2535"
   transform="matrix(0.4007,-0.9162,0.9162,0.4007,12.8553,140.4693)"
   class="lamp-light"
   cx="113.8"
   cy="60.400002"
   rx="13.6"
   ry="8.1000004" />

			<path
   id="path2537"
   class="lamp-ring"
   d="m 120.1,46.1 c -5.3,-2.3 -12.4,2.2 -15.9,10.1 -3.5,7.9 -1.9,16.1 3.4,18.5 5.3,2.3 12.4,-2.2 15.9,-10.1 3.5,-7.9 1.9,-16.1 -3.4,-18.5 z m 0.5,17.3 c -2.8,6.3 -8.1,10.1 -11.8,8.5 -3.8,-1.7 -4.6,-8.1 -1.8,-14.5 2.8,-6.3 8.1,-10.1 11.9,-8.5 3.7,1.7 4.5,8.2 1.7,14.5 z" />

		</g>

	</g>
          </g>
        </g>
        <g
           id="g3206">
          <path
             style="color:#bebebe;display:inline;overflow:visible;visibility:visible;fill:#192e45;fill-opacity:1;fill-rule:nonzero;stroke:none;stroke-width:2;marker:none;enable-background:accumulate"
             d="m 424,53.5 c -3.60654,0 -6.5,2.893464 -6.5,6.5 v 16 c 0,3.606536 2.89346,6.5 6.5,6.5 h 16 c 3.60654,0 6.5,-2.893464 6.5,-6.5 V 60 c 0,-3.606536 -2.89346,-6.5 -6.5,-6.5 z"
             id="path4206" />
          <g
             id="g2977"
             transform="matrix(0.09931507,0,0,0.09931507,419.48631,55.486302)">
		<path
   id="path2973"
   class="fur"
   d="M 23.9,96.6 16.8,111 26.4,97.6 c 0,0.1 -0.6,19.3 -0.6,19.3 l 2.7,-14.5 c 7.2,13.7 23.1,34.8 45.4,50.5 1.7,1.2 3.9,3.3 4.6,4.1 0,0 21.3,10.8 54.1,-14.2 0.3,-0.2 0.7,-0.4 1,-0.6 l 0.5,0.3 7.2,4.8 c -2.5,-0.7 -7.3,-1.9 -7.3,-1.9 -15.8,18.2 -41.5,21.2 -55.3,12 -0.6,-0.4 -4,1 -4.6,3 -0.4,1.1 0,2.3 0.5,3.2 2.8,5.2 7,4.7 5,10.8 -1.4,3.3 -3.4,6.5 -5.6,9.5 -4.6,6.2 -11.8,11.7 -11.1,15 32.6,40.2 106.1,34.6 134.1,-1.3 -0.4,-5.2 -8.6,-7.7 -14.3,-20.4 1.6,0.5 4,1.2 4,1.1 0,-0.1 -6.8,-11.1 -7.1,-12.2 l 4.4,0.3 c 0,0 -5.8,-7.2 -6,-7.9 l 5.9,-0.8 c 0,0 -7.4,-8.5 -7.5,-9.2 l 7.5,1.2 -8.2,-9.9 h 3.9 l -4.6,-6.7 -37.3,-14.7 c -14.3,-8.9 -27,-19.8 -36.6,-28.2 L 81.8,80.8 C 63.3,79.4 46,79.9 35.4,82 L 42.2,70.4 32.3,82.2 C 31.7,82 31,81.8 31,81.8 l 0.7,-15 -3.3,14 z" />

		<path
   id="path2975"
   class="nose"
   d="m 28.4,80.8 c -4.9,-2.3 -10.6,1 -11.6,5.5 -1.2,4.3 1.8,9.6 7.1,10.3 5,-3.1 9.3,-11.1 4.5,-15.8 z" />

	</g>
          <g
             id="g2987"
             transform="matrix(0.09931507,0,0,0.09931507,419.48631,55.486302)">
		<path
   id="path2979"
   class="helmet"
   d="m 101.2,69.9 c -1.5,-4.1 -1.1,-9.4 1,-14.4 3,-6.9 8.7,-11.5 14.1,-11.5 1.1,0 2.1,0.2 3.1,0.6 3.1,-2.8 6.7,-5.1 10.7,-6.7 22,-8.8 54.3,6.9 62.6,28.5 4,10.5 2.8,21.9 -0.6,32.4 -2.8,8.6 -13,21 -9.2,30.3 -1.5,-0.4 -32.8,-11 -41.8,-15.8 C 127,104.5 114.4,93.7 104.9,85.4 l -0.3,-0.3 -32,-15.2 c -0.4,-0.2 -0.8,-0.4 -1.1,-0.6 4.4,0.2 21.9,2.3 29.7,0.6" />

		<g
   id="g2985">

				<ellipse
   id="ellipse2981"
   transform="matrix(0.4007,-0.9162,0.9162,0.4007,12.8553,140.4693)"
   class="lamp-light"
   cx="113.8"
   cy="60.400002"
   rx="13.6"
   ry="8.1000004" />

			<path
   id="path2983"
   class="lamp-ring"
   d="m 120.1,46.1 c -5.3,-2.3 -12.4,2.2 -15.9,10.1 -3.5,7.9 -1.9,16.1 3.4,18.5 5.3,2.3 12.4,-2.2 15.9,-10.1 3.5,-7.9 1.9,-16.1 -3.4,-18.5 z m 0.5,17.3 c -2.8,6.3 -8.1,10.1 -11.8,8.5 -3.8,-1.7 -4.6,-8.1 -1.8,-14.5 2.8,-6.3 8.1,-10.1 11.9,-8.5 3.7,1.7 4.5,8.2 1.7,14.5 z" />

		</g>

	</g>
        </g>
        <g
           id="g3953">
          <path
             style="color:#bebebe;display:inline;overflow:visible;visibility:visible;fill:#192e45;fill-opacity:1;fill-rule:nonzero;stroke:none;stroke-width:2;marker:none;enable-background:accumulate"
             d="m 419,140.5 c -1.3844,0 -2.5,1.1156 -2.5,2.5 v 10 c 0,1.3844 1.1156,2.5 2.5,2.5 h 10 c 1.3844,0 2.5,-1.1156 2.5,-2.5 v -10 c 0,-1.3844 -1.1156,-2.5 -2.5,-2.5 z"
             id="path4202" />
          <g
             id="g3422"
             transform="matrix(0.05136986,0,0,0.05136986,417.52739,141.5274)">
		<path
   id="path3418"
   class="fur"
   d="M 23.9,96.6 16.8,111 26.4,97.6 c 0,0.1 -0.6,19.3 -0.6,19.3 l 2.7,-14.5 c 7.2,13.7 23.1,34.8 45.4,50.5 1.7,1.2 3.9,3.3 4.6,4.1 0,0 21.3,10.8 54.1,-14.2 0.3,-0.2 0.7,-0.4 1,-0.6 l 0.5,0.3 7.2,4.8 c -2.5,-0.7 -7.3,-1.9 -7.3,-1.9 -15.8,18.2 -41.5,21.2 -55.3,12 -0.6,-0.4 -4,1 -4.6,3 -0.4,1.1 0,2.3 0.5,3.2 2.8,5.2 7,4.7 5,10.8 -1.4,3.3 -3.4,6.5 -5.6,9.5 -4.6,6.2 -11.8,11.7 -11.1,15 32.6,40.2 106.1,34.6 134.1,-1.3 -0.4,-5.2 -8.6,-7.7 -14.3,-20.4 1.6,0.5 4,1.2 4,1.1 0,-0.1 -6.8,-11.1 -7.1,-12.2 l 4.4,0.3 c 0,0 -5.8,-7.2 -6,-7.9 l 5.9,-0.8 c 0,0 -7.4,-8.5 -7.5,-9.2 l 7.5,1.2 -8.2,-9.9 h 3.9 l -4.6,-6.7 -37.3,-14.7 c -14.3,-8.9 -27,-19.8 -36.6,-28.2 L 81.8,80.8 C 63.3,79.4 46,79.9 35.4,82 L 42.2,70.4 32.3,82.2 C 31.7,82 31,81.8 31,81.8 l 0.7,-15 -3.3,14 z" />

		<path
   id="path3420"
   class="nose"
   d="m 28.4,80.8 c -4.9,-2.3 -10.6,1 -11.6,5.5 -1.2,4.3 1.8,9.6 7.1,10.3 5,-3.1 9.3,-11.1 4.5,-15.8 z" />

	</g>
          <g
             id="g3432"
             transform="matrix(0.05136986,0,0,0.05136986,417.52739,141.5274)">
		<path
   id="path3424"
   class="helmet"
   d="m 101.2,69.9 c -1.5,-4.1 -1.1,-9.4 1,-14.4 3,-6.9 8.7,-11.5 14.1,-11.5 1.1,0 2.1,0.2 3.1,0.6 3.1,-2.8 6.7,-5.1 10.7,-6.7 22,-8.8 54.3,6.9 62.6,28.5 4,10.5 2.8,21.9 -0.6,32.4 -2.8,8.6 -13,21 -9.2,30.3 -1.5,-0.4 -32.8,-11 -41.8,-15.8 C 127,104.5 114.4,93.7 104.9,85.4 l -0.3,-0.3 -32,-15.2 c -0.4,-0.2 -0.8,-0.4 -1.1,-0.6 4.4,0.2 21.9,2.3 29.7,0.6" />

		<g
   id="g3430">

				<ellipse
   id="ellipse3426"
   transform="matrix(0.4007,-0.9162,0.9162,0.4007,12.8553,140.4693)"
   class="lamp-light"
   cx="113.8"
   cy="60.400002"
   rx="13.6"
   ry="8.1000004" />

			<path
   id="path3428"
   class="lamp-ring"
   d="m 120.1,46.1 c -5.3,-2.3 -12.4,2.2 -15.9,10.1 -3.5,7.9 -1.9,16.1 3.4,18.5 5.3,2.3 12.4,-2.2 15.9,-10.1 3.5,-7.9 1.9,-16.1 -3.4,-18.5 z m 0.5,17.3 c -2.8,6.3 -8.1,10.1 -11.8,8.5 -3.8,-1.7 -4.6,-8.1 -1.8,-14.5 2.8,-6.3 8.1,-10.1 11.9,-8.5 3.7,1.7 4.5,8.2 1.7,14.5 z" />

		</g>

	</g>
        </g>
        <g
           id="g3842">
          <path
             style="color:#bebebe;display:inline;overflow:visible;visibility:visible;fill:#192e45;fill-opacity:1;fill-rule:nonzero;stroke:none;stroke-width:2;marker:none;enable-background:accumulate"
             d="m 422,101.5 c -2.49699,0 -4.5,2.00301 -4.5,4.5 v 12 c 0,2.49699 2.00301,4.5 4.5,4.5 h 12 c 2.49699,0 4.5,-2.00301 4.5,-4.5 v -12 c 0,-2.49699 -2.00301,-4.5 -4.5,-4.5 z"
             id="path4204" />
          <g
             id="g3446"
             transform="matrix(0.07191781,0,0,0.07191781,418.93835,102.93836)">
		<path
   id="path3442"
   class="fur"
   d="M 23.9,96.6 16.8,111 26.4,97.6 c 0,0.1 -0.6,19.3 -0.6,19.3 l 2.7,-14.5 c 7.2,13.7 23.1,34.8 45.4,50.5 1.7,1.2 3.9,3.3 4.6,4.1 0,0 21.3,10.8 54.1,-14.2 0.3,-0.2 0.7,-0.4 1,-0.6 l 0.5,0.3 7.2,4.8 c -2.5,-0.7 -7.3,-1.9 -7.3,-1.9 -15.8,18.2 -41.5,21.2 -55.3,12 -0.6,-0.4 -4,1 -4.6,3 -0.4,1.1 0,2.3 0.5,3.2 2.8,5.2 7,4.7 5,10.8 -1.4,3.3 -3.4,6.5 -5.6,9.5 -4.6,6.2 -11.8,11.7 -11.1,15 32.6,40.2 106.1,34.6 134.1,-1.3 -0.4,-5.2 -8.6,-7.7 -14.3,-20.4 1.6,0.5 4,1.2 4,1.1 0,-0.1 -6.8,-11.1 -7.1,-12.2 l 4.4,0.3 c 0,0 -5.8,-7.2 -6,-7.9 l 5.9,-0.8 c 0,0 -7.4,-8.5 -7.5,-9.2 l 7.5,1.2 -8.2,-9.9 h 3.9 l -4.6,-6.7 -37.3,-14.7 c -14.3,-8.9 -27,-19.8 -36.6,-28.2 L 81.8,80.8 C 63.3,79.4 46,79.9 35.4,82 L 42.2,70.4 32.3,82.2 C 31.7,82 31,81.8 31,81.8 l 0.7,-15 -3.3,14 z" />

		<path
   id="path3444"
   class="nose"
   d="m 28.4,80.8 c -4.9,-2.3 -10.6,1 -11.6,5.5 -1.2,4.3 1.8,9.6 7.1,10.3 5,-3.1 9.3,-11.1 4.5,-15.8 z" />

	</g>
          <g
             id="g3456"
             transform="matrix(0.07191781,0,0,0.07191781,418.93835,102.93836)">
		<path
   id="path3448"
   class="helmet"
   d="m 101.2,69.9 c -1.5,-4.1 -1.1,-9.4 1,-14.4 3,-6.9 8.7,-11.5 14.1,-11.5 1.1,0 2.1,0.2 3.1,0.6 3.1,-2.8 6.7,-5.1 10.7,-6.7 22,-8.8 54.3,6.9 62.6,28.5 4,10.5 2.8,21.9 -0.6,32.4 -2.8,8.6 -13,21 -9.2,30.3 -1.5,-0.4 -32.8,-11 -41.8,-15.8 C 127,104.5 114.4,93.7 104.9,85.4 l -0.3,-0.3 -32,-15.2 c -0.4,-0.2 -0.8,-0.4 -1.1,-0.6 4.4,0.2 21.9,2.3 29.7,0.6" />

		<g
   id="g3454">

				<ellipse
   id="ellipse3450"
   transform="matrix(0.4007,-0.9162,0.9162,0.4007,12.8553,140.4693)"
   class="lamp-light"
   cx="113.8"
   cy="60.400002"
   rx="13.6"
   ry="8.1000004" />

			<path
   id="path3452"
   class="lamp-ring"
   d="m 120.1,46.1 c -5.3,-2.3 -12.4,2.2 -15.9,10.1 -3.5,7.9 -1.9,16.1 3.4,18.5 5.3,2.3 12.4,-2.2 15.9,-10.1 3.5,-7.9 1.9,-16.1 -3.4,-18.5 z m 0.5,17.3 c -2.8,6.3 -8.1,10.1 -11.8,8.5 -3.8,-1.7 -4.6,-8.1 -1.8,-14.5 2.8,-6.3 8.1,-10.1 11.9,-8.5 3.7,1.7 4.5,8.2 1.7,14.5 z" />

		</g>

	</g>
        </g>
      </g>
    </g>
    <g
       inkscape:groupmode="layer"
       id="layer6"
       inkscape:label="Symbols"
       style="display:inline" />
    <g
       inkscape:groupmode="layer"
       id="layer5"
       inkscape:label="Highlights"
       style="display:inline"
       sodipodi:insensitive="true">
      <path
         style="opacity:0.12999998;color:#bebebe;fill:#ffffff;fill-opacity:1;fill-rule:nonzero;stroke:none;stroke-width:0;marker:none;visibility:visible;display:inline;overflow:visible;enable-background:accumulate"
         d="M 84,47 C 56.836703,47 35,68.836703 35,96 l 0,1 C 35,69.836703 56.836703,48 84,48 l 120,0 c 27.1633,0 49,21.836703 49,49 l 0,-1 C 253,68.836703 231.1633,47 204,47 L 84,47 z"
         id="rect3894"
         inkscape:connector-curvature="0" />
      <path
         style="opacity:0.12999998;color:#bebebe;fill:#ffffff;fill-opacity:1;fill-rule:nonzero;stroke:none;stroke-width:0;marker:none;visibility:visible;display:inline;overflow:visible;enable-background:accumulate"
         d="m 419,141 c -1.1253,0 -2,0.8747 -2,2 l 0,1 c 0,-1.1253 0.8747,-2 2,-2 l 10,0 c 1.1253,0 2,0.8747 2,2 l 0,-1 c 0,-1.1253 -0.8747,-2 -2,-2 l -10,0 z"
         id="rect3896"
         inkscape:connector-curvature="0" />
      <path
         style="opacity:0.12999998;color:#bebebe;fill:#ffffff;fill-opacity:1;fill-rule:nonzero;stroke:none;stroke-width:0;marker:none;visibility:visible;display:inline;overflow:visible;enable-background:accumulate"
         d="m 422,102 c -2.2333,0 -4,1.7667 -4,4 l 0,1 c 0,-2.2333 1.7667,-4 4,-4 l 12,0 c 2.2333,0 4,1.7667 4,4 l 0,-1 c 0,-2.2333 -1.7667,-4 -4,-4 l -12,0 z"
         id="rect3898"
         inkscape:connector-curvature="0" />
      <path
         style="opacity:0.12999998;color:#bebebe;fill:#ffffff;fill-opacity:1;fill-rule:nonzero;stroke:none;stroke-width:0;marker:none;visibility:visible;display:inline;overflow:visible;enable-background:accumulate"
         d="m 424,54 c -3.3413,0 -6,2.658703 -6,6 l 0,1 c 0,-3.341297 2.6587,-6 6,-6 l 16,0 c 3.3413,0 6,2.658703 6,6 l 0,-1 c 0,-3.341297 -2.6587,-6 -6,-6 l -16,0 z"
         id="rect3900"
         inkscape:connector-curvature="0" />
      <path
         style="opacity:0.12999998;color:#bebebe;fill:#ffffff;fill-opacity:1;fill-rule:nonzero;stroke:none;stroke-width:0;marker:none;visibility:visible;display:inline;overflow:visible;enable-background:accumulate"
         d="m 300,224 c -4.4493,0 -8,3.5507 -8,8 l 0,1 c 0,-4.4493 3.5507,-8 8,-8 l 24,0 c 4.4493,0 8,3.5507 8,8 l 0,-1 c 0,-4.4493 -3.5507,-8 -8,-8 l -24,0 z"
         id="rect3902"
         inkscape:connector-curvature="0" />
      <path
         style="opacity:0.12999998;color:#bebebe;fill:#ffffff;fill-opacity:1;fill-rule:nonzero;stroke:none;stroke-width:0;marker:none;visibility:visible;display:inline;overflow:visible;enable-background:accumulate"
         d="m 310,33 c -9.4353,0 -17,7.564703 -17,17 l 0,1 c 0,-9.435297 7.5647,-17 17,-17 l 52,0 c 9.4353,0 17,7.564703 17,17 l 0,-1 c 0,-9.435297 -7.5647,-17 -17,-17 l -52,0 z"
         id="rect3904"
         inkscape:connector-curvature="0" />
      <path
         style="opacity:0.12999998;color:#bebebe;fill:#ffffff;fill-opacity:1;fill-rule:nonzero;stroke:none;stroke-width:0;marker:none;visibility:visible;display:inline;overflow:visible;enable-background:accumulate"
         d="m 302.5,143 c -6.3883,0 -11.5,5.1117 -11.5,11.5 l 0,1 c 0,-6.3883 5.1117,-11.5 11.5,-11.5 l 35,0 c 6.3883,0 11.5,5.1117 11.5,11.5 l 0,-1 c 0,-6.3883 -5.1117,-11.5 -11.5,-11.5 l -35,0 z"
         id="rect3906"
         inkscape:connector-curvature="0" />
      <path
         id="path4085"
         d="m 204,266 c 27.1633,0 49,-21.8367 49,-49 l 0,-1 c 0,27.1633 -21.8367,49 -49,49 L 84,265 C 56.8367,265 35,243.1633 35,216 l 0,1 c 0,27.1633 21.8367,49 49,49 l 120,0 z"
         style="opacity:0.41;color:#bebebe;fill:#000000;fill-opacity:1;fill-rule:nonzero;stroke:none;stroke-width:0;marker:none;visibility:visible;display:inline;overflow:visible;enable-background:accumulate"
         inkscape:connector-curvature="0" />
      <path
         id="path4087"
         d="m 429,156 c 1.1253,0 2,-0.8747 2,-2 l 0,-1 c 0,1.1253 -0.8747,2 -2,2 l -10,0 c -1.1253,0 -2,-0.8747 -2,-2 l 0,1 c 0,1.1253 0.8747,2 2,2 l 10,0 z"
         style="opacity:0.3;color:#bebebe;fill:#000000;fill-opacity:1;fill-rule:nonzero;stroke:none;stroke-width:0;marker:none;visibility:visible;display:inline;overflow:visible;enable-background:accumulate"
         inkscape:connector-curvature="0" />
      <path
         id="path4089"
         d="m 434,123 c 2.2333,0 4,-1.7667 4,-4 l 0,-1 c 0,2.2333 -1.7667,4 -4,4 l -12,0 c -2.2333,0 -4,-1.7667 -4,-4 l 0,1 c 0,2.2333 1.7667,4 4,4 l 12,0 z"
         style="opacity:0.3;color:#bebebe;fill:#000000;fill-opacity:1;fill-rule:nonzero;stroke:none;stroke-width:0;marker:none;visibility:visible;display:inline;overflow:visible;enable-background:accumulate"
         inkscape:connector-curvature="0" />
      <path
         id="path4091"
         d="m 440,83 c 3.3413,0 6,-2.6587 6,-6 l 0,-1 c 0,3.3413 -2.6587,6 -6,6 l -16,0 c -3.3413,0 -6,-2.6587 -6,-6 l 0,1 c 0,3.3413 2.6587,6 6,6 l 16,0 z"
         style="opacity:0.41;color:#bebebe;fill:#000000;fill-opacity:1;fill-rule:nonzero;stroke:none;stroke-width:0;marker:none;visibility:visible;display:inline;overflow:visible;enable-background:accumulate"
         inkscape:connector-curvature="0" />
      <path
         id="path4093"
         d="m 324,265 c 4.4493,0 8,-3.5507 8,-8 l 0,-1 c 0,4.4493 -3.5507,8 -8,8 l -24,0 c -4.4493,0 -8,-3.5507 -8,-8 l 0,1 c 0,4.4493 3.5507,8 8,8 l 24,0 z"
         style="opacity:0.41;color:#bebebe;fill:#000000;fill-opacity:1;fill-rule:nonzero;stroke:none;stroke-width:0;marker:none;visibility:visible;display:inline;overflow:visible;enable-background:accumulate"
         inkscape:connector-curvature="0" />
      <path
         id="path4095"
         d="m 362,120 c 9.4353,0 17,-7.5647 17,-17 l 0,-1 c 0,9.4353 -7.5647,17 -17,17 l -52,0 c -9.4353,0 -17,-7.5647 -17,-17 l 0,1 c 0,9.4353 7.5647,17 17,17 l 52,0 z"
         style="opacity:0.41;color:#bebebe;fill:#000000;fill-opacity:1;fill-rule:nonzero;stroke:none;stroke-width:0;marker:none;visibility:visible;display:inline;overflow:visible;enable-background:accumulate"
         inkscape:connector-curvature="0" />
      <path
         id="path4097"
         d="m 337.5,202 c 6.3883,0 11.5,-5.1117 11.5,-11.5 l 0,-1 c 0,6.3883 -5.1117,11.5 -11.5,11.5 l -35,0 c -6.3883,0 -11.5,-5.1117 -11.5,-11.5 l 0,1 c 0,6.3883 5.1117,11.5 11.5,11.5 l 35,0 z"
         style="opacity:0.41;color:#bebebe;fill:#000000;fill-opacity:1;fill-rule:nonzero;stroke:none;stroke-width:0;marker:none;visibility:visible;display:inline;overflow:visible;enable-background:accumulate"
         inkscape:connector-curvature="0" />
      <path
         inkscape:connector-curvature="0"
         id="path4280"
         d="M 84,265 C 56.836703,265 35,243.1633 35,216 l 0,-1 c 0,27.1633 21.836703,49 49,49 l 120,0 c 27.1633,0 49,-21.8367 49,-49 l 0,1 c 0,27.1633 -21.8367,49 -49,49 l -120,0 z"
         style="opacity:0.1;color:#bebebe;fill:#ffffff;fill-opacity:1;fill-rule:nonzero;stroke:none;stroke-width:0;marker:none;visibility:visible;display:inline;overflow:visible;enable-background:accumulate" />
      <path
         style="opacity:0.1;color:#bebebe;fill:#ffffff;fill-opacity:1;fill-rule:nonzero;stroke:none;stroke-width:0;marker:none;visibility:visible;display:inline;overflow:visible;enable-background:accumulate"
         d="m 300,264 c -4.4493,0 -8,-3.5507 -8,-8 l 0,-1 c 0,4.4493 3.5507,8 8,8 l 24,0 c 4.4493,0 8,-3.5507 8,-8 l 0,1 c 0,4.4493 -3.5507,8 -8,8 l -24,0 z"
         id="path4294"
         inkscape:connector-curvature="0" />
      <path
         style="opacity:0.1;color:#bebebe;fill:#ffffff;fill-opacity:1;fill-rule:nonzero;stroke:none;stroke-width:0;marker:none;visibility:visible;display:inline;overflow:visible;enable-background:accumulate"
         d="m 302.5,201 c -6.3883,0 -11.5,-5.1117 -11.5,-11.5 l 0,-1 c 0,6.3883 5.1117,11.5 11.5,11.5 l 35,0 c 6.3883,0 11.5,-5.1117 11.5,-11.5 l 0,1 c 0,6.3883 -5.1117,11.5 -11.5,11.5 l -35,0 z"
         id="path4296"
         inkscape:connector-curvature="0" />
      <path
         style="opacity:0.1;color:#bebebe;fill:#ffffff;fill-opacity:1;fill-rule:nonzero;stroke:none;stroke-width:0;marker:none;visibility:visible;display:inline;overflow:visible;enable-background:accumulate"
         d="m 310,119 c -9.4353,0 -17,-7.5647 -17,-17 l 0,-1 c 0,9.4353 7.5647,17 17,17 l 52,0 c 9.4353,0 17,-7.5647 17,-17 l 0,1 c 0,9.4353 -7.5647,17 -17,17 l -52,0 z"
         id="path4298"
         inkscape:connector-curvature="0" />
      <path
         style="opacity:0.1;color:#bebebe;fill:#ffffff;fill-opacity:1;fill-rule:nonzero;stroke:none;stroke-width:0;marker:none;visibility:visible;display:inline;overflow:visible;enable-background:accumulate"
         d="m 424,82 c -3.3413,0 -6,-2.658703 -6,-6 l 0,-1 c 0,3.341297 2.6587,6 6,6 l 16,0 c 3.3413,0 6,-2.658703 6,-6 l 0,1 c 0,3.341297 -2.6587,6 -6,6 l -16,0 z"
         id="path4300"
         inkscape:connector-curvature="0" />
      <path
         style="opacity:0.1;color:#bebebe;fill:#ffffff;fill-opacity:1;fill-rule:nonzero;stroke:none;stroke-width:0;marker:none;visibility:visible;display:inline;overflow:visible;enable-background:accumulate"
         d="m 422,122 c -2.2333,0 -4,-1.7667 -4,-4 l 0,-1 c 0,2.2333 1.7667,4 4,4 l 12,0 c 2.2333,0 4,-1.7667 4,-4 l 0,1 c 0,2.2333 -1.7667,4 -4,4 l -12,0 z"
         id="path4302"
         inkscape:connector-curvature="0" />
      <path
         style="opacity:0.1;color:#bebebe;fill:#ffffff;fill-opacity:1;fill-rule:nonzero;stroke:none;stroke-width:0;marker:none;visibility:visible;display:inline;overflow:visible;enable-background:accumulate"
         d="m 419,154.5 c -1.1253,0 -2,-0.8747 -2,-2 l 0,-1 c 0,1.1253 0.8747,2 2,2 l 10,0 c 1.1253,0 2,-0.8747 2,-2 l 0,1 c 0,1.1253 -0.8747,2 -2,2 l -10,0 z"
         id="path4304"
         inkscape:connector-curvature="0" />
    </g>
    <g
       inkscape:groupmode="layer"
       id="layer3"
       inkscape:label="Border"
       style="display:inline"
       sodipodi:insensitive="true">
      <path
         style="opacity:0.41;color:#bebebe;fill:#000000;fill-opacity:1;fill-rule:nonzero;stroke:none;stroke-width:0;marker:none;visibility:visible;display:inline;overflow:visible;enable-background:accumulate"
         d="m 422,101 c -2.77,0 -5,2.23 -5,5 l 0,12 c 0,2.77 2.23,5 5,5 l 12,0 c 2.77,0 5,-2.23 5,-5 l 0,-12 c 0,-2.77 -2.23,-5 -5,-5 l -12,0 z m 0,1 12,0 c 2.2333,0 4,1.7667 4,4 l 0,12 c 0,2.2333 -1.7667,4 -4,4 l -12,0 c -2.2333,0 -4,-1.7667 -4,-4 l 0,-12 c 0,-2.2333 1.7667,-4 4,-4 z"
         id="rect4099"
         inkscape:connector-curvature="0" />
      <path
         style="opacity:0.41;color:#bebebe;fill:#000000;fill-opacity:1;fill-rule:nonzero;stroke:none;stroke-width:0;marker:none;visibility:visible;display:inline;overflow:visible;enable-background:accumulate"
         d="m 424,53 c -3.878,0 -7,3.122 -7,7 l 0,16 c 0,3.878 3.122,7 7,7 l 16,0 c 3.878,0 7,-3.122 7,-7 l 0,-16 c 0,-3.878 -3.122,-7 -7,-7 l -16,0 z m 0,1 16,0 c 3.3413,0 6,2.658703 6,6 l 0,16 c 0,3.341297 -2.6587,6 -6,6 l -16,0 c -3.3413,0 -6,-2.658703 -6,-6 l 0,-16 c 0,-3.341297 2.6587,-6 6,-6 z"
         id="rect4151"
         inkscape:connector-curvature="0" />
      <path
         style="opacity:0.41;color:#bebebe;fill:#000000;fill-opacity:1;fill-rule:nonzero;stroke:none;stroke-width:0;marker:none;visibility:visible;display:inline;overflow:visible;enable-background:accumulate"
         d="m 419,140 c -1.662,0 -3,1.338 -3,3 l 0,10 c 0,1.662 1.338,3 3,3 l 10,0 c 1.662,0 3,-1.338 3,-3 l 0,-10 c 0,-1.662 -1.338,-3 -3,-3 l -10,0 z m 0,1 10,0 c 1.1253,0 2,0.8747 2,2 l 0,10 c 0,1.1253 -0.8747,2 -2,2 l -10,0 c -1.1253,0 -2,-0.8747 -2,-2 l 0,-10 c 0,-1.1253 0.8747,-2 2,-2 z"
         id="rect4095"
         inkscape:connector-curvature="0" />
      <path
         style="opacity:0.41;color:#bebebe;fill:#000000;fill-opacity:1;fill-rule:nonzero;stroke:none;stroke-width:0;marker:none;visibility:visible;display:inline;overflow:visible;enable-background:accumulate"
         d="m 300,223 c -4.986,0 -9,4.014 -9,9 l 0,24 c 0,4.986 4.014,9 9,9 l 24,0 c 4.986,0 9,-4.014 9,-9 l 0,-24 c 0,-4.986 -4.014,-9 -9,-9 l -24,0 z m 0,1 24,0 c 4.4493,0 8,3.5507 8,8 l 0,24 c 0,4.4493 -3.5507,8 -8,8 l -24,0 c -4.4493,0 -8,-3.5507 -8,-8 l 0,-24 c 0,-4.4493 3.5507,-8 8,-8 z"
         id="rect4783"
         inkscape:connector-curvature="0" />
      <path
         style="opacity:0.41;color:#bebebe;fill:#000000;fill-opacity:1;fill-rule:nonzero;stroke:none;stroke-width:0;marker:none;visibility:visible;display:inline;overflow:visible;enable-background:accumulate"
         d="m 302.5,142 c -6.925,0 -12.5,5.575 -12.5,12.5 l 0,35 c 0,6.925 5.575,12.5 12.5,12.5 l 35,0 c 6.925,0 12.5,-5.575 12.5,-12.5 l 0,-35 c 0,-6.925 -5.575,-12.5 -12.5,-12.5 l -35,0 z m 0,1 35,0 c 6.3883,0 11.5,5.1117 11.5,11.5 l 0,35 c 0,6.3883 -5.1117,11.5 -11.5,11.5 l -35,0 c -6.3883,0 -11.5,-5.1117 -11.5,-11.5 l 0,-35 c 0,-6.3883 5.1117,-11.5 11.5,-11.5 z"
         id="rect4515"
         inkscape:connector-curvature="0" />
      <path
         style="opacity:0.41;color:#bebebe;fill:#000000;fill-opacity:1;fill-rule:nonzero;stroke:none;stroke-width:0;marker:none;visibility:visible;display:inline;overflow:visible;enable-background:accumulate"
         d="m 310,32 c -9.972,0 -18,8.028 -18,18 l 0,52 c 0,9.972 8.028,18 18,18 l 52,0 c 9.972,0 18,-8.028 18,-18 l 0,-52 c 0,-9.972 -8.028,-18 -18,-18 l -52,0 z m 0,1 52,0 c 9.4353,0 17,7.564703 17,17 l 0,52 c 0,9.4353 -7.5647,17 -17,17 l -52,0 c -9.4353,0 -17,-7.5647 -17,-17 l 0,-52 c 0,-9.435297 7.5647,-17 17,-17 z"
         id="rect4511"
         inkscape:connector-curvature="0" />
      <path
         style="opacity:0.41;color:#bebebe;fill:#000000;fill-opacity:1;fill-rule:nonzero;stroke:none;stroke-width:0;marker:none;visibility:visible;display:inline;overflow:visible;enable-background:accumulate"
         d="M 84,46 C 56.3,46 34,68.3 34,96 l 0,120 c 0,27.7 22.3,50 50,50 l 120,0 c 27.7,0 50,-22.3 50,-50 L 254,96 C 254,68.3 231.7,46 204,46 L 84,46 z m 0,1 120,0 c 27.1633,0 49,21.836703 49,49 l 0,120 c 0,27.1633 -21.8367,49 -49,49 L 84,265 C 56.836703,265 35,243.1633 35,216 L 35,96 C 35,68.836703 56.836703,47 84,47 z"
         id="rect4040"
         inkscape:connector-curvature="0" />
    </g>
  </g>
  <style
     type="text/css"
     id="style134">
	.st0{fill:#EF443B;}
</style>
  <style
     type="text/css"
     id="style1029">
	.background{fill-rule:evenodd;clip-rule:evenodd;fill:#192E45;}
	.fur{fill-rule:evenodd;clip-rule:evenodd;fill:#D2943B;}
	.nose{fill-rule:evenodd;clip-rule:evenodd;fill:#FFCD86;}
	.helmet{fill-rule:evenodd;clip-rule:evenodd;fill:#FFD524;}
	.lamp-light{fill:#FFFFFF;}
	.lamp-ring{fill:#192E45;}
</style>
</svg>
