<?xml version="1.0" encoding="UTF-8" standalone="no"?>
<svg
   width="100%"
   height="100%"
   viewBox="0 0 480 300"
   version="1.1"
   xml:space="preserve"
   style="fill-rule:evenodd;clip-rule:evenodd;stroke-linejoin:round;stroke-miterlimit:2;"
   id="svg386"
   sodipodi:docname="web-bluemail.svg"
   inkscape:version="1.1.2 (0a00cf5339, 2022-02-04)"
   xmlns:inkscape="http://www.inkscape.org/namespaces/inkscape"
   xmlns:sodipodi="http://sodipodi.sourceforge.net/DTD/sodipodi-0.dtd"
   xmlns:xlink="http://www.w3.org/1999/xlink"
   xmlns="http://www.w3.org/2000/svg"
   xmlns:svg="http://www.w3.org/2000/svg"
   xmlns:rdf="http://www.w3.org/1999/02/22-rdf-syntax-ns#"
   xmlns:cc="http://creativecommons.org/ns#"
   xmlns:dc="http://purl.org/dc/elements/1.1/"
   xmlns:serif="http://www.serif.com/"><metadata
   id="metadata390"><rdf:RDF><cc:Work
       rdf:about=""><dc:format>image/svg+xml</dc:format><dc:type
         rdf:resource="http://purl.org/dc/dcmitype/StillImage" /></cc:Work></rdf:RDF></metadata><sodipodi:namedview
   pagecolor="#ffffff"
   bordercolor="#666666"
   borderopacity="1"
   objecttolerance="10"
   gridtolerance="10"
   guidetolerance="10"
   inkscape:pageopacity="0"
   inkscape:pageshadow="2"
   inkscape:window-width="1920"
   inkscape:window-height="1008"
   id="namedview388"
   showgrid="false"
   inkscape:zoom="1.673486"
   inkscape:cx="335.22838"
   inkscape:cy="144.30954"
   inkscape:window-x="0"
   inkscape:window-y="40"
   inkscape:window-maximized="1"
   inkscape:current-layer="svg386"
   inkscape:pagecheckerboard="0" />
    <g
   style="display:none"
   id="Baseplate">
            <g
   transform="translate(15.0068,19.7451)"
   id="g235">
                <g
   id="context">
                    <text
   x="0"
   y="0"
   style="font-weight:500;font-size:18px;font-family:LucidaGrande, 'Lucida Grande', sans-serif"
   id="text232">apps</text>
                </g>
            </g>
            <g
   transform="translate(122.488,19.7451)"
   id="g240">
                <g
   id="icon-name">
                    <text
   x="0"
   y="0"
   style="font-weight:600;font-size:18px;font-family:LucidaGrande-Bold, 'Lucida Grande', sans-serif"
   id="text237">joplin-desktop</text>
                </g>
            </g>
            <rect
   id="_16x16"
   serif:id="16x16"
   x="416"
   y="140"
   width="16"
   height="16"
   style="fill:#eeeeec" />
            <rect
   id="_24x24"
   serif:id="24x24"
   x="416"
   y="100"
   width="24"
   height="24"
   style="fill:#d4d4d4" />
            <rect
   id="_32x32"
   serif:id="32x32"
   x="416"
   y="52"
   width="32"
   height="32"
   style="fill:#eeeeec" />
            <rect
   id="_22x22"
   serif:id="22x22"
   x="417"
   y="101"
   width="22"
   height="22"
   style="fill:#eeeeec" />
            <rect
   id="_48x48"
   serif:id="48x48"
   x="288"
   y="220"
   width="48"
   height="48"
   style="fill:#eeeeec" />
            <rect
   id="_256x256"
   serif:id="256x256"
   x="16"
   y="28"
   width="256"
   height="256"
   style="fill:#eeeeec" />
            <rect
   id="_64x64"
   serif:id="64x64"
   x="288"
   y="140"
   width="64"
   height="64"
   style="fill:#eeeeec" />
            <rect
   id="_96x96"
   serif:id="96x96"
   x="288"
   y="28"
   width="96"
   height="96"
   style="fill:#eeeeec" />
        </g>
    <defs
   id="defs384"><linearGradient
   id="_Linear1"
   x1="0"
   y1="0"
   x2="1"
   y2="0"
   gradientUnits="userSpaceOnUse"
   gradientTransform="matrix(218.156,218.781,-218.781,218.156,34.586,45.992)"><stop
     offset="0"
     style="stop-color:rgb(0,76,175);stop-opacity:1"
     id="stop349" /><stop
     offset="1"
     style="stop-color:rgb(21,149,255);stop-opacity:1"
     id="stop351" /></linearGradient><linearGradient
   id="_Linear2"
   x1="0"
   y1="0"
   x2="1"
   y2="0"
   gradientUnits="userSpaceOnUse"
   gradientTransform="matrix(14.3892,14.049,-14.049,14.3892,416.586,140.979)"><stop
     offset="0"
     style="stop-color:rgb(0,76,175);stop-opacity:1"
     id="stop354" /><stop
     offset="1"
     style="stop-color:rgb(21,149,255);stop-opacity:1"
     id="stop356" /></linearGradient><linearGradient
   id="_Linear3"
   x1="0"
   y1="0"
   x2="1"
   y2="0"
   gradientUnits="userSpaceOnUse"
   gradientTransform="matrix(20.0911,19.9176,-19.9176,20.0911,417.87,102)"><stop
     offset="0"
     style="stop-color:rgb(0,76,175);stop-opacity:1"
     id="stop359" /><stop
     offset="1"
     style="stop-color:rgb(21,149,255);stop-opacity:1"
     id="stop361" /></linearGradient><linearGradient
   id="_Linear4"
   x1="0"
   y1="0"
   x2="1"
   y2="0"
   gradientUnits="userSpaceOnUse"
   gradientTransform="matrix(28.8491,28.9871,-28.9871,28.8491,417.869,53.1459)"><stop
     offset="0"
     style="stop-color:rgb(0,76,175);stop-opacity:1"
     id="stop364" /><stop
     offset="1"
     style="stop-color:rgb(21,149,255);stop-opacity:1"
     id="stop366" /></linearGradient><linearGradient
   id="_Linear5"
   x1="0"
   y1="0"
   x2="1"
   y2="0"
   gradientUnits="userSpaceOnUse"
   gradientTransform="matrix(41.9829,41.3127,-41.3127,41.9829,291.053,222.533)"><stop
     offset="0"
     style="stop-color:rgb(0,76,175);stop-opacity:1"
     id="stop369" /><stop
     offset="1"
     style="stop-color:rgb(21,149,255);stop-opacity:1"
     id="stop371" /></linearGradient><linearGradient
   id="_Linear6"
   x1="0"
   y1="0"
   x2="1"
   y2="0"
   gradientUnits="userSpaceOnUse"
   gradientTransform="matrix(87.4742,85.2649,-85.2649,87.4742,292.829,33.334)"><stop
     offset="0"
     style="stop-color:rgb(0,76,175);stop-opacity:1"
     id="stop374" /><stop
     offset="1"
     style="stop-color:rgb(21,149,255);stop-opacity:1"
     id="stop376" /></linearGradient><linearGradient
   id="_Linear7"
   x1="0"
   y1="0"
   x2="1"
   y2="0"
   gradientUnits="userSpaceOnUse"
   gradientTransform="matrix(59.2403,57.4367,-57.4367,59.2403,290.702,143.288)"><stop
     offset="0"
     style="stop-color:rgb(0,76,175);stop-opacity:1"
     id="stop379" /><stop
     offset="1"
     style="stop-color:rgb(21,149,255);stop-opacity:1"
     id="stop381" /></linearGradient>
        
        
        
        
        
        
    
            
            
            
            
            
            
            
        <linearGradient
   inkscape:collect="always"
   xlink:href="#_Linear5"
   id="linearGradient1336"
   x1="34.5"
   y1="156"
   x2="253.5"
   y2="156"
   gradientUnits="userSpaceOnUse" /><linearGradient
   inkscape:collect="always"
   xlink:href="#_Linear5"
   id="linearGradient1340"
   x1="290.5"
   y1="172"
   x2="349.5"
   y2="172"
   gradientUnits="userSpaceOnUse" /><linearGradient
   inkscape:collect="always"
   xlink:href="#_Linear5"
   id="linearGradient1342"
   x1="291.5"
   y1="244"
   x2="332.5"
   y2="244"
   gradientUnits="userSpaceOnUse" /><linearGradient
   inkscape:collect="always"
   xlink:href="#_Linear5"
   id="linearGradient1344"
   x1="416.5"
   y1="148"
   x2="431.5"
   y2="148"
   gradientUnits="userSpaceOnUse" /><linearGradient
   inkscape:collect="always"
   xlink:href="#_Linear5"
   id="linearGradient1346"
   x1="417.5"
   y1="112"
   x2="438.5"
   y2="112"
   gradientUnits="userSpaceOnUse" /><linearGradient
   inkscape:collect="always"
   xlink:href="#_Linear5"
   id="linearGradient1348"
   x1="417.5"
   y1="68"
   x2="446.5"
   y2="68"
   gradientUnits="userSpaceOnUse" /><linearGradient
   inkscape:collect="always"
   xlink:href="#_Linear5"
   id="linearGradient2032"
   gradientUnits="userSpaceOnUse"
   x1="292.5"
   y1="76"
   x2="379.5"
   y2="76"
   gradientTransform="rotate(180,336,76)" />
                
            
            
            
            
            
            
            
            
        </defs>
<g
   id="g6546"><g
     id="Shadow">
            <path
   id="rect4114"
   d="M 254,97.5 C 254,84.107 248.679,71.262 239.209,61.791 229.738,52.321 216.893,47 203.5,47 H 84.5 C 71.107,47 58.262,52.321 48.791,61.791 39.321,71.262 34,84.107 34,97.5 v 119 c 0,13.393 5.321,26.238 14.791,35.709 C 58.262,261.679 71.107,267 84.5,267 h 119 c 13.393,0 26.238,-5.321 35.709,-14.791 C 248.679,242.738 254,229.893 254,216.5 Z"
   style="fill-opacity:0.1" />
            <path
   id="rect4120"
   d="m 447,61.5 c 0,-4.142 -3.358,-7.5 -7.5,-7.5 h -15 c -4.142,0 -7.5,3.358 -7.5,7.5 v 15 c 0,4.142 3.358,7.5 7.5,7.5 h 15 c 4.142,0 7.5,-3.358 7.5,-7.5 z"
   style="fill-opacity:0.1" />
            <g
   id="rect4122"
   transform="scale(1,-1)">
                <path
   d="m 333,-256.5 c 0,-5.247 -4.253,-9.5 -9.5,-9.5 h -23 c -5.247,0 -9.5,4.253 -9.5,9.5 v 23 c 0,5.247 4.253,9.5 9.5,9.5 h 23 c 5.247,0 9.5,-4.253 9.5,-9.5 z"
   style="fill-opacity:0.1"
   id="path253" />
            </g>
            <path
   id="rect4124"
   d="M 380,51.5 C 380,41.283 371.717,33 361.5,33 h -51 C 300.283,33 292,41.283 292,51.5 v 51 c 0,10.217 8.283,18.5 18.5,18.5 h 50.7 c 4.986,0 9.768,-1.981 13.294,-5.506 3.525,-3.526 5.506,-8.308 5.506,-13.294 z"
   style="fill-opacity:0.1" />
            <path
   id="rect4126"
   d="m 350,156 c 0,-3.448 -1.37,-6.754 -3.808,-9.192 C 343.754,144.37 340.448,143 337,143 h -34 c -3.448,0 -6.754,1.37 -9.192,3.808 C 291.37,149.246 290,152.552 290,156 v 34 c 0,3.448 1.37,6.754 3.808,9.192 2.438,2.438 5.744,3.808 9.192,3.808 h 34 c 3.448,0 6.754,-1.37 9.192,-3.808 C 348.63,196.754 350,193.448 350,190 Z"
   style="fill-opacity:0.1" />
            <g
   id="path4268"
   transform="translate(0,1)">
                <path
   d="m 422,101 c -2.77,0 -5,2.23 -5,5 v 12 c 0,2.77 2.23,5 5,5 h 12 c 2.77,0 5,-2.23 5,-5 v -12 c 0,-2.77 -2.23,-5 -5,-5 z"
   style="fill-opacity:0.1;fill-rule:nonzero"
   id="path258" />
            </g>
            <g
   id="path4270"
   transform="translate(0,1)">
                <path
   d="m 419,140 c -1.662,0 -3,1.338 -3,3 v 10 c 0,1.662 1.338,3 3,3 h 10 c 1.662,0 3,-1.338 3,-3 v -10 c 0,-1.662 -1.338,-3 -3,-3 z"
   style="fill-opacity:0.1;fill-rule:nonzero"
   id="path261" />
            </g>
        </g><g
     id="g6345"><path
       id="path4206"
       d="m 440,82.5 c 3.607,0 6.5,-2.893 6.5,-6.5 V 60 c 0,-3.607 -2.893,-6.5 -6.5,-6.5 h -16 c -3.607,0 -6.5,2.893 -6.5,6.5 v 16 c 0,3.607 2.893,6.5 6.5,6.5 z"
       style="fill:#1860ad;fill-rule:nonzero;stroke:url(#linearGradient1348);fill-opacity:1" /><path
       id="rect4151"
       d="m 424,53 c -3.878,0 -7,3.122 -7,7 v 16 c 0,3.878 3.122,7 7,7 h 16 c 3.878,0 7,-3.122 7,-7 V 60 c 0,-3.878 -3.122,-7 -7,-7 z m 0,1 h 16 c 3.341,0 6,2.659 6,6 v 16 c 0,3.341 -2.659,6 -6,6 h -16 c -3.341,0 -6,-2.659 -6,-6 V 60 c 0,-3.341 2.659,-6 6,-6 z"
       style="fill-opacity:0.41;fill-rule:nonzero" /><path
       id="path2835"
       style="display:inline;fill:#ffffff;fill-opacity:1;stroke:none;stroke-width:0.0110723;enable-background:new"
       d="m 427.33121,57.782028 a 4.2371627,5.4211836 19.390803 0 0 -3.85388,2.702093 v 1.497623 0.380884 8.489964 c 0.14113,2.044492 0.51153,2.808401 1.37363,4.01739 3.21151,4.467433 10.85318,4.478519 14.08748,0.02185 3.95176,-5.468569 0.0684,-12.853585 -6.76459,-12.853585 h -1.26742 v 5.908697 a 2.853597,2.6912238 0 0 1 1.38028,-0.338425 2.853597,2.6912238 0 0 1 2.85345,2.690851 2.853597,2.6912238 0 0 1 -2.85345,2.691164 2.853597,2.6912238 0 0 1 -2.85378,-2.691164 2.853597,2.6912238 0 0 1 0.0106,-0.117699 h -0.007 V 62.362624 61.98174 58.326191 a 4.2371627,5.4211836 19.390803 0 0 -0.98977,-0.445822 4.2371627,5.4211836 19.390803 0 0 -1.11528,-0.09834 z" /></g><g
     id="Highlights">
            <path
   id="rect3894"
   d="M 84,47 C 56.837,47 35,68.837 35,96 v 1 C 35,69.837 56.837,48 84,48 h 120 c 27.163,0 49,21.837 49,49 V 96 C 253,68.837 231.163,47 204,47 Z"
   style="fill:#ffffff;fill-opacity:0.13;fill-rule:nonzero" />
            <path
   id="rect3896"
   d="m 419,141 c -1.125,0 -2,0.875 -2,2 v 1 c 0,-1.125 0.875,-2 2,-2 h 10 c 1.125,0 2,0.875 2,2 v -1 c 0,-1.125 -0.875,-2 -2,-2 z"
   style="fill:#ffffff;fill-opacity:0.13;fill-rule:nonzero" />
            <path
   id="rect3898"
   d="m 422,102 c -2.233,0 -4,1.767 -4,4 v 1 c 0,-2.233 1.767,-4 4,-4 h 12 c 2.233,0 4,1.767 4,4 v -1 c 0,-2.233 -1.767,-4 -4,-4 z"
   style="fill:#ffffff;fill-opacity:0.13;fill-rule:nonzero" />
            <path
   id="rect3900"
   d="m 424,54 c -3.341,0 -6,2.659 -6,6 v 1 c 0,-3.341 2.659,-6 6,-6 h 16 c 3.341,0 6,2.659 6,6 v -1 c 0,-3.341 -2.659,-6 -6,-6 z"
   style="fill:#ffffff;fill-opacity:0.13;fill-rule:nonzero" />
            <path
   id="rect3902"
   d="m 300,224 c -4.449,0 -8,3.551 -8,8 v 1 c 0,-4.449 3.551,-8 8,-8 h 24 c 4.449,0 8,3.551 8,8 v -1 c 0,-4.449 -3.551,-8 -8,-8 z"
   style="fill:#ffffff;fill-opacity:0.13;fill-rule:nonzero" />
            <path
   id="rect3904"
   d="m 310,33 c -9.435,0 -17,7.565 -17,17 v 1 c 0,-9.435 7.565,-17 17,-17 h 52 c 9.435,0 17,7.565 17,17 v -1 c 0,-9.435 -7.565,-17 -17,-17 z"
   style="fill:#ffffff;fill-opacity:0.13;fill-rule:nonzero" />
            <path
   id="rect3906"
   d="m 302.5,143 c -6.388,0 -11.5,5.112 -11.5,11.5 v 1 c 0,-6.388 5.112,-11.5 11.5,-11.5 h 35 c 6.388,0 11.5,5.112 11.5,11.5 v -1 c 0,-6.388 -5.112,-11.5 -11.5,-11.5 z"
   style="fill:#ffffff;fill-opacity:0.13;fill-rule:nonzero" />
            <path
   id="path4085"
   d="m 204,266 c 27.163,0 49,-21.837 49,-49 v -1 c 0,27.163 -21.837,49 -49,49 H 84 C 56.837,265 35,243.163 35,216 v 1 c 0,27.163 21.837,49 49,49 z"
   style="fill-opacity:0.5;fill-rule:nonzero" />
            <path
   id="path4087"
   d="m 429,156 c 1.125,0 2,-0.875 2,-2 v -1 c 0,1.125 -0.875,2 -2,2 h -10 c -1.125,0 -2,-0.875 -2,-2 v 1 c 0,1.125 0.875,2 2,2 z"
   style="fill-opacity:0.3;fill-rule:nonzero" />
            <path
   id="path4089"
   d="m 434,123 c 2.233,0 4,-1.767 4,-4 v -1 c 0,2.233 -1.767,4 -4,4 h -12 c -2.233,0 -4,-1.767 -4,-4 v 1 c 0,2.233 1.767,4 4,4 z"
   style="fill-opacity:0.3;fill-rule:nonzero" />
            <path
   id="path4091"
   d="m 440,83 c 3.341,0 6,-2.659 6,-6 v -1 c 0,3.341 -2.659,6 -6,6 h -16 c -3.341,0 -6,-2.659 -6,-6 v 1 c 0,3.341 2.659,6 6,6 z"
   style="fill-opacity:0.5;fill-rule:nonzero" />
            <path
   id="path4093"
   d="m 324,265 c 4.449,0 8,-3.551 8,-8 v -1 c 0,4.449 -3.551,8 -8,8 h -24 c -4.449,0 -8,-3.551 -8,-8 v 1 c 0,4.449 3.551,8 8,8 z"
   style="fill-opacity:0.5;fill-rule:nonzero" />
            <path
   id="path4095"
   d="m 362,120 c 9.435,0 17,-7.565 17,-17 v -1 c 0,9.435 -7.565,17 -17,17 h -52 c -9.435,0 -17,-7.565 -17,-17 v 1 c 0,9.435 7.565,17 17,17 z"
   style="fill-opacity:0.5;fill-rule:nonzero" />
            <path
   id="path4097"
   d="m 337.5,202 c 6.388,0 11.5,-5.112 11.5,-11.5 v -1 c 0,6.388 -5.112,11.5 -11.5,11.5 h -35 c -6.388,0 -11.5,-5.112 -11.5,-11.5 v 1 c 0,6.388 5.112,11.5 11.5,11.5 z"
   style="fill-opacity:0.5;fill-rule:nonzero" />
            <path
   id="path4280"
   d="M 84,265 C 56.837,265 35,243.163 35,216 v -1 c 0,27.163 21.837,49 49,49 h 120 c 27.163,0 49,-21.837 49,-49 v 1 c 0,27.163 -21.837,49 -49,49 z"
   style="fill:#ffffff;fill-opacity:0.1;fill-rule:nonzero" />
            <path
   id="path4294"
   d="m 300,264 c -4.449,0 -8,-3.551 -8,-8 v -1 c 0,4.449 3.551,8 8,8 h 24 c 4.449,0 8,-3.551 8,-8 v 1 c 0,4.449 -3.551,8 -8,8 z"
   style="fill:#ffffff;fill-opacity:0.1;fill-rule:nonzero" />
            <path
   id="path4296"
   d="m 302.5,201 c -6.388,0 -11.5,-5.112 -11.5,-11.5 v -1 c 0,6.388 5.112,11.5 11.5,11.5 h 35 c 6.388,0 11.5,-5.112 11.5,-11.5 v 1 c 0,6.388 -5.112,11.5 -11.5,11.5 z"
   style="fill:#ffffff;fill-opacity:0.1;fill-rule:nonzero" />
            <path
   id="path4298"
   d="m 310,119 c -9.435,0 -17,-7.565 -17,-17 v -1 c 0,9.435 7.565,17 17,17 h 52 c 9.435,0 17,-7.565 17,-17 v 1 c 0,9.435 -7.565,17 -17,17 z"
   style="fill:#ffffff;fill-opacity:0.1;fill-rule:nonzero" />
            <path
   id="path4300"
   d="m 424,82 c -3.341,0 -6,-2.659 -6,-6 v -1 c 0,3.341 2.659,6 6,6 h 16 c 3.341,0 6,-2.659 6,-6 v 1 c 0,3.341 -2.659,6 -6,6 z"
   style="fill:#ffffff;fill-opacity:0.1;fill-rule:nonzero" />
            <path
   id="path4302"
   d="m 422,122 c -2.233,0 -4,-1.767 -4,-4 v -1 c 0,2.233 1.767,4 4,4 h 12 c 2.233,0 4,-1.767 4,-4 v 1 c 0,2.233 -1.767,4 -4,4 z"
   style="fill:#ffffff;fill-opacity:0.1;fill-rule:nonzero" />
            <path
   id="path4304"
   d="m 419,154.5 c -1.125,0 -2,-0.875 -2,-2 v -1 c 0,1.125 0.875,2 2,2 h 10 c 1.125,0 2,-0.875 2,-2 v 1 c 0,1.125 -0.875,2 -2,2 z"
   style="fill:#ffffff;fill-opacity:0.1;fill-rule:nonzero" />
        </g><g
     id="g6375"><path
       id="path4200"
       d="m 204,265.5 c 27.431,0 49.5,-22.069 49.5,-49.5 V 96 C 253.5,68.569 231.431,46.5 204,46.5 H 84 C 56.569,46.5 34.5,68.569 34.5,96 v 120 c 0,27.431 22.069,49.5 49.5,49.5 z"
       style="fill:#1860ad;fill-rule:nonzero;stroke:url(#linearGradient1336);fill-opacity:1" /><path
       id="path6"
       style="display:inline;fill:#ffffff;fill-opacity:1;stroke:none;stroke-width:0.0811962;enable-background:new"
       d="M 109.76194,81.069537 A 31.072649,39.754744 19.392623 0 0 81.499996,100.88453 v 10.98237 2.7931 62.25863 c 1.034913,14.99267 3.751223,20.59457 10.073308,29.46033 23.551286,32.76059 79.590576,32.84189 103.308916,0.16026 28.97976,-40.10212 0.50181,-94.25794 -49.60732,-94.25794 h -9.29451 v 43.32967 a 20.926517,19.735289 0 0 1 10.12215,-2.48174 20.926517,19.735289 0 0 1 20.92546,19.73256 20.926517,19.735289 0 0 1 -20.92546,19.73485 20.926517,19.735289 0 0 1 -20.92789,-19.73485 20.926517,19.735289 0 0 1 0.0781,-0.86311 h -0.0538 V 114.66 111.8669 85.060017 a 31.072649,39.754744 19.392623 0 0 -7.25837,-3.2693 31.072649,39.754744 19.392623 0 0 -8.17876,-0.72117 z" /><path
       id="rect4040"
       d="M 84,46 C 56.3,46 34,68.3 34,96 v 120 c 0,27.7 22.3,50 50,50 h 120 c 27.7,0 50,-22.3 50,-50 V 96 C 254,68.3 231.7,46 204,46 Z m 0,1 h 120 c 27.163,0 49,21.837 49,49 v 120 c 0,27.163 -21.837,49 -49,49 H 84 C 56.837,265 35,243.163 35,216 V 96 C 35,68.837 56.837,47 84,47 Z"
       style="fill-opacity:0.41;fill-rule:nonzero" /></g><g
     id="g6370"><path
       d="m 362,119.5 c 9.703,0 17.5,-7.797 17.5,-17.5 V 50 c 0,-9.703 -7.797,-17.5 -17.5,-17.5 h -52 c -9.703,0 -17.5,7.797 -17.5,17.5 v 52 c 0,9.703 7.797,17.5 17.5,17.5 z"
       style="fill:#1860ad;fill-rule:nonzero;stroke:url(#linearGradient2032);fill-opacity:1"
       id="path270" /><path
       id="rect4511"
       d="m 310,32 c -9.972,0 -18,8.028 -18,18 v 52 c 0,9.972 8.028,18 18,18 h 52 c 9.972,0 18,-8.028 18,-18 V 50 c 0,-9.972 -8.028,-18 -18,-18 z m 0,1 h 52 c 9.435,0 17,7.565 17,17 v 52 c 0,9.435 -7.565,17 -17,17 h -52 c -9.435,0 -17,-7.565 -17,-17 V 50 c 0,-9.435 7.565,-17 17,-17 z"
       style="fill-opacity:0.41;fill-rule:nonzero" /><path
       id="path3530"
       style="display:inline;fill:#ffffff;fill-opacity:1;stroke:none;stroke-width:0.0321094;enable-background:new"
       d="m 322.4604,46.368395 a 12.28782,15.721194 19.392623 0 0 -11.17631,7.83593 v 4.34302 1.10455 24.62046 c 0.40926,5.92892 1.48343,8.14421 3.98353,11.65022 9.31346,12.955325 31.47446,12.987475 40.85398,0.0634 11.46018,-15.85856 0.19844,-37.27473 -19.61744,-37.27473 h -3.67556 v 17.13492 a 8.2754864,7.8044098 0 0 1 4.00285,-0.98142 8.2754864,7.8044098 0 0 1 8.27507,7.80333 8.2754864,7.8044098 0 0 1 -8.27507,7.80424 8.2754864,7.8044098 0 0 1 -8.27603,-7.80424 8.2754864,7.8044098 0 0 1 0.0309,-0.34132 h -0.0213 v -22.67483 -1.10455 -10.6009 a 12.28782,15.721194 19.392623 0 0 -2.87035,-1.29286 12.28782,15.721194 19.392623 0 0 -3.23433,-0.28519 z" /></g><g
     id="g6365"><path
       id="path4212"
       d="m 337.5,201.5 c 6.655,0 12,-5.345 12,-12 v -35 c 0,-6.655 -5.345,-12 -12,-12 h -35 c -6.655,0 -12,5.345 -12,12 v 35 c 0,6.655 5.345,12 12,12 z"
       style="fill:#1860ad;fill-rule:nonzero;stroke:url(#linearGradient1340);fill-opacity:1" /><path
       id="rect4515"
       d="m 302.5,142 c -6.925,0 -12.5,5.575 -12.5,12.5 v 35 c 0,6.925 5.575,12.5 12.5,12.5 h 35 c 6.925,0 12.5,-5.575 12.5,-12.5 v -35 c 0,-6.925 -5.575,-12.5 -12.5,-12.5 z m 0,1 h 35 c 6.388,0 11.5,5.112 11.5,11.5 v 35 c 0,6.388 -5.112,11.5 -11.5,11.5 h -35 c -6.388,0 -11.5,-5.112 -11.5,-11.5 v -35 c 0,-6.388 5.112,-11.5 11.5,-11.5 z"
       style="fill-opacity:0.41;fill-rule:nonzero" /><path
       id="path4129"
       style="display:inline;fill:#ffffff;fill-opacity:1;stroke:none;stroke-width:0.0221444;enable-background:new"
       d="m 310.66234,151.56442 a 8.4743587,10.842203 19.392623 0 0 -7.7078,5.40409 v 2.99519 0.76176 16.97962 c 0.28225,4.08891 1.02306,5.61671 2.74727,8.03464 6.42308,8.93471 21.70652,8.95688 28.17516,0.0437 7.90357,-10.93694 0.13685,-25.70671 -13.52927,-25.70671 h -2.53487 v 11.81718 a 5.7072319,5.3823515 0 0 1 2.76059,-0.67684 5.7072319,5.3823515 0 0 1 5.70694,5.38161 5.7072319,5.3823515 0 0 1 -5.70694,5.38223 5.7072319,5.3823515 0 0 1 -5.70761,-5.38223 5.7072319,5.3823515 0 0 1 0.0213,-0.2354 h -0.0147 v -15.63781 -0.76176 -7.31096 a 8.4743587,10.842203 19.392623 0 0 -1.97956,-0.89163 8.4743587,10.842203 19.392623 0 0 -2.23057,-0.19668 z" /></g><g
     id="g6360"><path
       id="path4208"
       d="m 324,264.5 c 4.715,0 8.5,-3.785 8.5,-8.5 v -24 c 0,-4.715 -3.785,-8.5 -8.5,-8.5 h -24 c -4.715,0 -8.5,3.785 -8.5,8.5 v 24 c 0,4.715 3.785,8.5 8.5,8.5 z"
       style="fill:#1860ad;fill-rule:nonzero;stroke:url(#linearGradient1342);fill-opacity:1" /><path
       id="rect4783"
       d="m 300,223 c -4.986,0 -9,4.014 -9,9 v 24 c 0,4.986 4.014,9 9,9 h 24 c 4.986,0 9,-4.014 9,-9 v -24 c 0,-4.986 -4.014,-9 -9,-9 z m 0,1 h 24 c 4.449,0 8,3.551 8,8 v 24 c 0,4.449 -3.551,8 -8,8 h -24 c -4.449,0 -8,-3.551 -8,-8 v -24 c 0,-4.449 3.551,-8 8,-8 z"
       style="fill-opacity:0.41;fill-rule:nonzero" /><path
       id="path4418"
       style="display:inline;fill:#ffffff;fill-opacity:1;stroke:none;stroke-width:0.0155011;enable-background:new"
       d="m 305.46364,229.69509 a 5.9320511,7.589542 19.392623 0 0 -5.39546,3.78286 v 2.09664 0.53323 11.88573 c 0.19757,2.86224 0.71614,3.9317 1.92309,5.62425 4.49615,6.25429 15.19456,6.26981 19.72261,0.0306 5.5325,-7.65585 0.0958,-17.99469 -9.47049,-17.99469 h -1.77441 v 8.27202 a 3.9950623,3.7676461 0 0 1 1.93241,-0.47378 3.9950623,3.7676461 0 0 1 3.99486,3.76712 3.9950623,3.7676461 0 0 1 -3.99486,3.76757 3.9950623,3.7676461 0 0 1 -3.99532,-3.76757 3.9950623,3.7676461 0 0 1 0.0149,-0.16477 h -0.0103 v -10.94647 -0.53323 -5.11768 a 5.9320511,7.589542 19.392623 0 0 -1.38569,-0.62414 5.9320511,7.589542 19.392623 0 0 -1.5614,-0.13768 z" /></g><g
     id="g6350"><path
       id="path4204"
       d="m 434,122.5 c 2.497,0 4.5,-2.003 4.5,-4.5 v -12 c 0,-2.497 -2.003,-4.5 -4.5,-4.5 h -12 c -2.497,0 -4.5,2.003 -4.5,4.5 v 12 c 0,2.497 2.003,4.5 4.5,4.5 z"
       style="fill:#1860ad;fill-rule:nonzero;stroke:url(#linearGradient1346);fill-opacity:1" /><path
       id="rect4099"
       d="m 422,101 c -2.77,0 -5,2.23 -5,5 v 12 c 0,2.77 2.23,5 5,5 h 12 c 2.77,0 5,-2.23 5,-5 v -12 c 0,-2.77 -2.23,-5 -5,-5 z m 0,1 h 12 c 2.233,0 4,1.767 4,4 v 12 c 0,2.233 -1.767,4 -4,4 h -12 c -2.233,0 -4,-1.767 -4,-4 v -12 c 0,-2.233 1.767,-4 4,-4 z"
       style="fill-opacity:0.41;fill-rule:nonzero" /><path
       id="path4710"
       style="display:inline;fill:#ffffff;fill-opacity:1;stroke:none;stroke-width:0.00811962;enable-background:new"
       d="m 424.57619,104.50695 a 3.1072649,3.9754744 19.392623 0 0 -2.82619,1.9815 v 1.09824 0.27931 6.22586 c 0.10349,1.49927 0.37512,2.05946 1.00733,2.94604 2.35513,3.27605 7.95906,3.28418 10.33089,0.016 2.89798,-4.01021 0.0502,-9.42579 -4.96073,-9.42579 h -0.92945 v 4.33296 a 2.0926517,1.9735289 0 0 1 1.01221,-0.24817 2.0926517,1.9735289 0 0 1 2.09255,1.97326 2.0926517,1.9735289 0 0 1 -2.09255,1.97348 2.0926517,1.9735289 0 0 1 -2.09278,-1.97348 2.0926517,1.9735289 0 0 1 0.008,-0.0863 h -0.005 v -5.73387 -0.27931 -2.68069 a 3.1072649,3.9754744 19.392623 0 0 -0.72584,-0.32693 3.1072649,3.9754744 19.392623 0 0 -0.81788,-0.0721 z" /></g><g
     id="g6355"><path
       id="path4202"
       d="m 429,155.5 c 1.384,0 2.5,-1.116 2.5,-2.5 v -10 c 0,-1.384 -1.116,-2.5 -2.5,-2.5 h -10 c -1.384,0 -2.5,1.116 -2.5,2.5 v 10 c 0,1.384 1.116,2.5 2.5,2.5 z"
       style="fill:#1860ad;fill-rule:nonzero;stroke:url(#linearGradient1344);fill-opacity:1" /><path
       id="rect4095"
       d="m 419,140 c -1.662,0 -3,1.338 -3,3 v 10 c 0,1.662 1.338,3 3,3 h 10 c 1.662,0 3,-1.338 3,-3 v -10 c 0,-1.662 -1.338,-3 -3,-3 z m 0,1 h 10 c 1.125,0 2,0.875 2,2 v 10 c 0,1.125 -0.875,2 -2,2 h -10 c -1.125,0 -2,-0.875 -2,-2 v -10 c 0,-1.125 0.875,-2 2,-2 z"
       style="fill-opacity:0.41;fill-rule:nonzero" /><path
       id="path4923"
       style="display:inline;fill:#ffffff;fill-opacity:1;stroke:none;stroke-width:0.00590518;enable-background:new"
       d="m 421.50996,142.55048 a 2.2598289,2.891254 19.392623 0 0 -2.05542,1.44109 v 0.79871 0.20314 4.5279 c 0.0753,1.09037 0.27282,1.49779 0.73261,2.14257 1.71282,2.38259 5.7884,2.3885 7.51337,0.0117 2.10762,-2.91651 0.0365,-6.85512 -3.6078,-6.85512 h -0.67597 v 3.15125 a 1.5219285,1.4352937 0 0 1 0.73616,-0.18049 1.5219285,1.4352937 0 0 1 1.52185,1.43509 1.5219285,1.4352937 0 0 1 -1.52185,1.43527 1.5219285,1.4352937 0 0 1 -1.52203,-1.43527 1.5219285,1.4352937 0 0 1 0.006,-0.0628 h -0.004 v -4.17008 -0.20314 -1.94959 a 2.2598289,2.891254 19.392623 0 0 -0.52788,-0.23776 2.2598289,2.891254 19.392623 0 0 -0.59482,-0.0524 z" /></g></g></svg>
