<?xml version="1.0" encoding="UTF-8" standalone="no"?>
<svg
   xmlns:dc="http://purl.org/dc/elements/1.1/"
   xmlns:cc="http://creativecommons.org/ns#"
   xmlns:rdf="http://www.w3.org/1999/02/22-rdf-syntax-ns#"
   xmlns:svg="http://www.w3.org/2000/svg"
   xmlns="http://www.w3.org/2000/svg"
   xmlns:sodipodi="http://sodipodi.sourceforge.net/DTD/sodipodi-0.dtd"
   xmlns:inkscape="http://www.inkscape.org/namespaces/inkscape"
   id="svg3828"
   height="24"
   width="24"
   version="1.1"
   inkscape:version="0.91 r13725"
   sodipodi:docname="font-x-generic.svg">
  <sodipodi:namedview
     pagecolor="#ffffff"
     bordercolor="#666666"
     borderopacity="1"
     objecttolerance="10"
     gridtolerance="10"
     guidetolerance="10"
     inkscape:pageopacity="0"
     inkscape:pageshadow="2"
     inkscape:window-width="1920"
     inkscape:window-height="1026"
     id="namedview10"
     showgrid="false"
     inkscape:zoom="9.8333333"
     inkscape:cx="12.20339"
     inkscape:cy="12"
     inkscape:window-x="0"
     inkscape:window-y="0"
     inkscape:window-maximized="1"
     inkscape:current-layer="svg3828" />
  <defs
     id="defs3830" />
  <metadata
     id="metadata3833">
    <rdf:RDF>
      <cc:Work
         rdf:about="">
        <dc:format>image/svg+xml</dc:format>
        <dc:type
           rdf:resource="http://purl.org/dc/dcmitype/StillImage" />
        <dc:title />
      </cc:Work>
    </rdf:RDF>
  </metadata>
  <path
     style="display:inline;fill:#fafafa;fill-opacity:1;stroke:none"
     id="path4160-3"
     d="m 4,2 c 3.6664118,0 15.99998,0.0013 15.99998,0.0013 L 20,22 C 20,22 9.3333337,22 4,22 4,15.33334 4,8.6666817 4,2.0000212 Z" />
  <path
     style="opacity:0.3;fill:none;stroke:#000000;stroke-width:0.99992186;stroke-linecap:butt;stroke-linejoin:round;stroke-miterlimit:4;stroke-opacity:1;stroke-dasharray:none;stroke-dashoffset:0;display:inline"
     id="path4160-3-1"
     d="m 3.4999601,1.4999569 c 3.8955809,0 17.0000589,0.00136 17.0000589,0.00136 l 2.1e-5,20.9987161 c 0,0 -11.3333862,0 -17.0000799,0 0,-7.000018 0,-14.000035 0,-21.0000538 z" />
  <g
     transform="translate(-2.35e-6,-1028.3622)"
     style="font-style:normal;font-variant:normal;font-weight:bold;font-stretch:normal;font-size:12px;line-height:125%;font-family:'Open Sans';-inkscape-font-specification:'Open Sans Bold';text-align:center;letter-spacing:0px;word-spacing:0px;text-anchor:middle;opacity:0.6;fill:#000000;fill-opacity:1;stroke:none"
     id="text6626">
    <path
       id="path7974"
       d="m 11.012695,1044.6044 -0.621093,-2.0391 -3.1230473,0 -0.6210938,2.0391 -1.9570312,0 3.0234375,-8.6016 2.2207031,0 3.0351567,8.6016 -1.957032,0 m -1.0546872,-3.5625 c -0.5742234,-1.8477 -0.8984419,-2.8926 -0.9726562,-3.1348 -0.070317,-0.2422 -0.121098,-0.4336 -0.1523438,-0.5742 -0.1289103,0.5 -0.4980505,1.7363 -1.1074219,3.709 l 2.2324219,0"
       inkscape:connector-curvature="0" />
    <path
       id="path7976"
       d="m 18.061523,1044.6044 -0.345703,-0.8907 -0.04687,0 c -0.300785,0.379 -0.611332,0.6426 -0.93164,0.7911 -0.31641,0.1445 -0.730472,0.2168 -1.242188,0.2168 -0.628908,0 -1.125001,-0.1797 -1.488281,-0.5391 -0.359376,-0.3594 -0.539063,-0.8711 -0.539063,-1.5352 0,-0.6953 0.242187,-1.207 0.726563,-1.5351 0.488279,-0.332 1.222654,-0.5156 2.203125,-0.5508 l 1.136719,-0.035 0,-0.2871 c -5e-6,-0.664 -0.339848,-0.9961 -1.019532,-0.9961 -0.52344,0 -1.138674,0.1583 -1.845703,0.4747 l -0.591797,-1.2071 c 0.753905,-0.3945 1.589841,-0.5918 2.507813,-0.5918 0.878902,0 1.552729,0.1914 2.021484,0.5742 0.468744,0.3829 0.703119,0.9649 0.703125,1.7461 l 0,4.3653 -1.248047,0 m -0.527343,-3.0352 -0.691407,0.024 c -0.519534,0.016 -0.906253,0.1093 -1.160156,0.2812 -0.253909,0.1719 -0.380862,0.4336 -0.380859,0.7852 -3e-6,0.5039 0.28906,0.7558 0.867187,0.7558 0.414059,0 0.744137,-0.1191 0.990235,-0.3574 0.249995,-0.2383 0.374995,-0.5547 0.375,-0.9492 l 0,-0.5391"
       inkscape:connector-curvature="0" />
  </g>
</svg>
