<?xml version="1.0" encoding="UTF-8" standalone="no"?>
<svg
   xmlns:dc="http://purl.org/dc/elements/1.1/"
   xmlns:cc="http://creativecommons.org/ns#"
   xmlns:rdf="http://www.w3.org/1999/02/22-rdf-syntax-ns#"
   xmlns:svg="http://www.w3.org/2000/svg"
   xmlns="http://www.w3.org/2000/svg"
   xmlns:sodipodi="http://sodipodi.sourceforge.net/DTD/sodipodi-0.dtd"
   xmlns:inkscape="http://www.inkscape.org/namespaces/inkscape"
   height="16"
   width="16.005"
   version="1.1"
   id="svg8"
   sodipodi:docname="tools-check-spelling-symbolic.svg"
   inkscape:version="0.92.3 (2405546, 2018-03-11)">
  <metadata
     id="metadata14">
    <rdf:RDF>
      <cc:Work
         rdf:about="">
        <dc:format>image/svg+xml</dc:format>
        <dc:type
           rdf:resource="http://purl.org/dc/dcmitype/StillImage" />
      </cc:Work>
    </rdf:RDF>
  </metadata>
  <defs
     id="defs12" />
  <sodipodi:namedview
     pagecolor="#ffffff"
     bordercolor="#666666"
     borderopacity="1"
     objecttolerance="10"
     gridtolerance="10"
     guidetolerance="10"
     inkscape:pageopacity="0"
     inkscape:pageshadow="2"
     inkscape:window-width="1920"
     inkscape:window-height="1012"
     id="namedview10"
     showgrid="true"
     inkscape:zoom="32"
     inkscape:cx="12.115721"
     inkscape:cy="7.528832"
     inkscape:window-x="0"
     inkscape:window-y="0"
     inkscape:window-maximized="1"
     inkscape:current-layer="svg8">
    <inkscape:grid
       type="xygrid"
       id="grid874" />
  </sodipodi:namedview>
  <path
     style="fill:#bebebe;fill-opacity:1"
     d="M 7.9989274,0.9765625 V 10 h 3.0019536 c 0.93855,0 1.768828,-0.3725344 2.298828,-0.9589844 0.53,-0.58644 0.765739,-1.3366062 0.755859,-2.0664062 -0.01,-0.72982 -0.262222,-1.4657688 -0.789062,-2.0429688 -0.53,-0.577 -1.349531,-0.9550781 -2.269531,-0.9550781 H 9.9950212 v -3 z m -5.9941406,1 L 2,4 h 3 c 0,0.3511268 0,0.7123535 0.00479,0.9941406 H 4.0008806 c -1.7159001,0 -3.03008752,1.125475 -3.05468752,2.484375 -0.0123,0.6794499 0.30582812,1.3629656 0.86132812,1.8222656 C 2.3630212,9.7600513 3.1228805,10 4.0008806,10 H 7.0047868 V 4.0703125 c 0,-1.1712 -0.8871344,-2.0820313 -2.0839844,-2.0820313 z m 7.9941406,4 h 1.0019536 c 0.42179,0 0.625509,0.1256944 0.787109,0.3027344 0.161601,0.17705 0.263838,0.4468462 0.267578,0.7226562 0.004,0.27581 -0.0886,0.5294856 -0.240234,0.6972657 C 11.663714,7.8669889 11.459641,8 11.000881,8 H 9.9989274 Z M 4.0008806,6.9941406 H 5.0047868 V 8 H 4.0008806 C 3.4814705,8 3.2070887,7.8640556 3.0809587,7.7597656 2.9548187,7.6554856 2.944893,7.5856319 2.946193,7.5136719 2.949193,7.3697419 3.031084,6.9941406 4.0008806,6.9941406 Z M 2.5106462,10.792969 0.15517745,13.146484 c -0.47135447,0.472656 0.23762991,1.179688 0.70898438,0.707032 l 1.64648437,-1.646485 2,2 2,-2 2,2 1.9999998,-2 2,2 2.353516,-2.353515 c 0.471354,-0.472656 -0.23763,-1.179688 -0.708984,-0.707032 l -1.644532,1.646485 -2,-2 -1.9999998,2 -2,-2 -2,2 z"
     id="path5-3"
     inkscape:connector-curvature="0"
     sodipodi:nodetypes="ccscccscccccccsscscscccscccsccsccsccsccccccccccccccccc" />
</svg>
