<?xml version="1.0" encoding="UTF-8" standalone="no"?>
<svg
   xmlns:dc="http://purl.org/dc/elements/1.1/"
   xmlns:cc="http://creativecommons.org/ns#"
   xmlns:rdf="http://www.w3.org/1999/02/22-rdf-syntax-ns#"
   xmlns:svg="http://www.w3.org/2000/svg"
   xmlns="http://www.w3.org/2000/svg"
   xmlns:xlink="http://www.w3.org/1999/xlink"
   xmlns:sodipodi="http://sodipodi.sourceforge.net/DTD/sodipodi-0.dtd"
   xmlns:inkscape="http://www.inkscape.org/namespaces/inkscape"
   version="1.1"
   width="16"
   height="16"
   id="svg3810"
   inkscape:version="0.91 r13725"
   sodipodi:docname="font-x-generic.svg">
  <sodipodi:namedview
     pagecolor="#ffffff"
     bordercolor="#666666"
     borderopacity="1"
     objecttolerance="10"
     gridtolerance="10"
     guidetolerance="10"
     inkscape:pageopacity="0"
     inkscape:pageshadow="2"
     inkscape:window-width="1920"
     inkscape:window-height="1026"
     id="namedview14"
     showgrid="false"
     inkscape:zoom="14.75"
     inkscape:cx="-9.6610169"
     inkscape:cy="8"
     inkscape:window-x="0"
     inkscape:window-y="0"
     inkscape:window-maximized="1"
     inkscape:current-layer="svg3810" />
  <defs
     id="defs3812">
    <linearGradient
       id="linearGradient3104-9">
      <stop
         id="stop3106-5"
         style="stop-color:#000000;stop-opacity:0.33950618"
         offset="0" />
      <stop
         id="stop3108-5"
         style="stop-color:#000000;stop-opacity:0.24691358"
         offset="1" />
    </linearGradient>
    <linearGradient
       x1="-51.786404"
       y1="50.786446"
       x2="-51.786404"
       y2="2.9062471"
       id="linearGradient3019"
       xlink:href="#linearGradient3104-9"
       gradientUnits="userSpaceOnUse"
       gradientTransform="matrix(0.25378586,0,0,0.30501865,19.128979,-0.68547704)" />
  </defs>
  <metadata
     id="metadata3815">
    <rdf:RDF>
      <cc:Work
         rdf:about="">
        <dc:format>image/svg+xml</dc:format>
        <dc:type
           rdf:resource="http://purl.org/dc/dcmitype/StillImage" />
        <dc:title />
      </cc:Work>
    </rdf:RDF>
  </metadata>
  <path
     style="display:inline;fill:#fafafa;fill-opacity:1;stroke:none"
     id="path4160"
     d="m 3,1 c 2.2915074,0 9.999988,8.904e-4 9.999988,8.904e-4 L 13,15 C 13,15 6.3333332,15 3,15 3,10.333334 3,5.6666664 3,1 Z" />
  <path
     style="display:inline;fill:none;stroke:url(#linearGradient3019);stroke-width:0.99992192;stroke-linecap:butt;stroke-linejoin:round;stroke-miterlimit:4;stroke-dasharray:none;stroke-dashoffset:0;stroke-opacity:1"
     id="path4160-8"
     d="m 2.4999621,0.49997396 c 2.5206756,0 11.0000629,9.54e-4 11.0000629,9.54e-4 l 1.3e-5,14.99909804 c 0,0 -7.3333841,0 -11.000076,0 0,-5.000017 0,-10.000035 0,-15.00005204 z" />
  <g
     style="font-style:normal;font-variant:normal;font-weight:bold;font-stretch:normal;font-size:8px;line-height:125%;font-family:'Open Sans';-inkscape-font-specification:'Open Sans Bold';text-align:center;letter-spacing:0px;word-spacing:0px;text-anchor:middle;opacity:0.6;fill:#000000;fill-opacity:1;stroke:none"
     id="text6626">
    <path
       id="path8049"
       d="M 7.3417969,10.828125 6.9277344,9.46875 l -2.0820313,0 -0.4140625,1.359375 -1.3046875,0 2.015625,-5.734375 1.4804688,0 2.0234375,5.734375 -1.3046875,0 m -0.703125,-2.375 C 6.2558562,7.2213578 6.0397106,6.5247439 5.9902344,6.3632812 5.9433566,6.2018275 5.9095024,6.0742235 5.8886719,5.9804687 5.8027317,6.3138066 5.5566382,7.1380245 5.1503906,8.453125 l 1.4882813,0"
       inkscape:connector-curvature="0" />
    <path
       id="path8051"
       d="m 12.041016,10.828125 -0.230469,-0.59375 -0.03125,0 c -0.200524,0.252605 -0.407555,0.428386 -0.621094,0.527344 -0.21094,0.09635 -0.486981,0.144531 -0.828125,0.144531 -0.419272,0 -0.7500008,-0.119792 -0.9921874,-0.359375 C 9.0983068,10.307292 8.9785153,9.9661467 8.9785156,9.5234375 8.9785153,9.0598976 9.1399735,8.7187521 9.4628906,8.5 9.7884103,8.2786484 10.277993,8.1562527 10.931641,8.1328125 l 0.757812,-0.023437 0,-0.1914063 C 11.68945,7.4752643 11.462888,7.2539103 11.009766,7.2539067 10.660805,7.2539103 10.250649,7.359379 9.7792969,7.570313 L 9.3847656,6.765625 C 9.8873685,6.5026085 10.44466,6.3710982 11.056641,6.3710937 c 0.585934,4.5e-6 1.035152,0.1276085 1.347656,0.3828125 0.312496,0.2552122 0.468746,0.6432326 0.46875,1.1640625 l 0,2.9101563 -0.832031,0 m -0.351563,-2.0234375 -0.460937,0.015625 c -0.346357,0.010419 -0.604169,0.072919 -0.773438,0.1875 -0.169272,0.114585 -0.253908,0.289064 -0.253906,0.5234375 -2e-6,0.3359385 0.192706,0.503907 0.578125,0.503906 0.276039,10e-7 0.496091,-0.079426 0.660156,-0.238281 0.166664,-0.158853 0.249997,-0.3697903 0.25,-0.6328125 l 0,-0.359375"
       inkscape:connector-curvature="0" />
  </g>
</svg>
