<?xml version="1.0" encoding="UTF-8" standalone="no"?>
<!-- Created with Inkscape (http://www.inkscape.org/) -->

<svg
   xmlns:dc="http://purl.org/dc/elements/1.1/"
   xmlns:cc="http://creativecommons.org/ns#"
   xmlns:rdf="http://www.w3.org/1999/02/22-rdf-syntax-ns#"
   xmlns:svg="http://www.w3.org/2000/svg"
   xmlns="http://www.w3.org/2000/svg"
   xmlns:xlink="http://www.w3.org/1999/xlink"
   xmlns:sodipodi="http://sodipodi.sourceforge.net/DTD/sodipodi-0.dtd"
   xmlns:inkscape="http://www.inkscape.org/namespaces/inkscape"
   inkscape:export-ydpi="90.000000"
   inkscape:export-xdpi="90.000000"
   width="480"
   height="300"
   id="svg11300"
   sodipodi:version="0.32"
   inkscape:version="0.92.3 (2405546, 2018-03-11)"
   sodipodi:docname="kpat.svg"
   inkscape:output_extension="org.inkscape.output.svg.inkscape"
   version="1.0"
   style="display:inline;enable-background:new"
   inkscape:export-filename="/home/sam/moka-next-template.png">
  <sodipodi:namedview
     stroke="#ef2929"
     fill="#f57900"
     id="base"
     pagecolor="#777777"
     bordercolor="#666666"
     borderopacity="0.25490196"
     inkscape:pageopacity="0"
     inkscape:pageshadow="2"
     inkscape:zoom="2"
     inkscape:cx="296.80982"
     inkscape:cy="159.21995"
     inkscape:current-layer="layer2"
     showgrid="false"
     inkscape:grid-bbox="true"
     inkscape:document-units="px"
     inkscape:showpageshadow="false"
     inkscape:window-width="1364"
     inkscape:window-height="700"
     inkscape:window-x="0"
     inkscape:window-y="28"
     width="400px"
     height="300px"
     inkscape:snap-nodes="true"
     inkscape:snap-bbox="true"
     gridtolerance="10000"
     inkscape:object-nodes="true"
     inkscape:snap-grids="true"
     showguides="true"
     inkscape:guide-bbox="true"
     inkscape:window-maximized="1"
     inkscape:bbox-nodes="true"
     inkscape:bbox-paths="true"
     inkscape:snap-bbox-edge-midpoints="true"
     inkscape:snap-bbox-midpoints="true">
    <inkscape:grid
       spacingy="1"
       spacingx="1"
       id="grid5883"
       type="xygrid"
       enabled="true"
       visible="true"
       empspacing="4"
       snapvisiblegridlinesonly="true"
       dotted="false"
       color="#000000"
       opacity="0.1254902"
       empcolor="#203ef3"
       empopacity="0.36470588"
       originx="0"
       originy="0" />
    <inkscape:grid
       type="xygrid"
       id="grid11592"
       empspacing="8"
       visible="true"
       enabled="false"
       spacingx="0.5"
       spacingy="0.5"
       color="#ff0000"
       opacity="0.1254902"
       empcolor="#ff0000"
       empopacity="0.25098039"
       snapvisiblegridlinesonly="true"
       dotted="true"
       originx="0"
       originy="0" />
  </sodipodi:namedview>
  <defs
     id="defs3">
    <linearGradient
       inkscape:collect="always"
       xlink:href="#outerBackgroundGradient-04"
       id="linearGradient4260"
       x1="418"
       y1="68"
       x2="446"
       y2="68"
       gradientUnits="userSpaceOnUse"
       gradientTransform="matrix(0,-1,1,0,364,500)" />
    <linearGradient
       id="outerBackgroundGradient-04">
      <stop
         style="stop-color:#407aa2;stop-opacity:1"
         offset="0"
         id="stop3864-8-6-0" />
      <stop
         style="stop-color:#639cc3;stop-opacity:1"
         offset="1"
         id="stop3866-9-1-7" />
    </linearGradient>
  </defs>
  <metadata
     id="metadata4">
    <rdf:RDF>
      <cc:Work
         rdf:about="">
        <dc:format>image/svg+xml</dc:format>
        <dc:type
           rdf:resource="http://purl.org/dc/dcmitype/StillImage" />
        <dc:creator>
          <cc:Agent>
            <dc:title>Sam Hewitt</dc:title>
          </cc:Agent>
        </dc:creator>
        <dc:source />
        <cc:license
           rdf:resource="" />
        <dc:title />
        <dc:subject>
          <rdf:Bag />
        </dc:subject>
        <dc:date />
        <dc:rights>
          <cc:Agent>
            <dc:title />
          </cc:Agent>
        </dc:rights>
        <dc:publisher>
          <cc:Agent>
            <dc:title />
          </cc:Agent>
        </dc:publisher>
        <dc:identifier />
        <dc:relation />
        <dc:language />
        <dc:coverage />
        <dc:description />
        <dc:contributor>
          <cc:Agent>
            <dc:title />
          </cc:Agent>
        </dc:contributor>
      </cc:Work>
      <cc:Work
         rdf:about="">
        <dc:format>image/svg+xml</dc:format>
        <dc:type
           rdf:resource="http://purl.org/dc/dcmitype/StillImage" />
      </cc:Work>
    </rdf:RDF>
  </metadata>
  <g
     style="display:inline"
     inkscape:groupmode="layer"
     inkscape:label="Icon"
     id="layer1">
    <g
       style="display:none"
       inkscape:label="Baseplate"
       id="layer7"
       inkscape:groupmode="layer">
      <text
         y="19.745117"
         xml:space="preserve"
         x="15.006836"
         style="font-style:normal;font-variant:normal;font-weight:normal;font-stretch:normal;line-height:0%;font-family:'DejaVu Sans';-inkscape-font-specification:'DejaVu Sans';display:inline;fill:#000000;fill-opacity:1;stroke:none;enable-background:new"
         inkscape:label="context"
         id="context"><tspan
           style="font-style:normal;font-variant:normal;font-weight:normal;font-stretch:normal;font-size:18px;line-height:1.25;font-family:'DejaVu Sans';-inkscape-font-specification:'DejaVu Sans'"
           y="19.745117"
           x="15.006836"
           sodipodi:role="line"
           id="tspan3933">apps</tspan></text>
      <text
         y="19.745117"
         xml:space="preserve"
         x="122.48828"
         style="font-style:normal;font-variant:normal;font-weight:bold;font-stretch:normal;line-height:0%;font-family:'DejaVu Sans';-inkscape-font-specification:'DejaVu Sans Bold';text-align:start;writing-mode:lr-tb;text-anchor:start;display:inline;fill:#000000;fill-opacity:1;stroke:none;enable-background:new"
         inkscape:label="icon-name"
         id="icon-name"><tspan
           style="font-style:normal;font-variant:normal;font-weight:bold;font-stretch:normal;font-size:18px;line-height:1.25;font-family:'DejaVu Sans';-inkscape-font-specification:'DejaVu Sans Bold'"
           y="19.745117"
           x="122.48828"
           sodipodi:role="line"
           id="tspan3937">accessories-painting</tspan></text>
      <rect
         style="fill:#eeeeec;fill-opacity:1;fill-rule:nonzero;stroke:none;stroke-width:2;marker:none;visibility:visible;display:inline;overflow:visible;enable-background:accumulate"
         id="rect16x16"
         width="16"
         height="16"
         x="416"
         y="140"
         inkscape:label="16x16" />
      <rect
         style="fill:#d4d4d4;fill-opacity:1;fill-rule:nonzero;stroke:none;stroke-width:2;marker:none;visibility:visible;display:inline;overflow:visible;enable-background:accumulate"
         id="rect24x24"
         width="24"
         height="24"
         x="416"
         y="100"
         inkscape:label="24x24" />
      <rect
         style="fill:#eeeeec;fill-opacity:1;fill-rule:nonzero;stroke:none;stroke-width:2;marker:none;visibility:visible;display:inline;overflow:visible;enable-background:accumulate"
         id="rect32x32"
         width="32"
         height="32"
         x="416"
         y="52"
         inkscape:label="32x32" />
      <rect
         inkscape:label="22x22"
         y="101"
         x="417"
         height="22"
         width="22"
         id="rect22x22"
         style="fill:#eeeeec;fill-opacity:1;fill-rule:nonzero;stroke:none;stroke-width:2;marker:none;visibility:visible;display:inline;overflow:visible;enable-background:accumulate" />
      <rect
         inkscape:label="48x48"
         y="220"
         x="288"
         height="48"
         width="48"
         id="rect48x48"
         style="fill:#eeeeec;fill-opacity:1;fill-rule:nonzero;stroke:none;stroke-width:2;marker:none;visibility:visible;display:inline;overflow:visible;enable-background:accumulate" />
      <rect
         style="fill:#eeeeec;fill-opacity:1;fill-rule:nonzero;stroke:none;stroke-width:2;marker:none;visibility:visible;display:inline;overflow:visible;enable-background:accumulate"
         id="rect256x256"
         width="256"
         height="256"
         x="16"
         y="28"
         inkscape:label="256x256" />
      <rect
         style="fill:#eeeeec;fill-opacity:1;fill-rule:nonzero;stroke:none;stroke-width:2;marker:none;visibility:visible;display:inline;overflow:visible;enable-background:accumulate"
         id="rect64x64"
         width="64"
         height="64"
         x="288"
         y="140"
         inkscape:label="64x64" />
      <rect
         style="fill:#eeeeec;fill-opacity:1;fill-rule:nonzero;stroke:none;stroke-width:2;marker:none;visibility:visible;display:inline;overflow:visible;enable-background:accumulate"
         id="rect96x96"
         width="96"
         height="96"
         x="288"
         y="28"
         inkscape:label="96x96" />
    </g>
    <g
       inkscape:groupmode="layer"
       id="layer4"
       inkscape:label="Shadow"
       style="display:inline"
       sodipodi:insensitive="true">
      <rect
         ry="50"
         y="47"
         x="34"
         height="220"
         width="220"
         id="rect4114"
         style="opacity:0.1;color:#bebebe;fill:#000000;fill-opacity:1;fill-rule:nonzero;stroke:none;stroke-width:0;marker:none;visibility:visible;display:inline;overflow:visible;enable-background:accumulate" />
      <rect
         style="opacity:0.1;color:#bebebe;fill:#000000;fill-opacity:1;fill-rule:nonzero;stroke:none;stroke-width:0;marker:none;visibility:visible;display:inline;overflow:visible;enable-background:accumulate"
         id="rect4120"
         width="30"
         height="30"
         x="417"
         y="54"
         ry="7" />
      <rect
         transform="scale(1,-1)"
         ry="9"
         y="-266"
         x="291"
         height="42"
         width="42"
         id="rect4122"
         style="opacity:0.1;color:#bebebe;fill:#000000;fill-opacity:1;fill-rule:nonzero;stroke:none;stroke-width:0;marker:none;visibility:visible;display:inline;overflow:visible;enable-background:accumulate" />
      <rect
         style="opacity:0.1;color:#bebebe;fill:#000000;fill-opacity:1;fill-rule:nonzero;stroke:none;stroke-width:0;marker:none;visibility:visible;display:inline;overflow:visible;enable-background:accumulate"
         id="rect4124"
         width="88"
         height="88"
         x="292"
         y="33"
         ry="18" />
      <rect
         ry="12.5"
         y="143"
         x="290"
         height="60"
         width="60"
         id="rect4126"
         style="opacity:0.1;color:#bebebe;fill:#000000;fill-opacity:1;fill-rule:nonzero;stroke:none;stroke-width:0;marker:none;visibility:visible;display:inline;overflow:visible;enable-background:accumulate" />
      <path
         id="path4268"
         d="m 422,101 c -2.77,0 -5,2.23 -5,5 l 0,12 c 0,2.77 2.23,5 5,5 l 12,0 c 2.77,0 5,-2.23 5,-5 l 0,-12 c 0,-2.77 -2.23,-5 -5,-5 z"
         style="opacity:0.1;color:#bebebe;fill:#000000;fill-opacity:1;fill-rule:nonzero;stroke:none;stroke-width:0;marker:none;visibility:visible;display:inline;overflow:visible;enable-background:accumulate"
         inkscape:connector-curvature="0"
         sodipodi:nodetypes="sssssssss" />
      <path
         id="path4270"
         d="m 419,140 c -1.662,0 -3,1.338 -3,3 l 0,10 c 0,1.662 1.338,3 3,3 l 10,0 c 1.662,0 3,-1.338 3,-3 l 0,-10 c 0,-1.662 -1.338,-3 -3,-3 z"
         style="opacity:0.1;color:#bebebe;fill:#000000;fill-opacity:1;fill-rule:nonzero;stroke:none;stroke-width:0;marker:none;visibility:visible;display:inline;overflow:visible;enable-background:accumulate"
         inkscape:connector-curvature="0"
         sodipodi:nodetypes="sssssssss" />
    </g>
    <g
       inkscape:groupmode="layer"
       id="layer2"
       inkscape:label="Background"
       style="display:inline">
      <path
         style="color:#bebebe;display:inline;overflow:visible;visibility:visible;fill:#ffffff;fill-opacity:1;fill-rule:nonzero;stroke:none;stroke-width:2;marker:none;enable-background:accumulate"
         d="M 84,47.5 C 56.568735,47.5 34.5,69.568732 34.5,97 v 120 c 0,27.43127 22.068735,49.5 49.5,49.5 h 120 c 27.43127,0 49.5,-22.06873 49.5,-49.5 V 97 C 253.5,69.568732 231.43127,47.5 204,47.5 Z"
         id="path4200"
         inkscape:connector-curvature="0" />
      <path
         style="color:#bebebe;fill:#ffffff;fill-opacity:1;fill-rule:nonzero;stroke:none;stroke-width:2;marker:none;visibility:visible;display:inline;overflow:visible;enable-background:accumulate"
         d="M 419 140.5 C 417.6156 140.5 416.5 141.6156 416.5 143 L 416.5 153 C 416.5 154.3844 417.6156 155.5 419 155.5 L 429 155.5 C 430.3844 155.5 431.5 154.3844 431.5 153 L 431.5 143 C 431.5 141.6156 430.3844 140.5 429 140.5 L 419 140.5 z "
         id="path4202" />
      <path
         style="color:#bebebe;fill:#ffffff;fill-opacity:1;fill-rule:nonzero;stroke:none;stroke-width:2;marker:none;visibility:visible;display:inline;overflow:visible;enable-background:accumulate"
         d="M 422 101.5 C 419.50301 101.5 417.5 103.50301 417.5 106 L 417.5 118 C 417.5 120.49699 419.50301 122.5 422 122.5 L 434 122.5 C 436.49699 122.5 438.5 120.49699 438.5 118 L 438.5 106 C 438.5 103.50301 436.49699 101.5 434 101.5 L 422 101.5 z "
         id="path4204" />
      <path
         style="color:#bebebe;fill:url(#linearGradient4260);fill-opacity:1.0;fill-rule:nonzero;stroke:none;stroke-width:2;marker:none;visibility:visible;display:inline;overflow:visible;enable-background:accumulate"
         d="M 424 53.5 C 420.39346 53.5 417.5 56.393464 417.5 60 L 417.5 76 C 417.5 79.606536 420.39346 82.5 424 82.5 L 440 82.5 C 443.60654 82.5 446.5 79.606536 446.5 76 L 446.5 60 C 446.5 56.393464 443.60654 53.5 440 53.5 L 424 53.5 z "
         id="path4206" />
      <path
         style="color:#bebebe;fill:#ffffff;fill-opacity:1;fill-rule:nonzero;stroke:none;stroke-width:2;marker:none;visibility:visible;display:inline;overflow:visible;enable-background:accumulate"
         d="M 300 223.5 C 295.28469 223.5 291.5 227.28469 291.5 232 L 291.5 256 C 291.5 260.71531 295.28469 264.5 300 264.5 L 324 264.5 C 328.71531 264.5 332.5 260.71531 332.5 256 L 332.5 232 C 332.5 227.28469 328.71531 223.5 324 223.5 L 300 223.5 z "
         id="path4208" />
      <path
         style="color:#bebebe;fill:#ffffff;fill-opacity:1;fill-rule:nonzero;stroke:none;stroke-width:2;marker:none;visibility:visible;display:inline;overflow:visible;enable-background:accumulate"
         d="M 310 32.5 C 300.29745 32.5 292.5 40.297452 292.5 50 L 292.5 102 C 292.5 111.70255 300.29745 119.5 310 119.5 L 362 119.5 C 371.70255 119.5 379.5 111.70255 379.5 102 L 379.5 50 C 379.5 40.297452 371.70255 32.5 362 32.5 L 310 32.5 z "
         id="path4210" />
      <path
         style="color:#bebebe;fill:#ffffff;fill-opacity:1;fill-rule:nonzero;stroke:none;stroke-width:2;marker:none;visibility:visible;display:inline;overflow:visible;enable-background:accumulate"
         d="M 302.5 142.5 C 295.84498 142.5 290.5 147.84498 290.5 154.5 L 290.5 189.5 C 290.5 196.15502 295.84498 201.5 302.5 201.5 L 337.5 201.5 C 344.15502 201.5 349.5 196.15502 349.5 189.5 L 349.5 154.5 C 349.5 147.84498 344.15502 142.5 337.5 142.5 L 302.5 142.5 z "
         id="path4212" />
      <path
         style="fill:#000000;stroke:none;stroke-width:0.4339976px;stroke-linecap:butt;stroke-linejoin:miter;stroke-opacity:1"
         d="m 109.31669,251.51139 c 15.03345,-9.26874 22.15167,-19.68194 24.8549,-36.36008 1.27851,-7.88798 1.57677,-11.86042 0.85714,-11.41615 -0.31524,0.19461 -2.3873,1.58365 -4.6046,3.08675 -7.74134,5.24785 -17.253,9.12389 -25.48039,10.38333 -5.811218,0.88959 -15.343798,0.58875 -19.316568,-0.60961 -12.31481,-3.71468 -21.37207,-11.29317 -26.25603,-21.96925 -1.97405,-4.31517 -2.82033,-8.13354 -3.11503,-14.05502 -0.4468,-8.97746 0.83877,-18.09234 3.44237,-24.40666 3.76667,-9.13506 7.02089,-12.83018 26.70519,-30.3234 22.907688,-20.35781 36.236798,-35.461782 52.187798,-59.136995 l 5.44778,-8.085848 2.15213,3.303268 c 4.07947,6.261546 12.48296,18.090024 16.69643,23.501367 10.70737,13.751391 22.98521,26.442118 41.22437,42.610758 15.86269,14.06193 18.99763,17.52944 22.88239,25.30986 3.17263,6.35416 4.39664,11.87653 4.76962,21.51918 0.37407,9.67127 -0.77909,15.52063 -4.42912,22.46667 -5.21429,9.92281 -16.94939,18.1346 -28.62339,20.02957 -3.92195,0.63663 -11.77118,0.52158 -16.13402,-0.23649 -4.88295,-0.84843 -12.89788,-3.51365 -17.45156,-5.80319 -1.93479,-0.9728 -5.39157,-3.03913 -7.68175,-4.59187 -2.29015,-1.55273 -4.3538,-2.82314 -4.58585,-2.82314 -0.44625,0 -0.3459,1.27513 0.73445,9.33095 2.46989,18.41733 9.38478,28.58801 26.64937,39.19676 l 1.51899,0.93339 -37.73785,0.008 -37.73781,0.008 3.03104,-1.86877 z"
         id="path106"
         inkscape:connector-curvature="0" />
      <path
         id="path931"
         d="M 424 53.5 C 420.39346 53.5 417.5 56.393464 417.5 60 L 417.5 76 C 417.5 79.606536 420.39346 82.5 424 82.5 L 440 82.5 C 443.60654 82.5 446.5 79.606536 446.5 76 L 446.5 60 C 446.5 56.393464 443.60654 53.5 440 53.5 L 424 53.5 z "
         style="color:#bebebe;fill:#ffffff;fill-opacity:1;fill-rule:nonzero;stroke:none;stroke-width:2;marker:none;visibility:visible;display:inline;overflow:visible;enable-background:accumulate" />
      <path
         style="display:inline;fill:#000000;stroke:none;stroke-width:0.17354624px;stroke-linecap:butt;stroke-linejoin:miter;stroke-opacity:1;enable-background:new"
         d="m 322.13089,115.19315 c 6.01155,-3.70637 8.85797,-7.87038 9.93894,-14.53961 0.51125,-3.154225 0.63051,-4.742725 0.34275,-4.565065 -0.12606,0.0778 -0.95463,0.63326 -1.84128,1.23432 -3.09559,2.0985 -6.8991,3.648445 -10.18906,4.152065 -2.32377,0.35573 -6.13565,0.23544 -7.72427,-0.24377 -4.92443,-1.485415 -8.54623,-4.515885 -10.49922,-8.785025 -0.78938,-1.72554 -1.12779,-3.25242 -1.24563,-5.62029 -0.17867,-3.5899 0.3354,-7.23474 1.37653,-9.7597 1.50621,-3.65291 2.8075,-5.13051 10.67882,-12.12567 9.16029,-8.14065 14.49031,-14.1804 20.86877,-23.6476 l 2.17845,-3.23336 0.86059,1.32091 c 1.63129,2.50385 4.99167,7.2338 6.67654,9.39768 4.28165,5.49889 9.19129,10.57363 16.48474,17.03912 6.34314,5.62306 7.59674,7.00965 9.15017,10.12087 1.26866,2.54089 1.75812,4.74916 1.90727,8.60505 0.14958,3.86733 -0.31155,6.20637 -1.77111,8.98394 -2.08509,3.96791 -6.7777,7.251625 -11.44588,8.009385 -1.5683,0.25457 -4.70704,0.20857 -6.45164,-0.0946 -1.95259,-0.33927 -5.15759,-1.40503 -6.9785,-2.320565 -0.77368,-0.389 -2.15598,-1.21528 -3.07177,-1.83619 -0.91578,-0.6209 -1.74099,-1.12891 -1.83378,-1.12891 -0.17845,0 -0.13832,0.5099 0.29369,3.73124 0.98765,7.364695 3.75277,11.431725 10.65651,15.673935 l 0.60741,0.37324 -15.09055,0.003 -15.09054,0.003 1.21205,-0.74728 z"
         id="path106-6"
         inkscape:connector-curvature="0" />
      <path
         style="display:inline;fill:#000000;stroke:none;stroke-width:0.114495px;stroke-linecap:butt;stroke-linejoin:miter;stroke-opacity:1;enable-background:new"
         d="m 310.85002,197.19744 c 3.96605,-2.44524 5.84394,-5.19238 6.55709,-9.59234 0.33729,-2.08096 0.41597,-3.12895 0.22613,-3.01174 -0.0832,0.0513 -0.62981,0.41779 -1.21476,0.81434 -2.04228,1.38445 -4.5516,2.40701 -6.72211,2.73927 -1.53308,0.23469 -4.04792,0.15533 -5.09599,-0.16083 -3.24884,-0.97999 -5.63827,-2.97929 -6.92673,-5.79581 -0.52079,-1.13841 -0.74405,-2.14575 -0.82179,-3.70792 -0.11788,-2.36839 0.22127,-4.77303 0.90814,-6.43884 0.99371,-2.40996 1.85222,-3.3848 7.04523,-7.99977 6.04338,-5.37069 9.5598,-9.35534 13.76791,-15.60121 l 1.43721,-2.13317 0.56776,0.87145 c 1.07622,1.65189 3.29319,4.77241 4.40477,6.20001 2.82476,3.62782 6.06384,6.97582 10.8756,11.24135 4.18481,3.70974 5.01186,4.62453 6.03671,6.67712 0.83699,1.67632 1.1599,3.1332 1.2583,5.67707 0.0987,2.55143 -0.20554,4.09458 -1.16847,5.92705 -1.37561,2.61778 -4.4715,4.78417 -7.55128,5.28409 -1.03466,0.16795 -3.10541,0.1376 -4.25639,-0.0624 -1.28819,-0.22383 -3.40265,-0.92695 -4.60398,-1.53096 -0.51042,-0.25664 -1.42238,-0.80177 -2.02656,-1.21141 -0.60417,-0.40963 -1.1486,-0.74478 -1.20981,-0.74478 -0.11773,0 -0.0913,0.3364 0.19376,2.46164 0.65159,4.85876 2.47584,7.54194 7.0305,10.34068 l 0.40073,0.24624 -9.95581,0.002 -9.9558,0.002 0.79964,-0.49301 z"
         id="path106-6-7"
         inkscape:connector-curvature="0" />
      <path
         style="display:inline;fill:#000000;stroke:none;stroke-width:0.07730458px;stroke-linecap:butt;stroke-linejoin:miter;stroke-opacity:1;enable-background:new"
         d="m 305.79563,261.16794 c 2.67778,-1.651 3.9457,-3.5058 4.42721,-6.47655 0.22775,-1.40503 0.28085,-2.11261 0.15267,-2.03348 -0.056,0.0346 -0.42522,0.2821 -0.82017,0.54983 -1.37892,0.93476 -3.07315,1.62517 -4.53863,1.84951 -1.0351,0.15846 -2.73306,0.10485 -3.44068,-0.10856 -2.19358,-0.66166 -3.80686,-2.01155 -4.67682,-3.91319 -0.3516,-0.76865 -0.50235,-1.44878 -0.55484,-2.50351 -0.0795,-1.59909 0.14938,-3.22267 0.61316,-4.34738 0.67093,-1.62715 1.25058,-2.28536 4.75678,-5.40129 4.08038,-3.62616 6.45457,-6.31651 9.29582,-10.53358 l 0.97037,-1.44028 0.38332,0.58838 c 0.72665,1.11533 2.22349,3.22225 2.97403,4.18612 1.90721,2.44943 4.09417,4.70993 7.34297,7.58992 2.8255,2.50472 3.38388,3.12239 4.07585,4.50825 0.56512,1.13181 0.78315,2.11549 0.84957,3.83304 0.0666,1.72268 -0.13877,2.76457 -0.78892,4.00184 -0.92877,1.76744 -3.01907,3.23015 -5.09846,3.56769 -0.69859,0.11345 -2.09671,0.0929 -2.87382,-0.0421 -0.86976,-0.15111 -2.29741,-0.62586 -3.10851,-1.03366 -0.34463,-0.1733 -0.96037,-0.54135 -1.3683,-0.81793 -0.40792,-0.27657 -0.77552,-0.50286 -0.81685,-0.50286 -0.0795,0 -0.0618,0.22714 0.13084,1.66203 0.43992,3.28055 1.67164,5.09216 4.74685,6.98182 l 0.27057,0.16627 -6.72196,9.1e-4 -6.72195,9.3e-4 0.5399,-0.33288 z"
         id="path106-6-7-5"
         inkscape:connector-curvature="0" />
      <path
         style="display:inline;fill:#000000;stroke:none;stroke-width:0.05321547px;stroke-linecap:butt;stroke-linejoin:miter;stroke-opacity:1;enable-background:new"
         d="m 427.74723,79.711325 c 1.84336,-1.13651 2.71617,-2.41334 3.04763,-4.45837 0.15677,-0.9672 0.19334,-1.45428 0.10511,-1.39981 -0.0387,0.0238 -0.29273,0.19419 -0.56461,0.3785 -0.94922,0.64347 -2.11551,1.11874 -3.12433,1.27316 -0.71255,0.10909 -1.88141,0.0722 -2.36853,-0.0747 -1.51001,-0.45548 -2.62058,-1.38472 -3.21944,-2.6938 -0.24205,-0.52911 -0.34582,-0.99731 -0.38195,-1.72338 -0.0548,-1.10079 0.10284,-2.21843 0.42209,-2.99267 0.46186,-1.12011 0.86088,-1.5732 3.27451,-3.71817 2.80887,-2.49621 4.44324,-4.34821 6.39911,-7.2512 l 0.66799,-0.99146 0.26388,0.40504 c 0.50021,0.76777 1.53063,2.21814 2.04727,2.88166 1.31291,1.68616 2.81838,3.24225 5.05481,5.22481 1.94503,1.72422 2.32943,2.1494 2.80577,3.10342 0.38902,0.77912 0.5391,1.45626 0.58484,2.63861 0.0459,1.18586 -0.0955,1.9031 -0.54309,2.7548 -0.63936,1.2167 -2.07828,2.22361 -3.50972,2.45596 -0.48089,0.0781 -1.44334,0.064 -1.9783,-0.029 -0.59873,-0.10403 -1.5815,-0.43083 -2.13986,-0.71157 -0.23723,-0.11928 -0.6611,-0.37265 -0.94191,-0.56304 -0.28081,-0.19039 -0.53385,-0.34616 -0.5623,-0.34616 -0.0547,0 -0.0424,0.15635 0.0901,1.14413 0.30284,2.25827 1.15073,3.50537 3.26766,4.80618 l 0.18625,0.11445 -4.6273,9.3e-4 -4.6273,9.3e-4 0.37166,-0.22914 z"
         id="path106-6-7-3"
         inkscape:connector-curvature="0" />
      <path
         style="display:inline;fill:#000000;stroke:none;stroke-width:0.0398454px;stroke-linecap:butt;stroke-linejoin:miter;stroke-opacity:1;enable-background:new"
         d="m 424.81571,120.76898 c 1.38023,-0.85097 2.03376,-1.80701 2.28193,-3.33823 0.11738,-0.72419 0.14477,-1.08891 0.0787,-1.04812 -0.0289,0.0179 -0.21918,0.1454 -0.42275,0.2834 -0.71073,0.4818 -1.584,0.83767 -2.33935,0.9533 -0.53354,0.0816 -1.40873,0.054 -1.77346,-0.056 -1.13064,-0.34105 -1.96217,-1.03682 -2.41058,-2.01699 -0.18124,-0.39618 -0.25893,-0.74674 -0.28598,-1.2904 -0.041,-0.82422 0.077,-1.66106 0.31603,-2.24078 0.34582,-0.83869 0.6446,-1.17795 2.45182,-2.784 2.10316,-1.86906 3.3269,-3.25575 4.79136,-5.42938 l 0.50017,-0.74236 0.19759,0.30327 c 0.37453,0.57488 1.14606,1.66085 1.5329,2.15767 0.98304,1.26251 2.11028,2.42765 3.78482,3.91209 1.45636,1.29103 1.74418,1.60938 2.10083,2.32371 0.29128,0.58337 0.40366,1.09038 0.4379,1.97567 0.0343,0.88792 -0.0715,1.42496 -0.40663,2.06269 -0.47873,0.911 -1.55614,1.66493 -2.62793,1.8389 -0.36007,0.0584 -1.08071,0.0478 -1.48127,-0.0217 -0.4483,-0.0779 -1.18415,-0.32258 -1.60222,-0.53278 -0.17763,-0.0893 -0.49501,-0.27904 -0.70527,-0.42159 -0.21025,-0.14255 -0.39972,-0.25919 -0.42102,-0.25919 -0.041,0 -0.0318,0.11707 0.0674,0.85666 0.22676,1.69091 0.86162,2.62468 2.44669,3.59867 l 0.13945,0.0857 -3.46471,7e-4 -3.46472,7e-4 0.27827,-0.17158 z"
         id="path106-6-7-56"
         inkscape:connector-curvature="0" />
      <path
         style="display:inline;fill:#000000;stroke:none;stroke-width:0.02536116px;stroke-linecap:butt;stroke-linejoin:miter;stroke-opacity:1;enable-background:new"
         d="m 421.97323,153.58139 c 0.8785,-0.54164 1.29446,-1.15013 1.45241,-2.12475 0.0748,-0.46095 0.0922,-0.69308 0.0501,-0.66711 -0.0185,0.0115 -0.13951,0.0925 -0.26908,0.18037 -0.45236,0.30667 -1.00819,0.53317 -1.48897,0.60676 -0.33958,0.052 -0.89663,0.0344 -1.12879,-0.0356 -0.71962,-0.21707 -1.2489,-0.65993 -1.53429,-1.28379 -0.11537,-0.25216 -0.16481,-0.47529 -0.18204,-0.82133 -0.0261,-0.5246 0.0491,-1.05724 0.20116,-1.42623 0.22011,-0.53382 0.41028,-0.74975 1.56056,-1.77199 1.33862,-1.18963 2.11753,-2.07224 3.04964,-3.45573 l 0.31836,-0.47251 0.12575,0.19303 c 0.23839,0.36591 0.72946,1.05711 0.97568,1.37333 0.6257,0.80358 1.34317,1.54517 2.40899,2.49001 0.92697,0.82172 1.11016,1.02435 1.33717,1.47901 0.18539,0.37132 0.25692,0.69402 0.27871,1.25751 0.0219,0.56514 -0.0455,0.90696 -0.25882,1.31286 -0.3047,0.57985 -0.99046,1.05971 -1.67264,1.17045 -0.22919,0.0372 -0.68785,0.0305 -0.94281,-0.0139 -0.28534,-0.0497 -0.7537,-0.20532 -1.01981,-0.33911 -0.11299,-0.0569 -0.31505,-0.1776 -0.44888,-0.26833 -0.13383,-0.0908 -0.25442,-0.16498 -0.26798,-0.16498 -0.026,0 -0.0202,0.0745 0.043,0.54527 0.14433,1.07623 0.5484,1.67058 1.55728,2.29051 l 0.0888,0.0545 -2.20526,4.5e-4 -2.20524,4.3e-4 0.17712,-0.10919 z"
         id="path106-6-7-2"
         inkscape:connector-curvature="0" />
      <path
         style="fill:#ebe9e7;stroke:none;stroke-width:0.5px;stroke-linecap:butt;stroke-linejoin:miter;stroke-opacity:1"
         d="m 79.20982,264.55613 c -7.329353,-1.10079 -12.00677,-2.44522 -16.75,-4.81445 -14.142126,-7.06395 -23.806991,-20.10205 -26.509406,-35.76171 -0.666768,-3.86372 -0.745679,-12.92324 -0.610968,-70.14334 0.171149,-72.697487 -0.08949,-66.906744 3.421192,-76.010245 2.919353,-7.570137 10.091624,-16.556207 17.017976,-21.321662 3.617652,-2.489011 9.897531,-5.466544 14.706762,-6.973045 l 4.474444,-1.401628 66.75,-0.140707 c 45.57094,-0.09606 67.86051,0.02899 70.25,0.394133 5.1618,0.788783 12.70636,3.533667 17.33459,6.306721 4.78826,2.868932 11.58585,9.098133 14.71776,13.487122 2.89864,4.062078 5.83956,10.399086 7.28742,15.702731 l 1.16023,4.25 v 67.5 c 0,62.91222 -0.0603,67.75487 -0.88771,71.25 -4.63234,19.56883 -20.52337,34.24211 -40.36229,37.26931 -3.9772,0.60687 -14.99981,0.71419 -67.75,0.65965 -34.65,-0.0358 -63.5625,-0.14963 -64.25,-0.25288 z m 102.45833,-11.3728 c -0.11458,-0.10819 -2.27781,-1.57718 -4.80717,-3.26442 -5.10615,-3.4061 -11.70843,-9.37062 -14.33836,-12.95331 -2.39404,-3.26133 -4.9786,-8.60456 -6.48573,-13.40835 -1.20217,-3.83179 -3.61487,-18.55607 -3.12143,-19.04951 0.12492,-0.12492 2.64186,1.28869 5.5932,3.14134 6.30457,3.95758 9.71039,5.55965 16.26963,7.65307 6.32765,2.01952 9.96986,2.57138 16.93153,2.56544 12.12751,-0.0104 20.69283,-3.57706 29.27999,-12.19259 8.96128,-8.99087 12.08866,-18.95529 10.74898,-34.24819 -0.7365,-8.40736 -1.62172,-11.90093 -4.52906,-17.87434 -4.0376,-8.2956 -6.65409,-11.15196 -26.49991,-28.92926 -9.78321,-8.76351 -23.27488,-22.27955 -29.69087,-29.744501 -6.15312,-7.15911 -15.05552,-19.004392 -21.78046,-28.980467 -2.823,-4.187773 -5.29923,-7.423796 -5.50273,-7.191162 -0.2035,0.232633 -2.81542,4.02297 -5.80426,8.42297 -15.85296,23.337791 -27.18681,36.15152 -51.97168,58.75771 -13.951614,12.72522 -19.671758,18.4194 -22.092569,21.99229 -5.394142,7.96125 -7.749433,16.8654 -7.734241,29.23919 0.0099,8.02358 0.781518,12.52879 2.974318,17.3649 4.676272,10.3133 13.445984,17.95594 25.118972,21.89071 4.141365,1.39598 14.45136,1.91738 20.48082,1.03576 8.20446,-1.19965 17.27524,-4.84118 25.5277,-10.24826 5.79835,-3.79913 5.4827,-4.14875 4.20151,4.65353 -2.71507,18.65373 -8.98703,28.75324 -23.97534,38.60662 l -4.49883,2.95755 h 37.95716 c 20.87644,0 37.86341,-0.0885 37.74883,-0.19672 z"
         id="path83"
         inkscape:connector-curvature="0" />
      <path
         style="fill:#ebe9e7;stroke:none;stroke-width:0.5px;stroke-linecap:butt;stroke-linejoin:miter;stroke-opacity:1"
         d="m 305.61143,118.19003 c -4.60317,-1.25818 -8.63137,-4.72016 -10.83269,-9.30998 l -1.31892,-2.75 v -30.25 -30.25 L 294.86,42.778743 c 1.75994,-3.583902 5.5168,-7.015171 9.18249,-8.386683 2.72455,-1.019385 3.42959,-1.03874 32.85082,-0.901876 l 30.06651,0.139866 2.5099,1.325098 c 3.27855,1.730903 6.82955,5.572656 8.03138,8.688985 0.9067,2.351024 0.95872,4.11437 0.95872,32.49643 v 30.010507 l -1.6499,3.35141 c -1.82467,3.70645 -4.38582,6.14643 -8.38993,7.99301 -2.45912,1.13407 -2.47253,1.1346 -31.46017,1.23549 -22.31465,0.0777 -29.54137,-0.047 -31.34839,-0.54095 z m 45.59749,-2.18498 c -4.9e-4,-0.20625 -0.95674,-0.98048 -2.125,-1.72052 -2.79232,-1.7688 -5.53319,-4.65771 -6.85189,-7.22197 -1.07816,-2.09654 -2.8419,-9.529485 -2.37258,-9.998805 0.14074,-0.14074 1.17298,0.32304 2.29387,1.030625 3.28621,2.0745 9.04978,3.78567 12.7509,3.78567 4.79382,0 8.39278,-1.50718 11.84685,-4.96125 3.77965,-3.779655 4.66945,-6.4396 4.35294,-13.01262 -0.39478,-8.198231 -1.24126,-9.456214 -14.77291,-21.954316 -6.67767,-6.167625 -12.43489,-12.769172 -17.18736,-19.707975 -1.6763,-2.447465 -3.21327,-4.261815 -3.41547,-4.031888 -0.20221,0.229927 -1.78473,2.443049 -3.51672,4.918049 -5.87466,8.394848 -9.98432,12.850649 -23.30315,25.265889 -4.92809,4.593751 -6.41358,6.770257 -7.48616,10.968581 -1.84244,7.21176 -0.20071,14.151145 4.31254,18.228595 3.49433,3.156915 5.99372,4.036125 11.47504,4.036555 5.04481,4e-4 8.35577,-0.94753 12.67224,-3.628085 1.05723,-0.656545 2.05216,-1.063805 2.21094,-0.905015 0.53064,0.530635 -0.92726,6.93858 -2.18213,9.59115 -1.26781,2.67993 -6.26288,7.82718 -8.18904,8.43852 -3.05746,0.9704 0.16087,1.25381 14.23799,1.25381 8.3875,0 15.2496,-0.16875 15.2491,-0.375 z"
         id="path85"
         inkscape:connector-curvature="0" />
      <path
         style="fill:#ebe9e7;stroke:none;stroke-width:0.5px;stroke-linecap:butt;stroke-linejoin:miter;stroke-opacity:1"
         d="m 299.70658,200.4238 c -3.72391,-1.16522 -5.87066,-3.04963 -7.45475,-6.54375 -0.97107,-2.14197 -1.02058,-3.20155 -1.03103,-22.0679 l -0.011,-19.81791 1.39672,-2.68209 c 1.08013,-2.07416 2.01513,-3.0537 4.125,-4.32152 l 2.72828,-1.63942 21.08256,0.13942 21.08256,0.13942 2.16744,1.50309 c 1.41911,0.98414 2.64217,2.43929 3.54244,4.21466 l 1.375,2.71156 -0.003,19.53535 c -0.002,11.13323 -0.21222,20.28801 -0.48972,21.28534 -0.65908,2.36867 -3.15976,5.29134 -5.68086,6.63951 -2.03553,1.08851 -2.46757,1.11233 -21.82663,1.20343 -10.8625,0.0511 -20.31396,-0.0835 -21.00324,-0.29919 z m 30.22824,-2.94634 c -0.26125,-0.22142 -1.31373,-1.01654 -2.33885,-1.76694 -1.02512,-0.7504 -2.43046,-2.3312 -3.12298,-3.5129 -1.24982,-2.13265 -2.34319,-7.15748 -1.46537,-6.73445 0.24871,0.11986 1.5772,0.76894 2.9522,1.4424 2.03181,0.99516 3.26445,1.22448 6.58193,1.22448 3.72651,0 4.2707,-0.13119 6.25,-1.50669 3.07916,-2.13984 4.42097,-5.02444 4.40709,-9.47426 -0.0155,-4.94608 -1.09165,-7.00241 -6.09771,-11.65091 -6.69291,-6.21487 -10.72742,-10.59736 -13.77891,-14.96735 -1.57432,-2.25456 -3.01582,-4.11081 -3.20334,-4.125 -0.18752,-0.0142 -1.74878,1.94296 -3.46948,4.34921 -1.77353,2.48014 -6.52299,7.7316 -10.96593,12.125 -8.80096,8.70281 -9.27817,9.54712 -8.8851,15.72012 0.25547,4.0121 2.04583,6.86882 5.41145,8.63455 3.16428,1.6601 8.56641,1.41325 12.44928,-0.56887 l 2.69927,-1.37792 -0.31493,2.29766 c -0.44764,3.26587 -1.93229,5.87274 -4.69145,8.23765 l -2.39217,2.05035 10.225,0.003 c 5.62375,0.002 10.01125,-0.17793 9.75,-0.39935 z"
         id="path87"
         inkscape:connector-curvature="0" />
      <path
         style="fill:#ebe9e7;stroke:none;stroke-width:0.5px;stroke-linecap:butt;stroke-linejoin:miter;stroke-opacity:1"
         d="m 297.95982,263.53544 c -1.74647,-0.44931 -4.33163,-2.72863 -5.05305,-4.45524 -0.53769,-1.28688 -0.69695,-4.76109 -0.69695,-15.20401 0,-12.47802 0.0769,-13.6868 0.98446,-15.46567 0.54145,-1.06134 1.74926,-2.40237 2.68401,-2.98008 1.6244,-1.00393 2.34052,-1.05039 16.19161,-1.05039 20.70456,0 19.63799,-1.07537 19.63914,19.80106 7.6e-4,13.749 -0.0234,14.08659 -1.12422,15.70402 -0.61875,0.90914 -1.75973,2.12366 -2.53552,2.69895 -1.3445,0.99702 -2.0582,1.04978 -15.25,1.1273 -7.61171,0.0447 -14.28948,-0.0344 -14.83948,-0.17594 z m 20.75,-1.90669 c 0,-0.13822 -0.87311,-1.04011 -1.94025,-2.0042 -1.28574,-1.16159 -2.12045,-2.46287 -2.47446,-3.85756 -0.29383,-1.15757 -0.46974,-2.16916 -0.39092,-2.24797 0.0788,-0.0788 0.88372,0.22606 1.78868,0.67752 2.25561,1.12524 5.69266,1.43916 7.51097,0.68599 0.83082,-0.34414 2.18455,-1.39331 3.00828,-2.33149 1.26812,-1.4443 1.4977,-2.11968 1.4977,-4.40584 0,-1.48503 -0.23052,-3.30637 -0.51227,-4.04743 -0.28175,-0.74105 -3.04936,-3.84945 -6.15025,-6.90755 -3.10089,-3.05809 -6.30162,-6.62852 -7.11273,-7.93428 -0.81111,-1.30575 -1.69975,-2.3741 -1.97475,-2.3741 -0.275,0 -1.16512,1.06835 -1.97805,2.3741 -0.81293,1.30576 -4.11772,4.99782 -7.34399,8.20457 -6.34853,6.31013 -6.81131,7.17229 -6.29738,11.73191 0.5908,5.24151 6.44524,7.71851 11.85928,5.01763 0.91986,-0.45888 1.76323,-0.74357 1.87417,-0.63264 0.67572,0.67573 -1.10963,4.40816 -2.86879,5.99746 -1.09738,0.99142 -1.99524,1.91566 -1.99524,2.05388 0,0.13821 3.0375,0.2513 6.75,0.2513 3.7125,0 6.75,-0.11309 6.75,-0.2513 z"
         id="path89"
         inkscape:connector-curvature="0" />
      <path
         style="fill:#ebe9e7;stroke:none;stroke-width:0.5px;stroke-linecap:butt;stroke-linejoin:miter;stroke-opacity:1"
         d="m 421.95982,81.403036 c -0.55,-0.227495 -1.5625,-1.018281 -2.25,-1.757302 -1.22949,-1.321627 -1.25256,-1.500084 -1.40603,-10.876218 -0.16787,-10.256012 0.0722,-11.661033 2.29114,-13.406413 1.1501,-0.904669 2.06565,-0.983053 11.48232,-0.983053 h 10.23257 l 1.7,1.7 1.7,1.7 v 9.847854 c 0,14.351082 0.079,14.269832 -13.82556,14.220453 -4.90844,-0.01743 -9.37444,-0.217826 -9.92444,-0.445321 z m 14.75,-1.469492 c 0,-0.245578 -0.32439,-0.570985 -0.72087,-0.723128 -0.83103,-0.318896 -2.02513,-2.077803 -2.50658,-3.692183 -0.32574,-1.092263 -0.30056,-1.098858 1.43188,-0.375 2.44014,1.019554 3.87071,0.92401 5.81226,-0.388183 3.6104,-2.440074 2.99926,-6.160187 -1.78658,-10.875253 -1.81418,-1.787361 -4.10979,-4.345745 -5.10135,-5.685298 l -1.80283,-2.435552 -1.02115,1.435552 c -0.56163,0.789553 -2.99746,3.496502 -5.41296,6.015443 -4.3578,4.544415 -4.39182,4.599785 -4.39182,7.147728 0,2.047926 0.24437,2.812203 1.20694,3.774773 1.70741,1.707408 3.60612,2.056949 6.16839,1.135562 2.13059,-0.766158 2.15254,-0.762656 1.83844,0.293314 -0.46828,1.574302 -1.66995,3.333301 -2.4929,3.649097 -1.86462,0.715521 -0.3003,1.169634 4.02913,1.169634 2.6125,0 4.75,-0.200928 4.75,-0.446506 z"
         id="path91"
         inkscape:connector-curvature="0" />
      <path
         style="fill:#ebe9e7;stroke:none;stroke-width:0.5px;stroke-linecap:butt;stroke-linejoin:miter;stroke-opacity:1"
         d="m 420.36751,121.37656 c -1.85353,-0.7468 -2.15769,-2.10379 -2.15769,-9.62648 0,-9.71946 -0.36946,-9.37003 9.90723,-9.37003 10.09383,0 9.59277,-0.4974 9.59277,9.52273 0,7.32042 -0.033,7.55573 -1.22727,8.75 -1.18801,1.188 -1.44797,1.22626 -8.125,1.19558 -3.79375,-0.0174 -7.38927,-0.22974 -7.99004,-0.4718 z m 10.13676,-1.53487 c -1.58747,-1.8866 -1.76747,-3.24998 -0.32732,-2.47923 1.50894,0.80756 3.27656,0.61312 4.71544,-0.5187 1.0246,-0.80595 1.31743,-1.47375 1.31743,-3.00441 0,-1.7705 -0.41422,-2.4171 -4.125,-6.43923 l -4.125,-4.47111 -1.23129,1.60052 c -0.6772,0.88029 -2.4374,2.74478 -3.91155,4.14331 -2.16466,2.05364 -2.73301,2.93604 -2.95445,4.58699 -0.23256,1.73388 -0.0786,2.23973 1.01383,3.33221 1.35448,1.35448 3.22243,1.65021 4.86633,0.77042 0.79678,-0.42643 0.96713,-0.352 0.96713,0.4225 0,0.51706 -0.45,1.34735 -1,1.84509 -0.55,0.49774 -1,1.09512 -1,1.32749 0,0.23238 1.595,0.42251 3.54445,0.42251 h 3.54444 z"
         id="path93"
         inkscape:connector-curvature="0" />
      <path
         style="fill:#ebe9e7;stroke:none;stroke-width:0.5px;stroke-linecap:butt;stroke-linejoin:miter;stroke-opacity:1"
         d="m 417.75471,154.18414 c -0.38418,-0.46291 -0.53024,-2.6811 -0.43623,-6.625 l 0.14134,-5.92909 h 6.5 6.5 l 0.14134,5.92909 c 0.094,3.9439 -0.0521,6.16209 -0.43623,6.625 -0.8267,0.99611 -11.58353,0.99611 -12.41022,0 z m 7.64034,-1.58276 c -0.83125,-1.26866 -0.82779,-1.27616 0.44191,-0.95749 1.97,0.49444 3.37479,-0.51105 3.36207,-2.40643 -0.008,-1.24805 -0.58793,-2.2076 -2.59231,-4.29201 l -2.58152,-2.68459 -2.65769,2.76562 c -2.83637,2.95157 -3.33122,4.60861 -1.82584,6.11399 0.56103,0.56103 1.29353,0.7395 2.24999,0.54821 1.6236,-0.32472 1.7645,-0.0201 0.59067,1.277 -0.79046,0.87345 -0.72281,0.91437 1.51152,0.91437 h 2.33902 z"
         id="path95"
         inkscape:connector-curvature="0" />
    </g>
    <g
       inkscape:groupmode="layer"
       id="layer6"
       inkscape:label="Symbols"
       style="display:inline" />
    <g
       inkscape:groupmode="layer"
       id="layer5"
       inkscape:label="Highlights"
       style="display:inline"
       sodipodi:insensitive="true">
      <path
         style="opacity:0.12999998;color:#bebebe;fill:#ffffff;fill-opacity:1;fill-rule:nonzero;stroke:none;stroke-width:0;marker:none;visibility:visible;display:inline;overflow:visible;enable-background:accumulate"
         d="M 84,47 C 56.836703,47 35,68.836703 35,96 l 0,1 C 35,69.836703 56.836703,48 84,48 l 120,0 c 27.1633,0 49,21.836703 49,49 l 0,-1 C 253,68.836703 231.1633,47 204,47 L 84,47 z"
         id="rect3894"
         inkscape:connector-curvature="0" />
      <path
         style="opacity:0.12999998;color:#bebebe;fill:#ffffff;fill-opacity:1;fill-rule:nonzero;stroke:none;stroke-width:0;marker:none;visibility:visible;display:inline;overflow:visible;enable-background:accumulate"
         d="m 419,141 c -1.1253,0 -2,0.8747 -2,2 l 0,1 c 0,-1.1253 0.8747,-2 2,-2 l 10,0 c 1.1253,0 2,0.8747 2,2 l 0,-1 c 0,-1.1253 -0.8747,-2 -2,-2 l -10,0 z"
         id="rect3896"
         inkscape:connector-curvature="0" />
      <path
         style="opacity:0.12999998;color:#bebebe;fill:#ffffff;fill-opacity:1;fill-rule:nonzero;stroke:none;stroke-width:0;marker:none;visibility:visible;display:inline;overflow:visible;enable-background:accumulate"
         d="m 422,102 c -2.2333,0 -4,1.7667 -4,4 l 0,1 c 0,-2.2333 1.7667,-4 4,-4 l 12,0 c 2.2333,0 4,1.7667 4,4 l 0,-1 c 0,-2.2333 -1.7667,-4 -4,-4 l -12,0 z"
         id="rect3898"
         inkscape:connector-curvature="0" />
      <path
         style="opacity:0.12999998;color:#bebebe;fill:#ffffff;fill-opacity:1;fill-rule:nonzero;stroke:none;stroke-width:0;marker:none;visibility:visible;display:inline;overflow:visible;enable-background:accumulate"
         d="m 424,54 c -3.3413,0 -6,2.658703 -6,6 l 0,1 c 0,-3.341297 2.6587,-6 6,-6 l 16,0 c 3.3413,0 6,2.658703 6,6 l 0,-1 c 0,-3.341297 -2.6587,-6 -6,-6 l -16,0 z"
         id="rect3900"
         inkscape:connector-curvature="0" />
      <path
         style="opacity:0.12999998;color:#bebebe;fill:#ffffff;fill-opacity:1;fill-rule:nonzero;stroke:none;stroke-width:0;marker:none;visibility:visible;display:inline;overflow:visible;enable-background:accumulate"
         d="m 300,224 c -4.4493,0 -8,3.5507 -8,8 l 0,1 c 0,-4.4493 3.5507,-8 8,-8 l 24,0 c 4.4493,0 8,3.5507 8,8 l 0,-1 c 0,-4.4493 -3.5507,-8 -8,-8 l -24,0 z"
         id="rect3902"
         inkscape:connector-curvature="0" />
      <path
         style="opacity:0.12999998;color:#bebebe;fill:#ffffff;fill-opacity:1;fill-rule:nonzero;stroke:none;stroke-width:0;marker:none;visibility:visible;display:inline;overflow:visible;enable-background:accumulate"
         d="m 310,33 c -9.4353,0 -17,7.564703 -17,17 l 0,1 c 0,-9.435297 7.5647,-17 17,-17 l 52,0 c 9.4353,0 17,7.564703 17,17 l 0,-1 c 0,-9.435297 -7.5647,-17 -17,-17 l -52,0 z"
         id="rect3904"
         inkscape:connector-curvature="0" />
      <path
         style="opacity:0.12999998;color:#bebebe;fill:#ffffff;fill-opacity:1;fill-rule:nonzero;stroke:none;stroke-width:0;marker:none;visibility:visible;display:inline;overflow:visible;enable-background:accumulate"
         d="m 302.5,143 c -6.3883,0 -11.5,5.1117 -11.5,11.5 l 0,1 c 0,-6.3883 5.1117,-11.5 11.5,-11.5 l 35,0 c 6.3883,0 11.5,5.1117 11.5,11.5 l 0,-1 c 0,-6.3883 -5.1117,-11.5 -11.5,-11.5 l -35,0 z"
         id="rect3906"
         inkscape:connector-curvature="0" />
      <path
         id="path4085"
         d="m 204,266 c 27.1633,0 49,-21.8367 49,-49 l 0,-1 c 0,27.1633 -21.8367,49 -49,49 L 84,265 C 56.8367,265 35,243.1633 35,216 l 0,1 c 0,27.1633 21.8367,49 49,49 l 120,0 z"
         style="opacity:0.5;color:#bebebe;fill:#000000;fill-opacity:1;fill-rule:nonzero;stroke:none;stroke-width:0;marker:none;visibility:visible;display:inline;overflow:visible;enable-background:accumulate"
         inkscape:connector-curvature="0" />
      <path
         id="path4087"
         d="m 429,156 c 1.1253,0 2,-0.8747 2,-2 l 0,-1 c 0,1.1253 -0.8747,2 -2,2 l -10,0 c -1.1253,0 -2,-0.8747 -2,-2 l 0,1 c 0,1.1253 0.8747,2 2,2 l 10,0 z"
         style="opacity:0.3;color:#bebebe;fill:#000000;fill-opacity:1;fill-rule:nonzero;stroke:none;stroke-width:0;marker:none;visibility:visible;display:inline;overflow:visible;enable-background:accumulate"
         inkscape:connector-curvature="0" />
      <path
         id="path4089"
         d="m 434,123 c 2.2333,0 4,-1.7667 4,-4 l 0,-1 c 0,2.2333 -1.7667,4 -4,4 l -12,0 c -2.2333,0 -4,-1.7667 -4,-4 l 0,1 c 0,2.2333 1.7667,4 4,4 l 12,0 z"
         style="opacity:0.3;color:#bebebe;fill:#000000;fill-opacity:1;fill-rule:nonzero;stroke:none;stroke-width:0;marker:none;visibility:visible;display:inline;overflow:visible;enable-background:accumulate"
         inkscape:connector-curvature="0" />
      <path
         id="path4091"
         d="m 440,83 c 3.3413,0 6,-2.6587 6,-6 l 0,-1 c 0,3.3413 -2.6587,6 -6,6 l -16,0 c -3.3413,0 -6,-2.6587 -6,-6 l 0,1 c 0,3.3413 2.6587,6 6,6 l 16,0 z"
         style="opacity:0.5;color:#bebebe;fill:#000000;fill-opacity:1;fill-rule:nonzero;stroke:none;stroke-width:0;marker:none;visibility:visible;display:inline;overflow:visible;enable-background:accumulate"
         inkscape:connector-curvature="0" />
      <path
         id="path4093"
         d="m 324,265 c 4.4493,0 8,-3.5507 8,-8 l 0,-1 c 0,4.4493 -3.5507,8 -8,8 l -24,0 c -4.4493,0 -8,-3.5507 -8,-8 l 0,1 c 0,4.4493 3.5507,8 8,8 l 24,0 z"
         style="opacity:0.5;color:#bebebe;fill:#000000;fill-opacity:1;fill-rule:nonzero;stroke:none;stroke-width:0;marker:none;visibility:visible;display:inline;overflow:visible;enable-background:accumulate"
         inkscape:connector-curvature="0" />
      <path
         id="path4095"
         d="m 362,120 c 9.4353,0 17,-7.5647 17,-17 l 0,-1 c 0,9.4353 -7.5647,17 -17,17 l -52,0 c -9.4353,0 -17,-7.5647 -17,-17 l 0,1 c 0,9.4353 7.5647,17 17,17 l 52,0 z"
         style="opacity:0.5;color:#bebebe;fill:#000000;fill-opacity:1;fill-rule:nonzero;stroke:none;stroke-width:0;marker:none;visibility:visible;display:inline;overflow:visible;enable-background:accumulate"
         inkscape:connector-curvature="0" />
      <path
         id="path4097"
         d="m 337.5,202 c 6.3883,0 11.5,-5.1117 11.5,-11.5 l 0,-1 c 0,6.3883 -5.1117,11.5 -11.5,11.5 l -35,0 c -6.3883,0 -11.5,-5.1117 -11.5,-11.5 l 0,1 c 0,6.3883 5.1117,11.5 11.5,11.5 l 35,0 z"
         style="opacity:0.5;color:#bebebe;fill:#000000;fill-opacity:1;fill-rule:nonzero;stroke:none;stroke-width:0;marker:none;visibility:visible;display:inline;overflow:visible;enable-background:accumulate"
         inkscape:connector-curvature="0" />
      <path
         inkscape:connector-curvature="0"
         id="path4280"
         d="M 84,265 C 56.836703,265 35,243.1633 35,216 l 0,-1 c 0,27.1633 21.836703,49 49,49 l 120,0 c 27.1633,0 49,-21.8367 49,-49 l 0,1 c 0,27.1633 -21.8367,49 -49,49 l -120,0 z"
         style="opacity:0.1;color:#bebebe;fill:#ffffff;fill-opacity:1;fill-rule:nonzero;stroke:none;stroke-width:0;marker:none;visibility:visible;display:inline;overflow:visible;enable-background:accumulate" />
      <path
         style="opacity:0.1;color:#bebebe;fill:#ffffff;fill-opacity:1;fill-rule:nonzero;stroke:none;stroke-width:0;marker:none;visibility:visible;display:inline;overflow:visible;enable-background:accumulate"
         d="m 300,264 c -4.4493,0 -8,-3.5507 -8,-8 l 0,-1 c 0,4.4493 3.5507,8 8,8 l 24,0 c 4.4493,0 8,-3.5507 8,-8 l 0,1 c 0,4.4493 -3.5507,8 -8,8 l -24,0 z"
         id="path4294"
         inkscape:connector-curvature="0" />
      <path
         style="opacity:0.1;color:#bebebe;fill:#ffffff;fill-opacity:1;fill-rule:nonzero;stroke:none;stroke-width:0;marker:none;visibility:visible;display:inline;overflow:visible;enable-background:accumulate"
         d="m 302.5,201 c -6.3883,0 -11.5,-5.1117 -11.5,-11.5 l 0,-1 c 0,6.3883 5.1117,11.5 11.5,11.5 l 35,0 c 6.3883,0 11.5,-5.1117 11.5,-11.5 l 0,1 c 0,6.3883 -5.1117,11.5 -11.5,11.5 l -35,0 z"
         id="path4296"
         inkscape:connector-curvature="0" />
      <path
         style="opacity:0.1;color:#bebebe;fill:#ffffff;fill-opacity:1;fill-rule:nonzero;stroke:none;stroke-width:0;marker:none;visibility:visible;display:inline;overflow:visible;enable-background:accumulate"
         d="m 310,119 c -9.4353,0 -17,-7.5647 -17,-17 l 0,-1 c 0,9.4353 7.5647,17 17,17 l 52,0 c 9.4353,0 17,-7.5647 17,-17 l 0,1 c 0,9.4353 -7.5647,17 -17,17 l -52,0 z"
         id="path4298"
         inkscape:connector-curvature="0" />
      <path
         style="opacity:0.1;color:#bebebe;fill:#ffffff;fill-opacity:1;fill-rule:nonzero;stroke:none;stroke-width:0;marker:none;visibility:visible;display:inline;overflow:visible;enable-background:accumulate"
         d="m 424,82 c -3.3413,0 -6,-2.658703 -6,-6 l 0,-1 c 0,3.341297 2.6587,6 6,6 l 16,0 c 3.3413,0 6,-2.658703 6,-6 l 0,1 c 0,3.341297 -2.6587,6 -6,6 l -16,0 z"
         id="path4300"
         inkscape:connector-curvature="0" />
      <path
         style="opacity:0.1;color:#bebebe;fill:#ffffff;fill-opacity:1;fill-rule:nonzero;stroke:none;stroke-width:0;marker:none;visibility:visible;display:inline;overflow:visible;enable-background:accumulate"
         d="m 422,122 c -2.2333,0 -4,-1.7667 -4,-4 l 0,-1 c 0,2.2333 1.7667,4 4,4 l 12,0 c 2.2333,0 4,-1.7667 4,-4 l 0,1 c 0,2.2333 -1.7667,4 -4,4 l -12,0 z"
         id="path4302"
         inkscape:connector-curvature="0" />
      <path
         style="opacity:0.1;color:#bebebe;fill:#ffffff;fill-opacity:1;fill-rule:nonzero;stroke:none;stroke-width:0;marker:none;visibility:visible;display:inline;overflow:visible;enable-background:accumulate"
         d="m 419,154.5 c -1.1253,0 -2,-0.8747 -2,-2 l 0,-1 c 0,1.1253 0.8747,2 2,2 l 10,0 c 1.1253,0 2,-0.8747 2,-2 l 0,1 c 0,1.1253 -0.8747,2 -2,2 l -10,0 z"
         id="path4304"
         inkscape:connector-curvature="0" />
    </g>
    <g
       inkscape:groupmode="layer"
       id="layer3"
       inkscape:label="Border"
       style="display:inline"
       sodipodi:insensitive="true">
      <path
         style="opacity:0.41000001;color:#bebebe;fill:#000000;fill-opacity:1;fill-rule:nonzero;stroke:none;stroke-width:0;marker:none;visibility:visible;display:inline;overflow:visible;enable-background:accumulate"
         d="m 422,101 c -2.77,0 -5,2.23 -5,5 l 0,12 c 0,2.77 2.23,5 5,5 l 12,0 c 2.77,0 5,-2.23 5,-5 l 0,-12 c 0,-2.77 -2.23,-5 -5,-5 l -12,0 z m 0,1 12,0 c 2.2333,0 4,1.7667 4,4 l 0,12 c 0,2.2333 -1.7667,4 -4,4 l -12,0 c -2.2333,0 -4,-1.7667 -4,-4 l 0,-12 c 0,-2.2333 1.7667,-4 4,-4 z"
         id="rect4099"
         inkscape:connector-curvature="0" />
      <path
         style="opacity:0.41000001;color:#bebebe;fill:#000000;fill-opacity:1;fill-rule:nonzero;stroke:none;stroke-width:0;marker:none;visibility:visible;display:inline;overflow:visible;enable-background:accumulate"
         d="m 424,53 c -3.878,0 -7,3.122 -7,7 l 0,16 c 0,3.878 3.122,7 7,7 l 16,0 c 3.878,0 7,-3.122 7,-7 l 0,-16 c 0,-3.878 -3.122,-7 -7,-7 l -16,0 z m 0,1 16,0 c 3.3413,0 6,2.658703 6,6 l 0,16 c 0,3.341297 -2.6587,6 -6,6 l -16,0 c -3.3413,0 -6,-2.658703 -6,-6 l 0,-16 c 0,-3.341297 2.6587,-6 6,-6 z"
         id="rect4151"
         inkscape:connector-curvature="0" />
      <path
         style="opacity:0.41000001;color:#bebebe;fill:#000000;fill-opacity:1;fill-rule:nonzero;stroke:none;stroke-width:0;marker:none;visibility:visible;display:inline;overflow:visible;enable-background:accumulate"
         d="m 419,140 c -1.662,0 -3,1.338 -3,3 l 0,10 c 0,1.662 1.338,3 3,3 l 10,0 c 1.662,0 3,-1.338 3,-3 l 0,-10 c 0,-1.662 -1.338,-3 -3,-3 l -10,0 z m 0,1 10,0 c 1.1253,0 2,0.8747 2,2 l 0,10 c 0,1.1253 -0.8747,2 -2,2 l -10,0 c -1.1253,0 -2,-0.8747 -2,-2 l 0,-10 c 0,-1.1253 0.8747,-2 2,-2 z"
         id="rect4095"
         inkscape:connector-curvature="0" />
      <path
         style="opacity:0.41000001;color:#bebebe;fill:#000000;fill-opacity:1;fill-rule:nonzero;stroke:none;stroke-width:0;marker:none;visibility:visible;display:inline;overflow:visible;enable-background:accumulate"
         d="m 300,223 c -4.986,0 -9,4.014 -9,9 l 0,24 c 0,4.986 4.014,9 9,9 l 24,0 c 4.986,0 9,-4.014 9,-9 l 0,-24 c 0,-4.986 -4.014,-9 -9,-9 l -24,0 z m 0,1 24,0 c 4.4493,0 8,3.5507 8,8 l 0,24 c 0,4.4493 -3.5507,8 -8,8 l -24,0 c -4.4493,0 -8,-3.5507 -8,-8 l 0,-24 c 0,-4.4493 3.5507,-8 8,-8 z"
         id="rect4783"
         inkscape:connector-curvature="0" />
      <path
         style="opacity:0.41000001;color:#bebebe;fill:#000000;fill-opacity:1;fill-rule:nonzero;stroke:none;stroke-width:0;marker:none;visibility:visible;display:inline;overflow:visible;enable-background:accumulate"
         d="m 302.5,142 c -6.925,0 -12.5,5.575 -12.5,12.5 l 0,35 c 0,6.925 5.575,12.5 12.5,12.5 l 35,0 c 6.925,0 12.5,-5.575 12.5,-12.5 l 0,-35 c 0,-6.925 -5.575,-12.5 -12.5,-12.5 l -35,0 z m 0,1 35,0 c 6.3883,0 11.5,5.1117 11.5,11.5 l 0,35 c 0,6.3883 -5.1117,11.5 -11.5,11.5 l -35,0 c -6.3883,0 -11.5,-5.1117 -11.5,-11.5 l 0,-35 c 0,-6.3883 5.1117,-11.5 11.5,-11.5 z"
         id="rect4515"
         inkscape:connector-curvature="0" />
      <path
         style="opacity:0.41000001;color:#bebebe;fill:#000000;fill-opacity:1;fill-rule:nonzero;stroke:none;stroke-width:0;marker:none;visibility:visible;display:inline;overflow:visible;enable-background:accumulate"
         d="m 310,32 c -9.972,0 -18,8.028 -18,18 l 0,52 c 0,9.972 8.028,18 18,18 l 52,0 c 9.972,0 18,-8.028 18,-18 l 0,-52 c 0,-9.972 -8.028,-18 -18,-18 l -52,0 z m 0,1 52,0 c 9.4353,0 17,7.564703 17,17 l 0,52 c 0,9.4353 -7.5647,17 -17,17 l -52,0 c -9.4353,0 -17,-7.5647 -17,-17 l 0,-52 c 0,-9.435297 7.5647,-17 17,-17 z"
         id="rect4511"
         inkscape:connector-curvature="0" />
      <path
         style="opacity:0.41000001;color:#bebebe;fill:#000000;fill-opacity:1;fill-rule:nonzero;stroke:none;stroke-width:0;marker:none;visibility:visible;display:inline;overflow:visible;enable-background:accumulate"
         d="M 84,46 C 56.3,46 34,68.3 34,96 l 0,120 c 0,27.7 22.3,50 50,50 l 120,0 c 27.7,0 50,-22.3 50,-50 L 254,96 C 254,68.3 231.7,46 204,46 L 84,46 z m 0,1 120,0 c 27.1633,0 49,21.836703 49,49 l 0,120 c 0,27.1633 -21.8367,49 -49,49 L 84,265 C 56.836703,265 35,243.1633 35,216 L 35,96 C 35,68.836703 56.836703,47 84,47 z"
         id="rect4040"
         inkscape:connector-curvature="0" />
    </g>
  </g>
</svg>
