<?xml version="1.0" encoding="UTF-8" standalone="no"?>
<!-- Created with Inkscape (http://www.inkscape.org/) -->

<svg
   inkscape:export-ydpi="90.000000"
   inkscape:export-xdpi="90.000000"
   width="480"
   height="300"
   id="svg11300"
   sodipodi:version="0.32"
   inkscape:version="1.2.2 (b0a8486541, 2022-12-01)"
   sodipodi:docname="apache.svg"
   inkscape:output_extension="org.inkscape.output.svg.inkscape"
   version="1.0"
   style="display:inline;enable-background:new"
   inkscape:export-filename="/home/sam/moka-next-template.png"
   xmlns:inkscape="http://www.inkscape.org/namespaces/inkscape"
   xmlns:sodipodi="http://sodipodi.sourceforge.net/DTD/sodipodi-0.dtd"
   xmlns:xlink="http://www.w3.org/1999/xlink"
   xmlns="http://www.w3.org/2000/svg"
   xmlns:svg="http://www.w3.org/2000/svg"
   xmlns:rdf="http://www.w3.org/1999/02/22-rdf-syntax-ns#"
   xmlns:cc="http://creativecommons.org/ns#"
   xmlns:dc="http://purl.org/dc/elements/1.1/">
  <sodipodi:namedview
     stroke="#ef2929"
     fill="#f57900"
     id="base"
     pagecolor="#777777"
     bordercolor="#666666"
     borderopacity="0.25490196"
     inkscape:pageopacity="0"
     inkscape:pageshadow="2"
     inkscape:zoom="1"
     inkscape:cx="274"
     inkscape:cy="182"
     inkscape:current-layer="layer6"
     showgrid="false"
     inkscape:grid-bbox="true"
     inkscape:document-units="px"
     inkscape:showpageshadow="false"
     inkscape:window-width="1920"
     inkscape:window-height="1008"
     inkscape:window-x="0"
     inkscape:window-y="0"
     width="400px"
     height="300px"
     inkscape:snap-nodes="true"
     inkscape:snap-bbox="true"
     gridtolerance="10000"
     inkscape:object-nodes="true"
     inkscape:snap-grids="true"
     showguides="true"
     inkscape:guide-bbox="true"
     inkscape:window-maximized="1"
     inkscape:bbox-nodes="true"
     inkscape:bbox-paths="true"
     inkscape:snap-bbox-edge-midpoints="true"
     inkscape:snap-bbox-midpoints="true"
     inkscape:pagecheckerboard="0"
     inkscape:deskcolor="#d1d1d1">
    <inkscape:grid
       spacingy="1px"
       spacingx="1px"
       id="grid5883"
       type="xygrid"
       enabled="true"
       visible="true"
       empspacing="4"
       snapvisiblegridlinesonly="true"
       dotted="false"
       color="#000000"
       opacity="0.1254902"
       empcolor="#203ef3"
       empopacity="0.36470588" />
    <inkscape:grid
       type="xygrid"
       id="grid11592"
       empspacing="8"
       visible="true"
       enabled="false"
       spacingx="0.5px"
       spacingy="0.5px"
       color="#ff0000"
       opacity="0.1254902"
       empcolor="#ff0000"
       empopacity="0.25098039"
       snapvisiblegridlinesonly="true"
       dotted="true" />
  </sodipodi:namedview>
  <defs
     id="defs3">
    <linearGradient
       inkscape:collect="always"
       xlink:href="#outerBackgroundGradient-2"
       id="linearGradient4254"
       x1="35"
       y1="156"
       x2="253"
       y2="156"
       gradientUnits="userSpaceOnUse"
       gradientTransform="matrix(0,-1,1,0,-12,300)" />
    <linearGradient
       inkscape:collect="always"
       xlink:href="#outerBackgroundGradient-2"
       id="linearGradient4256"
       x1="417"
       y1="148"
       x2="431"
       y2="148"
       gradientUnits="userSpaceOnUse"
       gradientTransform="matrix(0,-1,1,0,276,572)" />
    <linearGradient
       inkscape:collect="always"
       xlink:href="#outerBackgroundGradient-2"
       id="linearGradient4260"
       x1="418"
       y1="68"
       x2="446"
       y2="68"
       gradientUnits="userSpaceOnUse"
       gradientTransform="matrix(0,-1,1,0,364,500)" />
    <linearGradient
       inkscape:collect="always"
       xlink:href="#outerBackgroundGradient-2"
       id="linearGradient4262"
       x1="292"
       y1="244"
       x2="332"
       y2="244"
       gradientUnits="userSpaceOnUse"
       gradientTransform="matrix(0,-1,1,0,68,556)" />
    <linearGradient
       inkscape:collect="always"
       xlink:href="#outerBackgroundGradient-2"
       id="linearGradient4264"
       x1="293"
       y1="76"
       x2="379"
       y2="76"
       gradientUnits="userSpaceOnUse"
       gradientTransform="matrix(0,-1,1,0,260,412)" />
    <linearGradient
       inkscape:collect="always"
       xlink:href="#outerBackgroundGradient-2"
       id="linearGradient4266"
       x1="291"
       y1="172"
       x2="349"
       y2="172"
       gradientUnits="userSpaceOnUse"
       gradientTransform="matrix(0,-1,1,0,148,492)" />
    <linearGradient
       inkscape:collect="always"
       xlink:href="#outerBackgroundGradient-2"
       id="linearGradient3870"
       gradientUnits="userSpaceOnUse"
       gradientTransform="matrix(0,-1,1,0,316,540)"
       x1="418"
       y1="112"
       x2="438"
       y2="112" />
    <linearGradient
       id="outerBackgroundGradient-2">
      <stop
         style="stop-color:#dfcedf;stop-opacity:1;"
         offset="0"
         id="stop3864-8-6-44" />
      <stop
         style="stop-color:#f8f0f8;stop-opacity:1;"
         offset="1"
         id="stop3866-9-1-70" />
    </linearGradient>
    <linearGradient
       inkscape:collect="always"
       xlink:href="#linearGradient3952"
       id="linearGradient3958"
       x1="360.82147"
       y1="46.186413"
       x2="318.82108"
       y2="96.434494"
       gradientUnits="userSpaceOnUse" />
    <linearGradient
       inkscape:collect="always"
       id="linearGradient3952">
      <stop
         style="stop-color:#f59524;stop-opacity:1;"
         offset="0"
         id="stop3954" />
      <stop
         style="stop-color:#f69923;stop-opacity:1;"
         offset="0.13"
         id="stop9504" />
      <stop
         style="stop-color:#e56b29;stop-opacity:1;"
         offset="0.28"
         id="stop6917" />
      <stop
         style="stop-color:#d43831;stop-opacity:1;"
         offset="0.44"
         id="stop6919" />
      <stop
         style="stop-color:#c12040;stop-opacity:1;"
         offset="0.58999997"
         id="stop6921" />
      <stop
         style="stop-color:#b82049;stop-opacity:1;"
         offset="0.72000003"
         id="stop6923" />
      <stop
         style="stop-color:#a92059;stop-opacity:1;"
         offset="0.81"
         id="stop6925" />
      <stop
         style="stop-color:#882675;stop-opacity:1;"
         offset="0.88999999"
         id="stop9506" />
      <stop
         style="stop-color:#7a297f;stop-opacity:1;"
         offset="1"
         id="stop3956" />
    </linearGradient>
    <linearGradient
       inkscape:collect="always"
       xlink:href="#linearGradient3952"
       id="linearGradient3962"
       gradientUnits="userSpaceOnUse"
       x1="360.82147"
       y1="46.186401"
       x2="318.80405"
       y2="96.454842"
       gradientTransform="matrix(0.66666634,0,0,0.66666634,96.000116,121.33339)" />
    <linearGradient
       inkscape:collect="always"
       xlink:href="#linearGradient3952"
       id="linearGradient3966"
       gradientUnits="userSpaceOnUse"
       gradientTransform="matrix(0.46666711,0,0,0.46666711,155.19985,208.53326)"
       x1="360.82147"
       y1="46.186413"
       x2="318.80399"
       y2="96.454803" />
    <linearGradient
       inkscape:collect="always"
       xlink:href="#linearGradient3952"
       id="linearGradient3970"
       gradientUnits="userSpaceOnUse"
       x1="360.82147"
       y1="46.186413"
       x2="318.80405"
       y2="96.454842"
       gradientTransform="matrix(2.4999988,0,0,2.4999988,-695.99958,-33.999931)" />
    <linearGradient
       inkscape:collect="always"
       xlink:href="#linearGradient3952"
       id="linearGradient3974"
       gradientUnits="userSpaceOnUse"
       x1="360.82144"
       y1="46.186413"
       x2="318.80411"
       y2="96.45475"
       gradientTransform="matrix(0.33333317,0,0,0.33333317,320.00006,42.666749)" />
    <linearGradient
       inkscape:collect="always"
       xlink:href="#linearGradient3952"
       id="linearGradient3978"
       gradientUnits="userSpaceOnUse"
       gradientTransform="matrix(0.2666684,0,0,0.2666684,338.39942,91.733274)"
       x1="360.82141"
       y1="46.186337"
       x2="318.80396"
       y2="96.454895" />
    <linearGradient
       inkscape:collect="always"
       xlink:href="#linearGradient3952"
       id="linearGradient3982"
       gradientUnits="userSpaceOnUse"
       gradientTransform="matrix(0.19999953,0,0,0.19999953,356.80017,132.79989)"
       x1="361"
       y1="46.00066"
       x2="318.80441"
       y2="96.46167" />
  </defs>
  <metadata
     id="metadata4">
    <rdf:RDF>
      <cc:Work
         rdf:about="">
        <dc:format>image/svg+xml</dc:format>
        <dc:type
           rdf:resource="http://purl.org/dc/dcmitype/StillImage" />
        <dc:creator>
          <cc:Agent>
            <dc:title>Sam Hewitt</dc:title>
          </cc:Agent>
        </dc:creator>
        <dc:source />
        <cc:license
           rdf:resource="" />
        <dc:subject>
          <rdf:Bag />
        </dc:subject>
        <dc:date />
        <dc:rights>
          <cc:Agent>
            <dc:title />
          </cc:Agent>
        </dc:rights>
        <dc:publisher>
          <cc:Agent>
            <dc:title />
          </cc:Agent>
        </dc:publisher>
        <dc:identifier />
        <dc:relation />
        <dc:language />
        <dc:coverage />
        <dc:description />
        <dc:contributor>
          <cc:Agent>
            <dc:title />
          </cc:Agent>
        </dc:contributor>
      </cc:Work>
      <cc:Work
         rdf:about="">
        <dc:format>image/svg+xml</dc:format>
        <dc:type
           rdf:resource="http://purl.org/dc/dcmitype/StillImage" />
      </cc:Work>
    </rdf:RDF>
  </metadata>
  <g
     style="display:inline"
     inkscape:groupmode="layer"
     inkscape:label="Icon"
     id="layer1">
    <g
       style="display:none"
       inkscape:label="Baseplate"
       id="layer7"
       inkscape:groupmode="layer">
      <text
         y="19.745117"
         xml:space="preserve"
         x="15.006836"
         style="font-style:normal;font-variant:normal;font-weight:normal;font-stretch:normal;line-height:0%;font-family:'DejaVu Sans';-inkscape-font-specification:'DejaVu Sans';display:inline;fill:#000000;fill-opacity:1;stroke:none;enable-background:new"
         inkscape:label="context"
         id="context"><tspan
           style="font-style:normal;font-variant:normal;font-weight:normal;font-stretch:normal;font-size:18px;line-height:1.25;font-family:'DejaVu Sans';-inkscape-font-specification:'DejaVu Sans'"
           y="19.745117"
           x="15.006836"
           sodipodi:role="line"
           id="tspan3933">apps</tspan></text>
      <text
         y="19.745117"
         xml:space="preserve"
         x="122.48828"
         style="font-style:normal;font-variant:normal;font-weight:bold;font-stretch:normal;line-height:0%;font-family:'DejaVu Sans';-inkscape-font-specification:'DejaVu Sans Bold';text-align:start;writing-mode:lr-tb;text-anchor:start;display:inline;fill:#000000;fill-opacity:1;stroke:none;enable-background:new"
         inkscape:label="icon-name"
         id="icon-name"><tspan
           style="font-style:normal;font-variant:normal;font-weight:bold;font-stretch:normal;font-size:18px;line-height:1.25;font-family:'DejaVu Sans';-inkscape-font-specification:'DejaVu Sans Bold'"
           y="19.745117"
           x="122.48828"
           sodipodi:role="line"
           id="tspan3937">apache</tspan></text>
      <rect
         style="display:inline;overflow:visible;visibility:visible;fill:#eeeeec;fill-opacity:1;fill-rule:nonzero;stroke:none;stroke-width:2;marker:none;enable-background:accumulate"
         id="rect16x16"
         width="16"
         height="16"
         x="416"
         y="140"
         inkscape:label="16x16" />
      <rect
         style="display:inline;overflow:visible;visibility:visible;fill:#d4d4d4;fill-opacity:1;fill-rule:nonzero;stroke:none;stroke-width:2;marker:none;enable-background:accumulate"
         id="rect24x24"
         width="24"
         height="24"
         x="416"
         y="100"
         inkscape:label="24x24" />
      <rect
         style="display:inline;overflow:visible;visibility:visible;fill:#eeeeec;fill-opacity:1;fill-rule:nonzero;stroke:none;stroke-width:2;marker:none;enable-background:accumulate"
         id="rect32x32"
         width="32"
         height="32"
         x="416"
         y="52"
         inkscape:label="32x32" />
      <rect
         inkscape:label="22x22"
         y="101"
         x="417"
         height="22"
         width="22"
         id="rect22x22"
         style="display:inline;overflow:visible;visibility:visible;fill:#eeeeec;fill-opacity:1;fill-rule:nonzero;stroke:none;stroke-width:2;marker:none;enable-background:accumulate" />
      <rect
         inkscape:label="48x48"
         y="220"
         x="288"
         height="48"
         width="48"
         id="rect48x48"
         style="display:inline;overflow:visible;visibility:visible;fill:#eeeeec;fill-opacity:1;fill-rule:nonzero;stroke:none;stroke-width:2;marker:none;enable-background:accumulate" />
      <rect
         style="display:inline;overflow:visible;visibility:visible;fill:#eeeeec;fill-opacity:1;fill-rule:nonzero;stroke:none;stroke-width:2;marker:none;enable-background:accumulate"
         id="rect256x256"
         width="256"
         height="256"
         x="16"
         y="28"
         inkscape:label="256x256" />
      <rect
         style="display:inline;overflow:visible;visibility:visible;fill:#eeeeec;fill-opacity:1;fill-rule:nonzero;stroke:none;stroke-width:2;marker:none;enable-background:accumulate"
         id="rect64x64"
         width="64"
         height="64"
         x="288"
         y="140"
         inkscape:label="64x64" />
      <rect
         style="display:inline;overflow:visible;visibility:visible;fill:#eeeeec;fill-opacity:1;fill-rule:nonzero;stroke:none;stroke-width:2;marker:none;enable-background:accumulate"
         id="rect96x96"
         width="96"
         height="96"
         x="288"
         y="28"
         inkscape:label="96x96" />
    </g>
    <g
       inkscape:groupmode="layer"
       id="layer4"
       inkscape:label="Shadow"
       style="display:inline"
       sodipodi:insensitive="true">
      <rect
         ry="50"
         y="47"
         x="34"
         height="220"
         width="220"
         id="rect4114"
         style="opacity:0.1;color:#bebebe;fill:#000000;fill-opacity:1;fill-rule:nonzero;stroke:none;stroke-width:0;marker:none;visibility:visible;display:inline;overflow:visible;enable-background:accumulate" />
      <rect
         style="opacity:0.1;color:#bebebe;fill:#000000;fill-opacity:1;fill-rule:nonzero;stroke:none;stroke-width:0;marker:none;visibility:visible;display:inline;overflow:visible;enable-background:accumulate"
         id="rect4120"
         width="30"
         height="30"
         x="417"
         y="54"
         ry="7" />
      <rect
         transform="scale(1,-1)"
         ry="9"
         y="-266"
         x="291"
         height="42"
         width="42"
         id="rect4122"
         style="opacity:0.1;color:#bebebe;fill:#000000;fill-opacity:1;fill-rule:nonzero;stroke:none;stroke-width:0;marker:none;visibility:visible;display:inline;overflow:visible;enable-background:accumulate" />
      <rect
         style="opacity:0.1;color:#bebebe;fill:#000000;fill-opacity:1;fill-rule:nonzero;stroke:none;stroke-width:0;marker:none;visibility:visible;display:inline;overflow:visible;enable-background:accumulate"
         id="rect4124"
         width="88"
         height="88"
         x="292"
         y="33"
         ry="18" />
      <rect
         ry="12.5"
         y="143"
         x="290"
         height="60"
         width="60"
         id="rect4126"
         style="opacity:0.1;color:#bebebe;fill:#000000;fill-opacity:1;fill-rule:nonzero;stroke:none;stroke-width:0;marker:none;visibility:visible;display:inline;overflow:visible;enable-background:accumulate" />
      <path
         id="path4268"
         d="m 422,101 c -2.77,0 -5,2.23 -5,5 l 0,12 c 0,2.77 2.23,5 5,5 l 12,0 c 2.77,0 5,-2.23 5,-5 l 0,-12 c 0,-2.77 -2.23,-5 -5,-5 z"
         style="opacity:0.1;color:#bebebe;fill:#000000;fill-opacity:1;fill-rule:nonzero;stroke:none;stroke-width:0;marker:none;visibility:visible;display:inline;overflow:visible;enable-background:accumulate"
         inkscape:connector-curvature="0"
         sodipodi:nodetypes="sssssssss" />
      <path
         id="path4270"
         d="m 419,140 c -1.662,0 -3,1.338 -3,3 l 0,10 c 0,1.662 1.338,3 3,3 l 10,0 c 1.662,0 3,-1.338 3,-3 l 0,-10 c 0,-1.662 -1.338,-3 -3,-3 z"
         style="opacity:0.1;color:#bebebe;fill:#000000;fill-opacity:1;fill-rule:nonzero;stroke:none;stroke-width:0;marker:none;visibility:visible;display:inline;overflow:visible;enable-background:accumulate"
         inkscape:connector-curvature="0"
         sodipodi:nodetypes="sssssssss" />
    </g>
    <g
       inkscape:groupmode="layer"
       id="layer2"
       inkscape:label="Background"
       style="display:inline">
      <path
         style="color:#bebebe;fill:url(#linearGradient4254);fill-opacity:1.0;fill-rule:nonzero;stroke:none;stroke-width:2;marker:none;visibility:visible;display:inline;overflow:visible;enable-background:accumulate"
         d="M 84 46.5 C 56.568735 46.5 34.5 68.568732 34.5 96 L 34.5 216 C 34.5 243.43127 56.568735 265.5 84 265.5 L 204 265.5 C 231.43127 265.5 253.5 243.43127 253.5 216 L 253.5 96 C 253.5 68.568732 231.43127 46.5 204 46.5 L 84 46.5 z "
         id="path4200" />
      <path
         style="color:#bebebe;fill:url(#linearGradient4256);fill-opacity:1.0;fill-rule:nonzero;stroke:none;stroke-width:2;marker:none;visibility:visible;display:inline;overflow:visible;enable-background:accumulate"
         d="M 419 140.5 C 417.6156 140.5 416.5 141.6156 416.5 143 L 416.5 153 C 416.5 154.3844 417.6156 155.5 419 155.5 L 429 155.5 C 430.3844 155.5 431.5 154.3844 431.5 153 L 431.5 143 C 431.5 141.6156 430.3844 140.5 429 140.5 L 419 140.5 z "
         id="path4202" />
      <path
         style="color:#bebebe;fill:url(#linearGradient3870);fill-opacity:1.0;fill-rule:nonzero;stroke:none;stroke-width:2;marker:none;visibility:visible;display:inline;overflow:visible;enable-background:accumulate"
         d="M 422 101.5 C 419.50301 101.5 417.5 103.50301 417.5 106 L 417.5 118 C 417.5 120.49699 419.50301 122.5 422 122.5 L 434 122.5 C 436.49699 122.5 438.5 120.49699 438.5 118 L 438.5 106 C 438.5 103.50301 436.49699 101.5 434 101.5 L 422 101.5 z "
         id="path4204" />
      <path
         style="color:#bebebe;fill:url(#linearGradient4260);fill-opacity:1.0;fill-rule:nonzero;stroke:none;stroke-width:2;marker:none;visibility:visible;display:inline;overflow:visible;enable-background:accumulate"
         d="M 424 53.5 C 420.39346 53.5 417.5 56.393464 417.5 60 L 417.5 76 C 417.5 79.606536 420.39346 82.5 424 82.5 L 440 82.5 C 443.60654 82.5 446.5 79.606536 446.5 76 L 446.5 60 C 446.5 56.393464 443.60654 53.5 440 53.5 L 424 53.5 z "
         id="path4206" />
      <path
         style="color:#bebebe;fill:url(#linearGradient4262);fill-opacity:1.0;fill-rule:nonzero;stroke:none;stroke-width:2;marker:none;visibility:visible;display:inline;overflow:visible;enable-background:accumulate"
         d="M 300 223.5 C 295.28469 223.5 291.5 227.28469 291.5 232 L 291.5 256 C 291.5 260.71531 295.28469 264.5 300 264.5 L 324 264.5 C 328.71531 264.5 332.5 260.71531 332.5 256 L 332.5 232 C 332.5 227.28469 328.71531 223.5 324 223.5 L 300 223.5 z "
         id="path4208" />
      <path
         style="color:#bebebe;fill:url(#linearGradient4264);fill-opacity:1.0;fill-rule:nonzero;stroke:none;stroke-width:2;marker:none;visibility:visible;display:inline;overflow:visible;enable-background:accumulate"
         d="M 310 32.5 C 300.29745 32.5 292.5 40.297452 292.5 50 L 292.5 102 C 292.5 111.70255 300.29745 119.5 310 119.5 L 362 119.5 C 371.70255 119.5 379.5 111.70255 379.5 102 L 379.5 50 C 379.5 40.297452 371.70255 32.5 362 32.5 L 310 32.5 z "
         id="path4210" />
      <path
         style="color:#bebebe;fill:url(#linearGradient4266);fill-opacity:1.0;fill-rule:nonzero;stroke:none;stroke-width:2;marker:none;visibility:visible;display:inline;overflow:visible;enable-background:accumulate"
         d="M 302.5 142.5 C 295.84498 142.5 290.5 147.84498 290.5 154.5 L 290.5 189.5 C 290.5 196.15502 295.84498 201.5 302.5 201.5 L 337.5 201.5 C 344.15502 201.5 349.5 196.15502 349.5 189.5 L 349.5 154.5 C 349.5 147.84498 344.15502 142.5 337.5 142.5 L 302.5 142.5 z "
         id="path4212" />
    </g>
    <g
       inkscape:groupmode="layer"
       id="layer6"
       inkscape:label="Symbols"
       style="display:inline">
      <path
         inkscape:connector-curvature="0"
         id="path3984"
         d="M 310.86292,106.95533 C 310.86292,106.54684 316.07691,97.155335 316.75794,96.337145 316.77834,96.312545 316.93561,96.459515 317.10736,96.663625 317.32137,96.917965 317.63139,97.095505 318.09266,97.227865 318.46283,97.334095 318.78313,97.436355 318.80444,97.455105 318.82574,97.473905 318.0953,98.737395 317.18122,100.26297 316.26714,101.78855 315.01485,103.91913 314.39834,104.99759 L 313.27743,106.95843 312.07017,106.99233 C 311.40618,107.01093 310.86292,106.99433 310.86292,106.95533 Z M 319.14347,97.065105 C 321.23093,93.737215 325.47998,87.544655 328.33729,83.666035 336.34301,72.798765 346.04207,62.306505 353.65716,56.275465 355.19062,55.060985 355.37384,54.874645 354.29848,55.623235 343.95254,62.825355 332.99697,73.622175 324.27573,85.210935 322.18016,87.995535 319.06942,92.444605 317.64101,94.700135 316.64792,96.268275 316.66583,96.263805 316.21404,95.056305 314.89141,91.521245 316.37763,85.095425 320.25755,77.573815 322.04257,74.113385 324.43179,70.354225 326.72579,67.396805 328.26367,65.414175 328.41833,65.234705 328.51038,65.325905 328.63231,65.446705 328.78596,66.213775 329.04874,68.013645 329.30595,69.775335 329.58056,70.890865 329.75702,70.890865 329.95037,70.890865 330.10246,70.066005 330.53681,66.661595 331.08556,62.360635 331.0504,62.501835 331.72579,61.886175 333.78744,60.006825 339.08923,56.717375 342.73101,55.058075 L 343.40392,54.751475 342.9334,55.364035 C 341.72815,56.933125 340.82628,59.535105 340.79636,61.529615 340.76646,63.524045 341.28913,62.948275 345.02833,56.867895 347.92748,52.153525 347.77654,52.350435 349.22634,51.391235 350.75637,50.378975 354.00603,48.761255 355.96222,48.038045 358.55452,47.079675 360.39261,46.757505 360.82146,47.186355 361.89974,48.264645 360.13658,54.537255 356.7305,61.740285 355.06209,65.268585 354.00069,67.155895 353.46661,67.543915 353.20517,67.733865 351.7078,68.572755 350.13913,69.408105 346.90806,71.128735 345.64346,71.901305 345.71282,72.112265 345.78682,72.337295 346.61929,72.348155 348.27605,72.145665 349.8596,71.952145 350.82246,71.910885 350.94295,72.031365 351.11027,72.198685 347.41562,77.533755 344.88444,80.779855 343.30457,82.805945 343.49105,82.694635 340.45377,83.424335 336.55653,84.360635 335.81906,84.613175 335.81906,85.011415 335.81906,85.330705 336.02172,85.474585 337.52295,86.221035 338.24593,86.580525 338.89213,86.966285 338.95896,87.078295 339.05456,87.238555 339.00526,87.361625 338.72727,87.656025 338.12247,88.296615 335.82046,90.243625 334.44091,91.281365 329.59887,94.923695 323.66848,97.389065 319.74338,97.391395 L 318.93848,97.391875 319.14347,97.065065 Z"
         style="display:inline;enable-background:new;opacity:0.3;fill:#ffffff;fill-opacity:1" />
      <path
         style="display:inline;enable-background:new;opacity:0.3;fill:#ffffff;fill-opacity:1"
         d="M 303.24196,192.97022 C 303.24196,192.69789 306.71795,186.43689 307.17197,185.89143 307.18557,185.87503 307.29042,185.97303 307.40492,186.10908 307.54759,186.27864 307.75427,186.397 308.06178,186.48524 308.30856,186.55604 308.5221,186.62424 308.5363,186.63674 308.5505,186.64924 308.06354,187.49159 307.45416,188.50865 306.84477,189.5257 306.00991,190.94608 305.59891,191.66506 L 304.85163,192.97228 304.04679,192.99488 C 303.60413,193.00728 303.24196,192.99588 303.24196,192.97018 Z M 308.76232,186.37674 C 310.15396,184.15814 312.98666,180.02977 314.89153,177.44403 320.22868,170.19918 326.69472,163.20435 331.77144,159.18366 332.79375,158.374 332.91589,158.24978 332.19899,158.74884 325.3017,163.55025 317.99799,170.74812 312.18383,178.47396 310.78678,180.33036 308.71296,183.2964 307.76068,184.80009 307.09862,185.84552 307.11056,185.84254 306.80937,185.03754 305.92762,182.68083 306.91843,178.39695 309.50504,173.38255 310.69506,171.0756 312.28787,168.56949 313.8172,166.59788 314.84245,165.27613 314.94556,165.15648 315.00693,165.21728 315.08823,165.29778 315.19065,165.80919 315.36583,167.00911 315.53731,168.18357 315.72038,168.92725 315.83802,168.92725 315.96692,168.92725 316.06831,168.37735 316.35788,166.10774 316.72371,163.24043 316.70027,163.33457 317.15053,162.92413 318.52497,161.67123 322.05949,159.47826 324.48734,158.37206 L 324.93595,158.16766 324.62227,158.57604 C 323.81877,159.6221 323.21752,161.35675 323.19758,162.68642 323.17768,164.01604 323.52609,163.63219 326.01889,159.57861 327.95165,156.4357 327.85103,156.56697 328.81756,155.9275 329.83758,155.25267 332.00402,154.17419 333.30815,153.69205 335.03634,153.05313 336.26174,152.83835 336.54764,153.12425 337.26649,153.84311 336.09105,158.02485 333.82033,162.82687 332.70806,165.17907 332.00046,166.43727 331.64441,166.69595 331.47011,166.82259 330.47187,167.38185 329.42609,167.93875 327.27204,169.08583 326.42898,169.60088 326.47522,169.74152 326.52452,169.89154 327.07953,169.89878 328.18403,169.76382 329.23973,169.63481 329.88164,169.6073 329.96197,169.68762 330.07351,169.79917 327.61041,173.35588 325.92296,175.51994 324.86972,176.87067 324.99404,176.79646 322.96918,177.28293 320.37102,177.90713 319.87938,178.07549 319.87938,178.34098 319.87938,178.55384 320.01449,178.64976 321.0153,179.14739 321.49729,179.38705 321.92809,179.64423 321.97264,179.7189 322.03634,179.82574 322.00354,179.90779 321.81818,180.10405 321.41498,180.53111 319.88031,181.82912 318.96061,182.52095 315.73259,184.94916 311.779,186.59274 309.16226,186.5943 L 308.62566,186.59462 Z"
         id="path3986"
         inkscape:connector-curvature="0" />
      <path
         inkscape:connector-curvature="0"
         id="path3988"
         d="M 300.26935,258.9791 C 300.26935,258.78847 302.70255,254.40576 303.02036,254.02394 303.03036,254.01244 303.10326,254.08104 303.18343,254.17629 303.28333,254.29498 303.42797,254.37784 303.64323,254.4396 303.81598,254.4892 303.96545,254.5369 303.97539,254.54565 303.98539,254.55465 303.64446,255.14405 303.21789,255.85599 302.79132,256.56793 302.20692,257.5622 301.91922,258.06548 L 301.39612,258.98054 300.83273,258.99634 C 300.52287,259.00534 300.26935,258.99704 300.26935,258.97904 Z M 304.13361,254.36365 C 305.10776,252.81063 307.09065,249.92077 308.42406,248.11075 312.16007,243.03935 316.68631,238.14296 320.24001,235.32847 320.95563,234.76171 321.04113,234.67475 320.5393,235.0241 315.71119,238.38509 310.59859,243.4236 306.52867,248.8317 305.55073,250.13118 304.09906,252.20741 303.43246,253.26 302.96902,253.9918 302.97737,253.98971 302.76654,253.42621 302.14931,251.77651 302.84284,248.77779 304.65351,245.26771 305.48653,243.65284 306.6015,241.89856 307.67203,240.51843 308.3897,239.59321 308.46188,239.50945 308.50484,239.55201 308.56174,239.60841 308.63345,239.96635 308.75607,240.80629 308.87611,241.62842 309.00426,242.14899 309.0866,242.14899 309.1768,242.14899 309.24781,241.76406 309.45051,240.17533 309.70659,238.16821 309.69018,238.23411 310.00536,237.9468 310.96747,237.06977 313.44164,235.53469 315.14114,234.76035 L 315.45516,234.61727 315.23559,234.90314 C 314.67314,235.63538 314.25226,236.84964 314.2383,237.78041 314.2244,238.71114 314.46826,238.44245 316.21322,235.60494 317.56616,233.4049 317.49572,233.49678 318.1723,233.04915 318.88631,232.57677 320.40282,231.82184 321.31571,231.48434 322.52545,231.03709 323.38323,230.88675 323.58336,231.08688 324.08656,231.59008 323.26375,234.5173 321.67424,237.87872 320.89565,239.52526 320.40033,240.406 320.15109,240.58708 320.02908,240.67578 319.33031,241.06721 318.59827,241.45704 317.09043,242.26 316.50029,242.62053 316.53266,242.71898 316.56716,242.824 316.95567,242.82906 317.72882,242.73458 318.46782,242.64428 318.91715,242.62502 318.97338,242.68128 319.05148,242.75938 317.32729,245.24907 316.14607,246.76391 315.4088,247.70943 315.49583,247.65748 314.07842,247.99801 312.25971,248.43495 311.91556,248.5528 311.91556,248.73864 311.91556,248.88765 312.01016,248.95479 312.71071,249.30313 313.0481,249.47089 313.34966,249.65092 313.38084,249.70319 313.42544,249.77799 313.40244,249.83541 313.27272,249.97279 312.99048,250.27174 311.91621,251.18035 311.27242,251.66463 309.0128,253.36438 306.24529,254.51488 304.41357,254.51598 L 304.03795,254.5162 304.13365,254.36368 Z"
         style="display:inline;enable-background:new;opacity:0.3;fill:#ffffff;fill-opacity:1" />
      <path
         style="display:inline;enable-background:new;opacity:0.3;fill:#ffffff;fill-opacity:1"
         d="M 81.157337,231.88835 C 81.157337,230.86713 94.192307,207.38837 95.894877,205.3429 95.945877,205.2814 96.339057,205.64882 96.768427,206.1591 97.303457,206.79495 98.078507,207.23879 99.231677,207.56969 100.15711,207.83527 100.95786,208.09092 101.01113,208.13779 101.06443,208.18479 99.238277,211.34352 96.953077,215.15747 94.667877,218.97141 91.537157,224.29785 89.995887,226.994 L 87.193607,231.8961 84.175457,231.9809 C 82.515487,232.0274 81.157337,231.9859 81.157337,231.8884 Z M 101.8587,207.16279 C 107.07735,198.84307 117.69997,183.36168 124.84324,173.66514 144.85753,146.49697 169.10517,120.26634 188.14289,105.18875 191.97654,102.15255 192.43459,101.6867 189.74619,103.55817 163.88135,121.56346 136.49244,148.5555 114.68935,177.52738 109.45043,184.48888 101.67358,195.61155 98.102557,201.25037 95.619827,205.17072 95.664607,205.15955 94.535127,202.1408 91.228557,193.30315 94.944107,177.23861 104.6439,158.43459 109.10645,149.78352 115.0795,140.38563 120.8145,132.99208 124.65919,128.03551 125.04584,127.58683 125.27597,127.81483 125.58079,128.11683 125.96492,130.03451 126.62187,134.53418 127.26489,138.9384 127.95142,141.72723 128.39257,141.72723 128.87594,141.72723 129.25617,139.66508 130.34204,131.15406 131.71392,120.40166 131.62602,120.75466 133.31449,119.21551 138.46861,114.51714 151.72308,106.29352 160.82753,102.14527 L 162.5098,101.37877 161.3335,102.91017 C 158.32038,106.83289 156.0657,113.33784 155.9909,118.32411 155.9162,123.31019 157.22283,121.87076 166.57082,106.66982 173.81869,94.883902 173.44134,95.376177 177.06584,92.978178 180.89092,90.447529 189.01506,86.403231 193.90553,84.595207 200.38628,82.199283 204.9815,81.393858 206.05363,82.465983 208.74933,85.161707 204.34143,100.84322 195.82623,118.85079 191.65521,127.67153 189.00171,132.38981 187.66651,133.35986 187.01291,133.83473 183.26949,135.93195 179.34782,138.02033 171.27015,142.3219 168.10865,144.25333 168.28205,144.78073 168.46705,145.3433 170.54822,145.37045 174.69012,144.86423 178.64899,144.38043 181.05614,144.27728 181.35737,144.57848 181.77567,144.99678 172.53904,158.33444 166.2111,166.44969 162.26142,171.51491 162.72762,171.23664 155.13443,173.06089 145.39133,175.40164 143.54766,176.03299 143.54766,177.02858 143.54766,177.82681 144.05431,178.18651 147.80738,180.05263 149.61483,180.95136 151.23033,181.91576 151.39741,182.19578 151.63641,182.59643 151.51316,182.90411 150.81818,183.64011 149.30618,185.24158 143.55116,190.1091 140.10229,192.70345 127.99719,201.80927 113.17122,207.97269 103.35848,207.97852 L 101.34623,207.97952 101.8587,207.16249 Z"
         id="path3990"
         inkscape:connector-curvature="0" />
      <path
         style="display:inline;enable-background:new;opacity:0.3;fill:#ffffff;fill-opacity:1"
         d="M 423.62098,78.985136 C 423.62098,78.848976 425.35898,75.718476 425.58599,75.445746 425.59299,75.437746 425.64519,75.486546 425.70246,75.554566 425.77376,75.639366 425.87714,75.698526 426.03089,75.742646 426.15428,75.778046 426.26105,75.812146 426.26815,75.818346 426.27515,75.824346 426.03177,76.245776 425.72708,76.754306 425.42239,77.262826 425.00496,77.973016 424.79945,78.332506 L 424.42582,78.986116 424.0234,78.997416 C 423.80207,79.003416 423.62098,78.998086 423.62098,78.985116 Z M 426.38116,75.688396 C 427.07698,74.579096 428.49333,72.514914 429.44577,71.222042 432.11434,67.59962 435.34736,64.102202 437.88572,62.091856 438.39687,61.68703 438.45795,61.624916 438.09949,61.874446 434.65085,64.275152 430.99899,67.87409 428.09191,71.737008 427.39339,72.665208 426.35648,74.148226 425.88034,74.900076 425.54931,75.422786 425.55528,75.421296 425.40469,75.018796 424.96381,73.840446 425.45919,71.698505 426.75252,69.191303 427.34753,68.037827 428.14393,66.784774 428.9086,65.798968 429.42123,65.138091 429.47278,65.078268 429.50346,65.108668 429.54406,65.148938 429.59536,65.404625 429.68292,66.004581 429.76862,66.591811 429.86019,66.963654 429.91901,66.963654 429.98341,66.963654 430.03416,66.688701 430.17894,65.553898 430.36186,64.120245 430.35014,64.167312 430.57527,63.962092 431.26248,63.335642 433.02975,62.239159 434.24367,61.68606 L 434.46797,61.58386 434.31113,61.788046 C 433.90938,62.311076 433.60876,63.178402 433.59879,63.843239 433.58879,64.508048 433.76304,64.316125 435.00944,62.289333 435.97583,60.717877 435.92551,60.783513 436.40878,60.46378 436.91879,60.12636 438.00201,59.587121 438.65407,59.346051 439.51817,59.026594 440.13087,58.919204 440.27382,59.062154 440.63324,59.421584 440.04553,61.512453 438.91017,63.913462 438.35403,65.089561 438.00023,65.718664 437.8222,65.848004 437.7351,65.911324 437.23593,66.190951 436.71304,66.469401 435.63602,67.042944 435.21449,67.300467 435.23761,67.370787 435.26231,67.445797 435.53976,67.449417 436.09202,67.381917 436.61987,67.317407 436.94082,67.303657 436.98098,67.343817 437.03678,67.399587 435.80521,69.177946 434.96148,70.259979 434.43486,70.935342 434.49702,70.898239 433.48459,71.141472 432.18551,71.453572 431.93969,71.537752 431.93969,71.670498 431.93969,71.776928 432.00729,71.824888 432.50765,72.073705 432.74865,72.193535 432.96405,72.322121 432.98632,72.359458 433.01822,72.412878 433.00172,72.453898 432.90912,72.552035 432.70752,72.765565 431.94019,73.414563 431.48034,73.760483 429.86632,74.974593 427.88953,75.796383 426.58116,75.797153 L 426.31286,75.797313 426.38116,75.688383 Z"
         id="path3992"
         inkscape:connector-curvature="0" />
      <path
         inkscape:connector-curvature="0"
         id="path3994"
         d="M 421.29673,120.98817 C 421.29673,120.87924 422.68714,118.37482 422.86875,118.15664 422.87475,118.15064 422.91615,118.18924 422.96195,118.24374 423.01895,118.31154 423.10169,118.3589 423.22469,118.3942 423.32339,118.4225 423.40882,118.4498 423.4145,118.4548 423.4205,118.4598 423.2254,118.79675 422.98164,119.20357 422.73789,119.61039 422.40394,120.17855 422.23953,120.46614 L 421.94063,120.98903 421.61869,120.99803 C 421.44162,121.00303 421.29675,120.99857 421.29675,120.98803 Z M 423.50489,118.35076 C 424.06155,117.46331 425.19464,115.81195 425.95659,114.77765 428.09147,111.87969 430.6779,109.08174 432.7086,107.47345 433.11752,107.14959 433.16639,107.09989 432.87962,107.29952 430.12069,109.2201 427.19918,112.09927 424.8735,115.18962 424.31468,115.93219 423.48515,117.11861 423.10423,117.7201 422.8394,118.13827 422.84418,118.13708 422.72371,117.8151 422.371,116.87241 422.76731,115.15885 423.80198,113.15307 424.27799,112.23028 424.91512,111.22783 425.52686,110.43918 425.93696,109.91048 425.9782,109.86262 426.00275,109.88694 426.03525,109.91914 426.07625,110.12371 426.14632,110.60367 426.21492,111.07346 426.28813,111.37094 426.33519,111.37094 426.38669,111.37094 426.42729,111.15097 426.54313,110.24313 426.68947,109.09619 426.6801,109.13385 426.8602,108.96967 427.40997,108.46851 428.8238,107.59132 429.79494,107.14883 L 429.97438,107.06703 429.84891,107.23038 C 429.52751,107.64881 429.28701,108.34268 429.27903,108.87455 429.27103,109.4064 429.41043,109.25286 430.40756,107.63142 431.18068,106.37424 431.14042,106.42675 431.52704,106.17096 431.93505,105.90103 432.80163,105.46963 433.32329,105.27677 434.01457,105.02121 434.50473,104.93529 434.61909,105.04965 434.90663,105.3372 434.43646,107.00991 433.52817,108.93073 433.08325,109.87161 432.80021,110.3749 432.65779,110.47837 432.58809,110.52907 432.18877,110.75273 431.77045,110.97549 430.90883,111.43433 430.5716,111.64035 430.5901,111.69661 430.6099,111.75661 430.83182,111.75951 431.27363,111.70561 431.69591,111.65401 431.95268,111.64301 431.9848,111.67511 432.0294,111.71971 431.04418,113.14242 430.36919,114.00805 429.94789,114.54835 429.99762,114.51866 429.18767,114.71325 428.1484,114.96293 427.95174,115.03028 427.95174,115.13648 427.95174,115.22158 428.00584,115.25999 428.40612,115.45904 428.59892,115.55494 428.77124,115.65778 428.78905,115.68765 428.81455,115.73035 428.80135,115.76315 428.72725,115.84171 428.56597,116.01254 427.9521,116.53174 427.58422,116.80848 426.293,117.77977 424.71155,118.43721 423.66485,118.43782 L 423.45021,118.43795 423.50481,118.35085 Z"
         style="display:inline;enable-background:new;opacity:0.3;fill:#ffffff;fill-opacity:1" />
      <path
         style="display:inline;enable-background:new;opacity:0.3;fill:#ffffff;fill-opacity:1"
         d="M 418.9726,154.99086 C 418.9726,154.90916 420.0154,153.03086 420.1516,152.86723 420.1566,152.86223 420.1872,152.89173 420.2215,152.93253 420.2642,152.98333 420.32631,153.01893 420.41856,153.04538 420.49256,153.06658 420.55665,153.08708 420.56091,153.09088 420.56591,153.09488 420.41909,153.34734 420.23627,153.65245 420.05346,153.95756 419.803,154.38368 419.67969,154.59937 L 419.45552,154.99153 419.21407,154.99853 C 419.08127,155.00253 418.97261,154.99894 418.97261,154.99153 Z M 420.62871,153.01282 C 421.0462,152.34724 421.89601,151.10873 422.46746,150.33301 424.06861,148.15956 426.00842,146.06111 427.53143,144.85491 427.83811,144.61201 427.87477,144.57474 427.65969,144.72446 425.59051,146.16488 423.3994,148.32424 421.65515,150.64198 421.23604,151.19891 420.6139,152.08871 420.32821,152.53983 420.12959,152.85345 420.13318,152.85256 420.04283,152.61103 419.7783,151.90401 420.07553,150.61886 420.85152,149.11453 421.20853,148.42245 421.68637,147.67062 422.14517,147.07913 422.45274,146.68261 422.48367,146.64672 422.50208,146.66496 422.52648,146.68906 422.55718,146.84253 422.60976,147.2025 422.66116,147.55484 422.71612,147.77795 422.75141,147.77795 422.79001,147.77795 422.82051,147.61297 422.90737,146.9321 423.01712,146.0719 423.01009,146.10015 423.14517,145.97701 423.55749,145.60115 424.61785,144.94326 425.3462,144.61139 L 425.48078,144.54999 425.38668,144.67251 C 425.14563,144.98633 424.96526,145.50672 424.95927,145.90562 424.95327,146.30451 425.05787,146.18935 425.80566,144.97328 426.3855,144.03041 426.3553,144.06979 426.64526,143.87795 426.95127,143.6755 427.6012,143.35196 427.99244,143.20731 428.5109,143.01564 428.87851,142.9512 428.96428,143.03697 429.17993,143.25263 428.82731,144.50716 428.1461,145.94776 427.81241,146.65341 427.60013,147.03088 427.49332,147.10848 427.44102,147.14648 427.14156,147.31425 426.82782,147.48131 426.18161,147.82544 425.92869,147.97995 425.94257,148.02215 425.95737,148.06715 426.12385,148.06935 426.45521,148.02915 426.77192,147.99045 426.96449,147.98225 426.98858,148.00625 427.02208,148.03975 426.28312,149.10673 425.77688,149.75594 425.46091,150.16117 425.49821,150.1389 424.89075,150.28484 424.11131,150.4721 423.96381,150.52261 423.96381,150.60226 423.96381,150.66606 424.00441,150.69486 424.3046,150.84418 424.44919,150.91608 424.57843,150.99323 424.59179,151.01563 424.61089,151.04763 424.60079,151.07223 424.54539,151.13118 424.42443,151.2593 423.96403,151.64869 423.68813,151.85625 422.71972,152.58471 421.53364,153.07778 420.74862,153.07824 L 420.58765,153.07834 420.62865,153.01304 Z"
         id="path3996"
         inkscape:connector-curvature="0" />
      <path
         style="display:inline;enable-background:new;fill:url(#linearGradient3958);fill-opacity:1"
         d="M 310.86292,105.95539 C 310.86292,105.5469 316.07691,96.155393 316.75794,95.337203 316.77834,95.312603 316.93561,95.459573 317.10736,95.663683 317.32137,95.918023 317.63139,96.095563 318.09266,96.227923 318.46283,96.334153 318.78313,96.436413 318.80444,96.455163 318.82574,96.473963 318.0953,97.737453 317.18122,99.263033 316.26714,100.78861 315.01485,102.91919 314.39834,103.99765 L 313.27743,105.95849 312.07017,105.99239 C 311.40618,106.01099 310.86292,105.99439 310.86292,105.95539 Z M 319.14347,96.065163 C 321.23093,92.737273 325.47998,86.544713 328.33729,82.666093 336.34301,71.798823 346.04207,61.306563 353.65716,55.275523 355.19062,54.061043 355.37384,53.874703 354.29848,54.623293 343.95254,61.825413 332.99697,72.622233 324.27573,84.210993 322.18016,86.995593 319.06942,91.444663 317.64101,93.700193 316.64792,95.268333 316.66583,95.263863 316.21404,94.056363 314.89141,90.521303 316.37763,84.095483 320.25755,76.573873 322.04257,73.113443 324.43179,69.354283 326.72579,66.396863 328.26367,64.414233 328.41833,64.234763 328.51038,64.325963 328.63231,64.446763 328.78596,65.213833 329.04874,67.013703 329.30595,68.775393 329.58056,69.890923 329.75702,69.890923 329.95037,69.890923 330.10246,69.066063 330.53681,65.661653 331.08556,61.360693 331.0504,61.501893 331.72579,60.886233 333.78744,59.006883 339.08923,55.717433 342.73101,54.058133 L 343.40392,53.751533 342.9334,54.364093 C 341.72815,55.933183 340.82628,58.535163 340.79636,60.529673 340.76646,62.524103 341.28913,61.948333 345.02833,55.867953 347.92748,51.153583 347.77654,51.350493 349.22634,50.391293 350.75637,49.379033 354.00603,47.761313 355.96222,47.038103 358.55452,46.079733 360.39261,45.757563 360.82146,46.186413 361.89974,47.264703 360.13658,53.537313 356.7305,60.740343 355.06209,64.268643 354.00069,66.155953 353.46661,66.543973 353.20517,66.733923 351.7078,67.572813 350.13913,68.408163 346.90806,70.128793 345.64346,70.901363 345.71282,71.112323 345.78682,71.337353 346.61929,71.348213 348.27605,71.145723 349.8596,70.952203 350.82246,70.910943 350.94295,71.031423 351.11027,71.198743 347.41562,76.533813 344.88444,79.779913 343.30457,81.806003 343.49105,81.694693 340.45377,82.424393 336.55653,83.360693 335.81906,83.613233 335.81906,84.011473 335.81906,84.330763 336.02172,84.474643 337.52295,85.221093 338.24593,85.580583 338.89213,85.966343 338.95896,86.078353 339.05456,86.238613 339.00526,86.361683 338.72727,86.656083 338.12247,87.296673 335.82046,89.243683 334.44091,90.281423 329.59887,93.923753 323.66848,96.389123 319.74338,96.391453 L 318.93848,96.391933 319.14347,96.065123 Z"
         id="path3151"
         inkscape:connector-curvature="0" />
      <path
         inkscape:connector-curvature="0"
         id="path3960"
         d="M 303.24196,191.97028 C 303.24196,191.69795 306.71795,185.43695 307.17197,184.89149 307.18557,184.87509 307.29042,184.97309 307.40492,185.10914 307.54759,185.2787 307.75427,185.39706 308.06178,185.4853 308.30856,185.5561 308.5221,185.6243 308.5363,185.6368 308.5505,185.6493 308.06354,186.49165 307.45416,187.50871 306.84477,188.52576 306.00991,189.94614 305.59891,190.66512 L 304.85163,191.97234 304.04679,191.99494 C 303.60413,192.00734 303.24196,191.99594 303.24196,191.97024 Z M 308.76232,185.3768 C 310.15396,183.1582 312.98666,179.02983 314.89153,176.44409 320.22868,169.19924 326.69472,162.20441 331.77144,158.18372 332.79375,157.37406 332.91589,157.24984 332.19899,157.7489 325.3017,162.55031 317.99799,169.74818 312.18383,177.47402 310.78678,179.33042 308.71296,182.29646 307.76068,183.80015 307.09862,184.84558 307.11056,184.8426 306.80937,184.0376 305.92762,181.68089 306.91843,177.39701 309.50504,172.38261 310.69506,170.07566 312.28787,167.56955 313.8172,165.59794 314.84245,164.27619 314.94556,164.15654 315.00693,164.21734 315.08823,164.29784 315.19065,164.80925 315.36583,166.00917 315.53731,167.18363 315.72038,167.92731 315.83802,167.92731 315.96692,167.92731 316.06831,167.37741 316.35788,165.1078 316.72371,162.24049 316.70027,162.33463 317.15053,161.92419 318.52497,160.67129 322.05949,158.47832 324.48734,157.37212 L 324.93595,157.16772 324.62227,157.5761 C 323.81877,158.62216 323.21752,160.35681 323.19758,161.68648 323.17768,163.0161 323.52609,162.63225 326.01889,158.57867 327.95165,155.43576 327.85103,155.56703 328.81756,154.92756 329.83758,154.25273 332.00402,153.17425 333.30815,152.69211 335.03634,152.05319 336.26174,151.83841 336.54764,152.12431 337.26649,152.84317 336.09105,157.02491 333.82033,161.82693 332.70806,164.17913 332.00046,165.43733 331.64441,165.69601 331.47011,165.82265 330.47187,166.38191 329.42609,166.93881 327.27204,168.08589 326.42898,168.60094 326.47522,168.74158 326.52452,168.8916 327.07953,168.89884 328.18403,168.76388 329.23973,168.63487 329.88164,168.60736 329.96197,168.68768 330.07351,168.79923 327.61041,172.35594 325.92296,174.52 324.86972,175.87073 324.99404,175.79652 322.96918,176.28299 320.37102,176.90719 319.87938,177.07555 319.87938,177.34104 319.87938,177.5539 320.01449,177.64982 321.0153,178.14745 321.49729,178.38711 321.92809,178.64429 321.97264,178.71896 322.03634,178.8258 322.00354,178.90785 321.81818,179.10411 321.41498,179.53117 319.88031,180.82918 318.96061,181.52101 315.73259,183.94922 311.779,185.5928 309.16226,185.59436 L 308.62566,185.59468 Z"
         style="display:inline;enable-background:new;fill:url(#linearGradient3962);fill-opacity:1" />
      <path
         style="display:inline;enable-background:new;fill:url(#linearGradient3966);fill-opacity:1"
         d="M 300.26935,257.97916 C 300.26935,257.78853 302.70255,253.40582 303.02036,253.024 303.03036,253.0125 303.10326,253.0811 303.18343,253.17635 303.28333,253.29504 303.42797,253.3779 303.64323,253.43966 303.81598,253.48926 303.96545,253.53696 303.97539,253.54571 303.98539,253.55471 303.64446,254.14411 303.21789,254.85605 302.79132,255.56799 302.20692,256.56226 301.91922,257.06554 L 301.39612,257.9806 300.83273,257.9964 C 300.52287,258.0054 300.26935,257.9971 300.26935,257.9791 Z M 304.13361,253.36371 C 305.10776,251.81069 307.09065,248.92083 308.42406,247.11081 312.16007,242.03941 316.68631,237.14302 320.24001,234.32853 320.95563,233.76177 321.04113,233.67481 320.5393,234.02416 315.71119,237.38515 310.59859,242.42366 306.52867,247.83176 305.55073,249.13124 304.09906,251.20747 303.43246,252.26006 302.96902,252.99186 302.97737,252.98977 302.76654,252.42627 302.14931,250.77657 302.84284,247.77785 304.65351,244.26777 305.48653,242.6529 306.6015,240.89862 307.67203,239.51849 308.3897,238.59327 308.46188,238.50951 308.50484,238.55207 308.56174,238.60847 308.63345,238.96641 308.75607,239.80635 308.87611,240.62848 309.00426,241.14905 309.0866,241.14905 309.1768,241.14905 309.24781,240.76412 309.45051,239.17539 309.70659,237.16827 309.69018,237.23417 310.00536,236.94686 310.96747,236.06983 313.44164,234.53475 315.14114,233.76041 L 315.45516,233.61733 315.23559,233.9032 C 314.67314,234.63544 314.25226,235.8497 314.2383,236.78047 314.2244,237.7112 314.46826,237.44251 316.21322,234.605 317.56616,232.40496 317.49572,232.49684 318.1723,232.04921 318.88631,231.57683 320.40282,230.8219 321.31571,230.4844 322.52545,230.03715 323.38323,229.88681 323.58336,230.08694 324.08656,230.59014 323.26375,233.51736 321.67424,236.87878 320.89565,238.52532 320.40033,239.40606 320.15109,239.58714 320.02908,239.67584 319.33031,240.06727 318.59827,240.4571 317.09043,241.26006 316.50029,241.62059 316.53266,241.71904 316.56716,241.82406 316.95567,241.82912 317.72882,241.73464 318.46782,241.64434 318.91715,241.62508 318.97338,241.68134 319.05148,241.75944 317.32729,244.24913 316.14607,245.76397 315.4088,246.70949 315.49583,246.65754 314.07842,246.99807 312.25971,247.43501 311.91556,247.55286 311.91556,247.7387 311.91556,247.88771 312.01016,247.95485 312.71071,248.30319 313.0481,248.47095 313.34966,248.65098 313.38084,248.70325 313.42544,248.77805 313.40244,248.83547 313.27272,248.97285 312.99048,249.2718 311.91621,250.18041 311.27242,250.66469 309.0128,252.36444 306.24529,253.51494 304.41357,253.51604 L 304.03795,253.51626 304.13365,253.36374 Z"
         id="path3964"
         inkscape:connector-curvature="0" />
      <path
         inkscape:connector-curvature="0"
         id="path3968"
         d="M 81.157337,230.88841 C 81.157337,229.86719 94.192307,206.38843 95.894877,204.34296 95.945877,204.28146 96.339057,204.64888 96.768427,205.15916 97.303457,205.79501 98.078507,206.23885 99.231677,206.56975 100.15711,206.83533 100.95786,207.09098 101.01113,207.13785 101.06443,207.18485 99.238277,210.34358 96.953077,214.15753 94.667877,217.97147 91.537157,223.29791 89.995887,225.99406 L 87.193607,230.89616 84.175457,230.98096 C 82.515487,231.02746 81.157337,230.98596 81.157337,230.88846 Z M 101.8587,206.16285 C 107.07735,197.84313 117.69997,182.36174 124.84324,172.6652 144.85753,145.49703 169.10517,119.2664 188.14289,104.18881 191.97654,101.15261 192.43459,100.68676 189.74619,102.55823 163.88135,120.56352 136.49244,147.55556 114.68935,176.52744 109.45043,183.48894 101.67358,194.61161 98.102557,200.25043 95.619827,204.17078 95.664607,204.15961 94.535127,201.14086 91.228557,192.30321 94.944107,176.23867 104.6439,157.43465 109.10645,148.78358 115.0795,139.38569 120.8145,131.99214 124.65919,127.03557 125.04584,126.58689 125.27597,126.81489 125.58079,127.11689 125.96492,129.03457 126.62187,133.53424 127.26489,137.93846 127.95142,140.72729 128.39257,140.72729 128.87594,140.72729 129.25617,138.66514 130.34204,130.15412 131.71392,119.40172 131.62602,119.75472 133.31449,118.21557 138.46861,113.5172 151.72308,105.29358 160.82753,101.14533 L 162.5098,100.37883 161.3335,101.91023 C 158.32038,105.83295 156.0657,112.3379 155.9909,117.32417 155.9162,122.31025 157.22283,120.87082 166.57082,105.66988 173.81869,93.88396 173.44134,94.376235 177.06584,91.978236 180.89092,89.447587 189.01506,85.403289 193.90553,83.595265 200.38628,81.199341 204.9815,80.393916 206.05363,81.466041 208.74933,84.161765 204.34143,99.843282 195.82623,117.85085 191.65521,126.67159 189.00171,131.38987 187.66651,132.35992 187.01291,132.83479 183.26949,134.93201 179.34782,137.02039 171.27015,141.32196 168.10865,143.25339 168.28205,143.78079 168.46705,144.34336 170.54822,144.37051 174.69012,143.86429 178.64899,143.38049 181.05614,143.27734 181.35737,143.57854 181.77567,143.99684 172.53904,157.3345 166.2111,165.44975 162.26142,170.51497 162.72762,170.2367 155.13443,172.06095 145.39133,174.4017 143.54766,175.03305 143.54766,176.02864 143.54766,176.82687 144.05431,177.18657 147.80738,179.05269 149.61483,179.95142 151.23033,180.91582 151.39741,181.19584 151.63641,181.59649 151.51316,181.90417 150.81818,182.64017 149.30618,184.24164 143.55116,189.10916 140.10229,191.70351 127.99719,200.80933 113.17122,206.97275 103.35848,206.97858 L 101.34623,206.97958 101.8587,206.16255 Z"
         style="display:inline;enable-background:new;fill:url(#linearGradient3970);fill-opacity:1" />
      <path
         inkscape:connector-curvature="0"
         id="path3972"
         d="M 423.62098,77.985194 C 423.62098,77.849034 425.35898,74.718534 425.58599,74.445804 425.59299,74.437804 425.64519,74.486604 425.70246,74.554624 425.77376,74.639424 425.87714,74.698584 426.03089,74.742704 426.15428,74.778104 426.26105,74.812204 426.26815,74.818404 426.27515,74.824404 426.03177,75.245834 425.72708,75.754364 425.42239,76.262884 425.00496,76.973074 424.79945,77.332564 L 424.42582,77.986174 424.0234,77.997474 C 423.80207,78.003474 423.62098,77.998144 423.62098,77.985174 Z M 426.38116,74.688454 C 427.07698,73.579154 428.49333,71.514972 429.44577,70.2221 432.11434,66.599678 435.34736,63.10226 437.88572,61.091914 438.39687,60.687088 438.45795,60.624974 438.09949,60.874504 434.65085,63.27521 430.99899,66.874148 428.09191,70.737066 427.39339,71.665266 426.35648,73.148284 425.88034,73.900134 425.54931,74.422844 425.55528,74.421354 425.40469,74.018854 424.96381,72.840504 425.45919,70.698563 426.75252,68.191361 427.34753,67.037885 428.14393,65.784832 428.9086,64.799026 429.42123,64.138149 429.47278,64.078326 429.50346,64.108726 429.54406,64.148996 429.59536,64.404683 429.68292,65.004639 429.76862,65.591869 429.86019,65.963712 429.91901,65.963712 429.98341,65.963712 430.03416,65.688759 430.17894,64.553956 430.36186,63.120303 430.35014,63.16737 430.57527,62.96215 431.26248,62.3357 433.02975,61.239217 434.24367,60.686118 L 434.46797,60.583918 434.31113,60.788104 C 433.90938,61.311134 433.60876,62.17846 433.59879,62.843297 433.58879,63.508106 433.76304,63.316183 435.00944,61.289391 435.97583,59.717935 435.92551,59.783571 436.40878,59.463838 436.91879,59.126418 438.00201,58.587179 438.65407,58.346109 439.51817,58.026652 440.13087,57.919262 440.27382,58.062212 440.63324,58.421642 440.04553,60.512511 438.91017,62.91352 438.35403,64.089619 438.00023,64.718722 437.8222,64.848062 437.7351,64.911382 437.23593,65.191009 436.71304,65.469459 435.63602,66.043002 435.21449,66.300525 435.23761,66.370845 435.26231,66.445855 435.53976,66.449475 436.09202,66.381975 436.61987,66.317465 436.94082,66.303715 436.98098,66.343875 437.03678,66.399645 435.80521,68.178004 434.96148,69.260037 434.43486,69.9354 434.49702,69.898297 433.48459,70.14153 432.18551,70.45363 431.93969,70.53781 431.93969,70.670556 431.93969,70.776986 432.00729,70.824946 432.50765,71.073763 432.74865,71.193593 432.96405,71.322179 432.98632,71.359516 433.01822,71.412936 433.00172,71.453956 432.90912,71.552093 432.70752,71.765623 431.94019,72.414621 431.48034,72.760541 429.86632,73.974651 427.88953,74.796441 426.58116,74.797211 L 426.31286,74.797371 426.38116,74.688441 Z"
         style="display:inline;enable-background:new;fill:url(#linearGradient3974);fill-opacity:1" />
      <path
         style="display:inline;enable-background:new;fill:url(#linearGradient3978);fill-opacity:1"
         d="M 421.29673,119.98823 C 421.29673,119.8793 422.68714,117.37488 422.86875,117.1567 422.87475,117.1507 422.91615,117.1893 422.96195,117.2438 423.01895,117.3116 423.10169,117.35896 423.22469,117.39426 423.32339,117.42256 423.40882,117.44986 423.4145,117.45486 423.4205,117.45986 423.2254,117.79681 422.98164,118.20363 422.73789,118.61045 422.40394,119.17861 422.23953,119.4662 L 421.94063,119.98909 421.61869,119.99809 C 421.44162,120.00309 421.29675,119.99863 421.29675,119.98809 Z M 423.50489,117.35082 C 424.06155,116.46337 425.19464,114.81201 425.95659,113.77771 428.09147,110.87975 430.6779,108.0818 432.7086,106.47351 433.11752,106.14965 433.16639,106.09995 432.87962,106.29958 430.12069,108.22016 427.19918,111.09933 424.8735,114.18968 424.31468,114.93225 423.48515,116.11867 423.10423,116.72016 422.8394,117.13833 422.84418,117.13714 422.72371,116.81516 422.371,115.87247 422.76731,114.15891 423.80198,112.15313 424.27799,111.23034 424.91512,110.22789 425.52686,109.43924 425.93696,108.91054 425.9782,108.86268 426.00275,108.887 426.03525,108.9192 426.07625,109.12377 426.14632,109.60373 426.21492,110.07352 426.28813,110.371 426.33519,110.371 426.38669,110.371 426.42729,110.15103 426.54313,109.24319 426.68947,108.09625 426.6801,108.13391 426.8602,107.96973 427.40997,107.46857 428.8238,106.59138 429.79494,106.14889 L 429.97438,106.06709 429.84891,106.23044 C 429.52751,106.64887 429.28701,107.34274 429.27903,107.87461 429.27103,108.40646 429.41043,108.25292 430.40756,106.63148 431.18068,105.3743 431.14042,105.42681 431.52704,105.17102 431.93505,104.90109 432.80163,104.46969 433.32329,104.27683 434.01457,104.02127 434.50473,103.93535 434.61909,104.04971 434.90663,104.33726 434.43646,106.00997 433.52817,107.93079 433.08325,108.87167 432.80021,109.37496 432.65779,109.47843 432.58809,109.52913 432.18877,109.75279 431.77045,109.97555 430.90883,110.43439 430.5716,110.64041 430.5901,110.69667 430.6099,110.75667 430.83182,110.75957 431.27363,110.70567 431.69591,110.65407 431.95268,110.64307 431.9848,110.67517 432.0294,110.71977 431.04418,112.14248 430.36919,113.00811 429.94789,113.54841 429.99762,113.51872 429.18767,113.71331 428.1484,113.96299 427.95174,114.03034 427.95174,114.13654 427.95174,114.22164 428.00584,114.26005 428.40612,114.4591 428.59892,114.555 428.77124,114.65784 428.78905,114.68771 428.81455,114.73041 428.80135,114.76321 428.72725,114.84177 428.56597,115.0126 427.9521,115.5318 427.58422,115.80854 426.293,116.77983 424.71155,117.43727 423.66485,117.43788 L 423.45021,117.43801 423.50481,117.35091 Z"
         id="path3976"
         inkscape:connector-curvature="0" />
      <path
         inkscape:connector-curvature="0"
         id="path3980"
         d="M 418.9726,153.99092 C 418.9726,153.90922 420.0154,152.03092 420.1516,151.86729 420.1566,151.86229 420.1872,151.89179 420.2215,151.93259 420.2642,151.98339 420.32631,152.01899 420.41856,152.04544 420.49256,152.06664 420.55665,152.08714 420.56091,152.09094 420.56591,152.09494 420.41909,152.3474 420.23627,152.65251 420.05346,152.95762 419.803,153.38374 419.67969,153.59943 L 419.45552,153.99159 419.21407,153.99859 C 419.08127,154.00259 418.97261,153.999 418.97261,153.99159 Z M 420.62871,152.01288 C 421.0462,151.3473 421.89601,150.10879 422.46746,149.33307 424.06861,147.15962 426.00842,145.06117 427.53143,143.85497 427.83811,143.61207 427.87477,143.5748 427.65969,143.72452 425.59051,145.16494 423.3994,147.3243 421.65515,149.64204 421.23604,150.19897 420.6139,151.08877 420.32821,151.53989 420.12959,151.85351 420.13318,151.85262 420.04283,151.61109 419.7783,150.90407 420.07553,149.61892 420.85152,148.11459 421.20853,147.42251 421.68637,146.67068 422.14517,146.07919 422.45274,145.68267 422.48367,145.64678 422.50208,145.66502 422.52648,145.68912 422.55718,145.84259 422.60976,146.20256 422.66116,146.5549 422.71612,146.77801 422.75141,146.77801 422.79001,146.77801 422.82051,146.61303 422.90737,145.93216 423.01712,145.07196 423.01009,145.10021 423.14517,144.97707 423.55749,144.60121 424.61785,143.94332 425.3462,143.61145 L 425.48078,143.55005 425.38668,143.67257 C 425.14563,143.98639 424.96526,144.50678 424.95927,144.90568 424.95327,145.30457 425.05787,145.18941 425.80566,143.97334 426.3855,143.03047 426.3553,143.06985 426.64526,142.87801 426.95127,142.67556 427.6012,142.35202 427.99244,142.20737 428.5109,142.0157 428.87851,141.95126 428.96428,142.03703 429.17993,142.25269 428.82731,143.50722 428.1461,144.94782 427.81241,145.65347 427.60013,146.03094 427.49332,146.10854 427.44102,146.14654 427.14156,146.31431 426.82782,146.48137 426.18161,146.8255 425.92869,146.98001 425.94257,147.02221 425.95737,147.06721 426.12385,147.06941 426.45521,147.02921 426.77192,146.99051 426.96449,146.98231 426.98858,147.00631 427.02208,147.03981 426.28312,148.10679 425.77688,148.756 425.46091,149.16123 425.49821,149.13896 424.89075,149.2849 424.11131,149.47216 423.96381,149.52267 423.96381,149.60232 423.96381,149.66612 424.00441,149.69492 424.3046,149.84424 424.44919,149.91614 424.57843,149.99329 424.59179,150.01569 424.61089,150.04769 424.60079,150.07229 424.54539,150.13124 424.42443,150.25936 423.96403,150.64875 423.68813,150.85631 422.71972,151.58477 421.53364,152.07784 420.74862,152.0783 L 420.58765,152.0784 420.62865,152.0131 Z"
         style="display:inline;enable-background:new;fill:url(#linearGradient3982);fill-opacity:1" />
    </g>
    <g
       inkscape:groupmode="layer"
       id="layer5"
       inkscape:label="Highlights"
       style="display:inline"
       sodipodi:insensitive="true">
      <path
         style="opacity:0.12999998;color:#bebebe;fill:#ffffff;fill-opacity:1;fill-rule:nonzero;stroke:none;stroke-width:0;marker:none;visibility:visible;display:inline;overflow:visible;enable-background:accumulate"
         d="M 84,47 C 56.836703,47 35,68.836703 35,96 l 0,1 C 35,69.836703 56.836703,48 84,48 l 120,0 c 27.1633,0 49,21.836703 49,49 l 0,-1 C 253,68.836703 231.1633,47 204,47 L 84,47 z"
         id="rect3894"
         inkscape:connector-curvature="0" />
      <path
         style="opacity:0.12999998;color:#bebebe;fill:#ffffff;fill-opacity:1;fill-rule:nonzero;stroke:none;stroke-width:0;marker:none;visibility:visible;display:inline;overflow:visible;enable-background:accumulate"
         d="m 419,141 c -1.1253,0 -2,0.8747 -2,2 l 0,1 c 0,-1.1253 0.8747,-2 2,-2 l 10,0 c 1.1253,0 2,0.8747 2,2 l 0,-1 c 0,-1.1253 -0.8747,-2 -2,-2 l -10,0 z"
         id="rect3896"
         inkscape:connector-curvature="0" />
      <path
         style="opacity:0.12999998;color:#bebebe;fill:#ffffff;fill-opacity:1;fill-rule:nonzero;stroke:none;stroke-width:0;marker:none;visibility:visible;display:inline;overflow:visible;enable-background:accumulate"
         d="m 422,102 c -2.2333,0 -4,1.7667 -4,4 l 0,1 c 0,-2.2333 1.7667,-4 4,-4 l 12,0 c 2.2333,0 4,1.7667 4,4 l 0,-1 c 0,-2.2333 -1.7667,-4 -4,-4 l -12,0 z"
         id="rect3898"
         inkscape:connector-curvature="0" />
      <path
         style="opacity:0.12999998;color:#bebebe;fill:#ffffff;fill-opacity:1;fill-rule:nonzero;stroke:none;stroke-width:0;marker:none;visibility:visible;display:inline;overflow:visible;enable-background:accumulate"
         d="m 424,54 c -3.3413,0 -6,2.658703 -6,6 l 0,1 c 0,-3.341297 2.6587,-6 6,-6 l 16,0 c 3.3413,0 6,2.658703 6,6 l 0,-1 c 0,-3.341297 -2.6587,-6 -6,-6 l -16,0 z"
         id="rect3900"
         inkscape:connector-curvature="0" />
      <path
         style="opacity:0.12999998;color:#bebebe;fill:#ffffff;fill-opacity:1;fill-rule:nonzero;stroke:none;stroke-width:0;marker:none;visibility:visible;display:inline;overflow:visible;enable-background:accumulate"
         d="m 300,224 c -4.4493,0 -8,3.5507 -8,8 l 0,1 c 0,-4.4493 3.5507,-8 8,-8 l 24,0 c 4.4493,0 8,3.5507 8,8 l 0,-1 c 0,-4.4493 -3.5507,-8 -8,-8 l -24,0 z"
         id="rect3902"
         inkscape:connector-curvature="0" />
      <path
         style="opacity:0.12999998;color:#bebebe;fill:#ffffff;fill-opacity:1;fill-rule:nonzero;stroke:none;stroke-width:0;marker:none;visibility:visible;display:inline;overflow:visible;enable-background:accumulate"
         d="m 310,33 c -9.4353,0 -17,7.564703 -17,17 l 0,1 c 0,-9.435297 7.5647,-17 17,-17 l 52,0 c 9.4353,0 17,7.564703 17,17 l 0,-1 c 0,-9.435297 -7.5647,-17 -17,-17 l -52,0 z"
         id="rect3904"
         inkscape:connector-curvature="0" />
      <path
         style="opacity:0.12999998;color:#bebebe;fill:#ffffff;fill-opacity:1;fill-rule:nonzero;stroke:none;stroke-width:0;marker:none;visibility:visible;display:inline;overflow:visible;enable-background:accumulate"
         d="m 302.5,143 c -6.3883,0 -11.5,5.1117 -11.5,11.5 l 0,1 c 0,-6.3883 5.1117,-11.5 11.5,-11.5 l 35,0 c 6.3883,0 11.5,5.1117 11.5,11.5 l 0,-1 c 0,-6.3883 -5.1117,-11.5 -11.5,-11.5 l -35,0 z"
         id="rect3906"
         inkscape:connector-curvature="0" />
      <path
         id="path4085"
         d="m 204,266 c 27.1633,0 49,-21.8367 49,-49 l 0,-1 c 0,27.1633 -21.8367,49 -49,49 L 84,265 C 56.8367,265 35,243.1633 35,216 l 0,1 c 0,27.1633 21.8367,49 49,49 l 120,0 z"
         style="opacity:0.5;color:#bebebe;fill:#000000;fill-opacity:1;fill-rule:nonzero;stroke:none;stroke-width:0;marker:none;visibility:visible;display:inline;overflow:visible;enable-background:accumulate"
         inkscape:connector-curvature="0" />
      <path
         id="path4087"
         d="m 429,156 c 1.1253,0 2,-0.8747 2,-2 l 0,-1 c 0,1.1253 -0.8747,2 -2,2 l -10,0 c -1.1253,0 -2,-0.8747 -2,-2 l 0,1 c 0,1.1253 0.8747,2 2,2 l 10,0 z"
         style="opacity:0.3;color:#bebebe;fill:#000000;fill-opacity:1;fill-rule:nonzero;stroke:none;stroke-width:0;marker:none;visibility:visible;display:inline;overflow:visible;enable-background:accumulate"
         inkscape:connector-curvature="0" />
      <path
         id="path4089"
         d="m 434,123 c 2.2333,0 4,-1.7667 4,-4 l 0,-1 c 0,2.2333 -1.7667,4 -4,4 l -12,0 c -2.2333,0 -4,-1.7667 -4,-4 l 0,1 c 0,2.2333 1.7667,4 4,4 l 12,0 z"
         style="opacity:0.3;color:#bebebe;fill:#000000;fill-opacity:1;fill-rule:nonzero;stroke:none;stroke-width:0;marker:none;visibility:visible;display:inline;overflow:visible;enable-background:accumulate"
         inkscape:connector-curvature="0" />
      <path
         id="path4091"
         d="m 440,83 c 3.3413,0 6,-2.6587 6,-6 l 0,-1 c 0,3.3413 -2.6587,6 -6,6 l -16,0 c -3.3413,0 -6,-2.6587 -6,-6 l 0,1 c 0,3.3413 2.6587,6 6,6 l 16,0 z"
         style="opacity:0.5;color:#bebebe;fill:#000000;fill-opacity:1;fill-rule:nonzero;stroke:none;stroke-width:0;marker:none;visibility:visible;display:inline;overflow:visible;enable-background:accumulate"
         inkscape:connector-curvature="0" />
      <path
         id="path4093"
         d="m 324,265 c 4.4493,0 8,-3.5507 8,-8 l 0,-1 c 0,4.4493 -3.5507,8 -8,8 l -24,0 c -4.4493,0 -8,-3.5507 -8,-8 l 0,1 c 0,4.4493 3.5507,8 8,8 l 24,0 z"
         style="opacity:0.5;color:#bebebe;fill:#000000;fill-opacity:1;fill-rule:nonzero;stroke:none;stroke-width:0;marker:none;visibility:visible;display:inline;overflow:visible;enable-background:accumulate"
         inkscape:connector-curvature="0" />
      <path
         id="path4095"
         d="m 362,120 c 9.4353,0 17,-7.5647 17,-17 l 0,-1 c 0,9.4353 -7.5647,17 -17,17 l -52,0 c -9.4353,0 -17,-7.5647 -17,-17 l 0,1 c 0,9.4353 7.5647,17 17,17 l 52,0 z"
         style="opacity:0.5;color:#bebebe;fill:#000000;fill-opacity:1;fill-rule:nonzero;stroke:none;stroke-width:0;marker:none;visibility:visible;display:inline;overflow:visible;enable-background:accumulate"
         inkscape:connector-curvature="0" />
      <path
         id="path4097"
         d="m 337.5,202 c 6.3883,0 11.5,-5.1117 11.5,-11.5 l 0,-1 c 0,6.3883 -5.1117,11.5 -11.5,11.5 l -35,0 c -6.3883,0 -11.5,-5.1117 -11.5,-11.5 l 0,1 c 0,6.3883 5.1117,11.5 11.5,11.5 l 35,0 z"
         style="opacity:0.5;color:#bebebe;fill:#000000;fill-opacity:1;fill-rule:nonzero;stroke:none;stroke-width:0;marker:none;visibility:visible;display:inline;overflow:visible;enable-background:accumulate"
         inkscape:connector-curvature="0" />
      <path
         inkscape:connector-curvature="0"
         id="path4280"
         d="M 84,265 C 56.836703,265 35,243.1633 35,216 l 0,-1 c 0,27.1633 21.836703,49 49,49 l 120,0 c 27.1633,0 49,-21.8367 49,-49 l 0,1 c 0,27.1633 -21.8367,49 -49,49 l -120,0 z"
         style="opacity:0.1;color:#bebebe;fill:#ffffff;fill-opacity:1;fill-rule:nonzero;stroke:none;stroke-width:0;marker:none;visibility:visible;display:inline;overflow:visible;enable-background:accumulate" />
      <path
         style="opacity:0.1;color:#bebebe;fill:#ffffff;fill-opacity:1;fill-rule:nonzero;stroke:none;stroke-width:0;marker:none;visibility:visible;display:inline;overflow:visible;enable-background:accumulate"
         d="m 300,264 c -4.4493,0 -8,-3.5507 -8,-8 l 0,-1 c 0,4.4493 3.5507,8 8,8 l 24,0 c 4.4493,0 8,-3.5507 8,-8 l 0,1 c 0,4.4493 -3.5507,8 -8,8 l -24,0 z"
         id="path4294"
         inkscape:connector-curvature="0" />
      <path
         style="opacity:0.1;color:#bebebe;fill:#ffffff;fill-opacity:1;fill-rule:nonzero;stroke:none;stroke-width:0;marker:none;visibility:visible;display:inline;overflow:visible;enable-background:accumulate"
         d="m 302.5,201 c -6.3883,0 -11.5,-5.1117 -11.5,-11.5 l 0,-1 c 0,6.3883 5.1117,11.5 11.5,11.5 l 35,0 c 6.3883,0 11.5,-5.1117 11.5,-11.5 l 0,1 c 0,6.3883 -5.1117,11.5 -11.5,11.5 l -35,0 z"
         id="path4296"
         inkscape:connector-curvature="0" />
      <path
         style="opacity:0.1;color:#bebebe;fill:#ffffff;fill-opacity:1;fill-rule:nonzero;stroke:none;stroke-width:0;marker:none;visibility:visible;display:inline;overflow:visible;enable-background:accumulate"
         d="m 310,119 c -9.4353,0 -17,-7.5647 -17,-17 l 0,-1 c 0,9.4353 7.5647,17 17,17 l 52,0 c 9.4353,0 17,-7.5647 17,-17 l 0,1 c 0,9.4353 -7.5647,17 -17,17 l -52,0 z"
         id="path4298"
         inkscape:connector-curvature="0" />
      <path
         style="opacity:0.1;color:#bebebe;fill:#ffffff;fill-opacity:1;fill-rule:nonzero;stroke:none;stroke-width:0;marker:none;visibility:visible;display:inline;overflow:visible;enable-background:accumulate"
         d="m 424,82 c -3.3413,0 -6,-2.658703 -6,-6 l 0,-1 c 0,3.341297 2.6587,6 6,6 l 16,0 c 3.3413,0 6,-2.658703 6,-6 l 0,1 c 0,3.341297 -2.6587,6 -6,6 l -16,0 z"
         id="path4300"
         inkscape:connector-curvature="0" />
      <path
         style="opacity:0.1;color:#bebebe;fill:#ffffff;fill-opacity:1;fill-rule:nonzero;stroke:none;stroke-width:0;marker:none;visibility:visible;display:inline;overflow:visible;enable-background:accumulate"
         d="m 422,122 c -2.2333,0 -4,-1.7667 -4,-4 l 0,-1 c 0,2.2333 1.7667,4 4,4 l 12,0 c 2.2333,0 4,-1.7667 4,-4 l 0,1 c 0,2.2333 -1.7667,4 -4,4 l -12,0 z"
         id="path4302"
         inkscape:connector-curvature="0" />
      <path
         style="opacity:0.1;color:#bebebe;fill:#ffffff;fill-opacity:1;fill-rule:nonzero;stroke:none;stroke-width:0;marker:none;visibility:visible;display:inline;overflow:visible;enable-background:accumulate"
         d="m 419,154.5 c -1.1253,0 -2,-0.8747 -2,-2 l 0,-1 c 0,1.1253 0.8747,2 2,2 l 10,0 c 1.1253,0 2,-0.8747 2,-2 l 0,1 c 0,1.1253 -0.8747,2 -2,2 l -10,0 z"
         id="path4304"
         inkscape:connector-curvature="0" />
    </g>
    <g
       inkscape:groupmode="layer"
       id="layer3"
       inkscape:label="Border"
       style="display:inline"
       sodipodi:insensitive="true">
      <path
         style="opacity:0.41000001;color:#bebebe;fill:#000000;fill-opacity:1;fill-rule:nonzero;stroke:none;stroke-width:0;marker:none;visibility:visible;display:inline;overflow:visible;enable-background:accumulate"
         d="m 422,101 c -2.77,0 -5,2.23 -5,5 l 0,12 c 0,2.77 2.23,5 5,5 l 12,0 c 2.77,0 5,-2.23 5,-5 l 0,-12 c 0,-2.77 -2.23,-5 -5,-5 l -12,0 z m 0,1 12,0 c 2.2333,0 4,1.7667 4,4 l 0,12 c 0,2.2333 -1.7667,4 -4,4 l -12,0 c -2.2333,0 -4,-1.7667 -4,-4 l 0,-12 c 0,-2.2333 1.7667,-4 4,-4 z"
         id="rect4099"
         inkscape:connector-curvature="0" />
      <path
         style="opacity:0.41000001;color:#bebebe;fill:#000000;fill-opacity:1;fill-rule:nonzero;stroke:none;stroke-width:0;marker:none;visibility:visible;display:inline;overflow:visible;enable-background:accumulate"
         d="m 424,53 c -3.878,0 -7,3.122 -7,7 l 0,16 c 0,3.878 3.122,7 7,7 l 16,0 c 3.878,0 7,-3.122 7,-7 l 0,-16 c 0,-3.878 -3.122,-7 -7,-7 l -16,0 z m 0,1 16,0 c 3.3413,0 6,2.658703 6,6 l 0,16 c 0,3.341297 -2.6587,6 -6,6 l -16,0 c -3.3413,0 -6,-2.658703 -6,-6 l 0,-16 c 0,-3.341297 2.6587,-6 6,-6 z"
         id="rect4151"
         inkscape:connector-curvature="0" />
      <path
         style="opacity:0.41000001;color:#bebebe;fill:#000000;fill-opacity:1;fill-rule:nonzero;stroke:none;stroke-width:0;marker:none;visibility:visible;display:inline;overflow:visible;enable-background:accumulate"
         d="m 419,140 c -1.662,0 -3,1.338 -3,3 l 0,10 c 0,1.662 1.338,3 3,3 l 10,0 c 1.662,0 3,-1.338 3,-3 l 0,-10 c 0,-1.662 -1.338,-3 -3,-3 l -10,0 z m 0,1 10,0 c 1.1253,0 2,0.8747 2,2 l 0,10 c 0,1.1253 -0.8747,2 -2,2 l -10,0 c -1.1253,0 -2,-0.8747 -2,-2 l 0,-10 c 0,-1.1253 0.8747,-2 2,-2 z"
         id="rect4095"
         inkscape:connector-curvature="0" />
      <path
         style="opacity:0.41000001;color:#bebebe;fill:#000000;fill-opacity:1;fill-rule:nonzero;stroke:none;stroke-width:0;marker:none;visibility:visible;display:inline;overflow:visible;enable-background:accumulate"
         d="m 300,223 c -4.986,0 -9,4.014 -9,9 l 0,24 c 0,4.986 4.014,9 9,9 l 24,0 c 4.986,0 9,-4.014 9,-9 l 0,-24 c 0,-4.986 -4.014,-9 -9,-9 l -24,0 z m 0,1 24,0 c 4.4493,0 8,3.5507 8,8 l 0,24 c 0,4.4493 -3.5507,8 -8,8 l -24,0 c -4.4493,0 -8,-3.5507 -8,-8 l 0,-24 c 0,-4.4493 3.5507,-8 8,-8 z"
         id="rect4783"
         inkscape:connector-curvature="0" />
      <path
         style="opacity:0.41000001;color:#bebebe;fill:#000000;fill-opacity:1;fill-rule:nonzero;stroke:none;stroke-width:0;marker:none;visibility:visible;display:inline;overflow:visible;enable-background:accumulate"
         d="m 302.5,142 c -6.925,0 -12.5,5.575 -12.5,12.5 l 0,35 c 0,6.925 5.575,12.5 12.5,12.5 l 35,0 c 6.925,0 12.5,-5.575 12.5,-12.5 l 0,-35 c 0,-6.925 -5.575,-12.5 -12.5,-12.5 l -35,0 z m 0,1 35,0 c 6.3883,0 11.5,5.1117 11.5,11.5 l 0,35 c 0,6.3883 -5.1117,11.5 -11.5,11.5 l -35,0 c -6.3883,0 -11.5,-5.1117 -11.5,-11.5 l 0,-35 c 0,-6.3883 5.1117,-11.5 11.5,-11.5 z"
         id="rect4515"
         inkscape:connector-curvature="0" />
      <path
         style="opacity:0.41000001;color:#bebebe;fill:#000000;fill-opacity:1;fill-rule:nonzero;stroke:none;stroke-width:0;marker:none;visibility:visible;display:inline;overflow:visible;enable-background:accumulate"
         d="m 310,32 c -9.972,0 -18,8.028 -18,18 l 0,52 c 0,9.972 8.028,18 18,18 l 52,0 c 9.972,0 18,-8.028 18,-18 l 0,-52 c 0,-9.972 -8.028,-18 -18,-18 l -52,0 z m 0,1 52,0 c 9.4353,0 17,7.564703 17,17 l 0,52 c 0,9.4353 -7.5647,17 -17,17 l -52,0 c -9.4353,0 -17,-7.5647 -17,-17 l 0,-52 c 0,-9.435297 7.5647,-17 17,-17 z"
         id="rect4511"
         inkscape:connector-curvature="0" />
      <path
         style="opacity:0.41000001;color:#bebebe;fill:#000000;fill-opacity:1;fill-rule:nonzero;stroke:none;stroke-width:0;marker:none;visibility:visible;display:inline;overflow:visible;enable-background:accumulate"
         d="M 84,46 C 56.3,46 34,68.3 34,96 l 0,120 c 0,27.7 22.3,50 50,50 l 120,0 c 27.7,0 50,-22.3 50,-50 L 254,96 C 254,68.3 231.7,46 204,46 L 84,46 z m 0,1 120,0 c 27.1633,0 49,21.836703 49,49 l 0,120 c 0,27.1633 -21.8367,49 -49,49 L 84,265 C 56.836703,265 35,243.1633 35,216 L 35,96 C 35,68.836703 56.836703,47 84,47 z"
         id="rect4040"
         inkscape:connector-curvature="0" />
    </g>
  </g>
</svg>
