<?xml version="1.0" encoding="UTF-8" standalone="no"?>
<svg
   xmlns:dc="http://purl.org/dc/elements/1.1/"
   xmlns:cc="http://creativecommons.org/ns#"
   xmlns:rdf="http://www.w3.org/1999/02/22-rdf-syntax-ns#"
   xmlns:svg="http://www.w3.org/2000/svg"
   xmlns="http://www.w3.org/2000/svg"
   xmlns:xlink="http://www.w3.org/1999/xlink"
   xmlns:sodipodi="http://sodipodi.sourceforge.net/DTD/sodipodi-0.dtd"
   xmlns:inkscape="http://www.inkscape.org/namespaces/inkscape"
   inkscape:export-ydpi="90.000000"
   inkscape:export-xdpi="90.000000"
   width="480"
   height="300"
   id="svg11300"
   sodipodi:version="0.32"
   inkscape:version="1.0.2 (e86c870, 2021-01-15)"
   sodipodi:docname="avast.svg"
   inkscape:output_extension="org.inkscape.output.svg.inkscape"
   version="1.0"
   style="display:inline;enable-background:new"
   inkscape:export-filename="/home/sam/moka-next-template.png">
  <sodipodi:namedview
     stroke="#ef2929"
     fill="#f57900"
     id="base"
     pagecolor="#777777"
     bordercolor="#666666"
     borderopacity="0.25490196"
     inkscape:pageopacity="0"
     inkscape:pageshadow="2"
     inkscape:zoom="2.8284272"
     inkscape:cx="339.2023"
     inkscape:cy="188.32265"
     inkscape:current-layer="layer6"
     showgrid="false"
     inkscape:grid-bbox="true"
     inkscape:document-units="px"
     inkscape:showpageshadow="false"
     inkscape:window-width="1366"
     inkscape:window-height="703"
     inkscape:window-x="0"
     inkscape:window-y="0"
     width="400px"
     height="300px"
     inkscape:snap-nodes="true"
     inkscape:snap-bbox="true"
     gridtolerance="10000"
     inkscape:object-nodes="true"
     inkscape:snap-grids="true"
     showguides="true"
     inkscape:guide-bbox="true"
     inkscape:window-maximized="1"
     inkscape:bbox-nodes="true"
     inkscape:bbox-paths="true"
     inkscape:snap-bbox-edge-midpoints="true"
     inkscape:snap-bbox-midpoints="true"
     inkscape:document-rotation="0">
    <inkscape:grid
       spacingy="1px"
       spacingx="1px"
       id="grid5883"
       type="xygrid"
       enabled="true"
       visible="true"
       empspacing="4"
       snapvisiblegridlinesonly="true"
       dotted="false"
       color="#000000"
       opacity="0.1254902"
       empcolor="#203ef3"
       empopacity="0.36470588" />
    <inkscape:grid
       type="xygrid"
       id="grid11592"
       empspacing="8"
       visible="true"
       enabled="false"
       spacingx="0.5px"
       spacingy="0.5px"
       color="#ff0000"
       opacity="0.1254902"
       empcolor="#ff0000"
       empopacity="0.25098039"
       snapvisiblegridlinesonly="true"
       dotted="true" />
  </sodipodi:namedview>
  <defs
     id="defs3">
    <linearGradient
       inkscape:collect="always"
       xlink:href="#outerBackgroundGradient-43"
       id="linearGradient6281"
       gradientUnits="userSpaceOnUse"
       gradientTransform="matrix(0,-1,1,0,276,572)"
       x1="417"
       y1="148"
       x2="431"
       y2="148" />
    <linearGradient
       inkscape:collect="always"
       xlink:href="#outerBackgroundGradient-43"
       id="linearGradient6283"
       gradientUnits="userSpaceOnUse"
       gradientTransform="matrix(0,-1,1,0,316,540)"
       x1="418"
       y1="112"
       x2="438"
       y2="112" />
    <linearGradient
       inkscape:collect="always"
       xlink:href="#outerBackgroundGradient-43"
       id="linearGradient6285"
       gradientUnits="userSpaceOnUse"
       gradientTransform="matrix(0,-1,1,0,364,500)"
       x1="418"
       y1="68"
       x2="446"
       y2="68" />
    <linearGradient
       inkscape:collect="always"
       xlink:href="#outerBackgroundGradient-43"
       id="linearGradient6287"
       gradientUnits="userSpaceOnUse"
       gradientTransform="matrix(0,-1,1,0,68,556)"
       x1="292"
       y1="244"
       x2="332"
       y2="244" />
    <linearGradient
       inkscape:collect="always"
       xlink:href="#outerBackgroundGradient-43"
       id="linearGradient6289"
       gradientUnits="userSpaceOnUse"
       gradientTransform="matrix(0,-1,1,0,260,412)"
       x1="293"
       y1="76"
       x2="379"
       y2="76" />
    <linearGradient
       inkscape:collect="always"
       xlink:href="#outerBackgroundGradient-43"
       id="linearGradient6291"
       gradientUnits="userSpaceOnUse"
       gradientTransform="matrix(0,-1,1,0,148,492)"
       x1="291"
       y1="172"
       x2="349"
       y2="172" />
    <linearGradient
       inkscape:collect="always"
       xlink:href="#outerBackgroundGradient-43"
       id="linearGradient7328"
       gradientUnits="userSpaceOnUse"
       gradientTransform="matrix(0,-1,1,0,-12,300)"
       x1="35"
       y1="156"
       x2="253"
       y2="156" />
    <linearGradient
       id="outerBackgroundGradient-43">
      <stop
         style="stop-color:#160e53;stop-opacity:1"
         offset="0"
         id="stop3864-8-6-744" />
      <stop
         style="stop-color:#261c6a;stop-opacity:1"
         offset="1"
         id="stop3866-9-1-541" />
    </linearGradient>
  </defs>
  <metadata
     id="metadata4">
    <rdf:RDF>
      <cc:Work
         rdf:about="">
        <dc:format>image/svg+xml</dc:format>
        <dc:type
           rdf:resource="http://purl.org/dc/dcmitype/StillImage" />
        <dc:creator>
          <cc:Agent>
            <dc:title>Sam Hewitt</dc:title>
          </cc:Agent>
        </dc:creator>
        <dc:source />
        <cc:license
           rdf:resource="" />
        <dc:title />
        <dc:subject>
          <rdf:Bag />
        </dc:subject>
        <dc:date />
        <dc:rights>
          <cc:Agent>
            <dc:title />
          </cc:Agent>
        </dc:rights>
        <dc:publisher>
          <cc:Agent>
            <dc:title />
          </cc:Agent>
        </dc:publisher>
        <dc:identifier />
        <dc:relation />
        <dc:language />
        <dc:coverage />
        <dc:description />
        <dc:contributor>
          <cc:Agent>
            <dc:title />
          </cc:Agent>
        </dc:contributor>
      </cc:Work>
      <cc:Work
         rdf:about="">
        <dc:format>image/svg+xml</dc:format>
        <dc:type
           rdf:resource="http://purl.org/dc/dcmitype/StillImage" />
      </cc:Work>
    </rdf:RDF>
  </metadata>
  <g
     style="display:inline"
     inkscape:groupmode="layer"
     inkscape:label="Icon"
     id="layer1">
    <g
       style="display:none"
       inkscape:label="Baseplate"
       id="layer7"
       inkscape:groupmode="layer">
      <text
         y="19.745117"
         xml:space="preserve"
         x="15.006836"
         style="font-style:normal;font-variant:normal;font-weight:normal;font-stretch:normal;line-height:0%;font-family:'DejaVu Sans';-inkscape-font-specification:'DejaVu Sans';display:inline;fill:#000000;fill-opacity:1;stroke:none;enable-background:new"
         inkscape:label="context"
         id="context"><tspan
           style="font-style:normal;font-variant:normal;font-weight:normal;font-stretch:normal;font-size:18px;line-height:1.25;font-family:'DejaVu Sans';-inkscape-font-specification:'DejaVu Sans'"
           y="19.745117"
           x="15.006836"
           sodipodi:role="line"
           id="tspan3933">apps</tspan></text>
      <text
         y="19.745117"
         xml:space="preserve"
         x="122.48828"
         style="font-style:normal;font-variant:normal;font-weight:bold;font-stretch:normal;line-height:0%;font-family:'DejaVu Sans';-inkscape-font-specification:'DejaVu Sans Bold';text-align:start;writing-mode:lr-tb;text-anchor:start;display:inline;fill:#000000;fill-opacity:1;stroke:none;enable-background:new"
         inkscape:label="icon-name"
         id="icon-name"><tspan
           style="font-style:normal;font-variant:normal;font-weight:bold;font-stretch:normal;font-size:18px;line-height:1.25;font-family:'DejaVu Sans';-inkscape-font-specification:'DejaVu Sans Bold'"
           y="19.745117"
           x="122.48828"
           sodipodi:role="line"
           id="tspan3937">avast</tspan></text>
      <rect
         style="display:inline;overflow:visible;visibility:visible;fill:#eeeeec;fill-opacity:1;fill-rule:nonzero;stroke:none;stroke-width:2;marker:none;enable-background:accumulate"
         id="rect16x16"
         width="16"
         height="16"
         x="416"
         y="140"
         inkscape:label="16x16" />
      <rect
         style="display:inline;overflow:visible;visibility:visible;fill:#d4d4d4;fill-opacity:1;fill-rule:nonzero;stroke:none;stroke-width:2;marker:none;enable-background:accumulate"
         id="rect24x24"
         width="24"
         height="24"
         x="416"
         y="100"
         inkscape:label="24x24" />
      <rect
         style="display:inline;overflow:visible;visibility:visible;fill:#eeeeec;fill-opacity:1;fill-rule:nonzero;stroke:none;stroke-width:2;marker:none;enable-background:accumulate"
         id="rect32x32"
         width="32"
         height="32"
         x="416"
         y="52"
         inkscape:label="32x32" />
      <rect
         inkscape:label="22x22"
         y="101"
         x="417"
         height="22"
         width="22"
         id="rect22x22"
         style="display:inline;overflow:visible;visibility:visible;fill:#eeeeec;fill-opacity:1;fill-rule:nonzero;stroke:none;stroke-width:2;marker:none;enable-background:accumulate" />
      <rect
         inkscape:label="48x48"
         y="220"
         x="288"
         height="48"
         width="48"
         id="rect48x48"
         style="display:inline;overflow:visible;visibility:visible;fill:#eeeeec;fill-opacity:1;fill-rule:nonzero;stroke:none;stroke-width:2;marker:none;enable-background:accumulate" />
      <rect
         style="display:inline;overflow:visible;visibility:visible;fill:#eeeeec;fill-opacity:1;fill-rule:nonzero;stroke:none;stroke-width:2;marker:none;enable-background:accumulate"
         id="rect256x256"
         width="256"
         height="256"
         x="16"
         y="28"
         inkscape:label="256x256" />
      <rect
         style="display:inline;overflow:visible;visibility:visible;fill:#eeeeec;fill-opacity:1;fill-rule:nonzero;stroke:none;stroke-width:2;marker:none;enable-background:accumulate"
         id="rect64x64"
         width="64"
         height="64"
         x="288"
         y="140"
         inkscape:label="64x64" />
      <rect
         style="display:inline;overflow:visible;visibility:visible;fill:#eeeeec;fill-opacity:1;fill-rule:nonzero;stroke:none;stroke-width:2;marker:none;enable-background:accumulate"
         id="rect96x96"
         width="96"
         height="96"
         x="288"
         y="28"
         inkscape:label="96x96" />
    </g>
    <g
       inkscape:groupmode="layer"
       id="layer4"
       inkscape:label="Shadow"
       style="display:inline"
       sodipodi:insensitive="true">
      <rect
         ry="50"
         y="47"
         x="34"
         height="220"
         width="220"
         id="rect4114"
         style="color:#bebebe;display:inline;overflow:visible;visibility:visible;opacity:0.1;fill:#000000;fill-opacity:1;fill-rule:nonzero;stroke:none;stroke-width:0;marker:none;enable-background:accumulate" />
      <rect
         style="color:#bebebe;display:inline;overflow:visible;visibility:visible;opacity:0.1;fill:#000000;fill-opacity:1;fill-rule:nonzero;stroke:none;stroke-width:0;marker:none;enable-background:accumulate"
         id="rect4120"
         width="30"
         height="30"
         x="417"
         y="54"
         ry="7" />
      <rect
         transform="scale(1,-1)"
         ry="9"
         y="-266"
         x="291"
         height="42"
         width="42"
         id="rect4122"
         style="color:#bebebe;display:inline;overflow:visible;visibility:visible;opacity:0.1;fill:#000000;fill-opacity:1;fill-rule:nonzero;stroke:none;stroke-width:0;marker:none;enable-background:accumulate" />
      <rect
         style="color:#bebebe;display:inline;overflow:visible;visibility:visible;opacity:0.1;fill:#000000;fill-opacity:1;fill-rule:nonzero;stroke:none;stroke-width:0;marker:none;enable-background:accumulate"
         id="rect4124"
         width="88"
         height="88"
         x="292"
         y="33"
         ry="18" />
      <rect
         ry="12.5"
         y="143"
         x="290"
         height="60"
         width="60"
         id="rect4126"
         style="color:#bebebe;display:inline;overflow:visible;visibility:visible;opacity:0.1;fill:#000000;fill-opacity:1;fill-rule:nonzero;stroke:none;stroke-width:0;marker:none;enable-background:accumulate" />
      <path
         id="path4268"
         d="m 422,101 c -2.77,0 -5,2.23 -5,5 v 12 c 0,2.77 2.23,5 5,5 h 12 c 2.77,0 5,-2.23 5,-5 v -12 c 0,-2.77 -2.23,-5 -5,-5 z"
         style="color:#bebebe;display:inline;overflow:visible;visibility:visible;opacity:0.1;fill:#000000;fill-opacity:1;fill-rule:nonzero;stroke:none;stroke-width:0;marker:none;enable-background:accumulate"
         inkscape:connector-curvature="0"
         sodipodi:nodetypes="sssssssss" />
      <path
         id="path4270"
         d="m 419,140 c -1.662,0 -3,1.338 -3,3 v 10 c 0,1.662 1.338,3 3,3 h 10 c 1.662,0 3,-1.338 3,-3 v -10 c 0,-1.662 -1.338,-3 -3,-3 z"
         style="color:#bebebe;display:inline;overflow:visible;visibility:visible;opacity:0.1;fill:#000000;fill-opacity:1;fill-rule:nonzero;stroke:none;stroke-width:0;marker:none;enable-background:accumulate"
         inkscape:connector-curvature="0"
         sodipodi:nodetypes="sssssssss" />
    </g>
    <g
       inkscape:groupmode="layer"
       id="layer2"
       inkscape:label="Background"
       style="display:inline">
      <path
         style="color:#bebebe;display:inline;overflow:visible;visibility:visible;fill:url(#linearGradient7328);fill-opacity:1;fill-rule:nonzero;stroke:none;stroke-width:2;marker:none;enable-background:accumulate"
         d="M 84,46.5 C 56.568735,46.5 34.5,68.568732 34.5,96 v 120 c 0,27.43127 22.068735,49.5 49.5,49.5 h 120 c 27.43127,0 49.5,-22.06873 49.5,-49.5 V 96 C 253.5,68.568732 231.43127,46.5 204,46.5 Z"
         id="path4200" />
      <path
         style="color:#bebebe;display:inline;overflow:visible;visibility:visible;fill:url(#linearGradient6281);fill-opacity:1;fill-rule:nonzero;stroke:none;stroke-width:2;marker:none;enable-background:accumulate"
         d="m 419,140.5 c -1.3844,0 -2.5,1.1156 -2.5,2.5 v 10 c 0,1.3844 1.1156,2.5 2.5,2.5 h 10 c 1.3844,0 2.5,-1.1156 2.5,-2.5 v -10 c 0,-1.3844 -1.1156,-2.5 -2.5,-2.5 z"
         id="path4202" />
      <path
         style="color:#bebebe;display:inline;overflow:visible;visibility:visible;fill:url(#linearGradient6283);fill-opacity:1;fill-rule:nonzero;stroke:none;stroke-width:2;marker:none;enable-background:accumulate"
         d="m 422,101.5 c -2.49699,0 -4.5,2.00301 -4.5,4.5 v 12 c 0,2.49699 2.00301,4.5 4.5,4.5 h 12 c 2.49699,0 4.5,-2.00301 4.5,-4.5 v -12 c 0,-2.49699 -2.00301,-4.5 -4.5,-4.5 z"
         id="path4204" />
      <path
         style="color:#bebebe;display:inline;overflow:visible;visibility:visible;fill:url(#linearGradient6285);fill-opacity:1;fill-rule:nonzero;stroke:none;stroke-width:2;marker:none;enable-background:accumulate"
         d="m 424,53.5 c -3.60654,0 -6.5,2.893464 -6.5,6.5 v 16 c 0,3.606536 2.89346,6.5 6.5,6.5 h 16 c 3.60654,0 6.5,-2.893464 6.5,-6.5 V 60 c 0,-3.606536 -2.89346,-6.5 -6.5,-6.5 z"
         id="path4206" />
      <path
         style="color:#bebebe;display:inline;overflow:visible;visibility:visible;fill:url(#linearGradient6287);fill-opacity:1;fill-rule:nonzero;stroke:none;stroke-width:2;marker:none;enable-background:accumulate"
         d="m 300,223.5 c -4.71531,0 -8.5,3.78469 -8.5,8.5 v 24 c 0,4.71531 3.78469,8.5 8.5,8.5 h 24 c 4.71531,0 8.5,-3.78469 8.5,-8.5 v -24 c 0,-4.71531 -3.78469,-8.5 -8.5,-8.5 z"
         id="path4208" />
      <path
         style="color:#bebebe;display:inline;overflow:visible;visibility:visible;fill:url(#linearGradient6289);fill-opacity:1;fill-rule:nonzero;stroke:none;stroke-width:2;marker:none;enable-background:accumulate"
         d="m 310,32.5 c -9.70255,0 -17.5,7.797452 -17.5,17.5 v 52 c 0,9.70255 7.79745,17.5 17.5,17.5 h 52 c 9.70255,0 17.5,-7.79745 17.5,-17.5 V 50 c 0,-9.702548 -7.79745,-17.5 -17.5,-17.5 z"
         id="path4210" />
      <path
         style="color:#bebebe;display:inline;overflow:visible;visibility:visible;fill:url(#linearGradient6291);fill-opacity:1;fill-rule:nonzero;stroke:none;stroke-width:2;marker:none;enable-background:accumulate"
         d="m 302.5,142.5 c -6.65502,0 -12,5.34498 -12,12 v 35 c 0,6.65502 5.34498,12 12,12 h 35 c 6.65502,0 12,-5.34498 12,-12 v -35 c 0,-6.65502 -5.34498,-12 -12,-12 z"
         id="path4212" />
    </g>
    <g
       inkscape:groupmode="layer"
       id="layer6"
       inkscape:label="Symbols"
       style="display:inline">
      <g
         id="g3917"
         style="display:inline;opacity:0.2;fill:#000000;fill-opacity:1;enable-background:new"
         transform="matrix(0.94287274,0,0,0.94286192,149.13922,-343.19477)">
        <path
           id="path3921"
           style="display:inline;fill:#000000;fill-opacity:1;fill-rule:nonzero;stroke:none;stroke-width:1;enable-background:new"
           d="m 219.71165,410.66259 c -0.78328,-0.0197 -1.58662,0.0423 -2.40294,0.19265 -2.05338,0.37787 -3.78208,1.22881 -5.52468,2.78409 -1.79012,1.59862 -2.24535,3.23939 -4.29421,5.2471 -3.23112,3.16696 -7.10566,4.71872 -11.69568,4.40607 -2.24868,-0.15329 -4.14735,-0.68804 -6.40713,-1.96377 -2.43031,-1.37218 -3.37856,-3.01349 -5.25124,-3.44076 -1.94561,-0.44451 -4.10945,0.0979 -5.40661,1.58884 -1.76873,2.03194 -1.53525,3.92436 -0.76646,6.35328 0.72695,2.29752 1.34915,4.52582 1.4687,6.95194 0.1176,2.38544 -0.15746,4.78933 -0.83688,7.08038 -1.24107,4.18726 -4.2955,8.12006 -7.22125,10.70963 -2.4112,2.13491 -4.11562,2.47486 -5.6614,3.96692 -1.50317,1.45059 -2.47958,3.44284 -2.47958,5.69661 0,3.90076 2.7947,7.15487 6.49415,7.84268 2.89205,0.53677 5.65288,-0.78025 6.51486,-1.05231 6.00617,-1.8936 13.54663,-1.66176 18.99769,-0.0725 4.50679,1.31444 8.40664,3.64239 12.04368,6.58943 1.74958,1.41784 3.07776,3.32357 4.91773,4.636 4.73017,3.37621 12.89786,4.03189 18.12145,-2.70122 3.5369,-4.55871 4.38559,-12.42851 -1.29883,-17.77967 -2.28306,-2.14968 -3.79572,-2.44941 -5.6469,-3.80534 -5.66621,-4.14937 -7.03416,-12.84384 -2.68466,-18.51295 1.24356,-1.62076 2.78965,-2.76491 4.53037,-3.92135 1.80876,-1.20211 3.45831,-2.94621 4.31285,-4.75823 1.71651,-3.63894 1.31059,-8.24055 -1.35269,-11.67495 -2.05905,-2.65493 -5.07618,-4.2774 -8.47034,-4.36257 z"
           sodipodi:nodetypes="sccccccccscccsccccccccscccss" />
      </g>
      <g
         transform="matrix(0.62857137,0,0,0.62857137,209.15699,9.0442207)"
         style="display:inline;opacity:0.2;fill:#000000;fill-opacity:1;enable-background:new"
         id="g3923">
        <path
           id="path3927"
           style="display:inline;fill:#000000;fill-opacity:1;fill-rule:nonzero;stroke:none;stroke-width:0.628571;enable-background:new"
           d="m 401.13672,169.13477 c -0.33351,0.0149 -0.67159,0.0542 -1.01367,0.11718 -1.2907,0.23752 -2.37731,0.77044 -3.47266,1.74805 -1.12522,1.00485 -1.41137,2.03683 -2.69922,3.29883 -2.031,1.99066 -4.4664,2.96605 -7.35156,2.76953 -1.41347,-0.0964 -2.6069,-0.43249 -4.02734,-1.23438 -1.52763,-0.86251 -2.12367,-1.89354 -3.30079,-2.1621 -1.22296,-0.27941 -2.58307,0.0608 -3.39843,0.99804 -1.11178,1.27723 -0.96567,2.46739 -0.48243,3.99414 0.45694,1.44416 0.84868,2.84415 0.92383,4.36914 0.0739,1.49943 -0.0983,3.01109 -0.52539,4.45118 -0.7801,2.63201 -2.70001,5.10273 -4.53906,6.73046 -1.51562,1.34195 -2.58696,1.55627 -3.55859,2.49414 -0.94486,0.91181 -1.56055,2.16538 -1.56055,3.58204 0,2.45192 1.75861,4.49734 4.08398,4.92968 1.81786,0.33739 3.55193,-0.4911 4.09375,-0.66211 3.77532,-1.19027 8.51502,-1.0439 11.94141,-0.0449 2.83286,0.82623 5.28416,2.2882 7.57031,4.14063 1.09974,0.89121 1.93329,2.08909 3.08985,2.91406 2.97326,2.12219 8.10916,2.53499 11.39257,-1.69727 2.2232,-2.86548 2.75667,-7.81218 -0.8164,-11.17578 -1.43507,-1.35123 -2.38718,-1.54028 -3.55078,-2.39258 -3.56164,-2.60819 -4.41953,-8.07325 -1.68555,-11.63671 0.78167,-1.01876 1.75349,-1.73794 2.84766,-2.46485 1.13694,-0.75561 2.17378,-1.85125 2.71093,-2.99023 1.07895,-2.28735 0.82251,-5.17912 -0.85156,-7.33789 -1.39382,-1.79719 -3.48574,-2.8428 -5.82031,-2.73828 z"
           transform="matrix(1.5909092,0,0,1.5909092,-441.09093,-43.227939)"
           sodipodi:nodetypes="sccccccccscccscccsccccscccss" />
      </g>
      <g
         id="g3929"
         style="display:inline;opacity:0.2;fill:#000000;fill-opacity:1;enable-background:new"
         transform="matrix(0.45714282,0,0,0.45714282,168.29626,105.69667)">
        <path
           id="path3933"
           style="display:inline;fill:#000000;fill-opacity:1;fill-rule:nonzero;stroke:none;stroke-width:0.457143;enable-background:new"
           d="m 434.09961,262.25195 c -0.24255,0.0109 -0.48949,0.0382 -0.73828,0.084 -0.93869,0.17275 -1.72682,0.56049 -2.52344,1.27148 -0.81834,0.7308 -1.02822,1.48062 -1.96484,2.39844 -1.47709,1.44775 -3.24741,2.15854 -5.34571,2.01562 -1.02798,-0.0701 -1.89663,-0.31523 -2.92968,-0.89843 -1.111,-0.62728 -1.5443,-1.37695 -2.40039,-1.57227 -0.88942,-0.2032 -1.87772,0.045 -2.47071,0.72656 -0.80857,0.92889 -0.70301,1.79393 -0.35156,2.9043 0.33233,1.0503 0.61722,2.06864 0.67188,3.17774 0.0538,1.09048 -0.0722,2.18898 -0.38282,3.23632 -0.56735,1.91418 -1.96329,3.71269 -3.30078,4.89649 -1.10227,0.97597 -1.88124,1.13042 -2.58789,1.8125 -0.68717,0.66313 -1.13476,1.57517 -1.13477,2.60547 0,1.78321 1.27953,3.26955 2.97071,3.58398 1.32209,0.24537 2.58252,-0.3561 2.97656,-0.48047 2.74569,-0.86565 6.19363,-0.75972 8.68555,-0.0332 2.06026,0.6009 3.84321,1.6645 5.50586,3.01172 0.79981,0.64816 1.4069,1.52111 2.24804,2.12109 2.16237,1.54341 5.89527,1.84167 8.28321,-1.23633 1.61687,-2.08399 2.00485,-5.6807 -0.59375,-8.12695 -1.04369,-0.98272 -1.73577,-1.12038 -2.58203,-1.74023 -2.59028,-1.89686 -3.21493,-5.87128 -1.22657,-8.46289 0.56848,-0.74093 1.27651,-1.2643 2.07227,-1.79297 0.82687,-0.54954 1.58005,-1.34742 1.9707,-2.17579 0.78469,-1.66352 0.59836,-3.76591 -0.61914,-5.33593 -1.01369,-1.30704 -2.53455,-2.06626 -4.23242,-1.99024 z"
           transform="matrix(2.1875002,0,0,2.1875002,-614.50004,-303.93825)"
           sodipodi:nodetypes="ssccsscccscccscccscsccsccsss" />
      </g>
      <g
         transform="matrix(0.31428569,0,0,0.31430033,357.62837,3.5826078)"
         style="display:inline;opacity:0.2;fill:#000000;fill-opacity:1;enable-background:new"
         id="g3935">
        <path
           id="path3939"
           style="display:inline;fill:#000000;fill-opacity:1;fill-rule:nonzero;stroke:none;stroke-width:0.314286;enable-background:new"
           d="m 491.76562,50.501953 c -0.24617,-0.0062 -0.49734,0.01329 -0.7539,0.06055 -0.64535,0.11876 -1.18866,0.38424 -1.73633,0.873047 -0.56262,0.502427 -0.70568,1.019392 -1.34961,1.650391 -1.01549,0.995333 -2.2332,1.483025 -3.67578,1.384765 -0.70673,-0.04818 -1.30345,-0.216241 -2.01367,-0.617187 -0.76382,-0.431258 -1.06183,-0.947748 -1.65039,-1.082032 -0.61148,-0.139701 -1.29154,0.03141 -1.69922,0.5 -0.5559,0.638614 -0.48381,1.232717 -0.24219,1.996094 0.22848,0.722083 0.42532,1.423048 0.46289,2.185547 0.037,0.749716 -0.0502,1.504563 -0.26367,2.224609 -0.39005,1.316004 -1.35001,2.551366 -2.26953,3.365235 -0.75781,0.670976 -1.29349,0.779111 -1.7793,1.248047 -0.47243,0.455903 -0.77929,1.082684 -0.7793,1.791015 0,1.22596 0.87833,2.248673 2.04102,2.464844 0.90893,0.168696 1.77598,-0.246526 2.04688,-0.332031 1.88767,-0.595136 4.25945,-0.520966 5.97265,-0.02148 1.41643,0.413115 2.64014,1.144097 3.78321,2.070313 0.54986,0.445609 0.96859,1.044547 1.54687,1.457031 1.48663,1.061098 4.0536,1.266522 5.69531,-0.849609 1.1116,-1.432743 1.37834,-3.906087 -0.4082,-5.587891 -0.71754,-0.675618 -1.19359,-0.769164 -1.77539,-1.195312 -1.78082,-1.304097 -2.21075,-4.036628 -0.84375,-5.81836 0.39083,-0.509383 0.87674,-0.868965 1.42383,-1.232422 0.56847,-0.377809 1.08689,-0.926599 1.35547,-1.496093 0.53947,-1.143676 0.41125,-2.588579 -0.42579,-3.667969 -0.64713,-0.83441 -1.59535,-1.344327 -2.66211,-1.371094 z"
           transform="matrix(3.1818184,0,0,3.1818184,-1306.5455,12.453712)"
           sodipodi:nodetypes="scccssccssccsscccscsccscssss" />
      </g>
      <g
         id="g3941"
         style="display:inline;opacity:0.2;fill:#000000;fill-opacity:1;enable-background:new"
         transform="matrix(0.2285797,0,0,0.228565,360.91496,57.833922)">
        <path
           id="path3945"
           style="display:inline;fill:#000000;fill-opacity:1;fill-rule:nonzero;stroke:none;stroke-width:0.999998;enable-background:new"
           d="m 315.01043,206.3608 c -0.7833,-0.0197 -1.5848,0.0461 -2.40113,0.19652 -2.05336,0.37787 -3.77742,1.22182 -5.52002,2.7771 -1.79012,1.59862 -2.24924,3.24742 -4.29809,5.25513 -3.23111,3.16695 -7.10798,4.71328 -11.69801,4.40063 -2.24871,-0.1533 -4.14037,-0.6896 -6.40014,-1.96533 -2.43032,-1.37217 -3.38245,-3.00779 -5.25512,-3.43506 -1.94561,-0.4445 -4.1118,0.0984 -5.40895,1.58936 -1.76872,2.03194 -1.52928,3.91996 -0.7605,6.34888 0.72695,2.29752 1.34163,4.52945 1.4612,6.95556 0.11769,2.38545 -0.14962,4.78415 -0.82888,7.0752 -1.24106,4.18726 -4.30326,8.12576 -7.22899,10.71534 -2.4112,2.1349 -4.11097,2.47278 -5.65675,3.96484 -1.50316,1.45058 -2.47804,3.44569 -2.47804,5.69946 0,3.90076 2.79471,7.14788 6.49416,7.8357 2.89205,0.53675 5.64926,-0.77897 6.51123,-1.05103 6.00617,-1.8936 13.5443,-1.65761 18.99537,-0.0684 4.50678,1.31445 8.41129,3.64109 12.04832,6.58814 1.7496,1.41783 3.07339,3.32745 4.91334,4.63989 4.73017,3.3762 12.90022,4.02436 18.12379,-2.70874 3.53688,-4.55871 4.38559,-12.42228 -1.29885,-17.77344 -2.28305,-2.14968 -3.79702,-2.45512 -5.64817,-3.81104 -5.66624,-4.14937 -7.03264,-12.83919 -2.6831,-18.5083 1.24355,-1.62076 2.78806,-2.76567 4.52878,-3.92212 1.80876,-1.20211 3.46067,-2.9475 4.3152,-4.75952 1.71649,-3.63895 1.31315,-8.23796 -1.35008,-11.67236 -2.05905,-2.65493 -5.0824,-4.2813 -8.47657,-4.36646 z"
           sodipodi:nodetypes="ssccssccssscsscccscsscssssss" />
      </g>
      <g
         transform="matrix(0.17141754,0,0,0.17142856,421.82158,80.034487)"
         style="display:inline;opacity:0.2;fill:#000000;fill-opacity:1;enable-background:new"
         id="g3947">
        <path
           id="path3951"
           style="display:inline;fill:#000000;fill-opacity:1;fill-rule:nonzero;stroke:none;stroke-width:1;enable-background:new"
           d="m 34.229542,367.30185 c -0.7833,-0.0175 -1.587658,0.0408 -2.403975,0.19367 -2.053392,0.378 -3.771775,1.22465 -5.514367,2.77993 -1.790075,1.59863 -2.257792,3.23324 -4.306633,5.2409 -3.231142,3.16698 -7.099401,4.72179 -11.689418,4.40918 -2.2486916,-0.15341 -4.1432417,-0.6839 -6.4030168,-1.95965 -2.4303418,-1.37217 -3.37954191,-3.01344 -5.2522754,-3.44073 -1.9455917,-0.4445 -4.1146002,0.0928 -5.4117586,1.58363 -1.7687251,2.03193 -1.5321251,3.92852 -0.7633501,6.35746 0.7269501,2.29752 1.3501251,4.52369 1.4697084,6.94984 0.1178334,2.38542 -0.1639166,4.79558 -0.8430917,7.08662 -1.2410417,4.18723 -4.2861588,8.12012 -7.2119258,10.70959 -2.411208,2.135 -4.116642,2.47275 -5.662417,3.96486 -1.503191,1.45058 -2.483716,3.44289 -2.483716,5.69666 0,3.90081 2.794691,7.15074 6.494133,7.83849 2.89205,0.53666 5.654892,-0.77607 6.5169423,-1.04814 6.0061171,-1.89361 13.5414426,-1.66891 18.9924596,-0.0799 4.5068331,1.31448 8.4056591,3.64968 12.0426841,6.59662 1.749592,1.41791 3.081867,3.32465 4.921875,4.63709 4.730134,3.37622 12.902984,4.03294 18.126618,-2.70019 3.536867,-4.55869 4.385559,-12.43369 -1.29885,-17.78484 -2.283108,-2.1497 -3.799834,-2.44942 -5.651042,-3.80538 -5.666209,-4.14936 -7.038267,-12.84482 -2.688759,-18.51395 1.243551,-1.62073 2.793759,-2.7629 4.534484,-3.9193 1.808742,-1.20213 3.463425,-2.95027 4.318009,-4.76233 1.716516,-3.63889 1.307483,-8.23229 -1.355784,-11.66667 -2.05905,-2.65492 -5.08235,-4.27846 -8.476534,-4.36362 z"
           sodipodi:nodetypes="scccssccssscsscccscsscssssss" />
      </g>
      <g
         id="g3953"
         style="display:inline;opacity:0.2;fill:#000000;fill-opacity:1;enable-background:new"
         transform="matrix(1.8257169,0,0,1.8257029,-75.886234,-495.49683)">
        <path
           id="path3957"
           style="display:inline;fill:#000000;fill-opacity:1;fill-rule:nonzero;stroke:none;stroke-width:0.999998;enable-background:new"
           d="m 147.39133,313.58052 c -0.98063,-0.0246 -1.98581,0.0536 -3.00781,0.24182 -2.57075,0.47309 -4.73374,1.53575 -6.91541,3.48291 -2.24116,2.00142 -2.81308,4.05661 -5.37817,6.57019 -4.04524,3.96492 -8.89519,5.90803 -14.64173,5.51661 -2.81528,-0.19192 -5.19109,-0.86035 -8.02026,-2.45752 -3.04267,-1.71792 -4.23079,-3.77429 -6.57532,-4.30921 -2.43582,-0.5565 -5.144431,0.1226 -6.768433,1.98926 -2.214393,2.54392 -1.922091,4.91355 -0.959595,7.95447 0.910118,2.87642 1.689186,5.66644 1.838868,8.70386 0.147231,2.98649 -0.19699,5.99705 -1.047608,8.86536 -1.553768,5.2423 -5.378457,10.16408 -9.041383,13.40613 -3.01875,2.67283 -5.152757,3.10001 -7.088013,4.96801 -1.881932,1.81609 -3.105226,4.31081 -3.105226,7.13245 0,4.88361 3.500634,8.957 8.132204,9.81812 3.620746,0.672 7.075256,-0.97873 8.15442,-1.31934 7.519516,-2.37073 16.961966,-2.07856 23.786496,-0.0889 5.64236,1.64565 10.52408,4.56054 15.07752,8.25013 2.19042,1.77508 3.85133,4.16143 6.15491,5.80456 5.922,4.22689 16.14958,5.04667 22.68933,-3.38294 4.42807,-5.70733 5.49144,-15.56005 -1.62524,-22.25952 -2.85832,-2.69132 -4.75417,-3.06623 -7.07178,-4.76379 -7.09391,-5.19487 -8.8053,-16.08143 -3.35986,-23.17896 1.55688,-2.02912 3.49365,-3.46037 5.67297,-4.9082 2.2645,-1.505 4.32967,-3.68894 5.39954,-5.95752 2.149,-4.55584 1.63815,-10.31634 -1.69617,-14.61609 -2.57786,-3.32388 -6.35487,-5.3553 -10.60425,-5.46192 z"
           sodipodi:nodetypes="cccccccccccccsccccccccccccc" />
      </g>
      <g
         transform="matrix(0.31065461,0,0,0.31065461,255.23388,-44.557284)"
         style="display:inline;enable-background:new"
         id="g3165">
        <path
           id="path3005"
           style="display:inline;fill:#ff7800;fill-opacity:1;fill-rule:nonzero;stroke:none;stroke-width:0.942857;enable-background:new"
           d="m 578.625,123.00977 c -2.24143,-0.0563 -4.54095,0.12248 -6.87695,0.55273 -5.876,1.08133 -10.81997,3.51223 -15.80664,7.96289 -5.12266,4.57467 -6.4299,9.2703 -12.29297,15.01563 -9.24626,9.06266 -20.33187,13.50599 -33.4668,12.61132 -6.43493,-0.43866 -11.86536,-1.96651 -18.33203,-5.61718 -6.95466,-3.92667 -9.67037,-8.62694 -15.0293,-9.84961 -5.5676,-1.272 -11.7587,0.28021 -15.4707,4.54687 -5.06147,5.81467 -4.39336,11.22903 -2.19336,18.17969 2.08027,6.57467 3.861,12.94992 4.20313,19.89258 0.33653,6.82627 -0.45027,13.70949 -2.39454,20.26562 -3.55147,11.9824 -12.29361,23.23413 -20.66601,30.64453 -6.9,6.10933 -11.77773,7.08379 -16.20117,11.35352 C 419.7961,252.71942 417,258.42163 417,264.87109 c 0,11.16254 8.00145,20.47314 18.58789,22.44141 8.27599,1.536 16.17201,-2.23514 18.63867,-3.01367 17.18747,-5.4188 38.77021,-4.75294 54.36914,-0.20508 12.8968,3.76147 24.05503,10.42409 34.46289,18.85742 5.00667,4.05733 8.80499,9.51185 14.07032,13.26758 13.536,9.66145 36.91137,11.53526 51.85937,-7.73242 10.1213,-13.04533 12.55186,-35.56585 -3.71484,-50.87891 -6.5333,-6.1516 -10.86666,-7.00853 -16.16406,-10.88867 -16.21464,-11.87399 -20.12444,-36.75754 -7.67774,-52.98047 3.5586,-4.638 7.98354,-7.90942 12.96484,-11.21875 5.176,-3.44 9.8964,-8.4299 12.3418,-13.61523 4.912,-10.41333 3.7463,-23.58021 -3.875,-33.40821 -5.89225,-7.59742 -14.52541,-12.24261 -24.23828,-12.48632 z"
           transform="matrix(1.0606062,0,0,1.0606062,-288.36364,151.39346)"
           sodipodi:nodetypes="sccccccccccccsccccccccccccs" />
        <path
           id="path3125"
           style="display:inline;fill:#ffffff;fill-opacity:1;stroke:none;stroke-width:0.942857;enable-background:new"
           d="m 540.92773,187.23242 c -4.8547,0 -6.92382,4.09445 -6.92382,6.66992 v 5.75196 c -4.4199,-6.10162 -11.5491,-11.70703 -21.8418,-11.70703 -7.8418,0 -14.52665,3.17115 -20.06055,9.51757 -5.5317,6.31509 -8.29883,13.91932 -8.29883,22.81055 0,8.92656 2.76713,16.54629 8.29883,22.85938 5.5339,6.31362 12.21875,9.4707 20.06055,9.4707 9.6036,0 16.636,-4.65907 21.8418,-11.66016 v 5.34766 c 0,2.89161 1.93972,6.87305 6.98242,6.87305 2.972,0 6.76367,-2.44836 6.76367,-6.87305 v -52.1875 c 0,-2.69521 -2.02477,-6.87305 -6.82227,-6.87305 z m -24.99414,13.34375 c 10.6318,0 18.07618,9.42591 18.07618,19.90821 0,9.91616 -6.97828,19.85546 -18.07618,19.85546 -10.2844,0 -18.07421,-8.95436 -18.07421,-19.85546 -10e-6,-10.32337 7.56581,-19.90821 18.07421,-19.90821 z"
           transform="matrix(1.0606062,0,0,1.0606062,-288.36364,151.39346)"
           sodipodi:nodetypes="sscscscscssssssssss" />
      </g>
      <g
         id="g3865"
         style="display:inline;enable-background:new"
         transform="matrix(0.62857137,0,0,0.62857137,142.74879,-42.061235)">
        <path
           id="path3869"
           style="display:inline;fill:#ff7800;fill-opacity:1;fill-rule:nonzero;stroke:none;stroke-width:0.628571;enable-background:new"
           d="m 467.54492,218.24023 c -0.33351,0.0149 -0.67159,0.0542 -1.01367,0.11719 -1.2907,0.23752 -2.37731,0.77044 -3.47266,1.74805 -1.12522,1.00485 -1.41136,2.03683 -2.69921,3.29883 -2.031,1.99066 -4.46641,2.96605 -7.35157,2.76953 -1.41347,-0.0964 -2.6069,-0.43249 -4.02734,-1.23438 -1.52763,-0.86251 -2.12366,-1.89354 -3.30078,-2.16211 -1.22296,-0.2794 -2.58308,0.0608 -3.39844,0.99805 -1.11178,1.27723 -0.96566,2.46739 -0.48242,3.99414 0.45694,1.44416 0.84868,2.84415 0.92383,4.36914 0.0739,1.49943 -0.0983,3.01108 -0.52539,4.45117 -0.7801,2.63201 -2.70002,5.10274 -4.53907,6.73047 -1.51562,1.34195 -2.58696,1.55627 -3.55859,2.49414 -0.94486,0.91181 -1.56055,2.16537 -1.56055,3.58203 0,2.45192 1.75862,4.49735 4.08399,4.92969 1.81786,0.33739 3.55193,-0.4911 4.09375,-0.66211 3.77532,-1.19027 8.51501,-1.04388 11.9414,-0.0449 2.83286,0.82623 5.28417,2.2882 7.57032,4.14063 1.09974,0.89121 1.93328,2.08909 3.08984,2.91406 2.97326,2.12219 8.10917,2.53499 11.39258,-1.69727 2.2232,-2.86548 2.75666,-7.81218 -0.81641,-11.17578 -1.43507,-1.35123 -2.38718,-1.54028 -3.55078,-2.39258 -3.56164,-2.60819 -4.41953,-8.07326 -1.68555,-11.63672 0.78167,-1.01876 1.75349,-1.73793 2.84766,-2.46484 1.13694,-0.75561 2.17379,-1.85125 2.71094,-2.99023 1.07895,-2.28735 0.8225,-5.17912 -0.85157,-7.33789 -1.39382,-1.79719 -3.48574,-2.84281 -5.82031,-2.73829 z"
           transform="matrix(1.5909092,0,0,1.5909092,-441.09093,-41.636858)"
           sodipodi:nodetypes="sccccscccscccscccsccccscccss" />
        <path
           id="path3867"
           style="display:inline;fill:#ffffff;fill-opacity:1;stroke:none;stroke-width:0.628571;enable-background:new"
           d="m 459.76172,232.3418 c -1.06636,0 -1.52149,0.89912 -1.52149,1.46484 v 1.26367 c -0.97085,-1.34025 -2.53797,-2.57031 -4.79882,-2.57031 -1.7225,0 -3.1907,0.69582 -4.40625,2.08984 -1.21507,1.38715 -1.82227,3.05676 -1.82227,5.00977 0,1.96077 0.6072,3.63478 1.82227,5.02148 1.21555,1.38683 2.68375,2.08008 4.40625,2.08008 2.10948,0 3.65534,-1.02272 4.79882,-2.56055 v 1.17383 c 0,0.63516 0.42555,1.50977 1.53321,1.50977 0.65281,0 1.48633,-0.53786 1.48633,-1.50977 v -11.46289 c 0,-0.59202 -0.44425,-1.50976 -1.49805,-1.50976 z m -5.49024,2.93164 c 2.33534,0 3.96875,2.07055 3.96875,4.37304 0,2.17815 -1.53103,4.36133 -3.96875,4.36133 -2.25902,0 -3.9707,-1.96684 -3.9707,-4.36133 0,-2.26758 1.66248,-4.37304 3.9707,-4.37304 z"
           transform="matrix(1.5909092,0,0,1.5909092,-441.09093,-41.636858)"
           sodipodi:nodetypes="sscscscscssssssssss" />
      </g>
      <g
         transform="matrix(0.45714282,0,0,0.45714282,197.4818,77.286377)"
         style="display:inline;enable-background:new"
         id="g3873">
        <path
           id="path3877"
           style="display:inline;fill:#ff7800;fill-opacity:1;fill-rule:nonzero;stroke:none;stroke-width:0.457143;enable-background:new"
           d="m 404.91406,288.66211 c -0.24255,0.0109 -0.48949,0.0382 -0.73828,0.084 -0.93869,0.17275 -1.72682,0.5605 -2.52344,1.27149 -0.81834,0.7308 -1.02822,1.48062 -1.96484,2.39844 -1.47709,1.44775 -3.2474,2.15854 -5.3457,2.01562 -1.02798,-0.0701 -1.89664,-0.31524 -2.92969,-0.89844 -1.111,-0.62728 -1.5443,-1.37694 -2.40039,-1.57226 -0.88942,-0.2032 -1.87771,0.045 -2.4707,0.72656 -0.80857,0.92889 -0.70302,1.79393 -0.35157,2.9043 0.33233,1.0503 0.61722,2.06864 0.67188,3.17773 0.0538,1.09049 -0.0722,2.18899 -0.38281,3.23633 -0.56735,1.91418 -1.9633,3.71268 -3.30079,4.89648 -1.10227,0.97597 -1.88124,1.13042 -2.58789,1.8125 -0.68717,0.66313 -1.13476,1.57517 -1.13476,2.60547 0,1.78321 1.27952,3.26956 2.9707,3.58399 1.32209,0.24537 2.58252,-0.3561 2.97656,-0.48047 2.74569,-0.86565 6.19363,-0.75972 8.68555,-0.0332 2.06026,0.6009 3.84321,1.6645 5.50586,3.01172 0.79981,0.64816 1.40691,1.52112 2.24805,2.1211 2.16237,1.54341 5.89526,1.84167 8.2832,-1.23633 1.61687,-2.08399 2.00485,-5.6807 -0.59375,-8.12695 -1.04369,-0.98272 -1.73577,-1.12039 -2.58203,-1.74024 -2.59028,-1.89686 -3.21492,-5.87128 -1.22656,-8.46289 0.56848,-0.74092 1.2765,-1.2643 2.07226,-1.79297 0.82687,-0.54954 1.58005,-1.34742 1.9707,-2.17578 0.78469,-1.66352 0.59836,-3.76592 -0.61914,-5.33594 -1.01369,-1.30704 -2.53455,-2.06625 -4.23242,-1.99023 z"
           transform="matrix(2.1875002,0,0,2.1875002,-614.50004,-301.75051)"
           sodipodi:nodetypes="ssccsscccscccscccscsccsccsss" />
        <path
           id="path3875"
           style="display:inline;fill:#ffffff;fill-opacity:1;stroke:none;stroke-width:0.457143;enable-background:new"
           d="m 399.25391,298.91797 c -0.77554,0 -1.10743,0.65302 -1.10743,1.06445 v 0.91992 c -0.70607,-0.97473 -1.84402,-1.87109 -3.48828,-1.87109 -1.25272,0 -2.32104,0.50765 -3.20508,1.52148 -0.88368,1.00884 -1.32617,2.22221 -1.32617,3.64258 0,1.42602 0.44249,2.64383 1.32617,3.65235 0.88404,1.00859 1.95236,1.51367 3.20508,1.51367 1.53417,0 2.65666,-0.74486 3.48828,-1.86328 v 0.85351 c 0,0.46194 0.30967,1.09766 1.11524,1.09766 0.47477,0 1.08203,-0.39082 1.08203,-1.09766 v -8.33594 c 0,-0.43055 -0.32345,-1.09765 -1.08984,-1.09765 z m -3.99414,2.13086 c 1.69842,0 2.88867,1.50514 2.88867,3.17969 0,1.5841 -1.11579,3.17187 -2.88867,3.17187 -1.64293,0 -2.88672,-1.43043 -2.88672,-3.17187 0,-1.64916 1.208,-3.17969 2.88672,-3.17969 z"
           transform="matrix(2.1875002,0,0,2.1875002,-614.50004,-301.75051)"
           sodipodi:nodetypes="sscscscscssssssssss" />
      </g>
      <g
         id="g3881"
         style="display:inline;enable-background:new"
         transform="matrix(0.03451738,0,0,0.03451738,417.89945,55.159547)">
        <path
           id="path3885"
           style="display:inline;fill:#ff7800;fill-opacity:1;fill-rule:nonzero;stroke:none;stroke-width:0.314286;enable-background:new"
           d="m 600.625,11.853516 c -2.24143,-0.05624 -4.54095,0.122483 -6.87695,0.552734 -5.876,1.08133 -10.81997,3.510278 -15.80664,7.960938 -5.12266,4.574669 -6.4299,9.272248 -12.29297,15.017578 -9.24626,9.06266 -20.33187,13.504045 -33.4668,12.609375 -6.43493,-0.43866 -11.86536,-1.966518 -18.33203,-5.617188 -6.95466,-3.92667 -9.67037,-8.626939 -15.0293,-9.849609 -5.5676,-1.272 -11.7587,0.280215 -15.4707,4.546875 -5.06147,5.81467 -4.39336,11.23098 -2.19336,18.18164 2.08027,6.57467 3.861,12.949918 4.20313,19.892579 0.33653,6.826269 -0.45027,13.709494 -2.39454,20.265624 -3.55147,11.982398 -12.29361,23.232178 -20.66601,30.642578 -6.9,6.10933 -11.77773,7.08574 -16.20117,11.35547 C 441.7961,141.56317 439,147.26538 439,153.71484 c 0,11.16254 8.00145,20.47314 18.58789,22.44141 8.27599,1.536 16.17201,-2.2371 18.63867,-3.01563 17.18747,-5.4188 38.77021,-4.75098 54.36914,-0.20312 12.8968,3.76147 24.05503,10.42409 34.46289,18.85742 5.00667,4.05733 8.80499,9.5099 14.07032,13.26563 13.536,9.66145 36.91137,11.53721 51.85937,-7.73047 10.1213,-13.04533 12.55186,-35.56585 -3.71484,-50.87891 -6.5333,-6.1516 -10.86666,-7.00853 -16.16406,-10.88867 -16.21464,-11.87399 -20.12444,-36.757539 -7.67774,-52.980469 3.5586,-4.638 7.98354,-7.90942 12.96484,-11.21875 5.176,-3.44 9.8964,-8.431857 12.3418,-13.617187 4.912,-10.41333 3.7463,-23.580203 -3.875,-33.408203 C 618.97103,16.740472 610.33787,12.097229 600.625,11.853516 Z"
           transform="matrix(3.1818184,0,0,3.1818184,-1306.5455,15.635878)"
           sodipodi:nodetypes="sccccccccccccsccccccccccccs" />
        <path
           id="path3883"
           style="display:inline;fill:#ffffff;fill-opacity:1;stroke:none;stroke-width:0.314286;enable-background:new"
           d="m 562.92773,76.076172 c -4.8547,0 -6.92382,4.094447 -6.92382,6.669922 v 5.751953 c -4.4199,-6.101619 -11.5491,-11.708985 -21.8418,-11.708985 -7.8418,0 -14.52665,3.173112 -20.06055,9.519532 -5.5317,6.315086 -8.29883,13.919316 -8.29883,22.810546 0,8.92656 2.76713,16.54629 8.29883,22.85938 5.5339,6.31362 12.21875,9.4707 20.06055,9.4707 9.6036,0 16.636,-4.65907 21.8418,-11.66016 v 5.34766 c 0,2.89161 1.93972,6.87305 6.98242,6.87305 2.972,0 6.76367,-2.44836 6.76367,-6.87305 V 82.949219 c 0,-2.695208 -2.02477,-6.873047 -6.82227,-6.873047 z m -24.99414,13.34375 c 10.6318,0 18.07618,9.423951 18.07618,19.906248 0,9.91616 -6.97828,19.85742 -18.07618,19.85742 -10.2844,0 -18.07421,-8.95632 -18.07421,-19.85742 0,-10.323363 7.56581,-19.906248 18.07421,-19.906248 z"
           transform="matrix(3.1818184,0,0,3.1818184,-1306.5455,15.635878)"
           sodipodi:nodetypes="sscscscscssssssssss" />
      </g>
      <g
         transform="matrix(0.01825702,0,0,0.01825702,416.38354,105.0408)"
         style="display:inline;enable-background:new"
         id="g3889">
        <path
           id="path3893"
           style="display:inline;fill:#ff7800;fill-opacity:1;fill-rule:nonzero;stroke:none;stroke-width:0.228571;enable-background:new"
           d="m 619.5,45.951172 c -2.24143,-0.05624 -4.54095,0.122484 -6.87695,0.552734 -5.876,1.08133 -10.81997,3.512231 -15.80664,7.962891 -5.12266,4.574669 -6.42795,9.270295 -12.29102,15.015625 -9.24626,9.06266 -20.33187,13.505998 -33.4668,12.611328 -6.43493,-0.43866 -11.86536,-1.968471 -18.33203,-5.619141 -6.95466,-3.92667 -9.67232,-8.624986 -15.03125,-9.847656 -5.5676,-1.272 -11.75675,0.280215 -15.46875,4.546875 -5.06147,5.81467 -4.39531,11.229028 -2.19531,18.179688 2.08027,6.57467 3.86099,12.949914 4.20313,19.892574 0.33653,6.82627 -0.45027,13.7095 -2.39454,20.26563 -3.55147,11.9824 -12.29166,23.23413 -20.66406,30.64453 -6.9,6.10933 -11.77773,7.08379 -16.20117,11.35352 -4.30156,4.15106 -7.09961,9.85327 -7.09961,16.30273 0,11.16254 8.00145,20.47314 18.58789,22.44141 8.27599,1.536 16.17201,-2.23515 18.63867,-3.01368 17.18747,-5.4188 38.77217,-4.75293 54.3711,-0.20507 12.8968,3.76147 24.05307,10.42409 34.46093,18.85742 5.00667,4.05733 8.80499,9.51185 14.07032,13.26758 13.536,9.66145 36.91137,11.53525 51.85937,-7.73243 10.1213,-13.04533 12.55186,-35.56584 -3.71484,-50.8789 -6.5333,-6.1516 -10.86667,-7.00853 -16.16406,-10.88867 -16.21465,-11.87399 -20.12444,-36.75754 -7.67774,-52.98047 3.5586,-4.638 7.9855,-7.90942 12.9668,-11.21875 5.176,-3.44 9.89639,-8.429907 12.34179,-13.615237 4.912,-10.41333 3.74435,-23.580203 -3.87695,-33.408203 C 637.84603,50.840081 629.21287,46.194885 619.5,45.951172 Z"
           transform="matrix(4.3750004,0,0,4.3750004,-1804.5001,-258.00051)"
           sodipodi:nodetypes="sccccccccccccsccccccccccccs" />
        <path
           id="path3891"
           style="display:inline;fill:#ffffff;fill-opacity:1;stroke:none;stroke-width:0.228571;enable-background:new"
           d="m 581.80469,110.17383 c -4.8547,0 -6.92578,4.09445 -6.92578,6.66992 v 5.75195 c -4.4199,-6.10162 -11.5491,-11.70703 -21.8418,-11.70703 -7.8418,0 -14.52665,3.17116 -20.06055,9.51758 -5.5317,6.31509 -8.29687,13.91932 -8.29687,22.81055 0,8.92656 2.76517,16.54628 8.29687,22.85937 5.5339,6.31362 12.21875,9.47071 20.06055,9.47071 9.6036,-10e-6 16.636,-4.65907 21.8418,-11.66016 v 5.34766 c 0,2.89161 1.94167,6.87304 6.98437,6.87304 2.972,0 6.76172,-2.44836 6.76172,-6.87304 v -52.1875 c 0,-2.69521 -2.02281,-6.87305 -6.82031,-6.87305 z m -24.99414,13.34375 c 10.6318,0 18.07422,9.4259 18.07422,19.9082 0,9.91616 -6.97632,19.85547 -18.07422,19.85547 -10.2844,0 -18.07617,-8.95437 -18.07617,-19.85547 0,-10.32336 7.56777,-19.9082 18.07617,-19.9082 z"
           transform="matrix(4.3750004,0,0,4.3750004,-1804.5001,-258.00051)"
           sodipodi:nodetypes="sscscscscssssssssss" />
      </g>
      <g
         id="g3901"
         style="display:inline;enable-background:new"
         transform="matrix(0.01026957,0,0,0.01026957,416.83087,139.13824)">
        <path
           id="path3905"
           style="display:inline;fill:#ff7800;fill-opacity:1;fill-rule:nonzero;stroke:none;stroke-width:0.171429;enable-background:new"
           d="m 593.625,156.00977 c -2.24143,-0.0563 -4.54095,0.12248 -6.87695,0.55273 -5.876,1.08133 -10.81997,3.51223 -15.80664,7.96289 -5.12266,4.57467 -6.4299,9.2703 -12.29297,15.01563 -9.24626,9.06266 -20.33187,13.50599 -33.4668,12.61132 -6.43493,-0.43866 -11.86536,-1.96651 -18.33203,-5.61718 -6.95466,-3.92667 -9.67037,-8.62694 -15.0293,-9.84961 -5.5676,-1.272 -11.7587,0.28021 -15.4707,4.54687 -5.06147,5.81467 -4.39336,11.22903 -2.19336,18.17969 2.08027,6.57467 3.861,12.94992 4.20313,19.89258 0.33653,6.82627 -0.45027,13.70949 -2.39454,20.26562 -3.55147,11.9824 -12.29361,23.23413 -20.66601,30.64453 -6.9,6.10933 -11.77773,7.08379 -16.20117,11.35352 C 434.7961,285.71942 432,291.42163 432,297.87109 c 0,11.16254 8.00145,20.47314 18.58789,22.44141 8.27599,1.536 16.17201,-2.23514 18.63867,-3.01367 17.18747,-5.4188 38.77021,-4.75294 54.36914,-0.20508 12.8968,3.76147 24.05503,10.42409 34.46289,18.85742 5.00667,4.05733 8.80499,9.51185 14.07032,13.26758 13.536,9.66145 36.91137,11.53526 51.85937,-7.73242 10.1213,-13.04533 12.55186,-35.56585 -3.71484,-50.87891 -6.5333,-6.1516 -10.86666,-7.00853 -16.16406,-10.88867 -16.21464,-11.87399 -20.12444,-36.75754 -7.67774,-52.98047 3.5586,-4.638 7.98354,-7.90942 12.96484,-11.21875 5.176,-3.44 9.8964,-8.4299 12.3418,-13.61523 4.912,-10.41333 3.7463,-23.58021 -3.875,-33.40821 -5.89225,-7.59742 -14.52541,-12.24261 -24.23828,-12.48632 z"
           transform="matrix(5.8333337,0,0,5.8333337,-2405.3335,-631.33383)"
           sodipodi:nodetypes="sccccccccccccsccccccccccccs" />
        <path
           id="path3903"
           style="display:inline;fill:#ffffff;fill-opacity:1;stroke:none;stroke-width:0.171429;enable-background:new"
           d="m 555.92773,220.23242 c -4.8547,0 -6.92382,4.09445 -6.92382,6.66992 v 5.75196 c -4.4199,-6.10162 -11.5491,-11.70703 -21.8418,-11.70703 -7.8418,0 -14.52665,3.17115 -20.06055,9.51757 -5.5317,6.31509 -8.29883,13.91932 -8.29883,22.81055 0,8.92656 2.76713,16.54629 8.29883,22.85938 5.5339,6.31362 12.21875,9.4707 20.06055,9.4707 9.6036,0 16.636,-4.65907 21.8418,-11.66016 v 5.34766 c 0,2.89161 1.93972,6.87305 6.98242,6.87305 2.972,0 6.76367,-2.44836 6.76367,-6.87305 v -52.1875 c 0,-2.69521 -2.02477,-6.87305 -6.82227,-6.87305 z m -24.99414,13.34375 c 10.6318,0 18.07618,9.42591 18.07618,19.90821 0,9.91616 -6.97828,19.85546 -18.07618,19.85546 -10.2844,0 -18.07421,-8.95436 -18.07421,-19.85546 0,-10.32337 7.56581,-19.90821 18.07421,-19.90821 z"
           transform="matrix(5.8333337,0,0,5.8333337,-2405.3335,-631.33383)"
           sodipodi:nodetypes="sscscscscssssssssss" />
      </g>
      <g
         transform="matrix(1.8257124,0,0,1.8257124,171.61347,-329.86687)"
         style="display:inline;enable-background:new"
         id="g3909">
        <path
           id="path3913"
           style="display:inline;fill:#ff7800;fill-opacity:1;fill-rule:nonzero;stroke:none;stroke-width:2.28571;enable-background:new"
           d="m 15.607422,133.85352 c -2.241431,-0.0563 -4.538994,0.12248 -6.8750001,0.55273 -5.876,1.08133 -10.8199706,3.51028 -15.8066407,7.96094 -5.1226602,4.57467 -6.4298982,9.27225 -12.2929692,15.01758 -9.246259,9.06266 -20.331866,13.50404 -33.466796,12.60937 -6.43493,-0.43866 -11.865362,-1.96652 -18.332032,-5.61719 -6.95466,-3.92667 -9.670366,-8.62694 -15.029296,-9.84961 -5.5676,-1.272 -11.758704,0.28022 -15.470708,4.54688 -5.06147,5.81467 -4.39335,11.23098 -2.19336,18.18164 2.08027,6.57467 3.861,12.94992 4.20313,19.89258 0.33653,6.82627 -0.45026,13.70949 -2.39453,20.26562 -3.55147,11.9824 -12.29362,23.23218 -20.66602,30.64258 -6.9,6.10933 -11.77773,7.08574 -16.20117,11.35547 -4.30156,4.15106 -7.09765,9.85327 -7.09765,16.30273 0,11.16254 8.00145,20.47314 18.58789,22.44141 8.27599,1.536 16.17201,-2.23709 18.63867,-3.01563 17.187468,-5.4188 38.770208,-4.75098 54.369138,-0.20312 12.8968,3.76147 24.055031,10.42409 34.462891,18.85742 5.00667,4.05733 8.803029,9.5099 14.0683591,13.26563 13.536,9.66145 36.9133279,11.53721 51.8613279,-7.73047 10.1213,-13.04533 12.551856,-35.56585 -3.714844,-50.87891 C 35.724513,262.29957 31.39115,261.44264 26.09375,257.5625 9.87911,245.68851 5.9673625,220.80496 18.414062,204.58203 c 3.558601,-4.638 7.985497,-7.90942 12.966797,-11.21875 5.176,-3.44 9.896397,-8.43186 12.341797,-13.61719 4.912,-10.41333 3.744347,-23.5802 -3.876953,-33.4082 -5.89225,-7.59742 -14.525414,-12.24066 -24.238281,-12.48437 z"
           transform="matrix(0.43750004,0,0,0.43750004,5.0000225,163.74952)"
           sodipodi:nodetypes="cccccccccccccsccccccccccccc" />
        <path
           id="path3911"
           style="display:inline;fill:#ffffff;fill-opacity:1;stroke:none;stroke-width:2.28571;enable-background:new"
           d="m -22.087891,198.07617 c -4.8547,0 -6.925781,4.09445 -6.925781,6.66992 v 5.75196 c -4.4199,-6.10162 -11.547144,-11.70899 -21.839844,-11.70899 -7.8418,0 -14.526646,3.17311 -20.060546,9.51953 -5.5317,6.31509 -8.298829,13.91932 -8.298829,22.81055 0,8.92656 2.767128,16.54629 8.298829,22.85938 5.5339,6.31362 12.218746,9.4707 20.060546,9.4707 9.6036,0 16.634044,-4.65907 21.839844,-11.66016 v 5.34766 c 0,2.89161 1.941675,6.87305 6.984375,6.87305 2.972,0 6.763672,-2.44836 6.763672,-6.87305 v -52.1875 c 0,-2.69521 -2.024766,-6.87305 -6.822266,-6.87305 z m -24.99414,13.34375 c 10.6318,0 18.074219,9.42395 18.074219,19.90625 0,9.91616 -6.976319,19.85742 -18.074219,19.85742 -10.2844,0 -18.074219,-8.95632 -18.074219,-19.85742 0,-10.32336 7.565819,-19.90625 18.074219,-19.90625 z"
           transform="matrix(0.43750004,0,0,0.43750004,5.0000225,163.74952)"
           sodipodi:nodetypes="sscscscscssssssssss" />
      </g>
    </g>
    <g
       inkscape:groupmode="layer"
       id="layer5"
       inkscape:label="Highlights"
       style="display:inline"
       sodipodi:insensitive="true">
      <path
         style="color:#bebebe;display:inline;overflow:visible;visibility:visible;opacity:0.13;fill:#ffffff;fill-opacity:1;fill-rule:nonzero;stroke:none;stroke-width:0;marker:none;enable-background:accumulate"
         d="M 84,47 C 56.836703,47 35,68.836703 35,96 v 1 C 35,69.836703 56.836703,48 84,48 h 120 c 27.1633,0 49,21.836703 49,49 V 96 C 253,68.836703 231.1633,47 204,47 Z"
         id="rect3894"
         inkscape:connector-curvature="0" />
      <path
         style="color:#bebebe;display:inline;overflow:visible;visibility:visible;opacity:0.13;fill:#ffffff;fill-opacity:1;fill-rule:nonzero;stroke:none;stroke-width:0;marker:none;enable-background:accumulate"
         d="m 419,141 c -1.1253,0 -2,0.8747 -2,2 v 1 c 0,-1.1253 0.8747,-2 2,-2 h 10 c 1.1253,0 2,0.8747 2,2 v -1 c 0,-1.1253 -0.8747,-2 -2,-2 z"
         id="rect3896"
         inkscape:connector-curvature="0" />
      <path
         style="color:#bebebe;display:inline;overflow:visible;visibility:visible;opacity:0.13;fill:#ffffff;fill-opacity:1;fill-rule:nonzero;stroke:none;stroke-width:0;marker:none;enable-background:accumulate"
         d="m 422,102 c -2.2333,0 -4,1.7667 -4,4 v 1 c 0,-2.2333 1.7667,-4 4,-4 h 12 c 2.2333,0 4,1.7667 4,4 v -1 c 0,-2.2333 -1.7667,-4 -4,-4 z"
         id="rect3898"
         inkscape:connector-curvature="0" />
      <path
         style="color:#bebebe;display:inline;overflow:visible;visibility:visible;opacity:0.13;fill:#ffffff;fill-opacity:1;fill-rule:nonzero;stroke:none;stroke-width:0;marker:none;enable-background:accumulate"
         d="m 424,54 c -3.3413,0 -6,2.658703 -6,6 v 1 c 0,-3.341297 2.6587,-6 6,-6 h 16 c 3.3413,0 6,2.658703 6,6 v -1 c 0,-3.341297 -2.6587,-6 -6,-6 z"
         id="rect3900"
         inkscape:connector-curvature="0" />
      <path
         style="color:#bebebe;display:inline;overflow:visible;visibility:visible;opacity:0.13;fill:#ffffff;fill-opacity:1;fill-rule:nonzero;stroke:none;stroke-width:0;marker:none;enable-background:accumulate"
         d="m 300,224 c -4.4493,0 -8,3.5507 -8,8 v 1 c 0,-4.4493 3.5507,-8 8,-8 h 24 c 4.4493,0 8,3.5507 8,8 v -1 c 0,-4.4493 -3.5507,-8 -8,-8 z"
         id="rect3902"
         inkscape:connector-curvature="0" />
      <path
         style="color:#bebebe;display:inline;overflow:visible;visibility:visible;opacity:0.13;fill:#ffffff;fill-opacity:1;fill-rule:nonzero;stroke:none;stroke-width:0;marker:none;enable-background:accumulate"
         d="m 310,33 c -9.4353,0 -17,7.564703 -17,17 v 1 c 0,-9.435297 7.5647,-17 17,-17 h 52 c 9.4353,0 17,7.564703 17,17 v -1 c 0,-9.435297 -7.5647,-17 -17,-17 z"
         id="rect3904"
         inkscape:connector-curvature="0" />
      <path
         style="color:#bebebe;display:inline;overflow:visible;visibility:visible;opacity:0.13;fill:#ffffff;fill-opacity:1;fill-rule:nonzero;stroke:none;stroke-width:0;marker:none;enable-background:accumulate"
         d="m 302.5,143 c -6.3883,0 -11.5,5.1117 -11.5,11.5 v 1 c 0,-6.3883 5.1117,-11.5 11.5,-11.5 h 35 c 6.3883,0 11.5,5.1117 11.5,11.5 v -1 c 0,-6.3883 -5.1117,-11.5 -11.5,-11.5 z"
         id="rect3906"
         inkscape:connector-curvature="0" />
      <path
         id="path4085"
         d="m 204,266 c 27.1633,0 49,-21.8367 49,-49 v -1 c 0,27.1633 -21.8367,49 -49,49 H 84 C 56.8367,265 35,243.1633 35,216 v 1 c 0,27.1633 21.8367,49 49,49 z"
         style="color:#bebebe;display:inline;overflow:visible;visibility:visible;opacity:0.5;fill:#000000;fill-opacity:1;fill-rule:nonzero;stroke:none;stroke-width:0;marker:none;enable-background:accumulate"
         inkscape:connector-curvature="0" />
      <path
         id="path4087"
         d="m 429,156 c 1.1253,0 2,-0.8747 2,-2 v -1 c 0,1.1253 -0.8747,2 -2,2 h -10 c -1.1253,0 -2,-0.8747 -2,-2 v 1 c 0,1.1253 0.8747,2 2,2 z"
         style="color:#bebebe;display:inline;overflow:visible;visibility:visible;opacity:0.3;fill:#000000;fill-opacity:1;fill-rule:nonzero;stroke:none;stroke-width:0;marker:none;enable-background:accumulate"
         inkscape:connector-curvature="0" />
      <path
         id="path4089"
         d="m 434,123 c 2.2333,0 4,-1.7667 4,-4 v -1 c 0,2.2333 -1.7667,4 -4,4 h -12 c -2.2333,0 -4,-1.7667 -4,-4 v 1 c 0,2.2333 1.7667,4 4,4 z"
         style="color:#bebebe;display:inline;overflow:visible;visibility:visible;opacity:0.3;fill:#000000;fill-opacity:1;fill-rule:nonzero;stroke:none;stroke-width:0;marker:none;enable-background:accumulate"
         inkscape:connector-curvature="0" />
      <path
         id="path4091"
         d="m 440,83 c 3.3413,0 6,-2.6587 6,-6 v -1 c 0,3.3413 -2.6587,6 -6,6 h -16 c -3.3413,0 -6,-2.6587 -6,-6 v 1 c 0,3.3413 2.6587,6 6,6 z"
         style="color:#bebebe;display:inline;overflow:visible;visibility:visible;opacity:0.5;fill:#000000;fill-opacity:1;fill-rule:nonzero;stroke:none;stroke-width:0;marker:none;enable-background:accumulate"
         inkscape:connector-curvature="0" />
      <path
         id="path4093"
         d="m 324,265 c 4.4493,0 8,-3.5507 8,-8 v -1 c 0,4.4493 -3.5507,8 -8,8 h -24 c -4.4493,0 -8,-3.5507 -8,-8 v 1 c 0,4.4493 3.5507,8 8,8 z"
         style="color:#bebebe;display:inline;overflow:visible;visibility:visible;opacity:0.5;fill:#000000;fill-opacity:1;fill-rule:nonzero;stroke:none;stroke-width:0;marker:none;enable-background:accumulate"
         inkscape:connector-curvature="0" />
      <path
         id="path4095"
         d="m 362,120 c 9.4353,0 17,-7.5647 17,-17 v -1 c 0,9.4353 -7.5647,17 -17,17 h -52 c -9.4353,0 -17,-7.5647 -17,-17 v 1 c 0,9.4353 7.5647,17 17,17 z"
         style="color:#bebebe;display:inline;overflow:visible;visibility:visible;opacity:0.5;fill:#000000;fill-opacity:1;fill-rule:nonzero;stroke:none;stroke-width:0;marker:none;enable-background:accumulate"
         inkscape:connector-curvature="0" />
      <path
         id="path4097"
         d="m 337.5,202 c 6.3883,0 11.5,-5.1117 11.5,-11.5 v -1 c 0,6.3883 -5.1117,11.5 -11.5,11.5 h -35 c -6.3883,0 -11.5,-5.1117 -11.5,-11.5 v 1 c 0,6.3883 5.1117,11.5 11.5,11.5 z"
         style="color:#bebebe;display:inline;overflow:visible;visibility:visible;opacity:0.5;fill:#000000;fill-opacity:1;fill-rule:nonzero;stroke:none;stroke-width:0;marker:none;enable-background:accumulate"
         inkscape:connector-curvature="0" />
      <path
         inkscape:connector-curvature="0"
         id="path4280"
         d="M 84,265 C 56.836703,265 35,243.1633 35,216 v -1 c 0,27.1633 21.836703,49 49,49 h 120 c 27.1633,0 49,-21.8367 49,-49 v 1 c 0,27.1633 -21.8367,49 -49,49 z"
         style="color:#bebebe;display:inline;overflow:visible;visibility:visible;opacity:0.1;fill:#ffffff;fill-opacity:1;fill-rule:nonzero;stroke:none;stroke-width:0;marker:none;enable-background:accumulate" />
      <path
         style="color:#bebebe;display:inline;overflow:visible;visibility:visible;opacity:0.1;fill:#ffffff;fill-opacity:1;fill-rule:nonzero;stroke:none;stroke-width:0;marker:none;enable-background:accumulate"
         d="m 300,264 c -4.4493,0 -8,-3.5507 -8,-8 v -1 c 0,4.4493 3.5507,8 8,8 h 24 c 4.4493,0 8,-3.5507 8,-8 v 1 c 0,4.4493 -3.5507,8 -8,8 z"
         id="path4294"
         inkscape:connector-curvature="0" />
      <path
         style="color:#bebebe;display:inline;overflow:visible;visibility:visible;opacity:0.1;fill:#ffffff;fill-opacity:1;fill-rule:nonzero;stroke:none;stroke-width:0;marker:none;enable-background:accumulate"
         d="m 302.5,201 c -6.3883,0 -11.5,-5.1117 -11.5,-11.5 v -1 c 0,6.3883 5.1117,11.5 11.5,11.5 h 35 c 6.3883,0 11.5,-5.1117 11.5,-11.5 v 1 c 0,6.3883 -5.1117,11.5 -11.5,11.5 z"
         id="path4296"
         inkscape:connector-curvature="0" />
      <path
         style="color:#bebebe;display:inline;overflow:visible;visibility:visible;opacity:0.1;fill:#ffffff;fill-opacity:1;fill-rule:nonzero;stroke:none;stroke-width:0;marker:none;enable-background:accumulate"
         d="m 310,119 c -9.4353,0 -17,-7.5647 -17,-17 v -1 c 0,9.4353 7.5647,17 17,17 h 52 c 9.4353,0 17,-7.5647 17,-17 v 1 c 0,9.4353 -7.5647,17 -17,17 z"
         id="path4298"
         inkscape:connector-curvature="0" />
      <path
         style="color:#bebebe;display:inline;overflow:visible;visibility:visible;opacity:0.1;fill:#ffffff;fill-opacity:1;fill-rule:nonzero;stroke:none;stroke-width:0;marker:none;enable-background:accumulate"
         d="m 424,82 c -3.3413,0 -6,-2.658703 -6,-6 v -1 c 0,3.341297 2.6587,6 6,6 h 16 c 3.3413,0 6,-2.658703 6,-6 v 1 c 0,3.341297 -2.6587,6 -6,6 z"
         id="path4300"
         inkscape:connector-curvature="0" />
      <path
         style="color:#bebebe;display:inline;overflow:visible;visibility:visible;opacity:0.1;fill:#ffffff;fill-opacity:1;fill-rule:nonzero;stroke:none;stroke-width:0;marker:none;enable-background:accumulate"
         d="m 422,122 c -2.2333,0 -4,-1.7667 -4,-4 v -1 c 0,2.2333 1.7667,4 4,4 h 12 c 2.2333,0 4,-1.7667 4,-4 v 1 c 0,2.2333 -1.7667,4 -4,4 z"
         id="path4302"
         inkscape:connector-curvature="0" />
      <path
         style="color:#bebebe;display:inline;overflow:visible;visibility:visible;opacity:0.1;fill:#ffffff;fill-opacity:1;fill-rule:nonzero;stroke:none;stroke-width:0;marker:none;enable-background:accumulate"
         d="m 419,154.5 c -1.1253,0 -2,-0.8747 -2,-2 v -1 c 0,1.1253 0.8747,2 2,2 h 10 c 1.1253,0 2,-0.8747 2,-2 v 1 c 0,1.1253 -0.8747,2 -2,2 z"
         id="path4304"
         inkscape:connector-curvature="0" />
    </g>
    <g
       inkscape:groupmode="layer"
       id="layer3"
       inkscape:label="Border"
       style="display:inline"
       sodipodi:insensitive="true">
      <path
         style="color:#bebebe;display:inline;overflow:visible;visibility:visible;opacity:0.41;fill:#000000;fill-opacity:1;fill-rule:nonzero;stroke:none;stroke-width:0;marker:none;enable-background:accumulate"
         d="m 422,101 c -2.77,0 -5,2.23 -5,5 v 12 c 0,2.77 2.23,5 5,5 h 12 c 2.77,0 5,-2.23 5,-5 v -12 c 0,-2.77 -2.23,-5 -5,-5 z m 0,1 h 12 c 2.2333,0 4,1.7667 4,4 v 12 c 0,2.2333 -1.7667,4 -4,4 h -12 c -2.2333,0 -4,-1.7667 -4,-4 v -12 c 0,-2.2333 1.7667,-4 4,-4 z"
         id="rect4099"
         inkscape:connector-curvature="0" />
      <path
         style="color:#bebebe;display:inline;overflow:visible;visibility:visible;opacity:0.41;fill:#000000;fill-opacity:1;fill-rule:nonzero;stroke:none;stroke-width:0;marker:none;enable-background:accumulate"
         d="m 424,53 c -3.878,0 -7,3.122 -7,7 v 16 c 0,3.878 3.122,7 7,7 h 16 c 3.878,0 7,-3.122 7,-7 V 60 c 0,-3.878 -3.122,-7 -7,-7 z m 0,1 h 16 c 3.3413,0 6,2.658703 6,6 v 16 c 0,3.341297 -2.6587,6 -6,6 h -16 c -3.3413,0 -6,-2.658703 -6,-6 V 60 c 0,-3.341297 2.6587,-6 6,-6 z"
         id="rect4151"
         inkscape:connector-curvature="0" />
      <path
         style="color:#bebebe;display:inline;overflow:visible;visibility:visible;opacity:0.41;fill:#000000;fill-opacity:1;fill-rule:nonzero;stroke:none;stroke-width:0;marker:none;enable-background:accumulate"
         d="m 419,140 c -1.662,0 -3,1.338 -3,3 v 10 c 0,1.662 1.338,3 3,3 h 10 c 1.662,0 3,-1.338 3,-3 v -10 c 0,-1.662 -1.338,-3 -3,-3 z m 0,1 h 10 c 1.1253,0 2,0.8747 2,2 v 10 c 0,1.1253 -0.8747,2 -2,2 h -10 c -1.1253,0 -2,-0.8747 -2,-2 v -10 c 0,-1.1253 0.8747,-2 2,-2 z"
         id="rect4095"
         inkscape:connector-curvature="0" />
      <path
         style="color:#bebebe;display:inline;overflow:visible;visibility:visible;opacity:0.41;fill:#000000;fill-opacity:1;fill-rule:nonzero;stroke:none;stroke-width:0;marker:none;enable-background:accumulate"
         d="m 300,223 c -4.986,0 -9,4.014 -9,9 v 24 c 0,4.986 4.014,9 9,9 h 24 c 4.986,0 9,-4.014 9,-9 v -24 c 0,-4.986 -4.014,-9 -9,-9 z m 0,1 h 24 c 4.4493,0 8,3.5507 8,8 v 24 c 0,4.4493 -3.5507,8 -8,8 h -24 c -4.4493,0 -8,-3.5507 -8,-8 v -24 c 0,-4.4493 3.5507,-8 8,-8 z"
         id="rect4783"
         inkscape:connector-curvature="0" />
      <path
         style="color:#bebebe;display:inline;overflow:visible;visibility:visible;opacity:0.41;fill:#000000;fill-opacity:1;fill-rule:nonzero;stroke:none;stroke-width:0;marker:none;enable-background:accumulate"
         d="m 302.5,142 c -6.925,0 -12.5,5.575 -12.5,12.5 v 35 c 0,6.925 5.575,12.5 12.5,12.5 h 35 c 6.925,0 12.5,-5.575 12.5,-12.5 v -35 c 0,-6.925 -5.575,-12.5 -12.5,-12.5 z m 0,1 h 35 c 6.3883,0 11.5,5.1117 11.5,11.5 v 35 c 0,6.3883 -5.1117,11.5 -11.5,11.5 h -35 c -6.3883,0 -11.5,-5.1117 -11.5,-11.5 v -35 c 0,-6.3883 5.1117,-11.5 11.5,-11.5 z"
         id="rect4515"
         inkscape:connector-curvature="0" />
      <path
         style="color:#bebebe;display:inline;overflow:visible;visibility:visible;opacity:0.41;fill:#000000;fill-opacity:1;fill-rule:nonzero;stroke:none;stroke-width:0;marker:none;enable-background:accumulate"
         d="m 310,32 c -9.972,0 -18,8.028 -18,18 v 52 c 0,9.972 8.028,18 18,18 h 52 c 9.972,0 18,-8.028 18,-18 V 50 c 0,-9.972 -8.028,-18 -18,-18 z m 0,1 h 52 c 9.4353,0 17,7.564703 17,17 v 52 c 0,9.4353 -7.5647,17 -17,17 h -52 c -9.4353,0 -17,-7.5647 -17,-17 V 50 c 0,-9.435297 7.5647,-17 17,-17 z"
         id="rect4511"
         inkscape:connector-curvature="0" />
      <path
         style="color:#bebebe;display:inline;overflow:visible;visibility:visible;opacity:0.41;fill:#000000;fill-opacity:1;fill-rule:nonzero;stroke:none;stroke-width:0;marker:none;enable-background:accumulate"
         d="M 84,46 C 56.3,46 34,68.3 34,96 v 120 c 0,27.7 22.3,50 50,50 h 120 c 27.7,0 50,-22.3 50,-50 V 96 C 254,68.3 231.7,46 204,46 Z m 0,1 h 120 c 27.1633,0 49,21.836703 49,49 v 120 c 0,27.1633 -21.8367,49 -49,49 H 84 C 56.836703,265 35,243.1633 35,216 V 96 C 35,68.836703 56.836703,47 84,47 Z"
         id="rect4040"
         inkscape:connector-curvature="0" />
    </g>
  </g>
</svg>
