<?xml version="1.0" encoding="UTF-8" standalone="no"?>
<!-- Created with Inkscape (http://www.inkscape.org/) -->

<svg
   inkscape:export-ydpi="90.000000"
   inkscape:export-xdpi="90.000000"
   width="480"
   height="300"
   id="svg11300"
   sodipodi:version="0.32"
   inkscape:version="1.1.2 (0a00cf5339, 2022-02-04)"
   sodipodi:docname="bacula.svg"
   inkscape:output_extension="org.inkscape.output.svg.inkscape"
   version="1.0"
   style="display:inline;enable-background:new"
   inkscape:export-filename="/home/sam/moka-next-template.png"
   xmlns:inkscape="http://www.inkscape.org/namespaces/inkscape"
   xmlns:sodipodi="http://sodipodi.sourceforge.net/DTD/sodipodi-0.dtd"
   xmlns="http://www.w3.org/2000/svg"
   xmlns:svg="http://www.w3.org/2000/svg"
   xmlns:rdf="http://www.w3.org/1999/02/22-rdf-syntax-ns#"
   xmlns:cc="http://creativecommons.org/ns#"
   xmlns:dc="http://purl.org/dc/elements/1.1/">
  <sodipodi:namedview
     stroke="#ef2929"
     fill="#f57900"
     id="base"
     pagecolor="#ffffff"
     bordercolor="#000000"
     borderopacity="0.54509804"
     inkscape:pageopacity="0"
     inkscape:pageshadow="2"
     inkscape:zoom="1.4142136"
     inkscape:cx="341.17901"
     inkscape:cy="115.61196"
     inkscape:current-layer="layer2"
     showgrid="false"
     inkscape:grid-bbox="true"
     inkscape:document-units="px"
     inkscape:showpageshadow="false"
     inkscape:window-width="1920"
     inkscape:window-height="1008"
     inkscape:window-x="0"
     inkscape:window-y="40"
     width="400px"
     height="300px"
     inkscape:snap-nodes="true"
     inkscape:snap-bbox="true"
     gridtolerance="10000"
     inkscape:object-nodes="true"
     inkscape:snap-grids="true"
     showguides="true"
     inkscape:guide-bbox="true"
     inkscape:window-maximized="1"
     inkscape:bbox-nodes="true"
     inkscape:bbox-paths="true"
     inkscape:snap-bbox-edge-midpoints="true"
     inkscape:snap-bbox-midpoints="true"
     inkscape:pagecheckerboard="0">
    <inkscape:grid
       spacingy="1"
       spacingx="1"
       id="grid5883"
       type="xygrid"
       enabled="true"
       visible="true"
       empspacing="4"
       snapvisiblegridlinesonly="true"
       dotted="false"
       color="#000000"
       opacity="0.1254902"
       empcolor="#203ef3"
       empopacity="0.36470588"
       originx="0"
       originy="0" />
    <inkscape:grid
       type="xygrid"
       id="grid11592"
       empspacing="8"
       visible="true"
       enabled="false"
       spacingx="0.5"
       spacingy="0.5"
       color="#ff0000"
       opacity="0.1254902"
       empcolor="#ff0000"
       empopacity="0.25098039"
       snapvisiblegridlinesonly="true"
       dotted="true"
       originx="0"
       originy="0" />
  </sodipodi:namedview>
  <defs
     id="defs3">
    <linearGradient
       id="linearGradient905">
      <stop
         style="stop-color:#ff7139;stop-opacity:1"
         offset="0"
         id="stop901" />
      <stop
         style="stop-color:#ff7139;stop-opacity:1"
         offset="1"
         id="stop903" />
    </linearGradient>
    <linearGradient
       id="linearGradient3984">
      <stop
         id="stop3986"
         offset="0"
         style="stop-color:#f57d33;stop-opacity:1" />
      <stop
         id="stop3988"
         offset="1"
         style="stop-color:#faa653;stop-opacity:1;" />
    </linearGradient>
    <style
       id="style2">.cls-1,.cls-2{fill:red;}.cls-2,.cls-4,.cls-5{fill-rule:evenodd;}.cls-3{fill:none;stroke:#000;stroke-miterlimit:22.93;stroke-width:0.13px;}.cls-5{fill:#fefefe;}</style>
  </defs>
  <metadata
     id="metadata4">
    <rdf:RDF>
      <cc:Work
         rdf:about="">
        <dc:format>image/svg+xml</dc:format>
        <dc:type
           rdf:resource="http://purl.org/dc/dcmitype/StillImage" />
        <dc:creator>
          <cc:Agent>
            <dc:title>Sam Hewitt</dc:title>
          </cc:Agent>
        </dc:creator>
        <dc:source />
        <cc:license
           rdf:resource="" />
        <dc:title />
        <dc:subject>
          <rdf:Bag />
        </dc:subject>
        <dc:date />
        <dc:rights>
          <cc:Agent>
            <dc:title />
          </cc:Agent>
        </dc:rights>
        <dc:publisher>
          <cc:Agent>
            <dc:title />
          </cc:Agent>
        </dc:publisher>
        <dc:identifier />
        <dc:relation />
        <dc:language />
        <dc:coverage />
        <dc:description />
        <dc:contributor>
          <cc:Agent>
            <dc:title />
          </cc:Agent>
        </dc:contributor>
      </cc:Work>
      <cc:Work
         rdf:about="">
        <dc:format>image/svg+xml</dc:format>
        <dc:type
           rdf:resource="http://purl.org/dc/dcmitype/StillImage" />
      </cc:Work>
    </rdf:RDF>
  </metadata>
  <g
     style="display:inline"
     inkscape:groupmode="layer"
     inkscape:label="Icon"
     id="layer1">
    <g
       style="display:none"
       inkscape:label="Baseplate"
       id="layer7"
       inkscape:groupmode="layer">
      <text
         y="19.745117"
         xml:space="preserve"
         x="15.006836"
         style="font-style:normal;font-variant:normal;font-weight:normal;font-stretch:normal;line-height:0%;font-family:'DejaVu Sans';-inkscape-font-specification:'DejaVu Sans';display:inline;fill:#000000;fill-opacity:1;stroke:none;enable-background:new"
         inkscape:label="context"
         id="context"><tspan
           style="font-style:normal;font-variant:normal;font-weight:normal;font-stretch:normal;font-size:18px;line-height:1.25;font-family:'DejaVu Sans';-inkscape-font-specification:'DejaVu Sans'"
           y="19.745117"
           x="15.006836"
           sodipodi:role="line"
           id="tspan3933">apps</tspan></text>
      <text
         y="19.745117"
         xml:space="preserve"
         x="122.48828"
         style="font-style:normal;font-variant:normal;font-weight:bold;font-stretch:normal;line-height:0%;font-family:'DejaVu Sans';-inkscape-font-specification:'DejaVu Sans Bold';text-align:start;writing-mode:lr-tb;text-anchor:start;display:inline;fill:#000000;fill-opacity:1;stroke:none;enable-background:new"
         inkscape:label="icon-name"
         id="icon-name"><tspan
           style="font-style:normal;font-variant:normal;font-weight:bold;font-stretch:normal;font-size:18px;line-height:1.25;font-family:'DejaVu Sans';-inkscape-font-specification:'DejaVu Sans Bold'"
           y="19.745117"
           x="122.48828"
           sodipodi:role="line"
           id="tspan3937">sheet</tspan></text>
      <rect
         style="fill:#eeeeec;fill-opacity:1;fill-rule:nonzero;stroke:none;stroke-width:2;marker:none;visibility:visible;display:inline;overflow:visible;enable-background:accumulate"
         id="rect16x16"
         width="16"
         height="16"
         x="416"
         y="140"
         inkscape:label="16x16" />
      <rect
         style="fill:#d4d4d4;fill-opacity:1;fill-rule:nonzero;stroke:none;stroke-width:2;marker:none;visibility:visible;display:inline;overflow:visible;enable-background:accumulate"
         id="rect24x24"
         width="24"
         height="24"
         x="416"
         y="100"
         inkscape:label="24x24" />
      <rect
         style="fill:#eeeeec;fill-opacity:1;fill-rule:nonzero;stroke:none;stroke-width:2;marker:none;visibility:visible;display:inline;overflow:visible;enable-background:accumulate"
         id="rect32x32"
         width="32"
         height="32"
         x="416"
         y="52"
         inkscape:label="32x32" />
      <rect
         inkscape:label="22x22"
         y="101"
         x="417"
         height="22"
         width="22"
         id="rect22x22"
         style="fill:#eeeeec;fill-opacity:1;fill-rule:nonzero;stroke:none;stroke-width:2;marker:none;visibility:visible;display:inline;overflow:visible;enable-background:accumulate" />
      <rect
         inkscape:label="48x48"
         y="220"
         x="288"
         height="48"
         width="48"
         id="rect48x48"
         style="fill:#eeeeec;fill-opacity:1;fill-rule:nonzero;stroke:none;stroke-width:2;marker:none;visibility:visible;display:inline;overflow:visible;enable-background:accumulate" />
      <rect
         style="fill:#eeeeec;fill-opacity:1;fill-rule:nonzero;stroke:none;stroke-width:2;marker:none;visibility:visible;display:inline;overflow:visible;enable-background:accumulate"
         id="rect256x256"
         width="256"
         height="256"
         x="16"
         y="28"
         inkscape:label="256x256" />
      <rect
         style="fill:#eeeeec;fill-opacity:1;fill-rule:nonzero;stroke:none;stroke-width:2;marker:none;visibility:visible;display:inline;overflow:visible;enable-background:accumulate"
         id="rect64x64"
         width="64"
         height="64"
         x="288"
         y="140"
         inkscape:label="64x64" />
      <rect
         style="fill:#eeeeec;fill-opacity:1;fill-rule:nonzero;stroke:none;stroke-width:2;marker:none;visibility:visible;display:inline;overflow:visible;enable-background:accumulate"
         id="rect96x96"
         width="96"
         height="96"
         x="288"
         y="28"
         inkscape:label="96x96" />
    </g>
    <g
       inkscape:groupmode="layer"
       id="layer4"
       inkscape:label="Shadow"
       style="display:inline"
       sodipodi:insensitive="true">
      <rect
         ry="50"
         y="47"
         x="34"
         height="220"
         width="220"
         id="rect4114"
         style="opacity:0.1;color:#bebebe;fill:#000000;fill-opacity:1;fill-rule:nonzero;stroke:none;stroke-width:0;marker:none;visibility:visible;display:inline;overflow:visible;enable-background:accumulate" />
      <rect
         style="opacity:0.1;color:#bebebe;fill:#000000;fill-opacity:1;fill-rule:nonzero;stroke:none;stroke-width:0;marker:none;visibility:visible;display:inline;overflow:visible;enable-background:accumulate"
         id="rect4120"
         width="30"
         height="30"
         x="417"
         y="54"
         ry="7" />
      <rect
         transform="scale(1,-1)"
         ry="9"
         y="-266"
         x="291"
         height="42"
         width="42"
         id="rect4122"
         style="opacity:0.1;color:#bebebe;fill:#000000;fill-opacity:1;fill-rule:nonzero;stroke:none;stroke-width:0;marker:none;visibility:visible;display:inline;overflow:visible;enable-background:accumulate" />
      <rect
         style="opacity:0.1;color:#bebebe;fill:#000000;fill-opacity:1;fill-rule:nonzero;stroke:none;stroke-width:0;marker:none;visibility:visible;display:inline;overflow:visible;enable-background:accumulate"
         id="rect4124"
         width="88"
         height="88"
         x="292"
         y="33"
         ry="18" />
      <rect
         ry="12.5"
         y="143"
         x="290"
         height="60"
         width="60"
         id="rect4126"
         style="opacity:0.1;color:#bebebe;fill:#000000;fill-opacity:1;fill-rule:nonzero;stroke:none;stroke-width:0;marker:none;visibility:visible;display:inline;overflow:visible;enable-background:accumulate" />
      <path
         id="path4268"
         d="m 422,101 c -2.77,0 -5,2.23 -5,5 l 0,12 c 0,2.77 2.23,5 5,5 l 12,0 c 2.77,0 5,-2.23 5,-5 l 0,-12 c 0,-2.77 -2.23,-5 -5,-5 z"
         style="opacity:0.1;color:#bebebe;fill:#000000;fill-opacity:1;fill-rule:nonzero;stroke:none;stroke-width:0;marker:none;visibility:visible;display:inline;overflow:visible;enable-background:accumulate"
         inkscape:connector-curvature="0"
         sodipodi:nodetypes="sssssssss" />
      <path
         id="path4270"
         d="m 419,140 c -1.662,0 -3,1.338 -3,3 l 0,10 c 0,1.662 1.338,3 3,3 l 10,0 c 1.662,0 3,-1.338 3,-3 l 0,-10 c 0,-1.662 -1.338,-3 -3,-3 z"
         style="opacity:0.1;color:#bebebe;fill:#000000;fill-opacity:1;fill-rule:nonzero;stroke:none;stroke-width:0;marker:none;visibility:visible;display:inline;overflow:visible;enable-background:accumulate"
         inkscape:connector-curvature="0"
         sodipodi:nodetypes="sssssssss" />
    </g>
    <g
       inkscape:groupmode="layer"
       id="layer2"
       inkscape:label="Background"
       style="display:inline">
      <g
         id="g4736">
        <g
           id="g4624">
          <path
             style="color:#bebebe;display:inline;overflow:visible;visibility:visible;fill:#8f40f5;fill-opacity:1;fill-rule:nonzero;stroke:none;stroke-width:2;marker:none;enable-background:accumulate"
             d="M 84,46.5 C 56.568735,46.5 34.5,68.568732 34.5,96 v 120 c 0,27.43127 22.068735,49.5 49.5,49.5 h 120 c 27.43127,0 49.5,-22.06873 49.5,-49.5 V 96 C 253.5,68.568732 231.43127,46.5 204,46.5 Z"
             id="path4200" />
          <path
             id="path32"
             style="fill:#241c1c;stroke-width:4.01228"
             class="cls-4"
             d="m 146.93164,76 a 45.174888,44.541832 0 0 0 -11.43359,18.126953 l -0.52539,1.195313 a 39.194671,38.645418 0 0 0 -9.29493,2.589843 41.578676,40.996015 0 0 0 -9.05078,5.539061 49.29639,48.605577 0 0 1 -5.37304,1.83203 94.552092,93.227091 0 0 0 -12.810551,4.66016 62.873101,61.992031 0 0 0 -8.646484,4.98047 56.084745,55.298804 0 0 0 -11.152344,10 c -2.101158,2.3506 -2.141967,2.94928 -5.21289,3.74609 a 16.162751,15.936255 0 0 0 -9.009766,5.25781 c -1.575868,2.07171 1.414593,7.84847 6.505859,8.20704 a 10.990671,10.836653 0 0 0 1.857422,2.70898 l -0.757812,2.15039 A 25,25 0 0 1 89,170.66406 a 25,25 0 0 1 -6.947266,17.21289 7.4752722,7.3705178 0 0 0 1.683594,4.57813 6.6671347,6.5737051 0 0 1 1.494141,3.0664 38.911823,38.366533 0 0 1 -1.13086,17.29102 54.46847,53.705179 0 0 0 -1.818359,17.60938 L 82.886719,236 l 5.658203,-1.39453 c 8.040969,-1.99203 20.485548,-13.70523 24.970698,-20.59766 6.22266,-9.68128 8.48585,-18.36626 11.43555,-31.51367 0.20203,-0.83665 0.40344,-1.55358 0.60547,-2.31055 a 23.597616,23.266932 0 0 0 1.13281,-7.37109 c 0,-4.30279 -0.40429,-7.36974 -0.40429,-10.03906 a 84.854442,83.665338 0 0 1 -0.24219,-9.96094 39.639146,39.083665 0 0 1 12.52539,8.68555 26.426098,26.055777 0 0 1 7.7168,16.8125 l 0.52539,4.38281 h 4.44531 2.54492 6.22266 4.5664 a 31.476957,31.035856 0 0 1 11.39454,1.95117 21.698493,21.394422 0 0 1 12.36523,10.91797 l 1.21289,3.3457 h 3.5957 a 45.578957,44.940239 0 0 1 12.1211,1.79297 l 18.42578,6.57422 0.2832,-6.73437 c 0.32326,-5.89641 -6.14197,-28.92415 -9.21289,-32.90821 -4.72761,-6.21514 -10.02115,-11.95161 -15.31445,-17.52929 a 125.90783,124.14342 0 0 0 -12.6875,-13.1875 l -1.57617,-1.1543 c -6.4651,-4.58168 -14.02072,-9.92184 -20.97071,-14.42383 l -1.81836,-1.11523 -4.32422,-2.70899 a 19.718556,19.442231 0 0 0 2.30469,-2.98828 8.4450373,8.3266931 0 0 0 1.21094,-6.8125 7.0307966,6.9322708 0 0 0 -0.92969,-1.95117 l 0.60742,-0.51953 c 9.89969,-8.207175 9.89831,-6.890721 13.13086,-18.08594 a 41.861525,41.2749 0 0 0 -20.72851,4.421875 l -0.68555,0.357422 C 152.71129,83.688535 150.97233,82.25498 146.93164,76 Z" />
        </g>
        <g
           id="g4600">
          <path
             style="color:#bebebe;display:inline;overflow:visible;visibility:visible;fill:#8f40f5;fill-opacity:1;fill-rule:nonzero;stroke:none;stroke-width:2;marker:none;enable-background:accumulate"
             d="m 310,32.5 c -9.70255,0 -17.5,7.797452 -17.5,17.5 v 52 c 0,9.70255 7.79745,17.5 17.5,17.5 h 52 c 9.70255,0 17.5,-7.79745 17.5,-17.5 V 50 c 0,-9.702548 -7.79745,-17.5 -17.5,-17.5 z"
             id="path4210" />
          <path
             id="path5729"
             style="fill:#241c1c;stroke-width:1.59392"
             class="cls-4"
             d="m 337.16455,44.21918 a 17.946188,17.6947 0 0 0 -4.54211,7.20112 l -0.20871,0.47485 a 15.570486,15.352289 0 0 0 -3.69251,1.02884 16.517556,16.286088 0 0 0 -3.59552,2.20045 19.583497,19.309065 0 0 1 -2.13449,0.72779 37.56179,37.035419 0 0 0 -5.08912,1.8513 24.976985,24.626971 0 0 0 -3.43491,1.97854 22.280241,21.968018 0 0 0 -4.43038,3.9726 c -0.83471,0.9338 -0.85092,1.17164 -2.07088,1.48818 a 6.4208188,6.330841 0 0 0 -3.57922,2.08872 c -0.62603,0.823 0.56196,3.11788 2.58452,3.26033 a 4.3661569,4.3049717 0 0 0 0.73788,1.07617 l -0.30105,0.85426 a 9.9315068,9.9315068 0 0 1 6.74256,9.40312 9.9315068,9.9315068 0 0 1 -2.75987,6.838 2.9696287,2.9280139 0 0 0 0.66883,1.81871 2.6485877,2.6114719 0 0 1 0.59356,1.21816 15.458121,15.241499 0 0 1 -0.44925,6.86903 21.638159,21.334934 0 0 0 -0.72236,6.99551 l 0.24053,2.21596 2.24778,-0.55399 c 3.19436,-0.79135 8.13809,-5.44454 9.91987,-8.18263 2.47201,-3.84599 3.37109,-7.29619 4.54289,-12.51913 0.0802,-0.33237 0.16027,-0.61717 0.24052,-0.91789 a 9.3743953,9.2430277 0 0 0 0.45003,-2.92824 c 0,-1.70933 -0.16061,-2.9277 -0.16061,-3.98812 a 33.709299,33.236915 0 0 1 -0.0962,-3.95708 15.747058,15.526387 0 0 1 4.97584,3.45042 10.498039,10.350925 0 0 1 3.06558,6.67894 l 0.20872,1.74111 h 1.76594 1.011 2.47201 1.81405 a 12.504544,12.329313 0 0 1 4.5266,0.77513 8.6199492,8.4991539 0 0 1 4.91222,4.33727 l 0.48183,1.32912 h 1.42843 a 18.106709,17.852971 0 0 1 4.81523,0.71227 l 7.31983,2.61168 0.1125,-2.6753 c 0.12842,-2.34241 -2.43996,-11.49042 -3.65991,-13.07312 -1.87809,-2.46903 -3.98101,-4.7479 -6.08382,-6.9637 a 50.018179,49.317249 0 0 0 -5.04024,-5.23886 l -0.62615,-0.45856 c -2.56833,-1.82012 -5.56988,-3.94156 -8.33083,-5.73002 l -0.72236,-0.44303 -1.71785,-1.07618 a 7.8333989,7.7236259 0 0 0 0.91557,-1.18712 3.3548778,3.3078643 0 0 0 0.48105,-2.70634 2.7930562,2.7539158 0 0 0 -0.36932,-0.77512 l 0.2413,-0.20639 c 3.93275,-3.26038 3.9322,-2.73741 5.21637,-7.18482 a 16.629921,16.396878 0 0 0 -8.23461,1.75663 l -0.27235,0.14199 c -0.11236,-3.27621 -0.80318,-3.8457 -2.40839,-6.33056 z" />
        </g>
        <g
           id="g4604">
          <path
             style="color:#bebebe;display:inline;overflow:visible;visibility:visible;fill:#8f40f5;fill-opacity:1;fill-rule:nonzero;stroke:none;stroke-width:2;marker:none;enable-background:accumulate"
             d="m 302.5,142.5 c -6.65502,0 -12,5.34498 -12,12 v 35 c 0,6.65502 5.34498,12 12,12 h 35 c 6.65502,0 12,-5.34498 12,-12 v -35 c 0,-6.65502 -5.34498,-12 -12,-12 z"
             id="path4212" />
          <path
             id="path5900"
             style="fill:#241c1c;stroke-width:1.08093"
             class="cls-4"
             d="m 320.78978,150.44749 a 12.170403,11.999854 0 0 0 -3.08028,4.88351 l -0.14154,0.32203 a 10.559295,10.411323 0 0 0 -2.50412,0.69772 11.201561,11.044588 0 0 0 -2.43833,1.49226 13.280762,13.094653 0 0 1 -1.44754,0.49356 25.472938,25.115974 0 0 0 -3.45124,1.25547 16.938415,16.701049 0 0 0 -2.32942,1.34178 15.109589,14.897851 0 0 0 -3.00451,2.69406 c -0.56607,0.63327 -0.57706,0.79455 -1.40439,1.00922 a 4.3543484,4.2933289 0 0 0 -2.42729,1.41649 c -0.42454,0.55813 0.38111,2.11443 1.75272,2.21103 a 2.960957,2.9194636 0 0 0 0.50041,0.72981 l -0.20416,0.57933 a 6.7351597,6.7351597 0 0 1 4.57254,6.37683 6.7351597,6.7351597 0 0 1 -1.87164,4.63726 2.0138861,1.9856646 0 0 0 0.45357,1.23338 1.7961687,1.7709982 0 0 1 0.40253,0.82611 10.483094,10.336189 0 0 1 -0.30466,4.65831 14.674154,14.468518 0 0 0 -0.48988,4.74408 l 0.16312,1.50278 1.52436,-0.3757 c 2.16629,-0.53666 5.51894,-3.69227 6.72726,-5.54914 1.67643,-2.6082 2.28615,-4.94799 3.08081,-8.48998 0.0544,-0.2254 0.10869,-0.41855 0.16312,-0.62248 a 6.3573485,6.2682602 0 0 0 0.30519,-1.98582 c 0,-1.1592 -0.10892,-1.98545 -0.10892,-2.70458 a 22.860329,22.539977 0 0 1 -0.0653,-2.68355 10.679039,10.529389 0 0 1 3.37442,2.33995 7.1193597,7.0195928 0 0 1 2.07896,4.52939 l 0.14154,1.18076 h 1.1976 0.68561 1.67643 1.23021 a 8.4800934,8.3612579 0 0 1 3.06977,0.52566 5.8457127,5.763794 0 0 1 3.33127,2.94137 l 0.32676,0.90135 h 0.9687 a 12.279262,12.107188 0 0 1 3.26551,0.48304 l 4.96402,1.77114 0.0763,-1.81429 c 0.0871,-1.58853 -1.65468,-7.79235 -2.48201,-8.86568 -1.27365,-1.6744 -2.69976,-3.21984 -4.12581,-4.7225 a 33.920374,33.445031 0 0 0 -3.41809,-3.5528 l -0.42463,-0.31097 c -1.74174,-1.23434 -3.77727,-2.67301 -5.64965,-3.88588 l -0.48987,-0.30045 -1.16498,-0.72982 a 5.312305,5.2378613 0 0 0 0.6209,-0.80506 2.275147,2.2432643 0 0 0 0.32624,-1.83533 1.8941415,1.8675981 0 0 0 -0.25047,-0.52566 l 0.16365,-0.13996 c 2.66704,-2.21107 2.66666,-1.8564 3.53753,-4.87247 a 11.277762,11.119722 0 0 0 -5.58439,1.19128 l -0.18469,0.0963 c -0.0762,-2.22179 -0.54469,-2.608 -1.63328,-4.29313 z" />
        </g>
        <g
           id="g4608">
          <path
             style="color:#bebebe;display:inline;overflow:visible;visibility:visible;fill:#8f40f5;fill-opacity:1;fill-rule:nonzero;stroke:none;stroke-width:2;marker:none;enable-background:accumulate"
             d="m 300,223.5 c -4.71531,0 -8.5,3.78469 -8.5,8.5 v 24 c 0,4.71531 3.78469,8.5 8.5,8.5 h 24 c 4.71531,0 8.5,-3.78469 8.5,-8.5 v -24 c 0,-4.71531 -3.78469,-8.5 -8.5,-8.5 z"
             id="path4208" />
          <path
             id="path6074"
             style="fill:#241c1c;stroke-width:0.751157"
             class="cls-4"
             d="m 312.54883,229.02283 a 8.457399,8.3388817 0 0 0 -2.14054,3.39363 l -0.0984,0.22378 a 7.337815,7.2349869 0 0 0 -1.74014,0.48486 7.7841356,7.675053 0 0 0 -1.69444,1.03699 9.2290044,9.0996741 0 0 1 -1.00591,0.34298 17.701533,17.453473 0 0 0 -2.39832,0.87245 11.770763,11.605814 0 0 0 -1.61875,0.93242 10.499884,10.352744 0 0 0 -2.08788,1.87215 c -0.39337,0.44006 -0.40101,0.55214 -0.97593,0.70132 a 3.0259031,2.9834998 0 0 0 -1.68676,0.98434 c -0.29503,0.38785 0.26483,1.46935 1.21799,1.53648 a 2.0576142,2.0287798 0 0 0 0.34773,0.50716 l -0.14187,0.40258 a 4.6803653,4.6803653 0 0 1 3.17753,4.43136 4.6803653,4.6803653 0 0 1 -1.30063,3.2225 1.3994802,1.3798686 0 0 0 0.31519,0.85709 1.248185,1.2306936 0 0 1 0.27973,0.57408 7.2848618,7.1827755 0 0 1 -0.21171,3.23713 10.197293,10.054394 0 0 0 -0.34043,3.29673 l 0.11335,1.04431 1.0593,-0.26108 c 1.50539,-0.37294 3.8352,-2.56582 4.67488,-3.85618 1.16498,-1.81248 1.58868,-3.43843 2.1409,-5.89982 0.0378,-0.15663 0.0755,-0.29085 0.11336,-0.43257 a 4.4178185,4.3559096 0 0 0 0.21208,-1.37998 c 0,-0.80554 -0.0757,-1.37972 -0.0757,-1.87945 a 15.885991,15.663374 0 0 1 -0.0453,-1.86484 7.4210273,7.3170331 0 0 1 2.34493,1.62606 4.9473516,4.8780221 0 0 1 1.4447,3.14755 l 0.0984,0.82053 h 0.83223 0.47644 1.16498 0.85489 a 5.8929462,5.8103657 0 0 1 2.13323,0.36528 4.0622749,4.0053484 0 0 1 2.31495,2.04401 l 0.22707,0.62636 h 0.67317 a 8.5330467,8.4134693 0 0 1 2.26924,0.33567 l 3.44958,1.23079 0.053,-1.26077 c 0.0605,-1.1039 -1.14987,-5.41502 -1.72479,-6.1609 -0.88508,-1.16356 -1.8761,-2.23751 -2.86709,-3.28174 a 23.571785,23.241462 0 0 0 -2.37528,-2.46889 l -0.29509,-0.2161 c -1.21036,-0.85776 -2.62488,-1.85752 -3.92602,-2.70035 l -0.34042,-0.20879 -0.80956,-0.50716 a 3.6916018,3.6398697 0 0 0 0.43147,-0.55945 1.5810344,1.5588786 0 0 0 0.22671,-1.2754 1.3162678,1.2978224 0 0 0 -0.17405,-0.36529 l 0.11371,-0.0973 c 1.85337,-1.5365 1.85311,-1.29004 2.45829,-3.38595 a 7.8370891,7.7272643 0 0 0 -3.88068,0.82784 l -0.12834,0.0669 c -0.053,-1.54396 -0.37851,-1.81235 -1.13499,-2.98337 z" />
        </g>
        <g
           id="g4612">
          <path
             style="color:#bebebe;display:inline;overflow:visible;visibility:visible;fill:#8f40f5;fill-opacity:1;fill-rule:nonzero;stroke:none;stroke-width:2;marker:none;enable-background:accumulate"
             d="m 424,53.5 c -3.60654,0 -6.5,2.893464 -6.5,6.5 v 16 c 0,3.606536 2.89346,6.5 6.5,6.5 h 16 c 3.60654,0 6.5,-2.893464 6.5,-6.5 V 60 c 0,-3.606536 -2.89346,-6.5 -6.5,-6.5 z"
             id="path4206" />
          <path
             id="path6256"
             style="fill:#241c1c;stroke-width:0.531307"
             class="cls-4"
             d="m 432.38818,57.40641 a 5.9820627,5.8982334 0 0 0 -1.51404,2.40037 l -0.0696,0.15829 a 5.1901619,5.1174297 0 0 0 -1.23083,0.34295 5.505852,5.428696 0 0 0 -1.19851,0.73348 6.5278324,6.4363549 0 0 1 -0.7115,0.2426 12.520597,12.34514 0 0 0 -1.69637,0.61709 8.3256617,8.2089903 0 0 0 -1.14497,0.65952 7.426747,7.3226726 0 0 0 -1.47679,1.3242 c -0.27824,0.31127 -0.28364,0.39054 -0.6903,0.49606 a 2.1402729,2.1102803 0 0 0 -1.19307,0.69624 c -0.20868,0.27433 0.18732,1.03929 0.86151,1.08677 a 1.4553856,1.4349906 0 0 0 0.24596,0.35873 l -0.10035,0.28475 a 3.3105023,3.3105023 0 0 1 2.24752,3.13438 3.3105023,3.3105023 0 0 1 -0.91996,2.27933 0.98987622,0.97600463 0 0 0 0.22294,0.60623 0.88286258,0.87049062 0 0 1 0.19786,0.40606 5.1527071,5.0804998 0 0 1 -0.14975,2.28968 7.2127197,7.1116446 0 0 0 -0.24079,2.33183 l 0.0802,0.73866 0.74926,-0.18467 c 1.06478,-0.26378 2.71269,-1.81485 3.30662,-2.72754 0.824,-1.282 1.1237,-2.43206 1.5143,-4.17304 0.0267,-0.11079 0.0534,-0.20573 0.0802,-0.30597 a 3.1247984,3.0810092 0 0 0 0.15001,-0.97608 c 0,-0.56977 -0.0535,-0.9759 -0.0535,-1.32937 a 11.236433,11.078972 0 0 1 -0.0321,-1.31903 5.2490193,5.1754624 0 0 1 1.65861,1.15014 3.4993463,3.4503083 0 0 1 1.02186,2.22631 l 0.0696,0.58038 h 0.58864 0.337 0.82401 0.60468 a 4.1681815,4.1097708 0 0 1 1.50887,0.25837 2.8733164,2.8330513 0 0 1 1.6374,1.44576 l 0.16061,0.44304 h 0.47615 a 6.0355696,5.9509905 0 0 1 1.60507,0.23742 l 2.43995,0.87056 0.0375,-0.89177 c 0.0428,-0.7808 -0.81332,-3.83013 -1.21997,-4.3577 -0.62603,-0.82301 -1.32701,-1.58264 -2.02794,-2.32123 a 16.672726,16.439083 0 0 0 -1.68008,-1.74629 l -0.20872,-0.15286 c -0.85611,-0.6067 -1.85663,-1.31385 -2.77694,-1.91 l -0.24079,-0.14768 -0.57262,-0.35872 a 2.611133,2.574542 0 0 0 0.30519,-0.39571 1.1182926,1.1026214 0 0 0 0.16035,-0.90211 0.93101872,0.91797192 0 0 0 -0.1231,-0.25838 l 0.0804,-0.0688 c 1.31092,-1.0868 1.31073,-0.91247 1.73879,-2.39495 a 5.5433069,5.465626 0 0 0 -2.74487,0.58555 l -0.0908,0.0473 c -0.0375,-1.09207 -0.26773,-1.2819 -0.8028,-2.11019 z" />
        </g>
        <g
           id="g4616">
          <path
             style="color:#bebebe;display:inline;overflow:visible;visibility:visible;fill:#8f40f5;fill-opacity:1;fill-rule:nonzero;stroke:none;stroke-width:2;marker:none;enable-background:accumulate"
             d="m 422,101.5 c -2.49699,0 -4.5,2.00301 -4.5,4.5 v 12 c 0,2.49699 2.00301,4.5 4.5,4.5 h 12 c 2.49699,0 4.5,-2.00301 4.5,-4.5 v -12 c 0,-2.49699 -2.00301,-4.5 -4.5,-4.5 z"
             id="path4204" />
          <path
             id="path6348"
             style="fill:#241c1c;stroke-width:0.384739"
             class="cls-4"
             d="m 428.28107,104.32877 a 4.3318385,4.2711345 0 0 0 -1.09638,1.7382 l -0.0504,0.11462 a 3.7583931,3.705725 0 0 0 -0.89129,0.24834 3.9869963,3.9311247 0 0 0 -0.86788,0.53115 4.727051,4.6608087 0 0 1 -0.51523,0.17567 9.0666389,8.939584 0 0 0 -1.22841,0.44686 6.0289274,5.9444413 0 0 0 -0.82911,0.47758 5.3779892,5.302625 0 0 0 -1.0694,0.95891 c -0.20148,0.2254 -0.2054,0.2828 -0.49987,0.35921 a 1.5498528,1.528134 0 0 0 -0.86395,0.50417 c -0.15111,0.19865 0.13565,0.7526 0.62385,0.78698 a 1.0538999,1.0391311 0 0 0 0.17811,0.25977 l -0.0727,0.2062 a 2.3972603,2.3972603 0 0 1 1.62752,2.26972 2.3972603,2.3972603 0 0 1 -0.66618,1.65055 0.71680692,0.70676197 0 0 0 0.16144,0.439 0.63931428,0.63035528 0 0 1 0.14327,0.29403 3.7312707,3.6789826 0 0 1 -0.10843,1.65805 5.2230039,5.1498116 0 0 0 -0.17437,1.68857 l 0.0581,0.53488 0.54257,-0.13373 c 0.77105,-0.19101 1.96437,-1.3142 2.39445,-1.97511 0.59669,-0.92835 0.81371,-1.76115 1.09656,-3.02186 0.0194,-0.0802 0.0387,-0.14898 0.0581,-0.22156 a 2.2627851,2.2310756 0 0 0 0.10862,-0.70682 c 0,-0.41259 -0.0388,-0.70669 -0.0388,-0.96265 a 8.1367272,8.0227036 0 0 1 -0.0232,-0.95516 3.801014,3.7477487 0 0 1 1.20107,0.83286 2.5340094,2.4984991 0 0 1 0.73996,1.61216 l 0.0504,0.42027 h 0.42627 0.24403 0.59669 0.43788 a 3.0183383,2.976041 0 0 1 1.09262,0.1871 2.0806774,2.0515199 0 0 1 1.18571,1.04693 l 0.11631,0.32082 h 0.34479 a 4.3705849,4.3093379 0 0 1 1.1623,0.17193 l 1.76685,0.6304 0.0272,-0.64576 c 0.031,-0.56541 -0.58896,-2.77355 -0.88343,-3.15558 -0.45333,-0.59597 -0.96093,-1.14605 -1.46851,-1.68089 a 12.073353,11.904163 0 0 0 -1.21661,-1.26456 l -0.15114,-0.11068 c -0.61994,-0.43934 -1.34445,-0.95141 -2.01089,-1.38311 l -0.17436,-0.10694 -0.41465,-0.25977 a 1.8908204,1.8643235 0 0 0 0.221,-0.28654 0.80979809,0.79845002 0 0 0 0.11611,-0.65326 0.67418597,0.66473829 0 0 0 -0.0891,-0.18709 l 0.0582,-0.0498 c 0.94929,-0.78699 0.94915,-0.66076 1.25912,-1.73427 a 4.0141188,3.9578671 0 0 0 -1.98766,0.42401 l -0.0657,0.0343 c -0.0271,-0.79081 -0.19387,-0.92829 -0.58133,-1.52808 z" />
        </g>
        <g
           id="g4620">
          <path
             style="color:#bebebe;display:inline;overflow:visible;visibility:visible;fill:#8f40f5;fill-opacity:1;fill-rule:nonzero;stroke:none;stroke-width:2;marker:none;enable-background:accumulate"
             d="m 419,140.5 c -1.3844,0 -2.5,1.1156 -2.5,2.5 v 10 c 0,1.3844 1.1156,2.5 2.5,2.5 h 10 c 1.3844,0 2.5,-1.1156 2.5,-2.5 v -10 c 0,-1.3844 -1.1156,-2.5 -2.5,-2.5 z"
             id="path4202" />
          <path
             id="path6440"
             style="fill:#241c1c;stroke-width:0.274814"
             class="cls-4"
             d="m 424.20072,142.52055 a 3.0941704,3.0508104 0 0 0 -0.78312,1.24157 l -0.036,0.0819 a 2.6845665,2.6469464 0 0 0 -0.63664,0.17739 2.8478545,2.8079462 0 0 0 -0.61991,0.37939 3.376465,3.3291491 0 0 1 -0.36802,0.12548 6.4761706,6.3854171 0 0 0 -0.87743,0.31919 4.3063767,4.2460295 0 0 0 -0.59223,0.34113 3.8414209,3.7875893 0 0 0 -0.76386,0.68493 c -0.14391,0.161 -0.14671,0.202 -0.35705,0.25658 a 1.1070377,1.0915243 0 0 0 -0.6171,0.36012 c -0.10794,0.1419 0.0969,0.53757 0.4456,0.56213 a 0.75278568,0.7422365 0 0 0 0.12722,0.18554 l -0.0519,0.14729 a 1.7123288,1.7123288 0 0 1 1.16251,1.62123 1.7123288,1.7123288 0 0 1 -0.47584,1.17896 0.51200494,0.50482998 0 0 0 0.11531,0.31357 0.45665306,0.45025377 0 0 1 0.10234,0.21003 2.6651933,2.6278447 0 0 1 -0.0774,1.18432 3.7307171,3.6784369 0 0 0 -0.12455,1.20612 l 0.0415,0.38206 0.38755,-0.0955 c 0.55075,-0.13644 1.40312,-0.93872 1.71032,-1.4108 0.42621,-0.6631 0.58122,-1.25796 0.78326,-2.15847 0.0138,-0.0573 0.0276,-0.10641 0.0415,-0.15826 a 1.6162751,1.5936255 0 0 0 0.0776,-0.50487 c 0,-0.29471 -0.0277,-0.50477 -0.0277,-0.6876 a 5.811948,5.7305025 0 0 1 -0.0166,-0.68226 2.71501,2.6769633 0 0 1 0.8579,0.5949 1.8100067,1.7846422 0 0 1 0.52855,1.15154 l 0.036,0.30019 h 0.30447 0.17431 0.42621 0.31277 a 2.1559559,2.1257435 0 0 1 0.78044,0.13365 1.4861981,1.4653714 0 0 1 0.84694,0.7478 l 0.0831,0.22916 h 0.24628 a 3.1218463,3.0780985 0 0 1 0.83022,0.12281 l 1.26204,0.45028 0.0194,-0.46125 c 0.0221,-0.40387 -0.42068,-1.98111 -0.63102,-2.25399 -0.32381,-0.4257 -0.68638,-0.8186 -1.04893,-1.20064 a 8.6238239,8.5029739 0 0 0 -0.86901,-0.90325 l -0.10796,-0.0791 c -0.44281,-0.31382 -0.96032,-0.67958 -1.43635,-0.98794 l -0.12454,-0.0764 -0.29618,-0.18555 a 1.350586,1.3316596 0 0 0 0.15786,-0.20468 0.57842721,0.57032144 0 0 0 0.0829,-0.4666 0.48156141,0.47481306 0 0 0 -0.0637,-0.13365 l 0.0416,-0.0356 c 0.67806,-0.56214 0.67797,-0.47197 0.89938,-1.23876 a 2.8672277,2.8270479 0 0 0 -1.41976,0.30286 l -0.047,0.0245 c -0.0194,-0.56487 -0.13848,-0.66306 -0.41524,-1.09148 z" />
        </g>
      </g>
    </g>
    <g
       inkscape:groupmode="layer"
       id="layer6"
       inkscape:label="Symbols"
       style="display:inline" />
    <g
       inkscape:groupmode="layer"
       id="layer5"
       inkscape:label="Highlights"
       style="display:inline"
       sodipodi:insensitive="true">
      <path
         style="opacity:0.12999998;color:#bebebe;fill:#ffffff;fill-opacity:1;fill-rule:nonzero;stroke:none;stroke-width:0;marker:none;visibility:visible;display:inline;overflow:visible;enable-background:accumulate"
         d="M 84,47 C 56.836703,47 35,68.836703 35,96 l 0,1 C 35,69.836703 56.836703,48 84,48 l 120,0 c 27.1633,0 49,21.836703 49,49 l 0,-1 C 253,68.836703 231.1633,47 204,47 L 84,47 z"
         id="rect3894"
         inkscape:connector-curvature="0" />
      <path
         style="opacity:0.12999998;color:#bebebe;fill:#ffffff;fill-opacity:1;fill-rule:nonzero;stroke:none;stroke-width:0;marker:none;visibility:visible;display:inline;overflow:visible;enable-background:accumulate"
         d="m 419,141 c -1.1253,0 -2,0.8747 -2,2 l 0,1 c 0,-1.1253 0.8747,-2 2,-2 l 10,0 c 1.1253,0 2,0.8747 2,2 l 0,-1 c 0,-1.1253 -0.8747,-2 -2,-2 l -10,0 z"
         id="rect3896"
         inkscape:connector-curvature="0" />
      <path
         style="opacity:0.12999998;color:#bebebe;fill:#ffffff;fill-opacity:1;fill-rule:nonzero;stroke:none;stroke-width:0;marker:none;visibility:visible;display:inline;overflow:visible;enable-background:accumulate"
         d="m 422,102 c -2.2333,0 -4,1.7667 -4,4 l 0,1 c 0,-2.2333 1.7667,-4 4,-4 l 12,0 c 2.2333,0 4,1.7667 4,4 l 0,-1 c 0,-2.2333 -1.7667,-4 -4,-4 l -12,0 z"
         id="rect3898"
         inkscape:connector-curvature="0" />
      <path
         style="opacity:0.12999998;color:#bebebe;fill:#ffffff;fill-opacity:1;fill-rule:nonzero;stroke:none;stroke-width:0;marker:none;visibility:visible;display:inline;overflow:visible;enable-background:accumulate"
         d="m 424,54 c -3.3413,0 -6,2.658703 -6,6 l 0,1 c 0,-3.341297 2.6587,-6 6,-6 l 16,0 c 3.3413,0 6,2.658703 6,6 l 0,-1 c 0,-3.341297 -2.6587,-6 -6,-6 l -16,0 z"
         id="rect3900"
         inkscape:connector-curvature="0" />
      <path
         style="opacity:0.12999998;color:#bebebe;fill:#ffffff;fill-opacity:1;fill-rule:nonzero;stroke:none;stroke-width:0;marker:none;visibility:visible;display:inline;overflow:visible;enable-background:accumulate"
         d="m 300,224 c -4.4493,0 -8,3.5507 -8,8 l 0,1 c 0,-4.4493 3.5507,-8 8,-8 l 24,0 c 4.4493,0 8,3.5507 8,8 l 0,-1 c 0,-4.4493 -3.5507,-8 -8,-8 l -24,0 z"
         id="rect3902"
         inkscape:connector-curvature="0" />
      <path
         style="opacity:0.12999998;color:#bebebe;fill:#ffffff;fill-opacity:1;fill-rule:nonzero;stroke:none;stroke-width:0;marker:none;visibility:visible;display:inline;overflow:visible;enable-background:accumulate"
         d="m 310,33 c -9.4353,0 -17,7.564703 -17,17 l 0,1 c 0,-9.435297 7.5647,-17 17,-17 l 52,0 c 9.4353,0 17,7.564703 17,17 l 0,-1 c 0,-9.435297 -7.5647,-17 -17,-17 l -52,0 z"
         id="rect3904"
         inkscape:connector-curvature="0" />
      <path
         style="opacity:0.12999998;color:#bebebe;fill:#ffffff;fill-opacity:1;fill-rule:nonzero;stroke:none;stroke-width:0;marker:none;visibility:visible;display:inline;overflow:visible;enable-background:accumulate"
         d="m 302.5,143 c -6.3883,0 -11.5,5.1117 -11.5,11.5 l 0,1 c 0,-6.3883 5.1117,-11.5 11.5,-11.5 l 35,0 c 6.3883,0 11.5,5.1117 11.5,11.5 l 0,-1 c 0,-6.3883 -5.1117,-11.5 -11.5,-11.5 l -35,0 z"
         id="rect3906"
         inkscape:connector-curvature="0" />
      <path
         id="path4085"
         d="m 204,266 c 27.1633,0 49,-21.8367 49,-49 l 0,-1 c 0,27.1633 -21.8367,49 -49,49 L 84,265 C 56.8367,265 35,243.1633 35,216 l 0,1 c 0,27.1633 21.8367,49 49,49 l 120,0 z"
         style="opacity:0.41;color:#bebebe;fill:#000000;fill-opacity:1;fill-rule:nonzero;stroke:none;stroke-width:0;marker:none;visibility:visible;display:inline;overflow:visible;enable-background:accumulate"
         inkscape:connector-curvature="0" />
      <path
         id="path4087"
         d="m 429,156 c 1.1253,0 2,-0.8747 2,-2 l 0,-1 c 0,1.1253 -0.8747,2 -2,2 l -10,0 c -1.1253,0 -2,-0.8747 -2,-2 l 0,1 c 0,1.1253 0.8747,2 2,2 l 10,0 z"
         style="opacity:0.3;color:#bebebe;fill:#000000;fill-opacity:1;fill-rule:nonzero;stroke:none;stroke-width:0;marker:none;visibility:visible;display:inline;overflow:visible;enable-background:accumulate"
         inkscape:connector-curvature="0" />
      <path
         id="path4089"
         d="m 434,123 c 2.2333,0 4,-1.7667 4,-4 l 0,-1 c 0,2.2333 -1.7667,4 -4,4 l -12,0 c -2.2333,0 -4,-1.7667 -4,-4 l 0,1 c 0,2.2333 1.7667,4 4,4 l 12,0 z"
         style="opacity:0.3;color:#bebebe;fill:#000000;fill-opacity:1;fill-rule:nonzero;stroke:none;stroke-width:0;marker:none;visibility:visible;display:inline;overflow:visible;enable-background:accumulate"
         inkscape:connector-curvature="0" />
      <path
         id="path4091"
         d="m 440,83 c 3.3413,0 6,-2.6587 6,-6 l 0,-1 c 0,3.3413 -2.6587,6 -6,6 l -16,0 c -3.3413,0 -6,-2.6587 -6,-6 l 0,1 c 0,3.3413 2.6587,6 6,6 l 16,0 z"
         style="opacity:0.41;color:#bebebe;fill:#000000;fill-opacity:1;fill-rule:nonzero;stroke:none;stroke-width:0;marker:none;visibility:visible;display:inline;overflow:visible;enable-background:accumulate"
         inkscape:connector-curvature="0" />
      <path
         id="path4093"
         d="m 324,265 c 4.4493,0 8,-3.5507 8,-8 l 0,-1 c 0,4.4493 -3.5507,8 -8,8 l -24,0 c -4.4493,0 -8,-3.5507 -8,-8 l 0,1 c 0,4.4493 3.5507,8 8,8 l 24,0 z"
         style="opacity:0.41;color:#bebebe;fill:#000000;fill-opacity:1;fill-rule:nonzero;stroke:none;stroke-width:0;marker:none;visibility:visible;display:inline;overflow:visible;enable-background:accumulate"
         inkscape:connector-curvature="0" />
      <path
         id="path4095"
         d="m 362,120 c 9.4353,0 17,-7.5647 17,-17 l 0,-1 c 0,9.4353 -7.5647,17 -17,17 l -52,0 c -9.4353,0 -17,-7.5647 -17,-17 l 0,1 c 0,9.4353 7.5647,17 17,17 l 52,0 z"
         style="opacity:0.41;color:#bebebe;fill:#000000;fill-opacity:1;fill-rule:nonzero;stroke:none;stroke-width:0;marker:none;visibility:visible;display:inline;overflow:visible;enable-background:accumulate"
         inkscape:connector-curvature="0" />
      <path
         id="path4097"
         d="m 337.5,202 c 6.3883,0 11.5,-5.1117 11.5,-11.5 l 0,-1 c 0,6.3883 -5.1117,11.5 -11.5,11.5 l -35,0 c -6.3883,0 -11.5,-5.1117 -11.5,-11.5 l 0,1 c 0,6.3883 5.1117,11.5 11.5,11.5 l 35,0 z"
         style="opacity:0.41;color:#bebebe;fill:#000000;fill-opacity:1;fill-rule:nonzero;stroke:none;stroke-width:0;marker:none;visibility:visible;display:inline;overflow:visible;enable-background:accumulate"
         inkscape:connector-curvature="0" />
      <path
         inkscape:connector-curvature="0"
         id="path4280"
         d="M 84,265 C 56.836703,265 35,243.1633 35,216 l 0,-1 c 0,27.1633 21.836703,49 49,49 l 120,0 c 27.1633,0 49,-21.8367 49,-49 l 0,1 c 0,27.1633 -21.8367,49 -49,49 l -120,0 z"
         style="opacity:0.1;color:#bebebe;fill:#ffffff;fill-opacity:1;fill-rule:nonzero;stroke:none;stroke-width:0;marker:none;visibility:visible;display:inline;overflow:visible;enable-background:accumulate" />
      <path
         style="opacity:0.1;color:#bebebe;fill:#ffffff;fill-opacity:1;fill-rule:nonzero;stroke:none;stroke-width:0;marker:none;visibility:visible;display:inline;overflow:visible;enable-background:accumulate"
         d="m 300,264 c -4.4493,0 -8,-3.5507 -8,-8 l 0,-1 c 0,4.4493 3.5507,8 8,8 l 24,0 c 4.4493,0 8,-3.5507 8,-8 l 0,1 c 0,4.4493 -3.5507,8 -8,8 l -24,0 z"
         id="path4294"
         inkscape:connector-curvature="0" />
      <path
         style="opacity:0.1;color:#bebebe;fill:#ffffff;fill-opacity:1;fill-rule:nonzero;stroke:none;stroke-width:0;marker:none;visibility:visible;display:inline;overflow:visible;enable-background:accumulate"
         d="m 302.5,201 c -6.3883,0 -11.5,-5.1117 -11.5,-11.5 l 0,-1 c 0,6.3883 5.1117,11.5 11.5,11.5 l 35,0 c 6.3883,0 11.5,-5.1117 11.5,-11.5 l 0,1 c 0,6.3883 -5.1117,11.5 -11.5,11.5 l -35,0 z"
         id="path4296"
         inkscape:connector-curvature="0" />
      <path
         style="opacity:0.1;color:#bebebe;fill:#ffffff;fill-opacity:1;fill-rule:nonzero;stroke:none;stroke-width:0;marker:none;visibility:visible;display:inline;overflow:visible;enable-background:accumulate"
         d="m 310,119 c -9.4353,0 -17,-7.5647 -17,-17 l 0,-1 c 0,9.4353 7.5647,17 17,17 l 52,0 c 9.4353,0 17,-7.5647 17,-17 l 0,1 c 0,9.4353 -7.5647,17 -17,17 l -52,0 z"
         id="path4298"
         inkscape:connector-curvature="0" />
      <path
         style="opacity:0.1;color:#bebebe;fill:#ffffff;fill-opacity:1;fill-rule:nonzero;stroke:none;stroke-width:0;marker:none;visibility:visible;display:inline;overflow:visible;enable-background:accumulate"
         d="m 424,82 c -3.3413,0 -6,-2.658703 -6,-6 l 0,-1 c 0,3.341297 2.6587,6 6,6 l 16,0 c 3.3413,0 6,-2.658703 6,-6 l 0,1 c 0,3.341297 -2.6587,6 -6,6 l -16,0 z"
         id="path4300"
         inkscape:connector-curvature="0" />
      <path
         style="opacity:0.1;color:#bebebe;fill:#ffffff;fill-opacity:1;fill-rule:nonzero;stroke:none;stroke-width:0;marker:none;visibility:visible;display:inline;overflow:visible;enable-background:accumulate"
         d="m 422,122 c -2.2333,0 -4,-1.7667 -4,-4 l 0,-1 c 0,2.2333 1.7667,4 4,4 l 12,0 c 2.2333,0 4,-1.7667 4,-4 l 0,1 c 0,2.2333 -1.7667,4 -4,4 l -12,0 z"
         id="path4302"
         inkscape:connector-curvature="0" />
      <path
         style="opacity:0.1;color:#bebebe;fill:#ffffff;fill-opacity:1;fill-rule:nonzero;stroke:none;stroke-width:0;marker:none;visibility:visible;display:inline;overflow:visible;enable-background:accumulate"
         d="m 419,154.5 c -1.1253,0 -2,-0.8747 -2,-2 l 0,-1 c 0,1.1253 0.8747,2 2,2 l 10,0 c 1.1253,0 2,-0.8747 2,-2 l 0,1 c 0,1.1253 -0.8747,2 -2,2 l -10,0 z"
         id="path4304"
         inkscape:connector-curvature="0" />
    </g>
    <g
       inkscape:groupmode="layer"
       id="layer3"
       inkscape:label="Border"
       style="display:inline"
       sodipodi:insensitive="true">
      <path
         style="opacity:0.41;color:#bebebe;fill:#000000;fill-opacity:1;fill-rule:nonzero;stroke:none;stroke-width:0;marker:none;visibility:visible;display:inline;overflow:visible;enable-background:accumulate"
         d="m 422,101 c -2.77,0 -5,2.23 -5,5 l 0,12 c 0,2.77 2.23,5 5,5 l 12,0 c 2.77,0 5,-2.23 5,-5 l 0,-12 c 0,-2.77 -2.23,-5 -5,-5 l -12,0 z m 0,1 12,0 c 2.2333,0 4,1.7667 4,4 l 0,12 c 0,2.2333 -1.7667,4 -4,4 l -12,0 c -2.2333,0 -4,-1.7667 -4,-4 l 0,-12 c 0,-2.2333 1.7667,-4 4,-4 z"
         id="rect4099"
         inkscape:connector-curvature="0" />
      <path
         style="opacity:0.41;color:#bebebe;fill:#000000;fill-opacity:1;fill-rule:nonzero;stroke:none;stroke-width:0;marker:none;visibility:visible;display:inline;overflow:visible;enable-background:accumulate"
         d="m 424,53 c -3.878,0 -7,3.122 -7,7 l 0,16 c 0,3.878 3.122,7 7,7 l 16,0 c 3.878,0 7,-3.122 7,-7 l 0,-16 c 0,-3.878 -3.122,-7 -7,-7 l -16,0 z m 0,1 16,0 c 3.3413,0 6,2.658703 6,6 l 0,16 c 0,3.341297 -2.6587,6 -6,6 l -16,0 c -3.3413,0 -6,-2.658703 -6,-6 l 0,-16 c 0,-3.341297 2.6587,-6 6,-6 z"
         id="rect4151"
         inkscape:connector-curvature="0" />
      <path
         style="opacity:0.41;color:#bebebe;fill:#000000;fill-opacity:1;fill-rule:nonzero;stroke:none;stroke-width:0;marker:none;visibility:visible;display:inline;overflow:visible;enable-background:accumulate"
         d="m 419,140 c -1.662,0 -3,1.338 -3,3 l 0,10 c 0,1.662 1.338,3 3,3 l 10,0 c 1.662,0 3,-1.338 3,-3 l 0,-10 c 0,-1.662 -1.338,-3 -3,-3 l -10,0 z m 0,1 10,0 c 1.1253,0 2,0.8747 2,2 l 0,10 c 0,1.1253 -0.8747,2 -2,2 l -10,0 c -1.1253,0 -2,-0.8747 -2,-2 l 0,-10 c 0,-1.1253 0.8747,-2 2,-2 z"
         id="rect4095"
         inkscape:connector-curvature="0" />
      <path
         style="opacity:0.41;color:#bebebe;fill:#000000;fill-opacity:1;fill-rule:nonzero;stroke:none;stroke-width:0;marker:none;visibility:visible;display:inline;overflow:visible;enable-background:accumulate"
         d="m 300,223 c -4.986,0 -9,4.014 -9,9 l 0,24 c 0,4.986 4.014,9 9,9 l 24,0 c 4.986,0 9,-4.014 9,-9 l 0,-24 c 0,-4.986 -4.014,-9 -9,-9 l -24,0 z m 0,1 24,0 c 4.4493,0 8,3.5507 8,8 l 0,24 c 0,4.4493 -3.5507,8 -8,8 l -24,0 c -4.4493,0 -8,-3.5507 -8,-8 l 0,-24 c 0,-4.4493 3.5507,-8 8,-8 z"
         id="rect4783"
         inkscape:connector-curvature="0" />
      <path
         style="opacity:0.41;color:#bebebe;fill:#000000;fill-opacity:1;fill-rule:nonzero;stroke:none;stroke-width:0;marker:none;visibility:visible;display:inline;overflow:visible;enable-background:accumulate"
         d="m 302.5,142 c -6.925,0 -12.5,5.575 -12.5,12.5 l 0,35 c 0,6.925 5.575,12.5 12.5,12.5 l 35,0 c 6.925,0 12.5,-5.575 12.5,-12.5 l 0,-35 c 0,-6.925 -5.575,-12.5 -12.5,-12.5 l -35,0 z m 0,1 35,0 c 6.3883,0 11.5,5.1117 11.5,11.5 l 0,35 c 0,6.3883 -5.1117,11.5 -11.5,11.5 l -35,0 c -6.3883,0 -11.5,-5.1117 -11.5,-11.5 l 0,-35 c 0,-6.3883 5.1117,-11.5 11.5,-11.5 z"
         id="rect4515"
         inkscape:connector-curvature="0" />
      <path
         style="opacity:0.41;color:#bebebe;fill:#000000;fill-opacity:1;fill-rule:nonzero;stroke:none;stroke-width:0;marker:none;visibility:visible;display:inline;overflow:visible;enable-background:accumulate"
         d="m 310,32 c -9.972,0 -18,8.028 -18,18 l 0,52 c 0,9.972 8.028,18 18,18 l 52,0 c 9.972,0 18,-8.028 18,-18 l 0,-52 c 0,-9.972 -8.028,-18 -18,-18 l -52,0 z m 0,1 52,0 c 9.4353,0 17,7.564703 17,17 l 0,52 c 0,9.4353 -7.5647,17 -17,17 l -52,0 c -9.4353,0 -17,-7.5647 -17,-17 l 0,-52 c 0,-9.435297 7.5647,-17 17,-17 z"
         id="rect4511"
         inkscape:connector-curvature="0" />
      <path
         style="opacity:0.41;color:#bebebe;fill:#000000;fill-opacity:1;fill-rule:nonzero;stroke:none;stroke-width:0;marker:none;visibility:visible;display:inline;overflow:visible;enable-background:accumulate"
         d="M 84,46 C 56.3,46 34,68.3 34,96 l 0,120 c 0,27.7 22.3,50 50,50 l 120,0 c 27.7,0 50,-22.3 50,-50 L 254,96 C 254,68.3 231.7,46 204,46 L 84,46 z m 0,1 120,0 c 27.1633,0 49,21.836703 49,49 l 0,120 c 0,27.1633 -21.8367,49 -49,49 L 84,265 C 56.836703,265 35,243.1633 35,216 L 35,96 C 35,68.836703 56.836703,47 84,47 z"
         id="rect4040"
         inkscape:connector-curvature="0" />
    </g>
  </g>
  <style
     type="text/css"
     id="style134">
	.st0{fill:#EF443B;}
</style>
</svg>
