<?xml version="1.0" encoding="UTF-8" standalone="no"?>
<!-- Created with Inkscape (http://www.inkscape.org/) -->

<svg
   inkscape:export-ydpi="90.000000"
   inkscape:export-xdpi="90.000000"
   width="480"
   height="300"
   id="svg11300"
   sodipodi:version="0.32"
   inkscape:version="1.4.2 (ebf0e940d0, 2025-05-08)"
   sodipodi:docname="copyq.svg"
   inkscape:output_extension="org.inkscape.output.svg.inkscape"
   version="1.0"
   style="display:inline;enable-background:new"
   inkscape:export-filename="/home/sam/moka-next-template.png"
   xmlns:inkscape="http://www.inkscape.org/namespaces/inkscape"
   xmlns:sodipodi="http://sodipodi.sourceforge.net/DTD/sodipodi-0.dtd"
   xmlns:xlink="http://www.w3.org/1999/xlink"
   xmlns="http://www.w3.org/2000/svg"
   xmlns:svg="http://www.w3.org/2000/svg"
   xmlns:rdf="http://www.w3.org/1999/02/22-rdf-syntax-ns#"
   xmlns:cc="http://creativecommons.org/ns#"
   xmlns:dc="http://purl.org/dc/elements/1.1/">
  <sodipodi:namedview
     stroke="#ef2929"
     fill="#f57900"
     id="base"
     pagecolor="#777777"
     bordercolor="#666666"
     borderopacity="0.25490196"
     inkscape:pageopacity="0"
     inkscape:pageshadow="2"
     inkscape:zoom="1.4776757"
     inkscape:cx="157.68006"
     inkscape:cy="152.26616"
     inkscape:current-layer="layer2"
     showgrid="false"
     inkscape:grid-bbox="true"
     inkscape:document-units="px"
     inkscape:showpageshadow="false"
     inkscape:window-width="1920"
     inkscape:window-height="980"
     inkscape:window-x="0"
     inkscape:window-y="24"
     width="400px"
     height="300px"
     inkscape:snap-nodes="true"
     inkscape:snap-bbox="true"
     gridtolerance="10000"
     inkscape:object-nodes="true"
     inkscape:snap-grids="true"
     showguides="true"
     inkscape:guide-bbox="true"
     inkscape:window-maximized="1"
     inkscape:bbox-nodes="true"
     inkscape:bbox-paths="true"
     inkscape:snap-bbox-edge-midpoints="true"
     inkscape:snap-bbox-midpoints="true"
     inkscape:pagecheckerboard="0"
     inkscape:deskcolor="#d1d1d1">
    <inkscape:grid
       spacingy="1px"
       spacingx="1px"
       id="grid5883"
       type="xygrid"
       enabled="true"
       visible="false"
       empspacing="4"
       snapvisiblegridlinesonly="true"
       dotted="false"
       color="#000000"
       opacity="0.1254902"
       empcolor="#203ef3"
       empopacity="0.36470588"
       originx="0"
       originy="0"
       units="px" />
    <inkscape:grid
       type="xygrid"
       id="grid11592"
       empspacing="8"
       visible="false"
       enabled="false"
       spacingx="0.5px"
       spacingy="0.5px"
       color="#ff0000"
       opacity="0.1254902"
       empcolor="#ff0000"
       empopacity="0.25098039"
       snapvisiblegridlinesonly="true"
       dotted="true"
       originx="0"
       originy="0"
       units="px" />
  </sodipodi:namedview>
  <defs
     id="defs3">
    <linearGradient
       id="linearGradient18">
      <stop
         style="stop-color:#2f9d58;stop-opacity:1;"
         offset="0"
         id="stop17" />
      <stop
         style="stop-color:#68c088;stop-opacity:1;"
         offset="1"
         id="stop18" />
    </linearGradient>
    <linearGradient
       id="linearGradient16">
      <stop
         style="stop-color:#2f9d58;stop-opacity:1;"
         offset="0"
         id="stop15" />
      <stop
         style="stop-color:#68c088;stop-opacity:1;"
         offset="1"
         id="stop16" />
    </linearGradient>
    <linearGradient
       id="linearGradient14">
      <stop
         style="stop-color:#2f9d58;stop-opacity:1;"
         offset="0"
         id="stop13" />
      <stop
         style="stop-color:#68c088;stop-opacity:1;"
         offset="1"
         id="stop14" />
    </linearGradient>
    <linearGradient
       id="linearGradient12">
      <stop
         style="stop-color:#2f9d58;stop-opacity:1;"
         offset="0"
         id="stop11" />
      <stop
         style="stop-color:#68c088;stop-opacity:1;"
         offset="1"
         id="stop12" />
    </linearGradient>
    <linearGradient
       id="linearGradient10">
      <stop
         style="stop-color:#2f9d58;stop-opacity:1;"
         offset="0"
         id="stop9" />
      <stop
         style="stop-color:#68c088;stop-opacity:1;"
         offset="1"
         id="stop10" />
    </linearGradient>
    <linearGradient
       id="linearGradient7">
      <stop
         style="stop-color:#2f9d58;stop-opacity:1;"
         offset="0"
         id="stop6" />
      <stop
         style="stop-color:#68c088;stop-opacity:1;"
         offset="1"
         id="stop7" />
    </linearGradient>
    <linearGradient
       inkscape:collect="always"
       xlink:href="#linearGradient7"
       id="linearGradient6279"
       gradientUnits="userSpaceOnUse"
       gradientTransform="matrix(0,-1,1,0,-12,300)"
       x1="35"
       y1="156"
       x2="253"
       y2="156" />
    <linearGradient
       inkscape:collect="always"
       xlink:href="#linearGradient10"
       id="linearGradient6281"
       gradientUnits="userSpaceOnUse"
       gradientTransform="matrix(0,-1,1,0,276,572)"
       x1="417"
       y1="148"
       x2="431"
       y2="148" />
    <linearGradient
       inkscape:collect="always"
       xlink:href="#linearGradient12"
       id="linearGradient6283"
       gradientUnits="userSpaceOnUse"
       gradientTransform="matrix(0,-1,1,0,316,540)"
       x1="418"
       y1="112"
       x2="438"
       y2="112" />
    <linearGradient
       inkscape:collect="always"
       xlink:href="#linearGradient14"
       id="linearGradient6285"
       gradientUnits="userSpaceOnUse"
       gradientTransform="matrix(0,-1,1,0,364,500)"
       x1="418"
       y1="68"
       x2="446"
       y2="68" />
    <linearGradient
       inkscape:collect="always"
       xlink:href="#linearGradient16"
       id="linearGradient6287"
       gradientUnits="userSpaceOnUse"
       gradientTransform="matrix(0,-1,1,0,68,556)"
       x1="292"
       y1="244"
       x2="332"
       y2="244" />
    <linearGradient
       inkscape:collect="always"
       xlink:href="#linearGradient18"
       id="linearGradient6289"
       gradientUnits="userSpaceOnUse"
       gradientTransform="matrix(0,-1,1,0,260,412)"
       x1="293"
       y1="76"
       x2="379"
       y2="76" />
    <linearGradient
       inkscape:collect="always"
       xlink:href="#outerBackgroundGradient-60"
       id="linearGradient6291"
       gradientUnits="userSpaceOnUse"
       gradientTransform="matrix(0,-1,1,0,148,492)"
       x1="291"
       y1="172"
       x2="349"
       y2="172" />
    <linearGradient
       id="outerBackgroundGradient-60">
      <stop
         style="stop-color:#2f9d58;stop-opacity:1;"
         offset="0"
         id="stop3864-8-6-06" />
      <stop
         style="stop-color:#68c088;stop-opacity:1;"
         offset="1"
         id="stop3866-9-1-05" />
    </linearGradient>
    <filter
       x="-0.094016239"
       y="-0.085931711"
       width="1.1880325"
       height="1.1718634"
       color-interpolation-filters="sRGB"
       id="filter3242-2">
      <feGaussianBlur
         id="feGaussianBlur3244-9"
         stdDeviation="2.92" />
    </filter>
    <clipPath
       id="clipPath3126-9">
      <path
         inkscape:connector-curvature="0"
         d="m 30,94 2,2 3,10 1,-12 3,15 0,-19 2,5 3,14 0,-19 2,2 3,17 3,-23 6.615678,25.91971 L 59,96 l 2,-6 2,25 6,-25 2,21 5,-22 5,24 1,-18 3,-6 1,23 5,-22 3,10 1,-9 3,6 0,-19 -3,8 L 94,69 92,82 90,78 89,64 84,83 83,79 80,49 77,75 75,83 71,56 67,79 65,85 64,43.695313 58,90 52,48 49,84 47,80 45,56 44,80 41,87 39,63 37,82 34,77 34,91 30,76 30,94 z"
         id="path3128-7"
         style="fill:none;stroke:#000000;stroke-width:1px;stroke-linecap:butt;stroke-linejoin:miter;stroke-opacity:1" />
    </clipPath>
    <filter
       color-interpolation-filters="sRGB"
       id="filter3326-1"
       x="-0.042469834"
       y="-0.011614084"
       width="1.0710508"
       height="1.0232282">
      <feGaussianBlur
         id="feGaussianBlur3328-7"
         stdDeviation="0.35326172" />
    </filter>
    <filter
       color-interpolation-filters="sRGB"
       id="filter3282-4"
       x="-0.046521738"
       y="-0.084473683"
       width="1.0930435"
       height="1.1689474">
      <feGaussianBlur
         id="feGaussianBlur3284-5"
         stdDeviation="1.3375" />
    </filter>
  </defs>
  <metadata
     id="metadata4">
    <rdf:RDF>
      <cc:Work
         rdf:about="">
        <dc:format>image/svg+xml</dc:format>
        <dc:type
           rdf:resource="http://purl.org/dc/dcmitype/StillImage" />
        <dc:creator>
          <cc:Agent>
            <dc:title>Sam Hewitt</dc:title>
          </cc:Agent>
        </dc:creator>
        <dc:source />
        <cc:license
           rdf:resource="" />
        <dc:subject>
          <rdf:Bag />
        </dc:subject>
        <dc:date />
        <dc:rights>
          <cc:Agent>
            <dc:title />
          </cc:Agent>
        </dc:rights>
        <dc:publisher>
          <cc:Agent>
            <dc:title />
          </cc:Agent>
        </dc:publisher>
        <dc:identifier />
        <dc:relation />
        <dc:language />
        <dc:coverage />
        <dc:description />
        <dc:contributor>
          <cc:Agent>
            <dc:title />
          </cc:Agent>
        </dc:contributor>
      </cc:Work>
      <cc:Work
         rdf:about="">
        <dc:format>image/svg+xml</dc:format>
        <dc:type
           rdf:resource="http://purl.org/dc/dcmitype/StillImage" />
      </cc:Work>
    </rdf:RDF>
  </metadata>
  <g
     style="display:inline"
     inkscape:groupmode="layer"
     inkscape:label="Icon"
     id="layer1">
    <g
       style="display:none"
       inkscape:label="Baseplate"
       id="layer7"
       inkscape:groupmode="layer">
      <text
         y="19.745117"
         xml:space="preserve"
         x="15.006836"
         style="font-style:normal;font-variant:normal;font-weight:normal;font-stretch:normal;line-height:0%;font-family:'DejaVu Sans';-inkscape-font-specification:'DejaVu Sans';display:inline;fill:#000000;fill-opacity:1;stroke:none;enable-background:new"
         inkscape:label="context"
         id="context"><tspan
           style="font-style:normal;font-variant:normal;font-weight:normal;font-stretch:normal;font-size:18px;line-height:1.25;font-family:'DejaVu Sans';-inkscape-font-specification:'DejaVu Sans'"
           y="19.745117"
           x="15.006836"
           sodipodi:role="line"
           id="tspan3933">apps</tspan></text>
      <text
         y="19.745117"
         xml:space="preserve"
         x="122.48828"
         style="font-style:normal;font-variant:normal;font-weight:bold;font-stretch:normal;line-height:0%;font-family:'DejaVu Sans';-inkscape-font-specification:'DejaVu Sans Bold';text-align:start;writing-mode:lr-tb;text-anchor:start;display:inline;fill:#000000;fill-opacity:1;stroke:none;enable-background:new"
         inkscape:label="icon-name"
         id="icon-name"><tspan
           style="font-style:normal;font-variant:normal;font-weight:bold;font-stretch:normal;font-size:18px;line-height:1.25;font-family:'DejaVu Sans';-inkscape-font-specification:'DejaVu Sans Bold'"
           y="19.745117"
           x="122.48828"
           sodipodi:role="line"
           id="tspan3937">copyq</tspan></text>
      <rect
         style="display:inline;overflow:visible;visibility:visible;fill:#eeeeec;fill-opacity:1;fill-rule:nonzero;stroke:none;stroke-width:2;marker:none;enable-background:accumulate"
         id="rect16x16"
         width="16"
         height="16"
         x="416"
         y="140"
         inkscape:label="16x16" />
      <rect
         style="display:inline;overflow:visible;visibility:visible;fill:#d4d4d4;fill-opacity:1;fill-rule:nonzero;stroke:none;stroke-width:2;marker:none;enable-background:accumulate"
         id="rect24x24"
         width="24"
         height="24"
         x="416"
         y="100"
         inkscape:label="24x24" />
      <rect
         style="display:inline;overflow:visible;visibility:visible;fill:#eeeeec;fill-opacity:1;fill-rule:nonzero;stroke:none;stroke-width:2;marker:none;enable-background:accumulate"
         id="rect32x32"
         width="32"
         height="32"
         x="416"
         y="52"
         inkscape:label="32x32" />
      <rect
         inkscape:label="22x22"
         y="101"
         x="417"
         height="22"
         width="22"
         id="rect22x22"
         style="display:inline;overflow:visible;visibility:visible;fill:#eeeeec;fill-opacity:1;fill-rule:nonzero;stroke:none;stroke-width:2;marker:none;enable-background:accumulate" />
      <rect
         inkscape:label="48x48"
         y="220"
         x="288"
         height="48"
         width="48"
         id="rect48x48"
         style="display:inline;overflow:visible;visibility:visible;fill:#eeeeec;fill-opacity:1;fill-rule:nonzero;stroke:none;stroke-width:2;marker:none;enable-background:accumulate" />
      <rect
         style="display:inline;overflow:visible;visibility:visible;fill:#eeeeec;fill-opacity:1;fill-rule:nonzero;stroke:none;stroke-width:2;marker:none;enable-background:accumulate"
         id="rect256x256"
         width="256"
         height="256"
         x="16"
         y="28"
         inkscape:label="256x256" />
      <rect
         style="display:inline;overflow:visible;visibility:visible;fill:#eeeeec;fill-opacity:1;fill-rule:nonzero;stroke:none;stroke-width:2;marker:none;enable-background:accumulate"
         id="rect64x64"
         width="64"
         height="64"
         x="288"
         y="140"
         inkscape:label="64x64" />
      <rect
         style="display:inline;overflow:visible;visibility:visible;fill:#eeeeec;fill-opacity:1;fill-rule:nonzero;stroke:none;stroke-width:2;marker:none;enable-background:accumulate"
         id="rect96x96"
         width="96"
         height="96"
         x="288"
         y="28"
         inkscape:label="96x96" />
    </g>
    <g
       inkscape:groupmode="layer"
       id="layer4"
       inkscape:label="Shadow"
       style="display:inline"
       sodipodi:insensitive="true">
      <rect
         ry="50"
         y="47"
         x="34"
         height="220"
         width="220"
         id="rect4114"
         style="color:#bebebe;display:inline;overflow:visible;visibility:visible;opacity:0.1;fill:#000000;fill-opacity:1;fill-rule:nonzero;stroke:none;stroke-width:0;marker:none;enable-background:accumulate" />
      <rect
         style="color:#bebebe;display:inline;overflow:visible;visibility:visible;opacity:0.1;fill:#000000;fill-opacity:1;fill-rule:nonzero;stroke:none;stroke-width:0;marker:none;enable-background:accumulate"
         id="rect4120"
         width="30"
         height="30"
         x="417"
         y="54"
         ry="7" />
      <rect
         transform="scale(1,-1)"
         ry="9"
         y="-266"
         x="291"
         height="42"
         width="42"
         id="rect4122"
         style="color:#bebebe;display:inline;overflow:visible;visibility:visible;opacity:0.1;fill:#000000;fill-opacity:1;fill-rule:nonzero;stroke:none;stroke-width:0;marker:none;enable-background:accumulate" />
      <rect
         style="color:#bebebe;display:inline;overflow:visible;visibility:visible;opacity:0.1;fill:#000000;fill-opacity:1;fill-rule:nonzero;stroke:none;stroke-width:0;marker:none;enable-background:accumulate"
         id="rect4124"
         width="88"
         height="88"
         x="292"
         y="33"
         ry="18" />
      <rect
         ry="12.5"
         y="143"
         x="290"
         height="60"
         width="60"
         id="rect4126"
         style="color:#bebebe;display:inline;overflow:visible;visibility:visible;opacity:0.1;fill:#000000;fill-opacity:1;fill-rule:nonzero;stroke:none;stroke-width:0;marker:none;enable-background:accumulate" />
      <path
         id="path4268"
         d="m 422,101 c -2.77,0 -5,2.23 -5,5 v 12 c 0,2.77 2.23,5 5,5 h 12 c 2.77,0 5,-2.23 5,-5 v -12 c 0,-2.77 -2.23,-5 -5,-5 z"
         style="color:#bebebe;display:inline;overflow:visible;visibility:visible;opacity:0.1;fill:#000000;fill-opacity:1;fill-rule:nonzero;stroke:none;stroke-width:0;marker:none;enable-background:accumulate"
         inkscape:connector-curvature="0"
         sodipodi:nodetypes="sssssssss" />
      <path
         id="path4270"
         d="m 419,140 c -1.662,0 -3,1.338 -3,3 v 10 c 0,1.662 1.338,3 3,3 h 10 c 1.662,0 3,-1.338 3,-3 v -10 c 0,-1.662 -1.338,-3 -3,-3 z"
         style="color:#bebebe;display:inline;overflow:visible;visibility:visible;opacity:0.1;fill:#000000;fill-opacity:1;fill-rule:nonzero;stroke:none;stroke-width:0;marker:none;enable-background:accumulate"
         inkscape:connector-curvature="0"
         sodipodi:nodetypes="sssssssss" />
    </g>
    <g
       inkscape:groupmode="layer"
       id="layer2"
       inkscape:label="Background"
       style="display:inline">
      <path
         style="color:#bebebe;display:inline;overflow:visible;visibility:visible;fill:url(#linearGradient6279);fill-opacity:1;fill-rule:nonzero;stroke:none;stroke-width:2;marker:none;enable-background:accumulate"
         d="M 84,46.5 C 56.568735,46.5 34.5,68.568732 34.5,96 v 120 c 0,27.43127 22.068735,49.5 49.5,49.5 h 120 c 27.43127,0 49.5,-22.06873 49.5,-49.5 V 96 C 253.5,68.568732 231.43127,46.5 204,46.5 Z"
         id="path4200" />
      <path
         style="color:#bebebe;display:inline;overflow:visible;visibility:visible;fill:url(#linearGradient6281);fill-opacity:1;fill-rule:nonzero;stroke:none;stroke-width:2;marker:none;enable-background:accumulate"
         d="m 419,140.5 c -1.3844,0 -2.5,1.1156 -2.5,2.5 v 10 c 0,1.3844 1.1156,2.5 2.5,2.5 h 10 c 1.3844,0 2.5,-1.1156 2.5,-2.5 v -10 c 0,-1.3844 -1.1156,-2.5 -2.5,-2.5 z"
         id="path4202" />
      <path
         style="color:#bebebe;display:inline;overflow:visible;visibility:visible;fill:url(#linearGradient6283);fill-opacity:1;fill-rule:nonzero;stroke:none;stroke-width:2;marker:none;enable-background:accumulate"
         d="m 422,101.5 c -2.49699,0 -4.5,2.00301 -4.5,4.5 v 12 c 0,2.49699 2.00301,4.5 4.5,4.5 h 12 c 2.49699,0 4.5,-2.00301 4.5,-4.5 v -12 c 0,-2.49699 -2.00301,-4.5 -4.5,-4.5 z"
         id="path4204" />
      <path
         style="color:#bebebe;display:inline;overflow:visible;visibility:visible;fill:url(#linearGradient6285);fill-opacity:1;fill-rule:nonzero;stroke:none;stroke-width:2;marker:none;enable-background:accumulate"
         d="m 424,53.5 c -3.60654,0 -6.5,2.893464 -6.5,6.5 v 16 c 0,3.606536 2.89346,6.5 6.5,6.5 h 16 c 3.60654,0 6.5,-2.893464 6.5,-6.5 V 60 c 0,-3.606536 -2.89346,-6.5 -6.5,-6.5 z"
         id="path4206" />
      <path
         style="color:#bebebe;display:inline;overflow:visible;visibility:visible;fill:url(#linearGradient6287);fill-opacity:1;fill-rule:nonzero;stroke:none;stroke-width:2;marker:none;enable-background:accumulate"
         d="m 300,223.5 c -4.71531,0 -8.5,3.78469 -8.5,8.5 v 24 c 0,4.71531 3.78469,8.5 8.5,8.5 h 24 c 4.71531,0 8.5,-3.78469 8.5,-8.5 v -24 c 0,-4.71531 -3.78469,-8.5 -8.5,-8.5 z"
         id="path4208" />
      <path
         style="color:#bebebe;display:inline;overflow:visible;visibility:visible;fill:url(#linearGradient6289);fill-opacity:1;fill-rule:nonzero;stroke:none;stroke-width:2;marker:none;enable-background:accumulate"
         d="m 310,32.5 c -9.70255,0 -17.5,7.797452 -17.5,17.5 v 52 c 0,9.70255 7.79745,17.5 17.5,17.5 h 52 c 9.70255,0 17.5,-7.79745 17.5,-17.5 V 50 c 0,-9.702548 -7.79745,-17.5 -17.5,-17.5 z"
         id="path4210" />
      <path
         style="color:#bebebe;display:inline;overflow:visible;visibility:visible;fill:url(#linearGradient6291);fill-opacity:1;fill-rule:nonzero;stroke:none;stroke-width:2;marker:none;enable-background:accumulate"
         d="m 302.5,142.5 c -6.65502,0 -12,5.34498 -12,12 v 35 c 0,6.65502 5.34498,12 12,12 h 35 c 6.65502,0 12,-5.34498 12,-12 v -35 c 0,-6.65502 -5.34498,-12 -12,-12 z"
         id="path4212" />
    </g>
    <g
       inkscape:groupmode="layer"
       id="layer6"
       inkscape:label="Symbols"
       style="display:inline"
       transform="translate(4.60794,-0.499445)">
      <g
         id="g1"
         style="display:inline;opacity:0.2;enable-background:new"
         transform="translate(0,1.499445)">
        <path
           id="path54"
           style="display:inline;fill:#000000;fill-opacity:1;stroke-width:12.4259;enable-background:new"
           d="m 115.57878,164.27924 c -0.57621,0.62129 -1.23949,1.23016 -1.77728,1.84399 -1.17623,1.34821 -2.36116,2.69641 -3.36129,4.04586 -0.1951,0.26094 -0.41564,0.52064 -0.60427,0.78159 -1.37815,1.92103 -2.55941,3.83834 -3.61011,5.74944 -0.21572,0.39762 -0.42601,0.78407 -0.62871,1.1817 -0.98132,1.89618 -1.84067,3.78491 -2.53485,5.655 -0.10152,0.27337 -0.17975,0.54549 -0.27548,0.81886 -0.63142,1.79802 -1.14586,3.58113 -1.5418,5.34312 -0.0486,0.21124 -0.11468,0.4349 -0.15995,0.64614 -0.38663,1.84151 -0.6334,3.65072 -0.79534,5.43631 -0.0332,0.36035 -0.0644,0.73561 -0.0889,1.09596 -0.0633,0.93194 -0.0402,1.84524 -0.0489,2.766 -0.0137,1.43767 0.008,2.85794 0.1133,4.24467 0.0603,0.79525 0.13854,1.57808 0.23327,2.35345 0.16321,1.33578 0.37242,2.63801 0.62427,3.91166 0.13934,0.70828 0.26635,1.41655 0.42877,2.09997 0.32539,1.36933 0.70123,2.6815 1.10191,3.96136 0.15536,0.49704 0.28894,1.02016 0.45321,1.50602 0.58396,1.71228 1.21265,3.34503 1.87059,4.8585 0.98609,2.27021 2.00712,4.14651 2.99028,5.90228 0.92684,1.64767 1.79312,3.09031 2.53707,4.20615 0.28738,0.42248 0.66311,1.06863 0.90419,1.40412 0.73749,1.03135 1.40628,1.90613 1.40628,1.90613 5.34917,-10.7757 13.78042,-25.73518 21.88724,-39.66953 v -0.002 -10e-4 c -1.50979,-2.5796 -2.9977,-5.10702 -4.43877,-7.54497 -3.76727,-6.37446 -7.22115,-12.14379 -9.93945,-16.6581 -2.09312,-3.47551 -3.71392,-6.14582 -4.74535,-7.84195 z" />
        <path
           d="M 100.60928,76.000076 A 39.260373,39.263441 0 0 0 61.34909,115.2647 39.260373,39.263441 0 0 0 100.60928,154.52711 39.260373,39.263441 0 0 0 139.86945,115.2647 39.260373,39.263441 0 0 0 100.60928,76.000076 Z m 0,22.771442 a 16.493186,16.493194 0 0 1 16.49318,16.493182 16.493186,16.493194 0 0 1 -16.49318,16.49319 16.493186,16.493194 0 0 1 -16.4932,-16.49319 16.493186,16.493194 0 0 1 16.4932,-16.493182 z"
           style="display:inline;fill:#000000;fill-opacity:1;stroke-width:1.04576;enable-background:new"
           id="path3" />
        <path
           id="path52"
           style="display:inline;fill:#000000;fill-opacity:1;stroke-width:12.4259;enable-background:new"
           d="m 136.67513,144.40657 c -1.99605,2.14471 -5.85521,5.55684 -9.21521,8.43219 -3.35883,2.8741 -6.22271,5.21388 -6.22271,5.21388 0,0 0.0739,0.12426 0.21549,0.34793 0.33242,-0.28704 0.76413,-0.56786 1.10636,-0.8549 -0.35059,0.29325 -0.75493,0.58401 -1.09525,0.87726 0.013,0.0323 0.0336,0.087 0.0422,0.10065 l 0.002,0.002 c 0.004,-0.004 0.009,-0.007 0.0133,-0.0112 0.61263,0.99904 2.2908,3.7464 4.73424,7.78853 2.32785,3.85077 5.31777,8.82608 8.65093,14.43387 1.43954,2.42179 2.94382,4.96164 4.48541,7.57976 1.54127,-2.61812 3.04615,-5.15672 4.48542,-7.57728 -1.43984,2.4218 -2.94348,4.96289 -4.48542,7.58226 0.12965,0.22366 0.26529,0.45975 0.39545,0.67099 v 10e-4 c 1.4079,2.39447 2.83968,4.83366 4.28769,7.32256 8.10933,13.93807 16.54294,28.90377 21.8939,39.68319 0.004,-0.006 30.39697,-36.79542 -2.65925,-71.88975 -1.79663,-1.90737 -3.78291,-3.80853 -5.96945,-5.69974 -0.003,-0.004 -0.006,-0.006 -0.009,-0.01 -4.87411,-4.21361 -10.76496,-8.37254 -17.81726,-12.40722 -0.0444,0 -0.0777,0 -0.12219,-0.12425 -0.0148,0.009 -0.0296,0.0162 -0.0444,0.0248 -0.87309,-0.50076 -1.76337,-0.9891 -2.67259,-1.48738 z m -15.21132,14.01636 c -0.005,-0.0112 -0.009,-0.0186 -0.0111,-0.0224 v 0.0311 c 0.003,-0.002 0.008,-0.005 0.0111,-0.009 z m 31.06469,7.88048 c 0.0666,0 0.114,0.12301 0.17995,0.17272 -2.6e-4,10e-4 2.5e-4,0.002 0,0.002 -1.18872,1.94962 -5.76564,10.26748 -8.5043,14.81659 2.73673,-4.54538 7.30959,-12.85952 8.50207,-14.81659 -0.0654,-0.002 -0.11148,-0.12426 -0.17772,-0.17272 z" />
        <path
           d="m 178.17486,76 a 39.260373,39.263441 0 0 0 -39.26019,39.26462 39.260373,39.263441 0 0 0 39.26019,39.26241 39.260373,39.263441 0 0 0 39.26017,-39.26241 A 39.260373,39.263441 0 0 0 178.17486,76 Z m 0,22.771438 a 16.493186,16.493194 0 0 1 16.49318,16.493182 16.493186,16.493194 0 0 1 -16.49318,16.49319 16.493186,16.493194 0 0 1 -16.4932,-16.49319 16.493186,16.493194 0 0 1 16.4932,-16.493182 z"
           style="display:inline;fill:#000000;fill-opacity:1;stroke-width:1.04576;enable-background:new"
           id="path4" />
      </g>
      <g
         id="g6"
         transform="translate(0,0.499815)">
        <path
           id="path1"
           style="display:inline;fill:#ffffff;fill-opacity:1;stroke-width:12.4259;enable-background:new"
           d="m 115.57878,164.27924 c -0.57621,0.62129 -1.23949,1.23016 -1.77728,1.84399 -1.17623,1.34821 -2.36116,2.69641 -3.36129,4.04586 -0.1951,0.26094 -0.41564,0.52064 -0.60427,0.78159 -1.37815,1.92103 -2.55941,3.83834 -3.61011,5.74944 -0.21572,0.39762 -0.42601,0.78407 -0.62871,1.1817 -0.98132,1.89618 -1.84067,3.78491 -2.53485,5.655 -0.10152,0.27337 -0.17975,0.54549 -0.27548,0.81886 -0.63142,1.79802 -1.14586,3.58113 -1.5418,5.34312 -0.0486,0.21124 -0.11468,0.4349 -0.15995,0.64614 -0.38663,1.84151 -0.6334,3.65072 -0.79534,5.43631 -0.0332,0.36035 -0.0644,0.73561 -0.0889,1.09596 -0.0633,0.93194 -0.0402,1.84524 -0.0489,2.766 -0.0137,1.43767 0.008,2.85794 0.1133,4.24467 0.0603,0.79525 0.13854,1.57808 0.23327,2.35345 0.16321,1.33578 0.37242,2.63801 0.62427,3.91166 0.13934,0.70828 0.26635,1.41655 0.42877,2.09997 0.32539,1.36933 0.70123,2.6815 1.10191,3.96136 0.15536,0.49704 0.28894,1.02016 0.45321,1.50602 0.58396,1.71228 1.21265,3.34503 1.87059,4.8585 0.98609,2.27021 2.00712,4.14651 2.99028,5.90228 0.92684,1.64767 1.79312,3.09031 2.53707,4.20615 0.28738,0.42248 0.66311,1.06863 0.90419,1.40412 0.73749,1.03135 1.40628,1.90613 1.40628,1.90613 5.34917,-10.7757 13.78042,-25.73518 21.88724,-39.66953 v -0.002 -10e-4 c -1.50979,-2.5796 -2.9977,-5.10702 -4.43877,-7.54497 -3.76727,-6.37446 -7.22115,-12.14379 -9.93945,-16.6581 -2.09312,-3.47551 -3.71392,-6.14582 -4.74535,-7.84195 z" />
        <path
           d="M 100.60928,76.000076 A 39.260373,39.263441 0 0 0 61.34909,115.2647 39.260373,39.263441 0 0 0 100.60928,154.52711 39.260373,39.263441 0 0 0 139.86945,115.2647 39.260373,39.263441 0 0 0 100.60928,76.000076 Z m 0,22.771442 a 16.493186,16.493194 0 0 1 16.49318,16.493182 16.493186,16.493194 0 0 1 -16.49318,16.49319 16.493186,16.493194 0 0 1 -16.4932,-16.49319 16.493186,16.493194 0 0 1 16.4932,-16.493182 z"
           style="display:inline;fill:#ffffff;fill-opacity:1;stroke-width:1.04576;enable-background:new"
           id="path2" />
        <path
           id="path5"
           style="display:inline;fill:#ffffff;fill-opacity:1;stroke-width:12.4259;enable-background:new"
           d="m 136.67513,144.40657 c -1.99605,2.14471 -5.85521,5.55684 -9.21521,8.43219 -3.35883,2.8741 -6.22271,5.21388 -6.22271,5.21388 0,0 0.0739,0.12426 0.21549,0.34793 0.33242,-0.28704 0.76413,-0.56786 1.10636,-0.8549 -0.35059,0.29325 -0.75493,0.58401 -1.09525,0.87726 0.013,0.0323 0.0336,0.087 0.0422,0.10065 l 0.002,0.002 c 0.004,-0.004 0.009,-0.007 0.0133,-0.0112 0.61263,0.99904 2.2908,3.7464 4.73424,7.78853 2.32785,3.85077 5.31777,8.82608 8.65093,14.43387 1.43954,2.42179 2.94382,4.96164 4.48541,7.57976 1.54127,-2.61812 3.04615,-5.15672 4.48542,-7.57728 -1.43984,2.4218 -2.94348,4.96289 -4.48542,7.58226 0.12965,0.22366 0.26529,0.45975 0.39545,0.67099 v 10e-4 c 1.4079,2.39447 2.83968,4.83366 4.28769,7.32256 8.10933,13.93807 16.54294,28.90377 21.8939,39.68319 0.004,-0.006 30.39697,-36.79542 -2.65925,-71.88975 -1.79663,-1.90737 -3.78291,-3.80853 -5.96945,-5.69974 -0.003,-0.004 -0.006,-0.006 -0.009,-0.01 -4.87411,-4.21361 -10.76496,-8.37254 -17.81726,-12.40722 -0.0444,0 -0.0777,0 -0.12219,-0.12425 -0.0148,0.009 -0.0296,0.0162 -0.0444,0.0248 -0.87309,-0.50076 -1.76337,-0.9891 -2.67259,-1.48738 z m -15.21132,14.01636 c -0.005,-0.0112 -0.009,-0.0186 -0.0111,-0.0224 v 0.0311 c 0.003,-0.002 0.008,-0.005 0.0111,-0.009 z m 31.06469,7.88048 c 0.0666,0 0.114,0.12301 0.17995,0.17272 -2.6e-4,10e-4 2.5e-4,0.002 0,0.002 -1.18872,1.94962 -5.76564,10.26748 -8.5043,14.81659 2.73673,-4.54538 7.30959,-12.85952 8.50207,-14.81659 -0.0654,-0.002 -0.11148,-0.12426 -0.17772,-0.17272 z" />
        <path
           d="m 178.17486,76 a 39.260373,39.263441 0 0 0 -39.26019,39.26462 39.260373,39.263441 0 0 0 39.26019,39.26241 39.260373,39.263441 0 0 0 39.26017,-39.26241 A 39.260373,39.263441 0 0 0 178.17486,76 Z m 0,22.771438 a 16.493186,16.493194 0 0 1 16.49318,16.493182 16.493186,16.493194 0 0 1 -16.49318,16.49319 16.493186,16.493194 0 0 1 -16.4932,-16.49319 16.493186,16.493194 0 0 1 16.4932,-16.493182 z"
           style="display:inline;fill:#ffffff;fill-opacity:1;stroke-width:1.04576;enable-background:new"
           id="path6" />
      </g>
      <g
         id="g21"
         transform="matrix(0.39726211,0,0,0.39726211,276.01688,15.526525)"
         style="display:inline;opacity:0.2">
        <path
           id="path18"
           style="display:inline;fill:#000000;fill-opacity:1;stroke-width:12.4259;enable-background:new"
           d="m 115.57878,164.27924 c -0.57621,0.62129 -1.23949,1.23016 -1.77728,1.84399 -1.17623,1.34821 -2.36116,2.69641 -3.36129,4.04586 -0.1951,0.26094 -0.41564,0.52064 -0.60427,0.78159 -1.37815,1.92103 -2.55941,3.83834 -3.61011,5.74944 -0.21572,0.39762 -0.42601,0.78407 -0.62871,1.1817 -0.98132,1.89618 -1.84067,3.78491 -2.53485,5.655 -0.10152,0.27337 -0.17975,0.54549 -0.27548,0.81886 -0.63142,1.79802 -1.14586,3.58113 -1.5418,5.34312 -0.0486,0.21124 -0.11468,0.4349 -0.15995,0.64614 -0.38663,1.84151 -0.6334,3.65072 -0.79534,5.43631 -0.0332,0.36035 -0.0644,0.73561 -0.0889,1.09596 -0.0633,0.93194 -0.0402,1.84524 -0.0489,2.766 -0.0137,1.43767 0.008,2.85794 0.1133,4.24467 0.0603,0.79525 0.13854,1.57808 0.23327,2.35345 0.16321,1.33578 0.37242,2.63801 0.62427,3.91166 0.13934,0.70828 0.26635,1.41655 0.42877,2.09997 0.32539,1.36933 0.70123,2.6815 1.10191,3.96136 0.15536,0.49704 0.28894,1.02016 0.45321,1.50602 0.58396,1.71228 1.21265,3.34503 1.87059,4.8585 0.98609,2.27021 2.00712,4.14651 2.99028,5.90228 0.92684,1.64767 1.79312,3.09031 2.53707,4.20615 0.28738,0.42248 0.66311,1.06863 0.90419,1.40412 0.73749,1.03135 1.40628,1.90613 1.40628,1.90613 5.34917,-10.7757 13.78042,-25.73518 21.88724,-39.66953 v -0.002 -10e-4 c -1.50979,-2.5796 -2.9977,-5.10702 -4.43877,-7.54497 -3.76727,-6.37446 -7.22115,-12.14379 -9.93945,-16.6581 -2.09312,-3.47551 -3.71392,-6.14582 -4.74535,-7.84195 z" />
        <path
           d="M 100.60928,76.000076 A 39.260373,39.263441 0 0 0 61.34909,115.2647 39.260373,39.263441 0 0 0 100.60928,154.52711 39.260373,39.263441 0 0 0 139.86945,115.2647 39.260373,39.263441 0 0 0 100.60928,76.000076 Z m 0,22.771442 a 16.493186,16.493194 0 0 1 16.49318,16.493182 16.493186,16.493194 0 0 1 -16.49318,16.49319 16.493186,16.493194 0 0 1 -16.4932,-16.49319 16.493186,16.493194 0 0 1 16.4932,-16.493182 z"
           style="display:inline;fill:#000000;fill-opacity:1;stroke-width:1.04576;enable-background:new"
           id="path19" />
        <path
           id="path20"
           style="display:inline;fill:#000000;fill-opacity:1;stroke-width:12.4259;enable-background:new"
           d="m 136.67513,144.40657 c -1.99605,2.14471 -5.85521,5.55684 -9.21521,8.43219 -3.35883,2.8741 -6.22271,5.21388 -6.22271,5.21388 0,0 0.0739,0.12426 0.21549,0.34793 0.33242,-0.28704 0.76413,-0.56786 1.10636,-0.8549 -0.35059,0.29325 -0.75493,0.58401 -1.09525,0.87726 0.013,0.0323 0.0336,0.087 0.0422,0.10065 l 0.002,0.002 c 0.004,-0.004 0.009,-0.007 0.0133,-0.0112 0.61263,0.99904 2.2908,3.7464 4.73424,7.78853 2.32785,3.85077 5.31777,8.82608 8.65093,14.43387 1.43954,2.42179 2.94382,4.96164 4.48541,7.57976 1.54127,-2.61812 3.04615,-5.15672 4.48542,-7.57728 -1.43984,2.4218 -2.94348,4.96289 -4.48542,7.58226 0.12965,0.22366 0.26529,0.45975 0.39545,0.67099 v 10e-4 c 1.4079,2.39447 2.83968,4.83366 4.28769,7.32256 8.10933,13.93807 16.54294,28.90377 21.8939,39.68319 0.004,-0.006 30.39697,-36.79542 -2.65925,-71.88975 -1.79663,-1.90737 -3.78291,-3.80853 -5.96945,-5.69974 -0.003,-0.004 -0.006,-0.006 -0.009,-0.01 -4.87411,-4.21361 -10.76496,-8.37254 -17.81726,-12.40722 -0.0444,0 -0.0777,0 -0.12219,-0.12425 -0.0148,0.009 -0.0296,0.0162 -0.0444,0.0248 -0.87309,-0.50076 -1.76337,-0.9891 -2.67259,-1.48738 z m -15.21132,14.01636 c -0.005,-0.0112 -0.009,-0.0186 -0.0111,-0.0224 v 0.0311 c 0.003,-0.002 0.008,-0.005 0.0111,-0.009 z m 31.06469,7.88048 c 0.0666,0 0.114,0.12301 0.17995,0.17272 -2.6e-4,10e-4 2.5e-4,0.002 0,0.002 -1.18872,1.94962 -5.76564,10.26748 -8.5043,14.81659 2.73673,-4.54538 7.30959,-12.85952 8.50207,-14.81659 -0.0654,-0.002 -0.11148,-0.12426 -0.17772,-0.17272 z" />
        <path
           d="m 178.17486,76 a 39.260373,39.263441 0 0 0 -39.26019,39.26462 39.260373,39.263441 0 0 0 39.26019,39.26241 39.260373,39.263441 0 0 0 39.26017,-39.26241 A 39.260373,39.263441 0 0 0 178.17486,76 Z m 0,22.771438 a 16.493186,16.493194 0 0 1 16.49318,16.493182 16.493186,16.493194 0 0 1 -16.49318,16.49319 16.493186,16.493194 0 0 1 -16.4932,-16.49319 16.493186,16.493194 0 0 1 16.4932,-16.493182 z"
           style="display:inline;fill:#000000;fill-opacity:1;stroke-width:1.04576;enable-background:new"
           id="path21" />
      </g>
      <g
         id="g25"
         transform="matrix(0.39726211,0,0,0.39726211,276.01688,14.526703)">
        <path
           id="path22"
           style="display:inline;fill:#ffffff;fill-opacity:1;stroke-width:12.4259;enable-background:new"
           d="m 115.57878,164.27924 c -0.57621,0.62129 -1.23949,1.23016 -1.77728,1.84399 -1.17623,1.34821 -2.36116,2.69641 -3.36129,4.04586 -0.1951,0.26094 -0.41564,0.52064 -0.60427,0.78159 -1.37815,1.92103 -2.55941,3.83834 -3.61011,5.74944 -0.21572,0.39762 -0.42601,0.78407 -0.62871,1.1817 -0.98132,1.89618 -1.84067,3.78491 -2.53485,5.655 -0.10152,0.27337 -0.17975,0.54549 -0.27548,0.81886 -0.63142,1.79802 -1.14586,3.58113 -1.5418,5.34312 -0.0486,0.21124 -0.11468,0.4349 -0.15995,0.64614 -0.38663,1.84151 -0.6334,3.65072 -0.79534,5.43631 -0.0332,0.36035 -0.0644,0.73561 -0.0889,1.09596 -0.0633,0.93194 -0.0402,1.84524 -0.0489,2.766 -0.0137,1.43767 0.008,2.85794 0.1133,4.24467 0.0603,0.79525 0.13854,1.57808 0.23327,2.35345 0.16321,1.33578 0.37242,2.63801 0.62427,3.91166 0.13934,0.70828 0.26635,1.41655 0.42877,2.09997 0.32539,1.36933 0.70123,2.6815 1.10191,3.96136 0.15536,0.49704 0.28894,1.02016 0.45321,1.50602 0.58396,1.71228 1.21265,3.34503 1.87059,4.8585 0.98609,2.27021 2.00712,4.14651 2.99028,5.90228 0.92684,1.64767 1.79312,3.09031 2.53707,4.20615 0.28738,0.42248 0.66311,1.06863 0.90419,1.40412 0.73749,1.03135 1.40628,1.90613 1.40628,1.90613 5.34917,-10.7757 13.78042,-25.73518 21.88724,-39.66953 v -0.002 -10e-4 c -1.50979,-2.5796 -2.9977,-5.10702 -4.43877,-7.54497 -3.76727,-6.37446 -7.22115,-12.14379 -9.93945,-16.6581 -2.09312,-3.47551 -3.71392,-6.14582 -4.74535,-7.84195 z" />
        <path
           d="M 100.60928,76.000076 A 39.260373,39.263441 0 0 0 61.34909,115.2647 39.260373,39.263441 0 0 0 100.60928,154.52711 39.260373,39.263441 0 0 0 139.86945,115.2647 39.260373,39.263441 0 0 0 100.60928,76.000076 Z m 0,22.771442 a 16.493186,16.493194 0 0 1 16.49318,16.493182 16.493186,16.493194 0 0 1 -16.49318,16.49319 16.493186,16.493194 0 0 1 -16.4932,-16.49319 16.493186,16.493194 0 0 1 16.4932,-16.493182 z"
           style="display:inline;fill:#ffffff;fill-opacity:1;stroke-width:1.04576;enable-background:new"
           id="path23" />
        <path
           id="path24"
           style="display:inline;fill:#ffffff;fill-opacity:1;stroke-width:12.4259;enable-background:new"
           d="m 136.67513,144.40657 c -1.99605,2.14471 -5.85521,5.55684 -9.21521,8.43219 -3.35883,2.8741 -6.22271,5.21388 -6.22271,5.21388 0,0 0.0739,0.12426 0.21549,0.34793 0.33242,-0.28704 0.76413,-0.56786 1.10636,-0.8549 -0.35059,0.29325 -0.75493,0.58401 -1.09525,0.87726 0.013,0.0323 0.0336,0.087 0.0422,0.10065 l 0.002,0.002 c 0.004,-0.004 0.009,-0.007 0.0133,-0.0112 0.61263,0.99904 2.2908,3.7464 4.73424,7.78853 2.32785,3.85077 5.31777,8.82608 8.65093,14.43387 1.43954,2.42179 2.94382,4.96164 4.48541,7.57976 1.54127,-2.61812 3.04615,-5.15672 4.48542,-7.57728 -1.43984,2.4218 -2.94348,4.96289 -4.48542,7.58226 0.12965,0.22366 0.26529,0.45975 0.39545,0.67099 v 10e-4 c 1.4079,2.39447 2.83968,4.83366 4.28769,7.32256 8.10933,13.93807 16.54294,28.90377 21.8939,39.68319 0.004,-0.006 30.39697,-36.79542 -2.65925,-71.88975 -1.79663,-1.90737 -3.78291,-3.80853 -5.96945,-5.69974 -0.003,-0.004 -0.006,-0.006 -0.009,-0.01 -4.87411,-4.21361 -10.76496,-8.37254 -17.81726,-12.40722 -0.0444,0 -0.0777,0 -0.12219,-0.12425 -0.0148,0.009 -0.0296,0.0162 -0.0444,0.0248 -0.87309,-0.50076 -1.76337,-0.9891 -2.67259,-1.48738 z m -15.21132,14.01636 c -0.005,-0.0112 -0.009,-0.0186 -0.0111,-0.0224 v 0.0311 c 0.003,-0.002 0.008,-0.005 0.0111,-0.009 z m 31.06469,7.88048 c 0.0666,0 0.114,0.12301 0.17995,0.17272 -2.6e-4,10e-4 2.5e-4,0.002 0,0.002 -1.18872,1.94962 -5.76564,10.26748 -8.5043,14.81659 2.73673,-4.54538 7.30959,-12.85952 8.50207,-14.81659 -0.0654,-0.002 -0.11148,-0.12426 -0.17772,-0.17272 z" />
        <path
           d="m 178.17486,76 a 39.260373,39.263441 0 0 0 -39.26019,39.26462 39.260373,39.263441 0 0 0 39.26019,39.26241 39.260373,39.263441 0 0 0 39.26017,-39.26241 A 39.260373,39.263441 0 0 0 178.17486,76 Z m 0,22.771438 a 16.493186,16.493194 0 0 1 16.49318,16.493182 16.493186,16.493194 0 0 1 -16.49318,16.49319 16.493186,16.493194 0 0 1 -16.4932,-16.49319 16.493186,16.493194 0 0 1 16.4932,-16.493182 z"
           style="display:inline;fill:#ffffff;fill-opacity:1;stroke-width:1.04576;enable-background:new"
           id="path25" />
      </g>
      <g
         id="g29"
         transform="matrix(0.26940764,0,0,0.26940764,277.83877,131.47146)"
         style="display:inline;opacity:0.2">
        <path
           id="path26"
           style="display:inline;fill:#000000;fill-opacity:1;stroke-width:12.4259;enable-background:new"
           d="m 115.57878,164.27924 c -0.57621,0.62129 -1.23949,1.23016 -1.77728,1.84399 -1.17623,1.34821 -2.36116,2.69641 -3.36129,4.04586 -0.1951,0.26094 -0.41564,0.52064 -0.60427,0.78159 -1.37815,1.92103 -2.55941,3.83834 -3.61011,5.74944 -0.21572,0.39762 -0.42601,0.78407 -0.62871,1.1817 -0.98132,1.89618 -1.84067,3.78491 -2.53485,5.655 -0.10152,0.27337 -0.17975,0.54549 -0.27548,0.81886 -0.63142,1.79802 -1.14586,3.58113 -1.5418,5.34312 -0.0486,0.21124 -0.11468,0.4349 -0.15995,0.64614 -0.38663,1.84151 -0.6334,3.65072 -0.79534,5.43631 -0.0332,0.36035 -0.0644,0.73561 -0.0889,1.09596 -0.0633,0.93194 -0.0402,1.84524 -0.0489,2.766 -0.0137,1.43767 0.008,2.85794 0.1133,4.24467 0.0603,0.79525 0.13854,1.57808 0.23327,2.35345 0.16321,1.33578 0.37242,2.63801 0.62427,3.91166 0.13934,0.70828 0.26635,1.41655 0.42877,2.09997 0.32539,1.36933 0.70123,2.6815 1.10191,3.96136 0.15536,0.49704 0.28894,1.02016 0.45321,1.50602 0.58396,1.71228 1.21265,3.34503 1.87059,4.8585 0.98609,2.27021 2.00712,4.14651 2.99028,5.90228 0.92684,1.64767 1.79312,3.09031 2.53707,4.20615 0.28738,0.42248 0.66311,1.06863 0.90419,1.40412 0.73749,1.03135 1.40628,1.90613 1.40628,1.90613 5.34917,-10.7757 13.78042,-25.73518 21.88724,-39.66953 v -0.002 -10e-4 c -1.50979,-2.5796 -2.9977,-5.10702 -4.43877,-7.54497 -3.76727,-6.37446 -7.22115,-12.14379 -9.93945,-16.6581 -2.09312,-3.47551 -3.71392,-6.14582 -4.74535,-7.84195 z" />
        <path
           d="M 100.60928,76.000076 A 39.260373,39.263441 0 0 0 61.34909,115.2647 39.260373,39.263441 0 0 0 100.60928,154.52711 39.260373,39.263441 0 0 0 139.86945,115.2647 39.260373,39.263441 0 0 0 100.60928,76.000076 Z m 0,22.771442 a 16.493186,16.493194 0 0 1 16.49318,16.493182 16.493186,16.493194 0 0 1 -16.49318,16.49319 16.493186,16.493194 0 0 1 -16.4932,-16.49319 16.493186,16.493194 0 0 1 16.4932,-16.493182 z"
           style="display:inline;fill:#000000;fill-opacity:1;stroke-width:1.04576;enable-background:new"
           id="path27" />
        <path
           id="path28"
           style="display:inline;fill:#000000;fill-opacity:1;stroke-width:12.4259;enable-background:new"
           d="m 136.67513,144.40657 c -1.99605,2.14471 -5.85521,5.55684 -9.21521,8.43219 -3.35883,2.8741 -6.22271,5.21388 -6.22271,5.21388 0,0 0.0739,0.12426 0.21549,0.34793 0.33242,-0.28704 0.76413,-0.56786 1.10636,-0.8549 -0.35059,0.29325 -0.75493,0.58401 -1.09525,0.87726 0.013,0.0323 0.0336,0.087 0.0422,0.10065 l 0.002,0.002 c 0.004,-0.004 0.009,-0.007 0.0133,-0.0112 0.61263,0.99904 2.2908,3.7464 4.73424,7.78853 2.32785,3.85077 5.31777,8.82608 8.65093,14.43387 1.43954,2.42179 2.94382,4.96164 4.48541,7.57976 1.54127,-2.61812 3.04615,-5.15672 4.48542,-7.57728 -1.43984,2.4218 -2.94348,4.96289 -4.48542,7.58226 0.12965,0.22366 0.26529,0.45975 0.39545,0.67099 v 10e-4 c 1.4079,2.39447 2.83968,4.83366 4.28769,7.32256 8.10933,13.93807 16.54294,28.90377 21.8939,39.68319 0.004,-0.006 30.39697,-36.79542 -2.65925,-71.88975 -1.79663,-1.90737 -3.78291,-3.80853 -5.96945,-5.69974 -0.003,-0.004 -0.006,-0.006 -0.009,-0.01 -4.87411,-4.21361 -10.76496,-8.37254 -17.81726,-12.40722 -0.0444,0 -0.0777,0 -0.12219,-0.12425 -0.0148,0.009 -0.0296,0.0162 -0.0444,0.0248 -0.87309,-0.50076 -1.76337,-0.9891 -2.67259,-1.48738 z m -15.21132,14.01636 c -0.005,-0.0112 -0.009,-0.0186 -0.0111,-0.0224 v 0.0311 c 0.003,-0.002 0.008,-0.005 0.0111,-0.009 z m 31.06469,7.88048 c 0.0666,0 0.114,0.12301 0.17995,0.17272 -2.6e-4,10e-4 2.5e-4,0.002 0,0.002 -1.18872,1.94962 -5.76564,10.26748 -8.5043,14.81659 2.73673,-4.54538 7.30959,-12.85952 8.50207,-14.81659 -0.0654,-0.002 -0.11148,-0.12426 -0.17772,-0.17272 z" />
        <path
           d="m 178.17486,76 a 39.260373,39.263441 0 0 0 -39.26019,39.26462 39.260373,39.263441 0 0 0 39.26019,39.26241 39.260373,39.263441 0 0 0 39.26017,-39.26241 A 39.260373,39.263441 0 0 0 178.17486,76 Z m 0,22.771438 a 16.493186,16.493194 0 0 1 16.49318,16.493182 16.493186,16.493194 0 0 1 -16.49318,16.49319 16.493186,16.493194 0 0 1 -16.4932,-16.49319 16.493186,16.493194 0 0 1 16.4932,-16.493182 z"
           style="display:inline;fill:#000000;fill-opacity:1;stroke-width:1.04576;enable-background:new"
           id="path29" />
      </g>
      <g
         id="g33"
         transform="matrix(0.26940764,0,0,0.26940764,277.83877,130.47195)">
        <path
           id="path30"
           style="display:inline;fill:#ffffff;fill-opacity:1;stroke-width:12.4259;enable-background:new"
           d="m 115.57878,164.27924 c -0.57621,0.62129 -1.23949,1.23016 -1.77728,1.84399 -1.17623,1.34821 -2.36116,2.69641 -3.36129,4.04586 -0.1951,0.26094 -0.41564,0.52064 -0.60427,0.78159 -1.37815,1.92103 -2.55941,3.83834 -3.61011,5.74944 -0.21572,0.39762 -0.42601,0.78407 -0.62871,1.1817 -0.98132,1.89618 -1.84067,3.78491 -2.53485,5.655 -0.10152,0.27337 -0.17975,0.54549 -0.27548,0.81886 -0.63142,1.79802 -1.14586,3.58113 -1.5418,5.34312 -0.0486,0.21124 -0.11468,0.4349 -0.15995,0.64614 -0.38663,1.84151 -0.6334,3.65072 -0.79534,5.43631 -0.0332,0.36035 -0.0644,0.73561 -0.0889,1.09596 -0.0633,0.93194 -0.0402,1.84524 -0.0489,2.766 -0.0137,1.43767 0.008,2.85794 0.1133,4.24467 0.0603,0.79525 0.13854,1.57808 0.23327,2.35345 0.16321,1.33578 0.37242,2.63801 0.62427,3.91166 0.13934,0.70828 0.26635,1.41655 0.42877,2.09997 0.32539,1.36933 0.70123,2.6815 1.10191,3.96136 0.15536,0.49704 0.28894,1.02016 0.45321,1.50602 0.58396,1.71228 1.21265,3.34503 1.87059,4.8585 0.98609,2.27021 2.00712,4.14651 2.99028,5.90228 0.92684,1.64767 1.79312,3.09031 2.53707,4.20615 0.28738,0.42248 0.66311,1.06863 0.90419,1.40412 0.73749,1.03135 1.40628,1.90613 1.40628,1.90613 5.34917,-10.7757 13.78042,-25.73518 21.88724,-39.66953 v -0.002 -10e-4 c -1.50979,-2.5796 -2.9977,-5.10702 -4.43877,-7.54497 -3.76727,-6.37446 -7.22115,-12.14379 -9.93945,-16.6581 -2.09312,-3.47551 -3.71392,-6.14582 -4.74535,-7.84195 z" />
        <path
           d="M 100.60928,76.000076 A 39.260373,39.263441 0 0 0 61.34909,115.2647 39.260373,39.263441 0 0 0 100.60928,154.52711 39.260373,39.263441 0 0 0 139.86945,115.2647 39.260373,39.263441 0 0 0 100.60928,76.000076 Z m 0,22.771442 a 16.493186,16.493194 0 0 1 16.49318,16.493182 16.493186,16.493194 0 0 1 -16.49318,16.49319 16.493186,16.493194 0 0 1 -16.4932,-16.49319 16.493186,16.493194 0 0 1 16.4932,-16.493182 z"
           style="display:inline;fill:#ffffff;fill-opacity:1;stroke-width:1.04576;enable-background:new"
           id="path31" />
        <path
           id="path32"
           style="display:inline;fill:#ffffff;fill-opacity:1;stroke-width:12.4259;enable-background:new"
           d="m 136.67513,144.40657 c -1.99605,2.14471 -5.85521,5.55684 -9.21521,8.43219 -3.35883,2.8741 -6.22271,5.21388 -6.22271,5.21388 0,0 0.0739,0.12426 0.21549,0.34793 0.33242,-0.28704 0.76413,-0.56786 1.10636,-0.8549 -0.35059,0.29325 -0.75493,0.58401 -1.09525,0.87726 0.013,0.0323 0.0336,0.087 0.0422,0.10065 l 0.002,0.002 c 0.004,-0.004 0.009,-0.007 0.0133,-0.0112 0.61263,0.99904 2.2908,3.7464 4.73424,7.78853 2.32785,3.85077 5.31777,8.82608 8.65093,14.43387 1.43954,2.42179 2.94382,4.96164 4.48541,7.57976 1.54127,-2.61812 3.04615,-5.15672 4.48542,-7.57728 -1.43984,2.4218 -2.94348,4.96289 -4.48542,7.58226 0.12965,0.22366 0.26529,0.45975 0.39545,0.67099 v 10e-4 c 1.4079,2.39447 2.83968,4.83366 4.28769,7.32256 8.10933,13.93807 16.54294,28.90377 21.8939,39.68319 0.004,-0.006 30.39697,-36.79542 -2.65925,-71.88975 -1.79663,-1.90737 -3.78291,-3.80853 -5.96945,-5.69974 -0.003,-0.004 -0.006,-0.006 -0.009,-0.01 -4.87411,-4.21361 -10.76496,-8.37254 -17.81726,-12.40722 -0.0444,0 -0.0777,0 -0.12219,-0.12425 -0.0148,0.009 -0.0296,0.0162 -0.0444,0.0248 -0.87309,-0.50076 -1.76337,-0.9891 -2.67259,-1.48738 z m -15.21132,14.01636 c -0.005,-0.0112 -0.009,-0.0186 -0.0111,-0.0224 v 0.0311 c 0.003,-0.002 0.008,-0.005 0.0111,-0.009 z m 31.06469,7.88048 c 0.0666,0 0.114,0.12301 0.17995,0.17272 -2.6e-4,10e-4 2.5e-4,0.002 0,0.002 -1.18872,1.94962 -5.76564,10.26748 -8.5043,14.81659 2.73673,-4.54538 7.30959,-12.85952 8.50207,-14.81659 -0.0654,-0.002 -0.11148,-0.12426 -0.17772,-0.17272 z" />
        <path
           d="m 178.17486,76 a 39.260373,39.263441 0 0 0 -39.26019,39.26462 39.260373,39.263441 0 0 0 39.26019,39.26241 39.260373,39.263441 0 0 0 39.26017,-39.26241 A 39.260373,39.263441 0 0 0 178.17486,76 Z m 0,22.771438 a 16.493186,16.493194 0 0 1 16.49318,16.493182 16.493186,16.493194 0 0 1 -16.49318,16.49319 16.493186,16.493194 0 0 1 -16.4932,-16.49319 16.493186,16.493194 0 0 1 16.4932,-16.493182 z"
           style="display:inline;fill:#ffffff;fill-opacity:1;stroke-width:1.04576;enable-background:new"
           id="path33" />
      </g>
      <g
         id="g37"
         transform="matrix(0.18721548,0,0,0.18721548,281.29571,216.29407)"
         style="display:inline;opacity:0.2">
        <path
           id="path34"
           style="display:inline;fill:#000000;fill-opacity:1;stroke-width:12.4259;enable-background:new"
           d="m 115.57878,164.27924 c -0.57621,0.62129 -1.23949,1.23016 -1.77728,1.84399 -1.17623,1.34821 -2.36116,2.69641 -3.36129,4.04586 -0.1951,0.26094 -0.41564,0.52064 -0.60427,0.78159 -1.37815,1.92103 -2.55941,3.83834 -3.61011,5.74944 -0.21572,0.39762 -0.42601,0.78407 -0.62871,1.1817 -0.98132,1.89618 -1.84067,3.78491 -2.53485,5.655 -0.10152,0.27337 -0.17975,0.54549 -0.27548,0.81886 -0.63142,1.79802 -1.14586,3.58113 -1.5418,5.34312 -0.0486,0.21124 -0.11468,0.4349 -0.15995,0.64614 -0.38663,1.84151 -0.6334,3.65072 -0.79534,5.43631 -0.0332,0.36035 -0.0644,0.73561 -0.0889,1.09596 -0.0633,0.93194 -0.0402,1.84524 -0.0489,2.766 -0.0137,1.43767 0.008,2.85794 0.1133,4.24467 0.0603,0.79525 0.13854,1.57808 0.23327,2.35345 0.16321,1.33578 0.37242,2.63801 0.62427,3.91166 0.13934,0.70828 0.26635,1.41655 0.42877,2.09997 0.32539,1.36933 0.70123,2.6815 1.10191,3.96136 0.15536,0.49704 0.28894,1.02016 0.45321,1.50602 0.58396,1.71228 1.21265,3.34503 1.87059,4.8585 0.98609,2.27021 2.00712,4.14651 2.99028,5.90228 0.92684,1.64767 1.79312,3.09031 2.53707,4.20615 0.28738,0.42248 0.66311,1.06863 0.90419,1.40412 0.73749,1.03135 1.40628,1.90613 1.40628,1.90613 5.34917,-10.7757 13.78042,-25.73518 21.88724,-39.66953 v -0.002 -10e-4 c -1.50979,-2.5796 -2.9977,-5.10702 -4.43877,-7.54497 -3.76727,-6.37446 -7.22115,-12.14379 -9.93945,-16.6581 -2.09312,-3.47551 -3.71392,-6.14582 -4.74535,-7.84195 z" />
        <path
           d="M 100.60928,76.000076 A 39.260373,39.263441 0 0 0 61.34909,115.2647 39.260373,39.263441 0 0 0 100.60928,154.52711 39.260373,39.263441 0 0 0 139.86945,115.2647 39.260373,39.263441 0 0 0 100.60928,76.000076 Z m 0,22.771442 a 16.493186,16.493194 0 0 1 16.49318,16.493182 16.493186,16.493194 0 0 1 -16.49318,16.49319 16.493186,16.493194 0 0 1 -16.4932,-16.49319 16.493186,16.493194 0 0 1 16.4932,-16.493182 z"
           style="display:inline;fill:#000000;fill-opacity:1;stroke-width:1.04576;enable-background:new"
           id="path35" />
        <path
           id="path36"
           style="display:inline;fill:#000000;fill-opacity:1;stroke-width:12.4259;enable-background:new"
           d="m 136.67513,144.40657 c -1.99605,2.14471 -5.85521,5.55684 -9.21521,8.43219 -3.35883,2.8741 -6.22271,5.21388 -6.22271,5.21388 0,0 0.0739,0.12426 0.21549,0.34793 0.33242,-0.28704 0.76413,-0.56786 1.10636,-0.8549 -0.35059,0.29325 -0.75493,0.58401 -1.09525,0.87726 0.013,0.0323 0.0336,0.087 0.0422,0.10065 l 0.002,0.002 c 0.004,-0.004 0.009,-0.007 0.0133,-0.0112 0.61263,0.99904 2.2908,3.7464 4.73424,7.78853 2.32785,3.85077 5.31777,8.82608 8.65093,14.43387 1.43954,2.42179 2.94382,4.96164 4.48541,7.57976 1.54127,-2.61812 3.04615,-5.15672 4.48542,-7.57728 -1.43984,2.4218 -2.94348,4.96289 -4.48542,7.58226 0.12965,0.22366 0.26529,0.45975 0.39545,0.67099 v 10e-4 c 1.4079,2.39447 2.83968,4.83366 4.28769,7.32256 8.10933,13.93807 16.54294,28.90377 21.8939,39.68319 0.004,-0.006 30.39697,-36.79542 -2.65925,-71.88975 -1.79663,-1.90737 -3.78291,-3.80853 -5.96945,-5.69974 -0.003,-0.004 -0.006,-0.006 -0.009,-0.01 -4.87411,-4.21361 -10.76496,-8.37254 -17.81726,-12.40722 -0.0444,0 -0.0777,0 -0.12219,-0.12425 -0.0148,0.009 -0.0296,0.0162 -0.0444,0.0248 -0.87309,-0.50076 -1.76337,-0.9891 -2.67259,-1.48738 z m -15.21132,14.01636 c -0.005,-0.0112 -0.009,-0.0186 -0.0111,-0.0224 v 0.0311 c 0.003,-0.002 0.008,-0.005 0.0111,-0.009 z m 31.06469,7.88048 c 0.0666,0 0.114,0.12301 0.17995,0.17272 -2.6e-4,10e-4 2.5e-4,0.002 0,0.002 -1.18872,1.94962 -5.76564,10.26748 -8.5043,14.81659 2.73673,-4.54538 7.30959,-12.85952 8.50207,-14.81659 -0.0654,-0.002 -0.11148,-0.12426 -0.17772,-0.17272 z" />
        <path
           d="m 178.17486,76 a 39.260373,39.263441 0 0 0 -39.26019,39.26462 39.260373,39.263441 0 0 0 39.26019,39.26241 39.260373,39.263441 0 0 0 39.26017,-39.26241 A 39.260373,39.263441 0 0 0 178.17486,76 Z m 0,22.771438 a 16.493186,16.493194 0 0 1 16.49318,16.493182 16.493186,16.493194 0 0 1 -16.49318,16.49319 16.493186,16.493194 0 0 1 -16.4932,-16.49319 16.493186,16.493194 0 0 1 16.4932,-16.493182 z"
           style="display:inline;fill:#000000;fill-opacity:1;stroke-width:1.04576;enable-background:new"
           id="path37" />
      </g>
      <g
         id="g41"
         transform="matrix(0.18721548,0,0,0.18721548,281.29571,215.2939)">
        <path
           id="path38"
           style="display:inline;fill:#ffffff;fill-opacity:1;stroke-width:12.4259;enable-background:new"
           d="m 115.57878,164.27924 c -0.57621,0.62129 -1.23949,1.23016 -1.77728,1.84399 -1.17623,1.34821 -2.36116,2.69641 -3.36129,4.04586 -0.1951,0.26094 -0.41564,0.52064 -0.60427,0.78159 -1.37815,1.92103 -2.55941,3.83834 -3.61011,5.74944 -0.21572,0.39762 -0.42601,0.78407 -0.62871,1.1817 -0.98132,1.89618 -1.84067,3.78491 -2.53485,5.655 -0.10152,0.27337 -0.17975,0.54549 -0.27548,0.81886 -0.63142,1.79802 -1.14586,3.58113 -1.5418,5.34312 -0.0486,0.21124 -0.11468,0.4349 -0.15995,0.64614 -0.38663,1.84151 -0.6334,3.65072 -0.79534,5.43631 -0.0332,0.36035 -0.0644,0.73561 -0.0889,1.09596 -0.0633,0.93194 -0.0402,1.84524 -0.0489,2.766 -0.0137,1.43767 0.008,2.85794 0.1133,4.24467 0.0603,0.79525 0.13854,1.57808 0.23327,2.35345 0.16321,1.33578 0.37242,2.63801 0.62427,3.91166 0.13934,0.70828 0.26635,1.41655 0.42877,2.09997 0.32539,1.36933 0.70123,2.6815 1.10191,3.96136 0.15536,0.49704 0.28894,1.02016 0.45321,1.50602 0.58396,1.71228 1.21265,3.34503 1.87059,4.8585 0.98609,2.27021 2.00712,4.14651 2.99028,5.90228 0.92684,1.64767 1.79312,3.09031 2.53707,4.20615 0.28738,0.42248 0.66311,1.06863 0.90419,1.40412 0.73749,1.03135 1.40628,1.90613 1.40628,1.90613 5.34917,-10.7757 13.78042,-25.73518 21.88724,-39.66953 v -0.002 -10e-4 c -1.50979,-2.5796 -2.9977,-5.10702 -4.43877,-7.54497 -3.76727,-6.37446 -7.22115,-12.14379 -9.93945,-16.6581 -2.09312,-3.47551 -3.71392,-6.14582 -4.74535,-7.84195 z" />
        <path
           d="M 100.60928,76.000076 A 39.260373,39.263441 0 0 0 61.34909,115.2647 39.260373,39.263441 0 0 0 100.60928,154.52711 39.260373,39.263441 0 0 0 139.86945,115.2647 39.260373,39.263441 0 0 0 100.60928,76.000076 Z m 0,22.771442 a 16.493186,16.493194 0 0 1 16.49318,16.493182 16.493186,16.493194 0 0 1 -16.49318,16.49319 16.493186,16.493194 0 0 1 -16.4932,-16.49319 16.493186,16.493194 0 0 1 16.4932,-16.493182 z"
           style="display:inline;fill:#ffffff;fill-opacity:1;stroke-width:1.04576;enable-background:new"
           id="path39" />
        <path
           id="path40"
           style="display:inline;fill:#ffffff;fill-opacity:1;stroke-width:12.4259;enable-background:new"
           d="m 136.67513,144.40657 c -1.99605,2.14471 -5.85521,5.55684 -9.21521,8.43219 -3.35883,2.8741 -6.22271,5.21388 -6.22271,5.21388 0,0 0.0739,0.12426 0.21549,0.34793 0.33242,-0.28704 0.76413,-0.56786 1.10636,-0.8549 -0.35059,0.29325 -0.75493,0.58401 -1.09525,0.87726 0.013,0.0323 0.0336,0.087 0.0422,0.10065 l 0.002,0.002 c 0.004,-0.004 0.009,-0.007 0.0133,-0.0112 0.61263,0.99904 2.2908,3.7464 4.73424,7.78853 2.32785,3.85077 5.31777,8.82608 8.65093,14.43387 1.43954,2.42179 2.94382,4.96164 4.48541,7.57976 1.54127,-2.61812 3.04615,-5.15672 4.48542,-7.57728 -1.43984,2.4218 -2.94348,4.96289 -4.48542,7.58226 0.12965,0.22366 0.26529,0.45975 0.39545,0.67099 v 10e-4 c 1.4079,2.39447 2.83968,4.83366 4.28769,7.32256 8.10933,13.93807 16.54294,28.90377 21.8939,39.68319 0.004,-0.006 30.39697,-36.79542 -2.65925,-71.88975 -1.79663,-1.90737 -3.78291,-3.80853 -5.96945,-5.69974 -0.003,-0.004 -0.006,-0.006 -0.009,-0.01 -4.87411,-4.21361 -10.76496,-8.37254 -17.81726,-12.40722 -0.0444,0 -0.0777,0 -0.12219,-0.12425 -0.0148,0.009 -0.0296,0.0162 -0.0444,0.0248 -0.87309,-0.50076 -1.76337,-0.9891 -2.67259,-1.48738 z m -15.21132,14.01636 c -0.005,-0.0112 -0.009,-0.0186 -0.0111,-0.0224 v 0.0311 c 0.003,-0.002 0.008,-0.005 0.0111,-0.009 z m 31.06469,7.88048 c 0.0666,0 0.114,0.12301 0.17995,0.17272 -2.6e-4,10e-4 2.5e-4,0.002 0,0.002 -1.18872,1.94962 -5.76564,10.26748 -8.5043,14.81659 2.73673,-4.54538 7.30959,-12.85952 8.50207,-14.81659 -0.0654,-0.002 -0.11148,-0.12426 -0.17772,-0.17272 z" />
        <path
           d="m 178.17486,76 a 39.260373,39.263441 0 0 0 -39.26019,39.26462 39.260373,39.263441 0 0 0 39.26019,39.26241 39.260373,39.263441 0 0 0 39.26017,-39.26241 A 39.260373,39.263441 0 0 0 178.17486,76 Z m 0,22.771438 a 16.493186,16.493194 0 0 1 16.49318,16.493182 16.493186,16.493194 0 0 1 -16.49318,16.49319 16.493186,16.493194 0 0 1 -16.4932,-16.49319 16.493186,16.493194 0 0 1 16.4932,-16.493182 z"
           style="display:inline;fill:#ffffff;fill-opacity:1;stroke-width:1.04576;enable-background:new"
           id="path41" />
      </g>
      <g
         id="g45"
         transform="matrix(0.1324207,0,0,0.1324207,408.93367,48.841472)"
         style="display:inline;opacity:0.2">
        <path
           id="path42"
           style="display:inline;fill:#000000;fill-opacity:1;stroke-width:12.4259;enable-background:new"
           d="m 115.57878,164.27924 c -0.57621,0.62129 -1.23949,1.23016 -1.77728,1.84399 -1.17623,1.34821 -2.36116,2.69641 -3.36129,4.04586 -0.1951,0.26094 -0.41564,0.52064 -0.60427,0.78159 -1.37815,1.92103 -2.55941,3.83834 -3.61011,5.74944 -0.21572,0.39762 -0.42601,0.78407 -0.62871,1.1817 -0.98132,1.89618 -1.84067,3.78491 -2.53485,5.655 -0.10152,0.27337 -0.17975,0.54549 -0.27548,0.81886 -0.63142,1.79802 -1.14586,3.58113 -1.5418,5.34312 -0.0486,0.21124 -0.11468,0.4349 -0.15995,0.64614 -0.38663,1.84151 -0.6334,3.65072 -0.79534,5.43631 -0.0332,0.36035 -0.0644,0.73561 -0.0889,1.09596 -0.0633,0.93194 -0.0402,1.84524 -0.0489,2.766 -0.0137,1.43767 0.008,2.85794 0.1133,4.24467 0.0603,0.79525 0.13854,1.57808 0.23327,2.35345 0.16321,1.33578 0.37242,2.63801 0.62427,3.91166 0.13934,0.70828 0.26635,1.41655 0.42877,2.09997 0.32539,1.36933 0.70123,2.6815 1.10191,3.96136 0.15536,0.49704 0.28894,1.02016 0.45321,1.50602 0.58396,1.71228 1.21265,3.34503 1.87059,4.8585 0.98609,2.27021 2.00712,4.14651 2.99028,5.90228 0.92684,1.64767 1.79312,3.09031 2.53707,4.20615 0.28738,0.42248 0.66311,1.06863 0.90419,1.40412 0.73749,1.03135 1.40628,1.90613 1.40628,1.90613 5.34917,-10.7757 13.78042,-25.73518 21.88724,-39.66953 v -0.002 -10e-4 c -1.50979,-2.5796 -2.9977,-5.10702 -4.43877,-7.54497 -3.76727,-6.37446 -7.22115,-12.14379 -9.93945,-16.6581 -2.09312,-3.47551 -3.71392,-6.14582 -4.74535,-7.84195 z" />
        <path
           d="M 100.60928,76.000076 A 39.260373,39.263441 0 0 0 61.34909,115.2647 39.260373,39.263441 0 0 0 100.60928,154.52711 39.260373,39.263441 0 0 0 139.86945,115.2647 39.260373,39.263441 0 0 0 100.60928,76.000076 Z m 0,22.771442 a 16.493186,16.493194 0 0 1 16.49318,16.493182 16.493186,16.493194 0 0 1 -16.49318,16.49319 16.493186,16.493194 0 0 1 -16.4932,-16.49319 16.493186,16.493194 0 0 1 16.4932,-16.493182 z"
           style="display:inline;fill:#000000;fill-opacity:1;stroke-width:1.04576;enable-background:new"
           id="path43" />
        <path
           id="path44"
           style="display:inline;fill:#000000;fill-opacity:1;stroke-width:12.4259;enable-background:new"
           d="m 136.67513,144.40657 c -1.99605,2.14471 -5.85521,5.55684 -9.21521,8.43219 -3.35883,2.8741 -6.22271,5.21388 -6.22271,5.21388 0,0 0.0739,0.12426 0.21549,0.34793 0.33242,-0.28704 0.76413,-0.56786 1.10636,-0.8549 -0.35059,0.29325 -0.75493,0.58401 -1.09525,0.87726 0.013,0.0323 0.0336,0.087 0.0422,0.10065 l 0.002,0.002 c 0.004,-0.004 0.009,-0.007 0.0133,-0.0112 0.61263,0.99904 2.2908,3.7464 4.73424,7.78853 2.32785,3.85077 5.31777,8.82608 8.65093,14.43387 1.43954,2.42179 2.94382,4.96164 4.48541,7.57976 1.54127,-2.61812 3.04615,-5.15672 4.48542,-7.57728 -1.43984,2.4218 -2.94348,4.96289 -4.48542,7.58226 0.12965,0.22366 0.26529,0.45975 0.39545,0.67099 v 10e-4 c 1.4079,2.39447 2.83968,4.83366 4.28769,7.32256 8.10933,13.93807 16.54294,28.90377 21.8939,39.68319 0.004,-0.006 30.39697,-36.79542 -2.65925,-71.88975 -1.79663,-1.90737 -3.78291,-3.80853 -5.96945,-5.69974 -0.003,-0.004 -0.006,-0.006 -0.009,-0.01 -4.87411,-4.21361 -10.76496,-8.37254 -17.81726,-12.40722 -0.0444,0 -0.0777,0 -0.12219,-0.12425 -0.0148,0.009 -0.0296,0.0162 -0.0444,0.0248 -0.87309,-0.50076 -1.76337,-0.9891 -2.67259,-1.48738 z m -15.21132,14.01636 c -0.005,-0.0112 -0.009,-0.0186 -0.0111,-0.0224 v 0.0311 c 0.003,-0.002 0.008,-0.005 0.0111,-0.009 z m 31.06469,7.88048 c 0.0666,0 0.114,0.12301 0.17995,0.17272 -2.6e-4,10e-4 2.5e-4,0.002 0,0.002 -1.18872,1.94962 -5.76564,10.26748 -8.5043,14.81659 2.73673,-4.54538 7.30959,-12.85952 8.50207,-14.81659 -0.0654,-0.002 -0.11148,-0.12426 -0.17772,-0.17272 z" />
        <path
           d="m 178.17486,76 a 39.260373,39.263441 0 0 0 -39.26019,39.26462 39.260373,39.263441 0 0 0 39.26019,39.26241 39.260373,39.263441 0 0 0 39.26017,-39.26241 A 39.260373,39.263441 0 0 0 178.17486,76 Z m 0,22.771438 a 16.493186,16.493194 0 0 1 16.49318,16.493182 16.493186,16.493194 0 0 1 -16.49318,16.49319 16.493186,16.493194 0 0 1 -16.4932,-16.49319 16.493186,16.493194 0 0 1 16.4932,-16.493182 z"
           style="display:inline;fill:#000000;fill-opacity:1;stroke-width:1.04576;enable-background:new"
           id="path45" />
      </g>
      <g
         id="g49"
         transform="matrix(0.1324207,0,0,0.1324207,408.93367,47.841865)">
        <path
           id="path46"
           style="display:inline;fill:#ffffff;fill-opacity:1;stroke-width:12.4259;enable-background:new"
           d="m 115.57878,164.27924 c -0.57621,0.62129 -1.23949,1.23016 -1.77728,1.84399 -1.17623,1.34821 -2.36116,2.69641 -3.36129,4.04586 -0.1951,0.26094 -0.41564,0.52064 -0.60427,0.78159 -1.37815,1.92103 -2.55941,3.83834 -3.61011,5.74944 -0.21572,0.39762 -0.42601,0.78407 -0.62871,1.1817 -0.98132,1.89618 -1.84067,3.78491 -2.53485,5.655 -0.10152,0.27337 -0.17975,0.54549 -0.27548,0.81886 -0.63142,1.79802 -1.14586,3.58113 -1.5418,5.34312 -0.0486,0.21124 -0.11468,0.4349 -0.15995,0.64614 -0.38663,1.84151 -0.6334,3.65072 -0.79534,5.43631 -0.0332,0.36035 -0.0644,0.73561 -0.0889,1.09596 -0.0633,0.93194 -0.0402,1.84524 -0.0489,2.766 -0.0137,1.43767 0.008,2.85794 0.1133,4.24467 0.0603,0.79525 0.13854,1.57808 0.23327,2.35345 0.16321,1.33578 0.37242,2.63801 0.62427,3.91166 0.13934,0.70828 0.26635,1.41655 0.42877,2.09997 0.32539,1.36933 0.70123,2.6815 1.10191,3.96136 0.15536,0.49704 0.28894,1.02016 0.45321,1.50602 0.58396,1.71228 1.21265,3.34503 1.87059,4.8585 0.98609,2.27021 2.00712,4.14651 2.99028,5.90228 0.92684,1.64767 1.79312,3.09031 2.53707,4.20615 0.28738,0.42248 0.66311,1.06863 0.90419,1.40412 0.73749,1.03135 1.40628,1.90613 1.40628,1.90613 5.34917,-10.7757 13.78042,-25.73518 21.88724,-39.66953 v -0.002 -10e-4 c -1.50979,-2.5796 -2.9977,-5.10702 -4.43877,-7.54497 -3.76727,-6.37446 -7.22115,-12.14379 -9.93945,-16.6581 -2.09312,-3.47551 -3.71392,-6.14582 -4.74535,-7.84195 z" />
        <path
           d="M 100.60928,76.000076 A 39.260373,39.263441 0 0 0 61.34909,115.2647 39.260373,39.263441 0 0 0 100.60928,154.52711 39.260373,39.263441 0 0 0 139.86945,115.2647 39.260373,39.263441 0 0 0 100.60928,76.000076 Z m 0,22.771442 a 16.493186,16.493194 0 0 1 16.49318,16.493182 16.493186,16.493194 0 0 1 -16.49318,16.49319 16.493186,16.493194 0 0 1 -16.4932,-16.49319 16.493186,16.493194 0 0 1 16.4932,-16.493182 z"
           style="display:inline;fill:#ffffff;fill-opacity:1;stroke-width:1.04576;enable-background:new"
           id="path47" />
        <path
           id="path48"
           style="display:inline;fill:#ffffff;fill-opacity:1;stroke-width:12.4259;enable-background:new"
           d="m 136.67513,144.40657 c -1.99605,2.14471 -5.85521,5.55684 -9.21521,8.43219 -3.35883,2.8741 -6.22271,5.21388 -6.22271,5.21388 0,0 0.0739,0.12426 0.21549,0.34793 0.33242,-0.28704 0.76413,-0.56786 1.10636,-0.8549 -0.35059,0.29325 -0.75493,0.58401 -1.09525,0.87726 0.013,0.0323 0.0336,0.087 0.0422,0.10065 l 0.002,0.002 c 0.004,-0.004 0.009,-0.007 0.0133,-0.0112 0.61263,0.99904 2.2908,3.7464 4.73424,7.78853 2.32785,3.85077 5.31777,8.82608 8.65093,14.43387 1.43954,2.42179 2.94382,4.96164 4.48541,7.57976 1.54127,-2.61812 3.04615,-5.15672 4.48542,-7.57728 -1.43984,2.4218 -2.94348,4.96289 -4.48542,7.58226 0.12965,0.22366 0.26529,0.45975 0.39545,0.67099 v 10e-4 c 1.4079,2.39447 2.83968,4.83366 4.28769,7.32256 8.10933,13.93807 16.54294,28.90377 21.8939,39.68319 0.004,-0.006 30.39697,-36.79542 -2.65925,-71.88975 -1.79663,-1.90737 -3.78291,-3.80853 -5.96945,-5.69974 -0.003,-0.004 -0.006,-0.006 -0.009,-0.01 -4.87411,-4.21361 -10.76496,-8.37254 -17.81726,-12.40722 -0.0444,0 -0.0777,0 -0.12219,-0.12425 -0.0148,0.009 -0.0296,0.0162 -0.0444,0.0248 -0.87309,-0.50076 -1.76337,-0.9891 -2.67259,-1.48738 z m -15.21132,14.01636 c -0.005,-0.0112 -0.009,-0.0186 -0.0111,-0.0224 v 0.0311 c 0.003,-0.002 0.008,-0.005 0.0111,-0.009 z m 31.06469,7.88048 c 0.0666,0 0.114,0.12301 0.17995,0.17272 -2.6e-4,10e-4 2.5e-4,0.002 0,0.002 -1.18872,1.94962 -5.76564,10.26748 -8.5043,14.81659 2.73673,-4.54538 7.30959,-12.85952 8.50207,-14.81659 -0.0654,-0.002 -0.11148,-0.12426 -0.17772,-0.17272 z" />
        <path
           d="m 178.17486,76 a 39.260373,39.263441 0 0 0 -39.26019,39.26462 39.260373,39.263441 0 0 0 39.26019,39.26241 39.260373,39.263441 0 0 0 39.26017,-39.26241 A 39.260373,39.263441 0 0 0 178.17486,76 Z m 0,22.771438 a 16.493186,16.493194 0 0 1 16.49318,16.493182 16.493186,16.493194 0 0 1 -16.49318,16.49319 16.493186,16.493194 0 0 1 -16.4932,-16.49319 16.493186,16.493194 0 0 1 16.4932,-16.493182 z"
           style="display:inline;fill:#ffffff;fill-opacity:1;stroke-width:1.04576;enable-background:new"
           id="path49" />
      </g>
      <g
         id="g63"
         transform="matrix(0.09589085,0,0,0.09589085,410.02564,98.54074)"
         style="display:inline;opacity:0.2">
        <path
           id="path60"
           style="display:inline;fill:#000000;fill-opacity:1;stroke-width:12.4259;enable-background:new"
           d="m 115.57878,164.27924 c -0.57621,0.62129 -1.23949,1.23016 -1.77728,1.84399 -1.17623,1.34821 -2.36116,2.69641 -3.36129,4.04586 -0.1951,0.26094 -0.41564,0.52064 -0.60427,0.78159 -1.37815,1.92103 -2.55941,3.83834 -3.61011,5.74944 -0.21572,0.39762 -0.42601,0.78407 -0.62871,1.1817 -0.98132,1.89618 -1.84067,3.78491 -2.53485,5.655 -0.10152,0.27337 -0.17975,0.54549 -0.27548,0.81886 -0.63142,1.79802 -1.14586,3.58113 -1.5418,5.34312 -0.0486,0.21124 -0.11468,0.4349 -0.15995,0.64614 -0.38663,1.84151 -0.6334,3.65072 -0.79534,5.43631 -0.0332,0.36035 -0.0644,0.73561 -0.0889,1.09596 -0.0633,0.93194 -0.0402,1.84524 -0.0489,2.766 -0.0137,1.43767 0.008,2.85794 0.1133,4.24467 0.0603,0.79525 0.13854,1.57808 0.23327,2.35345 0.16321,1.33578 0.37242,2.63801 0.62427,3.91166 0.13934,0.70828 0.26635,1.41655 0.42877,2.09997 0.32539,1.36933 0.70123,2.6815 1.10191,3.96136 0.15536,0.49704 0.28894,1.02016 0.45321,1.50602 0.58396,1.71228 1.21265,3.34503 1.87059,4.8585 0.98609,2.27021 2.00712,4.14651 2.99028,5.90228 0.92684,1.64767 1.79312,3.09031 2.53707,4.20615 0.28738,0.42248 0.66311,1.06863 0.90419,1.40412 0.73749,1.03135 1.40628,1.90613 1.40628,1.90613 5.34917,-10.7757 13.78042,-25.73518 21.88724,-39.66953 v -0.002 -10e-4 c -1.50979,-2.5796 -2.9977,-5.10702 -4.43877,-7.54497 -3.76727,-6.37446 -7.22115,-12.14379 -9.93945,-16.6581 -2.09312,-3.47551 -3.71392,-6.14582 -4.74535,-7.84195 z" />
        <path
           d="M 100.60928,76.000076 A 39.260373,39.263441 0 0 0 61.34909,115.2647 39.260373,39.263441 0 0 0 100.60928,154.52711 39.260373,39.263441 0 0 0 139.86945,115.2647 39.260373,39.263441 0 0 0 100.60928,76.000076 Z m 0,22.771442 a 16.493186,16.493194 0 0 1 16.49318,16.493182 16.493186,16.493194 0 0 1 -16.49318,16.49319 16.493186,16.493194 0 0 1 -16.4932,-16.49319 16.493186,16.493194 0 0 1 16.4932,-16.493182 z"
           style="display:inline;fill:#000000;fill-opacity:1;stroke-width:1.04576;enable-background:new"
           id="path61" />
        <path
           id="path62"
           style="display:inline;fill:#000000;fill-opacity:1;stroke-width:12.4259;enable-background:new"
           d="m 136.67513,144.40657 c -1.99605,2.14471 -5.85521,5.55684 -9.21521,8.43219 -3.35883,2.8741 -6.22271,5.21388 -6.22271,5.21388 0,0 0.0739,0.12426 0.21549,0.34793 0.33242,-0.28704 0.76413,-0.56786 1.10636,-0.8549 -0.35059,0.29325 -0.75493,0.58401 -1.09525,0.87726 0.013,0.0323 0.0336,0.087 0.0422,0.10065 l 0.002,0.002 c 0.004,-0.004 0.009,-0.007 0.0133,-0.0112 0.61263,0.99904 2.2908,3.7464 4.73424,7.78853 2.32785,3.85077 5.31777,8.82608 8.65093,14.43387 1.43954,2.42179 2.94382,4.96164 4.48541,7.57976 1.54127,-2.61812 3.04615,-5.15672 4.48542,-7.57728 -1.43984,2.4218 -2.94348,4.96289 -4.48542,7.58226 0.12965,0.22366 0.26529,0.45975 0.39545,0.67099 v 10e-4 c 1.4079,2.39447 2.83968,4.83366 4.28769,7.32256 8.10933,13.93807 16.54294,28.90377 21.8939,39.68319 0.004,-0.006 30.39697,-36.79542 -2.65925,-71.88975 -1.79663,-1.90737 -3.78291,-3.80853 -5.96945,-5.69974 -0.003,-0.004 -0.006,-0.006 -0.009,-0.01 -4.87411,-4.21361 -10.76496,-8.37254 -17.81726,-12.40722 -0.0444,0 -0.0777,0 -0.12219,-0.12425 -0.0148,0.009 -0.0296,0.0162 -0.0444,0.0248 -0.87309,-0.50076 -1.76337,-0.9891 -2.67259,-1.48738 z m -15.21132,14.01636 c -0.005,-0.0112 -0.009,-0.0186 -0.0111,-0.0224 v 0.0311 c 0.003,-0.002 0.008,-0.005 0.0111,-0.009 z m 31.06469,7.88048 c 0.0666,0 0.114,0.12301 0.17995,0.17272 -2.6e-4,10e-4 2.5e-4,0.002 0,0.002 -1.18872,1.94962 -5.76564,10.26748 -8.5043,14.81659 2.73673,-4.54538 7.30959,-12.85952 8.50207,-14.81659 -0.0654,-0.002 -0.11148,-0.12426 -0.17772,-0.17272 z" />
        <path
           d="m 178.17486,76 a 39.260373,39.263441 0 0 0 -39.26019,39.26462 39.260373,39.263441 0 0 0 39.26019,39.26241 39.260373,39.263441 0 0 0 39.26017,-39.26241 A 39.260373,39.263441 0 0 0 178.17486,76 Z m 0,22.771438 a 16.493186,16.493194 0 0 1 16.49318,16.493182 16.493186,16.493194 0 0 1 -16.49318,16.49319 16.493186,16.493194 0 0 1 -16.4932,-16.49319 16.493186,16.493194 0 0 1 16.4932,-16.493182 z"
           style="display:inline;fill:#000000;fill-opacity:1;stroke-width:1.04576;enable-background:new"
           id="path63" />
      </g>
      <g
         id="g71"
         transform="matrix(0.09589085,0,0,0.09589085,410.02564,97.540508)"
         style="display:inline;enable-background:new">
        <path
           id="path68"
           style="display:inline;fill:#ffffff;fill-opacity:1;stroke-width:12.4259;enable-background:new"
           d="m 115.57878,164.27924 c -0.57621,0.62129 -1.23949,1.23016 -1.77728,1.84399 -1.17623,1.34821 -2.36116,2.69641 -3.36129,4.04586 -0.1951,0.26094 -0.41564,0.52064 -0.60427,0.78159 -1.37815,1.92103 -2.55941,3.83834 -3.61011,5.74944 -0.21572,0.39762 -0.42601,0.78407 -0.62871,1.1817 -0.98132,1.89618 -1.84067,3.78491 -2.53485,5.655 -0.10152,0.27337 -0.17975,0.54549 -0.27548,0.81886 -0.63142,1.79802 -1.14586,3.58113 -1.5418,5.34312 -0.0486,0.21124 -0.11468,0.4349 -0.15995,0.64614 -0.38663,1.84151 -0.6334,3.65072 -0.79534,5.43631 -0.0332,0.36035 -0.0644,0.73561 -0.0889,1.09596 -0.0633,0.93194 -0.0402,1.84524 -0.0489,2.766 -0.0137,1.43767 0.008,2.85794 0.1133,4.24467 0.0603,0.79525 0.13854,1.57808 0.23327,2.35345 0.16321,1.33578 0.37242,2.63801 0.62427,3.91166 0.13934,0.70828 0.26635,1.41655 0.42877,2.09997 0.32539,1.36933 0.70123,2.6815 1.10191,3.96136 0.15536,0.49704 0.28894,1.02016 0.45321,1.50602 0.58396,1.71228 1.21265,3.34503 1.87059,4.8585 0.98609,2.27021 2.00712,4.14651 2.99028,5.90228 0.92684,1.64767 1.79312,3.09031 2.53707,4.20615 0.28738,0.42248 0.66311,1.06863 0.90419,1.40412 0.73749,1.03135 1.40628,1.90613 1.40628,1.90613 5.34917,-10.7757 13.78042,-25.73518 21.88724,-39.66953 v -0.002 -10e-4 c -1.50979,-2.5796 -2.9977,-5.10702 -4.43877,-7.54497 -3.76727,-6.37446 -7.22115,-12.14379 -9.93945,-16.6581 -2.09312,-3.47551 -3.71392,-6.14582 -4.74535,-7.84195 z" />
        <path
           d="M 100.60928,76.000076 A 39.260373,39.263441 0 0 0 61.34909,115.2647 39.260373,39.263441 0 0 0 100.60928,154.52711 39.260373,39.263441 0 0 0 139.86945,115.2647 39.260373,39.263441 0 0 0 100.60928,76.000076 Z m 0,22.771442 a 16.493186,16.493194 0 0 1 16.49318,16.493182 16.493186,16.493194 0 0 1 -16.49318,16.49319 16.493186,16.493194 0 0 1 -16.4932,-16.49319 16.493186,16.493194 0 0 1 16.4932,-16.493182 z"
           style="display:inline;fill:#ffffff;fill-opacity:1;stroke-width:1.04576;enable-background:new"
           id="path69" />
        <path
           id="path70"
           style="display:inline;fill:#ffffff;fill-opacity:1;stroke-width:12.4259;enable-background:new"
           d="m 136.67513,144.40657 c -1.99605,2.14471 -5.85521,5.55684 -9.21521,8.43219 -3.35883,2.8741 -6.22271,5.21388 -6.22271,5.21388 0,0 0.0739,0.12426 0.21549,0.34793 0.33242,-0.28704 0.76413,-0.56786 1.10636,-0.8549 -0.35059,0.29325 -0.75493,0.58401 -1.09525,0.87726 0.013,0.0323 0.0336,0.087 0.0422,0.10065 l 0.002,0.002 c 0.004,-0.004 0.009,-0.007 0.0133,-0.0112 0.61263,0.99904 2.2908,3.7464 4.73424,7.78853 2.32785,3.85077 5.31777,8.82608 8.65093,14.43387 1.43954,2.42179 2.94382,4.96164 4.48541,7.57976 1.54127,-2.61812 3.04615,-5.15672 4.48542,-7.57728 -1.43984,2.4218 -2.94348,4.96289 -4.48542,7.58226 0.12965,0.22366 0.26529,0.45975 0.39545,0.67099 v 10e-4 c 1.4079,2.39447 2.83968,4.83366 4.28769,7.32256 8.10933,13.93807 16.54294,28.90377 21.8939,39.68319 0.004,-0.006 30.39697,-36.79542 -2.65925,-71.88975 -1.79663,-1.90737 -3.78291,-3.80853 -5.96945,-5.69974 -0.003,-0.004 -0.006,-0.006 -0.009,-0.01 -4.87411,-4.21361 -10.76496,-8.37254 -17.81726,-12.40722 -0.0444,0 -0.0777,0 -0.12219,-0.12425 -0.0148,0.009 -0.0296,0.0162 -0.0444,0.0248 -0.87309,-0.50076 -1.76337,-0.9891 -2.67259,-1.48738 z m -15.21132,14.01636 c -0.005,-0.0112 -0.009,-0.0186 -0.0111,-0.0224 v 0.0311 c 0.003,-0.002 0.008,-0.005 0.0111,-0.009 z m 31.06469,7.88048 c 0.0666,0 0.114,0.12301 0.17995,0.17272 -2.6e-4,10e-4 2.5e-4,0.002 0,0.002 -1.18872,1.94962 -5.76564,10.26748 -8.5043,14.81659 2.73673,-4.54538 7.30959,-12.85952 8.50207,-14.81659 -0.0654,-0.002 -0.11148,-0.12426 -0.17772,-0.17272 z" />
        <path
           d="m 178.17486,76 a 39.260373,39.263441 0 0 0 -39.26019,39.26462 39.260373,39.263441 0 0 0 39.26019,39.26241 39.260373,39.263441 0 0 0 39.26017,-39.26241 A 39.260373,39.263441 0 0 0 178.17486,76 Z m 0,22.771438 a 16.493186,16.493194 0 0 1 16.49318,16.493182 16.493186,16.493194 0 0 1 -16.49318,16.49319 16.493186,16.493194 0 0 1 -16.4932,-16.49319 16.493186,16.493194 0 0 1 16.4932,-16.493182 z"
           style="display:inline;fill:#ffffff;fill-opacity:1;stroke-width:1.04576;enable-background:new"
           id="path71" />
      </g>
      <g
         id="g67"
         transform="matrix(0.06849347,0,0,0.06849347,409.84461,138.81494)"
         style="display:inline;opacity:0.2">
        <path
           id="path64"
           style="display:inline;fill:#000000;fill-opacity:1;stroke-width:12.4259;enable-background:new"
           d="m 115.57878,164.27924 c -0.57621,0.62129 -1.23949,1.23016 -1.77728,1.84399 -1.17623,1.34821 -2.36116,2.69641 -3.36129,4.04586 -0.1951,0.26094 -0.41564,0.52064 -0.60427,0.78159 -1.37815,1.92103 -2.55941,3.83834 -3.61011,5.74944 -0.21572,0.39762 -0.42601,0.78407 -0.62871,1.1817 -0.98132,1.89618 -1.84067,3.78491 -2.53485,5.655 -0.10152,0.27337 -0.17975,0.54549 -0.27548,0.81886 -0.63142,1.79802 -1.14586,3.58113 -1.5418,5.34312 -0.0486,0.21124 -0.11468,0.4349 -0.15995,0.64614 -0.38663,1.84151 -0.6334,3.65072 -0.79534,5.43631 -0.0332,0.36035 -0.0644,0.73561 -0.0889,1.09596 -0.0633,0.93194 -0.0402,1.84524 -0.0489,2.766 -0.0137,1.43767 0.008,2.85794 0.1133,4.24467 0.0603,0.79525 0.13854,1.57808 0.23327,2.35345 0.16321,1.33578 0.37242,2.63801 0.62427,3.91166 0.13934,0.70828 0.26635,1.41655 0.42877,2.09997 0.32539,1.36933 0.70123,2.6815 1.10191,3.96136 0.15536,0.49704 0.28894,1.02016 0.45321,1.50602 0.58396,1.71228 1.21265,3.34503 1.87059,4.8585 0.98609,2.27021 2.00712,4.14651 2.99028,5.90228 0.92684,1.64767 1.79312,3.09031 2.53707,4.20615 0.28738,0.42248 0.66311,1.06863 0.90419,1.40412 0.73749,1.03135 1.40628,1.90613 1.40628,1.90613 5.34917,-10.7757 13.78042,-25.73518 21.88724,-39.66953 v -0.002 -10e-4 c -1.50979,-2.5796 -2.9977,-5.10702 -4.43877,-7.54497 -3.76727,-6.37446 -7.22115,-12.14379 -9.93945,-16.6581 -2.09312,-3.47551 -3.71392,-6.14582 -4.74535,-7.84195 z" />
        <path
           d="M 100.60928,76.000076 A 39.260373,39.263441 0 0 0 61.34909,115.2647 39.260373,39.263441 0 0 0 100.60928,154.52711 39.260373,39.263441 0 0 0 139.86945,115.2647 39.260373,39.263441 0 0 0 100.60928,76.000076 Z m 0,22.771442 a 16.493186,16.493194 0 0 1 16.49318,16.493182 16.493186,16.493194 0 0 1 -16.49318,16.49319 16.493186,16.493194 0 0 1 -16.4932,-16.49319 16.493186,16.493194 0 0 1 16.4932,-16.493182 z"
           style="display:inline;fill:#000000;fill-opacity:1;stroke-width:1.04576;enable-background:new"
           id="path65" />
        <path
           id="path66"
           style="display:inline;fill:#000000;fill-opacity:1;stroke-width:12.4259;enable-background:new"
           d="m 136.67513,144.40657 c -1.99605,2.14471 -5.85521,5.55684 -9.21521,8.43219 -3.35883,2.8741 -6.22271,5.21388 -6.22271,5.21388 0,0 0.0739,0.12426 0.21549,0.34793 0.33242,-0.28704 0.76413,-0.56786 1.10636,-0.8549 -0.35059,0.29325 -0.75493,0.58401 -1.09525,0.87726 0.013,0.0323 0.0336,0.087 0.0422,0.10065 l 0.002,0.002 c 0.004,-0.004 0.009,-0.007 0.0133,-0.0112 0.61263,0.99904 2.2908,3.7464 4.73424,7.78853 2.32785,3.85077 5.31777,8.82608 8.65093,14.43387 1.43954,2.42179 2.94382,4.96164 4.48541,7.57976 1.54127,-2.61812 3.04615,-5.15672 4.48542,-7.57728 -1.43984,2.4218 -2.94348,4.96289 -4.48542,7.58226 0.12965,0.22366 0.26529,0.45975 0.39545,0.67099 v 10e-4 c 1.4079,2.39447 2.83968,4.83366 4.28769,7.32256 8.10933,13.93807 16.54294,28.90377 21.8939,39.68319 0.004,-0.006 30.39697,-36.79542 -2.65925,-71.88975 -1.79663,-1.90737 -3.78291,-3.80853 -5.96945,-5.69974 -0.003,-0.004 -0.006,-0.006 -0.009,-0.01 -4.87411,-4.21361 -10.76496,-8.37254 -17.81726,-12.40722 -0.0444,0 -0.0777,0 -0.12219,-0.12425 -0.0148,0.009 -0.0296,0.0162 -0.0444,0.0248 -0.87309,-0.50076 -1.76337,-0.9891 -2.67259,-1.48738 z m -15.21132,14.01636 c -0.005,-0.0112 -0.009,-0.0186 -0.0111,-0.0224 v 0.0311 c 0.003,-0.002 0.008,-0.005 0.0111,-0.009 z m 31.06469,7.88048 c 0.0666,0 0.114,0.12301 0.17995,0.17272 -2.6e-4,10e-4 2.5e-4,0.002 0,0.002 -1.18872,1.94962 -5.76564,10.26748 -8.5043,14.81659 2.73673,-4.54538 7.30959,-12.85952 8.50207,-14.81659 -0.0654,-0.002 -0.11148,-0.12426 -0.17772,-0.17272 z" />
        <path
           d="m 178.17486,76 a 39.260373,39.263441 0 0 0 -39.26019,39.26462 39.260373,39.263441 0 0 0 39.26019,39.26241 39.260373,39.263441 0 0 0 39.26017,-39.26241 A 39.260373,39.263441 0 0 0 178.17486,76 Z m 0,22.771438 a 16.493186,16.493194 0 0 1 16.49318,16.493182 16.493186,16.493194 0 0 1 -16.49318,16.49319 16.493186,16.493194 0 0 1 -16.4932,-16.49319 16.493186,16.493194 0 0 1 16.4932,-16.493182 z"
           style="display:inline;fill:#000000;fill-opacity:1;stroke-width:1.04576;enable-background:new"
           id="path67" />
      </g>
      <g
         id="g75"
         transform="matrix(0.06849347,0,0,0.06849347,409.84461,137.81449)">
        <path
           id="path72"
           style="display:inline;fill:#ffffff;fill-opacity:1;stroke-width:12.4259;enable-background:new"
           d="m 115.57878,164.27924 c -0.57621,0.62129 -1.23949,1.23016 -1.77728,1.84399 -1.17623,1.34821 -2.36116,2.69641 -3.36129,4.04586 -0.1951,0.26094 -0.41564,0.52064 -0.60427,0.78159 -1.37815,1.92103 -2.55941,3.83834 -3.61011,5.74944 -0.21572,0.39762 -0.42601,0.78407 -0.62871,1.1817 -0.98132,1.89618 -1.84067,3.78491 -2.53485,5.655 -0.10152,0.27337 -0.17975,0.54549 -0.27548,0.81886 -0.63142,1.79802 -1.14586,3.58113 -1.5418,5.34312 -0.0486,0.21124 -0.11468,0.4349 -0.15995,0.64614 -0.38663,1.84151 -0.6334,3.65072 -0.79534,5.43631 -0.0332,0.36035 -0.0644,0.73561 -0.0889,1.09596 -0.0633,0.93194 -0.0402,1.84524 -0.0489,2.766 -0.0137,1.43767 0.008,2.85794 0.1133,4.24467 0.0603,0.79525 0.13854,1.57808 0.23327,2.35345 0.16321,1.33578 0.37242,2.63801 0.62427,3.91166 0.13934,0.70828 0.26635,1.41655 0.42877,2.09997 0.32539,1.36933 0.70123,2.6815 1.10191,3.96136 0.15536,0.49704 0.28894,1.02016 0.45321,1.50602 0.58396,1.71228 1.21265,3.34503 1.87059,4.8585 0.98609,2.27021 2.00712,4.14651 2.99028,5.90228 0.92684,1.64767 1.79312,3.09031 2.53707,4.20615 0.28738,0.42248 0.66311,1.06863 0.90419,1.40412 0.73749,1.03135 1.40628,1.90613 1.40628,1.90613 5.34917,-10.7757 13.78042,-25.73518 21.88724,-39.66953 v -0.002 -10e-4 c -1.50979,-2.5796 -2.9977,-5.10702 -4.43877,-7.54497 -3.76727,-6.37446 -7.22115,-12.14379 -9.93945,-16.6581 -2.09312,-3.47551 -3.71392,-6.14582 -4.74535,-7.84195 z" />
        <path
           d="M 100.60928,76.000076 A 39.260373,39.263441 0 0 0 61.34909,115.2647 39.260373,39.263441 0 0 0 100.60928,154.52711 39.260373,39.263441 0 0 0 139.86945,115.2647 39.260373,39.263441 0 0 0 100.60928,76.000076 Z m 0,22.771442 a 16.493186,16.493194 0 0 1 16.49318,16.493182 16.493186,16.493194 0 0 1 -16.49318,16.49319 16.493186,16.493194 0 0 1 -16.4932,-16.49319 16.493186,16.493194 0 0 1 16.4932,-16.493182 z"
           style="display:inline;fill:#ffffff;fill-opacity:1;stroke-width:1.04576;enable-background:new"
           id="path73" />
        <path
           id="path74"
           style="display:inline;fill:#ffffff;fill-opacity:1;stroke-width:12.4259;enable-background:new"
           d="m 136.67513,144.40657 c -1.99605,2.14471 -5.85521,5.55684 -9.21521,8.43219 -3.35883,2.8741 -6.22271,5.21388 -6.22271,5.21388 0,0 0.0739,0.12426 0.21549,0.34793 0.33242,-0.28704 0.76413,-0.56786 1.10636,-0.8549 -0.35059,0.29325 -0.75493,0.58401 -1.09525,0.87726 0.013,0.0323 0.0336,0.087 0.0422,0.10065 l 0.002,0.002 c 0.004,-0.004 0.009,-0.007 0.0133,-0.0112 0.61263,0.99904 2.2908,3.7464 4.73424,7.78853 2.32785,3.85077 5.31777,8.82608 8.65093,14.43387 1.43954,2.42179 2.94382,4.96164 4.48541,7.57976 1.54127,-2.61812 3.04615,-5.15672 4.48542,-7.57728 -1.43984,2.4218 -2.94348,4.96289 -4.48542,7.58226 0.12965,0.22366 0.26529,0.45975 0.39545,0.67099 v 10e-4 c 1.4079,2.39447 2.83968,4.83366 4.28769,7.32256 8.10933,13.93807 16.54294,28.90377 21.8939,39.68319 0.004,-0.006 30.39697,-36.79542 -2.65925,-71.88975 -1.79663,-1.90737 -3.78291,-3.80853 -5.96945,-5.69974 -0.003,-0.004 -0.006,-0.006 -0.009,-0.01 -4.87411,-4.21361 -10.76496,-8.37254 -17.81726,-12.40722 -0.0444,0 -0.0777,0 -0.12219,-0.12425 -0.0148,0.009 -0.0296,0.0162 -0.0444,0.0248 -0.87309,-0.50076 -1.76337,-0.9891 -2.67259,-1.48738 z m -15.21132,14.01636 c -0.005,-0.0112 -0.009,-0.0186 -0.0111,-0.0224 v 0.0311 c 0.003,-0.002 0.008,-0.005 0.0111,-0.009 z m 31.06469,7.88048 c 0.0666,0 0.114,0.12301 0.17995,0.17272 -2.6e-4,10e-4 2.5e-4,0.002 0,0.002 -1.18872,1.94962 -5.76564,10.26748 -8.5043,14.81659 2.73673,-4.54538 7.30959,-12.85952 8.50207,-14.81659 -0.0654,-0.002 -0.11148,-0.12426 -0.17772,-0.17272 z" />
        <path
           d="m 178.17486,76 a 39.260373,39.263441 0 0 0 -39.26019,39.26462 39.260373,39.263441 0 0 0 39.26019,39.26241 39.260373,39.263441 0 0 0 39.26017,-39.26241 A 39.260373,39.263441 0 0 0 178.17486,76 Z m 0,22.771438 a 16.493186,16.493194 0 0 1 16.49318,16.493182 16.493186,16.493194 0 0 1 -16.49318,16.49319 16.493186,16.493194 0 0 1 -16.4932,-16.49319 16.493186,16.493194 0 0 1 16.4932,-16.493182 z"
           style="display:inline;fill:#ffffff;fill-opacity:1;stroke-width:1.04576;enable-background:new"
           id="path75" />
      </g>
    </g>
    <g
       inkscape:groupmode="layer"
       id="layer5"
       inkscape:label="Highlights"
       style="display:inline"
       sodipodi:insensitive="true">
      <path
         style="color:#bebebe;display:inline;overflow:visible;visibility:visible;opacity:0.13;fill:#ffffff;fill-opacity:1;fill-rule:nonzero;stroke:none;stroke-width:0;marker:none;enable-background:accumulate"
         d="M 84,47 C 56.836703,47 35,68.836703 35,96 v 1 C 35,69.836703 56.836703,48 84,48 h 120 c 27.1633,0 49,21.836703 49,49 V 96 C 253,68.836703 231.1633,47 204,47 Z"
         id="rect3894"
         inkscape:connector-curvature="0" />
      <path
         style="color:#bebebe;display:inline;overflow:visible;visibility:visible;opacity:0.13;fill:#ffffff;fill-opacity:1;fill-rule:nonzero;stroke:none;stroke-width:0;marker:none;enable-background:accumulate"
         d="m 419,141 c -1.1253,0 -2,0.8747 -2,2 v 1 c 0,-1.1253 0.8747,-2 2,-2 h 10 c 1.1253,0 2,0.8747 2,2 v -1 c 0,-1.1253 -0.8747,-2 -2,-2 z"
         id="rect3896"
         inkscape:connector-curvature="0" />
      <path
         style="color:#bebebe;display:inline;overflow:visible;visibility:visible;opacity:0.13;fill:#ffffff;fill-opacity:1;fill-rule:nonzero;stroke:none;stroke-width:0;marker:none;enable-background:accumulate"
         d="m 422,102 c -2.2333,0 -4,1.7667 -4,4 v 1 c 0,-2.2333 1.7667,-4 4,-4 h 12 c 2.2333,0 4,1.7667 4,4 v -1 c 0,-2.2333 -1.7667,-4 -4,-4 z"
         id="rect3898"
         inkscape:connector-curvature="0" />
      <path
         style="color:#bebebe;display:inline;overflow:visible;visibility:visible;opacity:0.13;fill:#ffffff;fill-opacity:1;fill-rule:nonzero;stroke:none;stroke-width:0;marker:none;enable-background:accumulate"
         d="m 424,54 c -3.3413,0 -6,2.658703 -6,6 v 1 c 0,-3.341297 2.6587,-6 6,-6 h 16 c 3.3413,0 6,2.658703 6,6 v -1 c 0,-3.341297 -2.6587,-6 -6,-6 z"
         id="rect3900"
         inkscape:connector-curvature="0" />
      <path
         style="color:#bebebe;display:inline;overflow:visible;visibility:visible;opacity:0.13;fill:#ffffff;fill-opacity:1;fill-rule:nonzero;stroke:none;stroke-width:0;marker:none;enable-background:accumulate"
         d="m 300,224 c -4.4493,0 -8,3.5507 -8,8 v 1 c 0,-4.4493 3.5507,-8 8,-8 h 24 c 4.4493,0 8,3.5507 8,8 v -1 c 0,-4.4493 -3.5507,-8 -8,-8 z"
         id="rect3902"
         inkscape:connector-curvature="0" />
      <path
         style="color:#bebebe;display:inline;overflow:visible;visibility:visible;opacity:0.13;fill:#ffffff;fill-opacity:1;fill-rule:nonzero;stroke:none;stroke-width:0;marker:none;enable-background:accumulate"
         d="m 310,33 c -9.4353,0 -17,7.564703 -17,17 v 1 c 0,-9.435297 7.5647,-17 17,-17 h 52 c 9.4353,0 17,7.564703 17,17 v -1 c 0,-9.435297 -7.5647,-17 -17,-17 z"
         id="rect3904"
         inkscape:connector-curvature="0" />
      <path
         style="color:#bebebe;display:inline;overflow:visible;visibility:visible;opacity:0.13;fill:#ffffff;fill-opacity:1;fill-rule:nonzero;stroke:none;stroke-width:0;marker:none;enable-background:accumulate"
         d="m 302.5,143 c -6.3883,0 -11.5,5.1117 -11.5,11.5 v 1 c 0,-6.3883 5.1117,-11.5 11.5,-11.5 h 35 c 6.3883,0 11.5,5.1117 11.5,11.5 v -1 c 0,-6.3883 -5.1117,-11.5 -11.5,-11.5 z"
         id="rect3906"
         inkscape:connector-curvature="0" />
      <path
         id="path4085"
         d="m 204,266 c 27.1633,0 49,-21.8367 49,-49 v -1 c 0,27.1633 -21.8367,49 -49,49 H 84 C 56.8367,265 35,243.1633 35,216 v 1 c 0,27.1633 21.8367,49 49,49 z"
         style="color:#bebebe;display:inline;overflow:visible;visibility:visible;opacity:0.5;fill:#000000;fill-opacity:1;fill-rule:nonzero;stroke:none;stroke-width:0;marker:none;enable-background:accumulate"
         inkscape:connector-curvature="0" />
      <path
         id="path4087"
         d="m 429,156 c 1.1253,0 2,-0.8747 2,-2 v -1 c 0,1.1253 -0.8747,2 -2,2 h -10 c -1.1253,0 -2,-0.8747 -2,-2 v 1 c 0,1.1253 0.8747,2 2,2 z"
         style="color:#bebebe;display:inline;overflow:visible;visibility:visible;opacity:0.3;fill:#000000;fill-opacity:1;fill-rule:nonzero;stroke:none;stroke-width:0;marker:none;enable-background:accumulate"
         inkscape:connector-curvature="0" />
      <path
         id="path4089"
         d="m 434,123 c 2.2333,0 4,-1.7667 4,-4 v -1 c 0,2.2333 -1.7667,4 -4,4 h -12 c -2.2333,0 -4,-1.7667 -4,-4 v 1 c 0,2.2333 1.7667,4 4,4 z"
         style="color:#bebebe;display:inline;overflow:visible;visibility:visible;opacity:0.3;fill:#000000;fill-opacity:1;fill-rule:nonzero;stroke:none;stroke-width:0;marker:none;enable-background:accumulate"
         inkscape:connector-curvature="0" />
      <path
         id="path4091"
         d="m 440,83 c 3.3413,0 6,-2.6587 6,-6 v -1 c 0,3.3413 -2.6587,6 -6,6 h -16 c -3.3413,0 -6,-2.6587 -6,-6 v 1 c 0,3.3413 2.6587,6 6,6 z"
         style="color:#bebebe;display:inline;overflow:visible;visibility:visible;opacity:0.5;fill:#000000;fill-opacity:1;fill-rule:nonzero;stroke:none;stroke-width:0;marker:none;enable-background:accumulate"
         inkscape:connector-curvature="0" />
      <path
         id="path4093"
         d="m 324,265 c 4.4493,0 8,-3.5507 8,-8 v -1 c 0,4.4493 -3.5507,8 -8,8 h -24 c -4.4493,0 -8,-3.5507 -8,-8 v 1 c 0,4.4493 3.5507,8 8,8 z"
         style="color:#bebebe;display:inline;overflow:visible;visibility:visible;opacity:0.5;fill:#000000;fill-opacity:1;fill-rule:nonzero;stroke:none;stroke-width:0;marker:none;enable-background:accumulate"
         inkscape:connector-curvature="0" />
      <path
         id="path4095"
         d="m 362,120 c 9.4353,0 17,-7.5647 17,-17 v -1 c 0,9.4353 -7.5647,17 -17,17 h -52 c -9.4353,0 -17,-7.5647 -17,-17 v 1 c 0,9.4353 7.5647,17 17,17 z"
         style="color:#bebebe;display:inline;overflow:visible;visibility:visible;opacity:0.5;fill:#000000;fill-opacity:1;fill-rule:nonzero;stroke:none;stroke-width:0;marker:none;enable-background:accumulate"
         inkscape:connector-curvature="0" />
      <path
         id="path4097"
         d="m 337.5,202 c 6.3883,0 11.5,-5.1117 11.5,-11.5 v -1 c 0,6.3883 -5.1117,11.5 -11.5,11.5 h -35 c -6.3883,0 -11.5,-5.1117 -11.5,-11.5 v 1 c 0,6.3883 5.1117,11.5 11.5,11.5 z"
         style="color:#bebebe;display:inline;overflow:visible;visibility:visible;opacity:0.5;fill:#000000;fill-opacity:1;fill-rule:nonzero;stroke:none;stroke-width:0;marker:none;enable-background:accumulate"
         inkscape:connector-curvature="0" />
      <path
         inkscape:connector-curvature="0"
         id="path4280"
         d="M 84,265 C 56.836703,265 35,243.1633 35,216 v -1 c 0,27.1633 21.836703,49 49,49 h 120 c 27.1633,0 49,-21.8367 49,-49 v 1 c 0,27.1633 -21.8367,49 -49,49 z"
         style="color:#bebebe;display:inline;overflow:visible;visibility:visible;opacity:0.1;fill:#ffffff;fill-opacity:1;fill-rule:nonzero;stroke:none;stroke-width:0;marker:none;enable-background:accumulate" />
      <path
         style="color:#bebebe;display:inline;overflow:visible;visibility:visible;opacity:0.1;fill:#ffffff;fill-opacity:1;fill-rule:nonzero;stroke:none;stroke-width:0;marker:none;enable-background:accumulate"
         d="m 300,264 c -4.4493,0 -8,-3.5507 -8,-8 v -1 c 0,4.4493 3.5507,8 8,8 h 24 c 4.4493,0 8,-3.5507 8,-8 v 1 c 0,4.4493 -3.5507,8 -8,8 z"
         id="path4294"
         inkscape:connector-curvature="0" />
      <path
         style="color:#bebebe;display:inline;overflow:visible;visibility:visible;opacity:0.1;fill:#ffffff;fill-opacity:1;fill-rule:nonzero;stroke:none;stroke-width:0;marker:none;enable-background:accumulate"
         d="m 302.5,201 c -6.3883,0 -11.5,-5.1117 -11.5,-11.5 v -1 c 0,6.3883 5.1117,11.5 11.5,11.5 h 35 c 6.3883,0 11.5,-5.1117 11.5,-11.5 v 1 c 0,6.3883 -5.1117,11.5 -11.5,11.5 z"
         id="path4296"
         inkscape:connector-curvature="0" />
      <path
         style="color:#bebebe;display:inline;overflow:visible;visibility:visible;opacity:0.1;fill:#ffffff;fill-opacity:1;fill-rule:nonzero;stroke:none;stroke-width:0;marker:none;enable-background:accumulate"
         d="m 310,119 c -9.4353,0 -17,-7.5647 -17,-17 v -1 c 0,9.4353 7.5647,17 17,17 h 52 c 9.4353,0 17,-7.5647 17,-17 v 1 c 0,9.4353 -7.5647,17 -17,17 z"
         id="path4298"
         inkscape:connector-curvature="0" />
      <path
         style="color:#bebebe;display:inline;overflow:visible;visibility:visible;opacity:0.1;fill:#ffffff;fill-opacity:1;fill-rule:nonzero;stroke:none;stroke-width:0;marker:none;enable-background:accumulate"
         d="m 424,82 c -3.3413,0 -6,-2.658703 -6,-6 v -1 c 0,3.341297 2.6587,6 6,6 h 16 c 3.3413,0 6,-2.658703 6,-6 v 1 c 0,3.341297 -2.6587,6 -6,6 z"
         id="path4300"
         inkscape:connector-curvature="0" />
      <path
         style="color:#bebebe;display:inline;overflow:visible;visibility:visible;opacity:0.1;fill:#ffffff;fill-opacity:1;fill-rule:nonzero;stroke:none;stroke-width:0;marker:none;enable-background:accumulate"
         d="m 422,122 c -2.2333,0 -4,-1.7667 -4,-4 v -1 c 0,2.2333 1.7667,4 4,4 h 12 c 2.2333,0 4,-1.7667 4,-4 v 1 c 0,2.2333 -1.7667,4 -4,4 z"
         id="path4302"
         inkscape:connector-curvature="0" />
      <path
         style="color:#bebebe;display:inline;overflow:visible;visibility:visible;opacity:0.1;fill:#ffffff;fill-opacity:1;fill-rule:nonzero;stroke:none;stroke-width:0;marker:none;enable-background:accumulate"
         d="m 419,154.5 c -1.1253,0 -2,-0.8747 -2,-2 v -1 c 0,1.1253 0.8747,2 2,2 h 10 c 1.1253,0 2,-0.8747 2,-2 v 1 c 0,1.1253 -0.8747,2 -2,2 z"
         id="path4304"
         inkscape:connector-curvature="0" />
    </g>
    <g
       inkscape:groupmode="layer"
       id="layer3"
       inkscape:label="Border"
       style="display:inline"
       sodipodi:insensitive="true">
      <path
         style="color:#bebebe;display:inline;overflow:visible;visibility:visible;opacity:0.41;fill:#000000;fill-opacity:1;fill-rule:nonzero;stroke:none;stroke-width:0;marker:none;enable-background:accumulate"
         d="m 422,101 c -2.77,0 -5,2.23 -5,5 v 12 c 0,2.77 2.23,5 5,5 h 12 c 2.77,0 5,-2.23 5,-5 v -12 c 0,-2.77 -2.23,-5 -5,-5 z m 0,1 h 12 c 2.2333,0 4,1.7667 4,4 v 12 c 0,2.2333 -1.7667,4 -4,4 h -12 c -2.2333,0 -4,-1.7667 -4,-4 v -12 c 0,-2.2333 1.7667,-4 4,-4 z"
         id="rect4099"
         inkscape:connector-curvature="0" />
      <path
         style="color:#bebebe;display:inline;overflow:visible;visibility:visible;opacity:0.41;fill:#000000;fill-opacity:1;fill-rule:nonzero;stroke:none;stroke-width:0;marker:none;enable-background:accumulate"
         d="m 424,53 c -3.878,0 -7,3.122 -7,7 v 16 c 0,3.878 3.122,7 7,7 h 16 c 3.878,0 7,-3.122 7,-7 V 60 c 0,-3.878 -3.122,-7 -7,-7 z m 0,1 h 16 c 3.3413,0 6,2.658703 6,6 v 16 c 0,3.341297 -2.6587,6 -6,6 h -16 c -3.3413,0 -6,-2.658703 -6,-6 V 60 c 0,-3.341297 2.6587,-6 6,-6 z"
         id="rect4151"
         inkscape:connector-curvature="0" />
      <path
         style="color:#bebebe;display:inline;overflow:visible;visibility:visible;opacity:0.41;fill:#000000;fill-opacity:1;fill-rule:nonzero;stroke:none;stroke-width:0;marker:none;enable-background:accumulate"
         d="m 419,140 c -1.662,0 -3,1.338 -3,3 v 10 c 0,1.662 1.338,3 3,3 h 10 c 1.662,0 3,-1.338 3,-3 v -10 c 0,-1.662 -1.338,-3 -3,-3 z m 0,1 h 10 c 1.1253,0 2,0.8747 2,2 v 10 c 0,1.1253 -0.8747,2 -2,2 h -10 c -1.1253,0 -2,-0.8747 -2,-2 v -10 c 0,-1.1253 0.8747,-2 2,-2 z"
         id="rect4095"
         inkscape:connector-curvature="0" />
      <path
         style="color:#bebebe;display:inline;overflow:visible;visibility:visible;opacity:0.41;fill:#000000;fill-opacity:1;fill-rule:nonzero;stroke:none;stroke-width:0;marker:none;enable-background:accumulate"
         d="m 300,223 c -4.986,0 -9,4.014 -9,9 v 24 c 0,4.986 4.014,9 9,9 h 24 c 4.986,0 9,-4.014 9,-9 v -24 c 0,-4.986 -4.014,-9 -9,-9 z m 0,1 h 24 c 4.4493,0 8,3.5507 8,8 v 24 c 0,4.4493 -3.5507,8 -8,8 h -24 c -4.4493,0 -8,-3.5507 -8,-8 v -24 c 0,-4.4493 3.5507,-8 8,-8 z"
         id="rect4783"
         inkscape:connector-curvature="0" />
      <path
         style="color:#bebebe;display:inline;overflow:visible;visibility:visible;opacity:0.41;fill:#000000;fill-opacity:1;fill-rule:nonzero;stroke:none;stroke-width:0;marker:none;enable-background:accumulate"
         d="m 302.5,142 c -6.925,0 -12.5,5.575 -12.5,12.5 v 35 c 0,6.925 5.575,12.5 12.5,12.5 h 35 c 6.925,0 12.5,-5.575 12.5,-12.5 v -35 c 0,-6.925 -5.575,-12.5 -12.5,-12.5 z m 0,1 h 35 c 6.3883,0 11.5,5.1117 11.5,11.5 v 35 c 0,6.3883 -5.1117,11.5 -11.5,11.5 h -35 c -6.3883,0 -11.5,-5.1117 -11.5,-11.5 v -35 c 0,-6.3883 5.1117,-11.5 11.5,-11.5 z"
         id="rect4515"
         inkscape:connector-curvature="0" />
      <path
         style="color:#bebebe;display:inline;overflow:visible;visibility:visible;opacity:0.41;fill:#000000;fill-opacity:1;fill-rule:nonzero;stroke:none;stroke-width:0;marker:none;enable-background:accumulate"
         d="m 310,32 c -9.972,0 -18,8.028 -18,18 v 52 c 0,9.972 8.028,18 18,18 h 52 c 9.972,0 18,-8.028 18,-18 V 50 c 0,-9.972 -8.028,-18 -18,-18 z m 0,1 h 52 c 9.4353,0 17,7.564703 17,17 v 52 c 0,9.4353 -7.5647,17 -17,17 h -52 c -9.4353,0 -17,-7.5647 -17,-17 V 50 c 0,-9.435297 7.5647,-17 17,-17 z"
         id="rect4511"
         inkscape:connector-curvature="0" />
      <path
         style="color:#bebebe;display:inline;overflow:visible;visibility:visible;opacity:0.41;fill:#000000;fill-opacity:1;fill-rule:nonzero;stroke:none;stroke-width:0;marker:none;enable-background:accumulate"
         d="M 84,46 C 56.3,46 34,68.3 34,96 v 120 c 0,27.7 22.3,50 50,50 h 120 c 27.7,0 50,-22.3 50,-50 V 96 C 254,68.3 231.7,46 204,46 Z m 0,1 h 120 c 27.1633,0 49,21.836703 49,49 v 120 c 0,27.1633 -21.8367,49 -49,49 H 84 C 56.836703,265 35,243.1633 35,216 V 96 C 35,68.836703 56.836703,47 84,47 Z"
         id="rect4040"
         inkscape:connector-curvature="0" />
    </g>
  </g>
</svg>
