<?xml version="1.0" encoding="UTF-8" standalone="no"?>
<!-- Created with Inkscape (http://www.inkscape.org/) -->

<svg
   inkscape:export-ydpi="90.000000"
   inkscape:export-xdpi="90.000000"
   width="480"
   height="300"
   id="svg11300"
   sodipodi:version="0.32"
   inkscape:version="1.1.2 (0a00cf5339, 2022-02-04)"
   sodipodi:docname="deadcells.svg"
   inkscape:output_extension="org.inkscape.output.svg.inkscape"
   version="1.0"
   style="display:inline;enable-background:new"
   inkscape:export-filename="/home/sam/moka-next-template.png"
   xmlns:inkscape="http://www.inkscape.org/namespaces/inkscape"
   xmlns:sodipodi="http://sodipodi.sourceforge.net/DTD/sodipodi-0.dtd"
   xmlns:xlink="http://www.w3.org/1999/xlink"
   xmlns="http://www.w3.org/2000/svg"
   xmlns:svg="http://www.w3.org/2000/svg"
   xmlns:rdf="http://www.w3.org/1999/02/22-rdf-syntax-ns#"
   xmlns:cc="http://creativecommons.org/ns#"
   xmlns:dc="http://purl.org/dc/elements/1.1/">
  <sodipodi:namedview
     stroke="#ef2929"
     fill="#f57900"
     id="base"
     pagecolor="#ffffff"
     bordercolor="#000000"
     borderopacity="0.54509804"
     inkscape:pageopacity="0"
     inkscape:pageshadow="2"
     inkscape:zoom="1.4142136"
     inkscape:cx="406.23283"
     inkscape:cy="128.33987"
     inkscape:current-layer="layer2"
     showgrid="false"
     inkscape:grid-bbox="true"
     inkscape:document-units="px"
     inkscape:showpageshadow="false"
     inkscape:window-width="1920"
     inkscape:window-height="1008"
     inkscape:window-x="0"
     inkscape:window-y="40"
     width="400px"
     height="300px"
     inkscape:snap-nodes="true"
     inkscape:snap-bbox="true"
     gridtolerance="10000"
     inkscape:object-nodes="true"
     inkscape:snap-grids="true"
     showguides="true"
     inkscape:guide-bbox="true"
     inkscape:window-maximized="1"
     inkscape:bbox-nodes="true"
     inkscape:bbox-paths="true"
     inkscape:snap-bbox-edge-midpoints="true"
     inkscape:snap-bbox-midpoints="true"
     inkscape:pagecheckerboard="0"
     inkscape:object-paths="true"
     inkscape:snap-intersection-paths="true"
     inkscape:snap-smooth-nodes="true"
     inkscape:snap-midpoints="true"
     inkscape:snap-object-midpoints="true"
     inkscape:snap-text-baseline="true"
     inkscape:snap-center="true">
    <inkscape:grid
       spacingy="1"
       spacingx="1"
       id="grid5883"
       type="xygrid"
       enabled="true"
       visible="true"
       empspacing="4"
       snapvisiblegridlinesonly="true"
       dotted="false"
       color="#000000"
       opacity="0.1254902"
       empcolor="#203ef3"
       empopacity="0.36470588"
       originx="0"
       originy="0" />
    <inkscape:grid
       type="xygrid"
       id="grid11592"
       empspacing="8"
       visible="true"
       enabled="false"
       spacingx="0.5"
       spacingy="0.5"
       color="#ff0000"
       opacity="0.1254902"
       empcolor="#ff0000"
       empopacity="0.25098039"
       snapvisiblegridlinesonly="true"
       dotted="true"
       originx="0"
       originy="0" />
  </sodipodi:namedview>
  <defs
     id="defs3">
    <linearGradient
       inkscape:collect="always"
       id="linearGradient2717">
      <stop
         style="stop-color:#c83737;stop-opacity:1;"
         offset="0"
         id="stop2713" />
      <stop
         style="stop-color:#c83737;stop-opacity:0;"
         offset="1"
         id="stop2715" />
    </linearGradient>
    <linearGradient
       id="linearGradient905">
      <stop
         style="stop-color:#ff7139;stop-opacity:1"
         offset="0"
         id="stop901" />
      <stop
         style="stop-color:#ff7139;stop-opacity:1"
         offset="1"
         id="stop903" />
    </linearGradient>
    <linearGradient
       id="linearGradient3984">
      <stop
         id="stop3986"
         offset="0"
         style="stop-color:#f57d33;stop-opacity:1" />
      <stop
         id="stop3988"
         offset="1"
         style="stop-color:#faa653;stop-opacity:1;" />
    </linearGradient>
    <linearGradient
       inkscape:collect="always"
       xlink:href="#linearGradient2717"
       id="linearGradient2719"
       x1="80.218656"
       y1="147.22903"
       x2="180.21866"
       y2="147.22903"
       gradientUnits="userSpaceOnUse"
       gradientTransform="translate(0,-1)" />
    <linearGradient
       inkscape:collect="always"
       xlink:href="#linearGradient2717"
       id="linearGradient3429"
       gradientUnits="userSpaceOnUse"
       gradientTransform="translate(0,-1)"
       x1="80.218656"
       y1="147.22903"
       x2="180.21866"
       y2="147.22903" />
    <linearGradient
       inkscape:collect="always"
       xlink:href="#linearGradient2717"
       id="linearGradient3445"
       gradientUnits="userSpaceOnUse"
       gradientTransform="translate(0,-1)"
       x1="80.218656"
       y1="147.22903"
       x2="180.21866"
       y2="147.22903" />
    <linearGradient
       inkscape:collect="always"
       xlink:href="#linearGradient2717"
       id="linearGradient3461"
       gradientUnits="userSpaceOnUse"
       gradientTransform="translate(0,-1)"
       x1="80.218656"
       y1="147.22903"
       x2="180.21866"
       y2="147.22903" />
    <linearGradient
       inkscape:collect="always"
       xlink:href="#linearGradient2717"
       id="linearGradient3707"
       gradientUnits="userSpaceOnUse"
       gradientTransform="translate(0,-1)"
       x1="80.218656"
       y1="147.22903"
       x2="180.21866"
       y2="147.22903" />
    <linearGradient
       inkscape:collect="always"
       xlink:href="#linearGradient2717"
       id="linearGradient3723"
       gradientUnits="userSpaceOnUse"
       gradientTransform="translate(0,-1)"
       x1="80.218656"
       y1="147.22903"
       x2="180.21866"
       y2="147.22903" />
    <linearGradient
       inkscape:collect="always"
       xlink:href="#linearGradient2717"
       id="linearGradient3739"
       gradientUnits="userSpaceOnUse"
       gradientTransform="translate(0,-1)"
       x1="80.218656"
       y1="147.22903"
       x2="180.21866"
       y2="147.22903" />
  </defs>
  <metadata
     id="metadata4">
    <rdf:RDF>
      <cc:Work
         rdf:about="">
        <dc:format>image/svg+xml</dc:format>
        <dc:type
           rdf:resource="http://purl.org/dc/dcmitype/StillImage" />
        <dc:creator>
          <cc:Agent>
            <dc:title>Sam Hewitt</dc:title>
          </cc:Agent>
        </dc:creator>
        <dc:source />
        <cc:license
           rdf:resource="" />
        <dc:title />
        <dc:subject>
          <rdf:Bag />
        </dc:subject>
        <dc:date />
        <dc:rights>
          <cc:Agent>
            <dc:title />
          </cc:Agent>
        </dc:rights>
        <dc:publisher>
          <cc:Agent>
            <dc:title />
          </cc:Agent>
        </dc:publisher>
        <dc:identifier />
        <dc:relation />
        <dc:language />
        <dc:coverage />
        <dc:description />
        <dc:contributor>
          <cc:Agent>
            <dc:title />
          </cc:Agent>
        </dc:contributor>
      </cc:Work>
      <cc:Work
         rdf:about="">
        <dc:format>image/svg+xml</dc:format>
        <dc:type
           rdf:resource="http://purl.org/dc/dcmitype/StillImage" />
      </cc:Work>
    </rdf:RDF>
  </metadata>
  <g
     style="display:inline"
     inkscape:groupmode="layer"
     inkscape:label="Icon"
     id="layer1">
    <g
       style="display:none"
       inkscape:label="Baseplate"
       id="layer7"
       inkscape:groupmode="layer">
      <text
         y="19.745117"
         xml:space="preserve"
         x="15.006836"
         style="font-style:normal;font-variant:normal;font-weight:normal;font-stretch:normal;line-height:0%;font-family:'DejaVu Sans';-inkscape-font-specification:'DejaVu Sans';display:inline;fill:#000000;fill-opacity:1;stroke:none;enable-background:new"
         inkscape:label="context"
         id="context"><tspan
           style="font-style:normal;font-variant:normal;font-weight:normal;font-stretch:normal;font-size:18px;line-height:1.25;font-family:'DejaVu Sans';-inkscape-font-specification:'DejaVu Sans'"
           y="19.745117"
           x="15.006836"
           sodipodi:role="line"
           id="tspan3933">apps</tspan></text>
      <text
         y="19.745117"
         xml:space="preserve"
         x="122.48828"
         style="font-style:normal;font-variant:normal;font-weight:bold;font-stretch:normal;line-height:0%;font-family:'DejaVu Sans';-inkscape-font-specification:'DejaVu Sans Bold';text-align:start;writing-mode:lr-tb;text-anchor:start;display:inline;fill:#000000;fill-opacity:1;stroke:none;enable-background:new"
         inkscape:label="icon-name"
         id="icon-name"><tspan
           style="font-style:normal;font-variant:normal;font-weight:bold;font-stretch:normal;font-size:18px;line-height:1.25;font-family:'DejaVu Sans';-inkscape-font-specification:'DejaVu Sans Bold'"
           y="19.745117"
           x="122.48828"
           sodipodi:role="line"
           id="tspan3937">sheet</tspan></text>
      <rect
         style="fill:#eeeeec;fill-opacity:1;fill-rule:nonzero;stroke:none;stroke-width:2;marker:none;visibility:visible;display:inline;overflow:visible;enable-background:accumulate"
         id="rect16x16"
         width="16"
         height="16"
         x="416"
         y="140"
         inkscape:label="16x16" />
      <rect
         style="fill:#d4d4d4;fill-opacity:1;fill-rule:nonzero;stroke:none;stroke-width:2;marker:none;visibility:visible;display:inline;overflow:visible;enable-background:accumulate"
         id="rect24x24"
         width="24"
         height="24"
         x="416"
         y="100"
         inkscape:label="24x24" />
      <rect
         style="fill:#eeeeec;fill-opacity:1;fill-rule:nonzero;stroke:none;stroke-width:2;marker:none;visibility:visible;display:inline;overflow:visible;enable-background:accumulate"
         id="rect32x32"
         width="32"
         height="32"
         x="416"
         y="52"
         inkscape:label="32x32" />
      <rect
         inkscape:label="22x22"
         y="101"
         x="417"
         height="22"
         width="22"
         id="rect22x22"
         style="fill:#eeeeec;fill-opacity:1;fill-rule:nonzero;stroke:none;stroke-width:2;marker:none;visibility:visible;display:inline;overflow:visible;enable-background:accumulate" />
      <rect
         inkscape:label="48x48"
         y="220"
         x="288"
         height="48"
         width="48"
         id="rect48x48"
         style="fill:#eeeeec;fill-opacity:1;fill-rule:nonzero;stroke:none;stroke-width:2;marker:none;visibility:visible;display:inline;overflow:visible;enable-background:accumulate" />
      <rect
         style="fill:#eeeeec;fill-opacity:1;fill-rule:nonzero;stroke:none;stroke-width:2;marker:none;visibility:visible;display:inline;overflow:visible;enable-background:accumulate"
         id="rect256x256"
         width="256"
         height="256"
         x="16"
         y="28"
         inkscape:label="256x256" />
      <rect
         style="fill:#eeeeec;fill-opacity:1;fill-rule:nonzero;stroke:none;stroke-width:2;marker:none;visibility:visible;display:inline;overflow:visible;enable-background:accumulate"
         id="rect64x64"
         width="64"
         height="64"
         x="288"
         y="140"
         inkscape:label="64x64" />
      <rect
         style="fill:#eeeeec;fill-opacity:1;fill-rule:nonzero;stroke:none;stroke-width:2;marker:none;visibility:visible;display:inline;overflow:visible;enable-background:accumulate"
         id="rect96x96"
         width="96"
         height="96"
         x="288"
         y="28"
         inkscape:label="96x96" />
    </g>
    <g
       inkscape:groupmode="layer"
       id="layer4"
       inkscape:label="Shadow"
       style="display:inline"
       sodipodi:insensitive="true">
      <rect
         ry="50"
         y="47"
         x="34"
         height="220"
         width="220"
         id="rect4114"
         style="opacity:0.1;color:#bebebe;fill:#000000;fill-opacity:1;fill-rule:nonzero;stroke:none;stroke-width:0;marker:none;visibility:visible;display:inline;overflow:visible;enable-background:accumulate" />
      <rect
         style="opacity:0.1;color:#bebebe;fill:#000000;fill-opacity:1;fill-rule:nonzero;stroke:none;stroke-width:0;marker:none;visibility:visible;display:inline;overflow:visible;enable-background:accumulate"
         id="rect4120"
         width="30"
         height="30"
         x="417"
         y="54"
         ry="7" />
      <rect
         transform="scale(1,-1)"
         ry="9"
         y="-266"
         x="291"
         height="42"
         width="42"
         id="rect4122"
         style="opacity:0.1;color:#bebebe;fill:#000000;fill-opacity:1;fill-rule:nonzero;stroke:none;stroke-width:0;marker:none;visibility:visible;display:inline;overflow:visible;enable-background:accumulate" />
      <rect
         style="opacity:0.1;color:#bebebe;fill:#000000;fill-opacity:1;fill-rule:nonzero;stroke:none;stroke-width:0;marker:none;visibility:visible;display:inline;overflow:visible;enable-background:accumulate"
         id="rect4124"
         width="88"
         height="88"
         x="292"
         y="33"
         ry="18" />
      <rect
         ry="12.5"
         y="143"
         x="290"
         height="60"
         width="60"
         id="rect4126"
         style="opacity:0.1;color:#bebebe;fill:#000000;fill-opacity:1;fill-rule:nonzero;stroke:none;stroke-width:0;marker:none;visibility:visible;display:inline;overflow:visible;enable-background:accumulate" />
      <path
         id="path4268"
         d="m 422,101 c -2.77,0 -5,2.23 -5,5 l 0,12 c 0,2.77 2.23,5 5,5 l 12,0 c 2.77,0 5,-2.23 5,-5 l 0,-12 c 0,-2.77 -2.23,-5 -5,-5 z"
         style="opacity:0.1;color:#bebebe;fill:#000000;fill-opacity:1;fill-rule:nonzero;stroke:none;stroke-width:0;marker:none;visibility:visible;display:inline;overflow:visible;enable-background:accumulate"
         inkscape:connector-curvature="0"
         sodipodi:nodetypes="sssssssss" />
      <path
         id="path4270"
         d="m 419,140 c -1.662,0 -3,1.338 -3,3 l 0,10 c 0,1.662 1.338,3 3,3 l 10,0 c 1.662,0 3,-1.338 3,-3 l 0,-10 c 0,-1.662 -1.338,-3 -3,-3 z"
         style="opacity:0.1;color:#bebebe;fill:#000000;fill-opacity:1;fill-rule:nonzero;stroke:none;stroke-width:0;marker:none;visibility:visible;display:inline;overflow:visible;enable-background:accumulate"
         inkscape:connector-curvature="0"
         sodipodi:nodetypes="sssssssss" />
    </g>
    <g
       inkscape:groupmode="layer"
       id="layer2"
       inkscape:label="Background"
       style="display:inline">
      <g
         id="g4038">
        <g
           id="g3413">
          <path
             style="color:#bebebe;display:inline;overflow:visible;visibility:visible;fill:#241f1c;fill-opacity:1;fill-rule:nonzero;stroke:none;stroke-width:2;marker:none;enable-background:accumulate"
             d="M 84,46.5 C 56.568735,46.5 34.5,68.568732 34.5,96 v 120 c 0,27.43127 22.068735,49.5 49.5,49.5 h 120 c 27.43127,0 49.5,-22.06873 49.5,-49.5 V 96 C 253.5,68.568732 231.43127,46.5 204,46.5 Z"
             id="path4200" />
          <g
             id="g3322">
            <g
               id="g1018"
               transform="matrix(1.1,0,0,1,0.75947627,9.7709675)"
               style="fill:#ef443b;fill-opacity:1">
              <path
                 class="st0"
                 d="m 125.35158,66.229028 c -3.23826,3.63841 -6.67892,7.175754 -9.71479,11.016298 -3.64304,4.649079 -6.37532,9.904561 -6.9825,15.766444 -1.11315,10.81416 1.82152,20.51659 9.91718,28.09661 5.05978,4.75015 13.66141,4.85122 19.22718,0.70747 0.20239,-0.10107 0.40478,-0.3032 0.70837,-0.50533 0.20239,1.41493 0.30358,2.62774 0.60717,3.84054 0.91076,4.75015 3.23826,8.59069 7.0837,11.52163 4.95858,3.73948 9.91717,7.37789 14.87576,11.11737 11.94109,8.79282 18.11402,20.81979 19.02479,35.57556 0.50597,8.28749 -0.50598,16.37285 -4.55381,23.8518 -5.97054,11.3195 -15.48294,17.58565 -28.1324,18.79846 -14.97696,1.41493 -26.81685,-4.24482 -36.12685,-16.06965 -7.28609,-9.39923 -8.70283,-20.01125 -7.79207,-31.22969 2.22631,-0.3032 4.25022,-0.40426 6.27413,-0.9096 5.26218,-1.31387 8.39925,-5.25548 8.70283,-10.61203 0.70837,-9.60136 -2.83348,-17.48458 -9.2088,-24.4582 -4.95859,-5.45762 -11.53631,-7.68109 -18.31642,-9.50029 -2.226304,-0.60641 -4.553805,-1.01067 -6.881305,-1.31387 -1.315544,-0.20214 -1.922718,-0.80854 -2.226305,-2.12241 -2.833479,-11.9259 -2.023913,-23.5486 3.03587,-34.767031 7.184893,-16.069645 19.83435,-25.266738 37.03762,-28.298746 1.31554,-0.303201 2.52989,-0.404268 3.44065,-0.505335 z m 18.31641,148.770552 c 0.1012,0 0.2024,0 0.2024,0 0,-0.6064 0.10119,-1.11174 0.10119,-1.71814 0.60718,-6.16508 1.51794,-12.33017 3.13707,-18.39418 1.31554,-5.15442 4.45261,-8.18643 9.61359,-9.5003 1.01195,-0.20213 1.92271,-0.50533 2.93467,-0.70747 2.73228,-0.50533 5.46457,-0.9096 7.69087,-1.31387 -3.64304,-0.9096 -7.69087,-1.8192 -11.6375,-3.03201 -3.94663,-1.2128 -6.47652,-3.84054 -7.18489,-7.88322 -1.11316,-5.76081 -2.22631,-11.6227 -3.23826,-17.48458 -0.30359,-1.92027 -0.50598,-3.84054 -0.70837,-5.76082 -0.70837,3.94162 -1.01196,7.88323 -1.61914,11.82484 -0.80956,4.34588 -1.82152,8.69176 -2.83347,12.93657 -0.40479,1.92027 -1.61913,3.33521 -3.44066,4.04267 -2.63108,1.01067 -5.16098,2.12241 -7.89326,2.93095 -2.63109,0.70747 -5.36337,1.01067 -8.39924,1.61707 0.91076,0.20213 1.61913,0.3032 2.2263,0.50533 4.14903,1.21281 8.29805,2.32454 12.44707,3.63841 2.63109,0.80854 4.35142,2.72881 4.95859,5.55868 0.80957,3.53735 1.61913,7.07469 2.12511,10.7131 0.70837,4.04268 1.01196,7.98429 1.51793,12.02697 z"
                 id="path943"
                 style="fill:#ef443b;fill-opacity:1;stroke-width:1.01131" />
              <path
                 class="st0"
                 d="m 158.03778,108.07075 c 0.1012,1.92027 0.20239,3.84054 0.40478,5.76081 0.70837,5.96295 3.44065,9.19709 9.20881,10.7131 2.42869,0.6064 4.655,1.516 6.37533,3.23414 2.52989,2.42561 3.74424,5.35655 2.93467,8.89389 -0.80957,3.23414 -2.73228,5.45762 -5.97054,6.36722 -3.33946,0.9096 -6.47653,0.20213 -9.20881,-1.71814 -6.78011,-4.64908 -9.91718,-11.0163 -9.10761,-19.30379 0.40478,-3.84054 1.01196,-7.68108 2.93467,-11.11736 0.60718,-1.11174 1.41674,-2.12241 2.12511,-3.13308 0.1012,0.20214 0.20239,0.30321 0.30359,0.30321 z"
                 id="path945"
                 style="fill:#ef443b;fill-opacity:1;stroke-width:1.01131" />
              <path
                 class="st0"
                 d="m 125.35158,66.229028 c -3.23826,3.63841 -6.67892,7.175752 -9.71479,11.016302 -3.64304,4.64908 -6.37532,9.90456 -6.9825,15.76644 -1.11315,10.81416 1.82152,20.51659 9.91718,28.09661 5.05978,4.75015 13.66141,4.85122 19.22718,0.70747 0.20239,-0.10107 0.40478,-0.3032 0.70837,-0.50533 0.20239,1.41493 0.30358,2.62774 0.60717,3.84054 0.91076,4.75015 3.23826,8.59069 7.0837,11.52163 4.95858,3.73948 9.91717,7.37789 14.87576,11.11737 11.94109,8.79282 18.11402,20.81979 19.02479,35.57556 0.50597,8.28749 -0.50598,16.37285 -4.55381,23.8518 -5.97054,11.3195 -15.48294,17.58565 -28.1324,18.79846 -14.97696,1.41493 -26.81685,-4.24482 -36.12685,-16.06965 -7.28609,-9.39923 -8.70283,-20.01125 -7.79207,-31.22969 2.22631,-0.3032 4.25022,-0.40426 6.27413,-0.9096 5.26218,-1.31387 8.39925,-5.25548 8.70283,-10.61203 0.70837,-9.60136 -2.83348,-17.48458 -9.2088,-24.4582 -4.95859,-5.45762 -11.53631,-7.68109 -18.31642,-9.50029 -2.226304,-0.60641 -4.553805,-1.01067 -6.881305,-1.31387 -1.315544,-0.20214 -1.922718,-0.80854 -2.226305,-2.12241 -2.833479,-11.9259 -2.023913,-23.5486 3.03587,-34.76703 7.184893,-16.06965 19.83435,-25.266739 37.03762,-28.298747 1.31554,-0.303201 2.52989,-0.404268 3.44065,-0.505335 z m 18.31641,148.770552 c 0.1012,0 0.2024,0 0.2024,0 0,-0.6064 0.10119,-1.11174 0.10119,-1.71814 0.60718,-6.16508 1.51794,-12.33017 3.13707,-18.39418 1.31554,-5.15442 4.45261,-8.18643 9.61359,-9.5003 1.01195,-0.20213 1.92271,-0.50533 2.93467,-0.70747 2.73228,-0.50533 5.46457,-0.9096 7.69087,-1.31387 -3.64304,-0.9096 -7.69087,-1.8192 -11.6375,-3.03201 -3.94663,-1.2128 -6.47652,-3.84054 -7.18489,-7.88322 -1.11316,-5.76081 -2.22631,-11.6227 -3.23826,-17.48458 -0.30359,-1.92027 -0.50598,-3.84054 -0.70837,-5.76082 -0.70837,3.94162 -1.01196,7.88323 -1.61914,11.82484 -0.80956,4.34588 -1.82152,8.69176 -2.83347,12.93657 -0.40479,1.92027 -1.61913,3.33521 -3.44066,4.04267 -2.63108,1.01067 -5.16098,2.12241 -7.89326,2.93095 -2.63109,0.70747 -5.36337,1.01067 -8.39924,1.61707 0.91076,0.20213 1.61913,0.3032 2.2263,0.50533 4.14903,1.21281 8.29805,2.32454 12.44707,3.63841 2.63109,0.80854 4.35142,2.72881 4.95859,5.55868 0.80957,3.53735 1.61913,7.07469 2.12511,10.7131 0.70837,4.04268 1.01196,7.98429 1.51793,12.02697 z"
                 id="path2685"
                 style="fill:url(#linearGradient2719);fill-opacity:1;stroke-width:1.01131" />
            </g>
          </g>
        </g>
        <g
           id="g3675">
          <path
             style="color:#bebebe;display:inline;overflow:visible;visibility:visible;fill:#241f1c;fill-opacity:1;fill-rule:nonzero;stroke:none;stroke-width:2;marker:none;enable-background:accumulate"
             d="m 310,32.5 c -9.70255,0 -17.5,7.797452 -17.5,17.5 v 52 c 0,9.70255 7.79745,17.5 17.5,17.5 h 52 c 9.70255,0 17.5,-7.79745 17.5,-17.5 V 50 c 0,-9.702548 -7.79745,-17.5 -17.5,-17.5 z"
             id="path4210" />
          <g
             id="g3425"
             transform="matrix(0.39726027,0,0,0.39726027,278.79452,14.027398)">
            <g
               id="g3423"
               transform="matrix(1.1,0,0,1,0.75947627,9.7709675)"
               style="fill:#ef443b;fill-opacity:1">
              <path
                 class="st0"
                 d="m 125.35158,66.229028 c -3.23826,3.63841 -6.67892,7.175754 -9.71479,11.016298 -3.64304,4.649079 -6.37532,9.904561 -6.9825,15.766444 -1.11315,10.81416 1.82152,20.51659 9.91718,28.09661 5.05978,4.75015 13.66141,4.85122 19.22718,0.70747 0.20239,-0.10107 0.40478,-0.3032 0.70837,-0.50533 0.20239,1.41493 0.30358,2.62774 0.60717,3.84054 0.91076,4.75015 3.23826,8.59069 7.0837,11.52163 4.95858,3.73948 9.91717,7.37789 14.87576,11.11737 11.94109,8.79282 18.11402,20.81979 19.02479,35.57556 0.50597,8.28749 -0.50598,16.37285 -4.55381,23.8518 -5.97054,11.3195 -15.48294,17.58565 -28.1324,18.79846 -14.97696,1.41493 -26.81685,-4.24482 -36.12685,-16.06965 -7.28609,-9.39923 -8.70283,-20.01125 -7.79207,-31.22969 2.22631,-0.3032 4.25022,-0.40426 6.27413,-0.9096 5.26218,-1.31387 8.39925,-5.25548 8.70283,-10.61203 0.70837,-9.60136 -2.83348,-17.48458 -9.2088,-24.4582 -4.95859,-5.45762 -11.53631,-7.68109 -18.31642,-9.50029 -2.226304,-0.60641 -4.553805,-1.01067 -6.881305,-1.31387 -1.315544,-0.20214 -1.922718,-0.80854 -2.226305,-2.12241 -2.833479,-11.9259 -2.023913,-23.5486 3.03587,-34.767031 7.184893,-16.069645 19.83435,-25.266738 37.03762,-28.298746 1.31554,-0.303201 2.52989,-0.404268 3.44065,-0.505335 z m 18.31641,148.770552 c 0.1012,0 0.2024,0 0.2024,0 0,-0.6064 0.10119,-1.11174 0.10119,-1.71814 0.60718,-6.16508 1.51794,-12.33017 3.13707,-18.39418 1.31554,-5.15442 4.45261,-8.18643 9.61359,-9.5003 1.01195,-0.20213 1.92271,-0.50533 2.93467,-0.70747 2.73228,-0.50533 5.46457,-0.9096 7.69087,-1.31387 -3.64304,-0.9096 -7.69087,-1.8192 -11.6375,-3.03201 -3.94663,-1.2128 -6.47652,-3.84054 -7.18489,-7.88322 -1.11316,-5.76081 -2.22631,-11.6227 -3.23826,-17.48458 -0.30359,-1.92027 -0.50598,-3.84054 -0.70837,-5.76082 -0.70837,3.94162 -1.01196,7.88323 -1.61914,11.82484 -0.80956,4.34588 -1.82152,8.69176 -2.83347,12.93657 -0.40479,1.92027 -1.61913,3.33521 -3.44066,4.04267 -2.63108,1.01067 -5.16098,2.12241 -7.89326,2.93095 -2.63109,0.70747 -5.36337,1.01067 -8.39924,1.61707 0.91076,0.20213 1.61913,0.3032 2.2263,0.50533 4.14903,1.21281 8.29805,2.32454 12.44707,3.63841 2.63109,0.80854 4.35142,2.72881 4.95859,5.55868 0.80957,3.53735 1.61913,7.07469 2.12511,10.7131 0.70837,4.04268 1.01196,7.98429 1.51793,12.02697 z"
                 id="path3417"
                 style="fill:#ef443b;fill-opacity:1;stroke-width:1.01131" />
              <path
                 class="st0"
                 d="m 158.03778,108.07075 c 0.1012,1.92027 0.20239,3.84054 0.40478,5.76081 0.70837,5.96295 3.44065,9.19709 9.20881,10.7131 2.42869,0.6064 4.655,1.516 6.37533,3.23414 2.52989,2.42561 3.74424,5.35655 2.93467,8.89389 -0.80957,3.23414 -2.73228,5.45762 -5.97054,6.36722 -3.33946,0.9096 -6.47653,0.20213 -9.20881,-1.71814 -6.78011,-4.64908 -9.91718,-11.0163 -9.10761,-19.30379 0.40478,-3.84054 1.01196,-7.68108 2.93467,-11.11736 0.60718,-1.11174 1.41674,-2.12241 2.12511,-3.13308 0.1012,0.20214 0.20239,0.30321 0.30359,0.30321 z"
                 id="path3419"
                 style="fill:#ef443b;fill-opacity:1;stroke-width:1.01131" />
              <path
                 class="st0"
                 d="m 125.35158,66.229028 c -3.23826,3.63841 -6.67892,7.175752 -9.71479,11.016302 -3.64304,4.64908 -6.37532,9.90456 -6.9825,15.76644 -1.11315,10.81416 1.82152,20.51659 9.91718,28.09661 5.05978,4.75015 13.66141,4.85122 19.22718,0.70747 0.20239,-0.10107 0.40478,-0.3032 0.70837,-0.50533 0.20239,1.41493 0.30358,2.62774 0.60717,3.84054 0.91076,4.75015 3.23826,8.59069 7.0837,11.52163 4.95858,3.73948 9.91717,7.37789 14.87576,11.11737 11.94109,8.79282 18.11402,20.81979 19.02479,35.57556 0.50597,8.28749 -0.50598,16.37285 -4.55381,23.8518 -5.97054,11.3195 -15.48294,17.58565 -28.1324,18.79846 -14.97696,1.41493 -26.81685,-4.24482 -36.12685,-16.06965 -7.28609,-9.39923 -8.70283,-20.01125 -7.79207,-31.22969 2.22631,-0.3032 4.25022,-0.40426 6.27413,-0.9096 5.26218,-1.31387 8.39925,-5.25548 8.70283,-10.61203 0.70837,-9.60136 -2.83348,-17.48458 -9.2088,-24.4582 -4.95859,-5.45762 -11.53631,-7.68109 -18.31642,-9.50029 -2.226304,-0.60641 -4.553805,-1.01067 -6.881305,-1.31387 -1.315544,-0.20214 -1.922718,-0.80854 -2.226305,-2.12241 -2.833479,-11.9259 -2.023913,-23.5486 3.03587,-34.76703 7.184893,-16.06965 19.83435,-25.266739 37.03762,-28.298747 1.31554,-0.303201 2.52989,-0.404268 3.44065,-0.505335 z m 18.31641,148.770552 c 0.1012,0 0.2024,0 0.2024,0 0,-0.6064 0.10119,-1.11174 0.10119,-1.71814 0.60718,-6.16508 1.51794,-12.33017 3.13707,-18.39418 1.31554,-5.15442 4.45261,-8.18643 9.61359,-9.5003 1.01195,-0.20213 1.92271,-0.50533 2.93467,-0.70747 2.73228,-0.50533 5.46457,-0.9096 7.69087,-1.31387 -3.64304,-0.9096 -7.69087,-1.8192 -11.6375,-3.03201 -3.94663,-1.2128 -6.47652,-3.84054 -7.18489,-7.88322 -1.11316,-5.76081 -2.22631,-11.6227 -3.23826,-17.48458 -0.30359,-1.92027 -0.50598,-3.84054 -0.70837,-5.76082 -0.70837,3.94162 -1.01196,7.88323 -1.61914,11.82484 -0.80956,4.34588 -1.82152,8.69176 -2.83347,12.93657 -0.40479,1.92027 -1.61913,3.33521 -3.44066,4.04267 -2.63108,1.01067 -5.16098,2.12241 -7.89326,2.93095 -2.63109,0.70747 -5.36337,1.01067 -8.39924,1.61707 0.91076,0.20213 1.61913,0.3032 2.2263,0.50533 4.14903,1.21281 8.29805,2.32454 12.44707,3.63841 2.63109,0.80854 4.35142,2.72881 4.95859,5.55868 0.80957,3.53735 1.61913,7.07469 2.12511,10.7131 0.70837,4.04268 1.01196,7.98429 1.51793,12.02697 z"
                 id="path3421"
                 style="fill:url(#linearGradient3429);fill-opacity:1;stroke-width:1.01131" />
            </g>
          </g>
        </g>
        <g
           id="g3683">
          <path
             style="color:#bebebe;display:inline;overflow:visible;visibility:visible;fill:#241f1c;fill-opacity:1;fill-rule:nonzero;stroke:none;stroke-width:2;marker:none;enable-background:accumulate"
             d="m 302.5,142.5 c -6.65502,0 -12,5.34498 -12,12 v 35 c 0,6.65502 5.34498,12 12,12 h 35 c 6.65502,0 12,-5.34498 12,-12 v -35 c 0,-6.65502 -5.34498,-12 -12,-12 z"
             id="path4212" />
          <g
             id="g3441"
             transform="matrix(0.26940639,0,0,0.26940639,281.20548,129.9726)">
            <g
               id="g3439"
               transform="matrix(1.1,0,0,1,0.75947627,9.7709675)"
               style="fill:#ef443b;fill-opacity:1">
              <path
                 class="st0"
                 d="m 125.35158,66.229028 c -3.23826,3.63841 -6.67892,7.175754 -9.71479,11.016298 -3.64304,4.649079 -6.37532,9.904561 -6.9825,15.766444 -1.11315,10.81416 1.82152,20.51659 9.91718,28.09661 5.05978,4.75015 13.66141,4.85122 19.22718,0.70747 0.20239,-0.10107 0.40478,-0.3032 0.70837,-0.50533 0.20239,1.41493 0.30358,2.62774 0.60717,3.84054 0.91076,4.75015 3.23826,8.59069 7.0837,11.52163 4.95858,3.73948 9.91717,7.37789 14.87576,11.11737 11.94109,8.79282 18.11402,20.81979 19.02479,35.57556 0.50597,8.28749 -0.50598,16.37285 -4.55381,23.8518 -5.97054,11.3195 -15.48294,17.58565 -28.1324,18.79846 -14.97696,1.41493 -26.81685,-4.24482 -36.12685,-16.06965 -7.28609,-9.39923 -8.70283,-20.01125 -7.79207,-31.22969 2.22631,-0.3032 4.25022,-0.40426 6.27413,-0.9096 5.26218,-1.31387 8.39925,-5.25548 8.70283,-10.61203 0.70837,-9.60136 -2.83348,-17.48458 -9.2088,-24.4582 -4.95859,-5.45762 -11.53631,-7.68109 -18.31642,-9.50029 -2.226304,-0.60641 -4.553805,-1.01067 -6.881305,-1.31387 -1.315544,-0.20214 -1.922718,-0.80854 -2.226305,-2.12241 -2.833479,-11.9259 -2.023913,-23.5486 3.03587,-34.767031 7.184893,-16.069645 19.83435,-25.266738 37.03762,-28.298746 1.31554,-0.303201 2.52989,-0.404268 3.44065,-0.505335 z m 18.31641,148.770552 c 0.1012,0 0.2024,0 0.2024,0 0,-0.6064 0.10119,-1.11174 0.10119,-1.71814 0.60718,-6.16508 1.51794,-12.33017 3.13707,-18.39418 1.31554,-5.15442 4.45261,-8.18643 9.61359,-9.5003 1.01195,-0.20213 1.92271,-0.50533 2.93467,-0.70747 2.73228,-0.50533 5.46457,-0.9096 7.69087,-1.31387 -3.64304,-0.9096 -7.69087,-1.8192 -11.6375,-3.03201 -3.94663,-1.2128 -6.47652,-3.84054 -7.18489,-7.88322 -1.11316,-5.76081 -2.22631,-11.6227 -3.23826,-17.48458 -0.30359,-1.92027 -0.50598,-3.84054 -0.70837,-5.76082 -0.70837,3.94162 -1.01196,7.88323 -1.61914,11.82484 -0.80956,4.34588 -1.82152,8.69176 -2.83347,12.93657 -0.40479,1.92027 -1.61913,3.33521 -3.44066,4.04267 -2.63108,1.01067 -5.16098,2.12241 -7.89326,2.93095 -2.63109,0.70747 -5.36337,1.01067 -8.39924,1.61707 0.91076,0.20213 1.61913,0.3032 2.2263,0.50533 4.14903,1.21281 8.29805,2.32454 12.44707,3.63841 2.63109,0.80854 4.35142,2.72881 4.95859,5.55868 0.80957,3.53735 1.61913,7.07469 2.12511,10.7131 0.70837,4.04268 1.01196,7.98429 1.51793,12.02697 z"
                 id="path3433"
                 style="fill:#ef443b;fill-opacity:1;stroke-width:1.01131" />
              <path
                 class="st0"
                 d="m 158.03778,108.07075 c 0.1012,1.92027 0.20239,3.84054 0.40478,5.76081 0.70837,5.96295 3.44065,9.19709 9.20881,10.7131 2.42869,0.6064 4.655,1.516 6.37533,3.23414 2.52989,2.42561 3.74424,5.35655 2.93467,8.89389 -0.80957,3.23414 -2.73228,5.45762 -5.97054,6.36722 -3.33946,0.9096 -6.47653,0.20213 -9.20881,-1.71814 -6.78011,-4.64908 -9.91718,-11.0163 -9.10761,-19.30379 0.40478,-3.84054 1.01196,-7.68108 2.93467,-11.11736 0.60718,-1.11174 1.41674,-2.12241 2.12511,-3.13308 0.1012,0.20214 0.20239,0.30321 0.30359,0.30321 z"
                 id="path3435"
                 style="fill:#ef443b;fill-opacity:1;stroke-width:1.01131" />
              <path
                 class="st0"
                 d="m 125.35158,66.229028 c -3.23826,3.63841 -6.67892,7.175752 -9.71479,11.016302 -3.64304,4.64908 -6.37532,9.90456 -6.9825,15.76644 -1.11315,10.81416 1.82152,20.51659 9.91718,28.09661 5.05978,4.75015 13.66141,4.85122 19.22718,0.70747 0.20239,-0.10107 0.40478,-0.3032 0.70837,-0.50533 0.20239,1.41493 0.30358,2.62774 0.60717,3.84054 0.91076,4.75015 3.23826,8.59069 7.0837,11.52163 4.95858,3.73948 9.91717,7.37789 14.87576,11.11737 11.94109,8.79282 18.11402,20.81979 19.02479,35.57556 0.50597,8.28749 -0.50598,16.37285 -4.55381,23.8518 -5.97054,11.3195 -15.48294,17.58565 -28.1324,18.79846 -14.97696,1.41493 -26.81685,-4.24482 -36.12685,-16.06965 -7.28609,-9.39923 -8.70283,-20.01125 -7.79207,-31.22969 2.22631,-0.3032 4.25022,-0.40426 6.27413,-0.9096 5.26218,-1.31387 8.39925,-5.25548 8.70283,-10.61203 0.70837,-9.60136 -2.83348,-17.48458 -9.2088,-24.4582 -4.95859,-5.45762 -11.53631,-7.68109 -18.31642,-9.50029 -2.226304,-0.60641 -4.553805,-1.01067 -6.881305,-1.31387 -1.315544,-0.20214 -1.922718,-0.80854 -2.226305,-2.12241 -2.833479,-11.9259 -2.023913,-23.5486 3.03587,-34.76703 7.184893,-16.06965 19.83435,-25.266739 37.03762,-28.298747 1.31554,-0.303201 2.52989,-0.404268 3.44065,-0.505335 z m 18.31641,148.770552 c 0.1012,0 0.2024,0 0.2024,0 0,-0.6064 0.10119,-1.11174 0.10119,-1.71814 0.60718,-6.16508 1.51794,-12.33017 3.13707,-18.39418 1.31554,-5.15442 4.45261,-8.18643 9.61359,-9.5003 1.01195,-0.20213 1.92271,-0.50533 2.93467,-0.70747 2.73228,-0.50533 5.46457,-0.9096 7.69087,-1.31387 -3.64304,-0.9096 -7.69087,-1.8192 -11.6375,-3.03201 -3.94663,-1.2128 -6.47652,-3.84054 -7.18489,-7.88322 -1.11316,-5.76081 -2.22631,-11.6227 -3.23826,-17.48458 -0.30359,-1.92027 -0.50598,-3.84054 -0.70837,-5.76082 -0.70837,3.94162 -1.01196,7.88323 -1.61914,11.82484 -0.80956,4.34588 -1.82152,8.69176 -2.83347,12.93657 -0.40479,1.92027 -1.61913,3.33521 -3.44066,4.04267 -2.63108,1.01067 -5.16098,2.12241 -7.89326,2.93095 -2.63109,0.70747 -5.36337,1.01067 -8.39924,1.61707 0.91076,0.20213 1.61913,0.3032 2.2263,0.50533 4.14903,1.21281 8.29805,2.32454 12.44707,3.63841 2.63109,0.80854 4.35142,2.72881 4.95859,5.55868 0.80957,3.53735 1.61913,7.07469 2.12511,10.7131 0.70837,4.04268 1.01196,7.98429 1.51793,12.02697 z"
                 id="path3437"
                 style="fill:url(#linearGradient3445);fill-opacity:1;stroke-width:1.01131" />
            </g>
          </g>
        </g>
        <g
           id="g3691">
          <path
             style="color:#bebebe;display:inline;overflow:visible;visibility:visible;fill:#241f1c;fill-opacity:1;fill-rule:nonzero;stroke:none;stroke-width:2;marker:none;enable-background:accumulate"
             d="m 300,223.5 c -4.71531,0 -8.5,3.78469 -8.5,8.5 v 24 c 0,4.71531 3.78469,8.5 8.5,8.5 h 24 c 4.71531,0 8.5,-3.78469 8.5,-8.5 v -24 c 0,-4.71531 -3.78469,-8.5 -8.5,-8.5 z"
             id="path4208" />
          <g
             id="g3457"
             transform="matrix(0.18721461,0,0,0.18721461,285.0411,214.79452)">
            <g
               id="g3455"
               transform="matrix(1.1,0,0,1,0.75947627,9.7709675)"
               style="fill:#ef443b;fill-opacity:1">
              <path
                 class="st0"
                 d="m 125.35158,66.229028 c -3.23826,3.63841 -6.67892,7.175754 -9.71479,11.016298 -3.64304,4.649079 -6.37532,9.904561 -6.9825,15.766444 -1.11315,10.81416 1.82152,20.51659 9.91718,28.09661 5.05978,4.75015 13.66141,4.85122 19.22718,0.70747 0.20239,-0.10107 0.40478,-0.3032 0.70837,-0.50533 0.20239,1.41493 0.30358,2.62774 0.60717,3.84054 0.91076,4.75015 3.23826,8.59069 7.0837,11.52163 4.95858,3.73948 9.91717,7.37789 14.87576,11.11737 11.94109,8.79282 18.11402,20.81979 19.02479,35.57556 0.50597,8.28749 -0.50598,16.37285 -4.55381,23.8518 -5.97054,11.3195 -15.48294,17.58565 -28.1324,18.79846 -14.97696,1.41493 -26.81685,-4.24482 -36.12685,-16.06965 -7.28609,-9.39923 -8.70283,-20.01125 -7.79207,-31.22969 2.22631,-0.3032 4.25022,-0.40426 6.27413,-0.9096 5.26218,-1.31387 8.39925,-5.25548 8.70283,-10.61203 0.70837,-9.60136 -2.83348,-17.48458 -9.2088,-24.4582 -4.95859,-5.45762 -11.53631,-7.68109 -18.31642,-9.50029 -2.226304,-0.60641 -4.553805,-1.01067 -6.881305,-1.31387 -1.315544,-0.20214 -1.922718,-0.80854 -2.226305,-2.12241 -2.833479,-11.9259 -2.023913,-23.5486 3.03587,-34.767031 7.184893,-16.069645 19.83435,-25.266738 37.03762,-28.298746 1.31554,-0.303201 2.52989,-0.404268 3.44065,-0.505335 z m 18.31641,148.770552 c 0.1012,0 0.2024,0 0.2024,0 0,-0.6064 0.10119,-1.11174 0.10119,-1.71814 0.60718,-6.16508 1.51794,-12.33017 3.13707,-18.39418 1.31554,-5.15442 4.45261,-8.18643 9.61359,-9.5003 1.01195,-0.20213 1.92271,-0.50533 2.93467,-0.70747 2.73228,-0.50533 5.46457,-0.9096 7.69087,-1.31387 -3.64304,-0.9096 -7.69087,-1.8192 -11.6375,-3.03201 -3.94663,-1.2128 -6.47652,-3.84054 -7.18489,-7.88322 -1.11316,-5.76081 -2.22631,-11.6227 -3.23826,-17.48458 -0.30359,-1.92027 -0.50598,-3.84054 -0.70837,-5.76082 -0.70837,3.94162 -1.01196,7.88323 -1.61914,11.82484 -0.80956,4.34588 -1.82152,8.69176 -2.83347,12.93657 -0.40479,1.92027 -1.61913,3.33521 -3.44066,4.04267 -2.63108,1.01067 -5.16098,2.12241 -7.89326,2.93095 -2.63109,0.70747 -5.36337,1.01067 -8.39924,1.61707 0.91076,0.20213 1.61913,0.3032 2.2263,0.50533 4.14903,1.21281 8.29805,2.32454 12.44707,3.63841 2.63109,0.80854 4.35142,2.72881 4.95859,5.55868 0.80957,3.53735 1.61913,7.07469 2.12511,10.7131 0.70837,4.04268 1.01196,7.98429 1.51793,12.02697 z"
                 id="path3449"
                 style="fill:#ef443b;fill-opacity:1;stroke-width:1.01131" />
              <path
                 class="st0"
                 d="m 158.03778,108.07075 c 0.1012,1.92027 0.20239,3.84054 0.40478,5.76081 0.70837,5.96295 3.44065,9.19709 9.20881,10.7131 2.42869,0.6064 4.655,1.516 6.37533,3.23414 2.52989,2.42561 3.74424,5.35655 2.93467,8.89389 -0.80957,3.23414 -2.73228,5.45762 -5.97054,6.36722 -3.33946,0.9096 -6.47653,0.20213 -9.20881,-1.71814 -6.78011,-4.64908 -9.91718,-11.0163 -9.10761,-19.30379 0.40478,-3.84054 1.01196,-7.68108 2.93467,-11.11736 0.60718,-1.11174 1.41674,-2.12241 2.12511,-3.13308 0.1012,0.20214 0.20239,0.30321 0.30359,0.30321 z"
                 id="path3451"
                 style="fill:#ef443b;fill-opacity:1;stroke-width:1.01131" />
              <path
                 class="st0"
                 d="m 125.35158,66.229028 c -3.23826,3.63841 -6.67892,7.175752 -9.71479,11.016302 -3.64304,4.64908 -6.37532,9.90456 -6.9825,15.76644 -1.11315,10.81416 1.82152,20.51659 9.91718,28.09661 5.05978,4.75015 13.66141,4.85122 19.22718,0.70747 0.20239,-0.10107 0.40478,-0.3032 0.70837,-0.50533 0.20239,1.41493 0.30358,2.62774 0.60717,3.84054 0.91076,4.75015 3.23826,8.59069 7.0837,11.52163 4.95858,3.73948 9.91717,7.37789 14.87576,11.11737 11.94109,8.79282 18.11402,20.81979 19.02479,35.57556 0.50597,8.28749 -0.50598,16.37285 -4.55381,23.8518 -5.97054,11.3195 -15.48294,17.58565 -28.1324,18.79846 -14.97696,1.41493 -26.81685,-4.24482 -36.12685,-16.06965 -7.28609,-9.39923 -8.70283,-20.01125 -7.79207,-31.22969 2.22631,-0.3032 4.25022,-0.40426 6.27413,-0.9096 5.26218,-1.31387 8.39925,-5.25548 8.70283,-10.61203 0.70837,-9.60136 -2.83348,-17.48458 -9.2088,-24.4582 -4.95859,-5.45762 -11.53631,-7.68109 -18.31642,-9.50029 -2.226304,-0.60641 -4.553805,-1.01067 -6.881305,-1.31387 -1.315544,-0.20214 -1.922718,-0.80854 -2.226305,-2.12241 -2.833479,-11.9259 -2.023913,-23.5486 3.03587,-34.76703 7.184893,-16.06965 19.83435,-25.266739 37.03762,-28.298747 1.31554,-0.303201 2.52989,-0.404268 3.44065,-0.505335 z m 18.31641,148.770552 c 0.1012,0 0.2024,0 0.2024,0 0,-0.6064 0.10119,-1.11174 0.10119,-1.71814 0.60718,-6.16508 1.51794,-12.33017 3.13707,-18.39418 1.31554,-5.15442 4.45261,-8.18643 9.61359,-9.5003 1.01195,-0.20213 1.92271,-0.50533 2.93467,-0.70747 2.73228,-0.50533 5.46457,-0.9096 7.69087,-1.31387 -3.64304,-0.9096 -7.69087,-1.8192 -11.6375,-3.03201 -3.94663,-1.2128 -6.47652,-3.84054 -7.18489,-7.88322 -1.11316,-5.76081 -2.22631,-11.6227 -3.23826,-17.48458 -0.30359,-1.92027 -0.50598,-3.84054 -0.70837,-5.76082 -0.70837,3.94162 -1.01196,7.88323 -1.61914,11.82484 -0.80956,4.34588 -1.82152,8.69176 -2.83347,12.93657 -0.40479,1.92027 -1.61913,3.33521 -3.44066,4.04267 -2.63108,1.01067 -5.16098,2.12241 -7.89326,2.93095 -2.63109,0.70747 -5.36337,1.01067 -8.39924,1.61707 0.91076,0.20213 1.61913,0.3032 2.2263,0.50533 4.14903,1.21281 8.29805,2.32454 12.44707,3.63841 2.63109,0.80854 4.35142,2.72881 4.95859,5.55868 0.80957,3.53735 1.61913,7.07469 2.12511,10.7131 0.70837,4.04268 1.01196,7.98429 1.51793,12.02697 z"
                 id="path3453"
                 style="fill:url(#linearGradient3461);fill-opacity:1;stroke-width:1.01131" />
            </g>
          </g>
        </g>
        <g
           id="g3765">
          <path
             style="color:#bebebe;display:inline;overflow:visible;visibility:visible;fill:#241f1c;fill-opacity:1;fill-rule:nonzero;stroke:none;stroke-width:2;marker:none;enable-background:accumulate"
             d="m 424,53.5 c -3.60654,0 -6.5,2.893464 -6.5,6.5 v 16 c 0,3.606536 2.89346,6.5 6.5,6.5 h 16 c 3.60654,0 6.5,-2.893464 6.5,-6.5 V 60 c 0,-3.606536 -2.89346,-6.5 -6.5,-6.5 z"
             id="path4206" />
          <g
             id="g3703"
             transform="matrix(0.13242009,0,0,0.13242009,412.93151,47.342466)">
            <g
               id="g3701"
               transform="matrix(1.1,0,0,1,0.75947627,9.7709675)"
               style="fill:#ef443b;fill-opacity:1">
              <path
                 class="st0"
                 d="m 125.35158,66.229028 c -3.23826,3.63841 -6.67892,7.175754 -9.71479,11.016298 -3.64304,4.649079 -6.37532,9.904561 -6.9825,15.766444 -1.11315,10.81416 1.82152,20.51659 9.91718,28.09661 5.05978,4.75015 13.66141,4.85122 19.22718,0.70747 0.20239,-0.10107 0.40478,-0.3032 0.70837,-0.50533 0.20239,1.41493 0.30358,2.62774 0.60717,3.84054 0.91076,4.75015 3.23826,8.59069 7.0837,11.52163 4.95858,3.73948 9.91717,7.37789 14.87576,11.11737 11.94109,8.79282 18.11402,20.81979 19.02479,35.57556 0.50597,8.28749 -0.50598,16.37285 -4.55381,23.8518 -5.97054,11.3195 -15.48294,17.58565 -28.1324,18.79846 -14.97696,1.41493 -26.81685,-4.24482 -36.12685,-16.06965 -7.28609,-9.39923 -8.70283,-20.01125 -7.79207,-31.22969 2.22631,-0.3032 4.25022,-0.40426 6.27413,-0.9096 5.26218,-1.31387 8.39925,-5.25548 8.70283,-10.61203 0.70837,-9.60136 -2.83348,-17.48458 -9.2088,-24.4582 -4.95859,-5.45762 -11.53631,-7.68109 -18.31642,-9.50029 -2.226304,-0.60641 -4.553805,-1.01067 -6.881305,-1.31387 -1.315544,-0.20214 -1.922718,-0.80854 -2.226305,-2.12241 -2.833479,-11.9259 -2.023913,-23.5486 3.03587,-34.767031 7.184893,-16.069645 19.83435,-25.266738 37.03762,-28.298746 1.31554,-0.303201 2.52989,-0.404268 3.44065,-0.505335 z m 18.31641,148.770552 c 0.1012,0 0.2024,0 0.2024,0 0,-0.6064 0.10119,-1.11174 0.10119,-1.71814 0.60718,-6.16508 1.51794,-12.33017 3.13707,-18.39418 1.31554,-5.15442 4.45261,-8.18643 9.61359,-9.5003 1.01195,-0.20213 1.92271,-0.50533 2.93467,-0.70747 2.73228,-0.50533 5.46457,-0.9096 7.69087,-1.31387 -3.64304,-0.9096 -7.69087,-1.8192 -11.6375,-3.03201 -3.94663,-1.2128 -6.47652,-3.84054 -7.18489,-7.88322 -1.11316,-5.76081 -2.22631,-11.6227 -3.23826,-17.48458 -0.30359,-1.92027 -0.50598,-3.84054 -0.70837,-5.76082 -0.70837,3.94162 -1.01196,7.88323 -1.61914,11.82484 -0.80956,4.34588 -1.82152,8.69176 -2.83347,12.93657 -0.40479,1.92027 -1.61913,3.33521 -3.44066,4.04267 -2.63108,1.01067 -5.16098,2.12241 -7.89326,2.93095 -2.63109,0.70747 -5.36337,1.01067 -8.39924,1.61707 0.91076,0.20213 1.61913,0.3032 2.2263,0.50533 4.14903,1.21281 8.29805,2.32454 12.44707,3.63841 2.63109,0.80854 4.35142,2.72881 4.95859,5.55868 0.80957,3.53735 1.61913,7.07469 2.12511,10.7131 0.70837,4.04268 1.01196,7.98429 1.51793,12.02697 z"
                 id="path3695"
                 style="fill:#ef443b;fill-opacity:1;stroke-width:1.01131" />
              <path
                 class="st0"
                 d="m 158.03778,108.07075 c 0.1012,1.92027 0.20239,3.84054 0.40478,5.76081 0.70837,5.96295 3.44065,9.19709 9.20881,10.7131 2.42869,0.6064 4.655,1.516 6.37533,3.23414 2.52989,2.42561 3.74424,5.35655 2.93467,8.89389 -0.80957,3.23414 -2.73228,5.45762 -5.97054,6.36722 -3.33946,0.9096 -6.47653,0.20213 -9.20881,-1.71814 -6.78011,-4.64908 -9.91718,-11.0163 -9.10761,-19.30379 0.40478,-3.84054 1.01196,-7.68108 2.93467,-11.11736 0.60718,-1.11174 1.41674,-2.12241 2.12511,-3.13308 0.1012,0.20214 0.20239,0.30321 0.30359,0.30321 z"
                 id="path3697"
                 style="fill:#ef443b;fill-opacity:1;stroke-width:1.01131" />
              <path
                 class="st0"
                 d="m 125.35158,66.229028 c -3.23826,3.63841 -6.67892,7.175752 -9.71479,11.016302 -3.64304,4.64908 -6.37532,9.90456 -6.9825,15.76644 -1.11315,10.81416 1.82152,20.51659 9.91718,28.09661 5.05978,4.75015 13.66141,4.85122 19.22718,0.70747 0.20239,-0.10107 0.40478,-0.3032 0.70837,-0.50533 0.20239,1.41493 0.30358,2.62774 0.60717,3.84054 0.91076,4.75015 3.23826,8.59069 7.0837,11.52163 4.95858,3.73948 9.91717,7.37789 14.87576,11.11737 11.94109,8.79282 18.11402,20.81979 19.02479,35.57556 0.50597,8.28749 -0.50598,16.37285 -4.55381,23.8518 -5.97054,11.3195 -15.48294,17.58565 -28.1324,18.79846 -14.97696,1.41493 -26.81685,-4.24482 -36.12685,-16.06965 -7.28609,-9.39923 -8.70283,-20.01125 -7.79207,-31.22969 2.22631,-0.3032 4.25022,-0.40426 6.27413,-0.9096 5.26218,-1.31387 8.39925,-5.25548 8.70283,-10.61203 0.70837,-9.60136 -2.83348,-17.48458 -9.2088,-24.4582 -4.95859,-5.45762 -11.53631,-7.68109 -18.31642,-9.50029 -2.226304,-0.60641 -4.553805,-1.01067 -6.881305,-1.31387 -1.315544,-0.20214 -1.922718,-0.80854 -2.226305,-2.12241 -2.833479,-11.9259 -2.023913,-23.5486 3.03587,-34.76703 7.184893,-16.06965 19.83435,-25.266739 37.03762,-28.298747 1.31554,-0.303201 2.52989,-0.404268 3.44065,-0.505335 z m 18.31641,148.770552 c 0.1012,0 0.2024,0 0.2024,0 0,-0.6064 0.10119,-1.11174 0.10119,-1.71814 0.60718,-6.16508 1.51794,-12.33017 3.13707,-18.39418 1.31554,-5.15442 4.45261,-8.18643 9.61359,-9.5003 1.01195,-0.20213 1.92271,-0.50533 2.93467,-0.70747 2.73228,-0.50533 5.46457,-0.9096 7.69087,-1.31387 -3.64304,-0.9096 -7.69087,-1.8192 -11.6375,-3.03201 -3.94663,-1.2128 -6.47652,-3.84054 -7.18489,-7.88322 -1.11316,-5.76081 -2.22631,-11.6227 -3.23826,-17.48458 -0.30359,-1.92027 -0.50598,-3.84054 -0.70837,-5.76082 -0.70837,3.94162 -1.01196,7.88323 -1.61914,11.82484 -0.80956,4.34588 -1.82152,8.69176 -2.83347,12.93657 -0.40479,1.92027 -1.61913,3.33521 -3.44066,4.04267 -2.63108,1.01067 -5.16098,2.12241 -7.89326,2.93095 -2.63109,0.70747 -5.36337,1.01067 -8.39924,1.61707 0.91076,0.20213 1.61913,0.3032 2.2263,0.50533 4.14903,1.21281 8.29805,2.32454 12.44707,3.63841 2.63109,0.80854 4.35142,2.72881 4.95859,5.55868 0.80957,3.53735 1.61913,7.07469 2.12511,10.7131 0.70837,4.04268 1.01196,7.98429 1.51793,12.02697 z"
                 id="path3699"
                 style="fill:url(#linearGradient3707);fill-opacity:1;stroke-width:1.01131" />
            </g>
          </g>
        </g>
        <g
           id="g3773">
          <path
             style="color:#bebebe;display:inline;overflow:visible;visibility:visible;fill:#241f1c;fill-opacity:1;fill-rule:nonzero;stroke:none;stroke-width:2;marker:none;enable-background:accumulate"
             d="m 422,101.5 c -2.49699,0 -4.5,2.00301 -4.5,4.5 v 12 c 0,2.49699 2.00301,4.5 4.5,4.5 h 12 c 2.49699,0 4.5,-2.00301 4.5,-4.5 v -12 c 0,-2.49699 -2.00301,-4.5 -4.5,-4.5 z"
             id="path4204" />
          <g
             id="g3719"
             transform="matrix(0.09589041,0,0,0.09589041,414.19178,97.041096)">
            <g
               id="g3717"
               transform="matrix(1.1,0,0,1,0.75947627,9.7709675)"
               style="fill:#ef443b;fill-opacity:1">
              <path
                 class="st0"
                 d="m 125.35158,66.229028 c -3.23826,3.63841 -6.67892,7.175754 -9.71479,11.016298 -3.64304,4.649079 -6.37532,9.904561 -6.9825,15.766444 -1.11315,10.81416 1.82152,20.51659 9.91718,28.09661 5.05978,4.75015 13.66141,4.85122 19.22718,0.70747 0.20239,-0.10107 0.40478,-0.3032 0.70837,-0.50533 0.20239,1.41493 0.30358,2.62774 0.60717,3.84054 0.91076,4.75015 3.23826,8.59069 7.0837,11.52163 4.95858,3.73948 9.91717,7.37789 14.87576,11.11737 11.94109,8.79282 18.11402,20.81979 19.02479,35.57556 0.50597,8.28749 -0.50598,16.37285 -4.55381,23.8518 -5.97054,11.3195 -15.48294,17.58565 -28.1324,18.79846 -14.97696,1.41493 -26.81685,-4.24482 -36.12685,-16.06965 -7.28609,-9.39923 -8.70283,-20.01125 -7.79207,-31.22969 2.22631,-0.3032 4.25022,-0.40426 6.27413,-0.9096 5.26218,-1.31387 8.39925,-5.25548 8.70283,-10.61203 0.70837,-9.60136 -2.83348,-17.48458 -9.2088,-24.4582 -4.95859,-5.45762 -11.53631,-7.68109 -18.31642,-9.50029 -2.226304,-0.60641 -4.553805,-1.01067 -6.881305,-1.31387 -1.315544,-0.20214 -1.922718,-0.80854 -2.226305,-2.12241 -2.833479,-11.9259 -2.023913,-23.5486 3.03587,-34.767031 7.184893,-16.069645 19.83435,-25.266738 37.03762,-28.298746 1.31554,-0.303201 2.52989,-0.404268 3.44065,-0.505335 z m 18.31641,148.770552 c 0.1012,0 0.2024,0 0.2024,0 0,-0.6064 0.10119,-1.11174 0.10119,-1.71814 0.60718,-6.16508 1.51794,-12.33017 3.13707,-18.39418 1.31554,-5.15442 4.45261,-8.18643 9.61359,-9.5003 1.01195,-0.20213 1.92271,-0.50533 2.93467,-0.70747 2.73228,-0.50533 5.46457,-0.9096 7.69087,-1.31387 -3.64304,-0.9096 -7.69087,-1.8192 -11.6375,-3.03201 -3.94663,-1.2128 -6.47652,-3.84054 -7.18489,-7.88322 -1.11316,-5.76081 -2.22631,-11.6227 -3.23826,-17.48458 -0.30359,-1.92027 -0.50598,-3.84054 -0.70837,-5.76082 -0.70837,3.94162 -1.01196,7.88323 -1.61914,11.82484 -0.80956,4.34588 -1.82152,8.69176 -2.83347,12.93657 -0.40479,1.92027 -1.61913,3.33521 -3.44066,4.04267 -2.63108,1.01067 -5.16098,2.12241 -7.89326,2.93095 -2.63109,0.70747 -5.36337,1.01067 -8.39924,1.61707 0.91076,0.20213 1.61913,0.3032 2.2263,0.50533 4.14903,1.21281 8.29805,2.32454 12.44707,3.63841 2.63109,0.80854 4.35142,2.72881 4.95859,5.55868 0.80957,3.53735 1.61913,7.07469 2.12511,10.7131 0.70837,4.04268 1.01196,7.98429 1.51793,12.02697 z"
                 id="path3711"
                 style="fill:#ef443b;fill-opacity:1;stroke-width:1.01131" />
              <path
                 class="st0"
                 d="m 158.03778,108.07075 c 0.1012,1.92027 0.20239,3.84054 0.40478,5.76081 0.70837,5.96295 3.44065,9.19709 9.20881,10.7131 2.42869,0.6064 4.655,1.516 6.37533,3.23414 2.52989,2.42561 3.74424,5.35655 2.93467,8.89389 -0.80957,3.23414 -2.73228,5.45762 -5.97054,6.36722 -3.33946,0.9096 -6.47653,0.20213 -9.20881,-1.71814 -6.78011,-4.64908 -9.91718,-11.0163 -9.10761,-19.30379 0.40478,-3.84054 1.01196,-7.68108 2.93467,-11.11736 0.60718,-1.11174 1.41674,-2.12241 2.12511,-3.13308 0.1012,0.20214 0.20239,0.30321 0.30359,0.30321 z"
                 id="path3713"
                 style="fill:#ef443b;fill-opacity:1;stroke-width:1.01131" />
              <path
                 class="st0"
                 d="m 125.35158,66.229028 c -3.23826,3.63841 -6.67892,7.175752 -9.71479,11.016302 -3.64304,4.64908 -6.37532,9.90456 -6.9825,15.76644 -1.11315,10.81416 1.82152,20.51659 9.91718,28.09661 5.05978,4.75015 13.66141,4.85122 19.22718,0.70747 0.20239,-0.10107 0.40478,-0.3032 0.70837,-0.50533 0.20239,1.41493 0.30358,2.62774 0.60717,3.84054 0.91076,4.75015 3.23826,8.59069 7.0837,11.52163 4.95858,3.73948 9.91717,7.37789 14.87576,11.11737 11.94109,8.79282 18.11402,20.81979 19.02479,35.57556 0.50597,8.28749 -0.50598,16.37285 -4.55381,23.8518 -5.97054,11.3195 -15.48294,17.58565 -28.1324,18.79846 -14.97696,1.41493 -26.81685,-4.24482 -36.12685,-16.06965 -7.28609,-9.39923 -8.70283,-20.01125 -7.79207,-31.22969 2.22631,-0.3032 4.25022,-0.40426 6.27413,-0.9096 5.26218,-1.31387 8.39925,-5.25548 8.70283,-10.61203 0.70837,-9.60136 -2.83348,-17.48458 -9.2088,-24.4582 -4.95859,-5.45762 -11.53631,-7.68109 -18.31642,-9.50029 -2.226304,-0.60641 -4.553805,-1.01067 -6.881305,-1.31387 -1.315544,-0.20214 -1.922718,-0.80854 -2.226305,-2.12241 -2.833479,-11.9259 -2.023913,-23.5486 3.03587,-34.76703 7.184893,-16.06965 19.83435,-25.266739 37.03762,-28.298747 1.31554,-0.303201 2.52989,-0.404268 3.44065,-0.505335 z m 18.31641,148.770552 c 0.1012,0 0.2024,0 0.2024,0 0,-0.6064 0.10119,-1.11174 0.10119,-1.71814 0.60718,-6.16508 1.51794,-12.33017 3.13707,-18.39418 1.31554,-5.15442 4.45261,-8.18643 9.61359,-9.5003 1.01195,-0.20213 1.92271,-0.50533 2.93467,-0.70747 2.73228,-0.50533 5.46457,-0.9096 7.69087,-1.31387 -3.64304,-0.9096 -7.69087,-1.8192 -11.6375,-3.03201 -3.94663,-1.2128 -6.47652,-3.84054 -7.18489,-7.88322 -1.11316,-5.76081 -2.22631,-11.6227 -3.23826,-17.48458 -0.30359,-1.92027 -0.50598,-3.84054 -0.70837,-5.76082 -0.70837,3.94162 -1.01196,7.88323 -1.61914,11.82484 -0.80956,4.34588 -1.82152,8.69176 -2.83347,12.93657 -0.40479,1.92027 -1.61913,3.33521 -3.44066,4.04267 -2.63108,1.01067 -5.16098,2.12241 -7.89326,2.93095 -2.63109,0.70747 -5.36337,1.01067 -8.39924,1.61707 0.91076,0.20213 1.61913,0.3032 2.2263,0.50533 4.14903,1.21281 8.29805,2.32454 12.44707,3.63841 2.63109,0.80854 4.35142,2.72881 4.95859,5.55868 0.80957,3.53735 1.61913,7.07469 2.12511,10.7131 0.70837,4.04268 1.01196,7.98429 1.51793,12.02697 z"
                 id="path3715"
                 style="fill:url(#linearGradient3723);fill-opacity:1;stroke-width:1.01131" />
            </g>
          </g>
        </g>
        <g
           id="g3781">
          <path
             style="color:#bebebe;display:inline;overflow:visible;visibility:visible;fill:#241f1c;fill-opacity:1;fill-rule:nonzero;stroke:none;stroke-width:2;marker:none;enable-background:accumulate"
             d="m 419,140.5 c -1.3844,0 -2.5,1.1156 -2.5,2.5 v 10 c 0,1.3844 1.1156,2.5 2.5,2.5 h 10 c 1.3844,0 2.5,-1.1156 2.5,-2.5 v -10 c 0,-1.3844 -1.1156,-2.5 -2.5,-2.5 z"
             id="path4202" />
          <g
             id="g3735"
             transform="matrix(0.06849315,0,0,0.06849315,414.13699,137.31507)">
            <g
               id="g3733"
               transform="matrix(1.1,0,0,1,0.75947627,9.7709675)"
               style="fill:#ef443b;fill-opacity:1">
              <path
                 class="st0"
                 d="m 125.35158,66.229028 c -3.23826,3.63841 -6.67892,7.175754 -9.71479,11.016298 -3.64304,4.649079 -6.37532,9.904561 -6.9825,15.766444 -1.11315,10.81416 1.82152,20.51659 9.91718,28.09661 5.05978,4.75015 13.66141,4.85122 19.22718,0.70747 0.20239,-0.10107 0.40478,-0.3032 0.70837,-0.50533 0.20239,1.41493 0.30358,2.62774 0.60717,3.84054 0.91076,4.75015 3.23826,8.59069 7.0837,11.52163 4.95858,3.73948 9.91717,7.37789 14.87576,11.11737 11.94109,8.79282 18.11402,20.81979 19.02479,35.57556 0.50597,8.28749 -0.50598,16.37285 -4.55381,23.8518 -5.97054,11.3195 -15.48294,17.58565 -28.1324,18.79846 -14.97696,1.41493 -26.81685,-4.24482 -36.12685,-16.06965 -7.28609,-9.39923 -8.70283,-20.01125 -7.79207,-31.22969 2.22631,-0.3032 4.25022,-0.40426 6.27413,-0.9096 5.26218,-1.31387 8.39925,-5.25548 8.70283,-10.61203 0.70837,-9.60136 -2.83348,-17.48458 -9.2088,-24.4582 -4.95859,-5.45762 -11.53631,-7.68109 -18.31642,-9.50029 -2.226304,-0.60641 -4.553805,-1.01067 -6.881305,-1.31387 -1.315544,-0.20214 -1.922718,-0.80854 -2.226305,-2.12241 -2.833479,-11.9259 -2.023913,-23.5486 3.03587,-34.767031 7.184893,-16.069645 19.83435,-25.266738 37.03762,-28.298746 1.31554,-0.303201 2.52989,-0.404268 3.44065,-0.505335 z m 18.31641,148.770552 c 0.1012,0 0.2024,0 0.2024,0 0,-0.6064 0.10119,-1.11174 0.10119,-1.71814 0.60718,-6.16508 1.51794,-12.33017 3.13707,-18.39418 1.31554,-5.15442 4.45261,-8.18643 9.61359,-9.5003 1.01195,-0.20213 1.92271,-0.50533 2.93467,-0.70747 2.73228,-0.50533 5.46457,-0.9096 7.69087,-1.31387 -3.64304,-0.9096 -7.69087,-1.8192 -11.6375,-3.03201 -3.94663,-1.2128 -6.47652,-3.84054 -7.18489,-7.88322 -1.11316,-5.76081 -2.22631,-11.6227 -3.23826,-17.48458 -0.30359,-1.92027 -0.50598,-3.84054 -0.70837,-5.76082 -0.70837,3.94162 -1.01196,7.88323 -1.61914,11.82484 -0.80956,4.34588 -1.82152,8.69176 -2.83347,12.93657 -0.40479,1.92027 -1.61913,3.33521 -3.44066,4.04267 -2.63108,1.01067 -5.16098,2.12241 -7.89326,2.93095 -2.63109,0.70747 -5.36337,1.01067 -8.39924,1.61707 0.91076,0.20213 1.61913,0.3032 2.2263,0.50533 4.14903,1.21281 8.29805,2.32454 12.44707,3.63841 2.63109,0.80854 4.35142,2.72881 4.95859,5.55868 0.80957,3.53735 1.61913,7.07469 2.12511,10.7131 0.70837,4.04268 1.01196,7.98429 1.51793,12.02697 z"
                 id="path3727"
                 style="fill:#ef443b;fill-opacity:1;stroke-width:1.01131" />
              <path
                 class="st0"
                 d="m 158.03778,108.07075 c 0.1012,1.92027 0.20239,3.84054 0.40478,5.76081 0.70837,5.96295 3.44065,9.19709 9.20881,10.7131 2.42869,0.6064 4.655,1.516 6.37533,3.23414 2.52989,2.42561 3.74424,5.35655 2.93467,8.89389 -0.80957,3.23414 -2.73228,5.45762 -5.97054,6.36722 -3.33946,0.9096 -6.47653,0.20213 -9.20881,-1.71814 -6.78011,-4.64908 -9.91718,-11.0163 -9.10761,-19.30379 0.40478,-3.84054 1.01196,-7.68108 2.93467,-11.11736 0.60718,-1.11174 1.41674,-2.12241 2.12511,-3.13308 0.1012,0.20214 0.20239,0.30321 0.30359,0.30321 z"
                 id="path3729"
                 style="fill:#ef443b;fill-opacity:1;stroke-width:1.01131" />
              <path
                 class="st0"
                 d="m 125.35158,66.229028 c -3.23826,3.63841 -6.67892,7.175752 -9.71479,11.016302 -3.64304,4.64908 -6.37532,9.90456 -6.9825,15.76644 -1.11315,10.81416 1.82152,20.51659 9.91718,28.09661 5.05978,4.75015 13.66141,4.85122 19.22718,0.70747 0.20239,-0.10107 0.40478,-0.3032 0.70837,-0.50533 0.20239,1.41493 0.30358,2.62774 0.60717,3.84054 0.91076,4.75015 3.23826,8.59069 7.0837,11.52163 4.95858,3.73948 9.91717,7.37789 14.87576,11.11737 11.94109,8.79282 18.11402,20.81979 19.02479,35.57556 0.50597,8.28749 -0.50598,16.37285 -4.55381,23.8518 -5.97054,11.3195 -15.48294,17.58565 -28.1324,18.79846 -14.97696,1.41493 -26.81685,-4.24482 -36.12685,-16.06965 -7.28609,-9.39923 -8.70283,-20.01125 -7.79207,-31.22969 2.22631,-0.3032 4.25022,-0.40426 6.27413,-0.9096 5.26218,-1.31387 8.39925,-5.25548 8.70283,-10.61203 0.70837,-9.60136 -2.83348,-17.48458 -9.2088,-24.4582 -4.95859,-5.45762 -11.53631,-7.68109 -18.31642,-9.50029 -2.226304,-0.60641 -4.553805,-1.01067 -6.881305,-1.31387 -1.315544,-0.20214 -1.922718,-0.80854 -2.226305,-2.12241 -2.833479,-11.9259 -2.023913,-23.5486 3.03587,-34.76703 7.184893,-16.06965 19.83435,-25.266739 37.03762,-28.298747 1.31554,-0.303201 2.52989,-0.404268 3.44065,-0.505335 z m 18.31641,148.770552 c 0.1012,0 0.2024,0 0.2024,0 0,-0.6064 0.10119,-1.11174 0.10119,-1.71814 0.60718,-6.16508 1.51794,-12.33017 3.13707,-18.39418 1.31554,-5.15442 4.45261,-8.18643 9.61359,-9.5003 1.01195,-0.20213 1.92271,-0.50533 2.93467,-0.70747 2.73228,-0.50533 5.46457,-0.9096 7.69087,-1.31387 -3.64304,-0.9096 -7.69087,-1.8192 -11.6375,-3.03201 -3.94663,-1.2128 -6.47652,-3.84054 -7.18489,-7.88322 -1.11316,-5.76081 -2.22631,-11.6227 -3.23826,-17.48458 -0.30359,-1.92027 -0.50598,-3.84054 -0.70837,-5.76082 -0.70837,3.94162 -1.01196,7.88323 -1.61914,11.82484 -0.80956,4.34588 -1.82152,8.69176 -2.83347,12.93657 -0.40479,1.92027 -1.61913,3.33521 -3.44066,4.04267 -2.63108,1.01067 -5.16098,2.12241 -7.89326,2.93095 -2.63109,0.70747 -5.36337,1.01067 -8.39924,1.61707 0.91076,0.20213 1.61913,0.3032 2.2263,0.50533 4.14903,1.21281 8.29805,2.32454 12.44707,3.63841 2.63109,0.80854 4.35142,2.72881 4.95859,5.55868 0.80957,3.53735 1.61913,7.07469 2.12511,10.7131 0.70837,4.04268 1.01196,7.98429 1.51793,12.02697 z"
                 id="path3731"
                 style="fill:url(#linearGradient3739);fill-opacity:1;stroke-width:1.01131" />
            </g>
          </g>
        </g>
      </g>
    </g>
    <g
       inkscape:groupmode="layer"
       id="layer6"
       inkscape:label="Symbols"
       style="display:inline" />
    <g
       inkscape:groupmode="layer"
       id="layer5"
       inkscape:label="Highlights"
       style="display:inline"
       sodipodi:insensitive="true">
      <path
         style="opacity:0.12999998;color:#bebebe;fill:#ffffff;fill-opacity:1;fill-rule:nonzero;stroke:none;stroke-width:0;marker:none;visibility:visible;display:inline;overflow:visible;enable-background:accumulate"
         d="M 84,47 C 56.836703,47 35,68.836703 35,96 l 0,1 C 35,69.836703 56.836703,48 84,48 l 120,0 c 27.1633,0 49,21.836703 49,49 l 0,-1 C 253,68.836703 231.1633,47 204,47 L 84,47 z"
         id="rect3894"
         inkscape:connector-curvature="0" />
      <path
         style="opacity:0.12999998;color:#bebebe;fill:#ffffff;fill-opacity:1;fill-rule:nonzero;stroke:none;stroke-width:0;marker:none;visibility:visible;display:inline;overflow:visible;enable-background:accumulate"
         d="m 419,141 c -1.1253,0 -2,0.8747 -2,2 l 0,1 c 0,-1.1253 0.8747,-2 2,-2 l 10,0 c 1.1253,0 2,0.8747 2,2 l 0,-1 c 0,-1.1253 -0.8747,-2 -2,-2 l -10,0 z"
         id="rect3896"
         inkscape:connector-curvature="0" />
      <path
         style="opacity:0.12999998;color:#bebebe;fill:#ffffff;fill-opacity:1;fill-rule:nonzero;stroke:none;stroke-width:0;marker:none;visibility:visible;display:inline;overflow:visible;enable-background:accumulate"
         d="m 422,102 c -2.2333,0 -4,1.7667 -4,4 l 0,1 c 0,-2.2333 1.7667,-4 4,-4 l 12,0 c 2.2333,0 4,1.7667 4,4 l 0,-1 c 0,-2.2333 -1.7667,-4 -4,-4 l -12,0 z"
         id="rect3898"
         inkscape:connector-curvature="0" />
      <path
         style="opacity:0.12999998;color:#bebebe;fill:#ffffff;fill-opacity:1;fill-rule:nonzero;stroke:none;stroke-width:0;marker:none;visibility:visible;display:inline;overflow:visible;enable-background:accumulate"
         d="m 424,54 c -3.3413,0 -6,2.658703 -6,6 l 0,1 c 0,-3.341297 2.6587,-6 6,-6 l 16,0 c 3.3413,0 6,2.658703 6,6 l 0,-1 c 0,-3.341297 -2.6587,-6 -6,-6 l -16,0 z"
         id="rect3900"
         inkscape:connector-curvature="0" />
      <path
         style="opacity:0.12999998;color:#bebebe;fill:#ffffff;fill-opacity:1;fill-rule:nonzero;stroke:none;stroke-width:0;marker:none;visibility:visible;display:inline;overflow:visible;enable-background:accumulate"
         d="m 300,224 c -4.4493,0 -8,3.5507 -8,8 l 0,1 c 0,-4.4493 3.5507,-8 8,-8 l 24,0 c 4.4493,0 8,3.5507 8,8 l 0,-1 c 0,-4.4493 -3.5507,-8 -8,-8 l -24,0 z"
         id="rect3902"
         inkscape:connector-curvature="0" />
      <path
         style="opacity:0.12999998;color:#bebebe;fill:#ffffff;fill-opacity:1;fill-rule:nonzero;stroke:none;stroke-width:0;marker:none;visibility:visible;display:inline;overflow:visible;enable-background:accumulate"
         d="m 310,33 c -9.4353,0 -17,7.564703 -17,17 l 0,1 c 0,-9.435297 7.5647,-17 17,-17 l 52,0 c 9.4353,0 17,7.564703 17,17 l 0,-1 c 0,-9.435297 -7.5647,-17 -17,-17 l -52,0 z"
         id="rect3904"
         inkscape:connector-curvature="0" />
      <path
         style="opacity:0.12999998;color:#bebebe;fill:#ffffff;fill-opacity:1;fill-rule:nonzero;stroke:none;stroke-width:0;marker:none;visibility:visible;display:inline;overflow:visible;enable-background:accumulate"
         d="m 302.5,143 c -6.3883,0 -11.5,5.1117 -11.5,11.5 l 0,1 c 0,-6.3883 5.1117,-11.5 11.5,-11.5 l 35,0 c 6.3883,0 11.5,5.1117 11.5,11.5 l 0,-1 c 0,-6.3883 -5.1117,-11.5 -11.5,-11.5 l -35,0 z"
         id="rect3906"
         inkscape:connector-curvature="0" />
      <path
         id="path4085"
         d="m 204,266 c 27.1633,0 49,-21.8367 49,-49 l 0,-1 c 0,27.1633 -21.8367,49 -49,49 L 84,265 C 56.8367,265 35,243.1633 35,216 l 0,1 c 0,27.1633 21.8367,49 49,49 l 120,0 z"
         style="opacity:0.41;color:#bebebe;fill:#000000;fill-opacity:1;fill-rule:nonzero;stroke:none;stroke-width:0;marker:none;visibility:visible;display:inline;overflow:visible;enable-background:accumulate"
         inkscape:connector-curvature="0" />
      <path
         id="path4087"
         d="m 429,156 c 1.1253,0 2,-0.8747 2,-2 l 0,-1 c 0,1.1253 -0.8747,2 -2,2 l -10,0 c -1.1253,0 -2,-0.8747 -2,-2 l 0,1 c 0,1.1253 0.8747,2 2,2 l 10,0 z"
         style="opacity:0.3;color:#bebebe;fill:#000000;fill-opacity:1;fill-rule:nonzero;stroke:none;stroke-width:0;marker:none;visibility:visible;display:inline;overflow:visible;enable-background:accumulate"
         inkscape:connector-curvature="0" />
      <path
         id="path4089"
         d="m 434,123 c 2.2333,0 4,-1.7667 4,-4 l 0,-1 c 0,2.2333 -1.7667,4 -4,4 l -12,0 c -2.2333,0 -4,-1.7667 -4,-4 l 0,1 c 0,2.2333 1.7667,4 4,4 l 12,0 z"
         style="opacity:0.3;color:#bebebe;fill:#000000;fill-opacity:1;fill-rule:nonzero;stroke:none;stroke-width:0;marker:none;visibility:visible;display:inline;overflow:visible;enable-background:accumulate"
         inkscape:connector-curvature="0" />
      <path
         id="path4091"
         d="m 440,83 c 3.3413,0 6,-2.6587 6,-6 l 0,-1 c 0,3.3413 -2.6587,6 -6,6 l -16,0 c -3.3413,0 -6,-2.6587 -6,-6 l 0,1 c 0,3.3413 2.6587,6 6,6 l 16,0 z"
         style="opacity:0.41;color:#bebebe;fill:#000000;fill-opacity:1;fill-rule:nonzero;stroke:none;stroke-width:0;marker:none;visibility:visible;display:inline;overflow:visible;enable-background:accumulate"
         inkscape:connector-curvature="0" />
      <path
         id="path4093"
         d="m 324,265 c 4.4493,0 8,-3.5507 8,-8 l 0,-1 c 0,4.4493 -3.5507,8 -8,8 l -24,0 c -4.4493,0 -8,-3.5507 -8,-8 l 0,1 c 0,4.4493 3.5507,8 8,8 l 24,0 z"
         style="opacity:0.41;color:#bebebe;fill:#000000;fill-opacity:1;fill-rule:nonzero;stroke:none;stroke-width:0;marker:none;visibility:visible;display:inline;overflow:visible;enable-background:accumulate"
         inkscape:connector-curvature="0" />
      <path
         id="path4095"
         d="m 362,120 c 9.4353,0 17,-7.5647 17,-17 l 0,-1 c 0,9.4353 -7.5647,17 -17,17 l -52,0 c -9.4353,0 -17,-7.5647 -17,-17 l 0,1 c 0,9.4353 7.5647,17 17,17 l 52,0 z"
         style="opacity:0.41;color:#bebebe;fill:#000000;fill-opacity:1;fill-rule:nonzero;stroke:none;stroke-width:0;marker:none;visibility:visible;display:inline;overflow:visible;enable-background:accumulate"
         inkscape:connector-curvature="0" />
      <path
         id="path4097"
         d="m 337.5,202 c 6.3883,0 11.5,-5.1117 11.5,-11.5 l 0,-1 c 0,6.3883 -5.1117,11.5 -11.5,11.5 l -35,0 c -6.3883,0 -11.5,-5.1117 -11.5,-11.5 l 0,1 c 0,6.3883 5.1117,11.5 11.5,11.5 l 35,0 z"
         style="opacity:0.41;color:#bebebe;fill:#000000;fill-opacity:1;fill-rule:nonzero;stroke:none;stroke-width:0;marker:none;visibility:visible;display:inline;overflow:visible;enable-background:accumulate"
         inkscape:connector-curvature="0" />
      <path
         inkscape:connector-curvature="0"
         id="path4280"
         d="M 84,265 C 56.836703,265 35,243.1633 35,216 l 0,-1 c 0,27.1633 21.836703,49 49,49 l 120,0 c 27.1633,0 49,-21.8367 49,-49 l 0,1 c 0,27.1633 -21.8367,49 -49,49 l -120,0 z"
         style="opacity:0.1;color:#bebebe;fill:#ffffff;fill-opacity:1;fill-rule:nonzero;stroke:none;stroke-width:0;marker:none;visibility:visible;display:inline;overflow:visible;enable-background:accumulate" />
      <path
         style="opacity:0.1;color:#bebebe;fill:#ffffff;fill-opacity:1;fill-rule:nonzero;stroke:none;stroke-width:0;marker:none;visibility:visible;display:inline;overflow:visible;enable-background:accumulate"
         d="m 300,264 c -4.4493,0 -8,-3.5507 -8,-8 l 0,-1 c 0,4.4493 3.5507,8 8,8 l 24,0 c 4.4493,0 8,-3.5507 8,-8 l 0,1 c 0,4.4493 -3.5507,8 -8,8 l -24,0 z"
         id="path4294"
         inkscape:connector-curvature="0" />
      <path
         style="opacity:0.1;color:#bebebe;fill:#ffffff;fill-opacity:1;fill-rule:nonzero;stroke:none;stroke-width:0;marker:none;visibility:visible;display:inline;overflow:visible;enable-background:accumulate"
         d="m 302.5,201 c -6.3883,0 -11.5,-5.1117 -11.5,-11.5 l 0,-1 c 0,6.3883 5.1117,11.5 11.5,11.5 l 35,0 c 6.3883,0 11.5,-5.1117 11.5,-11.5 l 0,1 c 0,6.3883 -5.1117,11.5 -11.5,11.5 l -35,0 z"
         id="path4296"
         inkscape:connector-curvature="0" />
      <path
         style="opacity:0.1;color:#bebebe;fill:#ffffff;fill-opacity:1;fill-rule:nonzero;stroke:none;stroke-width:0;marker:none;visibility:visible;display:inline;overflow:visible;enable-background:accumulate"
         d="m 310,119 c -9.4353,0 -17,-7.5647 -17,-17 l 0,-1 c 0,9.4353 7.5647,17 17,17 l 52,0 c 9.4353,0 17,-7.5647 17,-17 l 0,1 c 0,9.4353 -7.5647,17 -17,17 l -52,0 z"
         id="path4298"
         inkscape:connector-curvature="0" />
      <path
         style="opacity:0.1;color:#bebebe;fill:#ffffff;fill-opacity:1;fill-rule:nonzero;stroke:none;stroke-width:0;marker:none;visibility:visible;display:inline;overflow:visible;enable-background:accumulate"
         d="m 424,82 c -3.3413,0 -6,-2.658703 -6,-6 l 0,-1 c 0,3.341297 2.6587,6 6,6 l 16,0 c 3.3413,0 6,-2.658703 6,-6 l 0,1 c 0,3.341297 -2.6587,6 -6,6 l -16,0 z"
         id="path4300"
         inkscape:connector-curvature="0" />
      <path
         style="opacity:0.1;color:#bebebe;fill:#ffffff;fill-opacity:1;fill-rule:nonzero;stroke:none;stroke-width:0;marker:none;visibility:visible;display:inline;overflow:visible;enable-background:accumulate"
         d="m 422,122 c -2.2333,0 -4,-1.7667 -4,-4 l 0,-1 c 0,2.2333 1.7667,4 4,4 l 12,0 c 2.2333,0 4,-1.7667 4,-4 l 0,1 c 0,2.2333 -1.7667,4 -4,4 l -12,0 z"
         id="path4302"
         inkscape:connector-curvature="0" />
      <path
         style="opacity:0.1;color:#bebebe;fill:#ffffff;fill-opacity:1;fill-rule:nonzero;stroke:none;stroke-width:0;marker:none;visibility:visible;display:inline;overflow:visible;enable-background:accumulate"
         d="m 419,154.5 c -1.1253,0 -2,-0.8747 -2,-2 l 0,-1 c 0,1.1253 0.8747,2 2,2 l 10,0 c 1.1253,0 2,-0.8747 2,-2 l 0,1 c 0,1.1253 -0.8747,2 -2,2 l -10,0 z"
         id="path4304"
         inkscape:connector-curvature="0" />
    </g>
    <g
       inkscape:groupmode="layer"
       id="layer3"
       inkscape:label="Border"
       style="display:inline"
       sodipodi:insensitive="true">
      <path
         style="opacity:0.41;color:#bebebe;fill:#000000;fill-opacity:1;fill-rule:nonzero;stroke:none;stroke-width:0;marker:none;visibility:visible;display:inline;overflow:visible;enable-background:accumulate"
         d="m 422,101 c -2.77,0 -5,2.23 -5,5 l 0,12 c 0,2.77 2.23,5 5,5 l 12,0 c 2.77,0 5,-2.23 5,-5 l 0,-12 c 0,-2.77 -2.23,-5 -5,-5 l -12,0 z m 0,1 12,0 c 2.2333,0 4,1.7667 4,4 l 0,12 c 0,2.2333 -1.7667,4 -4,4 l -12,0 c -2.2333,0 -4,-1.7667 -4,-4 l 0,-12 c 0,-2.2333 1.7667,-4 4,-4 z"
         id="rect4099"
         inkscape:connector-curvature="0" />
      <path
         style="opacity:0.41;color:#bebebe;fill:#000000;fill-opacity:1;fill-rule:nonzero;stroke:none;stroke-width:0;marker:none;visibility:visible;display:inline;overflow:visible;enable-background:accumulate"
         d="m 424,53 c -3.878,0 -7,3.122 -7,7 l 0,16 c 0,3.878 3.122,7 7,7 l 16,0 c 3.878,0 7,-3.122 7,-7 l 0,-16 c 0,-3.878 -3.122,-7 -7,-7 l -16,0 z m 0,1 16,0 c 3.3413,0 6,2.658703 6,6 l 0,16 c 0,3.341297 -2.6587,6 -6,6 l -16,0 c -3.3413,0 -6,-2.658703 -6,-6 l 0,-16 c 0,-3.341297 2.6587,-6 6,-6 z"
         id="rect4151"
         inkscape:connector-curvature="0" />
      <path
         style="opacity:0.41;color:#bebebe;fill:#000000;fill-opacity:1;fill-rule:nonzero;stroke:none;stroke-width:0;marker:none;visibility:visible;display:inline;overflow:visible;enable-background:accumulate"
         d="m 419,140 c -1.662,0 -3,1.338 -3,3 l 0,10 c 0,1.662 1.338,3 3,3 l 10,0 c 1.662,0 3,-1.338 3,-3 l 0,-10 c 0,-1.662 -1.338,-3 -3,-3 l -10,0 z m 0,1 10,0 c 1.1253,0 2,0.8747 2,2 l 0,10 c 0,1.1253 -0.8747,2 -2,2 l -10,0 c -1.1253,0 -2,-0.8747 -2,-2 l 0,-10 c 0,-1.1253 0.8747,-2 2,-2 z"
         id="rect4095"
         inkscape:connector-curvature="0" />
      <path
         style="opacity:0.41;color:#bebebe;fill:#000000;fill-opacity:1;fill-rule:nonzero;stroke:none;stroke-width:0;marker:none;visibility:visible;display:inline;overflow:visible;enable-background:accumulate"
         d="m 300,223 c -4.986,0 -9,4.014 -9,9 l 0,24 c 0,4.986 4.014,9 9,9 l 24,0 c 4.986,0 9,-4.014 9,-9 l 0,-24 c 0,-4.986 -4.014,-9 -9,-9 l -24,0 z m 0,1 24,0 c 4.4493,0 8,3.5507 8,8 l 0,24 c 0,4.4493 -3.5507,8 -8,8 l -24,0 c -4.4493,0 -8,-3.5507 -8,-8 l 0,-24 c 0,-4.4493 3.5507,-8 8,-8 z"
         id="rect4783"
         inkscape:connector-curvature="0" />
      <path
         style="opacity:0.41;color:#bebebe;fill:#000000;fill-opacity:1;fill-rule:nonzero;stroke:none;stroke-width:0;marker:none;visibility:visible;display:inline;overflow:visible;enable-background:accumulate"
         d="m 302.5,142 c -6.925,0 -12.5,5.575 -12.5,12.5 l 0,35 c 0,6.925 5.575,12.5 12.5,12.5 l 35,0 c 6.925,0 12.5,-5.575 12.5,-12.5 l 0,-35 c 0,-6.925 -5.575,-12.5 -12.5,-12.5 l -35,0 z m 0,1 35,0 c 6.3883,0 11.5,5.1117 11.5,11.5 l 0,35 c 0,6.3883 -5.1117,11.5 -11.5,11.5 l -35,0 c -6.3883,0 -11.5,-5.1117 -11.5,-11.5 l 0,-35 c 0,-6.3883 5.1117,-11.5 11.5,-11.5 z"
         id="rect4515"
         inkscape:connector-curvature="0" />
      <path
         style="opacity:0.41;color:#bebebe;fill:#000000;fill-opacity:1;fill-rule:nonzero;stroke:none;stroke-width:0;marker:none;visibility:visible;display:inline;overflow:visible;enable-background:accumulate"
         d="m 310,32 c -9.972,0 -18,8.028 -18,18 l 0,52 c 0,9.972 8.028,18 18,18 l 52,0 c 9.972,0 18,-8.028 18,-18 l 0,-52 c 0,-9.972 -8.028,-18 -18,-18 l -52,0 z m 0,1 52,0 c 9.4353,0 17,7.564703 17,17 l 0,52 c 0,9.4353 -7.5647,17 -17,17 l -52,0 c -9.4353,0 -17,-7.5647 -17,-17 l 0,-52 c 0,-9.435297 7.5647,-17 17,-17 z"
         id="rect4511"
         inkscape:connector-curvature="0" />
      <path
         style="opacity:0.41;color:#bebebe;fill:#000000;fill-opacity:1;fill-rule:nonzero;stroke:none;stroke-width:0;marker:none;visibility:visible;display:inline;overflow:visible;enable-background:accumulate"
         d="M 84,46 C 56.3,46 34,68.3 34,96 l 0,120 c 0,27.7 22.3,50 50,50 l 120,0 c 27.7,0 50,-22.3 50,-50 L 254,96 C 254,68.3 231.7,46 204,46 L 84,46 z m 0,1 120,0 c 27.1633,0 49,21.836703 49,49 l 0,120 c 0,27.1633 -21.8367,49 -49,49 L 84,265 C 56.836703,265 35,243.1633 35,216 L 35,96 C 35,68.836703 56.836703,47 84,47 z"
         id="rect4040"
         inkscape:connector-curvature="0" />
    </g>
  </g>
  <style
     type="text/css"
     id="style134">
	.st0{fill:#EF443B;}
</style>
</svg>
