<?xml version="1.0" encoding="UTF-8" standalone="no"?>
<!-- Created with Inkscape (http://www.inkscape.org/) -->

<svg
   inkscape:export-ydpi="90.000000"
   inkscape:export-xdpi="90.000000"
   width="480"
   height="300"
   id="svg11300"
   sodipodi:version="0.32"
   inkscape:version="1.1.2 (0a00cf5339, 2022-02-04)"
   sodipodi:docname="enterthegun.svg"
   inkscape:output_extension="org.inkscape.output.svg.inkscape"
   version="1.0"
   style="display:inline;enable-background:new"
   inkscape:export-filename="/home/sam/moka-next-template.png"
   xmlns:inkscape="http://www.inkscape.org/namespaces/inkscape"
   xmlns:sodipodi="http://sodipodi.sourceforge.net/DTD/sodipodi-0.dtd"
   xmlns:xlink="http://www.w3.org/1999/xlink"
   xmlns="http://www.w3.org/2000/svg"
   xmlns:svg="http://www.w3.org/2000/svg"
   xmlns:rdf="http://www.w3.org/1999/02/22-rdf-syntax-ns#"
   xmlns:cc="http://creativecommons.org/ns#"
   xmlns:dc="http://purl.org/dc/elements/1.1/">
  <sodipodi:namedview
     stroke="#ef2929"
     fill="#f57900"
     id="base"
     pagecolor="#ffffff"
     bordercolor="#000000"
     borderopacity="0.54509804"
     inkscape:pageopacity="0"
     inkscape:pageshadow="2"
     inkscape:zoom="1.4142137"
     inkscape:cx="416.1323"
     inkscape:cy="136.11804"
     inkscape:current-layer="layer2"
     showgrid="false"
     inkscape:grid-bbox="true"
     inkscape:document-units="px"
     inkscape:showpageshadow="false"
     inkscape:window-width="1920"
     inkscape:window-height="1008"
     inkscape:window-x="0"
     inkscape:window-y="40"
     width="400px"
     height="300px"
     inkscape:snap-nodes="true"
     inkscape:snap-bbox="true"
     gridtolerance="10000"
     inkscape:object-nodes="true"
     inkscape:snap-grids="true"
     showguides="true"
     inkscape:guide-bbox="true"
     inkscape:window-maximized="1"
     inkscape:bbox-nodes="true"
     inkscape:bbox-paths="true"
     inkscape:snap-bbox-edge-midpoints="true"
     inkscape:snap-bbox-midpoints="true"
     inkscape:pagecheckerboard="0"
     inkscape:object-paths="true"
     inkscape:snap-intersection-paths="true">
    <inkscape:grid
       spacingy="1"
       spacingx="1"
       id="grid5883"
       type="xygrid"
       enabled="true"
       visible="true"
       empspacing="4"
       snapvisiblegridlinesonly="true"
       dotted="false"
       color="#000000"
       opacity="0.1254902"
       empcolor="#203ef3"
       empopacity="0.36470588"
       originx="0"
       originy="0" />
    <inkscape:grid
       type="xygrid"
       id="grid11592"
       empspacing="8"
       visible="true"
       enabled="false"
       spacingx="0.5"
       spacingy="0.5"
       color="#ff0000"
       opacity="0.1254902"
       empcolor="#ff0000"
       empopacity="0.25098039"
       snapvisiblegridlinesonly="true"
       dotted="true"
       originx="0"
       originy="0" />
  </sodipodi:namedview>
  <defs
     id="defs3">
    <linearGradient
       inkscape:collect="always"
       id="linearGradient2622">
      <stop
         style="stop-color:#ffcc00;stop-opacity:1;"
         offset="0"
         id="stop2618" />
      <stop
         style="stop-color:#ffcc00;stop-opacity:0;"
         offset="1"
         id="stop2620" />
    </linearGradient>
    <linearGradient
       inkscape:collect="always"
       id="linearGradient2247">
      <stop
         style="stop-color:#ffd42a;stop-opacity:1;"
         offset="0"
         id="stop2243" />
      <stop
         style="stop-color:#ffd42a;stop-opacity:0;"
         offset="1"
         id="stop2245" />
    </linearGradient>
    <linearGradient
       inkscape:collect="always"
       id="linearGradient1468">
      <stop
         style="stop-color:#ffcc00;stop-opacity:1;"
         offset="0"
         id="stop1464" />
      <stop
         style="stop-color:#ffcc00;stop-opacity:0;"
         offset="1"
         id="stop1466" />
    </linearGradient>
    <linearGradient
       id="linearGradient905">
      <stop
         style="stop-color:#ff7139;stop-opacity:1"
         offset="0"
         id="stop901" />
      <stop
         style="stop-color:#ff7139;stop-opacity:1"
         offset="1"
         id="stop903" />
    </linearGradient>
    <linearGradient
       id="linearGradient3984">
      <stop
         id="stop3986"
         offset="0"
         style="stop-color:#f57d33;stop-opacity:1" />
      <stop
         id="stop3988"
         offset="1"
         style="stop-color:#faa653;stop-opacity:1;" />
    </linearGradient>
    <linearGradient
       inkscape:collect="always"
       xlink:href="#linearGradient1468"
       id="linearGradient1470"
       x1="34.5"
       y1="156"
       x2="207.78568"
       y2="155.99992"
       gradientUnits="userSpaceOnUse"
       gradientTransform="rotate(90,144,156)" />
    <linearGradient
       inkscape:collect="always"
       xlink:href="#linearGradient2247"
       id="linearGradient2249"
       x1="292.5"
       y1="76"
       x2="361"
       y2="76"
       gradientUnits="userSpaceOnUse"
       gradientTransform="rotate(90,336,76)" />
    <linearGradient
       inkscape:collect="always"
       xlink:href="#linearGradient2622"
       id="linearGradient2624"
       x1="290.5"
       y1="172"
       x2="336.5"
       y2="172"
       gradientUnits="userSpaceOnUse"
       gradientTransform="rotate(90,320,172)" />
    <linearGradient
       inkscape:collect="always"
       xlink:href="#linearGradient1468"
       id="linearGradient1114"
       x1="291.5"
       y1="244"
       x2="324"
       y2="244"
       gradientUnits="userSpaceOnUse"
       gradientTransform="rotate(90,312,244)" />
    <linearGradient
       inkscape:collect="always"
       xlink:href="#linearGradient1468"
       id="linearGradient1880"
       x1="417.5"
       y1="68"
       x2="440.4465"
       y2="67.999992"
       gradientUnits="userSpaceOnUse"
       gradientTransform="rotate(90,432,68)" />
    <linearGradient
       inkscape:collect="always"
       xlink:href="#linearGradient1468"
       id="linearGradient2219"
       x1="417.5"
       y1="112"
       x2="434"
       y2="112"
       gradientUnits="userSpaceOnUse"
       gradientTransform="rotate(90,428,112)" />
    <linearGradient
       inkscape:collect="always"
       xlink:href="#linearGradient1468"
       id="linearGradient2524"
       x1="416.5"
       y1="148"
       x2="428.3689"
       y2="148"
       gradientUnits="userSpaceOnUse"
       gradientTransform="rotate(90,424,148)" />
  </defs>
  <metadata
     id="metadata4">
    <rdf:RDF>
      <cc:Work
         rdf:about="">
        <dc:format>image/svg+xml</dc:format>
        <dc:type
           rdf:resource="http://purl.org/dc/dcmitype/StillImage" />
        <dc:creator>
          <cc:Agent>
            <dc:title>Sam Hewitt</dc:title>
          </cc:Agent>
        </dc:creator>
        <dc:source />
        <cc:license
           rdf:resource="" />
        <dc:title />
        <dc:subject>
          <rdf:Bag />
        </dc:subject>
        <dc:date />
        <dc:rights>
          <cc:Agent>
            <dc:title />
          </cc:Agent>
        </dc:rights>
        <dc:publisher>
          <cc:Agent>
            <dc:title />
          </cc:Agent>
        </dc:publisher>
        <dc:identifier />
        <dc:relation />
        <dc:language />
        <dc:coverage />
        <dc:description />
        <dc:contributor>
          <cc:Agent>
            <dc:title />
          </cc:Agent>
        </dc:contributor>
      </cc:Work>
      <cc:Work
         rdf:about="">
        <dc:format>image/svg+xml</dc:format>
        <dc:type
           rdf:resource="http://purl.org/dc/dcmitype/StillImage" />
      </cc:Work>
    </rdf:RDF>
  </metadata>
  <g
     style="display:inline"
     inkscape:groupmode="layer"
     inkscape:label="Icon"
     id="layer1">
    <g
       style="display:none"
       inkscape:label="Baseplate"
       id="layer7"
       inkscape:groupmode="layer">
      <text
         y="19.745117"
         xml:space="preserve"
         x="15.006836"
         style="font-style:normal;font-variant:normal;font-weight:normal;font-stretch:normal;line-height:0%;font-family:'DejaVu Sans';-inkscape-font-specification:'DejaVu Sans';display:inline;fill:#000000;fill-opacity:1;stroke:none;enable-background:new"
         inkscape:label="context"
         id="context"><tspan
           style="font-style:normal;font-variant:normal;font-weight:normal;font-stretch:normal;font-size:18px;line-height:1.25;font-family:'DejaVu Sans';-inkscape-font-specification:'DejaVu Sans'"
           y="19.745117"
           x="15.006836"
           sodipodi:role="line"
           id="tspan3933">apps</tspan></text>
      <text
         y="19.745117"
         xml:space="preserve"
         x="122.48828"
         style="font-style:normal;font-variant:normal;font-weight:bold;font-stretch:normal;line-height:0%;font-family:'DejaVu Sans';-inkscape-font-specification:'DejaVu Sans Bold';text-align:start;writing-mode:lr-tb;text-anchor:start;display:inline;fill:#000000;fill-opacity:1;stroke:none;enable-background:new"
         inkscape:label="icon-name"
         id="icon-name"><tspan
           style="font-style:normal;font-variant:normal;font-weight:bold;font-stretch:normal;font-size:18px;line-height:1.25;font-family:'DejaVu Sans';-inkscape-font-specification:'DejaVu Sans Bold'"
           y="19.745117"
           x="122.48828"
           sodipodi:role="line"
           id="tspan3937">sheet</tspan></text>
      <rect
         style="fill:#eeeeec;fill-opacity:1;fill-rule:nonzero;stroke:none;stroke-width:2;marker:none;visibility:visible;display:inline;overflow:visible;enable-background:accumulate"
         id="rect16x16"
         width="16"
         height="16"
         x="416"
         y="140"
         inkscape:label="16x16" />
      <rect
         style="fill:#d4d4d4;fill-opacity:1;fill-rule:nonzero;stroke:none;stroke-width:2;marker:none;visibility:visible;display:inline;overflow:visible;enable-background:accumulate"
         id="rect24x24"
         width="24"
         height="24"
         x="416"
         y="100"
         inkscape:label="24x24" />
      <rect
         style="fill:#eeeeec;fill-opacity:1;fill-rule:nonzero;stroke:none;stroke-width:2;marker:none;visibility:visible;display:inline;overflow:visible;enable-background:accumulate"
         id="rect32x32"
         width="32"
         height="32"
         x="416"
         y="52"
         inkscape:label="32x32" />
      <rect
         inkscape:label="22x22"
         y="101"
         x="417"
         height="22"
         width="22"
         id="rect22x22"
         style="fill:#eeeeec;fill-opacity:1;fill-rule:nonzero;stroke:none;stroke-width:2;marker:none;visibility:visible;display:inline;overflow:visible;enable-background:accumulate" />
      <rect
         inkscape:label="48x48"
         y="220"
         x="288"
         height="48"
         width="48"
         id="rect48x48"
         style="fill:#eeeeec;fill-opacity:1;fill-rule:nonzero;stroke:none;stroke-width:2;marker:none;visibility:visible;display:inline;overflow:visible;enable-background:accumulate" />
      <rect
         style="fill:#eeeeec;fill-opacity:1;fill-rule:nonzero;stroke:none;stroke-width:2;marker:none;visibility:visible;display:inline;overflow:visible;enable-background:accumulate"
         id="rect256x256"
         width="256"
         height="256"
         x="16"
         y="28"
         inkscape:label="256x256" />
      <rect
         style="fill:#eeeeec;fill-opacity:1;fill-rule:nonzero;stroke:none;stroke-width:2;marker:none;visibility:visible;display:inline;overflow:visible;enable-background:accumulate"
         id="rect64x64"
         width="64"
         height="64"
         x="288"
         y="140"
         inkscape:label="64x64" />
      <rect
         style="fill:#eeeeec;fill-opacity:1;fill-rule:nonzero;stroke:none;stroke-width:2;marker:none;visibility:visible;display:inline;overflow:visible;enable-background:accumulate"
         id="rect96x96"
         width="96"
         height="96"
         x="288"
         y="28"
         inkscape:label="96x96" />
    </g>
    <g
       inkscape:groupmode="layer"
       id="layer4"
       inkscape:label="Shadow"
       style="display:inline"
       sodipodi:insensitive="true">
      <rect
         ry="50"
         y="47"
         x="34"
         height="220"
         width="220"
         id="rect4114"
         style="opacity:0.1;color:#bebebe;fill:#000000;fill-opacity:1;fill-rule:nonzero;stroke:none;stroke-width:0;marker:none;visibility:visible;display:inline;overflow:visible;enable-background:accumulate" />
      <rect
         style="opacity:0.1;color:#bebebe;fill:#000000;fill-opacity:1;fill-rule:nonzero;stroke:none;stroke-width:0;marker:none;visibility:visible;display:inline;overflow:visible;enable-background:accumulate"
         id="rect4120"
         width="30"
         height="30"
         x="417"
         y="54"
         ry="7" />
      <rect
         transform="scale(1,-1)"
         ry="9"
         y="-266"
         x="291"
         height="42"
         width="42"
         id="rect4122"
         style="opacity:0.1;color:#bebebe;fill:#000000;fill-opacity:1;fill-rule:nonzero;stroke:none;stroke-width:0;marker:none;visibility:visible;display:inline;overflow:visible;enable-background:accumulate" />
      <rect
         style="opacity:0.1;color:#bebebe;fill:#000000;fill-opacity:1;fill-rule:nonzero;stroke:none;stroke-width:0;marker:none;visibility:visible;display:inline;overflow:visible;enable-background:accumulate"
         id="rect4124"
         width="88"
         height="88"
         x="292"
         y="33"
         ry="18" />
      <rect
         ry="12.5"
         y="143"
         x="290"
         height="60"
         width="60"
         id="rect4126"
         style="opacity:0.1;color:#bebebe;fill:#000000;fill-opacity:1;fill-rule:nonzero;stroke:none;stroke-width:0;marker:none;visibility:visible;display:inline;overflow:visible;enable-background:accumulate" />
      <path
         id="path4268"
         d="m 422,101 c -2.77,0 -5,2.23 -5,5 l 0,12 c 0,2.77 2.23,5 5,5 l 12,0 c 2.77,0 5,-2.23 5,-5 l 0,-12 c 0,-2.77 -2.23,-5 -5,-5 z"
         style="opacity:0.1;color:#bebebe;fill:#000000;fill-opacity:1;fill-rule:nonzero;stroke:none;stroke-width:0;marker:none;visibility:visible;display:inline;overflow:visible;enable-background:accumulate"
         inkscape:connector-curvature="0"
         sodipodi:nodetypes="sssssssss" />
      <path
         id="path4270"
         d="m 419,140 c -1.662,0 -3,1.338 -3,3 l 0,10 c 0,1.662 1.338,3 3,3 l 10,0 c 1.662,0 3,-1.338 3,-3 l 0,-10 c 0,-1.662 -1.338,-3 -3,-3 z"
         style="opacity:0.1;color:#bebebe;fill:#000000;fill-opacity:1;fill-rule:nonzero;stroke:none;stroke-width:0;marker:none;visibility:visible;display:inline;overflow:visible;enable-background:accumulate"
         inkscape:connector-curvature="0"
         sodipodi:nodetypes="sssssssss" />
    </g>
    <g
       inkscape:groupmode="layer"
       id="layer2"
       inkscape:label="Background"
       style="display:inline">
      <g
         id="g1368">
        <g
           id="g1083">
          <path
             id="path4200"
             style="color:#bebebe;display:inline;overflow:visible;visibility:visible;fill:#f3990f;fill-opacity:1;fill-rule:nonzero;stroke:none;stroke-width:2;marker:none;enable-background:accumulate"
             d="M 84,46.5 C 56.568735,46.5 34.5,68.568732 34.5,96 v 120 c 0,27.43127 22.068735,49.5 49.5,49.5 h 120 c 27.43127,0 49.5,-22.06873 49.5,-49.5 V 96 C 253.5,68.568732 231.43127,46.5 204,46.5 Z" />
          <path
             id="path1444"
             style="color:#bebebe;display:inline;overflow:visible;visibility:visible;fill:url(#linearGradient1470);fill-opacity:1;fill-rule:nonzero;stroke:none;stroke-width:2;marker:none;enable-background:accumulate"
             d="M 253.5,96 C 253.5,68.56874 231.43127,46.5 204,46.5 H 84 C 56.56873,46.5 34.5,68.56874 34.5,96 v 120 c 0,27.43127 22.06873,49.5 49.5,49.5 h 120 c 27.43127,0 49.5,-22.06873 49.5,-49.5 z" />
          <g
             id="g950">
            <circle
               style="fill:#3f3f3f;stroke-width:6.71429"
               cx="83.571434"
               cy="202.99997"
               r="20.142857"
               id="circle1477" />
            <circle
               style="fill:#3f3f3f;stroke-width:6.71429"
               cx="204.42857"
               cy="202.99997"
               r="20.142857"
               id="circle1481" />
            <path
               style="fill:#3f3f3f;stroke-width:6.71429"
               d="m 117.14293,209.71425 c 3.10576,11.56382 13.89488,20.14286 26.85714,20.14286 12.96227,0 23.75139,-8.57904 26.85715,-20.14286 z"
               id="path1485" />
          </g>
        </g>
        <g
           id="g1227">
          <path
             style="color:#bebebe;display:inline;overflow:visible;visibility:visible;fill:#f3990f;fill-opacity:1;fill-rule:nonzero;stroke:none;stroke-width:2;marker:none;enable-background:accumulate"
             d="m 310,32.5 c -9.70255,0 -17.5,7.797452 -17.5,17.5 v 52 c 0,9.70255 7.79745,17.5 17.5,17.5 h 52 c 9.70255,0 17.5,-7.79745 17.5,-17.5 V 50 c 0,-9.702548 -7.79745,-17.5 -17.5,-17.5 z"
             id="path4210" />
          <path
             style="color:#bebebe;display:inline;overflow:visible;visibility:visible;fill:url(#linearGradient2249);fill-opacity:1;fill-rule:nonzero;stroke:none;stroke-width:2;marker:none;enable-background:accumulate"
             d="m 379.5,50 c 0,-9.70255 -7.79745,-17.5 -17.5,-17.5 h -52 c -9.70255,0 -17.5,7.79745 -17.5,17.5 v 52 c 0,9.70255 7.79745,17.5 17.5,17.5 h 52 c 9.70255,0 17.5,-7.79745 17.5,-17.5 z"
             id="path2223" />
          <g
             id="g1219">
            <circle
               style="fill:#3f3f3f;stroke-width:2.66732"
               cx="311.99414"
               cy="94.671227"
               r="8.0019569"
               id="circle5533" />
            <circle
               style="fill:#3f3f3f;stroke-width:2.66732"
               cx="360.00586"
               cy="94.671227"
               r="8.0019569"
               id="circle5535" />
            <path
               style="fill:#3f3f3f;stroke-width:2.66732"
               d="m 325.33075,97.338548 c 1.23379,4.593842 5.51988,8.001962 10.66928,8.001962 5.14939,0 9.43548,-3.40812 10.66927,-8.001962 z"
               id="path5537" />
          </g>
        </g>
        <g
           id="g1245">
          <path
             style="color:#bebebe;display:inline;overflow:visible;visibility:visible;fill:#f3990f;fill-opacity:1;fill-rule:nonzero;stroke:none;stroke-width:2;marker:none;enable-background:accumulate"
             d="m 302.5,142.5 c -6.65502,0 -12,5.34498 -12,12 v 35 c 0,6.65502 5.34498,12 12,12 h 35 c 6.65502,0 12,-5.34498 12,-12 v -35 c 0,-6.65502 -5.34498,-12 -12,-12 z"
             id="path4212" />
          <path
             style="color:#bebebe;display:inline;overflow:visible;visibility:visible;fill:url(#linearGradient2624);fill-opacity:1;fill-rule:nonzero;stroke:none;stroke-width:2;marker:none;enable-background:accumulate"
             d="m 349.5,154.5 c 0,-6.65502 -5.34498,-12 -12,-12 h -35 c -6.65502,0 -12,5.34498 -12,12 v 35 c 0,6.65502 5.34498,12 12,12 h 35 c 6.65502,0 12,-5.34498 12,-12 z"
             id="path2598" />
          <g
             id="g1237">
            <circle
               style="fill:#3f3f3f;stroke-width:1.80887"
               cx="303.72015"
               cy="184.66211"
               r="5.4266143"
               id="circle5842" />
            <circle
               style="fill:#3f3f3f;stroke-width:1.80887"
               cx="336.27985"
               cy="184.66211"
               r="5.4266143"
               id="circle5844" />
            <path
               style="fill:#3f3f3f;stroke-width:1.80887"
               d="m 312.76453,186.47098 c 0.83671,3.11536 3.74337,5.42661 7.23549,5.42661 3.49211,0 6.39877,-2.31125 7.23548,-5.42661 z"
               id="path5846" />
          </g>
        </g>
        <g
           id="g1263">
          <path
             style="color:#bebebe;display:inline;overflow:visible;visibility:visible;fill:#f3990f;fill-opacity:1;fill-rule:nonzero;stroke:none;stroke-width:2;marker:none;enable-background:accumulate"
             d="m 300,223.5 c -4.71531,0 -8.5,3.78469 -8.5,8.5 v 24 c 0,4.71531 3.78469,8.5 8.5,8.5 h 24 c 4.71531,0 8.5,-3.78469 8.5,-8.5 v -24 c 0,-4.71531 -3.78469,-8.5 -8.5,-8.5 z"
             id="path4208" />
          <path
             style="color:#bebebe;display:inline;overflow:visible;visibility:visible;fill:url(#linearGradient1114);fill-opacity:1;fill-rule:nonzero;stroke:none;stroke-width:2;marker:none;enable-background:accumulate"
             d="m 332.5,232 c 0,-4.71531 -3.78469,-8.5 -8.5,-8.5 h -24 c -4.71531,0 -8.5,3.78469 -8.5,8.5 v 24 c 0,4.71531 3.78469,8.5 8.5,8.5 h 24 c 4.71531,0 8.5,-3.78469 8.5,-8.5 z"
             id="path1106" />
          <g
             id="g1255">
            <circle
               style="fill:#3f3f3f;stroke-width:1.25701"
               cx="300.68689"
               cy="252.79909"
               r="3.7710371"
               id="circle6049" />
            <circle
               style="fill:#3f3f3f;stroke-width:1.25701"
               cx="323.31311"
               cy="252.79909"
               r="3.7710371"
               id="circle6051" />
            <path
               style="fill:#3f3f3f;stroke-width:1.25701"
               d="m 306.97196,254.0561 c 0.58145,2.16491 2.60133,3.77104 5.02805,3.77104 2.42673,0 4.44661,-1.60613 5.02805,-3.77104 z"
               id="path6053" />
          </g>
        </g>
        <g
           id="g1281">
          <path
             style="color:#bebebe;display:inline;overflow:visible;visibility:visible;fill:#f3990f;fill-opacity:1;fill-rule:nonzero;stroke:none;stroke-width:2;marker:none;enable-background:accumulate"
             d="m 424,53.5 c -3.60654,0 -6.5,2.893464 -6.5,6.5 v 16 c 0,3.606536 2.89346,6.5 6.5,6.5 h 16 c 3.60654,0 6.5,-2.893464 6.5,-6.5 V 60 c 0,-3.606536 -2.89346,-6.5 -6.5,-6.5 z"
             id="path4206" />
          <path
             style="color:#bebebe;display:inline;overflow:visible;visibility:visible;fill:url(#linearGradient1880);fill-opacity:1;fill-rule:nonzero;stroke:none;stroke-width:2;marker:none;enable-background:accumulate"
             d="m 446.5,60 c 0,-3.60654 -2.89346,-6.5 -6.5,-6.5 h -16 c -3.60654,0 -6.5,2.89346 -6.5,6.5 v 16 c 0,3.60654 2.89346,6.5 6.5,6.5 h 16 c 3.60654,0 6.5,-2.89346 6.5,-6.5 z"
             id="path1765" />
          <g
             id="g1273">
            <circle
               style="fill:#3f3f3f;stroke-width:0.889106"
               cx="423.99805"
               cy="74.22374"
               r="2.6673191"
               id="circle5641" />
            <circle
               style="fill:#3f3f3f;stroke-width:0.889106"
               cx="440.00195"
               cy="74.22374"
               r="2.6673191"
               id="circle5643" />
            <path
               style="fill:#3f3f3f;stroke-width:0.889106"
               d="m 428.44358,75.112846 c 0.41127,1.531282 1.83997,2.667319 3.55643,2.667319 1.71646,0 3.14516,-1.136037 3.55643,-2.667319 z"
               id="path5645" />
          </g>
        </g>
        <g
           id="g1299">
          <path
             style="color:#bebebe;display:inline;overflow:visible;visibility:visible;fill:#f3990f;fill-opacity:1;fill-rule:nonzero;stroke:none;stroke-width:2;marker:none;enable-background:accumulate"
             d="m 422,101.5 c -2.49699,0 -4.5,2.00301 -4.5,4.5 v 12 c 0,2.49699 2.00301,4.5 4.5,4.5 h 12 c 2.49699,0 4.5,-2.00301 4.5,-4.5 v -12 c 0,-2.49699 -2.00301,-4.5 -4.5,-4.5 z"
             id="path4204" />
          <path
             style="color:#bebebe;display:inline;overflow:visible;visibility:visible;fill:url(#linearGradient2219);fill-opacity:1;fill-rule:nonzero;stroke:none;stroke-width:2;marker:none;enable-background:accumulate"
             d="m 438.5,106 c 0,-2.49699 -2.00301,-4.5 -4.5,-4.5 h -12 c -2.49699,0 -4.5,2.00301 -4.5,4.5 v 12 c 0,2.49699 2.00301,4.5 4.5,4.5 h 12 c 2.49699,0 4.5,-2.00301 4.5,-4.5 z"
             id="path2209" />
          <g
             id="g1291">
            <circle
               style="fill:#3f3f3f;stroke-width:0.643836"
               cx="422.20547"
               cy="116.50685"
               r="1.9315069"
               id="circle6262" />
            <circle
               style="fill:#3f3f3f;stroke-width:0.643836"
               cx="433.79453"
               cy="116.50685"
               r="1.9315069"
               id="circle6264" />
            <path
               style="fill:#3f3f3f;stroke-width:0.643836"
               d="m 425.42466,117.15068 c 0.29781,1.10886 1.33239,1.93151 2.57534,1.93151 1.24296,0 2.27753,-0.82265 2.57535,-1.93151 z"
               id="path6266" />
          </g>
        </g>
        <g
           id="g1317">
          <path
             style="color:#bebebe;display:inline;overflow:visible;visibility:visible;fill:#f3990f;fill-opacity:1;fill-rule:nonzero;stroke:none;stroke-width:2;marker:none;enable-background:accumulate"
             d="m 419,140.5 c -1.3844,0 -2.5,1.1156 -2.5,2.5 v 10 c 0,1.3844 1.1156,2.5 2.5,2.5 h 10 c 1.3844,0 2.5,-1.1156 2.5,-2.5 v -10 c 0,-1.3844 -1.1156,-2.5 -2.5,-2.5 z"
             id="path4202" />
          <path
             style="color:#bebebe;display:inline;overflow:visible;visibility:visible;fill:url(#linearGradient2524);fill-opacity:1;fill-rule:nonzero;stroke:none;stroke-width:2;marker:none;enable-background:accumulate"
             d="m 431.5,143 c 0,-1.3844 -1.1156,-2.5 -2.5,-2.5 h -10 c -1.3844,0 -2.5,1.1156 -2.5,2.5 v 10 c 0,1.3844 1.1156,2.5 2.5,2.5 h 10 c 1.3844,0 2.5,-1.1156 2.5,-2.5 z"
             id="path2211" />
          <g
             id="g1309">
            <circle
               style="fill:#3f3f3f;stroke-width:0.459883"
               cx="419.86105"
               cy="151.21918"
               r="1.3796477"
               id="circle6370" />
            <circle
               style="fill:#3f3f3f;stroke-width:0.459883"
               cx="428.13895"
               cy="151.21918"
               r="1.3796477"
               id="circle6372" />
            <path
               style="fill:#3f3f3f;stroke-width:0.459883"
               d="m 422.16047,151.67906 c 0.21272,0.79204 0.9517,1.37965 1.83953,1.37965 0.88783,0 1.62681,-0.58761 1.83953,-1.37965 z"
               id="path6374" />
          </g>
        </g>
      </g>
    </g>
    <g
       inkscape:groupmode="layer"
       id="layer6"
       inkscape:label="Symbols"
       style="display:inline" />
    <g
       inkscape:groupmode="layer"
       id="layer5"
       inkscape:label="Highlights"
       style="display:inline"
       sodipodi:insensitive="true">
      <path
         style="opacity:0.12999998;color:#bebebe;fill:#ffffff;fill-opacity:1;fill-rule:nonzero;stroke:none;stroke-width:0;marker:none;visibility:visible;display:inline;overflow:visible;enable-background:accumulate"
         d="M 84,47 C 56.836703,47 35,68.836703 35,96 l 0,1 C 35,69.836703 56.836703,48 84,48 l 120,0 c 27.1633,0 49,21.836703 49,49 l 0,-1 C 253,68.836703 231.1633,47 204,47 L 84,47 z"
         id="rect3894"
         inkscape:connector-curvature="0" />
      <path
         style="opacity:0.12999998;color:#bebebe;fill:#ffffff;fill-opacity:1;fill-rule:nonzero;stroke:none;stroke-width:0;marker:none;visibility:visible;display:inline;overflow:visible;enable-background:accumulate"
         d="m 419,141 c -1.1253,0 -2,0.8747 -2,2 l 0,1 c 0,-1.1253 0.8747,-2 2,-2 l 10,0 c 1.1253,0 2,0.8747 2,2 l 0,-1 c 0,-1.1253 -0.8747,-2 -2,-2 l -10,0 z"
         id="rect3896"
         inkscape:connector-curvature="0" />
      <path
         style="opacity:0.12999998;color:#bebebe;fill:#ffffff;fill-opacity:1;fill-rule:nonzero;stroke:none;stroke-width:0;marker:none;visibility:visible;display:inline;overflow:visible;enable-background:accumulate"
         d="m 422,102 c -2.2333,0 -4,1.7667 -4,4 l 0,1 c 0,-2.2333 1.7667,-4 4,-4 l 12,0 c 2.2333,0 4,1.7667 4,4 l 0,-1 c 0,-2.2333 -1.7667,-4 -4,-4 l -12,0 z"
         id="rect3898"
         inkscape:connector-curvature="0" />
      <path
         style="opacity:0.12999998;color:#bebebe;fill:#ffffff;fill-opacity:1;fill-rule:nonzero;stroke:none;stroke-width:0;marker:none;visibility:visible;display:inline;overflow:visible;enable-background:accumulate"
         d="m 424,54 c -3.3413,0 -6,2.658703 -6,6 l 0,1 c 0,-3.341297 2.6587,-6 6,-6 l 16,0 c 3.3413,0 6,2.658703 6,6 l 0,-1 c 0,-3.341297 -2.6587,-6 -6,-6 l -16,0 z"
         id="rect3900"
         inkscape:connector-curvature="0" />
      <path
         style="opacity:0.12999998;color:#bebebe;fill:#ffffff;fill-opacity:1;fill-rule:nonzero;stroke:none;stroke-width:0;marker:none;visibility:visible;display:inline;overflow:visible;enable-background:accumulate"
         d="m 300,224 c -4.4493,0 -8,3.5507 -8,8 l 0,1 c 0,-4.4493 3.5507,-8 8,-8 l 24,0 c 4.4493,0 8,3.5507 8,8 l 0,-1 c 0,-4.4493 -3.5507,-8 -8,-8 l -24,0 z"
         id="rect3902"
         inkscape:connector-curvature="0" />
      <path
         style="opacity:0.12999998;color:#bebebe;fill:#ffffff;fill-opacity:1;fill-rule:nonzero;stroke:none;stroke-width:0;marker:none;visibility:visible;display:inline;overflow:visible;enable-background:accumulate"
         d="m 310,33 c -9.4353,0 -17,7.564703 -17,17 l 0,1 c 0,-9.435297 7.5647,-17 17,-17 l 52,0 c 9.4353,0 17,7.564703 17,17 l 0,-1 c 0,-9.435297 -7.5647,-17 -17,-17 l -52,0 z"
         id="rect3904"
         inkscape:connector-curvature="0" />
      <path
         style="opacity:0.12999998;color:#bebebe;fill:#ffffff;fill-opacity:1;fill-rule:nonzero;stroke:none;stroke-width:0;marker:none;visibility:visible;display:inline;overflow:visible;enable-background:accumulate"
         d="m 302.5,143 c -6.3883,0 -11.5,5.1117 -11.5,11.5 l 0,1 c 0,-6.3883 5.1117,-11.5 11.5,-11.5 l 35,0 c 6.3883,0 11.5,5.1117 11.5,11.5 l 0,-1 c 0,-6.3883 -5.1117,-11.5 -11.5,-11.5 l -35,0 z"
         id="rect3906"
         inkscape:connector-curvature="0" />
      <path
         id="path4085"
         d="m 204,266 c 27.1633,0 49,-21.8367 49,-49 l 0,-1 c 0,27.1633 -21.8367,49 -49,49 L 84,265 C 56.8367,265 35,243.1633 35,216 l 0,1 c 0,27.1633 21.8367,49 49,49 l 120,0 z"
         style="opacity:0.41;color:#bebebe;fill:#000000;fill-opacity:1;fill-rule:nonzero;stroke:none;stroke-width:0;marker:none;visibility:visible;display:inline;overflow:visible;enable-background:accumulate"
         inkscape:connector-curvature="0" />
      <path
         id="path4087"
         d="m 429,156 c 1.1253,0 2,-0.8747 2,-2 l 0,-1 c 0,1.1253 -0.8747,2 -2,2 l -10,0 c -1.1253,0 -2,-0.8747 -2,-2 l 0,1 c 0,1.1253 0.8747,2 2,2 l 10,0 z"
         style="opacity:0.3;color:#bebebe;fill:#000000;fill-opacity:1;fill-rule:nonzero;stroke:none;stroke-width:0;marker:none;visibility:visible;display:inline;overflow:visible;enable-background:accumulate"
         inkscape:connector-curvature="0" />
      <path
         id="path4089"
         d="m 434,123 c 2.2333,0 4,-1.7667 4,-4 l 0,-1 c 0,2.2333 -1.7667,4 -4,4 l -12,0 c -2.2333,0 -4,-1.7667 -4,-4 l 0,1 c 0,2.2333 1.7667,4 4,4 l 12,0 z"
         style="opacity:0.3;color:#bebebe;fill:#000000;fill-opacity:1;fill-rule:nonzero;stroke:none;stroke-width:0;marker:none;visibility:visible;display:inline;overflow:visible;enable-background:accumulate"
         inkscape:connector-curvature="0" />
      <path
         id="path4091"
         d="m 440,83 c 3.3413,0 6,-2.6587 6,-6 l 0,-1 c 0,3.3413 -2.6587,6 -6,6 l -16,0 c -3.3413,0 -6,-2.6587 -6,-6 l 0,1 c 0,3.3413 2.6587,6 6,6 l 16,0 z"
         style="opacity:0.41;color:#bebebe;fill:#000000;fill-opacity:1;fill-rule:nonzero;stroke:none;stroke-width:0;marker:none;visibility:visible;display:inline;overflow:visible;enable-background:accumulate"
         inkscape:connector-curvature="0" />
      <path
         id="path4093"
         d="m 324,265 c 4.4493,0 8,-3.5507 8,-8 l 0,-1 c 0,4.4493 -3.5507,8 -8,8 l -24,0 c -4.4493,0 -8,-3.5507 -8,-8 l 0,1 c 0,4.4493 3.5507,8 8,8 l 24,0 z"
         style="opacity:0.41;color:#bebebe;fill:#000000;fill-opacity:1;fill-rule:nonzero;stroke:none;stroke-width:0;marker:none;visibility:visible;display:inline;overflow:visible;enable-background:accumulate"
         inkscape:connector-curvature="0" />
      <path
         id="path4095"
         d="m 362,120 c 9.4353,0 17,-7.5647 17,-17 l 0,-1 c 0,9.4353 -7.5647,17 -17,17 l -52,0 c -9.4353,0 -17,-7.5647 -17,-17 l 0,1 c 0,9.4353 7.5647,17 17,17 l 52,0 z"
         style="opacity:0.41;color:#bebebe;fill:#000000;fill-opacity:1;fill-rule:nonzero;stroke:none;stroke-width:0;marker:none;visibility:visible;display:inline;overflow:visible;enable-background:accumulate"
         inkscape:connector-curvature="0" />
      <path
         id="path4097"
         d="m 337.5,202 c 6.3883,0 11.5,-5.1117 11.5,-11.5 l 0,-1 c 0,6.3883 -5.1117,11.5 -11.5,11.5 l -35,0 c -6.3883,0 -11.5,-5.1117 -11.5,-11.5 l 0,1 c 0,6.3883 5.1117,11.5 11.5,11.5 l 35,0 z"
         style="opacity:0.41;color:#bebebe;fill:#000000;fill-opacity:1;fill-rule:nonzero;stroke:none;stroke-width:0;marker:none;visibility:visible;display:inline;overflow:visible;enable-background:accumulate"
         inkscape:connector-curvature="0" />
      <path
         inkscape:connector-curvature="0"
         id="path4280"
         d="M 84,265 C 56.836703,265 35,243.1633 35,216 l 0,-1 c 0,27.1633 21.836703,49 49,49 l 120,0 c 27.1633,0 49,-21.8367 49,-49 l 0,1 c 0,27.1633 -21.8367,49 -49,49 l -120,0 z"
         style="opacity:0.1;color:#bebebe;fill:#ffffff;fill-opacity:1;fill-rule:nonzero;stroke:none;stroke-width:0;marker:none;visibility:visible;display:inline;overflow:visible;enable-background:accumulate" />
      <path
         style="opacity:0.1;color:#bebebe;fill:#ffffff;fill-opacity:1;fill-rule:nonzero;stroke:none;stroke-width:0;marker:none;visibility:visible;display:inline;overflow:visible;enable-background:accumulate"
         d="m 300,264 c -4.4493,0 -8,-3.5507 -8,-8 l 0,-1 c 0,4.4493 3.5507,8 8,8 l 24,0 c 4.4493,0 8,-3.5507 8,-8 l 0,1 c 0,4.4493 -3.5507,8 -8,8 l -24,0 z"
         id="path4294"
         inkscape:connector-curvature="0" />
      <path
         style="opacity:0.1;color:#bebebe;fill:#ffffff;fill-opacity:1;fill-rule:nonzero;stroke:none;stroke-width:0;marker:none;visibility:visible;display:inline;overflow:visible;enable-background:accumulate"
         d="m 302.5,201 c -6.3883,0 -11.5,-5.1117 -11.5,-11.5 l 0,-1 c 0,6.3883 5.1117,11.5 11.5,11.5 l 35,0 c 6.3883,0 11.5,-5.1117 11.5,-11.5 l 0,1 c 0,6.3883 -5.1117,11.5 -11.5,11.5 l -35,0 z"
         id="path4296"
         inkscape:connector-curvature="0" />
      <path
         style="opacity:0.1;color:#bebebe;fill:#ffffff;fill-opacity:1;fill-rule:nonzero;stroke:none;stroke-width:0;marker:none;visibility:visible;display:inline;overflow:visible;enable-background:accumulate"
         d="m 310,119 c -9.4353,0 -17,-7.5647 -17,-17 l 0,-1 c 0,9.4353 7.5647,17 17,17 l 52,0 c 9.4353,0 17,-7.5647 17,-17 l 0,1 c 0,9.4353 -7.5647,17 -17,17 l -52,0 z"
         id="path4298"
         inkscape:connector-curvature="0" />
      <path
         style="opacity:0.1;color:#bebebe;fill:#ffffff;fill-opacity:1;fill-rule:nonzero;stroke:none;stroke-width:0;marker:none;visibility:visible;display:inline;overflow:visible;enable-background:accumulate"
         d="m 424,82 c -3.3413,0 -6,-2.658703 -6,-6 l 0,-1 c 0,3.341297 2.6587,6 6,6 l 16,0 c 3.3413,0 6,-2.658703 6,-6 l 0,1 c 0,3.341297 -2.6587,6 -6,6 l -16,0 z"
         id="path4300"
         inkscape:connector-curvature="0" />
      <path
         style="opacity:0.1;color:#bebebe;fill:#ffffff;fill-opacity:1;fill-rule:nonzero;stroke:none;stroke-width:0;marker:none;visibility:visible;display:inline;overflow:visible;enable-background:accumulate"
         d="m 422,122 c -2.2333,0 -4,-1.7667 -4,-4 l 0,-1 c 0,2.2333 1.7667,4 4,4 l 12,0 c 2.2333,0 4,-1.7667 4,-4 l 0,1 c 0,2.2333 -1.7667,4 -4,4 l -12,0 z"
         id="path4302"
         inkscape:connector-curvature="0" />
      <path
         style="opacity:0.1;color:#bebebe;fill:#ffffff;fill-opacity:1;fill-rule:nonzero;stroke:none;stroke-width:0;marker:none;visibility:visible;display:inline;overflow:visible;enable-background:accumulate"
         d="m 419,154.5 c -1.1253,0 -2,-0.8747 -2,-2 l 0,-1 c 0,1.1253 0.8747,2 2,2 l 10,0 c 1.1253,0 2,-0.8747 2,-2 l 0,1 c 0,1.1253 -0.8747,2 -2,2 l -10,0 z"
         id="path4304"
         inkscape:connector-curvature="0" />
    </g>
    <g
       inkscape:groupmode="layer"
       id="layer3"
       inkscape:label="Border"
       style="display:inline"
       sodipodi:insensitive="true">
      <path
         style="opacity:0.41;color:#bebebe;fill:#000000;fill-opacity:1;fill-rule:nonzero;stroke:none;stroke-width:0;marker:none;visibility:visible;display:inline;overflow:visible;enable-background:accumulate"
         d="m 422,101 c -2.77,0 -5,2.23 -5,5 l 0,12 c 0,2.77 2.23,5 5,5 l 12,0 c 2.77,0 5,-2.23 5,-5 l 0,-12 c 0,-2.77 -2.23,-5 -5,-5 l -12,0 z m 0,1 12,0 c 2.2333,0 4,1.7667 4,4 l 0,12 c 0,2.2333 -1.7667,4 -4,4 l -12,0 c -2.2333,0 -4,-1.7667 -4,-4 l 0,-12 c 0,-2.2333 1.7667,-4 4,-4 z"
         id="rect4099"
         inkscape:connector-curvature="0" />
      <path
         style="opacity:0.41;color:#bebebe;fill:#000000;fill-opacity:1;fill-rule:nonzero;stroke:none;stroke-width:0;marker:none;visibility:visible;display:inline;overflow:visible;enable-background:accumulate"
         d="m 424,53 c -3.878,0 -7,3.122 -7,7 l 0,16 c 0,3.878 3.122,7 7,7 l 16,0 c 3.878,0 7,-3.122 7,-7 l 0,-16 c 0,-3.878 -3.122,-7 -7,-7 l -16,0 z m 0,1 16,0 c 3.3413,0 6,2.658703 6,6 l 0,16 c 0,3.341297 -2.6587,6 -6,6 l -16,0 c -3.3413,0 -6,-2.658703 -6,-6 l 0,-16 c 0,-3.341297 2.6587,-6 6,-6 z"
         id="rect4151"
         inkscape:connector-curvature="0" />
      <path
         style="opacity:0.41;color:#bebebe;fill:#000000;fill-opacity:1;fill-rule:nonzero;stroke:none;stroke-width:0;marker:none;visibility:visible;display:inline;overflow:visible;enable-background:accumulate"
         d="m 419,140 c -1.662,0 -3,1.338 -3,3 l 0,10 c 0,1.662 1.338,3 3,3 l 10,0 c 1.662,0 3,-1.338 3,-3 l 0,-10 c 0,-1.662 -1.338,-3 -3,-3 l -10,0 z m 0,1 10,0 c 1.1253,0 2,0.8747 2,2 l 0,10 c 0,1.1253 -0.8747,2 -2,2 l -10,0 c -1.1253,0 -2,-0.8747 -2,-2 l 0,-10 c 0,-1.1253 0.8747,-2 2,-2 z"
         id="rect4095"
         inkscape:connector-curvature="0" />
      <path
         style="opacity:0.41;color:#bebebe;fill:#000000;fill-opacity:1;fill-rule:nonzero;stroke:none;stroke-width:0;marker:none;visibility:visible;display:inline;overflow:visible;enable-background:accumulate"
         d="m 300,223 c -4.986,0 -9,4.014 -9,9 l 0,24 c 0,4.986 4.014,9 9,9 l 24,0 c 4.986,0 9,-4.014 9,-9 l 0,-24 c 0,-4.986 -4.014,-9 -9,-9 l -24,0 z m 0,1 24,0 c 4.4493,0 8,3.5507 8,8 l 0,24 c 0,4.4493 -3.5507,8 -8,8 l -24,0 c -4.4493,0 -8,-3.5507 -8,-8 l 0,-24 c 0,-4.4493 3.5507,-8 8,-8 z"
         id="rect4783"
         inkscape:connector-curvature="0" />
      <path
         style="opacity:0.41;color:#bebebe;fill:#000000;fill-opacity:1;fill-rule:nonzero;stroke:none;stroke-width:0;marker:none;visibility:visible;display:inline;overflow:visible;enable-background:accumulate"
         d="m 302.5,142 c -6.925,0 -12.5,5.575 -12.5,12.5 l 0,35 c 0,6.925 5.575,12.5 12.5,12.5 l 35,0 c 6.925,0 12.5,-5.575 12.5,-12.5 l 0,-35 c 0,-6.925 -5.575,-12.5 -12.5,-12.5 l -35,0 z m 0,1 35,0 c 6.3883,0 11.5,5.1117 11.5,11.5 l 0,35 c 0,6.3883 -5.1117,11.5 -11.5,11.5 l -35,0 c -6.3883,0 -11.5,-5.1117 -11.5,-11.5 l 0,-35 c 0,-6.3883 5.1117,-11.5 11.5,-11.5 z"
         id="rect4515"
         inkscape:connector-curvature="0" />
      <path
         style="opacity:0.41;color:#bebebe;fill:#000000;fill-opacity:1;fill-rule:nonzero;stroke:none;stroke-width:0;marker:none;visibility:visible;display:inline;overflow:visible;enable-background:accumulate"
         d="m 310,32 c -9.972,0 -18,8.028 -18,18 l 0,52 c 0,9.972 8.028,18 18,18 l 52,0 c 9.972,0 18,-8.028 18,-18 l 0,-52 c 0,-9.972 -8.028,-18 -18,-18 l -52,0 z m 0,1 52,0 c 9.4353,0 17,7.564703 17,17 l 0,52 c 0,9.4353 -7.5647,17 -17,17 l -52,0 c -9.4353,0 -17,-7.5647 -17,-17 l 0,-52 c 0,-9.435297 7.5647,-17 17,-17 z"
         id="rect4511"
         inkscape:connector-curvature="0" />
      <path
         style="opacity:0.41;color:#bebebe;fill:#000000;fill-opacity:1;fill-rule:nonzero;stroke:none;stroke-width:0;marker:none;visibility:visible;display:inline;overflow:visible;enable-background:accumulate"
         d="M 84,46 C 56.3,46 34,68.3 34,96 l 0,120 c 0,27.7 22.3,50 50,50 l 120,0 c 27.7,0 50,-22.3 50,-50 L 254,96 C 254,68.3 231.7,46 204,46 L 84,46 z m 0,1 120,0 c 27.1633,0 49,21.836703 49,49 l 0,120 c 0,27.1633 -21.8367,49 -49,49 L 84,265 C 56.836703,265 35,243.1633 35,216 L 35,96 C 35,68.836703 56.836703,47 84,47 z"
         id="rect4040"
         inkscape:connector-curvature="0" />
    </g>
  </g>
  <style
     type="text/css"
     id="style134">
	.st0{fill:#EF443B;}
</style>
</svg>
