<?xml version="1.0" encoding="UTF-8" standalone="no"?>
<!-- Created with Inkscape (http://www.inkscape.org/) -->

<svg
   inkscape:export-ydpi="90.000000"
   inkscape:export-xdpi="90.000000"
   width="480"
   height="300"
   id="svg11300"
   sodipodi:version="0.32"
   inkscape:version="1.1.2 (0a00cf5339, 2022-02-04)"
   sodipodi:docname="anydesk (copy).svg"
   inkscape:output_extension="org.inkscape.output.svg.inkscape"
   version="1.0"
   style="display:inline;enable-background:new"
   inkscape:export-filename="/home/sam/moka-next-template.png"
   xmlns:inkscape="http://www.inkscape.org/namespaces/inkscape"
   xmlns:sodipodi="http://sodipodi.sourceforge.net/DTD/sodipodi-0.dtd"
   xmlns="http://www.w3.org/2000/svg"
   xmlns:svg="http://www.w3.org/2000/svg"
   xmlns:rdf="http://www.w3.org/1999/02/22-rdf-syntax-ns#"
   xmlns:cc="http://creativecommons.org/ns#"
   xmlns:dc="http://purl.org/dc/elements/1.1/">
  <sodipodi:namedview
     stroke="#ef2929"
     fill="#f57900"
     id="base"
     pagecolor="#ffffff"
     bordercolor="#000000"
     borderopacity="0.54509804"
     inkscape:pageopacity="0"
     inkscape:pageshadow="2"
     inkscape:zoom="1"
     inkscape:cx="335.99999"
     inkscape:cy="147.5"
     inkscape:current-layer="layer2"
     showgrid="false"
     inkscape:grid-bbox="true"
     inkscape:document-units="px"
     inkscape:showpageshadow="false"
     inkscape:window-width="1920"
     inkscape:window-height="1008"
     inkscape:window-x="0"
     inkscape:window-y="40"
     width="400px"
     height="300px"
     inkscape:snap-nodes="true"
     inkscape:snap-bbox="true"
     gridtolerance="10000"
     inkscape:object-nodes="true"
     inkscape:snap-grids="true"
     showguides="true"
     inkscape:guide-bbox="true"
     inkscape:window-maximized="1"
     inkscape:bbox-nodes="true"
     inkscape:bbox-paths="true"
     inkscape:snap-bbox-edge-midpoints="true"
     inkscape:snap-bbox-midpoints="true"
     inkscape:pagecheckerboard="0">
    <inkscape:grid
       spacingy="1"
       spacingx="1"
       id="grid5883"
       type="xygrid"
       enabled="true"
       visible="true"
       empspacing="4"
       snapvisiblegridlinesonly="true"
       dotted="false"
       color="#000000"
       opacity="0.1254902"
       empcolor="#203ef3"
       empopacity="0.36470588"
       originx="0"
       originy="0" />
    <inkscape:grid
       type="xygrid"
       id="grid11592"
       empspacing="8"
       visible="true"
       enabled="false"
       spacingx="0.5"
       spacingy="0.5"
       color="#ff0000"
       opacity="0.1254902"
       empcolor="#ff0000"
       empopacity="0.25098039"
       snapvisiblegridlinesonly="true"
       dotted="true"
       originx="0"
       originy="0" />
  </sodipodi:namedview>
  <defs
     id="defs3">
    <linearGradient
       id="linearGradient905">
      <stop
         style="stop-color:#ff7139;stop-opacity:1"
         offset="0"
         id="stop901" />
      <stop
         style="stop-color:#ff7139;stop-opacity:1"
         offset="1"
         id="stop903" />
    </linearGradient>
    <linearGradient
       id="linearGradient3984">
      <stop
         id="stop3986"
         offset="0"
         style="stop-color:#f57d33;stop-opacity:1" />
      <stop
         id="stop3988"
         offset="1"
         style="stop-color:#faa653;stop-opacity:1;" />
    </linearGradient>
  </defs>
  <metadata
     id="metadata4">
    <rdf:RDF>
      <cc:Work
         rdf:about="">
        <dc:format>image/svg+xml</dc:format>
        <dc:type
           rdf:resource="http://purl.org/dc/dcmitype/StillImage" />
        <dc:creator>
          <cc:Agent>
            <dc:title>Sam Hewitt</dc:title>
          </cc:Agent>
        </dc:creator>
        <dc:source />
        <cc:license
           rdf:resource="" />
        <dc:title />
        <dc:subject>
          <rdf:Bag />
        </dc:subject>
        <dc:date />
        <dc:rights>
          <cc:Agent>
            <dc:title />
          </cc:Agent>
        </dc:rights>
        <dc:publisher>
          <cc:Agent>
            <dc:title />
          </cc:Agent>
        </dc:publisher>
        <dc:identifier />
        <dc:relation />
        <dc:language />
        <dc:coverage />
        <dc:description />
        <dc:contributor>
          <cc:Agent>
            <dc:title />
          </cc:Agent>
        </dc:contributor>
      </cc:Work>
      <cc:Work
         rdf:about="">
        <dc:format>image/svg+xml</dc:format>
        <dc:type
           rdf:resource="http://purl.org/dc/dcmitype/StillImage" />
      </cc:Work>
    </rdf:RDF>
  </metadata>
  <g
     style="display:inline"
     inkscape:groupmode="layer"
     inkscape:label="Icon"
     id="layer1">
    <g
       style="display:none"
       inkscape:label="Baseplate"
       id="layer7"
       inkscape:groupmode="layer">
      <text
         y="19.745117"
         xml:space="preserve"
         x="15.006836"
         style="font-style:normal;font-variant:normal;font-weight:normal;font-stretch:normal;line-height:0%;font-family:'DejaVu Sans';-inkscape-font-specification:'DejaVu Sans';display:inline;fill:#000000;fill-opacity:1;stroke:none;enable-background:new"
         inkscape:label="context"
         id="context"><tspan
           style="font-style:normal;font-variant:normal;font-weight:normal;font-stretch:normal;font-size:18px;line-height:1.25;font-family:'DejaVu Sans';-inkscape-font-specification:'DejaVu Sans'"
           y="19.745117"
           x="15.006836"
           sodipodi:role="line"
           id="tspan3933">apps</tspan></text>
      <text
         y="19.745117"
         xml:space="preserve"
         x="122.48828"
         style="font-style:normal;font-variant:normal;font-weight:bold;font-stretch:normal;line-height:0%;font-family:'DejaVu Sans';-inkscape-font-specification:'DejaVu Sans Bold';text-align:start;writing-mode:lr-tb;text-anchor:start;display:inline;fill:#000000;fill-opacity:1;stroke:none;enable-background:new"
         inkscape:label="icon-name"
         id="icon-name"><tspan
           style="font-style:normal;font-variant:normal;font-weight:bold;font-stretch:normal;font-size:18px;line-height:1.25;font-family:'DejaVu Sans';-inkscape-font-specification:'DejaVu Sans Bold'"
           y="19.745117"
           x="122.48828"
           sodipodi:role="line"
           id="tspan3937">sheet</tspan></text>
      <rect
         style="fill:#eeeeec;fill-opacity:1;fill-rule:nonzero;stroke:none;stroke-width:2;marker:none;visibility:visible;display:inline;overflow:visible;enable-background:accumulate"
         id="rect16x16"
         width="16"
         height="16"
         x="416"
         y="140"
         inkscape:label="16x16" />
      <rect
         style="fill:#d4d4d4;fill-opacity:1;fill-rule:nonzero;stroke:none;stroke-width:2;marker:none;visibility:visible;display:inline;overflow:visible;enable-background:accumulate"
         id="rect24x24"
         width="24"
         height="24"
         x="416"
         y="100"
         inkscape:label="24x24" />
      <rect
         style="fill:#eeeeec;fill-opacity:1;fill-rule:nonzero;stroke:none;stroke-width:2;marker:none;visibility:visible;display:inline;overflow:visible;enable-background:accumulate"
         id="rect32x32"
         width="32"
         height="32"
         x="416"
         y="52"
         inkscape:label="32x32" />
      <rect
         inkscape:label="22x22"
         y="101"
         x="417"
         height="22"
         width="22"
         id="rect22x22"
         style="fill:#eeeeec;fill-opacity:1;fill-rule:nonzero;stroke:none;stroke-width:2;marker:none;visibility:visible;display:inline;overflow:visible;enable-background:accumulate" />
      <rect
         inkscape:label="48x48"
         y="220"
         x="288"
         height="48"
         width="48"
         id="rect48x48"
         style="fill:#eeeeec;fill-opacity:1;fill-rule:nonzero;stroke:none;stroke-width:2;marker:none;visibility:visible;display:inline;overflow:visible;enable-background:accumulate" />
      <rect
         style="fill:#eeeeec;fill-opacity:1;fill-rule:nonzero;stroke:none;stroke-width:2;marker:none;visibility:visible;display:inline;overflow:visible;enable-background:accumulate"
         id="rect256x256"
         width="256"
         height="256"
         x="16"
         y="28"
         inkscape:label="256x256" />
      <rect
         style="fill:#eeeeec;fill-opacity:1;fill-rule:nonzero;stroke:none;stroke-width:2;marker:none;visibility:visible;display:inline;overflow:visible;enable-background:accumulate"
         id="rect64x64"
         width="64"
         height="64"
         x="288"
         y="140"
         inkscape:label="64x64" />
      <rect
         style="fill:#eeeeec;fill-opacity:1;fill-rule:nonzero;stroke:none;stroke-width:2;marker:none;visibility:visible;display:inline;overflow:visible;enable-background:accumulate"
         id="rect96x96"
         width="96"
         height="96"
         x="288"
         y="28"
         inkscape:label="96x96" />
    </g>
    <g
       inkscape:groupmode="layer"
       id="layer4"
       inkscape:label="Shadow"
       style="display:inline"
       sodipodi:insensitive="true">
      <rect
         ry="50"
         y="47"
         x="34"
         height="220"
         width="220"
         id="rect4114"
         style="opacity:0.1;color:#bebebe;fill:#000000;fill-opacity:1;fill-rule:nonzero;stroke:none;stroke-width:0;marker:none;visibility:visible;display:inline;overflow:visible;enable-background:accumulate" />
      <rect
         style="opacity:0.1;color:#bebebe;fill:#000000;fill-opacity:1;fill-rule:nonzero;stroke:none;stroke-width:0;marker:none;visibility:visible;display:inline;overflow:visible;enable-background:accumulate"
         id="rect4120"
         width="30"
         height="30"
         x="417"
         y="54"
         ry="7" />
      <rect
         transform="scale(1,-1)"
         ry="9"
         y="-266"
         x="291"
         height="42"
         width="42"
         id="rect4122"
         style="opacity:0.1;color:#bebebe;fill:#000000;fill-opacity:1;fill-rule:nonzero;stroke:none;stroke-width:0;marker:none;visibility:visible;display:inline;overflow:visible;enable-background:accumulate" />
      <rect
         style="opacity:0.1;color:#bebebe;fill:#000000;fill-opacity:1;fill-rule:nonzero;stroke:none;stroke-width:0;marker:none;visibility:visible;display:inline;overflow:visible;enable-background:accumulate"
         id="rect4124"
         width="88"
         height="88"
         x="292"
         y="33"
         ry="18" />
      <rect
         ry="12.5"
         y="143"
         x="290"
         height="60"
         width="60"
         id="rect4126"
         style="opacity:0.1;color:#bebebe;fill:#000000;fill-opacity:1;fill-rule:nonzero;stroke:none;stroke-width:0;marker:none;visibility:visible;display:inline;overflow:visible;enable-background:accumulate" />
      <path
         id="path4268"
         d="m 422,101 c -2.77,0 -5,2.23 -5,5 l 0,12 c 0,2.77 2.23,5 5,5 l 12,0 c 2.77,0 5,-2.23 5,-5 l 0,-12 c 0,-2.77 -2.23,-5 -5,-5 z"
         style="opacity:0.1;color:#bebebe;fill:#000000;fill-opacity:1;fill-rule:nonzero;stroke:none;stroke-width:0;marker:none;visibility:visible;display:inline;overflow:visible;enable-background:accumulate"
         inkscape:connector-curvature="0"
         sodipodi:nodetypes="sssssssss" />
      <path
         id="path4270"
         d="m 419,140 c -1.662,0 -3,1.338 -3,3 l 0,10 c 0,1.662 1.338,3 3,3 l 10,0 c 1.662,0 3,-1.338 3,-3 l 0,-10 c 0,-1.662 -1.338,-3 -3,-3 z"
         style="opacity:0.1;color:#bebebe;fill:#000000;fill-opacity:1;fill-rule:nonzero;stroke:none;stroke-width:0;marker:none;visibility:visible;display:inline;overflow:visible;enable-background:accumulate"
         inkscape:connector-curvature="0"
         sodipodi:nodetypes="sssssssss" />
    </g>
    <g
       inkscape:groupmode="layer"
       id="layer2"
       inkscape:label="Background"
       style="display:inline">
      <g
         id="g2861">
        <g
           id="g1517">
          <path
             style="color:#bebebe;display:inline;overflow:visible;visibility:visible;fill:#f9b233;fill-opacity:1;fill-rule:nonzero;stroke:none;stroke-width:2;marker:none;enable-background:accumulate"
             d="M 84,46.5 C 56.568735,46.5 34.5,68.568732 34.5,96 v 120 c 0,27.43127 22.068735,49.5 49.5,49.5 h 120 c 27.43127,0 49.5,-22.06873 49.5,-49.5 V 96 C 253.5,68.568732 231.43127,46.5 204,46.5 Z"
             id="path4200" />
          <path
             style="fill:#000000;stroke-width:0.150835"
             d="M 139.35267,242.89402 C 127.90921,236.54084 119.2429,229.9595 109.77188,220.42991 92.091152,202.63982 78.15848,179.61905 67.627971,150.79606 63.53448,139.5918 59.623777,125.645 57.640976,115.17928 c -0.569079,-3.00374 -2.064782,-12.83586 -1.967683,-12.93474 0.04408,-0.0449 2.53129,-0.23218 5.527141,-0.41622 8.400892,-0.51605 11.989995,-1.03815 18.71784,-2.722846 17.747424,-4.444061 40.698206,-15.952413 59.860956,-30.016448 l 3.17552,-2.330596 3.17552,2.330596 c 4.03306,2.959965 6.77817,4.848673 10.47448,7.206713 17.33495,11.058729 34.95143,19.195116 49.38647,22.809735 6.72785,1.684696 10.31695,2.206796 18.71783,2.722846 2.99586,0.18404 5.48309,0.37133 5.52716,0.41622 0.0971,0.0989 -1.39861,9.931 -1.96769,12.93474 -4.17511,22.03733 -13.65292,48.30982 -24.45035,67.77642 -8.17218,14.73357 -17.12323,26.85159 -27.68055,37.47421 -9.54429,9.60332 -18.48677,16.37057 -29.97774,22.68578 -1.62598,0.8936 -3.07629,1.62374 -3.22292,1.62249 -0.14662,-0.002 -1.75955,-0.8311 -3.58429,-1.84416 z m 6.14052,-19.27344 c 21.99765,-14.32658 39.98146,-37.97738 53.13098,-69.87347 4.0916,-9.92476 7.91538,-21.63881 10.60311,-32.48239 0.46012,-1.85636 0.83735,-3.46912 0.83829,-3.58392 0,-0.1148 -0.74479,-0.35236 -1.65716,-0.5279 -9.29792,-1.78898 -20.76067,-5.53425 -31.05641,-10.14718 -10.60877,-4.75319 -23.26454,-11.736821 -32.82463,-18.113104 -0.75125,-0.501064 -1.45835,-0.911025 -1.57133,-0.911025 -0.11298,0 -0.94863,0.492536 -1.857,1.094523 -12.38878,8.210201 -27.13191,15.977236 -39.7457,20.939006 -8.160621,3.21007 -16.664093,5.75473 -23.852254,7.13778 -0.945392,0.1819 -1.658855,0.41262 -1.658855,0.53645 0,0.4301 2.092612,8.52605 3.105165,12.01334 9.43125,32.48177 24.230254,59.66558 42.756764,78.53851 3.73637,3.80622 8.83453,8.26943 13.11633,11.48274 1.76327,1.32326 7.92678,5.51256 8.11332,5.51458 0.0406,0 1.19234,-0.72763 2.55938,-1.61794 z m -11.82803,-36.0943 v -10.89907 l -0.61614,0.12516 c -2.10514,0.42761 -5.19067,0.87111 -7.82032,1.12407 -4.83133,0.46475 -15.07188,0.86438 -15.07188,0.58817 0,-0.0465 0.96923,-1.54427 2.15385,-3.32832 3.48688,-5.25129 6.10879,-9.74744 8.88969,-15.24439 1.72787,-3.41545 4.19042,-8.90271 4.05529,-9.03636 -0.0451,-0.0446 -0.71429,0.048 -1.487,0.20584 -1.31757,0.26917 -5.96857,0.76009 -8.64219,0.91219 -1.4085,0.0801 -1.41011,0.1345 0.0538,-1.82339 3.54329,-4.73886 19.0142,-29.47163 26.83466,-42.89958 0.46475,-0.798 0.88766,-1.44816 0.9398,-1.4448 0.0521,0.003 1.92047,3.06109 4.15186,6.79496 10.10111,16.90259 20.26598,33.06021 23.6226,37.54942 1.46394,1.95789 1.46233,1.90352 0.0538,1.82339 -2.67362,-0.1521 -7.32462,-0.64302 -8.64219,-0.91219 -0.77271,-0.15786 -1.44186,-0.25049 -1.487,-0.20584 -0.13513,0.13365 2.32742,5.62091 4.05529,9.03636 2.7809,5.49695 5.40281,9.9931 8.88969,15.24439 1.18462,1.78405 2.15384,3.28179 2.15384,3.32832 0,0.27621 -10.24054,-0.12342 -15.07187,-0.58817 -2.62965,-0.25296 -5.71518,-0.69646 -7.82032,-1.12407 l -0.61614,-0.12516 v 10.89907 10.89904 h -9.28959 -9.28959 z"
             id="path5749"
             inkscape:connector-curvature="0" />
        </g>
        <g
           id="g1848">
          <path
             style="color:#bebebe;display:inline;overflow:visible;visibility:visible;fill:#f9b233;fill-opacity:1;fill-rule:nonzero;stroke:none;stroke-width:2;marker:none;enable-background:accumulate"
             d="m 424,53.5 c -3.60654,0 -6.5,2.893464 -6.5,6.5 v 16 c 0,3.606536 2.89346,6.5 6.5,6.5 h 16 c 3.60654,0 6.5,-2.893464 6.5,-6.5 V 60 c 0,-3.606536 -2.89346,-6.5 -6.5,-6.5 z"
             id="path4206" />
          <path
             style="fill:#000000;stroke-width:0.0199736"
             d="m 431.52301,79.53984 c -1.51534,-0.84129 -2.66293,-1.71279 -3.91709,-2.9747 -2.34128,-2.35577 -4.18625,-5.40418 -5.5807,-9.22092 -0.54206,-1.48367 -1.05991,-3.33051 -1.32248,-4.71638 -0.0753,-0.39775 -0.27342,-1.69973 -0.26056,-1.71282 0.006,-0.006 0.3352,-0.0307 0.73191,-0.0551 1.11244,-0.0683 1.58771,-0.13748 2.47862,-0.36056 2.35011,-0.58849 5.38926,-2.11242 7.92679,-3.97478 L 432,56.21596 l 0.4205,0.30862 c 0.53406,0.39195 0.89757,0.64206 1.38704,0.95431 2.29549,1.4644 4.62827,2.54182 6.53976,3.02047 0.8909,0.22308 1.36617,0.29222 2.47861,0.36056 0.39671,0.0244 0.72607,0.0492 0.73191,0.0551 0.0129,0.0131 -0.1852,1.31507 -0.26056,1.71282 -0.55287,2.91819 -1.80792,6.39719 -3.23772,8.97496 -1.08216,1.95102 -2.26746,3.55569 -3.66546,4.96234 -1.26386,1.27167 -2.44802,2.16779 -3.96966,3.00405 -0.21531,0.11833 -0.40736,0.21502 -0.42677,0.21485 -0.0194,-2.6e-4 -0.233,-0.11005 -0.47464,-0.2442 z m 0.81313,-2.55219 c 2.91293,-1.89713 5.29435,-5.02897 7.03561,-9.25265 0.54181,-1.31424 1.04816,-2.86542 1.40407,-4.30132 0.0609,-0.24582 0.11088,-0.45939 0.111,-0.47459 0,-0.0152 -0.0986,-0.0467 -0.21944,-0.0699 -1.23123,-0.2369 -2.74913,-0.73285 -4.11249,-1.34369 -1.40482,-0.62942 -3.08069,-1.55419 -4.34664,-2.39854 -0.0995,-0.0663 -0.19312,-0.12064 -0.20808,-0.12064 -0.015,0 -0.12562,0.0652 -0.2459,0.14494 -1.64053,1.08719 -3.59281,2.1157 -5.26313,2.77274 -1.08063,0.42508 -2.20666,0.76204 -3.15852,0.94519 -0.12519,0.0241 -0.21966,0.0546 -0.21966,0.071 0,0.057 0.2771,1.12902 0.41118,1.59081 1.24889,4.30124 3.20857,7.90092 5.66186,10.40008 0.49477,0.50402 1.16987,1.09504 1.73686,1.52054 0.23349,0.17523 1.04967,0.72998 1.07437,0.73025 0.005,0 0.15789,-0.0964 0.33891,-0.21425 z m -1.56627,-4.77961 v -1.44326 l -0.0816,0.0166 c -0.27876,0.0566 -0.68735,0.11536 -1.03556,0.14885 -0.63977,0.0615 -1.99582,0.11447 -1.99582,0.0779 0,-0.006 0.12834,-0.20449 0.28521,-0.44074 0.46173,-0.69537 0.80893,-1.29075 1.17717,-2.01866 0.22881,-0.45227 0.5549,-1.1789 0.537,-1.1966 -0.006,-0.006 -0.0946,0.006 -0.1969,0.0273 -0.17448,0.0356 -0.79036,0.10065 -1.1444,0.12079 -0.18652,0.0106 -0.18673,0.0178 0.007,-0.24145 0.4692,-0.62752 2.51786,-3.90264 3.55345,-5.68077 0.0615,-0.10567 0.11754,-0.19176 0.12445,-0.19132 0.007,4e-4 0.25431,0.40535 0.54979,0.89979 1.33759,2.23825 2.68362,4.37784 3.1281,4.9723 0.19386,0.25926 0.19365,0.25206 0.007,0.24145 -0.35404,-0.0201 -0.96993,-0.0851 -1.1444,-0.12079 -0.10232,-0.0209 -0.19093,-0.0332 -0.19691,-0.0273 -0.0179,0.0177 0.3082,0.74433 0.537,1.1966 0.36825,0.72791 0.71544,1.32329 1.17717,2.01866 0.15687,0.23625 0.28522,0.43458 0.28522,0.44074 0,0.0366 -1.35606,-0.0163 -1.99582,-0.0779 -0.34822,-0.0335 -0.75681,-0.0922 -1.03557,-0.14885 l -0.0816,-0.0166 v 1.44326 1.44325 h -1.23013 -1.23013 z"
             id="path1521"
             inkscape:connector-curvature="0" />
        </g>
        <g
           id="g1968">
          <path
             style="color:#bebebe;display:inline;overflow:visible;visibility:visible;fill:#f9b233;fill-opacity:1;fill-rule:nonzero;stroke:none;stroke-width:2;marker:none;enable-background:accumulate"
             d="m 310,32.5 c -9.70255,0 -17.5,7.797452 -17.5,17.5 v 52 c 0,9.70255 7.79745,17.5 17.5,17.5 h 52 c 9.70255,0 17.5,-7.79745 17.5,-17.5 V 50 c 0,-9.702548 -7.79745,-17.5 -17.5,-17.5 z"
             id="path4210" />
          <path
             style="fill:#000000;stroke-width:0.0599208"
             d="m 334.56903,110.61952 c -4.54603,-2.52386 -7.98881,-5.13837 -11.75127,-8.92409 -7.02385,-7.067295 -12.55875,-16.212535 -16.7421,-27.662765 -1.62619,-4.451 -3.17975,-9.99151 -3.96744,-14.14913 -0.22607,-1.19326 -0.82026,-5.09918 -0.78168,-5.13846 0.0175,-0.0178 1.00558,-0.0922 2.19571,-0.16534 3.33734,-0.20501 4.76315,-0.41242 7.43586,-1.08168 7.05034,-1.76545 16.16778,-6.33726 23.78037,-11.92434 l 1.26151,-0.92586 1.26151,0.92586 c 1.60218,1.17587 2.6927,1.92618 4.1611,2.86294 6.88648,4.39319 13.88481,7.62545 19.61928,9.0614 2.67271,0.66926 4.09851,0.87667 7.43585,1.08168 1.19013,0.0731 2.17821,0.14751 2.19572,0.16534 0.0386,0.0393 -0.55561,3.9452 -0.78169,5.13846 -1.6586,8.75456 -5.42376,19.19157 -9.71315,26.92488 -3.24648,5.85306 -6.80238,10.66707 -10.99638,14.887015 -3.79157,3.81501 -7.34406,6.50337 -11.90897,9.01215 -0.64593,0.355 -1.22208,0.64505 -1.28033,0.64456 -0.0582,-8e-4 -0.699,-0.33017 -1.4239,-0.73262 z m 2.43938,-7.65657 c 8.7388,-5.691375 15.88305,-15.086895 21.10683,-27.757945 1.62543,-3.94271 3.14447,-8.59624 4.2122,-12.90396 0.18278,-0.73746 0.33264,-1.37815 0.33302,-1.42375 0,-0.0456 -0.29588,-0.13998 -0.65833,-0.20972 -3.69369,-0.71069 -8.24739,-2.19853 -12.33748,-4.03107 -4.21444,-1.88825 -9.24207,-4.66257 -13.03992,-7.19562 -0.29844,-0.19905 -0.57934,-0.36191 -0.62422,-0.36191 -0.0449,0 -0.37686,0.19567 -0.73772,0.43481 -4.92157,3.26159 -10.77843,6.34712 -15.78938,8.31824 -3.2419,1.27523 -6.61999,2.28612 -9.47556,2.83555 -0.37556,0.0723 -0.65899,0.16392 -0.65899,0.21311 0,0.17086 0.83131,3.38706 1.23355,4.77243 3.74666,12.90371 9.62572,23.70276 16.98557,31.20023 1.48431,1.51206 3.50961,3.285105 5.21059,4.561625 0.70048,0.52568 3.149,2.18992 3.2231,2.19073 0.0161,0 0.47367,-0.28906 1.01674,-0.64275 z m -4.6988,-14.338825 v -4.32977 l -0.24477,0.0497 c -0.83629,0.16988 -2.06205,0.34606 -3.1067,0.44655 -1.9193,0.18463 -5.98746,0.34339 -5.98746,0.23366 0,-0.0185 0.38503,-0.61348 0.85564,-1.32221 1.3852,-2.08613 2.42678,-3.87227 3.53152,-6.05599 0.68641,-1.35682 1.66469,-3.53669 1.611,-3.58979 -0.0179,-0.0177 -0.28376,0.0191 -0.59072,0.0818 -0.52342,0.10694 -2.37108,0.30196 -3.4332,0.36238 -0.55954,0.0318 -0.56018,0.0534 0.0214,-0.72436 1.40761,-1.88256 7.55359,-11.70791 10.66035,-17.0423 0.18462,-0.31701 0.35263,-0.57529 0.37334,-0.57396 0.0207,10e-4 0.76293,1.21605 1.64937,2.69937 4.01277,6.71473 8.05087,13.13351 9.38432,14.91689 0.58157,0.77779 0.58093,0.75619 0.0214,0.72436 -1.06212,-0.0604 -2.90978,-0.25544 -3.4332,-0.36238 -0.30696,-0.0627 -0.57279,-0.0995 -0.59072,-0.0818 -0.0537,0.0531 0.92459,2.23297 1.611,3.58979 1.10474,2.18372 2.14633,3.96986 3.53152,6.05599 0.47061,0.70873 0.85564,1.30372 0.85564,1.32221 0,0.10973 -4.06816,-0.049 -5.98746,-0.23366 -1.04465,-0.10049 -2.27041,-0.27667 -3.1067,-0.44655 l -0.24477,-0.0497 v 4.32977 4.32976 h -3.69038 -3.69039 z"
             id="path1960"
             inkscape:connector-curvature="0" />
        </g>
        <g
           id="g2141">
          <path
             style="color:#bebebe;display:inline;overflow:visible;visibility:visible;fill:#f9b233;fill-opacity:1;fill-rule:nonzero;stroke:none;stroke-width:2;marker:none;enable-background:accumulate"
             d="m 302.5,142.5 c -6.65502,0 -12,5.34498 -12,12 v 35 c 0,6.65502 5.34498,12 12,12 h 35 c 6.65502,0 12,-5.34498 12,-12 v -35 c 0,-6.65502 -5.34498,-12 -12,-12 z"
             id="path4212" />
          <path
             style="fill:#000000;stroke-width:0.0406359"
             d="m 319.02957,195.47761 c -3.08294,-1.71159 -5.4177,-3.48464 -7.96925,-6.05197 -4.76331,-4.79277 -8.51686,-10.99471 -11.35384,-18.75981 -1.10282,-3.0185 -2.15638,-6.77585 -2.69056,-9.59539 -0.15332,-0.80922 -0.55627,-3.45806 -0.53011,-3.4847 0.0119,-0.0121 0.68195,-0.0626 1.48905,-0.11213 2.26325,-0.13903 3.23018,-0.27968 5.0427,-0.73355 4.78127,-1.19726 10.96436,-4.29768 16.12693,-8.08662 l 0.8555,-0.62788 0.85551,0.62788 c 1.08653,0.79743 1.82608,1.30626 2.82189,1.94153 4.67015,2.97929 9.41614,5.17129 13.30503,6.14509 1.81253,0.45387 2.77945,0.59452 5.0427,0.73355 0.80711,0.0496 1.47718,0.10004 1.48906,0.11213 0.0262,0.0266 -0.3768,2.67548 -0.53011,3.4847 -1.1248,5.937 -3.67819,13.01498 -6.58708,18.2594 -2.20164,3.96932 -4.61311,7.23399 -7.45732,10.0958 -2.57129,2.58719 -4.98045,4.41033 -8.07619,6.11169 -0.43805,0.24074 -0.82878,0.43745 -0.86828,0.43711 -0.0395,-5.4e-4 -0.47403,-0.2239 -0.96563,-0.49683 z m 1.6543,-5.19239 c 5.9263,-3.85967 10.77126,-10.23135 14.31382,-18.82436 1.1023,-2.67379 2.13245,-5.82963 2.85655,-8.75096 0.12396,-0.50011 0.22558,-0.9346 0.22584,-0.96553 0,-0.0309 -0.20065,-0.0949 -0.44645,-0.14222 -2.50492,-0.48196 -5.59306,-1.49096 -8.3668,-2.73372 -2.85807,-1.28054 -6.26761,-3.16197 -8.84316,-4.87978 -0.20239,-0.13499 -0.39289,-0.24544 -0.42333,-0.24544 -0.0304,0 -0.25557,0.1327 -0.50029,0.29487 -3.33761,2.21188 -7.30951,4.30437 -10.70774,5.64111 -2.19853,0.86481 -4.48942,1.55036 -6.42595,1.92296 -0.2547,0.049 -0.44691,0.11116 -0.44691,0.14452 0,0.11587 0.56376,2.29698 0.83655,3.23647 2.54084,8.7508 6.52779,16.07429 11.51895,21.15878 1.0066,1.02542 2.38008,2.22784 3.53362,3.09352 0.47504,0.3565 2.13553,1.48512 2.18578,1.48567 0.0109,0 0.32123,-0.19603 0.68952,-0.43589 z m -3.18655,-9.72403 v -2.93628 l -0.16599,0.0337 c -0.56714,0.1152 -1.3984,0.23468 -2.10685,0.30283 -1.30159,0.12521 -4.06046,0.23287 -4.06046,0.15846 0,-0.0125 0.26112,-0.41604 0.58026,-0.89667 0.93939,-1.41474 1.64575,-2.62603 2.39494,-4.10694 0.4655,-0.92014 1.12893,-2.39845 1.09252,-2.43445 -0.0121,-0.012 -0.19243,0.0129 -0.4006,0.0555 -0.35497,0.0725 -1.60798,0.20477 -2.32827,0.24575 -0.37945,0.0216 -0.37989,0.0362 0.0145,-0.49123 0.95458,-1.27668 5.12255,-7.93985 7.22943,-11.55742 0.1252,-0.21499 0.23914,-0.39015 0.25319,-0.38924 0.014,8.1e-4 0.51738,0.82468 1.11853,1.8306 2.72131,4.55367 5.45979,8.90664 6.36408,10.11606 0.3944,0.52747 0.39396,0.51282 0.0145,0.49123 -0.72029,-0.041 -1.9733,-0.17323 -2.32827,-0.24575 -0.20817,-0.0425 -0.38844,-0.0675 -0.4006,-0.0555 -0.0364,0.036 0.62702,1.51431 1.09252,2.43445 0.74919,1.48091 1.45555,2.6922 2.39494,4.10694 0.31914,0.48063 0.58026,0.88413 0.58026,0.89667 0,0.0744 -2.75887,-0.0333 -4.06046,-0.15846 -0.70845,-0.0682 -1.53971,-0.18763 -2.10685,-0.30283 l -0.16599,-0.0337 v 2.93628 2.93627 h -2.50267 -2.50268 z"
             id="path2133"
             inkscape:connector-curvature="0" />
        </g>
        <g
           id="g2315">
          <path
             style="color:#bebebe;display:inline;overflow:visible;visibility:visible;fill:#f9b233;fill-opacity:1;fill-rule:nonzero;stroke:none;stroke-width:2;marker:none;enable-background:accumulate"
             d="m 300,223.5 c -4.71531,0 -8.5,3.78469 -8.5,8.5 v 24 c 0,4.71531 3.78469,8.5 8.5,8.5 h 24 c 4.71531,0 8.5,-3.78469 8.5,-8.5 v -24 c 0,-4.71531 -3.78469,-8.5 -8.5,-8.5 z"
             id="path4208" />
          <path
             style="fill:#000000;stroke-width:0.0282385"
             d="m 311.32564,260.31494 c -2.14239,-1.18941 -3.76485,-2.42153 -5.53796,-4.20561 -3.31009,-3.33057 -5.91849,-7.64039 -7.88996,-13.03647 -0.76636,-2.09761 -1.4985,-4.70865 -1.86971,-6.66799 -0.10654,-0.56234 -0.38655,-2.40306 -0.36838,-2.42157 0.008,-0.008 0.4739,-0.0435 1.03477,-0.0779 1.57277,-0.0966 2.2447,-0.19436 3.50425,-0.50976 3.32258,-0.83199 7.6193,-2.98652 11.20684,-5.61951 L 312,227.3398 l 0.5945,0.43633 c 0.75505,0.55414 1.26897,0.90774 1.96098,1.3492 3.24535,2.07035 6.54342,3.5936 9.24587,4.27031 1.25955,0.3154 1.93148,0.41315 3.50425,0.50976 0.56087,0.0344 1.02651,0.0695 1.03476,0.0779 0.0182,0.0185 -0.26184,1.85923 -0.36838,2.42157 -0.78164,4.12571 -2.55602,9.04431 -4.57746,12.68874 -1.52995,2.75834 -3.20572,5.02701 -5.1822,7.01572 -1.78683,1.79788 -3.461,3.06481 -5.61228,4.24711 -0.3044,0.16729 -0.57592,0.30399 -0.60337,0.30375 -0.0274,-3.7e-4 -0.32942,-0.15559 -0.67103,-0.34525 z m 1.14959,-3.60827 c 4.11828,-2.68215 7.48511,-7.10992 9.9469,-13.08133 0.766,-1.85806 1.48187,-4.05111 1.98505,-6.08118 0.0861,-0.34754 0.15677,-0.64947 0.15694,-0.67096 0,-0.0215 -0.13943,-0.066 -0.31024,-0.0988 -1.74071,-0.33492 -3.8867,-1.03609 -5.81421,-1.8997 -1.98612,-0.88986 -4.35547,-2.1973 -6.14525,-3.39103 -0.14065,-0.0938 -0.27303,-0.17056 -0.29418,-0.17056 -0.0212,0 -0.1776,0.0922 -0.34766,0.20491 -2.31936,1.53707 -5.07949,2.99117 -7.44097,3.92009 -1.52779,0.60097 -3.11977,1.07737 -4.46549,1.33629 -0.177,0.0341 -0.31057,0.0772 -0.31057,0.10044 0,0.0805 0.39177,1.5962 0.58134,2.24907 1.76566,6.08106 4.53625,11.17027 8.00469,14.70356 0.6995,0.71258 1.65395,1.54815 2.45557,2.14973 0.33011,0.24774 1.484,1.03203 1.51893,1.03241 0.008,0 0.22322,-0.13622 0.47915,-0.3029 z m -2.21438,-6.75738 v -2.04047 l -0.11535,0.0234 c -0.39411,0.08 -0.97177,0.16308 -1.46408,0.21044 -0.90449,0.087 -2.82167,0.16182 -2.82167,0.11011 0,-0.009 0.18145,-0.28911 0.40323,-0.62311 0.65279,-0.98312 1.14365,-1.82486 1.66428,-2.85397 0.32348,-0.63942 0.78451,-1.66672 0.75921,-1.69174 -0.008,-0.008 -0.13373,0.009 -0.27839,0.0385 -0.24667,0.0504 -1.1174,0.1423 -1.61794,0.17077 -0.2637,0.015 -0.264,0.0252 0.0101,-0.34136 0.66335,-0.88719 3.55973,-5.51752 5.02384,-8.03143 0.087,-0.1494 0.16618,-0.27112 0.17594,-0.27049 0.01,5.6e-4 0.35954,0.57308 0.77729,1.27212 1.89108,3.16441 3.79409,6.18935 4.4225,7.0298 0.27407,0.36654 0.27377,0.35636 0.0101,0.34136 -0.50054,-0.0285 -1.37128,-0.12038 -1.61795,-0.17077 -0.14466,-0.0296 -0.26993,-0.0469 -0.27838,-0.0385 -0.0253,0.025 0.43572,1.05232 0.75921,1.69174 0.52062,1.02911 1.01148,1.87085 1.66428,2.85397 0.22177,0.334 0.40323,0.6144 0.40323,0.62311 0,0.0517 -1.91718,-0.0231 -2.82168,-0.11011 -0.49231,-0.0474 -1.06996,-0.13039 -1.46408,-0.21044 l -0.11535,-0.0234 v 2.04047 2.04046 h -1.73914 -1.73915 z"
             id="path2307"
             inkscape:connector-curvature="0" />
        </g>
        <g
           id="g2492">
          <path
             style="color:#bebebe;display:inline;overflow:visible;visibility:visible;fill:#f9b233;fill-opacity:1;fill-rule:nonzero;stroke:none;stroke-width:2;marker:none;enable-background:accumulate"
             d="m 422,101.5 c -2.49699,0 -4.5,2.00301 -4.5,4.5 v 12 c 0,2.49699 2.00301,4.5 4.5,4.5 h 12 c 2.49699,0 4.5,-2.00301 4.5,-4.5 v -12 c 0,-2.49699 -2.00301,-4.5 -4.5,-4.5 z"
             id="path4204" />
          <path
             style="fill:#000000;stroke-width:0.0144636"
             d="m 427.65461,120.35644 c -1.09731,-0.60921 -1.92833,-1.2403 -2.83651,-2.1541 -1.69541,-1.70589 -3.03142,-3.91337 -4.0412,-6.67721 -0.39252,-1.07439 -0.76752,-2.41175 -0.95765,-3.41531 -0.0546,-0.28803 -0.198,-1.23084 -0.18869,-1.24032 0.004,-0.004 0.24273,-0.0223 0.53,-0.0399 0.80557,-0.0495 1.14973,-0.0996 1.79487,-0.2611 1.7018,-0.42614 3.90256,-1.52968 5.74009,-2.87828 l 0.3045,-0.22349 0.3045,0.22349 c 0.38673,0.28383 0.64996,0.46494 1.0044,0.69105 1.66226,1.06043 3.35151,1.84063 4.73569,2.18723 0.64514,0.16155 0.9893,0.21162 1.79486,0.2611 0.28728,0.0177 0.52578,0.0356 0.53,0.0399 0.009,0.009 -0.13411,0.95229 -0.18868,1.24032 -0.40035,2.11317 -1.30918,4.63245 -2.34455,6.49911 -0.78364,1.41281 -1.64196,2.57481 -2.6543,3.59341 -0.91521,0.92087 -1.77271,1.56979 -2.87458,2.17535 -0.15592,0.0857 -0.29499,0.1557 -0.30905,0.15558 -0.0141,-1.9e-4 -0.16872,-0.0797 -0.3437,-0.17683 z m 0.58882,-1.84814 c 2.10937,-1.37378 3.83384,-3.64167 5.09475,-6.7002 0.39235,-0.95169 0.75901,-2.07495 1.01674,-3.11475 0.0441,-0.178 0.0803,-0.33265 0.0804,-0.34366 0,-0.011 -0.0714,-0.0338 -0.1589,-0.0506 -0.89158,-0.17155 -1.99075,-0.53068 -2.97801,-0.97302 -1.01728,-0.45578 -2.23085,-1.12545 -3.14757,-1.73687 -0.072,-0.0481 -0.13984,-0.0874 -0.15068,-0.0874 -0.0108,0 -0.091,0.0472 -0.17807,0.10496 -1.18796,0.78727 -2.60169,1.53206 -3.81123,2.00784 -0.78252,0.30782 -1.59792,0.55183 -2.2872,0.68445 -0.0906,0.0174 -0.15907,0.0396 -0.15907,0.0514 0,0.0412 0.20066,0.81757 0.29776,1.15196 0.90436,3.11469 2.32345,5.72136 4.09996,7.53109 0.35828,0.36498 0.84715,0.79296 1.25773,1.10109 0.16908,0.12689 0.7601,0.5286 0.77799,0.52879 0.004,0 0.11434,-0.0698 0.24542,-0.15514 z m -1.13419,-3.4611 v -1.04511 l -0.0591,0.012 c -0.20187,0.041 -0.49774,0.0835 -0.7499,0.10778 -0.46328,0.0446 -1.44525,0.0829 -1.44525,0.0564 0,-0.004 0.0929,-0.14808 0.20654,-0.31915 0.33435,-0.50355 0.58577,-0.93469 0.85243,-1.46179 0.16569,-0.32751 0.40182,-0.85368 0.38887,-0.8665 -0.004,-0.004 -0.0685,0.005 -0.14259,0.0197 -0.12635,0.0258 -0.57233,0.0729 -0.82871,0.0875 -0.13506,0.008 -0.13521,0.0129 0.005,-0.17485 0.33977,-0.45441 1.82328,-2.82604 2.57319,-4.11366 0.0446,-0.0765 0.0851,-0.13886 0.0901,-0.13854 0.005,2.9e-4 0.18415,0.29353 0.39812,0.65157 0.9686,1.6208 1.94331,3.17016 2.26518,3.60063 0.14038,0.18775 0.14022,0.18253 0.005,0.17485 -0.25637,-0.0146 -0.70236,-0.0617 -0.8287,-0.0875 -0.0741,-0.0151 -0.13826,-0.024 -0.14259,-0.0197 -0.013,0.0128 0.22318,0.53899 0.38886,0.8665 0.26666,0.5271 0.51808,0.95824 0.85244,1.46179 0.11359,0.17107 0.20653,0.31469 0.20653,0.31915 0,0.0265 -0.98197,-0.0118 -1.44525,-0.0564 -0.25216,-0.0242 -0.54803,-0.0668 -0.74989,-0.10778 l -0.0591,-0.012 v 1.04511 1.04512 h -0.89079 -0.89078 z"
             id="path2484"
             inkscape:connector-curvature="0" />
        </g>
        <g
           id="g2670">
          <path
             style="color:#bebebe;display:inline;overflow:visible;visibility:visible;fill:#f9b233;fill-opacity:1;fill-rule:nonzero;stroke:none;stroke-width:2;marker:none;enable-background:accumulate"
             d="m 419,140.5 c -1.3844,0 -2.5,1.1156 -2.5,2.5 v 10 c 0,1.3844 1.1156,2.5 2.5,2.5 h 10 c 1.3844,0 2.5,-1.1156 2.5,-2.5 v -10 c 0,-1.3844 -1.1156,-2.5 -2.5,-2.5 z"
             id="path4202" />
          <path
             style="fill:#000000;stroke-width:0.0103312"
             d="m 423.75326,153.96888 c -0.7838,-0.43515 -1.37738,-0.88592 -2.02608,-1.53863 -1.21101,-1.2185 -2.1653,-2.79527 -2.88657,-4.76945 -0.28037,-0.76741 -0.54823,-1.72267 -0.68404,-2.4395 -0.039,-0.20574 -0.14142,-0.87917 -0.13477,-0.88594 0.003,-0.003 0.17338,-0.0159 0.37857,-0.0285 0.5754,-0.0353 0.82123,-0.0711 1.28204,-0.1865 1.21558,-0.30439 2.78755,-1.09263 4.10007,-2.05592 l 0.2175,-0.15963 0.2175,0.15963 c 0.27624,0.20274 0.46426,0.3321 0.71743,0.49361 1.18733,0.75745 2.39394,1.31473 3.38264,1.56231 0.46081,0.11539 0.70664,0.15115 1.28204,0.1865 0.2052,0.0126 0.37555,0.0254 0.37857,0.0285 0.007,0.007 -0.0958,0.6802 -0.13477,0.88594 -0.28597,1.5094 -0.93513,3.30889 -1.67468,4.64222 -0.55974,1.00915 -1.17283,1.83915 -1.89593,2.56673 -0.65372,0.65776 -1.26622,1.12127 -2.05327,1.55382 -0.11137,0.0612 -0.2107,0.11121 -0.22075,0.11113 -0.01,-1.4e-4 -0.12051,-0.0569 -0.2455,-0.12632 z m 0.42059,-1.3201 c 1.50669,-0.98127 2.73845,-2.60119 3.63911,-4.78585 0.28024,-0.67978 0.54214,-1.48211 0.72624,-2.22482 0.0315,-0.12715 0.0573,-0.23761 0.0574,-0.24547 0,-0.008 -0.051,-0.0241 -0.1135,-0.0362 -0.63685,-0.12254 -1.42197,-0.37906 -2.12715,-0.69502 -0.72663,-0.32556 -1.59346,-0.80389 -2.24827,-1.24062 -0.0514,-0.0343 -0.0999,-0.0624 -0.10762,-0.0624 -0.008,0 -0.065,0.0337 -0.12719,0.075 -0.84855,0.56234 -1.85835,1.09433 -2.72231,1.43418 -0.55895,0.21987 -1.14138,0.39416 -1.63372,0.48889 -0.0648,0.0125 -0.11362,0.0283 -0.11362,0.0367 0,0.0295 0.14333,0.58398 0.21269,0.82283 0.64597,2.22478 1.6596,4.08669 2.92854,5.37935 0.25592,0.2607 0.60511,0.5664 0.89838,0.78649 0.12077,0.0906 0.54293,0.37757 0.55571,0.37771 0.003,0 0.0817,-0.0498 0.1753,-0.11082 z m -0.81014,-2.47221 v -0.74651 l -0.0422,0.009 c -0.14419,0.0293 -0.35553,0.0597 -0.53564,0.077 -0.33091,0.0318 -1.03232,0.0592 -1.03232,0.0403 0,-0.003 0.0664,-0.10577 0.14752,-0.22797 0.23883,-0.35967 0.41841,-0.66763 0.60888,-1.04413 0.11835,-0.23394 0.28702,-0.60978 0.27776,-0.61893 -0.003,-0.003 -0.0489,0.003 -0.10185,0.0141 -0.0902,0.0184 -0.4088,0.0521 -0.59193,0.0625 -0.0965,0.005 -0.0966,0.009 0.004,-0.12489 0.24269,-0.32458 1.30234,-2.01861 1.83799,-2.93833 0.0318,-0.0547 0.0608,-0.0992 0.0644,-0.099 0.004,2e-4 0.13154,0.20966 0.28437,0.46541 0.69186,1.15771 1.38808,2.2644 1.61799,2.57188 0.10027,0.1341 0.10016,0.13037 0.004,0.12489 -0.18312,-0.0104 -0.50168,-0.044 -0.59193,-0.0625 -0.0529,-0.0108 -0.0987,-0.0172 -0.10185,-0.0141 -0.009,0.009 0.15942,0.38499 0.27776,0.61893 0.19048,0.3765 0.37006,0.68446 0.60889,1.04413 0.0811,0.1222 0.14752,0.22478 0.14752,0.22797 0,0.0189 -0.70141,-0.008 -1.03232,-0.0403 -0.18011,-0.0173 -0.39145,-0.0477 -0.53564,-0.077 l -0.0422,-0.009 v 0.74651 0.74651 h -0.63627 -0.63628 z"
             id="path2662"
             inkscape:connector-curvature="0" />
        </g>
      </g>
    </g>
    <g
       inkscape:groupmode="layer"
       id="layer6"
       inkscape:label="Symbols"
       style="display:inline" />
    <g
       inkscape:groupmode="layer"
       id="layer5"
       inkscape:label="Highlights"
       style="display:inline"
       sodipodi:insensitive="true">
      <path
         style="opacity:0.12999998;color:#bebebe;fill:#ffffff;fill-opacity:1;fill-rule:nonzero;stroke:none;stroke-width:0;marker:none;visibility:visible;display:inline;overflow:visible;enable-background:accumulate"
         d="M 84,47 C 56.836703,47 35,68.836703 35,96 l 0,1 C 35,69.836703 56.836703,48 84,48 l 120,0 c 27.1633,0 49,21.836703 49,49 l 0,-1 C 253,68.836703 231.1633,47 204,47 L 84,47 z"
         id="rect3894"
         inkscape:connector-curvature="0" />
      <path
         style="opacity:0.12999998;color:#bebebe;fill:#ffffff;fill-opacity:1;fill-rule:nonzero;stroke:none;stroke-width:0;marker:none;visibility:visible;display:inline;overflow:visible;enable-background:accumulate"
         d="m 419,141 c -1.1253,0 -2,0.8747 -2,2 l 0,1 c 0,-1.1253 0.8747,-2 2,-2 l 10,0 c 1.1253,0 2,0.8747 2,2 l 0,-1 c 0,-1.1253 -0.8747,-2 -2,-2 l -10,0 z"
         id="rect3896"
         inkscape:connector-curvature="0" />
      <path
         style="opacity:0.12999998;color:#bebebe;fill:#ffffff;fill-opacity:1;fill-rule:nonzero;stroke:none;stroke-width:0;marker:none;visibility:visible;display:inline;overflow:visible;enable-background:accumulate"
         d="m 422,102 c -2.2333,0 -4,1.7667 -4,4 l 0,1 c 0,-2.2333 1.7667,-4 4,-4 l 12,0 c 2.2333,0 4,1.7667 4,4 l 0,-1 c 0,-2.2333 -1.7667,-4 -4,-4 l -12,0 z"
         id="rect3898"
         inkscape:connector-curvature="0" />
      <path
         style="opacity:0.12999998;color:#bebebe;fill:#ffffff;fill-opacity:1;fill-rule:nonzero;stroke:none;stroke-width:0;marker:none;visibility:visible;display:inline;overflow:visible;enable-background:accumulate"
         d="m 424,54 c -3.3413,0 -6,2.658703 -6,6 l 0,1 c 0,-3.341297 2.6587,-6 6,-6 l 16,0 c 3.3413,0 6,2.658703 6,6 l 0,-1 c 0,-3.341297 -2.6587,-6 -6,-6 l -16,0 z"
         id="rect3900"
         inkscape:connector-curvature="0" />
      <path
         style="opacity:0.12999998;color:#bebebe;fill:#ffffff;fill-opacity:1;fill-rule:nonzero;stroke:none;stroke-width:0;marker:none;visibility:visible;display:inline;overflow:visible;enable-background:accumulate"
         d="m 300,224 c -4.4493,0 -8,3.5507 -8,8 l 0,1 c 0,-4.4493 3.5507,-8 8,-8 l 24,0 c 4.4493,0 8,3.5507 8,8 l 0,-1 c 0,-4.4493 -3.5507,-8 -8,-8 l -24,0 z"
         id="rect3902"
         inkscape:connector-curvature="0" />
      <path
         style="opacity:0.12999998;color:#bebebe;fill:#ffffff;fill-opacity:1;fill-rule:nonzero;stroke:none;stroke-width:0;marker:none;visibility:visible;display:inline;overflow:visible;enable-background:accumulate"
         d="m 310,33 c -9.4353,0 -17,7.564703 -17,17 l 0,1 c 0,-9.435297 7.5647,-17 17,-17 l 52,0 c 9.4353,0 17,7.564703 17,17 l 0,-1 c 0,-9.435297 -7.5647,-17 -17,-17 l -52,0 z"
         id="rect3904"
         inkscape:connector-curvature="0" />
      <path
         style="opacity:0.12999998;color:#bebebe;fill:#ffffff;fill-opacity:1;fill-rule:nonzero;stroke:none;stroke-width:0;marker:none;visibility:visible;display:inline;overflow:visible;enable-background:accumulate"
         d="m 302.5,143 c -6.3883,0 -11.5,5.1117 -11.5,11.5 l 0,1 c 0,-6.3883 5.1117,-11.5 11.5,-11.5 l 35,0 c 6.3883,0 11.5,5.1117 11.5,11.5 l 0,-1 c 0,-6.3883 -5.1117,-11.5 -11.5,-11.5 l -35,0 z"
         id="rect3906"
         inkscape:connector-curvature="0" />
      <path
         id="path4085"
         d="m 204,266 c 27.1633,0 49,-21.8367 49,-49 l 0,-1 c 0,27.1633 -21.8367,49 -49,49 L 84,265 C 56.8367,265 35,243.1633 35,216 l 0,1 c 0,27.1633 21.8367,49 49,49 l 120,0 z"
         style="opacity:0.41;color:#bebebe;fill:#000000;fill-opacity:1;fill-rule:nonzero;stroke:none;stroke-width:0;marker:none;visibility:visible;display:inline;overflow:visible;enable-background:accumulate"
         inkscape:connector-curvature="0" />
      <path
         id="path4087"
         d="m 429,156 c 1.1253,0 2,-0.8747 2,-2 l 0,-1 c 0,1.1253 -0.8747,2 -2,2 l -10,0 c -1.1253,0 -2,-0.8747 -2,-2 l 0,1 c 0,1.1253 0.8747,2 2,2 l 10,0 z"
         style="opacity:0.3;color:#bebebe;fill:#000000;fill-opacity:1;fill-rule:nonzero;stroke:none;stroke-width:0;marker:none;visibility:visible;display:inline;overflow:visible;enable-background:accumulate"
         inkscape:connector-curvature="0" />
      <path
         id="path4089"
         d="m 434,123 c 2.2333,0 4,-1.7667 4,-4 l 0,-1 c 0,2.2333 -1.7667,4 -4,4 l -12,0 c -2.2333,0 -4,-1.7667 -4,-4 l 0,1 c 0,2.2333 1.7667,4 4,4 l 12,0 z"
         style="opacity:0.3;color:#bebebe;fill:#000000;fill-opacity:1;fill-rule:nonzero;stroke:none;stroke-width:0;marker:none;visibility:visible;display:inline;overflow:visible;enable-background:accumulate"
         inkscape:connector-curvature="0" />
      <path
         id="path4091"
         d="m 440,83 c 3.3413,0 6,-2.6587 6,-6 l 0,-1 c 0,3.3413 -2.6587,6 -6,6 l -16,0 c -3.3413,0 -6,-2.6587 -6,-6 l 0,1 c 0,3.3413 2.6587,6 6,6 l 16,0 z"
         style="opacity:0.41;color:#bebebe;fill:#000000;fill-opacity:1;fill-rule:nonzero;stroke:none;stroke-width:0;marker:none;visibility:visible;display:inline;overflow:visible;enable-background:accumulate"
         inkscape:connector-curvature="0" />
      <path
         id="path4093"
         d="m 324,265 c 4.4493,0 8,-3.5507 8,-8 l 0,-1 c 0,4.4493 -3.5507,8 -8,8 l -24,0 c -4.4493,0 -8,-3.5507 -8,-8 l 0,1 c 0,4.4493 3.5507,8 8,8 l 24,0 z"
         style="opacity:0.41;color:#bebebe;fill:#000000;fill-opacity:1;fill-rule:nonzero;stroke:none;stroke-width:0;marker:none;visibility:visible;display:inline;overflow:visible;enable-background:accumulate"
         inkscape:connector-curvature="0" />
      <path
         id="path4095"
         d="m 362,120 c 9.4353,0 17,-7.5647 17,-17 l 0,-1 c 0,9.4353 -7.5647,17 -17,17 l -52,0 c -9.4353,0 -17,-7.5647 -17,-17 l 0,1 c 0,9.4353 7.5647,17 17,17 l 52,0 z"
         style="opacity:0.41;color:#bebebe;fill:#000000;fill-opacity:1;fill-rule:nonzero;stroke:none;stroke-width:0;marker:none;visibility:visible;display:inline;overflow:visible;enable-background:accumulate"
         inkscape:connector-curvature="0" />
      <path
         id="path4097"
         d="m 337.5,202 c 6.3883,0 11.5,-5.1117 11.5,-11.5 l 0,-1 c 0,6.3883 -5.1117,11.5 -11.5,11.5 l -35,0 c -6.3883,0 -11.5,-5.1117 -11.5,-11.5 l 0,1 c 0,6.3883 5.1117,11.5 11.5,11.5 l 35,0 z"
         style="opacity:0.41;color:#bebebe;fill:#000000;fill-opacity:1;fill-rule:nonzero;stroke:none;stroke-width:0;marker:none;visibility:visible;display:inline;overflow:visible;enable-background:accumulate"
         inkscape:connector-curvature="0" />
      <path
         inkscape:connector-curvature="0"
         id="path4280"
         d="M 84,265 C 56.836703,265 35,243.1633 35,216 l 0,-1 c 0,27.1633 21.836703,49 49,49 l 120,0 c 27.1633,0 49,-21.8367 49,-49 l 0,1 c 0,27.1633 -21.8367,49 -49,49 l -120,0 z"
         style="opacity:0.1;color:#bebebe;fill:#ffffff;fill-opacity:1;fill-rule:nonzero;stroke:none;stroke-width:0;marker:none;visibility:visible;display:inline;overflow:visible;enable-background:accumulate" />
      <path
         style="opacity:0.1;color:#bebebe;fill:#ffffff;fill-opacity:1;fill-rule:nonzero;stroke:none;stroke-width:0;marker:none;visibility:visible;display:inline;overflow:visible;enable-background:accumulate"
         d="m 300,264 c -4.4493,0 -8,-3.5507 -8,-8 l 0,-1 c 0,4.4493 3.5507,8 8,8 l 24,0 c 4.4493,0 8,-3.5507 8,-8 l 0,1 c 0,4.4493 -3.5507,8 -8,8 l -24,0 z"
         id="path4294"
         inkscape:connector-curvature="0" />
      <path
         style="opacity:0.1;color:#bebebe;fill:#ffffff;fill-opacity:1;fill-rule:nonzero;stroke:none;stroke-width:0;marker:none;visibility:visible;display:inline;overflow:visible;enable-background:accumulate"
         d="m 302.5,201 c -6.3883,0 -11.5,-5.1117 -11.5,-11.5 l 0,-1 c 0,6.3883 5.1117,11.5 11.5,11.5 l 35,0 c 6.3883,0 11.5,-5.1117 11.5,-11.5 l 0,1 c 0,6.3883 -5.1117,11.5 -11.5,11.5 l -35,0 z"
         id="path4296"
         inkscape:connector-curvature="0" />
      <path
         style="opacity:0.1;color:#bebebe;fill:#ffffff;fill-opacity:1;fill-rule:nonzero;stroke:none;stroke-width:0;marker:none;visibility:visible;display:inline;overflow:visible;enable-background:accumulate"
         d="m 310,119 c -9.4353,0 -17,-7.5647 -17,-17 l 0,-1 c 0,9.4353 7.5647,17 17,17 l 52,0 c 9.4353,0 17,-7.5647 17,-17 l 0,1 c 0,9.4353 -7.5647,17 -17,17 l -52,0 z"
         id="path4298"
         inkscape:connector-curvature="0" />
      <path
         style="opacity:0.1;color:#bebebe;fill:#ffffff;fill-opacity:1;fill-rule:nonzero;stroke:none;stroke-width:0;marker:none;visibility:visible;display:inline;overflow:visible;enable-background:accumulate"
         d="m 424,82 c -3.3413,0 -6,-2.658703 -6,-6 l 0,-1 c 0,3.341297 2.6587,6 6,6 l 16,0 c 3.3413,0 6,-2.658703 6,-6 l 0,1 c 0,3.341297 -2.6587,6 -6,6 l -16,0 z"
         id="path4300"
         inkscape:connector-curvature="0" />
      <path
         style="opacity:0.1;color:#bebebe;fill:#ffffff;fill-opacity:1;fill-rule:nonzero;stroke:none;stroke-width:0;marker:none;visibility:visible;display:inline;overflow:visible;enable-background:accumulate"
         d="m 422,122 c -2.2333,0 -4,-1.7667 -4,-4 l 0,-1 c 0,2.2333 1.7667,4 4,4 l 12,0 c 2.2333,0 4,-1.7667 4,-4 l 0,1 c 0,2.2333 -1.7667,4 -4,4 l -12,0 z"
         id="path4302"
         inkscape:connector-curvature="0" />
      <path
         style="opacity:0.1;color:#bebebe;fill:#ffffff;fill-opacity:1;fill-rule:nonzero;stroke:none;stroke-width:0;marker:none;visibility:visible;display:inline;overflow:visible;enable-background:accumulate"
         d="m 419,154.5 c -1.1253,0 -2,-0.8747 -2,-2 l 0,-1 c 0,1.1253 0.8747,2 2,2 l 10,0 c 1.1253,0 2,-0.8747 2,-2 l 0,1 c 0,1.1253 -0.8747,2 -2,2 l -10,0 z"
         id="path4304"
         inkscape:connector-curvature="0" />
    </g>
    <g
       inkscape:groupmode="layer"
       id="layer3"
       inkscape:label="Border"
       style="display:inline"
       sodipodi:insensitive="true">
      <path
         style="opacity:0.41;color:#bebebe;fill:#000000;fill-opacity:1;fill-rule:nonzero;stroke:none;stroke-width:0;marker:none;visibility:visible;display:inline;overflow:visible;enable-background:accumulate"
         d="m 422,101 c -2.77,0 -5,2.23 -5,5 l 0,12 c 0,2.77 2.23,5 5,5 l 12,0 c 2.77,0 5,-2.23 5,-5 l 0,-12 c 0,-2.77 -2.23,-5 -5,-5 l -12,0 z m 0,1 12,0 c 2.2333,0 4,1.7667 4,4 l 0,12 c 0,2.2333 -1.7667,4 -4,4 l -12,0 c -2.2333,0 -4,-1.7667 -4,-4 l 0,-12 c 0,-2.2333 1.7667,-4 4,-4 z"
         id="rect4099"
         inkscape:connector-curvature="0" />
      <path
         style="opacity:0.41;color:#bebebe;fill:#000000;fill-opacity:1;fill-rule:nonzero;stroke:none;stroke-width:0;marker:none;visibility:visible;display:inline;overflow:visible;enable-background:accumulate"
         d="m 424,53 c -3.878,0 -7,3.122 -7,7 l 0,16 c 0,3.878 3.122,7 7,7 l 16,0 c 3.878,0 7,-3.122 7,-7 l 0,-16 c 0,-3.878 -3.122,-7 -7,-7 l -16,0 z m 0,1 16,0 c 3.3413,0 6,2.658703 6,6 l 0,16 c 0,3.341297 -2.6587,6 -6,6 l -16,0 c -3.3413,0 -6,-2.658703 -6,-6 l 0,-16 c 0,-3.341297 2.6587,-6 6,-6 z"
         id="rect4151"
         inkscape:connector-curvature="0" />
      <path
         style="opacity:0.41;color:#bebebe;fill:#000000;fill-opacity:1;fill-rule:nonzero;stroke:none;stroke-width:0;marker:none;visibility:visible;display:inline;overflow:visible;enable-background:accumulate"
         d="m 419,140 c -1.662,0 -3,1.338 -3,3 l 0,10 c 0,1.662 1.338,3 3,3 l 10,0 c 1.662,0 3,-1.338 3,-3 l 0,-10 c 0,-1.662 -1.338,-3 -3,-3 l -10,0 z m 0,1 10,0 c 1.1253,0 2,0.8747 2,2 l 0,10 c 0,1.1253 -0.8747,2 -2,2 l -10,0 c -1.1253,0 -2,-0.8747 -2,-2 l 0,-10 c 0,-1.1253 0.8747,-2 2,-2 z"
         id="rect4095"
         inkscape:connector-curvature="0" />
      <path
         style="opacity:0.41;color:#bebebe;fill:#000000;fill-opacity:1;fill-rule:nonzero;stroke:none;stroke-width:0;marker:none;visibility:visible;display:inline;overflow:visible;enable-background:accumulate"
         d="m 300,223 c -4.986,0 -9,4.014 -9,9 l 0,24 c 0,4.986 4.014,9 9,9 l 24,0 c 4.986,0 9,-4.014 9,-9 l 0,-24 c 0,-4.986 -4.014,-9 -9,-9 l -24,0 z m 0,1 24,0 c 4.4493,0 8,3.5507 8,8 l 0,24 c 0,4.4493 -3.5507,8 -8,8 l -24,0 c -4.4493,0 -8,-3.5507 -8,-8 l 0,-24 c 0,-4.4493 3.5507,-8 8,-8 z"
         id="rect4783"
         inkscape:connector-curvature="0" />
      <path
         style="opacity:0.41;color:#bebebe;fill:#000000;fill-opacity:1;fill-rule:nonzero;stroke:none;stroke-width:0;marker:none;visibility:visible;display:inline;overflow:visible;enable-background:accumulate"
         d="m 302.5,142 c -6.925,0 -12.5,5.575 -12.5,12.5 l 0,35 c 0,6.925 5.575,12.5 12.5,12.5 l 35,0 c 6.925,0 12.5,-5.575 12.5,-12.5 l 0,-35 c 0,-6.925 -5.575,-12.5 -12.5,-12.5 l -35,0 z m 0,1 35,0 c 6.3883,0 11.5,5.1117 11.5,11.5 l 0,35 c 0,6.3883 -5.1117,11.5 -11.5,11.5 l -35,0 c -6.3883,0 -11.5,-5.1117 -11.5,-11.5 l 0,-35 c 0,-6.3883 5.1117,-11.5 11.5,-11.5 z"
         id="rect4515"
         inkscape:connector-curvature="0" />
      <path
         style="opacity:0.41;color:#bebebe;fill:#000000;fill-opacity:1;fill-rule:nonzero;stroke:none;stroke-width:0;marker:none;visibility:visible;display:inline;overflow:visible;enable-background:accumulate"
         d="m 310,32 c -9.972,0 -18,8.028 -18,18 l 0,52 c 0,9.972 8.028,18 18,18 l 52,0 c 9.972,0 18,-8.028 18,-18 l 0,-52 c 0,-9.972 -8.028,-18 -18,-18 l -52,0 z m 0,1 52,0 c 9.4353,0 17,7.564703 17,17 l 0,52 c 0,9.4353 -7.5647,17 -17,17 l -52,0 c -9.4353,0 -17,-7.5647 -17,-17 l 0,-52 c 0,-9.435297 7.5647,-17 17,-17 z"
         id="rect4511"
         inkscape:connector-curvature="0" />
      <path
         style="opacity:0.41;color:#bebebe;fill:#000000;fill-opacity:1;fill-rule:nonzero;stroke:none;stroke-width:0;marker:none;visibility:visible;display:inline;overflow:visible;enable-background:accumulate"
         d="M 84,46 C 56.3,46 34,68.3 34,96 l 0,120 c 0,27.7 22.3,50 50,50 l 120,0 c 27.7,0 50,-22.3 50,-50 L 254,96 C 254,68.3 231.7,46 204,46 L 84,46 z m 0,1 120,0 c 27.1633,0 49,21.836703 49,49 l 0,120 c 0,27.1633 -21.8367,49 -49,49 L 84,265 C 56.836703,265 35,243.1633 35,216 L 35,96 C 35,68.836703 56.836703,47 84,47 z"
         id="rect4040"
         inkscape:connector-curvature="0" />
    </g>
  </g>
  <style
     type="text/css"
     id="style134">
	.st0{fill:#EF443B;}
</style>
</svg>
