<?xml version="1.0" encoding="UTF-8" standalone="no"?>
<!-- Created with Inkscape (http://www.inkscape.org/) -->

<svg
   inkscape:export-ydpi="90.000000"
   inkscape:export-xdpi="90.000000"
   width="480"
   height="300"
   id="svg11300"
   sodipodi:version="0.32"
   inkscape:version="1.1.2 (0a00cf5339, 2022-02-04)"
   sodipodi:docname="rust (copy).svg"
   inkscape:output_extension="org.inkscape.output.svg.inkscape"
   version="1.0"
   style="display:inline;enable-background:new"
   inkscape:export-filename="/home/sam/moka-next-template.png"
   xmlns:inkscape="http://www.inkscape.org/namespaces/inkscape"
   xmlns:sodipodi="http://sodipodi.sourceforge.net/DTD/sodipodi-0.dtd"
   xmlns="http://www.w3.org/2000/svg"
   xmlns:svg="http://www.w3.org/2000/svg"
   xmlns:rdf="http://www.w3.org/1999/02/22-rdf-syntax-ns#"
   xmlns:cc="http://creativecommons.org/ns#"
   xmlns:dc="http://purl.org/dc/elements/1.1/">
  <sodipodi:namedview
     stroke="#ef2929"
     fill="#f57900"
     id="base"
     pagecolor="#ffffff"
     bordercolor="#000000"
     borderopacity="0.54509804"
     inkscape:pageopacity="0"
     inkscape:pageshadow="2"
     inkscape:zoom="1.4142136"
     inkscape:cx="376.53436"
     inkscape:cy="151.67441"
     inkscape:current-layer="layer2"
     showgrid="false"
     inkscape:grid-bbox="true"
     inkscape:document-units="px"
     inkscape:showpageshadow="false"
     inkscape:window-width="1920"
     inkscape:window-height="1008"
     inkscape:window-x="0"
     inkscape:window-y="40"
     width="400px"
     height="300px"
     inkscape:snap-nodes="true"
     inkscape:snap-bbox="true"
     gridtolerance="10000"
     inkscape:object-nodes="true"
     inkscape:snap-grids="true"
     showguides="true"
     inkscape:guide-bbox="true"
     inkscape:window-maximized="1"
     inkscape:bbox-nodes="true"
     inkscape:bbox-paths="true"
     inkscape:snap-bbox-edge-midpoints="true"
     inkscape:snap-bbox-midpoints="true"
     inkscape:pagecheckerboard="0">
    <inkscape:grid
       spacingy="1"
       spacingx="1"
       id="grid5883"
       type="xygrid"
       enabled="true"
       visible="true"
       empspacing="4"
       snapvisiblegridlinesonly="true"
       dotted="false"
       color="#000000"
       opacity="0.1254902"
       empcolor="#203ef3"
       empopacity="0.36470588"
       originx="0"
       originy="0" />
    <inkscape:grid
       type="xygrid"
       id="grid11592"
       empspacing="8"
       visible="true"
       enabled="false"
       spacingx="0.5"
       spacingy="0.5"
       color="#ff0000"
       opacity="0.1254902"
       empcolor="#ff0000"
       empopacity="0.25098039"
       snapvisiblegridlinesonly="true"
       dotted="true"
       originx="0"
       originy="0" />
  </sodipodi:namedview>
  <defs
     id="defs3">
    <linearGradient
       id="linearGradient905">
      <stop
         style="stop-color:#ff7139;stop-opacity:1"
         offset="0"
         id="stop901" />
      <stop
         style="stop-color:#ff7139;stop-opacity:1"
         offset="1"
         id="stop903" />
    </linearGradient>
    <linearGradient
       id="linearGradient3984">
      <stop
         id="stop3986"
         offset="0"
         style="stop-color:#f57d33;stop-opacity:1" />
      <stop
         id="stop3988"
         offset="1"
         style="stop-color:#faa653;stop-opacity:1;" />
    </linearGradient>
  </defs>
  <metadata
     id="metadata4">
    <rdf:RDF>
      <cc:Work
         rdf:about="">
        <dc:format>image/svg+xml</dc:format>
        <dc:type
           rdf:resource="http://purl.org/dc/dcmitype/StillImage" />
        <dc:creator>
          <cc:Agent>
            <dc:title>Sam Hewitt</dc:title>
          </cc:Agent>
        </dc:creator>
        <dc:source />
        <cc:license
           rdf:resource="" />
        <dc:title />
        <dc:subject>
          <rdf:Bag />
        </dc:subject>
        <dc:date />
        <dc:rights>
          <cc:Agent>
            <dc:title />
          </cc:Agent>
        </dc:rights>
        <dc:publisher>
          <cc:Agent>
            <dc:title />
          </cc:Agent>
        </dc:publisher>
        <dc:identifier />
        <dc:relation />
        <dc:language />
        <dc:coverage />
        <dc:description />
        <dc:contributor>
          <cc:Agent>
            <dc:title />
          </cc:Agent>
        </dc:contributor>
      </cc:Work>
      <cc:Work
         rdf:about="">
        <dc:format>image/svg+xml</dc:format>
        <dc:type
           rdf:resource="http://purl.org/dc/dcmitype/StillImage" />
      </cc:Work>
    </rdf:RDF>
  </metadata>
  <g
     style="display:inline"
     inkscape:groupmode="layer"
     inkscape:label="Icon"
     id="layer1">
    <g
       style="display:none"
       inkscape:label="Baseplate"
       id="layer7"
       inkscape:groupmode="layer">
      <text
         y="19.745117"
         xml:space="preserve"
         x="15.006836"
         style="font-style:normal;font-variant:normal;font-weight:normal;font-stretch:normal;line-height:0%;font-family:'DejaVu Sans';-inkscape-font-specification:'DejaVu Sans';display:inline;fill:#000000;fill-opacity:1;stroke:none;enable-background:new"
         inkscape:label="context"
         id="context"><tspan
           style="font-style:normal;font-variant:normal;font-weight:normal;font-stretch:normal;font-size:18px;line-height:1.25;font-family:'DejaVu Sans';-inkscape-font-specification:'DejaVu Sans'"
           y="19.745117"
           x="15.006836"
           sodipodi:role="line"
           id="tspan3933">apps</tspan></text>
      <text
         y="19.745117"
         xml:space="preserve"
         x="122.48828"
         style="font-style:normal;font-variant:normal;font-weight:bold;font-stretch:normal;line-height:0%;font-family:'DejaVu Sans';-inkscape-font-specification:'DejaVu Sans Bold';text-align:start;writing-mode:lr-tb;text-anchor:start;display:inline;fill:#000000;fill-opacity:1;stroke:none;enable-background:new"
         inkscape:label="icon-name"
         id="icon-name"><tspan
           style="font-style:normal;font-variant:normal;font-weight:bold;font-stretch:normal;font-size:18px;line-height:1.25;font-family:'DejaVu Sans';-inkscape-font-specification:'DejaVu Sans Bold'"
           y="19.745117"
           x="122.48828"
           sodipodi:role="line"
           id="tspan3937">firefox</tspan></text>
      <rect
         style="fill:#eeeeec;fill-opacity:1;fill-rule:nonzero;stroke:none;stroke-width:2;marker:none;visibility:visible;display:inline;overflow:visible;enable-background:accumulate"
         id="rect16x16"
         width="16"
         height="16"
         x="416"
         y="140"
         inkscape:label="16x16" />
      <rect
         style="fill:#d4d4d4;fill-opacity:1;fill-rule:nonzero;stroke:none;stroke-width:2;marker:none;visibility:visible;display:inline;overflow:visible;enable-background:accumulate"
         id="rect24x24"
         width="24"
         height="24"
         x="416"
         y="100"
         inkscape:label="24x24" />
      <rect
         style="fill:#eeeeec;fill-opacity:1;fill-rule:nonzero;stroke:none;stroke-width:2;marker:none;visibility:visible;display:inline;overflow:visible;enable-background:accumulate"
         id="rect32x32"
         width="32"
         height="32"
         x="416"
         y="52"
         inkscape:label="32x32" />
      <rect
         inkscape:label="22x22"
         y="101"
         x="417"
         height="22"
         width="22"
         id="rect22x22"
         style="fill:#eeeeec;fill-opacity:1;fill-rule:nonzero;stroke:none;stroke-width:2;marker:none;visibility:visible;display:inline;overflow:visible;enable-background:accumulate" />
      <rect
         inkscape:label="48x48"
         y="220"
         x="288"
         height="48"
         width="48"
         id="rect48x48"
         style="fill:#eeeeec;fill-opacity:1;fill-rule:nonzero;stroke:none;stroke-width:2;marker:none;visibility:visible;display:inline;overflow:visible;enable-background:accumulate" />
      <rect
         style="fill:#eeeeec;fill-opacity:1;fill-rule:nonzero;stroke:none;stroke-width:2;marker:none;visibility:visible;display:inline;overflow:visible;enable-background:accumulate"
         id="rect256x256"
         width="256"
         height="256"
         x="16"
         y="28"
         inkscape:label="256x256" />
      <rect
         style="fill:#eeeeec;fill-opacity:1;fill-rule:nonzero;stroke:none;stroke-width:2;marker:none;visibility:visible;display:inline;overflow:visible;enable-background:accumulate"
         id="rect64x64"
         width="64"
         height="64"
         x="288"
         y="140"
         inkscape:label="64x64" />
      <rect
         style="fill:#eeeeec;fill-opacity:1;fill-rule:nonzero;stroke:none;stroke-width:2;marker:none;visibility:visible;display:inline;overflow:visible;enable-background:accumulate"
         id="rect96x96"
         width="96"
         height="96"
         x="288"
         y="28"
         inkscape:label="96x96" />
    </g>
    <g
       inkscape:groupmode="layer"
       id="layer4"
       inkscape:label="Shadow"
       style="display:inline"
       sodipodi:insensitive="true">
      <rect
         ry="50"
         y="47"
         x="34"
         height="220"
         width="220"
         id="rect4114"
         style="opacity:0.1;color:#bebebe;fill:#000000;fill-opacity:1;fill-rule:nonzero;stroke:none;stroke-width:0;marker:none;visibility:visible;display:inline;overflow:visible;enable-background:accumulate" />
      <rect
         style="opacity:0.1;color:#bebebe;fill:#000000;fill-opacity:1;fill-rule:nonzero;stroke:none;stroke-width:0;marker:none;visibility:visible;display:inline;overflow:visible;enable-background:accumulate"
         id="rect4120"
         width="30"
         height="30"
         x="417"
         y="54"
         ry="7" />
      <rect
         transform="scale(1,-1)"
         ry="9"
         y="-266"
         x="291"
         height="42"
         width="42"
         id="rect4122"
         style="opacity:0.1;color:#bebebe;fill:#000000;fill-opacity:1;fill-rule:nonzero;stroke:none;stroke-width:0;marker:none;visibility:visible;display:inline;overflow:visible;enable-background:accumulate" />
      <rect
         style="opacity:0.1;color:#bebebe;fill:#000000;fill-opacity:1;fill-rule:nonzero;stroke:none;stroke-width:0;marker:none;visibility:visible;display:inline;overflow:visible;enable-background:accumulate"
         id="rect4124"
         width="88"
         height="88"
         x="292"
         y="33"
         ry="18" />
      <rect
         ry="12.5"
         y="143"
         x="290"
         height="60"
         width="60"
         id="rect4126"
         style="opacity:0.1;color:#bebebe;fill:#000000;fill-opacity:1;fill-rule:nonzero;stroke:none;stroke-width:0;marker:none;visibility:visible;display:inline;overflow:visible;enable-background:accumulate" />
      <path
         id="path4268"
         d="m 422,101 c -2.77,0 -5,2.23 -5,5 l 0,12 c 0,2.77 2.23,5 5,5 l 12,0 c 2.77,0 5,-2.23 5,-5 l 0,-12 c 0,-2.77 -2.23,-5 -5,-5 z"
         style="opacity:0.1;color:#bebebe;fill:#000000;fill-opacity:1;fill-rule:nonzero;stroke:none;stroke-width:0;marker:none;visibility:visible;display:inline;overflow:visible;enable-background:accumulate"
         inkscape:connector-curvature="0"
         sodipodi:nodetypes="sssssssss" />
      <path
         id="path4270"
         d="m 419,140 c -1.662,0 -3,1.338 -3,3 l 0,10 c 0,1.662 1.338,3 3,3 l 10,0 c 1.662,0 3,-1.338 3,-3 l 0,-10 c 0,-1.662 -1.338,-3 -3,-3 z"
         style="opacity:0.1;color:#bebebe;fill:#000000;fill-opacity:1;fill-rule:nonzero;stroke:none;stroke-width:0;marker:none;visibility:visible;display:inline;overflow:visible;enable-background:accumulate"
         inkscape:connector-curvature="0"
         sodipodi:nodetypes="sssssssss" />
    </g>
    <g
       inkscape:groupmode="layer"
       id="layer2"
       inkscape:label="Background"
       style="display:inline">
      <g
         id="g6102">
        <g
           id="g5525">
          <path
             id="path218"
             d="M 84,46.5 C 56.568735,46.5 34.5,68.568732 34.5,96 v 120 c 0,27.43127 22.068735,49.5 49.5,49.5 h 120 c 27.43127,0 49.5,-22.06873 49.5,-49.5 V 96 C 253.5,68.568732 231.43127,46.5 204,46.5 Z"
             style="fill:#0081ff;stroke-width:1.86933;fill-opacity:1" />
          <path
             id="path1054"
             class="st1"
             d="m 138.17585,83.502163 c -2.38356,0.025 -4.76115,0.26852 -7.12721,0.75631 -8.46378,1.74606 -15.55672,5.90838 -21.39433,12.30726 -5.03725,5.518337 -8.35877,11.967867 -10.544754,19.027137 -2.66119,8.59521 -3.09142,17.42036 -2.16601,26.31574 0.64029,6.15373 1.9007,12.18265 4.341794,17.91612 2.39107,5.62341 5.74749,10.57094 10.42458,14.52833 5.55748,4.69785 11.93576,7.63998 19.19901,8.61557 5.8176,0.78548 11.62008,0.94991 17.38766,-0.30585 4.78714,-1.04063 9.28891,-2.82683 12.89052,-6.2489 1.77079,-1.68602 3.19178,-3.74172 4.61241,-5.44275 0,-0.06 -2.3e-4,0.22037 0.01,0.49053 -0.035,5.41829 0.16516,10.85669 -0.16999,16.25496 -0.4502,7.15934 -4.40236,12.2072 -10.65516,15.43415 -6.9531,3.58717 -14.27051,4.00766 -21.75386,1.99144 -3.22144,-0.86552 -6.05829,-2.49182 -8.35432,-4.94831 -3.07637,-3.29199 -4.30669,-7.29414 -4.38673,-11.72682 0,-0.08 0.005,-0.56089 0.005,-0.56089 0,0 -0.36035,-0.005 -0.45039,-0.005 -7.62341,-0.025 -15.24619,-0.0203 -22.869604,0.0147 h -0.63114 c 0,0 0.0302,0.55061 0.0352,0.65567 0.065,1.71104 0.12076,3.43697 0.34586,5.13299 1.67575,12.78775 8.427944,22.15904 19.542914,28.40783 7.3833,4.14751 15.47692,5.96795 23.88568,6.32316 7.69344,0.3252 15.24686,-0.56022 22.55012,-3.13177 7.50335,-2.6416 14.05628,-6.72888 19.13355,-12.93264 6.52792,-7.97983 9.40413,-17.30509 9.42413,-27.49126 0.07,-32.2145 0.0254,-64.43471 0.0254,-96.654217 0,-1.16071 0.005,-2.14095 0.005,-2.14095 0,0 -17.35213,-0.0201 -24.99554,0.005 h -0.67609 c 0,0 -0.005,5.67832 0,8.25989 v 3.4171 c 0,0 -0.46994,-0.70077 -0.59499,-0.86087 -4.81215,-7.0993 -11.38009,-11.46178 -19.88389,-12.84762 -2.39107,-0.38774 -4.78077,-0.58102 -7.16433,-0.556 z m 7.81795,22.423727 c 2.95171,0.10153 5.83542,0.7315 8.62104,2.08232 4.45199,2.16131 7.19736,5.85288 8.99816,10.32558 1.76579,4.37765 2.66666,8.97571 2.73169,13.66355 0.06,4.19254 0.0454,8.45043 -0.59988,12.57793 -1.29557,8.29002 -7.04838,16.04991 -15.87232,18.21122 -8.0486,1.97119 -16.35294,-1.11595 -21.15008,-7.91007 -3.37151,-4.76788 -4.92729,-10.11096 -5.33247,-15.84943 -0.09,-1.36583 -0.01,-2.74679 -0.01,-4.12262 -0.15006,-5.89857 0.4656,-11.69188 2.77663,-17.18521 2.71622,-6.4489 7.45853,-10.37671 14.45666,-11.44736 1.81394,-0.27767 3.60931,-0.40683 5.38034,-0.34591 z"
             style="stroke-width:0.50026" />
        </g>
        <g
           id="g5629">
          <path
             id="path325"
             d="m 302.5,142.5 c -6.65502,0 -12,5.34498 -12,12 v 35 c 0,6.65502 5.34498,12 12,12 h 35 c 6.65502,0 12,-5.34498 12,-12 v -35 c 0,-6.65502 -5.34498,-12 -12,-12 z"
             style="fill:#0081ff;stroke-width:1.07127;fill-opacity:1" />
          <path
             id="path5529"
             class="st1"
             d="m 318.43115,152.46856 c -0.64215,0.007 -1.28269,0.0723 -1.92012,0.20375 -2.2802,0.4704 -4.19108,1.59176 -5.76377,3.31566 -1.35707,1.48667 -2.2519,3.22422 -2.84082,5.12603 -0.71694,2.31561 -0.83285,4.69316 -0.58354,7.08963 0.1725,1.65785 0.51206,3.28208 1.16971,4.82672 0.64417,1.51498 1.54841,2.84788 2.80845,3.91402 1.49722,1.26563 3.21557,2.05826 5.17233,2.32109 1.5673,0.21161 3.13053,0.25591 4.68435,-0.0824 1.28969,-0.28035 2.50249,-0.76156 3.47279,-1.68349 0.47706,-0.45423 0.85988,-1.00805 1.24261,-1.46631 0,-0.0162 -6e-5,0.0594 0.003,0.13215 -0.009,1.45972 0.0445,2.92486 -0.0458,4.37919 -0.12129,1.92877 -1.18603,3.2887 -2.87057,4.15806 -1.87321,0.9664 -3.84457,1.07969 -5.86063,0.5365 -0.86788,-0.23317 -1.63214,-0.67131 -2.25071,-1.3331 -0.82879,-0.88689 -1.16025,-1.96509 -1.18181,-3.15928 0,-0.0215 10e-4,-0.15111 10e-4,-0.15111 0,0 -0.0971,-0.001 -0.12134,-0.001 -2.0538,-0.007 -4.10742,-0.006 -6.16122,0.004 h -0.17003 c 0,0 0.008,0.14834 0.009,0.17664 0.0175,0.46097 0.0325,0.92594 0.0932,1.38286 0.45146,3.4451 2.27054,5.96979 5.26498,7.65325 1.98911,1.11737 4.16959,1.60781 6.43496,1.7035 2.07266,0.0876 4.1076,-0.15093 6.07515,-0.84372 2.02145,-0.71166 3.78685,-1.8128 5.1547,-3.48413 1.75866,-2.14982 2.53353,-4.6621 2.53892,-7.40632 0.0189,-8.6788 0.007,-17.35913 0.007,-26.03927 0,-0.3127 0.001,-0.57678 0.001,-0.57678 0,0 -4.67478,-0.005 -6.73396,0.001 h -0.18214 c 0,0 -10e-4,1.52977 0,2.22526 v 0.92059 c 0,0 -0.12661,-0.18879 -0.1603,-0.23192 -1.29642,-1.9126 -3.06587,-3.08788 -5.35684,-3.46123 -0.64417,-0.10446 -1.28797,-0.15653 -1.93012,-0.14979 z m 2.1062,6.0411 c 0.79521,0.0274 1.5721,0.19707 2.32257,0.56099 1.19939,0.58227 1.93901,1.5768 2.42416,2.78177 0.47571,1.17937 0.71841,2.41812 0.73593,3.68105 0.0162,1.1295 0.0122,2.2766 -0.16161,3.38858 -0.34903,2.23338 -1.89888,4.32394 -4.2761,4.90621 -2.16835,0.53106 -4.40559,-0.30064 -5.69797,-2.13102 -0.90831,-1.2845 -1.32744,-2.72396 -1.4366,-4.26994 -0.0243,-0.36796 -0.003,-0.74 -0.003,-1.11066 -0.0404,-1.58911 0.12544,-3.14986 0.74805,-4.6298 0.73176,-1.73738 2.00937,-2.79555 3.89471,-3.08399 0.48869,-0.0748 0.97237,-0.10961 1.4495,-0.0932 z"
             style="stroke-width:0.134773" />
        </g>
        <g
           id="g5543">
          <path
             id="path304"
             d="m 310,32.5 c -9.70255,0 -17.5,7.797452 -17.5,17.5 v 52 c 0,9.70255 7.79745,17.5 17.5,17.5 h 52 c 9.70255,0 17.5,-7.79745 17.5,-17.5 V 50 c 0,-9.702548 -7.79745,-17.5 -17.5,-17.5 z"
             style="fill:#0081ff;stroke-width:0.951698;fill-opacity:1" />
          <path
             id="path5535"
             class="st1"
             d="m 333.68625,47.199345 c -0.9469,0.01 -1.89142,0.10667 -2.83136,0.30045 -3.36233,0.69364 -6.18007,2.34717 -8.49912,4.88919 -2.0011,2.19222 -3.32061,4.75436 -4.18901,7.55872 -1.05719,3.41454 -1.2281,6.92042 -0.86047,10.4542 0.25436,2.44464 0.75507,4.83969 1.72482,7.11737 0.94988,2.23395 2.28325,4.19941 4.14127,5.77152 2.20777,1.86627 4.74161,3.03506 7.62701,3.42263 2.3111,0.31204 4.61619,0.37736 6.90742,-0.1215 1.90174,-0.41341 3.69012,-1.12299 5.12089,-2.48244 0.70347,-0.66979 1.26797,-1.48644 1.83233,-2.16219 0,-0.0238 -9e-5,0.0875 0.004,0.19487 -0.0139,2.15247 0.0656,4.31293 -0.0675,6.45745 -0.17884,2.84412 -1.74888,4.84943 -4.23287,6.13137 -2.76219,1.42504 -5.6691,1.59208 -8.64194,0.79112 -1.27975,-0.34384 -2.40672,-0.9899 -3.31884,-1.96577 -1.22212,-1.30777 -1.71088,-2.89767 -1.74267,-4.6586 0,-0.0318 0.002,-0.22282 0.002,-0.22282 0,0 -0.14315,-0.002 -0.17892,-0.002 -3.02848,-0.01 -6.05671,-0.008 -9.08519,0.006 h -0.25072 c 0,0 0.012,0.21873 0.014,0.26047 0.0258,0.67973 0.048,1.36537 0.1374,2.03913 0.66571,5.08007 3.34809,8.80291 7.76362,11.285295 2.93309,1.64764 6.14837,2.37083 9.48883,2.51194 3.0563,0.12919 6.05697,-0.22255 8.95827,-1.24412 2.98078,-1.04941 5.584,-2.67312 7.601,-5.137625 2.59328,-3.17007 3.73589,-6.87462 3.74383,-10.92118 0.0278,-12.79754 0.0101,-25.59735 0.0101,-38.39688 0,-0.46111 0.002,-0.85052 0.002,-0.85052 0,0 -6.89331,-0.008 -9.92974,0.002 h -0.26858 c 0,0 -0.002,2.25577 0,3.28132 v 1.35748 c 0,0 -0.18669,-0.27839 -0.23637,-0.34199 -1.91167,-2.82027 -4.52085,-4.55331 -7.89908,-5.10385 -0.94987,-0.15403 -1.89921,-0.23081 -2.8461,-0.22087 z m 3.10576,8.90806 c 1.17259,0.0403 2.31818,0.29059 3.42479,0.82722 1.7686,0.8586 2.85923,2.32512 3.57461,4.10194 0.70148,1.73907 1.05936,3.5657 1.0852,5.42799 0.0238,1.66553 0.018,3.35702 -0.23831,4.99671 -0.51468,3.2933 -2.80004,6.37599 -6.30544,7.23459 -3.19739,0.78308 -6.49638,-0.44332 -8.40209,-3.14235 -1.33937,-1.89409 -1.95742,-4.01668 -2.11838,-6.29635 -0.0358,-0.54259 -0.004,-1.09119 -0.004,-1.63775 -0.0596,-2.34327 0.18496,-4.64472 1.10304,-6.827 1.07905,-2.5619 2.96298,-4.12226 5.74306,-4.54759 0.72061,-0.1103 1.43384,-0.16161 2.1374,-0.13741 z"
             style="stroke-width:0.198733" />
        </g>
        <g
           id="g5727">
          <path
             id="path368"
             d="m 424,53.5 c -3.60654,0 -6.5,2.893464 -6.5,6.5 v 16 c 0,3.606536 2.89346,6.5 6.5,6.5 h 16 c 3.60654,0 6.5,-2.893464 6.5,-6.5 V 60 c 0,-3.606536 -2.89346,-6.5 -6.5,-6.5 z"
             style="fill:#0081ff;stroke-width:1.71197;fill-opacity:1" />
          <path
             id="path5713"
             class="st1"
             d="m 431.22888,58.399828 c -0.31563,0.0033 -0.63047,0.03556 -0.94379,0.100151 -1.12077,0.231213 -2.06002,0.782388 -2.83304,1.629728 -0.66703,0.730739 -1.10687,1.584786 -1.39633,2.519575 -0.3524,1.138179 -0.40937,2.306806 -0.28683,3.484733 0.0848,0.814878 0.25169,1.613228 0.57494,2.372454 0.31663,0.744653 0.76109,1.399805 1.38043,1.923843 0.73592,0.62209 1.58053,1.011687 2.54233,1.140875 0.77037,0.104013 1.53873,0.125787 2.30248,-0.0405 0.63391,-0.1378 1.23004,-0.374329 1.70696,-0.82748 0.23449,-0.223263 0.42266,-0.495479 0.61078,-0.720729 0,-0.0079 -3e-5,0.02918 10e-4,0.06496 -0.005,0.71749 0.0219,1.437644 -0.0225,2.152483 -0.0596,0.94804 -0.58296,1.616478 -1.41096,2.043791 -0.92073,0.475014 -1.8897,0.530695 -2.88064,0.263707 -0.42659,-0.114612 -0.80224,-0.329967 -1.10628,-0.655255 -0.40738,-0.435926 -0.5703,-0.965891 -0.58089,-1.552867 0,-0.01059 6.6e-4,-0.07427 6.6e-4,-0.07427 0,0 -0.0477,-6.62e-4 -0.0596,-6.62e-4 -1.0095,-0.0033 -2.01891,-0.0027 -3.0284,0.002 h -0.0836 c 0,0 0.004,0.07291 0.005,0.08682 0.009,0.226576 0.016,0.455124 0.0458,0.679711 0.2219,1.693355 1.11603,2.934302 2.58787,3.761767 0.9777,0.549214 2.04946,0.790277 3.16294,0.837314 1.01877,0.04306 2.01899,-0.07418 2.98609,-0.41471 0.9936,-0.349801 1.86134,-0.891039 2.53367,-1.712541 0.86443,-1.05669 1.2453,-2.291542 1.24794,-3.640395 0.009,-4.265847 0.003,-8.53245 0.003,-12.79896 0,-0.153701 6.6e-4,-0.283505 6.6e-4,-0.283505 0,0 -2.29777,-0.0027 -3.30991,6.62e-4 h -0.0895 c 0,0 -6.6e-4,0.751924 0,1.093776 v 0.452492 c 0,0 -0.0622,-0.0928 -0.0788,-0.113996 -0.63722,-0.94009 -1.50695,-1.51777 -2.63303,-1.701283 -0.31662,-0.05134 -0.63307,-0.07694 -0.9487,-0.07363 z m 1.03525,2.969352 c 0.39087,0.01344 0.77273,0.09687 1.1416,0.275741 0.58953,0.286201 0.95308,0.775039 1.19154,1.367314 0.23382,0.579689 0.35312,1.188565 0.36173,1.809329 0.008,0.555176 0.006,1.119007 -0.0794,1.665571 -0.17156,1.097765 -0.93334,2.12533 -2.10181,2.411531 -1.0658,0.261025 -2.16546,-0.147774 -2.8007,-1.047452 -0.44645,-0.631363 -0.65247,-1.338895 -0.70612,-2.098783 -0.0119,-0.180864 -10e-4,-0.36373 -10e-4,-0.545918 -0.0199,-0.781089 0.0617,-1.54824 0.36768,-2.275667 0.35969,-0.853964 0.98766,-1.374085 1.91436,-1.51586 0.2402,-0.03677 0.47794,-0.05387 0.71246,-0.04581 z"
             style="stroke-width:0.0662445" />
        </g>
        <g
           id="g5813">
          <path
             id="path347"
             d="m 300,223.5 c -4.71531,0 -8.5,3.78469 -8.5,8.5 v 24 c 0,4.71531 3.78469,8.5 8.5,8.5 h 24 c 4.71531,0 8.5,-3.78469 8.5,-8.5 v -24 c 0,-4.71531 -3.78469,-8.5 -8.5,-8.5 z"
             style="fill:#0081ff;stroke-width:1.23634;fill-opacity:1" />
          <path
             id="path5719"
             class="st1"
             d="m 310.90927,230.42717 c -0.44624,0.005 -0.89136,0.0503 -1.33432,0.1416 -1.58454,0.32689 -2.91245,1.10613 -4.00533,2.3041 -0.94305,1.03311 -1.56488,2.24056 -1.97413,3.56215 -0.49822,1.60915 -0.57876,3.26135 -0.40551,4.9267 0.11987,1.15206 0.35584,2.28077 0.81285,3.35415 0.44764,1.05279 1.07601,1.97904 1.95163,2.71992 1.04044,0.87951 2.23455,1.43032 3.59433,1.61296 1.08914,0.14705 2.17545,0.17784 3.25523,-0.0573 0.89622,-0.19482 1.73902,-0.52922 2.41329,-1.16988 0.33152,-0.31565 0.59755,-0.70051 0.86351,-1.01897 0,-0.0112 -4e-5,0.0413 0.002,0.0918 -0.007,1.01438 0.0309,2.03253 -0.0318,3.04316 -0.0843,1.34034 -0.82419,2.28537 -1.9948,2.8895 -1.30172,0.67157 -2.67165,0.75029 -4.07264,0.37283 -0.6031,-0.16204 -1.1342,-0.46651 -1.56405,-0.9264 -0.57594,-0.61631 -0.80628,-1.36557 -0.82126,-2.19543 0,-0.015 9.3e-4,-0.10501 9.3e-4,-0.10501 0,0 -0.0675,-9.3e-4 -0.0843,-9.3e-4 -1.42721,-0.005 -2.85431,-0.004 -4.28152,0.003 h -0.11816 c 0,0 0.006,0.10308 0.007,0.12275 0.0122,0.32033 0.0226,0.64345 0.0648,0.96097 0.31373,2.39406 1.57784,4.1485 3.65872,5.31836 1.38226,0.77648 2.89751,1.11729 4.47175,1.18379 1.44032,0.0609 2.85443,-0.10488 4.22171,-0.58631 1.40474,-0.49455 2.63154,-1.25975 3.58208,-2.42118 1.22212,-1.49394 1.76059,-3.23977 1.76434,-5.14677 0.0131,-6.03102 0.005,-12.06312 0.005,-18.09508 0,-0.2173 9.4e-4,-0.40082 9.4e-4,-0.40082 0,0 -3.24858,-0.004 -4.67953,9.4e-4 h -0.12658 c 0,0 -9.3e-4,1.06306 0,1.54637 v 0.63973 c 0,0 -0.088,-0.13119 -0.11139,-0.16116 -0.9009,-1.3291 -2.13052,-2.14582 -3.72255,-2.40527 -0.44765,-0.0726 -0.89503,-0.10877 -1.34127,-0.10409 z m 1.46363,4.19805 c 0.55261,0.019 1.09248,0.13695 1.61399,0.38984 0.83347,0.40463 1.34745,1.09575 1.68458,1.9331 0.33059,0.81956 0.49924,1.68039 0.51142,2.55802 0.0112,0.78491 0.008,1.58204 -0.11231,2.35477 -0.24255,1.55202 -1.31956,3.00478 -2.97153,3.40941 -1.50682,0.36903 -3.06151,-0.20892 -3.9596,-1.48088 -0.6312,-0.89262 -0.92246,-1.89292 -0.99832,-2.96725 -0.0168,-0.2557 -0.002,-0.51424 -0.002,-0.77181 -0.0281,-1.1043 0.0872,-2.18889 0.51982,-3.21732 0.50852,-1.20733 1.39635,-1.94268 2.7065,-2.14312 0.3396,-0.052 0.67572,-0.0762 1.00728,-0.0648 z"
             style="stroke-width:0.093656" />
        </g>
        <g
           id="g5907">
          <path
             id="path389"
             d="m 422,101.5 c -2.49699,0 -4.5,2.00301 -4.5,4.5 v 12 c 0,2.49699 2.00301,4.5 4.5,4.5 h 12 c 2.49699,0 4.5,-2.00301 4.5,-4.5 v -12 c 0,-2.49699 -2.00301,-4.5 -4.5,-4.5 z"
             style="fill:#0081ff;stroke-width:2.12658;fill-opacity:1" />
          <path
             id="path5897"
             class="st1"
             d="m 427.44171,105.04859 c -0.22857,0.002 -0.45655,0.0258 -0.68343,0.0725 -0.8116,0.16743 -1.49175,0.56656 -2.05152,1.18015 -0.48302,0.52916 -0.80152,1.14761 -1.01114,1.82452 -0.25518,0.8242 -0.29643,1.67045 -0.2077,2.52343 0.0614,0.59008 0.18226,1.1682 0.41634,1.71798 0.22928,0.53923 0.55113,1.01365 0.99962,1.39313 0.53291,0.45048 1.14452,0.7326 1.841,0.82615 0.55785,0.0753 1.11425,0.0911 1.66731,-0.0293 0.45904,-0.0998 0.89072,-0.27106 1.23607,-0.59921 0.16981,-0.16167 0.30607,-0.35879 0.44229,-0.5219 0,-0.006 -2e-5,0.0211 9.7e-4,0.047 -0.003,0.51956 0.0158,1.04106 -0.0163,1.5587 -0.0432,0.68651 -0.42214,1.17055 -1.02172,1.47998 -0.66674,0.34398 -1.36841,0.3843 -2.08599,0.19096 -0.30891,-0.083 -0.58093,-0.23894 -0.8011,-0.47449 -0.29499,-0.31567 -0.41297,-0.69944 -0.42064,-1.12449 0,-0.008 4.8e-4,-0.0538 4.8e-4,-0.0538 0,0 -0.0345,-4.8e-4 -0.0432,-4.8e-4 -0.73101,-0.002 -1.46196,-0.002 -2.19298,10e-4 h -0.0605 c 0,0 0.003,0.0528 0.003,0.0629 0.006,0.16407 0.0116,0.32957 0.0332,0.49221 0.16069,1.22622 0.80816,2.12484 1.87398,2.72403 0.70799,0.39771 1.48409,0.57227 2.29041,0.60633 0.73772,0.0312 1.46202,-0.0537 2.16234,-0.3003 0.71949,-0.25331 1.34786,-0.64524 1.83472,-1.24012 0.62596,-0.76519 0.90177,-1.65939 0.90368,-2.63615 0.007,-3.08906 0.002,-6.17867 0.002,-9.26821 0,-0.1113 4.8e-4,-0.2053 4.8e-4,-0.2053 0,0 -1.6639,-0.002 -2.39683,4.9e-4 h -0.0648 c 0,0 -4.8e-4,0.54449 0,0.79204 v 0.32767 c 0,0 -0.0451,-0.0672 -0.0571,-0.0826 -0.46144,-0.68076 -1.09124,-1.09908 -1.90668,-1.23197 -0.22928,-0.0372 -0.45843,-0.0557 -0.68699,-0.0533 z m 0.74966,2.15022 c 0.28304,0.01 0.55956,0.0701 0.82668,0.19967 0.4269,0.20725 0.69016,0.56124 0.86283,0.99013 0.16933,0.41977 0.25571,0.86068 0.26195,1.3102 0.006,0.40203 0.004,0.81032 -0.0575,1.2061 -0.12424,0.79494 -0.67588,1.53904 -1.52201,1.74629 -0.77178,0.18901 -1.56809,-0.10701 -2.02809,-0.7585 -0.32329,-0.4572 -0.47248,-0.96955 -0.51133,-1.51981 -0.009,-0.13097 -9.7e-4,-0.26339 -9.7e-4,-0.39532 -0.0144,-0.56562 0.0447,-1.12114 0.26625,-1.6479 0.26046,-0.61839 0.71521,-0.99503 1.38626,-1.09769 0.17394,-0.0266 0.3461,-0.039 0.51592,-0.0332 z"
             style="stroke-width:0.04797" />
        </g>
        <g
           id="g5999">
          <path
             id="path410"
             d="m 419,140.5 c -1.3844,0 -2.5,1.1156 -2.5,2.5 v 10 c 0,1.3844 1.1156,2.5 2.5,2.5 h 10 c 1.3844,0 2.5,-1.1156 2.5,-2.5 v -10 c 0,-1.3844 -1.1156,-2.5 -2.5,-2.5 z"
             style="fill:#0081ff;stroke-width:2.59119;fill-opacity:1" />
          <path
             id="path5991"
             class="st1"
             d="m 423.60123,143.0344 c -0.16326,0.002 -0.32611,0.0184 -0.48817,0.0518 -0.57971,0.1196 -1.06552,0.40469 -1.46536,0.84297 -0.34502,0.37796 -0.57252,0.81971 -0.72224,1.30322 -0.18228,0.58872 -0.21175,1.19318 -0.14836,1.80245 0.0439,0.42149 0.13018,0.83443 0.29738,1.22713 0.16377,0.38517 0.39367,0.72404 0.71401,0.99509 0.38065,0.32178 0.81752,0.52329 1.315,0.59011 0.39847,0.0538 0.7959,0.0651 1.19094,-0.0209 0.32789,-0.0713 0.63623,-0.19362 0.88291,-0.428 0.12129,-0.11548 0.21862,-0.25629 0.31592,-0.3728 0,-0.004 -1e-5,0.0151 6.9e-4,0.0336 -0.002,0.37112 0.0113,0.74361 -0.0117,1.11336 -0.0308,0.49036 -0.30153,0.83611 -0.7298,1.05713 -0.47624,0.2457 -0.97743,0.2745 -1.48999,0.1364 -0.22065,-0.0593 -0.41495,-0.17067 -0.57222,-0.33892 -0.21071,-0.22548 -0.29498,-0.4996 -0.30046,-0.80321 0,-0.006 3.5e-4,-0.0384 3.5e-4,-0.0384 0,0 -0.0247,-3.4e-4 -0.0309,-3.4e-4 -0.52215,-0.002 -1.04426,-0.001 -1.56641,0.001 h -0.0432 c 0,0 0.002,0.0377 0.002,0.0449 0.004,0.11719 0.008,0.23541 0.0237,0.35157 0.11477,0.87587 0.57725,1.51774 1.33855,1.94574 0.50571,0.28408 1.06007,0.40877 1.63601,0.4331 0.52695,0.0223 1.0443,-0.0384 1.54453,-0.21451 0.51392,-0.18093 0.96276,-0.46088 1.31051,-0.8858 0.44712,-0.54656 0.64412,-1.18528 0.64549,-1.88296 0.005,-2.20647 0.002,-4.41334 0.002,-6.62015 0,-0.0795 3.4e-4,-0.14664 3.4e-4,-0.14664 0,0 -1.1885,-0.001 -1.71202,3.4e-4 h -0.0463 c 0,0 -3.4e-4,0.38893 0,0.56575 v 0.23405 c 0,0 -0.0322,-0.048 -0.0408,-0.059 -0.3296,-0.48626 -0.77946,-0.78506 -1.36191,-0.87998 -0.16377,-0.0266 -0.32745,-0.0398 -0.49071,-0.0381 z m 0.53548,1.53587 c 0.20217,0.007 0.39968,0.0501 0.59048,0.14263 0.30493,0.14803 0.49297,0.40088 0.61631,0.70723 0.12094,0.29984 0.18265,0.61478 0.1871,0.93586 0.004,0.28716 0.003,0.5788 -0.0411,0.8615 -0.0887,0.56781 -0.48276,1.09931 -1.08714,1.24735 -0.55128,0.13501 -1.12007,-0.0764 -1.44864,-0.54179 -0.23092,-0.32657 -0.33748,-0.69253 -0.36523,-1.08558 -0.006,-0.0935 -6.9e-4,-0.18813 -6.9e-4,-0.28237 -0.0103,-0.40401 0.0319,-0.80081 0.19018,-1.17707 0.18604,-0.4417 0.51086,-0.71073 0.99018,-0.78406 0.12425,-0.019 0.24722,-0.0279 0.36852,-0.0237 z"
             style="stroke-width:0.0342644" />
        </g>
      </g>
    </g>
    <g
       inkscape:groupmode="layer"
       id="layer6"
       inkscape:label="Symbols"
       style="display:inline" />
    <g
       inkscape:groupmode="layer"
       id="layer5"
       inkscape:label="Highlights"
       style="display:inline"
       sodipodi:insensitive="true">
      <path
         style="opacity:0.12999998;color:#bebebe;fill:#ffffff;fill-opacity:1;fill-rule:nonzero;stroke:none;stroke-width:0;marker:none;visibility:visible;display:inline;overflow:visible;enable-background:accumulate"
         d="M 84,47 C 56.836703,47 35,68.836703 35,96 l 0,1 C 35,69.836703 56.836703,48 84,48 l 120,0 c 27.1633,0 49,21.836703 49,49 l 0,-1 C 253,68.836703 231.1633,47 204,47 L 84,47 z"
         id="rect3894"
         inkscape:connector-curvature="0" />
      <path
         style="opacity:0.12999998;color:#bebebe;fill:#ffffff;fill-opacity:1;fill-rule:nonzero;stroke:none;stroke-width:0;marker:none;visibility:visible;display:inline;overflow:visible;enable-background:accumulate"
         d="m 419,141 c -1.1253,0 -2,0.8747 -2,2 l 0,1 c 0,-1.1253 0.8747,-2 2,-2 l 10,0 c 1.1253,0 2,0.8747 2,2 l 0,-1 c 0,-1.1253 -0.8747,-2 -2,-2 l -10,0 z"
         id="rect3896"
         inkscape:connector-curvature="0" />
      <path
         style="opacity:0.12999998;color:#bebebe;fill:#ffffff;fill-opacity:1;fill-rule:nonzero;stroke:none;stroke-width:0;marker:none;visibility:visible;display:inline;overflow:visible;enable-background:accumulate"
         d="m 422,102 c -2.2333,0 -4,1.7667 -4,4 l 0,1 c 0,-2.2333 1.7667,-4 4,-4 l 12,0 c 2.2333,0 4,1.7667 4,4 l 0,-1 c 0,-2.2333 -1.7667,-4 -4,-4 l -12,0 z"
         id="rect3898"
         inkscape:connector-curvature="0" />
      <path
         style="opacity:0.12999998;color:#bebebe;fill:#ffffff;fill-opacity:1;fill-rule:nonzero;stroke:none;stroke-width:0;marker:none;visibility:visible;display:inline;overflow:visible;enable-background:accumulate"
         d="m 424,54 c -3.3413,0 -6,2.658703 -6,6 l 0,1 c 0,-3.341297 2.6587,-6 6,-6 l 16,0 c 3.3413,0 6,2.658703 6,6 l 0,-1 c 0,-3.341297 -2.6587,-6 -6,-6 l -16,0 z"
         id="rect3900"
         inkscape:connector-curvature="0" />
      <path
         style="opacity:0.12999998;color:#bebebe;fill:#ffffff;fill-opacity:1;fill-rule:nonzero;stroke:none;stroke-width:0;marker:none;visibility:visible;display:inline;overflow:visible;enable-background:accumulate"
         d="m 300,224 c -4.4493,0 -8,3.5507 -8,8 l 0,1 c 0,-4.4493 3.5507,-8 8,-8 l 24,0 c 4.4493,0 8,3.5507 8,8 l 0,-1 c 0,-4.4493 -3.5507,-8 -8,-8 l -24,0 z"
         id="rect3902"
         inkscape:connector-curvature="0" />
      <path
         style="opacity:0.12999998;color:#bebebe;fill:#ffffff;fill-opacity:1;fill-rule:nonzero;stroke:none;stroke-width:0;marker:none;visibility:visible;display:inline;overflow:visible;enable-background:accumulate"
         d="m 310,33 c -9.4353,0 -17,7.564703 -17,17 l 0,1 c 0,-9.435297 7.5647,-17 17,-17 l 52,0 c 9.4353,0 17,7.564703 17,17 l 0,-1 c 0,-9.435297 -7.5647,-17 -17,-17 l -52,0 z"
         id="rect3904"
         inkscape:connector-curvature="0" />
      <path
         style="opacity:0.12999998;color:#bebebe;fill:#ffffff;fill-opacity:1;fill-rule:nonzero;stroke:none;stroke-width:0;marker:none;visibility:visible;display:inline;overflow:visible;enable-background:accumulate"
         d="m 302.5,143 c -6.3883,0 -11.5,5.1117 -11.5,11.5 l 0,1 c 0,-6.3883 5.1117,-11.5 11.5,-11.5 l 35,0 c 6.3883,0 11.5,5.1117 11.5,11.5 l 0,-1 c 0,-6.3883 -5.1117,-11.5 -11.5,-11.5 l -35,0 z"
         id="rect3906"
         inkscape:connector-curvature="0" />
      <path
         id="path4085"
         d="m 204,266 c 27.1633,0 49,-21.8367 49,-49 l 0,-1 c 0,27.1633 -21.8367,49 -49,49 L 84,265 C 56.8367,265 35,243.1633 35,216 l 0,1 c 0,27.1633 21.8367,49 49,49 l 120,0 z"
         style="opacity:0.41;color:#bebebe;fill:#000000;fill-opacity:1;fill-rule:nonzero;stroke:none;stroke-width:0;marker:none;visibility:visible;display:inline;overflow:visible;enable-background:accumulate"
         inkscape:connector-curvature="0" />
      <path
         id="path4087"
         d="m 429,156 c 1.1253,0 2,-0.8747 2,-2 l 0,-1 c 0,1.1253 -0.8747,2 -2,2 l -10,0 c -1.1253,0 -2,-0.8747 -2,-2 l 0,1 c 0,1.1253 0.8747,2 2,2 l 10,0 z"
         style="opacity:0.3;color:#bebebe;fill:#000000;fill-opacity:1;fill-rule:nonzero;stroke:none;stroke-width:0;marker:none;visibility:visible;display:inline;overflow:visible;enable-background:accumulate"
         inkscape:connector-curvature="0" />
      <path
         id="path4089"
         d="m 434,123 c 2.2333,0 4,-1.7667 4,-4 l 0,-1 c 0,2.2333 -1.7667,4 -4,4 l -12,0 c -2.2333,0 -4,-1.7667 -4,-4 l 0,1 c 0,2.2333 1.7667,4 4,4 l 12,0 z"
         style="opacity:0.3;color:#bebebe;fill:#000000;fill-opacity:1;fill-rule:nonzero;stroke:none;stroke-width:0;marker:none;visibility:visible;display:inline;overflow:visible;enable-background:accumulate"
         inkscape:connector-curvature="0" />
      <path
         id="path4091"
         d="m 440,83 c 3.3413,0 6,-2.6587 6,-6 l 0,-1 c 0,3.3413 -2.6587,6 -6,6 l -16,0 c -3.3413,0 -6,-2.6587 -6,-6 l 0,1 c 0,3.3413 2.6587,6 6,6 l 16,0 z"
         style="opacity:0.41;color:#bebebe;fill:#000000;fill-opacity:1;fill-rule:nonzero;stroke:none;stroke-width:0;marker:none;visibility:visible;display:inline;overflow:visible;enable-background:accumulate"
         inkscape:connector-curvature="0" />
      <path
         id="path4093"
         d="m 324,265 c 4.4493,0 8,-3.5507 8,-8 l 0,-1 c 0,4.4493 -3.5507,8 -8,8 l -24,0 c -4.4493,0 -8,-3.5507 -8,-8 l 0,1 c 0,4.4493 3.5507,8 8,8 l 24,0 z"
         style="opacity:0.41;color:#bebebe;fill:#000000;fill-opacity:1;fill-rule:nonzero;stroke:none;stroke-width:0;marker:none;visibility:visible;display:inline;overflow:visible;enable-background:accumulate"
         inkscape:connector-curvature="0" />
      <path
         id="path4095"
         d="m 362,120 c 9.4353,0 17,-7.5647 17,-17 l 0,-1 c 0,9.4353 -7.5647,17 -17,17 l -52,0 c -9.4353,0 -17,-7.5647 -17,-17 l 0,1 c 0,9.4353 7.5647,17 17,17 l 52,0 z"
         style="opacity:0.41;color:#bebebe;fill:#000000;fill-opacity:1;fill-rule:nonzero;stroke:none;stroke-width:0;marker:none;visibility:visible;display:inline;overflow:visible;enable-background:accumulate"
         inkscape:connector-curvature="0" />
      <path
         id="path4097"
         d="m 337.5,202 c 6.3883,0 11.5,-5.1117 11.5,-11.5 l 0,-1 c 0,6.3883 -5.1117,11.5 -11.5,11.5 l -35,0 c -6.3883,0 -11.5,-5.1117 -11.5,-11.5 l 0,1 c 0,6.3883 5.1117,11.5 11.5,11.5 l 35,0 z"
         style="opacity:0.41;color:#bebebe;fill:#000000;fill-opacity:1;fill-rule:nonzero;stroke:none;stroke-width:0;marker:none;visibility:visible;display:inline;overflow:visible;enable-background:accumulate"
         inkscape:connector-curvature="0" />
      <path
         inkscape:connector-curvature="0"
         id="path4280"
         d="M 84,265 C 56.836703,265 35,243.1633 35,216 l 0,-1 c 0,27.1633 21.836703,49 49,49 l 120,0 c 27.1633,0 49,-21.8367 49,-49 l 0,1 c 0,27.1633 -21.8367,49 -49,49 l -120,0 z"
         style="opacity:0.1;color:#bebebe;fill:#ffffff;fill-opacity:1;fill-rule:nonzero;stroke:none;stroke-width:0;marker:none;visibility:visible;display:inline;overflow:visible;enable-background:accumulate" />
      <path
         style="opacity:0.1;color:#bebebe;fill:#ffffff;fill-opacity:1;fill-rule:nonzero;stroke:none;stroke-width:0;marker:none;visibility:visible;display:inline;overflow:visible;enable-background:accumulate"
         d="m 300,264 c -4.4493,0 -8,-3.5507 -8,-8 l 0,-1 c 0,4.4493 3.5507,8 8,8 l 24,0 c 4.4493,0 8,-3.5507 8,-8 l 0,1 c 0,4.4493 -3.5507,8 -8,8 l -24,0 z"
         id="path4294"
         inkscape:connector-curvature="0" />
      <path
         style="opacity:0.1;color:#bebebe;fill:#ffffff;fill-opacity:1;fill-rule:nonzero;stroke:none;stroke-width:0;marker:none;visibility:visible;display:inline;overflow:visible;enable-background:accumulate"
         d="m 302.5,201 c -6.3883,0 -11.5,-5.1117 -11.5,-11.5 l 0,-1 c 0,6.3883 5.1117,11.5 11.5,11.5 l 35,0 c 6.3883,0 11.5,-5.1117 11.5,-11.5 l 0,1 c 0,6.3883 -5.1117,11.5 -11.5,11.5 l -35,0 z"
         id="path4296"
         inkscape:connector-curvature="0" />
      <path
         style="opacity:0.1;color:#bebebe;fill:#ffffff;fill-opacity:1;fill-rule:nonzero;stroke:none;stroke-width:0;marker:none;visibility:visible;display:inline;overflow:visible;enable-background:accumulate"
         d="m 310,119 c -9.4353,0 -17,-7.5647 -17,-17 l 0,-1 c 0,9.4353 7.5647,17 17,17 l 52,0 c 9.4353,0 17,-7.5647 17,-17 l 0,1 c 0,9.4353 -7.5647,17 -17,17 l -52,0 z"
         id="path4298"
         inkscape:connector-curvature="0" />
      <path
         style="opacity:0.1;color:#bebebe;fill:#ffffff;fill-opacity:1;fill-rule:nonzero;stroke:none;stroke-width:0;marker:none;visibility:visible;display:inline;overflow:visible;enable-background:accumulate"
         d="m 424,82 c -3.3413,0 -6,-2.658703 -6,-6 l 0,-1 c 0,3.341297 2.6587,6 6,6 l 16,0 c 3.3413,0 6,-2.658703 6,-6 l 0,1 c 0,3.341297 -2.6587,6 -6,6 l -16,0 z"
         id="path4300"
         inkscape:connector-curvature="0" />
      <path
         style="opacity:0.1;color:#bebebe;fill:#ffffff;fill-opacity:1;fill-rule:nonzero;stroke:none;stroke-width:0;marker:none;visibility:visible;display:inline;overflow:visible;enable-background:accumulate"
         d="m 422,122 c -2.2333,0 -4,-1.7667 -4,-4 l 0,-1 c 0,2.2333 1.7667,4 4,4 l 12,0 c 2.2333,0 4,-1.7667 4,-4 l 0,1 c 0,2.2333 -1.7667,4 -4,4 l -12,0 z"
         id="path4302"
         inkscape:connector-curvature="0" />
      <path
         style="opacity:0.1;color:#bebebe;fill:#ffffff;fill-opacity:1;fill-rule:nonzero;stroke:none;stroke-width:0;marker:none;visibility:visible;display:inline;overflow:visible;enable-background:accumulate"
         d="m 419,154.5 c -1.1253,0 -2,-0.8747 -2,-2 l 0,-1 c 0,1.1253 0.8747,2 2,2 l 10,0 c 1.1253,0 2,-0.8747 2,-2 l 0,1 c 0,1.1253 -0.8747,2 -2,2 l -10,0 z"
         id="path4304"
         inkscape:connector-curvature="0" />
    </g>
    <g
       inkscape:groupmode="layer"
       id="layer3"
       inkscape:label="Border"
       style="display:inline"
       sodipodi:insensitive="true">
      <path
         style="opacity:0.41;color:#bebebe;fill:#000000;fill-opacity:1;fill-rule:nonzero;stroke:none;stroke-width:0;marker:none;visibility:visible;display:inline;overflow:visible;enable-background:accumulate"
         d="m 422,101 c -2.77,0 -5,2.23 -5,5 l 0,12 c 0,2.77 2.23,5 5,5 l 12,0 c 2.77,0 5,-2.23 5,-5 l 0,-12 c 0,-2.77 -2.23,-5 -5,-5 l -12,0 z m 0,1 12,0 c 2.2333,0 4,1.7667 4,4 l 0,12 c 0,2.2333 -1.7667,4 -4,4 l -12,0 c -2.2333,0 -4,-1.7667 -4,-4 l 0,-12 c 0,-2.2333 1.7667,-4 4,-4 z"
         id="rect4099"
         inkscape:connector-curvature="0" />
      <path
         style="opacity:0.41;color:#bebebe;fill:#000000;fill-opacity:1;fill-rule:nonzero;stroke:none;stroke-width:0;marker:none;visibility:visible;display:inline;overflow:visible;enable-background:accumulate"
         d="m 424,53 c -3.878,0 -7,3.122 -7,7 l 0,16 c 0,3.878 3.122,7 7,7 l 16,0 c 3.878,0 7,-3.122 7,-7 l 0,-16 c 0,-3.878 -3.122,-7 -7,-7 l -16,0 z m 0,1 16,0 c 3.3413,0 6,2.658703 6,6 l 0,16 c 0,3.341297 -2.6587,6 -6,6 l -16,0 c -3.3413,0 -6,-2.658703 -6,-6 l 0,-16 c 0,-3.341297 2.6587,-6 6,-6 z"
         id="rect4151"
         inkscape:connector-curvature="0" />
      <path
         style="opacity:0.41;color:#bebebe;fill:#000000;fill-opacity:1;fill-rule:nonzero;stroke:none;stroke-width:0;marker:none;visibility:visible;display:inline;overflow:visible;enable-background:accumulate"
         d="m 419,140 c -1.662,0 -3,1.338 -3,3 l 0,10 c 0,1.662 1.338,3 3,3 l 10,0 c 1.662,0 3,-1.338 3,-3 l 0,-10 c 0,-1.662 -1.338,-3 -3,-3 l -10,0 z m 0,1 10,0 c 1.1253,0 2,0.8747 2,2 l 0,10 c 0,1.1253 -0.8747,2 -2,2 l -10,0 c -1.1253,0 -2,-0.8747 -2,-2 l 0,-10 c 0,-1.1253 0.8747,-2 2,-2 z"
         id="rect4095"
         inkscape:connector-curvature="0" />
      <path
         style="opacity:0.41;color:#bebebe;fill:#000000;fill-opacity:1;fill-rule:nonzero;stroke:none;stroke-width:0;marker:none;visibility:visible;display:inline;overflow:visible;enable-background:accumulate"
         d="m 300,223 c -4.986,0 -9,4.014 -9,9 l 0,24 c 0,4.986 4.014,9 9,9 l 24,0 c 4.986,0 9,-4.014 9,-9 l 0,-24 c 0,-4.986 -4.014,-9 -9,-9 l -24,0 z m 0,1 24,0 c 4.4493,0 8,3.5507 8,8 l 0,24 c 0,4.4493 -3.5507,8 -8,8 l -24,0 c -4.4493,0 -8,-3.5507 -8,-8 l 0,-24 c 0,-4.4493 3.5507,-8 8,-8 z"
         id="rect4783"
         inkscape:connector-curvature="0" />
      <path
         style="opacity:0.41;color:#bebebe;fill:#000000;fill-opacity:1;fill-rule:nonzero;stroke:none;stroke-width:0;marker:none;visibility:visible;display:inline;overflow:visible;enable-background:accumulate"
         d="m 302.5,142 c -6.925,0 -12.5,5.575 -12.5,12.5 l 0,35 c 0,6.925 5.575,12.5 12.5,12.5 l 35,0 c 6.925,0 12.5,-5.575 12.5,-12.5 l 0,-35 c 0,-6.925 -5.575,-12.5 -12.5,-12.5 l -35,0 z m 0,1 35,0 c 6.3883,0 11.5,5.1117 11.5,11.5 l 0,35 c 0,6.3883 -5.1117,11.5 -11.5,11.5 l -35,0 c -6.3883,0 -11.5,-5.1117 -11.5,-11.5 l 0,-35 c 0,-6.3883 5.1117,-11.5 11.5,-11.5 z"
         id="rect4515"
         inkscape:connector-curvature="0" />
      <path
         style="opacity:0.41;color:#bebebe;fill:#000000;fill-opacity:1;fill-rule:nonzero;stroke:none;stroke-width:0;marker:none;visibility:visible;display:inline;overflow:visible;enable-background:accumulate"
         d="m 310,32 c -9.972,0 -18,8.028 -18,18 l 0,52 c 0,9.972 8.028,18 18,18 l 52,0 c 9.972,0 18,-8.028 18,-18 l 0,-52 c 0,-9.972 -8.028,-18 -18,-18 l -52,0 z m 0,1 52,0 c 9.4353,0 17,7.564703 17,17 l 0,52 c 0,9.4353 -7.5647,17 -17,17 l -52,0 c -9.4353,0 -17,-7.5647 -17,-17 l 0,-52 c 0,-9.435297 7.5647,-17 17,-17 z"
         id="rect4511"
         inkscape:connector-curvature="0" />
      <path
         style="opacity:0.41;color:#bebebe;fill:#000000;fill-opacity:1;fill-rule:nonzero;stroke:none;stroke-width:0;marker:none;visibility:visible;display:inline;overflow:visible;enable-background:accumulate"
         d="M 84,46 C 56.3,46 34,68.3 34,96 l 0,120 c 0,27.7 22.3,50 50,50 l 120,0 c 27.7,0 50,-22.3 50,-50 L 254,96 C 254,68.3 231.7,46 204,46 L 84,46 z m 0,1 120,0 c 27.1633,0 49,21.836703 49,49 l 0,120 c 0,27.1633 -21.8367,49 -49,49 L 84,265 C 56.836703,265 35,243.1633 35,216 L 35,96 C 35,68.836703 56.836703,47 84,47 z"
         id="rect4040"
         inkscape:connector-curvature="0" />
    </g>
  </g>
  <style
     type="text/css"
     id="style1050">
	.st0{fill:#0081FF;}
	.st1{fill:#FFFFFF;}
</style>
</svg>
