<?xml version="1.0" encoding="UTF-8" standalone="no"?>
<!-- Created with Inkscape (http://www.inkscape.org/) -->

<svg
   inkscape:export-ydpi="90.000000"
   inkscape:export-xdpi="90.000000"
   width="480"
   height="300"
   id="svg11300"
   sodipodi:version="0.32"
   inkscape:version="1.2.2 (b0a8486541, 2022-12-01)"
   sodipodi:docname="godot.svg"
   inkscape:output_extension="org.inkscape.output.svg.inkscape"
   version="1.0"
   style="display:inline;enable-background:new"
   inkscape:export-filename="/home/sam/moka-next-template.png"
   xml:space="preserve"
   xmlns:inkscape="http://www.inkscape.org/namespaces/inkscape"
   xmlns:sodipodi="http://sodipodi.sourceforge.net/DTD/sodipodi-0.dtd"
   xmlns:xlink="http://www.w3.org/1999/xlink"
   xmlns="http://www.w3.org/2000/svg"
   xmlns:svg="http://www.w3.org/2000/svg"
   xmlns:rdf="http://www.w3.org/1999/02/22-rdf-syntax-ns#"
   xmlns:cc="http://creativecommons.org/ns#"
   xmlns:dc="http://purl.org/dc/elements/1.1/"><sodipodi:namedview
     stroke="#ef2929"
     fill="#f57900"
     id="base"
     pagecolor="#777777"
     bordercolor="#666666"
     borderopacity="0.25490196"
     inkscape:pageopacity="0"
     inkscape:pageshadow="2"
     inkscape:zoom="1"
     inkscape:cx="252"
     inkscape:cy="99"
     inkscape:current-layer="g21308"
     showgrid="false"
     inkscape:grid-bbox="true"
     inkscape:document-units="px"
     inkscape:showpageshadow="false"
     inkscape:window-width="1188"
     inkscape:window-height="1008"
     inkscape:window-x="732"
     inkscape:window-y="0"
     width="400px"
     height="300px"
     inkscape:snap-nodes="true"
     inkscape:snap-bbox="true"
     gridtolerance="10000"
     inkscape:object-nodes="true"
     inkscape:snap-grids="true"
     showguides="true"
     inkscape:guide-bbox="true"
     inkscape:window-maximized="0"
     inkscape:bbox-nodes="true"
     inkscape:bbox-paths="true"
     inkscape:snap-bbox-edge-midpoints="true"
     inkscape:snap-bbox-midpoints="true"
     inkscape:pagecheckerboard="1"
     inkscape:deskcolor="#777777"><inkscape:grid
       spacingy="1"
       spacingx="1"
       id="grid5883"
       type="xygrid"
       enabled="true"
       visible="true"
       empspacing="4"
       snapvisiblegridlinesonly="true"
       dotted="false"
       color="#000000"
       opacity="0.1254902"
       empcolor="#203ef3"
       empopacity="0.36470588"
       originx="0"
       originy="0" /><inkscape:grid
       type="xygrid"
       id="grid11592"
       empspacing="8"
       visible="true"
       enabled="false"
       spacingx="0.5"
       spacingy="0.5"
       color="#ff0000"
       opacity="0.1254902"
       empcolor="#ff0000"
       empopacity="0.25098039"
       snapvisiblegridlinesonly="true"
       dotted="true"
       originx="0"
       originy="0" /></sodipodi:namedview><defs
     id="defs3"><linearGradient
       id="linearGradient1096"><stop
         style="stop-color:#212532;stop-opacity:1;"
         offset="0"
         id="stop1092" /><stop
         style="stop-color:#363d52;stop-opacity:1;"
         offset="1"
         id="stop1094" /></linearGradient><linearGradient
       id="linearGradient1090"><stop
         style="stop-color:#212532;stop-opacity:1;"
         offset="0"
         id="stop1086" /><stop
         style="stop-color:#363d52;stop-opacity:1;"
         offset="1"
         id="stop1088" /></linearGradient><linearGradient
       id="linearGradient1084"><stop
         style="stop-color:#212532;stop-opacity:1;"
         offset="0"
         id="stop1080" /><stop
         style="stop-color:#363d52;stop-opacity:1;"
         offset="1"
         id="stop1082" /></linearGradient><linearGradient
       id="linearGradient1078"><stop
         style="stop-color:#212532;stop-opacity:1;"
         offset="0"
         id="stop1074" /><stop
         style="stop-color:#363d52;stop-opacity:1;"
         offset="1"
         id="stop1076" /></linearGradient><linearGradient
       id="linearGradient1072"><stop
         style="stop-color:#212532;stop-opacity:1;"
         offset="0"
         id="stop1068" /><stop
         style="stop-color:#363d52;stop-opacity:1;"
         offset="1"
         id="stop1070" /></linearGradient><linearGradient
       id="linearGradient1066"><stop
         style="stop-color:#212532;stop-opacity:1;"
         offset="0"
         id="stop1062" /><stop
         style="stop-color:#363d52;stop-opacity:1;"
         offset="1"
         id="stop1064" /></linearGradient><linearGradient
       inkscape:collect="always"
       xlink:href="#linearGradient1066"
       id="linearGradient5576"
       gradientUnits="userSpaceOnUse"
       gradientTransform="matrix(0,-1,1,0,-12,300)"
       x1="35"
       y1="156"
       x2="253"
       y2="156" /><linearGradient
       inkscape:collect="always"
       xlink:href="#outerBackgroundGradient"
       id="linearGradient5578"
       gradientUnits="userSpaceOnUse"
       gradientTransform="matrix(0,-1,1,0,276,572)"
       x1="417"
       y1="148"
       x2="431"
       y2="148" /><linearGradient
       inkscape:collect="always"
       xlink:href="#linearGradient1096"
       id="linearGradient5580"
       gradientUnits="userSpaceOnUse"
       gradientTransform="matrix(0,-1,1,0,316,540)"
       x1="418"
       y1="112"
       x2="438"
       y2="112" /><linearGradient
       inkscape:collect="always"
       xlink:href="#linearGradient1072"
       id="linearGradient5582"
       gradientUnits="userSpaceOnUse"
       gradientTransform="matrix(0,-1,1,0,364,500)"
       x1="418"
       y1="68"
       x2="446"
       y2="68" /><linearGradient
       inkscape:collect="always"
       xlink:href="#linearGradient1090"
       id="linearGradient5584"
       gradientUnits="userSpaceOnUse"
       gradientTransform="matrix(0,-1,1,0,68,556)"
       x1="292"
       y1="244"
       x2="332"
       y2="244" /><linearGradient
       inkscape:collect="always"
       xlink:href="#linearGradient1078"
       id="linearGradient5586"
       gradientUnits="userSpaceOnUse"
       gradientTransform="matrix(0,-1,1,0,260,412)"
       x1="293"
       y1="76"
       x2="379"
       y2="76" /><linearGradient
       inkscape:collect="always"
       xlink:href="#linearGradient1084"
       id="linearGradient5588"
       gradientUnits="userSpaceOnUse"
       gradientTransform="matrix(0,-1,1,0,148,492)"
       x1="291"
       y1="172"
       x2="349"
       y2="172" /><linearGradient
       id="outerBackgroundGradient"><stop
         style="stop-color:#212532;stop-opacity:1;"
         offset="0"
         id="stop3864-8-6" /><stop
         style="stop-color:#363d52;stop-opacity:1;"
         offset="1"
         id="stop3866-9-1" /></linearGradient><linearGradient
       inkscape:collect="always"
       xlink:href="#linearGradient14823"
       id="linearGradient14825"
       x1="505.65817"
       y1="951.98022"
       x2="512"
       y2="77"
       gradientUnits="userSpaceOnUse" /><linearGradient
       inkscape:collect="always"
       id="linearGradient14823"><stop
         style="stop-color:#478cbf;stop-opacity:1;"
         offset="0"
         id="stop14819" /><stop
         style="stop-color:#70bafa;stop-opacity:1;"
         offset="1"
         id="stop14821" /></linearGradient><linearGradient
       inkscape:collect="always"
       xlink:href="#linearGradient14823"
       id="linearGradient21208"
       gradientUnits="userSpaceOnUse"
       x1="505.65817"
       y1="951.98022"
       x2="512"
       y2="77" /><linearGradient
       inkscape:collect="always"
       xlink:href="#linearGradient14823"
       id="linearGradient21230"
       gradientUnits="userSpaceOnUse"
       x1="505.65817"
       y1="951.98022"
       x2="512"
       y2="77" /><linearGradient
       inkscape:collect="always"
       xlink:href="#linearGradient14823"
       id="linearGradient21252"
       gradientUnits="userSpaceOnUse"
       x1="505.65817"
       y1="951.98022"
       x2="512"
       y2="77" /><linearGradient
       inkscape:collect="always"
       xlink:href="#linearGradient14823"
       id="linearGradient21274"
       gradientUnits="userSpaceOnUse"
       x1="505.65817"
       y1="951.98022"
       x2="512"
       y2="77" /><linearGradient
       inkscape:collect="always"
       xlink:href="#linearGradient14823"
       id="linearGradient21296"
       gradientUnits="userSpaceOnUse"
       x1="505.65817"
       y1="951.98022"
       x2="512"
       y2="77" /><linearGradient
       inkscape:collect="always"
       xlink:href="#linearGradient14823"
       id="linearGradient21318"
       gradientUnits="userSpaceOnUse"
       x1="505.65817"
       y1="951.98022"
       x2="512"
       y2="77" /></defs><metadata
     id="metadata4"><rdf:RDF><cc:Work
         rdf:about=""><dc:format>image/svg+xml</dc:format><dc:type
           rdf:resource="http://purl.org/dc/dcmitype/StillImage" /><dc:creator><cc:Agent><dc:title>Sam Hewitt</dc:title></cc:Agent></dc:creator><dc:source /><cc:license
           rdf:resource="" /><dc:title /><dc:subject><rdf:Bag /></dc:subject><dc:date /><dc:rights><cc:Agent><dc:title /></cc:Agent></dc:rights><dc:publisher><cc:Agent><dc:title /></cc:Agent></dc:publisher><dc:identifier /><dc:relation /><dc:language /><dc:coverage /><dc:description /><dc:contributor><cc:Agent><dc:title /></cc:Agent></dc:contributor></cc:Work><cc:Work
         rdf:about=""><dc:format>image/svg+xml</dc:format><dc:type
           rdf:resource="http://purl.org/dc/dcmitype/StillImage" /></cc:Work></rdf:RDF></metadata><g
     style="display:inline"
     inkscape:groupmode="layer"
     inkscape:label="Icon"
     id="layer1"><g
       style="display:none"
       inkscape:label="Baseplate"
       id="layer7"
       inkscape:groupmode="layer"><text
         y="19.745117"
         xml:space="preserve"
         x="15.006836"
         style="font-style:normal;font-variant:normal;font-weight:normal;font-stretch:normal;line-height:0%;font-family:'DejaVu Sans';-inkscape-font-specification:'DejaVu Sans';display:inline;fill:#000000;fill-opacity:1;stroke:none;enable-background:new"
         inkscape:label="context"
         id="context"><tspan
           style="font-style:normal;font-variant:normal;font-weight:normal;font-stretch:normal;font-size:18px;line-height:1.25;font-family:'DejaVu Sans';-inkscape-font-specification:'DejaVu Sans'"
           y="19.745117"
           x="15.006836"
           sodipodi:role="line"
           id="tspan3933">apps</tspan></text><text
         y="19.745117"
         xml:space="preserve"
         x="122.48828"
         style="font-style:normal;font-variant:normal;font-weight:bold;font-stretch:normal;line-height:0%;font-family:'DejaVu Sans';-inkscape-font-specification:'DejaVu Sans Bold';text-align:start;writing-mode:lr-tb;text-anchor:start;display:inline;fill:#000000;fill-opacity:1;stroke:none;enable-background:new"
         inkscape:label="icon-name"
         id="icon-name"
         inkscape:transform-center-y="-8.7802734"><tspan
           style="font-style:normal;font-variant:normal;font-weight:bold;font-stretch:normal;font-size:18px;line-height:1.25;font-family:'DejaVu Sans';-inkscape-font-specification:'DejaVu Sans Bold'"
           y="19.745117"
           x="122.48828"
           sodipodi:role="line"
           id="tspan3937">godot</tspan></text><rect
         style="display:inline;overflow:visible;visibility:visible;fill:#eeeeec;fill-opacity:1;fill-rule:nonzero;stroke:none;stroke-width:2;marker:none;enable-background:accumulate"
         id="rect16x16"
         width="16"
         height="16"
         x="416"
         y="140"
         inkscape:label="16x16" /><rect
         style="display:inline;overflow:visible;visibility:visible;fill:#d4d4d4;fill-opacity:1;fill-rule:nonzero;stroke:none;stroke-width:2;marker:none;enable-background:accumulate"
         id="rect24x24"
         width="24"
         height="24"
         x="416"
         y="100"
         inkscape:label="24x24" /><rect
         style="display:inline;overflow:visible;visibility:visible;fill:#eeeeec;fill-opacity:1;fill-rule:nonzero;stroke:none;stroke-width:2;marker:none;enable-background:accumulate"
         id="rect32x32"
         width="32"
         height="32"
         x="416"
         y="52"
         inkscape:label="32x32" /><rect
         inkscape:label="22x22"
         y="101"
         x="417"
         height="22"
         width="22"
         id="rect22x22"
         style="display:inline;overflow:visible;visibility:visible;fill:#eeeeec;fill-opacity:1;fill-rule:nonzero;stroke:none;stroke-width:2;marker:none;enable-background:accumulate" /><rect
         inkscape:label="48x48"
         y="220"
         x="288"
         height="48"
         width="48"
         id="rect48x48"
         style="display:inline;overflow:visible;visibility:visible;fill:#eeeeec;fill-opacity:1;fill-rule:nonzero;stroke:none;stroke-width:2;marker:none;enable-background:accumulate" /><rect
         style="display:inline;overflow:visible;visibility:visible;fill:#eeeeec;fill-opacity:1;fill-rule:nonzero;stroke:none;stroke-width:2;marker:none;enable-background:accumulate"
         id="rect256x256"
         width="256"
         height="256"
         x="16"
         y="28"
         inkscape:label="256x256" /><rect
         style="display:inline;overflow:visible;visibility:visible;fill:#eeeeec;fill-opacity:1;fill-rule:nonzero;stroke:none;stroke-width:2;marker:none;enable-background:accumulate"
         id="rect64x64"
         width="64"
         height="64"
         x="288"
         y="140"
         inkscape:label="64x64" /><rect
         style="display:inline;overflow:visible;visibility:visible;fill:#eeeeec;fill-opacity:1;fill-rule:nonzero;stroke:none;stroke-width:2;marker:none;enable-background:accumulate"
         id="rect96x96"
         width="96"
         height="96"
         x="288"
         y="28"
         inkscape:label="96x96" /></g><g
       inkscape:groupmode="layer"
       id="layer4"
       inkscape:label="Shadow"
       style="display:inline"
       sodipodi:insensitive="true"><rect
         ry="50"
         y="47"
         x="34"
         height="220"
         width="220"
         id="rect4114"
         style="color:#bebebe;display:inline;overflow:visible;visibility:visible;opacity:0.1;fill:#000000;fill-opacity:1;fill-rule:nonzero;stroke:none;stroke-width:0;marker:none;enable-background:accumulate" /><rect
         style="color:#bebebe;display:inline;overflow:visible;visibility:visible;opacity:0.1;fill:#000000;fill-opacity:1;fill-rule:nonzero;stroke:none;stroke-width:0;marker:none;enable-background:accumulate"
         id="rect4120"
         width="30"
         height="30"
         x="417"
         y="54"
         ry="7" /><rect
         transform="scale(1,-1)"
         ry="9"
         y="-266"
         x="291"
         height="42"
         width="42"
         id="rect4122"
         style="color:#bebebe;display:inline;overflow:visible;visibility:visible;opacity:0.1;fill:#000000;fill-opacity:1;fill-rule:nonzero;stroke:none;stroke-width:0;marker:none;enable-background:accumulate" /><rect
         style="color:#bebebe;display:inline;overflow:visible;visibility:visible;opacity:0.1;fill:#000000;fill-opacity:1;fill-rule:nonzero;stroke:none;stroke-width:0;marker:none;enable-background:accumulate"
         id="rect4124"
         width="88"
         height="88"
         x="292"
         y="33"
         ry="18" /><rect
         ry="12.5"
         y="143"
         x="290"
         height="60"
         width="60"
         id="rect4126"
         style="color:#bebebe;display:inline;overflow:visible;visibility:visible;opacity:0.1;fill:#000000;fill-opacity:1;fill-rule:nonzero;stroke:none;stroke-width:0;marker:none;enable-background:accumulate" /><path
         id="path4268"
         d="m 422,101 c -2.77,0 -5,2.23 -5,5 v 12 c 0,2.77 2.23,5 5,5 h 12 c 2.77,0 5,-2.23 5,-5 v -12 c 0,-2.77 -2.23,-5 -5,-5 z"
         style="color:#bebebe;display:inline;overflow:visible;visibility:visible;opacity:0.1;fill:#000000;fill-opacity:1;fill-rule:nonzero;stroke:none;stroke-width:0;marker:none;enable-background:accumulate"
         inkscape:connector-curvature="0"
         sodipodi:nodetypes="sssssssss" /><path
         id="path4270"
         d="m 419,140 c -1.662,0 -3,1.338 -3,3 v 10 c 0,1.662 1.338,3 3,3 h 10 c 1.662,0 3,-1.338 3,-3 v -10 c 0,-1.662 -1.338,-3 -3,-3 z"
         style="color:#bebebe;display:inline;overflow:visible;visibility:visible;opacity:0.1;fill:#000000;fill-opacity:1;fill-rule:nonzero;stroke:none;stroke-width:0;marker:none;enable-background:accumulate"
         inkscape:connector-curvature="0"
         sodipodi:nodetypes="sssssssss" /></g><g
       inkscape:groupmode="layer"
       id="layer2"
       inkscape:label="Background"
       style="display:inline"><path
         style="color:#bebebe;display:inline;overflow:visible;visibility:visible;fill:url(#linearGradient5576);fill-opacity:1;fill-rule:nonzero;stroke:none;stroke-width:2;marker:none;enable-background:accumulate"
         d="M 84,46.5 C 56.568735,46.5 34.5,68.568732 34.5,96 v 120 c 0,27.43127 22.068735,49.5 49.5,49.5 h 120 c 27.43127,0 49.5,-22.06873 49.5,-49.5 V 96 C 253.5,68.568732 231.43127,46.5 204,46.5 Z"
         id="path4200" /><path
         style="color:#bebebe;display:inline;overflow:visible;visibility:visible;fill:url(#linearGradient5578);fill-opacity:1;fill-rule:nonzero;stroke:none;stroke-width:2;marker:none;enable-background:accumulate"
         d="m 419,140.5 c -1.3844,0 -2.5,1.1156 -2.5,2.5 v 10 c 0,1.3844 1.1156,2.5 2.5,2.5 h 10 c 1.3844,0 2.5,-1.1156 2.5,-2.5 v -10 c 0,-1.3844 -1.1156,-2.5 -2.5,-2.5 z"
         id="path4202" /><path
         style="color:#bebebe;display:inline;overflow:visible;visibility:visible;fill:url(#linearGradient5580);fill-opacity:1;fill-rule:nonzero;stroke:none;stroke-width:2;marker:none;enable-background:accumulate"
         d="m 422,101.5 c -2.49699,0 -4.5,2.00301 -4.5,4.5 v 12 c 0,2.49699 2.00301,4.5 4.5,4.5 h 12 c 2.49699,0 4.5,-2.00301 4.5,-4.5 v -12 c 0,-2.49699 -2.00301,-4.5 -4.5,-4.5 z"
         id="path4204" /><path
         style="color:#bebebe;display:inline;overflow:visible;visibility:visible;fill:url(#linearGradient5582);fill-opacity:1;fill-rule:nonzero;stroke:none;stroke-width:2;marker:none;enable-background:accumulate"
         d="m 424,53.5 c -3.60654,0 -6.5,2.893464 -6.5,6.5 v 16 c 0,3.606536 2.89346,6.5 6.5,6.5 h 16 c 3.60654,0 6.5,-2.893464 6.5,-6.5 V 60 c 0,-3.606536 -2.89346,-6.5 -6.5,-6.5 z"
         id="path4206" /><path
         style="color:#bebebe;display:inline;overflow:visible;visibility:visible;fill:url(#linearGradient5584);fill-opacity:1;fill-rule:nonzero;stroke:none;stroke-width:2;marker:none;enable-background:accumulate"
         d="m 300,223.5 c -4.71531,0 -8.5,3.78469 -8.5,8.5 v 24 c 0,4.71531 3.78469,8.5 8.5,8.5 h 24 c 4.71531,0 8.5,-3.78469 8.5,-8.5 v -24 c 0,-4.71531 -3.78469,-8.5 -8.5,-8.5 z"
         id="path4208" /><path
         style="color:#bebebe;display:inline;overflow:visible;visibility:visible;fill:url(#linearGradient5586);fill-opacity:1;fill-rule:nonzero;stroke:none;stroke-width:2;marker:none;enable-background:accumulate"
         d="m 310,32.5 c -9.70255,0 -17.5,7.797452 -17.5,17.5 v 52 c 0,9.70255 7.79745,17.5 17.5,17.5 h 52 c 9.70255,0 17.5,-7.79745 17.5,-17.5 V 50 c 0,-9.702548 -7.79745,-17.5 -17.5,-17.5 z"
         id="path4210" /><path
         style="color:#bebebe;display:inline;overflow:visible;visibility:visible;fill:url(#linearGradient5588);fill-opacity:1;fill-rule:nonzero;stroke:none;stroke-width:2;marker:none;enable-background:accumulate"
         d="m 302.5,142.5 c -6.65502,0 -12,5.34498 -12,12 v 35 c 0,6.65502 5.34498,12 12,12 h 35 c 6.65502,0 12,-5.34498 12,-12 v -35 c 0,-6.65502 -5.34498,-12 -12,-12 z"
         id="path4212" /></g><g
       inkscape:groupmode="layer"
       id="layer6"
       inkscape:label="Symbols"
       style="display:inline"><path
         id="path3918"
         style="color:#000000;display:inline;overflow:visible;visibility:visible;opacity:0.2;fill:#000000;fill-opacity:1;fill-rule:evenodd;stroke:none;stroke-width:0.38209;marker:none;enable-background:new"
         d="m 126.39258,75.43262 c -0.57239,0 -0.9399,0.1242 -1.21875,0.30078 0.40743,-0.0944 0.81078,-0.21007 1.21875,-0.30078 z m -1.21875,0.30078 c -7.48411,1.73345 -14.87205,4.0761 -21.82227,7.57422 0.173,6.47184 0.57051,12.69173 1.41992,18.99024 -2.84625,1.82354 -5.824096,3.40426 -8.482417,5.53906 -2.701424,2.07817 -5.462142,4.05798 -7.908203,6.48828 -4.886321,-3.23223 -10.078437,-6.27393 -15.40625,-8.95508 -5.7433,6.18088 -11.088089,12.84147 -15.47461,20.30664 3.447333,5.4117 7.151694,10.86192 10.576172,15.10352 0.471905,19.59912 -0.22774,38.91911 10e-7,58.15038 0,26.67417 33.815547,39.48916 75.855467,39.63672 h 0.0703 0.0352 c 42.04033,0 75.88867,-12.96255 75.88867,-39.63672 -0.17115,-18.61765 -0.002,-38.64531 -0.002,-58.15038 3.95538,-4.9792 7.7066,-10.4826 10.57617,-15.10352 -4.38519,-7.46517 -9.73139,-14.12576 -15.47461,-20.30664 -5.32642,2.68115 -10.51989,5.72285 -15.40625,8.95508 -2.44526,-2.4303 -5.20301,-4.41011 -7.9082,-6.48828 -2.65774,-2.1348 -5.64165,-3.71552 -8.48242,-5.53906 0.84594,-6.29867 1.25038,-12.5184 1.41992,-18.99024 -7.33028,-3.6891 -15.13848,-6.1182 -23.04492,-7.875 -3.15685,5.30551 -6.03421,11.04372 -8.54883,16.66016 -2.98122,-0.49822 -5.98721,-0.67461 -8.98633,-0.71094 H 144 143.9297 c -3.0047,0.0346 -6.00596,0.21101 -8.98828,0.71094 -2.27967,-5.09591 -12.49751,-14.63064 -9.76758,-16.35938 z"
         sodipodi:nodetypes="cccsccccccccccsccccccccccccccss" /><path
         id="path3922"
         style="color:#000000;display:inline;overflow:visible;visibility:visible;opacity:0.2;fill:#000000;fill-opacity:1;fill-rule:evenodd;stroke:none;stroke-width:0.38209;marker:none;enable-background:new"
         d="m 329.99616,49.182617 c -2.69513,0.599196 -5.35983,1.427453 -7.85938,2.685547 0.059,2.207153 0.1947,4.326576 0.48438,6.47461 -0.9707,0.621907 -1.98595,1.162577 -2.89258,1.890625 -0.92127,0.708696 -1.86307,1.384072 -2.69727,2.21289 -1.66641,-1.102279 -3.43691,-2.140321 -5.2539,-3.054687 -1.9587,2.107916 -3.78137,4.379916 -5.27735,6.925781 1.17568,1.845607 2.43953,3.703854 3.60742,5.150391 0.17921,6.682929 -0.0894,13.273168 0,19.832031 0,9.096955 11.53187,13.467295 25.86914,13.517575 h 0.0234 0.0117 c 14.33744,0 25.88281,-4.42062 25.88281,-13.517575 0.003,-6.399864 -0.002,-13.259206 -0.002,-19.832031 1.3489,-1.698051 2.6288,-3.574468 3.60742,-5.150391 -1.49552,-2.545865 -3.31868,-4.817865 -5.27734,-6.925781 -1.81651,0.914366 -3.58944,1.952408 -5.25586,3.054687 -0.83396,-0.828818 -1.77275,-1.504194 -2.69531,-2.21289 -0.90641,-0.728048 -1.92376,-1.268718 -2.89258,-1.890625 0.2885,-2.148094 0.42655,-4.267457 0.48437,-6.47461 -2.49985,-1.258153 -5.16294,-2.086411 -7.85937,-2.685547 -1.07661,1.809383 -2.05846,3.766179 -2.91602,5.681641 -1.01673,-0.169918 -2.04165,-0.229798 -3.06445,-0.242187 h -0.0234 -0.0234 c -1.0247,0.0118 -2.04931,0.07168 -3.0664,0.242187 -0.8569,-1.915462 -1.83586,-3.872258 -2.91406,-5.681641 z"
         sodipodi:nodetypes="cccccccccccsccccccccccccccc" /><path
         id="path3926"
         style="color:#000000;display:inline;overflow:visible;visibility:visible;opacity:0.2;fill:#000000;fill-opacity:1;fill-rule:evenodd;stroke:none;stroke-width:0.38209;marker:none;enable-background:new"
         d="m 315.83015,153.67089 c -1.91862,0.003 -3.72784,0.99289 -5.46485,1.86719 0.041,1.53382 0.13874,3.00135 0.33985,4.49414 -0.6746,0.43216 -1.37581,0.80654 -2.00586,1.3125 -0.64022,0.49252 -1.3031,0.96509 -1.88281,1.54102 -1.15802,-0.76598 -2.37992,-1.4916 -3.64258,-2.12696 -1.36112,1.4648 -2.63419,3.05111 -3.67383,4.82032 0.81703,1.28257 1.69622,2.57292 2.50781,3.57812 0.10874,4.6417 -0.0492,9.21908 -0.004,13.77736 0,6.32166 8.01895,9.39453 17.98242,9.39453 h 0.0117 0.0117 c 9.96348,0 17.98242,-3.07287 17.98242,-9.39453 0.007,-4.44298 0,-9.212 0,-13.77736 0.93733,-1.18003 1.82768,-2.48295 2.50781,-3.57812 -1.03925,-1.76921 -2.31275,-3.35552 -3.67383,-4.82032 -1.26238,0.63536 -2.48453,1.36098 -3.64258,2.12696 -0.5795,-0.57597 -1.24169,-1.04849 -1.88281,-1.54102 -0.62991,-0.50594 -1.33259,-0.88032 -2.00586,-1.3125 0.20032,-1.49276 0.29968,-2.96033 0.33985,-4.49414 -1.7372,-0.87435 -3.59105,-1.45083 -5.46485,-1.86719 -0.74821,1.25737 -1.43145,2.6181 -2.02734,3.94922 -0.70658,-0.11799 -1.4161,-0.17383 -2.12696,-0.17383 h -0.0117 -0.0117 c -0.71213,0 -1.42016,0.055 -2.12696,0.17383 -0.59552,-1.33114 -1.27811,-2.69185 -2.02734,-3.94922 z"
         sodipodi:nodetypes="sccccccccscsccccccccccscsccs" /><path
         id="path3930"
         style="color:#000000;display:inline;overflow:visible;visibility:visible;opacity:0.2;fill:#000000;fill-opacity:1;fill-rule:evenodd;stroke:none;stroke-width:0.43382;marker:none;enable-background:new"
         d="m 309.22984,232.15376 c -1.27514,0.003 -2.47789,0.65852 -3.63234,1.23961 0.0272,1.01939 0.0925,1.9949 0.22618,2.98703 -0.44832,0.28721 -0.91619,0.53523 -1.33495,0.87148 -0.4255,0.32734 -0.86543,0.64174 -1.2507,1.0245 -0.76964,-0.50906 -1.58238,-0.99028 -2.42156,-1.41256 -0.90463,0.97352 -1.75055,2.02628 -2.44152,3.20214 0.54301,0.8524 1.1282,1.71134 1.6676,2.37942 0.0707,3.0867 -0.0324,6.12915 -0.002,9.15846 0,4.20149 5.32846,6.2424 11.95035,6.2424 h 0.009 0.007 c 6.62189,0 11.95256,-2.04092 11.95256,-6.2424 0.008,-2.92395 -0.002,-6.15191 -0.002,-9.15846 0.62296,-0.78429 1.21556,-1.65158 1.66759,-2.37942 -0.69072,-1.17586 -1.53691,-2.22862 -2.44152,-3.20214 -0.83899,0.42226 -1.6519,0.90349 -2.42156,1.41256 -0.38513,-0.38279 -0.8246,-0.69716 -1.2507,-1.0245 -0.41865,-0.33625 -0.8875,-0.58427 -1.33495,-0.87148 0.13312,-0.99212 0.19949,-1.96764 0.22618,-2.98703 -1.15458,-0.58111 -2.38699,-0.96289 -3.63233,-1.23961 -0.4973,0.83568 -0.95,1.73867 -1.34605,2.62334 -0.46961,-0.0785 -0.94236,-0.1153 -1.4148,-0.1153 h -0.007 -0.009 c -0.4733,0 -0.94282,0.0365 -1.41258,0.1153 -0.39577,-0.88468 -0.85031,-1.78766 -1.34827,-2.62334 z"
         sodipodi:nodetypes="sccccccccscsccccccccccscsccs" /><path
         id="path3934"
         style="color:#000000;display:inline;overflow:visible;visibility:visible;opacity:0.2;fill:#000000;fill-opacity:1;fill-rule:evenodd;stroke:none;stroke-width:0.38209;marker:none;enable-background:new"
         d="m 429.96484,59.570312 c -0.93591,-0.005 -1.81675,0.48368 -2.66406,0.910157 0.02,0.748201 0.066,1.467135 0.16406,2.195312 -0.32907,0.210812 -0.67115,0.391871 -0.97851,0.638672 -0.3123,0.24025 -0.63324,0.471003 -0.91602,0.751953 -0.5649,-0.37365 -1.16337,-0.727158 -1.77929,-1.037109 -0.66397,0.71455 -1.28387,1.486584 -1.79102,2.349609 0.39855,0.625639 0.82676,1.25573 1.22266,1.746094 0.0417,2.266643 -0.018,4.499002 0,6.722656 0,3.083743 3.90931,4.582032 8.76953,4.582032 h 0.006 0.004 c 4.86023,0 8.77149,-1.498289 8.77149,-4.582032 0.01,-2.168819 0.004,-4.494788 0.004,-6.722656 0.45724,-0.575625 0.89091,-1.211867 1.22266,-1.746094 -0.50695,-0.863026 -1.12707,-1.635058 -1.79102,-2.349609 -0.61577,0.309951 -1.21439,0.663459 -1.77929,1.037109 -0.2827,-0.280949 -0.6033,-0.511701 -0.91602,-0.751953 -0.30728,-0.2468 -0.6501,-0.427859 -0.97851,-0.638672 0.0977,-0.728175 0.14446,-1.447112 0.16406,-2.195312 -0.84741,-0.426501 -1.75,-0.707056 -2.66406,-0.910157 -0.36496,0.613352 -0.69959,1.276454 -0.99024,1.925782 -0.34468,-0.05763 -0.69231,-0.08398 -1.03906,-0.08398 h -0.004 -0.006 c -0.34738,0 -0.69427,0.02611 -1.03906,0.08398 -0.29049,-0.649328 -0.62279,-1.31243 -0.98828,-1.925782 z"
         sodipodi:nodetypes="sccccccccscsccccccccccscsccs" /><path
         id="path3938"
         style="color:#000000;display:inline;overflow:visible;visibility:visible;opacity:0.2;fill:#000000;fill-opacity:1;fill-rule:evenodd;stroke:none;stroke-width:0.38209;marker:none;enable-background:new"
         d="m 426.37305,105.45703 c -0.74872,-0.004 -1.45497,0.38734 -2.13282,0.72852 0.016,0.59856 0.0543,1.17136 0.13282,1.7539 -0.26325,0.16865 -0.53733,0.31428 -0.78321,0.51172 -0.24984,0.1922 -0.50815,0.3768 -0.73437,0.60156 -0.45192,-0.29892 -0.92914,-0.58211 -1.42188,-0.83007 -0.53118,0.57164 -1.02788,1.19044 -1.43359,1.88086 0.31884,0.50051 0.6618,1.00419 0.97852,1.39648 v 3.4082 0.4336 0.39453 c 0.008,7e-5 0.0143,7.9e-4 0.0215,0.004 l -0.0273,0.5586 c 8.9e-4,0.25105 0.004,0.52336 0.004,0.57812 0,2.46699 3.12941,3.66602 7.01758,3.66602 h 0.004 0.004 c 3.88817,0 7.01758,-1.19903 7.01758,-3.66602 0,-0.0556 0.004,-0.32691 0.004,-0.57812 l -0.002,-0.5625 V 115.39844 111.5 c 0.3658,-0.4605 0.71313,-0.9691 0.97852,-1.39648 -0.40556,-0.69042 -0.90243,-1.30922 -1.43359,-1.88086 -0.49262,0.24796 -0.96996,0.53115 -1.42188,0.83007 -0.22616,-0.22476 -0.48419,-0.40936 -0.73437,-0.60156 -0.24582,-0.19744 -0.52048,-0.34307 -0.78321,-0.51172 0.0782,-0.58254 0.11714,-1.15534 0.13282,-1.7539 -0.67793,-0.3412 -1.40157,-0.56604 -2.13282,-0.72852 -0.29197,0.49068 -0.55848,1.02156 -0.79101,1.54102 -0.27574,-0.0461 -0.55268,-0.0684 -0.83008,-0.0684 H 428 427.996 c -0.2779,0 -0.55424,0.0221 -0.83007,0.0684 -0.23239,-0.51946 -0.49863,-1.05034 -0.79102,-1.54102 z" /><path
         id="path3942"
         style="color:#000000;display:inline;overflow:visible;visibility:visible;opacity:0.2;fill:#000000;fill-opacity:1;fill-rule:evenodd;stroke:none;stroke-width:0.38209;marker:none;enable-background:new"
         d="m 422.98242,144.28516 c -0.46796,0 -0.90837,0.24183 -1.33203,0.45507 0.01,0.3741 0.0329,0.73358 0.082,1.09766 -0.16453,0.10541 -0.33656,0.19691 -0.49023,0.32031 -0.15615,0.12012 -0.31564,0.23452 -0.45703,0.375 -0.28245,-0.18683 -0.58266,-0.3626 -0.89063,-0.51758 -0.33199,0.35728 -0.64096,0.74232 -0.89453,1.17383 0.19928,0.31282 0.41338,0.62787 0.61133,0.87305 -6.6e-4,1.10149 0.002,2.34776 0,3.36133 0,1.54188 1.95465,2.29101 4.38476,2.29101 h 0.004 0.002 c 2.43011,0 4.38672,-0.74913 4.38672,-2.29101 10e-4,-1.10656 0,-2.20563 0,-3.36133 0.22863,-0.28781 0.44546,-0.60594 0.61133,-0.87305 -0.25348,-0.43151 -0.56255,-0.81655 -0.89453,-1.17383 -0.30789,0.15498 -0.60818,0.33075 -0.89063,0.51758 -0.14135,-0.14048 -0.30066,-0.25488 -0.45703,-0.375 -0.15363,-0.1234 -0.32602,-0.2149 -0.49023,-0.32031 0.0489,-0.36409 0.0722,-0.72356 0.082,-1.09766 -0.42371,-0.21325 -0.875,-0.35352 -1.33203,-0.45507 -0.18248,0.30668 -0.3488,0.63823 -0.49414,0.96289 -0.17233,-0.0288 -0.34616,-0.041 -0.51953,-0.041 H 424 423.996 c -0.17369,0 -0.34714,0.0121 -0.51953,0.041 -0.14524,-0.32466 -0.3114,-0.65621 -0.49414,-0.96289 z"
         sodipodi:nodetypes="cccccccccscsccccccccccscsccc" /><g
         id="g12953"
         transform="matrix(0.10692214,0,0,0.10692214,417.15335,141.12635)"><g
           fill="#ffffff"
           transform="matrix(0.101,0,0,0.101,12.322,12.322)"
           id="g12762"><path
             d="m 105,673 v 33 q 407,354 814,0 v -33 z"
             id="path12752" /><path
             fill="#478cbf"
             d="m 105,673 152,14 q 12,1 15,14 l 4,67 132,10 8,-61 q 2,-11 15,-15 h 162 q 13,4 15,15 l 8,61 132,-10 4,-67 q 3,-13 15,-14 L 919,673 V 427 q 30,-39 56,-81 -35,-59 -83,-108 -43,20 -82,47 -40,-37 -88,-64 7,-51 8,-102 -59,-28 -123,-42 -26,43 -46,89 -49,-7 -98,0 -20,-46 -46,-89 -64,14 -123,42 1,51 8,102 -48,27 -88,64 -39,-27 -82,-47 -48,49 -83,108 26,42 56,81 z m 0,33 v 39 c 0,276 813,276 814,0 v -39 l -134,12 -5,69 q -2,10 -14,13 l -162,11 q -12,0 -16,-11 L 578,735 H 446 l -10,65 q -4,11 -16,11 L 258,800 q -12,-3 -14,-13 l -5,-69 z"
             id="path12754"
             style="fill:url(#linearGradient14825);fill-opacity:1" /><path
             d="m 483,600 c 0,34 58,34 58,0 v -86 c 0,-34 -58,-34 -58,0 z"
             id="path12756" /><circle
             cx="725.00012"
             cy="526"
             r="90"
             id="circle12758" /><circle
             cx="299"
             cy="526"
             r="90"
             id="circle12760" /><path
             id="path3073"
             style="opacity:0.1;fill:#ffffff;fill-opacity:1"
             d="m 417.0488,77.062111 c -42.6666,9.333324 -83.6511,23.292729 -122.9844,41.959379 0.5899,30.08186 3.3325,60.16696 7.0535,90.24882 37.2627,-17.09517 75.7055,-30.80889 115.9309,-39.6082 17.3333,28.66664 32.605,58.31618 45.9383,88.98281 32.6666,-4.66666 65.3591,-4.66666 98.0258,0 13.3333,-30.66663 28.6049,-60.31617 45.9382,-88.98281 40.2255,8.79931 78.6683,22.51303 115.9309,39.6082 3.7211,-30.08186 6.4637,-60.16696 7.0535,-90.24882 -39.3333,-18.66665 -80.3177,-32.626055 -122.9844,-41.959379 -17.3333,28.666639 -32.6049,58.316179 -45.9382,88.982809 -32.6667,-4.66666 -65.3592,-4.66666 -98.0258,0 -13.3333,-30.66663 -28.605,-60.31617 -45.9383,-88.982809 z M 295.1496,225.90938 C 266.008,242.99196 238.5458,262.29347 213.9437,285.05039 187.9438,267.05041 160.6811,251.36027 132.0144,238.02695 100.0145,270.69359 72.3333,306.66671 49,346 c 10.4052,16.80844 22.2736,32.56346 33.6398,48.65117 15.9422,-21.74144 30.3783,-44.63213 49.3746,-64.02422 28.6667,13.33332 55.9294,29.02346 81.9293,47.02344 26.6667,-24.66664 56.0786,-46.02424 88.0785,-64.02422 -4.0131,-29.23832 -5.8176,-58.47847 -6.8726,-87.71679 z m 433.7008,0 c -1.0551,29.23832 -2.8596,58.47847 -6.8727,87.71679 32,17.99998 61.4119,39.35758 88.0785,64.02422 26,-17.99998 53.2627,-33.69012 81.9293,-47.02344 18.9963,19.39209 33.4325,42.28278 49.3746,64.02422 C 952.7263,378.56346 964.5947,362.80844 975,346 951.6667,306.66671 923.9855,270.69359 891.9855,238.02695 c -28.6666,13.33332 -55.9293,29.02346 -81.9293,47.02344 -24.6021,-22.75692 -52.0643,-42.05843 -81.2058,-59.14101 z"
             sodipodi:nodetypes="ccccccccccccccccccccccccccccccc" /></g><g
           fill="#414042"
           transform="matrix(0.101,0,0,0.101,12.322,12.322)"
           id="g12768"><circle
             cx="307"
             cy="532"
             r="60"
             id="circle12764" /><circle
             cx="717"
             cy="532"
             r="60"
             id="circle12766" /></g></g><g
         id="g21206"
         transform="matrix(0.17107542,0,0,0.17107542,417.04536,101.00216)"><g
           fill="#ffffff"
           transform="matrix(0.101,0,0,0.101,12.322,12.322)"
           id="g21198"><path
             d="m 105,673 v 33 q 407,354 814,0 v -33 z"
             id="path21188" /><path
             fill="#478cbf"
             d="m 105,673 152,14 q 12,1 15,14 l 4,67 132,10 8,-61 q 2,-11 15,-15 h 162 q 13,4 15,15 l 8,61 132,-10 4,-67 q 3,-13 15,-14 L 919,673 V 427 q 30,-39 56,-81 -35,-59 -83,-108 -43,20 -82,47 -40,-37 -88,-64 7,-51 8,-102 -59,-28 -123,-42 -26,43 -46,89 -49,-7 -98,0 -20,-46 -46,-89 -64,14 -123,42 1,51 8,102 -48,27 -88,64 -39,-27 -82,-47 -48,49 -83,108 26,42 56,81 z m 0,33 v 39 c 0,276 813,276 814,0 v -39 l -134,12 -5,69 q -2,10 -14,13 l -162,11 q -12,0 -16,-11 L 578,735 H 446 l -10,65 q -4,11 -16,11 L 258,800 q -12,-3 -14,-13 l -5,-69 z"
             id="path21190"
             style="fill:url(#linearGradient21208);fill-opacity:1" /><path
             d="m 483,600 c 0,34 58,34 58,0 v -86 c 0,-34 -58,-34 -58,0 z"
             id="path21192" /><circle
             cx="725.00012"
             cy="526"
             r="90"
             id="circle21194" /><circle
             cx="299"
             cy="526"
             r="90"
             id="circle21196" /><path
             id="path3818"
             style="opacity:0.2;fill:#ffffff;fill-opacity:1"
             d="m 417.0488,77.08471 c -42.6666,9.333324 -83.7641,23.27012 -123.0974,41.93677 0.3684,18.78777 2.8187,37.61774 4.4085,56.40552 38.0427,-17.67806 77.5469,-31.46747 118.6889,-40.46729 17.3334,28.66664 32.6728,58.29357 46.0062,88.96021 32.6666,-4.66666 65.2235,-4.66666 97.8901,0 13.3333,-30.66664 28.6728,-60.29357 46.0061,-88.96021 41.142,8.99982 80.6463,22.78923 118.689,40.46729 1.5897,-18.78778 4.04,-37.61775 4.4084,-56.40552 -39.3333,-18.66665 -80.4308,-32.603446 -123.0974,-41.93677 -17.3333,28.66664 -32.6728,58.29357 -46.0061,88.96021 -32.6666,-4.66667 -65.2235,-4.66667 -97.8901,0 -13.3334,-30.66664 -28.6728,-60.29357 -46.0062,-88.96021 z M 297.6817,224.25903 c -30.1813,17.42792 -58.2891,37.35747 -83.6475,60.81396 -26,-17.99998 -53.3983,-33.69011 -82.0649,-47.02343 C 99.9693,270.71619 72.3333,306.6667 49,346 c 6.5227,10.53659 14.1246,20.26664 21.0249,30.52002 19.0602,-28.10481 38.0533,-56.20669 61.9444,-80.59546 28.6666,13.33332 56.0649,29.02345 82.0649,47.02344 26.6666,-24.66665 55.9429,-45.97903 87.9429,-63.97901 -2.5013,-18.22352 -2.9433,-36.48644 -4.2954,-54.70996 z m 428.6367,0 c -1.3522,18.22352 -1.7942,36.48644 -4.2954,54.70996 31.9999,17.99998 61.2762,39.31236 87.9428,63.97901 26,-17.99999 53.3984,-33.69012 82.065,-47.02344 23.891,24.38877 42.8841,52.49065 61.9443,80.59546 C 960.8754,366.26664 968.4774,356.53659 975,346 951.6667,306.6667 924.0308,270.71619 892.0308,238.04956 c -28.6666,13.33332 -56.065,29.02345 -82.065,47.02343 -25.3583,-23.45649 -53.4662,-43.38604 -83.6474,-60.81396 z"
             sodipodi:nodetypes="ccccccccccccccccccccccccccccccc" /></g><g
           fill="#414042"
           transform="matrix(0.101,0,0,0.101,12.322,12.322)"
           id="g21204"><circle
             cx="307"
             cy="532"
             r="60"
             id="circle21200" /><circle
             cx="717"
             cy="532"
             r="60"
             id="circle21202" /></g></g><g
         id="g21228"
         transform="matrix(0.21384428,0,0,0.21384428,418.3067,54.2527)"><g
           fill="#ffffff"
           transform="matrix(0.101,0,0,0.101,12.322,12.322)"
           id="g21220"><path
             d="m 105,673 v 33 q 407,354 814,0 v -33 z"
             id="path21210" /><path
             fill="#478cbf"
             d="m 105,673 152,14 q 12,1 15,14 l 4,67 132,10 8,-61 q 2,-11 15,-15 h 162 q 13,4 15,15 l 8,61 132,-10 4,-67 q 3,-13 15,-14 L 919,673 V 427 q 30,-39 56,-81 -35,-59 -83,-108 -43,20 -82,47 -40,-37 -88,-64 7,-51 8,-102 -59,-28 -123,-42 -26,43 -46,89 -49,-7 -98,0 -20,-46 -46,-89 -64,14 -123,42 1,51 8,102 -48,27 -88,64 -39,-27 -82,-47 -48,49 -83,108 26,42 56,81 z m 0,33 v 39 c 0,276 813,276 814,0 v -39 l -134,12 -5,69 q -2,10 -14,13 l -162,11 q -12,0 -16,-11 L 578,735 H 446 l -10,65 q -4,11 -16,11 L 258,800 q -12,-3 -14,-13 l -5,-69 z"
             id="path21212"
             style="fill:url(#linearGradient21230);fill-opacity:1" /><path
             d="m 483,600 c 0,34 58,34 58,0 v -86 c 0,-34 -58,-34 -58,0 z"
             id="path21214" /><circle
             cx="725.00012"
             cy="526"
             r="90"
             id="circle21216" /><circle
             cx="299"
             cy="526"
             r="90"
             id="circle21218" /><path
             id="path3827"
             style="opacity:0.5;fill:#ffffff;fill-opacity:1"
             d="m 416.9584,76.971681 c -42.6666,9.333324 -83.6511,23.292729 -122.9844,41.959379 0.2949,15.03988 2.4492,30.08452 3.5268,45.12441 38.3006,-17.87327 78.0115,-31.71747 119.4576,-40.78379 17.3333,28.66664 32.6954,58.31618 46.0287,88.98281 32.6666,-4.66666 65.3591,-4.66666 98.0258,0 13.3333,-30.66663 28.6954,-60.31617 46.0287,-88.98281 41.446,9.06632 81.1569,22.91052 119.4576,40.78379 1.0776,-15.03989 3.2319,-30.08453 3.5268,-45.12441 -39.3333,-18.66665 -80.3178,-32.626055 -122.9844,-41.959379 -17.3333,28.666639 -32.6954,58.316179 -46.0287,88.982809 -32.6667,-4.66666 -65.3592,-4.66666 -98.0258,0 -13.3333,-30.66663 -28.6954,-60.31617 -46.0287,-88.982809 z M 298.5859,223.46777 c -30.5437,17.54517 -58.9311,37.79311 -84.5517,61.49219 -26,-17.99998 -53.3531,-33.69012 -82.0198,-47.02344 C 100.0145,270.60316 72.3333,306.66671 49,346 c 5.2092,8.41496 11.3698,16.09126 16.8199,24.32558 19.9975,-30.26677 40.693,-60.05621 66.1945,-86.08906 28.6667,13.33332 56.0198,29.02346 82.0198,47.02344 26.6666,-24.66664 55.9881,-46.02424 87.988,-64.02422 -2.0023,-14.58819 -2.1704,-29.17977 -3.4363,-43.76797 z m 426.8281,0 c -1.2659,14.5882 -1.434,29.17978 -3.4363,43.76797 32,17.99998 61.3215,39.35758 87.9881,64.02422 26,-17.99998 53.3531,-33.69012 82.0197,-47.02344 25.5016,26.03285 46.1971,55.82229 66.1946,86.08906 C 963.6302,362.09126 969.7907,354.41496 975,346 951.6667,306.66671 923.9855,270.60316 891.9855,237.93652 c -28.6666,13.33332 -56.0197,29.02346 -82.0197,47.02344 -25.6206,-23.69908 -54.008,-43.94702 -84.5518,-61.49219 z"
             sodipodi:nodetypes="ccccccccccccccccccccccccccccccc" /></g><g
           fill="#414042"
           transform="matrix(0.101,0,0,0.101,12.322,12.322)"
           id="g21226"><circle
             cx="307"
             cy="532"
             r="60"
             id="circle21222" /><circle
             cx="717"
             cy="532"
             r="60"
             id="circle21224" /></g></g><g
         id="g21250"
         transform="matrix(0.29136283,0,0,0.29136283,293.34287,225.2693)"><g
           fill="#ffffff"
           transform="matrix(0.101,0,0,0.101,12.322,12.322)"
           id="g21242"><path
             d="m 105,673 v 33 q 407,354 814,0 v -33 z"
             id="path21232" /><path
             fill="#478cbf"
             d="m 105,673 152,14 q 12,1 15,14 l 4,67 132,10 8,-61 q 2,-11 15,-15 h 162 q 13,4 15,15 l 8,61 132,-10 4,-67 q 3,-13 15,-14 L 919,673 V 427 q 30,-39 56,-81 -35,-59 -83,-108 -43,20 -82,47 -40,-37 -88,-64 7,-51 8,-102 -59,-28 -123,-42 -26,43 -46,89 -49,-7 -98,0 -20,-46 -46,-89 -64,14 -123,42 1,51 8,102 -48,27 -88,64 -39,-27 -82,-47 -48,49 -83,108 26,42 56,81 z m 0,33 v 39 c 0,276 813,276 814,0 v -39 l -134,12 -5,69 q -2,10 -14,13 l -162,11 q -12,0 -16,-11 L 578,735 H 446 l -10,65 q -4,11 -16,11 L 258,800 q -12,-3 -14,-13 l -5,-69 z"
             id="path21234"
             style="fill:url(#linearGradient21252);fill-opacity:1" /><path
             d="m 483,600 c 0,34 58,34 58,0 v -86 c 0,-34 -58,-34 -58,0 z"
             id="path21236" /><circle
             cx="725.00012"
             cy="526"
             r="90"
             id="circle21238" /><circle
             cx="299"
             cy="526"
             r="90"
             id="circle21240" /><path
             id="path3836"
             style="opacity:0.5;fill:#ffffff;fill-opacity:1"
             d="m 417.024,77.000716 c -42.6667,9.333324 -83.7175,23.345824 -123.0508,42.012474 0.2164,11.03788 1.9505,22.08095 2.5885,33.11883 38.5764,-18.08322 78.6909,-32.01218 120.4623,-41.14965 17.3333,28.66664 32.6613,58.33608 45.9947,89.00272 32.6666,-4.66666 65.2961,-4.66666 97.9627,0 13.3333,-30.66664 28.6614,-60.33608 45.9947,-89.00272 41.7713,9.13747 81.8859,23.06643 120.4623,41.14965 0.638,-11.03788 2.372,-22.08095 2.5884,-33.11883 -39.3333,-18.66665 -80.3841,-32.67915 -123.0507,-42.012474 -17.3333,28.666634 -32.6614,58.336084 -45.9947,89.002724 -32.6666,-4.66666 -65.2961,-4.66666 -97.9627,0 C 449.6853,135.3368 434.3573,105.66735 417.024,77.000716 Z M 299.482,222.88288 c -30.9295,17.66815 -59.5863,38.16626 -85.4851,62.12271 -26,-17.99998 -53.3008,-33.65693 -81.9675,-46.99025 C 100.0294,270.68197 72.3333,306.6667 49,346 c 3.8287,6.18484 8.3861,11.83275 12.3449,17.92001 20.9605,-32.63971 43.4435,-64.11451 70.6845,-91.92302 28.6667,13.33332 55.9675,28.99027 81.9675,46.99025 26.6666,-24.66664 56.0072,-45.9811 88.0071,-63.98108 -1.4695,-10.70638 -1.4492,-21.41689 -2.522,-32.12328 z m 425.0361,0 c -1.0729,10.70639 -1.0526,21.4169 -2.5221,32.12328 32,17.99998 61.3405,39.31444 88.0072,63.98108 26,-17.99998 53.3008,-33.65693 81.9674,-46.99025 27.241,27.80851 49.7241,59.28331 70.6845,91.92302 C 966.6139,357.83275 971.1713,352.18484 975,346 951.6667,306.6667 923.9706,270.68197 891.9706,238.01534 c -28.6666,13.33332 -55.9674,28.99027 -81.9674,46.99025 -25.8989,-23.95645 -54.5556,-44.45456 -85.4851,-62.12271 z"
             sodipodi:nodetypes="ccccccccccccccccccccccccccccccc" /></g><g
           fill="#414042"
           transform="matrix(0.101,0,0,0.101,12.322,12.322)"
           id="g21248"><circle
             cx="307"
             cy="532"
             r="60"
             id="circle21244" /><circle
             cx="717"
             cy="532"
             r="60"
             id="circle21246" /></g></g><g
         id="g21272"
         transform="matrix(0.43838077,0,0,0.43838077,291.92873,143.81803)"><g
           fill="#ffffff"
           transform="matrix(0.101,0,0,0.101,12.322,12.322)"
           id="g21264"><path
             d="m 105,673 v 33 q 407,354 814,0 v -33 z"
             id="path21254" /><path
             fill="#478cbf"
             d="m 105,673 152,14 q 12,1 15,14 l 4,67 132,10 8,-61 q 2,-11 15,-15 h 162 q 13,4 15,15 l 8,61 132,-10 4,-67 q 3,-13 15,-14 L 919,673 V 427 q 30,-39 56,-81 -35,-59 -83,-108 -43,20 -82,47 -40,-37 -88,-64 7,-51 8,-102 -59,-28 -123,-42 -26,43 -46,89 -49,-7 -98,0 -20,-46 -46,-89 -64,14 -123,42 1,51 8,102 -48,27 -88,64 -39,-27 -82,-47 -48,49 -83,108 26,42 56,81 z m 0,33 v 39 c 0,276 813,276 814,0 v -39 l -134,12 -5,69 q -2,10 -14,13 l -162,11 q -12,0 -16,-11 L 578,735 H 446 l -10,65 q -4,11 -16,11 L 258,800 q -12,-3 -14,-13 l -5,-69 z"
             id="path21256"
             style="fill:url(#linearGradient21274);fill-opacity:1" /><path
             d="m 483,600 c 0,34 58,34 58,0 v -86 c 0,-34 -58,-34 -58,0 z"
             id="path21258" /><circle
             cx="725.00012"
             cy="526"
             r="90"
             id="circle21260" /><circle
             cx="299"
             cy="526"
             r="90"
             id="circle21262" /><path
             id="path4573"
             style="opacity:0.5;fill:#ffffff;fill-opacity:1"
             d="m 416.94008,77.018712 c -42.6667,9.333324 -83.6511,23.328018 -122.9844,41.994668 0.1439,7.33815 1.3901,14.67375 1.7204,22.01191 38.8303,-18.27776 79.1927,-32.21812 121.264,-41.421212 17.3333,28.666642 32.6755,58.351472 46.0088,89.018102 32.6667,-4.66666 65.3503,-4.66666 98.017,0 13.3333,-30.66663 28.6755,-60.35146 46.0088,-89.018102 42.0713,9.203092 82.4337,23.143452 121.264,41.421212 0.3303,-7.33816 1.5765,-14.67376 1.7204,-22.01191 -39.3333,-18.66665 -80.3177,-32.661344 -122.9844,-41.994668 -17.3333,28.666638 -32.6755,58.351468 -46.0088,89.018108 -32.6667,-4.66667 -65.3503,-4.66667 -98.017,0 -13.3333,-30.66664 -28.6755,-60.35147 -46.0088,-89.018108 z M 300.26368,222.23556 c -31.2876,17.78069 -60.1709,38.57676 -86.3273,62.77144 -25.9999,-17.99999 -53.2935,-33.64601 -81.9601,-46.97933 -32.000001,32.66663 -59.685601,68.65299 -83.018901,107.98628 2.5463,4.11324 5.601,7.84018 8.2048,11.91025 21.7989,-34.85148 45.977201,-67.87352 74.814101,-97.31116 28.6666,13.33332 55.9602,28.97934 81.9601,46.97932 26.6667,-24.66664 56.0036,-46.00659 88.0036,-64.00657 -0.977,-7.11777 -0.8746,-14.23247 -1.6763,-21.35023 z m 423.3874,0 c -0.8017,7.11776 -0.6993,14.23246 -1.6763,21.35023 32,17.99998 61.3369,39.33993 88.0036,64.00657 25.9999,-17.99998 53.2935,-33.646 81.9601,-46.97932 28.8369,29.43764 53.0152,62.45968 74.8141,97.31116 2.6038,-4.07007 5.6585,-7.79701 8.2048,-11.91025 -23.3333,-39.33329 -51.0189,-75.31965 -83.0189,-107.98628 -28.6666,13.33332 -55.9602,28.97934 -81.9601,46.97933 -26.1565,-24.19468 -55.0397,-44.99075 -86.3273,-62.77144 z"
             sodipodi:nodetypes="ccccccccccccccccccccccccccccccc" /></g><g
           fill="#414042"
           transform="matrix(0.101,0,0,0.101,12.322,12.322)"
           id="g21270"><circle
             cx="307"
             cy="532"
             r="60"
             id="circle21266" /><circle
             cx="717"
             cy="532"
             r="60"
             id="circle21268" /></g></g><g
         id="g21294"
         transform="matrix(0.63084062,0,0,0.63084062,295.60475,35.445464)"><g
           fill="#ffffff"
           transform="matrix(0.101,0,0,0.101,12.322,12.322)"
           id="g21286"><path
             d="m 105,673 v 33 q 407,354 814,0 v -33 z"
             id="path21276" /><path
             fill="#478cbf"
             d="m 105,673 152,14 q 12,1 15,14 l 4,67 132,10 8,-61 q 2,-11 15,-15 h 162 q 13,4 15,15 l 8,61 132,-10 4,-67 q 3,-13 15,-14 L 919,673 V 427 q 30,-39 56,-81 -35,-59 -83,-108 -43,20 -82,47 -40,-37 -88,-64 7,-51 8,-102 -59,-28 -123,-42 -26,43 -46,89 -49,-7 -98,0 -20,-46 -46,-89 -64,14 -123,42 1,51 8,102 -48,27 -88,64 -39,-27 -82,-47 -48,49 -83,108 26,42 56,81 z m 0,33 v 39 c 0,276 813,276 814,0 v -39 l -134,12 -5,69 q -2,10 -14,13 l -162,11 q -12,0 -16,-11 L 578,735 H 446 l -10,65 q -4,11 -16,11 L 258,800 q -12,-3 -14,-13 l -5,-69 z"
             id="path21278"
             style="fill:url(#linearGradient21296);fill-opacity:1" /><path
             d="m 483,600 c 0,34 58,34 58,0 v -86 c 0,-34 -58,-34 -58,0 z"
             id="path21280" /><circle
             cx="725.00012"
             cy="526"
             r="90"
             id="circle21282" /><circle
             cx="299"
             cy="526"
             r="90"
             id="circle21284" /><path
             id="path4582"
             style="opacity:0.5;fill:#ffffff;fill-opacity:1"
             d="m 416.81995,77.142192 c -42.6666,9.333324 -83.6817,23.329518 -123.015,41.996158 0.1,5.09937 1.0056,10.19705 1.1955,15.29642 38.984,-18.39608 79.5665,-32.35482 121.8195,-41.597663 17.3334,28.666643 32.6786,58.322313 46.0119,88.988943 32.6666,-4.66666 65.3039,-4.66666 97.9706,0 13.3333,-30.66663 28.6785,-60.3223 46.0118,-88.988943 42.253,9.242843 82.8356,23.201583 121.8196,41.597663 0.1899,-5.09937 1.0955,-10.19705 1.1955,-15.29642 -39.3333,-18.66664 -80.3484,-32.662834 -123.0151,-41.996158 -17.3333,28.666638 -32.6785,58.322308 -46.0118,88.988948 -32.6667,-4.66666 -65.304,-4.66666 -97.9706,0 -13.3333,-30.66664 -28.6785,-60.32231 -46.0119,-88.988948 z M 300.64085,221.98296 c -31.5044,17.84808 -60.5005,38.80892 -86.81252,63.14752 -25.99997,-17.99999 -53.33316,-33.65947 -81.9998,-46.99279 -31.999971,32.66664 -59.678081,68.66121 -83.011391,107.99451 1.76875,2.85721 3.90515,5.44023 5.70167,8.27661 22.28498,-36.20505 47.507801,-70.15341 77.309721,-100.5762 28.66664,13.33332 55.99983,28.9928 81.9998,46.99278 26.66672,-24.66664 55.97742,-46.00584 87.97732,-64.00583 -0.6789,-4.94621 -0.5706,-9.89038 -1.1648,-14.8366 z m 422.3526,0 c -0.5942,4.94622 -0.486,9.89039 -1.1649,14.8366 32,17.99999 61.3108,39.33919 87.9774,64.00583 26,-17.99998 53.3332,-33.65946 81.9998,-46.99278 29.8019,30.42279 55.0247,64.37115 77.3097,100.5762 1.7965,-2.83638 3.9329,-5.4194 5.7017,-8.27661 -23.3333,-39.3333 -51.0114,-75.32787 -83.0114,-107.99451 -28.6666,13.33332 -55.9998,28.9928 -81.9998,46.99279 -26.312,-24.3386 -55.3081,-45.29944 -86.8125,-63.14752 z"
             sodipodi:nodetypes="ccccccccccccccccccccccccccccccc" /></g><g
           fill="#414042"
           transform="matrix(0.101,0,0,0.101,12.322,12.322)"
           id="g21292"><circle
             cx="307"
             cy="532"
             r="60"
             id="circle21288" /><circle
             cx="717"
             cy="532"
             r="60"
             id="circle21290" /></g></g><g
         id="g21316"
         transform="matrix(1.849753,0,0,1.849753,25.552916,37.085854)"><g
           fill="#ffffff"
           transform="matrix(0.101,0,0,0.101,12.322,12.322)"
           id="g21308"><path
             d="m 105,673 v 33 q 407,354 814,0 v -33 z"
             id="path21298" /><path
             fill="#478cbf"
             d="m 105,673 152,14 q 12,1 15,14 l 4,67 132,10 8,-61 q 2,-11 15,-15 h 162 q 13,4 15,15 l 8,61 132,-10 4,-67 q 3,-13 15,-14 L 919,673 V 427 q 30,-39 56,-81 -35,-59 -83,-108 -43,20 -82,47 -40,-37 -88,-64 7,-51 8,-102 -59,-28 -123,-42 -26,43 -46,89 -49,-7 -98,0 -20,-46 -46,-89 -64,14 -123,42 1,51 8,102 -48,27 -88,64 -39,-27 -82,-47 -48,49 -83,108 26,42 56,81 z m 0,33 v 39 c 0,276 813,276 814,0 v -39 l -134,12 -5,69 q -2,10 -14,13 l -162,11 q -12,0 -16,-11 L 578,735 H 446 l -10,65 q -4,11 -16,11 L 258,800 q -12,-3 -14,-13 l -5,-69 z"
             id="path21300"
             style="fill:url(#linearGradient21318);fill-opacity:1" /><path
             d="m 483,600 c 0,34 58,34 58,0 v -86 c 0,-34 -58,-34 -58,0 z"
             id="path21302" /><circle
             cx="725.00012"
             cy="526"
             r="90"
             id="circle21304" /><circle
             cx="299"
             cy="526"
             r="90"
             id="circle21306" /><path
             id="path4591"
             style="opacity:0.5;fill:#ffffff;fill-opacity:1"
             d="m 417.00179,77.000432 c -42.66663,9.333324 -83.67199,23.338728 -123.00529,42.005378 0.0339,1.72859 0.36349,3.45674 0.40772,5.18533 39.21131,-18.57191 80.07547,-32.536398 122.59757,-41.838107 17.33331,28.666637 32.66559,58.330817 45.99891,88.997447 32.66664,-4.66666 65.33197,-4.66666 97.9986,0 13.33332,-30.66663 28.6656,-60.33081 45.99892,-88.997447 42.5221,9.301709 83.38625,23.266197 122.59757,41.838107 0.0442,-1.72859 0.37382,-3.45674 0.40771,-5.18533 -39.33329,-18.66665 -80.33866,-32.672054 -123.00528,-42.005378 -17.33332,28.666638 -32.6656,58.330808 -45.99892,88.997448 -32.66663,-4.66666 -65.33196,-4.66666 -97.9986,0 -13.33332,-30.66664 -28.6656,-60.33081 -45.99891,-88.997448 z M 301.60723,221.25931 C 269.76956,239.20986 240.55085,260.43982 214.0002,284.99917 188.00023,266.99919 160.66332,251.34041 131.99668,238.00709 99.99671,270.67373 72.33331,306.66671 49,346 c 0.56607,0.91443 1.26059,1.73265 1.8295,2.64494 22.97711,-38.23551 49.93355,-73.40091 81.16718,-105.28525 28.66664,13.33332 56.00355,28.9921 82.00352,46.99208 26.66664,-24.66664 56.00433,-46.00124 88.00429,-64.00122 -0.23294,-1.69715 -0.17428,-3.3941 -0.39726,-5.09124 z m 420.78554,0 c -0.22297,1.69714 -0.16432,3.39409 -0.39726,5.09124 31.99997,17.99998 61.33765,39.33458 88.00429,64.00122 25.99998,-17.99998 53.33688,-33.65876 82.00352,-46.99208 31.23364,31.88434 58.19008,67.04974 81.16718,105.28525 0.56892,-0.91229 1.26343,-1.73051 1.82951,-2.64494 -23.33332,-39.33329 -50.99672,-75.32627 -82.99669,-107.99291 -28.66664,13.33332 -56.00354,28.9921 -82.00352,46.99208 -26.55064,-24.55935 -55.76935,-45.78931 -87.60703,-63.73986 z"
             sodipodi:nodetypes="ccccccccccccccccccccccccccccccc" /></g><g
           fill="#414042"
           transform="matrix(0.101,0,0,0.101,12.322,12.322)"
           id="g21314"><circle
             cx="307"
             cy="532"
             r="60"
             id="circle21310" /><circle
             cx="717"
             cy="532"
             r="60"
             id="circle21312" /></g></g></g><g
       inkscape:groupmode="layer"
       id="layer5"
       inkscape:label="Highlights"
       style="display:inline"
       sodipodi:insensitive="true"><path
         style="opacity:0.13000004;color:#bebebe;fill:#ffffff;fill-opacity:1;fill-rule:nonzero;stroke:none;stroke-width:0;marker:none;visibility:visible;display:inline;overflow:visible;enable-background:accumulate"
         d="M 84,47 C 56.836703,47 35,68.836703 35,96 l 0,1 C 35,69.836703 56.836703,48 84,48 l 120,0 c 27.1633,0 49,21.836703 49,49 l 0,-1 C 253,68.836703 231.1633,47 204,47 L 84,47 z"
         id="rect3894"
         inkscape:connector-curvature="0" /><path
         style="opacity:0.13000004;color:#bebebe;fill:#ffffff;fill-opacity:1;fill-rule:nonzero;stroke:none;stroke-width:0;marker:none;visibility:visible;display:inline;overflow:visible;enable-background:accumulate"
         d="m 419,141 c -1.1253,0 -2,0.8747 -2,2 l 0,1 c 0,-1.1253 0.8747,-2 2,-2 l 10,0 c 1.1253,0 2,0.8747 2,2 l 0,-1 c 0,-1.1253 -0.8747,-2 -2,-2 l -10,0 z"
         id="rect3896"
         inkscape:connector-curvature="0" /><path
         style="opacity:0.13000004;color:#bebebe;fill:#ffffff;fill-opacity:1;fill-rule:nonzero;stroke:none;stroke-width:0;marker:none;visibility:visible;display:inline;overflow:visible;enable-background:accumulate"
         d="m 422,102 c -2.2333,0 -4,1.7667 -4,4 l 0,1 c 0,-2.2333 1.7667,-4 4,-4 l 12,0 c 2.2333,0 4,1.7667 4,4 l 0,-1 c 0,-2.2333 -1.7667,-4 -4,-4 l -12,0 z"
         id="rect3898"
         inkscape:connector-curvature="0" /><path
         style="opacity:0.13000004;color:#bebebe;fill:#ffffff;fill-opacity:1;fill-rule:nonzero;stroke:none;stroke-width:0;marker:none;visibility:visible;display:inline;overflow:visible;enable-background:accumulate"
         d="m 424,54 c -3.3413,0 -6,2.658703 -6,6 l 0,1 c 0,-3.341297 2.6587,-6 6,-6 l 16,0 c 3.3413,0 6,2.658703 6,6 l 0,-1 c 0,-3.341297 -2.6587,-6 -6,-6 l -16,0 z"
         id="rect3900"
         inkscape:connector-curvature="0" /><path
         style="opacity:0.13000004;color:#bebebe;fill:#ffffff;fill-opacity:1;fill-rule:nonzero;stroke:none;stroke-width:0;marker:none;visibility:visible;display:inline;overflow:visible;enable-background:accumulate"
         d="m 300,224 c -4.4493,0 -8,3.5507 -8,8 l 0,1 c 0,-4.4493 3.5507,-8 8,-8 l 24,0 c 4.4493,0 8,3.5507 8,8 l 0,-1 c 0,-4.4493 -3.5507,-8 -8,-8 l -24,0 z"
         id="rect3902"
         inkscape:connector-curvature="0" /><path
         style="opacity:0.13000004;color:#bebebe;fill:#ffffff;fill-opacity:1;fill-rule:nonzero;stroke:none;stroke-width:0;marker:none;visibility:visible;display:inline;overflow:visible;enable-background:accumulate"
         d="m 310,33 c -9.4353,0 -17,7.564703 -17,17 l 0,1 c 0,-9.435297 7.5647,-17 17,-17 l 52,0 c 9.4353,0 17,7.564703 17,17 l 0,-1 c 0,-9.435297 -7.5647,-17 -17,-17 l -52,0 z"
         id="rect3904"
         inkscape:connector-curvature="0" /><path
         style="opacity:0.13000004;color:#bebebe;fill:#ffffff;fill-opacity:1;fill-rule:nonzero;stroke:none;stroke-width:0;marker:none;visibility:visible;display:inline;overflow:visible;enable-background:accumulate"
         d="m 302.5,143 c -6.3883,0 -11.5,5.1117 -11.5,11.5 l 0,1 c 0,-6.3883 5.1117,-11.5 11.5,-11.5 l 35,0 c 6.3883,0 11.5,5.1117 11.5,11.5 l 0,-1 c 0,-6.3883 -5.1117,-11.5 -11.5,-11.5 l -35,0 z"
         id="rect3906"
         inkscape:connector-curvature="0" /><path
         id="path4085"
         d="m 204,266 c 27.1633,0 49,-21.8367 49,-49 l 0,-1 c 0,27.1633 -21.8367,49 -49,49 L 84,265 C 56.8367,265 35,243.1633 35,216 l 0,1 c 0,27.1633 21.8367,49 49,49 l 120,0 z"
         style="opacity:0.41;color:#bebebe;fill:#000000;fill-opacity:1;fill-rule:nonzero;stroke:none;stroke-width:0;marker:none;visibility:visible;display:inline;overflow:visible;enable-background:accumulate"
         inkscape:connector-curvature="0" /><path
         id="path4087"
         d="m 429,156 c 1.1253,0 2,-0.8747 2,-2 l 0,-1 c 0,1.1253 -0.8747,2 -2,2 l -10,0 c -1.1253,0 -2,-0.8747 -2,-2 l 0,1 c 0,1.1253 0.8747,2 2,2 l 10,0 z"
         style="opacity:0.3;color:#bebebe;fill:#000000;fill-opacity:1;fill-rule:nonzero;stroke:none;stroke-width:0;marker:none;visibility:visible;display:inline;overflow:visible;enable-background:accumulate"
         inkscape:connector-curvature="0" /><path
         id="path4089"
         d="m 434,123 c 2.2333,0 4,-1.7667 4,-4 l 0,-1 c 0,2.2333 -1.7667,4 -4,4 l -12,0 c -2.2333,0 -4,-1.7667 -4,-4 l 0,1 c 0,2.2333 1.7667,4 4,4 l 12,0 z"
         style="opacity:0.3;color:#bebebe;fill:#000000;fill-opacity:1;fill-rule:nonzero;stroke:none;stroke-width:0;marker:none;visibility:visible;display:inline;overflow:visible;enable-background:accumulate"
         inkscape:connector-curvature="0" /><path
         id="path4091"
         d="m 440,83 c 3.3413,0 6,-2.6587 6,-6 l 0,-1 c 0,3.3413 -2.6587,6 -6,6 l -16,0 c -3.3413,0 -6,-2.6587 -6,-6 l 0,1 c 0,3.3413 2.6587,6 6,6 l 16,0 z"
         style="opacity:0.41;color:#bebebe;fill:#000000;fill-opacity:1;fill-rule:nonzero;stroke:none;stroke-width:0;marker:none;visibility:visible;display:inline;overflow:visible;enable-background:accumulate"
         inkscape:connector-curvature="0" /><path
         id="path4093"
         d="m 324,265 c 4.4493,0 8,-3.5507 8,-8 l 0,-1 c 0,4.4493 -3.5507,8 -8,8 l -24,0 c -4.4493,0 -8,-3.5507 -8,-8 l 0,1 c 0,4.4493 3.5507,8 8,8 l 24,0 z"
         style="opacity:0.41;color:#bebebe;fill:#000000;fill-opacity:1;fill-rule:nonzero;stroke:none;stroke-width:0;marker:none;visibility:visible;display:inline;overflow:visible;enable-background:accumulate"
         inkscape:connector-curvature="0" /><path
         id="path4095"
         d="m 362,120 c 9.4353,0 17,-7.5647 17,-17 l 0,-1 c 0,9.4353 -7.5647,17 -17,17 l -52,0 c -9.4353,0 -17,-7.5647 -17,-17 l 0,1 c 0,9.4353 7.5647,17 17,17 l 52,0 z"
         style="opacity:0.41;color:#bebebe;fill:#000000;fill-opacity:1;fill-rule:nonzero;stroke:none;stroke-width:0;marker:none;visibility:visible;display:inline;overflow:visible;enable-background:accumulate"
         inkscape:connector-curvature="0" /><path
         id="path4097"
         d="m 337.5,202 c 6.3883,0 11.5,-5.1117 11.5,-11.5 l 0,-1 c 0,6.3883 -5.1117,11.5 -11.5,11.5 l -35,0 c -6.3883,0 -11.5,-5.1117 -11.5,-11.5 l 0,1 c 0,6.3883 5.1117,11.5 11.5,11.5 l 35,0 z"
         style="opacity:0.41;color:#bebebe;fill:#000000;fill-opacity:1;fill-rule:nonzero;stroke:none;stroke-width:0;marker:none;visibility:visible;display:inline;overflow:visible;enable-background:accumulate"
         inkscape:connector-curvature="0" /><path
         inkscape:connector-curvature="0"
         id="path4280"
         d="M 84,265 C 56.836703,265 35,243.1633 35,216 l 0,-1 c 0,27.1633 21.836703,49 49,49 l 120,0 c 27.1633,0 49,-21.8367 49,-49 l 0,1 c 0,27.1633 -21.8367,49 -49,49 l -120,0 z"
         style="opacity:0.1;color:#bebebe;fill:#ffffff;fill-opacity:1;fill-rule:nonzero;stroke:none;stroke-width:0;marker:none;visibility:visible;display:inline;overflow:visible;enable-background:accumulate" /><path
         style="opacity:0.1;color:#bebebe;fill:#ffffff;fill-opacity:1;fill-rule:nonzero;stroke:none;stroke-width:0;marker:none;visibility:visible;display:inline;overflow:visible;enable-background:accumulate"
         d="m 300,264 c -4.4493,0 -8,-3.5507 -8,-8 l 0,-1 c 0,4.4493 3.5507,8 8,8 l 24,0 c 4.4493,0 8,-3.5507 8,-8 l 0,1 c 0,4.4493 -3.5507,8 -8,8 l -24,0 z"
         id="path4294"
         inkscape:connector-curvature="0" /><path
         style="opacity:0.1;color:#bebebe;fill:#ffffff;fill-opacity:1;fill-rule:nonzero;stroke:none;stroke-width:0;marker:none;visibility:visible;display:inline;overflow:visible;enable-background:accumulate"
         d="m 302.5,201 c -6.3883,0 -11.5,-5.1117 -11.5,-11.5 l 0,-1 c 0,6.3883 5.1117,11.5 11.5,11.5 l 35,0 c 6.3883,0 11.5,-5.1117 11.5,-11.5 l 0,1 c 0,6.3883 -5.1117,11.5 -11.5,11.5 l -35,0 z"
         id="path4296"
         inkscape:connector-curvature="0" /><path
         style="opacity:0.1;color:#bebebe;fill:#ffffff;fill-opacity:1;fill-rule:nonzero;stroke:none;stroke-width:0;marker:none;visibility:visible;display:inline;overflow:visible;enable-background:accumulate"
         d="m 310,119 c -9.4353,0 -17,-7.5647 -17,-17 l 0,-1 c 0,9.4353 7.5647,17 17,17 l 52,0 c 9.4353,0 17,-7.5647 17,-17 l 0,1 c 0,9.4353 -7.5647,17 -17,17 l -52,0 z"
         id="path4298"
         inkscape:connector-curvature="0" /><path
         style="opacity:0.1;color:#bebebe;fill:#ffffff;fill-opacity:1;fill-rule:nonzero;stroke:none;stroke-width:0;marker:none;visibility:visible;display:inline;overflow:visible;enable-background:accumulate"
         d="m 424,82 c -3.3413,0 -6,-2.658703 -6,-6 l 0,-1 c 0,3.341297 2.6587,6 6,6 l 16,0 c 3.3413,0 6,-2.658703 6,-6 l 0,1 c 0,3.341297 -2.6587,6 -6,6 l -16,0 z"
         id="path4300"
         inkscape:connector-curvature="0" /><path
         style="opacity:0.1;color:#bebebe;fill:#ffffff;fill-opacity:1;fill-rule:nonzero;stroke:none;stroke-width:0;marker:none;visibility:visible;display:inline;overflow:visible;enable-background:accumulate"
         d="m 422,122 c -2.2333,0 -4,-1.7667 -4,-4 l 0,-1 c 0,2.2333 1.7667,4 4,4 l 12,0 c 2.2333,0 4,-1.7667 4,-4 l 0,1 c 0,2.2333 -1.7667,4 -4,4 l -12,0 z"
         id="path4302"
         inkscape:connector-curvature="0" /><path
         style="opacity:0.1;color:#bebebe;fill:#ffffff;fill-opacity:1;fill-rule:nonzero;stroke:none;stroke-width:0;marker:none;visibility:visible;display:inline;overflow:visible;enable-background:accumulate"
         d="m 419,154.5 c -1.1253,0 -2,-0.8747 -2,-2 l 0,-1 c 0,1.1253 0.8747,2 2,2 l 10,0 c 1.1253,0 2,-0.8747 2,-2 l 0,1 c 0,1.1253 -0.8747,2 -2,2 l -10,0 z"
         id="path4304"
         inkscape:connector-curvature="0" /></g><g
       inkscape:groupmode="layer"
       id="layer3"
       inkscape:label="Border"
       style="display:inline"
       sodipodi:insensitive="true"><path
         style="opacity:0.41;color:#bebebe;fill:#000000;fill-opacity:1;fill-rule:nonzero;stroke:none;stroke-width:0;marker:none;visibility:visible;display:inline;overflow:visible;enable-background:accumulate"
         d="m 422,101 c -2.77,0 -5,2.23 -5,5 l 0,12 c 0,2.77 2.23,5 5,5 l 12,0 c 2.77,0 5,-2.23 5,-5 l 0,-12 c 0,-2.77 -2.23,-5 -5,-5 l -12,0 z m 0,1 12,0 c 2.2333,0 4,1.7667 4,4 l 0,12 c 0,2.2333 -1.7667,4 -4,4 l -12,0 c -2.2333,0 -4,-1.7667 -4,-4 l 0,-12 c 0,-2.2333 1.7667,-4 4,-4 z"
         id="rect4099"
         inkscape:connector-curvature="0" /><path
         style="opacity:0.41;color:#bebebe;fill:#000000;fill-opacity:1;fill-rule:nonzero;stroke:none;stroke-width:0;marker:none;visibility:visible;display:inline;overflow:visible;enable-background:accumulate"
         d="m 424,53 c -3.878,0 -7,3.122 -7,7 l 0,16 c 0,3.878 3.122,7 7,7 l 16,0 c 3.878,0 7,-3.122 7,-7 l 0,-16 c 0,-3.878 -3.122,-7 -7,-7 l -16,0 z m 0,1 16,0 c 3.3413,0 6,2.658703 6,6 l 0,16 c 0,3.341297 -2.6587,6 -6,6 l -16,0 c -3.3413,0 -6,-2.658703 -6,-6 l 0,-16 c 0,-3.341297 2.6587,-6 6,-6 z"
         id="rect4151"
         inkscape:connector-curvature="0" /><path
         style="opacity:0.41;color:#bebebe;fill:#000000;fill-opacity:1;fill-rule:nonzero;stroke:none;stroke-width:0;marker:none;visibility:visible;display:inline;overflow:visible;enable-background:accumulate"
         d="m 419,140 c -1.662,0 -3,1.338 -3,3 l 0,10 c 0,1.662 1.338,3 3,3 l 10,0 c 1.662,0 3,-1.338 3,-3 l 0,-10 c 0,-1.662 -1.338,-3 -3,-3 l -10,0 z m 0,1 10,0 c 1.1253,0 2,0.8747 2,2 l 0,10 c 0,1.1253 -0.8747,2 -2,2 l -10,0 c -1.1253,0 -2,-0.8747 -2,-2 l 0,-10 c 0,-1.1253 0.8747,-2 2,-2 z"
         id="rect4095"
         inkscape:connector-curvature="0" /><path
         style="opacity:0.41;color:#bebebe;fill:#000000;fill-opacity:1;fill-rule:nonzero;stroke:none;stroke-width:0;marker:none;visibility:visible;display:inline;overflow:visible;enable-background:accumulate"
         d="m 300,223 c -4.986,0 -9,4.014 -9,9 l 0,24 c 0,4.986 4.014,9 9,9 l 24,0 c 4.986,0 9,-4.014 9,-9 l 0,-24 c 0,-4.986 -4.014,-9 -9,-9 l -24,0 z m 0,1 24,0 c 4.4493,0 8,3.5507 8,8 l 0,24 c 0,4.4493 -3.5507,8 -8,8 l -24,0 c -4.4493,0 -8,-3.5507 -8,-8 l 0,-24 c 0,-4.4493 3.5507,-8 8,-8 z"
         id="rect4783"
         inkscape:connector-curvature="0" /><path
         style="opacity:0.41;color:#bebebe;fill:#000000;fill-opacity:1;fill-rule:nonzero;stroke:none;stroke-width:0;marker:none;visibility:visible;display:inline;overflow:visible;enable-background:accumulate"
         d="m 302.5,142 c -6.925,0 -12.5,5.575 -12.5,12.5 l 0,35 c 0,6.925 5.575,12.5 12.5,12.5 l 35,0 c 6.925,0 12.5,-5.575 12.5,-12.5 l 0,-35 c 0,-6.925 -5.575,-12.5 -12.5,-12.5 l -35,0 z m 0,1 35,0 c 6.3883,0 11.5,5.1117 11.5,11.5 l 0,35 c 0,6.3883 -5.1117,11.5 -11.5,11.5 l -35,0 c -6.3883,0 -11.5,-5.1117 -11.5,-11.5 l 0,-35 c 0,-6.3883 5.1117,-11.5 11.5,-11.5 z"
         id="rect4515"
         inkscape:connector-curvature="0" /><path
         style="opacity:0.41;color:#bebebe;fill:#000000;fill-opacity:1;fill-rule:nonzero;stroke:none;stroke-width:0;marker:none;visibility:visible;display:inline;overflow:visible;enable-background:accumulate"
         d="m 310,32 c -9.972,0 -18,8.028 -18,18 l 0,52 c 0,9.972 8.028,18 18,18 l 52,0 c 9.972,0 18,-8.028 18,-18 l 0,-52 c 0,-9.972 -8.028,-18 -18,-18 l -52,0 z m 0,1 52,0 c 9.4353,0 17,7.564703 17,17 l 0,52 c 0,9.4353 -7.5647,17 -17,17 l -52,0 c -9.4353,0 -17,-7.5647 -17,-17 l 0,-52 c 0,-9.435297 7.5647,-17 17,-17 z"
         id="rect4511"
         inkscape:connector-curvature="0" /><path
         style="opacity:0.41;color:#bebebe;fill:#000000;fill-opacity:1;fill-rule:nonzero;stroke:none;stroke-width:0;marker:none;visibility:visible;display:inline;overflow:visible;enable-background:accumulate"
         d="M 84,46 C 56.3,46 34,68.3 34,96 l 0,120 c 0,27.7 22.3,50 50,50 l 120,0 c 27.7,0 50,-22.3 50,-50 L 254,96 C 254,68.3 231.7,46 204,46 L 84,46 z m 0,1 120,0 c 27.1633,0 49,21.836703 49,49 l 0,120 c 0,27.1633 -21.8367,49 -49,49 L 84,265 C 56.836703,265 35,243.1633 35,216 L 35,96 C 35,68.836703 56.836703,47 84,47 z"
         id="rect4040"
         inkscape:connector-curvature="0" /></g></g></svg>
