<?xml version="1.0" encoding="UTF-8" standalone="no"?>
<!-- Created with Inkscape (http://www.inkscape.org/) -->

<svg
   inkscape:export-ydpi="90.000000"
   inkscape:export-xdpi="90.000000"
   width="480"
   height="300"
   id="svg11300"
   sodipodi:version="0.32"
   inkscape:version="1.1.2 (0a00cf5339, 2022-02-04)"
   sodipodi:docname="gog.svg"
   inkscape:output_extension="org.inkscape.output.svg.inkscape"
   version="1.0"
   style="display:inline;enable-background:new"
   inkscape:export-filename="/home/sam/moka-next-template.png"
   xmlns:inkscape="http://www.inkscape.org/namespaces/inkscape"
   xmlns:sodipodi="http://sodipodi.sourceforge.net/DTD/sodipodi-0.dtd"
   xmlns:xlink="http://www.w3.org/1999/xlink"
   xmlns="http://www.w3.org/2000/svg"
   xmlns:svg="http://www.w3.org/2000/svg"
   xmlns:rdf="http://www.w3.org/1999/02/22-rdf-syntax-ns#"
   xmlns:cc="http://creativecommons.org/ns#"
   xmlns:dc="http://purl.org/dc/elements/1.1/">
  <sodipodi:namedview
     stroke="#ef2929"
     fill="#f57900"
     id="base"
     pagecolor="#ffffff"
     bordercolor="#000000"
     borderopacity="0.54509804"
     inkscape:pageopacity="0"
     inkscape:pageshadow="2"
     inkscape:zoom="2.0000002"
     inkscape:cx="343.99997"
     inkscape:cy="167.74998"
     inkscape:current-layer="layer2"
     showgrid="false"
     inkscape:grid-bbox="true"
     inkscape:document-units="px"
     inkscape:showpageshadow="false"
     inkscape:window-width="1920"
     inkscape:window-height="1048"
     inkscape:window-x="0"
     inkscape:window-y="0"
     width="400px"
     height="300px"
     inkscape:snap-nodes="true"
     inkscape:snap-bbox="true"
     gridtolerance="10000"
     inkscape:object-nodes="true"
     inkscape:snap-grids="true"
     showguides="true"
     inkscape:guide-bbox="true"
     inkscape:window-maximized="1"
     inkscape:bbox-nodes="true"
     inkscape:bbox-paths="true"
     inkscape:snap-bbox-edge-midpoints="true"
     inkscape:snap-bbox-midpoints="true"
     inkscape:pagecheckerboard="0">
    <inkscape:grid
       spacingy="1"
       spacingx="1"
       id="grid5883"
       type="xygrid"
       enabled="true"
       visible="true"
       empspacing="4"
       snapvisiblegridlinesonly="true"
       dotted="false"
       color="#000000"
       opacity="0.1254902"
       empcolor="#203ef3"
       empopacity="0.36470588"
       originx="0"
       originy="0" />
    <inkscape:grid
       type="xygrid"
       id="grid11592"
       empspacing="8"
       visible="true"
       enabled="false"
       spacingx="0.5"
       spacingy="0.5"
       color="#ff0000"
       opacity="0.1254902"
       empcolor="#ff0000"
       empopacity="0.25098039"
       snapvisiblegridlinesonly="true"
       dotted="true"
       originx="0"
       originy="0" />
  </sodipodi:namedview>
  <defs
     id="defs3">
    <linearGradient
       inkscape:collect="always"
       id="linearGradient1349">
      <stop
         style="stop-color:#7117cd;stop-opacity:1;"
         offset="0"
         id="stop1345" />
      <stop
         style="stop-color:#7117cd;stop-opacity:0;"
         offset="1"
         id="stop1347" />
    </linearGradient>
    <linearGradient
       id="linearGradient905">
      <stop
         style="stop-color:#ff7139;stop-opacity:1"
         offset="0"
         id="stop901" />
      <stop
         style="stop-color:#ff7139;stop-opacity:1"
         offset="1"
         id="stop903" />
    </linearGradient>
    <linearGradient
       id="linearGradient3984">
      <stop
         id="stop3986"
         offset="0"
         style="stop-color:#f57d33;stop-opacity:1" />
      <stop
         id="stop3988"
         offset="1"
         style="stop-color:#faa653;stop-opacity:1;" />
    </linearGradient>
    <linearGradient
       inkscape:collect="always"
       xlink:href="#linearGradient1349"
       id="linearGradient1351"
       x1="416.5"
       y1="148"
       x2="428"
       y2="148"
       gradientUnits="userSpaceOnUse"
       gradientTransform="rotate(-90,424,148)" />
    <linearGradient
       inkscape:collect="always"
       xlink:href="#linearGradient1349"
       id="linearGradient1353"
       x1="417.5"
       y1="112"
       x2="433"
       y2="112"
       gradientUnits="userSpaceOnUse"
       gradientTransform="rotate(-90,428,112)" />
    <linearGradient
       inkscape:collect="always"
       xlink:href="#linearGradient1349"
       id="linearGradient1355"
       x1="291.5"
       y1="244"
       x2="323"
       y2="244"
       gradientUnits="userSpaceOnUse"
       gradientTransform="rotate(-90,312,244)" />
    <linearGradient
       inkscape:collect="always"
       xlink:href="#linearGradient1349"
       id="linearGradient1357"
       x1="290.5"
       y1="172"
       x2="336.5"
       y2="172"
       gradientUnits="userSpaceOnUse"
       gradientTransform="rotate(-90,320,172)" />
    <linearGradient
       inkscape:collect="always"
       xlink:href="#linearGradient1349"
       id="linearGradient1359"
       x1="292.5"
       y1="76"
       x2="361"
       y2="76"
       gradientUnits="userSpaceOnUse"
       gradientTransform="rotate(-90,336,76)" />
    <linearGradient
       inkscape:collect="always"
       xlink:href="#linearGradient1349"
       id="linearGradient1361"
       x1="417.5"
       y1="68"
       x2="439"
       y2="68"
       gradientUnits="userSpaceOnUse"
       gradientTransform="rotate(-90,432,68)" />
    <linearGradient
       inkscape:collect="always"
       xlink:href="#linearGradient1349"
       id="linearGradient1363"
       x1="34.5"
       y1="156"
       x2="203"
       y2="156"
       gradientUnits="userSpaceOnUse"
       gradientTransform="rotate(-90,144,156)" />
  </defs>
  <metadata
     id="metadata4">
    <rdf:RDF>
      <cc:Work
         rdf:about="">
        <dc:format>image/svg+xml</dc:format>
        <dc:type
           rdf:resource="http://purl.org/dc/dcmitype/StillImage" />
        <dc:creator>
          <cc:Agent>
            <dc:title>Sam Hewitt</dc:title>
          </cc:Agent>
        </dc:creator>
        <dc:source />
        <cc:license
           rdf:resource="" />
        <dc:title />
        <dc:subject>
          <rdf:Bag />
        </dc:subject>
        <dc:date />
        <dc:rights>
          <cc:Agent>
            <dc:title />
          </cc:Agent>
        </dc:rights>
        <dc:publisher>
          <cc:Agent>
            <dc:title />
          </cc:Agent>
        </dc:publisher>
        <dc:identifier />
        <dc:relation />
        <dc:language />
        <dc:coverage />
        <dc:description />
        <dc:contributor>
          <cc:Agent>
            <dc:title />
          </cc:Agent>
        </dc:contributor>
      </cc:Work>
      <cc:Work
         rdf:about="">
        <dc:format>image/svg+xml</dc:format>
        <dc:type
           rdf:resource="http://purl.org/dc/dcmitype/StillImage" />
      </cc:Work>
    </rdf:RDF>
  </metadata>
  <g
     style="display:inline"
     inkscape:groupmode="layer"
     inkscape:label="Icon"
     id="layer1">
    <g
       style="display:none"
       inkscape:label="Baseplate"
       id="layer7"
       inkscape:groupmode="layer">
      <text
         y="19.745117"
         xml:space="preserve"
         x="15.006836"
         style="font-style:normal;font-variant:normal;font-weight:normal;font-stretch:normal;line-height:0%;font-family:'DejaVu Sans';-inkscape-font-specification:'DejaVu Sans';display:inline;fill:#000000;fill-opacity:1;stroke:none;enable-background:new"
         inkscape:label="context"
         id="context"><tspan
           style="font-style:normal;font-variant:normal;font-weight:normal;font-stretch:normal;font-size:18px;line-height:1.25;font-family:'DejaVu Sans';-inkscape-font-specification:'DejaVu Sans'"
           y="19.745117"
           x="15.006836"
           sodipodi:role="line"
           id="tspan3933">apps</tspan></text>
      <text
         y="19.745117"
         xml:space="preserve"
         x="122.48828"
         style="font-style:normal;font-variant:normal;font-weight:bold;font-stretch:normal;line-height:0%;font-family:'DejaVu Sans';-inkscape-font-specification:'DejaVu Sans Bold';text-align:start;writing-mode:lr-tb;text-anchor:start;display:inline;fill:#000000;fill-opacity:1;stroke:none;enable-background:new"
         inkscape:label="icon-name"
         id="icon-name"><tspan
           style="font-style:normal;font-variant:normal;font-weight:bold;font-stretch:normal;font-size:18px;line-height:1.25;font-family:'DejaVu Sans';-inkscape-font-specification:'DejaVu Sans Bold'"
           y="19.745117"
           x="122.48828"
           sodipodi:role="line"
           id="tspan3937">gog</tspan><tspan
           style="font-style:normal;font-variant:normal;font-weight:bold;font-stretch:normal;font-size:18px;line-height:1.25;font-family:'DejaVu Sans';-inkscape-font-specification:'DejaVu Sans Bold'"
           y="29.436523"
           x="122.48828"
           sodipodi:role="line"
           id="tspan2421" /></text>
      <rect
         style="display:inline;overflow:visible;visibility:visible;fill:#eeeeec;fill-opacity:1;fill-rule:nonzero;stroke:none;stroke-width:2;marker:none;enable-background:accumulate"
         id="rect16x16"
         width="16"
         height="16"
         x="416"
         y="140"
         inkscape:label="16x16" />
      <rect
         style="display:inline;overflow:visible;visibility:visible;fill:#d4d4d4;fill-opacity:1;fill-rule:nonzero;stroke:none;stroke-width:2;marker:none;enable-background:accumulate"
         id="rect24x24"
         width="24"
         height="24"
         x="416"
         y="100"
         inkscape:label="24x24" />
      <rect
         style="display:inline;overflow:visible;visibility:visible;fill:#eeeeec;fill-opacity:1;fill-rule:nonzero;stroke:none;stroke-width:2;marker:none;enable-background:accumulate"
         id="rect32x32"
         width="32"
         height="32"
         x="416"
         y="52"
         inkscape:label="32x32" />
      <rect
         inkscape:label="22x22"
         y="101"
         x="417"
         height="22"
         width="22"
         id="rect22x22"
         style="display:inline;overflow:visible;visibility:visible;fill:#eeeeec;fill-opacity:1;fill-rule:nonzero;stroke:none;stroke-width:2;marker:none;enable-background:accumulate" />
      <rect
         inkscape:label="48x48"
         y="220"
         x="288"
         height="48"
         width="48"
         id="rect48x48"
         style="display:inline;overflow:visible;visibility:visible;fill:#eeeeec;fill-opacity:1;fill-rule:nonzero;stroke:none;stroke-width:2;marker:none;enable-background:accumulate" />
      <rect
         style="display:inline;overflow:visible;visibility:visible;fill:#eeeeec;fill-opacity:1;fill-rule:nonzero;stroke:none;stroke-width:2;marker:none;enable-background:accumulate"
         id="rect256x256"
         width="256"
         height="256"
         x="16"
         y="28"
         inkscape:label="256x256" />
      <rect
         style="display:inline;overflow:visible;visibility:visible;fill:#eeeeec;fill-opacity:1;fill-rule:nonzero;stroke:none;stroke-width:2;marker:none;enable-background:accumulate"
         id="rect64x64"
         width="64"
         height="64"
         x="288"
         y="140"
         inkscape:label="64x64" />
      <rect
         style="display:inline;overflow:visible;visibility:visible;fill:#eeeeec;fill-opacity:1;fill-rule:nonzero;stroke:none;stroke-width:2;marker:none;enable-background:accumulate"
         id="rect96x96"
         width="96"
         height="96"
         x="288"
         y="28"
         inkscape:label="96x96" />
    </g>
    <g
       inkscape:groupmode="layer"
       id="layer4"
       inkscape:label="Shadow"
       style="display:inline"
       sodipodi:insensitive="true">
      <rect
         ry="50"
         y="47"
         x="34"
         height="220"
         width="220"
         id="rect4114"
         style="color:#bebebe;display:inline;overflow:visible;visibility:visible;opacity:0.1;fill:#000000;fill-opacity:1;fill-rule:nonzero;stroke:none;stroke-width:0;marker:none;enable-background:accumulate" />
      <rect
         style="color:#bebebe;display:inline;overflow:visible;visibility:visible;opacity:0.1;fill:#000000;fill-opacity:1;fill-rule:nonzero;stroke:none;stroke-width:0;marker:none;enable-background:accumulate"
         id="rect4120"
         width="30"
         height="30"
         x="417"
         y="54"
         ry="7" />
      <rect
         transform="scale(1,-1)"
         ry="9"
         y="-266"
         x="291"
         height="42"
         width="42"
         id="rect4122"
         style="color:#bebebe;display:inline;overflow:visible;visibility:visible;opacity:0.1;fill:#000000;fill-opacity:1;fill-rule:nonzero;stroke:none;stroke-width:0;marker:none;enable-background:accumulate" />
      <rect
         style="color:#bebebe;display:inline;overflow:visible;visibility:visible;opacity:0.1;fill:#000000;fill-opacity:1;fill-rule:nonzero;stroke:none;stroke-width:0;marker:none;enable-background:accumulate"
         id="rect4124"
         width="88"
         height="88"
         x="292"
         y="33"
         ry="18" />
      <rect
         ry="12.5"
         y="143"
         x="290"
         height="60"
         width="60"
         id="rect4126"
         style="color:#bebebe;display:inline;overflow:visible;visibility:visible;opacity:0.1;fill:#000000;fill-opacity:1;fill-rule:nonzero;stroke:none;stroke-width:0;marker:none;enable-background:accumulate" />
      <path
         id="path4268"
         d="m 422,101 c -2.77,0 -5,2.23 -5,5 v 12 c 0,2.77 2.23,5 5,5 h 12 c 2.77,0 5,-2.23 5,-5 v -12 c 0,-2.77 -2.23,-5 -5,-5 z"
         style="color:#bebebe;display:inline;overflow:visible;visibility:visible;opacity:0.1;fill:#000000;fill-opacity:1;fill-rule:nonzero;stroke:none;stroke-width:0;marker:none;enable-background:accumulate"
         inkscape:connector-curvature="0"
         sodipodi:nodetypes="sssssssss" />
      <path
         id="path4270"
         d="m 419,140 c -1.662,0 -3,1.338 -3,3 v 10 c 0,1.662 1.338,3 3,3 h 10 c 1.662,0 3,-1.338 3,-3 v -10 c 0,-1.662 -1.338,-3 -3,-3 z"
         style="color:#bebebe;display:inline;overflow:visible;visibility:visible;opacity:0.1;fill:#000000;fill-opacity:1;fill-rule:nonzero;stroke:none;stroke-width:0;marker:none;enable-background:accumulate"
         inkscape:connector-curvature="0"
         sodipodi:nodetypes="sssssssss" />
    </g>
    <g
       inkscape:groupmode="layer"
       id="layer2"
       inkscape:label="Background"
       style="display:inline">
      <g
         id="g1071">
        <g
           id="g1936">
          <g
             id="g1251">
            <g
               id="g4368">
              <path
                 style="color:#bebebe;display:inline;overflow:visible;visibility:visible;fill:#1f1c24;fill-opacity:1;fill-rule:nonzero;stroke:none;stroke-width:2;marker:none;enable-background:accumulate"
                 d="M 84,46.5 C 56.568735,46.5 34.5,68.568732 34.5,96 v 120 c 0,27.43127 22.068735,49.5 49.5,49.5 h 120 c 27.43127,0 49.5,-22.06873 49.5,-49.5 V 96 C 253.5,68.568732 231.43127,46.5 204,46.5 Z"
                 id="path4200" />
              <rect
                 style="fill:#ff2a7f;fill-opacity:1;stroke-width:0.619091"
                 id="rect1061"
                 width="127.27922"
                 height="127.27922"
                 x="-275.77164"
                 y="-72.124893"
                 transform="rotate(-135)" />
              <path
                 id="rect1247"
                 style="fill:#1f1c24;fill-opacity:1;stroke-width:0.481516"
                 d="m 143.99978,85.999572 -50,49.999998 h 100 z m -70,69.999998 70,70 70,-70 z" />
            </g>
            <path
               style="color:#bebebe;display:inline;overflow:visible;visibility:visible;fill:#c02bf9;fill-opacity:1;fill-rule:nonzero;stroke:none;stroke-width:2;marker:none;enable-background:accumulate"
               d="M 84,46.5 C 56.568735,46.5 34.5,68.568732 34.5,96 v 120 c 0,27.43127 22.068735,49.5 49.5,49.5 h 120 c 27.43127,0 49.5,-22.06873 49.5,-49.5 V 96 C 253.5,68.568732 231.43127,46.5 204,46.5 Z"
               id="path4370" />
            <path
               style="color:#bebebe;display:inline;overflow:visible;visibility:visible;fill:url(#linearGradient1363);fill-opacity:1;fill-rule:nonzero;stroke:none;stroke-width:2;marker:none;enable-background:accumulate"
               d="m 34.5,216 c 0,27.43126 22.06873,49.5 49.5,49.5 h 120 c 27.43127,0 49.5,-22.06874 49.5,-49.5 V 96 C 253.5,68.56873 231.43127,46.5 204,46.5 H 84 C 56.56873,46.5 34.5,68.56873 34.5,96 Z"
               id="path1313" />
          </g>
          <g
             id="g2573"
             style="fill:#ffffff"
             transform="matrix(1.8819001,0,0,1.8819001,-583.71829,-266.23817)">
            <path
               d="m 371.46237,234.55301 h -8.77 a 1.241,1.241 0 0 0 -1.24,1.247 c 0,0 0.003,0 0.003,0.008 h -0.003 v 6.257 h 0.003 l -0.003,0.005 c 0,0.686 0.552,1.25 1.24,1.25 h 8.77 v 4.174 h -10.943 v -0.01 a 3.235,3.235 0 0 1 -3.239,-3.234 v -10.64 a 3.233,3.233 0 0 1 3.239,-3.223 h 10.943 z"
               style="fill:#ffffff;fill-opacity:1;fill-rule:evenodd;stroke:none;stroke-width:1.33333"
               id="path2436" />
            <path
               d="m 374.62837,222.93301 a 3.28,3.28 0 0 1 -3.282,3.284 h -14.076 v -4.23 h 11.867 c 0.698,0 1.258,-0.571 1.258,-1.266 v -13.984 c 0,-0.697 -0.56,-1.262 -1.258,-1.262 h -6.377 a 1.259,1.259 0 0 0 -1.258,1.262 v 6.364 a 1.26,1.26 0 0 0 1.258,1.266 h 5.095 v 4.23 h -7.303 a 3.277,3.277 0 0 1 -3.281,-3.281 v -10.792 a 3.28,3.28 0 0 1 3.281,-3.283 h 10.794 a 3.283,3.283 0 0 1 3.282,3.283 z"
               style="fill:#ffffff;fill-opacity:1;fill-rule:evenodd;stroke:none;stroke-width:1.33333"
               id="path2438" />
            <path
               d="m 416.10237,247.48501 h -4.172 v -12.93 h -2.93 a 1.241,1.241 0 0 0 -1.242,1.246 v 11.684 h -4.17 v -12.93 h -2.933 a 1.243,1.243 0 0 0 -1.242,1.246 v 11.695 h -4.17 v -13.884 a 3.23,3.23 0 0 1 3.235,-3.224 h 17.623 z"
               style="fill:#ffffff;fill-opacity:1;fill-rule:evenodd;stroke:none;stroke-width:1.33333"
               id="path2440" />
            <path
               d="m 416.11237,222.93301 a 3.28,3.28 0 0 1 -3.281,3.284 h -14.076 v -4.23 h 11.867 c 0.7,0 1.264,-0.571 1.264,-1.266 v -13.984 a 1.261,1.261 0 0 0 -1.264,-1.262 h -6.376 a 1.26,1.26 0 0 0 -1.255,1.262 v 6.364 c 0,0.699 0.564,1.266 1.255,1.266 h 5.092 v 4.23 h -7.3 a 3.28,3.28 0 0 1 -3.283,-3.281 v -10.792 a 3.281,3.281 0 0 1 3.284,-3.283 h 10.791 a 3.284,3.284 0 0 1 3.281,3.283 z"
               style="fill:#ffffff;fill-opacity:1;fill-rule:evenodd;stroke:none;stroke-width:1.33333"
               id="path2442" />
            <path
               d="m 391.13037,206.74801 v 6.353 a 1.25,1.25 0 0 1 -1.248,1.267 h -6.375 a 1.261,1.261 0 0 1 -1.26,-1.267 v -6.364 c 0,-0.697 0.56,-1.261 1.26,-1.261 h 6.375 a 1.248,1.248 0 0 1 1.248,1.261 z m 0.96,-5.505 h -10.795 a 3.28,3.28 0 0 0 -3.279,3.282 v 10.792 a 3.277,3.277 0 0 0 3.279,3.282 h 10.795 a 3.283,3.283 0 0 0 3.28,-3.282 v -10.792 a 3.284,3.284 0 0 0 -3.28,-3.282"
               style="fill:#ffffff;fill-opacity:1;fill-rule:evenodd;stroke:none;stroke-width:1.33333"
               id="path2444" />
            <path
               d="m 387.73437,235.80801 v 6.257 a 1.244,1.244 0 0 1 -1.238,1.25 c -0.006,0 -0.008,-0.007 -0.014,-0.007 v 0.007 h -6.256 v -0.007 c 0,0 -0.007,0.007 -0.014,0.007 a 1.244,1.244 0 0 1 -1.24,-1.25 v -6.265 c 0,-0.688 0.552,-1.247 1.24,-1.247 h 6.284 a 1.24,1.24 0 0 1 1.238,1.247 z m 0.937,-5.421 h -10.635 a 3.23,3.23 0 0 0 -3.236,3.223 v 10.64 a 3.233,3.233 0 0 0 3.236,3.233 h 10.635 a 3.233,3.233 0 0 0 3.232,-3.233 v -10.64 a 3.232,3.232 0 0 0 -3.232,-3.224"
               style="fill:#ffffff;fill-opacity:1;fill-rule:evenodd;stroke:none;stroke-width:1.33333"
               id="path2446" />
            <path
               d="m 422.78337,254.75201 c 0,1.075 -0.433,2.04 -1.137,2.745 a 3.864,3.864 0 0 1 -2.743,1.135 h -64.42 a 3.876,3.876 0 0 1 -3.88,-3.88 v -60.77 a 3.872,3.872 0 0 1 1.137,-2.744 3.868,3.868 0 0 1 2.743,-1.136 h 64.42 a 3.87,3.87 0 0 1 2.743,1.136 3.861,3.861 0 0 1 1.137,2.742 z m -0.005,-64.647 a 5.459,5.459 0 0 0 -3.875,-1.605 h -64.42 a 5.459,5.459 0 0 0 -3.875,1.605 5.461,5.461 0 0 0 -1.608,3.876 v 60.77 c 0,1.513 0.615,2.889 1.608,3.878 a 5.467,5.467 0 0 0 3.875,1.607 h 64.42 a 5.467,5.467 0 0 0 3.875,-1.607 5.467,5.467 0 0 0 1.608,-3.877 v -60.77 a 5.467,5.467 0 0 0 -1.608,-3.877"
               style="fill:#ffffff;fill-opacity:1;fill-rule:nonzero;stroke:none;stroke-width:1.33333"
               id="path2448" />
          </g>
        </g>
        <g
           id="g2109">
          <g
             id="g1255">
            <path
               style="color:#bebebe;display:inline;overflow:visible;visibility:visible;fill:#c02bf9;fill-opacity:1;fill-rule:nonzero;stroke:none;stroke-width:2;marker:none;enable-background:accumulate"
               d="m 310,32.5 c -9.70255,0 -17.5,7.797452 -17.5,17.5 v 52 c 0,9.70255 7.79745,17.5 17.5,17.5 h 52 c 9.70255,0 17.5,-7.79745 17.5,-17.5 V 50 c 0,-9.702548 -7.79745,-17.5 -17.5,-17.5 z"
               id="path4210" />
            <path
               style="color:#bebebe;display:inline;overflow:visible;visibility:visible;fill:url(#linearGradient1359);fill-opacity:1;fill-rule:nonzero;stroke:none;stroke-width:2;marker:none;enable-background:accumulate"
               d="m 292.5,102 c 0,9.70255 7.79745,17.5 17.5,17.5 h 52 c 9.70255,0 17.5,-7.79745 17.5,-17.5 V 50 c 0,-9.70255 -7.79745,-17.5 -17.5,-17.5 h -52 c -9.70255,0 -17.5,7.79745 -17.5,17.5 z"
               id="path1317" />
          </g>
          <g
             id="g2077"
             style="fill:#ffffff"
             transform="matrix(0.74760414,0,0,0.74760414,46.906436,-91.738451)">
            <path
               d="m 371.46237,234.55301 h -8.77 a 1.241,1.241 0 0 0 -1.24,1.247 c 0,0 0.003,0 0.003,0.008 h -0.003 v 6.257 h 0.003 l -0.003,0.005 c 0,0.686 0.552,1.25 1.24,1.25 h 8.77 v 4.174 h -10.943 v -0.01 a 3.235,3.235 0 0 1 -3.239,-3.234 v -10.64 a 3.233,3.233 0 0 1 3.239,-3.223 h 10.943 z"
               style="fill:#ffffff;fill-opacity:1;fill-rule:evenodd;stroke:none;stroke-width:1.33333"
               id="path2063" />
            <path
               d="m 374.62837,222.93301 a 3.28,3.28 0 0 1 -3.282,3.284 h -14.076 v -4.23 h 11.867 c 0.698,0 1.258,-0.571 1.258,-1.266 v -13.984 c 0,-0.697 -0.56,-1.262 -1.258,-1.262 h -6.377 a 1.259,1.259 0 0 0 -1.258,1.262 v 6.364 a 1.26,1.26 0 0 0 1.258,1.266 h 5.095 v 4.23 h -7.303 a 3.277,3.277 0 0 1 -3.281,-3.281 v -10.792 a 3.28,3.28 0 0 1 3.281,-3.283 h 10.794 a 3.283,3.283 0 0 1 3.282,3.283 z"
               style="fill:#ffffff;fill-opacity:1;fill-rule:evenodd;stroke:none;stroke-width:1.33333"
               id="path2065" />
            <path
               d="m 416.10237,247.48501 h -4.172 v -12.93 h -2.93 a 1.241,1.241 0 0 0 -1.242,1.246 v 11.684 h -4.17 v -12.93 h -2.933 a 1.243,1.243 0 0 0 -1.242,1.246 v 11.695 h -4.17 v -13.884 a 3.23,3.23 0 0 1 3.235,-3.224 h 17.623 z"
               style="fill:#ffffff;fill-opacity:1;fill-rule:evenodd;stroke:none;stroke-width:1.33333"
               id="path2067" />
            <path
               d="m 416.11237,222.93301 a 3.28,3.28 0 0 1 -3.281,3.284 h -14.076 v -4.23 h 11.867 c 0.7,0 1.264,-0.571 1.264,-1.266 v -13.984 a 1.261,1.261 0 0 0 -1.264,-1.262 h -6.376 a 1.26,1.26 0 0 0 -1.255,1.262 v 6.364 c 0,0.699 0.564,1.266 1.255,1.266 h 5.092 v 4.23 h -7.3 a 3.28,3.28 0 0 1 -3.283,-3.281 v -10.792 a 3.281,3.281 0 0 1 3.284,-3.283 h 10.791 a 3.284,3.284 0 0 1 3.281,3.283 z"
               style="fill:#ffffff;fill-opacity:1;fill-rule:evenodd;stroke:none;stroke-width:1.33333"
               id="path2069" />
            <path
               d="m 391.13037,206.74801 v 6.353 a 1.25,1.25 0 0 1 -1.248,1.267 h -6.375 a 1.261,1.261 0 0 1 -1.26,-1.267 v -6.364 c 0,-0.697 0.56,-1.261 1.26,-1.261 h 6.375 a 1.248,1.248 0 0 1 1.248,1.261 z m 0.96,-5.505 h -10.795 a 3.28,3.28 0 0 0 -3.279,3.282 v 10.792 a 3.277,3.277 0 0 0 3.279,3.282 h 10.795 a 3.283,3.283 0 0 0 3.28,-3.282 v -10.792 a 3.284,3.284 0 0 0 -3.28,-3.282"
               style="fill:#ffffff;fill-opacity:1;fill-rule:evenodd;stroke:none;stroke-width:1.33333"
               id="path2071" />
            <path
               d="m 387.73437,235.80801 v 6.257 a 1.244,1.244 0 0 1 -1.238,1.25 c -0.006,0 -0.008,-0.007 -0.014,-0.007 v 0.007 h -6.256 v -0.007 c 0,0 -0.007,0.007 -0.014,0.007 a 1.244,1.244 0 0 1 -1.24,-1.25 v -6.265 c 0,-0.688 0.552,-1.247 1.24,-1.247 h 6.284 a 1.24,1.24 0 0 1 1.238,1.247 z m 0.937,-5.421 h -10.635 a 3.23,3.23 0 0 0 -3.236,3.223 v 10.64 a 3.233,3.233 0 0 0 3.236,3.233 h 10.635 a 3.233,3.233 0 0 0 3.232,-3.233 v -10.64 a 3.232,3.232 0 0 0 -3.232,-3.224"
               style="fill:#ffffff;fill-opacity:1;fill-rule:evenodd;stroke:none;stroke-width:1.33333"
               id="path2073" />
            <path
               d="m 422.78337,254.75201 c 0,1.075 -0.433,2.04 -1.137,2.745 a 3.864,3.864 0 0 1 -2.743,1.135 h -64.42 a 3.876,3.876 0 0 1 -3.88,-3.88 v -60.77 a 3.872,3.872 0 0 1 1.137,-2.744 3.868,3.868 0 0 1 2.743,-1.136 h 64.42 a 3.87,3.87 0 0 1 2.743,1.136 3.861,3.861 0 0 1 1.137,2.742 z m -0.005,-64.647 a 5.459,5.459 0 0 0 -3.875,-1.605 h -64.42 a 5.459,5.459 0 0 0 -3.875,1.605 5.461,5.461 0 0 0 -1.608,3.876 v 60.77 c 0,1.513 0.615,2.889 1.608,3.878 a 5.467,5.467 0 0 0 3.875,1.607 h 64.42 a 5.467,5.467 0 0 0 3.875,-1.607 5.467,5.467 0 0 0 1.608,-3.877 v -60.77 a 5.467,5.467 0 0 0 -1.608,-3.877"
               style="fill:#ffffff;fill-opacity:1;fill-rule:nonzero;stroke:none;stroke-width:1.33333"
               id="path2075" />
          </g>
        </g>
        <g
           id="g2251">
          <g
             id="g1444">
            <path
               style="color:#bebebe;display:inline;overflow:visible;visibility:visible;fill:#c02bf9;fill-opacity:1;fill-rule:nonzero;stroke:none;stroke-width:2;marker:none;enable-background:accumulate"
               d="m 302.5,142.5 c -6.65502,0 -12,5.34498 -12,12 v 35 c 0,6.65502 5.34498,12 12,12 h 35 c 6.65502,0 12,-5.34498 12,-12 v -35 c 0,-6.65502 -5.34498,-12 -12,-12 z"
               id="path4212" />
            <path
               style="color:#bebebe;display:inline;overflow:visible;visibility:visible;fill:url(#linearGradient1357);fill-opacity:1;fill-rule:nonzero;stroke:none;stroke-width:2;marker:none;enable-background:accumulate"
               d="m 290.5,189.5 c 0,6.65502 5.34498,12 12,12 h 35 c 6.65502,0 12,-5.34498 12,-12 v -35 c 0,-6.65502 -5.34498,-12 -12,-12 h -35 c -6.65502,0 -12,5.34498 -12,12 z"
               id="path1319" />
          </g>
          <g
             id="g2219"
             style="fill:#ffffff"
             transform="matrix(0.50699591,0,0,0.50699591,123.94804,58.246338)">
            <path
               d="m 371.46237,234.55301 h -8.77 a 1.241,1.241 0 0 0 -1.24,1.247 c 0,0 0.003,0 0.003,0.008 h -0.003 v 6.257 h 0.003 l -0.003,0.005 c 0,0.686 0.552,1.25 1.24,1.25 h 8.77 v 4.174 h -10.943 v -0.01 a 3.235,3.235 0 0 1 -3.239,-3.234 v -10.64 a 3.233,3.233 0 0 1 3.239,-3.223 h 10.943 z"
               style="fill:#ffffff;fill-opacity:1;fill-rule:evenodd;stroke:none;stroke-width:1.33333"
               id="path2205" />
            <path
               d="m 374.62837,222.93301 a 3.28,3.28 0 0 1 -3.282,3.284 h -14.076 v -4.23 h 11.867 c 0.698,0 1.258,-0.571 1.258,-1.266 v -13.984 c 0,-0.697 -0.56,-1.262 -1.258,-1.262 h -6.377 a 1.259,1.259 0 0 0 -1.258,1.262 v 6.364 a 1.26,1.26 0 0 0 1.258,1.266 h 5.095 v 4.23 h -7.303 a 3.277,3.277 0 0 1 -3.281,-3.281 v -10.792 a 3.28,3.28 0 0 1 3.281,-3.283 h 10.794 a 3.283,3.283 0 0 1 3.282,3.283 z"
               style="fill:#ffffff;fill-opacity:1;fill-rule:evenodd;stroke:none;stroke-width:1.33333"
               id="path2207" />
            <path
               d="m 416.10237,247.48501 h -4.172 v -12.93 h -2.93 a 1.241,1.241 0 0 0 -1.242,1.246 v 11.684 h -4.17 v -12.93 h -2.933 a 1.243,1.243 0 0 0 -1.242,1.246 v 11.695 h -4.17 v -13.884 a 3.23,3.23 0 0 1 3.235,-3.224 h 17.623 z"
               style="fill:#ffffff;fill-opacity:1;fill-rule:evenodd;stroke:none;stroke-width:1.33333"
               id="path2209" />
            <path
               d="m 416.11237,222.93301 a 3.28,3.28 0 0 1 -3.281,3.284 h -14.076 v -4.23 h 11.867 c 0.7,0 1.264,-0.571 1.264,-1.266 v -13.984 a 1.261,1.261 0 0 0 -1.264,-1.262 h -6.376 a 1.26,1.26 0 0 0 -1.255,1.262 v 6.364 c 0,0.699 0.564,1.266 1.255,1.266 h 5.092 v 4.23 h -7.3 a 3.28,3.28 0 0 1 -3.283,-3.281 v -10.792 a 3.281,3.281 0 0 1 3.284,-3.283 h 10.791 a 3.284,3.284 0 0 1 3.281,3.283 z"
               style="fill:#ffffff;fill-opacity:1;fill-rule:evenodd;stroke:none;stroke-width:1.33333"
               id="path2211" />
            <path
               d="m 391.13037,206.74801 v 6.353 a 1.25,1.25 0 0 1 -1.248,1.267 h -6.375 a 1.261,1.261 0 0 1 -1.26,-1.267 v -6.364 c 0,-0.697 0.56,-1.261 1.26,-1.261 h 6.375 a 1.248,1.248 0 0 1 1.248,1.261 z m 0.96,-5.505 h -10.795 a 3.28,3.28 0 0 0 -3.279,3.282 v 10.792 a 3.277,3.277 0 0 0 3.279,3.282 h 10.795 a 3.283,3.283 0 0 0 3.28,-3.282 v -10.792 a 3.284,3.284 0 0 0 -3.28,-3.282"
               style="fill:#ffffff;fill-opacity:1;fill-rule:evenodd;stroke:none;stroke-width:1.33333"
               id="path2213" />
            <path
               d="m 387.73437,235.80801 v 6.257 a 1.244,1.244 0 0 1 -1.238,1.25 c -0.006,0 -0.008,-0.007 -0.014,-0.007 v 0.007 h -6.256 v -0.007 c 0,0 -0.007,0.007 -0.014,0.007 a 1.244,1.244 0 0 1 -1.24,-1.25 v -6.265 c 0,-0.688 0.552,-1.247 1.24,-1.247 h 6.284 a 1.24,1.24 0 0 1 1.238,1.247 z m 0.937,-5.421 h -10.635 a 3.23,3.23 0 0 0 -3.236,3.223 v 10.64 a 3.233,3.233 0 0 0 3.236,3.233 h 10.635 a 3.233,3.233 0 0 0 3.232,-3.233 v -10.64 a 3.232,3.232 0 0 0 -3.232,-3.224"
               style="fill:#ffffff;fill-opacity:1;fill-rule:evenodd;stroke:none;stroke-width:1.33333"
               id="path2215" />
            <path
               d="m 422.78337,254.75201 c 0,1.075 -0.433,2.04 -1.137,2.745 a 3.864,3.864 0 0 1 -2.743,1.135 h -64.42 a 3.876,3.876 0 0 1 -3.88,-3.88 v -60.77 a 3.872,3.872 0 0 1 1.137,-2.744 3.868,3.868 0 0 1 2.743,-1.136 h 64.42 a 3.87,3.87 0 0 1 2.743,1.136 3.861,3.861 0 0 1 1.137,2.742 z m -0.005,-64.647 a 5.459,5.459 0 0 0 -3.875,-1.605 h -64.42 a 5.459,5.459 0 0 0 -3.875,1.605 5.461,5.461 0 0 0 -1.608,3.876 v 60.77 c 0,1.513 0.615,2.889 1.608,3.878 a 5.467,5.467 0 0 0 3.875,1.607 h 64.42 a 5.467,5.467 0 0 0 3.875,-1.607 5.467,5.467 0 0 0 1.608,-3.877 v -60.77 a 5.467,5.467 0 0 0 -1.608,-3.877"
               style="fill:#ffffff;fill-opacity:1;fill-rule:nonzero;stroke:none;stroke-width:1.33333"
               id="path2217" />
          </g>
        </g>
        <g
           id="g2778">
          <g
             id="g1673">
            <path
               style="color:#bebebe;display:inline;overflow:visible;visibility:visible;fill:#c02bf9;fill-opacity:1;fill-rule:nonzero;stroke:none;stroke-width:2;marker:none;enable-background:accumulate"
               d="m 424,53.5 c -3.60654,0 -6.5,2.893464 -6.5,6.5 v 16 c 0,3.606536 2.89346,6.5 6.5,6.5 h 16 c 3.60654,0 6.5,-2.893464 6.5,-6.5 V 60 c 0,-3.606536 -2.89346,-6.5 -6.5,-6.5 z"
               id="path4206" />
            <path
               style="color:#bebebe;display:inline;overflow:visible;visibility:visible;fill:url(#linearGradient1361);fill-opacity:1;fill-rule:nonzero;stroke:none;stroke-width:2;marker:none;enable-background:accumulate"
               d="m 417.5,76 c 0,3.60654 2.89346,6.5 6.5,6.5 h 16 c 3.60654,0 6.5,-2.89346 6.5,-6.5 V 60 c 0,-3.60654 -2.89346,-6.5 -6.5,-6.5 h -16 c -3.60654,0 -6.5,2.89346 -6.5,6.5 z"
               id="path1315" />
          </g>
          <g
             id="g2498"
             style="fill:#ffffff"
             transform="matrix(0.24920138,0,0,0.24920138,335.63548,12.087183)">
            <path
               d="m 371.46237,234.55301 h -8.77 a 1.241,1.241 0 0 0 -1.24,1.247 c 0,0 0.003,0 0.003,0.008 h -0.003 v 6.257 h 0.003 l -0.003,0.005 c 0,0.686 0.552,1.25 1.24,1.25 h 8.77 v 4.174 h -10.943 v -0.01 a 3.235,3.235 0 0 1 -3.239,-3.234 v -10.64 a 3.233,3.233 0 0 1 3.239,-3.223 h 10.943 z"
               style="fill:#ffffff;fill-opacity:1;fill-rule:evenodd;stroke:none;stroke-width:1.33333"
               id="path2484" />
            <path
               d="m 374.62837,222.93301 a 3.28,3.28 0 0 1 -3.282,3.284 h -14.076 v -4.23 h 11.867 c 0.698,0 1.258,-0.571 1.258,-1.266 v -13.984 c 0,-0.697 -0.56,-1.262 -1.258,-1.262 h -6.377 a 1.259,1.259 0 0 0 -1.258,1.262 v 6.364 a 1.26,1.26 0 0 0 1.258,1.266 h 5.095 v 4.23 h -7.303 a 3.277,3.277 0 0 1 -3.281,-3.281 v -10.792 a 3.28,3.28 0 0 1 3.281,-3.283 h 10.794 a 3.283,3.283 0 0 1 3.282,3.283 z"
               style="fill:#ffffff;fill-opacity:1;fill-rule:evenodd;stroke:none;stroke-width:1.33333"
               id="path2486" />
            <path
               d="m 416.10237,247.48501 h -4.172 v -12.93 h -2.93 a 1.241,1.241 0 0 0 -1.242,1.246 v 11.684 h -4.17 v -12.93 h -2.933 a 1.243,1.243 0 0 0 -1.242,1.246 v 11.695 h -4.17 v -13.884 a 3.23,3.23 0 0 1 3.235,-3.224 h 17.623 z"
               style="fill:#ffffff;fill-opacity:1;fill-rule:evenodd;stroke:none;stroke-width:1.33333"
               id="path2488" />
            <path
               d="m 416.11237,222.93301 a 3.28,3.28 0 0 1 -3.281,3.284 h -14.076 v -4.23 h 11.867 c 0.7,0 1.264,-0.571 1.264,-1.266 v -13.984 a 1.261,1.261 0 0 0 -1.264,-1.262 h -6.376 a 1.26,1.26 0 0 0 -1.255,1.262 v 6.364 c 0,0.699 0.564,1.266 1.255,1.266 h 5.092 v 4.23 h -7.3 a 3.28,3.28 0 0 1 -3.283,-3.281 v -10.792 a 3.281,3.281 0 0 1 3.284,-3.283 h 10.791 a 3.284,3.284 0 0 1 3.281,3.283 z"
               style="fill:#ffffff;fill-opacity:1;fill-rule:evenodd;stroke:none;stroke-width:1.33333"
               id="path2490" />
            <path
               d="m 391.13037,206.74801 v 6.353 a 1.25,1.25 0 0 1 -1.248,1.267 h -6.375 a 1.261,1.261 0 0 1 -1.26,-1.267 v -6.364 c 0,-0.697 0.56,-1.261 1.26,-1.261 h 6.375 a 1.248,1.248 0 0 1 1.248,1.261 z m 0.96,-5.505 h -10.795 a 3.28,3.28 0 0 0 -3.279,3.282 v 10.792 a 3.277,3.277 0 0 0 3.279,3.282 h 10.795 a 3.283,3.283 0 0 0 3.28,-3.282 v -10.792 a 3.284,3.284 0 0 0 -3.28,-3.282"
               style="fill:#ffffff;fill-opacity:1;fill-rule:evenodd;stroke:none;stroke-width:1.33333"
               id="path2492" />
            <path
               d="m 387.73437,235.80801 v 6.257 a 1.244,1.244 0 0 1 -1.238,1.25 c -0.006,0 -0.008,-0.007 -0.014,-0.007 v 0.007 h -6.256 v -0.007 c 0,0 -0.007,0.007 -0.014,0.007 a 1.244,1.244 0 0 1 -1.24,-1.25 v -6.265 c 0,-0.688 0.552,-1.247 1.24,-1.247 h 6.284 a 1.24,1.24 0 0 1 1.238,1.247 z m 0.937,-5.421 h -10.635 a 3.23,3.23 0 0 0 -3.236,3.223 v 10.64 a 3.233,3.233 0 0 0 3.236,3.233 h 10.635 a 3.233,3.233 0 0 0 3.232,-3.233 v -10.64 a 3.232,3.232 0 0 0 -3.232,-3.224"
               style="fill:#ffffff;fill-opacity:1;fill-rule:evenodd;stroke:none;stroke-width:1.33333"
               id="path2494" />
            <path
               d="m 422.78337,254.75201 c 0,1.075 -0.433,2.04 -1.137,2.745 a 3.864,3.864 0 0 1 -2.743,1.135 h -64.42 a 3.876,3.876 0 0 1 -3.88,-3.88 v -60.77 a 3.872,3.872 0 0 1 1.137,-2.744 3.868,3.868 0 0 1 2.743,-1.136 h 64.42 a 3.87,3.87 0 0 1 2.743,1.136 3.861,3.861 0 0 1 1.137,2.742 z m -0.005,-64.647 a 5.459,5.459 0 0 0 -3.875,-1.605 h -64.42 a 5.459,5.459 0 0 0 -3.875,1.605 5.461,5.461 0 0 0 -1.608,3.876 v 60.77 c 0,1.513 0.615,2.889 1.608,3.878 a 5.467,5.467 0 0 0 3.875,1.607 h 64.42 a 5.467,5.467 0 0 0 3.875,-1.607 5.467,5.467 0 0 0 1.608,-3.877 v -60.77 a 5.467,5.467 0 0 0 -1.608,-3.877"
               style="fill:#ffffff;fill-opacity:1;fill-rule:nonzero;stroke:none;stroke-width:1.33333"
               id="path2496" />
          </g>
        </g>
        <g
           id="g2978">
          <g
             id="g1562">
            <path
               style="color:#bebebe;display:inline;overflow:visible;visibility:visible;fill:#c02bf9;fill-opacity:1;fill-rule:nonzero;stroke:none;stroke-width:2;marker:none;enable-background:accumulate"
               d="m 300,223.5 c -4.71531,0 -8.5,3.78469 -8.5,8.5 v 24 c 0,4.71531 3.78469,8.5 8.5,8.5 h 24 c 4.71531,0 8.5,-3.78469 8.5,-8.5 v -24 c 0,-4.71531 -3.78469,-8.5 -8.5,-8.5 z"
               id="path4208" />
            <path
               style="color:#bebebe;display:inline;overflow:visible;visibility:visible;fill:url(#linearGradient1355);fill-opacity:1;fill-rule:nonzero;stroke:none;stroke-width:2;marker:none;enable-background:accumulate"
               d="m 291.5,256 c 0,4.71531 3.78469,8.5 8.5,8.5 h 24 c 4.71531,0 8.5,-3.78469 8.5,-8.5 v -24 c 0,-4.71531 -3.78469,-8.5 -8.5,-8.5 h -24 c -4.71531,0 -8.5,3.78469 -8.5,8.5 z"
               id="path1321" />
          </g>
          <g
             id="g2946"
             style="fill:#ffffff"
             transform="matrix(0.35231919,0,0,0.35231919,175.76051,164.95085)">
            <path
               d="m 371.46237,234.55301 h -8.77 a 1.241,1.241 0 0 0 -1.24,1.247 c 0,0 0.003,0 0.003,0.008 h -0.003 v 6.257 h 0.003 l -0.003,0.005 c 0,0.686 0.552,1.25 1.24,1.25 h 8.77 v 4.174 h -10.943 v -0.01 a 3.235,3.235 0 0 1 -3.239,-3.234 v -10.64 a 3.233,3.233 0 0 1 3.239,-3.223 h 10.943 z"
               style="fill:#ffffff;fill-opacity:1;fill-rule:evenodd;stroke:none;stroke-width:1.33333"
               id="path2932" />
            <path
               d="m 374.62837,222.93301 a 3.28,3.28 0 0 1 -3.282,3.284 h -14.076 v -4.23 h 11.867 c 0.698,0 1.258,-0.571 1.258,-1.266 v -13.984 c 0,-0.697 -0.56,-1.262 -1.258,-1.262 h -6.377 a 1.259,1.259 0 0 0 -1.258,1.262 v 6.364 a 1.26,1.26 0 0 0 1.258,1.266 h 5.095 v 4.23 h -7.303 a 3.277,3.277 0 0 1 -3.281,-3.281 v -10.792 a 3.28,3.28 0 0 1 3.281,-3.283 h 10.794 a 3.283,3.283 0 0 1 3.282,3.283 z"
               style="fill:#ffffff;fill-opacity:1;fill-rule:evenodd;stroke:none;stroke-width:1.33333"
               id="path2934" />
            <path
               d="m 416.10237,247.48501 h -4.172 v -12.93 h -2.93 a 1.241,1.241 0 0 0 -1.242,1.246 v 11.684 h -4.17 v -12.93 h -2.933 a 1.243,1.243 0 0 0 -1.242,1.246 v 11.695 h -4.17 v -13.884 a 3.23,3.23 0 0 1 3.235,-3.224 h 17.623 z"
               style="fill:#ffffff;fill-opacity:1;fill-rule:evenodd;stroke:none;stroke-width:1.33333"
               id="path2936" />
            <path
               d="m 416.11237,222.93301 a 3.28,3.28 0 0 1 -3.281,3.284 h -14.076 v -4.23 h 11.867 c 0.7,0 1.264,-0.571 1.264,-1.266 v -13.984 a 1.261,1.261 0 0 0 -1.264,-1.262 h -6.376 a 1.26,1.26 0 0 0 -1.255,1.262 v 6.364 c 0,0.699 0.564,1.266 1.255,1.266 h 5.092 v 4.23 h -7.3 a 3.28,3.28 0 0 1 -3.283,-3.281 v -10.792 a 3.281,3.281 0 0 1 3.284,-3.283 h 10.791 a 3.284,3.284 0 0 1 3.281,3.283 z"
               style="fill:#ffffff;fill-opacity:1;fill-rule:evenodd;stroke:none;stroke-width:1.33333"
               id="path2938" />
            <path
               d="m 391.13037,206.74801 v 6.353 a 1.25,1.25 0 0 1 -1.248,1.267 h -6.375 a 1.261,1.261 0 0 1 -1.26,-1.267 v -6.364 c 0,-0.697 0.56,-1.261 1.26,-1.261 h 6.375 a 1.248,1.248 0 0 1 1.248,1.261 z m 0.96,-5.505 h -10.795 a 3.28,3.28 0 0 0 -3.279,3.282 v 10.792 a 3.277,3.277 0 0 0 3.279,3.282 h 10.795 a 3.283,3.283 0 0 0 3.28,-3.282 v -10.792 a 3.284,3.284 0 0 0 -3.28,-3.282"
               style="fill:#ffffff;fill-opacity:1;fill-rule:evenodd;stroke:none;stroke-width:1.33333"
               id="path2940" />
            <path
               d="m 387.73437,235.80801 v 6.257 a 1.244,1.244 0 0 1 -1.238,1.25 c -0.006,0 -0.008,-0.007 -0.014,-0.007 v 0.007 h -6.256 v -0.007 c 0,0 -0.007,0.007 -0.014,0.007 a 1.244,1.244 0 0 1 -1.24,-1.25 v -6.265 c 0,-0.688 0.552,-1.247 1.24,-1.247 h 6.284 a 1.24,1.24 0 0 1 1.238,1.247 z m 0.937,-5.421 h -10.635 a 3.23,3.23 0 0 0 -3.236,3.223 v 10.64 a 3.233,3.233 0 0 0 3.236,3.233 h 10.635 a 3.233,3.233 0 0 0 3.232,-3.233 v -10.64 a 3.232,3.232 0 0 0 -3.232,-3.224"
               style="fill:#ffffff;fill-opacity:1;fill-rule:evenodd;stroke:none;stroke-width:1.33333"
               id="path2942" />
            <path
               d="m 422.78337,254.75201 c 0,1.075 -0.433,2.04 -1.137,2.745 a 3.864,3.864 0 0 1 -2.743,1.135 h -64.42 a 3.876,3.876 0 0 1 -3.88,-3.88 v -60.77 a 3.872,3.872 0 0 1 1.137,-2.744 3.868,3.868 0 0 1 2.743,-1.136 h 64.42 a 3.87,3.87 0 0 1 2.743,1.136 3.861,3.861 0 0 1 1.137,2.742 z m -0.005,-64.647 a 5.459,5.459 0 0 0 -3.875,-1.605 h -64.42 a 5.459,5.459 0 0 0 -3.875,1.605 5.461,5.461 0 0 0 -1.608,3.876 v 60.77 c 0,1.513 0.615,2.889 1.608,3.878 a 5.467,5.467 0 0 0 3.875,1.607 h 64.42 a 5.467,5.467 0 0 0 3.875,-1.607 5.467,5.467 0 0 0 1.608,-3.877 v -60.77 a 5.467,5.467 0 0 0 -1.608,-3.877"
               style="fill:#ffffff;fill-opacity:1;fill-rule:nonzero;stroke:none;stroke-width:1.33333"
               id="path2944" />
          </g>
        </g>
        <g
           id="g3255">
          <g
             id="g1677">
            <path
               style="color:#bebebe;display:inline;overflow:visible;visibility:visible;fill:#c02bf9;fill-opacity:1;fill-rule:nonzero;stroke:none;stroke-width:2;marker:none;enable-background:accumulate"
               d="m 422,101.5 c -2.49699,0 -4.5,2.00301 -4.5,4.5 v 12 c 0,2.49699 2.00301,4.5 4.5,4.5 h 12 c 2.49699,0 4.5,-2.00301 4.5,-4.5 v -12 c 0,-2.49699 -2.00301,-4.5 -4.5,-4.5 z"
               id="path4204" />
            <path
               style="color:#bebebe;display:inline;overflow:visible;visibility:visible;fill:url(#linearGradient1353);fill-opacity:1;fill-rule:nonzero;stroke:none;stroke-width:2;marker:none;enable-background:accumulate"
               d="m 417.5,118 c 0,2.49699 2.00301,4.5 4.5,4.5 h 12 c 2.49699,0 4.5,-2.00301 4.5,-4.5 v -12 c 0,-2.49699 -2.00301,-4.5 -4.5,-4.5 h -12 c -2.49699,0 -4.5,2.00301 -4.5,4.5 z"
               id="path1323" />
          </g>
          <g
             id="g3227"
             style="fill:#ffffff"
             transform="matrix(0.18045617,0,0,0.18045617,358.2188,71.511409)">
            <path
               d="m 371.46237,234.55301 h -8.77 a 1.241,1.241 0 0 0 -1.24,1.247 c 0,0 0.003,0 0.003,0.008 h -0.003 v 6.257 h 0.003 l -0.003,0.005 c 0,0.686 0.552,1.25 1.24,1.25 h 8.77 v 4.174 h -10.943 v -0.01 a 3.235,3.235 0 0 1 -3.239,-3.234 v -10.64 a 3.233,3.233 0 0 1 3.239,-3.223 h 10.943 z"
               style="fill:#ffffff;fill-opacity:1;fill-rule:evenodd;stroke:none;stroke-width:1.33333"
               id="path3213" />
            <path
               d="m 374.62837,222.93301 a 3.28,3.28 0 0 1 -3.282,3.284 h -14.076 v -4.23 h 11.867 c 0.698,0 1.258,-0.571 1.258,-1.266 v -13.984 c 0,-0.697 -0.56,-1.262 -1.258,-1.262 h -6.377 a 1.259,1.259 0 0 0 -1.258,1.262 v 6.364 a 1.26,1.26 0 0 0 1.258,1.266 h 5.095 v 4.23 h -7.303 a 3.277,3.277 0 0 1 -3.281,-3.281 v -10.792 a 3.28,3.28 0 0 1 3.281,-3.283 h 10.794 a 3.283,3.283 0 0 1 3.282,3.283 z"
               style="fill:#ffffff;fill-opacity:1;fill-rule:evenodd;stroke:none;stroke-width:1.33333"
               id="path3215" />
            <path
               d="m 416.10237,247.48501 h -4.172 v -12.93 h -2.93 a 1.241,1.241 0 0 0 -1.242,1.246 v 11.684 h -4.17 v -12.93 h -2.933 a 1.243,1.243 0 0 0 -1.242,1.246 v 11.695 h -4.17 v -13.884 a 3.23,3.23 0 0 1 3.235,-3.224 h 17.623 z"
               style="fill:#ffffff;fill-opacity:1;fill-rule:evenodd;stroke:none;stroke-width:1.33333"
               id="path3217" />
            <path
               d="m 416.11237,222.93301 a 3.28,3.28 0 0 1 -3.281,3.284 h -14.076 v -4.23 h 11.867 c 0.7,0 1.264,-0.571 1.264,-1.266 v -13.984 a 1.261,1.261 0 0 0 -1.264,-1.262 h -6.376 a 1.26,1.26 0 0 0 -1.255,1.262 v 6.364 c 0,0.699 0.564,1.266 1.255,1.266 h 5.092 v 4.23 h -7.3 a 3.28,3.28 0 0 1 -3.283,-3.281 v -10.792 a 3.281,3.281 0 0 1 3.284,-3.283 h 10.791 a 3.284,3.284 0 0 1 3.281,3.283 z"
               style="fill:#ffffff;fill-opacity:1;fill-rule:evenodd;stroke:none;stroke-width:1.33333"
               id="path3219" />
            <path
               d="m 391.13037,206.74801 v 6.353 a 1.25,1.25 0 0 1 -1.248,1.267 h -6.375 a 1.261,1.261 0 0 1 -1.26,-1.267 v -6.364 c 0,-0.697 0.56,-1.261 1.26,-1.261 h 6.375 a 1.248,1.248 0 0 1 1.248,1.261 z m 0.96,-5.505 h -10.795 a 3.28,3.28 0 0 0 -3.279,3.282 v 10.792 a 3.277,3.277 0 0 0 3.279,3.282 h 10.795 a 3.283,3.283 0 0 0 3.28,-3.282 v -10.792 a 3.284,3.284 0 0 0 -3.28,-3.282"
               style="fill:#ffffff;fill-opacity:1;fill-rule:evenodd;stroke:none;stroke-width:1.33333"
               id="path3221" />
            <path
               d="m 387.73437,235.80801 v 6.257 a 1.244,1.244 0 0 1 -1.238,1.25 c -0.006,0 -0.008,-0.007 -0.014,-0.007 v 0.007 h -6.256 v -0.007 c 0,0 -0.007,0.007 -0.014,0.007 a 1.244,1.244 0 0 1 -1.24,-1.25 v -6.265 c 0,-0.688 0.552,-1.247 1.24,-1.247 h 6.284 a 1.24,1.24 0 0 1 1.238,1.247 z m 0.937,-5.421 h -10.635 a 3.23,3.23 0 0 0 -3.236,3.223 v 10.64 a 3.233,3.233 0 0 0 3.236,3.233 h 10.635 a 3.233,3.233 0 0 0 3.232,-3.233 v -10.64 a 3.232,3.232 0 0 0 -3.232,-3.224"
               style="fill:#ffffff;fill-opacity:1;fill-rule:evenodd;stroke:none;stroke-width:1.33333"
               id="path3223" />
            <path
               d="m 422.78337,254.75201 c 0,1.075 -0.433,2.04 -1.137,2.745 a 3.864,3.864 0 0 1 -2.743,1.135 h -64.42 a 3.876,3.876 0 0 1 -3.88,-3.88 v -60.77 a 3.872,3.872 0 0 1 1.137,-2.744 3.868,3.868 0 0 1 2.743,-1.136 h 64.42 a 3.87,3.87 0 0 1 2.743,1.136 3.861,3.861 0 0 1 1.137,2.742 z m -0.005,-64.647 a 5.459,5.459 0 0 0 -3.875,-1.605 h -64.42 a 5.459,5.459 0 0 0 -3.875,1.605 5.461,5.461 0 0 0 -1.608,3.876 v 60.77 c 0,1.513 0.615,2.889 1.608,3.878 a 5.467,5.467 0 0 0 3.875,1.607 h 64.42 a 5.467,5.467 0 0 0 3.875,-1.607 5.467,5.467 0 0 0 1.608,-3.877 v -60.77 a 5.467,5.467 0 0 0 -1.608,-3.877"
               style="fill:#ffffff;fill-opacity:1;fill-rule:nonzero;stroke:none;stroke-width:1.33333"
               id="path3225" />
          </g>
        </g>
        <g
           id="g3385">
          <g
             id="g1681">
            <path
               style="color:#bebebe;display:inline;overflow:visible;visibility:visible;fill:#c02bf9;fill-opacity:1;fill-rule:nonzero;stroke:none;stroke-width:2;marker:none;enable-background:accumulate"
               d="m 419,140.5 c -1.3844,0 -2.5,1.1156 -2.5,2.5 v 10 c 0,1.3844 1.1156,2.5 2.5,2.5 h 10 c 1.3844,0 2.5,-1.1156 2.5,-2.5 v -10 c 0,-1.3844 -1.1156,-2.5 -2.5,-2.5 z"
               id="path4202" />
            <path
               style="color:#bebebe;display:inline;overflow:visible;visibility:visible;fill:url(#linearGradient1351);fill-opacity:1;fill-rule:nonzero;stroke:none;stroke-width:2;marker:none;enable-background:accumulate"
               d="m 416.5,153 c 0,1.3844 1.1156,2.5 2.5,2.5 h 10 c 1.3844,0 2.5,-1.1156 2.5,-2.5 v -10 c 0,-1.3844 -1.1156,-2.5 -2.5,-2.5 h -10 c -1.3844,0 -2.5,1.1156 -2.5,2.5 z"
               id="path1325" />
          </g>
          <g
             id="g3357"
             style="fill:#ffffff"
             transform="matrix(0.12889726,0,0,0.12889726,374.15628,119.07958)">
            <path
               d="m 371.46237,234.55301 h -8.77 a 1.241,1.241 0 0 0 -1.24,1.247 c 0,0 0.003,0 0.003,0.008 h -0.003 v 6.257 h 0.003 l -0.003,0.005 c 0,0.686 0.552,1.25 1.24,1.25 h 8.77 v 4.174 h -10.943 v -0.01 a 3.235,3.235 0 0 1 -3.239,-3.234 v -10.64 a 3.233,3.233 0 0 1 3.239,-3.223 h 10.943 z"
               style="fill:#ffffff;fill-opacity:1;fill-rule:evenodd;stroke:none;stroke-width:1.33333"
               id="path3343" />
            <path
               d="m 374.62837,222.93301 a 3.28,3.28 0 0 1 -3.282,3.284 h -14.076 v -4.23 h 11.867 c 0.698,0 1.258,-0.571 1.258,-1.266 v -13.984 c 0,-0.697 -0.56,-1.262 -1.258,-1.262 h -6.377 a 1.259,1.259 0 0 0 -1.258,1.262 v 6.364 a 1.26,1.26 0 0 0 1.258,1.266 h 5.095 v 4.23 h -7.303 a 3.277,3.277 0 0 1 -3.281,-3.281 v -10.792 a 3.28,3.28 0 0 1 3.281,-3.283 h 10.794 a 3.283,3.283 0 0 1 3.282,3.283 z"
               style="fill:#ffffff;fill-opacity:1;fill-rule:evenodd;stroke:none;stroke-width:1.33333"
               id="path3345" />
            <path
               d="m 416.10237,247.48501 h -4.172 v -12.93 h -2.93 a 1.241,1.241 0 0 0 -1.242,1.246 v 11.684 h -4.17 v -12.93 h -2.933 a 1.243,1.243 0 0 0 -1.242,1.246 v 11.695 h -4.17 v -13.884 a 3.23,3.23 0 0 1 3.235,-3.224 h 17.623 z"
               style="fill:#ffffff;fill-opacity:1;fill-rule:evenodd;stroke:none;stroke-width:1.33333"
               id="path3347" />
            <path
               d="m 416.11237,222.93301 a 3.28,3.28 0 0 1 -3.281,3.284 h -14.076 v -4.23 h 11.867 c 0.7,0 1.264,-0.571 1.264,-1.266 v -13.984 a 1.261,1.261 0 0 0 -1.264,-1.262 h -6.376 a 1.26,1.26 0 0 0 -1.255,1.262 v 6.364 c 0,0.699 0.564,1.266 1.255,1.266 h 5.092 v 4.23 h -7.3 a 3.28,3.28 0 0 1 -3.283,-3.281 v -10.792 a 3.281,3.281 0 0 1 3.284,-3.283 h 10.791 a 3.284,3.284 0 0 1 3.281,3.283 z"
               style="fill:#ffffff;fill-opacity:1;fill-rule:evenodd;stroke:none;stroke-width:1.33333"
               id="path3349" />
            <path
               d="m 391.13037,206.74801 v 6.353 a 1.25,1.25 0 0 1 -1.248,1.267 h -6.375 a 1.261,1.261 0 0 1 -1.26,-1.267 v -6.364 c 0,-0.697 0.56,-1.261 1.26,-1.261 h 6.375 a 1.248,1.248 0 0 1 1.248,1.261 z m 0.96,-5.505 h -10.795 a 3.28,3.28 0 0 0 -3.279,3.282 v 10.792 a 3.277,3.277 0 0 0 3.279,3.282 h 10.795 a 3.283,3.283 0 0 0 3.28,-3.282 v -10.792 a 3.284,3.284 0 0 0 -3.28,-3.282"
               style="fill:#ffffff;fill-opacity:1;fill-rule:evenodd;stroke:none;stroke-width:1.33333"
               id="path3351" />
            <path
               d="m 387.73437,235.80801 v 6.257 a 1.244,1.244 0 0 1 -1.238,1.25 c -0.006,0 -0.008,-0.007 -0.014,-0.007 v 0.007 h -6.256 v -0.007 c 0,0 -0.007,0.007 -0.014,0.007 a 1.244,1.244 0 0 1 -1.24,-1.25 v -6.265 c 0,-0.688 0.552,-1.247 1.24,-1.247 h 6.284 a 1.24,1.24 0 0 1 1.238,1.247 z m 0.937,-5.421 h -10.635 a 3.23,3.23 0 0 0 -3.236,3.223 v 10.64 a 3.233,3.233 0 0 0 3.236,3.233 h 10.635 a 3.233,3.233 0 0 0 3.232,-3.233 v -10.64 a 3.232,3.232 0 0 0 -3.232,-3.224"
               style="fill:#ffffff;fill-opacity:1;fill-rule:evenodd;stroke:none;stroke-width:1.33333"
               id="path3353" />
            <path
               d="m 422.78337,254.75201 c 0,1.075 -0.433,2.04 -1.137,2.745 a 3.864,3.864 0 0 1 -2.743,1.135 h -64.42 a 3.876,3.876 0 0 1 -3.88,-3.88 v -60.77 a 3.872,3.872 0 0 1 1.137,-2.744 3.868,3.868 0 0 1 2.743,-1.136 h 64.42 a 3.87,3.87 0 0 1 2.743,1.136 3.861,3.861 0 0 1 1.137,2.742 z m -0.005,-64.647 a 5.459,5.459 0 0 0 -3.875,-1.605 h -64.42 a 5.459,5.459 0 0 0 -3.875,1.605 5.461,5.461 0 0 0 -1.608,3.876 v 60.77 c 0,1.513 0.615,2.889 1.608,3.878 a 5.467,5.467 0 0 0 3.875,1.607 h 64.42 a 5.467,5.467 0 0 0 3.875,-1.607 5.467,5.467 0 0 0 1.608,-3.877 v -60.77 a 5.467,5.467 0 0 0 -1.608,-3.877"
               style="fill:#ffffff;fill-opacity:1;fill-rule:nonzero;stroke:none;stroke-width:1.33333"
               id="path3355" />
          </g>
        </g>
      </g>
    </g>
    <g
       inkscape:groupmode="layer"
       id="layer6"
       inkscape:label="Symbols"
       style="display:inline" />
    <g
       inkscape:groupmode="layer"
       id="layer5"
       inkscape:label="Highlights"
       style="display:inline"
       sodipodi:insensitive="true">
      <path
         style="color:#bebebe;display:inline;overflow:visible;visibility:visible;opacity:0.13;fill:#ffffff;fill-opacity:1;fill-rule:nonzero;stroke:none;stroke-width:0;marker:none;enable-background:accumulate"
         d="M 84,47 C 56.836703,47 35,68.836703 35,96 v 1 C 35,69.836703 56.836703,48 84,48 h 120 c 27.1633,0 49,21.836703 49,49 V 96 C 253,68.836703 231.1633,47 204,47 Z"
         id="rect3894"
         inkscape:connector-curvature="0" />
      <path
         style="color:#bebebe;display:inline;overflow:visible;visibility:visible;opacity:0.13;fill:#ffffff;fill-opacity:1;fill-rule:nonzero;stroke:none;stroke-width:0;marker:none;enable-background:accumulate"
         d="m 419,141 c -1.1253,0 -2,0.8747 -2,2 v 1 c 0,-1.1253 0.8747,-2 2,-2 h 10 c 1.1253,0 2,0.8747 2,2 v -1 c 0,-1.1253 -0.8747,-2 -2,-2 z"
         id="rect3896"
         inkscape:connector-curvature="0" />
      <path
         style="color:#bebebe;display:inline;overflow:visible;visibility:visible;opacity:0.13;fill:#ffffff;fill-opacity:1;fill-rule:nonzero;stroke:none;stroke-width:0;marker:none;enable-background:accumulate"
         d="m 422,102 c -2.2333,0 -4,1.7667 -4,4 v 1 c 0,-2.2333 1.7667,-4 4,-4 h 12 c 2.2333,0 4,1.7667 4,4 v -1 c 0,-2.2333 -1.7667,-4 -4,-4 z"
         id="rect3898"
         inkscape:connector-curvature="0" />
      <path
         style="color:#bebebe;display:inline;overflow:visible;visibility:visible;opacity:0.13;fill:#ffffff;fill-opacity:1;fill-rule:nonzero;stroke:none;stroke-width:0;marker:none;enable-background:accumulate"
         d="m 424,54 c -3.3413,0 -6,2.658703 -6,6 v 1 c 0,-3.341297 2.6587,-6 6,-6 h 16 c 3.3413,0 6,2.658703 6,6 v -1 c 0,-3.341297 -2.6587,-6 -6,-6 z"
         id="rect3900"
         inkscape:connector-curvature="0" />
      <path
         style="color:#bebebe;display:inline;overflow:visible;visibility:visible;opacity:0.13;fill:#ffffff;fill-opacity:1;fill-rule:nonzero;stroke:none;stroke-width:0;marker:none;enable-background:accumulate"
         d="m 300,224 c -4.4493,0 -8,3.5507 -8,8 v 1 c 0,-4.4493 3.5507,-8 8,-8 h 24 c 4.4493,0 8,3.5507 8,8 v -1 c 0,-4.4493 -3.5507,-8 -8,-8 z"
         id="rect3902"
         inkscape:connector-curvature="0" />
      <path
         style="color:#bebebe;display:inline;overflow:visible;visibility:visible;opacity:0.13;fill:#ffffff;fill-opacity:1;fill-rule:nonzero;stroke:none;stroke-width:0;marker:none;enable-background:accumulate"
         d="m 310,33 c -9.4353,0 -17,7.564703 -17,17 v 1 c 0,-9.435297 7.5647,-17 17,-17 h 52 c 9.4353,0 17,7.564703 17,17 v -1 c 0,-9.435297 -7.5647,-17 -17,-17 z"
         id="rect3904"
         inkscape:connector-curvature="0" />
      <path
         style="color:#bebebe;display:inline;overflow:visible;visibility:visible;opacity:0.13;fill:#ffffff;fill-opacity:1;fill-rule:nonzero;stroke:none;stroke-width:0;marker:none;enable-background:accumulate"
         d="m 302.5,143 c -6.3883,0 -11.5,5.1117 -11.5,11.5 v 1 c 0,-6.3883 5.1117,-11.5 11.5,-11.5 h 35 c 6.3883,0 11.5,5.1117 11.5,11.5 v -1 c 0,-6.3883 -5.1117,-11.5 -11.5,-11.5 z"
         id="rect3906"
         inkscape:connector-curvature="0" />
      <path
         id="path4085"
         d="m 204,266 c 27.1633,0 49,-21.8367 49,-49 v -1 c 0,27.1633 -21.8367,49 -49,49 H 84 C 56.8367,265 35,243.1633 35,216 v 1 c 0,27.1633 21.8367,49 49,49 z"
         style="color:#bebebe;display:inline;overflow:visible;visibility:visible;opacity:0.41;fill:#000000;fill-opacity:1;fill-rule:nonzero;stroke:none;stroke-width:0;marker:none;enable-background:accumulate"
         inkscape:connector-curvature="0" />
      <path
         id="path4087"
         d="m 429,156 c 1.1253,0 2,-0.8747 2,-2 v -1 c 0,1.1253 -0.8747,2 -2,2 h -10 c -1.1253,0 -2,-0.8747 -2,-2 v 1 c 0,1.1253 0.8747,2 2,2 z"
         style="color:#bebebe;display:inline;overflow:visible;visibility:visible;opacity:0.3;fill:#000000;fill-opacity:1;fill-rule:nonzero;stroke:none;stroke-width:0;marker:none;enable-background:accumulate"
         inkscape:connector-curvature="0" />
      <path
         id="path4089"
         d="m 434,123 c 2.2333,0 4,-1.7667 4,-4 v -1 c 0,2.2333 -1.7667,4 -4,4 h -12 c -2.2333,0 -4,-1.7667 -4,-4 v 1 c 0,2.2333 1.7667,4 4,4 z"
         style="color:#bebebe;display:inline;overflow:visible;visibility:visible;opacity:0.3;fill:#000000;fill-opacity:1;fill-rule:nonzero;stroke:none;stroke-width:0;marker:none;enable-background:accumulate"
         inkscape:connector-curvature="0" />
      <path
         id="path4091"
         d="m 440,83 c 3.3413,0 6,-2.6587 6,-6 v -1 c 0,3.3413 -2.6587,6 -6,6 h -16 c -3.3413,0 -6,-2.6587 -6,-6 v 1 c 0,3.3413 2.6587,6 6,6 z"
         style="color:#bebebe;display:inline;overflow:visible;visibility:visible;opacity:0.41;fill:#000000;fill-opacity:1;fill-rule:nonzero;stroke:none;stroke-width:0;marker:none;enable-background:accumulate"
         inkscape:connector-curvature="0" />
      <path
         id="path4093"
         d="m 324,265 c 4.4493,0 8,-3.5507 8,-8 v -1 c 0,4.4493 -3.5507,8 -8,8 h -24 c -4.4493,0 -8,-3.5507 -8,-8 v 1 c 0,4.4493 3.5507,8 8,8 z"
         style="color:#bebebe;display:inline;overflow:visible;visibility:visible;opacity:0.41;fill:#000000;fill-opacity:1;fill-rule:nonzero;stroke:none;stroke-width:0;marker:none;enable-background:accumulate"
         inkscape:connector-curvature="0" />
      <path
         id="path4095"
         d="m 362,120 c 9.4353,0 17,-7.5647 17,-17 v -1 c 0,9.4353 -7.5647,17 -17,17 h -52 c -9.4353,0 -17,-7.5647 -17,-17 v 1 c 0,9.4353 7.5647,17 17,17 z"
         style="color:#bebebe;display:inline;overflow:visible;visibility:visible;opacity:0.41;fill:#000000;fill-opacity:1;fill-rule:nonzero;stroke:none;stroke-width:0;marker:none;enable-background:accumulate"
         inkscape:connector-curvature="0" />
      <path
         id="path4097"
         d="m 337.5,202 c 6.3883,0 11.5,-5.1117 11.5,-11.5 v -1 c 0,6.3883 -5.1117,11.5 -11.5,11.5 h -35 c -6.3883,0 -11.5,-5.1117 -11.5,-11.5 v 1 c 0,6.3883 5.1117,11.5 11.5,11.5 z"
         style="color:#bebebe;display:inline;overflow:visible;visibility:visible;opacity:0.41;fill:#000000;fill-opacity:1;fill-rule:nonzero;stroke:none;stroke-width:0;marker:none;enable-background:accumulate"
         inkscape:connector-curvature="0" />
      <path
         inkscape:connector-curvature="0"
         id="path4280"
         d="M 84,265 C 56.836703,265 35,243.1633 35,216 v -1 c 0,27.1633 21.836703,49 49,49 h 120 c 27.1633,0 49,-21.8367 49,-49 v 1 c 0,27.1633 -21.8367,49 -49,49 z"
         style="color:#bebebe;display:inline;overflow:visible;visibility:visible;opacity:0.1;fill:#ffffff;fill-opacity:1;fill-rule:nonzero;stroke:none;stroke-width:0;marker:none;enable-background:accumulate" />
      <path
         style="color:#bebebe;display:inline;overflow:visible;visibility:visible;opacity:0.1;fill:#ffffff;fill-opacity:1;fill-rule:nonzero;stroke:none;stroke-width:0;marker:none;enable-background:accumulate"
         d="m 300,264 c -4.4493,0 -8,-3.5507 -8,-8 v -1 c 0,4.4493 3.5507,8 8,8 h 24 c 4.4493,0 8,-3.5507 8,-8 v 1 c 0,4.4493 -3.5507,8 -8,8 z"
         id="path4294"
         inkscape:connector-curvature="0" />
      <path
         style="color:#bebebe;display:inline;overflow:visible;visibility:visible;opacity:0.1;fill:#ffffff;fill-opacity:1;fill-rule:nonzero;stroke:none;stroke-width:0;marker:none;enable-background:accumulate"
         d="m 302.5,201 c -6.3883,0 -11.5,-5.1117 -11.5,-11.5 v -1 c 0,6.3883 5.1117,11.5 11.5,11.5 h 35 c 6.3883,0 11.5,-5.1117 11.5,-11.5 v 1 c 0,6.3883 -5.1117,11.5 -11.5,11.5 z"
         id="path4296"
         inkscape:connector-curvature="0" />
      <path
         style="color:#bebebe;display:inline;overflow:visible;visibility:visible;opacity:0.1;fill:#ffffff;fill-opacity:1;fill-rule:nonzero;stroke:none;stroke-width:0;marker:none;enable-background:accumulate"
         d="m 310,119 c -9.4353,0 -17,-7.5647 -17,-17 v -1 c 0,9.4353 7.5647,17 17,17 h 52 c 9.4353,0 17,-7.5647 17,-17 v 1 c 0,9.4353 -7.5647,17 -17,17 z"
         id="path4298"
         inkscape:connector-curvature="0" />
      <path
         style="color:#bebebe;display:inline;overflow:visible;visibility:visible;opacity:0.1;fill:#ffffff;fill-opacity:1;fill-rule:nonzero;stroke:none;stroke-width:0;marker:none;enable-background:accumulate"
         d="m 424,82 c -3.3413,0 -6,-2.658703 -6,-6 v -1 c 0,3.341297 2.6587,6 6,6 h 16 c 3.3413,0 6,-2.658703 6,-6 v 1 c 0,3.341297 -2.6587,6 -6,6 z"
         id="path4300"
         inkscape:connector-curvature="0" />
      <path
         style="color:#bebebe;display:inline;overflow:visible;visibility:visible;opacity:0.1;fill:#ffffff;fill-opacity:1;fill-rule:nonzero;stroke:none;stroke-width:0;marker:none;enable-background:accumulate"
         d="m 422,122 c -2.2333,0 -4,-1.7667 -4,-4 v -1 c 0,2.2333 1.7667,4 4,4 h 12 c 2.2333,0 4,-1.7667 4,-4 v 1 c 0,2.2333 -1.7667,4 -4,4 z"
         id="path4302"
         inkscape:connector-curvature="0" />
      <path
         style="color:#bebebe;display:inline;overflow:visible;visibility:visible;opacity:0.1;fill:#ffffff;fill-opacity:1;fill-rule:nonzero;stroke:none;stroke-width:0;marker:none;enable-background:accumulate"
         d="m 419,154.5 c -1.1253,0 -2,-0.8747 -2,-2 v -1 c 0,1.1253 0.8747,2 2,2 h 10 c 1.1253,0 2,-0.8747 2,-2 v 1 c 0,1.1253 -0.8747,2 -2,2 z"
         id="path4304"
         inkscape:connector-curvature="0" />
    </g>
    <g
       inkscape:groupmode="layer"
       id="layer3"
       inkscape:label="Border"
       style="display:inline"
       sodipodi:insensitive="true">
      <path
         style="color:#bebebe;display:inline;overflow:visible;visibility:visible;opacity:0.41;fill:#000000;fill-opacity:1;fill-rule:nonzero;stroke:none;stroke-width:0;marker:none;enable-background:accumulate"
         d="m 422,101 c -2.77,0 -5,2.23 -5,5 v 12 c 0,2.77 2.23,5 5,5 h 12 c 2.77,0 5,-2.23 5,-5 v -12 c 0,-2.77 -2.23,-5 -5,-5 z m 0,1 h 12 c 2.2333,0 4,1.7667 4,4 v 12 c 0,2.2333 -1.7667,4 -4,4 h -12 c -2.2333,0 -4,-1.7667 -4,-4 v -12 c 0,-2.2333 1.7667,-4 4,-4 z"
         id="rect4099"
         inkscape:connector-curvature="0" />
      <path
         style="color:#bebebe;display:inline;overflow:visible;visibility:visible;opacity:0.41;fill:#000000;fill-opacity:1;fill-rule:nonzero;stroke:none;stroke-width:0;marker:none;enable-background:accumulate"
         d="m 424,53 c -3.878,0 -7,3.122 -7,7 v 16 c 0,3.878 3.122,7 7,7 h 16 c 3.878,0 7,-3.122 7,-7 V 60 c 0,-3.878 -3.122,-7 -7,-7 z m 0,1 h 16 c 3.3413,0 6,2.658703 6,6 v 16 c 0,3.341297 -2.6587,6 -6,6 h -16 c -3.3413,0 -6,-2.658703 -6,-6 V 60 c 0,-3.341297 2.6587,-6 6,-6 z"
         id="rect4151"
         inkscape:connector-curvature="0" />
      <path
         style="color:#bebebe;display:inline;overflow:visible;visibility:visible;opacity:0.41;fill:#000000;fill-opacity:1;fill-rule:nonzero;stroke:none;stroke-width:0;marker:none;enable-background:accumulate"
         d="m 419,140 c -1.662,0 -3,1.338 -3,3 v 10 c 0,1.662 1.338,3 3,3 h 10 c 1.662,0 3,-1.338 3,-3 v -10 c 0,-1.662 -1.338,-3 -3,-3 z m 0,1 h 10 c 1.1253,0 2,0.8747 2,2 v 10 c 0,1.1253 -0.8747,2 -2,2 h -10 c -1.1253,0 -2,-0.8747 -2,-2 v -10 c 0,-1.1253 0.8747,-2 2,-2 z"
         id="rect4095"
         inkscape:connector-curvature="0" />
      <path
         style="color:#bebebe;display:inline;overflow:visible;visibility:visible;opacity:0.41;fill:#000000;fill-opacity:1;fill-rule:nonzero;stroke:none;stroke-width:0;marker:none;enable-background:accumulate"
         d="m 300,223 c -4.986,0 -9,4.014 -9,9 v 24 c 0,4.986 4.014,9 9,9 h 24 c 4.986,0 9,-4.014 9,-9 v -24 c 0,-4.986 -4.014,-9 -9,-9 z m 0,1 h 24 c 4.4493,0 8,3.5507 8,8 v 24 c 0,4.4493 -3.5507,8 -8,8 h -24 c -4.4493,0 -8,-3.5507 -8,-8 v -24 c 0,-4.4493 3.5507,-8 8,-8 z"
         id="rect4783"
         inkscape:connector-curvature="0" />
      <path
         style="color:#bebebe;display:inline;overflow:visible;visibility:visible;opacity:0.41;fill:#000000;fill-opacity:1;fill-rule:nonzero;stroke:none;stroke-width:0;marker:none;enable-background:accumulate"
         d="m 302.5,142 c -6.925,0 -12.5,5.575 -12.5,12.5 v 35 c 0,6.925 5.575,12.5 12.5,12.5 h 35 c 6.925,0 12.5,-5.575 12.5,-12.5 v -35 c 0,-6.925 -5.575,-12.5 -12.5,-12.5 z m 0,1 h 35 c 6.3883,0 11.5,5.1117 11.5,11.5 v 35 c 0,6.3883 -5.1117,11.5 -11.5,11.5 h -35 c -6.3883,0 -11.5,-5.1117 -11.5,-11.5 v -35 c 0,-6.3883 5.1117,-11.5 11.5,-11.5 z"
         id="rect4515"
         inkscape:connector-curvature="0" />
      <path
         style="color:#bebebe;display:inline;overflow:visible;visibility:visible;opacity:0.41;fill:#000000;fill-opacity:1;fill-rule:nonzero;stroke:none;stroke-width:0;marker:none;enable-background:accumulate"
         d="m 310,32 c -9.972,0 -18,8.028 -18,18 v 52 c 0,9.972 8.028,18 18,18 h 52 c 9.972,0 18,-8.028 18,-18 V 50 c 0,-9.972 -8.028,-18 -18,-18 z m 0,1 h 52 c 9.4353,0 17,7.564703 17,17 v 52 c 0,9.4353 -7.5647,17 -17,17 h -52 c -9.4353,0 -17,-7.5647 -17,-17 V 50 c 0,-9.435297 7.5647,-17 17,-17 z"
         id="rect4511"
         inkscape:connector-curvature="0" />
      <path
         style="color:#bebebe;display:inline;overflow:visible;visibility:visible;opacity:0.41;fill:#000000;fill-opacity:1;fill-rule:nonzero;stroke:none;stroke-width:0;marker:none;enable-background:accumulate"
         d="M 84,46 C 56.3,46 34,68.3 34,96 v 120 c 0,27.7 22.3,50 50,50 h 120 c 27.7,0 50,-22.3 50,-50 V 96 C 254,68.3 231.7,46 204,46 Z m 0,1 h 120 c 27.1633,0 49,21.836703 49,49 v 120 c 0,27.1633 -21.8367,49 -49,49 H 84 C 56.836703,265 35,243.1633 35,216 V 96 C 35,68.836703 56.836703,47 84,47 Z"
         id="rect4040"
         inkscape:connector-curvature="0" />
    </g>
  </g>
  <style
     type="text/css"
     id="style134">
	.st0{fill:#EF443B;}
</style>
</svg>
