<?xml version="1.0" encoding="UTF-8" standalone="no"?>
<!-- Created with Inkscape (http://www.inkscape.org/) -->

<svg
   width="480"
   height="300"
   viewBox="0 0 480 300"
   version="1.1"
   id="svg5"
   inkscape:version="1.3.2 (091e20ef0f, 2023-11-25, custom)"
   sodipodi:docname="htop.svg"
   xmlns:inkscape="http://www.inkscape.org/namespaces/inkscape"
   xmlns:sodipodi="http://sodipodi.sourceforge.net/DTD/sodipodi-0.dtd"
   xmlns="http://www.w3.org/2000/svg"
   xmlns:svg="http://www.w3.org/2000/svg">
  <sodipodi:namedview
     id="namedview7"
     pagecolor="#888888"
     bordercolor="#000000"
     borderopacity="0.25"
     inkscape:showpageshadow="true"
     inkscape:pageopacity="0"
     inkscape:pagecheckerboard="0"
     inkscape:deskcolor="#888888"
     inkscape:document-units="px"
     showgrid="false"
     showborder="false"
     inkscape:zoom="2.65"
     inkscape:cx="239.81132"
     inkscape:cy="150"
     inkscape:window-width="1920"
     inkscape:window-height="1008"
     inkscape:window-x="0"
     inkscape:window-y="0"
     inkscape:window-maximized="1"
     inkscape:current-layer="svg5" />
  <defs
     id="defs2" />
  <g
     id="Baseplate"
     style="display:none">
    <text
       y="19.774782"
       xml:space="preserve"
       x="15.006946"
       style="font-style:normal;font-variant:normal;font-weight:normal;font-stretch:normal;line-height:0%;font-family:'DejaVu Sans';-inkscape-font-specification:'DejaVu Sans';display:inline;fill:#000000;fill-opacity:1;stroke:none;enable-background:new"
       inkscape:label="context"
       id="context"><tspan
         style="font-style:normal;font-variant:normal;font-weight:normal;font-stretch:normal;font-size:18px;line-height:1.25;font-family:'DejaVu Sans';-inkscape-font-specification:'DejaVu Sans'"
         y="19.774782"
         x="15.006946"
         sodipodi:role="line"
         id="tspan3933">apps</tspan></text>
    <text
       y="19.774782"
       xml:space="preserve"
       x="122.48839"
       style="font-style:normal;font-variant:normal;font-weight:bold;font-stretch:normal;line-height:0%;font-family:'DejaVu Sans';-inkscape-font-specification:'DejaVu Sans Bold';text-align:start;writing-mode:lr-tb;text-anchor:start;display:inline;fill:#000000;fill-opacity:1;stroke:none;enable-background:new"
       inkscape:label="icon-name"
       id="icon-name"><tspan
         style="font-style:normal;font-variant:normal;font-weight:bold;font-stretch:normal;font-size:18px;line-height:1.25;font-family:'DejaVu Sans';-inkscape-font-specification:'DejaVu Sans Bold'"
         y="19.774782"
         x="122.48839"
         sodipodi:role="line"
         id="tspan3937">htop</tspan></text>
    <rect
       style="fill:#ffffff"
       id="256x256"
       width="256"
       height="256"
       x="16"
       y="28" />
    <rect
       style="fill:#ffffff"
       id="96x96"
       width="96"
       height="96"
       x="288"
       y="28" />
    <rect
       style="fill:#ffffff"
       id="64x64"
       width="64"
       height="64"
       x="288"
       y="140" />
    <rect
       style="fill:#ffffff"
       id="48x48"
       width="48"
       height="48"
       x="288"
       y="220" />
    <rect
       style="fill:#ffffff"
       id="32x32"
       width="32"
       height="32"
       x="416"
       y="52" />
    <rect
       style="fill:#ffffff"
       id="24x24"
       width="24"
       height="24"
       x="416"
       y="100" />
    <rect
       style="fill:#ffffff"
       id="22x22"
       width="22"
       height="22"
       x="417"
       y="101" />
    <rect
       style="fill:#ffffff"
       id="16x16"
       width="16"
       height="16"
       x="416"
       y="140" />
  </g>
  <g
     id="Shadow">
    <rect
       style="opacity:0.2;fill:#000000"
       id="rect651"
       width="224"
       height="224"
       x="32"
       y="46"
       ry="48" />
    <rect
       style="opacity:0.2;fill:#000000"
       id="rect769"
       width="84"
       height="85"
       x="294"
       y="34"
       ry="18" />
    <rect
       style="opacity:0.2;fill:#000000;fill-opacity:1"
       id="rect1131"
       width="56"
       height="56"
       x="292"
       y="145"
       ry="12" />
    <rect
       style="opacity:0.2;fill:#000000;fill-opacity:1"
       id="rect1261"
       width="42"
       height="42"
       x="291"
       y="224"
       ry="9" />
    <rect
       style="opacity:0.2;fill:#000000;fill-opacity:1"
       id="rect1364"
       width="28"
       height="29"
       x="418"
       y="54"
       ry="6" />
    <rect
       style="opacity:0.2;fill:#000000;fill-opacity:1"
       id="rect1398"
       width="16"
       height="16"
       x="416"
       y="141"
       ry="4" />
    <rect
       style="opacity:0.2;fill:#000000;fill-opacity:1"
       id="rect1432"
       width="20"
       height="20"
       x="418"
       y="103"
       ry="4" />
  </g>
  <g
     id="Background">
    <rect
       style="fill:#4f4f4f;fill-opacity:1"
       id="rect597"
       width="224"
       height="224"
       x="32"
       y="44"
       ry="48" />
    <rect
       style="opacity:1;fill:#4f4f4f;fill-opacity:1"
       id="rect771"
       width="84"
       height="84"
       x="294"
       y="34"
       ry="18" />
    <rect
       style="opacity:1;fill:#4f4f4f;fill-opacity:1"
       id="rect1133"
       width="56"
       height="56"
       x="292"
       y="144"
       ry="12" />
    <rect
       style="opacity:1;fill:#4f4f4f;fill-opacity:1"
       id="rect1263"
       width="42"
       height="42"
       x="291"
       y="223"
       ry="9" />
    <rect
       style="opacity:1;fill:#4f4f4f;fill-opacity:1"
       id="rect1366"
       width="28"
       height="28"
       x="418"
       y="54"
       ry="6" />
    <rect
       style="opacity:1;fill:#4f4f4f;fill-opacity:1"
       id="rect1400"
       width="16"
       height="16"
       x="416"
       y="140"
       ry="4" />
    <rect
       style="opacity:1;fill:#4f4f4f;fill-opacity:1"
       id="rect1434"
       width="20"
       height="20"
       x="418"
       y="102"
       ry="4" />
  </g>
  <g
     id="g5284">
    <g
       id="g5402"
       transform="matrix(0.5,0,0,0.5,207.5,114)">
      <path
         d="m 421,59 v 6 h 2 v -6 z m 4,0 v 6 h 2 v -6 z m 14,0 v 6 h 2 v -6 z m 4,0 v 6 h 2 v -6 z m -22,8 v 6 h 2 v -6 z m 4,0 v 6 h 2 v -6 z m 4,0 v 6 h 2 v -6 z m 6,0 v 6 h 2 v -6 z m 4,0 v 6 h 2 v -6 z m 4,0 v 6 h 2 v -6 z m -22,8 v 6 h 2 v -6 z m 4,0 v 6 h 2 v -6 z m 14,0 v 6 h 2 v -6 z m 4,0 v 6 h 2 v -6 z"
         style="opacity:0.2;fill:#000000;stroke-width:2"
         id="path1-3" />
      <path
         id="path2"
         style="fill:#8bc34a;stroke-width:2"
         d="m 425,58 v 6 h 2 v -6 z m 0,8 v 6 h 2 v -6 z m 0,8 v 6 h 2 v -6 z" />
      <path
         id="path3"
         style="fill:#ff9800;stroke-width:2"
         d="m 429,66 v 6 h 2 v -6 z m 6,0 v 6 h 2 v -6 z" />
      <path
         id="path4"
         style="fill:#ff5722;stroke-width:2"
         d="m 439,58 v 6 h 2 v -6 z m 0,8 v 6 h 2 v -6 z m 0,8 v 6 h 2 v -6 z" />
      <path
         id="path5"
         style="fill:#d4d4d4;stroke-width:2"
         d="m 421,58 v 6 h 2 v -6 z m 22,0 v 6 h 2 v -6 z m -22,8 v 6 h 2 v -6 z m 22,0 v 6 h 2 v -6 z m -22,8 v 6 h 2 v -6 z m 22,0 v 6 h 2 v -6 z" />
    </g>
    <g
       id="g5234"
       transform="matrix(0.49999563,0,0,0.49999563,272.00131,-9.4988769)">
      <path
         d="m 295.99997,229.99977 v 8.00007 h 2.00002 v -8.00007 z m 4.00004,0 v 8.00007 h 2.00002 v -8.00007 z m 4.00003,0 v 8.00007 h 2.00002 v -8.00007 z m 12.00011,0 v 8.00007 h 2.00001 v -8.00007 z m 4.00003,0 v 8.00007 h 2.00002 v -8.00007 z m 4.00004,0 v 8.00007 h 2.00001 v -8.00007 z m -28.00025,10.00009 v 8.00007 h 2.00002 v -8.00007 z m 4.00004,0 v 8.00007 h 2.00002 v -8.00007 z m 4.00003,0 v 8.00007 h 2.00002 v -8.00007 z m 4.00004,0 v 8.00007 h 2.00002 v -8.00007 z m 4.00003,0 v 8.00007 h 2.00002 v -8.00007 z m 4.00004,0 v 8.00007 h 2.00001 v -8.00007 z m 4.00003,0 v 8.00007 h 2.00002 v -8.00007 z m 4.00004,0 v 8.00007 h 2.00001 v -8.00007 z m -28.00025,10.00008 v 8.00007 h 2.00002 v -8.00007 z m 4.00004,0 v 8.00007 h 2.00002 v -8.00007 z m 4.00003,0 v 8.00007 h 2.00002 v -8.00007 z m 12.00011,0 v 8.00007 h 2.00001 v -8.00007 z m 4.00003,0 v 8.00007 h 2.00002 v -8.00007 z m 4.00004,0 v 8.00007 h 2.00001 v -8.00007 z"
         style="opacity:0.2;fill:#000000;stroke-width:2.00002"
         id="path1-5" />
      <path
         d="m 295.99997,228.99976 v 8.00007 h 2.00002 v -8.00007 z m 28.00025,0 v 8.00007 h 2.00001 v -8.00007 z m -28.00025,10.00009 v 8.00007 h 2.00002 v -8.00007 z m 28.00025,0 v 8.00007 h 2.00001 v -8.00007 z m -28.00025,10.00008 V 257 h 2.00002 v -8.00007 z m 28.00025,0 V 257 h 2.00001 v -8.00007 z"
         style="fill:#d4d4d4;fill-opacity:1;stroke-width:2.00002"
         id="path2-6" />
      <path
         d="m 300.00001,228.99976 v 8.00007 h 2.00002 v -8.00007 z m 4.00003,0 v 8.00007 h 2.00002 v -8.00007 z m -4.00003,10.00009 v 8.00007 h 2.00002 v -8.00007 z m 4.00003,0 v 8.00007 h 2.00002 v -8.00007 z m -4.00003,10.00008 V 257 h 2.00002 v -8.00007 z m 4.00003,0 V 257 h 2.00002 v -8.00007 z"
         style="fill:#8bc34a;stroke-width:2.00002"
         id="path3-2" />
      <path
         d="m 308.00008,238.99985 v 8.00007 h 2.00002 v -8.00007 z m 4.00003,0 v 8.00007 h 2.00002 v -8.00007 z"
         style="fill:#ff9800;stroke-width:2.00002"
         id="path4-9" />
      <path
         d="m 316.00015,228.99976 v 8.00007 h 2.00001 v -8.00007 z m 4.00003,0 v 8.00007 h 2.00002 v -8.00007 z m -4.00003,10.00009 v 8.00007 h 2.00001 v -8.00007 z m 4.00003,0 v 8.00007 h 2.00002 v -8.00007 z m -4.00003,10.00008 V 257 h 2.00001 v -8.00007 z m 4.00003,0 V 257 h 2.00002 v -8.00007 z"
         style="fill:#ff5722;stroke-width:2.00002"
         id="path5-1" />
    </g>
    <g
       id="g4325"
       transform="matrix(0.5,0,0,0.5,272,-18)">
      <path
         d="m 300,154 v 12 h 4 v -2 h -2 v -8 h 2 v -2 z m 6,0 v 12 h 2 v -12 z m 4,0 v 12 h 2 v -12 z m 18,0 v 12 h 2 v -12 z m 4,0 v 12 h 2 v -12 z m 4,0 v 2 h 2 v 8 h -2 v 2 h 4 v -12 z m -36,14 v 12 h 4 v -2 h -2 v -8 h 2 v -2 z m 6,0 v 12 h 2 v -12 z m 4,0 v 12 h 2 v -12 z m 4,0 v 12 h 2 v -12 z m 10,0 v 12 h 2 v -12 z m 4,0 v 12 h 2 v -12 z m 4,0 v 12 h 2 v -12 z m 4,0 v 2 h 2 v 8 h -2 v 2 h 4 v -12 z m -36,14 v 12 h 4 v -2 h -2 v -8 h 2 v -2 z m 6,0 v 12 h 2 v -12 z m 4,0 v 12 h 2 v -12 z m 18,0 v 12 h 2 v -12 z m 4,0 v 12 h 2 v -12 z m 4,0 v 2 h 2 v 8 h -2 v 2 h 4 v -12 z"
         style="opacity:0.2;fill:#000000;stroke-width:4"
         id="path1-2" />
      <path
         d="m 300,152 v 12 h 4 v -2 h -2 v -8 h 2 v -2 z m 36,0 v 2 h 2 v 8 h -2 v 2 h 4 v -12 z m -36,14 v 12 h 4 v -2 h -2 v -8 h 2 v -2 z m 36,0 v 2 h 2 v 8 h -2 v 2 h 4 v -12 z m -36,14 v 12 h 4 v -2 h -2 v -8 h 2 v -2 z m 36,0 v 2 h 2 v 8 h -2 v 2 h 4 v -12 z"
         style="fill:#d4d4d4;fill-opacity:1;stroke-width:2"
         id="path2-7" />
      <path
         d="m 306,152 v 12 h 2 v -12 z m 4,0 v 12 h 2 v -12 z m -4,14 v 12 h 2 v -12 z m 4,0 v 12 h 2 v -12 z m -4,14 v 12 h 2 v -12 z m 4,0 v 12 h 2 v -12 z"
         style="fill:#8bc34a;stroke-width:4"
         id="path3-0" />
      <path
         d="m 314,166 v 12 h 2 v -12 z m 10,0 v 12 h 2 v -12 z"
         style="fill:#ff9800;stroke-width:2"
         id="path4-93" />
      <path
         d="m 328,152 v 12 h 2 v -12 z m 4,0 v 12 h 2 v -12 z m -4,14 v 12 h 2 v -12 z m 4,0 v 12 h 2 v -12 z m -4,14 v 12 h 2 v -12 z m 4,0 v 12 h 2 v -12 z"
         style="fill:#ff5722;stroke-width:2"
         id="path5-6" />
    </g>
    <g
       id="g3091"
       transform="translate(-3,-2)">
      <path
         d="m 300,233 v 8 h 2 v -1 h -1 v -6 h 1 v -1 z m 3,0 v 8 h 2 v -8 z m 3,0 v 8 h 2 v -8 z m 16,0 v 8 h 2 v -8 z m 3,0 v 8 h 2 v -8 z m 3,0 v 1 h 1 v 6 h -1 v 1 h 2 v -8 z m -28,10 v 8 h 2 v -1 h -1 v -6 h 1 v -1 z m 3,0 v 8 h 2 v -8 z m 3,0 v 8 h 2 v -8 z m 3,0 v 8 h 2 v -8 z m 10,0 v 8 h 2 v -8 z m 3,0 v 8 h 2 v -8 z m 3,0 v 8 h 2 v -8 z m 3,0 v 1 h 1 v 6 h -1 v 1 h 2 v -8 z m -28,10 v 8 h 2 v -1 h -1 v -6 h 1 v -1 z m 3,0 v 8 h 2 v -8 z m 3,0 v 8 h 2 v -8 z m 16,0 v 8 h 2 v -8 z m 3,0 v 8 h 2 v -8 z m 3,0 v 1 h 1 v 6 h -1 v 1 h 2 v -8 z"
         style="opacity:0.2;fill:#000000;stroke-width:2"
         id="path1"
         sodipodi:nodetypes="cccccccccccccccccccccccccccccccccccccccccccccccccccccccccccccccccccccccccccccccccccccccccccccccccccccccccccccccccccccccccccc" />
      <path
         id="path1240"
         style="fill:#8bc34a;stroke-width:2"
         d="m 303,232 v 8 h 2 v -8 z m 3,0 v 8 h 2 v -8 z m -3,10 v 8 h 2 v -8 z m 3,0 v 8 h 2 v -8 z m -3,10 v 8 h 2 v -8 z m 3,0 v 8 h 2 v -8 z"
         sodipodi:nodetypes="cccccccccccccccccccccccccccccc" />
      <path
         d="m 309,242 v 8 h 2 v -8 z m 10,0 v 8 h 2 v -8 z"
         style="fill:#ff9800;stroke-width:2"
         id="path1212"
         sodipodi:nodetypes="cccccccccc" />
      <path
         id="path1128"
         style="fill:#ff5722;stroke-width:2"
         d="m 322,232 v 8 h 2 v -8 z m 3,0 v 8 h 2 v -8 z m -3,10 v 8 h 2 v -8 z m 3,0 v 8 h 2 v -8 z m -3,10 v 8 h 2 v -8 z m 3,0 v 8 h 2 v -8 z"
         sodipodi:nodetypes="cccccccccccccccccccccccccccccc" />
      <path
         id="path1156"
         style="fill:#d4d4d4;fill-opacity:1;stroke-width:2"
         d="m 300,232 v 8 h 2 v -1 h -1 v -6 h 1 v -1 z m 28,0 v 1 h 1 v 6 h -1 v 1 h 2 v -8 z m -28,10 v 8 h 2 v -1 h -1 v -6 h 1 v -1 z m 28,0 v 1 h 1 v 6 h -1 v 1 h 2 v -8 z m -28,10 v 8 h 2 v -1 h -1 v -6 h 1 v -1 z m 28,0 v 1 h 1 v 6 h -1 v 1 h 2 v -8 z"
         sodipodi:nodetypes="cccccccccccccccccccccccccccccccccccccccccccccccccccccc" />
    </g>
    <g
       id="g4077">
      <path
         id="path1-0"
         style="opacity:0.2;fill:#000000;stroke-width:4"
         d="m 299,153 v 12 h 4 v -2 h -2 v -8 h 2 v -2 z m 6,0 v 12 h 3 v -12 z m 5,0 v 12 h 3 v -12 z m 17,0 v 12 h 3 v -12 z m 5,0 v 12 h 3 v -12 z m 5,0 v 2 h 2 v 8 h -2 v 2 h 4 v -12 z m -38,14 v 12 h 4 v -2 h -2 v -8 h 2 v -2 z m 6,0 v 12 h 3 v -12 z m 5,0 v 12 h 3 v -12 z m 5,0 v 12 h 3 v -12 z m 7,0 v 12 h 3 v -12 z m 5,0 v 12 h 3 v -12 z m 5,0 v 12 h 3 v -12 z m 5,0 v 2 h 2 v 8 h -2 v 2 h 4 v -12 z m -38,14 v 12 h 4 v -2 h -2 v -8 h 2 v -2 z m 6,0 v 12 h 3 v -12 z m 5,0 v 12 h 3 v -12 z m 17,0 v 12 h 3 v -12 z m 5,0 v 12 h 3 v -12 z m 5,0 v 2 h 2 v 8 h -2 v 2 h 4 v -12 z" />
      <path
         id="path2-62"
         style="fill:#d4d4d4;fill-opacity:1;stroke-width:2"
         d="m 299,152 v 12 h 4 v -2 h -2 v -8 h 2 v -2 z m 38,0 v 2 h 2 v 8 h -2 v 2 h 4 v -12 z m -38,14 v 12 h 4 v -2 h -2 v -8 h 2 v -2 z m 38,0 v 2 h 2 v 8 h -2 v 2 h 4 v -12 z m -38,14 v 12 h 4 v -2 h -2 v -8 h 2 v -2 z m 38,0 v 2 h 2 v 8 h -2 v 2 h 4 v -12 z" />
      <path
         id="path3-6"
         style="fill:#8bc34a;stroke-width:4"
         d="m 305,152 v 12 h 3 v -12 z m 5,0 v 12 h 3 v -12 z m -5,14 v 12 h 3 v -12 z m 5,0 v 12 h 3 v -12 z m -5,14 v 12 h 3 v -12 z m 5,0 v 12 h 3 v -12 z" />
      <path
         id="path4-1"
         style="fill:#ff9800;stroke-width:2"
         d="m 315,166 v 12 h 3 v -12 z m 7,0 v 12 h 3 v -12 z" />
      <path
         id="path5-8"
         style="fill:#ff5722;stroke-width:2"
         d="m 327,152 v 12 h 3 v -12 z m 5,0 v 12 h 3 v -12 z m -5,14 v 12 h 3 v -12 z m 5,0 v 12 h 3 v -12 z m -5,14 v 12 h 3 v -12 z m 5,0 v 12 h 3 v -12 z" />
    </g>
    <g
       id="g3615"
       transform="matrix(2,0,0,2,-288,-412)">
      <path
         d="m 297.00001,229.5 v 9 h 3 V 237 h -1.5 v -6 h 1.5 v -1.5 z m 4.5,0 v 9 h 1.5 v -9 z m 3,0 v 9 h 1.5 v -9 z m 13.5,0 v 9 h 1.5 v -9 z m 3,0 v 9 h 1.5 v -9 z m 3,0 v 1.5 h 1.5 v 6 h -1.5 v 1.5 h 3 v -9 z m -27,10.5 v 9 h 3 v -1.5 h -1.5 v -6 h 1.5 V 240 Z m 4.5,0 v 9 h 1.5 v -9 z m 3,0 v 9 h 1.5 v -9 z m 3,0 v 9 h 1.5 v -9 z m 7.5,0 v 9 h 1.5 v -9 z m 3,0 v 9 h 1.5 v -9 z m 3,0 v 9 h 1.5 v -9 z m 3,0 v 1.5 h 1.5 v 6 h -1.5 v 1.5 h 3 v -9 z m -27,10.5 v 9 h 3 V 258 h -1.5 v -6 h 1.5 v -1.5 z m 4.5,0 v 9 h 1.5 v -9 z m 3,0 v 9 h 1.5 v -9 z m 13.5,0 v 9 h 1.5 v -9 z m 3,0 v 9 h 1.5 v -9 z m 3,0 v 1.5 h 1.5 v 6 h -1.5 v 1.5 h 3 v -9 z"
         style="opacity:0.2;fill:#000000;stroke-width:3"
         id="path1-7" />
      <path
         d="m 297.00001,229 v 9 h 3 v -1.5 h -1.5 v -6 h 1.5 V 229 Z m 27,0 v 1.5 h 1.5 v 6 h -1.5 v 1.5 h 3 v -9 z m -27,10.5 v 9 h 3 V 247 h -1.5 v -6 h 1.5 v -1.5 z m 27,0 v 1.5 h 1.5 v 6 h -1.5 v 1.5 h 3 v -9 z m -27,10.5 v 9 h 3 v -1.5 h -1.5 v -6 h 1.5 V 250 Z m 27,0 v 1.5 h 1.5 v 6 h -1.5 v 1.5 h 3 v -9 z"
         style="fill:#d4d4d4;fill-opacity:1;stroke-width:1.5"
         id="path2-9" />
      <path
         d="m 301.50001,229 v 9 h 1.5 v -9 z m 3,0 v 9 h 1.5 v -9 z m -3,10.5 v 9 h 1.5 v -9 z m 3,0 v 9 h 1.5 v -9 z m -3,10.5 v 9 h 1.5 v -9 z m 3,0 v 9 h 1.5 v -9 z"
         style="fill:#8bc34a;stroke-width:3"
         id="path3-20" />
      <path
         d="m 307.50001,239.5 v 9 h 1.5 v -9 z m 7.5,0 v 9 h 1.5 v -9 z"
         style="fill:#ff9800;stroke-width:1.5"
         id="path4-2" />
      <path
         d="m 318.00001,229 v 9 h 1.5 v -9 z m 3,0 v 9 h 1.5 v -9 z m -3,10.5 v 9 h 1.5 v -9 z m 3,0 v 9 h 1.5 v -9 z m -3,10.5 v 9 h 1.5 v -9 z m 3,0 v 9 h 1.5 v -9 z"
         style="fill:#ff5722;stroke-width:1.5"
         id="path5-3" />
    </g>
    <g
       id="g4927"
       transform="matrix(4,0,0,4,-1136,-532)">
      <path
         id="path1-75"
         style="opacity:0.2;fill:#000000;stroke-width:4"
         d="m 298.99999,152.49999 v 12 h 4 v -2 h -2 v -8 h 2 v -2 z m 6,0 v 12 h 3 v -12 z m 5,0 v 12 h 3 v -12 z m 17,0 v 12 h 3 v -12 z m 5,0 v 12 h 3 v -12 z m 5,0 v 2 h 2 v 8 h -2 v 2 h 4 v -12 z m -38,14 v 12 h 4 v -2 h -2 v -8 h 2 v -2 z m 6,0 v 12 h 3 v -12 z m 5,0 v 12 h 3 v -12 z m 5,0 v 12 h 3 v -12 z m 7,0 v 12 h 3 v -12 z m 5,0 v 12 h 3 v -12 z m 5,0 v 12 h 3 v -12 z m 5,0 v 2 h 2 v 8 h -2 v 2 h 4 v -12 z m -38,14 v 12 h 4 v -2 h -2 v -8 h 2 v -2 z m 6,0 v 12 h 3 v -12 z m 5,0 v 12 h 3 v -12 z m 17,0 v 12 h 3 v -12 z m 5,0 v 12 h 3 v -12 z m 5,0 v 2 h 2 v 8 h -2 v 2 h 4 v -12 z" />
      <path
         id="path2-92"
         style="fill:#d4d4d4;fill-opacity:1;stroke-width:2"
         d="m 298.99999,151.99999 v 12 h 4 v -2 h -2 v -8 h 2 v -2 z m 38,0 v 2 h 2 v 8 h -2 v 2 h 4 v -12 z m -38,14 v 12 h 4 v -2 h -2 v -8 h 2 v -2 z m 38,0 v 2 h 2 v 8 h -2 v 2 h 4 v -12 z m -38,14 v 12 h 4 v -2 h -2 v -8 h 2 v -2 z m 38,0 v 2 h 2 v 8 h -2 v 2 h 4 v -12 z" />
      <path
         id="path3-28"
         style="fill:#8bc34a;stroke-width:4"
         d="m 304.99999,151.99999 v 12 h 3 v -12 z m 5,0 v 12 h 3 v -12 z m -5,14 v 12 h 3 v -12 z m 5,0 v 12 h 3 v -12 z m -5,14 v 12 h 3 v -12 z m 5,0 v 12 h 3 v -12 z" />
      <path
         id="path4-97"
         style="fill:#ff9800;stroke-width:2"
         d="m 314.99999,165.99999 v 12 h 3 v -12 z m 7,0 v 12 h 3 v -12 z" />
      <path
         id="path5-36"
         style="fill:#ff5722;stroke-width:2"
         d="m 326.99999,151.99999 v 12 h 3 v -12 z m 5,0 v 12 h 3 v -12 z m -5,14 v 12 h 3 v -12 z m 5,0 v 12 h 3 v -12 z m -5,14 v 12 h 3 v -12 z m 5,0 v 12 h 3 v -12 z" />
    </g>
  </g>
  <g
     id="Highlights">
    <path
       id="rect653"
       style="opacity:0.1;fill:#ffffff"
       d="M 80,44 C 53.408027,44 32,65.408027 32,92 v 2 C 32,67.408027 53.408027,46 80,46 h 128 c 26.59197,0 48,21.408027 48,48 V 92 C 256,65.408027 234.59197,44 208,44 Z"
       sodipodi:nodetypes="sscsscsss" />
    <path
       id="rect773"
       style="opacity:0.1;fill:#ffffff"
       d="m 312,34 c -9.97199,0 -18,8.02801 -18,18 v 1 c 0,-9.97199 8.02801,-18 18,-18 h 48 c 9.97199,0 18,8.02801 18,18 v -1 c 0,-9.97199 -8.02801,-18 -18,-18 z" />
    <path
       id="rect1135"
       style="opacity:0.1;fill:#ffffff;fill-opacity:1"
       d="m 304,144 c -6.64799,0 -12,5.35201 -12,12 v 1 c 0,-6.64799 5.35201,-12 12,-12 h 32 c 6.64799,0 12,5.35201 12,12 v -1 c 0,-6.64799 -5.35201,-12 -12,-12 z" />
    <path
       id="rect1265"
       style="opacity:0.1;fill:#ffffff;fill-opacity:1"
       d="m 300,223 c -4.986,0 -9,4.014 -9,9 v 1 c 0,-4.986 4.014,-9 9,-9 h 24 c 4.986,0 9,4.014 9,9 v -1 c 0,-4.986 -4.014,-9 -9,-9 z" />
    <path
       id="rect1368"
       style="opacity:0.1;fill:#ffffff;fill-opacity:1"
       d="m 424,54 c -3.324,0 -6,2.676003 -6,6 v 1 c 0,-3.323997 2.676,-6 6,-6 h 16 c 3.324,0 6,2.676003 6,6 v -1 c 0,-3.323997 -2.676,-6 -6,-6 z" />
    <path
       id="rect1402"
       style="opacity:0.1;fill:#ffffff;fill-opacity:1"
       d="m 420,140 c -2.216,0 -4,1.784 -4,4 v 1 c 0,-2.216 1.784,-4 4,-4 h 8 c 2.216,0 4,1.784 4,4 v -1 c 0,-2.216 -1.784,-4 -4,-4 z" />
    <path
       id="rect1436"
       style="opacity:0.1;fill:#ffffff;fill-opacity:1"
       d="m 422,102 c -2.216,0 -4,1.784 -4,4 v 1 c 0,-2.216 1.784,-4 4,-4 h 12 c 2.216,0 4,1.784 4,4 v -1 c 0,-2.216 -1.784,-4 -4,-4 z" />
  </g>
</svg>
