<?xml version="1.0" encoding="UTF-8" standalone="no"?>
<!-- Created with Inkscape (http://www.inkscape.org/) -->

<svg
   width="480"
   height="300"
   viewBox="0 0 480 300"
   version="1.1"
   id="svg5"
   inkscape:version="1.3 (1:1.3+202307231459+0e150ed6c4)"
   sodipodi:docname="im-chooser.svg"
   xmlns:inkscape="http://www.inkscape.org/namespaces/inkscape"
   xmlns:sodipodi="http://sodipodi.sourceforge.net/DTD/sodipodi-0.dtd"
   xmlns="http://www.w3.org/2000/svg"
   xmlns:svg="http://www.w3.org/2000/svg">
  <sodipodi:namedview
     id="namedview7"
     pagecolor="#888888"
     bordercolor="#000000"
     borderopacity="0.25"
     inkscape:showpageshadow="true"
     inkscape:pageopacity="0"
     inkscape:pagecheckerboard="0"
     inkscape:deskcolor="#888888"
     inkscape:document-units="px"
     showgrid="false"
     showborder="false"
     inkscape:zoom="1.4958333"
     inkscape:cx="240"
     inkscape:cy="150.08357"
     inkscape:window-width="1920"
     inkscape:window-height="1008"
     inkscape:window-x="0"
     inkscape:window-y="0"
     inkscape:window-maximized="1"
     inkscape:current-layer="svg5" />
  <defs
     id="defs2" />
  <g
     id="Baseplate"
     style="display:none">
    <text
       y="19.774782"
       xml:space="preserve"
       x="15.006946"
       style="font-style:normal;font-variant:normal;font-weight:normal;font-stretch:normal;line-height:0%;font-family:'DejaVu Sans';-inkscape-font-specification:'DejaVu Sans';display:inline;fill:#000000;fill-opacity:1;stroke:none;enable-background:new"
       inkscape:label="context"
       id="context"><tspan
         style="font-style:normal;font-variant:normal;font-weight:normal;font-stretch:normal;font-size:18px;line-height:1.25;font-family:'DejaVu Sans';-inkscape-font-specification:'DejaVu Sans'"
         y="19.774782"
         x="15.006946"
         sodipodi:role="line"
         id="tspan3933">apps</tspan></text>
    <text
       y="19.774782"
       xml:space="preserve"
       x="122.48839"
       style="font-style:normal;font-variant:normal;font-weight:bold;font-stretch:normal;line-height:0%;font-family:'DejaVu Sans';-inkscape-font-specification:'DejaVu Sans Bold';text-align:start;writing-mode:lr-tb;text-anchor:start;display:inline;fill:#000000;fill-opacity:1;stroke:none;enable-background:new"
       inkscape:label="icon-name"
       id="icon-name"><tspan
         style="font-style:normal;font-variant:normal;font-weight:bold;font-stretch:normal;font-size:18px;line-height:1.25;font-family:'DejaVu Sans';-inkscape-font-specification:'DejaVu Sans Bold'"
         y="19.774782"
         x="122.48839"
         sodipodi:role="line"
         id="tspan3937">im-chooser</tspan></text>
    <rect
       style="fill:#ffffff"
       id="256x256"
       width="256"
       height="256"
       x="16"
       y="28" />
    <rect
       style="fill:#ffffff"
       id="96x96"
       width="96"
       height="96"
       x="288"
       y="28" />
    <rect
       style="fill:#ffffff"
       id="64x64"
       width="64"
       height="64"
       x="288"
       y="140" />
    <rect
       style="fill:#ffffff"
       id="48x48"
       width="48"
       height="48"
       x="288"
       y="220" />
    <rect
       style="fill:#ffffff"
       id="32x32"
       width="32"
       height="32"
       x="416"
       y="52" />
    <rect
       style="fill:#ffffff"
       id="24x24"
       width="24"
       height="24"
       x="416"
       y="100" />
    <rect
       style="fill:#ffffff"
       id="22x22"
       width="22"
       height="22"
       x="417"
       y="101" />
    <rect
       style="fill:#ffffff"
       id="16x16"
       width="16"
       height="16"
       x="416"
       y="140" />
  </g>
  <g
     id="Shadow">
    <rect
       style="opacity:0.2;fill:#000000"
       id="rect651"
       width="224"
       height="224"
       x="32"
       y="46"
       ry="48" />
    <rect
       style="opacity:0.2;fill:#000000"
       id="rect769"
       width="84"
       height="85"
       x="294"
       y="34"
       ry="18" />
    <rect
       style="opacity:0.2;fill:#000000;fill-opacity:1"
       id="rect1131"
       width="56"
       height="56"
       x="292"
       y="145"
       ry="12" />
    <rect
       style="opacity:0.2;fill:#000000;fill-opacity:1"
       id="rect1261"
       width="42"
       height="42"
       x="291"
       y="224"
       ry="9" />
    <rect
       style="opacity:0.2;fill:#000000;fill-opacity:1"
       id="rect1364"
       width="28"
       height="29"
       x="418"
       y="54"
       ry="6" />
    <rect
       style="opacity:0.2;fill:#000000;fill-opacity:1"
       id="rect1398"
       width="16"
       height="16"
       x="416"
       y="141"
       ry="4" />
    <rect
       style="opacity:0.2;fill:#000000;fill-opacity:1"
       id="rect1432"
       width="20"
       height="20"
       x="418"
       y="103"
       ry="4" />
  </g>
  <g
     id="Background">
    <rect
       style="fill:#adadad;fill-opacity:1"
       id="rect597"
       width="224"
       height="224"
       x="32"
       y="44"
       ry="48" />
    <rect
       style="opacity:1;fill:#adadad;fill-opacity:1"
       id="rect771"
       width="84"
       height="84"
       x="294"
       y="34"
       ry="18" />
    <rect
       style="opacity:1;fill:#adadad;fill-opacity:1"
       id="rect1133"
       width="56"
       height="56"
       x="292"
       y="144"
       ry="12" />
    <rect
       style="opacity:1;fill:#adadad;fill-opacity:1"
       id="rect1263"
       width="42"
       height="42"
       x="291"
       y="223"
       ry="9" />
    <rect
       style="opacity:1;fill:#adadad;fill-opacity:1"
       id="rect1366"
       width="28"
       height="28"
       x="418"
       y="54"
       ry="6" />
    <rect
       style="opacity:1;fill:#adadad;fill-opacity:1"
       id="rect1400"
       width="16"
       height="16"
       x="416"
       y="140"
       ry="4" />
    <rect
       style="opacity:1;fill:#adadad;fill-opacity:1"
       id="rect1434"
       width="20"
       height="20"
       x="418"
       y="102"
       ry="4" />
  </g>
  <g
     id="g1">
    <path
       d="m 418,144.5 c -0.55228,0 -1,0.44772 -1,1 0,0.55228 0.44772,1 1,1 0.55228,0 1,-0.44772 1,-1 0,-0.55228 -0.44772,-1 -1,-1 z m 3,0 c -0.55228,0 -1,0.44772 -1,1 0,0.55228 0.44772,1 1,1 0.55228,0 1,-0.44772 1,-1 0,-0.55228 -0.44772,-1 -1,-1 z m 3,0 c -0.55228,0 -1,0.44772 -1,1 0,0.55228 0.44772,1 1,1 0.55228,0 1,-0.44772 1,-1 0,-0.55228 -0.44772,-1 -1,-1 z m 3,0 c -0.55228,0 -1,0.44772 -1,1 0,0.55228 0.44772,1 1,1 0.55228,0 1,-0.44772 1,-1 0,-0.55228 -0.44772,-1 -1,-1 z m 3,0 c -0.55228,0 -1,0.44772 -1,1 0,0.55228 0.44772,1 1,1 0.55228,0 1,-0.44772 1,-1 0,-0.55228 -0.44772,-1 -1,-1 z m -10,3 c -0.55228,0 -1,0.44772 -1,1 0,0.55228 0.44772,1 1,1 0.55228,0 1,-0.44772 1,-1 0,-0.55228 -0.44772,-1 -1,-1 z m 3,0 c -0.55228,0 -1,0.44772 -1,1 0,0.55228 0.44772,1 1,1 0.55228,0 1,-0.44772 1,-1 0,-0.55228 -0.44772,-1 -1,-1 z m 3,0 c -0.55228,0 -1,0.44772 -1,1 0,0.55228 0.44772,1 1,1 0.55228,0 1,-0.44772 1,-1 0,-0.55228 -0.44772,-1 -1,-1 z m 3,0 c -0.55228,0 -1,0.44772 -1,1 0,0.55228 0.44772,1 1,1 0.55228,0 1,-0.44772 1,-1 0,-0.55228 -0.44772,-1 -1,-1 z m -10.5,4 c -0.277,0 -0.5,0.223 -0.5,0.5 v 1 c 0,0.277 0.223,0.5 0.5,0.5 h 11 c 0.277,0 0.5,-0.223 0.5,-0.5 v -1 c 0,-0.277 -0.223,-0.5 -0.5,-0.5 z"
       style="opacity:0.2;fill:#000000"
       id="path367" />
    <path
       d="m 422,107.5 c -0.55228,0 -1,0.44772 -1,1 0,0.55228 0.44772,1 1,1 0.55228,0 1,-0.44772 1,-1 0,-0.55228 -0.44772,-1 -1,-1 z m 3,0 c -0.55228,0 -1,0.44772 -1,1 0,0.55228 0.44772,1 1,1 0.55228,0 1,-0.44772 1,-1 0,-0.55228 -0.44772,-1 -1,-1 z m 3,0 c -0.55228,0 -1,0.44772 -1,1 0,0.55228 0.44772,1 1,1 0.55228,0 1,-0.44772 1,-1 0,-0.55228 -0.44772,-1 -1,-1 z m 3,0 c -0.55228,0 -1,0.44772 -1,1 0,0.55228 0.44772,1 1,1 0.55228,0 1,-0.44772 1,-1 0,-0.55228 -0.44772,-1 -1,-1 z m 3,0 c -0.55228,0 -1,0.44772 -1,1 0,0.55228 0.44772,1 1,1 0.55228,0 1,-0.44772 1,-1 0,-0.55228 -0.44772,-1 -1,-1 z m -10,4 c -0.55228,0 -1,0.44772 -1,1 0,0.55228 0.44772,1 1,1 0.55228,0 1,-0.44772 1,-1 0,-0.55228 -0.44772,-1 -1,-1 z m 3,0 c -0.55228,0 -1,0.44772 -1,1 0,0.55228 0.44772,1 1,1 0.55228,0 1,-0.44772 1,-1 0,-0.55228 -0.44772,-1 -1,-1 z m 3,0 c -0.55228,0 -1,0.44772 -1,1 0,0.55228 0.44772,1 1,1 0.55228,0 1,-0.44772 1,-1 0,-0.55228 -0.44772,-1 -1,-1 z m 3,0 c -0.55228,0 -1,0.44772 -1,1 0,0.55228 0.44772,1 1,1 0.55228,0 1,-0.44772 1,-1 0,-0.55228 -0.44772,-1 -1,-1 z m -11.5,4 c -0.277,0 -0.5,0.223 -0.5,0.5 v 1 c 0,0.277 0.223,0.5 0.5,0.5 h 13 c 0.277,0 0.5,-0.223 0.5,-0.5 v -1 c 0,-0.277 -0.223,-0.5 -0.5,-0.5 z"
       id="path1153"
       style="opacity:0.2;fill:#000000" />
    <path
       d="m 421.5,62 c -0.82843,0 -1.5,0.671573 -1.5,1.5 0,0.828427 0.67157,1.5 1.5,1.5 0.82843,0 1.5,-0.671573 1.5,-1.5 0,-0.828427 -0.67157,-1.5 -1.5,-1.5 z m 5,0 c -0.82843,0 -1.5,0.671573 -1.5,1.5 0,0.828427 0.67157,1.5 1.5,1.5 0.82843,0 1.5,-0.671573 1.5,-1.5 0,-0.828427 -0.67157,-1.5 -1.5,-1.5 z m 5,0 c -0.82843,0 -1.5,0.671573 -1.5,1.5 0,0.828427 0.67157,1.5 1.5,1.5 0.82843,0 1.5,-0.671573 1.5,-1.5 0,-0.828427 -0.67157,-1.5 -1.5,-1.5 z m 5,0 c -0.82843,0 -1.5,0.671573 -1.5,1.5 0,0.828427 0.67157,1.5 1.5,1.5 0.82843,0 1.5,-0.671573 1.5,-1.5 0,-0.828427 -0.67157,-1.5 -1.5,-1.5 z m 5,0 c -0.82843,0 -1.5,0.671573 -1.5,1.5 0,0.828427 0.67157,1.5 1.5,1.5 0.82843,0 1.5,-0.671573 1.5,-1.5 0,-0.828427 -0.67157,-1.5 -1.5,-1.5 z m -17,6 c -0.82843,0 -1.5,0.671573 -1.5,1.5 0,0.828427 0.67157,1.5 1.5,1.5 0.82843,0 1.5,-0.671573 1.5,-1.5 0,-0.828427 -0.67157,-1.5 -1.5,-1.5 z m 5,0 c -0.82843,0 -1.5,0.671573 -1.5,1.5 0,0.828427 0.67157,1.5 1.5,1.5 0.82843,0 1.5,-0.671573 1.5,-1.5 0,-0.828427 -0.67157,-1.5 -1.5,-1.5 z m 5,0 c -0.82843,0 -1.5,0.671573 -1.5,1.5 0,0.828427 0.67157,1.5 1.5,1.5 0.82843,0 1.5,-0.671573 1.5,-1.5 0,-0.828427 -0.67157,-1.5 -1.5,-1.5 z m 5,0 c -0.82843,0 -1.5,0.671573 -1.5,1.5 0,0.828427 0.67157,1.5 1.5,1.5 0.82843,0 1.5,-0.671573 1.5,-1.5 0,-0.828427 -0.67157,-1.5 -1.5,-1.5 z m -16.75,6 c -0.4155,0 -0.75,0.3345 -0.75,0.75 v 1.5 c 0,0.415499 0.3345,0.75 0.75,0.75 h 18.5 c 0.4155,0 0.75,-0.334501 0.75,-0.75 v -1.5 C 442,74.3345 441.6655,74 441.25,74 Z"
       style="opacity:0.2;fill:#000000;fill-opacity:1;stroke-width:1;stroke-linecap:square"
       id="path2953-7" />
    <path
       d="m 298,235 c -1.10457,0 -2,0.89543 -2,2 0,1.10457 0.89543,2 2,2 1.10457,0 2,-0.89543 2,-2 0,-1.10457 -0.89543,-2 -2,-2 z m 7,0 c -1.10457,0 -2,0.89543 -2,2 0,1.10457 0.89543,2 2,2 1.10457,0 2,-0.89543 2,-2 0,-1.10457 -0.89543,-2 -2,-2 z m 7,0 c -1.10457,0 -2,0.89543 -2,2 0,1.10457 0.89543,2 2,2 1.10457,0 2,-0.89543 2,-2 0,-1.10457 -0.89543,-2 -2,-2 z m 7,0 c -1.10457,0 -2,0.89543 -2,2 0,1.10457 0.89543,2 2,2 1.10457,0 2,-0.89543 2,-2 0,-1.10457 -0.89543,-2 -2,-2 z m 7,0 c -1.10457,0 -2,0.89543 -2,2 0,1.10457 0.89543,2 2,2 1.10457,0 2,-0.89543 2,-2 0,-1.10457 -0.89543,-2 -2,-2 z m -24,8 c -1.10457,0 -2,0.89543 -2,2 0,1.10457 0.89543,2 2,2 1.10457,0 2,-0.89543 2,-2 0,-1.10457 -0.89543,-2 -2,-2 z m 7,0 c -1.10457,0 -2,0.89543 -2,2 0,1.10457 0.89543,2 2,2 1.10457,0 2,-0.89543 2,-2 0,-1.10457 -0.89543,-2 -2,-2 z m 7,0 c -1.10457,0 -2,0.89543 -2,2 0,1.10457 0.89543,2 2,2 1.10457,0 2,-0.89543 2,-2 0,-1.10457 -0.89543,-2 -2,-2 z m 7,0 c -1.10457,0 -2,0.89543 -2,2 0,1.10457 0.89543,2 2,2 1.10457,0 2,-0.89543 2,-2 0,-1.10457 -0.89543,-2 -2,-2 z m -23,8 c -0.554,0 -1,0.446 -1,1 v 2 c 0,0.554 0.446,1 1,1 h 24 c 0.554,0 1,-0.446 1,-1 v -2 c 0,-0.554 -0.446,-1 -1,-1 z"
       id="path1153-5"
       style="opacity:0.2;fill:#000000;stroke-width:2"
       sodipodi:nodetypes="ssssssssssssssssssssssssssssssssssssssssssssssssssssss" />
    <path
       d="m 300,158 c -1.65685,0 -3,1.34315 -3,3 0,1.65685 1.34315,3 3,3 1.65685,0 3,-1.34315 3,-3 0,-1.65685 -1.34315,-3 -3,-3 z m 10,0 c -1.65685,0 -3,1.34315 -3,3 0,1.65685 1.34315,3 3,3 1.65685,0 3,-1.34315 3,-3 0,-1.65685 -1.34315,-3 -3,-3 z m 10,0 c -1.65685,0 -3,1.34315 -3,3 0,1.65685 1.34315,3 3,3 1.65685,0 3,-1.34315 3,-3 0,-1.65685 -1.34315,-3 -3,-3 z m 10,0 c -1.65685,0 -3,1.34315 -3,3 0,1.65685 1.34315,3 3,3 1.65685,0 3,-1.34315 3,-3 0,-1.65685 -1.34315,-3 -3,-3 z m 10,0 c -1.65685,0 -3,1.34315 -3,3 0,1.65685 1.34315,3 3,3 1.65685,0 3,-1.34315 3,-3 0,-1.65685 -1.34315,-3 -3,-3 z m -35,12 c -1.65685,0 -3,1.34315 -3,3 0,1.65685 1.34315,3 3,3 1.65685,0 3,-1.34315 3,-3 0,-1.65685 -1.34315,-3 -3,-3 z m 10,0 c -1.65685,0 -3,1.34315 -3,3 0,1.65685 1.34315,3 3,3 1.65685,0 3,-1.34315 3,-3 0,-1.65685 -1.34315,-3 -3,-3 z m 10,0 c -1.65685,0 -3,1.34315 -3,3 0,1.65685 1.34315,3 3,3 1.65685,0 3,-1.34315 3,-3 0,-1.65685 -1.34315,-3 -3,-3 z m 10,0 c -1.65685,0 -3,1.34315 -3,3 0,1.65685 1.34315,3 3,3 1.65685,0 3,-1.34315 3,-3 0,-1.65685 -1.34315,-3 -3,-3 z m -33.5,12 c -0.831,0 -1.5,0.669 -1.5,1.5 v 3 c 0,0.831 0.669,1.5 1.5,1.5 h 37 c 0.831,0 1.5,-0.669 1.5,-1.5 v -3 c 0,-0.831 -0.669,-1.5 -1.5,-1.5 z"
       style="opacity:0.2;fill:#000000;fill-opacity:1;stroke-width:2;stroke-linecap:square"
       id="path2953-70" />
    <path
       d="m 306.5,55 c -2.48528,0 -4.5,2.014719 -4.5,4.5 0,2.485281 2.01472,4.5 4.5,4.5 2.48528,0 4.5,-2.014719 4.5,-4.5 0,-2.485281 -2.01472,-4.5 -4.5,-4.5 z m 15,0 c -2.48528,0 -4.5,2.014719 -4.5,4.5 0,2.485281 2.01472,4.5 4.5,4.5 2.48528,0 4.5,-2.014719 4.5,-4.5 0,-2.485281 -2.01472,-4.5 -4.5,-4.5 z m 15,0 c -2.48528,0 -4.5,2.014719 -4.5,4.5 0,2.485281 2.01472,4.5 4.5,4.5 2.48528,0 4.5,-2.014719 4.5,-4.5 0,-2.485281 -2.01472,-4.5 -4.5,-4.5 z m 15,0 c -2.48528,0 -4.5,2.014719 -4.5,4.5 0,2.485281 2.01472,4.5 4.5,4.5 2.48528,0 4.5,-2.014719 4.5,-4.5 0,-2.485281 -2.01472,-4.5 -4.5,-4.5 z m 15,0 c -2.48528,0 -4.5,2.014719 -4.5,4.5 0,2.485281 2.01472,4.5 4.5,4.5 2.48528,0 4.5,-2.014719 4.5,-4.5 0,-2.485281 -2.01472,-4.5 -4.5,-4.5 z M 314,73 c -2.48528,0 -4.5,2.014719 -4.5,4.5 0,2.485281 2.01472,4.5 4.5,4.5 2.48528,0 4.5,-2.014719 4.5,-4.5 0,-2.485281 -2.01472,-4.5 -4.5,-4.5 z m 15,0 c -2.48528,0 -4.5,2.014719 -4.5,4.5 0,2.485281 2.01472,4.5 4.5,4.5 2.48528,0 4.5,-2.014719 4.5,-4.5 0,-2.485281 -2.01472,-4.5 -4.5,-4.5 z m 15,0 c -2.48528,0 -4.5,2.014719 -4.5,4.5 0,2.485281 2.01472,4.5 4.5,4.5 2.48528,0 4.5,-2.014719 4.5,-4.5 0,-2.485281 -2.01472,-4.5 -4.5,-4.5 z m 15,0 c -2.48528,0 -4.5,2.014719 -4.5,4.5 0,2.485281 2.01472,4.5 4.5,4.5 2.48528,0 4.5,-2.014719 4.5,-4.5 0,-2.485281 -2.01472,-4.5 -4.5,-4.5 z m -50.25,18 c -1.2465,0 -2.25,1.0035 -2.25,2.25 v 4.5 c 0,1.2465 1.0035,2.25 2.25,2.25 h 55.5 c 1.2465,0 2.25,-1.0035 2.25,-2.25 v -4.5 c 0,-1.2465 -1.0035,-2.25 -2.25,-2.25 z"
       style="opacity:0.2;fill:#000000;fill-opacity:1;stroke-width:3;stroke-linecap:square"
       id="path2953-6" />
    <path
       d="m 64.000008,98 c -6.62742,0 -12.000004,5.37258 -12.000004,12 0,6.62742 5.372584,12 12.000004,12 6.627416,0 12.000002,-5.37258 12.000002,-12 0,-6.62742 -5.372586,-12 -12.000002,-12 z M 104,98 c -6.62741,0 -12,5.37258 -12,12 0,6.62742 5.37259,12 12,12 6.62742,0 12,-5.37258 12,-12 0,-6.62742 -5.37258,-12 -12,-12 z m 40,0 c -6.6274,0 -12,5.37258 -12,12 0,6.62742 5.3726,12 12,12 6.62742,0 12,-5.37258 12,-12 0,-6.62742 -5.37258,-12 -12,-12 z m 40,0 c -6.62742,0 -12,5.37258 -12,12 0,6.62742 5.37258,12 12,12 6.62742,0 12,-5.37258 12,-12 0,-6.62742 -5.37258,-12 -12,-12 z m 40,0 c -6.62742,0 -12,5.37258 -12,12 0,6.62742 5.37258,12 12,12 6.62742,0 12,-5.37258 12,-12 0,-6.62742 -5.37258,-12 -12,-12 z M 84,146 c -6.62741,0 -11.999992,5.37258 -11.999992,12 0,6.62742 5.372582,12 11.999992,12 6.62742,0 12,-5.37258 12,-12 0,-6.62742 -5.37258,-12 -12,-12 z m 40,0 c -6.6274,0 -12,5.37258 -12,12 0,6.62742 5.3726,12 12,12 6.62742,0 12,-5.37258 12,-12 0,-6.62742 -5.37258,-12 -12,-12 z m 40,0 c -6.62742,0 -12,5.37258 -12,12 0,6.62742 5.37258,12 12,12 6.62742,0 12,-5.37258 12,-12 0,-6.62742 -5.37258,-12 -12,-12 z m 40,0 c -6.62742,0 -12,5.37258 -12,12 0,6.62742 5.37258,12 12,12 6.62742,0 12,-5.37258 12,-12 0,-6.62742 -5.37258,-12 -12,-12 z M 70.000008,194 c -3.323996,0 -6,2.676 -6,6 v 12 c 0,3.324 2.676004,6 6,6 H 218 c 3.324,0 6,-2.676 6,-6 v -12 c 0,-3.324 -2.676,-6 -6,-6 z"
       style="opacity:0.2;fill:#000000;fill-opacity:1;stroke-width:8;stroke-linecap:square"
       id="path2953" />
  </g>
  <g
     id="g2">
    <path
       d="m 418,144 c -0.55228,0 -1,0.44772 -1,1 0,0.55228 0.44772,1 1,1 0.55228,0 1,-0.44772 1,-1 0,-0.55228 -0.44772,-1 -1,-1 z m 3,0 c -0.55228,0 -1,0.44772 -1,1 0,0.55228 0.44772,1 1,1 0.55228,0 1,-0.44772 1,-1 0,-0.55228 -0.44772,-1 -1,-1 z m 3,0 c -0.55228,0 -1,0.44772 -1,1 0,0.55228 0.44772,1 1,1 0.55228,0 1,-0.44772 1,-1 0,-0.55228 -0.44772,-1 -1,-1 z m 3,0 c -0.55228,0 -1,0.44772 -1,1 0,0.55228 0.44772,1 1,1 0.55228,0 1,-0.44772 1,-1 0,-0.55228 -0.44772,-1 -1,-1 z m 3,0 c -0.55228,0 -1,0.44772 -1,1 0,0.55228 0.44772,1 1,1 0.55228,0 1,-0.44772 1,-1 0,-0.55228 -0.44772,-1 -1,-1 z m -10,3 c -0.55228,0 -1,0.44772 -1,1 0,0.55228 0.44772,1 1,1 0.55228,0 1,-0.44772 1,-1 0,-0.55228 -0.44772,-1 -1,-1 z m 3,0 c -0.55228,0 -1,0.44772 -1,1 0,0.55228 0.44772,1 1,1 0.55228,0 1,-0.44772 1,-1 0,-0.55228 -0.44772,-1 -1,-1 z m 3,0 c -0.55228,0 -1,0.44772 -1,1 0,0.55228 0.44772,1 1,1 0.55228,0 1,-0.44772 1,-1 0,-0.55228 -0.44772,-1 -1,-1 z m 3,0 c -0.55228,0 -1,0.44772 -1,1 0,0.55228 0.44772,1 1,1 0.55228,0 1,-0.44772 1,-1 0,-0.55228 -0.44772,-1 -1,-1 z m -10.5,4 c -0.277,0 -0.5,0.223 -0.5,0.5 v 1 c 0,0.277 0.223,0.5 0.5,0.5 h 11 c 0.277,0 0.5,-0.223 0.5,-0.5 v -1 c 0,-0.277 -0.223,-0.5 -0.5,-0.5 z"
       style="fill:#e8e8e8;fill-opacity:1"
       id="path460" />
    <path
       d="m 422,107 c -0.55228,0 -1,0.44772 -1,1 0,0.55228 0.44772,1 1,1 0.55228,0 1,-0.44772 1,-1 0,-0.55228 -0.44772,-1 -1,-1 z m 3,0 c -0.55228,0 -1,0.44772 -1,1 0,0.55228 0.44772,1 1,1 0.55228,0 1,-0.44772 1,-1 0,-0.55228 -0.44772,-1 -1,-1 z m 3,0 c -0.55228,0 -1,0.44772 -1,1 0,0.55228 0.44772,1 1,1 0.55228,0 1,-0.44772 1,-1 0,-0.55228 -0.44772,-1 -1,-1 z m 3,0 c -0.55228,0 -1,0.44772 -1,1 0,0.55228 0.44772,1 1,1 0.55228,0 1,-0.44772 1,-1 0,-0.55228 -0.44772,-1 -1,-1 z m 3,0 c -0.55228,0 -1,0.44772 -1,1 0,0.55228 0.44772,1 1,1 0.55228,0 1,-0.44772 1,-1 0,-0.55228 -0.44772,-1 -1,-1 z m -10,4 c -0.55228,0 -1,0.44772 -1,1 0,0.55228 0.44772,1 1,1 0.55228,0 1,-0.44772 1,-1 0,-0.55228 -0.44772,-1 -1,-1 z m 3,0 c -0.55228,0 -1,0.44772 -1,1 0,0.55228 0.44772,1 1,1 0.55228,0 1,-0.44772 1,-1 0,-0.55228 -0.44772,-1 -1,-1 z m 3,0 c -0.55228,0 -1,0.44772 -1,1 0,0.55228 0.44772,1 1,1 0.55228,0 1,-0.44772 1,-1 0,-0.55228 -0.44772,-1 -1,-1 z m 3,0 c -0.55228,0 -1,0.44772 -1,1 0,0.55228 0.44772,1 1,1 0.55228,0 1,-0.44772 1,-1 0,-0.55228 -0.44772,-1 -1,-1 z m -11.5,4 c -0.277,0 -0.5,0.223 -0.5,0.5 v 1 c 0,0.277 0.223,0.5 0.5,0.5 h 13 c 0.277,0 0.5,-0.223 0.5,-0.5 v -1 c 0,-0.277 -0.223,-0.5 -0.5,-0.5 z"
       id="path397"
       style="fill:#e8e8e8;fill-opacity:1" />
    <path
       id="path1184-5"
       style="fill:#e8e8e8;fill-opacity:1;stroke-width:1;stroke-linecap:square"
       d="m 421.5,61 c -0.82843,0 -1.5,0.671573 -1.5,1.5 0,0.828427 0.67157,1.5 1.5,1.5 0.82843,0 1.5,-0.671573 1.5,-1.5 0,-0.828427 -0.67157,-1.5 -1.5,-1.5 z m 5,0 c -0.82843,0 -1.5,0.671573 -1.5,1.5 0,0.828427 0.67157,1.5 1.5,1.5 0.82843,0 1.5,-0.671573 1.5,-1.5 0,-0.828427 -0.67157,-1.5 -1.5,-1.5 z m 5,0 c -0.82843,0 -1.5,0.671573 -1.5,1.5 0,0.828427 0.67157,1.5 1.5,1.5 0.82843,0 1.5,-0.671573 1.5,-1.5 0,-0.828427 -0.67157,-1.5 -1.5,-1.5 z m 5,0 c -0.82843,0 -1.5,0.671573 -1.5,1.5 0,0.828427 0.67157,1.5 1.5,1.5 0.82843,0 1.5,-0.671573 1.5,-1.5 0,-0.828427 -0.67157,-1.5 -1.5,-1.5 z m 5,0 c -0.82843,0 -1.5,0.671573 -1.5,1.5 0,0.828427 0.67157,1.5 1.5,1.5 0.82843,0 1.5,-0.671573 1.5,-1.5 0,-0.828427 -0.67157,-1.5 -1.5,-1.5 z m -17,6 c -0.82843,0 -1.5,0.671573 -1.5,1.5 0,0.828427 0.67157,1.5 1.5,1.5 0.82843,0 1.5,-0.671573 1.5,-1.5 0,-0.828427 -0.67157,-1.5 -1.5,-1.5 z m 5,0 c -0.82843,0 -1.5,0.671573 -1.5,1.5 0,0.828427 0.67157,1.5 1.5,1.5 0.82843,0 1.5,-0.671573 1.5,-1.5 0,-0.828427 -0.67157,-1.5 -1.5,-1.5 z m 5,0 c -0.82843,0 -1.5,0.671573 -1.5,1.5 0,0.828427 0.67157,1.5 1.5,1.5 0.82843,0 1.5,-0.671573 1.5,-1.5 0,-0.828427 -0.67157,-1.5 -1.5,-1.5 z m 5,0 c -0.82843,0 -1.5,0.671573 -1.5,1.5 0,0.828427 0.67157,1.5 1.5,1.5 0.82843,0 1.5,-0.671573 1.5,-1.5 0,-0.828427 -0.67157,-1.5 -1.5,-1.5 z m -16.75,6 c -0.4155,0 -0.75,0.3345 -0.75,0.75 v 1.5 c 0,0.415499 0.3345,0.75 0.75,0.75 h 18.5 c 0.4155,0 0.75,-0.334501 0.75,-0.75 v -1.5 C 442,73.3345 441.6655,73 441.25,73 Z" />
    <path
       d="m 298,234 c -1.10457,0 -2,0.89543 -2,2 0,1.10457 0.89543,2 2,2 1.10457,0 2,-0.89543 2,-2 0,-1.10457 -0.89543,-2 -2,-2 z m 7,0 c -1.10457,0 -2,0.89543 -2,2 0,1.10457 0.89543,2 2,2 1.10457,0 2,-0.89543 2,-2 0,-1.10457 -0.89543,-2 -2,-2 z m 7,0 c -1.10457,0 -2,0.89543 -2,2 0,1.10457 0.89543,2 2,2 1.10457,0 2,-0.89543 2,-2 0,-1.10457 -0.89543,-2 -2,-2 z m 7,0 c -1.10457,0 -2,0.89543 -2,2 0,1.10457 0.89543,2 2,2 1.10457,0 2,-0.89543 2,-2 0,-1.10457 -0.89543,-2 -2,-2 z m 7,0 c -1.10457,0 -2,0.89543 -2,2 0,1.10457 0.89543,2 2,2 1.10457,0 2,-0.89543 2,-2 0,-1.10457 -0.89543,-2 -2,-2 z m -24,8 c -1.10457,0 -2,0.89543 -2,2 0,1.10457 0.89543,2 2,2 1.10457,0 2,-0.89543 2,-2 0,-1.10457 -0.89543,-2 -2,-2 z m 7,0 c -1.10457,0 -2,0.89543 -2,2 0,1.10457 0.89543,2 2,2 1.10457,0 2,-0.89543 2,-2 0,-1.10457 -0.89543,-2 -2,-2 z m 7,0 c -1.10457,0 -2,0.89543 -2,2 0,1.10457 0.89543,2 2,2 1.10457,0 2,-0.89543 2,-2 0,-1.10457 -0.89543,-2 -2,-2 z m 7,0 c -1.10457,0 -2,0.89543 -2,2 0,1.10457 0.89543,2 2,2 1.10457,0 2,-0.89543 2,-2 0,-1.10457 -0.89543,-2 -2,-2 z m -23,8 c -0.554,0 -1,0.446 -1,1 v 2 c 0,0.554 0.446,1 1,1 h 24 c 0.554,0 1,-0.446 1,-1 v -2 c 0,-0.554 -0.446,-1 -1,-1 z"
       id="path397-6"
       style="fill:#e8e8e8;fill-opacity:1;stroke-width:2"
       sodipodi:nodetypes="ssssssssssssssssssssssssssssssssssssssssssssssssssssss" />
    <path
       id="path1184-9"
       style="fill:#e8e8e8;fill-opacity:1;stroke-width:2;stroke-linecap:square"
       d="m 300,157 c -1.65685,0 -3,1.34315 -3,3 0,1.65685 1.34315,3 3,3 1.65685,0 3,-1.34315 3,-3 0,-1.65685 -1.34315,-3 -3,-3 z m 10,0 c -1.65685,0 -3,1.34315 -3,3 0,1.65685 1.34315,3 3,3 1.65685,0 3,-1.34315 3,-3 0,-1.65685 -1.34315,-3 -3,-3 z m 10,0 c -1.65685,0 -3,1.34315 -3,3 0,1.65685 1.34315,3 3,3 1.65685,0 3,-1.34315 3,-3 0,-1.65685 -1.34315,-3 -3,-3 z m 10,0 c -1.65685,0 -3,1.34315 -3,3 0,1.65685 1.34315,3 3,3 1.65685,0 3,-1.34315 3,-3 0,-1.65685 -1.34315,-3 -3,-3 z m 10,0 c -1.65685,0 -3,1.34315 -3,3 0,1.65685 1.34315,3 3,3 1.65685,0 3,-1.34315 3,-3 0,-1.65685 -1.34315,-3 -3,-3 z m -35,12 c -1.65685,0 -3,1.34315 -3,3 0,1.65685 1.34315,3 3,3 1.65685,0 3,-1.34315 3,-3 0,-1.65685 -1.34315,-3 -3,-3 z m 10,0 c -1.65685,0 -3,1.34315 -3,3 0,1.65685 1.34315,3 3,3 1.65685,0 3,-1.34315 3,-3 0,-1.65685 -1.34315,-3 -3,-3 z m 10,0 c -1.65685,0 -3,1.34315 -3,3 0,1.65685 1.34315,3 3,3 1.65685,0 3,-1.34315 3,-3 0,-1.65685 -1.34315,-3 -3,-3 z m 10,0 c -1.65685,0 -3,1.34315 -3,3 0,1.65685 1.34315,3 3,3 1.65685,0 3,-1.34315 3,-3 0,-1.65685 -1.34315,-3 -3,-3 z m -33.5,12 c -0.831,0 -1.5,0.669 -1.5,1.5 v 3 c 0,0.831 0.669,1.5 1.5,1.5 h 37 c 0.831,0 1.5,-0.669 1.5,-1.5 v -3 c 0,-0.831 -0.669,-1.5 -1.5,-1.5 z" />
    <path
       id="path1184-0"
       style="fill:#e8e8e8;fill-opacity:1;stroke-width:3;stroke-linecap:square"
       d="m 306.5,54 c -2.48528,0 -4.5,2.014719 -4.5,4.5 0,2.485281 2.01472,4.5 4.5,4.5 2.48528,0 4.5,-2.014719 4.5,-4.5 0,-2.485281 -2.01472,-4.5 -4.5,-4.5 z m 15,0 c -2.48528,0 -4.5,2.014719 -4.5,4.5 0,2.485281 2.01472,4.5 4.5,4.5 2.48528,0 4.5,-2.014719 4.5,-4.5 0,-2.485281 -2.01472,-4.5 -4.5,-4.5 z m 15,0 c -2.48528,0 -4.5,2.014719 -4.5,4.5 0,2.485281 2.01472,4.5 4.5,4.5 2.48528,0 4.5,-2.014719 4.5,-4.5 0,-2.485281 -2.01472,-4.5 -4.5,-4.5 z m 15,0 c -2.48528,0 -4.5,2.014719 -4.5,4.5 0,2.485281 2.01472,4.5 4.5,4.5 2.48528,0 4.5,-2.014719 4.5,-4.5 0,-2.485281 -2.01472,-4.5 -4.5,-4.5 z m 15,0 c -2.48528,0 -4.5,2.014719 -4.5,4.5 0,2.485281 2.01472,4.5 4.5,4.5 2.48528,0 4.5,-2.014719 4.5,-4.5 0,-2.485281 -2.01472,-4.5 -4.5,-4.5 z M 314,72 c -2.48528,0 -4.5,2.014719 -4.5,4.5 0,2.485281 2.01472,4.5 4.5,4.5 2.48528,0 4.5,-2.014719 4.5,-4.5 0,-2.485281 -2.01472,-4.5 -4.5,-4.5 z m 15,0 c -2.48528,0 -4.5,2.014719 -4.5,4.5 0,2.485281 2.01472,4.5 4.5,4.5 2.48528,0 4.5,-2.014719 4.5,-4.5 0,-2.485281 -2.01472,-4.5 -4.5,-4.5 z m 15,0 c -2.48528,0 -4.5,2.014719 -4.5,4.5 0,2.485281 2.01472,4.5 4.5,4.5 2.48528,0 4.5,-2.014719 4.5,-4.5 0,-2.485281 -2.01472,-4.5 -4.5,-4.5 z m 15,0 c -2.48528,0 -4.5,2.014719 -4.5,4.5 0,2.485281 2.01472,4.5 4.5,4.5 2.48528,0 4.5,-2.014719 4.5,-4.5 0,-2.485281 -2.01472,-4.5 -4.5,-4.5 z m -50.25,18 c -1.2465,0 -2.25,1.0035 -2.25,2.25 v 4.5 c 0,1.2465 1.0035,2.25 2.25,2.25 h 55.5 c 1.2465,0 2.25,-1.0035 2.25,-2.25 v -4.5 c 0,-1.2465 -1.0035,-2.25 -2.25,-2.25 z" />
    <path
       id="path1184"
       style="fill:#e8e8e8;fill-opacity:1;stroke-width:8;stroke-linecap:square"
       d="m 64.000008,96 c -6.62742,0 -12.000004,5.37258 -12.000004,12 0,6.62742 5.372584,12 12.000004,12 6.627416,0 12.000002,-5.37258 12.000002,-12 0,-6.62742 -5.372586,-12 -12.000002,-12 z M 104,96 c -6.62741,0 -12,5.37258 -12,12 0,6.62742 5.37259,12 12,12 6.62742,0 12,-5.37258 12,-12 0,-6.62742 -5.37258,-12 -12,-12 z m 40,0 c -6.6274,0 -12,5.37258 -12,12 0,6.62742 5.3726,12 12,12 6.62742,0 12,-5.37258 12,-12 0,-6.62742 -5.37258,-12 -12,-12 z m 40,0 c -6.62742,0 -12,5.37258 -12,12 0,6.62742 5.37258,12 12,12 6.62742,0 12,-5.37258 12,-12 0,-6.62742 -5.37258,-12 -12,-12 z m 40,0 c -6.62742,0 -12,5.37258 -12,12 0,6.62742 5.37258,12 12,12 6.62742,0 12,-5.37258 12,-12 0,-6.62742 -5.37258,-12 -12,-12 z M 84,144 c -6.62741,0 -11.999992,5.37258 -11.999992,12 0,6.62742 5.372582,12 11.999992,12 6.62742,0 12,-5.37258 12,-12 0,-6.62742 -5.37258,-12 -12,-12 z m 40,0 c -6.6274,0 -12,5.37258 -12,12 0,6.62742 5.3726,12 12,12 6.62742,0 12,-5.37258 12,-12 0,-6.62742 -5.37258,-12 -12,-12 z m 40,0 c -6.62742,0 -12,5.37258 -12,12 0,6.62742 5.37258,12 12,12 6.62742,0 12,-5.37258 12,-12 0,-6.62742 -5.37258,-12 -12,-12 z m 40,0 c -6.62742,0 -12,5.37258 -12,12 0,6.62742 5.37258,12 12,12 6.62742,0 12,-5.37258 12,-12 0,-6.62742 -5.37258,-12 -12,-12 z M 70.000008,192 c -3.323996,0 -6,2.676 -6,6 v 12 c 0,3.324 2.676004,6 6,6 H 218 c 3.324,0 6,-2.676 6,-6 v -12 c 0,-3.324 -2.676,-6 -6,-6 z" />
  </g>
  <g
     id="g3">
    <path
       d="m 422,142.5 h 4 c 0.554,0 1,0.446 1,1 v 4 l -3,3 -3,-3 v -4 c 0,-0.554 0.446,-1 1,-1 z"
       style="opacity:0.2;fill:#000000;stroke-linecap:round;stroke-linejoin:round"
       id="path1"
       sodipodi:nodetypes="ssscccss" />
    <path
       d="m 426,104.5 h 4 c 0.554,0 1,0.446 1,1 v 5 l -3,3 -3,-3 v -5 c 0,-0.554 0.446,-1 1,-1 z"
       style="opacity:0.2;fill:#000000;stroke-linecap:round;stroke-linejoin:round"
       id="path1-5"
       sodipodi:nodetypes="ssscccss" />
    <path
       d="m 428,57 h 8 c 1.108,0 2,0.892 2,2 v 7 l -6,6 -6,-6 v -7 c 0,-1.108 0.892,-2 2,-2 z"
       style="opacity:0.2;fill:#000000;stroke-width:2;stroke-linecap:round;stroke-linejoin:round"
       id="path1-9"
       sodipodi:nodetypes="ssscccss" />
    <path
       d="m 307,227 h 10 c 1.662,0 3,1.338 3,3 v 9 l -8,8 -8,-8 v -9 c 0,-1.662 1.338,-3 3,-3 z"
       style="fill:#000000;fill-opacity:1;stroke-width:3;stroke-linecap:round;stroke-linejoin:round;opacity:0.2"
       id="path1-0" />
    <path
       d="m 312,149 h 16 c 2.216,0 4,1.784 4,4 v 14 l -12,12 -12,-12 v -14 c 0,-2.216 1.784,-4 4,-4 z"
       style="opacity:0.2;fill:#000000;stroke-width:4;stroke-linecap:round;stroke-linejoin:round"
       id="path1-9-6"
       sodipodi:nodetypes="ssscccss" />
    <path
       d="m 326,41 h 20 c 3.324,0 6,2.676 6,6 V 65 L 336,81 320,65 V 47 c 0,-3.324 2.676,-6 6,-6 z"
       style="opacity:0.2;fill:#000000;fill-opacity:1;stroke-width:6;stroke-linecap:round;stroke-linejoin:round"
       id="path1-0-3" />
    <path
       d="m 112,62 h 64 c 8.864,0 16,7.136 16,16 v 56 L 144,182 96,134 V 78 c 0,-8.864 7.136,-16 16,-16 z"
       style="opacity:0.2;fill:#000000;stroke-width:16;stroke-linecap:round;stroke-linejoin:round"
       id="path1-9-6-1"
       sodipodi:nodetypes="ssscccss" />
  </g>
  <g
     id="g4">
    <path
       id="rect1"
       style="stroke-linecap:round;stroke-linejoin:round;fill:#4285f4;fill-opacity:1"
       d="m 422,142 h 4 c 0.554,0 1,0.446 1,1 v 4 l -3,3 -3,-3 v -4 c 0,-0.554 0.446,-1 1,-1 z"
       sodipodi:nodetypes="ssscccss" />
    <path
       id="rect2"
       style="opacity:1;fill:#4285f4;stroke-linecap:round;stroke-linejoin:round;fill-opacity:1"
       d="m 426,104 h 4 c 0.554,0 1,0.446 1,1 v 5 l -3,3 -3,-3 v -5 c 0,-0.554 0.446,-1 1,-1 z"
       sodipodi:nodetypes="ssscccss" />
    <path
       d="m 428,56 h 8 c 1.108,0 2,0.892 2,2 v 7 l -6,6 -6,-6 v -7 c 0,-1.108 0.892,-2 2,-2 z"
       style="fill:#4285f4;fill-opacity:1;stroke-width:2;stroke-linecap:round;stroke-linejoin:round"
       id="path1-56"
       sodipodi:nodetypes="ssscccss" />
    <path
       d="m 307,226 h 10 c 1.662,0 3,1.338 3,3 v 9 l -8,8 -8,-8 v -9 c 0,-1.662 1.338,-3 3,-3 z"
       style="fill:#4285f4;fill-opacity:1;stroke-width:3;stroke-linecap:round;stroke-linejoin:round"
       id="path1-2"
       sodipodi:nodetypes="ssscccss" />
    <path
       d="m 312,148 h 16 c 2.216,0 4,1.784 4,4 v 14 l -12,12 -12,-12 v -14 c 0,-2.216 1.784,-4 4,-4 z"
       style="fill:#4285f4;fill-opacity:1;stroke-width:4;stroke-linecap:round;stroke-linejoin:round"
       id="path1-56-2"
       sodipodi:nodetypes="ssscccss" />
    <path
       d="m 326,40 h 20 c 3.324,0 6,2.676 6,6 V 64 L 336,80 320,64 V 46 c 0,-3.324 2.676,-6 6,-6 z"
       style="fill:#4285f4;fill-opacity:1;stroke-width:6;stroke-linecap:round;stroke-linejoin:round"
       id="path1-2-6"
       sodipodi:nodetypes="ssscccss" />
    <path
       d="m 112,60 h 64 c 8.864,0 16,7.136 16,16 v 56 L 144,180 96,132 V 76 c 0,-8.864 7.136,-16 16,-16 z"
       style="fill:#4285f4;fill-opacity:1;stroke-width:16;stroke-linecap:round;stroke-linejoin:round"
       id="path1-56-2-8"
       sodipodi:nodetypes="ssscccss" />
  </g>
  <g
     id="g5">
    <path
       d="m 423.44308,143 v 0.57143 H 422 v 0.57143 h 0.20313 0.0971 1.14286 0.26005 0.69531 c -0.12825,0.44521 -0.41209,0.7324 -0.68862,1.05915 -0.18351,-0.2141 -0.29664,-0.3721 -0.3683,-0.48772 h -0.51898 c 0.0956,0.16981 0.27139,0.4289 0.59487,0.80245 -0.22343,0.22508 -0.92981,0.80613 -0.92981,0.80613 l 0.17755,0.47347 c 0,0 0.75246,-0.63915 1.04802,-0.94813 0.29656,0.31688 0.67917,0.69769 1.1741,1.15179 l 0.32143,-0.31697 c -0.53,-0.47384 -0.91758,-0.84971 -1.20312,-1.15178 0.38273,-0.4462 0.77052,-0.87408 0.85268,-1.38839 h 0.87053 v -0.57143 h -1.71428 V 143 Z"
       style="fill:#ffffff;stroke-width:0.571426"
       id="path1485"
       sodipodi:nodetypes="ccccccccccccccccccccccccc" />
    <path
       d="m 427.50391,105 v 0.625 H 426 v 0.62561 h 0.25391 V 106.25 h 1.875 v 6.3e-4 h 0.86913 c -0.1603,0.55651 -0.51493,1.09365 -0.86059,1.50207 -0.43373,-0.506 -0.55928,-0.76672 -0.59693,-0.8777 h -0.6372 c 0.0467,0.14303 0.22157,0.52428 0.86853,1.27138 -0.27928,0.28133 -1.43308,1.22992 -1.43308,1.22992 l 0.20781,0.59374 c 0,0 1.22508,-1.02361 1.59453,-1.40986 0.37071,0.3961 0.84921,0.8722 1.4679,1.43982 l 0.40222,-0.39611 c -0.6625,-0.59231 -1.14821,-1.06223 -1.50513,-1.43981 0.47841,-0.55775 0.9642,-1.27179 1.0669,-1.91469 h 1.05513 v 0.002 h 0.002 v -0.62558 h -2.50048 v -0.625 z"
       style="fill:#ffffff;stroke-width:0.625"
       id="path369"
       sodipodi:nodetypes="ccccccccccccccccccccccccccc" />
    <path
       d="m 431.70663,57 v 1.125 H 428 v 1.126103 h 0.45703 v -0.0011 h 3.375 v 0.0011 h 1.56445 c -0.28854,1.001734 -0.92689,1.968547 -1.54907,2.703735 -0.78068,-0.9108 -1.00667,-1.380083 -1.07447,-1.57986 h -1.14697 c 0.0843,0.257456 0.39884,0.943695 1.56336,2.288452 -0.50271,0.506419 -2.63637,2.160835 -2.63637,2.160835 l 0.37406,1.068739 c 0,0 2.26197,-1.789484 2.92698,-2.4847 0.66727,0.71298 1.5286,1.56996 2.64221,2.591674 l 0.72401,-0.713002 c -1.19253,-1.066141 -2.06676,-1.912017 -2.70924,-2.591685 0.86114,-1.003939 1.73556,-2.289195 1.92042,-3.446404 h 1.89923 v 0.0023 h 0.002 v -1.126046 h -3.50126 v -1.125 z"
       style="fill:#ffffff;stroke-width:1.125"
       id="path369-0"
       sodipodi:nodetypes="ccccccccccccccccccccccccccc" />
    <path
       d="m 311.44859,228.00043 v 1.3502 H 307 v 1.35151 h 0.54851 v -8.3e-4 h 4.05058 v 8.3e-4 h 1.87762 c -0.34631,1.20226 -1.11244,2.3626 -1.85916,3.24496 -0.93695,-1.09312 -1.20816,-1.65635 -1.28954,-1.89611 h -1.37655 c 0.10121,0.30898 0.47866,1.13259 1.87629,2.74654 -0.60334,0.60778 -3.1641,2.59336 -3.1641,2.59336 l 0.44894,1.28268 c 0,0 2.71475,-2.14768 3.51288,-2.98207 0.80083,0.8557 1.83457,1.88422 3.17111,3.11046 l 0.86894,-0.85572 c -1.43125,-1.27956 -2.48047,-2.29475 -3.25158,-3.11047 1.03354,-1.2049 2.08298,-2.74743 2.30486,-4.13628 h 2.2794 v 0.002 H 317 v -1.35145 h -4.20211 V 228 Z"
       style="fill:#ffffff;stroke-width:1.3502"
       id="path369-0-3"
       sodipodi:nodetypes="ccccccccccccccccccccccccccc" />
    <path
       d="m 319.41314,150.00032 v 2.24996 H 312 v 2.25217 h 0.91405 v -0.002 h 6.74989 v 0.002 h 3.12885 c -0.57707,2.00345 -1.85375,3.93704 -3.09809,5.4074 -1.56134,-1.82158 -2.01331,-2.76014 -2.14891,-3.15968 h -2.2939 c 0.1686,0.5149 0.79767,1.88736 3.12667,4.57683 -1.0054,1.01283 -5.27266,4.3216 -5.27266,4.3216 l 0.74811,2.13744 c 0,0 4.52387,-3.5789 5.85387,-4.96932 1.33452,1.42594 3.05715,3.13987 5.28434,5.18328 l 1.448,-1.42598 c -2.38503,-2.13226 -4.13346,-3.82398 -5.4184,-5.1833 1.72225,-2.00785 3.47107,-4.57831 3.84078,-6.89269 h 3.7984 v 0.004 h 0.004 v -2.25206 h -7.00241 V 150 Z"
       style="fill:#ffffff;stroke-width:2.24996"
       id="path369-0-5"
       sodipodi:nodetypes="ccccccccccccccccccccccccccc" />
    <path
       d="M 334.2958,43.000995 V 46.12589 H 324 v 3.127928 h 1.26946 v -0.0019 h 9.37466 v 0.0019 h 4.34554 c -0.8015,2.782505 -2.57462,5.46799 -4.30282,7.51012 -2.16847,-2.529911 -2.79617,-3.833449 -2.98451,-4.388348 h -3.18588 c 0.23423,0.715101 1.10781,2.621261 4.34247,6.356578 -1.39636,1.406644 -7.32297,6.002059 -7.32297,6.002059 l 1.03902,2.968628 c 0,0 6.28301,-4.970579 8.13019,-6.901688 1.85345,1.980428 4.24593,4.360829 7.33921,7.198833 l 2.01106,-1.980473 c -3.31247,-2.961409 -5.74079,-5.310959 -7.52544,-7.198856 2.39203,-2.788614 4.82085,-6.358638 5.33437,-9.572985 h 5.27543 v 0.0046 h 0.005 V 46.124534 H 337.4188 V 43 Z"
       style="fill:#ffffff;stroke-width:3.12489"
       id="path369-0-3-2"
       sodipodi:nodetypes="ccccccccccccccccccccccccccc" />
    <path
       d="m 139.65256,70.00128 v 8.99984 H 110 v 9.00868 h 3.6562 v -0.008 h 26.99956 v 0.008 h 12.5154 c -2.30828,8.0138 -7.415,15.74816 -12.39236,21.6296 -6.24536,-7.28632 -8.05324,-11.04056 -8.59564,-12.63872 h -9.1756 c 0.6744,2.0596 3.19068,7.54944 12.50668,18.30732 -4.0216,4.05132 -21.09064,17.2864 -21.09064,17.2864 l 2.99244,8.54976 c 0,0 18.09548,-14.3156 23.41548,-19.87728 5.33808,5.70376 12.2286,12.55948 21.13736,20.73312 l 5.792,-5.70392 c -9.54012,-8.52904 -16.53384,-15.29592 -21.6736,-20.7332 6.889,-8.0314 13.88428,-18.31324 15.36312,-27.57076 h 15.1936 v 0.016 h 0.016 V 78.99988 H 148.65036 V 70 Z"
       style="fill:#ffffff;stroke-width:8.99984"
       id="path369-0-5-8"
       sodipodi:nodetypes="ccccccccccccccccccccccccccc" />
  </g>
  <g
     id="Highlights">
    <path
       id="rect653"
       style="opacity:0.1;fill:#ffffff"
       d="M 80,44 C 53.408027,44 32,65.408027 32,92 v 2 C 32,67.408027 53.408027,46 80,46 h 128 c 26.59197,0 48,21.408027 48,48 V 92 C 256,65.408027 234.59197,44 208,44 Z"
       sodipodi:nodetypes="sscsscsss" />
    <path
       id="rect773"
       style="opacity:0.1;fill:#ffffff"
       d="m 312,34 c -9.97199,0 -18,8.02801 -18,18 v 1 c 0,-9.97199 8.02801,-18 18,-18 h 48 c 9.97199,0 18,8.02801 18,18 v -1 c 0,-9.97199 -8.02801,-18 -18,-18 z" />
    <path
       id="rect1135"
       style="opacity:0.1;fill:#ffffff;fill-opacity:1"
       d="m 304,144 c -6.64799,0 -12,5.35201 -12,12 v 1 c 0,-6.64799 5.35201,-12 12,-12 h 32 c 6.64799,0 12,5.35201 12,12 v -1 c 0,-6.64799 -5.35201,-12 -12,-12 z" />
    <path
       id="rect1265"
       style="opacity:0.1;fill:#ffffff;fill-opacity:1"
       d="m 300,223 c -4.986,0 -9,4.014 -9,9 v 1 c 0,-4.986 4.014,-9 9,-9 h 24 c 4.986,0 9,4.014 9,9 v -1 c 0,-4.986 -4.014,-9 -9,-9 z" />
    <path
       id="rect1368"
       style="opacity:0.1;fill:#ffffff;fill-opacity:1"
       d="m 424,54 c -3.324,0 -6,2.676003 -6,6 v 1 c 0,-3.323997 2.676,-6 6,-6 h 16 c 3.324,0 6,2.676003 6,6 v -1 c 0,-3.323997 -2.676,-6 -6,-6 z" />
    <path
       id="rect1402"
       style="opacity:0.1;fill:#ffffff;fill-opacity:1"
       d="m 420,140 c -2.216,0 -4,1.784 -4,4 v 1 c 0,-2.216 1.784,-4 4,-4 h 8 c 2.216,0 4,1.784 4,4 v -1 c 0,-2.216 -1.784,-4 -4,-4 z" />
    <path
       id="rect1436"
       style="opacity:0.1;fill:#ffffff;fill-opacity:1"
       d="m 422,102 c -2.216,0 -4,1.784 -4,4 v 1 c 0,-2.216 1.784,-4 4,-4 h 12 c 2.216,0 4,1.784 4,4 v -1 c 0,-2.216 -1.784,-4 -4,-4 z" />
  </g>
</svg>
