<?xml version="1.0" encoding="UTF-8" standalone="no"?>
<!-- Created with Inkscape (http://www.inkscape.org/) -->

<svg
   width="480"
   height="300"
   viewBox="0 0 480 300"
   version="1.1"
   id="svg5"
   inkscape:version="1.3 (1:1.3+202307231459+0e150ed6c4)"
   sodipodi:docname="java.svg"
   xmlns:inkscape="http://www.inkscape.org/namespaces/inkscape"
   xmlns:sodipodi="http://sodipodi.sourceforge.net/DTD/sodipodi-0.dtd"
   xmlns="http://www.w3.org/2000/svg"
   xmlns:svg="http://www.w3.org/2000/svg">
  <sodipodi:namedview
     id="namedview7"
     pagecolor="#888888"
     bordercolor="#000000"
     borderopacity="0.25"
     inkscape:showpageshadow="true"
     inkscape:pageopacity="0"
     inkscape:pagecheckerboard="0"
     inkscape:deskcolor="#888888"
     inkscape:document-units="px"
     showgrid="false"
     showborder="false"
     inkscape:zoom="1.4958333"
     inkscape:cx="240"
     inkscape:cy="150.08357"
     inkscape:window-width="1920"
     inkscape:window-height="1008"
     inkscape:window-x="0"
     inkscape:window-y="0"
     inkscape:window-maximized="1"
     inkscape:current-layer="svg5" />
  <defs
     id="defs2" />
  <g
     id="Baseplate"
     style="display:none">
    <text
       y="19.774782"
       xml:space="preserve"
       x="15.006946"
       style="font-style:normal;font-variant:normal;font-weight:normal;font-stretch:normal;line-height:0%;font-family:'DejaVu Sans';-inkscape-font-specification:'DejaVu Sans';display:inline;fill:#000000;fill-opacity:1;stroke:none;enable-background:new"
       inkscape:label="context"
       id="context"><tspan
         style="font-style:normal;font-variant:normal;font-weight:normal;font-stretch:normal;font-size:18px;line-height:1.25;font-family:'DejaVu Sans';-inkscape-font-specification:'DejaVu Sans'"
         y="19.774782"
         x="15.006946"
         sodipodi:role="line"
         id="tspan3933">apps</tspan></text>
    <text
       y="19.774782"
       xml:space="preserve"
       x="122.48839"
       style="font-style:normal;font-variant:normal;font-weight:bold;font-stretch:normal;line-height:0%;font-family:'DejaVu Sans';-inkscape-font-specification:'DejaVu Sans Bold';text-align:start;writing-mode:lr-tb;text-anchor:start;display:inline;fill:#000000;fill-opacity:1;stroke:none;enable-background:new"
       inkscape:label="icon-name"
       id="icon-name"><tspan
         style="font-style:normal;font-variant:normal;font-weight:bold;font-stretch:normal;font-size:18px;line-height:1.25;font-family:'DejaVu Sans';-inkscape-font-specification:'DejaVu Sans Bold'"
         y="19.774782"
         x="122.48839"
         sodipodi:role="line"
         id="tspan3937">java</tspan></text>
    <rect
       style="fill:#ffffff"
       id="256x256"
       width="256"
       height="256"
       x="16"
       y="28" />
    <rect
       style="fill:#ffffff"
       id="96x96"
       width="96"
       height="96"
       x="288"
       y="28" />
    <rect
       style="fill:#ffffff"
       id="64x64"
       width="64"
       height="64"
       x="288"
       y="140" />
    <rect
       style="fill:#ffffff"
       id="48x48"
       width="48"
       height="48"
       x="288"
       y="220" />
    <rect
       style="fill:#ffffff"
       id="32x32"
       width="32"
       height="32"
       x="416"
       y="52" />
    <rect
       style="fill:#ffffff"
       id="24x24"
       width="24"
       height="24"
       x="416"
       y="100" />
    <rect
       style="fill:#ffffff"
       id="22x22"
       width="22"
       height="22"
       x="417"
       y="101" />
    <rect
       style="fill:#ffffff"
       id="16x16"
       width="16"
       height="16"
       x="416"
       y="140" />
  </g>
  <g
     id="Shadow">
    <rect
       style="opacity:0.2;fill:#000000"
       id="rect651"
       width="224"
       height="224"
       x="32"
       y="46"
       ry="48" />
    <rect
       style="opacity:0.2;fill:#000000"
       id="rect769"
       width="84"
       height="85"
       x="294"
       y="34"
       ry="18" />
    <rect
       style="opacity:0.2;fill:#000000;fill-opacity:1"
       id="rect1131"
       width="56"
       height="56"
       x="292"
       y="145"
       ry="12" />
    <rect
       style="opacity:0.2;fill:#000000;fill-opacity:1"
       id="rect1261"
       width="42"
       height="42"
       x="291"
       y="224"
       ry="9" />
    <rect
       style="opacity:0.2;fill:#000000;fill-opacity:1"
       id="rect1364"
       width="28"
       height="29"
       x="418"
       y="54"
       ry="6" />
    <rect
       style="opacity:0.2;fill:#000000;fill-opacity:1"
       id="rect1398"
       width="16"
       height="16"
       x="416"
       y="141"
       ry="4" />
    <rect
       style="opacity:0.2;fill:#000000;fill-opacity:1"
       id="rect1432"
       width="20"
       height="20"
       x="418"
       y="103"
       ry="4" />
  </g>
  <g
     id="Background">
    <rect
       style="fill:#e74c3c;fill-opacity:1"
       id="rect597"
       width="224"
       height="224"
       x="32"
       y="44"
       ry="48" />
    <rect
       style="opacity:1;fill:#e74c3c;fill-opacity:1"
       id="rect771"
       width="84"
       height="84"
       x="294"
       y="34"
       ry="18" />
    <rect
       style="opacity:1;fill:#e74c3c;fill-opacity:1"
       id="rect1133"
       width="56"
       height="56"
       x="292"
       y="144"
       ry="12" />
    <rect
       style="opacity:1;fill:#e74c3c;fill-opacity:1"
       id="rect1263"
       width="42"
       height="42"
       x="291"
       y="223"
       ry="9" />
    <rect
       style="opacity:1;fill:#e74c3c;fill-opacity:1"
       id="rect1366"
       width="28"
       height="28"
       x="418"
       y="54"
       ry="6" />
    <rect
       style="opacity:1;fill:#e74c3c;fill-opacity:1"
       id="rect1400"
       width="16"
       height="16"
       x="416"
       y="140"
       ry="4" />
    <rect
       style="opacity:1;fill:#e74c3c;fill-opacity:1"
       id="rect1434"
       width="20"
       height="20"
       x="418"
       y="102"
       ry="4" />
  </g>
  <g
     id="g1">
    <path
       d="m 424.59631,142.5 c 0.41072,1.98122 -1.44889,2.58055 -2.1202,3.81435 -0.45694,0.84056 0.22385,1.74345 1.15278,2.76946 -0.36254,-1.00255 -1.59172,-1.88102 0,-3.41984 1.98487,-1.91752 0.96742,-3.16397 0.96742,-3.16397 z m 1.22694,2.45111 c 0,0 -3.35594,1.02625 -1.75299,3.28704 0.47301,0.66668 -0.1236,1.26557 -0.1236,1.26557 0,0 1.201,-0.75856 0.64965,-1.70894 -0.51514,-0.88586 -0.91116,-1.32592 1.22694,-2.84367 z m 0.54371,4.03898 c -0.10268,0.005 -0.20925,0.0341 -0.31971,0.0798 -0.10317,0.0438 -0.15718,0.14843 -0.15718,0.14843 0,0 0.0647,-0.0292 0.21022,-0.0686 0.59364,-0.15134 1.44403,0.97092 -0.39563,2.14059 -0.01,0.0292 -0.0389,0.0603 -0.0389,0.0603 2.22604,-0.71617 1.69279,-2.42366 0.69909,-2.36127 z m -3.98087,0.11338 c -0.23456,0.01 -0.78304,0.0715 -1.42111,0.44916 -1.00649,0.59559 2.48887,0.86576 4.29865,0.28322 0.18832,-0.15718 0.44818,-0.29295 0.44818,-0.29295 0,0 -0.74006,0.16253 -1.4776,0.23845 -0.90265,0.0925 -1.8707,0.11095 -2.35675,0.0292 -1.15078,-0.18832 0.63024,-0.70702 0.63024,-0.70702 0,0 -0.0438,-0.004 -0.12166,-0.002 z m -0.29295,1.36325 c -1.66004,0.67442 0.9244,1.44003 3.24475,0.60935 -0.24672,-0.10657 -0.40245,-0.30073 -0.40245,-0.30073 -1.13438,0.26716 -1.78977,0.25742 -2.61977,0.15231 -0.64172,-0.0813 -0.22239,-0.46084 -0.22239,-0.46084 z m 0.23455,1.31438 c -1.50743,0.51554 0.91749,1.57878 2.83696,0.57228 -0.31437,-0.1494 -0.54021,-0.32215 -0.54021,-0.32215 -0.85593,0.19806 -1.25327,0.21412 -2.03017,0.1056 -0.64123,-0.09 -0.26668,-0.35524 -0.26668,-0.35524 z m -1.04689,0.86912 c -0.67695,0.0243 -1.99985,0.77122 -0.78911,1.01171 3.91304,0.77637 7.13204,-0.34989 6.11698,-0.91015 0,0 0.27689,0.27982 -0.3056,0.49612 -1.10762,0.41072 -4.61077,0.53364 -5.58384,0.0146 -0.3494,-0.18638 0.30755,-0.44332 0.51374,-0.49806 0.21509,-0.0569 0.33723,-0.0487 0.33723,-0.0487 -0.0608,-0.0525 -0.16399,-0.073 -0.28954,-0.0681 z m 5.9493,0.71292 c 0,0 -0.12263,0.38784 -1.45819,0.69529 -1.5069,0.34697 -3.36597,0.30658 -4.46814,0.0837 0,0 0.2258,0.22872 1.38583,0.32021 1.7653,0.1382 4.47636,-0.0769 4.5405,-1.09959 z"
       style="stroke-width:0.950709;fill:#000000;opacity:0.2"
       id="path1-3" />
    <path
       d="m 429.56419,105.5 c 0.58662,2.31144 -2.06969,3.00978 -3.02832,4.4492 -0.6528,0.98064 0.32057,2.03438 1.64746,3.23145 -0.51743,-1.16966 -2.27197,-2.193 9.3e-4,-3.98828 2.83433,-2.23712 1.37989,-3.69237 1.37989,-3.69237 z m 1.75292,2.85937 c 2e-5,0 -4.79289,1.19637 -2.5039,3.83397 0.67568,0.7778 -0.17676,1.47754 -0.17676,1.47754 0,0 1.71504,-0.88534 0.92774,-1.99414 -0.73561,-1.03354 -1.30022,-1.54665 1.75292,-3.31737 z m 0.84961,4.7119 c -0.16841,3.1e-4 -0.34781,0.0293 -0.53125,0.0937 -0.14708,0.052 -0.22363,0.17286 -0.22363,0.17286 0,0 0.0925,-0.0368 0.29979,-0.0801 0.84778,-0.17669 2.06233,1.13439 -0.56444,2.49902 -0.0122,0.0325 -0.0528,0.0693 -0.0528,0.0693 3.12391,-0.82115 2.44349,-2.75743 1.07227,-2.75488 z m -5.6289,0.13281 c -0.20577,-0.005 -1.0952,0.008 -2.15819,0.52246 -1.43721,0.69489 3.55432,1.01173 6.13865,0.33204 0.26865,-0.18335 0.63965,-0.34277 0.63965,-0.34277 0,0 -1.0572,0.18895 -2.11035,0.27733 -1.28896,0.10815 -2.67115,0.12999 -3.36523,0.0371 -1.64333,-0.21969 0.90039,-0.82422 0.90039,-0.82422 0,0 -0.0155,-9.3e-4 -0.0449,-0.002 z m -0.54785,1.58985 c -2.37049,0.78682 1.32042,1.68008 4.63378,0.71093 -0.35204,-0.12409 -0.57617,-0.35156 -0.57617,-0.35156 -1.61993,0.31177 -2.55498,0.30205 -3.74022,0.17968 -0.91355,-0.0944 -0.32101,-0.53636 -0.31739,-0.53905 z m 0.33594,1.5332 c -2.15257,0.60147 1.30891,1.84321 4.04979,0.66894 -0.4489,-0.17446 -0.7705,-0.37598 -0.7705,-0.37598 -1.22225,0.23104 -1.78899,0.24972 -2.89844,0.12305 -0.91564,-0.105 -0.38085,-0.41601 -0.38085,-0.41601 z m -1.49609,1.01562 c -0.96668,0.0298 -2.85684,0.8991 -1.12793,1.17969 5.58772,0.90573 10.18575,-0.4076 8.7363,-1.06153 0,0 0.39624,0.32577 -0.43554,0.57813 -1.58165,0.47906 -6.58412,0.62394 -7.97362,0.0195 -0.49912,-0.21741 0.43682,-0.51937 0.73145,-0.58301 0.30722,-0.0664 0.4834,-0.0537 0.4834,-0.0537 -0.0868,-0.0611 -0.23505,-0.0847 -0.41406,-0.0792 z m 8.49607,0.83105 c 0,0 -0.17663,0.45174 -2.08398,0.81055 -2.1518,0.4051 -4.80602,0.3585 -6.37987,0.0986 0,0 0.32176,0.26644 1.97852,0.37305 2.52079,0.16116 6.39375,-0.0893 6.48533,-1.28223 z"
       id="path1-6-5"
       style="stroke-width:0.500001;fill:#000000;opacity:0.2" />
    <path
       id="path10-62-1"
       d="m 433.89922,59 c 0.79537,3.30214 -2.80589,4.298645 -4.10563,6.35503 -0.88508,1.40094 0.43445,2.90745 2.23348,4.617585 -0.70153,-1.670985 -3.07978,-3.133015 0.002,-5.69775 C 435.87191,61.07889 433.89922,59 433.89922,59 Z m 2.37802,4.084335 c 4e-5,0 -6.49814,1.70991 -3.39467,5.478005 0.91613,1.11116 -0.24024,2.11053 -0.24024,2.11053 0,0 2.32435,-1.264845 1.25689,-2.848875 -0.99735,-1.476525 -1.76153,-2.209995 2.37802,-4.73966 z m 1.15044,6.73104 c -0.22832,4.5e-4 -0.47007,0.0427 -0.71878,0.13478 -0.19941,0.07437 -0.3047,0.24709 -0.3047,0.24709 0,0 0.12616,-0.05344 0.40724,-0.115245 1.14944,-0.25241 2.79679,1.62112 -0.76468,3.570615 -0.0165,0.04645 -0.0713,0.09864 -0.0713,0.09864 4.23551,-1.1731 3.31136,-3.939545 1.45221,-3.935885 z m -7.63116,0.190445 c -0.27899,-0.0068 -1.48464,0.0125 -2.92589,0.747135 -1.94861,0.992725 4.81865,1.444685 8.32259,0.473675 0.36423,-0.261935 0.86722,-0.489305 0.86722,-0.489305 0,0 -1.43257,0.27025 -2.86047,0.39652 -1.74761,0.1545 -3.6226,0.18445 -4.56365,0.05177 -2.22632,-0.313605 1.2153,-1.17549 1.22075,-1.17686 0,0 -0.0207,-0.002 -0.0605,-0.003 z m -0.74222,2.27168 c -3.21399,1.124055 1.78912,2.39926 6.28149,1.014735 -0.4773,-0.17728 -0.7803,-0.50102 -0.7803,-0.50102 -2.19635,0.4454 -3.46448,0.430685 -5.07148,0.255885 -1.2424,-0.13529 -0.42971,-0.7696 -0.42971,-0.7696 z m 0.45413,2.18964 c -2.91854,0.859256 1.77621,2.633701 5.4924,0.956136 -0.60865,-0.249225 -1.04497,-0.537156 -1.04497,-0.537156 -1.65715,0.330061 -2.4266,0.356751 -3.93081,0.175795 -1.24146,-0.15001 -0.51662,-0.594775 -0.51662,-0.594775 z m -2.02743,1.451296 c -1.31065,0.0426 -3.87348,1.28486 -1.52936,1.68569 7.57604,1.293944 13.81038,-0.58351 11.84519,-1.517705 0,0 0.53692,0.466715 -0.59084,0.82722 -2.14445,0.684385 -8.92704,0.8908 -10.81097,0.02735 -0.67673,-0.310585 0.59275,-0.741175 0.99223,-0.832105 0.41654,-0.09495 0.65432,-0.07813 0.65432,-0.07813 -0.11768,-0.08732 -0.31785,-0.1202 -0.56057,-0.11231 z M 439,77.105061 c 0,0 -0.23925,0.645705 -2.8253,1.158309 -2.9175,0.57873 -6.51684,0.51188 -8.65073,0.14063 0,0 0.43741,0.38095 2.6837,0.53325 3.41779,0.23024 8.66817,-0.12798 8.79233,-1.832189 z"
       style="fill:#000000;stroke-width:0.333649;enable-background:new;opacity:0.2" />
    <path
       d="m 315.06621,230 c 1.25705,4.95309 -4.43505,6.44952 -6.48925,9.53401 -1.39885,2.10136 0.68694,4.35938 3.53027,6.92453 -1.10877,-2.50642 -4.86851,-4.69929 0.002,-8.54632 6.07357,-4.79383 2.9569,-7.91222 2.9569,-7.91222 z m 3.75626,6.12722 c 6e-5,0 -10.27048,2.56365 -5.36549,8.21566 1.44789,1.66671 -0.37877,3.16615 -0.37877,3.16615 0,0 3.67508,-1.89716 1.988,-4.27315 -1.5763,-2.21474 -2.78618,-3.31425 3.75626,-7.10866 z m 1.8206,10.09693 c -0.36087,6.7e-4 -0.74531,0.0628 -1.1384,0.20089 -0.31517,0.11151 -0.47921,0.37041 -0.47921,0.37041 0,0 0.19821,-0.0789 0.64242,-0.17162 1.81667,-0.37861 4.41927,2.43085 -1.20952,5.35504 -0.0261,0.0697 -0.11307,0.1486 -0.11307,0.1486 6.69409,-1.75962 5.23604,-5.90879 2.29771,-5.90332 z m -12.06194,0.2846 c -0.44093,-0.0112 -2.34685,0.0179 -4.62469,1.11956 -3.07973,1.48905 7.61641,2.16799 13.15425,0.7115 0.57568,-0.39289 1.37069,-0.73451 1.37069,-0.73451 0,0 -2.26543,0.40491 -4.52218,0.59429 -2.76206,0.23175 -5.72389,0.27854 -7.2112,0.0795 -3.52143,-0.47076 1.9294,-1.76619 1.9294,-1.76619 0,0 -0.0333,-0.002 -0.0963,-0.004 z m -1.17395,3.40681 c -5.07963,1.68604 2.82946,3.60018 9.92952,1.52342 -0.75436,-0.26591 -1.23464,-0.75333 -1.23464,-0.75333 -3.47128,0.66808 -5.47497,0.64724 -8.01477,0.38503 -1.95761,-0.20223 -0.68788,-1.14935 -0.68011,-1.15512 z m 0.71986,3.28543 c -4.61265,1.28886 2.80481,3.94974 8.67814,1.43344 -0.96194,-0.37383 -1.65109,-0.80567 -1.65109,-0.80567 -2.61909,0.49508 -3.83355,0.53512 -6.21093,0.26368 -1.96209,-0.225 -0.81612,-0.89145 -0.81612,-0.89145 z m -3.2059,2.17633 c -2.07146,0.0639 -6.12181,1.92665 -2.41699,2.5279 11.97368,1.94086 21.8266,-0.87342 18.72065,-2.2747 0,0 0.84908,0.69809 -0.9333,1.23885 -3.38925,1.02655 -14.10884,1.33701 -17.08634,0.0418 -1.06954,-0.46587 0.93604,-1.11292 1.5674,-1.2493 0.65832,-0.14234 1.03585,-0.11508 1.03585,-0.11508 -0.18592,-0.13095 -0.50368,-0.18145 -0.88727,-0.16961 z m 18.20587,1.78082 c 0,0 -0.3785,0.96801 -4.46568,1.7369 -4.611,0.86807 -10.29861,0.76821 -13.67114,0.21139 0,0 0.68947,0.57094 4.23967,0.79939 5.40171,0.34535 13.70091,-0.19129 13.89715,-2.74763 z"
       id="path1-6-3"
       style="opacity:0.2;fill:#000000;stroke-width:1.07143" />
    <path
       id="path10-1"
       d="m 323.79844,153 c 1.59073,6.60428 -5.61179,8.59729 -8.21126,12.71006 -1.77017,2.80188 0.8689,5.8149 4.46696,9.23517 -1.40306,-3.34197 -6.15957,-6.26603 0.004,-11.3955 C 327.74382,157.15778 323.79843,153 323.79843,153 Z m 4.75603,8.16867 c 9e-5,0 -12.99628,3.41982 -6.78933,10.95601 1.83226,2.22232 -0.48048,4.22106 -0.48048,4.22106 0,0 4.6487,-2.52969 2.51378,-5.69775 -1.99471,-2.95305 -3.52306,-4.41999 4.75603,-9.47932 z m 2.30088,13.46208 c -0.45664,9e-4 -0.94014,0.0854 -1.43755,0.26956 -0.39883,0.14873 -0.60941,0.49418 -0.60941,0.49418 0,0 0.25233,-0.10688 0.81449,-0.23049 2.29887,-0.50482 5.59357,3.24224 -1.52936,7.14123 -0.033,0.0929 -0.14268,0.19729 -0.14259,0.19729 8.47103,-2.3462 6.62273,-7.87909 2.90442,-7.87177 z m -15.26231,0.38089 c -0.55798,-0.0136 -2.96929,0.025 -5.85179,1.49427 -3.89722,1.98545 9.63731,2.88937 16.64518,0.94735 0.72847,-0.52387 1.73444,-0.97861 1.73444,-0.97861 0,0 -2.86513,0.5405 -5.72093,0.79304 -3.49522,0.309 -7.2452,0.3689 -9.12731,0.10353 -4.45263,-0.62721 2.4306,-2.35098 2.44151,-2.35372 0,0 -0.0414,-0.004 -0.1211,-0.006 z m -1.48444,4.54336 c -6.42799,2.24811 3.57824,4.79852 12.56298,2.02947 -0.95461,-0.35456 -1.5606,-1.00204 -1.5606,-1.00204 -4.39271,0.8908 -6.92897,0.86137 -10.14296,0.51177 -2.48481,-0.27058 -0.85942,-1.5392 -0.85942,-1.5392 z m 0.90825,4.37928 c -5.83708,1.71851 3.55242,5.2674 10.9848,1.91227 -1.21729,-0.49845 -2.08993,-1.07431 -2.08993,-1.07431 -3.3143,0.66012 -4.8532,0.7135 -7.86163,0.35159 -2.48291,-0.30002 -1.03324,-1.18955 -1.03324,-1.18955 z m -4.05485,2.90259 c -2.62131,0.0852 -7.74696,2.56972 -3.05872,3.37138 15.15208,2.58789 27.62076,-1.16702 23.69037,-3.03541 0,0 1.07384,0.93343 -1.18168,1.65444 -4.2889,1.36877 -17.85407,1.7816 -21.62193,0.0547 -1.35347,-0.62117 1.1855,-1.48235 1.98446,-1.66421 0.83307,-0.18989 1.30864,-0.15626 1.30864,-0.15626 -0.23537,-0.17464 -0.63571,-0.2404 -1.12114,-0.22462 z M 334,189.21012 c 0,0 -0.4785,1.29141 -5.6506,2.31661 -5.835,1.15746 -13.03369,1.02376 -17.30146,0.28127 0,0 0.87482,0.76189 5.36739,1.06649 6.83559,0.46049 17.33634,-0.25596 17.58467,-3.66437 z"
       style="fill:#000000;stroke-width:0.667298;enable-background:new;opacity:0.2" />
    <path
       id="path10-62-7-2"
       d="m 341.69766,47 c 2.38611,9.90642 -8.41767,12.895935 -12.31689,19.06509 -2.65524,4.20282 1.30335,8.722349 6.70044,13.852754 -2.10459,-5.012955 -9.23934,-9.399044 0.006,-17.093249 C 347.61573,53.23667 341.69766,47 341.69766,47 Z m 7.13406,12.253005 c 1.2e-4,0 -19.49442,5.12973 -10.18401,16.434014 2.74839,3.33348 -0.72072,6.33159 -0.72072,6.33159 0,0 6.97305,-3.794535 3.77067,-8.546625 -2.99205,-4.429574 -5.28459,-6.629984 7.13406,-14.218979 z m 3.45132,20.193119 c -0.68496,0.0014 -1.41021,0.1281 -2.15634,0.40434 -0.59823,0.22311 -0.9141,0.74127 -0.9141,0.74127 0,0 0.37848,-0.16032 1.22172,-0.345735 3.44832,-0.75723 8.39037,4.86336 -2.29404,10.711845 -0.0495,0.139346 -0.2139,0.295916 -0.2139,0.295916 12.70653,-3.519296 9.93408,-11.818631 4.35663,-11.807651 z m -22.89348,0.571335 c -0.83697,-0.0204 -4.45392,0.0375 -8.77767,2.241405 -5.84583,2.978175 14.45595,4.334055 24.96777,1.421025 1.09269,-0.785805 2.60166,-1.467915 2.60166,-1.467915 0,0 -4.29771,0.81075 -8.58141,1.18956 -5.24283,0.4635 -10.8678,0.55335 -13.69095,0.15531 -6.67896,-0.940815 3.6459,-3.52647 3.66225,-3.53058 0,0 -0.0621,-0.006 -0.1815,-0.009 z m -2.22666,6.81504 c -9.64197,3.372165 5.36736,7.197781 18.84447,3.044205 -1.4319,-0.53184 -2.3409,-1.50306 -2.3409,-1.50306 -6.58905,1.3362 -10.39344,1.292055 -15.21444,0.767655 -3.7272,-0.40587 -1.28913,-2.3088 -1.28913,-2.3088 z m 1.36239,6.568921 c -8.75562,2.57777 5.32863,7.9011 16.4772,2.86841 -1.82595,-0.74768 -3.13491,-1.61147 -3.13491,-1.61147 -4.97145,0.99018 -7.2798,1.07025 -11.79243,0.52738 -3.72438,-0.45003 -1.54986,-1.78432 -1.54986,-1.78432 z m -6.08229,4.35389 c -3.93195,0.1278 -11.62044,3.85458 -4.58808,5.05707 22.72812,3.88183 41.43114,-1.75053 35.53557,-4.55312 0,0 1.61076,1.40015 -1.77252,2.48166 -6.43335,2.05316 -26.78112,2.6724 -32.43291,0.082 -2.03019,-0.93175 1.77825,-2.22352 2.97669,-2.49631 1.24962,-0.28485 1.96296,-0.23439 1.96296,-0.23439 -0.35304,-0.26196 -0.95355,-0.3606 -1.68171,-0.33693 z M 357,101.31518 c 0,0 -0.71775,1.93712 -8.4759,3.47492 -8.7525,1.73619 -19.55052,1.53564 -25.95219,0.4219 0,0 1.31223,1.14284 8.0511,1.59974 10.25337,0.69073 26.00451,-0.38394 26.37699,-5.49656 z"
       style="fill:#000000;stroke-width:1.00095;enable-background:new;opacity:0.2" />
    <path
       id="path10-7"
       d="m 159.19376,77.999995 c 6.36292,26.417125 -22.44716,34.389165 -32.84504,50.840245 -7.08068,11.20752 3.4756,23.2596 17.86784,36.94068 -5.61224,-13.36788 -24.63828,-25.06412 0.016,-45.582 30.74272,-25.567805 14.96116,-42.198925 14.96116,-42.198925 z m 19.02412,32.674685 c 3.6e-4,0 -51.98512,13.67928 -27.15732,43.82404 7.32904,8.88928 -1.92192,16.88424 -1.92192,16.88424 0,0 18.5948,-10.11876 10.05512,-22.791 -7.97884,-11.8122 -14.09224,-17.67996 19.02412,-37.91728 z m 9.20352,53.84832 c -1.82656,0.004 -3.76056,0.3416 -5.7502,1.07824 -1.59532,0.59492 -2.43764,1.97672 -2.43764,1.97672 0,0 1.00932,-0.42752 3.25796,-0.92196 9.19548,-2.01928 22.37428,12.96896 -6.11744,28.56492 -0.132,0.3716 -0.57072,0.78916 -0.57036,0.78916 33.88412,-9.3848 26.49092,-31.51636 11.61768,-31.48708 z m -61.04924,1.52356 c -2.23192,-0.0544 -11.87716,0.1 -23.40716,5.97708 -15.58888,7.9418 38.54924,11.55748 66.58072,3.7894 2.91388,-2.09548 6.93776,-3.91444 6.93776,-3.91444 0,0 -11.46052,2.162 -22.88372,3.17216 -13.98088,1.236 -28.9808,1.4756 -36.50924,0.41412 -17.81052,-2.50884 9.7224,-9.40392 9.76604,-9.41488 0,0 -0.1656,-0.016 -0.4844,-0.024 z M 120.4344,184.22 c -25.71196,8.99244 14.31296,19.19408 50.25192,8.11788 -3.81844,-1.41824 -6.2424,-4.00816 -6.2424,-4.00816 -17.57084,3.5632 -27.71588,3.44548 -40.57184,2.04708 -9.93924,-1.08232 -3.43768,-6.1568 -3.43768,-6.1568 z m 3.633,17.51712 c -23.34832,6.87404 14.20968,21.0696 43.9392,7.64908 -4.86916,-1.9938 -8.35972,-4.29724 -8.35972,-4.29724 -13.2572,2.64048 -19.4128,2.854 -31.44652,1.40636 -9.93164,-1.20008 -4.13296,-4.7582 -4.13296,-4.7582 z m -16.2194,11.61036 c -10.48524,0.3408 -30.98784,10.27888 -12.23488,13.48552 60.60832,10.35156 110.48304,-4.66808 94.76148,-12.14164 0,0 4.29536,3.73372 -4.72672,6.61776 -17.1556,5.47508 -71.41628,7.1264 -86.48772,0.2188 -5.41388,-2.48468 4.742,-5.9294 7.93784,-6.65684 3.33228,-0.75956 5.23456,-0.62504 5.23456,-0.62504 -0.94148,-0.69856 -2.54284,-0.9616 -4.48456,-0.89848 z m 92.152,9.493 c 0,0 -1.914,5.16564 -22.6024,9.26644 -23.34,4.62984 -52.13476,4.09504 -69.20584,1.12508 0,0 3.49928,3.04756 21.46956,4.26596 27.34236,1.84196 69.34536,-1.02384 70.33868,-14.65748 z"
       style="opacity:0.2;fill:#000000;stroke-width:2.66919;enable-background:new" />
  </g>
  <g
     id="g2">
    <path
       d="m 424.59631,142 c 0.41072,1.98122 -1.44889,2.58055 -2.1202,3.81435 -0.45694,0.84056 0.22385,1.74345 1.15278,2.76946 -0.36254,-1.00255 -1.59172,-1.88102 0,-3.41984 C 425.61376,143.24645 424.59631,142 424.59631,142 Z m 1.22694,2.45111 c 0,0 -3.35594,1.02625 -1.75299,3.28704 0.47301,0.66668 -0.1236,1.26557 -0.1236,1.26557 0,0 1.201,-0.75856 0.64965,-1.70894 -0.51514,-0.88586 -0.91116,-1.32592 1.22694,-2.84367 z m 0.54371,4.03898 c -0.10268,0.005 -0.20925,0.0341 -0.31971,0.0798 -0.10317,0.0438 -0.15718,0.14843 -0.15718,0.14843 0,0 0.0647,-0.0292 0.21022,-0.0686 0.59364,-0.15134 1.44403,0.97092 -0.39563,2.14059 -0.01,0.0292 -0.0389,0.0603 -0.0389,0.0603 2.22604,-0.71617 1.69279,-2.42366 0.69909,-2.36127 z m -3.98087,0.11338 c -0.23456,0.01 -0.78304,0.0715 -1.42111,0.44916 -1.00649,0.59559 2.48887,0.86576 4.29865,0.28322 0.18832,-0.15718 0.44818,-0.29295 0.44818,-0.29295 0,0 -0.74006,0.16253 -1.4776,0.23845 -0.90265,0.0925 -1.8707,0.11095 -2.35675,0.0292 -1.15078,-0.18832 0.63024,-0.70702 0.63024,-0.70702 0,0 -0.0438,-0.004 -0.12166,-0.002 z m -0.29295,1.36325 c -1.66004,0.67442 0.9244,1.44003 3.24475,0.60935 -0.24672,-0.10657 -0.40245,-0.30073 -0.40245,-0.30073 -1.13438,0.26716 -1.78977,0.25742 -2.61977,0.15231 -0.64172,-0.0813 -0.22239,-0.46084 -0.22239,-0.46084 z m 0.23455,1.31438 c -1.50743,0.51554 0.91749,1.57878 2.83696,0.57228 -0.31437,-0.1494 -0.54021,-0.32215 -0.54021,-0.32215 -0.85593,0.19806 -1.25327,0.21412 -2.03017,0.1056 -0.64123,-0.09 -0.26668,-0.35524 -0.26668,-0.35524 z m -1.04689,0.86912 c -0.67695,0.0243 -1.99985,0.77122 -0.78911,1.01171 3.91304,0.77637 7.13204,-0.34989 6.11698,-0.91015 0,0 0.27689,0.27982 -0.3056,0.49612 -1.10762,0.41072 -4.61077,0.53364 -5.58384,0.0146 -0.3494,-0.18638 0.30755,-0.44332 0.51374,-0.49806 0.21509,-0.0569 0.33723,-0.0487 0.33723,-0.0487 -0.0608,-0.0525 -0.16399,-0.073 -0.28954,-0.0681 z m 5.9493,0.71292 c 0,0 -0.12263,0.38784 -1.45819,0.69529 -1.5069,0.34697 -3.36597,0.30658 -4.46814,0.0837 0,0 0.2258,0.22872 1.38583,0.32021 1.7653,0.1382 4.47636,-0.0769 4.5405,-1.09959 z"
       id="path1"
       style="stroke-width:0.950709;fill:#ffffff"
       sodipodi:nodetypes="ccccccccccccccccccccccccccccccsccccccccccccscccccscccc" />
    <path
       d="m 429.56419,105.00003 c 0.58662,2.31144 -2.06969,3.00978 -3.02832,4.4492 -0.6528,0.98064 0.32057,2.03438 1.64746,3.23145 -0.51743,-1.16966 -2.27197,-2.193 9.3e-4,-3.98828 2.83433,-2.23712 1.37989,-3.69237 1.37989,-3.69237 z m 1.75292,2.85937 c 2e-5,0 -4.79289,1.19637 -2.5039,3.83397 0.67568,0.7778 -0.17676,1.47754 -0.17676,1.47754 0,0 1.71504,-0.88534 0.92774,-1.99414 -0.73561,-1.03354 -1.30022,-1.54665 1.75292,-3.31737 z m 0.84961,4.7119 c -0.16841,3.1e-4 -0.34781,0.0293 -0.53125,0.0937 -0.14708,0.052 -0.22363,0.17286 -0.22363,0.17286 0,0 0.0925,-0.0368 0.29979,-0.0801 0.84778,-0.17669 2.06233,1.13439 -0.56444,2.49902 -0.0122,0.0325 -0.0528,0.0693 -0.0528,0.0693 3.12391,-0.82115 2.44349,-2.75743 1.07227,-2.75488 z m -5.6289,0.13281 c -0.20577,-0.005 -1.0952,0.008 -2.15819,0.52246 -1.43721,0.69489 3.55432,1.01173 6.13865,0.33204 0.26865,-0.18335 0.63965,-0.34277 0.63965,-0.34277 0,0 -1.0572,0.18895 -2.11035,0.27733 -1.28896,0.10815 -2.67115,0.12999 -3.36523,0.0371 -1.64333,-0.21969 0.90039,-0.82422 0.90039,-0.82422 0,0 -0.0155,-9.3e-4 -0.0449,-0.002 z m -0.54785,1.58985 c -2.37049,0.78682 1.32042,1.68008 4.63378,0.71093 -0.35204,-0.12409 -0.57617,-0.35156 -0.57617,-0.35156 -1.61993,0.31177 -2.55498,0.30205 -3.74022,0.17968 -0.91355,-0.0944 -0.32101,-0.53636 -0.31739,-0.53905 z m 0.33594,1.5332 c -2.15257,0.60147 1.30891,1.84321 4.04979,0.66894 -0.4489,-0.17446 -0.7705,-0.37598 -0.7705,-0.37598 -1.22225,0.23104 -1.78899,0.24972 -2.89844,0.12305 -0.91564,-0.105 -0.38085,-0.41601 -0.38085,-0.41601 z m -1.49609,1.01562 c -0.96668,0.0298 -2.85684,0.8991 -1.12793,1.17969 5.58772,0.90573 10.18575,-0.4076 8.7363,-1.06153 0,0 0.39624,0.32577 -0.43554,0.57813 -1.58165,0.47906 -6.58412,0.62394 -7.97362,0.0195 -0.49912,-0.21741 0.43682,-0.51937 0.73145,-0.58301 0.30722,-0.0664 0.4834,-0.0537 0.4834,-0.0537 -0.0868,-0.0611 -0.23505,-0.0847 -0.41406,-0.0792 z m 8.49607,0.83105 c 0,0 -0.17663,0.45174 -2.08398,0.81055 -2.1518,0.4051 -4.80602,0.3585 -6.37987,0.0986 0,0 0.32176,0.26644 1.97852,0.37305 2.52079,0.16116 6.39375,-0.0893 6.48533,-1.28223 z"
       id="path1-6-5-6"
       style="stroke-width:0.500001;fill:#ffffff" />
    <path
       id="path10-62"
       d="m 433.89922,58 c 0.79537,3.30214 -2.80589,4.298645 -4.10563,6.35503 -0.88508,1.40094 0.43445,2.90745 2.23348,4.617585 -0.70153,-1.670985 -3.07978,-3.133015 0.002,-5.69775 C 435.87191,60.07889 433.89922,58 433.89922,58 Z m 2.37802,4.084335 c 4e-5,0 -6.49814,1.70991 -3.39467,5.478005 0.91613,1.11116 -0.24024,2.11053 -0.24024,2.11053 0,0 2.32435,-1.264845 1.25689,-2.848875 -0.99735,-1.476525 -1.76153,-2.209995 2.37802,-4.73966 z m 1.15044,6.73104 c -0.22832,4.5e-4 -0.47007,0.0427 -0.71878,0.13478 -0.19941,0.07437 -0.3047,0.24709 -0.3047,0.24709 0,0 0.12616,-0.05344 0.40724,-0.115245 1.14944,-0.25241 2.79679,1.62112 -0.76468,3.570615 -0.0165,0.04645 -0.0713,0.09864 -0.0713,0.09864 4.23551,-1.1731 3.31136,-3.939545 1.45221,-3.935885 z m -7.63116,0.190445 c -0.27899,-0.0068 -1.48464,0.0125 -2.92589,0.747135 -1.94861,0.992725 4.81865,1.444685 8.32259,0.473675 0.36423,-0.261935 0.86722,-0.489305 0.86722,-0.489305 0,0 -1.43257,0.27025 -2.86047,0.39652 -1.74761,0.1545 -3.6226,0.18445 -4.56365,0.05177 -2.22632,-0.313605 1.2153,-1.17549 1.22075,-1.17686 0,0 -0.0207,-0.002 -0.0605,-0.003 z m -0.74222,2.27168 c -3.21399,1.124055 1.78912,2.39926 6.28149,1.014735 -0.4773,-0.17728 -0.7803,-0.50102 -0.7803,-0.50102 -2.19635,0.4454 -3.46448,0.430685 -5.07148,0.255885 -1.2424,-0.13529 -0.42971,-0.7696 -0.42971,-0.7696 z m 0.45413,2.18964 c -2.91854,0.859256 1.77621,2.633701 5.4924,0.956136 -0.60865,-0.249225 -1.04497,-0.537156 -1.04497,-0.537156 -1.65715,0.330061 -2.4266,0.356751 -3.93081,0.175795 -1.24146,-0.15001 -0.51662,-0.594775 -0.51662,-0.594775 z m -2.02743,1.451296 c -1.31065,0.0426 -3.87348,1.28486 -1.52936,1.68569 7.57604,1.293945 13.81038,-0.58351 11.84519,-1.517705 0,0 0.53692,0.466715 -0.59084,0.82722 -2.14445,0.684385 -8.92704,0.8908 -10.81097,0.02735 -0.67673,-0.310585 0.59275,-0.741175 0.99223,-0.832105 0.41654,-0.09495 0.65432,-0.07813 0.65432,-0.07813 -0.11768,-0.08732 -0.31785,-0.1202 -0.56057,-0.11231 z M 439,76.105061 c 0,0 -0.23925,0.645705 -2.8253,1.158305 -2.9175,0.57873 -6.51684,0.51188 -8.65073,0.140635 0,0 0.43741,0.380945 2.6837,0.533245 3.41779,0.230245 8.66817,-0.12798 8.79233,-1.832185 z"
       style="fill:#ffffff;stroke-width:0.333649;enable-background:new" />
    <path
       d="m 315.06613,229 c 1.25705,4.95309 -4.43505,6.44952 -6.48925,9.53401 -1.39885,2.10136 0.68694,4.35938 3.53027,6.92453 -1.10877,-2.50642 -4.86851,-4.69929 0.002,-8.54632 6.07357,-4.79383 2.9569,-7.91222 2.9569,-7.91222 z m 3.75626,6.12722 c 6e-5,0 -10.27048,2.56365 -5.36549,8.21566 1.44789,1.66671 -0.37877,3.16615 -0.37877,3.16615 0,0 3.67508,-1.89716 1.988,-4.27315 -1.5763,-2.21474 -2.78618,-3.31425 3.75626,-7.10866 z m 1.8206,10.09693 c -0.36087,6.7e-4 -0.74531,0.0628 -1.1384,0.20089 -0.31517,0.11151 -0.47921,0.37041 -0.47921,0.37041 0,0 0.19821,-0.0789 0.64242,-0.17162 1.81667,-0.37861 4.41927,2.43085 -1.20952,5.35504 -0.0261,0.0697 -0.11307,0.1486 -0.11307,0.1486 6.69409,-1.75962 5.23604,-5.90879 2.29771,-5.90332 z m -12.06194,0.2846 c -0.44093,-0.0112 -2.34685,0.0179 -4.62469,1.11956 -3.07973,1.48905 7.61641,2.16799 13.15425,0.7115 0.57568,-0.39289 1.37069,-0.73451 1.37069,-0.73451 0,0 -2.26543,0.40491 -4.52218,0.59429 -2.76206,0.23175 -5.72389,0.27854 -7.2112,0.0795 -3.52143,-0.47076 1.9294,-1.76619 1.9294,-1.76619 0,0 -0.0333,-0.002 -0.0963,-0.004 z m -1.17395,3.40681 c -5.07963,1.68604 2.82946,3.60018 9.92952,1.52342 -0.75436,-0.26591 -1.23464,-0.75333 -1.23464,-0.75333 -3.47128,0.66808 -5.47497,0.64724 -8.01477,0.38503 -1.95761,-0.20223 -0.68788,-1.14935 -0.68011,-1.15512 z m 0.71986,3.28543 c -4.61265,1.28886 2.80481,3.94974 8.67814,1.43344 -0.96194,-0.37383 -1.65109,-0.80567 -1.65109,-0.80567 -2.61909,0.49508 -3.83355,0.53512 -6.21093,0.26368 -1.96209,-0.225 -0.81612,-0.89145 -0.81612,-0.89145 z m -3.2059,2.17633 c -2.07146,0.0639 -6.12181,1.92665 -2.41699,2.5279 11.97368,1.94086 21.8266,-0.87342 18.72065,-2.2747 0,0 0.84908,0.69809 -0.9333,1.23885 -3.38925,1.02655 -14.10884,1.33701 -17.08634,0.0418 -1.06954,-0.46587 0.93604,-1.11292 1.5674,-1.2493 0.65832,-0.14234 1.03585,-0.11508 1.03585,-0.11508 -0.18592,-0.13095 -0.50368,-0.18145 -0.88727,-0.16961 z m 18.20587,1.78082 c 0,0 -0.3785,0.96801 -4.46568,1.7369 -4.611,0.86807 -10.29861,0.76821 -13.67114,0.21139 0,0 0.68947,0.57094 4.23967,0.79939 5.40171,0.34535 13.70091,-0.19129 13.89715,-2.74763 z"
       id="path1-6"
       style="fill:#ffffff;stroke-width:1.07143" />
    <path
       id="path10"
       d="m 323.79844,152 c 1.59073,6.60428 -5.61179,8.59729 -8.21126,12.71006 -1.77017,2.80188 0.8689,5.8149 4.46696,9.23517 -1.40306,-3.34197 -6.15957,-6.26603 0.004,-11.3955 C 327.74382,156.15778 323.79843,152 323.79843,152 Z m 4.75603,8.16867 c 9e-5,0 -12.99628,3.41982 -6.78933,10.95601 1.83226,2.22232 -0.48048,4.22106 -0.48048,4.22106 0,0 4.6487,-2.52969 2.51378,-5.69775 -1.99471,-2.95305 -3.52306,-4.41999 4.75603,-9.47932 z m 2.30088,13.46208 c -0.45664,9e-4 -0.94014,0.0854 -1.43755,0.26956 -0.39883,0.14873 -0.60941,0.49418 -0.60941,0.49418 0,0 0.25233,-0.10688 0.81449,-0.23049 2.29887,-0.50482 5.59357,3.24224 -1.52936,7.14123 -0.033,0.0929 -0.14268,0.19729 -0.14259,0.19729 8.47103,-2.3462 6.62273,-7.87909 2.90442,-7.87177 z m -15.26231,0.38089 c -0.55798,-0.0136 -2.96929,0.025 -5.85179,1.49427 -3.89722,1.98545 9.63731,2.88937 16.64518,0.94735 0.72847,-0.52387 1.73444,-0.97861 1.73444,-0.97861 0,0 -2.86513,0.5405 -5.72093,0.79304 -3.49522,0.309 -7.2452,0.3689 -9.12731,0.10353 -4.45263,-0.62721 2.4306,-2.35098 2.44151,-2.35372 0,0 -0.0414,-0.004 -0.1211,-0.006 z m -1.48444,4.54336 c -6.42799,2.24811 3.57824,4.79852 12.56298,2.02947 -0.95461,-0.35456 -1.5606,-1.00204 -1.5606,-1.00204 -4.39271,0.8908 -6.92897,0.86137 -10.14296,0.51177 -2.48481,-0.27058 -0.85942,-1.5392 -0.85942,-1.5392 z m 0.90825,4.37928 c -5.83708,1.71851 3.55242,5.2674 10.9848,1.91227 -1.21729,-0.49845 -2.08993,-1.07431 -2.08993,-1.07431 -3.3143,0.66012 -4.8532,0.7135 -7.86163,0.35159 -2.48291,-0.30002 -1.03324,-1.18955 -1.03324,-1.18955 z m -4.05485,2.90259 c -2.62131,0.0852 -7.74696,2.56972 -3.05872,3.37138 15.15208,2.58789 27.62076,-1.16702 23.69037,-3.03541 0,0 1.07384,0.93343 -1.18168,1.65444 -4.2889,1.36877 -17.85407,1.7816 -21.62193,0.0547 -1.35347,-0.62117 1.1855,-1.48235 1.98446,-1.66421 0.83307,-0.18989 1.30864,-0.15626 1.30864,-0.15626 -0.23537,-0.17464 -0.63571,-0.2404 -1.12114,-0.22462 z M 334,188.21012 c 0,0 -0.4785,1.29141 -5.6506,2.31661 -5.835,1.15746 -13.03369,1.02376 -17.30146,0.28127 0,0 0.87482,0.76189 5.36739,1.06649 6.83559,0.46049 17.33634,-0.25596 17.58467,-3.66437 z"
       style="fill:#ffffff;stroke-width:0.667298;enable-background:new" />
    <path
       id="path10-62-7"
       d="m 341.69766,45.999999 c 2.38611,9.90642 -8.41767,12.895935 -12.31689,19.06509 -2.65524,4.20282 1.30335,8.722349 6.70044,13.852754 -2.10459,-5.012955 -9.23934,-9.399044 0.006,-17.093249 11.52852,-9.587925 5.61045,-15.824595 5.61045,-15.824595 z m 7.13406,12.253005 c 1.2e-4,0 -19.49442,5.12973 -10.18401,16.434014 2.74839,3.33348 -0.72072,6.33159 -0.72072,6.33159 0,0 6.97305,-3.794535 3.77067,-8.546625 -2.99205,-4.429574 -5.28459,-6.629984 7.13406,-14.218979 z m 3.45132,20.193119 c -0.68496,0.0014 -1.41021,0.1281 -2.15634,0.40434 -0.59823,0.22311 -0.9141,0.74127 -0.9141,0.74127 0,0 0.37848,-0.16032 1.22172,-0.345735 3.44832,-0.75723 8.39037,4.86336 -2.29404,10.711845 -0.0495,0.139346 -0.2139,0.295916 -0.2139,0.295916 12.70653,-3.519296 9.93408,-11.818631 4.35663,-11.807651 z m -22.89348,0.571335 c -0.83697,-0.0204 -4.45392,0.0375 -8.77767,2.241405 -5.84583,2.978175 14.45595,4.334055 24.96777,1.421025 1.09269,-0.785805 2.60166,-1.467915 2.60166,-1.467915 0,0 -4.29771,0.81075 -8.58141,1.18956 -5.24283,0.4635 -10.8678,0.55335 -13.69095,0.15531 -6.67896,-0.940815 3.6459,-3.52647 3.66225,-3.53058 0,0 -0.0621,-0.006 -0.1815,-0.009 z m -2.22666,6.81504 c -9.64197,3.372165 5.36736,7.197781 18.84447,3.044205 -1.4319,-0.53184 -2.3409,-1.50306 -2.3409,-1.50306 -6.58905,1.3362 -10.39344,1.292055 -15.21444,0.767655 -3.7272,-0.40587 -1.28913,-2.3088 -1.28913,-2.3088 z m 1.36239,6.568921 c -8.75562,2.57777 5.32863,7.901101 16.4772,2.86841 -1.82595,-0.74768 -3.13491,-1.61147 -3.13491,-1.61147 -4.97145,0.99018 -7.2798,1.07025 -11.79243,0.52738 -3.72438,-0.45003 -1.54986,-1.78432 -1.54986,-1.78432 z m -6.08229,4.35389 c -3.93195,0.1278 -11.62044,3.854581 -4.58808,5.057071 22.72812,3.88183 41.43114,-1.75053 35.53557,-4.553121 0,0 1.61076,1.40015 -1.77252,2.48166 -6.43335,2.053161 -26.78112,2.672401 -32.43291,0.082 -2.03019,-0.93175 1.77825,-2.22352 2.97669,-2.49631 1.24962,-0.28485 1.96296,-0.23439 1.96296,-0.23439 -0.35304,-0.26196 -0.95355,-0.3606 -1.68171,-0.33693 z M 357,100.31518 c 0,0 -0.71775,1.93712 -8.4759,3.47492 -8.7525,1.73619 -19.55052,1.53564 -25.95219,0.4219 0,0 1.31223,1.14284 8.0511,1.59974 10.25337,0.69073 26.00451,-0.38394 26.37699,-5.49656 z"
       style="fill:#ffffff;stroke-width:1.00095;enable-background:new" />
    <path
       id="path10-6"
       d="m 159.19376,75.999995 c 6.36292,26.417125 -22.44716,34.389165 -32.84504,50.840245 -7.08068,11.20752 3.4756,23.2596 17.86784,36.94068 -5.61224,-13.36788 -24.63828,-25.06412 0.016,-45.582 30.74272,-25.567805 14.96116,-42.198925 14.96116,-42.198925 z m 19.02412,32.674685 c 3.6e-4,0 -51.98512,13.67928 -27.15732,43.82404 7.32904,8.88928 -1.92192,16.88424 -1.92192,16.88424 0,0 18.5948,-10.11876 10.05512,-22.791 -7.97884,-11.8122 -14.09224,-17.67996 19.02412,-37.91728 z m 9.20352,53.84832 c -1.82656,0.004 -3.76056,0.3416 -5.7502,1.07824 -1.59532,0.59492 -2.43764,1.97672 -2.43764,1.97672 0,0 1.00932,-0.42752 3.25796,-0.92196 9.19548,-2.01928 22.37428,12.96896 -6.11744,28.56492 -0.132,0.3716 -0.57072,0.78916 -0.57036,0.78916 33.88412,-9.3848 26.49092,-31.51636 11.61768,-31.48708 z m -61.04924,1.52356 c -2.23192,-0.0544 -11.87716,0.1 -23.40716,5.97708 -15.58888,7.9418 38.54924,11.55748 66.58072,3.7894 2.91388,-2.09548 6.93776,-3.91444 6.93776,-3.91444 0,0 -11.46052,2.162 -22.88372,3.17216 -13.98088,1.236 -28.9808,1.4756 -36.50924,0.41412 -17.81052,-2.50884 9.7224,-9.40392 9.76604,-9.41488 0,0 -0.1656,-0.016 -0.4844,-0.024 z M 120.4344,182.22 c -25.71196,8.99244 14.31296,19.19408 50.25192,8.11788 -3.81844,-1.41824 -6.2424,-4.00816 -6.2424,-4.00816 -17.57084,3.5632 -27.71588,3.44548 -40.57184,2.04708 -9.93924,-1.08232 -3.43768,-6.1568 -3.43768,-6.1568 z m 3.633,17.51712 c -23.34832,6.87404 14.20968,21.0696 43.9392,7.64908 -4.86916,-1.9938 -8.35972,-4.29724 -8.35972,-4.29724 -13.2572,2.64048 -19.4128,2.854 -31.44652,1.40636 -9.93164,-1.20008 -4.13296,-4.7582 -4.13296,-4.7582 z m -16.2194,11.61036 c -10.48524,0.3408 -30.98784,10.27888 -12.23488,13.48552 60.60832,10.35156 110.48304,-4.66808 94.76148,-12.14164 0,0 4.29536,3.73372 -4.72672,6.61776 -17.1556,5.47508 -71.41628,7.1264 -86.48772,0.2188 -5.41388,-2.48468 4.742,-5.9294 7.93784,-6.65684 3.33228,-0.75956 5.23456,-0.62504 5.23456,-0.62504 -0.94148,-0.69856 -2.54284,-0.9616 -4.48456,-0.89848 z m 92.152,9.493 c 0,0 -1.914,5.16564 -22.6024,9.26644 -23.34,4.62984 -52.13476,4.09504 -69.20584,1.12508 0,0 3.49928,3.04756 21.46956,4.26596 27.34236,1.84196 69.34536,-1.02384 70.33868,-14.65748 z"
       style="fill:#ffffff;stroke-width:2.66919;enable-background:new" />
  </g>
  <g
     id="Highlights">
    <path
       id="rect653"
       style="opacity:0.2;fill:#ffffff"
       d="M 80,44 C 53.408027,44 32,65.408027 32,92 v 2 C 32,67.408027 53.408027,46 80,46 h 128 c 26.59197,0 48,21.408027 48,48 V 92 C 256,65.408027 234.59197,44 208,44 Z"
       sodipodi:nodetypes="sscsscsss" />
    <path
       id="rect773"
       style="opacity:0.2;fill:#ffffff"
       d="m 312,34 c -9.97199,0 -18,8.02801 -18,18 v 1 c 0,-9.97199 8.02801,-18 18,-18 h 48 c 9.97199,0 18,8.02801 18,18 v -1 c 0,-9.97199 -8.02801,-18 -18,-18 z" />
    <path
       id="rect1135"
       style="opacity:0.2;fill:#ffffff;fill-opacity:1"
       d="m 304,144 c -6.64799,0 -12,5.35201 -12,12 v 1 c 0,-6.64799 5.35201,-12 12,-12 h 32 c 6.64799,0 12,5.35201 12,12 v -1 c 0,-6.64799 -5.35201,-12 -12,-12 z" />
    <path
       id="rect1265"
       style="opacity:0.2;fill:#ffffff;fill-opacity:1"
       d="m 300,223 c -4.986,0 -9,4.014 -9,9 v 1 c 0,-4.986 4.014,-9 9,-9 h 24 c 4.986,0 9,4.014 9,9 v -1 c 0,-4.986 -4.014,-9 -9,-9 z" />
    <path
       id="rect1368"
       style="opacity:0.2;fill:#ffffff;fill-opacity:1"
       d="m 424,54 c -3.324,0 -6,2.676003 -6,6 v 1 c 0,-3.323997 2.676,-6 6,-6 h 16 c 3.324,0 6,2.676003 6,6 v -1 c 0,-3.323997 -2.676,-6 -6,-6 z" />
    <path
       id="rect1402"
       style="opacity:0.2;fill:#ffffff;fill-opacity:1"
       d="m 420,140 c -2.216,0 -4,1.784 -4,4 v 1 c 0,-2.216 1.784,-4 4,-4 h 8 c 2.216,0 4,1.784 4,4 v -1 c 0,-2.216 -1.784,-4 -4,-4 z" />
    <path
       id="rect1436"
       style="opacity:0.2;fill:#ffffff;fill-opacity:1"
       d="m 422,102 c -2.216,0 -4,1.784 -4,4 v 1 c 0,-2.216 1.784,-4 4,-4 h 12 c 2.216,0 4,1.784 4,4 v -1 c 0,-2.216 -1.784,-4 -4,-4 z" />
  </g>
</svg>
