<?xml version="1.0" encoding="UTF-8" standalone="no"?>
<!DOCTYPE svg PUBLIC "-//W3C//DTD SVG 1.1//EN" "http://www.w3.org/Graphics/SVG/1.1/DTD/svg11.dtd">
<svg width="100%" height="100%" viewBox="0 0 480 300" version="1.1" xmlns="http://www.w3.org/2000/svg" xmlns:xlink="http://www.w3.org/1999/xlink" xml:space="preserve" xmlns:serif="http://www.serif.com/" style="fill-rule:evenodd;clip-rule:evenodd;stroke-linejoin:round;stroke-miterlimit:2;">
    <g id="Icon">
        <g id="Shadow">
            <path id="rect4114" d="M254,97.5C254,84.107 248.679,71.262 239.209,61.791C229.738,52.321 216.893,47 203.5,47L84.5,47C71.107,47 58.262,52.321 48.791,61.791C39.321,71.262 34,84.107 34,97.5L34,216.5C34,229.893 39.321,242.738 48.791,252.209C58.262,261.679 71.107,267 84.5,267L203.5,267C216.893,267 229.738,261.679 239.209,252.209C248.679,242.738 254,229.893 254,216.5L254,97.5Z" style="fill-opacity:0.1;"/>
            <path id="rect4120" d="M447,61.5C447,57.358 443.642,54 439.5,54L424.5,54C420.358,54 417,57.358 417,61.5L417,76.5C417,80.642 420.358,84 424.5,84L439.5,84C443.642,84 447,80.642 447,76.5L447,61.5Z" style="fill-opacity:0.1;"/>
            <g id="rect4122" transform="matrix(1,0,0,-1,0,0)">
                <path d="M333,-256.5C333,-261.747 328.747,-266 323.5,-266L300.5,-266C295.253,-266 291,-261.747 291,-256.5L291,-233.5C291,-228.253 295.253,-224 300.5,-224L323.5,-224C328.747,-224 333,-228.253 333,-233.5L333,-256.5Z" style="fill-opacity:0.1;"/>
            </g>
            <path id="rect4124" d="M380,51.5C380,41.283 371.717,33 361.5,33L310.5,33C300.283,33 292,41.283 292,51.5L292,102.5C292,112.717 300.283,121 310.5,121L361.2,121C366.186,121 370.968,119.019 374.494,115.494C378.019,111.968 380,107.186 380,102.2L380,51.5Z" style="fill-opacity:0.1;"/>
            <path id="rect4126" d="M350,156C350,152.552 348.63,149.246 346.192,146.808C343.754,144.37 340.448,143 337,143L303,143C299.552,143 296.246,144.37 293.808,146.808C291.37,149.246 290,152.552 290,156L290,190C290,193.448 291.37,196.754 293.808,199.192C296.246,201.63 299.552,203 303,203L337,203C340.448,203 343.754,201.63 346.192,199.192C348.63,196.754 350,193.448 350,190L350,156Z" style="fill-opacity:0.1;"/>
            <path id="path4268" d="M422,101C419.23,101 417,103.23 417,106L417,118C417,120.77 419.23,123 422,123L434,123C436.77,123 439,120.77 439,118L439,106C439,103.23 436.77,101 434,101L422,101Z" style="fill-opacity:0.1;fill-rule:nonzero;"/>
            <g id="path4270" transform="matrix(1,0,0,1,0,1)">
                <path d="M419,140C417.338,140 416,141.338 416,143L416,153C416,154.662 417.338,156 419,156L429,156C430.662,156 432,154.662 432,153L432,143C432,141.338 430.662,140 429,140L419,140Z" style="fill-opacity:0.1;fill-rule:nonzero;"/>
            </g>
        </g>
        <g id="Background">
            <path id="path4200" d="M84,46.5C56.569,46.5 34.5,68.569 34.5,96L34.5,216C34.5,243.431 56.569,265.5 84,265.5L204,265.5C231.431,265.5 253.5,243.431 253.5,216L253.5,96C253.5,68.569 231.431,46.5 204,46.5L84,46.5Z" style="fill:url(#_Linear1);fill-rule:nonzero;"/>
            <path id="path4202" d="M419,140.5C417.616,140.5 416.5,141.616 416.5,143L416.5,153C416.5,154.384 417.616,155.5 419,155.5L429,155.5C430.384,155.5 431.5,154.384 431.5,153L431.5,143C431.5,141.616 430.384,140.5 429,140.5L419,140.5Z" style="fill:url(#_Linear2);fill-rule:nonzero;"/>
            <path id="path4204" d="M422,101.5C419.503,101.5 417.5,103.503 417.5,106L417.5,118C417.5,120.497 419.503,122.5 422,122.5L434,122.5C436.497,122.5 438.5,120.497 438.5,118L438.5,106C438.5,103.503 436.497,101.5 434,101.5L422,101.5Z" style="fill:url(#_Linear3);fill-rule:nonzero;"/>
            <path id="path4206" d="M424,53.5C420.393,53.5 417.5,56.393 417.5,60L417.5,76C417.5,79.607 420.393,82.5 424,82.5L440,82.5C443.607,82.5 446.5,79.607 446.5,76L446.5,60C446.5,56.393 443.607,53.5 440,53.5L424,53.5Z" style="fill:url(#_Linear4);fill-rule:nonzero;"/>
            <path id="path4208" d="M300,223.5C295.285,223.5 291.5,227.285 291.5,232L291.5,256C291.5,260.715 295.285,264.5 300,264.5L324,264.5C328.715,264.5 332.5,260.715 332.5,256L332.5,232C332.5,227.285 328.715,223.5 324,223.5L300,223.5Z" style="fill:url(#_Linear5);fill-rule:nonzero;"/>
            <g id="path4210">
                <path d="M310,32.5C300.297,32.5 292.5,40.297 292.5,50L292.5,102C292.5,111.703 300.297,119.5 310,119.5L362,119.5C371.703,119.5 379.5,111.703 379.5,102L379.5,50C379.5,40.297 371.703,32.5 362,32.5L310,32.5Z" style="fill:url(#_Linear6);fill-rule:nonzero;"/>
            </g>
            <path id="path4212" d="M302.5,142.5C295.845,142.5 290.5,147.845 290.5,154.5L290.5,189.5C290.5,196.155 295.845,201.5 302.5,201.5L337.5,201.5C344.155,201.5 349.5,196.155 349.5,189.5L349.5,154.5C349.5,147.845 344.155,142.5 337.5,142.5L302.5,142.5Z" style="fill:url(#_Linear7);fill-rule:nonzero;"/>
        </g>
        <g id="Symbols">
            <g id="Glyph" transform="matrix(0.0728982,0,0,0.0728982,282.676,135.677)">
                <path d="M737.565,210.195L513.637,210.195C511.522,210.195 509.81,211.914 509.81,214.021L509.81,285.13C509.81,287.523 511.744,289.464 514.144,289.464L544.846,289.464C557.261,289.464 567.331,299.019 568.409,311.149L568.409,647.599L568.401,647.599C568.48,650.309 568.369,652.979 568.108,655.601C568.076,655.982 568.029,656.362 567.981,656.742C567.799,658.279 567.609,659.8 567.307,661.298C567.149,662.146 566.911,662.978 566.713,663.81C566.436,664.927 566.214,666.06 565.873,667.153C563.845,673.634 560.644,679.648 556.215,684.932C556.057,685.122 555.851,685.297 555.692,685.487C554.345,687.048 552.927,688.569 551.359,690.003C549.774,691.445 548.094,692.784 546.335,694.028C533.809,702.902 516.941,706.8 498.108,705.001C474.086,702.743 450.253,691.849 430.992,674.323C411.732,656.798 399.76,635.112 397.28,613.261C395.046,593.715 400.909,576.506 413.76,564.812C413.792,564.788 413.823,564.764 413.847,564.733C414.346,564.289 414.893,563.901 415.408,563.465C424.607,555.764 436.594,551.089 450.285,549.806C450.435,549.79 450.586,549.766 450.729,549.75C452.171,549.623 453.636,549.568 455.118,549.512C455.894,549.489 456.655,549.433 457.447,549.425C457.701,549.425 457.954,549.394 458.216,549.394C458.683,549.394 459.167,549.457 459.634,549.465C461.789,549.497 463.96,549.584 466.178,549.774C466.456,549.798 466.725,549.79 467.01,549.814C467.216,549.837 467.414,549.877 467.62,549.901C480.178,551.16 492.602,554.908 504.399,560.589C504.645,560.597 504.93,560.668 505.286,560.866C508.883,562.855 509.573,560.724 509.676,559.313L509.676,452.281C509.676,449.215 507.544,446.506 504.549,445.848C441.023,431.864 378.693,446.419 334.704,486.461C296.286,521.41 277.698,571.847 283.72,624.828C289.092,672.018 313.312,717.361 351.937,752.507C389.579,786.751 437.505,808.166 486.945,812.825C493.75,813.451 500.596,813.776 507.275,813.776C554.496,813.776 598.302,797.589 630.644,768.171C661.274,740.282 679.624,701.982 682.318,660.323L682.563,387.067L682.587,387.067L682.587,314.01L682.603,314.01L682.603,312.734C682.88,299.835 693.394,289.464 706.356,289.464L737.058,289.464C739.45,289.464 741.391,287.523 741.391,285.13L741.391,214.021C741.391,211.914 739.68,210.195 737.565,210.195" style="fill-opacity:0.2;"/>
            </g>
            <g id="Glyph1" serif:id="Glyph" transform="matrix(0.0728982,0,0,0.0728982,282.676,134.677)">
                <path d="M737.565,210.195L513.637,210.195C511.522,210.195 509.81,211.914 509.81,214.021L509.81,285.13C509.81,287.523 511.744,289.464 514.144,289.464L544.846,289.464C557.261,289.464 567.331,299.019 568.409,311.149L568.409,647.599L568.401,647.599C568.48,650.309 568.369,652.979 568.108,655.601C568.076,655.982 568.029,656.362 567.981,656.742C567.799,658.279 567.609,659.8 567.307,661.298C567.149,662.146 566.911,662.978 566.713,663.81C566.436,664.927 566.214,666.06 565.873,667.153C563.845,673.634 560.644,679.648 556.215,684.932C556.057,685.122 555.851,685.297 555.692,685.487C554.345,687.048 552.927,688.569 551.359,690.003C549.774,691.445 548.094,692.784 546.335,694.028C533.809,702.902 516.941,706.8 498.108,705.001C474.086,702.743 450.253,691.849 430.992,674.323C411.732,656.798 399.76,635.112 397.28,613.261C395.046,593.715 400.909,576.506 413.76,564.812C413.792,564.788 413.823,564.764 413.847,564.733C414.346,564.289 414.893,563.901 415.408,563.465C424.607,555.764 436.594,551.089 450.285,549.806C450.435,549.79 450.586,549.766 450.729,549.75C452.171,549.623 453.636,549.568 455.118,549.512C455.894,549.489 456.655,549.433 457.447,549.425C457.701,549.425 457.954,549.394 458.216,549.394C458.683,549.394 459.167,549.457 459.634,549.465C461.789,549.497 463.96,549.584 466.178,549.774C466.456,549.798 466.725,549.79 467.01,549.814C467.216,549.837 467.414,549.877 467.62,549.901C480.178,551.16 492.602,554.908 504.399,560.589C504.645,560.597 504.93,560.668 505.286,560.866C508.883,562.855 509.573,560.724 509.676,559.313L509.676,452.281C509.676,449.215 507.544,446.506 504.549,445.848C441.023,431.864 378.693,446.419 334.704,486.461C296.286,521.41 277.698,571.847 283.72,624.828C289.092,672.018 313.312,717.361 351.937,752.507C389.579,786.751 437.505,808.166 486.945,812.825C493.75,813.451 500.596,813.776 507.275,813.776C554.496,813.776 598.302,797.589 630.644,768.171C661.274,740.282 679.624,701.982 682.318,660.323L682.563,387.067L682.587,387.067L682.587,314.01L682.603,314.01L682.603,312.734C682.88,299.835 693.394,289.464 706.356,289.464L737.058,289.464C739.45,289.464 741.391,287.523 741.391,285.13L741.391,214.021C741.391,211.914 739.68,210.195 737.565,210.195" style="fill:white;"/>
            </g>
            <g id="Glyph2" serif:id="Glyph" transform="matrix(0.0463898,0,0,0.0463898,288.248,221.249)">
                <path d="M737.565,210.195L513.637,210.195C511.522,210.195 509.81,211.914 509.81,214.021L509.81,285.13C509.81,287.523 511.744,289.464 514.144,289.464L544.846,289.464C557.261,289.464 567.331,299.019 568.409,311.149L568.409,647.599L568.401,647.599C568.48,650.309 568.369,652.979 568.108,655.601C568.076,655.982 568.029,656.362 567.981,656.742C567.799,658.279 567.609,659.8 567.307,661.298C567.149,662.146 566.911,662.978 566.713,663.81C566.436,664.927 566.214,666.06 565.873,667.153C563.845,673.634 560.644,679.648 556.215,684.932C556.057,685.122 555.851,685.297 555.692,685.487C554.345,687.048 552.927,688.569 551.359,690.003C549.774,691.445 548.094,692.784 546.335,694.028C533.809,702.902 516.941,706.8 498.108,705.001C474.086,702.743 450.253,691.849 430.992,674.323C411.732,656.798 399.76,635.112 397.28,613.261C395.046,593.715 400.909,576.506 413.76,564.812C413.792,564.788 413.823,564.764 413.847,564.733C414.346,564.289 414.893,563.901 415.408,563.465C424.607,555.764 436.594,551.089 450.285,549.806C450.435,549.79 450.586,549.766 450.729,549.75C452.171,549.623 453.636,549.568 455.118,549.512C455.894,549.489 456.655,549.433 457.447,549.425C457.701,549.425 457.954,549.394 458.216,549.394C458.683,549.394 459.167,549.457 459.634,549.465C461.789,549.497 463.96,549.584 466.178,549.774C466.456,549.798 466.725,549.79 467.01,549.814C467.216,549.837 467.414,549.877 467.62,549.901C480.178,551.16 492.602,554.908 504.399,560.589C504.645,560.597 504.93,560.668 505.286,560.866C508.883,562.855 509.573,560.724 509.676,559.313L509.676,452.281C509.676,449.215 507.544,446.506 504.549,445.848C441.023,431.864 378.693,446.419 334.704,486.461C296.286,521.41 277.698,571.847 283.72,624.828C289.092,672.018 313.312,717.361 351.937,752.507C389.579,786.751 437.505,808.166 486.945,812.825C493.75,813.451 500.596,813.776 507.275,813.776C554.496,813.776 598.302,797.589 630.644,768.171C661.274,740.282 679.624,701.982 682.318,660.323L682.563,387.067L682.587,387.067L682.587,314.01L682.603,314.01L682.603,312.734C682.88,299.835 693.394,289.464 706.356,289.464L737.058,289.464C739.45,289.464 741.391,287.523 741.391,285.13L741.391,214.021C741.391,211.914 739.68,210.195 737.565,210.195" style="fill-opacity:0.2;"/>
            </g>
            <g id="Glyph3" serif:id="Glyph" transform="matrix(0.0463898,0,0,0.0463898,288.248,220.249)">
                <path d="M737.565,210.195L513.637,210.195C511.522,210.195 509.81,211.914 509.81,214.021L509.81,285.13C509.81,287.523 511.744,289.464 514.144,289.464L544.846,289.464C557.261,289.464 567.331,299.019 568.409,311.149L568.409,647.599L568.401,647.599C568.48,650.309 568.369,652.979 568.108,655.601C568.076,655.982 568.029,656.362 567.981,656.742C567.799,658.279 567.609,659.8 567.307,661.298C567.149,662.146 566.911,662.978 566.713,663.81C566.436,664.927 566.214,666.06 565.873,667.153C563.845,673.634 560.644,679.648 556.215,684.932C556.057,685.122 555.851,685.297 555.692,685.487C554.345,687.048 552.927,688.569 551.359,690.003C549.774,691.445 548.094,692.784 546.335,694.028C533.809,702.902 516.941,706.8 498.108,705.001C474.086,702.743 450.253,691.849 430.992,674.323C411.732,656.798 399.76,635.112 397.28,613.261C395.046,593.715 400.909,576.506 413.76,564.812C413.792,564.788 413.823,564.764 413.847,564.733C414.346,564.289 414.893,563.901 415.408,563.465C424.607,555.764 436.594,551.089 450.285,549.806C450.435,549.79 450.586,549.766 450.729,549.75C452.171,549.623 453.636,549.568 455.118,549.512C455.894,549.489 456.655,549.433 457.447,549.425C457.701,549.425 457.954,549.394 458.216,549.394C458.683,549.394 459.167,549.457 459.634,549.465C461.789,549.497 463.96,549.584 466.178,549.774C466.456,549.798 466.725,549.79 467.01,549.814C467.216,549.837 467.414,549.877 467.62,549.901C480.178,551.16 492.602,554.908 504.399,560.589C504.645,560.597 504.93,560.668 505.286,560.866C508.883,562.855 509.573,560.724 509.676,559.313L509.676,452.281C509.676,449.215 507.544,446.506 504.549,445.848C441.023,431.864 378.693,446.419 334.704,486.461C296.286,521.41 277.698,571.847 283.72,624.828C289.092,672.018 313.312,717.361 351.937,752.507C389.579,786.751 437.505,808.166 486.945,812.825C493.75,813.451 500.596,813.776 507.275,813.776C554.496,813.776 598.302,797.589 630.644,768.171C661.274,740.282 679.624,701.982 682.318,660.323L682.563,387.067L682.587,387.067L682.587,314.01L682.603,314.01L682.603,312.734C682.88,299.835 693.394,289.464 706.356,289.464L737.058,289.464C739.45,289.464 741.391,287.523 741.391,285.13L741.391,214.021C741.391,211.914 739.68,210.195 737.565,210.195" style="fill:white;"/>
            </g>
            <g id="Glyph4" serif:id="Glyph" transform="matrix(0.0331356,0,0,0.0331356,415.035,52.0351)">
                <path d="M737.565,210.195L513.637,210.195C511.522,210.195 509.81,211.914 509.81,214.021L509.81,285.13C509.81,287.523 511.744,289.464 514.144,289.464L544.846,289.464C557.261,289.464 567.331,299.019 568.409,311.149L568.409,647.599L568.401,647.599C568.48,650.309 568.369,652.979 568.108,655.601C568.076,655.982 568.029,656.362 567.981,656.742C567.799,658.279 567.609,659.8 567.307,661.298C567.149,662.146 566.911,662.978 566.713,663.81C566.436,664.927 566.214,666.06 565.873,667.153C563.845,673.634 560.644,679.648 556.215,684.932C556.057,685.122 555.851,685.297 555.692,685.487C554.345,687.048 552.927,688.569 551.359,690.003C549.774,691.445 548.094,692.784 546.335,694.028C533.809,702.902 516.941,706.8 498.108,705.001C474.086,702.743 450.253,691.849 430.992,674.323C411.732,656.798 399.76,635.112 397.28,613.261C395.046,593.715 400.909,576.506 413.76,564.812C413.792,564.788 413.823,564.764 413.847,564.733C414.346,564.289 414.893,563.901 415.408,563.465C424.607,555.764 436.594,551.089 450.285,549.806C450.435,549.79 450.586,549.766 450.729,549.75C452.171,549.623 453.636,549.568 455.118,549.512C455.894,549.489 456.655,549.433 457.447,549.425C457.701,549.425 457.954,549.394 458.216,549.394C458.683,549.394 459.167,549.457 459.634,549.465C461.789,549.497 463.96,549.584 466.178,549.774C466.456,549.798 466.725,549.79 467.01,549.814C467.216,549.837 467.414,549.877 467.62,549.901C480.178,551.16 492.602,554.908 504.399,560.589C504.645,560.597 504.93,560.668 505.286,560.866C508.883,562.855 509.573,560.724 509.676,559.313L509.676,452.281C509.676,449.215 507.544,446.506 504.549,445.848C441.023,431.864 378.693,446.419 334.704,486.461C296.286,521.41 277.698,571.847 283.72,624.828C289.092,672.018 313.312,717.361 351.937,752.507C389.579,786.751 437.505,808.166 486.945,812.825C493.75,813.451 500.596,813.776 507.275,813.776C554.496,813.776 598.302,797.589 630.644,768.171C661.274,740.282 679.624,701.982 682.318,660.323L682.563,387.067L682.587,387.067L682.587,314.01L682.603,314.01L682.603,312.734C682.88,299.835 693.394,289.464 706.356,289.464L737.058,289.464C739.45,289.464 741.391,287.523 741.391,285.13L741.391,214.021C741.391,211.914 739.68,210.195 737.565,210.195" style="fill-opacity:0.2;"/>
            </g>
            <g id="Glyph5" serif:id="Glyph" transform="matrix(0.0331356,0,0,0.0331356,415.035,51.0351)">
                <path d="M737.565,210.195L513.637,210.195C511.522,210.195 509.81,211.914 509.81,214.021L509.81,285.13C509.81,287.523 511.744,289.464 514.144,289.464L544.846,289.464C557.261,289.464 567.331,299.019 568.409,311.149L568.409,647.599L568.401,647.599C568.48,650.309 568.369,652.979 568.108,655.601C568.076,655.982 568.029,656.362 567.981,656.742C567.799,658.279 567.609,659.8 567.307,661.298C567.149,662.146 566.911,662.978 566.713,663.81C566.436,664.927 566.214,666.06 565.873,667.153C563.845,673.634 560.644,679.648 556.215,684.932C556.057,685.122 555.851,685.297 555.692,685.487C554.345,687.048 552.927,688.569 551.359,690.003C549.774,691.445 548.094,692.784 546.335,694.028C533.809,702.902 516.941,706.8 498.108,705.001C474.086,702.743 450.253,691.849 430.992,674.323C411.732,656.798 399.76,635.112 397.28,613.261C395.046,593.715 400.909,576.506 413.76,564.812C413.792,564.788 413.823,564.764 413.847,564.733C414.346,564.289 414.893,563.901 415.408,563.465C424.607,555.764 436.594,551.089 450.285,549.806C450.435,549.79 450.586,549.766 450.729,549.75C452.171,549.623 453.636,549.568 455.118,549.512C455.894,549.489 456.655,549.433 457.447,549.425C457.701,549.425 457.954,549.394 458.216,549.394C458.683,549.394 459.167,549.457 459.634,549.465C461.789,549.497 463.96,549.584 466.178,549.774C466.456,549.798 466.725,549.79 467.01,549.814C467.216,549.837 467.414,549.877 467.62,549.901C480.178,551.16 492.602,554.908 504.399,560.589C504.645,560.597 504.93,560.668 505.286,560.866C508.883,562.855 509.573,560.724 509.676,559.313L509.676,452.281C509.676,449.215 507.544,446.506 504.549,445.848C441.023,431.864 378.693,446.419 334.704,486.461C296.286,521.41 277.698,571.847 283.72,624.828C289.092,672.018 313.312,717.361 351.937,752.507C389.579,786.751 437.505,808.166 486.945,812.825C493.75,813.451 500.596,813.776 507.275,813.776C554.496,813.776 598.302,797.589 630.644,768.171C661.274,740.282 679.624,701.982 682.318,660.323L682.563,387.067L682.587,387.067L682.587,314.01L682.603,314.01L682.603,312.734C682.88,299.835 693.394,289.464 706.356,289.464L737.058,289.464C739.45,289.464 741.391,287.523 741.391,285.13L741.391,214.021C741.391,211.914 739.68,210.195 737.565,210.195" style="fill:white;"/>
            </g>
            <g id="Glyph6" serif:id="Glyph" transform="matrix(0.0231949,0,0,0.0231949,416.124,101.125)">
                <path d="M737.565,210.195L513.637,210.195C511.522,210.195 509.81,211.914 509.81,214.021L509.81,285.13C509.81,287.523 511.744,289.464 514.144,289.464L544.846,289.464C557.261,289.464 567.331,299.019 568.409,311.149L568.409,647.599L568.401,647.599C568.48,650.309 568.369,652.979 568.108,655.601C568.076,655.982 568.029,656.362 567.981,656.742C567.799,658.279 567.609,659.8 567.307,661.298C567.149,662.146 566.911,662.978 566.713,663.81C566.436,664.927 566.214,666.06 565.873,667.153C563.845,673.634 560.644,679.648 556.215,684.932C556.057,685.122 555.851,685.297 555.692,685.487C554.345,687.048 552.927,688.569 551.359,690.003C549.774,691.445 548.094,692.784 546.335,694.028C533.809,702.902 516.941,706.8 498.108,705.001C474.086,702.743 450.253,691.849 430.992,674.323C411.732,656.798 399.76,635.112 397.28,613.261C395.046,593.715 400.909,576.506 413.76,564.812C413.792,564.788 413.823,564.764 413.847,564.733C414.346,564.289 414.893,563.901 415.408,563.465C424.607,555.764 436.594,551.089 450.285,549.806C450.435,549.79 450.586,549.766 450.729,549.75C452.171,549.623 453.636,549.568 455.118,549.512C455.894,549.489 456.655,549.433 457.447,549.425C457.701,549.425 457.954,549.394 458.216,549.394C458.683,549.394 459.167,549.457 459.634,549.465C461.789,549.497 463.96,549.584 466.178,549.774C466.456,549.798 466.725,549.79 467.01,549.814C467.216,549.837 467.414,549.877 467.62,549.901C480.178,551.16 492.602,554.908 504.399,560.589C504.645,560.597 504.93,560.668 505.286,560.866C508.883,562.855 509.573,560.724 509.676,559.313L509.676,452.281C509.676,449.215 507.544,446.506 504.549,445.848C441.023,431.864 378.693,446.419 334.704,486.461C296.286,521.41 277.698,571.847 283.72,624.828C289.092,672.018 313.312,717.361 351.937,752.507C389.579,786.751 437.505,808.166 486.945,812.825C493.75,813.451 500.596,813.776 507.275,813.776C554.496,813.776 598.302,797.589 630.644,768.171C661.274,740.282 679.624,701.982 682.318,660.323L682.563,387.067L682.587,387.067L682.587,314.01L682.603,314.01L682.603,312.734C682.88,299.835 693.394,289.464 706.356,289.464L737.058,289.464C739.45,289.464 741.391,287.523 741.391,285.13L741.391,214.021C741.391,211.914 739.68,210.195 737.565,210.195" style="fill-opacity:0.2;"/>
            </g>
            <g id="Glyph7" serif:id="Glyph" transform="matrix(0.0231949,0,0,0.0231949,416.124,100.125)">
                <path d="M737.565,210.195L513.637,210.195C511.522,210.195 509.81,211.914 509.81,214.021L509.81,285.13C509.81,287.523 511.744,289.464 514.144,289.464L544.846,289.464C557.261,289.464 567.331,299.019 568.409,311.149L568.409,647.599L568.401,647.599C568.48,650.309 568.369,652.979 568.108,655.601C568.076,655.982 568.029,656.362 567.981,656.742C567.799,658.279 567.609,659.8 567.307,661.298C567.149,662.146 566.911,662.978 566.713,663.81C566.436,664.927 566.214,666.06 565.873,667.153C563.845,673.634 560.644,679.648 556.215,684.932C556.057,685.122 555.851,685.297 555.692,685.487C554.345,687.048 552.927,688.569 551.359,690.003C549.774,691.445 548.094,692.784 546.335,694.028C533.809,702.902 516.941,706.8 498.108,705.001C474.086,702.743 450.253,691.849 430.992,674.323C411.732,656.798 399.76,635.112 397.28,613.261C395.046,593.715 400.909,576.506 413.76,564.812C413.792,564.788 413.823,564.764 413.847,564.733C414.346,564.289 414.893,563.901 415.408,563.465C424.607,555.764 436.594,551.089 450.285,549.806C450.435,549.79 450.586,549.766 450.729,549.75C452.171,549.623 453.636,549.568 455.118,549.512C455.894,549.489 456.655,549.433 457.447,549.425C457.701,549.425 457.954,549.394 458.216,549.394C458.683,549.394 459.167,549.457 459.634,549.465C461.789,549.497 463.96,549.584 466.178,549.774C466.456,549.798 466.725,549.79 467.01,549.814C467.216,549.837 467.414,549.877 467.62,549.901C480.178,551.16 492.602,554.908 504.399,560.589C504.645,560.597 504.93,560.668 505.286,560.866C508.883,562.855 509.573,560.724 509.676,559.313L509.676,452.281C509.676,449.215 507.544,446.506 504.549,445.848C441.023,431.864 378.693,446.419 334.704,486.461C296.286,521.41 277.698,571.847 283.72,624.828C289.092,672.018 313.312,717.361 351.937,752.507C389.579,786.751 437.505,808.166 486.945,812.825C493.75,813.451 500.596,813.776 507.275,813.776C554.496,813.776 598.302,797.589 630.644,768.171C661.274,740.282 679.624,701.982 682.318,660.323L682.563,387.067L682.587,387.067L682.587,314.01L682.603,314.01L682.603,312.734C682.88,299.835 693.394,289.464 706.356,289.464L737.058,289.464C739.45,289.464 741.391,287.523 741.391,285.13L741.391,214.021C741.391,211.914 739.68,210.195 737.565,210.195" style="fill:white;"/>
            </g>
            <g id="Glyph8" serif:id="Glyph" transform="matrix(0.0165678,0,0,0.0165678,415.517,140.518)">
                <path d="M737.565,210.195L513.637,210.195C511.522,210.195 509.81,211.914 509.81,214.021L509.81,285.13C509.81,287.523 511.744,289.464 514.144,289.464L544.846,289.464C557.261,289.464 567.331,299.019 568.409,311.149L568.409,647.599L568.401,647.599C568.48,650.309 568.369,652.979 568.108,655.601C568.076,655.982 568.029,656.362 567.981,656.742C567.799,658.279 567.609,659.8 567.307,661.298C567.149,662.146 566.911,662.978 566.713,663.81C566.436,664.927 566.214,666.06 565.873,667.153C563.845,673.634 560.644,679.648 556.215,684.932C556.057,685.122 555.851,685.297 555.692,685.487C554.345,687.048 552.927,688.569 551.359,690.003C549.774,691.445 548.094,692.784 546.335,694.028C533.809,702.902 516.941,706.8 498.108,705.001C474.086,702.743 450.253,691.849 430.992,674.323C411.732,656.798 399.76,635.112 397.28,613.261C395.046,593.715 400.909,576.506 413.76,564.812C413.792,564.788 413.823,564.764 413.847,564.733C414.346,564.289 414.893,563.901 415.408,563.465C424.607,555.764 436.594,551.089 450.285,549.806C450.435,549.79 450.586,549.766 450.729,549.75C452.171,549.623 453.636,549.568 455.118,549.512C455.894,549.489 456.655,549.433 457.447,549.425C457.701,549.425 457.954,549.394 458.216,549.394C458.683,549.394 459.167,549.457 459.634,549.465C461.789,549.497 463.96,549.584 466.178,549.774C466.456,549.798 466.725,549.79 467.01,549.814C467.216,549.837 467.414,549.877 467.62,549.901C480.178,551.16 492.602,554.908 504.399,560.589C504.645,560.597 504.93,560.668 505.286,560.866C508.883,562.855 509.573,560.724 509.676,559.313L509.676,452.281C509.676,449.215 507.544,446.506 504.549,445.848C441.023,431.864 378.693,446.419 334.704,486.461C296.286,521.41 277.698,571.847 283.72,624.828C289.092,672.018 313.312,717.361 351.937,752.507C389.579,786.751 437.505,808.166 486.945,812.825C493.75,813.451 500.596,813.776 507.275,813.776C554.496,813.776 598.302,797.589 630.644,768.171C661.274,740.282 679.624,701.982 682.318,660.323L682.563,387.067L682.587,387.067L682.587,314.01L682.603,314.01L682.603,312.734C682.88,299.835 693.394,289.464 706.356,289.464L737.058,289.464C739.45,289.464 741.391,287.523 741.391,285.13L741.391,214.021C741.391,211.914 739.68,210.195 737.565,210.195" style="fill-opacity:0.2;"/>
            </g>
            <g id="Glyph9" serif:id="Glyph" transform="matrix(0.0165678,0,0,0.0165678,415.517,139.518)">
                <path d="M737.565,210.195L513.637,210.195C511.522,210.195 509.81,211.914 509.81,214.021L509.81,285.13C509.81,287.523 511.744,289.464 514.144,289.464L544.846,289.464C557.261,289.464 567.331,299.019 568.409,311.149L568.409,647.599L568.401,647.599C568.48,650.309 568.369,652.979 568.108,655.601C568.076,655.982 568.029,656.362 567.981,656.742C567.799,658.279 567.609,659.8 567.307,661.298C567.149,662.146 566.911,662.978 566.713,663.81C566.436,664.927 566.214,666.06 565.873,667.153C563.845,673.634 560.644,679.648 556.215,684.932C556.057,685.122 555.851,685.297 555.692,685.487C554.345,687.048 552.927,688.569 551.359,690.003C549.774,691.445 548.094,692.784 546.335,694.028C533.809,702.902 516.941,706.8 498.108,705.001C474.086,702.743 450.253,691.849 430.992,674.323C411.732,656.798 399.76,635.112 397.28,613.261C395.046,593.715 400.909,576.506 413.76,564.812C413.792,564.788 413.823,564.764 413.847,564.733C414.346,564.289 414.893,563.901 415.408,563.465C424.607,555.764 436.594,551.089 450.285,549.806C450.435,549.79 450.586,549.766 450.729,549.75C452.171,549.623 453.636,549.568 455.118,549.512C455.894,549.489 456.655,549.433 457.447,549.425C457.701,549.425 457.954,549.394 458.216,549.394C458.683,549.394 459.167,549.457 459.634,549.465C461.789,549.497 463.96,549.584 466.178,549.774C466.456,549.798 466.725,549.79 467.01,549.814C467.216,549.837 467.414,549.877 467.62,549.901C480.178,551.16 492.602,554.908 504.399,560.589C504.645,560.597 504.93,560.668 505.286,560.866C508.883,562.855 509.573,560.724 509.676,559.313L509.676,452.281C509.676,449.215 507.544,446.506 504.549,445.848C441.023,431.864 378.693,446.419 334.704,486.461C296.286,521.41 277.698,571.847 283.72,624.828C289.092,672.018 313.312,717.361 351.937,752.507C389.579,786.751 437.505,808.166 486.945,812.825C493.75,813.451 500.596,813.776 507.275,813.776C554.496,813.776 598.302,797.589 630.644,768.171C661.274,740.282 679.624,701.982 682.318,660.323L682.563,387.067L682.587,387.067L682.587,314.01L682.603,314.01L682.603,312.734C682.88,299.835 693.394,289.464 706.356,289.464L737.058,289.464C739.45,289.464 741.391,287.523 741.391,285.13L741.391,214.021C741.391,211.914 739.68,210.195 737.565,210.195" style="fill:white;"/>
            </g>
            <g id="Glyph10" serif:id="Glyph" transform="matrix(0.0960931,0,0,0.0960931,286.8,27.8018)">
                <path d="M737.565,210.195L513.637,210.195C511.522,210.195 509.81,211.914 509.81,214.021L509.81,285.13C509.81,287.523 511.744,289.464 514.144,289.464L544.846,289.464C557.261,289.464 567.331,299.019 568.409,311.149L568.409,647.599L568.401,647.599C568.48,650.309 568.369,652.979 568.108,655.601C568.076,655.982 568.029,656.362 567.981,656.742C567.799,658.279 567.609,659.8 567.307,661.298C567.149,662.146 566.911,662.978 566.713,663.81C566.436,664.927 566.214,666.06 565.873,667.153C563.845,673.634 560.644,679.648 556.215,684.932C556.057,685.122 555.851,685.297 555.692,685.487C554.345,687.048 552.927,688.569 551.359,690.003C549.774,691.445 548.094,692.784 546.335,694.028C533.809,702.902 516.941,706.8 498.108,705.001C474.086,702.743 450.253,691.849 430.992,674.323C411.732,656.798 399.76,635.112 397.28,613.261C395.046,593.715 400.909,576.506 413.76,564.812C413.792,564.788 413.823,564.764 413.847,564.733C414.346,564.289 414.893,563.901 415.408,563.465C424.607,555.764 436.594,551.089 450.285,549.806C450.435,549.79 450.586,549.766 450.729,549.75C452.171,549.623 453.636,549.568 455.118,549.512C455.894,549.489 456.655,549.433 457.447,549.425C457.701,549.425 457.954,549.394 458.216,549.394C458.683,549.394 459.167,549.457 459.634,549.465C461.789,549.497 463.96,549.584 466.178,549.774C466.456,549.798 466.725,549.79 467.01,549.814C467.216,549.837 467.414,549.877 467.62,549.901C480.178,551.16 492.602,554.908 504.399,560.589C504.645,560.597 504.93,560.668 505.286,560.866C508.883,562.855 509.573,560.724 509.676,559.313L509.676,452.281C509.676,449.215 507.544,446.506 504.549,445.848C441.023,431.864 378.693,446.419 334.704,486.461C296.286,521.41 277.698,571.847 283.72,624.828C289.092,672.018 313.312,717.361 351.937,752.507C389.579,786.751 437.505,808.166 486.945,812.825C493.75,813.451 500.596,813.776 507.275,813.776C554.496,813.776 598.302,797.589 630.644,768.171C661.274,740.282 679.624,701.982 682.318,660.323L682.563,387.067L682.587,387.067L682.587,314.01L682.603,314.01L682.603,312.734C682.88,299.835 693.394,289.464 706.356,289.464L737.058,289.464C739.45,289.464 741.391,287.523 741.391,285.13L741.391,214.021C741.391,211.914 739.68,210.195 737.565,210.195" style="fill-opacity:0.2;"/>
            </g>
            <g id="Glyph11" serif:id="Glyph" transform="matrix(0.0960931,0,0,0.0960931,286.8,26.8018)">
                <path d="M737.565,210.195L513.637,210.195C511.522,210.195 509.81,211.914 509.81,214.021L509.81,285.13C509.81,287.523 511.744,289.464 514.144,289.464L544.846,289.464C557.261,289.464 567.331,299.019 568.409,311.149L568.409,647.599L568.401,647.599C568.48,650.309 568.369,652.979 568.108,655.601C568.076,655.982 568.029,656.362 567.981,656.742C567.799,658.279 567.609,659.8 567.307,661.298C567.149,662.146 566.911,662.978 566.713,663.81C566.436,664.927 566.214,666.06 565.873,667.153C563.845,673.634 560.644,679.648 556.215,684.932C556.057,685.122 555.851,685.297 555.692,685.487C554.345,687.048 552.927,688.569 551.359,690.003C549.774,691.445 548.094,692.784 546.335,694.028C533.809,702.902 516.941,706.8 498.108,705.001C474.086,702.743 450.253,691.849 430.992,674.323C411.732,656.798 399.76,635.112 397.28,613.261C395.046,593.715 400.909,576.506 413.76,564.812C413.792,564.788 413.823,564.764 413.847,564.733C414.346,564.289 414.893,563.901 415.408,563.465C424.607,555.764 436.594,551.089 450.285,549.806C450.435,549.79 450.586,549.766 450.729,549.75C452.171,549.623 453.636,549.568 455.118,549.512C455.894,549.489 456.655,549.433 457.447,549.425C457.701,549.425 457.954,549.394 458.216,549.394C458.683,549.394 459.167,549.457 459.634,549.465C461.789,549.497 463.96,549.584 466.178,549.774C466.456,549.798 466.725,549.79 467.01,549.814C467.216,549.837 467.414,549.877 467.62,549.901C480.178,551.16 492.602,554.908 504.399,560.589C504.645,560.597 504.93,560.668 505.286,560.866C508.883,562.855 509.573,560.724 509.676,559.313L509.676,452.281C509.676,449.215 507.544,446.506 504.549,445.848C441.023,431.864 378.693,446.419 334.704,486.461C296.286,521.41 277.698,571.847 283.72,624.828C289.092,672.018 313.312,717.361 351.937,752.507C389.579,786.751 437.505,808.166 486.945,812.825C493.75,813.451 500.596,813.776 507.275,813.776C554.496,813.776 598.302,797.589 630.644,768.171C661.274,740.282 679.624,701.982 682.318,660.323L682.563,387.067L682.587,387.067L682.587,314.01L682.603,314.01L682.603,312.734C682.88,299.835 693.394,289.464 706.356,289.464L737.058,289.464C739.45,289.464 741.391,287.523 741.391,285.13L741.391,214.021C741.391,211.914 739.68,210.195 737.565,210.195" style="fill:white;"/>
            </g>
            <g id="Glyph12" serif:id="Glyph" transform="matrix(0.265084,0,0,0.265084,8.27712,21.2807)">
                <path d="M737.565,210.195L513.637,210.195C511.522,210.195 509.81,211.914 509.81,214.021L509.81,285.13C509.81,287.523 511.744,289.464 514.144,289.464L544.846,289.464C557.261,289.464 567.331,299.019 568.409,311.149L568.409,647.599L568.401,647.599C568.48,650.309 568.369,652.979 568.108,655.601C568.076,655.982 568.029,656.362 567.981,656.742C567.799,658.279 567.609,659.8 567.307,661.298C567.149,662.146 566.911,662.978 566.713,663.81C566.436,664.927 566.214,666.06 565.873,667.153C563.845,673.634 560.644,679.648 556.215,684.932C556.057,685.122 555.851,685.297 555.692,685.487C554.345,687.048 552.927,688.569 551.359,690.003C549.774,691.445 548.094,692.784 546.335,694.028C533.809,702.902 516.941,706.8 498.108,705.001C474.086,702.743 450.253,691.849 430.992,674.323C411.732,656.798 399.76,635.112 397.28,613.261C395.046,593.715 400.909,576.506 413.76,564.812C413.792,564.788 413.823,564.764 413.847,564.733C414.346,564.289 414.893,563.901 415.408,563.465C424.607,555.764 436.594,551.089 450.285,549.806C450.435,549.79 450.586,549.766 450.729,549.75C452.171,549.623 453.636,549.568 455.118,549.512C455.894,549.489 456.655,549.433 457.447,549.425C457.701,549.425 457.954,549.394 458.216,549.394C458.683,549.394 459.167,549.457 459.634,549.465C461.789,549.497 463.96,549.584 466.178,549.774C466.456,549.798 466.725,549.79 467.01,549.814C467.216,549.837 467.414,549.877 467.62,549.901C480.178,551.16 492.602,554.908 504.399,560.589C504.645,560.597 504.93,560.668 505.286,560.866C508.883,562.855 509.573,560.724 509.676,559.313L509.676,452.281C509.676,449.215 507.544,446.506 504.549,445.848C441.023,431.864 378.693,446.419 334.704,486.461C296.286,521.41 277.698,571.847 283.72,624.828C289.092,672.018 313.312,717.361 351.937,752.507C389.579,786.751 437.505,808.166 486.945,812.825C493.75,813.451 500.596,813.776 507.275,813.776C554.496,813.776 598.302,797.589 630.644,768.171C661.274,740.282 679.624,701.982 682.318,660.323L682.563,387.067L682.587,387.067L682.587,314.01L682.603,314.01L682.603,312.734C682.88,299.835 693.394,289.464 706.356,289.464L737.058,289.464C739.45,289.464 741.391,287.523 741.391,285.13L741.391,214.021C741.391,211.914 739.68,210.195 737.565,210.195" style="fill-opacity:0.2;"/>
            </g>
            <g id="Glyph13" serif:id="Glyph" transform="matrix(0.265084,0,0,0.265084,8.27712,20.2807)">
                <path d="M737.565,210.195L513.637,210.195C511.522,210.195 509.81,211.914 509.81,214.021L509.81,285.13C509.81,287.523 511.744,289.464 514.144,289.464L544.846,289.464C557.261,289.464 567.331,299.019 568.409,311.149L568.409,647.599L568.401,647.599C568.48,650.309 568.369,652.979 568.108,655.601C568.076,655.982 568.029,656.362 567.981,656.742C567.799,658.279 567.609,659.8 567.307,661.298C567.149,662.146 566.911,662.978 566.713,663.81C566.436,664.927 566.214,666.06 565.873,667.153C563.845,673.634 560.644,679.648 556.215,684.932C556.057,685.122 555.851,685.297 555.692,685.487C554.345,687.048 552.927,688.569 551.359,690.003C549.774,691.445 548.094,692.784 546.335,694.028C533.809,702.902 516.941,706.8 498.108,705.001C474.086,702.743 450.253,691.849 430.992,674.323C411.732,656.798 399.76,635.112 397.28,613.261C395.046,593.715 400.909,576.506 413.76,564.812C413.792,564.788 413.823,564.764 413.847,564.733C414.346,564.289 414.893,563.901 415.408,563.465C424.607,555.764 436.594,551.089 450.285,549.806C450.435,549.79 450.586,549.766 450.729,549.75C452.171,549.623 453.636,549.568 455.118,549.512C455.894,549.489 456.655,549.433 457.447,549.425C457.701,549.425 457.954,549.394 458.216,549.394C458.683,549.394 459.167,549.457 459.634,549.465C461.789,549.497 463.96,549.584 466.178,549.774C466.456,549.798 466.725,549.79 467.01,549.814C467.216,549.837 467.414,549.877 467.62,549.901C480.178,551.16 492.602,554.908 504.399,560.589C504.645,560.597 504.93,560.668 505.286,560.866C508.883,562.855 509.573,560.724 509.676,559.313L509.676,452.281C509.676,449.215 507.544,446.506 504.549,445.848C441.023,431.864 378.693,446.419 334.704,486.461C296.286,521.41 277.698,571.847 283.72,624.828C289.092,672.018 313.312,717.361 351.937,752.507C389.579,786.751 437.505,808.166 486.945,812.825C493.75,813.451 500.596,813.776 507.275,813.776C554.496,813.776 598.302,797.589 630.644,768.171C661.274,740.282 679.624,701.982 682.318,660.323L682.563,387.067L682.587,387.067L682.587,314.01L682.603,314.01L682.603,312.734C682.88,299.835 693.394,289.464 706.356,289.464L737.058,289.464C739.45,289.464 741.391,287.523 741.391,285.13L741.391,214.021C741.391,211.914 739.68,210.195 737.565,210.195" style="fill:white;"/>
            </g>
        </g>
    </g>
    <defs>
        <linearGradient id="_Linear1" x1="0" y1="0" x2="1" y2="0" gradientUnits="userSpaceOnUse" gradientTransform="matrix(-218.156,-218.781,218.781,-218.156,253.414,266.008)"><stop offset="0" style="stop-color:rgb(0,76,175);stop-opacity:1"/><stop offset="1" style="stop-color:rgb(21,149,255);stop-opacity:1"/></linearGradient>
        <linearGradient id="_Linear2" x1="0" y1="0" x2="1" y2="0" gradientUnits="userSpaceOnUse" gradientTransform="matrix(-14.3892,-14.049,14.049,-14.3892,431.414,155.021)"><stop offset="0" style="stop-color:rgb(0,76,175);stop-opacity:1"/><stop offset="1" style="stop-color:rgb(21,149,255);stop-opacity:1"/></linearGradient>
        <linearGradient id="_Linear3" x1="0" y1="0" x2="1" y2="0" gradientUnits="userSpaceOnUse" gradientTransform="matrix(-20.0911,-19.9176,19.9176,-20.0911,438.13,122)"><stop offset="0" style="stop-color:rgb(0,76,175);stop-opacity:1"/><stop offset="1" style="stop-color:rgb(21,149,255);stop-opacity:1"/></linearGradient>
        <linearGradient id="_Linear4" x1="0" y1="0" x2="1" y2="0" gradientUnits="userSpaceOnUse" gradientTransform="matrix(-28.8491,-28.9871,28.9871,-28.8491,446.131,82.8541)"><stop offset="0" style="stop-color:rgb(0,76,175);stop-opacity:1"/><stop offset="1" style="stop-color:rgb(21,149,255);stop-opacity:1"/></linearGradient>
        <linearGradient id="_Linear5" x1="0" y1="0" x2="1" y2="0" gradientUnits="userSpaceOnUse" gradientTransform="matrix(-41.9829,-41.3127,41.3127,-41.9829,332.947,265.467)"><stop offset="0" style="stop-color:rgb(0,76,175);stop-opacity:1"/><stop offset="1" style="stop-color:rgb(21,149,255);stop-opacity:1"/></linearGradient>
        <linearGradient id="_Linear6" x1="0" y1="0" x2="1" y2="0" gradientUnits="userSpaceOnUse" gradientTransform="matrix(-87.4742,-85.2649,85.2649,-87.4742,379.171,118.666)"><stop offset="0" style="stop-color:rgb(0,76,175);stop-opacity:1"/><stop offset="1" style="stop-color:rgb(21,149,255);stop-opacity:1"/></linearGradient>
        <linearGradient id="_Linear7" x1="0" y1="0" x2="1" y2="0" gradientUnits="userSpaceOnUse" gradientTransform="matrix(-59.2403,-57.4367,57.4367,-59.2403,349.298,200.712)"><stop offset="0" style="stop-color:rgb(0,76,175);stop-opacity:1"/><stop offset="1" style="stop-color:rgb(21,149,255);stop-opacity:1"/></linearGradient>
    </defs>
</svg>
