<?xml version="1.0" encoding="UTF-8" standalone="no"?>
<!DOCTYPE svg PUBLIC "-//W3C//DTD SVG 1.1//EN" "http://www.w3.org/Graphics/SVG/1.1/DTD/svg11.dtd">
<svg width="100%" height="100%" viewBox="0 0 480 300" version="1.1" xmlns="http://www.w3.org/2000/svg" xmlns:xlink="http://www.w3.org/1999/xlink" xml:space="preserve" xmlns:serif="http://www.serif.com/" style="fill-rule:evenodd;clip-rule:evenodd;stroke-linejoin:round;stroke-miterlimit:2;">
    <g id="Icon">
        <g style="display:none" id="Baseplate">
            <g transform="matrix(1,0,0,1,15.0068,19.7451)">
                <g id="context">
                    <text x="0px" y="0px" style="font-family:'LucidaGrande', 'Lucida Grande', sans-serif;font-weight:500;font-size:18px;">apps</text>
                </g>
            </g>
            <g transform="matrix(1,0,0,1,122.488,19.7451)">
                <g id="icon-name">
                    <text x="0px" y="0px" style="font-family:'LucidaGrande-Bold', 'Lucida Grande', sans-serif;font-weight:600;font-size:18px;">joplin</text>
                </g>
            </g>
            <rect id="_16x16" serif:id="16x16" x="416" y="140" width="16" height="16" style="fill:rgb(238,238,236);"/>
            <rect id="_24x24" serif:id="24x24" x="416" y="100" width="24" height="24" style="fill:rgb(212,212,212);"/>
            <rect id="_32x32" serif:id="32x32" x="416" y="52" width="32" height="32" style="fill:rgb(238,238,236);"/>
            <rect id="_22x22" serif:id="22x22" x="417" y="101" width="22" height="22" style="fill:rgb(238,238,236);"/>
            <rect id="_48x48" serif:id="48x48" x="288" y="220" width="48" height="48" style="fill:rgb(238,238,236);"/>
            <rect id="_256x256" serif:id="256x256" x="16" y="28" width="256" height="256" style="fill:rgb(238,238,236);"/>
            <rect id="_64x64" serif:id="64x64" x="288" y="140" width="64" height="64" style="fill:rgb(238,238,236);"/>
            <rect id="_96x96" serif:id="96x96" x="288" y="28" width="96" height="96" style="fill:rgb(238,238,236);"/>
        </g>
        <g id="Shadow">
            <path id="rect4114" d="M254,97.5C254,84.107 248.679,71.262 239.209,61.791C229.738,52.321 216.893,47 203.5,47L84.5,47C71.107,47 58.262,52.321 48.791,61.791C39.321,71.262 34,84.107 34,97.5L34,216.5C34,229.893 39.321,242.738 48.791,252.209C58.262,261.679 71.107,267 84.5,267L203.5,267C216.893,267 229.738,261.679 239.209,252.209C248.679,242.738 254,229.893 254,216.5L254,97.5Z" style="fill-opacity:0.1;"/>
            <path id="rect4120" d="M447,61.5C447,57.358 443.642,54 439.5,54L424.5,54C420.358,54 417,57.358 417,61.5L417,76.5C417,80.642 420.358,84 424.5,84L439.5,84C443.642,84 447,80.642 447,76.5L447,61.5Z" style="fill-opacity:0.1;"/>
            <g id="rect4122" transform="matrix(1,0,0,-1,0,0)">
                <path d="M333,-256.5C333,-261.747 328.747,-266 323.5,-266L300.5,-266C295.253,-266 291,-261.747 291,-256.5L291,-233.5C291,-228.253 295.253,-224 300.5,-224L323.5,-224C328.747,-224 333,-228.253 333,-233.5L333,-256.5Z" style="fill-opacity:0.1;"/>
            </g>
            <path id="rect4124" d="M380,51.5C380,41.283 371.717,33 361.5,33L310.5,33C300.283,33 292,41.283 292,51.5L292,102.5C292,112.717 300.283,121 310.5,121L361.2,121C366.186,121 370.968,119.019 374.494,115.494C378.019,111.968 380,107.186 380,102.2L380,51.5Z" style="fill-opacity:0.1;"/>
            <path id="rect4126" d="M350,156C350,152.552 348.63,149.246 346.192,146.808C343.754,144.37 340.448,143 337,143L303,143C299.552,143 296.246,144.37 293.808,146.808C291.37,149.246 290,152.552 290,156L290,190C290,193.448 291.37,196.754 293.808,199.192C296.246,201.63 299.552,203 303,203L337,203C340.448,203 343.754,201.63 346.192,199.192C348.63,196.754 350,193.448 350,190L350,156Z" style="fill-opacity:0.1;"/>
            <g id="path4268" transform="matrix(1,0,0,1,0,1)">
                <path d="M422,101C419.23,101 417,103.23 417,106L417,118C417,120.77 419.23,123 422,123L434,123C436.77,123 439,120.77 439,118L439,106C439,103.23 436.77,101 434,101L422,101Z" style="fill-opacity:0.1;fill-rule:nonzero;"/>
            </g>
            <g id="path4270" transform="matrix(1,0,0,1,0,1)">
                <path d="M419,140C417.338,140 416,141.338 416,143L416,153C416,154.662 417.338,156 419,156L429,156C430.662,156 432,154.662 432,153L432,143C432,141.338 430.662,140 429,140L419,140Z" style="fill-opacity:0.1;fill-rule:nonzero;"/>
            </g>
        </g>
        <g id="Background">
            <path id="path4200" d="M84,46.5C56.569,46.5 34.5,68.569 34.5,96L34.5,216C34.5,243.431 56.569,265.5 84,265.5L204,265.5C231.431,265.5 253.5,243.431 253.5,216L253.5,96C253.5,68.569 231.431,46.5 204,46.5L84,46.5Z" style="fill:url(#_Linear1);fill-rule:nonzero;"/>
            <path id="path4202" d="M419,140.5C417.616,140.5 416.5,141.616 416.5,143L416.5,153C416.5,154.384 417.616,155.5 419,155.5L429,155.5C430.384,155.5 431.5,154.384 431.5,153L431.5,143C431.5,141.616 430.384,140.5 429,140.5L419,140.5Z" style="fill:url(#_Linear2);fill-rule:nonzero;"/>
            <path id="path4204" d="M422,101.5C419.503,101.5 417.5,103.503 417.5,106L417.5,118C417.5,120.497 419.503,122.5 422,122.5L434,122.5C436.497,122.5 438.5,120.497 438.5,118L438.5,106C438.5,103.503 436.497,101.5 434,101.5L422,101.5Z" style="fill:url(#_Linear3);fill-rule:nonzero;"/>
            <path id="path4206" d="M424,53.5C420.393,53.5 417.5,56.393 417.5,60L417.5,76C417.5,79.607 420.393,82.5 424,82.5L440,82.5C443.607,82.5 446.5,79.607 446.5,76L446.5,60C446.5,56.393 443.607,53.5 440,53.5L424,53.5Z" style="fill:url(#_Linear4);fill-rule:nonzero;"/>
            <path id="path4208" d="M300,223.5C295.285,223.5 291.5,227.285 291.5,232L291.5,256C291.5,260.715 295.285,264.5 300,264.5L324,264.5C328.715,264.5 332.5,260.715 332.5,256L332.5,232C332.5,227.285 328.715,223.5 324,223.5L300,223.5Z" style="fill:url(#_Linear5);fill-rule:nonzero;"/>
            <g id="path4210">
                <path d="M310,32.5C300.297,32.5 292.5,40.297 292.5,50L292.5,102C292.5,111.703 300.297,119.5 310,119.5L362,119.5C371.703,119.5 379.5,111.703 379.5,102L379.5,50C379.5,40.297 371.703,32.5 362,32.5L310,32.5Z" style="fill:url(#_Linear6);fill-rule:nonzero;"/>
            </g>
            <path id="path4212" d="M302.5,142.5C295.845,142.5 290.5,147.845 290.5,154.5L290.5,189.5C290.5,196.155 295.845,201.5 302.5,201.5L337.5,201.5C344.155,201.5 349.5,196.155 349.5,189.5L349.5,154.5C349.5,147.845 344.155,142.5 337.5,142.5L302.5,142.5Z" style="fill:url(#_Linear7);fill-rule:nonzero;"/>
        </g>
        <g id="Symbols">
            <g id="Glyph" transform="matrix(0.0728982,0,0,0.0728982,282.676,135.677)">
                <path d="M737.565,210.195L513.637,210.195C511.522,210.195 509.81,211.914 509.81,214.021L509.81,285.13C509.81,287.523 511.744,289.464 514.144,289.464L544.846,289.464C557.261,289.464 567.331,299.019 568.409,311.149L568.409,647.599L568.401,647.599C568.48,650.309 568.369,652.979 568.108,655.601C568.076,655.982 568.029,656.362 567.981,656.742C567.799,658.279 567.609,659.8 567.307,661.298C567.149,662.146 566.911,662.978 566.713,663.81C566.436,664.927 566.214,666.06 565.873,667.153C563.845,673.634 560.644,679.648 556.215,684.932C556.057,685.122 555.851,685.297 555.692,685.487C554.345,687.048 552.927,688.569 551.359,690.003C549.774,691.445 548.094,692.784 546.335,694.028C533.809,702.902 516.941,706.8 498.108,705.001C474.086,702.743 450.253,691.849 430.992,674.323C411.732,656.798 399.76,635.112 397.28,613.261C395.046,593.715 400.909,576.506 413.76,564.812C413.792,564.788 413.823,564.764 413.847,564.733C414.346,564.289 414.893,563.901 415.408,563.465C424.607,555.764 436.594,551.089 450.285,549.806C450.435,549.79 450.586,549.766 450.729,549.75C452.171,549.623 453.636,549.568 455.118,549.512C455.894,549.489 456.655,549.433 457.447,549.425C457.701,549.425 457.954,549.394 458.216,549.394C458.683,549.394 459.167,549.457 459.634,549.465C461.789,549.497 463.96,549.584 466.178,549.774C466.456,549.798 466.725,549.79 467.01,549.814C467.216,549.837 467.414,549.877 467.62,549.901C480.178,551.16 492.602,554.908 504.399,560.589C504.645,560.597 504.93,560.668 505.286,560.866C508.883,562.855 509.573,560.724 509.676,559.313L509.676,452.281C509.676,449.215 507.544,446.506 504.549,445.848C441.023,431.864 378.693,446.419 334.704,486.461C296.286,521.41 277.698,571.847 283.72,624.828C289.092,672.018 313.312,717.361 351.937,752.507C389.579,786.751 437.505,808.166 486.945,812.825C493.75,813.451 500.596,813.776 507.275,813.776C554.496,813.776 598.302,797.589 630.644,768.171C661.274,740.282 679.624,701.982 682.318,660.323L682.563,387.067L682.587,387.067L682.587,314.01L682.603,314.01L682.603,312.734C682.88,299.835 693.394,289.464 706.356,289.464L737.058,289.464C739.45,289.464 741.391,287.523 741.391,285.13L741.391,214.021C741.391,211.914 739.68,210.195 737.565,210.195" style="fill-opacity:0.2;"/>
            </g>
            <g id="Glyph1" serif:id="Glyph" transform="matrix(0.0728982,0,0,0.0728982,282.676,134.677)">
                <path d="M737.565,210.195L513.637,210.195C511.522,210.195 509.81,211.914 509.81,214.021L509.81,285.13C509.81,287.523 511.744,289.464 514.144,289.464L544.846,289.464C557.261,289.464 567.331,299.019 568.409,311.149L568.409,647.599L568.401,647.599C568.48,650.309 568.369,652.979 568.108,655.601C568.076,655.982 568.029,656.362 567.981,656.742C567.799,658.279 567.609,659.8 567.307,661.298C567.149,662.146 566.911,662.978 566.713,663.81C566.436,664.927 566.214,666.06 565.873,667.153C563.845,673.634 560.644,679.648 556.215,684.932C556.057,685.122 555.851,685.297 555.692,685.487C554.345,687.048 552.927,688.569 551.359,690.003C549.774,691.445 548.094,692.784 546.335,694.028C533.809,702.902 516.941,706.8 498.108,705.001C474.086,702.743 450.253,691.849 430.992,674.323C411.732,656.798 399.76,635.112 397.28,613.261C395.046,593.715 400.909,576.506 413.76,564.812C413.792,564.788 413.823,564.764 413.847,564.733C414.346,564.289 414.893,563.901 415.408,563.465C424.607,555.764 436.594,551.089 450.285,549.806C450.435,549.79 450.586,549.766 450.729,549.75C452.171,549.623 453.636,549.568 455.118,549.512C455.894,549.489 456.655,549.433 457.447,549.425C457.701,549.425 457.954,549.394 458.216,549.394C458.683,549.394 459.167,549.457 459.634,549.465C461.789,549.497 463.96,549.584 466.178,549.774C466.456,549.798 466.725,549.79 467.01,549.814C467.216,549.837 467.414,549.877 467.62,549.901C480.178,551.16 492.602,554.908 504.399,560.589C504.645,560.597 504.93,560.668 505.286,560.866C508.883,562.855 509.573,560.724 509.676,559.313L509.676,452.281C509.676,449.215 507.544,446.506 504.549,445.848C441.023,431.864 378.693,446.419 334.704,486.461C296.286,521.41 277.698,571.847 283.72,624.828C289.092,672.018 313.312,717.361 351.937,752.507C389.579,786.751 437.505,808.166 486.945,812.825C493.75,813.451 500.596,813.776 507.275,813.776C554.496,813.776 598.302,797.589 630.644,768.171C661.274,740.282 679.624,701.982 682.318,660.323L682.563,387.067L682.587,387.067L682.587,314.01L682.603,314.01L682.603,312.734C682.88,299.835 693.394,289.464 706.356,289.464L737.058,289.464C739.45,289.464 741.391,287.523 741.391,285.13L741.391,214.021C741.391,211.914 739.68,210.195 737.565,210.195" style="fill:white;"/>
            </g>
            <g id="Glyph2" serif:id="Glyph" transform="matrix(0.0463898,0,0,0.0463898,288.248,221.249)">
                <path d="M737.565,210.195L513.637,210.195C511.522,210.195 509.81,211.914 509.81,214.021L509.81,285.13C509.81,287.523 511.744,289.464 514.144,289.464L544.846,289.464C557.261,289.464 567.331,299.019 568.409,311.149L568.409,647.599L568.401,647.599C568.48,650.309 568.369,652.979 568.108,655.601C568.076,655.982 568.029,656.362 567.981,656.742C567.799,658.279 567.609,659.8 567.307,661.298C567.149,662.146 566.911,662.978 566.713,663.81C566.436,664.927 566.214,666.06 565.873,667.153C563.845,673.634 560.644,679.648 556.215,684.932C556.057,685.122 555.851,685.297 555.692,685.487C554.345,687.048 552.927,688.569 551.359,690.003C549.774,691.445 548.094,692.784 546.335,694.028C533.809,702.902 516.941,706.8 498.108,705.001C474.086,702.743 450.253,691.849 430.992,674.323C411.732,656.798 399.76,635.112 397.28,613.261C395.046,593.715 400.909,576.506 413.76,564.812C413.792,564.788 413.823,564.764 413.847,564.733C414.346,564.289 414.893,563.901 415.408,563.465C424.607,555.764 436.594,551.089 450.285,549.806C450.435,549.79 450.586,549.766 450.729,549.75C452.171,549.623 453.636,549.568 455.118,549.512C455.894,549.489 456.655,549.433 457.447,549.425C457.701,549.425 457.954,549.394 458.216,549.394C458.683,549.394 459.167,549.457 459.634,549.465C461.789,549.497 463.96,549.584 466.178,549.774C466.456,549.798 466.725,549.79 467.01,549.814C467.216,549.837 467.414,549.877 467.62,549.901C480.178,551.16 492.602,554.908 504.399,560.589C504.645,560.597 504.93,560.668 505.286,560.866C508.883,562.855 509.573,560.724 509.676,559.313L509.676,452.281C509.676,449.215 507.544,446.506 504.549,445.848C441.023,431.864 378.693,446.419 334.704,486.461C296.286,521.41 277.698,571.847 283.72,624.828C289.092,672.018 313.312,717.361 351.937,752.507C389.579,786.751 437.505,808.166 486.945,812.825C493.75,813.451 500.596,813.776 507.275,813.776C554.496,813.776 598.302,797.589 630.644,768.171C661.274,740.282 679.624,701.982 682.318,660.323L682.563,387.067L682.587,387.067L682.587,314.01L682.603,314.01L682.603,312.734C682.88,299.835 693.394,289.464 706.356,289.464L737.058,289.464C739.45,289.464 741.391,287.523 741.391,285.13L741.391,214.021C741.391,211.914 739.68,210.195 737.565,210.195" style="fill-opacity:0.2;"/>
            </g>
            <g id="Glyph3" serif:id="Glyph" transform="matrix(0.0463898,0,0,0.0463898,288.248,220.249)">
                <path d="M737.565,210.195L513.637,210.195C511.522,210.195 509.81,211.914 509.81,214.021L509.81,285.13C509.81,287.523 511.744,289.464 514.144,289.464L544.846,289.464C557.261,289.464 567.331,299.019 568.409,311.149L568.409,647.599L568.401,647.599C568.48,650.309 568.369,652.979 568.108,655.601C568.076,655.982 568.029,656.362 567.981,656.742C567.799,658.279 567.609,659.8 567.307,661.298C567.149,662.146 566.911,662.978 566.713,663.81C566.436,664.927 566.214,666.06 565.873,667.153C563.845,673.634 560.644,679.648 556.215,684.932C556.057,685.122 555.851,685.297 555.692,685.487C554.345,687.048 552.927,688.569 551.359,690.003C549.774,691.445 548.094,692.784 546.335,694.028C533.809,702.902 516.941,706.8 498.108,705.001C474.086,702.743 450.253,691.849 430.992,674.323C411.732,656.798 399.76,635.112 397.28,613.261C395.046,593.715 400.909,576.506 413.76,564.812C413.792,564.788 413.823,564.764 413.847,564.733C414.346,564.289 414.893,563.901 415.408,563.465C424.607,555.764 436.594,551.089 450.285,549.806C450.435,549.79 450.586,549.766 450.729,549.75C452.171,549.623 453.636,549.568 455.118,549.512C455.894,549.489 456.655,549.433 457.447,549.425C457.701,549.425 457.954,549.394 458.216,549.394C458.683,549.394 459.167,549.457 459.634,549.465C461.789,549.497 463.96,549.584 466.178,549.774C466.456,549.798 466.725,549.79 467.01,549.814C467.216,549.837 467.414,549.877 467.62,549.901C480.178,551.16 492.602,554.908 504.399,560.589C504.645,560.597 504.93,560.668 505.286,560.866C508.883,562.855 509.573,560.724 509.676,559.313L509.676,452.281C509.676,449.215 507.544,446.506 504.549,445.848C441.023,431.864 378.693,446.419 334.704,486.461C296.286,521.41 277.698,571.847 283.72,624.828C289.092,672.018 313.312,717.361 351.937,752.507C389.579,786.751 437.505,808.166 486.945,812.825C493.75,813.451 500.596,813.776 507.275,813.776C554.496,813.776 598.302,797.589 630.644,768.171C661.274,740.282 679.624,701.982 682.318,660.323L682.563,387.067L682.587,387.067L682.587,314.01L682.603,314.01L682.603,312.734C682.88,299.835 693.394,289.464 706.356,289.464L737.058,289.464C739.45,289.464 741.391,287.523 741.391,285.13L741.391,214.021C741.391,211.914 739.68,210.195 737.565,210.195" style="fill:white;"/>
            </g>
            <g id="Glyph4" serif:id="Glyph" transform="matrix(0.0331356,0,0,0.0331356,415.035,52.0351)">
                <path d="M737.565,210.195L513.637,210.195C511.522,210.195 509.81,211.914 509.81,214.021L509.81,285.13C509.81,287.523 511.744,289.464 514.144,289.464L544.846,289.464C557.261,289.464 567.331,299.019 568.409,311.149L568.409,647.599L568.401,647.599C568.48,650.309 568.369,652.979 568.108,655.601C568.076,655.982 568.029,656.362 567.981,656.742C567.799,658.279 567.609,659.8 567.307,661.298C567.149,662.146 566.911,662.978 566.713,663.81C566.436,664.927 566.214,666.06 565.873,667.153C563.845,673.634 560.644,679.648 556.215,684.932C556.057,685.122 555.851,685.297 555.692,685.487C554.345,687.048 552.927,688.569 551.359,690.003C549.774,691.445 548.094,692.784 546.335,694.028C533.809,702.902 516.941,706.8 498.108,705.001C474.086,702.743 450.253,691.849 430.992,674.323C411.732,656.798 399.76,635.112 397.28,613.261C395.046,593.715 400.909,576.506 413.76,564.812C413.792,564.788 413.823,564.764 413.847,564.733C414.346,564.289 414.893,563.901 415.408,563.465C424.607,555.764 436.594,551.089 450.285,549.806C450.435,549.79 450.586,549.766 450.729,549.75C452.171,549.623 453.636,549.568 455.118,549.512C455.894,549.489 456.655,549.433 457.447,549.425C457.701,549.425 457.954,549.394 458.216,549.394C458.683,549.394 459.167,549.457 459.634,549.465C461.789,549.497 463.96,549.584 466.178,549.774C466.456,549.798 466.725,549.79 467.01,549.814C467.216,549.837 467.414,549.877 467.62,549.901C480.178,551.16 492.602,554.908 504.399,560.589C504.645,560.597 504.93,560.668 505.286,560.866C508.883,562.855 509.573,560.724 509.676,559.313L509.676,452.281C509.676,449.215 507.544,446.506 504.549,445.848C441.023,431.864 378.693,446.419 334.704,486.461C296.286,521.41 277.698,571.847 283.72,624.828C289.092,672.018 313.312,717.361 351.937,752.507C389.579,786.751 437.505,808.166 486.945,812.825C493.75,813.451 500.596,813.776 507.275,813.776C554.496,813.776 598.302,797.589 630.644,768.171C661.274,740.282 679.624,701.982 682.318,660.323L682.563,387.067L682.587,387.067L682.587,314.01L682.603,314.01L682.603,312.734C682.88,299.835 693.394,289.464 706.356,289.464L737.058,289.464C739.45,289.464 741.391,287.523 741.391,285.13L741.391,214.021C741.391,211.914 739.68,210.195 737.565,210.195" style="fill-opacity:0.2;"/>
            </g>
            <g id="Glyph5" serif:id="Glyph" transform="matrix(0.0331356,0,0,0.0331356,415.035,51.0351)">
                <path d="M737.565,210.195L513.637,210.195C511.522,210.195 509.81,211.914 509.81,214.021L509.81,285.13C509.81,287.523 511.744,289.464 514.144,289.464L544.846,289.464C557.261,289.464 567.331,299.019 568.409,311.149L568.409,647.599L568.401,647.599C568.48,650.309 568.369,652.979 568.108,655.601C568.076,655.982 568.029,656.362 567.981,656.742C567.799,658.279 567.609,659.8 567.307,661.298C567.149,662.146 566.911,662.978 566.713,663.81C566.436,664.927 566.214,666.06 565.873,667.153C563.845,673.634 560.644,679.648 556.215,684.932C556.057,685.122 555.851,685.297 555.692,685.487C554.345,687.048 552.927,688.569 551.359,690.003C549.774,691.445 548.094,692.784 546.335,694.028C533.809,702.902 516.941,706.8 498.108,705.001C474.086,702.743 450.253,691.849 430.992,674.323C411.732,656.798 399.76,635.112 397.28,613.261C395.046,593.715 400.909,576.506 413.76,564.812C413.792,564.788 413.823,564.764 413.847,564.733C414.346,564.289 414.893,563.901 415.408,563.465C424.607,555.764 436.594,551.089 450.285,549.806C450.435,549.79 450.586,549.766 450.729,549.75C452.171,549.623 453.636,549.568 455.118,549.512C455.894,549.489 456.655,549.433 457.447,549.425C457.701,549.425 457.954,549.394 458.216,549.394C458.683,549.394 459.167,549.457 459.634,549.465C461.789,549.497 463.96,549.584 466.178,549.774C466.456,549.798 466.725,549.79 467.01,549.814C467.216,549.837 467.414,549.877 467.62,549.901C480.178,551.16 492.602,554.908 504.399,560.589C504.645,560.597 504.93,560.668 505.286,560.866C508.883,562.855 509.573,560.724 509.676,559.313L509.676,452.281C509.676,449.215 507.544,446.506 504.549,445.848C441.023,431.864 378.693,446.419 334.704,486.461C296.286,521.41 277.698,571.847 283.72,624.828C289.092,672.018 313.312,717.361 351.937,752.507C389.579,786.751 437.505,808.166 486.945,812.825C493.75,813.451 500.596,813.776 507.275,813.776C554.496,813.776 598.302,797.589 630.644,768.171C661.274,740.282 679.624,701.982 682.318,660.323L682.563,387.067L682.587,387.067L682.587,314.01L682.603,314.01L682.603,312.734C682.88,299.835 693.394,289.464 706.356,289.464L737.058,289.464C739.45,289.464 741.391,287.523 741.391,285.13L741.391,214.021C741.391,211.914 739.68,210.195 737.565,210.195" style="fill:white;"/>
            </g>
            <g id="Glyph6" serif:id="Glyph" transform="matrix(0.0231949,0,0,0.0231949,416.124,101.125)">
                <path d="M737.565,210.195L513.637,210.195C511.522,210.195 509.81,211.914 509.81,214.021L509.81,285.13C509.81,287.523 511.744,289.464 514.144,289.464L544.846,289.464C557.261,289.464 567.331,299.019 568.409,311.149L568.409,647.599L568.401,647.599C568.48,650.309 568.369,652.979 568.108,655.601C568.076,655.982 568.029,656.362 567.981,656.742C567.799,658.279 567.609,659.8 567.307,661.298C567.149,662.146 566.911,662.978 566.713,663.81C566.436,664.927 566.214,666.06 565.873,667.153C563.845,673.634 560.644,679.648 556.215,684.932C556.057,685.122 555.851,685.297 555.692,685.487C554.345,687.048 552.927,688.569 551.359,690.003C549.774,691.445 548.094,692.784 546.335,694.028C533.809,702.902 516.941,706.8 498.108,705.001C474.086,702.743 450.253,691.849 430.992,674.323C411.732,656.798 399.76,635.112 397.28,613.261C395.046,593.715 400.909,576.506 413.76,564.812C413.792,564.788 413.823,564.764 413.847,564.733C414.346,564.289 414.893,563.901 415.408,563.465C424.607,555.764 436.594,551.089 450.285,549.806C450.435,549.79 450.586,549.766 450.729,549.75C452.171,549.623 453.636,549.568 455.118,549.512C455.894,549.489 456.655,549.433 457.447,549.425C457.701,549.425 457.954,549.394 458.216,549.394C458.683,549.394 459.167,549.457 459.634,549.465C461.789,549.497 463.96,549.584 466.178,549.774C466.456,549.798 466.725,549.79 467.01,549.814C467.216,549.837 467.414,549.877 467.62,549.901C480.178,551.16 492.602,554.908 504.399,560.589C504.645,560.597 504.93,560.668 505.286,560.866C508.883,562.855 509.573,560.724 509.676,559.313L509.676,452.281C509.676,449.215 507.544,446.506 504.549,445.848C441.023,431.864 378.693,446.419 334.704,486.461C296.286,521.41 277.698,571.847 283.72,624.828C289.092,672.018 313.312,717.361 351.937,752.507C389.579,786.751 437.505,808.166 486.945,812.825C493.75,813.451 500.596,813.776 507.275,813.776C554.496,813.776 598.302,797.589 630.644,768.171C661.274,740.282 679.624,701.982 682.318,660.323L682.563,387.067L682.587,387.067L682.587,314.01L682.603,314.01L682.603,312.734C682.88,299.835 693.394,289.464 706.356,289.464L737.058,289.464C739.45,289.464 741.391,287.523 741.391,285.13L741.391,214.021C741.391,211.914 739.68,210.195 737.565,210.195" style="fill-opacity:0.2;"/>
            </g>
            <g id="Glyph7" serif:id="Glyph" transform="matrix(0.0231949,0,0,0.0231949,416.124,100.125)">
                <path d="M737.565,210.195L513.637,210.195C511.522,210.195 509.81,211.914 509.81,214.021L509.81,285.13C509.81,287.523 511.744,289.464 514.144,289.464L544.846,289.464C557.261,289.464 567.331,299.019 568.409,311.149L568.409,647.599L568.401,647.599C568.48,650.309 568.369,652.979 568.108,655.601C568.076,655.982 568.029,656.362 567.981,656.742C567.799,658.279 567.609,659.8 567.307,661.298C567.149,662.146 566.911,662.978 566.713,663.81C566.436,664.927 566.214,666.06 565.873,667.153C563.845,673.634 560.644,679.648 556.215,684.932C556.057,685.122 555.851,685.297 555.692,685.487C554.345,687.048 552.927,688.569 551.359,690.003C549.774,691.445 548.094,692.784 546.335,694.028C533.809,702.902 516.941,706.8 498.108,705.001C474.086,702.743 450.253,691.849 430.992,674.323C411.732,656.798 399.76,635.112 397.28,613.261C395.046,593.715 400.909,576.506 413.76,564.812C413.792,564.788 413.823,564.764 413.847,564.733C414.346,564.289 414.893,563.901 415.408,563.465C424.607,555.764 436.594,551.089 450.285,549.806C450.435,549.79 450.586,549.766 450.729,549.75C452.171,549.623 453.636,549.568 455.118,549.512C455.894,549.489 456.655,549.433 457.447,549.425C457.701,549.425 457.954,549.394 458.216,549.394C458.683,549.394 459.167,549.457 459.634,549.465C461.789,549.497 463.96,549.584 466.178,549.774C466.456,549.798 466.725,549.79 467.01,549.814C467.216,549.837 467.414,549.877 467.62,549.901C480.178,551.16 492.602,554.908 504.399,560.589C504.645,560.597 504.93,560.668 505.286,560.866C508.883,562.855 509.573,560.724 509.676,559.313L509.676,452.281C509.676,449.215 507.544,446.506 504.549,445.848C441.023,431.864 378.693,446.419 334.704,486.461C296.286,521.41 277.698,571.847 283.72,624.828C289.092,672.018 313.312,717.361 351.937,752.507C389.579,786.751 437.505,808.166 486.945,812.825C493.75,813.451 500.596,813.776 507.275,813.776C554.496,813.776 598.302,797.589 630.644,768.171C661.274,740.282 679.624,701.982 682.318,660.323L682.563,387.067L682.587,387.067L682.587,314.01L682.603,314.01L682.603,312.734C682.88,299.835 693.394,289.464 706.356,289.464L737.058,289.464C739.45,289.464 741.391,287.523 741.391,285.13L741.391,214.021C741.391,211.914 739.68,210.195 737.565,210.195" style="fill:white;"/>
            </g>
            <g id="Glyph8" serif:id="Glyph" transform="matrix(0.0165678,0,0,0.0165678,415.517,140.518)">
                <path d="M737.565,210.195L513.637,210.195C511.522,210.195 509.81,211.914 509.81,214.021L509.81,285.13C509.81,287.523 511.744,289.464 514.144,289.464L544.846,289.464C557.261,289.464 567.331,299.019 568.409,311.149L568.409,647.599L568.401,647.599C568.48,650.309 568.369,652.979 568.108,655.601C568.076,655.982 568.029,656.362 567.981,656.742C567.799,658.279 567.609,659.8 567.307,661.298C567.149,662.146 566.911,662.978 566.713,663.81C566.436,664.927 566.214,666.06 565.873,667.153C563.845,673.634 560.644,679.648 556.215,684.932C556.057,685.122 555.851,685.297 555.692,685.487C554.345,687.048 552.927,688.569 551.359,690.003C549.774,691.445 548.094,692.784 546.335,694.028C533.809,702.902 516.941,706.8 498.108,705.001C474.086,702.743 450.253,691.849 430.992,674.323C411.732,656.798 399.76,635.112 397.28,613.261C395.046,593.715 400.909,576.506 413.76,564.812C413.792,564.788 413.823,564.764 413.847,564.733C414.346,564.289 414.893,563.901 415.408,563.465C424.607,555.764 436.594,551.089 450.285,549.806C450.435,549.79 450.586,549.766 450.729,549.75C452.171,549.623 453.636,549.568 455.118,549.512C455.894,549.489 456.655,549.433 457.447,549.425C457.701,549.425 457.954,549.394 458.216,549.394C458.683,549.394 459.167,549.457 459.634,549.465C461.789,549.497 463.96,549.584 466.178,549.774C466.456,549.798 466.725,549.79 467.01,549.814C467.216,549.837 467.414,549.877 467.62,549.901C480.178,551.16 492.602,554.908 504.399,560.589C504.645,560.597 504.93,560.668 505.286,560.866C508.883,562.855 509.573,560.724 509.676,559.313L509.676,452.281C509.676,449.215 507.544,446.506 504.549,445.848C441.023,431.864 378.693,446.419 334.704,486.461C296.286,521.41 277.698,571.847 283.72,624.828C289.092,672.018 313.312,717.361 351.937,752.507C389.579,786.751 437.505,808.166 486.945,812.825C493.75,813.451 500.596,813.776 507.275,813.776C554.496,813.776 598.302,797.589 630.644,768.171C661.274,740.282 679.624,701.982 682.318,660.323L682.563,387.067L682.587,387.067L682.587,314.01L682.603,314.01L682.603,312.734C682.88,299.835 693.394,289.464 706.356,289.464L737.058,289.464C739.45,289.464 741.391,287.523 741.391,285.13L741.391,214.021C741.391,211.914 739.68,210.195 737.565,210.195" style="fill-opacity:0.2;"/>
            </g>
            <g id="Glyph9" serif:id="Glyph" transform="matrix(0.0165678,0,0,0.0165678,415.517,139.518)">
                <path d="M737.565,210.195L513.637,210.195C511.522,210.195 509.81,211.914 509.81,214.021L509.81,285.13C509.81,287.523 511.744,289.464 514.144,289.464L544.846,289.464C557.261,289.464 567.331,299.019 568.409,311.149L568.409,647.599L568.401,647.599C568.48,650.309 568.369,652.979 568.108,655.601C568.076,655.982 568.029,656.362 567.981,656.742C567.799,658.279 567.609,659.8 567.307,661.298C567.149,662.146 566.911,662.978 566.713,663.81C566.436,664.927 566.214,666.06 565.873,667.153C563.845,673.634 560.644,679.648 556.215,684.932C556.057,685.122 555.851,685.297 555.692,685.487C554.345,687.048 552.927,688.569 551.359,690.003C549.774,691.445 548.094,692.784 546.335,694.028C533.809,702.902 516.941,706.8 498.108,705.001C474.086,702.743 450.253,691.849 430.992,674.323C411.732,656.798 399.76,635.112 397.28,613.261C395.046,593.715 400.909,576.506 413.76,564.812C413.792,564.788 413.823,564.764 413.847,564.733C414.346,564.289 414.893,563.901 415.408,563.465C424.607,555.764 436.594,551.089 450.285,549.806C450.435,549.79 450.586,549.766 450.729,549.75C452.171,549.623 453.636,549.568 455.118,549.512C455.894,549.489 456.655,549.433 457.447,549.425C457.701,549.425 457.954,549.394 458.216,549.394C458.683,549.394 459.167,549.457 459.634,549.465C461.789,549.497 463.96,549.584 466.178,549.774C466.456,549.798 466.725,549.79 467.01,549.814C467.216,549.837 467.414,549.877 467.62,549.901C480.178,551.16 492.602,554.908 504.399,560.589C504.645,560.597 504.93,560.668 505.286,560.866C508.883,562.855 509.573,560.724 509.676,559.313L509.676,452.281C509.676,449.215 507.544,446.506 504.549,445.848C441.023,431.864 378.693,446.419 334.704,486.461C296.286,521.41 277.698,571.847 283.72,624.828C289.092,672.018 313.312,717.361 351.937,752.507C389.579,786.751 437.505,808.166 486.945,812.825C493.75,813.451 500.596,813.776 507.275,813.776C554.496,813.776 598.302,797.589 630.644,768.171C661.274,740.282 679.624,701.982 682.318,660.323L682.563,387.067L682.587,387.067L682.587,314.01L682.603,314.01L682.603,312.734C682.88,299.835 693.394,289.464 706.356,289.464L737.058,289.464C739.45,289.464 741.391,287.523 741.391,285.13L741.391,214.021C741.391,211.914 739.68,210.195 737.565,210.195" style="fill:white;"/>
            </g>
            <g id="Glyph10" serif:id="Glyph" transform="matrix(0.0960931,0,0,0.0960931,286.8,27.8018)">
                <path d="M737.565,210.195L513.637,210.195C511.522,210.195 509.81,211.914 509.81,214.021L509.81,285.13C509.81,287.523 511.744,289.464 514.144,289.464L544.846,289.464C557.261,289.464 567.331,299.019 568.409,311.149L568.409,647.599L568.401,647.599C568.48,650.309 568.369,652.979 568.108,655.601C568.076,655.982 568.029,656.362 567.981,656.742C567.799,658.279 567.609,659.8 567.307,661.298C567.149,662.146 566.911,662.978 566.713,663.81C566.436,664.927 566.214,666.06 565.873,667.153C563.845,673.634 560.644,679.648 556.215,684.932C556.057,685.122 555.851,685.297 555.692,685.487C554.345,687.048 552.927,688.569 551.359,690.003C549.774,691.445 548.094,692.784 546.335,694.028C533.809,702.902 516.941,706.8 498.108,705.001C474.086,702.743 450.253,691.849 430.992,674.323C411.732,656.798 399.76,635.112 397.28,613.261C395.046,593.715 400.909,576.506 413.76,564.812C413.792,564.788 413.823,564.764 413.847,564.733C414.346,564.289 414.893,563.901 415.408,563.465C424.607,555.764 436.594,551.089 450.285,549.806C450.435,549.79 450.586,549.766 450.729,549.75C452.171,549.623 453.636,549.568 455.118,549.512C455.894,549.489 456.655,549.433 457.447,549.425C457.701,549.425 457.954,549.394 458.216,549.394C458.683,549.394 459.167,549.457 459.634,549.465C461.789,549.497 463.96,549.584 466.178,549.774C466.456,549.798 466.725,549.79 467.01,549.814C467.216,549.837 467.414,549.877 467.62,549.901C480.178,551.16 492.602,554.908 504.399,560.589C504.645,560.597 504.93,560.668 505.286,560.866C508.883,562.855 509.573,560.724 509.676,559.313L509.676,452.281C509.676,449.215 507.544,446.506 504.549,445.848C441.023,431.864 378.693,446.419 334.704,486.461C296.286,521.41 277.698,571.847 283.72,624.828C289.092,672.018 313.312,717.361 351.937,752.507C389.579,786.751 437.505,808.166 486.945,812.825C493.75,813.451 500.596,813.776 507.275,813.776C554.496,813.776 598.302,797.589 630.644,768.171C661.274,740.282 679.624,701.982 682.318,660.323L682.563,387.067L682.587,387.067L682.587,314.01L682.603,314.01L682.603,312.734C682.88,299.835 693.394,289.464 706.356,289.464L737.058,289.464C739.45,289.464 741.391,287.523 741.391,285.13L741.391,214.021C741.391,211.914 739.68,210.195 737.565,210.195" style="fill-opacity:0.2;"/>
            </g>
            <g id="Glyph11" serif:id="Glyph" transform="matrix(0.0960931,0,0,0.0960931,286.8,26.8018)">
                <path d="M737.565,210.195L513.637,210.195C511.522,210.195 509.81,211.914 509.81,214.021L509.81,285.13C509.81,287.523 511.744,289.464 514.144,289.464L544.846,289.464C557.261,289.464 567.331,299.019 568.409,311.149L568.409,647.599L568.401,647.599C568.48,650.309 568.369,652.979 568.108,655.601C568.076,655.982 568.029,656.362 567.981,656.742C567.799,658.279 567.609,659.8 567.307,661.298C567.149,662.146 566.911,662.978 566.713,663.81C566.436,664.927 566.214,666.06 565.873,667.153C563.845,673.634 560.644,679.648 556.215,684.932C556.057,685.122 555.851,685.297 555.692,685.487C554.345,687.048 552.927,688.569 551.359,690.003C549.774,691.445 548.094,692.784 546.335,694.028C533.809,702.902 516.941,706.8 498.108,705.001C474.086,702.743 450.253,691.849 430.992,674.323C411.732,656.798 399.76,635.112 397.28,613.261C395.046,593.715 400.909,576.506 413.76,564.812C413.792,564.788 413.823,564.764 413.847,564.733C414.346,564.289 414.893,563.901 415.408,563.465C424.607,555.764 436.594,551.089 450.285,549.806C450.435,549.79 450.586,549.766 450.729,549.75C452.171,549.623 453.636,549.568 455.118,549.512C455.894,549.489 456.655,549.433 457.447,549.425C457.701,549.425 457.954,549.394 458.216,549.394C458.683,549.394 459.167,549.457 459.634,549.465C461.789,549.497 463.96,549.584 466.178,549.774C466.456,549.798 466.725,549.79 467.01,549.814C467.216,549.837 467.414,549.877 467.62,549.901C480.178,551.16 492.602,554.908 504.399,560.589C504.645,560.597 504.93,560.668 505.286,560.866C508.883,562.855 509.573,560.724 509.676,559.313L509.676,452.281C509.676,449.215 507.544,446.506 504.549,445.848C441.023,431.864 378.693,446.419 334.704,486.461C296.286,521.41 277.698,571.847 283.72,624.828C289.092,672.018 313.312,717.361 351.937,752.507C389.579,786.751 437.505,808.166 486.945,812.825C493.75,813.451 500.596,813.776 507.275,813.776C554.496,813.776 598.302,797.589 630.644,768.171C661.274,740.282 679.624,701.982 682.318,660.323L682.563,387.067L682.587,387.067L682.587,314.01L682.603,314.01L682.603,312.734C682.88,299.835 693.394,289.464 706.356,289.464L737.058,289.464C739.45,289.464 741.391,287.523 741.391,285.13L741.391,214.021C741.391,211.914 739.68,210.195 737.565,210.195" style="fill:white;"/>
            </g>
            <g id="Glyph12" serif:id="Glyph" transform="matrix(0.265084,0,0,0.265084,8.27712,21.2807)">
                <path d="M737.565,210.195L513.637,210.195C511.522,210.195 509.81,211.914 509.81,214.021L509.81,285.13C509.81,287.523 511.744,289.464 514.144,289.464L544.846,289.464C557.261,289.464 567.331,299.019 568.409,311.149L568.409,647.599L568.401,647.599C568.48,650.309 568.369,652.979 568.108,655.601C568.076,655.982 568.029,656.362 567.981,656.742C567.799,658.279 567.609,659.8 567.307,661.298C567.149,662.146 566.911,662.978 566.713,663.81C566.436,664.927 566.214,666.06 565.873,667.153C563.845,673.634 560.644,679.648 556.215,684.932C556.057,685.122 555.851,685.297 555.692,685.487C554.345,687.048 552.927,688.569 551.359,690.003C549.774,691.445 548.094,692.784 546.335,694.028C533.809,702.902 516.941,706.8 498.108,705.001C474.086,702.743 450.253,691.849 430.992,674.323C411.732,656.798 399.76,635.112 397.28,613.261C395.046,593.715 400.909,576.506 413.76,564.812C413.792,564.788 413.823,564.764 413.847,564.733C414.346,564.289 414.893,563.901 415.408,563.465C424.607,555.764 436.594,551.089 450.285,549.806C450.435,549.79 450.586,549.766 450.729,549.75C452.171,549.623 453.636,549.568 455.118,549.512C455.894,549.489 456.655,549.433 457.447,549.425C457.701,549.425 457.954,549.394 458.216,549.394C458.683,549.394 459.167,549.457 459.634,549.465C461.789,549.497 463.96,549.584 466.178,549.774C466.456,549.798 466.725,549.79 467.01,549.814C467.216,549.837 467.414,549.877 467.62,549.901C480.178,551.16 492.602,554.908 504.399,560.589C504.645,560.597 504.93,560.668 505.286,560.866C508.883,562.855 509.573,560.724 509.676,559.313L509.676,452.281C509.676,449.215 507.544,446.506 504.549,445.848C441.023,431.864 378.693,446.419 334.704,486.461C296.286,521.41 277.698,571.847 283.72,624.828C289.092,672.018 313.312,717.361 351.937,752.507C389.579,786.751 437.505,808.166 486.945,812.825C493.75,813.451 500.596,813.776 507.275,813.776C554.496,813.776 598.302,797.589 630.644,768.171C661.274,740.282 679.624,701.982 682.318,660.323L682.563,387.067L682.587,387.067L682.587,314.01L682.603,314.01L682.603,312.734C682.88,299.835 693.394,289.464 706.356,289.464L737.058,289.464C739.45,289.464 741.391,287.523 741.391,285.13L741.391,214.021C741.391,211.914 739.68,210.195 737.565,210.195" style="fill-opacity:0.2;"/>
            </g>
            <g id="Glyph13" serif:id="Glyph" transform="matrix(0.265084,0,0,0.265084,8.27712,20.2807)">
                <path d="M737.565,210.195L513.637,210.195C511.522,210.195 509.81,211.914 509.81,214.021L509.81,285.13C509.81,287.523 511.744,289.464 514.144,289.464L544.846,289.464C557.261,289.464 567.331,299.019 568.409,311.149L568.409,647.599L568.401,647.599C568.48,650.309 568.369,652.979 568.108,655.601C568.076,655.982 568.029,656.362 567.981,656.742C567.799,658.279 567.609,659.8 567.307,661.298C567.149,662.146 566.911,662.978 566.713,663.81C566.436,664.927 566.214,666.06 565.873,667.153C563.845,673.634 560.644,679.648 556.215,684.932C556.057,685.122 555.851,685.297 555.692,685.487C554.345,687.048 552.927,688.569 551.359,690.003C549.774,691.445 548.094,692.784 546.335,694.028C533.809,702.902 516.941,706.8 498.108,705.001C474.086,702.743 450.253,691.849 430.992,674.323C411.732,656.798 399.76,635.112 397.28,613.261C395.046,593.715 400.909,576.506 413.76,564.812C413.792,564.788 413.823,564.764 413.847,564.733C414.346,564.289 414.893,563.901 415.408,563.465C424.607,555.764 436.594,551.089 450.285,549.806C450.435,549.79 450.586,549.766 450.729,549.75C452.171,549.623 453.636,549.568 455.118,549.512C455.894,549.489 456.655,549.433 457.447,549.425C457.701,549.425 457.954,549.394 458.216,549.394C458.683,549.394 459.167,549.457 459.634,549.465C461.789,549.497 463.96,549.584 466.178,549.774C466.456,549.798 466.725,549.79 467.01,549.814C467.216,549.837 467.414,549.877 467.62,549.901C480.178,551.16 492.602,554.908 504.399,560.589C504.645,560.597 504.93,560.668 505.286,560.866C508.883,562.855 509.573,560.724 509.676,559.313L509.676,452.281C509.676,449.215 507.544,446.506 504.549,445.848C441.023,431.864 378.693,446.419 334.704,486.461C296.286,521.41 277.698,571.847 283.72,624.828C289.092,672.018 313.312,717.361 351.937,752.507C389.579,786.751 437.505,808.166 486.945,812.825C493.75,813.451 500.596,813.776 507.275,813.776C554.496,813.776 598.302,797.589 630.644,768.171C661.274,740.282 679.624,701.982 682.318,660.323L682.563,387.067L682.587,387.067L682.587,314.01L682.603,314.01L682.603,312.734C682.88,299.835 693.394,289.464 706.356,289.464L737.058,289.464C739.45,289.464 741.391,287.523 741.391,285.13L741.391,214.021C741.391,211.914 739.68,210.195 737.565,210.195" style="fill:white;"/>
            </g>
        </g>
        <g id="Highlights">
            <path id="rect3894" d="M84,47C56.837,47 35,68.837 35,96L35,97C35,69.837 56.837,48 84,48L204,48C231.163,48 253,69.837 253,97L253,96C253,68.837 231.163,47 204,47L84,47Z" style="fill:white;fill-opacity:0.13;fill-rule:nonzero;"/>
            <path id="rect3896" d="M419,141C417.875,141 417,141.875 417,143L417,144C417,142.875 417.875,142 419,142L429,142C430.125,142 431,142.875 431,144L431,143C431,141.875 430.125,141 429,141L419,141Z" style="fill:white;fill-opacity:0.13;fill-rule:nonzero;"/>
            <path id="rect3898" d="M422,102C419.767,102 418,103.767 418,106L418,107C418,104.767 419.767,103 422,103L434,103C436.233,103 438,104.767 438,107L438,106C438,103.767 436.233,102 434,102L422,102Z" style="fill:white;fill-opacity:0.13;fill-rule:nonzero;"/>
            <path id="rect3900" d="M424,54C420.659,54 418,56.659 418,60L418,61C418,57.659 420.659,55 424,55L440,55C443.341,55 446,57.659 446,61L446,60C446,56.659 443.341,54 440,54L424,54Z" style="fill:white;fill-opacity:0.13;fill-rule:nonzero;"/>
            <path id="rect3902" d="M300,224C295.551,224 292,227.551 292,232L292,233C292,228.551 295.551,225 300,225L324,225C328.449,225 332,228.551 332,233L332,232C332,227.551 328.449,224 324,224L300,224Z" style="fill:white;fill-opacity:0.13;fill-rule:nonzero;"/>
            <path id="rect3904" d="M310,33C300.565,33 293,40.565 293,50L293,51C293,41.565 300.565,34 310,34L362,34C371.435,34 379,41.565 379,51L379,50C379,40.565 371.435,33 362,33L310,33Z" style="fill:white;fill-opacity:0.13;fill-rule:nonzero;"/>
            <path id="rect3906" d="M302.5,143C296.112,143 291,148.112 291,154.5L291,155.5C291,149.112 296.112,144 302.5,144L337.5,144C343.888,144 349,149.112 349,155.5L349,154.5C349,148.112 343.888,143 337.5,143L302.5,143Z" style="fill:white;fill-opacity:0.13;fill-rule:nonzero;"/>
            <path id="path4085" d="M204,266C231.163,266 253,244.163 253,217L253,216C253,243.163 231.163,265 204,265L84,265C56.837,265 35,243.163 35,216L35,217C35,244.163 56.837,266 84,266L204,266Z" style="fill-opacity:0.5;fill-rule:nonzero;"/>
            <path id="path4087" d="M429,156C430.125,156 431,155.125 431,154L431,153C431,154.125 430.125,155 429,155L419,155C417.875,155 417,154.125 417,153L417,154C417,155.125 417.875,156 419,156L429,156Z" style="fill-opacity:0.3;fill-rule:nonzero;"/>
            <path id="path4089" d="M434,123C436.233,123 438,121.233 438,119L438,118C438,120.233 436.233,122 434,122L422,122C419.767,122 418,120.233 418,118L418,119C418,121.233 419.767,123 422,123L434,123Z" style="fill-opacity:0.3;fill-rule:nonzero;"/>
            <path id="path4091" d="M440,83C443.341,83 446,80.341 446,77L446,76C446,79.341 443.341,82 440,82L424,82C420.659,82 418,79.341 418,76L418,77C418,80.341 420.659,83 424,83L440,83Z" style="fill-opacity:0.5;fill-rule:nonzero;"/>
            <path id="path4093" d="M324,265C328.449,265 332,261.449 332,257L332,256C332,260.449 328.449,264 324,264L300,264C295.551,264 292,260.449 292,256L292,257C292,261.449 295.551,265 300,265L324,265Z" style="fill-opacity:0.5;fill-rule:nonzero;"/>
            <path id="path4095" d="M362,120C371.435,120 379,112.435 379,103L379,102C379,111.435 371.435,119 362,119L310,119C300.565,119 293,111.435 293,102L293,103C293,112.435 300.565,120 310,120L362,120Z" style="fill-opacity:0.5;fill-rule:nonzero;"/>
            <path id="path4097" d="M337.5,202C343.888,202 349,196.888 349,190.5L349,189.5C349,195.888 343.888,201 337.5,201L302.5,201C296.112,201 291,195.888 291,189.5L291,190.5C291,196.888 296.112,202 302.5,202L337.5,202Z" style="fill-opacity:0.5;fill-rule:nonzero;"/>
            <path id="path4280" d="M84,265C56.837,265 35,243.163 35,216L35,215C35,242.163 56.837,264 84,264L204,264C231.163,264 253,242.163 253,215L253,216C253,243.163 231.163,265 204,265L84,265Z" style="fill:white;fill-opacity:0.1;fill-rule:nonzero;"/>
            <path id="path4294" d="M300,264C295.551,264 292,260.449 292,256L292,255C292,259.449 295.551,263 300,263L324,263C328.449,263 332,259.449 332,255L332,256C332,260.449 328.449,264 324,264L300,264Z" style="fill:white;fill-opacity:0.1;fill-rule:nonzero;"/>
            <path id="path4296" d="M302.5,201C296.112,201 291,195.888 291,189.5L291,188.5C291,194.888 296.112,200 302.5,200L337.5,200C343.888,200 349,194.888 349,188.5L349,189.5C349,195.888 343.888,201 337.5,201L302.5,201Z" style="fill:white;fill-opacity:0.1;fill-rule:nonzero;"/>
            <path id="path4298" d="M310,119C300.565,119 293,111.435 293,102L293,101C293,110.435 300.565,118 310,118L362,118C371.435,118 379,110.435 379,101L379,102C379,111.435 371.435,119 362,119L310,119Z" style="fill:white;fill-opacity:0.1;fill-rule:nonzero;"/>
            <path id="path4300" d="M424,82C420.659,82 418,79.341 418,76L418,75C418,78.341 420.659,81 424,81L440,81C443.341,81 446,78.341 446,75L446,76C446,79.341 443.341,82 440,82L424,82Z" style="fill:white;fill-opacity:0.1;fill-rule:nonzero;"/>
            <path id="path4302" d="M422,122C419.767,122 418,120.233 418,118L418,117C418,119.233 419.767,121 422,121L434,121C436.233,121 438,119.233 438,117L438,118C438,120.233 436.233,122 434,122L422,122Z" style="fill:white;fill-opacity:0.1;fill-rule:nonzero;"/>
            <path id="path4304" d="M419,154.5C417.875,154.5 417,153.625 417,152.5L417,151.5C417,152.625 417.875,153.5 419,153.5L429,153.5C430.125,153.5 431,152.625 431,151.5L431,152.5C431,153.625 430.125,154.5 429,154.5L419,154.5Z" style="fill:white;fill-opacity:0.1;fill-rule:nonzero;"/>
        </g>
        <g id="Border">
            <path id="rect4099" d="M422,101C419.23,101 417,103.23 417,106L417,118C417,120.77 419.23,123 422,123L434,123C436.77,123 439,120.77 439,118L439,106C439,103.23 436.77,101 434,101L422,101ZM422,102L434,102C436.233,102 438,103.767 438,106L438,118C438,120.233 436.233,122 434,122L422,122C419.767,122 418,120.233 418,118L418,106C418,103.767 419.767,102 422,102Z" style="fill-opacity:0.41;fill-rule:nonzero;"/>
            <path id="rect4151" d="M424,53C420.122,53 417,56.122 417,60L417,76C417,79.878 420.122,83 424,83L440,83C443.878,83 447,79.878 447,76L447,60C447,56.122 443.878,53 440,53L424,53ZM424,54L440,54C443.341,54 446,56.659 446,60L446,76C446,79.341 443.341,82 440,82L424,82C420.659,82 418,79.341 418,76L418,60C418,56.659 420.659,54 424,54Z" style="fill-opacity:0.41;fill-rule:nonzero;"/>
            <path id="rect4095" d="M419,140C417.338,140 416,141.338 416,143L416,153C416,154.662 417.338,156 419,156L429,156C430.662,156 432,154.662 432,153L432,143C432,141.338 430.662,140 429,140L419,140ZM419,141L429,141C430.125,141 431,141.875 431,143L431,153C431,154.125 430.125,155 429,155L419,155C417.875,155 417,154.125 417,153L417,143C417,141.875 417.875,141 419,141Z" style="fill-opacity:0.41;fill-rule:nonzero;"/>
            <path id="rect4783" d="M300,223C295.014,223 291,227.014 291,232L291,256C291,260.986 295.014,265 300,265L324,265C328.986,265 333,260.986 333,256L333,232C333,227.014 328.986,223 324,223L300,223ZM300,224L324,224C328.449,224 332,227.551 332,232L332,256C332,260.449 328.449,264 324,264L300,264C295.551,264 292,260.449 292,256L292,232C292,227.551 295.551,224 300,224Z" style="fill-opacity:0.41;fill-rule:nonzero;"/>
            <path id="rect4515" d="M302.5,142C295.575,142 290,147.575 290,154.5L290,189.5C290,196.425 295.575,202 302.5,202L337.5,202C344.425,202 350,196.425 350,189.5L350,154.5C350,147.575 344.425,142 337.5,142L302.5,142ZM302.5,143L337.5,143C343.888,143 349,148.112 349,154.5L349,189.5C349,195.888 343.888,201 337.5,201L302.5,201C296.112,201 291,195.888 291,189.5L291,154.5C291,148.112 296.112,143 302.5,143Z" style="fill-opacity:0.41;fill-rule:nonzero;"/>
            <path id="rect4511" d="M310,32C300.028,32 292,40.028 292,50L292,102C292,111.972 300.028,120 310,120L362,120C371.972,120 380,111.972 380,102L380,50C380,40.028 371.972,32 362,32L310,32ZM310,33L362,33C371.435,33 379,40.565 379,50L379,102C379,111.435 371.435,119 362,119L310,119C300.565,119 293,111.435 293,102L293,50C293,40.565 300.565,33 310,33Z" style="fill-opacity:0.41;fill-rule:nonzero;"/>
            <path id="rect4040" d="M84,46C56.3,46 34,68.3 34,96L34,216C34,243.7 56.3,266 84,266L204,266C231.7,266 254,243.7 254,216L254,96C254,68.3 231.7,46 204,46L84,46ZM84,47L204,47C231.163,47 253,68.837 253,96L253,216C253,243.163 231.163,265 204,265L84,265C56.837,265 35,243.163 35,216L35,96C35,68.837 56.837,47 84,47Z" style="fill-opacity:0.41;fill-rule:nonzero;"/>
        </g>
    </g>
    <defs>
        <linearGradient id="_Linear1" x1="0" y1="0" x2="1" y2="0" gradientUnits="userSpaceOnUse" gradientTransform="matrix(-218.156,-218.781,218.781,-218.156,253.414,266.008)"><stop offset="0" style="stop-color:rgb(0,76,175);stop-opacity:1"/><stop offset="1" style="stop-color:rgb(21,149,255);stop-opacity:1"/></linearGradient>
        <linearGradient id="_Linear2" x1="0" y1="0" x2="1" y2="0" gradientUnits="userSpaceOnUse" gradientTransform="matrix(-14.3892,-14.049,14.049,-14.3892,431.414,155.021)"><stop offset="0" style="stop-color:rgb(0,76,175);stop-opacity:1"/><stop offset="1" style="stop-color:rgb(21,149,255);stop-opacity:1"/></linearGradient>
        <linearGradient id="_Linear3" x1="0" y1="0" x2="1" y2="0" gradientUnits="userSpaceOnUse" gradientTransform="matrix(-20.0911,-19.9176,19.9176,-20.0911,438.13,122)"><stop offset="0" style="stop-color:rgb(0,76,175);stop-opacity:1"/><stop offset="1" style="stop-color:rgb(21,149,255);stop-opacity:1"/></linearGradient>
        <linearGradient id="_Linear4" x1="0" y1="0" x2="1" y2="0" gradientUnits="userSpaceOnUse" gradientTransform="matrix(-28.8491,-28.9871,28.9871,-28.8491,446.131,82.8541)"><stop offset="0" style="stop-color:rgb(0,76,175);stop-opacity:1"/><stop offset="1" style="stop-color:rgb(21,149,255);stop-opacity:1"/></linearGradient>
        <linearGradient id="_Linear5" x1="0" y1="0" x2="1" y2="0" gradientUnits="userSpaceOnUse" gradientTransform="matrix(-41.9829,-41.3127,41.3127,-41.9829,332.947,265.467)"><stop offset="0" style="stop-color:rgb(0,76,175);stop-opacity:1"/><stop offset="1" style="stop-color:rgb(21,149,255);stop-opacity:1"/></linearGradient>
        <linearGradient id="_Linear6" x1="0" y1="0" x2="1" y2="0" gradientUnits="userSpaceOnUse" gradientTransform="matrix(-87.4742,-85.2649,85.2649,-87.4742,379.171,118.666)"><stop offset="0" style="stop-color:rgb(0,76,175);stop-opacity:1"/><stop offset="1" style="stop-color:rgb(21,149,255);stop-opacity:1"/></linearGradient>
        <linearGradient id="_Linear7" x1="0" y1="0" x2="1" y2="0" gradientUnits="userSpaceOnUse" gradientTransform="matrix(-59.2403,-57.4367,57.4367,-59.2403,349.298,200.712)"><stop offset="0" style="stop-color:rgb(0,76,175);stop-opacity:1"/><stop offset="1" style="stop-color:rgb(21,149,255);stop-opacity:1"/></linearGradient>
    </defs>
</svg>
