<?xml version="1.0" encoding="UTF-8" standalone="no"?>
<!-- Created with Inkscape (http://www.inkscape.org/) -->

<svg
   width="480"
   height="300"
   viewBox="0 0 480 300"
   version="1.1"
   id="svg5"
   inkscape:version="1.3 (1:1.3+202307231459+0e150ed6c4)"
   sodipodi:docname="kodi.svg"
   xmlns:inkscape="http://www.inkscape.org/namespaces/inkscape"
   xmlns:sodipodi="http://sodipodi.sourceforge.net/DTD/sodipodi-0.dtd"
   xmlns="http://www.w3.org/2000/svg"
   xmlns:svg="http://www.w3.org/2000/svg">
  <sodipodi:namedview
     id="namedview7"
     pagecolor="#888888"
     bordercolor="#000000"
     borderopacity="0.25"
     inkscape:showpageshadow="true"
     inkscape:pageopacity="0"
     inkscape:pagecheckerboard="0"
     inkscape:deskcolor="#888888"
     inkscape:document-units="px"
     showgrid="false"
     showborder="false"
     inkscape:zoom="1.4958333"
     inkscape:cx="240"
     inkscape:cy="150.08357"
     inkscape:window-width="1920"
     inkscape:window-height="1008"
     inkscape:window-x="0"
     inkscape:window-y="0"
     inkscape:window-maximized="1"
     inkscape:current-layer="svg5" />
  <defs
     id="defs2" />
  <g
     id="Baseplate"
     style="display:none">
    <text
       y="19.774782"
       xml:space="preserve"
       x="15.006946"
       style="font-style:normal;font-variant:normal;font-weight:normal;font-stretch:normal;line-height:0%;font-family:'DejaVu Sans';-inkscape-font-specification:'DejaVu Sans';display:inline;fill:#000000;fill-opacity:1;stroke:none;enable-background:new"
       inkscape:label="context"
       id="context"><tspan
         style="font-style:normal;font-variant:normal;font-weight:normal;font-stretch:normal;font-size:18px;line-height:1.25;font-family:'DejaVu Sans';-inkscape-font-specification:'DejaVu Sans'"
         y="19.774782"
         x="15.006946"
         sodipodi:role="line"
         id="tspan3933">apps</tspan></text>
    <text
       y="19.774782"
       xml:space="preserve"
       x="122.48839"
       style="font-style:normal;font-variant:normal;font-weight:bold;font-stretch:normal;line-height:0%;font-family:'DejaVu Sans';-inkscape-font-specification:'DejaVu Sans Bold';text-align:start;writing-mode:lr-tb;text-anchor:start;display:inline;fill:#000000;fill-opacity:1;stroke:none;enable-background:new"
       inkscape:label="icon-name"
       id="icon-name"><tspan
         style="font-style:normal;font-variant:normal;font-weight:bold;font-stretch:normal;font-size:18px;line-height:1.25;font-family:'DejaVu Sans';-inkscape-font-specification:'DejaVu Sans Bold'"
         y="19.774782"
         x="122.48839"
         sodipodi:role="line"
         id="tspan3937">kodi</tspan></text>
    <rect
       style="fill:#ffffff"
       id="256x256"
       width="256"
       height="256"
       x="16"
       y="28" />
    <rect
       style="fill:#ffffff"
       id="96x96"
       width="96"
       height="96"
       x="288"
       y="28" />
    <rect
       style="fill:#ffffff"
       id="64x64"
       width="64"
       height="64"
       x="288"
       y="140" />
    <rect
       style="fill:#ffffff"
       id="48x48"
       width="48"
       height="48"
       x="288"
       y="220" />
    <rect
       style="fill:#ffffff"
       id="32x32"
       width="32"
       height="32"
       x="416"
       y="52" />
    <rect
       style="fill:#ffffff"
       id="24x24"
       width="24"
       height="24"
       x="416"
       y="100" />
    <rect
       style="fill:#ffffff"
       id="22x22"
       width="22"
       height="22"
       x="417"
       y="101" />
    <rect
       style="fill:#ffffff"
       id="16x16"
       width="16"
       height="16"
       x="416"
       y="140" />
  </g>
  <g
     id="Shadow">
    <rect
       style="opacity:0.2;fill:#000000"
       id="rect651"
       width="224"
       height="224"
       x="32"
       y="46"
       ry="48" />
    <rect
       style="opacity:0.2;fill:#000000"
       id="rect769"
       width="84"
       height="85"
       x="294"
       y="34"
       ry="18" />
    <rect
       style="opacity:0.2;fill:#000000;fill-opacity:1"
       id="rect1131"
       width="56"
       height="56"
       x="292"
       y="145"
       ry="12" />
    <rect
       style="opacity:0.2;fill:#000000;fill-opacity:1"
       id="rect1261"
       width="42"
       height="42"
       x="291"
       y="224"
       ry="9" />
    <rect
       style="opacity:0.2;fill:#000000;fill-opacity:1"
       id="rect1364"
       width="28"
       height="29"
       x="418"
       y="54"
       ry="6" />
    <rect
       style="opacity:0.2;fill:#000000;fill-opacity:1"
       id="rect1398"
       width="16"
       height="16"
       x="416"
       y="141"
       ry="4" />
    <rect
       style="opacity:0.2;fill:#000000;fill-opacity:1"
       id="rect1432"
       width="20"
       height="20"
       x="418"
       y="103"
       ry="4" />
  </g>
  <g
     id="Background">
    <rect
       style="fill:#31afe1;fill-opacity:1"
       id="rect597"
       width="224"
       height="224"
       x="32"
       y="44"
       ry="48" />
    <rect
       style="opacity:1;fill:#31afe1;fill-opacity:1"
       id="rect771"
       width="84"
       height="84"
       x="294"
       y="34"
       ry="18" />
    <rect
       style="opacity:1;fill:#31afe1;fill-opacity:1"
       id="rect1133"
       width="56"
       height="56"
       x="292"
       y="144"
       ry="12" />
    <rect
       style="opacity:1;fill:#31afe1;fill-opacity:1"
       id="rect1263"
       width="42"
       height="42"
       x="291"
       y="223"
       ry="9" />
    <rect
       style="opacity:1;fill:#31afe1;fill-opacity:1"
       id="rect1366"
       width="28"
       height="28"
       x="418"
       y="54"
       ry="6" />
    <rect
       style="opacity:1;fill:#31afe1;fill-opacity:1"
       id="rect1400"
       width="16"
       height="16"
       x="416"
       y="140"
       ry="4" />
    <rect
       style="opacity:1;fill:#31afe1;fill-opacity:1"
       id="rect1434"
       width="20"
       height="20"
       x="418"
       y="102"
       ry="4" />
  </g>
  <g
     id="g1">
    <path
       d="m 424.00024,143.5 c -0.27501,0 -0.55027,0.10204 -0.75585,0.30761 l -1.74414,1.74414 v 4.49119 l 4.7451,-4.7451 -1.48925,-1.49023 C 424.55052,143.60204 424.27525,143.5 424.00024,143.5 Z m 2.95214,2.50488 -2.49511,2.4951 2.49511,2.49511 1.73925,-1.74023 c 0.41115,-0.41115 0.41116,-1.09959 0,-1.51074 z m -6.45212,0.54687 -1.19238,1.19237 c -0.41116,0.41115 -0.4102,1.09959 10e-4,1.51074 l 1.19138,1.1914 z m 3.24998,2.65526 -2.2451,2.24511 1.73925,1.73925 c 0.41115,0.41114 1.10056,0.41112 1.51171,0 l 1.48925,-1.48925 z"
       style="fill:#000000;fill-opacity:1;stroke-width:0.499998;opacity:0.2"
       id="path1-9" />
    <path
       id="rect2-2"
       style="opacity:0.2;fill:#000000;fill-opacity:1;stroke-width:0.540154;stroke-linecap:round;stroke-linejoin:round"
       d="m 428,105.50027 c -0.39516,0 -0.79095,0.15229 -1.09375,0.45508 L 425,107.8616 v 6.22461 l 6.11328,-6.11328 -2.01926,-2.01785 c -0.3028,-0.3028 -0.69859,-0.45507 -1.09375,-0.45508 z m 4.52735,3.88672 -3.11328,3.11328 3.11328,3.11328 2.01784,-2.01926 c 0.60559,-0.60559 0.60559,-1.58191 0,-2.1875 z M 423,109.8616 l -1.54492,1.54493 c -0.60559,0.60558 -0.60559,1.5819 0,2.18749 L 423,115.13894 Z m 5,4.05274 -3.00026,3.00168 v 0.22265 l 1.90624,1.90625 c 0.6056,0.60559 1.58191,0.60559 2.1875,10e-6 l 2.01926,-2.01785 z" />
    <path
       d="m 432.00049,59 c -0.55002,0 -1.10056,0.204088 -1.51172,0.615234 l -3.48828,3.488282 v 8.982422 l 9.49023,-9.490235 -2.97851,-2.980469 C 433.10105,59.204088 432.55051,59 432.00049,59 Z m 5.9043,5.009766 L 432.91455,69 l 4.99024,4.990234 3.47851,-3.480468 c 0.82231,-0.822294 0.82232,-2.199192 0,-3.021485 z m -12.9043,1.09375 -2.38477,2.384765 c -0.82231,0.822293 -0.82039,2.199191 0.002,3.021485 l 2.38277,2.382812 z m 6.5,5.310546 -4.49023,4.490235 3.47851,3.478515 c 0.82231,0.822294 2.20113,0.822261 3.02344,0 l 2.97851,-2.978515 z"
       style="fill:#000000;opacity:0.2"
       id="path1-3" />
    <path
       d="m 311.99952,230 c -0.78575,0 -1.57279,0.29351 -2.16016,0.88086 l -4.83984,4.83984 v 14.29688 l 14.14844,-14.14649 -4.99024,-4.99023 C 313.57036,230.29351 312.78527,230 311.99952,230 Z m 9.26953,7.99219 -7.11523,7.11328 7.00976,7.00781 4.95508,-4.95508 c 1.17473,-1.1747 1.17473,-3.1417 0,-4.3164 z m -19.26953,0.73047 -4.11914,4.11914 c -1.17473,1.1747 -1.17281,3.13975 0.002,4.31445 l 4.11719,4.11719 z m 10.03125,8.5039 -7.03125,7.03321 v 0.0156 l 4.8418,4.84179 c 1.17473,1.17471 3.14167,1.17662 4.3164,0.002 l 4.88282,-4.88281 z"
       style="fill:#000000;opacity:0.2"
       id="path1-1" />
    <path
       d="m 320.00002,153 c -1.10013,0 -2.2012,0.40816 -3.02357,1.23051 l -6.97686,6.97688 v 17.9656 l 18.98127,-18.98128 -5.95728,-5.9612 C 322.20121,153.40816 321.10014,153 320.00002,153 Z m 11.8091,10.01997 -9.98091,9.98088 9.98091,9.98089 6.95731,-6.95732 c 1.64475,-1.64471 1.64475,-4.40243 0,-6.04714 z m -25.8097,2.19149 -4.76582,4.76582 c -1.64477,1.64471 -1.64483,4.39851 0,6.04324 l 4.76582,4.76582 z m 13.00055,10.61763 -8.97694,8.97694 6.95732,6.96124 c 1.64477,1.64473 4.39848,1.64855 6.04323,0.004 l 5.95728,-5.96119 z"
       style="fill:#000000;stroke-width:2.00017;opacity:0.2"
       id="path1-7" />
    <path
       d="m 335.99903,47 c -1.57153,0 -3.14564,0.587032 -4.3204,1.761755 l -9.67987,9.679872 v 28.594326 l 28.29744,-28.29354 -9.98068,-9.980658 C 339.14077,47.587032 337.57056,47 335.99903,47 Z m 18.53943,15.984697 -14.23074,14.226842 14.0198,14.015897 9.91035,-9.910356 c 2.34951,-2.349447 2.34951,-6.283525 0,-8.632971 z m -38.53982,1.460969 -8.23845,8.238443 c -2.3495,2.349446 -2.34566,6.279624 0.004,8.629071 l 8.23455,8.234543 z m 20.06289,17.008137 -14.06277,14.066698 v 0.0312 l 9.68379,9.683779 c 2.3495,2.34947 6.28346,2.35329 8.63297,0.004 l 9.76583,-9.765821 z"
       style="fill:#000000;stroke-width:2.00004;opacity:0.2"
       id="path1-70" />
    <path
       d="m 144.00008,77.999999 c -4.40052,0 -8.8048,1.63264 -12.09428,4.92204 l -27.90744,27.907521 v 71.8624 l 75.92508,-75.92512 -23.82912,-23.844801 c -3.28948,-3.2894 -7.69376,-4.92204 -12.09424,-4.92204 z m 47.2364,40.079881 -39.92364,39.92352 39.92364,39.92356 27.82924,-27.82928 c 6.579,-6.57884 6.579,-17.60972 0,-24.18856 z m -103.2388,8.76596 -19.063279,19.06328 c -6.57908,6.57884 -6.57932,17.59404 0,24.17296 l 19.063279,19.06328 z m 52.0022,42.47052 -35.90776,35.90776 27.82928,27.84496 c 6.57908,6.57892 17.59392,6.5942 24.17292,0.016 l 23.82912,-23.84476 z"
       style="opacity:0.2;fill:#000000;stroke-width:8.00068"
       id="path1-7-6" />
  </g>
  <g
     id="g2">
    <path
       d="m 424.00024,143.00014 c -0.27501,0 -0.55027,0.10204 -0.75585,0.30761 l -1.74414,1.74414 v 4.49119 l 4.7451,-4.7451 -1.48925,-1.49023 c -0.20558,-0.20557 -0.48085,-0.30761 -0.75586,-0.30761 z m 2.95214,2.50488 -2.49511,2.4951 2.49511,2.49511 1.73925,-1.74023 c 0.41115,-0.41115 0.41116,-1.09959 0,-1.51074 z m -6.45212,0.54687 -1.19238,1.19237 c -0.41116,0.41115 -0.4102,1.09959 10e-4,1.51074 l 1.19138,1.1914 z m 3.24998,2.65526 -2.2451,2.24511 1.73925,1.73925 c 0.41115,0.41114 1.10056,0.41112 1.51171,0 l 1.48925,-1.48925 z"
       style="fill:#ffffff;fill-opacity:1;stroke-width:0.499998"
       id="path1-18"
       sodipodi:nodetypes="ssccccsccccsccscccccsccc" />
    <path
       id="rect2"
       style="opacity:1;fill:#ffffff;fill-opacity:1;stroke-width:0.540154;stroke-linecap:round;stroke-linejoin:round"
       d="M 376.88791 -228.39549 C 376.60849 -228.11607 376.43631 -227.72852 376.43631 -227.3003 L 376.43631 -224.60446 L 380.83777 -220.203 L 380.83777 -228.84848 L 377.9831 -228.8471 C 377.55488 -228.8471 377.16734 -228.67491 376.88791 -228.39549 z M 382.83756 -228.84848 L 382.83756 -224.44564 L 387.2404 -224.44564 L 387.23902 -227.3003 C 387.23902 -228.15674 386.54866 -228.8471 385.69222 -228.8471 L 382.83756 -228.84848 z M 376.43631 -221.77603 L 376.43631 -219.59118 C 376.43631 -218.73475 377.12667 -218.04439 377.9831 -218.04439 L 380.16795 -218.04439 L 376.43631 -221.77603 z M 382.83756 -222.44585 L 382.83894 -218.20183 L 382.99638 -218.04439 L 385.69222 -218.04439 C 386.54866 -218.04439 387.23902 -218.73475 387.23902 -219.59118 L 387.2404 -222.44585 L 382.83756 -222.44585 z "
       transform="rotate(45)" />
    <path
       d="m 432.00049,58.00024 c -0.55002,0 -1.10056,0.204088 -1.51172,0.615234 l -3.48828,3.488282 v 8.982422 l 9.49023,-9.490235 -2.97851,-2.980469 c -0.41116,-0.411146 -0.9617,-0.615234 -1.51172,-0.615234 z m 5.9043,5.009766 -4.99024,4.990234 4.99024,4.990234 3.47851,-3.480468 c 0.82231,-0.822294 0.82232,-2.199192 0,-3.021485 z m -12.9043,1.09375 -2.38477,2.384765 c -0.82231,0.822293 -0.82039,2.199191 0.002,3.021485 l 2.38277,2.382812 z m 6.5,5.310546 -4.49023,4.490235 3.47851,3.478515 c 0.82231,0.822294 2.20113,0.822261 3.02344,0 l 2.97851,-2.978515 z"
       style="fill:#ffffff;fill-opacity:1"
       id="path1"
       sodipodi:nodetypes="ssccccsccccsccscccccsccc" />
    <path
       id="path2"
       style="fill:#ffffff"
       d="m 311.99952,229.00042 c -0.78575,0 -1.57279,0.29351 -2.16016,0.88086 l -4.83984,4.83984 V 249.018 l 14.14844,-14.14649 -4.99024,-4.99023 c -0.58736,-0.58735 -1.37245,-0.88086 -2.1582,-0.88086 z m 9.26953,7.99219 -7.11523,7.11328 7.00976,7.00781 4.95508,-4.95508 c 1.17473,-1.1747 1.17473,-3.1417 0,-4.3164 z m -19.26953,0.73047 -4.11914,4.11914 c -1.17473,1.1747 -1.17281,3.13975 0.002,4.31445 l 4.11719,4.11719 z m 10.03125,8.5039 -7.03125,7.03321 v 0.0156 l 4.8418,4.84179 c 1.17473,1.17471 3.14167,1.17662 4.3164,0.002 l 4.88282,-4.88281 z"
       sodipodi:nodetypes="sccccsscccccccsccccccsccc" />
    <path
       d="m 320.00002,152 c -1.10013,0 -2.2012,0.40816 -3.02357,1.23051 l -6.97686,6.97688 v 17.9656 l 18.98127,-18.98128 -5.95728,-5.9612 C 322.20121,152.40816 321.10014,152 320.00002,152 Z m 11.8091,10.01997 -9.98091,9.98088 9.98091,9.98089 6.95731,-6.95732 c 1.64475,-1.64471 1.64475,-4.40243 0,-6.04714 z m -25.8097,2.19149 -4.76582,4.76582 c -1.64477,1.64471 -1.64483,4.39851 0,6.04324 l 4.76582,4.76582 z m 13.00055,10.61763 -8.97694,8.97694 6.95732,6.96124 c 1.64477,1.64473 4.39848,1.64855 6.04323,0.004 l 5.95728,-5.96119 z"
       style="fill:#ffffff;stroke-width:2.00017"
       id="path1-6"
       sodipodi:nodetypes="scccccsccccccccccccccccc" />
    <path
       d="m 335.99903,46 c -1.57153,0 -3.14564,0.587032 -4.3204,1.761755 l -9.67987,9.679872 V 86.03595 L 350.2962,57.742413 340.31552,47.761755 C 339.14077,46.587032 337.57056,46 335.99903,46 Z m 18.53943,15.984697 -14.23074,14.226843 14.0198,14.0159 9.91035,-9.91036 c 2.34951,-2.34945 2.34951,-6.28352 0,-8.63297 z m -38.53982,1.460969 -8.23845,8.238444 c -2.3495,2.34945 -2.34566,6.27962 0.004,8.62907 l 8.23455,8.23454 z M 336.06153,80.4538 321.99876,94.5205 v 0.0312 l 9.68379,9.68377 c 2.3495,2.34947 6.28346,2.35329 8.63297,0.004 l 9.76583,-9.76581 z"
       style="fill:#ffffff;stroke-width:2.00004"
       id="path1-70-6" />
    <path
       d="m 144.00008,75.999999 c -4.40052,0 -8.8048,1.63264 -12.09428,4.92204 l -27.90744,27.907521 v 71.8624 l 75.92508,-75.92512 -23.82912,-23.844801 c -3.28948,-3.2894 -7.69376,-4.92204 -12.09424,-4.92204 z m 47.2364,40.079881 -39.92364,39.92352 39.92364,39.92356 27.82924,-27.82928 c 6.579,-6.57884 6.579,-17.60972 0,-24.18856 z m -103.2388,8.76596 -19.063279,19.06328 c -6.57908,6.57884 -6.57932,17.59404 0,24.17296 l 19.063279,19.06328 z m 52.0022,42.47052 -35.90776,35.90776 27.82928,27.84496 c 6.57908,6.57892 17.59392,6.5942 24.17292,0.016 l 23.82912,-23.84476 z"
       style="fill:#ffffff;stroke-width:8.00068"
       id="path1-6-3"
       sodipodi:nodetypes="scccccsccccccccccccccccc" />
  </g>
  <g
     id="Highlights">
    <path
       id="rect653"
       style="opacity:0.2;fill:#ffffff"
       d="M 80,44 C 53.408027,44 32,65.408027 32,92 v 2 C 32,67.408027 53.408027,46 80,46 h 128 c 26.59197,0 48,21.408027 48,48 V 92 C 256,65.408027 234.59197,44 208,44 Z"
       sodipodi:nodetypes="sscsscsss" />
    <path
       id="rect773"
       style="opacity:0.2;fill:#ffffff"
       d="m 312,34 c -9.97199,0 -18,8.02801 -18,18 v 1 c 0,-9.97199 8.02801,-18 18,-18 h 48 c 9.97199,0 18,8.02801 18,18 v -1 c 0,-9.97199 -8.02801,-18 -18,-18 z" />
    <path
       id="rect1135"
       style="opacity:0.2;fill:#ffffff;fill-opacity:1"
       d="m 304,144 c -6.64799,0 -12,5.35201 -12,12 v 1 c 0,-6.64799 5.35201,-12 12,-12 h 32 c 6.64799,0 12,5.35201 12,12 v -1 c 0,-6.64799 -5.35201,-12 -12,-12 z" />
    <path
       id="rect1265"
       style="opacity:0.2;fill:#ffffff;fill-opacity:1"
       d="m 300,223 c -4.986,0 -9,4.014 -9,9 v 1 c 0,-4.986 4.014,-9 9,-9 h 24 c 4.986,0 9,4.014 9,9 v -1 c 0,-4.986 -4.014,-9 -9,-9 z" />
    <path
       id="rect1368"
       style="opacity:0.2;fill:#ffffff;fill-opacity:1"
       d="m 424,54 c -3.324,0 -6,2.676003 -6,6 v 1 c 0,-3.323997 2.676,-6 6,-6 h 16 c 3.324,0 6,2.676003 6,6 v -1 c 0,-3.323997 -2.676,-6 -6,-6 z" />
    <path
       id="rect1402"
       style="opacity:0.2;fill:#ffffff;fill-opacity:1"
       d="m 420,140 c -2.216,0 -4,1.784 -4,4 v 1 c 0,-2.216 1.784,-4 4,-4 h 8 c 2.216,0 4,1.784 4,4 v -1 c 0,-2.216 -1.784,-4 -4,-4 z" />
    <path
       id="rect1436"
       style="opacity:0.2;fill:#ffffff;fill-opacity:1"
       d="m 422,102 c -2.216,0 -4,1.784 -4,4 v 1 c 0,-2.216 1.784,-4 4,-4 h 12 c 2.216,0 4,1.784 4,4 v -1 c 0,-2.216 -1.784,-4 -4,-4 z" />
  </g>
</svg>
