<?xml version="1.0" encoding="UTF-8" standalone="no"?>
<!-- Created with Inkscape (http://www.inkscape.org/) -->

<svg
   inkscape:export-ydpi="90.000000"
   inkscape:export-xdpi="90.000000"
   width="480"
   height="300"
   id="svg11300"
   sodipodi:version="0.32"
   inkscape:version="1.2.2 (b0a8486541, 2022-12-01)"
   sodipodi:docname="localsend.svg"
   inkscape:output_extension="org.inkscape.output.svg.inkscape"
   version="1.0"
   style="display:inline;enable-background:new"
   inkscape:export-filename="/home/sam/moka-next-template.png"
   xmlns:inkscape="http://www.inkscape.org/namespaces/inkscape"
   xmlns:sodipodi="http://sodipodi.sourceforge.net/DTD/sodipodi-0.dtd"
   xmlns:xlink="http://www.w3.org/1999/xlink"
   xmlns="http://www.w3.org/2000/svg"
   xmlns:svg="http://www.w3.org/2000/svg"
   xmlns:rdf="http://www.w3.org/1999/02/22-rdf-syntax-ns#"
   xmlns:cc="http://creativecommons.org/ns#"
   xmlns:dc="http://purl.org/dc/elements/1.1/">
  <sodipodi:namedview
     stroke="#ef2929"
     fill="#f57900"
     id="base"
     pagecolor="#777777"
     bordercolor="#666666"
     borderopacity="0.25490196"
     inkscape:pageopacity="0"
     inkscape:pageshadow="2"
     inkscape:zoom="2.9914868"
     inkscape:cx="238.51016"
     inkscape:cy="153.93683"
     inkscape:current-layer="layer2"
     showgrid="false"
     inkscape:grid-bbox="true"
     inkscape:document-units="px"
     inkscape:showpageshadow="false"
     inkscape:window-width="1920"
     inkscape:window-height="1128"
     inkscape:window-x="0"
     inkscape:window-y="0"
     width="400px"
     height="300px"
     inkscape:snap-nodes="true"
     inkscape:snap-bbox="true"
     gridtolerance="10000"
     inkscape:object-nodes="true"
     inkscape:snap-grids="true"
     showguides="false"
     inkscape:guide-bbox="true"
     inkscape:window-maximized="1"
     inkscape:bbox-nodes="true"
     inkscape:bbox-paths="true"
     inkscape:snap-bbox-edge-midpoints="true"
     inkscape:snap-bbox-midpoints="true"
     inkscape:pagecheckerboard="0"
     inkscape:deskcolor="#777777">
    <inkscape:grid
       spacingy="1"
       spacingx="1"
       id="grid5883"
       type="xygrid"
       enabled="true"
       visible="true"
       empspacing="4"
       snapvisiblegridlinesonly="true"
       dotted="false"
       color="#000000"
       opacity="0.1254902"
       empcolor="#203ef3"
       empopacity="0.36470588"
       originx="0"
       originy="0" />
    <inkscape:grid
       type="xygrid"
       id="grid11592"
       empspacing="8"
       visible="true"
       enabled="false"
       spacingx="0.5"
       spacingy="0.5"
       color="#ff0000"
       opacity="0.1254902"
       empcolor="#ff0000"
       empopacity="0.25098039"
       snapvisiblegridlinesonly="true"
       dotted="true"
       originx="0"
       originy="0" />
  </sodipodi:namedview>
  <defs
     id="defs3">
    <linearGradient
       id="linearGradient1755">
      <stop
         style="stop-color:#00726c;stop-opacity:1;"
         offset="0"
         id="stop1751" />
      <stop
         style="stop-color:#009a94;stop-opacity:1;"
         offset="1"
         id="stop1753" />
    </linearGradient>
    <linearGradient
       id="linearGradient1749">
      <stop
         style="stop-color:#00726c;stop-opacity:1;"
         offset="0"
         id="stop1745" />
      <stop
         style="stop-color:#009a94;stop-opacity:1;"
         offset="1"
         id="stop1747" />
    </linearGradient>
    <linearGradient
       id="linearGradient1743">
      <stop
         style="stop-color:#00726c;stop-opacity:1;"
         offset="0"
         id="stop1739" />
      <stop
         style="stop-color:#009a94;stop-opacity:1;"
         offset="1"
         id="stop1741" />
    </linearGradient>
    <linearGradient
       id="linearGradient1737">
      <stop
         style="stop-color:#00726c;stop-opacity:1;"
         offset="0"
         id="stop1733" />
      <stop
         style="stop-color:#009a94;stop-opacity:1;"
         offset="1"
         id="stop1735" />
    </linearGradient>
    <linearGradient
       id="linearGradient1731">
      <stop
         style="stop-color:#00726c;stop-opacity:1;"
         offset="0"
         id="stop1727" />
      <stop
         style="stop-color:#009a94;stop-opacity:1;"
         offset="1"
         id="stop1729" />
    </linearGradient>
    <linearGradient
       id="linearGradient1725">
      <stop
         style="stop-color:#00726c;stop-opacity:1;"
         offset="0"
         id="stop1721" />
      <stop
         style="stop-color:#009a94;stop-opacity:1;"
         offset="1"
         id="stop1723" />
    </linearGradient>
    <linearGradient
       id="linearGradient2989">
      <stop
         style="stop-color:#006c66;stop-opacity:1;"
         offset="0"
         id="stop2985" />
      <stop
         style="stop-color:#00a19b;stop-opacity:1;"
         offset="1"
         id="stop2987" />
    </linearGradient>
    <linearGradient
       id="linearGradient1478">
      <stop
         style="stop-color:#00625c;stop-opacity:1;"
         offset="0"
         id="stop1474" />
      <stop
         style="stop-color:#00a19b;stop-opacity:1;"
         offset="1"
         id="stop1476" />
    </linearGradient>
    <linearGradient
       id="linearGradient4238">
      <stop
         style="stop-color:#89c64b;stop-opacity:1"
         offset="0"
         id="stop4240" />
      <stop
         style="stop-color:#6bae35;stop-opacity:1"
         offset="1"
         id="stop4242" />
    </linearGradient>
    <linearGradient
       id="linearGradient4229">
      <stop
         id="stop4231"
         offset="0"
         style="stop-color:#c7f994;stop-opacity:1" />
      <stop
         id="stop4233"
         offset="1"
         style="stop-color:#81c53c;stop-opacity:1" />
    </linearGradient>
    <linearGradient
       id="outerBackgroundGradient-9">
      <stop
         style="stop-color:#e5e5e5;stop-opacity:1;"
         offset="0"
         id="stop3864-8-6-5" />
      <stop
         style="stop-color:#f2f2f2;stop-opacity:1;"
         offset="1"
         id="stop3866-9-1-0" />
    </linearGradient>
    <linearGradient
       id="linearGradient4442">
      <stop
         style="stop-color:#729fcf;stop-opacity:1;"
         offset="0"
         id="stop4444" />
      <stop
         style="stop-color:#4777ab;stop-opacity:1;"
         offset="1"
         id="stop4446" />
    </linearGradient>
    <linearGradient
       inkscape:collect="always"
       xlink:href="#linearGradient1725"
       id="linearGradient4254"
       x1="35"
       y1="156"
       x2="253"
       y2="156"
       gradientUnits="userSpaceOnUse"
       gradientTransform="rotate(-90,144,156)" />
    <linearGradient
       id="outerBackgroundGradient-9-3">
      <stop
         style="stop-color:#00726c;stop-opacity:1;"
         offset="0"
         id="stop3864-8-6-5-6" />
      <stop
         style="stop-color:#009a94;stop-opacity:1;"
         offset="1"
         id="stop3866-9-1-5" />
    </linearGradient>
    <linearGradient
       inkscape:collect="always"
       xlink:href="#linearGradient1731"
       id="linearGradient4264"
       x1="293"
       y1="76"
       x2="379"
       y2="76"
       gradientUnits="userSpaceOnUse"
       gradientTransform="rotate(-90,336,76)" />
    <linearGradient
       inkscape:collect="always"
       xlink:href="#linearGradient1737"
       id="linearGradient4266"
       x1="291"
       y1="172"
       x2="349"
       y2="172"
       gradientUnits="userSpaceOnUse"
       gradientTransform="rotate(-90,320,172)" />
    <linearGradient
       inkscape:collect="always"
       xlink:href="#linearGradient1743"
       id="linearGradient4262"
       x1="292"
       y1="244"
       x2="332"
       y2="244"
       gradientUnits="userSpaceOnUse"
       gradientTransform="rotate(-90,312,244)" />
    <linearGradient
       inkscape:collect="always"
       xlink:href="#linearGradient1749"
       id="linearGradient4260"
       x1="418"
       y1="68"
       x2="446"
       y2="68"
       gradientUnits="userSpaceOnUse"
       gradientTransform="rotate(-90,432,68)" />
    <linearGradient
       inkscape:collect="always"
       xlink:href="#linearGradient1755"
       id="linearGradient3870"
       gradientUnits="userSpaceOnUse"
       gradientTransform="rotate(-90,428,112)"
       x1="418"
       y1="112"
       x2="438"
       y2="112" />
    <linearGradient
       inkscape:collect="always"
       xlink:href="#outerBackgroundGradient-9-3"
       id="linearGradient4256"
       x1="417"
       y1="148"
       x2="431"
       y2="148"
       gradientUnits="userSpaceOnUse"
       gradientTransform="rotate(-90,424,148)" />
  </defs>
  <metadata
     id="metadata4">
    <rdf:RDF>
      <cc:Work
         rdf:about="">
        <dc:format>image/svg+xml</dc:format>
        <dc:type
           rdf:resource="http://purl.org/dc/dcmitype/StillImage" />
        <dc:creator>
          <cc:Agent>
            <dc:title>Sam Hewitt</dc:title>
          </cc:Agent>
        </dc:creator>
        <dc:source />
        <cc:license
           rdf:resource="" />
        <dc:title />
        <dc:subject>
          <rdf:Bag />
        </dc:subject>
        <dc:date />
        <dc:rights>
          <cc:Agent>
            <dc:title />
          </cc:Agent>
        </dc:rights>
        <dc:publisher>
          <cc:Agent>
            <dc:title />
          </cc:Agent>
        </dc:publisher>
        <dc:identifier />
        <dc:relation />
        <dc:language />
        <dc:coverage />
        <dc:description />
        <dc:contributor>
          <cc:Agent>
            <dc:title />
          </cc:Agent>
        </dc:contributor>
      </cc:Work>
      <cc:Work
         rdf:about="">
        <dc:format>image/svg+xml</dc:format>
        <dc:type
           rdf:resource="http://purl.org/dc/dcmitype/StillImage" />
      </cc:Work>
    </rdf:RDF>
  </metadata>
  <g
     style="display:inline"
     inkscape:groupmode="layer"
     inkscape:label="Icon"
     id="layer1">
    <g
       style="display:none"
       inkscape:label="Baseplate"
       id="layer7"
       inkscape:groupmode="layer">
      <text
         y="19.745117"
         xml:space="preserve"
         x="15.006836"
         style="font-style:normal;font-variant:normal;font-weight:normal;font-stretch:normal;line-height:0%;font-family:'DejaVu Sans';-inkscape-font-specification:'DejaVu Sans';display:inline;fill:#000000;fill-opacity:1;stroke:none;enable-background:new"
         inkscape:label="context"
         id="context"><tspan
           style="font-style:normal;font-variant:normal;font-weight:normal;font-stretch:normal;font-size:18px;line-height:1.25;font-family:'DejaVu Sans';-inkscape-font-specification:'DejaVu Sans'"
           y="19.745117"
           x="15.006836"
           sodipodi:role="line"
           id="tspan3933">apps</tspan></text>
      <text
         y="19.745117"
         xml:space="preserve"
         x="122.48828"
         style="font-style:normal;font-variant:normal;font-weight:bold;font-stretch:normal;line-height:0%;font-family:'DejaVu Sans';-inkscape-font-specification:'DejaVu Sans Bold';text-align:start;writing-mode:lr-tb;text-anchor:start;display:inline;fill:#000000;fill-opacity:1;stroke:none;enable-background:new"
         inkscape:label="icon-name"
         id="icon-name"
         inkscape:transform-center-y="-8.7802734"><tspan
           style="font-style:normal;font-variant:normal;font-weight:bold;font-stretch:normal;font-size:18px;line-height:1.25;font-family:'DejaVu Sans';-inkscape-font-specification:'DejaVu Sans Bold'"
           y="19.745117"
           x="122.48828"
           sodipodi:role="line"
           id="tspan3937">localsend</tspan></text>
      <rect
         style="fill:#eeeeec;fill-opacity:1;fill-rule:nonzero;stroke:none;stroke-width:2;marker:none;visibility:visible;display:inline;overflow:visible;enable-background:accumulate"
         id="rect16x16"
         width="16"
         height="16"
         x="416"
         y="140"
         inkscape:label="16x16" />
      <rect
         style="fill:#d4d4d4;fill-opacity:1;fill-rule:nonzero;stroke:none;stroke-width:2;marker:none;visibility:visible;display:inline;overflow:visible;enable-background:accumulate"
         id="rect24x24"
         width="24"
         height="24"
         x="416"
         y="100"
         inkscape:label="24x24" />
      <rect
         style="fill:#eeeeec;fill-opacity:1;fill-rule:nonzero;stroke:none;stroke-width:2;marker:none;visibility:visible;display:inline;overflow:visible;enable-background:accumulate"
         id="rect32x32"
         width="32"
         height="32"
         x="416"
         y="52"
         inkscape:label="32x32" />
      <rect
         inkscape:label="22x22"
         y="101"
         x="417"
         height="22"
         width="22"
         id="rect22x22"
         style="fill:#eeeeec;fill-opacity:1;fill-rule:nonzero;stroke:none;stroke-width:2;marker:none;visibility:visible;display:inline;overflow:visible;enable-background:accumulate" />
      <rect
         inkscape:label="48x48"
         y="220"
         x="288"
         height="48"
         width="48"
         id="rect48x48"
         style="fill:#eeeeec;fill-opacity:1;fill-rule:nonzero;stroke:none;stroke-width:2;marker:none;visibility:visible;display:inline;overflow:visible;enable-background:accumulate" />
      <rect
         style="fill:#eeeeec;fill-opacity:1;fill-rule:nonzero;stroke:none;stroke-width:2;marker:none;visibility:visible;display:inline;overflow:visible;enable-background:accumulate"
         id="rect256x256"
         width="256"
         height="256"
         x="16"
         y="28"
         inkscape:label="256x256" />
      <rect
         style="fill:#eeeeec;fill-opacity:1;fill-rule:nonzero;stroke:none;stroke-width:2;marker:none;visibility:visible;display:inline;overflow:visible;enable-background:accumulate"
         id="rect64x64"
         width="64"
         height="64"
         x="288"
         y="140"
         inkscape:label="64x64" />
      <rect
         style="fill:#eeeeec;fill-opacity:1;fill-rule:nonzero;stroke:none;stroke-width:2;marker:none;visibility:visible;display:inline;overflow:visible;enable-background:accumulate"
         id="rect96x96"
         width="96"
         height="96"
         x="288"
         y="28"
         inkscape:label="96x96" />
    </g>
    <g
       inkscape:groupmode="layer"
       id="layer4"
       inkscape:label="Shadow"
       style="display:inline"
       sodipodi:insensitive="true">
      <rect
         ry="50"
         y="47"
         x="34"
         height="220"
         width="220"
         id="rect4114"
         style="opacity:0.1;color:#bebebe;fill:#000000;fill-opacity:1;fill-rule:nonzero;stroke:none;stroke-width:0;marker:none;visibility:visible;display:inline;overflow:visible;enable-background:accumulate" />
      <rect
         style="opacity:0.1;color:#bebebe;fill:#000000;fill-opacity:1;fill-rule:nonzero;stroke:none;stroke-width:0;marker:none;visibility:visible;display:inline;overflow:visible;enable-background:accumulate"
         id="rect4120"
         width="30"
         height="30"
         x="417"
         y="54"
         ry="7" />
      <rect
         transform="scale(1,-1)"
         ry="9"
         y="-266"
         x="291"
         height="42"
         width="42"
         id="rect4122"
         style="opacity:0.1;color:#bebebe;fill:#000000;fill-opacity:1;fill-rule:nonzero;stroke:none;stroke-width:0;marker:none;visibility:visible;display:inline;overflow:visible;enable-background:accumulate" />
      <rect
         style="opacity:0.1;color:#bebebe;fill:#000000;fill-opacity:1;fill-rule:nonzero;stroke:none;stroke-width:0;marker:none;visibility:visible;display:inline;overflow:visible;enable-background:accumulate"
         id="rect4124"
         width="88"
         height="88"
         x="292"
         y="33"
         ry="18" />
      <rect
         ry="12.5"
         y="143"
         x="290"
         height="60"
         width="60"
         id="rect4126"
         style="opacity:0.1;color:#bebebe;fill:#000000;fill-opacity:1;fill-rule:nonzero;stroke:none;stroke-width:0;marker:none;visibility:visible;display:inline;overflow:visible;enable-background:accumulate" />
      <path
         id="path4268"
         d="m 422,101 c -2.77,0 -5,2.23 -5,5 l 0,12 c 0,2.77 2.23,5 5,5 l 12,0 c 2.77,0 5,-2.23 5,-5 l 0,-12 c 0,-2.77 -2.23,-5 -5,-5 z"
         style="opacity:0.1;color:#bebebe;fill:#000000;fill-opacity:1;fill-rule:nonzero;stroke:none;stroke-width:0;marker:none;visibility:visible;display:inline;overflow:visible;enable-background:accumulate"
         inkscape:connector-curvature="0"
         sodipodi:nodetypes="sssssssss" />
      <path
         id="path4270"
         d="m 419,140 c -1.662,0 -3,1.338 -3,3 l 0,10 c 0,1.662 1.338,3 3,3 l 10,0 c 1.662,0 3,-1.338 3,-3 l 0,-10 c 0,-1.662 -1.338,-3 -3,-3 z"
         style="opacity:0.1;color:#bebebe;fill:#000000;fill-opacity:1;fill-rule:nonzero;stroke:none;stroke-width:0;marker:none;visibility:visible;display:inline;overflow:visible;enable-background:accumulate"
         inkscape:connector-curvature="0"
         sodipodi:nodetypes="sssssssss" />
    </g>
    <g
       inkscape:groupmode="layer"
       id="layer2"
       inkscape:label="Background"
       style="display:inline">
      <path
         style="color:#bebebe;fill:url(#linearGradient4254);fill-opacity:1;fill-rule:nonzero;stroke:none;stroke-width:2;marker:none;visibility:visible;display:inline;overflow:visible;enable-background:accumulate;font-variation-settings:normal;opacity:1;vector-effect:none;stroke-linecap:butt;stroke-linejoin:miter;stroke-miterlimit:4;stroke-dasharray:none;stroke-dashoffset:0;stroke-opacity:1;-inkscape-stroke:none;stop-color:#000000;stop-opacity:1"
         d="M 84 46.5 C 56.568735 46.5 34.5 68.568732 34.5 96 L 34.5 216 C 34.5 243.43127 56.568735 265.5 84 265.5 L 204 265.5 C 231.43127 265.5 253.5 243.43127 253.5 216 L 253.5 96 C 253.5 68.568732 231.43127 46.5 204 46.5 L 84 46.5 z "
         id="path4200" />
      <path
         d="m 104.68858,157.09126 a 39.285081,39.285079 0 0 1 39.30942,-39.26075 39.285081,39.285079 0 0 1 39.30941,39.26075 39.285081,39.285079 0 0 1 -39.30941,38.77411 39.285081,39.285079 0 0 1 -39.30333,-38.77411 z m 103.36515,-34.99645 a 11.235605,11.235605 0 0 1 -15.03759,-2.55493 62.163865,62.163862 0 0 0 -11.4181,-11.40594 11.211275,11.211273 0 0 1 -2.56102,-15.019329 73.289974,73.28997 0 0 1 29.01671,28.980199 z M 94.985938,119.53988 a 11.235605,11.235605 0 0 1 -15.037585,2.55493 73.289974,73.28997 0 0 1 29.016697,-28.980199 11.211275,11.211273 0 0 1 -2.55493,15.019329 62.163865,62.163862 0 0 0 -11.424182,11.40594 z m 122.010032,37.55138 c 0.006,6.93481 -0.97329,13.83922 -2.91992,20.50029 a 11.217358,11.217356 0 0 1 -8.83275,-12.42794 c 0.69956,-5.35318 0.69956,-10.78545 0,-16.14472 a 11.217358,11.217356 0 0 1 8.82667,-12.4279 c 1.94661,6.66106 2.93209,13.56547 2.926,20.50027 z m -145.995952,0 c 0,-6.9348 0.985473,-13.83921 2.932085,-20.50027 a 11.217358,11.217356 0 0 1 8.82059,12.4279 c -0.699564,5.35319 -0.699564,10.78546 0,16.14472 a 11.217358,11.217356 0 0 1 -8.82059,12.42794 72.82157,72.821567 0 0 1 -2.932085,-20.50638 z m 108.037002,63.98276 a 11.211275,11.211273 0 0 1 2.55493,-15.02543 62.157781,62.157779 0 0 0 11.42419,-11.40593 11.235605,11.235605 0 0 1 15.03759,-2.55493 73.289974,73.28997 0 0 1 -29.01671,28.98629 z m -70.07197,0 a 73.289974,73.28997 0 0 1 -29.016697,-28.9802 11.235605,11.235605 0 0 1 15.037585,2.55493 62.163865,62.163862 0 0 0 11.418102,11.39984 c 4.65363,3.57082 5.76684,10.11631 2.56101,15.02543 z m 35.03903,8.92393 a 73.046647,73.046645 0 0 1 -20.53068,-2.91992 11.229523,11.229522 0 0 1 12.44615,-8.82053 c 5.36536,0.69958 10.79763,0.69958 16.16298,0 a 11.229523,11.229522 0 0 1 12.44616,8.81445 c -6.66715,1.94661 -13.58372,2.93209 -20.53069,2.926 z m 9.16124,-134.17633 c -5.74859,-0.827312 -11.485,-0.608318 -17.23968,-0.07908 a 11.241689,11.241688 0 0 1 -12.45224,-8.82059 73.077063,73.077059 0 0 1 20.51851,-2.919919 h 0.0122 c 6.94698,-0.006 13.85137,0.973306 20.51852,2.919919 a 11.22344,11.223439 0 0 1 -11.35728,8.899671 z"
         id="path941"
         style="opacity:0.2;fill:#000000;fill-opacity:1;stroke-width:6.08315" />
      <path
         d="m 104.68859,156.09123 a 39.285079,39.285114 0 0 1 39.30942,-39.26078 39.285079,39.285114 0 0 1 39.3094,39.26078 39.285079,39.285114 0 0 1 -39.3094,38.77415 39.285079,39.285114 0 0 1 -39.30333,-38.77415 z m 103.36514,-34.99648 a 11.235605,11.235616 0 0 1 -15.03759,-2.55493 62.163862,62.163916 0 0 0 -11.41809,-11.40594 11.211274,11.211283 0 0 1 -2.56102,-15.019339 73.289971,73.290035 0 0 1 29.0167,28.980209 z M 94.985947,118.53982 a 11.235605,11.235616 0 0 1 -15.03759,2.55493 73.289971,73.290035 0 0 1 29.016703,-28.980209 11.211274,11.211283 0 0 1 -2.55493,15.019339 62.163862,62.163916 0 0 0 -11.424183,11.40594 z m 122.010023,37.55141 c 0.006,6.93482 -0.97329,13.83924 -2.91992,20.50031 A 11.217357,11.217367 0 0 1 205.2433,164.1636 c 0.69957,-5.35319 0.69957,-10.78546 0,-16.14475 a 11.217357,11.217367 0 0 1 8.82668,-12.4279 c 1.9466,6.66106 2.93208,13.56547 2.92599,20.50028 z m -145.995953,0 c 0,-6.93481 0.98548,-13.83922 2.93209,-20.50028 a 11.217357,11.217367 0 0 1 8.82059,12.4279 c -0.69957,5.35321 -0.69957,10.78548 0,16.14475 a 11.217357,11.217367 0 0 1 -8.82059,12.42794 72.821566,72.821631 0 0 1 -2.93209,-20.50639 z m 108.037013,63.98281 a 11.211274,11.211283 0 0 1 2.55492,-15.02543 62.157778,62.157834 0 0 0 11.42419,-11.40593 11.235605,11.235616 0 0 1 15.03759,-2.55493 73.289971,73.290035 0 0 1 -29.0167,28.98629 z m -70.07197,0 a 73.289971,73.290035 0 0 1 -29.016703,-28.98022 11.235605,11.235616 0 0 1 15.03759,2.55494 62.163862,62.163916 0 0 0 11.418103,11.39985 c 4.65362,3.57083 5.76684,10.11632 2.56101,15.02543 z m 35.03903,8.92395 a 73.046644,73.046708 0 0 1 -20.53069,-2.91992 11.229522,11.229532 0 0 1 12.44616,-8.82054 c 5.36536,0.69957 10.79762,0.69957 16.16297,0 a 11.229522,11.229532 0 0 1 12.44616,8.81446 c -6.66715,1.94661 -13.58371,2.93209 -20.53068,2.926 z m 9.16124,-134.176439 c -5.74859,-0.82731 -11.48501,-0.60831 -17.23968,-0.079 a 11.241688,11.241699 0 0 1 -12.45225,-8.8206 73.077059,73.077123 0 0 1 20.51852,-2.91992 h 0.0122 c 6.94697,-0.006 13.85137,0.97331 20.51851,2.91992 a 11.223439,11.22345 0 0 1 -11.35727,8.89967 z"
         id="path941-7"
         style="display:inline;opacity:1;fill:#ffffff;fill-opacity:1;stroke-width:6.08315;enable-background:new" />
      <path
         style="color:#bebebe;fill:url(#linearGradient4256);fill-opacity:1;fill-rule:nonzero;stroke:none;stroke-width:2;marker:none;visibility:visible;display:inline;overflow:visible;enable-background:accumulate;font-variation-settings:normal;opacity:1;vector-effect:none;stroke-linecap:butt;stroke-linejoin:miter;stroke-miterlimit:4;stroke-dasharray:none;stroke-dashoffset:0;stroke-opacity:1;-inkscape-stroke:none;stop-color:#000000;stop-opacity:1"
         d="M 419 140.5 C 417.6156 140.5 416.5 141.6156 416.5 143 L 416.5 153 C 416.5 154.3844 417.6156 155.5 419 155.5 L 429 155.5 C 430.3844 155.5 431.5 154.3844 431.5 153 L 431.5 143 C 431.5 141.6156 430.3844 140.5 429 140.5 L 419 140.5 z "
         id="path4202" />
      <path
         d="M 421.03825,149.00739 A 2.9599155,2.9601748 0 0 1 424,146.04906 a 2.9599155,2.9601748 0 0 1 2.96175,2.95833 2.9599155,2.9601748 0 0 1 -2.96175,2.92168 2.9599155,2.9601748 0 0 1 -2.96129,-2.92168 z m 7.78801,-2.63701 a 0.84654132,0.84661552 0 0 1 -1.13301,-0.19252 4.6837065,4.6841169 0 0 0 -0.86029,-0.85945 0.84470799,0.84478203 0 0 1 -0.19296,-1.13173 5.5219977,5.5224817 0 0 1 2.18626,2.1837 z m -8.51905,-0.19252 a 0.84654132,0.84661552 0 0 1 -1.133,0.19252 5.5219977,5.5224817 0 0 1 2.18625,-2.1837 0.84470799,0.84478203 0 0 1 -0.1925,1.13173 4.6837065,4.6841169 0 0 0 -0.86075,0.85945 z m 9.19279,2.82953 c 4.5e-4,0.52255 -0.0733,1.0428 -0.22,1.54472 a 0.84516632,0.8452404 0 0 1 -0.66549,-0.93646 c 0.0527,-0.40337 0.0527,-0.8127 0,-1.21653 a 0.84516632,0.8452404 0 0 1 0.66503,-0.93644 c 0.14666,0.50191 0.22091,1.02217 0.22046,1.54471 z m -11,0 c 0,-0.52254 0.0743,-1.0428 0.22092,-1.54471 a 0.84516632,0.8452404 0 0 1 0.66458,0.93644 c -0.0527,0.40337 -0.0527,0.8127 0,1.21653 a 0.84516632,0.8452404 0 0 1 -0.66458,0.93646 5.486706,5.4871869 0 0 1 -0.22092,-1.54518 z m 8.14,4.82117 a 0.84470799,0.84478203 0 0 1 0.1925,-1.13218 4.6832482,4.6836585 0 0 0 0.86075,-0.85945 0.84654132,0.84661552 0 0 1 1.13301,-0.19252 5.5219977,5.5224817 0 0 1 -2.18626,2.18415 z m -5.27954,0 a 5.5219977,5.5224817 0 0 1 -2.18625,-2.18369 0.84654132,0.84661552 0 0 1 1.133,0.19252 4.6837065,4.6841169 0 0 0 0.86029,0.85899 c 0.35063,0.26906 0.4345,0.76228 0.19296,1.13218 z m 2.64,0.67243 a 5.5036644,5.5041468 0 0 1 -1.54687,-0.22002 0.84608299,0.84615714 0 0 1 0.93775,-0.66464 c 0.40425,0.0527 0.81354,0.0527 1.21779,0 a 0.84608299,0.84615714 0 0 1 0.93775,0.66419 c -0.50234,0.14668 -1.02346,0.22093 -1.54688,0.22047 z m 0.69025,-10.11033 c -0.43312,-0.0623 -0.86533,-0.0458 -1.29892,-0.005 a 0.84699966,0.84707388 0 0 1 -0.9382,-0.66464 5.5059561,5.5064386 0 0 1 1.54595,-0.22002 h 9.2e-4 c 0.52342,-4.6e-4 1.04363,0.0733 1.54596,0.22002 a 0.84562465,0.84569877 0 0 1 -0.85571,0.6706 z"
         id="path941-62"
         style="opacity:0.2;stroke-width:6.08315;fill:#000000;fill-opacity:1;font-variation-settings:normal;vector-effect:none;stroke-linecap:butt;stroke-linejoin:miter;stroke-miterlimit:4;stroke-dasharray:none;stroke-dashoffset:0;stroke-opacity:1;-inkscape-stroke:none;stop-color:#000000;stop-opacity:1" />
      <path
         d="m 421.03825,148.00814 a 2.9599173,2.9600392 0 0 1 2.96175,-2.9582 2.9599173,2.9600392 0 0 1 2.96175,2.9582 2.9599173,2.9600392 0 0 1 -2.96175,2.92154 2.9599173,2.9600392 0 0 1 -2.96129,-2.92154 z m 7.78801,-2.63689 a 0.84654184,0.84657673 0 0 1 -1.13301,-0.19251 4.6837093,4.6839023 0 0 0 -0.86029,-0.85941 0.84470851,0.84474332 0 0 1 -0.19296,-1.13168 5.5220011,5.5222287 0 0 1 2.18626,2.1836 z m -8.51905,-0.19251 a 0.84654184,0.84657673 0 0 1 -1.133,0.19251 5.5220011,5.5222287 0 0 1 2.18625,-2.1836 0.84470851,0.84474332 0 0 1 -0.1925,1.13168 4.6837093,4.6839023 0 0 0 -0.86075,0.85941 z m 9.19279,2.8294 c 4.5e-4,0.52252 -0.0733,1.04275 -0.22,1.54465 a 0.84516684,0.84520167 0 0 1 -0.66549,-0.93642 c 0.0527,-0.40335 0.0527,-0.81266 0,-1.21647 a 0.84516684,0.84520167 0 0 1 0.66503,-0.9364 c 0.14666,0.50189 0.22091,1.02212 0.22046,1.54464 z m -11,0 c 0,-0.52252 0.0743,-1.04275 0.22092,-1.54464 a 0.84516684,0.84520167 0 0 1 0.66458,0.9364 c -0.0527,0.40335 -0.0527,0.81266 0,1.21647 a 0.84516684,0.84520167 0 0 1 -0.66458,0.93642 5.4867094,5.4869355 0 0 1 -0.22092,-1.54511 z m 8.14,4.82095 a 0.84470851,0.84474332 0 0 1 0.1925,-1.13213 4.683251,4.6834439 0 0 0 0.86075,-0.85941 0.84654184,0.84657673 0 0 1 1.13301,-0.19251 5.5220011,5.5222287 0 0 1 -2.18626,2.18405 z m -5.27954,0 a 5.5220011,5.5222287 0 0 1 -2.18625,-2.18359 0.84654184,0.84657673 0 0 1 1.133,0.19251 4.6837093,4.6839023 0 0 0 0.86029,0.85895 c 0.35063,0.26905 0.4345,0.76224 0.19296,1.13213 z m 2.64,0.6724 a 5.5036678,5.5038946 0 0 1 -1.54687,-0.22001 0.84608351,0.84611837 0 0 1 0.93775,-0.66461 c 0.40425,0.0527 0.81354,0.0527 1.21779,0 a 0.84608351,0.84611837 0 0 1 0.93775,0.66416 c -0.50234,0.14667 -1.02346,0.22092 -1.54688,0.22046 z m 0.69025,-10.10987 c -0.43312,-0.0623 -0.86533,-0.0458 -1.29892,-0.006 a 0.84700018,0.84703507 0 0 1 -0.9382,-0.66461 5.5059595,5.5061863 0 0 1 1.54595,-0.22001 h 9.2e-4 c 0.52342,-4.6e-4 1.04363,0.0733 1.54596,0.22001 a 0.84562517,0.84566002 0 0 1 -0.85571,0.67057 z"
         id="path941-62-6"
         style="display:inline;opacity:1;fill:#ffffff;fill-opacity:1;stroke-width:6.08315;enable-background:new;font-variation-settings:normal;vector-effect:none;stroke-linecap:butt;stroke-linejoin:miter;stroke-miterlimit:4;stroke-dasharray:none;stroke-dashoffset:0;stroke-opacity:1;-inkscape-stroke:none;stop-color:#000000;stop-opacity:1" />
      <path
         style="color:#bebebe;fill:url(#linearGradient3870);fill-opacity:1;fill-rule:nonzero;stroke:none;stroke-width:2;marker:none;visibility:visible;display:inline;overflow:visible;enable-background:accumulate;font-variation-settings:normal;opacity:1;vector-effect:none;stroke-linecap:butt;stroke-linejoin:miter;stroke-miterlimit:4;stroke-dasharray:none;stroke-dashoffset:0;stroke-opacity:1;-inkscape-stroke:none;stop-color:#000000;stop-opacity:1"
         d="M 422 101.5 C 419.50301 101.5 417.5 103.50301 417.5 106 L 417.5 118 C 417.5 120.49699 419.50301 122.5 422 122.5 L 434 122.5 C 436.49699 122.5 438.5 120.49699 438.5 118 L 438.5 106 C 438.5 103.50301 436.49699 101.5 434 101.5 L 422 101.5 z "
         id="path4204" />
      <path
         style="color:#bebebe;fill:url(#linearGradient4260);fill-opacity:1;fill-rule:nonzero;stroke:none;stroke-width:2;marker:none;visibility:visible;display:inline;overflow:visible;enable-background:accumulate;font-variation-settings:normal;opacity:1;vector-effect:none;stroke-linecap:butt;stroke-linejoin:miter;stroke-miterlimit:4;stroke-dasharray:none;stroke-dashoffset:0;stroke-opacity:1;-inkscape-stroke:none;stop-color:#000000;stop-opacity:1"
         d="M 424 53.5 C 420.39346 53.5 417.5 56.393464 417.5 60 L 417.5 76 C 417.5 79.606536 420.39346 82.5 424 82.5 L 440 82.5 C 443.60654 82.5 446.5 79.606536 446.5 76 L 446.5 60 C 446.5 56.393464 443.60654 53.5 440 53.5 L 424 53.5 z "
         id="path4206" />
      <path
         style="color:#bebebe;fill:url(#linearGradient4262);fill-opacity:1;fill-rule:nonzero;stroke:none;stroke-width:2;marker:none;visibility:visible;display:inline;overflow:visible;enable-background:accumulate;font-variation-settings:normal;opacity:1;vector-effect:none;stroke-linecap:butt;stroke-linejoin:miter;stroke-miterlimit:4;stroke-dasharray:none;stroke-dashoffset:0;stroke-opacity:1;-inkscape-stroke:none;stop-color:#000000;stop-opacity:1"
         d="M 300 223.5 C 295.28469 223.5 291.5 227.28469 291.5 232 L 291.5 256 C 291.5 260.71531 295.28469 264.5 300 264.5 L 324 264.5 C 328.71531 264.5 332.5 260.71531 332.5 256 L 332.5 232 C 332.5 227.28469 328.71531 223.5 324 223.5 L 300 223.5 z "
         id="path4208" />
      <path
         style="color:#bebebe;fill:url(#linearGradient4264);fill-opacity:1;fill-rule:nonzero;stroke:none;stroke-width:2;marker:none;visibility:visible;display:inline;overflow:visible;enable-background:accumulate;font-variation-settings:normal;opacity:1;vector-effect:none;stroke-linecap:butt;stroke-linejoin:miter;stroke-miterlimit:4;stroke-dasharray:none;stroke-dashoffset:0;stroke-opacity:1;-inkscape-stroke:none;stop-color:#000000;stop-opacity:1"
         d="M 310 32.5 C 300.29745 32.5 292.5 40.297452 292.5 50 L 292.5 102 C 292.5 111.70255 300.29745 119.5 310 119.5 L 362 119.5 C 371.70255 119.5 379.5 111.70255 379.5 102 L 379.5 50 C 379.5 40.297452 371.70255 32.5 362 32.5 L 310 32.5 z "
         id="path4210" />
      <path
         style="color:#bebebe;fill:url(#linearGradient4266);fill-opacity:1;fill-rule:nonzero;stroke:none;stroke-width:2;marker:none;visibility:visible;display:inline;overflow:visible;enable-background:accumulate;font-variation-settings:normal;opacity:1;vector-effect:none;stroke-linecap:butt;stroke-linejoin:miter;stroke-miterlimit:4;stroke-dasharray:none;stroke-dashoffset:0;stroke-opacity:1;-inkscape-stroke:none;stop-color:#000000;stop-opacity:1"
         d="M 302.5 142.5 C 295.84498 142.5 290.5 147.84498 290.5 154.5 L 290.5 189.5 C 290.5 196.15502 295.84498 201.5 302.5 201.5 L 337.5 201.5 C 344.15502 201.5 349.5 196.15502 349.5 189.5 L 349.5 154.5 C 349.5 147.84498 344.15502 142.5 337.5 142.5 L 302.5 142.5 z "
         id="path4212" />
      <path
         d="m 319.845,77.037496 a 16.144995,16.144991 0 0 1 16.15499,-16.134991 16.144995,16.144991 0 0 1 16.155,16.134991 16.144995,16.144991 0 0 1 -16.155,15.934992 16.144995,16.144991 0 0 1 -16.15249,-15.934992 z m 42.47999,-14.382492 a 4.6174986,4.6174975 0 0 1 -6.18,-1.049999 25.547492,25.547486 0 0 0 -4.6925,-4.687498 4.6074986,4.6074975 0 0 1 -1.0525,-6.172496 30.119991,30.119984 0 0 1 11.925,11.909993 z M 315.8575,61.605005 a 4.6174986,4.6174975 0 0 1 -6.18,1.049999 30.119991,30.119984 0 0 1 11.925,-11.909993 4.6074986,4.6074975 0 0 1 -1.05,6.172496 25.547492,25.547486 0 0 0 -4.695,4.687498 z m 50.14249,15.432491 c 0.002,2.849999 -0.4,5.687497 -1.2,8.424996 a 4.6099986,4.6099975 0 0 1 -3.63,-5.107497 c 0.2875,-2.199999 0.2875,-4.432498 0,-6.634997 a 4.6099986,4.6099975 0 0 1 3.6275,-5.107497 c 0.8,2.737498 1.205,5.574997 1.2025,8.424995 z m -59.99999,0 c 0,-2.849998 0.405,-5.687497 1.205,-8.424995 a 4.6099986,4.6099975 0 0 1 3.625,5.107497 c -0.2875,2.199999 -0.2875,4.432498 0,6.634997 A 4.6099986,4.6099975 0 0 1 307.205,85.462492 29.927491,29.927484 0 0 1 306,77.034996 Z m 44.39999,26.294984 a 4.6074986,4.6074975 0 0 1 1.05,-6.174995 25.544992,25.544986 0 0 0 4.695,-4.687497 4.6174986,4.6174975 0 0 1 6.18,-1.05 30.119991,30.119984 0 0 1 -11.925,11.912492 z m -28.79749,0 a 30.119991,30.119984 0 0 1 -11.925,-11.909992 4.6174986,4.6174975 0 0 1 6.18,1.05 25.547492,25.547486 0 0 0 4.6925,4.684997 c 1.9125,1.4675 2.37,4.157495 1.0525,6.174995 z m 14.39999,3.6675 a 30.019991,30.019984 0 0 1 -8.43749,-1.2 4.6149986,4.6149975 0 0 1 5.115,-3.625 c 2.205,0.2875 4.43749,0.2875 6.64249,0 a 4.6149986,4.6149975 0 0 1 5.115,3.6225 c -2.74,0.8 -5.5825,1.205 -8.4375,1.2025 z m 3.765,-55.14247 c -2.3625,-0.34 -4.71999,-0.25 -7.08499,-0.0325 a 4.6199986,4.6199975 0 0 1 -5.1175,-3.624998 30.032491,30.032484 0 0 1 8.43249,-1.199999 h 0.005 c 2.855,-0.0025 5.6925,0.4 8.4325,1.199999 a 4.6124986,4.6124975 0 0 1 -4.6675,3.657498 z"
         id="path941-3"
         style="stroke-width:6.08315;opacity:0.2;fill:#000000;fill-opacity:1;font-variation-settings:normal;vector-effect:none;stroke-linecap:butt;stroke-linejoin:miter;stroke-miterlimit:4;stroke-dasharray:none;stroke-dashoffset:0;stroke-opacity:1;-inkscape-stroke:none;stop-color:#000000;stop-opacity:1" />
      <path
         d="M 319.84501,76.037496 A 16.144995,16.144991 0 0 1 336,59.902505 16.144995,16.144991 0 0 1 352.155,76.037496 16.144995,16.144991 0 0 1 336,91.972488 16.144995,16.144991 0 0 1 319.84751,76.037496 Z M 362.325,61.655004 a 4.6174986,4.6174975 0 0 1 -6.18,-1.049999 25.547492,25.547486 0 0 0 -4.6925,-4.687498 4.6074986,4.6074975 0 0 1 -1.0525,-6.172496 30.119991,30.119984 0 0 1 11.925,11.909993 z m -46.46749,-1.049999 a 4.6174986,4.6174975 0 0 1 -6.18,1.049999 30.119991,30.119984 0 0 1 11.925,-11.909993 4.6074986,4.6074975 0 0 1 -1.05,6.172496 25.547492,25.547486 0 0 0 -4.695,4.687498 z M 366,76.037496 c 0.002,2.849999 -0.4,5.687497 -1.2,8.424996 a 4.6099986,4.6099975 0 0 1 -3.63,-5.107497 c 0.2875,-2.199999 0.2875,-4.432498 0,-6.634997 a 4.6099986,4.6099975 0 0 1 3.6275,-5.107497 c 0.8,2.737498 1.205,5.574997 1.2025,8.424995 z m -59.99999,0 c 0,-2.849998 0.405,-5.687497 1.205,-8.424995 a 4.6099986,4.6099975 0 0 1 3.625,5.107497 c -0.2875,2.199999 -0.2875,4.432498 0,6.634997 a 4.6099986,4.6099975 0 0 1 -3.625,5.107497 29.927491,29.927484 0 0 1 -1.205,-8.427496 z M 350.4,102.33248 a 4.6074986,4.6074975 0 0 1 1.05,-6.174995 25.544992,25.544986 0 0 0 4.695,-4.687497 4.6174986,4.6174975 0 0 1 6.18,-1.05 30.119991,30.119984 0 0 1 -11.925,11.912492 z m -28.79749,0 a 30.119991,30.119984 0 0 1 -11.925,-11.909992 4.6174986,4.6174975 0 0 1 6.18,1.05 25.547492,25.547486 0 0 0 4.6925,4.684997 c 1.9125,1.4675 2.37,4.157495 1.0525,6.174995 z m 14.39999,3.6675 a 30.019991,30.019984 0 0 1 -8.43749,-1.2 4.6149986,4.6149975 0 0 1 5.115,-3.625 c 2.205,0.2875 4.43749,0.2875 6.64249,0 a 4.6149986,4.6149975 0 0 1 5.115,3.6225 c -2.74,0.8 -5.5825,1.205 -8.4375,1.2025 z m 3.765,-55.14247 c -2.3625,-0.34 -4.71999,-0.25 -7.08499,-0.0325 a 4.6199986,4.6199975 0 0 1 -5.1175,-3.624998 30.032491,30.032484 0 0 1 8.43249,-1.199999 h 0.005 c 2.855,-0.0025 5.6925,0.4 8.4325,1.199999 a 4.6124986,4.6124975 0 0 1 -4.6675,3.657498 z"
         id="path941-3-5"
         style="display:inline;opacity:1;fill:#ffffff;fill-opacity:1;stroke-width:6.08315;enable-background:new;font-variation-settings:normal;vector-effect:none;stroke-linecap:butt;stroke-linejoin:miter;stroke-miterlimit:4;stroke-dasharray:none;stroke-dashoffset:0;stroke-opacity:1;-inkscape-stroke:none;stop-color:#000000;stop-opacity:1" />
    </g>
    <g
       inkscape:groupmode="layer"
       id="layer6"
       inkscape:label="Symbols"
       style="display:inline">
      <path
         d="M 309.23,173.02504 A 10.76333,10.763327 0 0 1 320,162.26838 10.76333,10.763327 0 0 1 330.76999,173.02504 10.76333,10.763327 0 0 1 320,183.64837 10.76333,10.763327 0 0 1 309.23167,173.02504 Z m 28.31999,-9.58833 a 3.0783324,3.0783317 0 0 1 -4.12,-0.7 17.031661,17.031657 0 0 0 -3.12833,-3.12499 3.0716657,3.071665 0 0 1 -0.70167,-4.115 20.079994,20.079989 0 0 1 7.95,7.93999 z m -30.97832,-0.7 a 3.0783324,3.0783317 0 0 1 -4.12,0.7 20.079994,20.079989 0 0 1 7.95,-7.93999 3.0716657,3.071665 0 0 1 -0.7,4.115 17.031661,17.031657 0 0 0 -3.13,3.12499 z m 33.42832,10.28833 c 0.002,1.9 -0.26667,3.79167 -0.8,5.61667 a 3.0733324,3.0733317 0 0 1 -2.42,-3.405 c 0.19167,-1.46667 0.19167,-2.955 0,-4.42333 a 3.0733324,3.0733317 0 0 1 2.41833,-3.405 c 0.53334,1.825 0.80334,3.71666 0.80167,5.61666 z m -39.99999,0 c 0,-1.9 0.27,-3.79166 0.80333,-5.61666 a 3.0733324,3.0733317 0 0 1 2.41667,3.405 c -0.19167,1.46666 -0.19167,2.955 0,4.42333 a 3.0733324,3.0733317 0 0 1 -2.41667,3.405 A 19.95166,19.951656 0 0 1 300,173.02338 Z m 29.59999,17.52999 a 3.0716657,3.071665 0 0 1 0.7,-4.11666 17.029995,17.029991 0 0 0 3.13,-3.125 3.0783324,3.0783317 0 0 1 4.12,-0.7 20.079994,20.079989 0 0 1 -7.95,7.94166 z m -19.19832,0 a 20.079994,20.079989 0 0 1 -7.95,-7.93999 3.0783324,3.0783317 0 0 1 4.12,0.7 17.031661,17.031657 0 0 0 3.12833,3.12333 c 1.275,0.97833 1.58,2.77166 0.70167,4.11666 z m 9.59999,2.445 a 20.013327,20.013322 0 0 1 -5.625,-0.8 3.0766657,3.076665 0 0 1 3.41,-2.41666 c 1.47,0.19166 2.95834,0.19166 4.42833,0 a 3.0766657,3.076665 0 0 1 3.41,2.415 c -1.82666,0.53333 -3.72166,0.80333 -5.62499,0.80166 z m 2.51,-36.76165 c -1.575,-0.22666 -3.14666,-0.16666 -4.72333,-0.0217 a 3.079999,3.0799983 0 0 1 -3.41167,-2.41667 20.02166,20.021656 0 0 1 5.62167,-0.8 h 0.003 c 1.90334,-0.002 3.795,0.26667 5.62167,0.8 a 3.074999,3.0749983 0 0 1 -3.11167,2.43833 z"
         id="path941-6"
         style="opacity:0.2;stroke-width:6.08315;fill:#000000;fill-opacity:1;font-variation-settings:normal;vector-effect:none;stroke-linecap:butt;stroke-linejoin:miter;stroke-miterlimit:4;stroke-dasharray:none;stroke-dashoffset:0;stroke-opacity:1;-inkscape-stroke:none;stop-color:#000000;stop-opacity:1" />
      <path
         d="M 309.23,172.02504 A 10.76333,10.763327 0 0 1 320,161.26838 10.76333,10.763327 0 0 1 330.76999,172.02504 10.76333,10.763327 0 0 1 320,182.64837 10.76333,10.763327 0 0 1 309.23167,172.02504 Z m 28.31999,-9.58833 a 3.0783324,3.0783317 0 0 1 -4.12,-0.7 17.031661,17.031657 0 0 0 -3.12833,-3.12499 3.0716657,3.071665 0 0 1 -0.70167,-4.115 20.079994,20.079989 0 0 1 7.95,7.93999 z m -30.97832,-0.7 a 3.0783324,3.0783317 0 0 1 -4.12,0.7 20.079994,20.079989 0 0 1 7.95,-7.93999 3.0716657,3.071665 0 0 1 -0.7,4.115 17.031661,17.031657 0 0 0 -3.13,3.12499 z m 33.42832,10.28833 c 0.002,1.9 -0.26667,3.79167 -0.8,5.61667 a 3.0733324,3.0733317 0 0 1 -2.42,-3.405 c 0.19167,-1.46667 0.19167,-2.955 0,-4.42333 a 3.0733324,3.0733317 0 0 1 2.41833,-3.405 c 0.53334,1.825 0.80334,3.71666 0.80167,5.61666 z m -39.99999,0 c 0,-1.9 0.27,-3.79166 0.80333,-5.61666 a 3.0733324,3.0733317 0 0 1 2.41667,3.405 c -0.19167,1.46666 -0.19167,2.955 0,4.42333 a 3.0733324,3.0733317 0 0 1 -2.41667,3.405 A 19.95166,19.951656 0 0 1 300,172.02338 Z m 29.59999,17.52999 a 3.0716657,3.071665 0 0 1 0.7,-4.11666 17.029995,17.029991 0 0 0 3.13,-3.125 3.0783324,3.0783317 0 0 1 4.12,-0.7 20.079994,20.079989 0 0 1 -7.95,7.94166 z m -19.19832,0 a 20.079994,20.079989 0 0 1 -7.95,-7.93999 3.0783324,3.0783317 0 0 1 4.12,0.7 17.031661,17.031657 0 0 0 3.12833,3.12333 c 1.275,0.97833 1.58,2.77166 0.70167,4.11666 z m 9.59999,2.445 a 20.013327,20.013322 0 0 1 -5.625,-0.8 3.0766657,3.076665 0 0 1 3.41,-2.41666 c 1.47,0.19166 2.95834,0.19166 4.42833,0 a 3.0766657,3.076665 0 0 1 3.41,2.415 c -1.82666,0.53333 -3.72166,0.80333 -5.62499,0.80166 z m 2.51,-36.76165 c -1.575,-0.22666 -3.14666,-0.16666 -4.72333,-0.0217 a 3.079999,3.0799983 0 0 1 -3.41167,-2.41667 20.02166,20.021656 0 0 1 5.62167,-0.8 h 0.003 c 1.90334,-0.002 3.795,0.26667 5.62167,0.8 a 3.074999,3.0749983 0 0 1 -3.11167,2.43833 z"
         id="path941-6-9"
         style="display:inline;opacity:1;stroke-width:6.08315;enable-background:new;fill:#ffffff;fill-opacity:1;font-variation-settings:normal;vector-effect:none;stroke-linecap:butt;stroke-linejoin:miter;stroke-miterlimit:4;stroke-dasharray:none;stroke-dashoffset:0;stroke-opacity:1;-inkscape-stroke:none;stop-color:#000000;stop-opacity:1" />
      <path
         d="M 304.19175,245.01812 A 7.8034142,7.8034124 0 0 1 312,237.21954 a 7.8034142,7.8034124 0 0 1 7.80824,7.79858 7.8034142,7.8034124 0 0 1 -7.80824,7.70191 7.8034142,7.8034124 0 0 1 -7.80704,-7.70191 z m 20.53199,-6.95154 a 2.231791,2.2317904 0 0 1 -2.987,-0.5075 12.347954,12.347952 0 0 0 -2.26804,-2.26562 2.2269576,2.2269571 0 0 1 -0.50871,-2.98338 14.557995,14.557992 0 0 1 5.76375,5.7565 z m -22.45928,-0.5075 a 2.231791,2.2317904 0 0 1 -2.987,0.5075 14.557995,14.557992 0 0 1 5.76375,-5.7565 2.2269576,2.2269571 0 0 1 -0.5075,2.98338 12.347954,12.347952 0 0 0 -2.26925,2.26562 z m 24.23553,7.45904 c 10e-4,1.3775 -0.19333,2.74895 -0.58,4.07208 a 2.228166,2.2281654 0 0 1 -1.7545,-2.46862 c 0.13896,-1.06334 0.13896,-2.14238 0,-3.20692 a 2.228166,2.2281654 0 0 1 1.75329,-2.46862 c 0.38667,1.32312 0.58242,2.69458 0.58121,4.07208 z m -28.99999,0 c 0,-1.3775 0.19575,-2.74896 0.58242,-4.07208 a 2.228166,2.2281654 0 0 1 1.75208,2.46862 c -0.13896,1.06333 -0.13896,2.14237 0,3.20692 a 2.228166,2.2281654 0 0 1 -1.75208,2.46862 14.464954,14.46495 0 0 1 -0.58242,-4.07329 z m 21.45999,12.70924 a 2.2269576,2.2269571 0 0 1 0.5075,-2.98458 12.346746,12.346743 0 0 0 2.26925,-2.26562 2.231791,2.2317904 0 0 1 2.987,-0.5075 14.557995,14.557992 0 0 1 -5.76375,5.7577 z m -13.91878,0 a 14.557995,14.557992 0 0 1 -5.76375,-5.7565 2.231791,2.2317904 0 0 1 2.987,0.5075 12.347954,12.347952 0 0 0 2.26804,2.26442 c 0.92437,0.70929 1.1455,2.00946 0.50871,2.98458 z m 6.95999,1.77263 a 14.509662,14.509659 0 0 1 -4.07812,-0.58 2.2305826,2.2305821 0 0 1 2.47225,-1.75209 c 1.06575,0.13896 2.14479,0.13896 3.21054,0 a 2.2305826,2.2305821 0 0 1 2.47225,1.75088 c -1.32433,0.38666 -2.69821,0.58241 -4.07812,0.58121 z m 1.81975,-26.6522 c -1.14187,-0.16433 -2.28133,-0.12083 -3.42441,-0.0157 a 2.2329993,2.2329988 0 0 1 -2.47346,-1.75208 14.515704,14.5157 0 0 1 4.07571,-0.58 h 0.002 c 1.37992,-0.001 2.75138,0.19333 4.07571,0.58 a 2.2293743,2.2293738 0 0 1 -2.25596,1.76779 z"
         id="path941-1"
         style="opacity:0.2;stroke-width:6.08315;fill:#000000;fill-opacity:1;font-variation-settings:normal;vector-effect:none;stroke-linecap:butt;stroke-linejoin:miter;stroke-miterlimit:4;stroke-dasharray:none;stroke-dashoffset:0;stroke-opacity:1;-inkscape-stroke:none;stop-color:#000000;stop-opacity:1" />
      <path
         d="M 304.19175,244.01812 A 7.8034142,7.8034124 0 0 1 312,236.21954 a 7.8034142,7.8034124 0 0 1 7.80824,7.79858 7.8034142,7.8034124 0 0 1 -7.80824,7.70191 7.8034142,7.8034124 0 0 1 -7.80704,-7.70191 z m 20.53199,-6.95154 a 2.231791,2.2317904 0 0 1 -2.987,-0.5075 12.347954,12.347952 0 0 0 -2.26804,-2.26562 2.2269576,2.2269571 0 0 1 -0.50871,-2.98338 14.557995,14.557992 0 0 1 5.76375,5.7565 z m -22.45928,-0.5075 a 2.231791,2.2317904 0 0 1 -2.987,0.5075 14.557995,14.557992 0 0 1 5.76375,-5.7565 2.2269576,2.2269571 0 0 1 -0.5075,2.98338 12.347954,12.347952 0 0 0 -2.26925,2.26562 z m 24.23553,7.45904 c 10e-4,1.3775 -0.19333,2.74895 -0.58,4.07208 a 2.228166,2.2281654 0 0 1 -1.7545,-2.46862 c 0.13896,-1.06334 0.13896,-2.14238 0,-3.20692 a 2.228166,2.2281654 0 0 1 1.75329,-2.46862 c 0.38667,1.32312 0.58242,2.69458 0.58121,4.07208 z m -28.99999,0 c 0,-1.3775 0.19575,-2.74896 0.58242,-4.07208 a 2.228166,2.2281654 0 0 1 1.75208,2.46862 c -0.13896,1.06333 -0.13896,2.14237 0,3.20692 a 2.228166,2.2281654 0 0 1 -1.75208,2.46862 14.464954,14.46495 0 0 1 -0.58242,-4.07329 z m 21.45999,12.70924 a 2.2269576,2.2269571 0 0 1 0.5075,-2.98458 12.346746,12.346743 0 0 0 2.26925,-2.26562 2.231791,2.2317904 0 0 1 2.987,-0.5075 14.557995,14.557992 0 0 1 -5.76375,5.7577 z m -13.91878,0 a 14.557995,14.557992 0 0 1 -5.76375,-5.7565 2.231791,2.2317904 0 0 1 2.987,0.5075 12.347954,12.347952 0 0 0 2.26804,2.26442 c 0.92437,0.70929 1.1455,2.00946 0.50871,2.98458 z m 6.95999,1.77263 a 14.509662,14.509659 0 0 1 -4.07812,-0.58 2.2305826,2.2305821 0 0 1 2.47225,-1.75209 c 1.06575,0.13896 2.14479,0.13896 3.21054,0 a 2.2305826,2.2305821 0 0 1 2.47225,1.75088 c -1.32433,0.38666 -2.69821,0.58241 -4.07812,0.58121 z m 1.81975,-26.6522 c -1.14187,-0.16433 -2.28133,-0.12083 -3.42441,-0.0157 a 2.2329993,2.2329988 0 0 1 -2.47346,-1.75208 14.515704,14.5157 0 0 1 4.07571,-0.58 h 0.002 c 1.37992,-0.001 2.75138,0.19333 4.07571,0.58 a 2.2293743,2.2293738 0 0 1 -2.25596,1.76779 z"
         id="path941-1-2"
         style="display:inline;opacity:1;fill:#ffffff;fill-opacity:1;stroke-width:6.08315;enable-background:new;font-variation-settings:normal;vector-effect:none;stroke-linecap:butt;stroke-linejoin:miter;stroke-miterlimit:4;stroke-dasharray:none;stroke-dashoffset:0;stroke-opacity:1;-inkscape-stroke:none;stop-color:#000000;stop-opacity:1" />
      <path
         d="M 426.615,69.012499 A 5.381665,5.3816637 0 0 1 432,63.634168 5.381665,5.3816637 0 0 1 437.38499,69.012499 5.381665,5.3816637 0 0 1 432,74.324162 5.381665,5.3816637 0 0 1 426.61583,69.012499 Z m 14.15999,-4.794164 a 1.5391662,1.5391658 0 0 1 -2.06,-0.35 8.5158307,8.5158287 0 0 0 -1.56416,-1.562499 1.5358329,1.5358325 0 0 1 -0.35084,-2.057499 10.039997,10.039995 0 0 1 3.975,3.969998 z m -15.48916,-0.35 a 1.5391662,1.5391658 0 0 1 -2.06,0.35 10.039997,10.039995 0 0 1 3.975,-3.969998 1.5358329,1.5358325 0 0 1 -0.35,2.057499 8.5158307,8.5158287 0 0 0 -1.565,1.562499 z m 16.71416,5.144164 c 8.4e-4,0.949999 -0.13333,1.895832 -0.4,2.808331 a 1.5366662,1.5366658 0 0 1 -1.21,-1.702499 c 0.0958,-0.733333 0.0958,-1.477499 0,-2.211665 a 1.5366662,1.5366658 0 0 1 1.20917,-1.702499 c 0.26667,0.912499 0.40167,1.858332 0.40083,2.808332 z m -19.99999,0 c 0,-0.95 0.135,-1.895833 0.40167,-2.808332 a 1.5366662,1.5366658 0 0 1 1.20833,1.702499 c -0.0958,0.733333 -0.0958,1.477499 0,2.211665 A 1.5366662,1.5366658 0 0 1 422.40167,71.82083 9.9758302,9.9758279 0 0 1 422,69.011665 Z m 14.79999,8.764995 a 1.5358329,1.5358325 0 0 1 0.35,-2.058332 8.5149973,8.5149953 0 0 0 1.565,-1.562499 1.5391662,1.5391658 0 0 1 2.06,-0.35 10.039997,10.039995 0 0 1 -3.975,3.970831 z m -9.59916,0 a 10.039997,10.039995 0 0 1 -3.975,-3.969998 1.5391662,1.5391658 0 0 1 2.06,0.35 8.5158307,8.5158287 0 0 0 1.56417,1.561666 c 0.6375,0.489166 0.79,1.385832 0.35083,2.058332 z m 4.8,1.222499 a 10.006664,10.006661 0 0 1 -2.8125,-0.4 1.5383329,1.5383325 0 0 1 1.705,-1.208332 c 0.735,0.09583 1.47917,0.09583 2.21417,0 a 1.5383329,1.5383325 0 0 1 1.705,1.207499 c -0.91334,0.266667 -1.86084,0.401667 -2.8125,0.400833 z m 1.255,-18.380823 c -0.7875,-0.113333 -1.57333,-0.08333 -2.36167,-0.01083 a 1.5399995,1.5399992 0 0 1 -1.70583,-1.208333 10.01083,10.010828 0 0 1 2.81083,-0.4 h 0.002 c 0.95167,-8.33e-4 1.8975,0.133333 2.81083,0.4 a 1.5374995,1.5374992 0 0 1 -1.55583,1.219166 z"
         id="path941-70"
         style="stroke-width:6.08315;opacity:0.2;fill:#000000;fill-opacity:1;font-variation-settings:normal;vector-effect:none;stroke-linecap:butt;stroke-linejoin:miter;stroke-miterlimit:4;stroke-dasharray:none;stroke-dashoffset:0;stroke-opacity:1;-inkscape-stroke:none;stop-color:#000000;stop-opacity:1" />
      <path
         d="M 426.615,68.012496 A 5.381665,5.3816637 0 0 1 432,62.634165 5.381665,5.3816637 0 0 1 437.38499,68.012496 5.381665,5.3816637 0 0 1 432,73.324159 5.381665,5.3816637 0 0 1 426.61583,68.012496 Z m 14.15999,-4.794164 a 1.5391662,1.5391658 0 0 1 -2.06,-0.35 8.5158307,8.5158287 0 0 0 -1.56416,-1.562499 1.5358329,1.5358325 0 0 1 -0.35084,-2.057499 10.039997,10.039995 0 0 1 3.975,3.969998 z m -15.48916,-0.35 a 1.5391662,1.5391658 0 0 1 -2.06,0.35 10.039997,10.039995 0 0 1 3.975,-3.969998 1.5358329,1.5358325 0 0 1 -0.35,2.057499 8.5158307,8.5158287 0 0 0 -1.565,1.562499 z m 16.71416,5.144164 c 8.4e-4,0.949999 -0.13333,1.895832 -0.4,2.808331 a 1.5366662,1.5366658 0 0 1 -1.21,-1.702499 c 0.0958,-0.733333 0.0958,-1.477499 0,-2.211665 a 1.5366662,1.5366658 0 0 1 1.20917,-1.702499 c 0.26667,0.912499 0.40167,1.858332 0.40083,2.808332 z m -19.99999,0 c 0,-0.95 0.135,-1.895833 0.40167,-2.808332 a 1.5366662,1.5366658 0 0 1 1.20833,1.702499 c -0.0958,0.733333 -0.0958,1.477499 0,2.211665 A 1.5366662,1.5366658 0 0 1 422.40167,70.820827 9.9758302,9.9758279 0 0 1 422,68.011662 Z m 14.79999,8.764995 a 1.5358329,1.5358325 0 0 1 0.35,-2.058332 8.5149973,8.5149953 0 0 0 1.565,-1.562499 1.5391662,1.5391658 0 0 1 2.06,-0.35 10.039997,10.039995 0 0 1 -3.975,3.970831 z m -9.59916,0 a 10.039997,10.039995 0 0 1 -3.975,-3.969998 1.5391662,1.5391658 0 0 1 2.06,0.35 8.5158307,8.5158287 0 0 0 1.56417,1.561666 c 0.6375,0.489166 0.79,1.385832 0.35083,2.058332 z m 4.8,1.222499 a 10.006664,10.006661 0 0 1 -2.8125,-0.4 1.5383329,1.5383325 0 0 1 1.705,-1.208332 c 0.735,0.09583 1.47917,0.09583 2.21417,0 a 1.5383329,1.5383325 0 0 1 1.705,1.207499 c -0.91334,0.266667 -1.86084,0.401667 -2.8125,0.400833 z m 1.255,-18.380823 c -0.7875,-0.113333 -1.57333,-0.08333 -2.36167,-0.01083 a 1.5399995,1.5399992 0 0 1 -1.70583,-1.208333 10.01083,10.010828 0 0 1 2.81083,-0.4 h 0.002 c 0.95167,-8.33e-4 1.8975,0.133333 2.81083,0.4 a 1.5374995,1.5374992 0 0 1 -1.55583,1.219166 z"
         id="path941-70-9"
         style="display:inline;opacity:1;stroke-width:6.08315;enable-background:new;fill:#ffffff;fill-opacity:1;font-variation-settings:normal;vector-effect:none;stroke-linecap:butt;stroke-linejoin:miter;stroke-miterlimit:4;stroke-dasharray:none;stroke-dashoffset:0;stroke-opacity:1;-inkscape-stroke:none;stop-color:#000000;stop-opacity:1" />
      <path
         d="M 423.96125,113.00952 A 4.03625,4.0361649 0 0 1 428,108.97586 a 4.03625,4.0361649 0 0 1 4.03875,4.03366 4.03625,4.0361649 0 0 1 -4.03875,3.98367 4.03625,4.0361649 0 0 1 -4.03813,-3.98367 z m 10.61999,-3.59555 a 1.154375,1.1543507 0 0 1 -1.545,-0.26249 6.3868749,6.3867402 0 0 0 -1.17312,-1.17185 1.151875,1.1518507 0 0 1 -0.26312,-1.5431 7.53,7.5298412 0 0 1 2.98124,2.97744 z m -11.61687,-0.26249 a 1.154375,1.1543507 0 0 1 -1.54499,0.26249 7.53,7.5298412 0 0 1 2.98124,-2.97744 1.151875,1.1518507 0 0 1 -0.2625,1.5431 6.3868749,6.3867402 0 0 0 -1.17375,1.17185 z M 435.5,113.00952 c 6.2e-4,0.71249 -0.1,1.42185 -0.3,2.10621 a 1.1525,1.1524757 0 0 1 -0.90751,-1.27685 c 0.0719,-0.54999 0.0719,-1.1081 0,-1.65871 a 1.1525,1.1524757 0 0 1 0.90689,-1.27685 c 0.19999,0.68436 0.30124,1.39372 0.30062,2.1062 z m -15,0 c 0,-0.71248 0.10125,-1.42184 0.30125,-2.1062 a 1.1525,1.1524757 0 0 1 0.90625,1.27685 c -0.0719,0.54998 -0.0719,1.1081 0,1.65871 a 1.1525,1.1524757 0 0 1 -0.90625,1.27685 A 7.481875,7.4817172 0 0 1 420.5,113.0089 Z m 11.1,6.57362 a 1.151875,1.1518507 0 0 1 0.2625,-1.54373 6.38625,6.3861153 0 0 0 1.17374,-1.17185 1.154375,1.1543507 0 0 1 1.545,-0.26248 7.53,7.5298412 0 0 1 -2.98124,2.97806 z m -7.19938,0 a 7.53,7.5298412 0 0 1 -2.98124,-2.97744 1.154375,1.1543507 0 0 1 1.54499,0.26249 6.3868749,6.3867402 0 0 0 1.17313,1.17122 c 0.47813,0.36688 0.5925,1.03936 0.26312,1.54373 z m 3.6,0.91685 A 7.505,7.5048417 0 0 1 425.89125,120.2 1.15375,1.1537257 0 0 1 427.17,119.29376 c 0.55125,0.0719 1.10938,0.0719 1.66063,0 a 1.15375,1.1537257 0 0 1 1.27875,0.90561 c -0.68501,0.2 -1.39563,0.30125 -2.10938,0.30062 z m 0.94125,-13.78533 c -0.59062,-0.085 -1.17999,-0.0625 -1.77125,-0.008 a 1.155,1.1549756 0 0 1 -1.27937,-0.90667 7.508125,7.5079666 0 0 1 2.10812,-0.29999 h 9.4e-4 c 0.71376,-6.3e-4 1.42313,0.1 2.10813,0.29999 a 1.153125,1.1531007 0 0 1 -1.16688,0.91436 z"
         id="path941-36"
         style="opacity:0.2;stroke-width:6.08315;fill:#000000;fill-opacity:1;font-variation-settings:normal;vector-effect:none;stroke-linecap:butt;stroke-linejoin:miter;stroke-miterlimit:4;stroke-dasharray:none;stroke-dashoffset:0;stroke-opacity:1;-inkscape-stroke:none;stop-color:#000000;stop-opacity:1" />
      <path
         d="M 423.96125,112.00908 A 4.03625,4.0361649 0 0 1 428,107.97542 a 4.03625,4.0361649 0 0 1 4.03875,4.03366 4.03625,4.0361649 0 0 1 -4.03875,3.98367 4.03625,4.0361649 0 0 1 -4.03813,-3.98367 z m 10.61999,-3.59555 a 1.154375,1.1543507 0 0 1 -1.545,-0.26249 6.3868749,6.3867402 0 0 0 -1.17312,-1.17185 1.151875,1.1518507 0 0 1 -0.26312,-1.5431 7.53,7.5298412 0 0 1 2.98124,2.97744 z m -11.61687,-0.26249 a 1.154375,1.1543507 0 0 1 -1.54499,0.26249 7.53,7.5298412 0 0 1 2.98124,-2.97744 1.151875,1.1518507 0 0 1 -0.2625,1.5431 6.3868749,6.3867402 0 0 0 -1.17375,1.17185 z M 435.5,112.00908 c 6.2e-4,0.71249 -0.1,1.42185 -0.3,2.10621 a 1.1525,1.1524757 0 0 1 -0.90751,-1.27685 c 0.0719,-0.54999 0.0719,-1.1081 0,-1.65871 a 1.1525,1.1524757 0 0 1 0.90689,-1.27685 c 0.19999,0.68436 0.30124,1.39372 0.30062,2.1062 z m -15,0 c 0,-0.71248 0.10125,-1.42184 0.30125,-2.1062 a 1.1525,1.1524757 0 0 1 0.90625,1.27685 c -0.0719,0.54998 -0.0719,1.1081 0,1.65871 a 1.1525,1.1524757 0 0 1 -0.90625,1.27685 7.481875,7.4817172 0 0 1 -0.30125,-2.10683 z m 11.1,6.57362 a 1.151875,1.1518507 0 0 1 0.2625,-1.54373 6.38625,6.3861153 0 0 0 1.17374,-1.17185 1.154375,1.1543507 0 0 1 1.545,-0.26248 7.53,7.5298412 0 0 1 -2.98124,2.97806 z m -7.19938,0 a 7.53,7.5298412 0 0 1 -2.98124,-2.97744 1.154375,1.1543507 0 0 1 1.54499,0.26249 6.3868749,6.3867402 0 0 0 1.17313,1.17122 c 0.47813,0.36688 0.5925,1.03936 0.26312,1.54373 z m 3.6,0.91685 a 7.505,7.5048417 0 0 1 -2.10937,-0.29999 1.15375,1.1537257 0 0 1 1.27875,-0.90624 c 0.55125,0.0719 1.10938,0.0719 1.66063,0 a 1.15375,1.1537257 0 0 1 1.27875,0.90561 c -0.68501,0.2 -1.39563,0.30125 -2.10938,0.30062 z m 0.94125,-13.78533 c -0.59062,-0.085 -1.17999,-0.0625 -1.77125,-0.008 a 1.155,1.1549756 0 0 1 -1.27937,-0.90623 7.508125,7.5079666 0 0 1 2.10812,-0.29999 h 9.4e-4 c 0.71376,-6.3e-4 1.42313,0.1 2.10813,0.29999 a 1.153125,1.1531007 0 0 1 -1.16688,0.91436 z"
         id="path941-36-0"
         style="display:inline;opacity:1;fill:#ffffff;fill-opacity:1;stroke-width:6.08315;enable-background:new;font-variation-settings:normal;vector-effect:none;stroke-linecap:butt;stroke-linejoin:miter;stroke-miterlimit:4;stroke-dasharray:none;stroke-dashoffset:0;stroke-opacity:1;-inkscape-stroke:none;stop-color:#000000;stop-opacity:1" />
    </g>
    <g
       inkscape:groupmode="layer"
       id="layer5"
       inkscape:label="Highlights"
       style="display:inline"
       sodipodi:insensitive="true">
      <path
         style="opacity:0.13000004;color:#bebebe;fill:#ffffff;fill-opacity:1;fill-rule:nonzero;stroke:none;stroke-width:0;marker:none;visibility:visible;display:inline;overflow:visible;enable-background:accumulate"
         d="M 84,47 C 56.836703,47 35,68.836703 35,96 l 0,1 C 35,69.836703 56.836703,48 84,48 l 120,0 c 27.1633,0 49,21.836703 49,49 l 0,-1 C 253,68.836703 231.1633,47 204,47 L 84,47 z"
         id="rect3894"
         inkscape:connector-curvature="0" />
      <path
         style="opacity:0.13000004;color:#bebebe;fill:#ffffff;fill-opacity:1;fill-rule:nonzero;stroke:none;stroke-width:0;marker:none;visibility:visible;display:inline;overflow:visible;enable-background:accumulate"
         d="m 419,141 c -1.1253,0 -2,0.8747 -2,2 l 0,1 c 0,-1.1253 0.8747,-2 2,-2 l 10,0 c 1.1253,0 2,0.8747 2,2 l 0,-1 c 0,-1.1253 -0.8747,-2 -2,-2 l -10,0 z"
         id="rect3896"
         inkscape:connector-curvature="0" />
      <path
         style="opacity:0.13000004;color:#bebebe;fill:#ffffff;fill-opacity:1;fill-rule:nonzero;stroke:none;stroke-width:0;marker:none;visibility:visible;display:inline;overflow:visible;enable-background:accumulate"
         d="m 422,102 c -2.2333,0 -4,1.7667 -4,4 l 0,1 c 0,-2.2333 1.7667,-4 4,-4 l 12,0 c 2.2333,0 4,1.7667 4,4 l 0,-1 c 0,-2.2333 -1.7667,-4 -4,-4 l -12,0 z"
         id="rect3898"
         inkscape:connector-curvature="0" />
      <path
         style="opacity:0.13000004;color:#bebebe;fill:#ffffff;fill-opacity:1;fill-rule:nonzero;stroke:none;stroke-width:0;marker:none;visibility:visible;display:inline;overflow:visible;enable-background:accumulate"
         d="m 424,54 c -3.3413,0 -6,2.658703 -6,6 l 0,1 c 0,-3.341297 2.6587,-6 6,-6 l 16,0 c 3.3413,0 6,2.658703 6,6 l 0,-1 c 0,-3.341297 -2.6587,-6 -6,-6 l -16,0 z"
         id="rect3900"
         inkscape:connector-curvature="0" />
      <path
         style="opacity:0.13000004;color:#bebebe;fill:#ffffff;fill-opacity:1;fill-rule:nonzero;stroke:none;stroke-width:0;marker:none;visibility:visible;display:inline;overflow:visible;enable-background:accumulate"
         d="m 300,224 c -4.4493,0 -8,3.5507 -8,8 l 0,1 c 0,-4.4493 3.5507,-8 8,-8 l 24,0 c 4.4493,0 8,3.5507 8,8 l 0,-1 c 0,-4.4493 -3.5507,-8 -8,-8 l -24,0 z"
         id="rect3902"
         inkscape:connector-curvature="0" />
      <path
         style="opacity:0.13000004;color:#bebebe;fill:#ffffff;fill-opacity:1;fill-rule:nonzero;stroke:none;stroke-width:0;marker:none;visibility:visible;display:inline;overflow:visible;enable-background:accumulate"
         d="m 310,33 c -9.4353,0 -17,7.564703 -17,17 l 0,1 c 0,-9.435297 7.5647,-17 17,-17 l 52,0 c 9.4353,0 17,7.564703 17,17 l 0,-1 c 0,-9.435297 -7.5647,-17 -17,-17 l -52,0 z"
         id="rect3904"
         inkscape:connector-curvature="0" />
      <path
         style="opacity:0.13000004;color:#bebebe;fill:#ffffff;fill-opacity:1;fill-rule:nonzero;stroke:none;stroke-width:0;marker:none;visibility:visible;display:inline;overflow:visible;enable-background:accumulate"
         d="m 302.5,143 c -6.3883,0 -11.5,5.1117 -11.5,11.5 l 0,1 c 0,-6.3883 5.1117,-11.5 11.5,-11.5 l 35,0 c 6.3883,0 11.5,5.1117 11.5,11.5 l 0,-1 c 0,-6.3883 -5.1117,-11.5 -11.5,-11.5 l -35,0 z"
         id="rect3906"
         inkscape:connector-curvature="0" />
      <path
         id="path4085"
         d="m 204,266 c 27.1633,0 49,-21.8367 49,-49 l 0,-1 c 0,27.1633 -21.8367,49 -49,49 L 84,265 C 56.8367,265 35,243.1633 35,216 l 0,1 c 0,27.1633 21.8367,49 49,49 l 120,0 z"
         style="opacity:0.41;color:#bebebe;fill:#000000;fill-opacity:1;fill-rule:nonzero;stroke:none;stroke-width:0;marker:none;visibility:visible;display:inline;overflow:visible;enable-background:accumulate"
         inkscape:connector-curvature="0" />
      <path
         id="path4087"
         d="m 429,156 c 1.1253,0 2,-0.8747 2,-2 l 0,-1 c 0,1.1253 -0.8747,2 -2,2 l -10,0 c -1.1253,0 -2,-0.8747 -2,-2 l 0,1 c 0,1.1253 0.8747,2 2,2 l 10,0 z"
         style="opacity:0.3;color:#bebebe;fill:#000000;fill-opacity:1;fill-rule:nonzero;stroke:none;stroke-width:0;marker:none;visibility:visible;display:inline;overflow:visible;enable-background:accumulate"
         inkscape:connector-curvature="0" />
      <path
         id="path4089"
         d="m 434,123 c 2.2333,0 4,-1.7667 4,-4 l 0,-1 c 0,2.2333 -1.7667,4 -4,4 l -12,0 c -2.2333,0 -4,-1.7667 -4,-4 l 0,1 c 0,2.2333 1.7667,4 4,4 l 12,0 z"
         style="opacity:0.3;color:#bebebe;fill:#000000;fill-opacity:1;fill-rule:nonzero;stroke:none;stroke-width:0;marker:none;visibility:visible;display:inline;overflow:visible;enable-background:accumulate"
         inkscape:connector-curvature="0" />
      <path
         id="path4091"
         d="m 440,83 c 3.3413,0 6,-2.6587 6,-6 l 0,-1 c 0,3.3413 -2.6587,6 -6,6 l -16,0 c -3.3413,0 -6,-2.6587 -6,-6 l 0,1 c 0,3.3413 2.6587,6 6,6 l 16,0 z"
         style="opacity:0.41;color:#bebebe;fill:#000000;fill-opacity:1;fill-rule:nonzero;stroke:none;stroke-width:0;marker:none;visibility:visible;display:inline;overflow:visible;enable-background:accumulate"
         inkscape:connector-curvature="0" />
      <path
         id="path4093"
         d="m 324,265 c 4.4493,0 8,-3.5507 8,-8 l 0,-1 c 0,4.4493 -3.5507,8 -8,8 l -24,0 c -4.4493,0 -8,-3.5507 -8,-8 l 0,1 c 0,4.4493 3.5507,8 8,8 l 24,0 z"
         style="opacity:0.41;color:#bebebe;fill:#000000;fill-opacity:1;fill-rule:nonzero;stroke:none;stroke-width:0;marker:none;visibility:visible;display:inline;overflow:visible;enable-background:accumulate"
         inkscape:connector-curvature="0" />
      <path
         id="path4095"
         d="m 362,120 c 9.4353,0 17,-7.5647 17,-17 l 0,-1 c 0,9.4353 -7.5647,17 -17,17 l -52,0 c -9.4353,0 -17,-7.5647 -17,-17 l 0,1 c 0,9.4353 7.5647,17 17,17 l 52,0 z"
         style="opacity:0.41;color:#bebebe;fill:#000000;fill-opacity:1;fill-rule:nonzero;stroke:none;stroke-width:0;marker:none;visibility:visible;display:inline;overflow:visible;enable-background:accumulate"
         inkscape:connector-curvature="0" />
      <path
         id="path4097"
         d="m 337.5,202 c 6.3883,0 11.5,-5.1117 11.5,-11.5 l 0,-1 c 0,6.3883 -5.1117,11.5 -11.5,11.5 l -35,0 c -6.3883,0 -11.5,-5.1117 -11.5,-11.5 l 0,1 c 0,6.3883 5.1117,11.5 11.5,11.5 l 35,0 z"
         style="opacity:0.41;color:#bebebe;fill:#000000;fill-opacity:1;fill-rule:nonzero;stroke:none;stroke-width:0;marker:none;visibility:visible;display:inline;overflow:visible;enable-background:accumulate"
         inkscape:connector-curvature="0" />
      <path
         inkscape:connector-curvature="0"
         id="path4280"
         d="M 84,265 C 56.836703,265 35,243.1633 35,216 l 0,-1 c 0,27.1633 21.836703,49 49,49 l 120,0 c 27.1633,0 49,-21.8367 49,-49 l 0,1 c 0,27.1633 -21.8367,49 -49,49 l -120,0 z"
         style="opacity:0.1;color:#bebebe;fill:#ffffff;fill-opacity:1;fill-rule:nonzero;stroke:none;stroke-width:0;marker:none;visibility:visible;display:inline;overflow:visible;enable-background:accumulate" />
      <path
         style="opacity:0.1;color:#bebebe;fill:#ffffff;fill-opacity:1;fill-rule:nonzero;stroke:none;stroke-width:0;marker:none;visibility:visible;display:inline;overflow:visible;enable-background:accumulate"
         d="m 300,264 c -4.4493,0 -8,-3.5507 -8,-8 l 0,-1 c 0,4.4493 3.5507,8 8,8 l 24,0 c 4.4493,0 8,-3.5507 8,-8 l 0,1 c 0,4.4493 -3.5507,8 -8,8 l -24,0 z"
         id="path4294"
         inkscape:connector-curvature="0" />
      <path
         style="opacity:0.1;color:#bebebe;fill:#ffffff;fill-opacity:1;fill-rule:nonzero;stroke:none;stroke-width:0;marker:none;visibility:visible;display:inline;overflow:visible;enable-background:accumulate"
         d="m 302.5,201 c -6.3883,0 -11.5,-5.1117 -11.5,-11.5 l 0,-1 c 0,6.3883 5.1117,11.5 11.5,11.5 l 35,0 c 6.3883,0 11.5,-5.1117 11.5,-11.5 l 0,1 c 0,6.3883 -5.1117,11.5 -11.5,11.5 l -35,0 z"
         id="path4296"
         inkscape:connector-curvature="0" />
      <path
         style="opacity:0.1;color:#bebebe;fill:#ffffff;fill-opacity:1;fill-rule:nonzero;stroke:none;stroke-width:0;marker:none;visibility:visible;display:inline;overflow:visible;enable-background:accumulate"
         d="m 310,119 c -9.4353,0 -17,-7.5647 -17,-17 l 0,-1 c 0,9.4353 7.5647,17 17,17 l 52,0 c 9.4353,0 17,-7.5647 17,-17 l 0,1 c 0,9.4353 -7.5647,17 -17,17 l -52,0 z"
         id="path4298"
         inkscape:connector-curvature="0" />
      <path
         style="opacity:0.1;color:#bebebe;fill:#ffffff;fill-opacity:1;fill-rule:nonzero;stroke:none;stroke-width:0;marker:none;visibility:visible;display:inline;overflow:visible;enable-background:accumulate"
         d="m 424,82 c -3.3413,0 -6,-2.658703 -6,-6 l 0,-1 c 0,3.341297 2.6587,6 6,6 l 16,0 c 3.3413,0 6,-2.658703 6,-6 l 0,1 c 0,3.341297 -2.6587,6 -6,6 l -16,0 z"
         id="path4300"
         inkscape:connector-curvature="0" />
      <path
         style="opacity:0.1;color:#bebebe;fill:#ffffff;fill-opacity:1;fill-rule:nonzero;stroke:none;stroke-width:0;marker:none;visibility:visible;display:inline;overflow:visible;enable-background:accumulate"
         d="m 422,122 c -2.2333,0 -4,-1.7667 -4,-4 l 0,-1 c 0,2.2333 1.7667,4 4,4 l 12,0 c 2.2333,0 4,-1.7667 4,-4 l 0,1 c 0,2.2333 -1.7667,4 -4,4 l -12,0 z"
         id="path4302"
         inkscape:connector-curvature="0" />
      <path
         style="opacity:0.1;color:#bebebe;fill:#ffffff;fill-opacity:1;fill-rule:nonzero;stroke:none;stroke-width:0;marker:none;visibility:visible;display:inline;overflow:visible;enable-background:accumulate"
         d="m 419,154.5 c -1.1253,0 -2,-0.8747 -2,-2 l 0,-1 c 0,1.1253 0.8747,2 2,2 l 10,0 c 1.1253,0 2,-0.8747 2,-2 l 0,1 c 0,1.1253 -0.8747,2 -2,2 l -10,0 z"
         id="path4304"
         inkscape:connector-curvature="0" />
    </g>
    <g
       inkscape:groupmode="layer"
       id="layer3"
       inkscape:label="Border"
       style="display:inline"
       sodipodi:insensitive="true">
      <path
         style="opacity:0.41;color:#bebebe;fill:#000000;fill-opacity:1;fill-rule:nonzero;stroke:none;stroke-width:0;marker:none;visibility:visible;display:inline;overflow:visible;enable-background:accumulate"
         d="m 422,101 c -2.77,0 -5,2.23 -5,5 l 0,12 c 0,2.77 2.23,5 5,5 l 12,0 c 2.77,0 5,-2.23 5,-5 l 0,-12 c 0,-2.77 -2.23,-5 -5,-5 l -12,0 z m 0,1 12,0 c 2.2333,0 4,1.7667 4,4 l 0,12 c 0,2.2333 -1.7667,4 -4,4 l -12,0 c -2.2333,0 -4,-1.7667 -4,-4 l 0,-12 c 0,-2.2333 1.7667,-4 4,-4 z"
         id="rect4099"
         inkscape:connector-curvature="0" />
      <path
         style="opacity:0.41;color:#bebebe;fill:#000000;fill-opacity:1;fill-rule:nonzero;stroke:none;stroke-width:0;marker:none;visibility:visible;display:inline;overflow:visible;enable-background:accumulate"
         d="m 424,53 c -3.878,0 -7,3.122 -7,7 l 0,16 c 0,3.878 3.122,7 7,7 l 16,0 c 3.878,0 7,-3.122 7,-7 l 0,-16 c 0,-3.878 -3.122,-7 -7,-7 l -16,0 z m 0,1 16,0 c 3.3413,0 6,2.658703 6,6 l 0,16 c 0,3.341297 -2.6587,6 -6,6 l -16,0 c -3.3413,0 -6,-2.658703 -6,-6 l 0,-16 c 0,-3.341297 2.6587,-6 6,-6 z"
         id="rect4151"
         inkscape:connector-curvature="0" />
      <path
         style="opacity:0.41;color:#bebebe;fill:#000000;fill-opacity:1;fill-rule:nonzero;stroke:none;stroke-width:0;marker:none;visibility:visible;display:inline;overflow:visible;enable-background:accumulate"
         d="m 419,140 c -1.662,0 -3,1.338 -3,3 l 0,10 c 0,1.662 1.338,3 3,3 l 10,0 c 1.662,0 3,-1.338 3,-3 l 0,-10 c 0,-1.662 -1.338,-3 -3,-3 l -10,0 z m 0,1 10,0 c 1.1253,0 2,0.8747 2,2 l 0,10 c 0,1.1253 -0.8747,2 -2,2 l -10,0 c -1.1253,0 -2,-0.8747 -2,-2 l 0,-10 c 0,-1.1253 0.8747,-2 2,-2 z"
         id="rect4095"
         inkscape:connector-curvature="0" />
      <path
         style="opacity:0.41;color:#bebebe;fill:#000000;fill-opacity:1;fill-rule:nonzero;stroke:none;stroke-width:0;marker:none;visibility:visible;display:inline;overflow:visible;enable-background:accumulate"
         d="m 300,223 c -4.986,0 -9,4.014 -9,9 l 0,24 c 0,4.986 4.014,9 9,9 l 24,0 c 4.986,0 9,-4.014 9,-9 l 0,-24 c 0,-4.986 -4.014,-9 -9,-9 l -24,0 z m 0,1 24,0 c 4.4493,0 8,3.5507 8,8 l 0,24 c 0,4.4493 -3.5507,8 -8,8 l -24,0 c -4.4493,0 -8,-3.5507 -8,-8 l 0,-24 c 0,-4.4493 3.5507,-8 8,-8 z"
         id="rect4783"
         inkscape:connector-curvature="0" />
      <path
         style="opacity:0.41;color:#bebebe;fill:#000000;fill-opacity:1;fill-rule:nonzero;stroke:none;stroke-width:0;marker:none;visibility:visible;display:inline;overflow:visible;enable-background:accumulate"
         d="m 302.5,142 c -6.925,0 -12.5,5.575 -12.5,12.5 l 0,35 c 0,6.925 5.575,12.5 12.5,12.5 l 35,0 c 6.925,0 12.5,-5.575 12.5,-12.5 l 0,-35 c 0,-6.925 -5.575,-12.5 -12.5,-12.5 l -35,0 z m 0,1 35,0 c 6.3883,0 11.5,5.1117 11.5,11.5 l 0,35 c 0,6.3883 -5.1117,11.5 -11.5,11.5 l -35,0 c -6.3883,0 -11.5,-5.1117 -11.5,-11.5 l 0,-35 c 0,-6.3883 5.1117,-11.5 11.5,-11.5 z"
         id="rect4515"
         inkscape:connector-curvature="0" />
      <path
         style="opacity:0.41;color:#bebebe;fill:#000000;fill-opacity:1;fill-rule:nonzero;stroke:none;stroke-width:0;marker:none;visibility:visible;display:inline;overflow:visible;enable-background:accumulate"
         d="m 310,32 c -9.972,0 -18,8.028 -18,18 l 0,52 c 0,9.972 8.028,18 18,18 l 52,0 c 9.972,0 18,-8.028 18,-18 l 0,-52 c 0,-9.972 -8.028,-18 -18,-18 l -52,0 z m 0,1 52,0 c 9.4353,0 17,7.564703 17,17 l 0,52 c 0,9.4353 -7.5647,17 -17,17 l -52,0 c -9.4353,0 -17,-7.5647 -17,-17 l 0,-52 c 0,-9.435297 7.5647,-17 17,-17 z"
         id="rect4511"
         inkscape:connector-curvature="0" />
      <path
         style="opacity:0.41;color:#bebebe;fill:#000000;fill-opacity:1;fill-rule:nonzero;stroke:none;stroke-width:0;marker:none;visibility:visible;display:inline;overflow:visible;enable-background:accumulate"
         d="M 84,46 C 56.3,46 34,68.3 34,96 l 0,120 c 0,27.7 22.3,50 50,50 l 120,0 c 27.7,0 50,-22.3 50,-50 L 254,96 C 254,68.3 231.7,46 204,46 L 84,46 z m 0,1 120,0 c 27.1633,0 49,21.836703 49,49 l 0,120 c 0,27.1633 -21.8367,49 -49,49 L 84,265 C 56.836703,265 35,243.1633 35,216 L 35,96 C 35,68.836703 56.836703,47 84,47 z"
         id="rect4040"
         inkscape:connector-curvature="0" />
    </g>
  </g>
</svg>
