<?xml version="1.0" encoding="UTF-8" standalone="no"?>
<!-- Created with Inkscape (http://www.inkscape.org/) -->

<svg
   xmlns:dc="http://purl.org/dc/elements/1.1/"
   xmlns:cc="http://creativecommons.org/ns#"
   xmlns:rdf="http://www.w3.org/1999/02/22-rdf-syntax-ns#"
   xmlns:svg="http://www.w3.org/2000/svg"
   xmlns="http://www.w3.org/2000/svg"
   xmlns:xlink="http://www.w3.org/1999/xlink"
   xmlns:sodipodi="http://sodipodi.sourceforge.net/DTD/sodipodi-0.dtd"
   xmlns:inkscape="http://www.inkscape.org/namespaces/inkscape"
   inkscape:export-ydpi="90.000000"
   inkscape:export-xdpi="90.000000"
   width="480"
   height="300"
   id="svg11300"
   sodipodi:version="0.32"
   inkscape:version="0.91 r13725"
   sodipodi:docname="mintinstall.svg"
   inkscape:output_extension="org.inkscape.output.svg.inkscape"
   version="1.0"
   style="display:inline;enable-background:new"
   inkscape:export-filename="/home/sam/moka-next-template.png">
  <sodipodi:namedview
     stroke="#ef2929"
     fill="#f57900"
     id="base"
     pagecolor="#777777"
     bordercolor="#666666"
     borderopacity="0.25490196"
     inkscape:pageopacity="0"
     inkscape:pageshadow="2"
     inkscape:zoom="1"
     inkscape:cx="168.78078"
     inkscape:cy="40.969358"
     inkscape:current-layer="layer2"
     showgrid="false"
     inkscape:grid-bbox="true"
     inkscape:document-units="px"
     inkscape:showpageshadow="false"
     inkscape:window-width="1920"
     inkscape:window-height="1026"
     inkscape:window-x="0"
     inkscape:window-y="0"
     width="400px"
     height="300px"
     inkscape:snap-nodes="true"
     inkscape:snap-bbox="true"
     gridtolerance="10000"
     inkscape:object-nodes="true"
     inkscape:snap-grids="true"
     showguides="true"
     inkscape:guide-bbox="true"
     inkscape:window-maximized="1"
     inkscape:bbox-nodes="true"
     inkscape:bbox-paths="true"
     inkscape:snap-bbox-edge-midpoints="true"
     inkscape:snap-bbox-midpoints="true">
    <inkscape:grid
       spacingy="1px"
       spacingx="1px"
       id="grid5883"
       type="xygrid"
       enabled="true"
       visible="true"
       empspacing="4"
       snapvisiblegridlinesonly="true"
       dotted="false"
       color="#000000"
       opacity="0.1254902"
       empcolor="#203ef3"
       empopacity="0.36470588" />
    <inkscape:grid
       type="xygrid"
       id="grid11592"
       empspacing="8"
       visible="true"
       enabled="false"
       spacingx="0.5px"
       spacingy="0.5px"
       color="#ff0000"
       opacity="0.1254902"
       empcolor="#ff0000"
       empopacity="0.25098039"
       snapvisiblegridlinesonly="true"
       dotted="true" />
  </sodipodi:namedview>
  <defs
     id="defs3">
    <linearGradient
       id="linearGradient4692">
      <stop
         id="stop4694"
         offset="0"
         style="stop-color:#212121;stop-opacity:1" />
      <stop
         id="stop4696"
         offset="1"
         style="stop-color:#313131;stop-opacity:1" />
    </linearGradient>
    <linearGradient
       inkscape:collect="always"
       xlink:href="#linearGradient4692"
       id="linearGradient4254"
       x1="35"
       y1="156"
       x2="253"
       y2="156"
       gradientUnits="userSpaceOnUse"
       gradientTransform="matrix(0,-1,1,0,-12,300)" />
    <linearGradient
       inkscape:collect="always"
       xlink:href="#linearGradient4692"
       id="linearGradient4256"
       x1="417"
       y1="148"
       x2="431"
       y2="148"
       gradientUnits="userSpaceOnUse"
       gradientTransform="matrix(0,-1,1,0,276,572)" />
    <linearGradient
       inkscape:collect="always"
       xlink:href="#linearGradient4692"
       id="linearGradient4260"
       x1="418"
       y1="68"
       x2="446"
       y2="68"
       gradientUnits="userSpaceOnUse"
       gradientTransform="matrix(0,-1,1,0,364,500)" />
    <linearGradient
       inkscape:collect="always"
       xlink:href="#linearGradient4692"
       id="linearGradient4262"
       x1="292"
       y1="244"
       x2="332"
       y2="244"
       gradientUnits="userSpaceOnUse"
       gradientTransform="matrix(0,-1,1,0,68,556)" />
    <linearGradient
       inkscape:collect="always"
       xlink:href="#linearGradient4692"
       id="linearGradient4264"
       x1="293"
       y1="76"
       x2="379"
       y2="76"
       gradientUnits="userSpaceOnUse"
       gradientTransform="matrix(0,-1,1,0,260,412)" />
    <linearGradient
       inkscape:collect="always"
       xlink:href="#linearGradient4692"
       id="linearGradient4266"
       x1="291"
       y1="172"
       x2="349"
       y2="172"
       gradientUnits="userSpaceOnUse"
       gradientTransform="matrix(0,-1,1,0,148,492)" />
    <linearGradient
       inkscape:collect="always"
       xlink:href="#linearGradient4692"
       id="linearGradient3870"
       gradientUnits="userSpaceOnUse"
       gradientTransform="matrix(0,-1,1,0,316,540)"
       x1="418"
       y1="112"
       x2="438"
       y2="112" />
    <linearGradient
       id="outerBackgroundGradient">
      <stop
         style="stop-color:#63a630;stop-opacity:1;"
         offset="0"
         id="stop3864-8-6" />
      <stop
         style="stop-color:#84ca47;stop-opacity:1;"
         offset="1"
         id="stop3866-9-1" />
    </linearGradient>
    <linearGradient
       id="linearGradient5564">
      <stop
         style="stop-color:#f2f2f2;stop-opacity:1;"
         offset="0"
         id="stop5566" />
      <stop
         style="stop-color:#ffffff;stop-opacity:1;"
         offset="1"
         id="stop5568" />
    </linearGradient>
    <linearGradient
       id="linearGradient3312">
      <stop
         offset="0"
         style="stop-color:#c0ec94;stop-opacity:1;"
         id="stop3314" />
      <stop
         offset="1"
         style="stop-color:#87cf3e;stop-opacity:1"
         id="stop3316" />
    </linearGradient>
  </defs>
  <metadata
     id="metadata4">
    <rdf:RDF>
      <cc:Work
         rdf:about="">
        <dc:format>image/svg+xml</dc:format>
        <dc:type
           rdf:resource="http://purl.org/dc/dcmitype/StillImage" />
        <dc:creator>
          <cc:Agent>
            <dc:title>Sam Hewitt</dc:title>
          </cc:Agent>
        </dc:creator>
        <dc:source />
        <cc:license
           rdf:resource="" />
        <dc:title />
        <dc:subject>
          <rdf:Bag />
        </dc:subject>
        <dc:date />
        <dc:rights>
          <cc:Agent>
            <dc:title />
          </cc:Agent>
        </dc:rights>
        <dc:publisher>
          <cc:Agent>
            <dc:title />
          </cc:Agent>
        </dc:publisher>
        <dc:identifier />
        <dc:relation />
        <dc:language />
        <dc:coverage />
        <dc:description />
        <dc:contributor>
          <cc:Agent>
            <dc:title />
          </cc:Agent>
        </dc:contributor>
      </cc:Work>
      <cc:Work
         rdf:about="">
        <dc:format>image/svg+xml</dc:format>
        <dc:type
           rdf:resource="http://purl.org/dc/dcmitype/StillImage" />
      </cc:Work>
    </rdf:RDF>
  </metadata>
  <g
     style="display:inline"
     inkscape:groupmode="layer"
     inkscape:label="Icon"
     id="layer1">
    <g
       style="display:none"
       inkscape:label="Baseplate"
       id="layer7"
       inkscape:groupmode="layer">
      <text
         y="19.745117"
         xml:space="preserve"
         x="15.006836"
         style="font-style:normal;font-variant:normal;font-weight:normal;font-stretch:normal;line-height:0%;font-family:'DejaVu Sans';-inkscape-font-specification:'DejaVu Sans';display:inline;fill:#000000;fill-opacity:1;stroke:none;enable-background:new"
         inkscape:label="context"
         id="context"><tspan
           style="font-style:normal;font-variant:normal;font-weight:normal;font-stretch:normal;font-size:18px;line-height:1.25;font-family:'DejaVu Sans';-inkscape-font-specification:'DejaVu Sans'"
           y="19.745117"
           x="15.006836"
           sodipodi:role="line"
           id="tspan3933">apps</tspan></text>
      <text
         y="19.745117"
         xml:space="preserve"
         x="122.48828"
         style="font-style:normal;font-variant:normal;font-weight:bold;font-stretch:normal;line-height:0%;font-family:'DejaVu Sans';-inkscape-font-specification:'DejaVu Sans Bold';text-align:start;writing-mode:lr-tb;text-anchor:start;display:inline;fill:#000000;fill-opacity:1;stroke:none;enable-background:new"
         inkscape:label="icon-name"
         id="icon-name"><tspan
           style="font-style:normal;font-variant:normal;font-weight:bold;font-stretch:normal;font-size:18px;line-height:1.25;font-family:'DejaVu Sans';-inkscape-font-specification:'DejaVu Sans Bold'"
           y="19.745117"
           x="122.48828"
           sodipodi:role="line"
           id="tspan3937">mintinstall</tspan></text>
      <rect
         style="fill:#eeeeec;fill-opacity:1;fill-rule:nonzero;stroke:none;stroke-width:2;marker:none;visibility:visible;display:inline;overflow:visible;enable-background:accumulate"
         id="rect16x16"
         width="16"
         height="16"
         x="416"
         y="140"
         inkscape:label="16x16" />
      <rect
         style="fill:#d4d4d4;fill-opacity:1;fill-rule:nonzero;stroke:none;stroke-width:2;marker:none;visibility:visible;display:inline;overflow:visible;enable-background:accumulate"
         id="rect24x24"
         width="24"
         height="24"
         x="416"
         y="100"
         inkscape:label="24x24" />
      <rect
         style="fill:#eeeeec;fill-opacity:1;fill-rule:nonzero;stroke:none;stroke-width:2;marker:none;visibility:visible;display:inline;overflow:visible;enable-background:accumulate"
         id="rect32x32"
         width="32"
         height="32"
         x="416"
         y="52"
         inkscape:label="32x32" />
      <rect
         inkscape:label="22x22"
         y="101"
         x="417"
         height="22"
         width="22"
         id="rect22x22"
         style="fill:#eeeeec;fill-opacity:1;fill-rule:nonzero;stroke:none;stroke-width:2;marker:none;visibility:visible;display:inline;overflow:visible;enable-background:accumulate" />
      <rect
         inkscape:label="48x48"
         y="220"
         x="288"
         height="48"
         width="48"
         id="rect48x48"
         style="fill:#eeeeec;fill-opacity:1;fill-rule:nonzero;stroke:none;stroke-width:2;marker:none;visibility:visible;display:inline;overflow:visible;enable-background:accumulate" />
      <rect
         style="fill:#eeeeec;fill-opacity:1;fill-rule:nonzero;stroke:none;stroke-width:2;marker:none;visibility:visible;display:inline;overflow:visible;enable-background:accumulate"
         id="rect256x256"
         width="256"
         height="256"
         x="16"
         y="28"
         inkscape:label="256x256" />
      <rect
         style="fill:#eeeeec;fill-opacity:1;fill-rule:nonzero;stroke:none;stroke-width:2;marker:none;visibility:visible;display:inline;overflow:visible;enable-background:accumulate"
         id="rect64x64"
         width="64"
         height="64"
         x="288"
         y="140"
         inkscape:label="64x64" />
      <rect
         style="fill:#eeeeec;fill-opacity:1;fill-rule:nonzero;stroke:none;stroke-width:2;marker:none;visibility:visible;display:inline;overflow:visible;enable-background:accumulate"
         id="rect96x96"
         width="96"
         height="96"
         x="288"
         y="28"
         inkscape:label="96x96" />
    </g>
    <g
       inkscape:groupmode="layer"
       id="layer4"
       inkscape:label="Shadow"
       style="display:inline"
       sodipodi:insensitive="true">
      <rect
         ry="50"
         y="47"
         x="34"
         height="220"
         width="220"
         id="rect4114"
         style="opacity:0.1;color:#bebebe;fill:#000000;fill-opacity:1;fill-rule:nonzero;stroke:none;stroke-width:0;marker:none;visibility:visible;display:inline;overflow:visible;enable-background:accumulate" />
      <rect
         style="opacity:0.1;color:#bebebe;fill:#000000;fill-opacity:1;fill-rule:nonzero;stroke:none;stroke-width:0;marker:none;visibility:visible;display:inline;overflow:visible;enable-background:accumulate"
         id="rect4120"
         width="30"
         height="30"
         x="417"
         y="54"
         ry="7" />
      <rect
         transform="scale(1,-1)"
         ry="9"
         y="-266"
         x="291"
         height="42"
         width="42"
         id="rect4122"
         style="opacity:0.1;color:#bebebe;fill:#000000;fill-opacity:1;fill-rule:nonzero;stroke:none;stroke-width:0;marker:none;visibility:visible;display:inline;overflow:visible;enable-background:accumulate" />
      <rect
         style="opacity:0.1;color:#bebebe;fill:#000000;fill-opacity:1;fill-rule:nonzero;stroke:none;stroke-width:0;marker:none;visibility:visible;display:inline;overflow:visible;enable-background:accumulate"
         id="rect4124"
         width="88"
         height="88"
         x="292"
         y="33"
         ry="18" />
      <rect
         ry="12.5"
         y="143"
         x="290"
         height="60"
         width="60"
         id="rect4126"
         style="opacity:0.1;color:#bebebe;fill:#000000;fill-opacity:1;fill-rule:nonzero;stroke:none;stroke-width:0;marker:none;visibility:visible;display:inline;overflow:visible;enable-background:accumulate" />
      <path
         id="path4268"
         d="m 422,101 c -2.77,0 -5,2.23 -5,5 l 0,12 c 0,2.77 2.23,5 5,5 l 12,0 c 2.77,0 5,-2.23 5,-5 l 0,-12 c 0,-2.77 -2.23,-5 -5,-5 z"
         style="opacity:0.1;color:#bebebe;fill:#000000;fill-opacity:1;fill-rule:nonzero;stroke:none;stroke-width:0;marker:none;visibility:visible;display:inline;overflow:visible;enable-background:accumulate"
         inkscape:connector-curvature="0"
         sodipodi:nodetypes="sssssssss" />
      <path
         id="path4270"
         d="m 419,140 c -1.662,0 -3,1.338 -3,3 l 0,10 c 0,1.662 1.338,3 3,3 l 10,0 c 1.662,0 3,-1.338 3,-3 l 0,-10 c 0,-1.662 -1.338,-3 -3,-3 z"
         style="opacity:0.1;color:#bebebe;fill:#000000;fill-opacity:1;fill-rule:nonzero;stroke:none;stroke-width:0;marker:none;visibility:visible;display:inline;overflow:visible;enable-background:accumulate"
         inkscape:connector-curvature="0"
         sodipodi:nodetypes="sssssssss" />
    </g>
    <g
       inkscape:groupmode="layer"
       id="layer2"
       inkscape:label="Background"
       style="display:inline">
      <path
         style="color:#bebebe;fill:url(#linearGradient4254);fill-opacity:1.0;fill-rule:nonzero;stroke:none;stroke-width:2;marker:none;visibility:visible;display:inline;overflow:visible;enable-background:accumulate"
         d="M 84,46.5 C 56.568735,46.5 34.5,68.568732 34.5,96 l 0,120 c 0,27.43127 22.068735,49.5 49.5,49.5 l 120,0 c 27.43127,0 49.5,-22.06873 49.5,-49.5 l 0,-120 C 253.5,68.568732 231.43127,46.5 204,46.5 l -120,0 z"
         id="path4200"
         inkscape:connector-curvature="0" />
      <path
         style="color:#bebebe;fill:url(#linearGradient4256);fill-opacity:1.0;fill-rule:nonzero;stroke:none;stroke-width:2;marker:none;visibility:visible;display:inline;overflow:visible;enable-background:accumulate"
         d="M 419 140.5 C 417.6156 140.5 416.5 141.6156 416.5 143 L 416.5 153 C 416.5 154.3844 417.6156 155.5 419 155.5 L 429 155.5 C 430.3844 155.5 431.5 154.3844 431.5 153 L 431.5 143 C 431.5 141.6156 430.3844 140.5 429 140.5 L 419 140.5 z "
         id="path4202" />
      <path
         style="color:#bebebe;fill:url(#linearGradient3870);fill-opacity:1.0;fill-rule:nonzero;stroke:none;stroke-width:2;marker:none;visibility:visible;display:inline;overflow:visible;enable-background:accumulate"
         d="M 422 101.5 C 419.50301 101.5 417.5 103.50301 417.5 106 L 417.5 118 C 417.5 120.49699 419.50301 122.5 422 122.5 L 434 122.5 C 436.49699 122.5 438.5 120.49699 438.5 118 L 438.5 106 C 438.5 103.50301 436.49699 101.5 434 101.5 L 422 101.5 z "
         id="path4204" />
      <path
         style="color:#bebebe;fill:url(#linearGradient4260);fill-opacity:1.0;fill-rule:nonzero;stroke:none;stroke-width:2;marker:none;visibility:visible;display:inline;overflow:visible;enable-background:accumulate"
         d="M 424 53.5 C 420.39346 53.5 417.5 56.393464 417.5 60 L 417.5 76 C 417.5 79.606536 420.39346 82.5 424 82.5 L 440 82.5 C 443.60654 82.5 446.5 79.606536 446.5 76 L 446.5 60 C 446.5 56.393464 443.60654 53.5 440 53.5 L 424 53.5 z "
         id="path4206" />
      <path
         style="color:#bebebe;fill:url(#linearGradient4262);fill-opacity:1.0;fill-rule:nonzero;stroke:none;stroke-width:2;marker:none;visibility:visible;display:inline;overflow:visible;enable-background:accumulate"
         d="M 300 223.5 C 295.28469 223.5 291.5 227.28469 291.5 232 L 291.5 256 C 291.5 260.71531 295.28469 264.5 300 264.5 L 324 264.5 C 328.71531 264.5 332.5 260.71531 332.5 256 L 332.5 232 C 332.5 227.28469 328.71531 223.5 324 223.5 L 300 223.5 z "
         id="path4208" />
      <path
         style="color:#bebebe;fill:url(#linearGradient4264);fill-opacity:1.0;fill-rule:nonzero;stroke:none;stroke-width:2;marker:none;visibility:visible;display:inline;overflow:visible;enable-background:accumulate"
         d="M 310 32.5 C 300.29745 32.5 292.5 40.297452 292.5 50 L 292.5 102 C 292.5 111.70255 300.29745 119.5 310 119.5 L 362 119.5 C 371.70255 119.5 379.5 111.70255 379.5 102 L 379.5 50 C 379.5 40.297452 371.70255 32.5 362 32.5 L 310 32.5 z "
         id="path4210" />
      <path
         style="color:#bebebe;fill:url(#linearGradient4266);fill-opacity:1.0;fill-rule:nonzero;stroke:none;stroke-width:2;marker:none;visibility:visible;display:inline;overflow:visible;enable-background:accumulate"
         d="M 302.5 142.5 C 295.84498 142.5 290.5 147.84498 290.5 154.5 L 290.5 189.5 C 290.5 196.15502 295.84498 201.5 302.5 201.5 L 337.5 201.5 C 344.15502 201.5 349.5 196.15502 349.5 189.5 L 349.5 154.5 C 349.5 147.84498 344.15502 142.5 337.5 142.5 L 302.5 142.5 z "
         id="path4212" />
    </g>
    <g
       inkscape:groupmode="layer"
       id="layer6"
       inkscape:label="Symbols"
       style="display:inline">
      <path
         inkscape:connector-curvature="0"
         style="display:inline;fill:#000000;fill-opacity:1;stroke:none;stroke-width:1.81785619;stroke-miterlimit:4;stroke-dasharray:none;stroke-opacity:1;enable-background:new;opacity:0.2"
         d="m 302.45541,161.00243 c -0.79792,-0.0379 -1.53556,0.5206 -1.44242,1.14726 1.3731,9.23784 1.81841,18.47807 0,27.71591 -0.12272,0.62351 0.64413,1.16346 1.44242,1.13307 11.54459,0.001 23.54459,0.001 35.09137,0 0.79823,0.0317 1.55285,-0.50815 1.44242,-1.13307 -1.56967,-8.88362 -1.63478,-18.10921 0,-27.71591 0.10641,-0.62534 -0.64485,-1.19149 -1.44242,-1.14726 -11.87181,0.65823 -23.53946,0.54821 -35.09137,0 z m 9.37358,3.4838 c 0.79647,0 1.44242,0.60868 1.44242,1.35957 0,0.75089 -0.64595,1.35957 -1.44242,1.35957 -0.79646,0 -1.44188,-0.60868 -1.44188,-1.35957 0,-0.75089 0.64542,-1.35957 1.44188,-1.35957 z m 16.34421,0 c 0.79646,0 1.44188,0.60868 1.44188,1.35957 0,0.75089 -0.64542,1.35957 -1.44188,1.35957 -0.79647,0 -1.44189,-0.60868 -1.44189,-1.35957 0,-0.75089 0.64542,-1.35957 1.44189,-1.35957 z"
         id="rect2985-9-0"
         sodipodi:nodetypes="csccccsccssssssssss" />
      <path
         inkscape:connector-curvature="0"
         style="display:inline;fill:#000000;fill-opacity:1;stroke:none;stroke-width:1.81785619;stroke-miterlimit:4;stroke-dasharray:none;stroke-opacity:1;enable-background:new;opacity:0.2"
         d="m 310.40582,60.003565 c -1.17589,-0.05552 -2.26293,0.763542 -2.12567,1.68264 2.02352,13.548833 2.67977,27.101171 0,40.650005 -0.18086,0.91449 0.94924,1.70642 2.12567,1.66184 17.59431,0.002 34.59431,0.002 51.7136,0 1.17634,0.0465 2.2884,-0.74528 2.12567,-1.66184 -2.3132,-13.029311 -2.40915,-26.560172 0,-40.650005 0.15682,-0.91716 -0.9503,-1.747513 -2.12567,-1.68264 -17.4953,0.965394 -34.68973,0.804044 -51.7136,0 z m 13.8137,5.109566 c 1.17375,0 2.12567,0.892736 2.12567,1.994039 0,1.101303 -0.95192,1.994035 -2.12567,1.994035 -1.17373,0 -2.12488,-0.892732 -2.12488,-1.994035 0,-1.101303 0.95115,-1.994039 2.12488,-1.994039 z m 24.0862,0 c 1.17373,0 2.12488,0.892736 2.12488,1.994039 0,1.101303 -0.95115,1.994035 -2.12488,1.994035 -1.17374,0 -2.12488,-0.892732 -2.12488,-1.994035 0,-1.101303 0.95114,-1.994039 2.12488,-1.994039 z"
         id="rect2985-2-5"
         sodipodi:nodetypes="cscccssccssssssssss" />
      <path
         inkscape:connector-curvature="0"
         style="display:inline;opacity:0.2;fill:#000000;fill-opacity:1;stroke:none;stroke-width:1.81785619;stroke-miterlimit:4;stroke-dasharray:none;stroke-opacity:1;enable-background:new"
         d="m 299.07241,236.00179 c -0.58795,-0.0278 -1.13147,0.38177 -1.06284,0.84132 1.01176,6.77441 1.33988,13.55058 0,20.325 -0.0904,0.45725 0.47462,0.85321 1.06284,0.83092 C 308,258 316,258 324.92921,257.99903 c 0.58817,0.0232 1.1442,-0.37264 1.06283,-0.83092 -1.1566,-6.51466 -1.20457,-13.28009 0,-20.325 0.0784,-0.45858 -0.47515,-0.87376 -1.06283,-0.84132 -8.74766,0.4827 -17.34487,0.40202 -25.8568,0 z m 6.90685,2.55478 c 0.58687,0 1.06283,0.44637 1.06283,0.99702 0,0.55065 -0.47596,0.99702 -1.06283,0.99702 -0.58687,0 -1.06244,-0.44637 -1.06244,-0.99702 0,-0.55065 0.47557,-0.99702 1.06244,-0.99702 z m 12.04309,0 c 0.58687,0 1.06245,0.44637 1.06245,0.99702 0,0.55065 -0.47558,0.99702 -1.06245,0.99702 -0.58686,0 -1.06244,-0.44637 -1.06244,-0.99702 0,-0.55065 0.47558,-0.99702 1.06244,-0.99702 z"
         id="rect2985-3-4"
         sodipodi:nodetypes="cscccccccssssssssss" />
      <path
         inkscape:connector-curvature="0"
         style="display:inline;fill:#fafafa;fill-opacity:1;stroke:none;stroke-width:1.81785619;stroke-miterlimit:4;stroke-dasharray:none;stroke-opacity:1;enable-background:new"
         d="m 299.07241,235.00179 c -0.58795,-0.0278 -1.13147,0.38177 -1.06284,0.84132 1.01176,6.77441 1.33988,13.55058 0,20.325 -0.0904,0.45725 0.47462,0.85321 1.06284,0.83092 C 308,257 316,257 324.92921,256.99903 c 0.58817,0.0232 1.1442,-0.37264 1.06283,-0.83092 -1.1566,-6.51466 -1.20457,-13.28009 0,-20.325 0.0784,-0.45858 -0.47515,-0.87376 -1.06283,-0.84132 -8.74766,0.4827 -17.34487,0.40202 -25.8568,0 z m 6.90685,2.55478 c 0.58687,0 1.06283,0.44637 1.06283,0.99702 0,0.55065 -0.47596,0.99702 -1.06283,0.99702 -0.58687,0 -1.06244,-0.44637 -1.06244,-0.99702 0,-0.55065 0.47557,-0.99702 1.06244,-0.99702 z m 12.04309,0 c 0.58687,0 1.06245,0.44637 1.06245,0.99702 0,0.55065 -0.47558,0.99702 -1.06245,0.99702 -0.58686,0 -1.06244,-0.44637 -1.06244,-0.99702 0,-0.55065 0.47558,-0.99702 1.06244,-0.99702 z"
         id="rect2985-3"
         sodipodi:nodetypes="cscccccccssssssssss" />
      <path
         style="color:#000000;display:inline;overflow:visible;visibility:visible;opacity:0.2;fill:#000000;fill-opacity:1;fill-rule:nonzero;stroke:none;stroke-width:1.81785619;stroke-linecap:butt;stroke-linejoin:miter;stroke-miterlimit:4;stroke-dasharray:none;stroke-dashoffset:0;stroke-opacity:1;marker:none;enable-background:accumulate"
         d="m 305.97847,239.7 c -0.39123,0 -0.70841,-0.37095 -0.70841,-0.82856 0,-4.34723 3.01309,-7.87144 6.72994,-7.87144 3.71683,0 6.72993,3.52421 6.72993,7.87144 0,0.45761 -0.31716,0.82856 -0.70841,0.82856 -0.39125,0 -0.70842,-0.37095 -0.70842,-0.82856 0,-3.43202 -2.37875,-6.21431 -5.3131,-6.21431 -2.93435,0 -5.31311,2.78229 -5.31311,6.21431 0,0.45761 -0.31716,0.82856 -0.70842,0.82856 z"
         id="path3796-3-2"
         inkscape:connector-curvature="0" />
      <path
         style="color:#000000;display:inline;overflow:visible;visibility:visible;fill:#f5f5f5;fill-opacity:1;fill-rule:nonzero;stroke:none;stroke-width:1.81785619;stroke-linecap:butt;stroke-linejoin:miter;stroke-miterlimit:4;stroke-dasharray:none;stroke-dashoffset:0;stroke-opacity:1;marker:none;enable-background:accumulate"
         d="m 305.97847,238.7 c -0.39123,0 -0.70841,-0.37095 -0.70841,-0.82856 0,-4.34723 3.01309,-7.87144 6.72994,-7.87144 3.71683,0 6.72993,3.52421 6.72993,7.87144 0,0.45761 -0.31716,0.82856 -0.70841,0.82856 -0.39125,0 -0.70842,-0.37095 -0.70842,-0.82856 0,-3.43202 -2.37875,-6.21431 -5.3131,-6.21431 -2.93435,0 -5.31311,2.78229 -5.31311,6.21431 0,0.45761 -0.31716,0.82856 -0.70842,0.82856 z"
         id="path3796-3"
         inkscape:connector-curvature="0" />
      <path
         inkscape:connector-curvature="0"
         style="display:inline;opacity:0.2;fill:#000000;fill-opacity:1;stroke:none;stroke-width:1.81785619;stroke-miterlimit:4;stroke-dasharray:none;stroke-opacity:1;enable-background:new"
         d="m 421.5362,109.00088 c -0.29397,-0.0138 -0.56573,0.19088 -0.53141,0.42066 0.50587,3.38721 0.66994,6.7753 0,10.1625 -0.0452,0.22863 0.2373,0.42661 0.53141,0.41547 4.4638,4.9e-4 8.4638,4.9e-4 12.9284,0 0.29409,0.0116 0.5721,-0.18633 0.53142,-0.41547 -0.5783,-3.25732 -0.60229,-6.64004 0,-10.1625 0.0392,-0.22929 -0.23758,-0.43688 -0.53142,-0.42066 -4.37382,0.24135 -8.67243,0.20101 -12.9284,0 z m 3.45343,1.27739 c 0.29343,0 0.53142,0.22319 0.53142,0.49851 0,0.27533 -0.23799,0.49852 -0.53142,0.49852 -0.29344,0 -0.53122,-0.22319 -0.53122,-0.49852 0,-0.27532 0.23778,-0.49851 0.53122,-0.49851 z m 6.02155,0 c 0.29343,0 0.53122,0.22319 0.53122,0.49851 0,0.27533 -0.23779,0.49852 -0.53122,0.49852 -0.29344,0 -0.53122,-0.22319 -0.53122,-0.49852 0,-0.27532 0.23778,-0.49851 0.53122,-0.49851 z"
         id="rect2985-99-2"
         sodipodi:nodetypes="cccccscccssssssssss" />
      <path
         inkscape:connector-curvature="0"
         style="display:inline;fill:#fafafa;fill-opacity:1;stroke:none;stroke-width:1.81785619;stroke-miterlimit:4;stroke-dasharray:none;stroke-opacity:1;enable-background:new"
         d="m 421.5362,108.00089 c -0.29397,-0.0138 -0.56573,0.19088 -0.53141,0.42066 0.50587,3.38721 0.66994,6.7753 0,10.1625 -0.0452,0.22863 0.2373,0.42661 0.53141,0.41547 4.4638,4.8e-4 8.4638,4.8e-4 12.9284,0 0.29409,0.0116 0.5721,-0.18633 0.53142,-0.41547 -0.5783,-3.25732 -0.60229,-6.64004 0,-10.1625 0.0392,-0.22929 -0.23758,-0.43688 -0.53142,-0.42066 -4.37382,0.24135 -8.67243,0.20101 -12.9284,0 z m 3.45343,1.27739 c 0.29343,0 0.53142,0.22319 0.53142,0.49851 0,0.27533 -0.23799,0.49852 -0.53142,0.49852 -0.29344,0 -0.53122,-0.22319 -0.53122,-0.49852 0,-0.27532 0.23778,-0.49851 0.53122,-0.49851 z m 6.02155,0 c 0.29343,0 0.53122,0.22319 0.53122,0.49851 0,0.27533 -0.23779,0.49852 -0.53122,0.49852 -0.29344,0 -0.53122,-0.22319 -0.53122,-0.49852 0,-0.27532 0.23778,-0.49851 0.53122,-0.49851 z"
         id="rect2985-99"
         sodipodi:nodetypes="cccccscccssssssssss" />
      <path
         id="path5652-7"
         d="m 425,112 0,5.25 0,0.19444 c 0,0.86178 0.73458,1.55556 1.64706,1.55556 l 3.70589,0 C 431.26541,119 432,118.30622 432,117.44444 l 0,-0.19444 0,-2.72222 c 0,-0.75173 -0.64522,-1.3611 -1.44117,-1.3611 -0.40439,0 -0.76769,0.15975 -1.02942,0.4132 -0.26172,-0.25337 -0.62503,-0.4132 -1.02942,-0.4132 -0.79593,0 -1.44116,0.60937 -1.44116,1.3611 l 0,2.33331 0.82353,0 0,-2.33331 c 0,-0.32215 0.27652,-0.58333 0.61763,-0.58333 0.34115,0 0.61765,0.26118 0.61765,0.58333 l 0,2.33331 0.82352,0 0,-2.33331 c 0,-0.32215 0.27657,-0.58333 0.61767,-0.58333 0.34111,0 0.61765,0.26118 0.61765,0.58333 l 0,2.72222 0,0.19444 c 0,0.43088 -0.36732,0.77778 -0.82354,0.77778 l -3.70589,0 c -0.45625,0 -0.82353,-0.3469 -0.82353,-0.77778 l 0,-0.19444 0,-5.25 L 425,112 Z"
         style="color:#000000;display:inline;overflow:visible;visibility:visible;fill:#000000;fill-opacity:1;fill-rule:nonzero;stroke:none;stroke-width:2;marker:none;enable-background:accumulate;opacity:0.2"
         inkscape:connector-curvature="0" />
      <path
         id="path5652"
         d="m 425,111 0,5.25 0,0.19444 c 0,0.86178 0.73458,1.55556 1.64706,1.55556 l 3.70589,0 C 431.26541,118 432,117.30622 432,116.44444 l 0,-0.19444 0,-2.72222 c 0,-0.75173 -0.64522,-1.3611 -1.44117,-1.3611 -0.40439,0 -0.76769,0.15975 -1.02942,0.4132 -0.26172,-0.25337 -0.62503,-0.4132 -1.02942,-0.4132 -0.79593,0 -1.44116,0.60937 -1.44116,1.3611 l 0,2.33331 0.82353,0 0,-2.33331 c 0,-0.32215 0.27652,-0.58333 0.61763,-0.58333 0.34115,0 0.61765,0.26118 0.61765,0.58333 l 0,2.33331 0.82352,0 0,-2.33331 c 0,-0.32215 0.27657,-0.58333 0.61767,-0.58333 0.34111,0 0.61765,0.26118 0.61765,0.58333 l 0,2.72222 0,0.19444 c 0,0.43088 -0.36732,0.77778 -0.82354,0.77778 l -3.70589,0 c -0.45625,0 -0.82353,-0.3469 -0.82353,-0.77778 l 0,-0.19444 0,-5.25 L 425,111 Z"
         style="color:#000000;display:inline;overflow:visible;visibility:visible;fill:#87cf3e;fill-opacity:1;fill-rule:nonzero;stroke:none;stroke-width:2;marker:none;enable-background:accumulate"
         inkscape:connector-curvature="0" />
      <path
         style="color:#000000;display:inline;overflow:visible;visibility:visible;opacity:0.2;fill:#000000;fill-opacity:1;fill-rule:nonzero;stroke:#000000;stroke-width:0.30000001;stroke-linecap:butt;stroke-linejoin:miter;stroke-miterlimit:4;stroke-dasharray:none;stroke-dashoffset:0;stroke-opacity:1;marker:none;enable-background:accumulate"
         d="m 424.98924,110.55 c -0.19562,0 -0.35421,-0.17056 -0.35421,-0.38095 0,-1.99873 1.50655,-3.61905 3.36497,-3.61905 1.85842,0 3.36497,1.62032 3.36497,3.61905 0,0.21039 -0.15858,0.38095 -0.35421,0.38095 -0.19562,0 -0.35421,-0.17056 -0.35421,-0.38095 0,-1.57794 -1.18937,-2.85715 -2.65655,-2.85715 -1.46717,0 -2.65655,1.27921 -2.65655,2.85715 0,0.21039 -0.15859,0.38095 -0.35421,0.38095 z"
         id="path3796-4-4"
         inkscape:connector-curvature="0" />
      <path
         style="color:#000000;display:inline;overflow:visible;visibility:visible;fill:#f5f5f5;fill-opacity:1;fill-rule:nonzero;stroke:#f5f5f5;stroke-width:0.30000001;stroke-linecap:butt;stroke-linejoin:miter;stroke-miterlimit:4;stroke-dasharray:none;stroke-dashoffset:0;stroke-opacity:1;marker:none;enable-background:accumulate"
         d="m 424.98924,109.55 c -0.19562,0 -0.35421,-0.17056 -0.35421,-0.38095 0,-1.99873 1.50655,-3.61905 3.36497,-3.61905 1.85842,0 3.36497,1.62032 3.36497,3.61905 0,0.21039 -0.15858,0.38095 -0.35421,0.38095 -0.19562,0 -0.35421,-0.17056 -0.35421,-0.38095 0,-1.57794 -1.18937,-2.85715 -2.65655,-2.85715 -1.46717,0 -2.65655,1.27921 -2.65655,2.85715 0,0.21039 -0.15859,0.38095 -0.35421,0.38095 z"
         id="path3796-4"
         inkscape:connector-curvature="0" />
      <path
         sodipodi:nodetypes="cscccssccssssssssss"
         inkscape:connector-curvature="0"
         style="display:inline;opacity:0.2;fill:#000000;fill-opacity:1;stroke:none;stroke-width:1.81785619;stroke-miterlimit:4;stroke-dasharray:none;stroke-opacity:1;enable-background:new"
         d="m 419.38301,146.00065 c -0.20999,-0.0103 -0.4041,0.13883 -0.37959,0.30594 0.36134,2.46344 0.47853,4.92749 0,7.39093 -0.0323,0.16627 0.16951,0.31025 0.37959,0.30215 3.61699,3.3e-4 5.61699,3.3e-4 9.23457,0 0.21006,0.008 0.40864,-0.13551 0.37958,-0.30215 -0.41307,-2.36897 -0.43021,-4.82913 0,-7.39093 0.028,-0.16676 -0.1697,-0.31772 -0.37958,-0.30594 -3.12417,0.17554 -6.1946,0.1462 -9.23457,0 z m 2.46673,0.92902 c 0.20959,0 0.37958,0.16232 0.37958,0.36255 0,0.20024 -0.16999,0.36256 -0.37958,0.36256 -0.2096,0 -0.37945,-0.16232 -0.37945,-0.36256 0,-0.20023 0.16985,-0.36255 0.37945,-0.36255 z m 4.3011,0 c 0.2096,0 0.37945,0.16232 0.37945,0.36255 0,0.20024 -0.16985,0.36256 -0.37945,0.36256 -0.20959,0 -0.37944,-0.16232 -0.37944,-0.36256 0,-0.20023 0.16985,-0.36255 0.37944,-0.36255 z"
         id="rect2985-935-5" />
      <path
         sodipodi:nodetypes="cscccssccssssssssss"
         inkscape:connector-curvature="0"
         style="display:inline;fill:#fafafa;fill-opacity:1;stroke:none;stroke-width:1.81785619;stroke-miterlimit:4;stroke-dasharray:none;stroke-opacity:1;enable-background:new"
         d="m 419.38301,145.00065 c -0.20999,-0.0103 -0.4041,0.13883 -0.37959,0.30594 0.36134,2.46344 0.47853,4.92749 0,7.39093 -0.0323,0.16627 0.16951,0.31025 0.37959,0.30215 3.61699,3.3e-4 5.61699,3.3e-4 9.23457,0 0.21006,0.008 0.40864,-0.13551 0.37958,-0.30215 -0.41307,-2.36897 -0.43021,-4.82913 0,-7.39093 0.028,-0.16676 -0.1697,-0.31772 -0.37958,-0.30594 -3.12417,0.17554 -6.1946,0.1462 -9.23457,0 z m 2.46673,0.92902 c 0.20959,0 0.37958,0.16232 0.37958,0.36255 0,0.20024 -0.16999,0.36256 -0.37958,0.36256 -0.2096,0 -0.37945,-0.16232 -0.37945,-0.36256 0,-0.20023 0.16985,-0.36255 0.37945,-0.36255 z m 4.3011,0 c 0.2096,0 0.37945,0.16232 0.37945,0.36255 0,0.20024 -0.16985,0.36256 -0.37945,0.36256 -0.20959,0 -0.37944,-0.16232 -0.37944,-0.36256 0,-0.20023 0.16985,-0.36255 0.37944,-0.36255 z"
         id="rect2985-935" />
      <path
         style="color:#000000;display:inline;overflow:visible;visibility:visible;opacity:0.2;fill:#000000;fill-opacity:1;fill-rule:nonzero;stroke:#000000;stroke-width:0.2;stroke-linecap:butt;stroke-linejoin:miter;stroke-miterlimit:4;stroke-dasharray:none;stroke-dashoffset:0;stroke-opacity:1;marker:none;enable-background:accumulate"
         d="m 421.84975,147.1 c -0.13973,0 -0.253,-0.12792 -0.253,-0.28572 0,-1.49904 1.0761,-2.71428 2.40355,-2.71428 1.32744,0 2.40355,1.21524 2.40355,2.71428 0,0.1578 -0.11328,0.28572 -0.25301,0.28572 -0.13973,0 -0.25301,-0.12792 -0.25301,-0.28572 0,-1.18345 -0.84955,-2.14286 -1.89753,-2.14286 -1.04799,0 -1.89754,0.95941 -1.89754,2.14286 0,0.1578 -0.11328,0.28572 -0.25301,0.28572 z"
         id="path3796-7-2"
         inkscape:connector-curvature="0" />
      <path
         style="color:#000000;display:inline;overflow:visible;visibility:visible;fill:#f5f5f5;fill-opacity:1;fill-rule:nonzero;stroke:#f5f5f5;stroke-width:0.2;stroke-linecap:butt;stroke-linejoin:miter;stroke-miterlimit:4;stroke-dasharray:none;stroke-dashoffset:0;stroke-opacity:1;marker:none;enable-background:accumulate"
         d="m 421.84975,146.1 c -0.13973,0 -0.253,-0.12792 -0.253,-0.28572 0,-1.49904 1.0761,-2.71428 2.40355,-2.71428 1.32744,0 2.40355,1.21524 2.40355,2.71428 0,0.1578 -0.11328,0.28572 -0.25301,0.28572 -0.13973,0 -0.25301,-0.12792 -0.25301,-0.28572 0,-1.18345 -0.84955,-2.14286 -1.89753,-2.14286 -1.04799,0 -1.89754,0.95941 -1.89754,2.14286 0,0.1578 -0.11328,0.28572 -0.25301,0.28572 z"
         id="path3796-7"
         inkscape:connector-curvature="0" />
      <path
         inkscape:connector-curvature="0"
         style="display:inline;fill:#fafafa;fill-opacity:1;stroke:none;stroke-width:1.81785619;stroke-miterlimit:4;stroke-dasharray:none;stroke-opacity:1;enable-background:new"
         d="m 302.45541,160.00243 c -0.79792,-0.0379 -1.53556,0.5206 -1.44242,1.14726 1.3731,9.23784 1.81841,18.47807 0,27.71591 -0.12272,0.62351 0.64413,1.16346 1.44242,1.13307 C 314,190 326,190 337.54678,189.99867 c 0.79823,0.0317 1.55285,-0.50815 1.44242,-1.13307 -1.56967,-8.88362 -1.63478,-18.10921 0,-27.71591 0.10641,-0.62534 -0.64485,-1.19149 -1.44242,-1.14726 -11.87181,0.65823 -23.53946,0.54821 -35.09137,0 z m 9.37358,3.4838 c 0.79647,0 1.44242,0.60868 1.44242,1.35957 0,0.75089 -0.64595,1.35957 -1.44242,1.35957 -0.79646,0 -1.44188,-0.60868 -1.44188,-1.35957 0,-0.75089 0.64542,-1.35957 1.44188,-1.35957 z m 16.34421,0 c 0.79646,0 1.44188,0.60868 1.44188,1.35957 0,0.75089 -0.64542,1.35957 -1.44188,1.35957 -0.79647,0 -1.44189,-0.60868 -1.44189,-1.35957 0,-0.75089 0.64542,-1.35957 1.44189,-1.35957 z"
         id="rect2985-9"
         sodipodi:nodetypes="csccccsccssssssssss" />
      <path
         style="color:#000000;display:inline;overflow:visible;visibility:visible;opacity:0.2;fill:#000000;fill-opacity:1;fill-rule:nonzero;stroke:none;stroke-width:1.81785619;stroke-linecap:butt;stroke-linejoin:miter;stroke-miterlimit:4;stroke-dasharray:none;stroke-dashoffset:0;stroke-opacity:1;marker:none;enable-background:accumulate"
         d="m 311.82793,166.03498 c -0.53097,0 -0.96142,-0.51315 -0.96142,-1.14618 0,-6.01365 4.0892,-10.8888 9.13349,-10.8888 5.04428,0 9.13349,4.87515 9.13349,10.8888 0,0.63303 -0.43044,1.14618 -0.96142,1.14618 -0.53098,0 -0.96142,-0.51315 -0.96142,-1.14618 0,-4.74761 -3.22831,-8.59644 -7.21065,-8.59644 -3.98233,0 -7.21065,3.84883 -7.21065,8.59644 0,0.63303 -0.43044,1.14618 -0.96142,1.14618 z"
         id="path3796-0-6"
         inkscape:connector-curvature="0" />
      <path
         style="color:#000000;display:inline;overflow:visible;visibility:visible;fill:#f5f5f5;fill-opacity:1;fill-rule:nonzero;stroke:none;stroke-width:1.81785619;stroke-linecap:butt;stroke-linejoin:miter;stroke-miterlimit:4;stroke-dasharray:none;stroke-dashoffset:0;stroke-opacity:1;marker:none;enable-background:accumulate"
         d="m 311.82793,165.03498 c -0.53097,0 -0.96142,-0.51315 -0.96142,-1.14618 0,-6.01365 4.0892,-10.8888 9.13349,-10.8888 5.04428,0 9.13349,4.87515 9.13349,10.8888 0,0.63303 -0.43044,1.14618 -0.96142,1.14618 -0.53098,0 -0.96142,-0.51315 -0.96142,-1.14618 0,-4.74761 -3.22831,-8.59644 -7.21065,-8.59644 -3.98233,0 -7.21065,3.84883 -7.21065,8.59644 0,0.63303 -0.43044,1.14618 -0.96142,1.14618 z"
         id="path3796-0"
         inkscape:connector-curvature="0" />
      <path
         sodipodi:nodetypes="cscccssccssssssssss"
         inkscape:connector-curvature="0"
         style="display:inline;fill:#000000;fill-opacity:1;stroke:none;stroke-width:1.81785619;stroke-miterlimit:4;stroke-dasharray:none;stroke-opacity:1;enable-background:new;opacity:0.2"
         d="m 73.821662,111.00956 c -3.191702,-0.14891 -6.14225,2.04769 -5.769681,4.51254 5.492399,36.3355 7.273652,72.68041 0,109.01594 -0.490903,2.45249 2.576501,4.57628 5.769681,4.45673 C 121,229 167,229 214.18715,228.99477 c 3.19293,0.12473 6.21138,-1.99869 5.76968,-4.45673 -6.27868,-34.94226 -6.53912,-71.22958 0,-109.01594 0.42564,-2.45966 -2.57939,-4.68651 -5.76968,-4.51254 -47.48725,2.58902 -94.15785,2.1563 -140.365488,0 z m 37.494328,13.70293 c 3.18588,0 5.76969,2.39415 5.76969,5.34764 0,2.9535 -2.58381,5.34765 -5.76969,5.34765 -3.18585,0 -5.76753,-2.39415 -5.76753,-5.34765 0,-2.95349 2.58168,-5.34764 5.76753,-5.34764 z m 65.37683,0 c 3.18585,0 5.76753,2.39415 5.76753,5.34764 0,2.9535 -2.58168,5.34765 -5.76753,5.34765 -3.18586,0 -5.76754,-2.39415 -5.76754,-5.34765 0,-2.95349 2.58168,-5.34764 5.76754,-5.34764 z"
         id="rect2985-5" />
      <path
         sodipodi:nodetypes="cscccssccssssssssss"
         inkscape:connector-curvature="0"
         style="display:inline;fill:#fafafa;fill-opacity:1;stroke:none;stroke-width:1.81785619;stroke-miterlimit:4;stroke-dasharray:none;stroke-opacity:1;enable-background:new"
         d="m 73.821663,110.00956 c -3.191702,-0.14891 -6.142251,2.04769 -5.769682,4.51254 5.4924,36.3355 7.273653,72.68041 0,109.01594 -0.490903,2.45249 2.576502,4.57628 5.769682,4.45673 C 121,228 167,228 214.18715,227.99477 c 3.19293,0.12473 6.21138,-1.99869 5.76968,-4.45673 -6.27868,-34.94226 -6.53912,-71.22958 0,-109.01594 0.42564,-2.45966 -2.57939,-4.68651 -5.76968,-4.51254 -47.48725,2.58902 -94.15785,2.1563 -140.365487,0 z m 37.494327,13.70293 c 3.18588,0 5.76969,2.39415 5.76969,5.34764 0,2.9535 -2.58381,5.34765 -5.76969,5.34765 -3.18585,0 -5.76753,-2.39415 -5.76753,-5.34765 0,-2.95349 2.58168,-5.34764 5.76753,-5.34764 z m 65.37683,0 c 3.18585,0 5.76753,2.39415 5.76753,5.34764 0,2.9535 -2.58168,5.34765 -5.76753,5.34765 -3.18586,0 -5.76754,-2.39415 -5.76754,-5.34765 0,-2.95349 2.58168,-5.34764 5.76754,-5.34764 z"
         id="rect2985" />
      <path
         style="color:#000000;display:inline;overflow:visible;visibility:visible;opacity:0.2;fill:#000000;fill-opacity:1;fill-rule:nonzero;stroke:none;stroke-width:1.81785619;stroke-linecap:butt;stroke-linejoin:miter;stroke-miterlimit:4;stroke-dasharray:none;stroke-dashoffset:0;stroke-opacity:1;marker:none;enable-background:accumulate"
         d="m 111.31174,133.13989 c -2.12391,0 -3.84568,-2.05258 -3.84568,-4.58472 0,-24.0546 16.3568,-43.555173 36.53394,-43.555173 20.17713,0 36.53396,19.500573 36.53396,43.555173 0,2.53214 -1.72175,4.58472 -3.84569,4.58472 -2.12389,0 -3.84568,-2.05258 -3.84568,-4.58472 0,-18.99044 -12.91324,-34.385731 -28.84259,-34.385731 -15.92932,0 -28.84259,15.395291 -28.84259,34.385731 0,2.53214 -1.72177,4.58472 -3.84567,4.58472 z"
         id="path3796-73"
         inkscape:connector-curvature="0" />
      <path
         style="color:#000000;display:inline;overflow:visible;visibility:visible;fill:#f5f5f5;fill-opacity:1;fill-rule:nonzero;stroke:none;stroke-width:1.81785619;stroke-linecap:butt;stroke-linejoin:miter;stroke-miterlimit:4;stroke-dasharray:none;stroke-dashoffset:0;stroke-opacity:1;marker:none;enable-background:accumulate"
         d="m 111.31174,132.13989 c -2.12391,0 -3.84568,-2.05258 -3.84568,-4.58472 0,-24.0546 16.3568,-43.555173 36.53394,-43.555173 20.17713,0 36.53396,19.500573 36.53396,43.555173 0,2.53214 -1.72175,4.58472 -3.84569,4.58472 -2.12389,0 -3.84568,-2.05258 -3.84568,-4.58472 0,-18.99044 -12.91324,-34.385731 -28.84259,-34.385731 -15.92932,0 -28.84259,15.395291 -28.84259,34.385731 0,2.53214 -1.72177,4.58472 -3.84567,4.58472 z"
         id="path3796"
         inkscape:connector-curvature="0" />
      <path
         id="path5598-9"
         d="m 305,242 0,10.50001 0,0.38888 c 0,1.72356 1.46917,3.11111 3.29412,3.11111 l 7.41176,0 C 317.53083,256 319,254.61245 319,252.88889 l 0,-0.38888 0,-5.44445 c 0,-1.50344 -1.29047,-2.72222 -2.88236,-2.72222 -0.80874,0 -1.53535,0.3197 -2.0588,0.82639 -0.52348,-0.50669 -1.25006,-0.82639 -2.05883,-0.82639 -1.59188,0 -2.88236,1.21878 -2.88236,2.72222 l 0,4.66667 1.64706,0 0,-4.66667 c 0,-0.64434 0.55305,-1.16666 1.2353,-1.16666 0.68224,0 1.23527,0.52232 1.23527,1.16666 l 0,4.66667 1.64708,0 0,-4.66667 c 0,-0.64434 0.55306,-1.16666 1.23528,-1.16666 0.68224,0 1.23531,0.52232 1.23531,1.16666 l 0,5.44445 0,0.38888 c 0,0.86178 -0.7346,1.55556 -1.64707,1.55556 l -7.41176,0 c -0.91247,0 -1.64707,-0.69378 -1.64707,-1.55556 l 0,-0.38888 0,-10.50001 L 305,242 Z"
         style="color:#000000;display:inline;overflow:visible;visibility:visible;opacity:0.2;fill:#000000;fill-opacity:1;fill-rule:nonzero;stroke:none;stroke-width:2;marker:none;enable-background:accumulate"
         inkscape:connector-curvature="0" />
      <path
         id="path5598"
         d="m 305,241 0,10.50001 0,0.38888 c 0,1.72356 1.46917,3.11111 3.29412,3.11111 l 7.41176,0 C 317.53083,255 319,253.61245 319,251.88889 l 0,-0.38888 0,-5.44445 c 0,-1.50344 -1.29047,-2.72222 -2.88236,-2.72222 -0.80874,0 -1.53535,0.3197 -2.0588,0.82639 -0.52348,-0.50669 -1.25006,-0.82639 -2.05883,-0.82639 -1.59188,0 -2.88236,1.21878 -2.88236,2.72222 l 0,4.66667 1.64706,0 0,-4.66667 c 0,-0.64434 0.55305,-1.16666 1.2353,-1.16666 0.68224,0 1.23527,0.52232 1.23527,1.16666 l 0,4.66667 1.64708,0 0,-4.66667 c 0,-0.64434 0.55306,-1.16666 1.23528,-1.16666 0.68224,0 1.23531,0.52232 1.23531,1.16666 l 0,5.44445 0,0.38888 c 0,0.86178 -0.7346,1.55556 -1.64707,1.55556 l -7.41176,0 c -0.91247,0 -1.64707,-0.69378 -1.64707,-1.55556 l 0,-0.38888 0,-10.50001 L 305,241 Z"
         style="color:#000000;display:inline;overflow:visible;visibility:visible;fill:#87cf3e;fill-opacity:1;fill-rule:nonzero;stroke:none;stroke-width:2;marker:none;enable-background:accumulate"
         inkscape:connector-curvature="0" />
      <path
         inkscape:connector-curvature="0"
         style="color:#000000;display:inline;overflow:visible;visibility:visible;fill:#000000;fill-opacity:1;fill-rule:nonzero;stroke:none;stroke-width:2;marker:none;enable-background:accumulate;opacity:0.2"
         d="m 311.49999,170 0,13.5 0,0.5 c 0,2.216 1.784,4 4.00001,4 l 9,0 c 2.21599,0 4,-1.784 4,-4 l 0,-0.5 0,-7 c 0,-1.93299 -1.56701,-3.49999 -3.49999,-3.49999 -0.98208,0 -1.86439,0.41103 -2.50002,1.0625 -0.63563,-0.65146 -1.51792,-1.0625 -2.5,-1.0625 -1.933,0 -3.5,1.567 -3.5,3.49999 l 0,6.00001 2,0 0,-6.00001 c 0,-0.82843 0.67158,-1.5 1.5,-1.5 0.82843,0 1.50001,0.67157 1.50001,1.5 l 0,6.00001 2,0 0,-6.00001 c 0,-0.82843 0.67156,-1.5 1.50001,-1.5 0.8284,0 1.49998,0.67157 1.49998,1.5 l 0,7 0,0.5 c 0,1.10801 -0.892,2 -1.99999,2 l -9,0 c -1.108,0 -2.00001,-0.89199 -2.00001,-2 l 0,-0.5 0,-13.5 -2,0 z"
         id="path5616-1" />
      <path
         inkscape:connector-curvature="0"
         style="color:#000000;display:inline;overflow:visible;visibility:visible;fill:#87cf3e;fill-opacity:1;fill-rule:nonzero;stroke:none;stroke-width:2;marker:none;enable-background:accumulate"
         d="m 311.49999,169 0,13.5 0,0.5 c 0,2.216 1.784,4 4.00001,4 l 9,0 c 2.21599,0 4,-1.784 4,-4 l 0,-0.5 0,-7 c 0,-1.93299 -1.56701,-3.49999 -3.49999,-3.49999 -0.98208,0 -1.86439,0.41103 -2.50002,1.0625 -0.63563,-0.65146 -1.51792,-1.0625 -2.5,-1.0625 -1.933,0 -3.5,1.567 -3.5,3.49999 l 0,6.00001 2,0 0,-6.00001 c 0,-0.82843 0.67158,-1.5 1.5,-1.5 0.82843,0 1.50001,0.67157 1.50001,1.5 l 0,6.00001 2,0 0,-6.00001 c 0,-0.82843 0.67156,-1.5 1.50001,-1.5 0.8284,0 1.49998,0.67157 1.49998,1.5 l 0,7 0,0.5 c 0,1.10801 -0.892,2 -1.99999,2 l -9,0 c -1.108,0 -2.00001,-0.89199 -2.00001,-2 l 0,-0.5 0,-13.5 -2,0 z"
         id="path5616" />
      <path
         id="path5634-9"
         d="m 110,145 0,54.00001 0,2.00002 C 110,209.86401 117.13599,217 125.99999,217 l 36,0 c 8.86401,0 16.00002,-7.13599 16.00002,-15.99997 l 0,-2.00002 0,-28.00002 c 0,-7.732 -6.26802,-13.99999 -14,-13.99999 -3.92829,0 -7.45748,1.64415 -10.00002,4.25 -2.5425,-2.60585 -6.07171,-4.25 -10.00001,-4.25 -7.73196,0 -13.99997,6.26799 -13.99997,13.99999 l 0,24 8.00001,0 0,-24 c 0,-3.31367 2.68629,-5.99998 5.99996,-5.99998 3.31374,0 6.00004,2.68631 6.00004,5.99998 l 0,24 8,0 0,-24 c 0,-3.31367 2.68629,-5.99998 5.99999,-5.99998 3.31368,0 6,2.68631 6,5.99998 l 0,28.00002 0,2.00002 c 0,4.43197 -3.568,7.99998 -8.00002,7.99998 l -36,0 c -4.43197,0 -8,-3.56801 -8,-7.99998 l 0,-2.00002 0,-54.00001 L 110,145 Z"
         style="color:#000000;display:inline;overflow:visible;visibility:visible;fill:#000000;fill-opacity:1;fill-rule:nonzero;stroke:none;stroke-width:2;marker:none;enable-background:accumulate;opacity:0.2"
         inkscape:connector-curvature="0" />
      <path
         id="path5634"
         d="m 110,144 0,54.00001 0,2.00002 C 110,208.86401 117.13599,216 125.99999,216 l 36,0 c 8.86401,0 16.00002,-7.13599 16.00002,-15.99997 l 0,-2.00002 0,-28.00002 c 0,-7.732 -6.26802,-13.99999 -14,-13.99999 -3.92829,0 -7.45748,1.64415 -10.00002,4.25 -2.5425,-2.60585 -6.07171,-4.25 -10.00001,-4.25 -7.73196,0 -13.99997,6.26799 -13.99997,13.99999 l 0,24 8.00001,0 0,-24 c 0,-3.31367 2.68629,-5.99998 5.99996,-5.99998 3.31374,0 6.00004,2.68631 6.00004,5.99998 l 0,24 8,0 0,-24 c 0,-3.31367 2.68629,-5.99998 5.99999,-5.99998 3.31368,0 6,2.68631 6,5.99998 l 0,28.00002 0,2.00002 c 0,4.43197 -3.568,7.99998 -8.00002,7.99998 l -36,0 c -4.43197,0 -8,-3.56801 -8,-7.99998 l 0,-2.00002 0,-54.00001 L 110,144 Z"
         style="color:#000000;display:inline;overflow:visible;visibility:visible;fill:#87cf3e;fill-opacity:1;fill-rule:nonzero;stroke:none;stroke-width:2;marker:none;enable-background:accumulate"
         inkscape:connector-curvature="0" />
      <path
         inkscape:connector-curvature="0"
         style="display:inline;fill:#fafafa;fill-opacity:1;stroke:none;stroke-width:1.81785619;stroke-miterlimit:4;stroke-dasharray:none;stroke-opacity:1;enable-background:new"
         d="m 310.40569,59.003565 c -1.17589,-0.05552 -2.26293,0.763542 -2.12567,1.68264 2.02352,13.548833 2.67977,27.101171 0,40.650005 -0.18086,0.91449 0.94924,1.70642 2.12567,1.66184 17.59431,0.002 34.59431,0.002 51.7136,0 1.17634,0.0465 2.2884,-0.74528 2.12567,-1.66184 -2.3132,-13.029311 -2.40915,-26.560172 0,-40.650005 0.15682,-0.91716 -0.9503,-1.747513 -2.12567,-1.68264 -17.4953,0.965394 -34.68973,0.804044 -51.7136,0 z m 13.8137,5.109566 c 1.17375,0 2.12567,0.892736 2.12567,1.994039 0,1.101303 -0.95192,1.994035 -2.12567,1.994035 -1.17373,0 -2.12488,-0.892732 -2.12488,-1.994035 0,-1.101303 0.95115,-1.994039 2.12488,-1.994039 z m 24.0862,0 c 1.17373,0 2.12488,0.892736 2.12488,1.994039 0,1.101303 -0.95115,1.994035 -2.12488,1.994035 -1.17374,0 -2.12488,-0.892732 -2.12488,-1.994035 0,-1.101303 0.95114,-1.994039 2.12488,-1.994039 z"
         id="rect2985-2"
         sodipodi:nodetypes="cscccssccssssssssss" />
      <path
         style="color:#000000;display:inline;overflow:visible;visibility:visible;opacity:0.2;fill:#000000;fill-opacity:1;fill-rule:nonzero;stroke:none;stroke-width:1.81785619;stroke-linecap:butt;stroke-linejoin:miter;stroke-miterlimit:4;stroke-dasharray:none;stroke-dashoffset:0;stroke-opacity:1;marker:none;enable-background:accumulate"
         d="m 323.95695,67.73575 c -0.78249,0 -1.41683,-0.756216 -1.41683,-1.689108 C 322.54012,57.18442 328.56631,50 336,50 c 7.43367,0 13.45987,7.18442 13.45987,16.046642 0,0.932892 -0.63432,1.689108 -1.41683,1.689108 -0.78249,0 -1.41683,-0.756216 -1.41683,-1.689108 0,-6.996479 -4.75751,-12.668427 -10.62621,-12.668427 -5.8687,0 -10.62622,5.671948 -10.62622,12.668427 0,0.932892 -0.63434,1.689108 -1.41683,1.689108 z"
         id="path3796-6-2"
         inkscape:connector-curvature="0" />
      <path
         style="color:#000000;display:inline;overflow:visible;visibility:visible;fill:#f5f5f5;fill-opacity:1;fill-rule:nonzero;stroke:none;stroke-width:1.81785619;stroke-linecap:butt;stroke-linejoin:miter;stroke-miterlimit:4;stroke-dasharray:none;stroke-dashoffset:0;stroke-opacity:1;marker:none;enable-background:accumulate"
         d="m 323.95695,66.73575 c -0.78249,0 -1.41683,-0.756216 -1.41683,-1.689108 C 322.54012,56.18442 328.56631,49 336,49 c 7.43367,0 13.45987,7.18442 13.45987,16.046642 0,0.932892 -0.63432,1.689108 -1.41683,1.689108 -0.78249,0 -1.41683,-0.756216 -1.41683,-1.689108 0,-6.996479 -4.75751,-12.668427 -10.62621,-12.668427 -5.8687,0 -10.62622,5.671948 -10.62622,12.668427 0,0.932892 -0.63434,1.689108 -1.41683,1.689108 z"
         id="path3796-6"
         inkscape:connector-curvature="0" />
      <path
         inkscape:connector-curvature="0"
         style="color:#000000;display:inline;overflow:visible;visibility:visible;fill:#000000;fill-opacity:1;fill-rule:nonzero;stroke:none;stroke-width:2;marker:none;enable-background:accumulate;opacity:0.2"
         d="m 323.51087,72 0,20.249999 0,0.750002 C 323.51087,96.324 326.18686,99 329.51086,99 l 13.5,0 c 3.32401,0 6,-2.676 6,-5.999999 l 0,-0.750002 0,-10.499999 c 0,-2.899495 -2.35048,-5.249999 -5.24999,-5.249999 -1.4731,0 -2.79656,0.616571 -3.75,1.593747 -0.95343,-0.977176 -2.2769,-1.593747 -3.74998,-1.593747 -2.89952,0 -5.25,2.350504 -5.25,5.249999 l 0,8.999998 3,0 0,-8.999998 c 0,-1.242642 1.00736,-2.249999 2.25,-2.249999 1.24264,0 2.24999,1.007357 2.24999,2.249999 l 0,8.999998 3.00001,0 0,-8.999998 c 0,-1.242642 1.00735,-2.249999 2.24998,-2.249999 1.24263,0 2.25,1.007357 2.25,2.249999 l 0,10.499999 0,0.750002 C 346.01087,94.661998 344.67289,96 343.01086,96 l -13.5,0 c -1.66197,0 -3.00001,-1.338002 -3.00001,-2.999999 l 0,-0.750002 0,-20.249999 -2.99998,0 z"
         id="rect3392-7" />
      <path
         inkscape:connector-curvature="0"
         style="color:#000000;display:inline;overflow:visible;visibility:visible;fill:#87cf3e;fill-opacity:1;fill-rule:nonzero;stroke:none;stroke-width:2;marker:none;enable-background:accumulate"
         d="m 323.51087,71 0,20.249999 0,0.750002 C 323.51087,95.324 326.18686,98 329.51086,98 l 13.5,0 c 3.32401,0 6,-2.676 6,-5.999999 l 0,-0.750002 0,-10.499999 c 0,-2.899495 -2.35048,-5.249999 -5.24999,-5.249999 -1.4731,0 -2.79656,0.616571 -3.75,1.593747 -0.95343,-0.977176 -2.2769,-1.593747 -3.74998,-1.593747 -2.89952,0 -5.25,2.350504 -5.25,5.249999 l 0,8.999998 3,0 0,-8.999998 c 0,-1.242642 1.00736,-2.249999 2.25,-2.249999 1.24264,0 2.24999,1.007357 2.24999,2.249999 l 0,8.999998 3.00001,0 0,-8.999998 c 0,-1.242642 1.00735,-2.249999 2.24998,-2.249999 1.24263,0 2.25,1.007357 2.25,2.249999 l 0,10.499999 0,0.750002 C 346.01087,93.661998 344.67289,95 343.01086,95 l -13.5,0 c -1.66197,0 -3.00001,-1.338002 -3.00001,-2.999999 l 0,-0.750002 0,-20.249999 -2.99998,0 z"
         id="rect3392" />
      <path
         sodipodi:nodetypes="cscccssccssssssssss"
         inkscape:connector-curvature="0"
         style="display:inline;opacity:0.2;fill:#000000;fill-opacity:1;stroke:none;stroke-width:1.81785619;stroke-miterlimit:4;stroke-dasharray:none;stroke-opacity:1;enable-background:new"
         d="m 423.6894,64.001134 c -0.37796,-0.01767 -0.72737,0.242945 -0.68325,0.535386 0.65042,4.310992 0.86135,8.623099 0,12.934094 -0.0581,0.290973 0.30511,0.542949 0.68325,0.528765 C 429,78 435,78 440.31163,77.999379 c 0.37811,0.0148 0.73556,-0.237133 0.68325,-0.528765 -0.74353,-4.145692 -0.77437,-8.450966 0,-12.934094 0.0504,-0.291824 -0.30545,-0.556027 -0.68325,-0.535386 -5.62349,0.307171 -11.15027,0.255833 -16.62223,0 z m 4.44012,1.625772 c 0.37727,0 0.68325,0.284052 0.68325,0.634466 0,0.350415 -0.30598,0.634466 -0.68325,0.634466 -0.37727,0 -0.683,-0.284051 -0.683,-0.634466 0,-0.350414 0.30573,-0.634466 0.683,-0.634466 z m 7.74199,0 c 0.37727,0 0.683,0.284052 0.683,0.634466 0,0.350415 -0.30573,0.634466 -0.683,0.634466 -0.37727,0 -0.683,-0.284051 -0.683,-0.634466 0,-0.350414 0.30573,-0.634466 0.683,-0.634466 z"
         id="rect2985-93-8" />
      <path
         sodipodi:nodetypes="cscccssccssssssssss"
         inkscape:connector-curvature="0"
         style="display:inline;fill:#fafafa;fill-opacity:1;stroke:none;stroke-width:1.81785619;stroke-miterlimit:4;stroke-dasharray:none;stroke-opacity:1;enable-background:new"
         d="m 423.6894,63.001134 c -0.37796,-0.01767 -0.72737,0.242945 -0.68325,0.535386 0.65042,4.310992 0.86135,8.623099 0,12.934094 -0.0581,0.290973 0.30511,0.542949 0.68325,0.528765 C 429,77 435,77 440.31163,76.999379 c 0.37811,0.0148 0.73556,-0.237133 0.68325,-0.528765 -0.74353,-4.145692 -0.77437,-8.450966 0,-12.934094 0.0504,-0.291824 -0.30545,-0.556027 -0.68325,-0.535386 -5.62349,0.307171 -11.15027,0.255833 -16.62223,0 z m 4.44012,1.625772 c 0.37727,0 0.68325,0.284052 0.68325,0.634466 0,0.350415 -0.30598,0.634466 -0.68325,0.634466 -0.37727,0 -0.683,-0.284051 -0.683,-0.634466 0,-0.350414 0.30573,-0.634466 0.683,-0.634466 z m 7.74199,0 c 0.37727,0 0.683,0.284052 0.683,0.634466 0,0.350415 -0.30573,0.634466 -0.683,0.634466 -0.37727,0 -0.683,-0.284051 -0.683,-0.634466 0,-0.350414 0.30573,-0.634466 0.683,-0.634466 z"
         id="rect2985-93" />
      <path
         id="path5688-9"
         d="m 428,68 0,6 0,0.222222 C 428,75.207112 428.83954,76 429.88235,76 l 4.2353,0 C 435.16046,76 436,75.207112 436,74.222222 L 436,74 l 0,-3.111111 c 0,-0.859109 -0.73742,-1.555555 -1.64707,-1.555555 -0.46215,0 -0.87733,0.182687 -1.17647,0.472222 -0.29912,-0.289535 -0.71433,-0.472222 -1.17647,-0.472222 -0.90964,0 -1.64705,0.696446 -1.64705,1.555555 l 0,2.666667 0.94116,0 0,-2.666667 c 0,-0.368189 0.31605,-0.666668 0.70589,-0.666668 0.38986,0 0.70588,0.298479 0.70588,0.666668 l 0,2.666667 0.94117,0 0,-2.666667 c 0,-0.368189 0.31604,-0.666668 0.70589,-0.666668 0.38986,0 0.70588,0.298479 0.70588,0.666668 l 0,3.111111 0,0.222222 c 0,0.492445 -0.41976,0.88889 -0.94116,0.88889 l -4.2353,0 c -0.52142,0 -0.94118,-0.396445 -0.94118,-0.88889 l 0,-0.222222 0,-6 L 428,68 Z"
         style="color:#000000;display:inline;overflow:visible;visibility:visible;opacity:0.2;fill:#000000;fill-opacity:1;fill-rule:nonzero;stroke:none;stroke-width:2;marker:none;enable-background:accumulate"
         inkscape:connector-curvature="0" />
      <path
         id="path5688"
         d="m 428,67 0,6 0,0.222222 C 428,74.207112 428.83954,75 429.88235,75 l 4.2353,0 C 435.16046,75 436,74.207112 436,73.222222 L 436,73 l 0,-3.111111 c 0,-0.859109 -0.73742,-1.555555 -1.64707,-1.555555 -0.46215,0 -0.87733,0.182687 -1.17647,0.472222 -0.29912,-0.289535 -0.71433,-0.472222 -1.17647,-0.472222 -0.90964,0 -1.64705,0.696446 -1.64705,1.555555 l 0,2.666667 0.94116,0 0,-2.666667 c 0,-0.368189 0.31605,-0.666668 0.70589,-0.666668 0.38986,0 0.70588,0.298479 0.70588,0.666668 l 0,2.666667 0.94117,0 0,-2.666667 c 0,-0.368189 0.31604,-0.666668 0.70589,-0.666668 0.38986,0 0.70588,0.298479 0.70588,0.666668 l 0,3.111111 0,0.222222 c 0,0.492445 -0.41976,0.88889 -0.94116,0.88889 l -4.2353,0 c -0.52142,0 -0.94118,-0.396445 -0.94118,-0.88889 l 0,-0.222222 0,-6 L 428,67 Z"
         style="color:#000000;display:inline;overflow:visible;visibility:visible;fill:#87cf3e;fill-opacity:1;fill-rule:nonzero;stroke:none;stroke-width:2;marker:none;enable-background:accumulate"
         inkscape:connector-curvature="0" />
      <path
         style="color:#000000;display:inline;overflow:visible;visibility:visible;opacity:0.2;fill:#000000;fill-opacity:1;fill-rule:nonzero;stroke:#000000;stroke-width:0.30000001;stroke-linecap:butt;stroke-linejoin:miter;stroke-miterlimit:4;stroke-dasharray:none;stroke-dashoffset:0;stroke-opacity:1;marker:none;enable-background:accumulate"
         d="m 428.12901,66.175 c -0.25152,0 -0.45541,-0.22918 -0.45541,-0.511902 0,-2.685786 1.93699,-4.863098 4.32639,-4.863098 2.38939,0 4.32639,2.177312 4.32639,4.863098 0,0.282722 -0.2039,0.511902 -0.45542,0.511902 -0.25151,0 -0.45541,-0.22918 -0.45541,-0.511902 0,-2.120354 -1.52919,-3.839296 -3.41556,-3.839296 -1.88637,0 -3.41557,1.718942 -3.41557,3.839296 0,0.282722 -0.2039,0.511902 -0.45541,0.511902 z"
         id="path3796-9-7"
         inkscape:connector-curvature="0" />
      <path
         style="color:#000000;display:inline;overflow:visible;visibility:visible;fill:#f5f5f5;fill-opacity:1;fill-rule:nonzero;stroke:#f5f5f5;stroke-width:0.30000001;stroke-linecap:butt;stroke-linejoin:miter;stroke-miterlimit:4;stroke-dasharray:none;stroke-dashoffset:0;stroke-opacity:1;marker:none;enable-background:accumulate"
         d="m 428.12901,65.175 c -0.25152,0 -0.45541,-0.22918 -0.45541,-0.511902 0,-2.685786 1.93699,-4.863098 4.32639,-4.863098 2.38939,0 4.32639,2.177312 4.32639,4.863098 0,0.282722 -0.2039,0.511902 -0.45542,0.511902 -0.25151,0 -0.45541,-0.22918 -0.45541,-0.511902 0,-2.120354 -1.52919,-3.839296 -3.41556,-3.839296 -1.88637,0 -3.41557,1.718942 -3.41557,3.839296 0,0.282722 -0.2039,0.511902 -0.45541,0.511902 z"
         id="path3796-9"
         inkscape:connector-curvature="0" />
    </g>
    <g
       inkscape:groupmode="layer"
       id="layer5"
       inkscape:label="Highlights"
       style="display:inline"
       sodipodi:insensitive="true">
      <path
         style="opacity:0.12999998;color:#bebebe;fill:#ffffff;fill-opacity:1;fill-rule:nonzero;stroke:none;stroke-width:0;marker:none;visibility:visible;display:inline;overflow:visible;enable-background:accumulate"
         d="M 84,47 C 56.836703,47 35,68.836703 35,96 l 0,1 C 35,69.836703 56.836703,48 84,48 l 120,0 c 27.1633,0 49,21.836703 49,49 l 0,-1 C 253,68.836703 231.1633,47 204,47 L 84,47 z"
         id="rect3894"
         inkscape:connector-curvature="0" />
      <path
         style="opacity:0.12999998;color:#bebebe;fill:#ffffff;fill-opacity:1;fill-rule:nonzero;stroke:none;stroke-width:0;marker:none;visibility:visible;display:inline;overflow:visible;enable-background:accumulate"
         d="m 419,141 c -1.1253,0 -2,0.8747 -2,2 l 0,1 c 0,-1.1253 0.8747,-2 2,-2 l 10,0 c 1.1253,0 2,0.8747 2,2 l 0,-1 c 0,-1.1253 -0.8747,-2 -2,-2 l -10,0 z"
         id="rect3896"
         inkscape:connector-curvature="0" />
      <path
         style="opacity:0.12999998;color:#bebebe;fill:#ffffff;fill-opacity:1;fill-rule:nonzero;stroke:none;stroke-width:0;marker:none;visibility:visible;display:inline;overflow:visible;enable-background:accumulate"
         d="m 422,102 c -2.2333,0 -4,1.7667 -4,4 l 0,1 c 0,-2.2333 1.7667,-4 4,-4 l 12,0 c 2.2333,0 4,1.7667 4,4 l 0,-1 c 0,-2.2333 -1.7667,-4 -4,-4 l -12,0 z"
         id="rect3898"
         inkscape:connector-curvature="0" />
      <path
         style="opacity:0.12999998;color:#bebebe;fill:#ffffff;fill-opacity:1;fill-rule:nonzero;stroke:none;stroke-width:0;marker:none;visibility:visible;display:inline;overflow:visible;enable-background:accumulate"
         d="m 424,54 c -3.3413,0 -6,2.658703 -6,6 l 0,1 c 0,-3.341297 2.6587,-6 6,-6 l 16,0 c 3.3413,0 6,2.658703 6,6 l 0,-1 c 0,-3.341297 -2.6587,-6 -6,-6 l -16,0 z"
         id="rect3900"
         inkscape:connector-curvature="0" />
      <path
         style="opacity:0.12999998;color:#bebebe;fill:#ffffff;fill-opacity:1;fill-rule:nonzero;stroke:none;stroke-width:0;marker:none;visibility:visible;display:inline;overflow:visible;enable-background:accumulate"
         d="m 300,224 c -4.4493,0 -8,3.5507 -8,8 l 0,1 c 0,-4.4493 3.5507,-8 8,-8 l 24,0 c 4.4493,0 8,3.5507 8,8 l 0,-1 c 0,-4.4493 -3.5507,-8 -8,-8 l -24,0 z"
         id="rect3902"
         inkscape:connector-curvature="0" />
      <path
         style="opacity:0.12999998;color:#bebebe;fill:#ffffff;fill-opacity:1;fill-rule:nonzero;stroke:none;stroke-width:0;marker:none;visibility:visible;display:inline;overflow:visible;enable-background:accumulate"
         d="m 310,33 c -9.4353,0 -17,7.564703 -17,17 l 0,1 c 0,-9.435297 7.5647,-17 17,-17 l 52,0 c 9.4353,0 17,7.564703 17,17 l 0,-1 c 0,-9.435297 -7.5647,-17 -17,-17 l -52,0 z"
         id="rect3904"
         inkscape:connector-curvature="0" />
      <path
         style="opacity:0.12999998;color:#bebebe;fill:#ffffff;fill-opacity:1;fill-rule:nonzero;stroke:none;stroke-width:0;marker:none;visibility:visible;display:inline;overflow:visible;enable-background:accumulate"
         d="m 302.5,143 c -6.3883,0 -11.5,5.1117 -11.5,11.5 l 0,1 c 0,-6.3883 5.1117,-11.5 11.5,-11.5 l 35,0 c 6.3883,0 11.5,5.1117 11.5,11.5 l 0,-1 c 0,-6.3883 -5.1117,-11.5 -11.5,-11.5 l -35,0 z"
         id="rect3906"
         inkscape:connector-curvature="0" />
      <path
         id="path4085"
         d="m 204,266 c 27.1633,0 49,-21.8367 49,-49 l 0,-1 c 0,27.1633 -21.8367,49 -49,49 L 84,265 C 56.8367,265 35,243.1633 35,216 l 0,1 c 0,27.1633 21.8367,49 49,49 l 120,0 z"
         style="opacity:0.5;color:#bebebe;fill:#000000;fill-opacity:1;fill-rule:nonzero;stroke:none;stroke-width:0;marker:none;visibility:visible;display:inline;overflow:visible;enable-background:accumulate"
         inkscape:connector-curvature="0" />
      <path
         id="path4087"
         d="m 429,156 c 1.1253,0 2,-0.8747 2,-2 l 0,-1 c 0,1.1253 -0.8747,2 -2,2 l -10,0 c -1.1253,0 -2,-0.8747 -2,-2 l 0,1 c 0,1.1253 0.8747,2 2,2 l 10,0 z"
         style="opacity:0.3;color:#bebebe;fill:#000000;fill-opacity:1;fill-rule:nonzero;stroke:none;stroke-width:0;marker:none;visibility:visible;display:inline;overflow:visible;enable-background:accumulate"
         inkscape:connector-curvature="0" />
      <path
         id="path4089"
         d="m 434,123 c 2.2333,0 4,-1.7667 4,-4 l 0,-1 c 0,2.2333 -1.7667,4 -4,4 l -12,0 c -2.2333,0 -4,-1.7667 -4,-4 l 0,1 c 0,2.2333 1.7667,4 4,4 l 12,0 z"
         style="opacity:0.3;color:#bebebe;fill:#000000;fill-opacity:1;fill-rule:nonzero;stroke:none;stroke-width:0;marker:none;visibility:visible;display:inline;overflow:visible;enable-background:accumulate"
         inkscape:connector-curvature="0" />
      <path
         id="path4091"
         d="m 440,83 c 3.3413,0 6,-2.6587 6,-6 l 0,-1 c 0,3.3413 -2.6587,6 -6,6 l -16,0 c -3.3413,0 -6,-2.6587 -6,-6 l 0,1 c 0,3.3413 2.6587,6 6,6 l 16,0 z"
         style="opacity:0.5;color:#bebebe;fill:#000000;fill-opacity:1;fill-rule:nonzero;stroke:none;stroke-width:0;marker:none;visibility:visible;display:inline;overflow:visible;enable-background:accumulate"
         inkscape:connector-curvature="0" />
      <path
         id="path4093"
         d="m 324,265 c 4.4493,0 8,-3.5507 8,-8 l 0,-1 c 0,4.4493 -3.5507,8 -8,8 l -24,0 c -4.4493,0 -8,-3.5507 -8,-8 l 0,1 c 0,4.4493 3.5507,8 8,8 l 24,0 z"
         style="opacity:0.5;color:#bebebe;fill:#000000;fill-opacity:1;fill-rule:nonzero;stroke:none;stroke-width:0;marker:none;visibility:visible;display:inline;overflow:visible;enable-background:accumulate"
         inkscape:connector-curvature="0" />
      <path
         id="path4095"
         d="m 362,120 c 9.4353,0 17,-7.5647 17,-17 l 0,-1 c 0,9.4353 -7.5647,17 -17,17 l -52,0 c -9.4353,0 -17,-7.5647 -17,-17 l 0,1 c 0,9.4353 7.5647,17 17,17 l 52,0 z"
         style="opacity:0.5;color:#bebebe;fill:#000000;fill-opacity:1;fill-rule:nonzero;stroke:none;stroke-width:0;marker:none;visibility:visible;display:inline;overflow:visible;enable-background:accumulate"
         inkscape:connector-curvature="0" />
      <path
         id="path4097"
         d="m 337.5,202 c 6.3883,0 11.5,-5.1117 11.5,-11.5 l 0,-1 c 0,6.3883 -5.1117,11.5 -11.5,11.5 l -35,0 c -6.3883,0 -11.5,-5.1117 -11.5,-11.5 l 0,1 c 0,6.3883 5.1117,11.5 11.5,11.5 l 35,0 z"
         style="opacity:0.5;color:#bebebe;fill:#000000;fill-opacity:1;fill-rule:nonzero;stroke:none;stroke-width:0;marker:none;visibility:visible;display:inline;overflow:visible;enable-background:accumulate"
         inkscape:connector-curvature="0" />
      <path
         inkscape:connector-curvature="0"
         id="path4280"
         d="M 84,265 C 56.836703,265 35,243.1633 35,216 l 0,-1 c 0,27.1633 21.836703,49 49,49 l 120,0 c 27.1633,0 49,-21.8367 49,-49 l 0,1 c 0,27.1633 -21.8367,49 -49,49 l -120,0 z"
         style="opacity:0.1;color:#bebebe;fill:#ffffff;fill-opacity:1;fill-rule:nonzero;stroke:none;stroke-width:0;marker:none;visibility:visible;display:inline;overflow:visible;enable-background:accumulate" />
      <path
         style="opacity:0.1;color:#bebebe;fill:#ffffff;fill-opacity:1;fill-rule:nonzero;stroke:none;stroke-width:0;marker:none;visibility:visible;display:inline;overflow:visible;enable-background:accumulate"
         d="m 300,264 c -4.4493,0 -8,-3.5507 -8,-8 l 0,-1 c 0,4.4493 3.5507,8 8,8 l 24,0 c 4.4493,0 8,-3.5507 8,-8 l 0,1 c 0,4.4493 -3.5507,8 -8,8 l -24,0 z"
         id="path4294"
         inkscape:connector-curvature="0" />
      <path
         style="opacity:0.1;color:#bebebe;fill:#ffffff;fill-opacity:1;fill-rule:nonzero;stroke:none;stroke-width:0;marker:none;visibility:visible;display:inline;overflow:visible;enable-background:accumulate"
         d="m 302.5,201 c -6.3883,0 -11.5,-5.1117 -11.5,-11.5 l 0,-1 c 0,6.3883 5.1117,11.5 11.5,11.5 l 35,0 c 6.3883,0 11.5,-5.1117 11.5,-11.5 l 0,1 c 0,6.3883 -5.1117,11.5 -11.5,11.5 l -35,0 z"
         id="path4296"
         inkscape:connector-curvature="0" />
      <path
         style="opacity:0.1;color:#bebebe;fill:#ffffff;fill-opacity:1;fill-rule:nonzero;stroke:none;stroke-width:0;marker:none;visibility:visible;display:inline;overflow:visible;enable-background:accumulate"
         d="m 310,119 c -9.4353,0 -17,-7.5647 -17,-17 l 0,-1 c 0,9.4353 7.5647,17 17,17 l 52,0 c 9.4353,0 17,-7.5647 17,-17 l 0,1 c 0,9.4353 -7.5647,17 -17,17 l -52,0 z"
         id="path4298"
         inkscape:connector-curvature="0" />
      <path
         style="opacity:0.1;color:#bebebe;fill:#ffffff;fill-opacity:1;fill-rule:nonzero;stroke:none;stroke-width:0;marker:none;visibility:visible;display:inline;overflow:visible;enable-background:accumulate"
         d="m 424,82 c -3.3413,0 -6,-2.658703 -6,-6 l 0,-1 c 0,3.341297 2.6587,6 6,6 l 16,0 c 3.3413,0 6,-2.658703 6,-6 l 0,1 c 0,3.341297 -2.6587,6 -6,6 l -16,0 z"
         id="path4300"
         inkscape:connector-curvature="0" />
      <path
         style="opacity:0.1;color:#bebebe;fill:#ffffff;fill-opacity:1;fill-rule:nonzero;stroke:none;stroke-width:0;marker:none;visibility:visible;display:inline;overflow:visible;enable-background:accumulate"
         d="m 422,122 c -2.2333,0 -4,-1.7667 -4,-4 l 0,-1 c 0,2.2333 1.7667,4 4,4 l 12,0 c 2.2333,0 4,-1.7667 4,-4 l 0,1 c 0,2.2333 -1.7667,4 -4,4 l -12,0 z"
         id="path4302"
         inkscape:connector-curvature="0" />
      <path
         style="opacity:0.1;color:#bebebe;fill:#ffffff;fill-opacity:1;fill-rule:nonzero;stroke:none;stroke-width:0;marker:none;visibility:visible;display:inline;overflow:visible;enable-background:accumulate"
         d="m 419,154.5 c -1.1253,0 -2,-0.8747 -2,-2 l 0,-1 c 0,1.1253 0.8747,2 2,2 l 10,0 c 1.1253,0 2,-0.8747 2,-2 l 0,1 c 0,1.1253 -0.8747,2 -2,2 l -10,0 z"
         id="path4304"
         inkscape:connector-curvature="0" />
    </g>
    <g
       inkscape:groupmode="layer"
       id="layer3"
       inkscape:label="Border"
       style="display:inline"
       sodipodi:insensitive="true">
      <path
         style="opacity:0.41000001;color:#bebebe;fill:#000000;fill-opacity:1;fill-rule:nonzero;stroke:none;stroke-width:0;marker:none;visibility:visible;display:inline;overflow:visible;enable-background:accumulate"
         d="m 422,101 c -2.77,0 -5,2.23 -5,5 l 0,12 c 0,2.77 2.23,5 5,5 l 12,0 c 2.77,0 5,-2.23 5,-5 l 0,-12 c 0,-2.77 -2.23,-5 -5,-5 l -12,0 z m 0,1 12,0 c 2.2333,0 4,1.7667 4,4 l 0,12 c 0,2.2333 -1.7667,4 -4,4 l -12,0 c -2.2333,0 -4,-1.7667 -4,-4 l 0,-12 c 0,-2.2333 1.7667,-4 4,-4 z"
         id="rect4099"
         inkscape:connector-curvature="0" />
      <path
         style="opacity:0.41000001;color:#bebebe;fill:#000000;fill-opacity:1;fill-rule:nonzero;stroke:none;stroke-width:0;marker:none;visibility:visible;display:inline;overflow:visible;enable-background:accumulate"
         d="m 424,53 c -3.878,0 -7,3.122 -7,7 l 0,16 c 0,3.878 3.122,7 7,7 l 16,0 c 3.878,0 7,-3.122 7,-7 l 0,-16 c 0,-3.878 -3.122,-7 -7,-7 l -16,0 z m 0,1 16,0 c 3.3413,0 6,2.658703 6,6 l 0,16 c 0,3.341297 -2.6587,6 -6,6 l -16,0 c -3.3413,0 -6,-2.658703 -6,-6 l 0,-16 c 0,-3.341297 2.6587,-6 6,-6 z"
         id="rect4151"
         inkscape:connector-curvature="0" />
      <path
         style="opacity:0.41000001;color:#bebebe;fill:#000000;fill-opacity:1;fill-rule:nonzero;stroke:none;stroke-width:0;marker:none;visibility:visible;display:inline;overflow:visible;enable-background:accumulate"
         d="m 419,140 c -1.662,0 -3,1.338 -3,3 l 0,10 c 0,1.662 1.338,3 3,3 l 10,0 c 1.662,0 3,-1.338 3,-3 l 0,-10 c 0,-1.662 -1.338,-3 -3,-3 l -10,0 z m 0,1 10,0 c 1.1253,0 2,0.8747 2,2 l 0,10 c 0,1.1253 -0.8747,2 -2,2 l -10,0 c -1.1253,0 -2,-0.8747 -2,-2 l 0,-10 c 0,-1.1253 0.8747,-2 2,-2 z"
         id="rect4095"
         inkscape:connector-curvature="0" />
      <path
         style="opacity:0.41000001;color:#bebebe;fill:#000000;fill-opacity:1;fill-rule:nonzero;stroke:none;stroke-width:0;marker:none;visibility:visible;display:inline;overflow:visible;enable-background:accumulate"
         d="m 300,223 c -4.986,0 -9,4.014 -9,9 l 0,24 c 0,4.986 4.014,9 9,9 l 24,0 c 4.986,0 9,-4.014 9,-9 l 0,-24 c 0,-4.986 -4.014,-9 -9,-9 l -24,0 z m 0,1 24,0 c 4.4493,0 8,3.5507 8,8 l 0,24 c 0,4.4493 -3.5507,8 -8,8 l -24,0 c -4.4493,0 -8,-3.5507 -8,-8 l 0,-24 c 0,-4.4493 3.5507,-8 8,-8 z"
         id="rect4783"
         inkscape:connector-curvature="0" />
      <path
         style="opacity:0.41000001;color:#bebebe;fill:#000000;fill-opacity:1;fill-rule:nonzero;stroke:none;stroke-width:0;marker:none;visibility:visible;display:inline;overflow:visible;enable-background:accumulate"
         d="m 302.5,142 c -6.925,0 -12.5,5.575 -12.5,12.5 l 0,35 c 0,6.925 5.575,12.5 12.5,12.5 l 35,0 c 6.925,0 12.5,-5.575 12.5,-12.5 l 0,-35 c 0,-6.925 -5.575,-12.5 -12.5,-12.5 l -35,0 z m 0,1 35,0 c 6.3883,0 11.5,5.1117 11.5,11.5 l 0,35 c 0,6.3883 -5.1117,11.5 -11.5,11.5 l -35,0 c -6.3883,0 -11.5,-5.1117 -11.5,-11.5 l 0,-35 c 0,-6.3883 5.1117,-11.5 11.5,-11.5 z"
         id="rect4515"
         inkscape:connector-curvature="0" />
      <path
         style="opacity:0.41000001;color:#bebebe;fill:#000000;fill-opacity:1;fill-rule:nonzero;stroke:none;stroke-width:0;marker:none;visibility:visible;display:inline;overflow:visible;enable-background:accumulate"
         d="m 310,32 c -9.972,0 -18,8.028 -18,18 l 0,52 c 0,9.972 8.028,18 18,18 l 52,0 c 9.972,0 18,-8.028 18,-18 l 0,-52 c 0,-9.972 -8.028,-18 -18,-18 l -52,0 z m 0,1 52,0 c 9.4353,0 17,7.564703 17,17 l 0,52 c 0,9.4353 -7.5647,17 -17,17 l -52,0 c -9.4353,0 -17,-7.5647 -17,-17 l 0,-52 c 0,-9.435297 7.5647,-17 17,-17 z"
         id="rect4511"
         inkscape:connector-curvature="0" />
      <path
         style="opacity:0.41000001;color:#bebebe;fill:#000000;fill-opacity:1;fill-rule:nonzero;stroke:none;stroke-width:0;marker:none;visibility:visible;display:inline;overflow:visible;enable-background:accumulate"
         d="M 84,46 C 56.3,46 34,68.3 34,96 l 0,120 c 0,27.7 22.3,50 50,50 l 120,0 c 27.7,0 50,-22.3 50,-50 L 254,96 C 254,68.3 231.7,46 204,46 L 84,46 z m 0,1 120,0 c 27.1633,0 49,21.836703 49,49 l 0,120 c 0,27.1633 -21.8367,49 -49,49 L 84,265 C 56.836703,265 35,243.1633 35,216 L 35,96 C 35,68.836703 56.836703,47 84,47 z"
         id="rect4040"
         inkscape:connector-curvature="0" />
    </g>
  </g>
</svg>
