<?xml version="1.0" encoding="UTF-8" standalone="no"?>
<!-- Created with Inkscape (http://www.inkscape.org/) -->

<svg
   width="480"
   height="300"
   viewBox="0 0 480 300"
   version="1.1"
   id="svg5"
   inkscape:version="1.3 (1:1.3+202307231459+0e150ed6c4)"
   sodipodi:docname="ms-excel.svg"
   xmlns:inkscape="http://www.inkscape.org/namespaces/inkscape"
   xmlns:sodipodi="http://sodipodi.sourceforge.net/DTD/sodipodi-0.dtd"
   xmlns="http://www.w3.org/2000/svg"
   xmlns:svg="http://www.w3.org/2000/svg">
  <sodipodi:namedview
     id="namedview7"
     pagecolor="#888888"
     bordercolor="#000000"
     borderopacity="0.25"
     inkscape:showpageshadow="true"
     inkscape:pageopacity="0"
     inkscape:pagecheckerboard="0"
     inkscape:deskcolor="#888888"
     inkscape:document-units="px"
     showgrid="false"
     showborder="false"
     inkscape:zoom="2.5395833"
     inkscape:cx="240"
     inkscape:cy="149.82773"
     inkscape:window-width="1920"
     inkscape:window-height="1008"
     inkscape:window-x="0"
     inkscape:window-y="0"
     inkscape:window-maximized="1"
     inkscape:current-layer="svg5" />
  <defs
     id="defs2" />
  <g
     id="Baseplate"
     style="display:none">
    <text
       y="19.774782"
       xml:space="preserve"
       x="15.006946"
       style="font-style:normal;font-variant:normal;font-weight:normal;font-stretch:normal;line-height:0%;font-family:'DejaVu Sans';-inkscape-font-specification:'DejaVu Sans';display:inline;fill:#000000;fill-opacity:1;stroke:none;enable-background:new"
       inkscape:label="context"
       id="context"><tspan
         style="font-style:normal;font-variant:normal;font-weight:normal;font-stretch:normal;font-size:18px;line-height:1.25;font-family:'DejaVu Sans';-inkscape-font-specification:'DejaVu Sans'"
         y="19.774782"
         x="15.006946"
         sodipodi:role="line"
         id="tspan3933">apps</tspan></text>
    <text
       y="19.774782"
       xml:space="preserve"
       x="122.48839"
       style="font-style:normal;font-variant:normal;font-weight:bold;font-stretch:normal;line-height:0%;font-family:'DejaVu Sans';-inkscape-font-specification:'DejaVu Sans Bold';text-align:start;writing-mode:lr-tb;text-anchor:start;display:inline;fill:#000000;fill-opacity:1;stroke:none;enable-background:new"
       inkscape:label="icon-name"
       id="icon-name"><tspan
         style="font-style:normal;font-variant:normal;font-weight:bold;font-stretch:normal;font-size:18px;line-height:1.25;font-family:'DejaVu Sans';-inkscape-font-specification:'DejaVu Sans Bold'"
         y="19.774782"
         x="122.48839"
         sodipodi:role="line"
         id="tspan3937">ms-excel</tspan></text>
    <rect
       style="fill:#ffffff"
       id="256x256"
       width="256"
       height="256"
       x="16"
       y="28" />
    <rect
       style="fill:#ffffff"
       id="96x96"
       width="96"
       height="96"
       x="288"
       y="28" />
    <rect
       style="fill:#ffffff"
       id="64x64"
       width="64"
       height="64"
       x="288"
       y="140" />
    <rect
       style="fill:#ffffff"
       id="48x48"
       width="48"
       height="48"
       x="288"
       y="220" />
    <rect
       style="fill:#ffffff"
       id="32x32"
       width="32"
       height="32"
       x="416"
       y="52" />
    <rect
       style="fill:#ffffff"
       id="24x24"
       width="24"
       height="24"
       x="416"
       y="100" />
    <rect
       style="fill:#ffffff"
       id="22x22"
       width="22"
       height="22"
       x="417"
       y="101" />
    <rect
       style="fill:#ffffff"
       id="16x16"
       width="16"
       height="16"
       x="416"
       y="140" />
  </g>
  <g
     id="Shadow">
    <rect
       style="opacity:0.2;fill:#000000"
       id="rect651"
       width="224"
       height="224"
       x="32"
       y="46"
       ry="48" />
    <rect
       style="opacity:0.2;fill:#000000"
       id="rect769"
       width="84"
       height="85"
       x="294"
       y="34"
       ry="18" />
    <rect
       style="opacity:0.2;fill:#000000;fill-opacity:1"
       id="rect1131"
       width="56"
       height="56"
       x="292"
       y="145"
       ry="12" />
    <rect
       style="opacity:0.2;fill:#000000;fill-opacity:1"
       id="rect1261"
       width="42"
       height="42"
       x="291"
       y="224"
       ry="9" />
    <rect
       style="opacity:0.2;fill:#000000;fill-opacity:1"
       id="rect1364"
       width="28"
       height="29"
       x="418"
       y="54"
       ry="6" />
    <rect
       style="opacity:0.2;fill:#000000;fill-opacity:1"
       id="rect1398"
       width="16"
       height="16"
       x="416"
       y="141"
       ry="4" />
    <rect
       style="opacity:0.2;fill:#000000;fill-opacity:1"
       id="rect1432"
       width="20"
       height="20"
       x="418"
       y="103"
       ry="4" />
  </g>
  <g
     id="Background">
    <rect
       style="fill:#efefef;fill-opacity:1"
       id="rect597"
       width="224"
       height="224"
       x="32"
       y="44"
       ry="48" />
    <rect
       style="opacity:1;fill:#efefef;fill-opacity:1"
       id="rect771"
       width="84"
       height="84"
       x="294"
       y="34"
       ry="18" />
    <rect
       style="opacity:1;fill:#efefef;fill-opacity:1"
       id="rect1133"
       width="56"
       height="56"
       x="292"
       y="144"
       ry="12" />
    <rect
       style="opacity:1;fill:#efefef;fill-opacity:1"
       id="rect1263"
       width="42"
       height="42"
       x="291"
       y="223"
       ry="9" />
    <rect
       style="opacity:1;fill:#efefef;fill-opacity:1"
       id="rect1366"
       width="28"
       height="28"
       x="418"
       y="54"
       ry="6" />
    <rect
       style="opacity:1;fill:#0e6f3a;fill-opacity:1"
       id="rect1400"
       width="16"
       height="16"
       x="416"
       y="140"
       ry="4" />
    <rect
       style="opacity:1;fill:#efefef;fill-opacity:1"
       id="rect1434"
       width="20"
       height="20"
       x="418"
       y="102"
       ry="4" />
  </g>
  <g
     id="Symbols">
    <path
       d="m 420,153 3.2357,-5.014 -2.9638,-4.986 h 2.385 l 1.9456,3.863 2.064,-3.863 h 2.19 l -3.041,4.958 3.118,5.042 h -2.33 l -2.1196,-3.968 -2.1408,3.968 z"
       style="fill:#ffffff"
       id="path581-6" />
    <g
       id="g6"
       transform="translate(4,-36)">
      <rect
         style="opacity:0.2;fill:#000000;fill-opacity:1;stroke-width:2;stroke-linecap:square"
         id="rect2906"
         width="10"
         height="12"
         x="420"
         y="142.5"
         ry="0.99999964" />
      <path
         d="m 421,142 h 8 c 0.554,0 1,0.446 1,1 v 3 l -5,2 -5,-2 v -3 c 0,-0.554 0.446,-1 1,-1 z"
         style="fill:#33c481;fill-opacity:1;stroke-width:2;stroke-linecap:square"
         id="path1933" />
      <path
         d="m 420,145 h 5 l 5,3 v 3 h -5 l -5,-3 z"
         style="fill:#107c41;fill-opacity:1;stroke-width:1.92154;stroke-linecap:square"
         id="path2238" />
      <path
         id="path2072"
         style="fill:#21a366;fill-opacity:1;stroke-width:1.92154;stroke-linecap:square"
         d="m 421,142 c -0.55228,0 -1,0.44771 -1,1 v 2 h 5 v -3 z m 4,3 v 3 h 5 v -3 z" />
      <path
         d="m 430,151 v 2 c 0,0.554 -0.446,1 -1,1 h -8 c -0.554,0 -1,-0.446 -1,-1 v -5 l 5,2e-4 V 151 Z"
         style="fill:#185c37;fill-opacity:1;stroke-width:2;stroke-linecap:square"
         id="path2597" />
      <path
         id="path1961"
         style="opacity:0.2;fill:#ffffff;stroke-width:2;stroke-linecap:square"
         d="m 421,142 c -0.554,0 -1,0.446 -1,1 v 0.5 c 0,-0.554 0.446,-1 1,-1 h 8 c 0.554,0 1,0.446 1,1 V 143 c 0,-0.554 -0.446,-1 -1,-1 z" />
      <path
         d="m 420,145 v 0.5 h 5 V 145 Z m 0,3.0002 V 148.5 h 10 v -0.4998 z M 425,151 v 0.5 h 5 V 151 Z"
         style="opacity:0.2;fill:#000000;fill-opacity:1;stroke-width:2;stroke-linecap:square"
         id="path2886" />
      <rect
         style="opacity:0.2;fill:#000000;stroke-width:2;stroke-linecap:square"
         id="rect1099"
         width="7"
         height="7"
         x="417"
         y="145.5"
         ry="1" />
      <rect
         style="fill:#0d7239;fill-opacity:1;stroke-width:1.5;stroke-linecap:square"
         id="rect1101"
         width="7"
         height="7"
         x="417"
         y="145"
         ry="1" />
      <path
         d="m 418.32006,151 1.61786,-2.50714 L 418.45606,146 h 1.1925 l 0.96228,1.93143 L 421.65342,146 h 1.09485 l -1.52021,2.47929 1.55857,2.52071 h -1.16457 l -1.06,-1.98429 L 419.49163,151 Z"
         style="fill:#ffffff;stroke-width:0.714287"
         id="path2596" />
    </g>
    <g
       id="g5"
       transform="translate(1,-12)">
      <rect
         style="opacity:0.2;fill:#000000;stroke-linecap:round;stroke-linejoin:round"
         id="rect2051"
         width="16"
         height="20"
         x="424"
         y="71"
         ry="1" />
      <path
         d="m 440,85 v 4 c 0,0.554 -0.446,1 -1,1 h -14 c -0.554,0 -1,-0.446 -1,-1 v -9.5 h 7.5 L 432,80 Z"
         style="fill:#185c37"
         id="path570" />
      <path
         d="m 425,70 h 7 l 8,5 v 5.5 h -7.5 L 432,80 424,75 v -4 c 0,-0.554 0.446,-1 1,-1 z"
         style="fill:#21a366"
         id="path443" />
      <path
         d="m 432,70 h 7 c 0.554,0 1,0.446 1,1 v 4 h -8 z"
         style="fill:#33c481"
         id="path499" />
      <path
         d="m 432,80 h 8 v 5 h -8 z m -8,-5 h 8 v 5 h -8 z"
         style="fill:#107c41"
         id="path542" />
      <path
         d="m 432,85 h 8 v 1 h -8 z m -8,-5 h 16 v 1 h -16 z m 0,-5 h 16 v 1 h -16 z"
         style="opacity:0.1;fill:#000000"
         id="path415" />
      <path
         d="m 425,70 c -0.554,0 -1,0.446 -1,1 v 1 c 0,-0.554 0.446,-1 1,-1 h 14 c 0.554,0 1,0.446 1,1 v -1 c 0,-0.554 -0.446,-1 -1,-1 z"
         style="opacity:0.2;fill:#ffffff"
         id="path598" />
      <rect
         style="opacity:0.2;fill:#000000;stroke-linecap:round;stroke-linejoin:round"
         id="rect670"
         width="11"
         height="11"
         x="419"
         y="75"
         ry="1" />
      <rect
         style="fill:#0e6f3a;fill-opacity:1;stroke-linecap:round;stroke-linejoin:round"
         id="rect672"
         width="11"
         height="11"
         x="419"
         y="74"
         ry="1" />
      <path
         d="m 421.3734,83 2.265,-3.51 -2.0746,-3.49 h 1.6695 l 1.3472,2.704 1.4596,-2.704 h 1.5328 l -2.1283,3.471 2.182,3.529 h -1.6304 l -1.484,-2.778 -1.4986,2.778 z"
         style="fill:#ffffff"
         id="path1650" />
    </g>
    <g
       id="g3">
      <rect
         style="opacity:0.2;fill:#000000;stroke-linecap:round;stroke-linejoin:round"
         id="rect653-0"
         width="24"
         height="28"
         x="302"
         y="231"
         ry="1.4" />
      <path
         d="m 326,251 v 5.6 c 0,0.776 -0.624,1.4 -1.4,1.4 h -21.2 c -0.776,0 -1.4,-0.624 -1.4,-1.4 V 243 h 11 l 1,1 z"
         style="fill:#185c37"
         id="path553-9" />
      <path
         d="M 303.4,230 H 314 l 12,7 v 8 h -11 l -1,-1 -12,-7 v -5.6 c 0,-0.7756 0.624,-1.4 1.4,-1.4 z"
         style="fill:#21a366"
         id="path469-3" />
      <path
         d="m 314,230 h 10.6 c 0.776,0 1.4,0.6244 1.4,1.4 v 5.6 h -12 z"
         style="fill:#33c481"
         id="path364-6" />
      <path
         d="m 314,244 h 12 v 7 h -12 z m -12,-7 h 12 v 7 h -12 z"
         style="fill:#107c41"
         id="path497-0" />
      <path
         d="m 302,237 h 24 v 1 h -24 z m 0,7 h 24 v 1 h -24 z m 12,7 h 12 v 1 h -12 z"
         style="opacity:0.1;fill:#000000"
         id="path525-62" />
      <path
         d="m 303.4,230 c -0.775,0 -1.4,0.6248 -1.4,1.4004 v 1 C 302,231.6248 302.625,231 303.4,231 h 21.2 c 0.775,0 1.4,0.6248 1.4,1.4004 v -1 C 326,230.6248 325.375,230 324.6,230 Z"
         style="opacity:0.2;fill:#ffffff"
         id="path441-6" />
      <rect
         style="opacity:0.2;fill:#000000;stroke-linecap:round;stroke-linejoin:round"
         id="rect655"
         width="16"
         height="16"
         x="296"
         y="237"
         ry="1.4" />
      <rect
         style="fill:#0e6f3a;fill-opacity:1;stroke-linecap:round;stroke-linejoin:round"
         id="rect657"
         width="16"
         height="16"
         x="296"
         y="236"
         ry="1.4" />
      <path
         d="m 299.5335,249 3.2357,-5.014 -2.9638,-4.986 h 2.385 l 1.9456,3.863 L 306.2,239 h 2.19 l -3.041,4.958 3.118,5.042 h -2.33 l -2.1196,-3.968 -2.1408,3.968 z"
         style="fill:#ffffff"
         id="path581" />
    </g>
    <g
       id="g2">
      <rect
         style="opacity:0.2;fill:#000000;stroke-linecap:round;stroke-linejoin:round"
         id="rect1604-6"
         width="34"
         height="40"
         x="306"
         y="153"
         ry="2" />
      <path
         d="m 340,182 v 8 c 0,1.108 -0.892,2 -2,2 h -30 c -1.108,0 -2,-0.892 -2,-2 v -19 h 16 l 1,1 z"
         style="fill:#185c37"
         id="path497-7" />
      <path
         d="m 308,152 h 15 l 17,10 v 11 h -16 l -1,-1 -17,-10 v -8 c 0,-1.1079 0.892,-2 2,-2 z"
         style="fill:#21a366"
         id="path441-5" />
      <path
         d="m 323,152 h 15 c 1.108,0 2,0.892 2,2 v 8 h -17 z"
         style="fill:#33c481"
         id="path364-3" />
      <path
         d="m 306,162 h 17 v 10 h -17 z m 17,10 h 17 v 10 h -17 z"
         style="fill:#107c41"
         id="path469-5" />
      <path
         d="m 323,182 h 17 v 1 h -17 z m -17,-20 h 34 v 1 h -34 z m 0,10 h 34 v 1 h -34 z"
         style="opacity:0.1;fill:#000000"
         id="path525-6" />
      <path
         d="m 308,152 c -1.108,0 -2,0.892 -2,2 v 1 c 0,-1.108 0.892,-2 2,-2 h 30 c 1.108,0 2,0.892 2,2 v -1 c 0,-1.108 -0.892,-2 -2,-2 z"
         style="opacity:0.2;fill:#ffffff"
         id="path553-2" />
      <rect
         style="opacity:0.2;fill:#000000;stroke-linecap:round;stroke-linejoin:round"
         id="rect625-9"
         width="22"
         height="22"
         x="296"
         y="162"
         ry="2" />
      <rect
         style="fill:#0e6f3a;fill-opacity:1;stroke-linecap:round;stroke-linejoin:round"
         id="rect627-1"
         width="22"
         height="22"
         x="296"
         y="161"
         ry="2" />
      <path
         d="m 300.7469,179 4.5301,-7.02 -4.1494,-6.98 h 3.3394 l 2.694,5.409 2.919,-5.409 h 3.066 l -4.257,6.941 4.364,7.059 h -3.261 l -2.968,-5.555 -2.997,5.555 z"
         style="fill:#ffffff"
         id="path1329-2" />
    </g>
    <g
       id="g1">
      <rect
         style="opacity:0.2;fill:#000000;stroke-width:1.5;stroke-linecap:round;stroke-linejoin:round"
         id="rect1604"
         width="50"
         height="60"
         x="316"
         y="47"
         ry="3" />
      <path
         d="m 366,91 v 12 c 0,1.662 -1.338,3 -3,3 h -44 c -1.662,0 -3,-1.338 -3,-3 V 74.5 h 23.5 L 341,76 Z"
         style="fill:#185c37;stroke-width:1.5"
         id="path497" />
      <path
         d="m 319,46 h 22 l 25,15 V 77.5 H 342.5 L 341,76 316,61 V 49.000001 C 316,47.33815 317.338,46 319,46 Z"
         style="fill:#21a366;stroke-width:1.5"
         id="path441" />
      <path
         d="m 341,46 h 22 c 1.662,0 3,1.338 3,3 v 12 h -25 z"
         style="fill:#33c481;stroke-width:1.5"
         id="path364" />
      <path
         d="m 316,61 h 25 v 15 h -25 z m 25,15 h 25 v 15 h -25 z"
         style="fill:#107c41;stroke-width:1.5"
         id="path469" />
      <path
         id="path525"
         style="opacity:0.1;fill:#000000;stroke-width:1.5"
         d="m 315,61 v 1 h 51 v -1 z m 0,15 v 1 h 51 v -1 z m 26,15 v 1 h 25 v -1 z"
         sodipodi:nodetypes="ccccccccccccccc" />
      <path
         id="path553"
         style="opacity:0.2;fill:#ffffff;stroke-width:1.5"
         d="m 319,46 c -1.662,0 -3,1.338001 -3,3 v 1 c 0,-1.661999 1.338,-3 3,-3 h 44 c 1.662,0 3,1.338001 3,3 v -1 c 0,-1.661999 -1.338,-3 -3,-3 z" />
      <rect
         style="opacity:0.2;fill:#000000;stroke-width:1.5;stroke-linecap:round;stroke-linejoin:round"
         id="rect625"
         width="32"
         height="32"
         x="300"
         y="61"
         ry="3" />
      <rect
         style="fill:#0e6f3a;fill-opacity:1;stroke-width:1.5;stroke-linecap:round;stroke-linejoin:round"
         id="rect627"
         width="32"
         height="32"
         x="300"
         y="60"
         ry="3" />
      <path
         d="M 307.06707,86 313.53864,75.971429 307.61093,66 h 4.77057 l 3.84857,7.727143 4.17,-7.727143 h 4.38 L 318.69864,75.915714 324.93293,86 h -4.65857 l -4.24,-7.935714 L 311.75293,86 Z"
         style="fill:#ffffff;stroke-width:1.42857"
         id="path1329" />
    </g>
    <g
       id="g4">
      <rect
         style="opacity:0.2;fill:#000000;stroke-width:4;stroke-linecap:round;stroke-linejoin:round"
         id="rect1604-8"
         width="136"
         height="160"
         x="91.999985"
         y="78"
         ry="8" />
      <path
         d="m 228,196 v 32 c 0,4.432 -3.568,8 -8,8 H 100 c -4.432003,0 -8.000003,-3.568 -8.000003,-8 V 152 H 156 l 4,4 z"
         style="fill:#185c37;stroke-width:4"
         id="path497-79" />
      <path
         d="m 100,76 h 60 l 68,40 v 44 h -64 l -4,-4 -68.000003,-40 V 84.000004 C 91.999997,79.5684 95.567997,76 100,76 Z"
         style="fill:#21a366;stroke-width:4"
         id="path441-2" />
      <path
         d="m 160,76 h 60 c 4.432,0 8,3.568 8,8 v 32 h -68 z"
         style="fill:#33c481;stroke-width:4"
         id="path364-0" />
      <path
         d="M 91.999997,116 H 160 v 40 H 91.999997 Z M 160,156 h 68 v 40 h -68 z"
         style="fill:#107c41;stroke-width:4"
         id="path469-2" />
      <path
         id="path525-3"
         style="opacity:0.1;fill:#000000;stroke-width:4"
         d="m 91.999997,116 v 2 H 228 v -2 z m 0,40 v 2 H 228 v -2 z M 160,196 v 2 h 68 v -2 z" />
      <path
         id="path553-7"
         style="opacity:0.2;fill:#ffffff;stroke-width:4"
         d="m 100,76 c -4.431999,0 -8.000003,3.568004 -8.000003,8 v 2 c 0,-4.431996 3.568004,-8 8.000003,-8 h 120 c 4.432,0 8,3.568004 8,8 v -2 c 0,-4.431996 -3.568,-8 -8,-8 z" />
      <rect
         style="opacity:0.2;fill:#000000;stroke-width:4;stroke-linecap:round;stroke-linejoin:round"
         id="rect625-5"
         width="88"
         height="88"
         x="52"
         y="113.99999"
         ry="8" />
      <rect
         style="fill:#0e6f3a;fill-opacity:1;stroke-width:4;stroke-linecap:round;stroke-linejoin:round"
         id="rect627-9"
         width="88"
         height="88"
         x="52"
         y="111.99999"
         ry="8" />
      <path
         d="m 70.987597,184 18.1204,-28.08 -16.5976,-27.92 h 13.3576 l 10.776,21.636 L 108.32,128 h 12.264 L 103.556,155.764 121.012,184 H 107.968 L 96.095997,161.78 84.107997,184 Z"
         style="fill:#ffffff;stroke-width:4"
         id="path1329-22" />
    </g>
  </g>
  <g
     id="Highlights">
    <path
       id="rect653"
       style="opacity:0.2;fill:#ffffff"
       d="M 80,44 C 53.408027,44 32,65.408027 32,92 v 2 C 32,67.408027 53.408027,46 80,46 h 128 c 26.59197,0 48,21.408027 48,48 V 92 C 256,65.408027 234.59197,44 208,44 Z"
       sodipodi:nodetypes="sscsscsss" />
    <path
       id="rect773"
       style="opacity:0.2;fill:#ffffff"
       d="m 312,34 c -9.97199,0 -18,8.02801 -18,18 v 1 c 0,-9.97199 8.02801,-18 18,-18 h 48 c 9.97199,0 18,8.02801 18,18 v -1 c 0,-9.97199 -8.02801,-18 -18,-18 z" />
    <path
       id="rect1135"
       style="opacity:0.2;fill:#ffffff;fill-opacity:1"
       d="m 304,144 c -6.64799,0 -12,5.35201 -12,12 v 1 c 0,-6.64799 5.35201,-12 12,-12 h 32 c 6.64799,0 12,5.35201 12,12 v -1 c 0,-6.64799 -5.35201,-12 -12,-12 z" />
    <path
       id="rect1265"
       style="opacity:0.2;fill:#ffffff;fill-opacity:1"
       d="m 300,223 c -4.986,0 -9,4.014 -9,9 v 1 c 0,-4.986 4.014,-9 9,-9 h 24 c 4.986,0 9,4.014 9,9 v -1 c 0,-4.986 -4.014,-9 -9,-9 z" />
    <path
       id="rect1368"
       style="opacity:0.2;fill:#ffffff;fill-opacity:1"
       d="m 424,54 c -3.324,0 -6,2.676003 -6,6 v 1 c 0,-3.323997 2.676,-6 6,-6 h 16 c 3.324,0 6,2.676003 6,6 v -1 c 0,-3.323997 -2.676,-6 -6,-6 z" />
    <path
       id="rect1402"
       style="opacity:0.1;fill:#ffffff;fill-opacity:1"
       d="m 420,140 c -2.216,0 -4,1.784 -4,4 v 1 c 0,-2.216 1.784,-4 4,-4 h 8 c 2.216,0 4,1.784 4,4 v -1 c 0,-2.216 -1.784,-4 -4,-4 z" />
    <path
       id="rect1436"
       style="opacity:0.2;fill:#ffffff;fill-opacity:1"
       d="m 422,102 c -2.216,0 -4,1.784 -4,4 v 1 c 0,-2.216 1.784,-4 4,-4 h 12 c 2.216,0 4,1.784 4,4 v -1 c 0,-2.216 -1.784,-4 -4,-4 z" />
  </g>
</svg>
