<?xml version="1.0" encoding="UTF-8" standalone="no"?>
<!-- Created with Inkscape (http://www.inkscape.org/) -->

<svg
   inkscape:export-ydpi="90.000000"
   inkscape:export-xdpi="90.000000"
   width="480"
   height="300"
   id="svg11300"
   sodipodi:version="0.32"
   inkscape:version="1.4.2 (1:1.4.2+202505120737+ebf0e940d0)"
   sodipodi:docname="ms-edge.svg"
   inkscape:output_extension="org.inkscape.output.svg.inkscape"
   version="1.0"
   style="display:inline;enable-background:new"
   inkscape:export-filename="/home/sam/moka-next-template.png"
   xml:space="preserve"
   xmlns:inkscape="http://www.inkscape.org/namespaces/inkscape"
   xmlns:sodipodi="http://sodipodi.sourceforge.net/DTD/sodipodi-0.dtd"
   xmlns:xlink="http://www.w3.org/1999/xlink"
   xmlns="http://www.w3.org/2000/svg"
   xmlns:svg="http://www.w3.org/2000/svg"
   xmlns:rdf="http://www.w3.org/1999/02/22-rdf-syntax-ns#"
   xmlns:cc="http://creativecommons.org/ns#"
   xmlns:dc="http://purl.org/dc/elements/1.1/"><sodipodi:namedview
     stroke="#ef2929"
     fill="#f57900"
     id="base"
     pagecolor="#ffffff"
     bordercolor="#000000"
     borderopacity="0.61176471"
     inkscape:pageopacity="0"
     inkscape:pageshadow="2"
     inkscape:zoom="1.1366412"
     inkscape:cx="249.41907"
     inkscape:cy="131.52787"
     inkscape:current-layer="g2120"
     showgrid="false"
     inkscape:grid-bbox="true"
     inkscape:document-units="px"
     inkscape:showpageshadow="true"
     inkscape:window-width="1920"
     inkscape:window-height="994"
     inkscape:window-x="0"
     inkscape:window-y="0"
     width="400px"
     height="300px"
     inkscape:snap-nodes="true"
     inkscape:snap-bbox="true"
     gridtolerance="10000"
     inkscape:object-nodes="true"
     inkscape:snap-grids="true"
     showguides="true"
     inkscape:guide-bbox="true"
     inkscape:window-maximized="1"
     inkscape:bbox-nodes="true"
     inkscape:bbox-paths="true"
     inkscape:snap-bbox-edge-midpoints="true"
     inkscape:snap-bbox-midpoints="true"
     inkscape:object-paths="true"
     inkscape:snap-intersection-paths="true"
     inkscape:snap-smooth-nodes="true"
     inkscape:snap-midpoints="true"
     inkscape:pagecheckerboard="false"
     showborder="true"
     borderlayer="true"
     inkscape:deskcolor="#d1d1d1"><inkscape:grid
       spacingy="1"
       spacingx="1"
       id="grid5883"
       type="xygrid"
       enabled="true"
       visible="true"
       empspacing="4"
       snapvisiblegridlinesonly="true"
       dotted="false"
       color="#000000"
       opacity="0.12549"
       empcolor="#203ef3"
       empopacity="0.36470588"
       originx="0"
       originy="0"
       units="px" /><inkscape:grid
       type="xygrid"
       id="grid11592"
       empspacing="8"
       visible="true"
       enabled="false"
       spacingx="0.5"
       spacingy="0.5"
       color="#ff0000"
       opacity="0.12549"
       empcolor="#ff0000"
       empopacity="0.25098039"
       snapvisiblegridlinesonly="true"
       dotted="true"
       originx="0"
       originy="0"
       units="px" /></sodipodi:namedview><defs
     id="defs3"><linearGradient
       id="linearGradient65"
       inkscape:collect="always"><stop
         style="stop-color:#5cd876;stop-opacity:1;"
         offset="0"
         id="stop65" /><stop
         style="stop-color:#1773c2;stop-opacity:1;"
         offset="1"
         id="stop66" /></linearGradient><inkscape:path-effect
       effect="fillet_chamfer"
       id="path-effect45"
       is_visible="true"
       lpeversion="1"
       nodesatellites_param="F,1,0,1,0,0,0,1 @ F,1,0,1,0,0,0,1 @ F,1,0,1,0,0,0,1 @ F,1,0,1,0,0,0,1 @ F,1,0,1,0,0,0,1 @ F,1,0,1,0,0,0,1 @ F,1,0,1,0,0,0,1 @ F,1,0,1,0,0,0,1 @ F,1,0,1,0,0,0,1 @ F,1,0,1,0,0,0,1 @ F,1,0,1,0,0,0,1 @ F,1,0,1,0,0,0,1 @ F,1,0,1,0,0,0,1 @ F,1,0,1,0,0,0,1 @ F,1,0,1,0,0,0,1 @ F,1,0,1,0,0,0,1 @ F,1,0,1,0,0,0,1 @ F,1,0,1,0,0,0,1 @ F,1,0,1,0,0,0,1 @ F,1,0,1,0,0,0,1 @ F,1,0,1,0,0,0,1"
       radius="0"
       unit="px"
       method="auto"
       mode="F"
       chamfer_steps="1"
       flexible="true"
       use_knot_distance="true"
       apply_no_radius="true"
       apply_with_radius="true"
       only_selected="false"
       hide_knots="false" /><inkscape:path-effect
       effect="offset"
       id="path-effect43"
       is_visible="true"
       lpeversion="1.3"
       linejoin_type="miter"
       unit="px"
       offset="-5"
       miter_limit="4"
       attempt_force_join="false"
       update_on_knot_move="true" /><inkscape:path-effect
       effect="offset"
       id="path-effect41"
       is_visible="true"
       lpeversion="1.3"
       linejoin_type="miter"
       unit="px"
       offset="-5"
       miter_limit="4"
       attempt_force_join="false"
       update_on_knot_move="true" /><inkscape:path-effect
       effect="fillet_chamfer"
       id="path-effect39"
       is_visible="true"
       lpeversion="1"
       nodesatellites_param="F,1,0,1,0,0,0,1 @ F,1,0,1,0,0,0,1 @ F,1,0,1,0,0,0,1 @ F,1,0,1,0,0,0,1 @ F,1,0,1,0,0,0,1 @ F,1,0,1,0,0,0,1 @ F,1,0,1,0,0,0,1 @ F,1,0,1,0,0,0,1 @ F,1,0,1,0,0,0,1 @ F,1,0,1,0,0,0,1"
       radius="0"
       unit="px"
       method="auto"
       mode="F"
       chamfer_steps="1"
       flexible="true"
       use_knot_distance="true"
       apply_no_radius="true"
       apply_with_radius="true"
       only_selected="false"
       hide_knots="false" /><inkscape:path-effect
       effect="offset"
       id="path-effect37"
       is_visible="true"
       lpeversion="1.3"
       linejoin_type="miter"
       unit="px"
       offset="-5"
       miter_limit="4"
       attempt_force_join="false"
       update_on_knot_move="true" /><linearGradient
       id="linearGradient905"><stop
         style="stop-color:#ff7139;stop-opacity:1"
         offset="0"
         id="stop901" /><stop
         style="stop-color:#ff7139;stop-opacity:1"
         offset="1"
         id="stop903" /></linearGradient><linearGradient
       id="linearGradient3984"><stop
         id="stop3986"
         offset="0"
         style="stop-color:#f57d33;stop-opacity:1" /><stop
         id="stop3988"
         offset="1"
         style="stop-color:#faa653;stop-opacity:1;" /></linearGradient><inkscape:path-effect
       effect="offset"
       id="path-effect15"
       is_visible="true"
       lpeversion="1.3"
       linejoin_type="miter"
       unit="px"
       offset="-5"
       miter_limit="4"
       attempt_force_join="false"
       update_on_knot_move="true" /><inkscape:path-effect
       effect="fillet_chamfer"
       id="path-effect16"
       is_visible="true"
       lpeversion="1"
       nodesatellites_param="F,1,0,1,0,0,0,1 @ F,1,0,1,0,0,0,1 @ F,1,0,1,0,0,0,1 @ F,1,0,1,0,0,0,1 @ F,1,0,1,0,0,0,1 @ F,1,0,1,0,0,0,1 @ F,1,0,1,0,0,0,1 @ F,1,0,1,0,0,0,1 @ F,1,0,1,0,0,0,1 @ F,1,0,1,0,0,0,1"
       radius="0"
       unit="px"
       method="auto"
       mode="F"
       chamfer_steps="1"
       flexible="true"
       use_knot_distance="true"
       apply_no_radius="true"
       apply_with_radius="true"
       only_selected="false"
       hide_knots="false" /><inkscape:path-effect
       effect="offset"
       id="path-effect14"
       is_visible="true"
       lpeversion="1.3"
       linejoin_type="miter"
       unit="px"
       offset="-5"
       miter_limit="4"
       attempt_force_join="false"
       update_on_knot_move="true" /><inkscape:path-effect
       effect="offset"
       id="path-effect13"
       is_visible="true"
       lpeversion="1.3"
       linejoin_type="miter"
       unit="px"
       offset="-5"
       miter_limit="4"
       attempt_force_join="false"
       update_on_knot_move="true" /><inkscape:path-effect
       effect="fillet_chamfer"
       id="path-effect17"
       is_visible="true"
       lpeversion="1"
       nodesatellites_param="F,1,0,1,0,0,0,1 @ F,1,0,1,0,0,0,1 @ F,1,0,1,0,0,0,1 @ F,1,0,1,0,0,0,1 @ F,1,0,1,0,0,0,1 @ F,1,0,1,0,0,0,1 @ F,1,0,1,0,0,0,1 @ F,1,0,1,0,0,0,1 @ F,1,0,1,0,0,0,1 @ F,1,0,1,0,0,0,1 @ F,1,0,1,0,0,0,1 @ F,1,0,1,0,0,0,1 @ F,1,0,1,0,0,0,1 @ F,1,0,1,0,0,0,1 @ F,1,0,1,0,0,0,1 @ F,1,0,1,0,0,0,1 @ F,1,0,1,0,0,0,1 @ F,1,0,1,0,0,0,1 @ F,1,0,1,0,0,0,1 @ F,1,0,1,0,0,0,1 @ F,1,0,1,0,0,0,1 @ F,1,0,1,0,0,0,1"
       radius="0"
       unit="px"
       method="auto"
       mode="F"
       chamfer_steps="1"
       flexible="true"
       use_knot_distance="true"
       apply_no_radius="true"
       apply_with_radius="true"
       only_selected="false"
       hide_knots="false" /><linearGradient
       id="linearGradient4294"><stop
         id="stop4296"
         offset="0"
         style="stop-color:#979797;stop-opacity:1" /><stop
         id="stop4298"
         offset="1"
         style="stop-color:#b4b4b4;stop-opacity:1" /></linearGradient><linearGradient
       id="linearGradient5060"><stop
         style="stop-color:#c5c5c5;stop-opacity:1"
         offset="0"
         id="stop5062" /><stop
         style="stop-color:#e2e2e2;stop-opacity:1"
         offset="1"
         id="stop5064" /></linearGradient><linearGradient
       id="linearGradient4341"><stop
         id="stop4343"
         offset="0"
         style="stop-color:#e5e5e5;stop-opacity:1" /><stop
         id="stop4345"
         offset="1"
         style="stop-color:#eeefef;stop-opacity:1" /></linearGradient><linearGradient
       id="outerBackgroundGradient"><stop
         style="stop-color:#edefe7;stop-opacity:1;"
         offset="0"
         id="stop3864-8-6" /><stop
         style="stop-color:#f3f3f1;stop-opacity:1;"
         offset="1"
         id="stop3866-9-1" /></linearGradient><inkscape:path-effect
       effect="offset"
       id="path-effect15-3"
       is_visible="true"
       lpeversion="1.3"
       linejoin_type="miter"
       unit="px"
       offset="-5"
       miter_limit="4"
       attempt_force_join="false"
       update_on_knot_move="true" /><inkscape:path-effect
       effect="fillet_chamfer"
       id="path-effect16-4"
       is_visible="true"
       lpeversion="1"
       nodesatellites_param="F,1,0,1,0,0,0,1 @ F,1,0,1,0,0,0,1 @ F,1,0,1,0,0,0,1 @ F,1,0,1,0,0,0,1 @ F,1,0,1,0,0,0,1 @ F,1,0,1,0,0,0,1 @ F,1,0,1,0,0,0,1 @ F,1,0,1,0,0,0,1 @ F,1,0,1,0,0,0,1 @ F,1,0,1,0,0,0,1"
       radius="0"
       unit="px"
       method="auto"
       mode="F"
       chamfer_steps="1"
       flexible="true"
       use_knot_distance="true"
       apply_no_radius="true"
       apply_with_radius="true"
       only_selected="false"
       hide_knots="false" /><inkscape:path-effect
       effect="offset"
       id="path-effect14-1"
       is_visible="true"
       lpeversion="1.3"
       linejoin_type="miter"
       unit="px"
       offset="-5"
       miter_limit="4"
       attempt_force_join="false"
       update_on_knot_move="true" /><inkscape:path-effect
       effect="offset"
       id="path-effect13-5"
       is_visible="true"
       lpeversion="1.3"
       linejoin_type="miter"
       unit="px"
       offset="-5"
       miter_limit="4"
       attempt_force_join="false"
       update_on_knot_move="true" /><inkscape:path-effect
       effect="fillet_chamfer"
       id="path-effect17-0"
       is_visible="true"
       lpeversion="1"
       nodesatellites_param="F,1,0,1,0,0,0,1 @ F,1,0,1,0,0,0,1 @ F,1,0,1,0,0,0,1 @ F,1,0,1,0,0,0,1 @ F,1,0,1,0,0,0,1 @ F,1,0,1,0,0,0,1 @ F,1,0,1,0,0,0,1 @ F,1,0,1,0,0,0,1 @ F,1,0,1,0,0,0,1 @ F,1,0,1,0,0,0,1 @ F,1,0,1,0,0,0,1 @ F,1,0,1,0,0,0,1 @ F,1,0,1,0,0,0,1 @ F,1,0,1,0,0,0,1 @ F,1,0,1,0,0,0,1 @ F,1,0,1,0,0,0,1 @ F,1,0,1,0,0,0,1 @ F,1,0,1,0,0,0,1 @ F,1,0,1,0,0,0,1 @ F,1,0,1,0,0,0,1 @ F,1,0,1,0,0,0,1"
       radius="0"
       unit="px"
       method="auto"
       mode="F"
       chamfer_steps="1"
       flexible="true"
       use_knot_distance="true"
       apply_no_radius="true"
       apply_with_radius="true"
       only_selected="false"
       hide_knots="false" /><linearGradient
       inkscape:collect="always"
       xlink:href="#linearGradient65"
       id="linearGradient66"
       x1="144"
       y1="46.5"
       x2="144"
       y2="265.5"
       gradientUnits="userSpaceOnUse" /><linearGradient
       inkscape:collect="always"
       xlink:href="#linearGradient65"
       id="linearGradient68"
       x1="336"
       y1="32.5"
       x2="336"
       y2="119.5"
       gradientUnits="userSpaceOnUse" /><linearGradient
       inkscape:collect="always"
       xlink:href="#linearGradient65"
       id="linearGradient70"
       x1="320"
       y1="142.5"
       x2="320"
       y2="201.5"
       gradientUnits="userSpaceOnUse" /><linearGradient
       inkscape:collect="always"
       xlink:href="#linearGradient65"
       id="linearGradient72"
       x1="312"
       y1="223.5"
       x2="312"
       y2="264.5"
       gradientUnits="userSpaceOnUse" /><linearGradient
       inkscape:collect="always"
       xlink:href="#linearGradient65"
       id="linearGradient74"
       x1="432"
       y1="53.5"
       x2="432"
       y2="82.5"
       gradientUnits="userSpaceOnUse" /><linearGradient
       inkscape:collect="always"
       xlink:href="#linearGradient65"
       id="linearGradient76"
       x1="428"
       y1="101.5"
       x2="428"
       y2="122.5"
       gradientUnits="userSpaceOnUse" /><linearGradient
       inkscape:collect="always"
       xlink:href="#linearGradient65"
       id="linearGradient78"
       x1="424"
       y1="140.5"
       x2="424"
       y2="155.5"
       gradientUnits="userSpaceOnUse" /></defs><metadata
     id="metadata4"><rdf:RDF><cc:Work
         rdf:about=""><dc:format>image/svg+xml</dc:format><dc:type
           rdf:resource="http://purl.org/dc/dcmitype/StillImage" /><dc:creator><cc:Agent><dc:title /></cc:Agent></dc:creator><dc:source /><cc:license
           rdf:resource="" /><dc:subject><rdf:Bag /></dc:subject><dc:date /><dc:rights><cc:Agent><dc:title /></cc:Agent></dc:rights><dc:publisher><cc:Agent><dc:title /></cc:Agent></dc:publisher><dc:identifier /><dc:relation /><dc:language /><dc:coverage /><dc:description /><dc:contributor><cc:Agent><dc:title /></cc:Agent></dc:contributor></cc:Work><cc:Work
         rdf:about=""><dc:format>image/svg+xml</dc:format><dc:type
           rdf:resource="http://purl.org/dc/dcmitype/StillImage" /></cc:Work></rdf:RDF></metadata><g
     style="display:inline"
     inkscape:groupmode="layer"
     inkscape:label="Icon"
     id="layer1"><g
       style="display:none"
       inkscape:label="Baseplate"
       id="layer7"
       inkscape:groupmode="layer"><text
         y="19.745117"
         xml:space="preserve"
         x="15.006836"
         style="font-style:normal;font-variant:normal;font-weight:normal;font-stretch:normal;line-height:0%;font-family:'DejaVu Sans';-inkscape-font-specification:'DejaVu Sans';display:inline;fill:#000000;fill-opacity:1;stroke:none;enable-background:new"
         inkscape:label="context"
         id="context"><tspan
           style="font-style:normal;font-variant:normal;font-weight:normal;font-stretch:normal;font-size:18px;line-height:1.25;font-family:'DejaVu Sans';-inkscape-font-specification:'DejaVu Sans'"
           y="19.745117"
           x="15.006836"
           sodipodi:role="line"
           id="tspan3933">apps</tspan></text><text
         y="19.745117"
         xml:space="preserve"
         x="122.48828"
         style="font-style:normal;font-variant:normal;font-weight:bold;font-stretch:normal;line-height:0%;font-family:'DejaVu Sans';-inkscape-font-specification:'DejaVu Sans Bold';text-align:start;writing-mode:lr-tb;text-anchor:start;display:inline;fill:#000000;fill-opacity:1;stroke:none;enable-background:new"
         inkscape:label="icon-name"
         id="icon-name"><tspan
           style="font-style:normal;font-variant:normal;font-weight:bold;font-stretch:normal;font-size:18px;line-height:1.25;font-family:'DejaVu Sans';-inkscape-font-specification:'DejaVu Sans Bold'"
           y="19.745117"
           x="122.48828"
           sodipodi:role="line"
           id="tspan3937">ms-edge</tspan></text><rect
         style="fill:#eeeeec;fill-opacity:1;fill-rule:nonzero;stroke:none;stroke-width:2;marker:none;visibility:visible;display:inline;overflow:visible;enable-background:accumulate"
         id="rect16x16"
         width="16"
         height="16"
         x="416"
         y="140"
         inkscape:label="16x16" /><rect
         style="fill:#d4d4d4;fill-opacity:1;fill-rule:nonzero;stroke:none;stroke-width:2;marker:none;visibility:visible;display:inline;overflow:visible;enable-background:accumulate"
         id="rect24x24"
         width="24"
         height="24"
         x="416"
         y="100"
         inkscape:label="24x24" /><rect
         style="fill:#eeeeec;fill-opacity:1;fill-rule:nonzero;stroke:none;stroke-width:2;marker:none;visibility:visible;display:inline;overflow:visible;enable-background:accumulate"
         id="rect32x32"
         width="32"
         height="32"
         x="416"
         y="52"
         inkscape:label="32x32" /><rect
         inkscape:label="22x22"
         y="101"
         x="417"
         height="22"
         width="22"
         id="rect22x22"
         style="fill:#eeeeec;fill-opacity:1;fill-rule:nonzero;stroke:none;stroke-width:2;marker:none;visibility:visible;display:inline;overflow:visible;enable-background:accumulate" /><rect
         inkscape:label="48x48"
         y="220"
         x="288"
         height="48"
         width="48"
         id="rect48x48"
         style="fill:#eeeeec;fill-opacity:1;fill-rule:nonzero;stroke:none;stroke-width:2;marker:none;visibility:visible;display:inline;overflow:visible;enable-background:accumulate" /><rect
         style="fill:#eeeeec;fill-opacity:1;fill-rule:nonzero;stroke:none;stroke-width:2;marker:none;visibility:visible;display:inline;overflow:visible;enable-background:accumulate"
         id="rect256x256"
         width="256"
         height="256"
         x="16"
         y="28"
         inkscape:label="256x256" /><rect
         style="fill:#eeeeec;fill-opacity:1;fill-rule:nonzero;stroke:none;stroke-width:2;marker:none;visibility:visible;display:inline;overflow:visible;enable-background:accumulate"
         id="rect64x64"
         width="64"
         height="64"
         x="288"
         y="140"
         inkscape:label="64x64" /><rect
         style="fill:#eeeeec;fill-opacity:1;fill-rule:nonzero;stroke:none;stroke-width:2;marker:none;visibility:visible;display:inline;overflow:visible;enable-background:accumulate"
         id="rect96x96"
         width="96"
         height="96"
         x="288"
         y="28"
         inkscape:label="96x96" /></g><g
       inkscape:groupmode="layer"
       id="layer4"
       inkscape:label="Shadow"
       style="display:inline"
       sodipodi:insensitive="true"><rect
         ry="50"
         y="47"
         x="34"
         height="220"
         width="220"
         id="rect4114"
         style="opacity:0.1;color:#bebebe;fill:#000000;fill-opacity:1;fill-rule:nonzero;stroke:none;stroke-width:0;marker:none;visibility:visible;display:inline;overflow:visible;enable-background:accumulate" /><rect
         style="opacity:0.1;color:#bebebe;fill:#000000;fill-opacity:1;fill-rule:nonzero;stroke:none;stroke-width:0;marker:none;visibility:visible;display:inline;overflow:visible;enable-background:accumulate"
         id="rect4120"
         width="30"
         height="30"
         x="417"
         y="54"
         ry="7" /><rect
         transform="scale(1,-1)"
         ry="9"
         y="-266"
         x="291"
         height="42"
         width="42"
         id="rect4122"
         style="opacity:0.1;color:#bebebe;fill:#000000;fill-opacity:1;fill-rule:nonzero;stroke:none;stroke-width:0;marker:none;visibility:visible;display:inline;overflow:visible;enable-background:accumulate" /><rect
         style="opacity:0.1;color:#bebebe;fill:#000000;fill-opacity:1;fill-rule:nonzero;stroke:none;stroke-width:0;marker:none;visibility:visible;display:inline;overflow:visible;enable-background:accumulate"
         id="rect4124"
         width="88"
         height="88"
         x="292"
         y="33"
         ry="18" /><rect
         ry="12.5"
         y="143"
         x="290"
         height="60"
         width="60"
         id="rect4126"
         style="opacity:0.1;color:#bebebe;fill:#000000;fill-opacity:1;fill-rule:nonzero;stroke:none;stroke-width:0;marker:none;visibility:visible;display:inline;overflow:visible;enable-background:accumulate" /><path
         id="path4268"
         d="m 422,101 c -2.77,0 -5,2.23 -5,5 l 0,12 c 0,2.77 2.23,5 5,5 l 12,0 c 2.77,0 5,-2.23 5,-5 l 0,-12 c 0,-2.77 -2.23,-5 -5,-5 z"
         style="opacity:0.1;color:#bebebe;fill:#000000;fill-opacity:1;fill-rule:nonzero;stroke:none;stroke-width:0;marker:none;visibility:visible;display:inline;overflow:visible;enable-background:accumulate"
         inkscape:connector-curvature="0"
         sodipodi:nodetypes="sssssssss" /><path
         id="path4270"
         d="m 419,140 c -1.662,0 -3,1.338 -3,3 l 0,10 c 0,1.662 1.338,3 3,3 l 10,0 c 1.662,0 3,-1.338 3,-3 l 0,-10 c 0,-1.662 -1.338,-3 -3,-3 z"
         style="opacity:0.1;color:#bebebe;fill:#000000;fill-opacity:1;fill-rule:nonzero;stroke:none;stroke-width:0;marker:none;visibility:visible;display:inline;overflow:visible;enable-background:accumulate"
         inkscape:connector-curvature="0"
         sodipodi:nodetypes="sssssssss" /></g><g
       inkscape:groupmode="layer"
       id="layer2"
       inkscape:label="Background"
       style="display:inline" /><g
       inkscape:groupmode="layer"
       id="layer6"
       inkscape:label="Symbols"
       style="display:inline"><g
         id="g2120"
         style="display:inline"><g
           id="g1129"
           inkscape:label="ms-edge_256"><path
             style="color:#bebebe;display:inline;overflow:visible;visibility:visible;fill:url(#linearGradient66);fill-opacity:1;fill-rule:nonzero;stroke:none;stroke-width:2;marker:none;enable-background:accumulate"
             d="M 84,46.5 C 56.568735,46.5 34.5,68.568732 34.5,96 v 120 c 0,27.43127 22.068735,49.5 49.5,49.5 h 120 c 27.43127,0 49.5,-22.06873 49.5,-49.5 V 96 C 253.5,68.568732 231.43127,46.5 204,46.5 Z"
             id="path4200" /><path
             id="path47"
             style="display:inline;fill:#ffffff;stroke-width:2.44194;stroke-linecap:round;enable-background:new"
             d="M 144.0918 89.503906 C 119.7091 89.503904 98.428389 102.54229 86.828125 122.04102 C 95.343057 116.3537 106.00742 113.00593 117.43555 113.00586 C 127.32966 113.00575 137.05673 115.53962 145.32812 120.33789 C 148.86481 122.38948 152.09705 124.83212 154.93555 127.61523 C 156.07514 128.73262 157.14947 129.90286 158.15234 131.12109 L 158.1582 131.12891 L 158.16406 131.13672 C 163.3538 137.48912 166.4832 144.98315 167.14453 152.85547 C 167.15053 152.90047 167.15796 152.94707 167.16406 152.99219 C 167.16806 153.04589 167.17403 153.09859 167.17773 153.15234 C 167.30294 154.12429 167.3734 155.10184 167.375 156.08203 L 167.375 156.0957 L 167.375 156.10938 C 167.371 157.19439 167.29041 158.2796 167.13477 159.35547 C 166.50643 163.7998 164.62193 167.90447 161.77734 171.23047 C 166.72488 173.426 172.45742 174.63281 178.32031 174.63281 C 186.28154 174.63271 193.95652 172.39937 199.76953 168.55469 C 206.80728 163.90006 210.43093 157.5624 210.49414 151.15039 C 210.39343 149.79565 210.2498 148.44374 210.06641 147.09766 C 209.20787 140.79872 207.45208 134.65481 204.85156 128.85352 C 194.11405 104.89935 170.34187 89.503958 144.0918 89.503906 z M 117.43555 123.01367 C 94.910746 123.0138 77.506015 138.24923 77.505859 156.08984 C 77.505858 187.66841 99.373539 214.04314 128.82422 220.92578 C 122.88391 216.78667 117.78578 211.33106 114.00195 204.77734 C 112.33706 201.89376 110.96155 198.85209 109.89648 195.69727 C 103.4465 176.59205 108.99688 155.49868 124.01367 142.04102 C 126.58793 139.73433 129.39236 137.69934 132.38281 135.9668 L 132.39453 135.95898 L 132.53711 135.87109 L 132.66602 135.80664 C 132.67202 135.80364 132.67915 135.80088 132.68555 135.79688 L 132.68359 135.79297 C 132.74789 135.75777 132.81442 135.72826 132.87891 135.69336 L 132.87891 135.69141 C 132.90151 135.68031 132.92457 135.6692 132.94727 135.6582 C 133.50991 135.35473 134.08053 135.067 134.6543 134.78516 C 134.82157 134.70196 134.98415 134.61063 135.15234 134.5293 C 135.16134 134.5253 135.16903 134.52128 135.17773 134.51758 L 135.20898 134.58008 C 138.01544 133.41713 141.02886 132.8118 144.08203 132.80664 L 144.08789 132.80664 L 144.09375 132.80664 C 144.59622 132.80683 145.09817 132.82277 145.59961 132.85547 C 145.68281 132.86047 145.76472 132.86675 145.84766 132.87305 C 144.15338 131.45019 142.30167 130.1503 140.30859 128.99414 C 133.64523 125.12869 125.64007 123.01358 117.43555 123.01367 z M 121.31836 161.9082 C 116.76338 171.27329 115.91528 182.23664 119.37891 192.49609 C 120.23251 195.02452 121.33363 197.46236 122.66797 199.77344 C 131.24945 214.63687 148.22616 222.43592 165.07422 219.28516 C 173.75591 216.40267 181.75026 211.76116 188.56055 205.65039 C 190.78664 203.6529 192.86966 201.51101 194.79883 199.24414 C 188.43923 201.43125 181.63417 202.56444 174.75781 202.56445 C 162.06993 202.56436 149.6453 198.6898 139.86914 191.55664 L 139.86328 191.55273 L 139.85938 191.54883 C 129.66949 184.07409 122.99208 173.52448 121.31836 161.9082 z " /></g><g
           id="g1298"
           inkscape:label="ms-edge_96"><path
             style="color:#bebebe;display:inline;overflow:visible;visibility:visible;fill:url(#linearGradient68);fill-opacity:1;fill-rule:nonzero;stroke:none;stroke-width:2;marker:none;enable-background:accumulate"
             d="m 310,32.5 c -9.70255,0 -17.5,7.797452 -17.5,17.5 v 52 c 0,9.70255 7.79745,17.5 17.5,17.5 h 52 c 9.70255,0 17.5,-7.79745 17.5,-17.5 V 50 c 0,-9.702548 -7.79745,-17.5 -17.5,-17.5 z"
             id="path4210" /><path
             id="path48"
             style="display:inline;fill:#ffffff;stroke-width:0.975966;stroke-linecap:round;enable-background:new"
             d="M 336.03711 49.738281 C 326.29212 49.73828 317.78665 54.949168 313.15039 62.742188 C 316.55354 60.46915 320.81535 59.130886 325.38281 59.130859 C 329.33717 59.130815 333.22543 60.14283 336.53125 62.060547 C 337.94475 62.880501 339.23663 63.85643 340.37109 64.96875 C 340.82655 65.415334 341.25543 65.884207 341.65625 66.371094 L 341.6582 66.373047 L 341.66016 66.376953 C 343.73434 68.915807 344.98569 71.910328 345.25 75.056641 C 345.253 75.074631 345.25481 75.093308 345.25781 75.111328 C 345.25981 75.132798 345.26072 75.154301 345.26172 75.175781 C 345.31172 75.564238 345.3412 75.953951 345.3418 76.345703 L 345.3418 76.351562 L 345.3418 76.357422 C 345.3398 76.791065 345.30829 77.224305 345.24609 77.654297 C 344.99496 79.430551 344.24041 81.071093 343.10352 82.400391 C 345.08089 83.277873 347.37163 83.761721 349.71484 83.761719 C 352.89669 83.761679 355.96578 82.868625 358.28906 81.332031 C 361.10182 79.471725 362.54896 76.937676 362.57422 74.375 C 362.53402 73.833553 362.47755 73.293844 362.4043 72.755859 C 362.06117 70.238375 361.35966 67.783434 360.32031 65.464844 C 356.02996 55.891269 346.52842 49.738302 336.03711 49.738281 z M 325.38281 63.130859 C 316.38037 63.130912 309.42389 69.219284 309.42383 76.349609 C 309.42383 88.970556 318.16505 99.510943 329.93555 102.26172 C 327.5614 100.60744 325.52205 98.427907 324.00977 95.808594 C 323.34437 94.656118 322.79481 93.440567 322.36914 92.179688 C 319.79129 84.543938 322.00999 76.112972 328.01172 70.734375 C 329.04057 69.812463 330.16223 68.999084 331.35742 68.306641 L 331.36133 68.304688 L 331.41992 68.269531 L 331.4707 68.244141 C 331.4737 68.242841 331.47552 68.241534 331.47852 68.240234 L 331.47852 68.238281 C 331.50422 68.224221 331.53084 68.211216 331.55664 68.197266 C 331.56564 68.192866 331.57498 68.187964 331.58398 68.183594 C 331.80885 68.062306 332.03631 67.946628 332.26562 67.833984 C 332.33243 67.800734 332.39762 67.76493 332.46484 67.732422 C 332.46784 67.730822 332.47151 67.730216 332.47461 67.728516 L 332.48633 67.753906 C 333.60798 67.289111 334.81295 67.046986 336.0332 67.044922 L 336.03516 67.044922 L 336.03711 67.044922 C 336.23794 67.044998 336.43826 67.051343 336.63867 67.064453 C 336.67187 67.066653 336.70518 67.067813 336.73828 67.070312 C 336.06112 66.501638 335.32196 65.981611 334.52539 65.519531 C 331.86226 63.974636 328.6619 63.130823 325.38281 63.130859 z M 326.93555 78.675781 C 325.11508 82.418707 324.77586 86.80002 326.16016 90.900391 C 326.50132 91.910927 326.94132 92.88493 327.47461 93.808594 C 330.90436 99.749034 337.68824 102.86668 344.42188 101.60742 C 347.89168 100.45538 351.08673 98.600482 353.80859 96.158203 C 354.69829 95.359871 355.5317 94.503652 356.30273 93.597656 C 353.761 94.471775 351.04123 94.923824 348.29297 94.923828 C 343.22203 94.923791 338.25683 93.376285 334.34961 90.525391 L 334.34766 90.523438 L 334.3457 90.521484 C 330.27314 87.534074 327.60448 83.318431 326.93555 78.675781 z " /></g><g
           id="g1390"
           inkscape:label="ms-edge_64"><path
             style="color:#bebebe;display:inline;overflow:visible;visibility:visible;fill:url(#linearGradient70);fill-opacity:1;fill-rule:nonzero;stroke:none;stroke-width:2;marker:none;enable-background:accumulate"
             d="m 302.5,142.5 c -6.65502,0 -12,5.34498 -12,12 v 35 c 0,6.65502 5.34498,12 12,12 h 35 c 6.65502,0 12,-5.34498 12,-12 v -35 c 0,-6.65502 -5.34498,-12 -12,-12 z"
             id="path4212" /><path
             id="path51"
             style="display:inline;fill:#ffffff;stroke-width:0.659698;stroke-linecap:round;enable-background:new"
             d="M 320.02539 154.24805 C 313.43833 154.24805 307.68854 157.76947 304.55469 163.03711 C 306.85503 161.50067 309.73688 160.59767 312.82422 160.59766 C 315.49715 160.59763 318.12483 161.28186 320.35938 162.57812 C 321.31482 163.13236 322.18825 163.79111 322.95508 164.54297 C 323.26294 164.84484 323.55329 165.16112 323.82422 165.49023 L 323.82617 165.49219 L 323.82812 165.49414 C 325.23014 167.21026 326.07525 169.23655 326.25391 171.36328 C 326.25591 171.37548 326.25681 171.38634 326.25781 171.39844 C 326.25881 171.41294 326.26072 171.42886 326.26172 171.44336 C 326.29552 171.70593 326.31601 171.96958 326.31641 172.23438 L 326.31641 172.23828 L 326.31641 172.24219 C 326.31541 172.53531 326.292 172.82849 326.25 173.11914 C 326.08025 174.31978 325.57121 175.42763 324.80273 176.32617 C 326.13933 176.91929 327.68956 177.24609 329.27344 177.24609 C 331.42419 177.24606 333.49601 176.64218 335.06641 175.60352 C 336.96768 174.34606 337.94776 172.63456 337.96484 170.90234 C 337.93764 170.53635 337.89916 170.17029 337.84961 169.80664 C 337.61767 168.10496 337.14199 166.44614 336.43945 164.87891 C 333.53875 158.40773 327.11693 154.24806 320.02539 154.24805 z M 312.82422 163.30078 C 306.73908 163.30081 302.03715 167.41663 302.03711 172.23633 C 302.03711 180.76738 307.94419 187.89259 315.90039 189.75195 C 314.2956 188.63376 312.91869 187.15918 311.89648 185.38867 C 311.4467 184.60966 311.07484 183.78783 310.78711 182.93555 C 309.04463 177.77421 310.54473 172.07704 314.60156 168.44141 C 315.29701 167.81825 316.05345 167.26884 316.86133 166.80078 L 316.86523 166.79883 L 316.90234 166.77344 L 316.9375 166.75781 C 316.9385 166.75736 316.94053 166.75442 316.94141 166.75391 L 316.94336 166.75391 C 316.96029 166.74433 316.97909 166.73569 316.99609 166.72656 L 316.99609 166.72461 C 317.00209 166.72161 317.00747 166.7198 317.01367 166.7168 C 317.16567 166.6348 317.31961 166.55661 317.47461 166.48047 C 317.51981 166.45797 317.56393 166.43411 317.60938 166.41211 L 317.61719 166.4082 L 317.625 166.42578 C 318.38317 166.1116 319.19665 165.94866 320.02148 165.94727 L 320.02344 165.94727 L 320.02539 165.94727 C 320.16114 165.94732 320.29617 165.94978 320.43164 165.95898 C 320.45414 165.95998 320.4776 165.96284 320.5 165.96484 C 320.04228 165.58045 319.54039 165.22836 319.00195 164.91602 C 317.20182 163.87176 315.0407 163.30075 312.82422 163.30078 z M 313.87305 173.80859 C 312.64272 176.33848 312.41201 179.30083 313.34766 182.07227 C 313.57826 182.75534 313.87585 183.41276 314.23633 184.03711 C 316.55464 188.05251 321.1418 190.15978 325.69336 189.30859 C 328.03875 188.52988 330.19923 187.27584 332.03906 185.625 C 332.64044 185.08537 333.20149 184.50693 333.72266 183.89453 C 332.00459 184.48538 330.16626 184.79102 328.30859 184.79102 C 324.88092 184.791 321.52583 183.7454 318.88477 181.81836 L 318.88281 181.81641 L 318.88086 181.81641 C 316.12813 179.79716 314.32528 176.94663 313.87305 173.80859 z " /></g><g
           id="g1482"
           inkscape:label="ms-edge_48"><path
             style="color:#bebebe;display:inline;overflow:visible;visibility:visible;fill:url(#linearGradient72);fill-opacity:1;fill-rule:nonzero;stroke:none;stroke-width:2;marker:none;enable-background:accumulate"
             d="m 300,223.5 c -4.71531,0 -8.5,3.78469 -8.5,8.5 v 24 c 0,4.71531 3.78469,8.5 8.5,8.5 h 24 c 4.71531,0 8.5,-3.78469 8.5,-8.5 v -24 c 0,-4.71531 -3.78469,-8.5 -8.5,-8.5 z"
             id="path4208" /><path
             id="path54"
             style="display:inline;fill:#ffffff;stroke-width:0.459938;stroke-linecap:round;enable-background:new"
             d="M 312.01758 231.62305 C 307.42512 231.62305 303.41732 234.07938 301.23242 237.75195 C 302.8362 236.68075 304.84361 236.05079 306.99609 236.05078 C 308.85963 236.05075 310.69209 236.52789 312.25 237.43164 C 312.91614 237.81805 313.52593 238.27658 314.06055 238.80078 C 314.2752 239.01124 314.47713 239.23343 314.66602 239.46289 L 314.66797 239.46484 C 315.64545 240.66131 316.23481 242.07194 316.35938 243.55469 C 316.36037 243.56269 316.36228 243.57158 316.36328 243.58008 C 316.36409 243.59018 316.36423 243.60113 316.36523 243.61133 C 316.38883 243.7944 316.40214 243.97749 316.40234 244.16211 L 316.40234 244.16602 L 316.40234 244.16797 C 316.40154 244.37233 316.38682 244.57666 316.35742 244.7793 C 316.23907 245.61639 315.88538 246.38918 315.34961 247.01562 C 316.28147 247.42915 317.36057 247.6582 318.46484 247.6582 C 319.96433 247.65818 321.40903 247.23586 322.50391 246.51172 C 323.82946 245.63502 324.51348 244.44207 324.52539 243.23438 C 324.50639 242.97921 324.47796 242.72423 324.44336 242.4707 C 324.28165 241.2843 323.95075 240.12783 323.46094 239.03516 C 321.43859 234.52349 316.96177 231.62306 312.01758 231.62305 z M 306.99609 237.93555 C 302.75356 237.93557 299.47659 240.8038 299.47656 244.16406 C 299.47656 250.11187 303.59557 255.08061 309.14258 256.37695 C 308.02373 255.59735 307.06229 254.57033 306.34961 253.33594 C 306.03603 252.79282 305.77677 252.21921 305.57617 251.625 C 304.36132 248.02655 305.40793 244.05427 308.23633 241.51953 C 308.72119 241.08506 309.24925 240.70132 309.8125 240.375 L 309.81445 240.37305 L 309.83984 240.35742 L 309.86523 240.3457 L 309.86719 240.34375 L 309.86914 240.34375 L 309.86914 240.3418 C 309.88124 240.3348 309.89405 240.33082 309.90625 240.32422 L 309.90625 240.32227 C 309.91025 240.32027 309.91407 240.31841 309.91797 240.31641 C 310.02394 240.25921 310.13216 240.20542 310.24023 240.15234 C 310.27173 240.13664 310.30228 240.11882 310.33398 240.10352 L 310.33594 240.10352 L 310.33789 240.10156 L 310.3457 240.11328 C 310.8743 239.89424 311.44057 239.78027 312.01562 239.7793 L 312.01758 239.7793 C 312.11218 239.77933 312.20633 239.78306 312.30078 239.78906 C 312.31648 239.79006 312.33206 239.79197 312.34766 239.79297 C 312.02854 239.52497 311.68008 239.28026 311.30469 239.0625 C 310.04965 238.33444 308.54141 237.93553 306.99609 237.93555 z M 307.72852 245.25977 C 306.87057 247.02369 306.7109 249.08909 307.36328 251.02148 C 307.52405 251.49771 307.7311 251.95729 307.98242 252.39258 C 309.59873 255.1921 312.79543 256.6618 315.96875 256.06836 C 317.60394 255.52544 319.10987 254.65096 320.39258 253.5 C 320.81186 253.12377 321.205 252.71993 321.56836 252.29297 C 320.37053 252.70491 319.08813 252.91797 317.79297 252.91797 C 315.40322 252.91796 313.06399 252.18923 311.22266 250.8457 L 311.2207 250.84375 C 309.30141 249.43587 308.04374 247.44772 307.72852 245.25977 z " /></g><g
           id="g1574"
           inkscape:label="ms-edge_32"><path
             style="color:#bebebe;display:inline;overflow:visible;visibility:visible;fill:url(#linearGradient74);fill-opacity:1;fill-rule:nonzero;stroke:none;stroke-width:2;marker:none;enable-background:accumulate"
             d="m 424,53.5 c -3.60654,0 -6.5,2.893464 -6.5,6.5 v 16 c 0,3.606536 2.89346,6.5 6.5,6.5 h 16 c 3.60654,0 6.5,-2.893464 6.5,-6.5 V 60 c 0,-3.606536 -2.89346,-6.5 -6.5,-6.5 z"
             id="path4206" /><path
             id="path57"
             style="display:inline;fill:#ffffff;stroke-width:0.325322;stroke-linecap:round;enable-background:new"
             d="M 432.01172 59.246094 C 428.76339 59.246094 425.92823 60.982405 424.38281 63.580078 C 425.51719 62.822399 426.93845 62.376962 428.46094 62.376953 C 429.77906 62.376939 431.07579 62.714277 432.17773 63.353516 C 432.64889 63.626834 433.07888 63.951493 433.45703 64.322266 C 433.60885 64.471128 433.75117 64.62872 433.88477 64.791016 L 433.88672 64.791016 L 433.88672 64.792969 C 434.57811 65.639253 434.99588 66.636776 435.08398 67.685547 C 435.08483 67.691547 435.08494 67.697125 435.08594 67.703125 C 435.08652 67.710325 435.08689 67.717449 435.08789 67.724609 C 435.10459 67.854094 435.11503 67.98465 435.11523 68.115234 L 435.11523 68.117188 L 435.11523 68.119141 C 435.11466 68.263689 435.10273 68.407451 435.08203 68.550781 C 434.99833 69.142866 434.7481 69.689713 434.36914 70.132812 C 435.02826 70.425307 435.7912 70.585939 436.57227 70.585938 C 437.63288 70.585925 438.65526 70.289542 439.42969 69.777344 C 440.36728 69.157242 440.85095 68.313209 440.85938 67.458984 C 440.84598 67.278501 440.82723 67.097297 440.80273 66.917969 C 440.68835 66.078808 440.45387 65.261144 440.10742 64.488281 C 438.67698 61.297099 435.51077 59.246101 432.01367 59.246094 L 432.01172 59.246094 z M 428.46094 63.710938 C 425.46013 63.710955 423.14064 65.740413 423.14062 68.117188 C 423.14062 72.324169 426.05502 75.836982 429.97852 76.753906 C 429.18714 76.202482 428.508 75.47662 428.00391 74.603516 C 427.78211 74.219357 427.59892 73.812871 427.45703 73.392578 C 426.59774 70.847329 427.33731 68.037007 429.33789 66.244141 C 429.68084 65.936837 430.05473 65.666361 430.45312 65.435547 L 430.45508 65.435547 L 430.47266 65.423828 L 430.49023 65.414062 C 430.4911 65.413613 430.49314 65.41451 430.49414 65.414062 L 430.49414 65.412109 C 430.50314 65.407409 430.51093 65.403107 430.51953 65.398438 C 430.52253 65.396938 430.52434 65.395931 430.52734 65.394531 C 430.60234 65.354101 430.67942 65.316847 430.75586 65.279297 C 430.77816 65.268217 430.79987 65.254981 430.82227 65.244141 L 430.82422 65.242188 L 430.82812 65.25 C 431.20202 65.095069 431.60497 65.016313 432.01172 65.015625 C 432.07862 65.015651 432.14609 65.017084 432.21289 65.021484 C 432.22399 65.022207 432.23499 65.022638 432.24609 65.023438 C 432.02037 64.833879 431.77333 64.659885 431.50781 64.505859 C 430.6201 63.990894 429.55397 63.710926 428.46094 63.710938 z M 428.97852 68.892578 C 428.37168 70.14023 428.25926 71.59999 428.7207 72.966797 C 428.83442 73.303642 428.98043 73.627659 429.1582 73.935547 C 430.30145 75.915694 432.5621 76.954909 434.80664 76.535156 C 435.96324 76.151143 437.02826 75.532843 437.93555 74.71875 C 438.23211 74.452639 438.51057 74.167232 438.76758 73.865234 C 437.92033 74.156607 437.01374 74.308592 436.09766 74.308594 C 434.40734 74.308581 432.75163 73.792095 431.44922 72.841797 L 431.44922 72.839844 C 430.09168 71.844024 429.20148 70.440158 428.97852 68.892578 z " /></g><g
           id="g1750"
           inkscape:label="ms-edge_24"><path
             style="color:#bebebe;display:inline;overflow:visible;visibility:visible;fill:url(#linearGradient76);fill-opacity:1;fill-rule:nonzero;stroke:none;stroke-width:2;marker:none;enable-background:accumulate"
             d="m 422,101.5 c -2.49699,0 -4.5,2.00301 -4.5,4.5 v 12 c 0,2.49699 2.00301,4.5 4.5,4.5 h 12 c 2.49699,0 4.5,-2.00301 4.5,-4.5 v -12 c 0,-2.49699 -2.00301,-4.5 -4.5,-4.5 z"
             id="path4204" /><path
             id="path60"
             style="display:inline;fill:#ffffff;stroke-width:0.235577;stroke-linecap:round;enable-background:new"
             d="M 428.00781 105.66016 C 425.65641 105.66086 423.60315 106.91829 422.48438 108.79883 C 423.30581 108.25017 424.33501 107.92773 425.4375 107.92773 C 426.392 107.92772 427.33096 108.17187 428.12891 108.63477 C 428.4701 108.83269 428.78086 109.0694 429.05469 109.33789 C 429.16463 109.44569 429.26849 109.55825 429.36523 109.67578 L 429.36719 109.67773 C 429.86785 110.29055 430.16862 111.01202 430.23242 111.77148 C 430.23303 111.77548 430.23338 111.78096 430.23438 111.78516 C 430.2348 111.79016 430.23625 111.79558 430.23633 111.80078 C 430.24843 111.89458 430.25381 111.98942 430.25391 112.08398 L 430.25391 112.08594 C 430.2535 112.19061 430.24762 112.29465 430.23242 112.39844 C 430.17182 112.82719 429.98927 113.22406 429.71484 113.54492 C 430.19214 113.75673 430.74495 113.87305 431.31055 113.87305 C 432.07858 113.87304 432.82007 113.65801 433.38086 113.28711 C 434.05981 112.83807 434.40796 112.226 434.41406 111.60742 C 434.40406 111.47673 434.39075 111.34666 434.37305 111.2168 C 434.29025 110.60913 434.12197 110.01669 433.87109 109.45703 C 432.83553 107.14678 430.54137 105.66093 428.00977 105.66016 L 428.00781 105.66016 z M 425.4375 108.89258 C 423.2645 108.8926 421.58595 110.36287 421.58594 112.08398 C 421.58594 115.13041 423.69401 117.67586 426.53516 118.33984 C 425.96209 117.94053 425.47051 117.41349 425.10547 116.78125 C 424.94486 116.50307 424.81369 116.2106 424.71094 115.90625 C 424.0887 114.06314 424.62356 112.0268 426.07227 110.72852 C 426.32061 110.50599 426.59042 110.30972 426.87891 110.14258 L 426.88086 110.14258 L 426.89453 110.13477 L 426.90625 110.12891 L 426.9082 110.12695 C 426.9142 110.12395 426.92153 110.12119 426.92773 110.11719 L 426.92969 110.11523 C 426.93081 110.11473 426.93209 110.11378 426.93359 110.11328 C 426.98789 110.08398 427.04426 110.0565 427.09961 110.0293 C 427.11571 110.0213 427.13028 110.01376 427.14648 110.00586 L 427.14844 110.00391 L 427.15234 110.00977 C 427.42308 109.89758 427.71326 109.84033 428.00781 109.83984 L 428.00977 109.83984 C 428.05827 109.83985 428.10593 109.84075 428.1543 109.84375 C 428.1623 109.84427 428.16973 109.8447 428.17773 109.8457 C 428.01428 109.70844 427.8368 109.5842 427.64453 109.47266 C 427.0017 109.09975 426.229 108.89453 425.4375 108.89453 L 425.4375 108.89258 z M 425.8125 112.64648 C 425.37306 113.54995 425.29085 114.60594 425.625 115.5957 C 425.7073 115.83962 425.81268 116.07588 425.94141 116.29883 C 426.76927 117.73273 428.40784 118.4856 430.0332 118.18164 C 430.87073 117.90356 431.64183 117.45475 432.29883 116.86523 C 432.51358 116.67253 432.71428 116.46674 432.90039 116.24805 C 432.28687 116.45905 431.63017 116.56836 430.9668 116.56836 C 429.74278 116.56835 428.54468 116.194 427.60156 115.50586 L 427.59961 115.50586 C 426.61656 114.78475 425.97395 113.76714 425.8125 112.64648 z " /></g><g
           id="g2009"
           inkscape:label="ms-edge_16"><path
             style="color:#bebebe;display:inline;overflow:visible;visibility:visible;fill:url(#linearGradient78);fill-opacity:1;fill-rule:nonzero;stroke:none;stroke-width:2;marker:none;enable-background:accumulate"
             d="m 419,140.5 c -1.3844,0 -2.5,1.1156 -2.5,2.5 v 10 c 0,1.3844 1.1156,2.5 2.5,2.5 h 10 c 1.3844,0 2.5,-1.1156 2.5,-2.5 v -10 c 0,-1.3844 -1.1156,-2.5 -2.5,-2.5 z"
             id="path4202" /><path
             id="path63"
             style="display:inline;fill:#ffffff;stroke-width:0.16827;stroke-linecap:round;enable-background:new"
             d="M 424.00586 143.4707 L 424.00586 143.47266 C 422.32569 143.47266 420.85991 144.37121 420.06055 145.71484 C 420.6473 145.32294 421.38242 145.09181 422.16992 145.0918 C 422.8517 145.09179 423.52183 145.26702 424.0918 145.59766 C 424.3355 145.73903 424.55831 145.90588 424.75391 146.09766 C 424.83241 146.17466 424.90551 146.2559 424.97461 146.33984 L 424.97656 146.33984 C 425.33418 146.77757 425.55013 147.29542 425.5957 147.83789 C 425.59614 147.84089 425.59562 147.8427 425.5957 147.8457 C 425.59599 147.8497 425.59738 147.85342 425.59766 147.85742 C 425.60666 147.92442 425.61123 147.99105 425.61133 148.05859 L 425.61133 148.06055 C 425.61104 148.13535 425.60425 148.21103 425.59375 148.28516 C 425.55045 148.59142 425.42062 148.87433 425.22461 149.10352 C 425.56553 149.25481 425.96123 149.33789 426.36523 149.33789 C 426.91383 149.33788 427.44124 149.1829 427.8418 148.91797 C 428.32676 148.59723 428.57767 148.16059 428.58203 147.71875 C 428.57503 147.62535 428.56543 147.53221 428.55273 147.43945 C 428.49353 147.0054 428.37255 146.58334 428.19336 146.18359 C 427.45347 144.53298 425.81471 143.47071 424.00586 143.4707 z M 422.16992 145.78125 C 420.61777 145.78126 419.41798 146.83118 419.41797 148.06055 C 419.41797 150.23657 420.92568 152.05307 422.95508 152.52734 C 422.54574 152.24212 422.19433 151.86763 421.93359 151.41602 C 421.81887 151.21732 421.72378 151.00645 421.65039 150.78906 C 421.20593 149.47255 421.58826 148.01914 422.62305 147.0918 C 422.80044 146.93285 422.99315 146.79322 423.19922 146.67383 L 423.20117 146.67383 L 423.21094 146.66797 L 423.21875 146.66406 L 423.2207 146.66211 C 423.2247 146.66011 423.22987 146.6573 423.23438 146.6543 L 423.23633 146.6543 L 423.23828 146.65234 C 423.27708 146.63144 423.31594 146.61325 423.35547 146.59375 C 423.36697 146.58775 423.37903 146.58177 423.39062 146.57617 L 423.39062 146.57422 L 423.39258 146.57422 L 423.39453 146.57812 C 423.58792 146.49803 423.79547 146.45738 424.00586 146.45703 C 424.04046 146.45704 424.07676 146.45698 424.11133 146.45898 C 424.11733 146.45936 424.12125 146.46072 424.12695 146.46094 C 424.0102 146.36294 423.88343 146.27302 423.74609 146.19336 C 423.28693 145.92699 422.73528 145.78125 422.16992 145.78125 z M 422.4375 148.46094 C 422.12362 149.10628 422.06405 149.86139 422.30273 150.56836 C 422.36153 150.74259 422.43736 150.91106 422.5293 151.07031 C 423.12064 152.09452 424.29215 152.63117 425.45312 152.41406 C 426.05136 152.21543 426.60102 151.89569 427.07031 151.47461 C 427.22371 151.33697 427.36706 151.1894 427.5 151.0332 C 427.06177 151.18391 426.59297 151.26367 426.11914 151.26367 C 425.24484 151.26367 424.3885 150.99545 423.71484 150.50391 C 423.01267 149.98883 422.55283 149.26141 422.4375 148.46094 z " /></g></g></g><g
       inkscape:groupmode="layer"
       id="layer5"
       inkscape:label="Highlights"
       style="display:inline"
       sodipodi:insensitive="true"><path
         style="opacity:0.12999998;color:#bebebe;fill:#ffffff;fill-opacity:1;fill-rule:nonzero;stroke:none;stroke-width:0;marker:none;visibility:visible;display:inline;overflow:visible;enable-background:accumulate"
         d="M 84,47 C 56.836703,47 35,68.836703 35,96 l 0,1 C 35,69.836703 56.836703,48 84,48 l 120,0 c 27.1633,0 49,21.836703 49,49 l 0,-1 C 253,68.836703 231.1633,47 204,47 L 84,47 z"
         id="rect3894"
         inkscape:connector-curvature="0" /><path
         style="opacity:0.12999998;color:#bebebe;fill:#ffffff;fill-opacity:1;fill-rule:nonzero;stroke:none;stroke-width:0;marker:none;visibility:visible;display:inline;overflow:visible;enable-background:accumulate"
         d="m 419,141 c -1.1253,0 -2,0.8747 -2,2 l 0,1 c 0,-1.1253 0.8747,-2 2,-2 l 10,0 c 1.1253,0 2,0.8747 2,2 l 0,-1 c 0,-1.1253 -0.8747,-2 -2,-2 l -10,0 z"
         id="rect3896"
         inkscape:connector-curvature="0" /><path
         style="opacity:0.12999998;color:#bebebe;fill:#ffffff;fill-opacity:1;fill-rule:nonzero;stroke:none;stroke-width:0;marker:none;visibility:visible;display:inline;overflow:visible;enable-background:accumulate"
         d="m 422,102 c -2.2333,0 -4,1.7667 -4,4 l 0,1 c 0,-2.2333 1.7667,-4 4,-4 l 12,0 c 2.2333,0 4,1.7667 4,4 l 0,-1 c 0,-2.2333 -1.7667,-4 -4,-4 l -12,0 z"
         id="rect3898"
         inkscape:connector-curvature="0" /><path
         style="opacity:0.12999998;color:#bebebe;fill:#ffffff;fill-opacity:1;fill-rule:nonzero;stroke:none;stroke-width:0;marker:none;visibility:visible;display:inline;overflow:visible;enable-background:accumulate"
         d="m 424,54 c -3.3413,0 -6,2.658703 -6,6 l 0,1 c 0,-3.341297 2.6587,-6 6,-6 l 16,0 c 3.3413,0 6,2.658703 6,6 l 0,-1 c 0,-3.341297 -2.6587,-6 -6,-6 l -16,0 z"
         id="rect3900"
         inkscape:connector-curvature="0" /><path
         style="opacity:0.12999998;color:#bebebe;fill:#ffffff;fill-opacity:1;fill-rule:nonzero;stroke:none;stroke-width:0;marker:none;visibility:visible;display:inline;overflow:visible;enable-background:accumulate"
         d="m 300,224 c -4.4493,0 -8,3.5507 -8,8 l 0,1 c 0,-4.4493 3.5507,-8 8,-8 l 24,0 c 4.4493,0 8,3.5507 8,8 l 0,-1 c 0,-4.4493 -3.5507,-8 -8,-8 l -24,0 z"
         id="rect3902"
         inkscape:connector-curvature="0" /><path
         style="opacity:0.12999998;color:#bebebe;fill:#ffffff;fill-opacity:1;fill-rule:nonzero;stroke:none;stroke-width:0;marker:none;visibility:visible;display:inline;overflow:visible;enable-background:accumulate"
         d="m 310,33 c -9.4353,0 -17,7.564703 -17,17 l 0,1 c 0,-9.435297 7.5647,-17 17,-17 l 52,0 c 9.4353,0 17,7.564703 17,17 l 0,-1 c 0,-9.435297 -7.5647,-17 -17,-17 l -52,0 z"
         id="rect3904"
         inkscape:connector-curvature="0" /><path
         style="opacity:0.12999998;color:#bebebe;fill:#ffffff;fill-opacity:1;fill-rule:nonzero;stroke:none;stroke-width:0;marker:none;visibility:visible;display:inline;overflow:visible;enable-background:accumulate"
         d="m 302.5,143 c -6.3883,0 -11.5,5.1117 -11.5,11.5 l 0,1 c 0,-6.3883 5.1117,-11.5 11.5,-11.5 l 35,0 c 6.3883,0 11.5,5.1117 11.5,11.5 l 0,-1 c 0,-6.3883 -5.1117,-11.5 -11.5,-11.5 l -35,0 z"
         id="rect3906"
         inkscape:connector-curvature="0" /><path
         id="path4085"
         d="m 204,266 c 27.1633,0 49,-21.8367 49,-49 l 0,-1 c 0,27.1633 -21.8367,49 -49,49 L 84,265 C 56.8367,265 35,243.1633 35,216 l 0,1 c 0,27.1633 21.8367,49 49,49 l 120,0 z"
         style="opacity:0.41;color:#bebebe;fill:#000000;fill-opacity:1;fill-rule:nonzero;stroke:none;stroke-width:0;marker:none;visibility:visible;display:inline;overflow:visible;enable-background:accumulate"
         inkscape:connector-curvature="0" /><path
         id="path4087"
         d="m 429,156 c 1.1253,0 2,-0.8747 2,-2 l 0,-1 c 0,1.1253 -0.8747,2 -2,2 l -10,0 c -1.1253,0 -2,-0.8747 -2,-2 l 0,1 c 0,1.1253 0.8747,2 2,2 l 10,0 z"
         style="opacity:0.3;color:#bebebe;fill:#000000;fill-opacity:1;fill-rule:nonzero;stroke:none;stroke-width:0;marker:none;visibility:visible;display:inline;overflow:visible;enable-background:accumulate"
         inkscape:connector-curvature="0" /><path
         id="path4089"
         d="m 434,123 c 2.2333,0 4,-1.7667 4,-4 l 0,-1 c 0,2.2333 -1.7667,4 -4,4 l -12,0 c -2.2333,0 -4,-1.7667 -4,-4 l 0,1 c 0,2.2333 1.7667,4 4,4 l 12,0 z"
         style="opacity:0.3;color:#bebebe;fill:#000000;fill-opacity:1;fill-rule:nonzero;stroke:none;stroke-width:0;marker:none;visibility:visible;display:inline;overflow:visible;enable-background:accumulate"
         inkscape:connector-curvature="0" /><path
         id="path4091"
         d="m 440,83 c 3.3413,0 6,-2.6587 6,-6 l 0,-1 c 0,3.3413 -2.6587,6 -6,6 l -16,0 c -3.3413,0 -6,-2.6587 -6,-6 l 0,1 c 0,3.3413 2.6587,6 6,6 l 16,0 z"
         style="opacity:0.41;color:#bebebe;fill:#000000;fill-opacity:1;fill-rule:nonzero;stroke:none;stroke-width:0;marker:none;visibility:visible;display:inline;overflow:visible;enable-background:accumulate"
         inkscape:connector-curvature="0" /><path
         id="path4093"
         d="m 324,265 c 4.4493,0 8,-3.5507 8,-8 l 0,-1 c 0,4.4493 -3.5507,8 -8,8 l -24,0 c -4.4493,0 -8,-3.5507 -8,-8 l 0,1 c 0,4.4493 3.5507,8 8,8 l 24,0 z"
         style="opacity:0.41;color:#bebebe;fill:#000000;fill-opacity:1;fill-rule:nonzero;stroke:none;stroke-width:0;marker:none;visibility:visible;display:inline;overflow:visible;enable-background:accumulate"
         inkscape:connector-curvature="0" /><path
         id="path4095"
         d="m 362,120 c 9.4353,0 17,-7.5647 17,-17 l 0,-1 c 0,9.4353 -7.5647,17 -17,17 l -52,0 c -9.4353,0 -17,-7.5647 -17,-17 l 0,1 c 0,9.4353 7.5647,17 17,17 l 52,0 z"
         style="opacity:0.41;color:#bebebe;fill:#000000;fill-opacity:1;fill-rule:nonzero;stroke:none;stroke-width:0;marker:none;visibility:visible;display:inline;overflow:visible;enable-background:accumulate"
         inkscape:connector-curvature="0" /><path
         id="path4097"
         d="m 337.5,202 c 6.3883,0 11.5,-5.1117 11.5,-11.5 l 0,-1 c 0,6.3883 -5.1117,11.5 -11.5,11.5 l -35,0 c -6.3883,0 -11.5,-5.1117 -11.5,-11.5 l 0,1 c 0,6.3883 5.1117,11.5 11.5,11.5 l 35,0 z"
         style="opacity:0.41;color:#bebebe;fill:#000000;fill-opacity:1;fill-rule:nonzero;stroke:none;stroke-width:0;marker:none;visibility:visible;display:inline;overflow:visible;enable-background:accumulate"
         inkscape:connector-curvature="0" /><path
         inkscape:connector-curvature="0"
         id="path4280"
         d="M 84,265 C 56.836703,265 35,243.1633 35,216 l 0,-1 c 0,27.1633 21.836703,49 49,49 l 120,0 c 27.1633,0 49,-21.8367 49,-49 l 0,1 c 0,27.1633 -21.8367,49 -49,49 l -120,0 z"
         style="opacity:0.1;color:#bebebe;fill:#ffffff;fill-opacity:1;fill-rule:nonzero;stroke:none;stroke-width:0;marker:none;visibility:visible;display:inline;overflow:visible;enable-background:accumulate" /><path
         style="opacity:0.1;color:#bebebe;fill:#ffffff;fill-opacity:1;fill-rule:nonzero;stroke:none;stroke-width:0;marker:none;visibility:visible;display:inline;overflow:visible;enable-background:accumulate"
         d="m 300,264 c -4.4493,0 -8,-3.5507 -8,-8 l 0,-1 c 0,4.4493 3.5507,8 8,8 l 24,0 c 4.4493,0 8,-3.5507 8,-8 l 0,1 c 0,4.4493 -3.5507,8 -8,8 l -24,0 z"
         id="path4294"
         inkscape:connector-curvature="0" /><path
         style="opacity:0.1;color:#bebebe;fill:#ffffff;fill-opacity:1;fill-rule:nonzero;stroke:none;stroke-width:0;marker:none;visibility:visible;display:inline;overflow:visible;enable-background:accumulate"
         d="m 302.5,201 c -6.3883,0 -11.5,-5.1117 -11.5,-11.5 l 0,-1 c 0,6.3883 5.1117,11.5 11.5,11.5 l 35,0 c 6.3883,0 11.5,-5.1117 11.5,-11.5 l 0,1 c 0,6.3883 -5.1117,11.5 -11.5,11.5 l -35,0 z"
         id="path4296"
         inkscape:connector-curvature="0" /><path
         style="opacity:0.1;color:#bebebe;fill:#ffffff;fill-opacity:1;fill-rule:nonzero;stroke:none;stroke-width:0;marker:none;visibility:visible;display:inline;overflow:visible;enable-background:accumulate"
         d="m 310,119 c -9.4353,0 -17,-7.5647 -17,-17 l 0,-1 c 0,9.4353 7.5647,17 17,17 l 52,0 c 9.4353,0 17,-7.5647 17,-17 l 0,1 c 0,9.4353 -7.5647,17 -17,17 l -52,0 z"
         id="path4298"
         inkscape:connector-curvature="0" /><path
         style="opacity:0.1;color:#bebebe;fill:#ffffff;fill-opacity:1;fill-rule:nonzero;stroke:none;stroke-width:0;marker:none;visibility:visible;display:inline;overflow:visible;enable-background:accumulate"
         d="m 424,82 c -3.3413,0 -6,-2.658703 -6,-6 l 0,-1 c 0,3.341297 2.6587,6 6,6 l 16,0 c 3.3413,0 6,-2.658703 6,-6 l 0,1 c 0,3.341297 -2.6587,6 -6,6 l -16,0 z"
         id="path4300"
         inkscape:connector-curvature="0" /><path
         style="opacity:0.1;color:#bebebe;fill:#ffffff;fill-opacity:1;fill-rule:nonzero;stroke:none;stroke-width:0;marker:none;visibility:visible;display:inline;overflow:visible;enable-background:accumulate"
         d="m 422,122 c -2.2333,0 -4,-1.7667 -4,-4 l 0,-1 c 0,2.2333 1.7667,4 4,4 l 12,0 c 2.2333,0 4,-1.7667 4,-4 l 0,1 c 0,2.2333 -1.7667,4 -4,4 l -12,0 z"
         id="path4302"
         inkscape:connector-curvature="0" /><path
         style="opacity:0.1;color:#bebebe;fill:#ffffff;fill-opacity:1;fill-rule:nonzero;stroke:none;stroke-width:0;marker:none;visibility:visible;display:inline;overflow:visible;enable-background:accumulate"
         d="m 419,154.5 c -1.1253,0 -2,-0.8747 -2,-2 l 0,-1 c 0,1.1253 0.8747,2 2,2 l 10,0 c 1.1253,0 2,-0.8747 2,-2 l 0,1 c 0,1.1253 -0.8747,2 -2,2 l -10,0 z"
         id="path4304"
         inkscape:connector-curvature="0" /></g><g
       inkscape:groupmode="layer"
       id="layer3"
       inkscape:label="Border"
       style="display:inline"
       sodipodi:insensitive="true"><path
         style="opacity:0.41;color:#bebebe;fill:#000000;fill-opacity:1;fill-rule:nonzero;stroke:none;stroke-width:0;marker:none;visibility:visible;display:inline;overflow:visible;enable-background:accumulate"
         d="m 422,101 c -2.77,0 -5,2.23 -5,5 l 0,12 c 0,2.77 2.23,5 5,5 l 12,0 c 2.77,0 5,-2.23 5,-5 l 0,-12 c 0,-2.77 -2.23,-5 -5,-5 l -12,0 z m 0,1 12,0 c 2.2333,0 4,1.7667 4,4 l 0,12 c 0,2.2333 -1.7667,4 -4,4 l -12,0 c -2.2333,0 -4,-1.7667 -4,-4 l 0,-12 c 0,-2.2333 1.7667,-4 4,-4 z"
         id="rect4099"
         inkscape:connector-curvature="0" /><path
         style="opacity:0.41;color:#bebebe;fill:#000000;fill-opacity:1;fill-rule:nonzero;stroke:none;stroke-width:0;marker:none;visibility:visible;display:inline;overflow:visible;enable-background:accumulate"
         d="m 424,53 c -3.878,0 -7,3.122 -7,7 l 0,16 c 0,3.878 3.122,7 7,7 l 16,0 c 3.878,0 7,-3.122 7,-7 l 0,-16 c 0,-3.878 -3.122,-7 -7,-7 l -16,0 z m 0,1 16,0 c 3.3413,0 6,2.658703 6,6 l 0,16 c 0,3.341297 -2.6587,6 -6,6 l -16,0 c -3.3413,0 -6,-2.658703 -6,-6 l 0,-16 c 0,-3.341297 2.6587,-6 6,-6 z"
         id="rect4151"
         inkscape:connector-curvature="0" /><path
         style="opacity:0.41;color:#bebebe;fill:#000000;fill-opacity:1;fill-rule:nonzero;stroke:none;stroke-width:0;marker:none;visibility:visible;display:inline;overflow:visible;enable-background:accumulate"
         d="m 419,140 c -1.662,0 -3,1.338 -3,3 l 0,10 c 0,1.662 1.338,3 3,3 l 10,0 c 1.662,0 3,-1.338 3,-3 l 0,-10 c 0,-1.662 -1.338,-3 -3,-3 l -10,0 z m 0,1 10,0 c 1.1253,0 2,0.8747 2,2 l 0,10 c 0,1.1253 -0.8747,2 -2,2 l -10,0 c -1.1253,0 -2,-0.8747 -2,-2 l 0,-10 c 0,-1.1253 0.8747,-2 2,-2 z"
         id="rect4095"
         inkscape:connector-curvature="0" /><path
         style="opacity:0.41;color:#bebebe;fill:#000000;fill-opacity:1;fill-rule:nonzero;stroke:none;stroke-width:0;marker:none;visibility:visible;display:inline;overflow:visible;enable-background:accumulate"
         d="m 300,223 c -4.986,0 -9,4.014 -9,9 l 0,24 c 0,4.986 4.014,9 9,9 l 24,0 c 4.986,0 9,-4.014 9,-9 l 0,-24 c 0,-4.986 -4.014,-9 -9,-9 l -24,0 z m 0,1 24,0 c 4.4493,0 8,3.5507 8,8 l 0,24 c 0,4.4493 -3.5507,8 -8,8 l -24,0 c -4.4493,0 -8,-3.5507 -8,-8 l 0,-24 c 0,-4.4493 3.5507,-8 8,-8 z"
         id="rect4783"
         inkscape:connector-curvature="0" /><path
         style="opacity:0.41;color:#bebebe;fill:#000000;fill-opacity:1;fill-rule:nonzero;stroke:none;stroke-width:0;marker:none;visibility:visible;display:inline;overflow:visible;enable-background:accumulate"
         d="m 302.5,142 c -6.925,0 -12.5,5.575 -12.5,12.5 l 0,35 c 0,6.925 5.575,12.5 12.5,12.5 l 35,0 c 6.925,0 12.5,-5.575 12.5,-12.5 l 0,-35 c 0,-6.925 -5.575,-12.5 -12.5,-12.5 l -35,0 z m 0,1 35,0 c 6.3883,0 11.5,5.1117 11.5,11.5 l 0,35 c 0,6.3883 -5.1117,11.5 -11.5,11.5 l -35,0 c -6.3883,0 -11.5,-5.1117 -11.5,-11.5 l 0,-35 c 0,-6.3883 5.1117,-11.5 11.5,-11.5 z"
         id="rect4515"
         inkscape:connector-curvature="0" /><path
         style="opacity:0.41;color:#bebebe;fill:#000000;fill-opacity:1;fill-rule:nonzero;stroke:none;stroke-width:0;marker:none;visibility:visible;display:inline;overflow:visible;enable-background:accumulate"
         d="m 310,32 c -9.972,0 -18,8.028 -18,18 l 0,52 c 0,9.972 8.028,18 18,18 l 52,0 c 9.972,0 18,-8.028 18,-18 l 0,-52 c 0,-9.972 -8.028,-18 -18,-18 l -52,0 z m 0,1 52,0 c 9.4353,0 17,7.564703 17,17 l 0,52 c 0,9.4353 -7.5647,17 -17,17 l -52,0 c -9.4353,0 -17,-7.5647 -17,-17 l 0,-52 c 0,-9.435297 7.5647,-17 17,-17 z"
         id="rect4511"
         inkscape:connector-curvature="0" /><path
         style="opacity:0.41;color:#bebebe;fill:#000000;fill-opacity:1;fill-rule:nonzero;stroke:none;stroke-width:0;marker:none;visibility:visible;display:inline;overflow:visible;enable-background:accumulate"
         d="M 84,46 C 56.3,46 34,68.3 34,96 l 0,120 c 0,27.7 22.3,50 50,50 l 120,0 c 27.7,0 50,-22.3 50,-50 L 254,96 C 254,68.3 231.7,46 204,46 L 84,46 z m 0,1 120,0 c 27.1633,0 49,21.836703 49,49 l 0,120 c 0,27.1633 -21.8367,49 -49,49 L 84,265 C 56.836703,265 35,243.1633 35,216 L 35,96 C 35,68.836703 56.836703,47 84,47 z"
         id="rect4040"
         inkscape:connector-curvature="0" /></g></g><circle
     style="display:none;enable-background:new;opacity:0.509;fill:#ff0000;stroke-width:15.1181;stroke-linecap:round"
     id="path1"
     cx="144"
     cy="156"
     r="81.000023" /><style
     id="style2"
     type="text/css">
	.st0{fill:#175ddc;}
</style></svg>
