<?xml version="1.0" encoding="UTF-8" standalone="no"?>
<!-- Created with Inkscape (http://www.inkscape.org/) -->

<svg
   width="480"
   height="300"
   viewBox="0 0 480 300"
   version="1.1"
   id="svg5"
   inkscape:version="1.3 (1:1.3+202307231459+0e150ed6c4)"
   sodipodi:docname="ms-powerpoint.svg"
   xmlns:inkscape="http://www.inkscape.org/namespaces/inkscape"
   xmlns:sodipodi="http://sodipodi.sourceforge.net/DTD/sodipodi-0.dtd"
   xmlns="http://www.w3.org/2000/svg"
   xmlns:svg="http://www.w3.org/2000/svg">
  <sodipodi:namedview
     id="namedview7"
     pagecolor="#888888"
     bordercolor="#000000"
     borderopacity="0.25"
     inkscape:showpageshadow="true"
     inkscape:pageopacity="0"
     inkscape:pagecheckerboard="0"
     inkscape:deskcolor="#888888"
     inkscape:document-units="px"
     showgrid="false"
     showborder="false"
     inkscape:zoom="2.2916667"
     inkscape:cx="240"
     inkscape:cy="149.89091"
     inkscape:window-width="1920"
     inkscape:window-height="1008"
     inkscape:window-x="0"
     inkscape:window-y="0"
     inkscape:window-maximized="1"
     inkscape:current-layer="svg5" />
  <defs
     id="defs2" />
  <g
     id="Baseplate"
     style="display:none">
    <text
       y="19.774782"
       xml:space="preserve"
       x="15.006946"
       style="font-style:normal;font-variant:normal;font-weight:normal;font-stretch:normal;line-height:0%;font-family:'DejaVu Sans';-inkscape-font-specification:'DejaVu Sans';display:inline;fill:#000000;fill-opacity:1;stroke:none;enable-background:new"
       inkscape:label="context"
       id="context"><tspan
         style="font-style:normal;font-variant:normal;font-weight:normal;font-stretch:normal;font-size:18px;line-height:1.25;font-family:'DejaVu Sans';-inkscape-font-specification:'DejaVu Sans'"
         y="19.774782"
         x="15.006946"
         sodipodi:role="line"
         id="tspan3933">apps</tspan></text>
    <text
       y="19.774782"
       xml:space="preserve"
       x="122.48839"
       style="font-style:normal;font-variant:normal;font-weight:bold;font-stretch:normal;line-height:0%;font-family:'DejaVu Sans';-inkscape-font-specification:'DejaVu Sans Bold';text-align:start;writing-mode:lr-tb;text-anchor:start;display:inline;fill:#000000;fill-opacity:1;stroke:none;enable-background:new"
       inkscape:label="icon-name"
       id="icon-name"><tspan
         style="font-style:normal;font-variant:normal;font-weight:bold;font-stretch:normal;font-size:18px;line-height:1.25;font-family:'DejaVu Sans';-inkscape-font-specification:'DejaVu Sans Bold'"
         y="19.774782"
         x="122.48839"
         sodipodi:role="line"
         id="tspan3937">ms-powerpoint</tspan></text>
    <rect
       style="fill:#ffffff"
       id="256x256"
       width="256"
       height="256"
       x="16"
       y="28" />
    <rect
       style="fill:#ffffff"
       id="96x96"
       width="96"
       height="96"
       x="288"
       y="28" />
    <rect
       style="fill:#ffffff"
       id="64x64"
       width="64"
       height="64"
       x="288"
       y="140" />
    <rect
       style="fill:#ffffff"
       id="48x48"
       width="48"
       height="48"
       x="288"
       y="220" />
    <rect
       style="fill:#ffffff"
       id="32x32"
       width="32"
       height="32"
       x="416"
       y="52" />
    <rect
       style="fill:#ffffff"
       id="24x24"
       width="24"
       height="24"
       x="416"
       y="100" />
    <rect
       style="fill:#ffffff"
       id="22x22"
       width="22"
       height="22"
       x="417"
       y="101" />
    <rect
       style="fill:#ffffff"
       id="16x16"
       width="16"
       height="16"
       x="416"
       y="140" />
  </g>
  <g
     id="Shadow">
    <rect
       style="opacity:0.2;fill:#000000"
       id="rect651"
       width="224"
       height="224"
       x="32"
       y="46"
       ry="48" />
    <rect
       style="opacity:0.2;fill:#000000"
       id="rect769"
       width="84"
       height="85"
       x="294"
       y="34"
       ry="18" />
    <rect
       style="opacity:0.2;fill:#000000;fill-opacity:1"
       id="rect1131"
       width="56"
       height="56"
       x="292"
       y="145"
       ry="12" />
    <rect
       style="opacity:0.2;fill:#000000;fill-opacity:1"
       id="rect1261"
       width="42"
       height="42"
       x="291"
       y="224"
       ry="9" />
    <rect
       style="opacity:0.2;fill:#000000;fill-opacity:1"
       id="rect1364"
       width="28"
       height="29"
       x="418"
       y="54"
       ry="6" />
    <rect
       style="opacity:0.2;fill:#000000;fill-opacity:1"
       id="rect1398"
       width="16"
       height="16"
       x="416"
       y="141"
       ry="4" />
    <rect
       style="opacity:0.2;fill:#000000;fill-opacity:1"
       id="rect1432"
       width="20"
       height="20"
       x="418"
       y="103"
       ry="4" />
  </g>
  <g
     id="Background">
    <rect
       style="fill:#efefef;fill-opacity:1"
       id="rect597"
       width="224"
       height="224"
       x="32"
       y="44"
       ry="48" />
    <rect
       style="opacity:1;fill:#efefef;fill-opacity:1"
       id="rect771"
       width="84"
       height="84"
       x="294"
       y="34"
       ry="18" />
    <rect
       style="opacity:1;fill:#efefef;fill-opacity:1"
       id="rect1133"
       width="56"
       height="56"
       x="292"
       y="144"
       ry="12" />
    <rect
       style="opacity:1;fill:#efefef;fill-opacity:1"
       id="rect1263"
       width="42"
       height="42"
       x="291"
       y="223"
       ry="9" />
    <rect
       style="opacity:1;fill:#efefef;fill-opacity:1"
       id="rect1366"
       width="28"
       height="28"
       x="418"
       y="54"
       ry="6" />
    <rect
       style="opacity:1;fill:#c43e1c;fill-opacity:1"
       id="rect1400"
       width="16"
       height="16"
       x="416"
       y="140"
       ry="4" />
    <rect
       style="opacity:1;fill:#efefef;fill-opacity:1"
       id="rect1434"
       width="20"
       height="20"
       x="418"
       y="102"
       ry="4" />
  </g>
  <g
     id="g1">
    <path
       d="m 421,143.0096 v 9.99024 h 2 v -2.97071 h 1.01562 c 0.72259,0.0147 1.43814,-0.078 2.09375,-0.37109 0.57366,-0.25745 1.05827,-0.67103 1.39454,-1.1875 0.33011,-0.46685 0.50153,-1.46257 0.49023,-2.02734 0.0588,-0.88187 -0.30585,-2.04246 -0.99023,-2.63086 -0.82347,-0.58553 -1.83821,-0.86893 -2.85938,-0.80274 z m 2,1.99024 h 1.06055 c 1.28981,0 1.93554,0.52916 1.93554,1.58789 0.0354,0.39132 -0.15842,0.7698 -0.5039,0.98242 -0.42704,0.31145 -0.95847,0.46167 -1.49414,0.42383 H 423 Z"
       style="fill:#f9f7f7"
       id="path900" />
    <g
       id="g2">
      <circle
         style="opacity:0.2;fill:#000000;stroke-width:0.428571;stroke-linecap:round;stroke-linejoin:round"
         id="path567"
         cx="429"
         cy="112.5"
         r="6" />
      <path
         d="m 429,106 c -3.30969,0.01 -5.99032,2.69031 -6,6 l 7.60157,1.60157 z"
         style="fill:#ed6c47;stroke-width:0.428571"
         id="path467" />
      <path
         d="m 429,106 c 3.30969,0.01 5.99032,2.69031 6,6 l -3,2.03911 L 429,112 Z"
         style="fill:#ff8f6b;stroke-width:0.428571"
         id="path390" />
      <path
         d="m 429,118 c 3.30969,-0.01 5.99032,-2.69031 6,-6 h -12 c 0.01,3.30969 2.69031,5.99031 6,6 z"
         style="fill:#d35230;stroke-width:0.428571"
         id="path362" />
      <rect
         style="opacity:0.1;fill:#000000;stroke-width:0.46291;stroke-linecap:round;stroke-linejoin:round"
         id="rect673"
         width="12"
         height="0.49999997"
         x="423"
         y="112" />
      <path
         id="path495"
         style="opacity:0.2;fill:#ffffff;stroke-width:0.375"
         d="m 429,106 a 6,6 0 0 0 -6,6 6,6 0 0 0 0.0176,0.25 6,6 0 0 1 5.9824,-5.75 6,6 0 0 1 5.98828,5.6582 6,6 0 0 0 0.0117,-0.1582 6,6 0 0 0 -6,-6 z" />
      <rect
         style="opacity:0.1;fill:#000000;stroke-width:0.5;stroke-linecap:round;stroke-linejoin:round"
         id="rect655"
         width="7"
         height="7"
         x="421"
         y="109.5"
         ry="1" />
      <rect
         style="fill:#c43e1c;fill-opacity:1;stroke-width:0.5;stroke-linecap:round;stroke-linejoin:round"
         id="rect657"
         width="7"
         height="7"
         x="421"
         y="109"
         ry="1" />
      <path
         d="M 423,110.00472 V 115 h 1 v -1.48551 h 0.50777 c 0.36129,0.007 0.71906,-0.039 1.04687,-0.18555 0.28683,-0.12872 0.52913,-0.33551 0.69727,-0.59375 0.16505,-0.23343 0.25076,-0.73129 0.24511,-1.01367 0.0294,-0.44094 -0.15292,-1.02123 -0.49511,-1.31543 -0.41174,-0.29277 -0.9191,-0.43447 -1.42969,-0.40137 z m 1,0.99512 h 0.53023 c 0.6449,0 0.96777,0.26458 0.96777,0.79394 0.0177,0.19566 -0.0792,0.3849 -0.25195,0.49121 -0.21352,0.15573 -0.47924,0.23084 -0.74707,0.21192 H 424 Z"
         style="fill:#f9f7f7;stroke-width:0.5"
         id="path900-6" />
    </g>
    <g
       id="g4">
      <circle
         style="opacity:0.2;fill:#000000;stroke-width:0.714285;stroke-linecap:round;stroke-linejoin:round"
         id="path567-2"
         cx="433"
         cy="69"
         r="9.999999" />
      <path
         d="m 433,58 c -5.51615,0.01613 -9.98386,4.483851 -10,9.999999 l 12.66928,2.669285 z"
         style="fill:#ed6c47;stroke-width:0.714285"
         id="path467-7" />
      <path
         d="m 433,58 c 5.51615,0.01613 9.98386,4.48385 10,9.999999 l -5,3.398507 -5,-3.398507 z"
         style="fill:#ff8f6b;stroke-width:0.714285"
         id="path390-0" />
      <path
         d="m 433,77.999998 c 5.51615,-0.01614 9.98386,-4.483851 10,-9.999999 h -20 c 0.0161,5.516146 4.48385,9.983856 10,9.999999 z"
         style="fill:#d35230;stroke-width:0.714285"
         id="path362-9" />
      <rect
         style="opacity:0.1;fill:#000000;stroke-width:0.845155;stroke-linecap:round;stroke-linejoin:round"
         id="rect673-3"
         width="19.999998"
         height="1"
         x="423"
         y="68" />
      <path
         id="path495-6"
         style="opacity:0.2;fill:#ffffff;stroke-width:0.64935"
         d="m 433,58 a 10,10 0 0 0 -10,10 10,10 0 0 0 0.0361,0.5 10,10 0 0 1 9.96387,-9.5 10,10 0 0 1 9.97558,9.339844 10,10 0 0 0 0.0244,-0.339844 10,10 0 0 0 -10,-10 z" />
      <rect
         style="opacity:0.2;fill:#000000;stroke-linecap:round;stroke-linejoin:round"
         id="rect670"
         width="11"
         height="11"
         x="421"
         y="63"
         ry="1" />
      <rect
         style="fill:#c43e1c;fill-opacity:1;stroke-linecap:round;stroke-linejoin:round"
         id="rect672"
         width="11"
         height="11"
         x="421"
         y="62"
         ry="1" />
      <path
         d="m 424,63.999998 v 8 h 1 v -3 h 1.5 c 1.38071,0 2.5,-1.119289 2.5,-2.5 0,-1.380711 -1.11929,-2.5 -2.5,-2.5 H 425 Z m 1,1 h 1.5 c 0.82843,0 1.5,0.671574 1.5,1.5 0,0.828426 -0.67157,1.5 -1.5,1.5 H 425 Z"
         style="fill:#ffffff;fill-opacity:1;stroke-linecap:round;stroke-linejoin:round"
         id="path1256" />
    </g>
    <g
       id="g5">
      <circle
         style="opacity:0.2;fill:#000000;stroke-linecap:round;stroke-linejoin:round"
         id="path567-6"
         cx="313"
         cy="245"
         r="14" />
      <path
         d="m 313.00001,230 c -7.72261,0.0226 -13.97741,6.27739 -14,14 l 17.737,3.737 z"
         style="fill:#ed6c47"
         id="path467-2" />
      <path
         d="m 313.00001,230 c 7.72261,0.0226 13.97741,6.27739 14,14 l -7,4.75791 -7,-4.75791 z"
         style="fill:#ff8f6b"
         id="path390-6" />
      <path
         d="m 313.00001,258 c 7.72261,-0.0226 13.97741,-6.27739 14,-14 h -28 c 0.0226,7.72261 6.27739,13.9774 14,14 z"
         style="fill:#d35230"
         id="path362-1" />
      <rect
         style="opacity:0.1;fill:#000000;stroke-linecap:round;stroke-linejoin:round"
         id="rect673-8"
         width="28"
         height="1"
         x="299"
         y="244" />
      <path
         d="m 313.00001,230 c -7.72261,0.0226 -13.9774,6.2774 -14,14 l 0.043,0.01 c 0.53885,-7.31725 6.62021,-12.98586 13.957,-13.01 7.34287,0.0292 13.42319,5.7111 13.94922,13.03516 L 327.00001,244 c -0.0226,-7.72261 -6.27739,-13.97741 -14,-14 z"
         style="opacity:0.2;fill:#ffffff"
         id="path495-7" />
      <rect
         style="opacity:0.1;fill:#000000;stroke-linecap:round;stroke-linejoin:round"
         id="rect655-9"
         width="16"
         height="16"
         x="296"
         y="237"
         ry="1.4" />
      <rect
         style="fill:#c43e1c;fill-opacity:1;stroke-linecap:round;stroke-linejoin:round"
         id="rect657-2"
         width="16"
         height="16"
         x="296"
         y="236"
         ry="1.4" />
      <path
         d="m 301.00001,239.00944 v 9.99024 h 2 v -2.97071 h 1.01562 c 0.72259,0.0147 1.43814,-0.0781 2.09375,-0.37109 0.57366,-0.25745 1.05827,-0.67103 1.39454,-1.1875 0.33011,-0.46685 0.50153,-1.46258 0.49023,-2.02735 0.0588,-0.88186 -0.30585,-2.04245 -0.99023,-2.63085 -0.82347,-0.58553 -1.83821,-0.86894 -2.85938,-0.80274 z m 2,1.99024 h 1.06055 c 1.28981,0 1.93554,0.52916 1.93554,1.58789 0.0354,0.39131 -0.15842,0.7698 -0.5039,0.98242 -0.42704,0.31145 -0.95847,0.46167 -1.49414,0.42383 h -0.99805 z"
         style="fill:#f9f7f7"
         id="path900-0" />
    </g>
    <g
       id="g6">
      <circle
         style="opacity:0.2;fill:#000000;stroke-width:1.42857;stroke-linecap:round;stroke-linejoin:round"
         id="path567-3"
         cx="322"
         cy="173"
         r="19.999998" />
      <path
         d="m 322,152 c -11.0323,0.0323 -19.96772,8.9677 -20,20 l 25.33857,5.33857 z"
         style="fill:#ed6c47;stroke-width:1.42857"
         id="path467-75" />
      <path
         d="m 322,152 c 11.03229,0.0323 19.96772,8.9677 20,20 L 332,178.79701 322,172 Z"
         style="fill:#ff8f6b;stroke-width:1.42857"
         id="path390-9" />
      <path
         d="m 322,192 c 11.03229,-0.0323 19.96772,-8.96771 20,-20 h -40 c 0.0323,11.03229 8.9677,19.96771 20,20 z"
         style="fill:#d35230;stroke-width:1.42857"
         id="path362-2" />
      <rect
         style="opacity:0.1;fill:#000000;stroke-width:1.19523;stroke-linecap:round;stroke-linejoin:round"
         id="rect673-28"
         width="39.999996"
         height="1"
         x="302"
         y="172" />
      <path
         id="path495-97"
         style="opacity:0.2;fill:#ffffff;stroke-width:1.42857"
         d="m 322,152 c -11.03229,0.0323 -19.96772,8.96771 -20,20 l 0.0605,0.0137 c 0.009,-0.12263 0.024,-0.24326 0.0352,-0.36523 A 19.999998,19.999998 0 0 1 322,153 19.999998,19.999998 0 0 1 341.97656,172.01758 L 342,172 c -0.0323,-11.03229 -8.96772,-19.96772 -20,-20 z" />
      <rect
         style="opacity:0.1;fill:#000000;stroke-linecap:round;stroke-linejoin:round"
         id="rect625-3"
         width="22"
         height="22"
         x="298"
         y="162"
         ry="2" />
      <rect
         style="fill:#c43e1c;fill-opacity:1;stroke-linecap:round;stroke-linejoin:round"
         id="rect627-6"
         width="22"
         height="22"
         x="298"
         y="161"
         ry="2" />
      <path
         d="m 304.00006,165.01343 v 13.98633 h 3 v -5 h 2.01953 c 0.90323,0.0206 1.79768,-0.10929 2.61719,-0.51953 0.71706,-0.36042 1.32187,-0.93713 1.74219,-1.66016 0.41263,-0.65357 0.6274,-1.62927 0.61328,-2.41992 0.0735,-1.23457 -0.38281,-2.43799 -1.23828,-3.26172 -1.02932,-0.81971 -2.29582,-1.21767 -3.57227,-1.125 z m 3,2.98633 h 1.90039 c 1.39925,0 2.09961,0.53035 2.09961,1.59179 0.0384,0.39232 -0.17208,0.77121 -0.54687,0.98438 -0.46327,0.31224 -1.03998,0.46372 -1.6211,0.42578 h -1.83203 z"
         style="fill:#f9f7f7"
         id="path4348-1" />
    </g>
    <g
       id="g7">
      <circle
         style="opacity:0.2;fill:#000000;stroke-width:2.14286;stroke-linecap:round;stroke-linejoin:round"
         id="path567-9"
         cx="339"
         cy="77"
         r="29.999996" />
      <path
         d="m 339,46 c -16.54845,0.04841 -29.95159,13.451553 -30,29.999996 l 38.00785,8.007856 z"
         style="fill:#ed6c47;stroke-width:2.14286"
         id="path467-31" />
      <path
         d="m 339,46 c 16.54844,0.04841 29.95157,13.45155 29.99999,29.999996 l -15,10.195521 L 339,75.999996 Z"
         style="fill:#ff8f6b;stroke-width:2.14286"
         id="path390-94" />
      <path
         d="m 339,105.99999 c 16.54844,-0.0484 29.95157,-13.45155 29.99999,-29.999994 H 309 c 0.0484,16.548434 13.45156,29.951574 30,29.999994 z"
         style="fill:#d35230;stroke-width:2.14286"
         id="path362-7" />
      <rect
         style="opacity:0.1;fill:#000000;stroke-width:1.46386;stroke-linecap:round;stroke-linejoin:round"
         id="rect673-84"
         width="59.999992"
         height="1"
         x="309"
         y="75.999992" />
      <path
         id="path495-5"
         style="opacity:0.2;fill:#ffffff;stroke-width:2.14286"
         d="m 339,46 c -16.54841,0.04841 -29.95158,13.451587 -30,30 l 0.0703,0.01563 A 29.999996,29.999996 0 0 1 339,47 29.999996,29.999996 0 0 1 368.97461,76.017578 l 0.0254,-0.01758 c -0.0484,-16.54841 -13.45159,-29.951585 -30,-30 z" />
      <rect
         style="opacity:0.1;fill:#000000;stroke-width:1.5;stroke-linecap:round;stroke-linejoin:round"
         id="rect625-0"
         width="32"
         height="32"
         x="303"
         y="61"
         ry="3" />
      <rect
         style="fill:#c43e1c;fill-opacity:1;stroke-width:1.5;stroke-linecap:round;stroke-linejoin:round"
         id="rect627-3"
         width="32"
         height="32"
         x="303"
         y="60"
         ry="3" />
      <path
         d="M 312.00009,65.019779 V 87 h 3.99986 v -9 h 3.52944 c 1.35483,0.03086 2.79212,-0.121679 4.02139,-0.737047 1.07559,-0.540618 1.88719,-0.948663 2.51767,-2.033214 0.61896,-0.980355 0.9411,-2.443905 0.91993,-3.629882 0.1102,-1.851853 -0.57423,-3.656979 -1.85743,-4.892578 -1.54397,-1.22957 -3.44372,-1.826505 -5.35839,-1.6875 z M 316.00005,69 h 3.35063 c 2.09887,0 3.14941,0.907839 3.14941,2.5 0.0576,0.588482 -0.25811,1.54378 -0.82031,1.863529 -0.69489,0.468367 -1.55996,0.695578 -2.43164,0.638671 h -3.24809 z"
         style="fill:#f9f7f7;stroke-width:1.5"
         id="path4348-6" />
    </g>
    <g
       id="g3">
      <circle
         style="opacity:0.2;fill:#000000;stroke-width:5.71428;stroke-linecap:round;stroke-linejoin:round"
         id="path567-5"
         cx="152"
         cy="158"
         r="79.999992" />
      <path
         d="M 151.99999,76 C 107.8708,76.12908 72.129105,111.87081 71.999997,155.99999 L 173.35427,177.35427 Z"
         style="fill:#ed6c47;stroke-width:5.71428"
         id="path467-3" />
      <path
         d="m 151.99999,76 c 44.12918,0.12908 79.87087,35.8708 79.99999,79.99999 l -40,27.18805 -39.99999,-27.18805 z"
         style="fill:#ff8f6b;stroke-width:5.71428"
         id="path390-5" />
      <path
         d="m 151.99999,235.99998 c 44.12918,-0.12908 79.87087,-35.87081 79.99999,-79.99999 H 71.999997 c 0.12916,44.12917 35.870813,79.87085 79.999993,79.99999 z"
         style="fill:#d35230;stroke-width:5.71428"
         id="path362-6" />
      <rect
         style="opacity:0.1;fill:#000000;stroke-width:3.38062;stroke-linecap:round;stroke-linejoin:round"
         id="rect673-2"
         width="159.99998"
         height="2"
         x="72.000023"
         y="155.99997" />
      <path
         id="path495-9"
         style="opacity:0.2;fill:#ffffff;stroke-width:5.71428"
         d="m 152,76 c -44.1291,0.12908 -79.870891,35.8709 -80.000003,80 l 0.13282,0.0312 A 79.999992,79.999992 0 0 1 152.00002,78 a 79.999992,79.999992 0 0 1 79.95316,78.03125 l 0.0468,-0.0312 c -0.129,-44.1291 -35.87081,-79.87089 -79.99991,-80 z" />
      <rect
         style="opacity:0.1;fill:#000000;stroke-width:4;stroke-linecap:round;stroke-linejoin:round"
         id="rect625"
         width="88"
         height="88"
         x="55.999992"
         y="114"
         ry="8" />
      <rect
         style="fill:#c43e1c;fill-opacity:1;stroke-width:4;stroke-linecap:round;stroke-linejoin:round"
         id="rect627"
         width="88"
         height="88"
         x="55.999992"
         y="112"
         ry="8" />
      <path
         d="m 80.000255,128.05372 v 55.94531 H 92.00025 v -20 h 8.07813 c 3.61288,0.0823 7.19071,-0.43715 10.46875,-2.07813 2.86823,-1.44164 5.28746,-3.74849 6.96875,-6.64062 1.65054,-2.61428 2.50961,-6.51708 2.45313,-9.67969 0.29388,-4.93827 -1.53126,-9.75194 -4.95313,-13.04687 -4.11726,-3.27886 -9.18326,-4.87068 -14.28906,-4.5 z m 11.999995,11.94531 h 7.60157 c 5.59698,0 8.39843,2.12142 8.39843,6.36719 0.15368,1.56928 -0.68831,3.08483 -2.1875,3.9375 -1.85305,1.24898 -4.1599,1.85487 -6.48437,1.70312 h -7.32813 z"
         style="fill:#f9f7f7;stroke-width:4"
         id="path4348" />
    </g>
  </g>
  <g
     id="Highlights">
    <path
       id="rect653"
       style="opacity:0.2;fill:#ffffff"
       d="M 80,44 C 53.408027,44 32,65.408027 32,92 v 2 C 32,67.408027 53.408027,46 80,46 h 128 c 26.59197,0 48,21.408027 48,48 V 92 C 256,65.408027 234.59197,44 208,44 Z"
       sodipodi:nodetypes="sscsscsss" />
    <path
       id="rect773"
       style="opacity:0.2;fill:#ffffff"
       d="m 312,34 c -9.97199,0 -18,8.02801 -18,18 v 1 c 0,-9.97199 8.02801,-18 18,-18 h 48 c 9.97199,0 18,8.02801 18,18 v -1 c 0,-9.97199 -8.02801,-18 -18,-18 z" />
    <path
       id="rect1135"
       style="opacity:0.2;fill:#ffffff;fill-opacity:1"
       d="m 304,144 c -6.64799,0 -12,5.35201 -12,12 v 1 c 0,-6.64799 5.35201,-12 12,-12 h 32 c 6.64799,0 12,5.35201 12,12 v -1 c 0,-6.64799 -5.35201,-12 -12,-12 z" />
    <path
       id="rect1265"
       style="opacity:0.2;fill:#ffffff;fill-opacity:1"
       d="m 300,223 c -4.986,0 -9,4.014 -9,9 v 1 c 0,-4.986 4.014,-9 9,-9 h 24 c 4.986,0 9,4.014 9,9 v -1 c 0,-4.986 -4.014,-9 -9,-9 z" />
    <path
       id="rect1368"
       style="opacity:0.2;fill:#ffffff;fill-opacity:1"
       d="m 424,54 c -3.324,0 -6,2.676003 -6,6 v 1 c 0,-3.323997 2.676,-6 6,-6 h 16 c 3.324,0 6,2.676003 6,6 v -1 c 0,-3.323997 -2.676,-6 -6,-6 z" />
    <path
       id="rect1402"
       style="opacity:0.1;fill:#ffffff;fill-opacity:1"
       d="m 420,140 c -2.216,0 -4,1.784 -4,4 v 1 c 0,-2.216 1.784,-4 4,-4 h 8 c 2.216,0 4,1.784 4,4 v -1 c 0,-2.216 -1.784,-4 -4,-4 z" />
    <path
       id="rect1436"
       style="opacity:0.2;fill:#ffffff;fill-opacity:1"
       d="m 422,102 c -2.216,0 -4,1.784 -4,4 v 1 c 0,-2.216 1.784,-4 4,-4 h 12 c 2.216,0 4,1.784 4,4 v -1 c 0,-2.216 -1.784,-4 -4,-4 z" />
  </g>
</svg>
