<?xml version="1.0" encoding="UTF-8" standalone="no"?>
<!-- Created with Inkscape (http://www.inkscape.org/) -->

<svg
   width="480"
   height="300"
   viewBox="0 0 480 300"
   version="1.1"
   id="svg5"
   inkscape:version="1.3.2 (091e20ef0f, 2023-11-25, custom)"
   sodipodi:docname="obsidian.svg"
   xmlns:inkscape="http://www.inkscape.org/namespaces/inkscape"
   xmlns:sodipodi="http://sodipodi.sourceforge.net/DTD/sodipodi-0.dtd"
   xmlns="http://www.w3.org/2000/svg"
   xmlns:svg="http://www.w3.org/2000/svg">
  <sodipodi:namedview
     id="namedview7"
     pagecolor="#888888"
     bordercolor="#000000"
     borderopacity="0.25"
     inkscape:showpageshadow="true"
     inkscape:pageopacity="0"
     inkscape:pagecheckerboard="0"
     inkscape:deskcolor="#888888"
     inkscape:document-units="px"
     showgrid="false"
     showborder="false"
     inkscape:zoom="2.65"
     inkscape:cx="239.81132"
     inkscape:cy="150"
     inkscape:window-width="1920"
     inkscape:window-height="1008"
     inkscape:window-x="0"
     inkscape:window-y="0"
     inkscape:window-maximized="1"
     inkscape:current-layer="svg5" />
  <defs
     id="defs2" />
  <g
     id="Baseplate"
     style="display:none">
    <text
       y="19.774782"
       xml:space="preserve"
       x="15.006946"
       style="font-style:normal;font-variant:normal;font-weight:normal;font-stretch:normal;line-height:0%;font-family:'DejaVu Sans';-inkscape-font-specification:'DejaVu Sans';display:inline;fill:#000000;fill-opacity:1;stroke:none;enable-background:new"
       inkscape:label="context"
       id="context"><tspan
         style="font-style:normal;font-variant:normal;font-weight:normal;font-stretch:normal;font-size:18px;line-height:1.25;font-family:'DejaVu Sans';-inkscape-font-specification:'DejaVu Sans'"
         y="19.774782"
         x="15.006946"
         sodipodi:role="line"
         id="tspan3933">apps</tspan></text>
    <text
       y="19.774782"
       xml:space="preserve"
       x="122.48839"
       style="font-style:normal;font-variant:normal;font-weight:bold;font-stretch:normal;line-height:0%;font-family:'DejaVu Sans';-inkscape-font-specification:'DejaVu Sans Bold';text-align:start;writing-mode:lr-tb;text-anchor:start;display:inline;fill:#000000;fill-opacity:1;stroke:none;enable-background:new"
       inkscape:label="icon-name"
       id="icon-name"><tspan
         style="font-style:normal;font-variant:normal;font-weight:bold;font-stretch:normal;font-size:18px;line-height:1.25;font-family:'DejaVu Sans';-inkscape-font-specification:'DejaVu Sans Bold'"
         y="19.774782"
         x="122.48839"
         sodipodi:role="line"
         id="tspan3937">obsidian</tspan></text>
    <rect
       style="fill:#ffffff"
       id="256x256"
       width="256"
       height="256"
       x="16"
       y="28" />
    <rect
       style="fill:#ffffff"
       id="96x96"
       width="96"
       height="96"
       x="288"
       y="28" />
    <rect
       style="fill:#ffffff"
       id="64x64"
       width="64"
       height="64"
       x="288"
       y="140" />
    <rect
       style="fill:#ffffff"
       id="48x48"
       width="48"
       height="48"
       x="288"
       y="220" />
    <rect
       style="fill:#ffffff"
       id="32x32"
       width="32"
       height="32"
       x="416"
       y="52" />
    <rect
       style="fill:#ffffff"
       id="24x24"
       width="24"
       height="24"
       x="416"
       y="100" />
    <rect
       style="fill:#ffffff"
       id="22x22"
       width="22"
       height="22"
       x="417"
       y="101" />
    <rect
       style="fill:#ffffff"
       id="16x16"
       width="16"
       height="16"
       x="416"
       y="140" />
  </g>
  <g
     id="Shadow">
    <rect
       style="opacity:0.2;fill:#000000"
       id="rect651"
       width="224"
       height="224"
       x="32"
       y="46"
       ry="48" />
    <rect
       style="opacity:0.2;fill:#000000"
       id="rect769"
       width="84"
       height="85"
       x="294"
       y="34"
       ry="18" />
    <rect
       style="opacity:0.2;fill:#000000;fill-opacity:1"
       id="rect1131"
       width="56"
       height="56"
       x="292"
       y="145"
       ry="12" />
    <rect
       style="opacity:0.2;fill:#000000;fill-opacity:1"
       id="rect1261"
       width="42"
       height="42"
       x="291"
       y="224"
       ry="9" />
    <rect
       style="opacity:0.2;fill:#000000;fill-opacity:1"
       id="rect1364"
       width="28"
       height="29"
       x="418"
       y="54"
       ry="6" />
    <rect
       style="opacity:0.2;fill:#000000;fill-opacity:1"
       id="rect1398"
       width="16"
       height="16"
       x="416"
       y="141"
       ry="4" />
    <rect
       style="opacity:0.2;fill:#000000;fill-opacity:1"
       id="rect1432"
       width="20"
       height="20"
       x="418"
       y="103"
       ry="4" />
  </g>
  <g
     id="Background">
    <rect
       style="fill:#4f4f4f;fill-opacity:1"
       id="rect597"
       width="224"
       height="224"
       x="32"
       y="44"
       ry="48" />
    <rect
       style="opacity:1;fill:#4f4f4f;fill-opacity:1"
       id="rect771"
       width="84"
       height="84"
       x="294"
       y="34"
       ry="18" />
    <rect
       style="opacity:1;fill:#4f4f4f;fill-opacity:1"
       id="rect1133"
       width="56"
       height="56"
       x="292"
       y="144"
       ry="12" />
    <rect
       style="opacity:1;fill:#4f4f4f;fill-opacity:1"
       id="rect1263"
       width="42"
       height="42"
       x="291"
       y="223"
       ry="9" />
    <rect
       style="opacity:1;fill:#4f4f4f;fill-opacity:1"
       id="rect1366"
       width="28"
       height="28"
       x="418"
       y="54"
       ry="6" />
    <rect
       style="opacity:1;fill:#4f4f4f;fill-opacity:1"
       id="rect1400"
       width="16"
       height="16"
       x="416"
       y="140"
       ry="4" />
    <rect
       style="opacity:1;fill:#4f4f4f;fill-opacity:1"
       id="rect1434"
       width="20"
       height="20"
       x="418"
       y="102"
       ry="4" />
  </g>
  <g
     id="g2">
    <g
       id="g1">
      <path
         id="path1"
         style="opacity:0.2;stroke-width:0.473404;fill:#000000"
         d="m 424.26217,143.50036 c -0.14871,0.006 -0.29552,0.0624 -0.41505,0.17189 l -2.19145,1.81754 c -0.11483,0.10406 -0.1898,0.24487 -0.21192,0.39945 l -0.25,1.67397 c -0.003,0.0167 -0.01,0.0479 -0.01,0.0479 -0.009,0.0438 -0.0236,0.086 -0.041,0.12794 l -1.08499,2.44553 c -0.11125,0.25097 -0.0594,0.54509 0.12989,0.74225 l 1.86429,1.89567 c 0.0551,0.0557 0.11767,0.10195 0.18751,0.13576 0.0753,0.0372 0.15772,0.0602 0.24219,0.0654 0,0 0.48033,0.004 1.04787,0.0439 0.56613,0.0419 1.41455,0.26123 1.98539,0.4141 0.38072,0.10191 1.02333,-0.23484 1.08498,-0.6944 0.0532,-0.39574 0.15712,-0.82033 0.37501,-1.22179 0,0 0.82845,-1.31576 0.97951,-1.57435 0.0697,-0.11906 0.0575,-0.26843 -0.0244,-0.37797 -0.21411,-0.28669 -0.62319,-0.86927 -0.84767,-1.4093 -0.2273,-0.5548 -0.26277,-1.4156 -0.26465,-1.8361 -9.5e-4,-0.15997 -0.0501,-0.31572 -0.14844,-0.44145 l -1.88773,-2.20527 c -0.13648,-0.15382 -0.32848,-0.22863 -0.51954,-0.22072 z" />
      <path
         style="fill:#b091f0;stroke-width:0.473389"
         d="m 422.82357,149.42849 h 1.88238 l 0.2353,-5.71426 -0.15906,-0.4922 c -0.24236,-0.27345 -0.66213,-0.2995 -0.93602,-0.0493 l -2.19085,1.81727 c -0.11483,0.10405 -0.19012,0.24549 -0.21224,0.40001 l -0.25012,1.67408 -0.009,0.0474"
         id="path2" />
      <path
         style="fill:#8251e6;stroke-width:0.473389"
         d="m 426.97516,151.06519 c 0,0 0.82872,-1.31479 0.97978,-1.57336 0.0696,-0.11905 0.0569,-0.2681 -0.0249,-0.37763 -0.21412,-0.28667 -0.62307,-0.87002 -0.84754,-1.41003 -0.2273,-0.55463 -0.2626,-1.41584 -0.26448,-1.83632 -9.4e-4,-0.16 -0.0503,-0.31524 -0.14871,-0.44096 l -1.88708,-2.20486 c 0.12612,0.41944 0.11718,0.71088 0.0391,1.01779 -0.072,0.28457 -0.20424,0.54206 -0.34401,0.81468 -0.0466,0.0922 -0.0941,0.18405 -0.14023,0.28096 -0.18542,0.38215 -0.35201,0.81549 -0.37695,1.39788 -0.0245,0.58035 0.0932,1.30989 0.47671,2.28324"
         id="path3" />
      <path
         style="fill:#6135ba;stroke-width:0.473389"
         d="m 425.5149,152.9819 c 0.38072,0.10191 1.02355,-0.23477 1.0852,-0.6943 0.0532,-0.3962 0.15717,-0.82049 0.37506,-1.22241 -0.49883,-1.0843 -1.23861,-1.64955 -1.89838,-1.89861 -0.70024,-0.26429 -1.46402,-0.17762 -2.23862,0.0129 l -0.59883,3.27959 c 0.0753,0.0371 0.15812,0.0595 0.24259,0.0648 0,0 0.48001,0.004 1.04754,0.0438 0.56613,0.0419 1.41461,0.26143 1.98544,0.41429 z"
         id="path4" />
      <path
         style="fill:#8a61d9;stroke-width:0.473389"
         d="m 422.23933,152.45903 c 0.80542,-1.65384 0.78989,-2.92434 0.44706,-3.76865 -0.3153,-0.77954 -1.03931,-1.27478 -1.50261,-1.57893 -0.009,0.0438 -0.0238,0.0864 -0.0412,0.12833 l -1.08454,2.44539 c -0.11125,0.25095 -0.0597,0.54524 0.1296,0.74239 l 1.86413,1.89575 c 0.0551,0.0557 0.11764,0.10191 0.18753,0.13572 z"
         id="path5" />
      <path
         id="path6"
         style="opacity:0.2;fill:#ffffff;stroke-width:0.473404"
         d="m 424.26278,143.00076 c -0.14871,0.006 -0.29552,0.0624 -0.41505,0.17188 l -2.19145,1.81742 c -0.11482,0.10405 -0.1898,0.24484 -0.21192,0.39942 l -0.25,1.67386 c -0.003,0.0167 -0.01,0.0478 -0.01,0.0478 -0.009,0.0438 -0.0236,0.086 -0.041,0.12793 l -1.08499,2.44536 c -0.075,0.16928 -0.0752,0.35791 -0.01,0.52345 0.003,-0.008 0.005,-0.0157 0.009,-0.0234 l 1.08498,-2.44536 c 0.0174,-0.0419 0.0318,-0.0841 0.041,-0.12793 0,0 0.007,-0.0312 0.01,-0.0479 l 0.25001,-1.67386 c 0.0221,-0.15459 0.0971,-0.29537 0.21192,-0.39942 l 2.19145,-1.81742 c 0.11953,-0.10949 0.26633,-0.16579 0.41504,-0.17188 0.19107,-0.008 0.38307,0.0669 0.51954,0.22071 l 1.88774,2.20512 c 0.0983,0.12572 0.14749,0.28145 0.14844,0.44141 0.002,0.42051 0.0374,1.28118 0.26465,1.83598 0.21656,0.52099 0.60095,1.07579 0.82033,1.37209 0.0102,-0.0171 0.0455,-0.0725 0.0527,-0.085 0.0697,-0.11906 0.0575,-0.26841 -0.0244,-0.37794 -0.21412,-0.28669 -0.6232,-0.86917 -0.84767,-1.4092 -0.2273,-0.5548 -0.26277,-1.41547 -0.26466,-1.83598 -9.5e-4,-0.15996 -0.0501,-0.31569 -0.14844,-0.44141 l -1.88773,-2.20512 c -0.13647,-0.15382 -0.32848,-0.22862 -0.51954,-0.22071 z" />
    </g>
    <g
       id="g3">
      <path
         style="opacity:0.2;fill:#000000;stroke-width:0.5"
         d="m 428.37093,105.50097 c -0.2105,0.008 -0.421,0.0873 -0.5915,0.2402 l -2.93475,2.5537 c -0.16015,0.1465 -0.2676,0.3438 -0.3008,0.5586 l -0.3535,2.3455 -0.0118,0.0635 c -0.0137,0.0625 -0.0333,0.1245 -0.0605,0.181 l -1.53515,3.4225 c -0.1582,0.352 -0.0859,0.764 0.1836,1.041 l 2.4924,2.311 c 0.076,0.08 0.166,0.142 0.2655,0.189 0.1055,0.0525 0.2225,0.0835 0.3435,0.093 0,0 0.6745,-0.007 1.4775,0.051 0.8045,0.0565 1.9885,0.692 2.795,0.915 0.627,0.1735 1.259,-0.331 1.345,-0.976 0.074,-0.554 0.2255,-1.1355 0.532,-1.698 0.049,-0.088 0.1005,-0.172 0.1555,-0.254 0.5995,-0.8925 1.049,-1.5855 1.2635,-1.946 0.098,-0.166 0.0795,-0.376 -0.036,-0.5305 -0.3025,-0.4025 -0.8835,-1.2175 -1.1995,-1.9715 -0.3245,-0.7775 -0.2195,-1.9885 -0.2235,-2.5745 0,-0.2245 -0.0625,-0.4475 -0.209,-0.61705 l -2.661,-3.0889 c -0.1935,-0.2142 -0.4655,-0.3195 -0.7365,-0.30855 z"
         id="path1-4" />
      <path
         style="fill:#b091f0;stroke-width:0.5"
         d="m 428.99993,113.99997 0.5,-7.5 c 0,0 -0.213,-0.60265 -0.3925,-1.1905 -0.344,-0.3808 -0.9375,-0.4179 -1.328,-0.0683 l -2.93505,2.5536 c -0.16015,0.1465 -0.2676,0.34375 -0.3008,0.55855 l -0.35345,2.3457 -0.0117,0.064 1.8215,3.237 z"
         id="path2-4" />
      <path
         style="fill:#8251e6;stroke-width:0.5"
         d="m 428.61743,113.42747 3.4005,2.8645 c 0.049,-0.088 0.0995,-0.172 0.1545,-0.254 0.5995,-0.8925 1.05,-1.586 1.2645,-1.9465 0.098,-0.166 0.0785,-0.375 -0.037,-0.5295 -0.3025,-0.4025 -0.883,-1.2185 -1.199,-1.9725 -0.3245,-0.7775 -0.219,-1.988 -0.223,-2.574 0,-0.22455 -0.0625,-0.4475 -0.209,-0.61705 l -2.6615,-3.08895 c 0.1795,0.5859 0.1645,1.00125 0.055,1.4309 -0.1035,0.39835 -0.291,0.7577 -0.488,1.14045 -0.0665,0.12695 -0.133,0.2578 -0.1995,0.3906 -0.2615,0.53705 -0.5,1.14455 -0.535,1.95705 -0.035,0.814 0.1325,1.8355 0.6775,3.199 z"
         id="path3-3" />
      <path
         style="fill:#6135ba;stroke-width:0.5"
         d="m 430.14093,118.96547 c 0.627,0.1735 1.258,-0.33 1.344,-0.975 0.074,-0.554 0.2265,-1.136 0.533,-1.6985 -0.705,-1.5195 -1.5585,-2.308 -2.496,-2.6575 -0.9905,-0.3695 -2.0745,-0.2465 -3.1715,0.0195 l -0.8265,4.253 c 0.1055,0.0525 0.223,0.0835 0.344,0.093 0,0 0.675,-0.007 1.478,0.051 0.8045,0.0565 1.9885,0.6915 2.795,0.9145 z"
         id="path4-0" />
      <path
         style="fill:#8a61d9;stroke-width:0.5"
         d="m 425.52393,117.90697 c 1.1405,-2.3145 1.0975,-3.755 0.6115,-4.9385 -0.445,-1.09 -1.3028,-1.7775 -1.957,-2.2055 -0.0137,0.0625 -0.0332,0.1235 -0.0605,0.18 l -1.5351,3.423 c -0.1582,0.352 -0.0859,0.764 0.1836,1.041 l 2.49205,2.3105 c 0.076,0.08 0.166,0.1425 0.2655,0.1895 z"
         id="path5-7" />
      <path
         style="opacity:0.2;fill:#ffffff;stroke-width:0.5"
         d="m 428.37093,105.00097 c -0.2105,0.008 -0.421,0.0873 -0.5915,0.2402 l -2.93475,2.5537 c -0.16015,0.1465 -0.2676,0.3438 -0.3008,0.5586 l -0.3535,2.3455 -0.0118,0.0635 c -0.0137,0.0625 -0.0333,0.1245 -0.0605,0.181 l -1.53515,3.4225 c -0.091,0.203 -0.1032,0.425 -0.0479,0.63 0.0125,-0.044 0.0287,-0.087 0.0479,-0.13 l 1.53515,-3.4225 c 0.0273,-0.0565 0.0469,-0.1185 0.0605,-0.181 l 0.0118,-0.0635 0.3535,-2.3455 c 0.0332,-0.2148 0.14065,-0.4121 0.3008,-0.5586 l 2.93475,-2.5537 c 0.1705,-0.1529 0.381,-0.2317 0.5915,-0.2402 0.271,-0.0109 0.543,0.0944 0.7365,0.30855 l 2.661,3.0889 c 0.126,0.14555 0.187,0.33155 0.202,0.52355 0.003,-0.1475 0.008,-0.296 0.007,-0.4065 0,-0.22425 -0.0625,-0.4475 -0.209,-0.61705 l -2.661,-3.0889 c -0.1935,-0.2142 -0.4655,-0.3195 -0.7365,-0.30855 z m 3.597,5.1395 c -0.0105,0.6135 5e-4,1.3915 0.233,1.9495 0.316,0.754 0.897,1.569 1.1995,1.9715 0.01,0.014 0.0195,0.0285 0.028,0.043 0.002,-0.003 0.007,-0.01 0.008,-0.0125 0.098,-0.166 0.0795,-0.376 -0.036,-0.5305 -0.3025,-0.4025 -0.8835,-1.2175 -1.1995,-1.9715 -0.1725,-0.414 -0.2225,-0.9495 -0.233,-1.4495 z"
         id="path6-8" />
    </g>
    <g
       id="g5">
      <path
         id="path1-2"
         style="opacity:0.2;stroke-width:0.946789;fill:#000000"
         d="m 432.52417,59.000718 c -0.29742,0.01219 -0.59102,0.12481 -0.83008,0.343773 l -4.38281,3.635013 c -0.22965,0.208105 -0.3796,0.489724 -0.42383,0.798882 l -0.5,3.347884 c -0.005,0.03334 -0.0195,0.09571 -0.0195,0.09571 -0.0183,0.08762 -0.0472,0.172063 -0.082,0.255877 l -2.16992,4.890957 c -0.2225,0.501929 -0.11888,1.09017 0.25976,1.484476 l 3.72852,3.791273 c 0.11011,0.111434 0.23533,0.203881 0.375,0.271503 0.15059,0.07429 0.31543,0.120391 0.48437,0.130868 0,0 0.96064,0.0079 2.0957,0.0879 1.13225,0.08382 2.82905,0.522451 3.97071,0.828181 0.76141,0.203819 2.04663,-0.469672 2.16992,-1.388766 0.10635,-0.791468 0.31423,-1.640628 0.75,-2.443526 0,0 1.65686,-2.631482 1.95898,-3.148651 0.1393,-0.238107 0.11494,-0.536852 -0.0488,-0.755911 -0.42823,-0.573367 -1.24636,-1.738499 -1.69531,-2.818554 -0.45459,-1.10958 -0.52553,-2.83113 -0.52929,-3.672125 -0.002,-0.319921 -0.10017,-0.631431 -0.29688,-0.882872 l -3.77539,-4.410456 c -0.27294,-0.307635 -0.65694,-0.457247 -1.03906,-0.441436 z" />
      <path
         style="fill:#b091f0;stroke-width:0.94676"
         d="m 429.64703,70.856754 h 3.76469 l 0.47058,-11.428292 -0.31811,-0.984382 c -0.48471,-0.546905 -1.32423,-0.599 -1.87199,-0.09867 l -4.38163,3.634479 c -0.22964,0.208095 -0.38023,0.490952 -0.42447,0.8 l -0.50023,3.348097 -0.0183,0.09476"
         id="path2-0" />
      <path
         style="fill:#8251e6;stroke-width:0.94676"
         d="m 437.95005,74.130089 c 0,0 1.6574,-2.629525 1.95952,-3.146668 0.13929,-0.238095 0.11388,-0.536191 -0.0499,-0.755238 -0.42824,-0.573334 -1.24612,-1.740002 -1.69506,-2.820002 -0.45458,-1.109239 -0.52517,-2.831621 -0.52893,-3.672574 -0.002,-0.32 -0.10071,-0.630477 -0.29741,-0.881905 l -3.7741,-4.409622 c 0.25223,0.838858 0.23435,1.421715 0.0781,2.035525 -0.144,0.569143 -0.40847,1.084096 -0.688,1.629334 -0.0932,0.184286 -0.18823,0.368096 -0.28047,0.561905 -0.37082,0.764287 -0.70399,1.630954 -0.75388,2.795716 -0.0489,1.160668 0.18636,2.619717 0.95341,4.566385"
         id="path3-6" />
      <path
         style="fill:#6135ba;stroke-width:0.94676"
         d="m 435.02959,77.963425 c 0.76141,0.20381 2.04705,-0.469524 2.17034,-1.388572 0.10636,-0.792382 0.31435,-1.640954 0.75012,-2.444764 -0.99764,-2.168572 -2.47717,-3.299049 -3.79669,-3.797144 -1.40046,-0.528573 -2.92798,-0.355239 -4.47715,0.02571 l -1.19764,6.559053 c 0.15058,0.07428 0.31623,0.119047 0.48517,0.129523 0,0 0.96,0.0076 2.09505,0.08762 1.13223,0.08381 2.82916,0.522858 3.9708,0.828572 z"
         id="path4-8" />
      <path
         style="fill:#8a61d9;stroke-width:0.94676"
         d="m 428.47857,76.917711 c 1.61081,-3.307621 1.57975,-5.848576 0.89411,-7.537148 -0.63059,-1.559049 -2.07858,-2.549526 -3.00516,-3.157812 -0.0183,0.08762 -0.0475,0.172857 -0.0824,0.256667 l -2.16903,4.89067 c -0.22249,0.501905 -0.11943,1.090476 0.2592,1.484762 l 3.72817,3.791432 c 0.11012,0.111428 0.2353,0.20381 0.37506,0.271429 z"
         id="path5-9" />
      <path
         id="path6-2"
         style="opacity:0.2;fill:#ffffff;stroke-width:0.946789"
         d="m 432.52539,58.001537 c -0.29741,0.01219 -0.59102,0.124787 -0.83008,0.34375 l -4.38281,3.634765 c -0.22965,0.208106 -0.37959,0.48967 -0.42383,0.798829 l -0.5,3.347656 c -0.005,0.03333 -0.0195,0.0957 -0.0195,0.0957 -0.0183,0.08762 -0.0472,0.172046 -0.082,0.255859 l -2.16992,4.890626 c -0.15007,0.338542 -0.1505,0.715792 -0.0195,1.046875 0.006,-0.01561 0.0107,-0.03142 0.0176,-0.04687 l 2.16992,-4.890631 c 0.0348,-0.08381 0.0637,-0.168239 0.082,-0.255859 0,0 0.0143,-0.06236 0.0195,-0.0957 l 0.5,-3.347656 c 0.0442,-0.309159 0.19418,-0.590723 0.42383,-0.798829 l 4.38281,-3.634765 c 0.23906,-0.218963 0.53266,-0.331559 0.83008,-0.34375 0.38212,-0.01581 0.76612,0.133772 1.03906,0.441406 l 3.77539,4.410156 c 0.19671,0.251441 0.29498,0.562892 0.29688,0.882813 0.004,0.840994 0.0747,2.562296 0.52929,3.671875 0.43312,1.041976 1.20188,2.151545 1.64063,2.744141 0.0205,-0.03414 0.0909,-0.145043 0.10547,-0.169922 0.13929,-0.238107 0.11494,-0.536801 -0.0488,-0.75586 -0.42824,-0.573366 -1.24637,-1.738305 -1.69531,-2.818359 -0.45459,-1.109579 -0.52554,-2.830881 -0.5293,-3.671875 -0.002,-0.319921 -0.10017,-0.631372 -0.29688,-0.882813 l -3.77539,-4.410156 c -0.27294,-0.307634 -0.65694,-0.457217 -1.03906,-0.441406 z" />
    </g>
    <g
       id="g6"
       transform="translate(-73.832947,96.430634)">
      <path
         id="path1-6"
         style="opacity:0.2;stroke-width:1.42018;fill:#000000"
         d="m 386.6192,133.57007 c -0.44612,0.0183 -0.88653,0.18722 -1.24511,0.51566 l -6.57422,5.45252 c -0.34448,0.31216 -0.5694,0.73459 -0.63574,1.19832 l -0.75,5.02183 c -0.008,0.05 -0.0293,0.14356 -0.0293,0.14356 -0.0274,0.13143 -0.0708,0.2581 -0.12299,0.38382 l -3.25489,7.33643 c -0.33375,0.7529 -0.17832,1.63526 0.38965,2.22672 l 5.59278,5.68691 c 0.16516,0.16715 0.35299,0.30582 0.5625,0.40725 0.22588,0.11144 0.47314,0.18059 0.72655,0.1963 0,0 1.44096,0.0119 3.14355,0.13185 1.69838,0.12573 4.24358,0.78368 5.95607,1.24228 1.14211,0.30572 3.06994,-0.70451 3.25488,-2.08315 0.15952,-1.18721 0.47134,-2.46095 1.125,-3.66529 0,0 2.48529,-3.94723 2.93847,-4.72298 0.20895,-0.35716 0.17241,-0.80528 -0.0732,-1.13387 -0.64235,-0.86005 -1.86954,-2.60774 -2.54297,-4.22783 -0.68188,-1.66437 -0.78829,-4.24669 -0.79393,-5.50818 -0.003,-0.47989 -0.15026,-0.94715 -0.44532,-1.32431 l -5.66309,-6.61569 c -0.40941,-0.46145 -0.98541,-0.68587 -1.55859,-0.66215 z" />
      <path
         style="fill:#b091f0;stroke-width:1.42014"
         d="m 382.30349,151.8545 h 5.64704 l 0.70587,-17.14243 -0.47717,-1.47658 c -0.72706,-0.82035 -1.98634,-0.8985 -2.80798,-0.148 l -6.57245,5.45172 c -0.34446,0.31214 -0.57034,0.73642 -0.6367,1.2 l -0.75035,5.02214 -0.0274,0.14214"
         id="path2-49" />
      <path
         style="fill:#8251e6;stroke-width:1.42014"
         d="m 394.75802,156.76451 c 0,0 2.4861,-3.94429 2.93928,-4.72001 0.20894,-0.35714 0.17082,-0.80428 -0.0749,-1.13285 -0.64236,-0.86 -1.86918,-2.61001 -2.54259,-4.23001 -0.68187,-1.66385 -0.78775,-4.24743 -0.79339,-5.50886 -0.003,-0.48 -0.15107,-0.94571 -0.44612,-1.32285 l -5.66115,-6.61444 c 0.37835,1.25829 0.35153,2.13258 0.11715,3.05329 -0.216,0.85372 -0.6127,1.62614 -1.03199,2.444 -0.13981,0.27643 -0.28235,0.55215 -0.42071,0.84286 -0.55623,1.14643 -1.05598,2.44643 -1.13082,4.19357 -0.0734,1.74101 0.27954,3.92958 1.43012,6.84958"
         id="path3-5" />
      <path
         style="fill:#6135ba;stroke-width:1.42014"
         d="m 390.37733,162.51451 c 1.14212,0.30572 3.07058,-0.70429 3.25551,-2.08286 0.15954,-1.18857 0.47153,-2.46143 1.12518,-3.66714 -1.49645,-3.25286 -3.71575,-4.94858 -5.69503,-5.69572 -2.10069,-0.79286 -4.39197,-0.53286 -6.71573,0.0386 l -1.79646,9.83858 c 0.22587,0.11142 0.47435,0.17857 0.72776,0.19429 0,0 1.44,0.0114 3.14257,0.13143 1.69835,0.12571 4.24374,0.78428 5.9562,1.24285 z"
         id="path4-04" />
      <path
         style="fill:#8a61d9;stroke-width:1.42014"
         d="m 380.5508,160.94594 c 2.41622,-4.96143 2.36963,-8.77286 1.34117,-11.30572 -0.94588,-2.33858 -3.11787,-3.82429 -4.50774,-4.73672 -0.0275,0.13143 -0.0713,0.25929 -0.1236,0.385 l -3.25355,7.33601 c -0.33373,0.75285 -0.17914,1.63571 0.38881,2.22714 l 5.59225,5.68715 c 0.16518,0.16714 0.35295,0.30571 0.56259,0.40714 z"
         id="path5-8" />
      <path
         id="path6-7"
         style="opacity:0.2;fill:#ffffff;stroke-width:1.42018"
         d="M 386.62201 132.57132 C 386.17589 132.58962 385.73452 132.7585 385.37592 133.08694 L 378.8017 138.54007 C 378.45722 138.85223 378.23134 139.27361 378.16498 139.73733 L 377.41498 144.75882 C 377.40798 144.80882 377.38763 144.90335 377.38763 144.90335 C 377.36013 145.03478 377.3168 145.16044 377.26459 145.28616 L 374.00873 152.6221 C 373.82056 153.04659 373.79171 153.51114 373.90131 153.94241 C 373.92895 153.83451 373.9626 153.72812 374.00873 153.62405 L 377.26459 146.28616 C 377.31678 146.16044 377.36023 146.03478 377.38763 145.90335 C 377.38763 145.90335 377.40893 145.80882 377.41693 145.75882 L 378.16693 140.73733 C 378.23327 140.27361 378.45722 139.85223 378.8017 139.54007 L 385.37592 134.08694 C 385.7345 133.7585 386.17589 133.58962 386.62201 133.57132 C 387.19519 133.5476 387.77119 133.77198 388.1806 134.23343 L 393.84271 140.84866 C 394.13777 141.22582 394.28503 141.69299 394.28803 142.17288 C 394.29367 143.43437 394.40107 146.01633 395.08295 147.68069 C 395.75638 149.30078 396.98357 151.04916 397.62592 151.90921 C 397.65487 151.94795 397.68096 151.98859 397.70404 152.0303 C 397.90549 151.67508 397.86888 151.23426 397.62592 150.90921 C 396.98356 150.04916 395.75636 148.30077 395.08295 146.68069 C 394.40107 145.01633 394.29367 142.43437 394.28803 141.17288 C 394.28503 140.69299 394.13778 140.22582 393.84271 139.84866 L 388.1806 133.23343 C 387.77119 132.77198 387.19519 132.54761 386.62201 132.57132 z " />
    </g>
    <g
       id="g7">
      <path
         style="opacity:0.2;fill:#000000"
         d="m 321.11305,152.00254 c -0.631,0.0257 -1.258,0.2648 -1.767,0.7246 l -9.31,7.6302 c -0.488,0.437 -0.808,1.031 -0.902,1.68 l -1.063,7.031 c -0.011,0.07 -0.023,0.134 -0.039,0.2 -0.039,0.184 -0.102,0.363 -0.176,0.539 l -4.6092,10.27 c -0.473,1.054 -0.2538,2.289 0.5508,3.117 l 7.9244,7.961 c 0.234,0.234 0.5,0.43 0.797,0.571 0.32,0.156 0.672,0.25 1.031,0.273 0,0 2.038,0.016 4.45,0.184 2.406,0.176 6.012,1.098 8.438,1.74 1.618,0.428 4.351,-0.986 4.613,-2.916 0.227,-1.664 0.669,-3.447 1.594,-5.135 0,0 3.523,-5.521 4.164,-6.607 0.296,-0.5 0.24,-1.125 -0.108,-1.586 -0.91,-1.203 -2.646,-3.653 -3.599,-5.922 -0.968,-2.328 -1.118,-5.946 -1.125,-7.712 -0.004,-0.672 -0.215,-1.324 -0.633,-1.852 l -8.02,-9.2592 c -0.58,-0.646 -1.399,-0.9647 -2.211,-0.9316 z"
         id="path1-7" />
      <path
         style="fill:#b091f0"
         d="m 315.00005,178.00034 h 8 l 1,-24 -0.676,-2.0673 c -1.031,-1.1484 -2.815,-1.2578 -3.979,-0.207 l -9.31,7.6323 c -0.488,0.437 -0.808,1.031 -0.902,1.68 l -1.063,7.031 c -0.011,0.07 -0.023,0.133 -0.039,0.199"
         id="path2-2" />
      <path
         style="fill:#8251e6"
         d="m 332.64405,184.87434 c 0,0 3.523,-5.523 4.164,-6.609 0.296,-0.5 0.242,-1.125 -0.106,-1.586 -0.91,-1.203 -2.648,-3.653 -3.601,-5.922 -0.968,-2.329 -1.117,-5.946 -1.124,-7.712 -0.004,-0.672 -0.215,-1.324 -0.633,-1.852 l -8.02,-9.2603 c 0.535,1.7618 0.497,2.9856 0.165,4.2746 -0.304,1.1954 -0.867,2.2767 -1.461,3.4217 -0.199,0.387 -0.401,0.773 -0.596,1.18 -0.789,1.605 -1.496,3.425 -1.602,5.871 -0.105,2.437 0.395,5.501 2.026,9.59"
         id="path3-2" />
      <path
         style="fill:#6135ba"
         d="m 326.43805,192.92334 c 1.619,0.428 4.35,-0.986 4.612,-2.916 0.227,-1.664 0.669,-3.445 1.594,-5.133 -2.121,-4.555 -5.265,-6.928 -8.069,-7.975 -2.975,-1.109 -6.221,-0.746 -9.513,0.055 l -2.545,13.773 c 0.32,0.156 0.672,0.25 1.031,0.273 0,0 2.039,0.016 4.452,0.184 2.406,0.176 6.012,1.097 8.438,1.739 z"
         id="path4-6" />
      <path
         style="fill:#8a61d9"
         d="m 312.51705,190.72734 c 3.422,-6.945 3.357,-12.281 1.9,-15.828 -1.34,-3.273 -4.417,-5.354 -6.386,-6.631 -0.039,0.184 -0.101,0.363 -0.175,0.539 l -4.6091,10.271 c -0.473,1.054 -0.2539,2.289 0.5507,3.117 l 7.9224,7.962 c 0.234,0.234 0.5,0.429 0.797,0.57 z"
         id="path5-10" />
      <path
         style="opacity:0.2;fill:#ffffff"
         d="m 321.11305,151.00234 c -0.631,0.0257 -1.258,0.2648 -1.767,0.7246 l -9.311,7.6304 c -0.488,0.437 -0.806,1.031 -0.9,1.68 l -1.065,7.031 c -0.011,0.07 -0.023,0.134 -0.039,0.2 -0.039,0.184 -0.102,0.363 -0.176,0.539 l -4.6089,10.269 c -0.24,0.535 -0.2997,1.117 -0.1973,1.668 0.0397,-0.226 0.1003,-0.452 0.1973,-0.668 l 4.6089,-10.269 c 0.074,-0.176 0.137,-0.355 0.176,-0.539 0.016,-0.066 0.028,-0.13 0.039,-0.2 l 1.065,-7.031 c 0.094,-0.649 0.412,-1.243 0.9,-1.68 l 9.311,-7.6304 c 0.509,-0.4598 1.136,-0.6989 1.767,-0.7246 0.812,-0.0331 1.631,0.2856 2.211,0.9316 l 8.02,9.2594 c 0.418,0.528 0.629,1.18 0.633,1.852 0.007,1.766 0.157,5.385 1.125,7.713 0.953,2.269 2.689,4.719 3.599,5.922 0.089,0.117 0.157,0.245 0.207,0.379 0.176,-0.458 0.095,-0.98 -0.207,-1.379 -0.91,-1.203 -2.646,-3.653 -3.599,-5.922 -0.968,-2.328 -1.118,-5.947 -1.125,-7.713 -0.004,-0.672 -0.215,-1.324 -0.633,-1.852 l -8.02,-9.2594 c -0.58,-0.646 -1.399,-0.9647 -2.211,-0.9316 z"
         id="path6-6" />
    </g>
    <g
       id="g8">
      <path
         style="opacity:0.2;stroke-width:1.5;fill:#000000"
         d="m 337.16957,45.003114 c -0.9465,0.03855 -1.887,0.3972 -2.6505,1.0869 l -13.965,11.4453 c -0.732,0.6555 -1.212,1.5465 -1.353,2.52 l -1.5945,10.5465 c -0.0165,0.105 -0.0345,0.201 -0.0585,0.3 -0.0585,0.276 -0.153,0.5445 -0.264,0.8085 l -6.9138,15.405 c -0.7095,1.581 -0.3807,3.4335 0.8262,4.6755 l 11.8866,11.941496 c 0.351,0.351 0.75,0.645 1.1955,0.8565 0.48,0.234 1.008,0.375 1.5465,0.4095 0,0 3.057,0.024 6.675,0.276 3.609,0.264 9.018,1.647 12.657,2.61 2.427,0.642 6.5265,-1.479 6.9195,-4.374 0.3405,-2.496 1.0035,-5.1705 2.391,-7.702496 0,0 5.2845,-8.2815 6.246,-9.9105 0.444,-0.75 0.36,-1.6875 -0.162,-2.379 -1.365,-1.8045 -3.969,-5.4795 -5.3985,-8.883 -1.452,-3.492 -1.677,-8.919 -1.6875,-11.568 -0.006,-1.008 -0.3225,-1.986 -0.9495,-2.778 l -12.03,-13.8888 c -0.87,-0.969 -2.0985,-1.44705 -3.3165,-1.3974 z"
         id="path1-5" />
      <path
         style="fill:#b091f0;stroke-width:1.5"
         d="m 328.00007,84.500114 h 12 l 1.5,-36 -1.014,-3.10095 c -1.5465,-1.7226 -4.2225,-1.8867 -5.9685,-0.3105 l -13.965,11.44845 c -0.732,0.6555 -1.212,1.5465 -1.353,2.52 l -1.5945,10.5465 c -0.0165,0.105 -0.0345,0.1995 -0.0585,0.2985"
         id="path2-9" />
      <path
         style="fill:#8251e6;stroke-width:1.5"
         d="m 354.46607,94.811114 c 0,0 5.2845,-8.2845 6.246,-9.9135 0.444,-0.75 0.363,-1.6875 -0.159,-2.379 -1.365,-1.8045 -3.972,-5.4795 -5.4015,-8.883 -1.452,-3.4935 -1.6755,-8.919 -1.686,-11.568 -0.006,-1.008 -0.3225,-1.986 -0.9495,-2.778 l -12.03,-13.89045 c 0.8025,2.6427 0.7455,4.4784 0.2475,6.4119 -0.456,1.7931 -1.3005,3.41505 -2.1915,5.13255 -0.2985,0.5805 -0.6015,1.1595 -0.894,1.77 -1.1835,2.4075 -2.244,5.1375 -2.403,8.8065 -0.1575,3.6555 0.5925,8.2515 3.039,14.385"
         id="path3-49" />
      <path
         style="fill:#6135ba;stroke-width:1.5"
         d="m 345.15707,106.88461 c 2.4285,0.642 6.525,-1.479 6.918,-4.374 0.3405,-2.496 1.0035,-5.1675 2.391,-7.699496 -3.1815,-6.8325 -7.8975,-10.392 -12.1035,-11.9625 -4.4625,-1.6635 -9.3315,-1.119 -14.2695,0.0825 l -3.8175,20.659496 c 0.48,0.234 1.008,0.375 1.5465,0.4095 0,0 3.0585,0.024 6.678,0.276 3.609,0.264 9.018,1.6455 12.657,2.6085 z"
         id="path4-09" />
      <path
         style="fill:#8a61d9;stroke-width:1.5"
         d="m 324.27557,103.59061 c 5.133,-10.417496 5.0355,-18.421496 2.85,-23.741996 -2.01,-4.9095 -6.6255,-8.031 -9.579,-9.9465 -0.0585,0.276 -0.1515,0.5445 -0.2625,0.8085 l -6.91365,15.4065 c -0.7095,1.581 -0.38085,3.4335 0.82605,4.6755 l 11.8836,11.942996 c 0.351,0.351 0.75,0.6435 1.1955,0.855 z"
         id="path5-17" />
      <path
         id="path6-71"
         style="opacity:0.2;fill:#ffffff;stroke-width:1.5"
         d="m 337.16992,44.003513 c -0.9465,0.03855 -1.88689,0.396238 -2.65039,1.085938 l -13.9668,11.445312 c -0.73199,0.6555 -1.2086,1.547986 -1.34961,2.521485 l -1.59765,10.544921 c -0.0165,0.105 -0.0346,0.201782 -0.0586,0.300782 -0.0585,0.275999 -0.15267,0.544594 -0.26367,0.808594 l -6.91407,15.404296 c -0.31458,0.701261 -0.41031,1.454689 -0.33007,2.185547 0.0522,-0.402724 0.15998,-0.802175 0.33203,-1.185547 l 6.91211,-15.404296 c 0.111,-0.264 0.20712,-0.532595 0.26562,-0.808594 0.024,-0.099 0.0421,-0.195782 0.0586,-0.300782 l 1.59375,-10.544921 c 0.141,-0.973499 0.62152,-1.865985 1.35352,-2.521485 l 13.96484,-11.445312 c 0.7635,-0.6897 1.70389,-1.047388 2.65039,-1.085938 1.218,-0.04965 2.44641,0.427486 3.31641,1.396485 l 12.02929,13.888671 c 0.627,0.792 0.94322,1.771298 0.94922,2.779297 0.0105,2.648998 0.2355,8.07441 1.6875,11.566407 1.4295,3.403496 4.03344,7.080267 5.39844,8.884765 0.18817,0.249267 0.31855,0.529373 0.38867,0.822266 0.15283,-0.622161 0.0106,-1.294702 -0.38867,-1.822266 -1.365,-1.804498 -3.96894,-5.479316 -5.39844,-8.882812 -1.452,-3.491997 -1.677,-8.919362 -1.6875,-11.56836 -0.006,-1.007999 -0.32222,-1.987297 -0.94922,-2.779297 L 340.48633,45.399998 c -0.87,-0.968999 -2.09841,-1.446135 -3.31641,-1.396485 z" />
    </g>
    <g
       id="g4">
      <path
         style="opacity:0.2;stroke-width:4;fill:#000000"
         d="m 148.45219,74.010152 c -2.524,0.1028 -5.032,1.0592 -7.068,2.8984 l -37.24,30.520798 c -1.952,1.748 -3.232,4.124 -3.608,6.72 l -4.251998,28.124 c -0.044,0.28 -0.092,0.536 -0.156,0.8 -0.156,0.736 -0.408,1.452 -0.704,2.156 l -18.4368,41.08 c -1.892,4.216 -1.0152,9.156 2.2032,12.468 l 31.697598,31.84401 c 0.936,0.936 2,1.72 3.188,2.284 1.28,0.624 2.688,1 4.124,1.092 0,0 8.152,0.064 17.8,0.736 9.624,0.704 24.048,4.392 33.752,6.96 6.472,1.712 17.404,-3.944 18.452,-11.664 0.908,-6.656 2.676,-13.788 6.376,-20.54001 0,0 14.09201,-22.084 16.65601,-26.428 1.184,-2 0.96,-4.5 -0.432,-6.344 -3.64,-4.812 -10.584,-14.612 -14.39601,-23.688 -3.872,-9.312 -4.472,-23.784 -4.5,-30.848 -0.016,-2.688 -0.86,-5.296 -2.532,-7.408 l -32.08,-37.036798 c -2.32,-2.584 -5.596,-3.8588 -8.844,-3.7264 z"
         id="path1-8" />
      <path
         style="fill:#b091f0;stroke-width:4"
         d="m 124.00019,180.00135 h 32 l 4,-95.999998 -2.704,-8.2692 c -4.124,-4.5936 -11.26,-5.0312 -15.916,-0.828 l -37.24,30.529198 c -1.952,1.748 -3.232,4.124 -3.608,6.72 l -4.251998,28.124 c -0.044,0.28 -0.092,0.532 -0.156,0.796"
         id="path2-8" />
      <path
         style="fill:#8251e6;stroke-width:4"
         d="m 194.57619,207.49735 c 0,0 14.09201,-22.092 16.65601,-26.436 1.184,-2 0.968,-4.5 -0.424,-6.344 -3.64,-4.812 -10.592,-14.612 -14.40401,-23.688 -3.872,-9.316 -4.468,-23.784 -4.496,-30.848 -0.016,-2.688 -0.86,-5.296 -2.532,-7.408 l -32.08,-37.041198 c 2.14,7.0472 1.988,11.9424 0.66,17.0984 -1.216,4.781598 -3.468,9.106798 -5.844,13.686798 -0.796,1.548 -1.604,3.092 -2.384,4.72 -3.156,6.42 -5.984,13.7 -6.408,23.484 -0.42,9.748 1.58,22.004 8.104,38.36"
         id="path3-4" />
      <path
         style="fill:#6135ba;stroke-width:4"
         d="m 169.75219,239.69336 c 6.476,1.712 17.4,-3.944 18.448,-11.664 0.908,-6.656 2.676,-13.78 6.376,-20.53201 -8.484,-18.22 -21.06,-27.712 -32.276,-31.9 -11.9,-4.436 -24.884,-2.984 -38.052,0.22 l -10.18,55.09201 c 1.28,0.624 2.688,1 4.124,1.092 0,0 8.156,0.064 17.808,0.736 9.624,0.704 24.048,4.388 33.752,6.956 z"
         id="path4-3" />
      <path
         style="fill:#8a61d9;stroke-width:4"
         d="m 114.06819,230.90936 c 13.688,-27.78001 13.428,-49.12401 7.6,-63.31201 -5.36,-13.092 -17.668,-21.416 -25.543998,-26.524 -0.156,0.736 -0.404,1.452 -0.7,2.156 l -18.4364,41.084 c -1.892,4.216 -1.0156,9.156 2.2028,12.468 l 31.689598,31.84801 c 0.936,0.936 2,1.716 3.188,2.28 z"
         id="path5-1" />
      <path
         id="path6-4"
         style="opacity:0.2;fill:#ffffff;stroke-width:4"
         d="m 148.45312,72.007812 c -2.52399,0.1028 -5.03431,1.05924 -7.07031,2.898436 l -37.24219,30.523442 c -1.95199,1.74799 -3.22556,4.12275 -3.60156,6.71875 l -4.257812,28.125 c -0.044,0.28 -0.09224,0.53287 -0.15624,0.79687 -0.156,0.736 -0.407124,1.45225 -0.703124,2.15625 l -18.4375,41.07813 c -0.796308,1.7751 -1.068648,3.67551 -0.914064,5.53125 0.1156,-1.19733 0.403332,-2.38536 0.914064,-3.52344 l 18.4375,-41.08594 c 0.296,-0.704 0.547124,-1.42025 0.703124,-2.15625 0.064,-0.264 0.11224,-0.51687 0.15624,-0.79687 l 4.257812,-28.125 c 0.376,-2.596 1.64957,-4.97076 3.60156,-6.71875 l 37.24219,-30.523442 c 2.036,-1.839196 4.54632,-2.795636 7.07031,-2.898436 3.248,-0.1324 6.52376,1.142564 8.84376,3.726564 L 189.375,114.77344 c 1.672,2.112 2.51525,4.71825 2.53125,7.40625 0.028,7.06399 0.628,21.53957 4.5,30.85156 3.81199,9.07599 10.75845,18.87551 14.39843,23.6875 0.57166,0.75727 0.9327,1.62497 1.09376,2.52344 0.28332,-1.5628 -0.0998,-3.21016 -1.09376,-4.52344 -3.63998,-4.81199 -10.58644,-14.61151 -14.39843,-23.6875 -3.872,-9.31199 -4.472,-23.78757 -4.5,-30.85156 -0.016,-2.688 -0.85925,-5.29425 -2.53125,-7.40625 L 157.29688,75.734376 c -2.32,-2.584 -5.59576,-3.858964 -8.84376,-3.726564 z" />
    </g>
  </g>
  <g
     id="Highlights">
    <path
       id="rect653"
       style="opacity:0.1;fill:#ffffff"
       d="M 80,44 C 53.408027,44 32,65.408027 32,92 v 2 C 32,67.408027 53.408027,46 80,46 h 128 c 26.59197,0 48,21.408027 48,48 V 92 C 256,65.408027 234.59197,44 208,44 Z"
       sodipodi:nodetypes="sscsscsss" />
    <path
       id="rect773"
       style="opacity:0.1;fill:#ffffff"
       d="m 312,34 c -9.97199,0 -18,8.02801 -18,18 v 1 c 0,-9.97199 8.02801,-18 18,-18 h 48 c 9.97199,0 18,8.02801 18,18 v -1 c 0,-9.97199 -8.02801,-18 -18,-18 z" />
    <path
       id="rect1135"
       style="opacity:0.1;fill:#ffffff;fill-opacity:1"
       d="m 304,144 c -6.64799,0 -12,5.35201 -12,12 v 1 c 0,-6.64799 5.35201,-12 12,-12 h 32 c 6.64799,0 12,5.35201 12,12 v -1 c 0,-6.64799 -5.35201,-12 -12,-12 z" />
    <path
       id="rect1265"
       style="opacity:0.1;fill:#ffffff;fill-opacity:1"
       d="m 300,223 c -4.986,0 -9,4.014 -9,9 v 1 c 0,-4.986 4.014,-9 9,-9 h 24 c 4.986,0 9,4.014 9,9 v -1 c 0,-4.986 -4.014,-9 -9,-9 z" />
    <path
       id="rect1368"
       style="opacity:0.1;fill:#ffffff;fill-opacity:1"
       d="m 424,54 c -3.324,0 -6,2.676003 -6,6 v 1 c 0,-3.323997 2.676,-6 6,-6 h 16 c 3.324,0 6,2.676003 6,6 v -1 c 0,-3.323997 -2.676,-6 -6,-6 z" />
    <path
       id="rect1402"
       style="opacity:0.1;fill:#ffffff;fill-opacity:1"
       d="m 420,140 c -2.216,0 -4,1.784 -4,4 v 1 c 0,-2.216 1.784,-4 4,-4 h 8 c 2.216,0 4,1.784 4,4 v -1 c 0,-2.216 -1.784,-4 -4,-4 z" />
    <path
       id="rect1436"
       style="opacity:0.1;fill:#ffffff;fill-opacity:1"
       d="m 422,102 c -2.216,0 -4,1.784 -4,4 v 1 c 0,-2.216 1.784,-4 4,-4 h 12 c 2.216,0 4,1.784 4,4 v -1 c 0,-2.216 -1.784,-4 -4,-4 z" />
  </g>
</svg>
