<?xml version="1.0" encoding="UTF-8" standalone="no"?>
<!-- Created with Inkscape (http://www.inkscape.org/) -->

<svg
   width="480"
   height="300"
   viewBox="0 0 480 300"
   version="1.1"
   id="svg5"
   inkscape:version="1.3 (1:1.3+202307231459+0e150ed6c4)"
   sodipodi:docname="passwords.svg"
   xmlns:inkscape="http://www.inkscape.org/namespaces/inkscape"
   xmlns:sodipodi="http://sodipodi.sourceforge.net/DTD/sodipodi-0.dtd"
   xmlns="http://www.w3.org/2000/svg"
   xmlns:svg="http://www.w3.org/2000/svg">
  <sodipodi:namedview
     id="namedview7"
     pagecolor="#888888"
     bordercolor="#000000"
     borderopacity="0.25"
     inkscape:showpageshadow="true"
     inkscape:pageopacity="0"
     inkscape:pagecheckerboard="0"
     inkscape:deskcolor="#888888"
     inkscape:document-units="px"
     showgrid="false"
     showborder="false"
     inkscape:zoom="1.4958333"
     inkscape:cx="239.33148"
     inkscape:cy="149.41505"
     inkscape:window-width="1920"
     inkscape:window-height="1008"
     inkscape:window-x="0"
     inkscape:window-y="0"
     inkscape:window-maximized="1"
     inkscape:current-layer="svg5" />
  <defs
     id="defs2">
    <inkscape:path-effect
       effect="fillet_chamfer"
       id="path-effect3"
       nodesatellites_param="F,0,0,1,0,0.5,0,1 @ F,0,0,1,0,0.5,0,1 @ F,0,0,1,0,0.5,0,1 @ F,0,0,1,0,0.5,0,1"
       is_visible="true"
       lpeversion="1"
       radius="0"
       unit="px"
       method="auto"
       mode="F"
       chamfer_steps="1"
       flexible="false"
       use_knot_distance="true"
       apply_no_radius="true"
       apply_with_radius="true"
       only_selected="false"
       hide_knots="false" />
    <mask
       maskUnits="userSpaceOnUse"
       id="mask14632">
      <rect
         style="opacity:1;fill:#ffffff;fill-opacity:1;stroke-width:5;stroke-linecap:round;stroke-linejoin:round"
         id="rect14634"
         width="16"
         height="8"
         x="416"
         y="140" />
    </mask>
    <mask
       maskUnits="userSpaceOnUse"
       id="mask14156">
      <rect
         style="opacity:1;fill:#ffffff;fill-opacity:1;stroke-width:5;stroke-linecap:round;stroke-linejoin:round"
         id="rect14158"
         width="20"
         height="10"
         x="418"
         y="102" />
    </mask>
    <mask
       maskUnits="userSpaceOnUse"
       id="mask14778-6">
      <rect
         style="opacity:1;fill:#ffffff;fill-opacity:1;stroke-width:5;stroke-linecap:round;stroke-linejoin:round"
         id="rect14780-1"
         width="28"
         height="14"
         x="418"
         y="54" />
    </mask>
    <mask
       maskUnits="userSpaceOnUse"
       id="mask12674">
      <rect
         style="opacity:1;fill:#e4e4e4;fill-opacity:1;stroke-width:5;stroke-linecap:round;stroke-linejoin:round"
         id="rect12676"
         width="42"
         height="42"
         x="291"
         y="223"
         ry="9" />
    </mask>
    <mask
       maskUnits="userSpaceOnUse"
       id="mask15283">
      <rect
         style="opacity:1;fill:#ffffff;fill-opacity:1;stroke-width:5;stroke-linecap:round;stroke-linejoin:round"
         id="rect15285"
         width="56"
         height="28"
         x="292"
         y="144" />
    </mask>
    <mask
       maskUnits="userSpaceOnUse"
       id="mask13888">
      <rect
         style="opacity:1;fill:#ffffff;fill-opacity:1;stroke-width:5;stroke-linecap:round;stroke-linejoin:round"
         id="rect13890"
         width="84"
         height="42"
         x="294"
         y="34" />
    </mask>
    <mask
       maskUnits="userSpaceOnUse"
       id="mask15283-2">
      <rect
         style="opacity:1;fill:#ffffff;fill-opacity:1;stroke-width:5;stroke-linecap:round;stroke-linejoin:round"
         id="rect15285-0"
         width="56"
         height="28"
         x="292"
         y="144" />
    </mask>
  </defs>
  <g
     id="Baseplate"
     style="display:none">
    <text
       y="19.774782"
       xml:space="preserve"
       x="15.006946"
       style="font-style:normal;font-variant:normal;font-weight:normal;font-stretch:normal;line-height:0%;font-family:'DejaVu Sans';-inkscape-font-specification:'DejaVu Sans';display:inline;fill:#000000;fill-opacity:1;stroke:none;enable-background:new"
       inkscape:label="context"
       id="context"><tspan
         style="font-style:normal;font-variant:normal;font-weight:normal;font-stretch:normal;font-size:18px;line-height:1.25;font-family:'DejaVu Sans';-inkscape-font-specification:'DejaVu Sans'"
         y="19.774782"
         x="15.006946"
         sodipodi:role="line"
         id="tspan3933">apps</tspan></text>
    <text
       y="19.774782"
       xml:space="preserve"
       x="122.48839"
       style="font-style:normal;font-variant:normal;font-weight:bold;font-stretch:normal;line-height:0%;font-family:'DejaVu Sans';-inkscape-font-specification:'DejaVu Sans Bold';text-align:start;writing-mode:lr-tb;text-anchor:start;display:inline;fill:#000000;fill-opacity:1;stroke:none;enable-background:new"
       inkscape:label="icon-name"
       id="icon-name"><tspan
         style="font-style:normal;font-variant:normal;font-weight:bold;font-stretch:normal;font-size:18px;line-height:1.25;font-family:'DejaVu Sans';-inkscape-font-specification:'DejaVu Sans Bold'"
         y="19.774782"
         x="122.48839"
         sodipodi:role="line"
         id="tspan3937">passwords</tspan></text>
    <rect
       style="fill:#ffffff"
       id="256x256"
       width="256"
       height="256"
       x="16"
       y="28" />
    <rect
       style="fill:#ffffff"
       id="96x96"
       width="96"
       height="96"
       x="288"
       y="28" />
    <rect
       style="fill:#ffffff"
       id="64x64"
       width="64"
       height="64"
       x="288"
       y="140" />
    <rect
       style="fill:#ffffff"
       id="48x48"
       width="48"
       height="48"
       x="288"
       y="220" />
    <rect
       style="fill:#ffffff"
       id="32x32"
       width="32"
       height="32"
       x="416"
       y="52" />
    <rect
       style="fill:#ffffff"
       id="24x24"
       width="24"
       height="24"
       x="416"
       y="100" />
    <rect
       style="fill:#ffffff"
       id="22x22"
       width="22"
       height="22"
       x="417"
       y="101" />
    <rect
       style="fill:#ffffff"
       id="16x16"
       width="16"
       height="16"
       x="416"
       y="140" />
  </g>
  <g
     id="Shadow">
    <rect
       style="opacity:0.2;fill:#000000"
       id="rect651"
       width="224"
       height="224"
       x="32"
       y="46"
       ry="48" />
    <rect
       style="opacity:0.2;fill:#000000"
       id="rect769"
       width="84"
       height="85"
       x="294"
       y="34"
       ry="18" />
    <rect
       style="opacity:0.2;fill:#000000;fill-opacity:1"
       id="rect1131"
       width="56"
       height="56"
       x="292"
       y="145"
       ry="12" />
    <rect
       style="opacity:0.2;fill:#000000;fill-opacity:1"
       id="rect1261"
       width="42"
       height="42"
       x="291"
       y="224"
       ry="9" />
    <rect
       style="opacity:0.2;fill:#000000;fill-opacity:1"
       id="rect1364"
       width="28"
       height="29"
       x="418"
       y="54"
       ry="6" />
    <rect
       style="opacity:0.2;fill:#000000;fill-opacity:1"
       id="rect1398"
       width="16"
       height="16"
       x="416"
       y="141"
       ry="4" />
    <rect
       style="opacity:0.2;fill:#000000;fill-opacity:1"
       id="rect1432"
       width="20"
       height="20"
       x="418"
       y="103"
       ry="4" />
  </g>
  <g
     id="Background">
    <rect
       style="fill:#e4e4e4;fill-opacity:1"
       id="rect597"
       width="224"
       height="224"
       x="32"
       y="44"
       ry="48" />
    <rect
       style="opacity:1;fill:#e4e4e4;fill-opacity:1"
       id="rect771"
       width="84"
       height="84"
       x="294"
       y="34"
       ry="18" />
    <rect
       style="opacity:1;fill:#e4e4e4;fill-opacity:1"
       id="rect1133"
       width="56"
       height="56"
       x="292"
       y="144"
       ry="12" />
    <rect
       style="opacity:1;fill:#e4e4e4;fill-opacity:1"
       id="rect1263"
       width="42"
       height="42"
       x="291"
       y="223"
       ry="9" />
    <rect
       style="opacity:1;fill:#e4e4e4;fill-opacity:1"
       id="rect1366"
       width="28"
       height="28"
       x="418"
       y="54"
       ry="6" />
    <rect
       style="opacity:1;fill:#e4e4e4;fill-opacity:1"
       id="rect1400"
       width="16"
       height="16"
       x="416"
       y="140"
       ry="4" />
    <rect
       style="opacity:1;fill:#e4e4e4;fill-opacity:1"
       id="rect1434"
       width="20"
       height="20"
       x="418"
       y="102"
       ry="4" />
  </g>
  <g
     id="Symbols">
    <g
       id="g3">
      <circle
         style="opacity:0.2;fill:#000000;fill-opacity:1;stroke-width:5;stroke-linecap:round;stroke-linejoin:round"
         id="path1226"
         cx="144"
         cy="158"
         r="80" />
      <circle
         style="opacity:0.2;fill:#000000;fill-opacity:1;stroke-width:5;stroke-linecap:round;stroke-linejoin:round"
         id="path1392"
         cx="336"
         cy="77"
         r="30" />
      <circle
         style="opacity:0.2;fill:#000000;fill-opacity:1;stroke-width:5;stroke-linecap:round;stroke-linejoin:round"
         id="path1394"
         cx="320"
         cy="173"
         r="20" />
      <circle
         style="opacity:0.2;fill:#000000;fill-opacity:1;stroke-width:5;stroke-linecap:round;stroke-linejoin:round"
         id="path1508"
         cx="312"
         cy="245"
         r="15" />
      <circle
         style="opacity:0.2;fill:#000000;fill-opacity:1;stroke-width:5;stroke-linecap:round;stroke-linejoin:round"
         id="path1510"
         cx="432"
         cy="69"
         r="10" />
      <circle
         style="opacity:0.2;fill:#000000;fill-opacity:1;stroke-width:5;stroke-linecap:round;stroke-linejoin:round"
         id="path1572"
         cx="428"
         cy="112.5"
         r="7" />
      <circle
         style="opacity:0.2;fill:#000000;fill-opacity:1;stroke-width:5;stroke-linecap:round;stroke-linejoin:round"
         id="path1574"
         cx="424"
         cy="148.5"
         r="5" />
    </g>
    <g
       id="g2">
      <circle
         style="opacity:1;fill:#d2b17b;fill-opacity:1"
         id="path3415"
         cx="144"
         cy="156"
         r="80" />
      <circle
         style="opacity:1;fill:#d2b17b;fill-opacity:1;stroke-width:0.333333"
         id="path3361"
         cx="336"
         cy="76"
         r="30" />
      <circle
         style="opacity:1;fill:#d2b17b;fill-opacity:1"
         id="path3417"
         cx="320"
         cy="172"
         r="20" />
      <circle
         style="opacity:1;fill:#d2b17b;fill-opacity:1"
         id="path3419"
         cx="312"
         cy="244"
         r="15" />
      <circle
         style="opacity:1;fill:#d2b17b;fill-opacity:1;stroke-width:1"
         id="path3421"
         cx="432"
         cy="68"
         r="10" />
      <circle
         style="opacity:1;fill:#d2b17b;fill-opacity:1"
         id="path3423"
         cx="428"
         cy="112"
         r="7" />
      <circle
         style="opacity:1;fill:#d2b17b;fill-opacity:1;stroke-width:1.2"
         id="path3425"
         cx="424"
         cy="148"
         r="5" />
    </g>
    <g
       id="g1190">
      <path
         d="m 136,102 c -4.432,0 -8,3.568 -8,8 v 8 l 16,16 -16,16 v 56 c 0,4.432 3.568,8 8,8 h 16 c 4.432,0 8,-3.568 8,-8 v -8 l -16,-16 16,-16 v -56 c 0,-4.432 -3.568,-8 -8,-8 z"
         style="opacity:0.2;fill:#000000;stroke-width:16;stroke-linecap:round;stroke-linejoin:round"
         id="path1-0-8-0" />
      <path
         d="m 136,100 c -4.432,0 -8,3.568 -8,8 v 8 l 16,16 -16,16 v 56 c 0,4.432 3.568,8 8,8 h 16 c 4.432,0 8,-3.568 8,-8 v -8 l -16,-16 16,-16 v -56 c 0,-4.432 -3.568,-8 -8,-8 z"
         style="fill:#333333;stroke-width:16;stroke-linecap:round;stroke-linejoin:round"
         id="path1-7-7-2"
         sodipodi:nodetypes="sscccsssscccsss" />
      <path
         id="path1280"
         style="opacity:0.2;fill:#ffffff;fill-opacity:1;stroke-width:5;stroke-linecap:round;stroke-linejoin:round"
         d="M 144 76 A 80 80 0 0 0 64 156 A 80 80 0 0 0 64.072266 157 A 80 80 0 0 1 144 78 A 80 80 0 0 1 223.96289 156.50781 A 80 80 0 0 0 224 156 A 80 80 0 0 0 144 76 z " />
    </g>
    <g
       id="g1195">
      <path
         id="path1362"
         style="opacity:0.2;fill:#ffffff;fill-opacity:1;stroke-width:5;stroke-linecap:round;stroke-linejoin:round"
         d="M 336 46 A 30 30 0 0 0 306 76 A 30 30 0 0 0 306.03516 76.5 A 30 30 0 0 1 336 47 A 30 30 0 0 1 365.98047 76.261719 A 30 30 0 0 0 366 76 A 30 30 0 0 0 336 46 z " />
      <path
         d="m 333,58 c -1.662,0 -3,1.338 -3,3 v 3 l 6,6 -6,6 v 19 c 0,1.662 1.338,2.999996 3,2.999996 h 6 c 1.662,0 3,-1.337996 3,-2.999996 v -3 l -6,-6 6,-6 V 61 c 0,-1.662 -1.338,-3 -3,-3 z"
         style="opacity:0.1;fill:#000000;stroke-width:6;stroke-linecap:round;stroke-linejoin:round"
         id="path1-3-9" />
      <path
         d="m 333,57 c -1.662,0 -3,1.338 -3,3 v 3 l 6,6 -6,6 v 19 c 0,1.662 1.338,3 3,3 h 6 c 1.662,0 3,-1.338 3,-3 v -3 l -6,-6 6,-6 V 60 c 0,-1.662 -1.338,-3 -3,-3 z"
         style="fill:#333333;stroke-width:6;stroke-linecap:round;stroke-linejoin:round"
         id="path1-7-9-2"
         sodipodi:nodetypes="sscccsssscccsss" />
    </g>
    <g
       id="g1204">
      <path
         id="path1396"
         style="opacity:0.2;fill:#ffffff;fill-opacity:1;stroke-width:5;stroke-linecap:round;stroke-linejoin:round"
         d="M 320 152 A 20 20 0 0 0 300 172 A 20 20 0 0 0 300.03516 172.5 A 20 20 0 0 1 320 153 A 20 20 0 0 1 339.98242 172.25 A 20 20 0 0 0 340 172 A 20 20 0 0 0 320 152 z " />
      <path
         d="m 318,159 c -1.108,0 -2,0.892 -2,2 v 2 l 4,4 -4,4 v 14 c 0,1.108 0.892,2 2,2 h 4 c 1.108,0 2,-0.892 2,-2 v -2 l -4,-4 4,-4 v -14 c 0,-1.108 -0.892,-2 -2,-2 z"
         style="opacity:0.2;fill:#000000;stroke-width:4;stroke-linecap:round;stroke-linejoin:round"
         id="path1-0-8" />
      <path
         d="m 318,158 c -1.108,0 -2,0.892 -2,2 v 2 l 4,4 -4,4 v 14 c 0,1.108 0.892,2 2,2 h 4 c 1.108,0 2,-0.892 2,-2 v -2 l -4,-4 4,-4 v -14 c 0,-1.108 -0.892,-2 -2,-2 z"
         style="fill:#333333;stroke-width:4;stroke-linecap:round;stroke-linejoin:round"
         id="path1-7-7"
         sodipodi:nodetypes="sscccsssscccsss" />
    </g>
    <g
       id="g1209">
      <path
         d="m 310.5,235 c -0.831,0 -1.5,0.669 -1.5,1.5 v 1.5 l 3,3 -3,3 v 9.5 c 0,0.831 0.669,1.5 1.5,1.5 h 3 c 0.831,0 1.5,-0.669 1.5,-1.5 V 252 l -3,-3 3,-3 v -9.5 c 0,-0.831 -0.669,-1.5 -1.5,-1.5 z"
         style="fill:#000000;stroke-width:3;stroke-linecap:round;stroke-linejoin:round;opacity:0.1"
         id="path1-3" />
      <path
         d="m 310.5,234 c -0.831,0 -1.5,0.669 -1.5,1.5 v 1.5 l 3,3 -3,3 v 9.5 c 0,0.831 0.669,1.5 1.5,1.5 h 3 c 0.831,0 1.5,-0.669 1.5,-1.5 V 251 l -3,-3 3,-3 v -9.5 c 0,-0.831 -0.669,-1.5 -1.5,-1.5 z"
         style="fill:#333333;stroke-width:3;stroke-linecap:round;stroke-linejoin:round"
         id="path1-7-9"
         sodipodi:nodetypes="sscccsssscccsss" />
      <path
         id="path1478"
         style="opacity:0.2;fill:#ffffff;fill-opacity:1;stroke-width:5;stroke-linecap:round;stroke-linejoin:round"
         d="M 312 229 A 15 15 0 0 0 297 244 A 15 15 0 0 0 297.03516 244.5 A 15 15 0 0 1 312 230 A 15 15 0 0 1 326.98242 244.25586 A 15 15 0 0 0 327 244 A 15 15 0 0 0 312 229 z " />
    </g>
    <g
       id="g1224">
      <path
         d="m 431,62 c -0.554,0 -1,0.446001 -1,1 v 1 l 2,2 -2,2 v 7 c 0,0.553999 0.446,1 1,1 h 2 c 0.554,0 1,-0.446001 1,-1 v -1 l -2,-2 2,-2 v -7 c 0,-0.553999 -0.446,-1 -1,-1 z"
         style="fill:#000000;stroke-width:2;stroke-linecap:round;stroke-linejoin:round;opacity:0.2"
         id="path1-0" />
      <path
         d="m 431,61 c -0.554,0 -1,0.446001 -1,1 v 1 l 2,2 -2,2 v 7 c 0,0.553999 0.446,1 1,1 h 2 c 0.554,0 1,-0.446001 1,-1 v -1 l -2,-2 2,-2 v -7 c 0,-0.553999 -0.446,-1 -1,-1 z"
         style="fill:#333333;stroke-width:2;stroke-linecap:round;stroke-linejoin:round"
         id="path1-7"
         sodipodi:nodetypes="sscccsssscccsss" />
      <path
         id="path1512"
         style="opacity:0.2;fill:#ffffff;fill-opacity:1;stroke-width:5;stroke-linecap:round;stroke-linejoin:round"
         d="M 432 58 A 10 10 0 0 0 422 68 A 10 10 0 0 0 422.03516 68.5 A 10 10 0 0 1 432 59 A 10 10 0 0 1 441.97656 68.341797 A 10 10 0 0 0 442 68 A 10 10 0 0 0 432 58 z " />
    </g>
    <g
       id="g1219">
      <path
         id="path1-60"
         style="fill:#000000;fill-opacity:1;stroke-width:2;stroke-linecap:round;stroke-linejoin:round;opacity:0.1"
         d="m 427.5,108.5 c -0.26525,0 -0.5,0.23166 -0.5,0.5 v 1.5 l 1,1 -1,1 v 3.5 c 0,0.277 0.223,0.5 0.5,0.5 h 1 c 0.277,0 0.5,-0.223 0.5,-0.5 v -1.5 l -1,-1 1,-1 V 109 c 0,-0.277 -0.223,-0.5 -0.5,-0.5 z"
         sodipodi:nodetypes="sscccsssscccsss" />
      <path
         d="m 427.5,108 c -0.26525,0 -0.5,0.23166 -0.5,0.5 v 1.5 l 1,1 -1,1 v 3.5 c 0,0.277 0.223,0.5 0.5,0.5 h 1 c 0.277,0 0.5,-0.223 0.5,-0.5 V 114 l -1,-1 1,-1 v -3.5 c 0,-0.277 -0.223,-0.5 -0.5,-0.5 z"
         style="fill:#333333;fill-opacity:1;stroke-width:2;stroke-linecap:round;stroke-linejoin:round"
         id="path1-61" />
      <path
         id="path1542"
         style="opacity:0.2;fill:#ffffff;fill-opacity:1;stroke-width:5;stroke-linecap:round;stroke-linejoin:round"
         d="M 428 105 A 7 7 0 0 0 421 112 A 7 7 0 0 0 421.01758 112.25 A 7 7 0 0 1 428 105.5 A 7 7 0 0 1 434.99023 112.13477 A 7 7 0 0 0 435 112 A 7 7 0 0 0 428 105 z " />
    </g>
    <g
       id="g1214">
      <path
         d="m 423,145.5 v 1 l 1,1 -1,1 v 3 h 2 v -1 l -1,-1 1,-1 v -3 z"
         style="opacity:0.1;fill:#000000;fill-opacity:1;stroke-width:2;stroke-linecap:round;stroke-linejoin:round"
         id="path1-6" />
      <path
         id="rect670"
         style="fill:#333333;fill-opacity:1;stroke-width:2;stroke-linecap:round;stroke-linejoin:round"
         d="m 423,145 v 1 l 1,1 -1,1 v 3 h 2 v -1 l -1,-1 1,-1 v -3 z"
         sodipodi:nodetypes="ccccccccccc" />
      <path
         id="path1"
         style="opacity:0.2;fill:#ffffff;stroke-linecap:round;stroke-linejoin:round"
         d="m 424,143 a 5,5 0 0 0 -5,5 5,5 0 0 0 0.0176,0.25 5,5 0 0 1 4.9824,-4.75 5,5 0 0 1 4.98828,4.66797 5,5 0 0 0 0.0117,-0.16797 5,5 0 0 0 -5,-5 z" />
    </g>
  </g>
  <g
     id="Highlights">
    <path
       id="rect653"
       style="opacity:0.2;fill:#ffffff"
       d="M 80,44 C 53.408027,44 32,65.408027 32,92 v 2 C 32,67.408027 53.408027,46 80,46 h 128 c 26.59197,0 48,21.408027 48,48 V 92 C 256,65.408027 234.59197,44 208,44 Z"
       sodipodi:nodetypes="sscsscsss" />
    <path
       id="rect773"
       style="opacity:0.2;fill:#ffffff"
       d="m 312,34 c -9.97199,0 -18,8.02801 -18,18 v 1 c 0,-9.97199 8.02801,-18 18,-18 h 48 c 9.97199,0 18,8.02801 18,18 v -1 c 0,-9.97199 -8.02801,-18 -18,-18 z" />
    <path
       id="rect1135"
       style="opacity:0.2;fill:#ffffff;fill-opacity:1"
       d="m 304,144 c -6.64799,0 -12,5.35201 -12,12 v 1 c 0,-6.64799 5.35201,-12 12,-12 h 32 c 6.64799,0 12,5.35201 12,12 v -1 c 0,-6.64799 -5.35201,-12 -12,-12 z" />
    <path
       id="rect1265"
       style="opacity:0.2;fill:#ffffff;fill-opacity:1"
       d="m 300,223 c -4.986,0 -9,4.014 -9,9 v 1 c 0,-4.986 4.014,-9 9,-9 h 24 c 4.986,0 9,4.014 9,9 v -1 c 0,-4.986 -4.014,-9 -9,-9 z" />
    <path
       id="rect1368"
       style="opacity:0.2;fill:#ffffff;fill-opacity:1"
       d="m 424,54 c -3.324,0 -6,2.676003 -6,6 v 1 c 0,-3.323997 2.676,-6 6,-6 h 16 c 3.324,0 6,2.676003 6,6 v -1 c 0,-3.323997 -2.676,-6 -6,-6 z" />
    <path
       id="rect1402"
       style="opacity:0.2;fill:#ffffff;fill-opacity:1"
       d="m 420,140 c -2.216,0 -4,1.784 -4,4 v 1 c 0,-2.216 1.784,-4 4,-4 h 8 c 2.216,0 4,1.784 4,4 v -1 c 0,-2.216 -1.784,-4 -4,-4 z" />
    <path
       id="rect1436"
       style="opacity:0.2;fill:#ffffff;fill-opacity:1"
       d="m 422,102 c -2.216,0 -4,1.784 -4,4 v 1 c 0,-2.216 1.784,-4 4,-4 h 12 c 2.216,0 4,1.784 4,4 v -1 c 0,-2.216 -1.784,-4 -4,-4 z" />
  </g>
</svg>
