<?xml version="1.0" encoding="UTF-8" standalone="no"?>
<!-- Created with Inkscape (http://www.inkscape.org/) -->

<svg
   width="480"
   height="300"
   viewBox="0 0 480 300"
   version="1.1"
   id="svg5"
   inkscape:version="1.3 (1:1.3+202307231459+0e150ed6c4)"
   sodipodi:docname="preferences-system-login.svg"
   xmlns:inkscape="http://www.inkscape.org/namespaces/inkscape"
   xmlns:sodipodi="http://sodipodi.sourceforge.net/DTD/sodipodi-0.dtd"
   xmlns="http://www.w3.org/2000/svg"
   xmlns:svg="http://www.w3.org/2000/svg">
  <sodipodi:namedview
     id="namedview7"
     pagecolor="#888888"
     bordercolor="#000000"
     borderopacity="0.25"
     inkscape:showpageshadow="true"
     inkscape:pageopacity="0"
     inkscape:pagecheckerboard="0"
     inkscape:deskcolor="#888888"
     inkscape:document-units="px"
     showgrid="false"
     showborder="false"
     inkscape:zoom="1.4958333"
     inkscape:cx="240"
     inkscape:cy="150.08357"
     inkscape:window-width="1920"
     inkscape:window-height="1008"
     inkscape:window-x="0"
     inkscape:window-y="0"
     inkscape:window-maximized="1"
     inkscape:current-layer="svg5" />
  <defs
     id="defs2">
    <mask
       maskUnits="userSpaceOnUse"
       id="mask528">
      <rect
         style="opacity:1;fill:#ffffff"
         id="rect530"
         width="56"
         height="56"
         x="292"
         y="144"
         ry="12" />
    </mask>
    <mask
       maskUnits="userSpaceOnUse"
       id="mask532">
      <rect
         style="opacity:1;fill:#ffffff"
         id="rect534"
         width="56"
         height="56"
         x="292"
         y="144"
         ry="12" />
    </mask>
    <mask
       maskUnits="userSpaceOnUse"
       id="mask596">
      <rect
         style="opacity:1;fill:#ffffff"
         id="rect598"
         width="42"
         height="42"
         x="291"
         y="223"
         ry="9" />
    </mask>
    <mask
       maskUnits="userSpaceOnUse"
       id="mask600">
      <rect
         style="opacity:1;fill:#ffffff"
         id="rect602"
         width="42"
         height="42"
         x="291"
         y="223"
         ry="9" />
    </mask>
    <mask
       maskUnits="userSpaceOnUse"
       id="mask612">
      <rect
         style="opacity:1;fill:#ffffff"
         id="rect614"
         width="28"
         height="28"
         x="418"
         y="54"
         ry="6" />
    </mask>
    <mask
       maskUnits="userSpaceOnUse"
       id="mask616">
      <rect
         style="opacity:1;fill:#ffffff"
         id="rect618"
         width="28"
         height="28"
         x="418"
         y="54"
         ry="6" />
    </mask>
    <mask
       maskUnits="userSpaceOnUse"
       id="mask630">
      <rect
         style="opacity:1;fill:#ffffff"
         id="rect632"
         width="20"
         height="20"
         x="418"
         y="102"
         ry="4" />
    </mask>
    <mask
       maskUnits="userSpaceOnUse"
       id="mask634">
      <rect
         style="opacity:1;fill:#ffffff"
         id="rect636"
         width="20"
         height="20"
         x="418"
         y="102"
         ry="4" />
    </mask>
    <mask
       maskUnits="userSpaceOnUse"
       id="mask646">
      <rect
         style="opacity:1;fill:#ffffff"
         id="rect648"
         width="16"
         height="16"
         x="416"
         y="140"
         ry="4" />
    </mask>
    <mask
       maskUnits="userSpaceOnUse"
       id="mask650">
      <rect
         style="opacity:1;fill:#ffffff"
         id="rect652"
         width="16"
         height="16"
         x="416"
         y="140"
         ry="4" />
    </mask>
    <mask
       maskUnits="userSpaceOnUse"
       id="mask662">
      <rect
         style="opacity:1;fill:#ffffff"
         id="rect664"
         width="84"
         height="84"
         x="294"
         y="34"
         ry="18" />
    </mask>
    <mask
       maskUnits="userSpaceOnUse"
       id="mask666">
      <rect
         style="opacity:1;fill:#ffffff"
         id="rect668"
         width="84"
         height="84"
         x="294"
         y="34"
         ry="18" />
    </mask>
    <mask
       maskUnits="userSpaceOnUse"
       id="mask678">
      <rect
         style="opacity:1;fill:#ffffff"
         id="rect680"
         width="224"
         height="224"
         x="32"
         y="44"
         ry="48" />
    </mask>
    <mask
       maskUnits="userSpaceOnUse"
       id="mask682">
      <rect
         style="opacity:1;fill:#ffffff"
         id="rect684"
         width="224"
         height="224"
         x="32"
         y="44"
         ry="48" />
    </mask>
    <mask
       maskUnits="userSpaceOnUse"
       id="mask945">
      <rect
         style="opacity:1;fill:#ffffff;stroke-width:2;stroke-linecap:square"
         id="rect947"
         width="56"
         height="56"
         x="292"
         y="144"
         ry="12" />
    </mask>
    <mask
       maskUnits="userSpaceOnUse"
       id="mask1113">
      <rect
         style="opacity:1;fill:#ffffff;stroke-width:2;stroke-linecap:square"
         id="rect1115"
         width="20"
         height="20"
         x="418"
         y="102" />
    </mask>
    <mask
       maskUnits="userSpaceOnUse"
       id="mask1179">
      <rect
         style="opacity:1;fill:#ffffff;stroke-width:2;stroke-linecap:square"
         id="rect1181"
         width="42"
         height="42"
         x="291"
         y="223"
         ry="9" />
    </mask>
    <mask
       maskUnits="userSpaceOnUse"
       id="mask1371">
      <rect
         style="opacity:1;fill:#ffffff;stroke-width:2;stroke-linecap:square"
         id="rect1373"
         width="16"
         height="16"
         x="416"
         y="140"
         ry="4" />
    </mask>
    <mask
       maskUnits="userSpaceOnUse"
       id="mask1381">
      <rect
         style="opacity:1;fill:#ffffff;stroke-width:2;stroke-linecap:square"
         id="rect1383"
         width="56"
         height="56"
         x="289"
         y="144"
         ry="12" />
    </mask>
    <mask
       maskUnits="userSpaceOnUse"
       id="mask1460">
      <rect
         style="opacity:1;fill:#ffffff;stroke-width:2;stroke-linecap:square"
         id="rect1462"
         width="28"
         height="28"
         x="418"
         y="54"
         ry="6" />
    </mask>
    <mask
       maskUnits="userSpaceOnUse"
       id="mask1624">
      <rect
         style="opacity:1;fill:#ffffff;stroke-width:2;stroke-linecap:square"
         id="rect1626"
         width="42"
         height="42"
         x="291"
         y="223"
         ry="9" />
    </mask>
  </defs>
  <g
     id="Baseplate"
     style="display:none">
    <text
       y="19.774782"
       xml:space="preserve"
       x="15.006946"
       style="font-style:normal;font-variant:normal;font-weight:normal;font-stretch:normal;line-height:0%;font-family:'DejaVu Sans';-inkscape-font-specification:'DejaVu Sans';display:inline;fill:#000000;fill-opacity:1;stroke:none;enable-background:new"
       inkscape:label="context"
       id="context"><tspan
         style="font-style:normal;font-variant:normal;font-weight:normal;font-stretch:normal;font-size:18px;line-height:1.25;font-family:'DejaVu Sans';-inkscape-font-specification:'DejaVu Sans'"
         y="19.774782"
         x="15.006946"
         sodipodi:role="line"
         id="tspan3933">apps</tspan></text>
    <text
       y="19.774782"
       xml:space="preserve"
       x="122.48839"
       style="font-style:normal;font-variant:normal;font-weight:bold;font-stretch:normal;line-height:0%;font-family:'DejaVu Sans';-inkscape-font-specification:'DejaVu Sans Bold';text-align:start;writing-mode:lr-tb;text-anchor:start;display:inline;fill:#000000;fill-opacity:1;stroke:none;enable-background:new"
       inkscape:label="icon-name"
       id="icon-name"><tspan
         style="font-style:normal;font-variant:normal;font-weight:bold;font-stretch:normal;font-size:18px;line-height:1.25;font-family:'DejaVu Sans';-inkscape-font-specification:'DejaVu Sans Bold'"
         y="19.774782"
         x="122.48839"
         sodipodi:role="line"
         id="tspan3937">preferences-system-login</tspan></text>
    <rect
       style="fill:#ffffff"
       id="256x256"
       width="256"
       height="256"
       x="16"
       y="28" />
    <rect
       style="fill:#ffffff"
       id="96x96"
       width="96"
       height="96"
       x="288"
       y="28" />
    <rect
       style="fill:#ffffff"
       id="64x64"
       width="64"
       height="64"
       x="288"
       y="140" />
    <rect
       style="fill:#ffffff"
       id="48x48"
       width="48"
       height="48"
       x="288"
       y="220" />
    <rect
       style="fill:#ffffff"
       id="32x32"
       width="32"
       height="32"
       x="416"
       y="52" />
    <rect
       style="fill:#ffffff"
       id="24x24"
       width="24"
       height="24"
       x="416"
       y="100" />
    <rect
       style="fill:#ffffff"
       id="22x22"
       width="22"
       height="22"
       x="417"
       y="101" />
    <rect
       style="fill:#ffffff"
       id="16x16"
       width="16"
       height="16"
       x="416"
       y="140" />
  </g>
  <g
     id="Shadow">
    <rect
       style="opacity:0.2;fill:#000000"
       id="rect651"
       width="224"
       height="224"
       x="32"
       y="46"
       ry="48" />
    <rect
       style="opacity:0.2;fill:#000000"
       id="rect769"
       width="84"
       height="85"
       x="294"
       y="34"
       ry="18" />
    <rect
       style="opacity:0.2;fill:#000000;fill-opacity:1"
       id="rect1131"
       width="56"
       height="56"
       x="292"
       y="145"
       ry="12" />
    <rect
       style="opacity:0.2;fill:#000000;fill-opacity:1"
       id="rect1261"
       width="42"
       height="42"
       x="291"
       y="224"
       ry="9" />
    <rect
       style="opacity:0.2;fill:#000000;fill-opacity:1"
       id="rect1364"
       width="28"
       height="29"
       x="418"
       y="54"
       ry="6" />
    <rect
       style="opacity:0.2;fill:#000000;fill-opacity:1"
       id="rect1398"
       width="16"
       height="16"
       x="416"
       y="141"
       ry="4" />
    <rect
       style="opacity:0.2;fill:#000000;fill-opacity:1"
       id="rect1432"
       width="20"
       height="20"
       x="418"
       y="103"
       ry="4" />
  </g>
  <g
     id="Background">
    <rect
       style="fill:#33a8e7;fill-opacity:1"
       id="rect597"
       width="224"
       height="224"
       x="32"
       y="44"
       ry="48" />
    <rect
       style="opacity:1;fill:#33a8e7;fill-opacity:1"
       id="rect771"
       width="84"
       height="84"
       x="294"
       y="34"
       ry="18" />
    <rect
       style="opacity:1;fill:#33a8e7;fill-opacity:1"
       id="rect1133"
       width="56"
       height="56"
       x="292"
       y="144"
       ry="12" />
    <rect
       style="opacity:1;fill:#33a8e7;fill-opacity:1"
       id="rect1263"
       width="42"
       height="42"
       x="291"
       y="223"
       ry="9" />
    <rect
       style="opacity:1;fill:#33a8e7;fill-opacity:1"
       id="rect1366"
       width="28"
       height="28"
       x="418"
       y="54"
       ry="6" />
    <rect
       style="opacity:1;fill:#33a8e7;fill-opacity:1"
       id="rect1400"
       width="16"
       height="16"
       x="416"
       y="140"
       ry="4" />
    <rect
       style="opacity:1;fill:#33a8e7;fill-opacity:1"
       id="rect1434"
       width="20"
       height="20"
       x="418"
       y="102"
       ry="4" />
  </g>
  <g
     id="g20">
    <rect
       style="opacity:0.2;fill:#000000;fill-opacity:1;stroke-linecap:round;stroke-linejoin:round"
       id="rect18"
       width="10"
       height="8"
       x="419"
       y="144.5"
       ry="1" />
    <rect
       style="opacity:1;fill:#d4d4d4;fill-opacity:1;stroke-linecap:round;stroke-linejoin:round"
       id="rect19"
       width="10"
       height="8"
       x="419"
       y="144"
       ry="1" />
    <path
       id="path1-2-3-9"
       style="opacity:0.2;fill:#000000;fill-opacity:1;stroke-width:0.57735;stroke-linecap:round;stroke-linejoin:round"
       d="M 424 145.5 C 423.44772 145.5 423 145.94772 423 146.5 C 423 147.05228 423.44772 147.5 424 147.5 C 424.55228 147.5 425 147.05228 425 146.5 C 425 145.94772 424.55228 145.5 424 145.5 z M 424 147.5 C 422.89543 147.5 422 148.39543 422 149.5 L 426 149.5 C 426 148.39543 425.10457 147.5 424 147.5 z " />
    <path
       id="path30-7-2"
       style="fill:#4d4d4d;fill-opacity:1;stroke-width:0.57735;stroke-linecap:round;stroke-linejoin:round"
       d="M 424 145 C 423.44772 145 423 145.44772 423 146 C 423 146.55228 423.44772 147 424 147 C 424.55228 147 425 146.55228 425 146 C 425 145.44772 424.55228 145 424 145 z M 424 147 C 422.89543 147 422 147.89543 422 149 L 426 149 C 426 147.89543 425.10457 147 424 147 z " />
    <path
       id="rect20"
       style="opacity:0.2;fill:#ffffff;fill-opacity:1;stroke-linecap:round;stroke-linejoin:round"
       d="M 420 144 C 419.446 144 419 144.446 419 145 L 419 145.5 C 419 144.946 419.446 144.5 420 144.5 L 428 144.5 C 428.554 144.5 429 144.946 429 145.5 L 429 145 C 429 144.446 428.554 144 428 144 L 420 144 z " />
    <rect
       style="opacity:0.2;fill:#000000;fill-opacity:1;stroke-linecap:round;stroke-linejoin:round"
       id="rect33"
       width="8"
       height="1"
       x="420"
       y="150.5" />
    <rect
       style="opacity:1;fill:#ffffff;fill-opacity:1;stroke-linecap:round;stroke-linejoin:round"
       id="rect34"
       width="8"
       height="1"
       x="420"
       y="150" />
  </g>
  <g
     id="g23">
    <rect
       style="opacity:0.2;fill:#000000;fill-opacity:1;stroke-linecap:round;stroke-linejoin:round"
       id="rect21"
       width="14"
       height="12"
       x="421"
       y="106.5"
       ry="1.5" />
    <rect
       style="opacity:1;fill:#d4d4d4;fill-opacity:1;stroke-linecap:round;stroke-linejoin:round"
       id="rect22"
       width="14"
       height="12"
       x="421"
       y="106"
       ry="1.5" />
    <path
       id="path1-2-3"
       style="opacity:0.2;fill:#000000;fill-opacity:1;stroke-width:0.57735;stroke-linecap:round;stroke-linejoin:round"
       d="m 428,108.5 c -0.55228,0 -1,0.44772 -1,1 0,0.55228 0.44772,1 1,1 0.55228,0 1,-0.44772 1,-1 0,-0.55228 -0.44772,-1 -1,-1 z m 0,3 a 2,2 0 0 0 -2,2 h 4 a 2,2 0 0 0 -2,-2 z" />
    <path
       id="path30-7"
       style="fill:#4d4d4d;fill-opacity:1;stroke-width:0.57735;stroke-linecap:round;stroke-linejoin:round"
       d="m 428,108 c -0.55228,0 -1,0.44772 -1,1 0,0.55228 0.44772,1 1,1 0.55228,0 1,-0.44772 1,-1 0,-0.55228 -0.44772,-1 -1,-1 z m 0,3 a 2,2 0 0 0 -2,2 h 4 a 2,2 0 0 0 -2,-2 z" />
    <path
       id="rect23"
       style="opacity:0.2;fill:#ffffff;fill-opacity:1;stroke-linecap:round;stroke-linejoin:round"
       d="M 422.5 106 C 421.669 106 421 106.669 421 107.5 L 421 108 C 421 107.169 421.669 106.5 422.5 106.5 L 433.5 106.5 C 434.331 106.5 435 107.169 435 108 L 435 107.5 C 435 106.669 434.331 106 433.5 106 L 422.5 106 z " />
    <rect
       style="opacity:0.2;fill:#000000;fill-opacity:1;stroke-linecap:round;stroke-linejoin:round"
       id="rect31"
       width="10"
       height="2"
       x="423"
       y="114.5" />
    <rect
       style="opacity:1;fill:#ffffff;fill-opacity:1;stroke-linecap:round;stroke-linejoin:round"
       id="rect32"
       width="10"
       height="2"
       x="423"
       y="114" />
  </g>
  <g
     id="g11">
    <rect
       style="opacity:0.2;fill:#000000;fill-opacity:1;stroke-linecap:round;stroke-linejoin:round"
       id="rect9"
       width="20"
       height="16"
       x="422"
       y="61"
       ry="2" />
    <rect
       style="opacity:1;fill:#d4d4d4;fill-opacity:1;stroke-linecap:round;stroke-linejoin:round"
       id="rect10"
       width="20"
       height="16"
       x="422"
       y="60"
       ry="2" />
    <path
       d="m 432,63 c -1.10457,0 -2,0.895431 -2,2 0,1.104569 0.89543,2 2,2 1.10457,0 2,-0.895431 2,-2 0,-1.104569 -0.89543,-2 -2,-2 z m 0,5 c -2.20914,0 -4,1.343146 -4,3 h 8 c 0,-1.656854 -1.79086,-3 -4,-3 z"
       style="fill:#000000;fill-opacity:1;stroke-width:1.1547;stroke-linecap:round;stroke-linejoin:round;opacity:0.2"
       id="path1-2" />
    <path
       id="path30"
       style="opacity:1;fill:#4d4d4d;fill-opacity:1;stroke-width:1.1547;stroke-linecap:round;stroke-linejoin:round"
       d="m 432,62 c -1.10457,0 -2,0.895431 -2,2 0,1.104569 0.89543,2 2,2 1.10457,0 2,-0.895431 2,-2 0,-1.104569 -0.89543,-2 -2,-2 z m 0,5 c -2.20914,0 -4,1.343146 -4,3 h 8 c 0,-1.656854 -1.79086,-3 -4,-3 z" />
    <path
       id="rect11"
       style="opacity:0.2;fill:#ffffff;fill-opacity:1;stroke-linecap:round;stroke-linejoin:round"
       d="M 424 60 C 422.892 60 422 60.892002 422 62 L 422 63 C 422 61.892002 422.892 61 424 61 L 440 61 C 441.108 61 442 61.892002 442 63 L 442 62 C 442 60.892002 441.108 60 440 60 L 424 60 z " />
    <rect
       style="opacity:0.2;fill:#000000;fill-opacity:1;stroke-linecap:round;stroke-linejoin:round"
       id="rect30"
       width="16"
       height="2"
       x="424"
       y="73" />
    <rect
       style="opacity:1;fill:#ffffff;fill-opacity:1;stroke-width:1.06904;stroke-linecap:round;stroke-linejoin:round"
       id="rect24"
       width="16"
       height="2"
       x="424"
       y="72" />
  </g>
  <g
     id="g17">
    <rect
       style="opacity:0.2;fill:#000000;fill-opacity:1;stroke-linecap:round;stroke-linejoin:round"
       id="rect12"
       width="30"
       height="24"
       x="297"
       y="233"
       ry="3" />
    <rect
       style="opacity:1;fill:#d4d4d4;fill-opacity:1;stroke-linecap:round;stroke-linejoin:round"
       id="rect13"
       width="30"
       height="24"
       x="297"
       y="232"
       ry="3" />
    <path
       d="m 312,237 c -1.1044,0 -2,0.8956 -2,2 0,1.1044 0.8956,2 2,2 1.1044,0 2,-0.8956 2,-2 0,-1.10453 -0.89547,-2 -2,-2 z m 0,5 c -3.31642,0.0227 -4,2 -4,2 v 1.5 c 0,0 0.73846,1.5 4,1.5 3.26154,0 4,-1.5 4,-1.5 V 244 c 0,0 -0.68358,-1.97733 -4,-2 z"
       style="fill:#000000;fill-opacity:1;opacity:0.2"
       id="path1" />
    <path
       id="path6015"
       style="fill:#4d4d4d;fill-opacity:1"
       d="m 312,236 c -1.1044,0 -2,0.8956 -2,2 0,1.1044 0.8956,2 2,2 1.1044,0 2,-0.8956 2,-2 0,-1.10453 -0.89547,-2 -2,-2 z m 0,5 c -3.31642,0.0227 -4,2 -4,2 v 1.5 c 0,0 0.73846,1.5 4,1.5 3.26154,0 4,-1.5 4,-1.5 V 243 c 0,0 -0.68358,-1.97733 -4,-2 z"
       sodipodi:nodetypes="ssssscccsccc" />
    <path
       id="rect14"
       style="opacity:0.2;fill:#ffffff;fill-opacity:1;stroke-linecap:round;stroke-linejoin:round"
       d="M 300 232 C 298.338 232 297 233.338 297 235 L 297 236 C 297 234.338 298.338 233 300 233 L 324 233 C 325.662 233 327 234.338 327 236 L 327 235 C 327 233.338 325.662 232 324 232 L 300 232 z " />
    <rect
       style="opacity:0.2;fill:#000000;fill-opacity:1;stroke-linecap:round;stroke-linejoin:round"
       id="rect26"
       width="24"
       height="4"
       x="300"
       y="250" />
    <rect
       style="opacity:1;fill:#ffffff;fill-opacity:1;stroke-linecap:round;stroke-linejoin:round"
       id="rect27"
       width="24"
       height="4"
       x="300"
       y="249" />
  </g>
  <g
     id="g9">
    <rect
       style="opacity:0.2;fill:#000000;stroke-linecap:round;stroke-linejoin:round"
       id="rect1"
       width="40"
       height="32"
       x="300"
       y="157"
       ry="4" />
    <rect
       style="opacity:1;fill:#d4d4d4;fill-opacity:1;stroke-linecap:round;stroke-linejoin:round"
       id="rect2"
       width="40"
       height="32"
       x="300"
       y="156"
       ry="4" />
    <path
       d="m 320,161 c -1.6566,0 -3,1.3434 -3,3 0,1.6566 1.3434,3 3,3 1.6566,0 3,-1.3434 3,-3 0,-1.6568 -1.34321,-3 -3,-3 z m 0,8 c -5.31649,-1e-5 -6,3.5 -6,3.5 v 1.5 c 0,0 1.10769,2 6,2 4.89231,0 6,-2 6,-2 v -1.5 c 0,0 -0.68351,-3.50001 -6,-3.5 z"
       style="fill:#000000;stroke-width:1.5;opacity:0.2"
       id="path1-7" />
    <path
       id="path1-1"
       style="fill:#4d4d4d;fill-opacity:1;stroke-width:1.5"
       d="m 320,160 c -1.6566,0 -3,1.3434 -3,3 0,1.6566 1.3434,3 3,3 1.6566,0 3,-1.3434 3,-3 0,-1.6568 -1.34321,-3 -3,-3 z m 0,8 c -5.31649,-1e-5 -6,3.5 -6,3.5 v 1.5 c 0,0 1.10769,2 6,2 4.89231,0 6,-2 6,-2 v -1.5 c 0,0 -0.68351,-3.50001 -6,-3.5 z" />
    <path
       id="rect3"
       style="opacity:0.2;fill:#ffffff;fill-opacity:1;stroke-linecap:round;stroke-linejoin:round"
       d="m 304,156 c -2.216,0 -4,1.784 -4,4 v 1 c 0,-2.216 1.784,-4 4,-4 h 32 c 2.216,0 4,1.784 4,4 v -1 c 0,-2.216 -1.784,-4 -4,-4 z" />
    <rect
       style="opacity:0.2;fill:#000000;fill-opacity:1;stroke-linecap:round;stroke-linejoin:round"
       id="rect28"
       width="32"
       height="6"
       x="304"
       y="179" />
    <rect
       style="fill:#ffffff;fill-opacity:1;stroke-linecap:round;stroke-linejoin:round"
       id="rect29"
       width="32"
       height="6"
       x="304"
       y="178" />
  </g>
  <g
     id="g18">
    <rect
       style="opacity:0.2;fill:#000000;fill-opacity:1;stroke-linecap:round;stroke-linejoin:round"
       id="rect15"
       width="60"
       height="48"
       x="306"
       y="53"
       ry="6" />
    <rect
       style="opacity:1;fill:#d4d4d4;fill-opacity:1;stroke-linecap:round;stroke-linejoin:round"
       id="rect16"
       width="60"
       height="48"
       x="306"
       y="52"
       ry="6" />
    <path
       d="m 336,58 c -2.762,0 -5,2.239 -5,5 0,2.761 2.238,5 5,5 2.762,0 5,-2.239 5,-5 0,-2.761 -2.238,-5 -5,-5 z m 0,13 c -8,0 -9,5 -9,5 v 2 c 0,0 0.84614,4 9,4 8.15386,0 9,-4 9,-4 v -2 c 0,0 -1,-5 -8.998,-5 z"
       style="opacity:0.2;fill:#000000"
       id="path1-18" />
    <path
       d="m 336,57 c -2.762,0 -5,2.239 -5,5 0,2.761 2.238,5 5,5 2.762,0 5,-2.239 5,-5 0,-2.761 -2.238,-5 -5,-5 z m 0,13 c -8,0 -9,5 -9,5 v 2 c 0,0 0.84614,4 9,4 8.15386,0 9,-4 9,-4 v -2 c 0,0 -1,-5 -8.998,-5 z"
       style="fill:#4d4d4d;fill-opacity:1"
       id="path6402"
       sodipodi:nodetypes="ssssssccsccss" />
    <path
       id="rect17"
       style="opacity:0.2;fill:#ffffff;fill-opacity:1;stroke-linecap:round;stroke-linejoin:round"
       d="M 312 52 C 308.676 52 306 54.676003 306 58 L 306 59 C 306 55.676003 308.676 53 312 53 L 360 53 C 363.324 53 366 55.676003 366 59 L 366 58 C 366 54.676003 363.324 52 360 52 L 312 52 z " />
    <rect
       style="opacity:0.2;fill:#000000;fill-opacity:1;stroke-width:1.5;stroke-linecap:round;stroke-linejoin:round"
       id="rect28-7"
       width="48"
       height="9"
       x="312"
       y="86" />
    <rect
       style="fill:#ffffff;fill-opacity:1;stroke-width:1.5;stroke-linecap:round;stroke-linejoin:round"
       id="rect29-9"
       width="48"
       height="9"
       x="312"
       y="85" />
  </g>
  <g
     id="g8">
    <rect
       style="opacity:0.2;fill:#000000;fill-opacity:1;stroke-width:4;stroke-linecap:round;stroke-linejoin:round"
       id="rect4"
       width="160"
       height="128"
       x="64"
       y="94"
       ry="16" />
    <rect
       style="fill:#d4d4d4;fill-opacity:1;stroke-width:4;stroke-linecap:round;stroke-linejoin:round"
       id="rect5"
       width="160"
       height="128"
       x="64"
       y="92"
       ry="16" />
    <path
       d="m 144,110 c -6.6264,0 -12,5.3736 -12,12 0,6.6264 5.3736,12 12,12 6.6264,0 12,-5.3736 12,-12 0,-6.6272 -5.37284,-12 -12,-12 z m 0,32 c -21.26596,-4e-5 -24,14 -24,14 v 6 c 0,0 4.43076,8 24,8 19.56924,0 24,-8 24,-8 v -6 c 0,0 -2.73404,-14.00004 -24,-14 z"
       style="opacity:0.2;fill:#000000;stroke-width:6"
       id="path1-7-6" />
    <path
       id="path1-1-0"
       style="fill:#4d4d4d;fill-opacity:1;stroke-width:6"
       d="m 144,108 c -6.6264,0 -12,5.3736 -12,12 0,6.6264 5.3736,12 12,12 6.6264,0 12,-5.3736 12,-12 0,-6.6272 -5.37284,-12 -12,-12 z m 0,32 c -21.26596,-4e-5 -24,14 -24,14 v 6 c 0,0 4.43076,8 24,8 19.56924,0 24,-8 24,-8 v -6 c 0,0 -2.73404,-14.00004 -24,-14 z" />
    <rect
       style="opacity:0.2;fill:#000000;fill-opacity:1;stroke-width:4;stroke-linecap:round;stroke-linejoin:round"
       id="rect28-2"
       width="128"
       height="24"
       x="80"
       y="182" />
    <rect
       style="fill:#ffffff;fill-opacity:1;stroke-width:4;stroke-linecap:round;stroke-linejoin:round"
       id="rect29-6"
       width="128"
       height="24"
       x="80"
       y="180" />
    <path
       id="rect6"
       style="opacity:0.2;fill:#ffffff;fill-opacity:1;stroke-width:4;stroke-linecap:round;stroke-linejoin:round"
       d="m 80,92 c -8.864,0 -16,7.136 -16,16 v 2 c 0,-8.864 7.136,-16 16,-16 h 128 c 8.864,0 16,7.136 16,16 v -2 c 0,-8.864 -7.136,-16 -16,-16 z" />
  </g>
  <g
     id="Highlights">
    <path
       id="rect653"
       style="opacity:0.2;fill:#ffffff"
       d="M 80,44 C 53.408027,44 32,65.408027 32,92 v 2 C 32,67.408027 53.408027,46 80,46 h 128 c 26.59197,0 48,21.408027 48,48 V 92 C 256,65.408027 234.59197,44 208,44 Z"
       sodipodi:nodetypes="sscsscsss" />
    <path
       id="rect773"
       style="opacity:0.2;fill:#ffffff"
       d="m 312,34 c -9.97199,0 -18,8.02801 -18,18 v 1 c 0,-9.97199 8.02801,-18 18,-18 h 48 c 9.97199,0 18,8.02801 18,18 v -1 c 0,-9.97199 -8.02801,-18 -18,-18 z" />
    <path
       id="rect1135"
       style="opacity:0.2;fill:#ffffff;fill-opacity:1"
       d="m 304,144 c -6.64799,0 -12,5.35201 -12,12 v 1 c 0,-6.64799 5.35201,-12 12,-12 h 32 c 6.64799,0 12,5.35201 12,12 v -1 c 0,-6.64799 -5.35201,-12 -12,-12 z" />
    <path
       id="rect1265"
       style="opacity:0.2;fill:#ffffff;fill-opacity:1"
       d="m 300,223 c -4.986,0 -9,4.014 -9,9 v 1 c 0,-4.986 4.014,-9 9,-9 h 24 c 4.986,0 9,4.014 9,9 v -1 c 0,-4.986 -4.014,-9 -9,-9 z" />
    <path
       id="rect1368"
       style="opacity:0.2;fill:#ffffff;fill-opacity:1"
       d="m 424,54 c -3.324,0 -6,2.676003 -6,6 v 1 c 0,-3.323997 2.676,-6 6,-6 h 16 c 3.324,0 6,2.676003 6,6 v -1 c 0,-3.323997 -2.676,-6 -6,-6 z" />
    <path
       id="rect1402"
       style="opacity:0.2;fill:#ffffff;fill-opacity:1"
       d="m 420,140 c -2.216,0 -4,1.784 -4,4 v 1 c 0,-2.216 1.784,-4 4,-4 h 8 c 2.216,0 4,1.784 4,4 v -1 c 0,-2.216 -1.784,-4 -4,-4 z" />
    <path
       id="rect1436"
       style="opacity:0.2;fill:#ffffff;fill-opacity:1"
       d="m 422,102 c -2.216,0 -4,1.784 -4,4 v 1 c 0,-2.216 1.784,-4 4,-4 h 12 c 2.216,0 4,1.784 4,4 v -1 c 0,-2.216 -1.784,-4 -4,-4 z" />
  </g>
</svg>
