<?xml version="1.0" encoding="utf-8"?>
<svg viewBox="0 0 480 300" style="display:inline;enable-background:new" xmlns="http://www.w3.org/2000/svg">
  <defs>
    <linearGradient gradientUnits="userSpaceOnUse" x1="424" y1="140.5" x2="424" y2="155.5" id="gradient-0">
      <stop offset="0" style="stop-color: rgb(100% 100% 100%)"/>
      <stop offset="1" style="stop-color: rgb(226, 226, 226);"/>
    </linearGradient>
    <linearGradient gradientUnits="userSpaceOnUse" x1="428" y1="101.5" x2="428" y2="122.5" id="gradient-1">
      <stop offset="0" style="stop-color: rgb(100% 100% 100%)"/>
      <stop offset="1" style="stop-color: rgb(226, 226, 226);"/>
    </linearGradient>
    <linearGradient gradientUnits="userSpaceOnUse" x1="432" y1="53.5" x2="432" y2="82.5" id="gradient-2">
      <stop offset="0" style="stop-color: rgb(100% 100% 100%)"/>
      <stop offset="1" style="stop-color: rgb(226, 226, 226);"/>
    </linearGradient>
    <linearGradient gradientUnits="userSpaceOnUse" x1="312" y1="223.5" x2="312" y2="264.5" id="gradient-3">
      <stop offset="0" style="stop-color: rgb(100% 100% 100%)"/>
      <stop offset="1" style="stop-color: rgb(226, 226, 226);"/>
    </linearGradient>
    <linearGradient gradientUnits="userSpaceOnUse" x1="320" y1="142.5" x2="320" y2="201.5" id="gradient-4">
      <stop offset="0" style="stop-color: rgb(100% 100% 100%)"/>
      <stop offset="1" style="stop-color: rgb(226, 226, 226);"/>
    </linearGradient>
    <linearGradient gradientUnits="userSpaceOnUse" x1="336" y1="32.5" x2="336" y2="119.5" id="gradient-5">
      <stop offset="0" style="stop-color: rgb(100% 100% 100%)"/>
      <stop offset="1" style="stop-color: rgb(226, 226, 226);"/>
    </linearGradient>
    <linearGradient gradientUnits="userSpaceOnUse" x1="144" y1="46.5" x2="144" y2="265.5" id="gradient-6">
      <stop offset="0" style="stop-color: rgb(255, 255, 255);"/>
      <stop offset="1" style="stop-color: rgb(226, 226, 226);"/>
    </linearGradient>
  </defs>
  <g style="display:inline" id="layer1">
    <g style="display:none" id="layer7">
      <text y="19.745117" x="15.006836" style="font-style: normal; font-variant: normal; font-weight: normal; font-stretch: normal; line-height: 0%; font-family: 'DejaVu Sans'; display: inline; fill: rgb(0, 0, 0); fill-opacity: 1; stroke: none; white-space: pre;" id="context"><tspan style="font-style:normal;font-variant:normal;font-weight:normal;font-stretch:normal;font-size:18px;line-height:1.25;font-family:'DejaVu Sans';-inkscape-font-specification:'DejaVu Sans'" y="19.745117" x="15.006836" id="tspan3933">apps</tspan></text>
      <text y="19.745117" x="122.48828" style="font-style: normal; font-variant: normal; font-weight: bold; font-stretch: normal; line-height: 0%; font-family: 'DejaVu Sans'; text-align: start; writing-mode: lr-tb; text-anchor: start; display: inline; fill: rgb(0, 0, 0); fill-opacity: 1; stroke: none; white-space: pre;" id="icon-name"><tspan style="font-style:normal;font-variant:normal;font-weight:bold;font-stretch:normal;font-size:18px;line-height:1.25;font-family:'DejaVu Sans';-inkscape-font-specification:'DejaVu Sans Bold'" y="19.745117" x="122.48828" id="tspan3937">sheet</tspan></text>
      <rect style="fill:#eeeeec;fill-opacity:1;fill-rule:nonzero;stroke:none;stroke-width:2;marker:none;visibility:visible;display:inline;overflow:visible;enable-background:accumulate" id="rect16x16" width="16" height="16" x="416" y="140"/>
      <rect style="fill:#d4d4d4;fill-opacity:1;fill-rule:nonzero;stroke:none;stroke-width:2;marker:none;visibility:visible;display:inline;overflow:visible;enable-background:accumulate" id="rect24x24" width="24" height="24" x="416" y="100"/>
      <rect style="fill:#eeeeec;fill-opacity:1;fill-rule:nonzero;stroke:none;stroke-width:2;marker:none;visibility:visible;display:inline;overflow:visible;enable-background:accumulate" id="rect32x32" width="32" height="32" x="416" y="52"/>
      <rect y="101" x="417" height="22" width="22" id="rect22x22" style="fill:#eeeeec;fill-opacity:1;fill-rule:nonzero;stroke:none;stroke-width:2;marker:none;visibility:visible;display:inline;overflow:visible;enable-background:accumulate"/>
      <rect y="220" x="288" height="48" width="48" id="rect48x48" style="fill:#eeeeec;fill-opacity:1;fill-rule:nonzero;stroke:none;stroke-width:2;marker:none;visibility:visible;display:inline;overflow:visible;enable-background:accumulate"/>
      <rect style="fill:#eeeeec;fill-opacity:1;fill-rule:nonzero;stroke:none;stroke-width:2;marker:none;visibility:visible;display:inline;overflow:visible;enable-background:accumulate" id="rect256x256" width="256" height="256" x="16" y="28"/>
      <rect style="fill:#eeeeec;fill-opacity:1;fill-rule:nonzero;stroke:none;stroke-width:2;marker:none;visibility:visible;display:inline;overflow:visible;enable-background:accumulate" id="rect64x64" width="64" height="64" x="288" y="140"/>
      <rect style="fill:#eeeeec;fill-opacity:1;fill-rule:nonzero;stroke:none;stroke-width:2;marker:none;visibility:visible;display:inline;overflow:visible;enable-background:accumulate" id="rect96x96" width="96" height="96" x="288" y="28"/>
    </g>
    <g id="layer4" style="display:inline">
      <rect ry="50" y="47" x="34" height="220" width="220" id="rect4114" style="opacity:0.1;color:#bebebe;fill:#000000;fill-opacity:1;fill-rule:nonzero;stroke:none;stroke-width:0;marker:none;visibility:visible;display:inline;overflow:visible;enable-background:accumulate"/>
      <rect style="opacity:0.1;color:#bebebe;fill:#000000;fill-opacity:1;fill-rule:nonzero;stroke:none;stroke-width:0;marker:none;visibility:visible;display:inline;overflow:visible;enable-background:accumulate" id="rect4120" width="30" height="30" x="417" y="54" ry="7"/>
      <rect transform="scale(1,-1)" ry="9" y="-266" x="291" height="42" width="42" id="rect4122" style="opacity:0.1;color:#bebebe;fill:#000000;fill-opacity:1;fill-rule:nonzero;stroke:none;stroke-width:0;marker:none;visibility:visible;display:inline;overflow:visible;enable-background:accumulate"/>
      <rect style="opacity:0.1;color:#bebebe;fill:#000000;fill-opacity:1;fill-rule:nonzero;stroke:none;stroke-width:0;marker:none;visibility:visible;display:inline;overflow:visible;enable-background:accumulate" id="rect4124" width="88" height="88" x="292" y="33" ry="18"/>
      <rect ry="12.5" y="143" x="290" height="60" width="60" id="rect4126" style="opacity:0.1;color:#bebebe;fill:#000000;fill-opacity:1;fill-rule:nonzero;stroke:none;stroke-width:0;marker:none;visibility:visible;display:inline;overflow:visible;enable-background:accumulate"/>
      <path id="path4268" d="m 422,101 c -2.77,0 -5,2.23 -5,5 l 0,12 c 0,2.77 2.23,5 5,5 l 12,0 c 2.77,0 5,-2.23 5,-5 l 0,-12 c 0,-2.77 -2.23,-5 -5,-5 z" style="opacity:0.1;color:#bebebe;fill:#000000;fill-opacity:1;fill-rule:nonzero;stroke:none;stroke-width:0;marker:none;visibility:visible;display:inline;overflow:visible;enable-background:accumulate"/>
      <path id="path4270" d="m 419,140 c -1.662,0 -3,1.338 -3,3 l 0,10 c 0,1.662 1.338,3 3,3 l 10,0 c 1.662,0 3,-1.338 3,-3 l 0,-10 c 0,-1.662 -1.338,-3 -3,-3 z" style="opacity:0.1;color:#bebebe;fill:#000000;fill-opacity:1;fill-rule:nonzero;stroke:none;stroke-width:0;marker:none;visibility:visible;display:inline;overflow:visible;enable-background:accumulate"/>
    </g>
    <g id="layer2" style="display:inline">
      <path style="color: rgb(190, 190, 190); fill-opacity: 1; fill-rule: nonzero; stroke: none; stroke-width: 2; marker: none; visibility: visible; display: inline; overflow: visible; fill: url('#gradient-0');" d="M 419 140.5 C 417.6156 140.5 416.5 141.6156 416.5 143 L 416.5 153 C 416.5 154.3844 417.6156 155.5 419 155.5 L 429 155.5 C 430.3844 155.5 431.5 154.3844 431.5 153 L 431.5 143 C 431.5 141.6156 430.3844 140.5 429 140.5 L 419 140.5 z " id="path4202"/>
      <path style="color: rgb(190, 190, 190); fill-opacity: 1; fill-rule: nonzero; stroke: none; stroke-width: 2; marker: none; visibility: visible; display: inline; overflow: visible; fill: url('#gradient-1');" d="M 422 101.5 C 419.50301 101.5 417.5 103.50301 417.5 106 L 417.5 118 C 417.5 120.49699 419.50301 122.5 422 122.5 L 434 122.5 C 436.49699 122.5 438.5 120.49699 438.5 118 L 438.5 106 C 438.5 103.50301 436.49699 101.5 434 101.5 L 422 101.5 z " id="path4204"/>
      <path style="color: rgb(190, 190, 190); fill-opacity: 1; fill-rule: nonzero; stroke: none; stroke-width: 2; marker: none; visibility: visible; display: inline; overflow: visible; fill: url('#gradient-2');" d="M 424 53.5 C 420.39346 53.5 417.5 56.393464 417.5 60 L 417.5 76 C 417.5 79.606536 420.39346 82.5 424 82.5 L 440 82.5 C 443.60654 82.5 446.5 79.606536 446.5 76 L 446.5 60 C 446.5 56.393464 443.60654 53.5 440 53.5 L 424 53.5 z " id="path4206"/>
      <path style="color: rgb(190, 190, 190); fill-opacity: 1; fill-rule: nonzero; stroke: none; stroke-width: 2; marker: none; visibility: visible; display: inline; overflow: visible; fill: url('#gradient-3');" d="M 300 223.5 C 295.28469 223.5 291.5 227.28469 291.5 232 L 291.5 256 C 291.5 260.71531 295.28469 264.5 300 264.5 L 324 264.5 C 328.71531 264.5 332.5 260.71531 332.5 256 L 332.5 232 C 332.5 227.28469 328.71531 223.5 324 223.5 L 300 223.5 z " id="path4208"/>
      <path style="color: rgb(190, 190, 190); fill-opacity: 1; fill-rule: nonzero; stroke: none; stroke-width: 2; marker: none; visibility: visible; display: inline; overflow: visible; fill: url('#gradient-4');" d="M 302.5 142.5 C 295.84498 142.5 290.5 147.84498 290.5 154.5 L 290.5 189.5 C 290.5 196.15502 295.84498 201.5 302.5 201.5 L 337.5 201.5 C 344.15502 201.5 349.5 196.15502 349.5 189.5 L 349.5 154.5 C 349.5 147.84498 344.15502 142.5 337.5 142.5 L 302.5 142.5 z " id="path4212"/>
      <path style="color: rgb(190, 190, 190); fill-opacity: 1; fill-rule: nonzero; stroke: none; stroke-width: 2; marker: none; visibility: visible; display: inline; overflow: visible; fill: url('#gradient-5');" d="M 310 32.5 C 300.29745 32.5 292.5 40.297452 292.5 50 L 292.5 102 C 292.5 111.70255 300.29745 119.5 310 119.5 L 362 119.5 C 371.70255 119.5 379.5 111.70255 379.5 102 L 379.5 50 C 379.5 40.297452 371.70255 32.5 362 32.5 L 310 32.5 z " id="path4210"/>
      <path style="color: rgb(190, 190, 190); fill-opacity: 1; fill-rule: nonzero; stroke: none; stroke-width: 2; marker: none; visibility: visible; display: inline; overflow: visible; fill: url('#gradient-6');" d="M 84 46.5 C 56.568735 46.5 34.5 68.568732 34.5 96 L 34.5 216 C 34.5 243.43127 56.568735 265.5 84 265.5 L 204 265.5 C 231.43127 265.5 253.5 243.43127 253.5 216 L 253.5 96 C 253.5 68.568732 231.43127 46.5 204 46.5 L 84 46.5 z " id="path4200"/>
    </g>
    <g id="layer6" style="display:inline" transform="matrix(1, 0, 0, 1, -0.395137, 0.712992)">
      <g style="" transform="matrix(0.01982, 0, 0, 0.01982, 416.54657, 140.573334)">
        <title>logo</title>
        <path d="M599.3,186.8c-93.9-93.9-246.1-93.9-340,0s-93.9,246.1,0,340Z" style="fill: rgba(51, 51, 51, 0.36);"/>
        <path d="M202.7,612.5c93.9,93.9,246.1,93.9,340,0s93.9-246.1,0-340" style="fill: rgba(51, 51, 51, 0.36);"/>
      </g>
      <g style="" transform="matrix(0.02651, 0, 0, 0.02651, 417.863892, 101.899681)">
        <title>logo</title>
        <path d="M599.3,186.8c-93.9-93.9-246.1-93.9-340,0s-93.9,246.1,0,340Z" style="fill: rgba(51, 51, 51, 0.36);"/>
        <path d="M202.7,612.5c93.9,93.9,246.1,93.9,340,0s93.9-246.1,0-340" style="fill: rgba(51, 51, 51, 0.36);"/>
      </g>
      <g style="" transform="matrix(0.034323, 0, 0, 0.034323, 418.730865, 54.777214)">
        <title>logo</title>
        <path d="M599.3,186.8c-93.9-93.9-246.1-93.9-340,0s-93.9,246.1,0,340Z" style="fill: rgba(51, 51, 51, 0.36);"/>
        <path d="M202.7,612.5c93.9,93.9,246.1,93.9,340,0s93.9-246.1,0-340" style="fill: rgba(51, 51, 51, 0.36);"/>
      </g>
      <g transform="matrix(0.047281, 0, 0, 0.047281, 293.534729, 225.598557)" style="">
        <title>logo</title>
        <path d="M599.3,186.8c-93.9-93.9-246.1-93.9-340,0s-93.9,246.1,0,340Z" style="fill: rgba(51, 51, 51, 0.36);"/>
        <path d="M202.7,612.5c93.9,93.9,246.1,93.9,340,0s93.9-246.1,0-340" style="fill: rgba(51, 51, 51, 0.36);"/>
      </g>
      <g style="" transform="matrix(0.06725, 0, 0, 0.06725, 293.527161, 145.617935)">
        <title>logo</title>
        <path d="M599.3,186.8c-93.9-93.9-246.1-93.9-340,0s-93.9,246.1,0,340Z" style="fill: rgba(51, 51, 51, 0.36);"/>
        <path d="M202.7,612.5c93.9,93.9,246.1,93.9,340,0s93.9-246.1,0-340" style="fill: rgba(51, 51, 51, 0.36);"/>
      </g>
      <g style="" transform="matrix(0.103531, 0, 0, 0.103531, 294.978485, 35.118233)">
        <title>logo</title>
        <path d="M599.3,186.8c-93.9-93.9-246.1-93.9-340,0s-93.9,246.1,0,340Z" style="fill: rgba(51, 51, 51, 0.36);"/>
        <path d="M202.7,612.5c93.9,93.9,246.1,93.9,340,0s93.9-246.1,0-340" style="fill: rgba(51, 51, 51, 0.36);"/>
      </g>
      <g transform="matrix(0.26566, 0, 0, 0.26566, 37.964748, 50.32338)" style="">
        <title>logo</title>
        <path d="M599.3,186.8c-93.9-93.9-246.1-93.9-340,0s-93.9,246.1,0,340Z" style="fill: rgba(51, 51, 51, 0.36);"/>
        <path d="M202.7,612.5c93.9,93.9,246.1,93.9,340,0s93.9-246.1,0-340" style="fill: rgba(51, 51, 51, 0.36);"/>
      </g>
    </g>
    <g id="g-1" style="display:inline" transform="matrix(1, 0, 0, 1, -0.424334, 0.005859)">
      <g style="" transform="matrix(0.01982, 0, 0, 0.01982, 416.54657, 140.573334)">
        <title>logo</title>
        <path d="M599.3,186.8c-93.9-93.9-246.1-93.9-340,0s-93.9,246.1,0,340Z" fill="#363636"/>
        <path d="M202.7,612.5c93.9,93.9,246.1,93.9,340,0s93.9-246.1,0-340" fill="#ed6b21"/>
      </g>
      <g style="" transform="matrix(0.02651, 0, 0, 0.02651, 417.863892, 101.899681)">
        <title>logo</title>
        <path d="M599.3,186.8c-93.9-93.9-246.1-93.9-340,0s-93.9,246.1,0,340Z" fill="#363636"/>
        <path d="M202.7,612.5c93.9,93.9,246.1,93.9,340,0s93.9-246.1,0-340" fill="#ed6b21"/>
      </g>
      <g style="" transform="matrix(0.034323, 0, 0, 0.034323, 418.730865, 54.777214)">
        <title>logo</title>
        <path d="M599.3,186.8c-93.9-93.9-246.1-93.9-340,0s-93.9,246.1,0,340Z" fill="#363636"/>
        <path d="M202.7,612.5c93.9,93.9,246.1,93.9,340,0s93.9-246.1,0-340" fill="#ed6b21"/>
      </g>
      <g transform="matrix(0.047281, 0, 0, 0.047281, 293.534729, 225.598557)" style="">
        <title>logo</title>
        <path d="M599.3,186.8c-93.9-93.9-246.1-93.9-340,0s-93.9,246.1,0,340Z" fill="#363636"/>
        <path d="M202.7,612.5c93.9,93.9,246.1,93.9,340,0s93.9-246.1,0-340" fill="#ed6b21"/>
      </g>
      <g style="" transform="matrix(0.06725, 0, 0, 0.06725, 293.527161, 145.617935)">
        <title>logo</title>
        <path d="M599.3,186.8c-93.9-93.9-246.1-93.9-340,0s-93.9,246.1,0,340Z" fill="#363636"/>
        <path d="M202.7,612.5c93.9,93.9,246.1,93.9,340,0s93.9-246.1,0-340" fill="#ed6b21"/>
      </g>
      <g style="" transform="matrix(0.103531, 0, 0, 0.103531, 294.978485, 35.118233)">
        <title>logo</title>
        <path d="M599.3,186.8c-93.9-93.9-246.1-93.9-340,0s-93.9,246.1,0,340Z" fill="#363636"/>
        <path d="M202.7,612.5c93.9,93.9,246.1,93.9,340,0s93.9-246.1,0-340" fill="#ed6b21"/>
      </g>
      <g transform="matrix(0.26566, 0, 0, 0.26566, 37.964748, 50.32338)" style="">
        <title>logo</title>
        <path d="M599.3,186.8c-93.9-93.9-246.1-93.9-340,0s-93.9,246.1,0,340Z" fill="#363636"/>
        <path d="M202.7,612.5c93.9,93.9,246.1,93.9,340,0s93.9-246.1,0-340" fill="#ed6b21"/>
      </g>
    </g>
    <g id="layer5" style="display:inline">
      <path style="opacity:0.12999998;color:#bebebe;fill:#ffffff;fill-opacity:1;fill-rule:nonzero;stroke:none;stroke-width:0;marker:none;visibility:visible;display:inline;overflow:visible;enable-background:accumulate" d="M 84,47 C 56.836703,47 35,68.836703 35,96 l 0,1 C 35,69.836703 56.836703,48 84,48 l 120,0 c 27.1633,0 49,21.836703 49,49 l 0,-1 C 253,68.836703 231.1633,47 204,47 L 84,47 z" id="rect3894"/>
      <path style="opacity:0.12999998;color:#bebebe;fill:#ffffff;fill-opacity:1;fill-rule:nonzero;stroke:none;stroke-width:0;marker:none;visibility:visible;display:inline;overflow:visible;enable-background:accumulate" d="m 419,141 c -1.1253,0 -2,0.8747 -2,2 l 0,1 c 0,-1.1253 0.8747,-2 2,-2 l 10,0 c 1.1253,0 2,0.8747 2,2 l 0,-1 c 0,-1.1253 -0.8747,-2 -2,-2 l -10,0 z" id="rect3896"/>
      <path style="opacity:0.12999998;color:#bebebe;fill:#ffffff;fill-opacity:1;fill-rule:nonzero;stroke:none;stroke-width:0;marker:none;visibility:visible;display:inline;overflow:visible;enable-background:accumulate" d="m 422,102 c -2.2333,0 -4,1.7667 -4,4 l 0,1 c 0,-2.2333 1.7667,-4 4,-4 l 12,0 c 2.2333,0 4,1.7667 4,4 l 0,-1 c 0,-2.2333 -1.7667,-4 -4,-4 l -12,0 z" id="rect3898"/>
      <path style="opacity:0.12999998;color:#bebebe;fill:#ffffff;fill-opacity:1;fill-rule:nonzero;stroke:none;stroke-width:0;marker:none;visibility:visible;display:inline;overflow:visible;enable-background:accumulate" d="m 424,54 c -3.3413,0 -6,2.658703 -6,6 l 0,1 c 0,-3.341297 2.6587,-6 6,-6 l 16,0 c 3.3413,0 6,2.658703 6,6 l 0,-1 c 0,-3.341297 -2.6587,-6 -6,-6 l -16,0 z" id="rect3900"/>
      <path style="opacity:0.12999998;color:#bebebe;fill:#ffffff;fill-opacity:1;fill-rule:nonzero;stroke:none;stroke-width:0;marker:none;visibility:visible;display:inline;overflow:visible;enable-background:accumulate" d="m 300,224 c -4.4493,0 -8,3.5507 -8,8 l 0,1 c 0,-4.4493 3.5507,-8 8,-8 l 24,0 c 4.4493,0 8,3.5507 8,8 l 0,-1 c 0,-4.4493 -3.5507,-8 -8,-8 l -24,0 z" id="rect3902"/>
      <path style="opacity:0.12999998;color:#bebebe;fill:#ffffff;fill-opacity:1;fill-rule:nonzero;stroke:none;stroke-width:0;marker:none;visibility:visible;display:inline;overflow:visible;enable-background:accumulate" d="m 310,33 c -9.4353,0 -17,7.564703 -17,17 l 0,1 c 0,-9.435297 7.5647,-17 17,-17 l 52,0 c 9.4353,0 17,7.564703 17,17 l 0,-1 c 0,-9.435297 -7.5647,-17 -17,-17 l -52,0 z" id="rect3904"/>
      <path style="opacity:0.12999998;color:#bebebe;fill:#ffffff;fill-opacity:1;fill-rule:nonzero;stroke:none;stroke-width:0;marker:none;visibility:visible;display:inline;overflow:visible;enable-background:accumulate" d="m 302.5,143 c -6.3883,0 -11.5,5.1117 -11.5,11.5 l 0,1 c 0,-6.3883 5.1117,-11.5 11.5,-11.5 l 35,0 c 6.3883,0 11.5,5.1117 11.5,11.5 l 0,-1 c 0,-6.3883 -5.1117,-11.5 -11.5,-11.5 l -35,0 z" id="rect3906"/>
      <path id="path4085" d="m 204,266 c 27.1633,0 49,-21.8367 49,-49 l 0,-1 c 0,27.1633 -21.8367,49 -49,49 L 84,265 C 56.8367,265 35,243.1633 35,216 l 0,1 c 0,27.1633 21.8367,49 49,49 l 120,0 z" style="opacity:0.41;color:#bebebe;fill:#000000;fill-opacity:1;fill-rule:nonzero;stroke:none;stroke-width:0;marker:none;visibility:visible;display:inline;overflow:visible;enable-background:accumulate"/>
      <path id="path4087" d="m 429,156 c 1.1253,0 2,-0.8747 2,-2 l 0,-1 c 0,1.1253 -0.8747,2 -2,2 l -10,0 c -1.1253,0 -2,-0.8747 -2,-2 l 0,1 c 0,1.1253 0.8747,2 2,2 l 10,0 z" style="opacity:0.3;color:#bebebe;fill:#000000;fill-opacity:1;fill-rule:nonzero;stroke:none;stroke-width:0;marker:none;visibility:visible;display:inline;overflow:visible;enable-background:accumulate"/>
      <path id="path4089" d="m 434,123 c 2.2333,0 4,-1.7667 4,-4 l 0,-1 c 0,2.2333 -1.7667,4 -4,4 l -12,0 c -2.2333,0 -4,-1.7667 -4,-4 l 0,1 c 0,2.2333 1.7667,4 4,4 l 12,0 z" style="opacity:0.3;color:#bebebe;fill:#000000;fill-opacity:1;fill-rule:nonzero;stroke:none;stroke-width:0;marker:none;visibility:visible;display:inline;overflow:visible;enable-background:accumulate"/>
      <path id="path4091" d="m 440,83 c 3.3413,0 6,-2.6587 6,-6 l 0,-1 c 0,3.3413 -2.6587,6 -6,6 l -16,0 c -3.3413,0 -6,-2.6587 -6,-6 l 0,1 c 0,3.3413 2.6587,6 6,6 l 16,0 z" style="opacity:0.41;color:#bebebe;fill:#000000;fill-opacity:1;fill-rule:nonzero;stroke:none;stroke-width:0;marker:none;visibility:visible;display:inline;overflow:visible;enable-background:accumulate"/>
      <path id="path4093" d="m 324,265 c 4.4493,0 8,-3.5507 8,-8 l 0,-1 c 0,4.4493 -3.5507,8 -8,8 l -24,0 c -4.4493,0 -8,-3.5507 -8,-8 l 0,1 c 0,4.4493 3.5507,8 8,8 l 24,0 z" style="opacity:0.41;color:#bebebe;fill:#000000;fill-opacity:1;fill-rule:nonzero;stroke:none;stroke-width:0;marker:none;visibility:visible;display:inline;overflow:visible;enable-background:accumulate"/>
      <path id="path4095" d="m 362,120 c 9.4353,0 17,-7.5647 17,-17 l 0,-1 c 0,9.4353 -7.5647,17 -17,17 l -52,0 c -9.4353,0 -17,-7.5647 -17,-17 l 0,1 c 0,9.4353 7.5647,17 17,17 l 52,0 z" style="opacity:0.41;color:#bebebe;fill:#000000;fill-opacity:1;fill-rule:nonzero;stroke:none;stroke-width:0;marker:none;visibility:visible;display:inline;overflow:visible;enable-background:accumulate"/>
      <path id="path4097" d="m 337.5,202 c 6.3883,0 11.5,-5.1117 11.5,-11.5 l 0,-1 c 0,6.3883 -5.1117,11.5 -11.5,11.5 l -35,0 c -6.3883,0 -11.5,-5.1117 -11.5,-11.5 l 0,1 c 0,6.3883 5.1117,11.5 11.5,11.5 l 35,0 z" style="opacity:0.41;color:#bebebe;fill:#000000;fill-opacity:1;fill-rule:nonzero;stroke:none;stroke-width:0;marker:none;visibility:visible;display:inline;overflow:visible;enable-background:accumulate"/>
      <path id="path4280" d="M 84,265 C 56.836703,265 35,243.1633 35,216 l 0,-1 c 0,27.1633 21.836703,49 49,49 l 120,0 c 27.1633,0 49,-21.8367 49,-49 l 0,1 c 0,27.1633 -21.8367,49 -49,49 l -120,0 z" style="opacity:0.1;color:#bebebe;fill:#ffffff;fill-opacity:1;fill-rule:nonzero;stroke:none;stroke-width:0;marker:none;visibility:visible;display:inline;overflow:visible;enable-background:accumulate"/>
      <path style="opacity:0.1;color:#bebebe;fill:#ffffff;fill-opacity:1;fill-rule:nonzero;stroke:none;stroke-width:0;marker:none;visibility:visible;display:inline;overflow:visible;enable-background:accumulate" d="m 300,264 c -4.4493,0 -8,-3.5507 -8,-8 l 0,-1 c 0,4.4493 3.5507,8 8,8 l 24,0 c 4.4493,0 8,-3.5507 8,-8 l 0,1 c 0,4.4493 -3.5507,8 -8,8 l -24,0 z" id="path4294"/>
      <path style="opacity:0.1;color:#bebebe;fill:#ffffff;fill-opacity:1;fill-rule:nonzero;stroke:none;stroke-width:0;marker:none;visibility:visible;display:inline;overflow:visible;enable-background:accumulate" d="m 302.5,201 c -6.3883,0 -11.5,-5.1117 -11.5,-11.5 l 0,-1 c 0,6.3883 5.1117,11.5 11.5,11.5 l 35,0 c 6.3883,0 11.5,-5.1117 11.5,-11.5 l 0,1 c 0,6.3883 -5.1117,11.5 -11.5,11.5 l -35,0 z" id="path4296"/>
      <path style="opacity:0.1;color:#bebebe;fill:#ffffff;fill-opacity:1;fill-rule:nonzero;stroke:none;stroke-width:0;marker:none;visibility:visible;display:inline;overflow:visible;enable-background:accumulate" d="m 310,119 c -9.4353,0 -17,-7.5647 -17,-17 l 0,-1 c 0,9.4353 7.5647,17 17,17 l 52,0 c 9.4353,0 17,-7.5647 17,-17 l 0,1 c 0,9.4353 -7.5647,17 -17,17 l -52,0 z" id="path4298"/>
      <path style="opacity:0.1;color:#bebebe;fill:#ffffff;fill-opacity:1;fill-rule:nonzero;stroke:none;stroke-width:0;marker:none;visibility:visible;display:inline;overflow:visible;enable-background:accumulate" d="m 424,82 c -3.3413,0 -6,-2.658703 -6,-6 l 0,-1 c 0,3.341297 2.6587,6 6,6 l 16,0 c 3.3413,0 6,-2.658703 6,-6 l 0,1 c 0,3.341297 -2.6587,6 -6,6 l -16,0 z" id="path4300"/>
      <path style="opacity:0.1;color:#bebebe;fill:#ffffff;fill-opacity:1;fill-rule:nonzero;stroke:none;stroke-width:0;marker:none;visibility:visible;display:inline;overflow:visible;enable-background:accumulate" d="m 422,122 c -2.2333,0 -4,-1.7667 -4,-4 l 0,-1 c 0,2.2333 1.7667,4 4,4 l 12,0 c 2.2333,0 4,-1.7667 4,-4 l 0,1 c 0,2.2333 -1.7667,4 -4,4 l -12,0 z" id="path4302"/>
      <path style="opacity:0.1;color:#bebebe;fill:#ffffff;fill-opacity:1;fill-rule:nonzero;stroke:none;stroke-width:0;marker:none;visibility:visible;display:inline;overflow:visible;enable-background:accumulate" d="m 419,154.5 c -1.1253,0 -2,-0.8747 -2,-2 l 0,-1 c 0,1.1253 0.8747,2 2,2 l 10,0 c 1.1253,0 2,-0.8747 2,-2 l 0,1 c 0,1.1253 -0.8747,2 -2,2 l -10,0 z" id="path4304"/>
    </g>
    <g id="layer3" style="display:inline">
      <path style="opacity:0.41;color:#bebebe;fill:#000000;fill-opacity:1;fill-rule:nonzero;stroke:none;stroke-width:0;marker:none;visibility:visible;display:inline;overflow:visible;enable-background:accumulate" d="m 422,101 c -2.77,0 -5,2.23 -5,5 l 0,12 c 0,2.77 2.23,5 5,5 l 12,0 c 2.77,0 5,-2.23 5,-5 l 0,-12 c 0,-2.77 -2.23,-5 -5,-5 l -12,0 z m 0,1 12,0 c 2.2333,0 4,1.7667 4,4 l 0,12 c 0,2.2333 -1.7667,4 -4,4 l -12,0 c -2.2333,0 -4,-1.7667 -4,-4 l 0,-12 c 0,-2.2333 1.7667,-4 4,-4 z" id="rect4099"/>
      <path style="opacity:0.41;color:#bebebe;fill:#000000;fill-opacity:1;fill-rule:nonzero;stroke:none;stroke-width:0;marker:none;visibility:visible;display:inline;overflow:visible;enable-background:accumulate" d="m 424,53 c -3.878,0 -7,3.122 -7,7 l 0,16 c 0,3.878 3.122,7 7,7 l 16,0 c 3.878,0 7,-3.122 7,-7 l 0,-16 c 0,-3.878 -3.122,-7 -7,-7 l -16,0 z m 0,1 16,0 c 3.3413,0 6,2.658703 6,6 l 0,16 c 0,3.341297 -2.6587,6 -6,6 l -16,0 c -3.3413,0 -6,-2.658703 -6,-6 l 0,-16 c 0,-3.341297 2.6587,-6 6,-6 z" id="rect4151"/>
      <path style="opacity:0.41;color:#bebebe;fill:#000000;fill-opacity:1;fill-rule:nonzero;stroke:none;stroke-width:0;marker:none;visibility:visible;display:inline;overflow:visible;enable-background:accumulate" d="m 419,140 c -1.662,0 -3,1.338 -3,3 l 0,10 c 0,1.662 1.338,3 3,3 l 10,0 c 1.662,0 3,-1.338 3,-3 l 0,-10 c 0,-1.662 -1.338,-3 -3,-3 l -10,0 z m 0,1 10,0 c 1.1253,0 2,0.8747 2,2 l 0,10 c 0,1.1253 -0.8747,2 -2,2 l -10,0 c -1.1253,0 -2,-0.8747 -2,-2 l 0,-10 c 0,-1.1253 0.8747,-2 2,-2 z" id="rect4095"/>
      <path style="opacity:0.41;color:#bebebe;fill:#000000;fill-opacity:1;fill-rule:nonzero;stroke:none;stroke-width:0;marker:none;visibility:visible;display:inline;overflow:visible;enable-background:accumulate" d="m 300,223 c -4.986,0 -9,4.014 -9,9 l 0,24 c 0,4.986 4.014,9 9,9 l 24,0 c 4.986,0 9,-4.014 9,-9 l 0,-24 c 0,-4.986 -4.014,-9 -9,-9 l -24,0 z m 0,1 24,0 c 4.4493,0 8,3.5507 8,8 l 0,24 c 0,4.4493 -3.5507,8 -8,8 l -24,0 c -4.4493,0 -8,-3.5507 -8,-8 l 0,-24 c 0,-4.4493 3.5507,-8 8,-8 z" id="rect4783"/>
      <path style="opacity:0.41;color:#bebebe;fill:#000000;fill-opacity:1;fill-rule:nonzero;stroke:none;stroke-width:0;marker:none;visibility:visible;display:inline;overflow:visible;enable-background:accumulate" d="m 302.5,142 c -6.925,0 -12.5,5.575 -12.5,12.5 l 0,35 c 0,6.925 5.575,12.5 12.5,12.5 l 35,0 c 6.925,0 12.5,-5.575 12.5,-12.5 l 0,-35 c 0,-6.925 -5.575,-12.5 -12.5,-12.5 l -35,0 z m 0,1 35,0 c 6.3883,0 11.5,5.1117 11.5,11.5 l 0,35 c 0,6.3883 -5.1117,11.5 -11.5,11.5 l -35,0 c -6.3883,0 -11.5,-5.1117 -11.5,-11.5 l 0,-35 c 0,-6.3883 5.1117,-11.5 11.5,-11.5 z" id="rect4515"/>
      <path style="opacity:0.41;color:#bebebe;fill:#000000;fill-opacity:1;fill-rule:nonzero;stroke:none;stroke-width:0;marker:none;visibility:visible;display:inline;overflow:visible;enable-background:accumulate" d="m 310,32 c -9.972,0 -18,8.028 -18,18 l 0,52 c 0,9.972 8.028,18 18,18 l 52,0 c 9.972,0 18,-8.028 18,-18 l 0,-52 c 0,-9.972 -8.028,-18 -18,-18 l -52,0 z m 0,1 52,0 c 9.4353,0 17,7.564703 17,17 l 0,52 c 0,9.4353 -7.5647,17 -17,17 l -52,0 c -9.4353,0 -17,-7.5647 -17,-17 l 0,-52 c 0,-9.435297 7.5647,-17 17,-17 z" id="rect4511"/>
      <path style="opacity:0.41;color:#bebebe;fill:#000000;fill-opacity:1;fill-rule:nonzero;stroke:none;stroke-width:0;marker:none;visibility:visible;display:inline;overflow:visible;enable-background:accumulate" d="M 84,46 C 56.3,46 34,68.3 34,96 l 0,120 c 0,27.7 22.3,50 50,50 l 120,0 c 27.7,0 50,-22.3 50,-50 L 254,96 C 254,68.3 231.7,46 204,46 L 84,46 z m 0,1 120,0 c 27.1633,0 49,21.836703 49,49 l 0,120 c 0,27.1633 -21.8367,49 -49,49 L 84,265 C 56.836703,265 35,243.1633 35,216 L 35,96 C 35,68.836703 56.836703,47 84,47 z" id="rect4040"/>
    </g>
  </g>
</svg>