<?xml version="1.0" encoding="UTF-8" standalone="no"?>
<!-- Created with Inkscape (http://www.inkscape.org/) -->

<svg
   width="480"
   height="300"
   viewBox="0 0 480 300"
   version="1.1"
   id="svg5"
   inkscape:version="1.3.2 (091e20ef0f, 2023-11-25, custom)"
   sodipodi:docname="rambox.svg"
   xmlns:inkscape="http://www.inkscape.org/namespaces/inkscape"
   xmlns:sodipodi="http://sodipodi.sourceforge.net/DTD/sodipodi-0.dtd"
   xmlns="http://www.w3.org/2000/svg"
   xmlns:svg="http://www.w3.org/2000/svg">
  <sodipodi:namedview
     id="namedview7"
     pagecolor="#888888"
     bordercolor="#000000"
     borderopacity="0.25"
     inkscape:showpageshadow="true"
     inkscape:pageopacity="0"
     inkscape:pagecheckerboard="0"
     inkscape:deskcolor="#888888"
     inkscape:document-units="px"
     showgrid="false"
     showborder="false"
     inkscape:zoom="2.65"
     inkscape:cx="239.81132"
     inkscape:cy="150"
     inkscape:window-width="1920"
     inkscape:window-height="1008"
     inkscape:window-x="0"
     inkscape:window-y="0"
     inkscape:window-maximized="1"
     inkscape:current-layer="svg5" />
  <defs
     id="defs2" />
  <g
     id="Baseplate"
     style="display:none">
    <text
       y="19.774782"
       xml:space="preserve"
       x="15.006946"
       style="font-style:normal;font-variant:normal;font-weight:normal;font-stretch:normal;line-height:0%;font-family:'DejaVu Sans';-inkscape-font-specification:'DejaVu Sans';display:inline;fill:#000000;fill-opacity:1;stroke:none;enable-background:new"
       inkscape:label="context"
       id="context"><tspan
         style="font-style:normal;font-variant:normal;font-weight:normal;font-stretch:normal;font-size:18px;line-height:1.25;font-family:'DejaVu Sans';-inkscape-font-specification:'DejaVu Sans'"
         y="19.774782"
         x="15.006946"
         sodipodi:role="line"
         id="tspan3933">apps</tspan></text>
    <text
       y="19.774782"
       xml:space="preserve"
       x="122.48839"
       style="font-style:normal;font-variant:normal;font-weight:bold;font-stretch:normal;line-height:0%;font-family:'DejaVu Sans';-inkscape-font-specification:'DejaVu Sans Bold';text-align:start;writing-mode:lr-tb;text-anchor:start;display:inline;fill:#000000;fill-opacity:1;stroke:none;enable-background:new"
       inkscape:label="icon-name"
       id="icon-name"><tspan
         style="font-style:normal;font-variant:normal;font-weight:bold;font-stretch:normal;font-size:18px;line-height:1.25;font-family:'DejaVu Sans';-inkscape-font-specification:'DejaVu Sans Bold'"
         y="19.774782"
         x="122.48839"
         sodipodi:role="line"
         id="tspan3937">rambox</tspan></text>
    <rect
       style="fill:#ffffff"
       id="256x256"
       width="256"
       height="256"
       x="16"
       y="28" />
    <rect
       style="fill:#ffffff"
       id="96x96"
       width="96"
       height="96"
       x="288"
       y="28" />
    <rect
       style="fill:#ffffff"
       id="64x64"
       width="64"
       height="64"
       x="288"
       y="140" />
    <rect
       style="fill:#ffffff"
       id="48x48"
       width="48"
       height="48"
       x="288"
       y="220" />
    <rect
       style="fill:#ffffff"
       id="32x32"
       width="32"
       height="32"
       x="416"
       y="52" />
    <rect
       style="fill:#ffffff"
       id="24x24"
       width="24"
       height="24"
       x="416"
       y="100" />
    <rect
       style="fill:#ffffff"
       id="22x22"
       width="22"
       height="22"
       x="417"
       y="101" />
    <rect
       style="fill:#ffffff"
       id="16x16"
       width="16"
       height="16"
       x="416"
       y="140" />
  </g>
  <g
     id="Shadow">
    <rect
       style="opacity:0.2;fill:#000000"
       id="rect651"
       width="224"
       height="224"
       x="32"
       y="46"
       ry="48" />
    <rect
       style="opacity:0.2;fill:#000000"
       id="rect769"
       width="84"
       height="85"
       x="294"
       y="34"
       ry="18" />
    <rect
       style="opacity:0.2;fill:#000000;fill-opacity:1"
       id="rect1131"
       width="56"
       height="56"
       x="292"
       y="145"
       ry="12" />
    <rect
       style="opacity:0.2;fill:#000000;fill-opacity:1"
       id="rect1261"
       width="42"
       height="42"
       x="291"
       y="224"
       ry="9" />
    <rect
       style="opacity:0.2;fill:#000000;fill-opacity:1"
       id="rect1364"
       width="28"
       height="29"
       x="418"
       y="54"
       ry="6" />
    <rect
       style="opacity:0.2;fill:#000000;fill-opacity:1"
       id="rect1398"
       width="16"
       height="16"
       x="416"
       y="141"
       ry="4" />
    <rect
       style="opacity:0.2;fill:#000000;fill-opacity:1"
       id="rect1432"
       width="20"
       height="20"
       x="418"
       y="103"
       ry="4" />
  </g>
  <g
     id="Background">
    <rect
       style="fill:#00abb3;fill-opacity:1"
       id="rect597"
       width="224"
       height="224"
       x="32"
       y="44"
       ry="48" />
    <rect
       style="opacity:1;fill:#00abb3;fill-opacity:1"
       id="rect771"
       width="84"
       height="84"
       x="294"
       y="34"
       ry="18" />
    <rect
       style="opacity:1;fill:#00abb3;fill-opacity:1"
       id="rect1133"
       width="56"
       height="56"
       x="292"
       y="144"
       ry="12" />
    <rect
       style="opacity:1;fill:#00abb3;fill-opacity:1"
       id="rect1263"
       width="42"
       height="42"
       x="291"
       y="223"
       ry="9" />
    <rect
       style="opacity:1;fill:#00abb3;fill-opacity:1"
       id="rect1366"
       width="28"
       height="28"
       x="418"
       y="54"
       ry="6" />
    <rect
       style="opacity:1;fill:#00abb3;fill-opacity:1"
       id="rect1400"
       width="16"
       height="16"
       x="416"
       y="140"
       ry="4" />
    <rect
       style="opacity:1;fill:#00abb3;fill-opacity:1"
       id="rect1434"
       width="20"
       height="20"
       x="418"
       y="102"
       ry="4" />
  </g>
  <g
     id="g8">
    <g
       id="g1">
      <path
         style="opacity:0.2;fill:#000000"
         d="M 422.81445,143.5 C 421.22439,143.5 420,144.51532 420,146.10547 v 0.52539 c 0,1.21456 0.63413,2.25551 1.69922,2.67969 v -0.90039 -0.22852 C 421.20574,147.84205 421,147.27397 421,146.63086 v -0.52539 c 0,-1.03768 0.77677,-1.60547 1.81445,-1.60547 h 2.36914 c 1.03768,0 1.81641,0.56779 1.81641,1.60547 v 0.52539 c 0,1.03768 -0.77873,1.87219 -1.81641,1.86914 H 424 423.24219 423 c 0,-0.27614 -0.22386,-0.5 -0.5,-0.5 -0.27614,0 -0.5,0.22386 -0.5,0.5 v 0.0918 3.28515 c 0,0.24911 -0.11115,0.62305 -0.5,0.62305 -0.38885,0 -0.5,-0.2738 -0.5,-0.60938 v -1.32226 -0.55078 c 0,-0.29392 -0.20609,-0.51758 -0.5,-0.51758 -0.29384,0 -0.5,0.22366 -0.5,0.51758 v 1.8789 c 0,0.88167 0.61834,1.60352 1.5,1.60352 0.88166,0 1.5,-0.72185 1.5,-1.60352 v -1.07421 -0.23633 -0.49024 -0.21484 V 149.5 h 1 0.72656 H 425 v 0.38086 0.21484 0.49024 0.23633 1.07421 c 0,0.88167 0.61834,1.60352 1.5,1.60352 0.88166,0 1.5,-0.72185 1.5,-1.60352 v -1.8789 c 0,-0.29392 -0.20616,-0.51758 -0.5,-0.51758 -0.29392,0 -0.5,0.22366 -0.5,0.51758 v 0.55078 1.32226 c 0,0.33558 -0.11115,0.60938 -0.5,0.60938 -0.38885,0 -0.5,-0.37394 -0.5,-0.62305 v -2.48437 c 1.18353,-0.35615 2,-1.45872 2,-2.76172 v -0.52539 C 428,144.51532 426.77366,143.5 425.18359,143.5 Z M 418.5,147.49414 c -0.27502,0 -0.5,0.22347 -0.5,0.49805 v 1.75586 c 0,0.64876 0.41894,1.20536 1,1.41211 v -1.48438 -1.16797 -0.51562 c 0,-0.27458 -0.22506,-0.49805 -0.5,-0.49805 z m 11,0 c -0.27502,0 -0.5,0.22347 -0.5,0.49805 v 3.16797 c 0.58106,-0.20675 1,-0.76335 1,-1.41211 v -1.24024 -0.51562 c 0,-0.27458 -0.22506,-0.49805 -0.5,-0.49805 z"
         id="path1" />
      <path
         style="fill:#ffffff"
         d="M 422.81445,143 C 421.22439,143 420,144.01532 420,145.60547 v 0.52539 c 0,1.21456 0.63413,2.25551 1.69922,2.67969 v -0.90039 -0.22852 C 421.20574,147.34205 421,146.77397 421,146.13086 v -0.52539 C 421,144.56779 421.77677,144 422.81445,144 h 2.36914 c 1.03768,0 1.81641,0.56779 1.81641,1.60547 v 0.52539 c 0,1.03768 -0.77873,1.87219 -1.81641,1.86914 H 424 423.24219 423 c 0,-0.27614 -0.22386,-0.5 -0.5,-0.5 -0.27614,0 -0.5,0.22386 -0.5,0.5 v 0.0918 3.28515 c 0,0.24911 -0.11115,0.62305 -0.5,0.62305 -0.38885,0 -0.5,-0.2738 -0.5,-0.60938 v -1.32226 -0.55078 C 421,149.22366 420.79391,149 420.5,149 c -0.29384,0 -0.5,0.22366 -0.5,0.51758 v 1.8789 c 0,0.88167 0.61834,1.60352 1.5,1.60352 0.88166,0 1.5,-0.72185 1.5,-1.60352 v -1.07421 -0.23633 -0.49024 -0.21484 V 149 h 1 0.72656 H 425 v 0.38086 0.21484 0.49024 0.23633 1.07421 c 0,0.88167 0.61834,1.60352 1.5,1.60352 0.88166,0 1.5,-0.72185 1.5,-1.60352 v -1.8789 C 428,149.22366 427.79384,149 427.5,149 c -0.29392,0 -0.5,0.22366 -0.5,0.51758 v 0.55078 1.32226 C 427,151.7262 426.88885,152 426.5,152 c -0.38885,0 -0.5,-0.37394 -0.5,-0.62305 v -2.48437 c 1.18353,-0.35615 2,-1.45872 2,-2.76172 v -0.52539 C 428,144.01532 426.77366,143 425.18359,143 Z M 418.5,146.99414 c -0.27502,0 -0.5,0.22347 -0.5,0.49805 v 1.75586 c 0,0.64876 0.41894,1.20536 1,1.41211 v -1.48438 -1.16797 -0.51562 c 0,-0.27458 -0.22506,-0.49805 -0.5,-0.49805 z m 11,0 c -0.27502,0 -0.5,0.22347 -0.5,0.49805 v 3.16797 c 0.58106,-0.20675 1,-0.76335 1,-1.41211 v -1.24024 -0.51562 c 0,-0.27458 -0.22506,-0.49805 -0.5,-0.49805 z"
         id="path2" />
    </g>
    <g
       id="g2">
      <path
         style="opacity:0.2;fill:#000000"
         d="m 426.37109,105.5 c -2.18647,0 -3.87109,1.64448 -3.87109,3.83105 v 0.72461 c 0,1.67012 1.03542,3.1013 2.5,3.68458 V 112.5 112.1875 c -0.67857,-0.46697 -1,-1.2475 -1,-2.13184 v -0.72461 C 424,107.90416 424.9442,107 426.37109,107 h 3.25782 C 431.0558,107 432,107.90416 432,109.33105 v 0.72461 c 0,1.4269 -0.94421,2.44853 -2.37109,2.44434 H 428 427.47559 426.95703 A 0.75,0.75 0 0 0 426.25,112 a 0.75,0.75 0 0 0 -0.75,0.75 v 4.51758 c 0,0.34253 -0.24078,0.65575 -0.57422,0.73437 C 424.44636,118.11501 424,117.74953 424,117.28809 v -1.81836 -0.75879 C 424,114.30678 423.68443,114 423.28027,114 422.87623,114 422.5,114.30678 422.5,114.71094 v 2.58496 c 0,1.21236 1.03764,2.2041 2.25,2.2041 1.21236,0 2.25,-0.99174 2.25,-2.2041 v -1.47754 -0.32617 -0.67383 -0.29395 V 114 h 2 v 3.2959 c 0,1.21236 1.03764,2.2041 2.25,2.2041 1.21236,0 2.2805,-0.99213 2.25,-2.2041 v -1.82617 -0.75879 C 433.5,114.30678 433.15416,114 432.75,114 c -0.40405,0 -0.75,0.30678 -0.75,0.71094 v 2.57715 c 0,0.46144 -0.44647,0.82692 -0.92578,0.71386 -0.33344,-0.0786 -0.57422,-0.39184 -0.57422,-0.73437 v -2.23145 -1.0664 -0.0498 c 1.7613,-0.40362 3,-1.98221 3,-3.86426 v -0.72461 c 0,-2.18657 -1.68462,-3.83105 -3.87109,-3.83105 z m -5.12109,6 c -0.41253,0 -0.75,0.33716 -0.75,0.74902 v 2.63379 c 0,0.97315 0.62841,1.80708 1.5,2.11719 v -2.22656 -1.75098 -0.77344 C 422,111.83716 421.66242,111.5 421.25,111.5 Z m 13.5,0 c -0.41253,0 -0.75,0.33716 -0.75,0.74902 V 117 c 0.87159,-0.31011 1.5,-1.14404 1.5,-2.11719 v -1.86035 -0.77344 c 0,-0.41186 -0.33758,-0.74902 -0.75,-0.74902 z"
         id="path3" />
      <path
         style="fill:#ffffff"
         d="m 426.37109,105 c -2.18647,0 -3.87109,1.64448 -3.87109,3.83105 v 0.72461 c 0,1.67012 1.03542,3.1013 2.5,3.68458 V 112 111.6875 c -0.67857,-0.46697 -1,-1.2475 -1,-2.13184 v -0.72461 c 0,-1.42689 0.9442,-2.33105 2.37109,-2.33105 h 3.25782 c 1.42689,0 2.37109,0.90416 2.37109,2.33105 v 0.72461 c 0,1.4269 -0.94421,2.44853 -2.37109,2.44434 H 428 h -0.52441 -0.51856 a 0.75,0.75 0 0 0 -0.70703,-0.5 0.75,0.75 0 0 0 -0.75,0.75 v 4.51758 c 0,0.34253 -0.24078,0.65575 -0.57422,0.73437 C 424.44636,117.61501 424,117.24953 424,116.78809 v -1.81836 -0.75879 c 0,-0.40416 -0.31557,-0.71094 -0.71973,-0.71094 -0.40404,0 -0.78027,0.30678 -0.78027,0.71094 v 2.58496 c 0,1.21236 1.03764,2.2041 2.25,2.2041 1.21236,0 2.25,-0.99174 2.25,-2.2041 v -1.47754 -0.32617 -0.67383 -0.29395 V 113.5 h 2 v 3.2959 c 0,1.21236 1.03764,2.2041 2.25,2.2041 1.21236,0 2.2805,-0.99213 2.25,-2.2041 v -1.82617 -0.75879 c 0,-0.40416 -0.34584,-0.71094 -0.75,-0.71094 -0.40405,0 -0.75,0.30678 -0.75,0.71094 v 2.57715 c 0,0.46144 -0.44647,0.82692 -0.92578,0.71386 -0.33344,-0.0786 -0.57422,-0.39184 -0.57422,-0.73437 v -2.23145 -1.0664 -0.0498 c 1.7613,-0.40362 3,-1.98221 3,-3.86426 v -0.72461 C 433.5,106.64448 431.81538,105 429.62891,105 Z m -5.12109,6 c -0.41253,0 -0.75,0.33716 -0.75,0.74902 v 2.63379 c 0,0.97315 0.62841,1.80708 1.5,2.11719 v -2.22656 -1.75098 -0.77344 C 422,111.33716 421.66242,111 421.25,111 Z m 13.5,0 c -0.41253,0 -0.75,0.33716 -0.75,0.74902 V 116.5 c 0.87159,-0.31011 1.5,-1.14404 1.5,-2.11719 v -1.86035 -0.77344 C 435.5,111.33716 435.16242,111 434.75,111 Z"
         id="path4" />
    </g>
    <g
       id="g3">
      <path
         style="opacity:0.2;fill:#000000"
         d="M 429.92578,60 C 427.14316,60.000001 425,62.076619 425,64.859375 v 1.121094 c 0,2.05535 1.23327,3.823514 3,4.609375 v -2.033203 c -0.72702,-0.60362 -1,-1.533399 -1,-2.576172 V 64.859375 C 427,63.043437 428.10984,62 429.92578,62 h 4.14649 C 435.8882,62 437,63.043437 437,64.859375 v 1.121094 c 0,1.815937 -1.1118,3.02486 -2.92773,3.019531 H 432 431.33203 431 c 0,-0.552285 -0.44772,-1 -1,-1 -0.55228,0 -1,0.447715 -1,1 v 0.410156 2.095703 3.552735 C 429,75.494524 428.67573,76 428,76 c -0.67573,0 -1,-0.326806 -1,-0.914062 V 72.871094 71.904297 C 427,71.389947 426.50654,71 425.99219,71 425.47798,71 425,71.389947 425,71.904297 v 3.291015 C 425,76.738226 426.45709,78 428,78 c 1.54291,0 3,-1.162098 3,-2.804688 V 73.314453 72.900391 72.041016 71.667969 71 h 2 v 4.195312 C 433,76.738225 434.45709,78 436,78 c 1.54291,0 3.03882,-1.262263 3,-2.804688 V 72.871094 71.904297 C 439,71.389947 438.51435,71 438,71 c -0.51421,0 -1,0.389947 -1,0.904297 v 3.181641 C 437,75.673194 436.50154,76 436,76 c -0.50154,0 -1.02776,-0.406752 -1,-0.841797 v -2.839844 -1.357421 -0.0625 c 2.24153,-0.513661 4,-2.522769 4,-4.917969 V 64.859375 C 439,62.076619 436.85489,59.999999 434.07227,60 Z M 423,67 c -0.55004,0 -1,0.456709 -1,1.005859 v 3.511719 c 0,1.297536 0.83788,2.408785 2,2.822266 v -2.96875 -2.333985 -1.03125 C 424,67.456709 423.54989,67 423,67 Z m 18,0 c -0.55004,0 -1,0.456709 -1,1.005859 v 6.333985 c 1.16212,-0.413481 2,-1.52473 2,-2.822266 v -2.480469 -1.03125 C 442,67.456709 441.54989,67 441,67 Z"
         id="path2-6" />
      <path
         style="fill:#ffffff"
         d="M 429.92578,59 C 427.14316,59.000001 425,61.076619 425,63.859375 v 1.121094 c 0,2.05535 1.23327,3.823514 3,4.609375 v -2.033203 c -0.72702,-0.60362 -1,-1.533399 -1,-2.576172 V 63.859375 C 427,62.043437 428.10984,61 429.92578,61 h 4.14649 C 435.8882,61 437,62.043437 437,63.859375 v 1.121094 c 0,1.815937 -1.1118,3.02486 -2.92773,3.019531 H 432 431.33203 431 c 0,-0.552285 -0.44772,-1 -1,-1 -0.55228,0 -1,0.447715 -1,1 v 0.410156 2.095703 3.552735 C 429,74.494524 428.67573,75 428,75 c -0.67573,0 -1,-0.326806 -1,-0.914062 V 71.871094 70.904297 C 427,70.389947 426.50654,70 425.99219,70 425.47798,70 425,70.389947 425,70.904297 v 3.291015 C 425,75.738226 426.45709,77 428,77 c 1.54291,0 3,-1.162098 3,-2.804688 V 72.314453 71.900391 71.041016 70.667969 70 h 2 v 4.195312 C 433,75.738225 434.45709,77 436,77 c 1.54291,0 3.03882,-1.262263 3,-2.804688 V 71.871094 70.904297 C 439,70.389947 438.51435,70 438,70 c -0.51421,0 -1,0.389947 -1,0.904297 v 3.181641 C 437,74.673194 436.50154,75 436,75 c -0.50154,0 -1.02776,-0.406752 -1,-0.841797 v -2.839844 -1.357421 -0.0625 c 2.24153,-0.513661 4,-2.522769 4,-4.917969 V 63.859375 C 439,61.076619 436.85489,58.999999 434.07227,59 Z M 423,66 c -0.55004,0 -1,0.456709 -1,1.005859 v 3.511719 c 0,1.297536 0.83788,2.408785 2,2.822266 v -2.96875 -2.333985 -1.03125 C 424,66.456709 423.54989,66 423,66 Z m 18,0 c -0.55004,0 -1,0.456709 -1,1.005859 v 6.333985 c 1.16212,-0.413481 2,-1.52473 2,-2.822266 v -2.480469 -1.03125 C 442,66.456709 441.54989,66 441,66 Z"
         id="path3-2" />
    </g>
    <g
       id="g4"
       transform="translate(0,0.5)">
      <path
         style="opacity:0.2;stroke-width:1.5;fill:#000000"
         d="m 308.88867,231.5 c -4.17393,0 -7.38867,3.11493 -7.38867,7.28906 v 1.68165 c 0,3.08302 1.84991,5.73526 4.5,6.91405 v -3.0498 c -1.09053,-0.90543 -1.5,-2.3001 -1.5,-3.86425 v -1.68165 c 0,-2.7239 1.66476,-4.28906 4.38867,-4.28906 h 6.21973 c 2.7239,0 4.3916,1.56516 4.3916,4.28906 v 1.68165 c 0,2.72391 -1.6677,4.53729 -4.3916,4.52929 H 312 310.99804 310.5 c 0,-0.82843 -0.67158,-1.5 -1.5,-1.5 -0.82842,0 -1.5,0.67157 -1.5,1.5 v 0.61524 3.14355 5.3291 c 0,0.65389 -0.48641,1.41211 -1.5,1.41211 -1.0136,0 -1.5,-0.49021 -1.5,-1.37109 v -3.32228 -1.45018 C 304.5,248.58492 303.75981,248 302.98829,248 302.21697,248 301.5,248.58492 301.5,249.35645 v 4.93651 c 0,2.31438 2.18563,4.20704 4.5,4.20704 2.31436,0 4.5,-1.74315 4.5,-4.20704 v -2.82129 -0.62109 -1.28905 -0.55958 V 248 h 3 v 6.29296 c 0,2.31437 2.18563,4.20704 4.5,4.20704 2.31436,0 4.55823,-1.89339 4.5,-4.20704 v -3.48632 -1.45019 C 322.5,248.58492 321.77152,248 321,248 c -0.77131,0 -1.5,0.58492 -1.5,1.35645 v 4.77246 c 0,0.88088 -0.74769,1.37109 -1.5,1.37109 -0.75231,0 -1.54164,-0.61012 -1.5,-1.2627 v -4.25976 -2.03613 -0.0937 c 3.3623,-0.77049 6,-3.78416 6,-7.37696 v -1.68165 c 0,-4.17417 -3.21767,-7.2891 -7.3916,-7.2891 z M 298.5,242 c -0.82506,0 -1.5,0.68506 -1.5,1.50879 v 5.26758 c 0,1.94629 1.25682,3.61317 3,4.23339 v -4.45312 -3.50097 -1.54688 C 300,242.68506 299.32483,242 298.5,242 Z m 27,0 c -0.82506,0 -1.5,0.68506 -1.5,1.50879 v 9.50097 c 1.74318,-0.62022 3,-2.2871 3,-4.23339 v -3.7207 -1.54688 C 327,242.68506 326.32483,242 325.5,242 Z"
         id="path2-2" />
      <path
         style="fill:#ffffff;stroke-width:1.5"
         d="m 308.88867,230.5 c -4.17393,0 -7.38867,3.11493 -7.38867,7.28906 v 1.68165 c 0,3.08302 1.84991,5.73526 4.5,6.91405 v -3.0498 c -1.09053,-0.90543 -1.5,-2.3001 -1.5,-3.86425 v -1.68165 c 0,-2.7239 1.66476,-4.28906 4.38867,-4.28906 h 6.21973 c 2.7239,0 4.3916,1.56516 4.3916,4.28906 v 1.68165 c 0,2.72391 -1.6677,4.53729 -4.3916,4.52929 H 312 310.99804 310.5 c 0,-0.82843 -0.67158,-1.5 -1.5,-1.5 -0.82842,0 -1.5,0.67157 -1.5,1.5 v 0.61524 3.14355 5.3291 c 0,0.65389 -0.48641,1.41211 -1.5,1.41211 -1.0136,0 -1.5,-0.49021 -1.5,-1.37109 v -3.32228 -1.45018 C 304.5,247.58492 303.75981,247 302.98829,247 302.21697,247 301.5,247.58492 301.5,248.35645 v 4.93651 c 0,2.31438 2.18563,4.20704 4.5,4.20704 2.31436,0 4.5,-1.74315 4.5,-4.20704 v -2.82129 -0.62109 -1.28905 -0.55958 V 247 h 3 v 6.29296 c 0,2.31437 2.18563,4.20704 4.5,4.20704 2.31436,0 4.55823,-1.89339 4.5,-4.20704 v -3.48632 -1.45019 C 322.5,247.58492 321.77152,247 321,247 c -0.77131,0 -1.5,0.58492 -1.5,1.35645 v 4.77246 c 0,0.88088 -0.74769,1.37109 -1.5,1.37109 -0.75231,0 -1.54164,-0.61012 -1.5,-1.2627 v -4.25976 -2.03613 -0.0937 c 3.3623,-0.77049 6,-3.78416 6,-7.37696 v -1.68165 c 0,-4.17412 -3.21767,-7.28905 -7.3916,-7.28905 z M 298.5,241 c -0.82506,0 -1.5,0.68506 -1.5,1.50879 v 5.26758 c 0,1.94629 1.25682,3.61317 3,4.23339 v -4.45312 -3.50097 -1.54688 C 300,241.68506 299.32483,241 298.5,241 Z m 27,0 c -0.82506,0 -1.5,0.68506 -1.5,1.50879 v 9.50097 c 1.74318,-0.62022 3,-2.2871 3,-4.23339 v -3.7207 -1.54688 C 327,241.68506 326.32483,241 325.5,241 Z"
         id="path3-7" />
    </g>
    <g
       id="g5">
      <path
         style="opacity:0.2;fill:#000000"
         d="M 315.85156,155 C 310.28632,155 306,159.15324 306,164.71875 v 2.24219 c 0,4.1107 2.46654,7.64703 6,9.21875 v -4.06641 c -1.45404,-1.20724 -2,-3.0668 -2,-5.15234 v -2.24219 C 310,161.08687 312.21968,159 315.85156,159 h 8.29297 c 3.63188,0 5.85547,2.08687 5.85547,5.71875 v 2.24219 c 0,3.63187 -2.22361,6.04972 -5.85547,6.03906 H 320 318.66406 318 c 0,-1.10457 -0.89543,-2 -2,-2 -1.10457,0 -2,0.89543 -2,2 v 0.82031 4.19141 7.10547 c 0,0.87186 -0.64854,1.88281 -2,1.88281 -1.35146,0 -2,-0.65361 -2,-1.82812 v -4.42969 -1.9336 C 310,177.77989 309.01308,177 307.98437,177 306.95595,177 306,177.77989 306,178.80859 v 6.58203 c 0,3.08583 2.91418,5.60938 6,5.60938 3.08583,0 6,-2.3242 6,-5.60938 v -3.76171 -0.82813 -1.71875 -0.74609 V 177 h 4 v 8.39062 c 0,3.08583 2.91417,5.60938 6,5.60938 3.08582,0 6.07763,-2.52453 6,-5.60938 v -4.64843 -1.9336 C 334,177.77989 333.0287,177 332,177 c -1.02842,0 -2,0.77989 -2,1.80859 v 6.36329 c 0,1.17451 -0.99691,1.82812 -2,1.82812 -1.00309,0 -2.05553,-0.8135 -2,-1.68359 v -5.67969 -2.71484 -0.125 c 4.48306,-1.02733 8,-5.04554 8,-9.83594 v -2.24219 C 334,159.15324 329.70977,155 324.14453,155 Z M 302,169 c -1.10007,0 -2,0.91342 -2,2.01172 v 7.02344 c 0,2.59507 1.67575,4.81757 4,5.64453 v -5.9375 -4.66797 -2.0625 C 304,169.91342 303.09978,169 302,169 Z m 36,0 c -1.10007,0 -2,0.91342 -2,2.01172 v 12.66797 c 2.32424,-0.82696 4,-3.04946 4,-5.64453 v -4.96094 -2.0625 C 340,169.91342 339.09978,169 338,169 Z"
         id="path2-3" />
      <path
         style="fill:#ffffff"
         d="M 315.85156,154 C 310.28632,154 306,158.15324 306,163.71875 v 2.24219 c 0,4.1107 2.46654,7.64703 6,9.21875 v -4.06641 c -1.45404,-1.20724 -2,-3.0668 -2,-5.15234 v -2.24219 C 310,160.08687 312.21968,158 315.85156,158 h 8.29297 c 3.63188,0 5.85547,2.08687 5.85547,5.71875 v 2.24219 c 0,3.63187 -2.22361,6.04972 -5.85547,6.03906 H 320 318.66406 318 c 0,-1.10457 -0.89543,-2 -2,-2 -1.10457,0 -2,0.89543 -2,2 v 0.82031 4.19141 7.10547 c 0,0.87186 -0.64854,1.88281 -2,1.88281 -1.35146,0 -2,-0.65361 -2,-1.82812 v -4.42969 -1.9336 C 310,176.77989 309.01308,176 307.98437,176 306.95595,176 306,176.77989 306,177.80859 v 6.58203 c 0,3.08583 2.91418,5.60938 6,5.60938 3.08583,0 6,-2.3242 6,-5.60938 v -3.76171 -0.82813 -1.71875 -0.74609 V 176 h 4 v 8.39062 c 0,3.08583 2.91417,5.60938 6,5.60938 3.08582,0 6.07763,-2.52453 6,-5.60938 v -4.64843 -1.9336 C 334,176.77989 333.0287,176 332,176 c -1.02842,0 -2,0.77989 -2,1.80859 v 6.36329 c 0,1.17451 -0.99691,1.82812 -2,1.82812 -1.00309,0 -2.05553,-0.8135 -2,-1.68359 v -5.67969 -2.71484 -0.125 c 4.48306,-1.02733 8,-5.04554 8,-9.83594 v -2.24219 C 334,158.15324 329.70977,154 324.14453,154 Z M 302,168 c -1.10007,0 -2,0.91342 -2,2.01172 v 7.02344 c 0,2.59507 1.67575,4.81757 4,5.64453 v -5.9375 -4.66797 -2.0625 C 304,168.91342 303.09978,168 302,168 Z m 36,0 c -1.10007,0 -2,0.91342 -2,2.01172 v 12.66797 c 2.32424,-0.82696 4,-3.04946 4,-5.64453 v -4.96094 -2.0625 C 340,168.91342 339.09978,168 338,168 Z"
         id="path3-6" />
    </g>
    <g
       id="g6">
      <path
         style="opacity:0.2;stroke-width:1.5;fill:#000000"
         d="M 329.77734,50 C 321.42948,50.000003 315,56.229857 315,64.578125 v 3.363282 c 0,6.16605 3.69981,11.470542 9,13.828125 v -6.099609 c -2.18106,-1.81086 -3,-4.600197 -3,-7.728516 V 64.578125 C 321,59.130311 324.32952,56 329.77734,56 H 342.2168 C 347.66462,56 351,59.130311 351,64.578125 v 3.363282 c 0,5.447811 -3.33542,9.07458 -8.78321,9.058593 H 336 333.99609 333 c 0,-1.656855 -1.34314,-3 -3,-3 -1.65686,0 -3,1.343145 -3,3 v 1.230468 6.287109 10.658205 C 327,96.483572 326.02719,98 324,98 c -2.02719,0 -3,-0.980418 -3,-2.742186 V 88.613282 85.712891 C 321,84.169841 319.51962,83 317.97656,83 316.43392,83 315,84.169841 315,85.712891 v 9.873045 C 315,100.21468 319.37127,104 324,104 c 4.62874,0 9,-3.48629 9,-8.414064 V 89.943359 88.701173 86.123048 85.003907 83 h 6 V 95.585936 C 339,100.21468 343.37126,104 348,104 c 4.62873,0 9.11644,-3.78679 9,-8.414064 V 88.613282 85.712891 C 357,84.169841 355.54305,83 354,83 c -1.54263,0 -3,1.169841 -3,2.712891 v 9.544923 C 351,97.019582 349.50463,98 348,98 c -1.50464,0 -3.08329,-1.220256 -3,-2.525391 v -8.519532 -4.072263 -0.1875 c 6.72459,-1.540983 12,-7.568307 12,-14.753907 V 64.578125 C 357,56.229857 350.56466,49.999997 342.21679,50 Z M 309,71 c -1.65011,0 -3,1.370127 -3,3.017577 v 10.535157 c 0,3.892608 2.51362,7.226355 6,8.466798 v -8.90625 -7.001955 -3.09375 C 312,72.370127 310.64967,71 309,71 Z m 54,0 c -1.65011,0 -3,1.370127 -3,3.017577 v 19.001955 c 3.48636,-1.240443 6,-4.57419 6,-8.466798 v -7.441407 -3.09375 C 366,72.370127 364.64967,71 363,71 Z"
         id="path2-26" />
      <path
         style="fill:#ffffff;stroke-width:1.5"
         d="M 329.77734,49 C 321.42948,49.000003 315,55.229857 315,63.578125 v 3.363282 c 0,6.16605 3.69981,11.470542 9,13.828125 v -6.099609 c -2.18106,-1.81086 -3,-4.600197 -3,-7.728516 V 63.578125 C 321,58.130311 324.32952,55 329.77734,55 H 342.2168 C 347.66462,55 351,58.130311 351,63.578125 v 3.363282 c 0,5.447811 -3.33542,9.07458 -8.78321,9.058593 H 336 333.99609 333 c 0,-1.656855 -1.34314,-3 -3,-3 -1.65686,0 -3,1.343145 -3,3 v 1.230468 6.287109 10.658205 C 327,95.483572 326.02719,97 324,97 c -2.02719,0 -3,-0.980418 -3,-2.742186 V 87.613282 84.712891 C 321,83.169841 319.51962,82 317.97656,82 316.43392,82 315,83.169841 315,84.712891 v 9.873045 C 315,99.214678 319.37127,103 324,103 c 4.62874,0 9,-3.486294 9,-8.414064 V 88.943359 87.701173 85.123048 84.003907 82 h 6 V 94.585936 C 339,99.214675 343.37126,103 348,103 c 4.62873,0 9.11644,-3.786789 9,-8.414064 V 87.613282 84.712891 C 357,83.169841 355.54305,82 354,82 c -1.54263,0 -3,1.169841 -3,2.712891 v 9.544923 C 351,96.019582 349.50463,97 348,97 c -1.50464,0 -3.08329,-1.220256 -3,-2.525391 v -8.519532 -4.072263 -0.1875 c 6.72459,-1.540983 12,-7.568307 12,-14.753907 V 63.578125 C 357,55.229857 350.56466,48.999997 342.21679,49 Z M 309,70 c -1.65011,0 -3,1.370127 -3,3.017577 v 10.535157 c 0,3.892608 2.51362,7.226355 6,8.466798 v -8.90625 -7.001955 -3.09375 C 312,71.370127 310.64967,70 309,70 Z m 54,0 c -1.65011,0 -3,1.370127 -3,3.017577 v 19.001955 c 3.48636,-1.240443 6,-4.57419 6,-8.466798 v -7.441407 -3.09375 C 366,71.370127 364.64967,70 363,70 Z"
         id="path3-1" />
    </g>
    <g
       id="g7">
      <path
         style="opacity:0.2;stroke-width:4;fill:#000000"
         d="m 127.40624,86 c -22.26096,1e-5 -39.406243,16.61295 -39.406243,38.875 v 8.96876 c 0,16.4428 9.86616,30.58812 24.000003,36.875 v -16.26564 c -5.81616,-4.82896 -8,-12.2672 -8,-20.60936 V 124.875 C 104,110.3475 112.87872,102 127.40624,102 h 33.17188 C 175.10564,102 184,110.3475 184,124.875 v 8.96876 C 184,148.37124 175.10556,158.04264 160.57812,158 H 144 138.65624 136 c 0,-4.41828 -3.58172,-8 -8,-8 -4.41828,0 -8,3.58172 -8,8 v 3.28124 16.76564 28.42188 C 120,209.9562 117.40584,214 112,214 c -5.40584,0 -8,-2.61444 -8,-7.31248 v -17.71876 -7.7344 C 104,177.11956 100.05232,174 95.937477,174 c -4.11368,0 -7.93748,3.11956 -7.93748,7.23436 v 26.32812 C 87.999997,219.9058 99.656717,230 112,230 c 12.34332,0 24,-9.2968 24,-22.43752 v -15.04684 -3.31252 -6.875 -2.98436 V 174 h 16 v 33.56248 C 152,219.9058 163.65668,230 176,230 c 12.34328,0 24.31052,-10.09812 24,-22.43752 v -18.59372 -7.7344 C 200,177.11956 196.1148,174 192,174 c -4.11368,0 -8,3.11956 -8,7.23436 v 25.45316 c 0,4.69804 -3.98764,7.31248 -8,7.31248 -4.01236,0 -8.22212,-3.254 -8,-6.73436 v -22.71876 -10.85936 -0.5 c 17.93224,-4.10932 32,-20.18216 32,-39.34376 V 124.875 C 200,102.61295 182.83908,85.99999 160.57812,86 Z m -55.406243,56 c -4.40028,0 -8,3.65368 -8,8.04688 v 28.09376 c 0,10.38028 6.703,19.27028 16,22.57812 v -23.75 -18.67188 -8.25 c 0,-4.3932 -3.60088,-8.04688 -8,-8.04688 z M 216,142 c -4.40028,0 -8,3.65368 -8,8.04688 v 50.67188 c 9.29696,-3.30784 16,-12.19784 16,-22.57812 v -19.84376 -8.25 C 224,145.65368 220.39912,142 216,142 Z"
         id="path2-9" />
      <path
         style="fill:#ffffff;stroke-width:4"
         d="m 127.40624,84 c -22.26096,1e-5 -39.406243,16.61295 -39.406243,38.875 v 8.96875 c 0,16.44281 9.86616,30.58813 24.000003,36.87501 v -16.26564 c -5.81616,-4.82896 -8,-12.2672 -8,-20.60937 V 122.875 C 104,108.3475 112.87872,100 127.40624,100 h 33.17188 C 175.10564,100 184,108.3475 184,122.875 v 8.96875 C 184,146.37124 175.10556,156.04264 160.57812,156 H 144 138.65624 136 c 0,-4.41828 -3.58172,-8 -8,-8 -4.41828,0 -8,3.58172 -8,8 v 3.28124 16.76564 28.42188 C 120,207.9562 117.40584,212 112,212 c -5.40584,0 -8,-2.61444 -8,-7.31248 v -17.71876 -7.7344 C 104,175.11956 100.05232,172 95.937477,172 c -4.11368,0 -7.93748,3.11956 -7.93748,7.23436 v 26.32812 C 87.999997,217.9058 99.656717,228 112,228 c 12.34332,0 24,-9.2968 24,-22.43752 v -15.04684 -3.31252 -6.875 -2.98436 V 172 h 16 v 33.56248 C 152,217.9058 163.65668,228 176,228 c 12.34328,0 24.31052,-10.09812 24,-22.43752 v -18.59372 -7.7344 C 200,175.11956 196.1148,172 192,172 c -4.11368,0 -8,3.11956 -8,7.23436 v 25.45316 c 0,4.69804 -3.98764,7.31248 -8,7.31248 -4.01236,0 -8.22212,-3.254 -8,-6.73436 v -22.71876 -10.85936 -0.5 c 17.93224,-4.10932 32,-20.18216 32,-39.34377 V 122.875 C 200,100.61295 182.83908,83.99999 160.57812,84 Z m -55.406243,56 c -4.40028,0 -8,3.65368 -8,8.04688 v 28.09376 c 0,10.38028 6.703,19.27028 16,22.57812 v -23.75 -18.67188 -8.25 c 0,-4.3932 -3.60088,-8.04688 -8,-8.04688 z M 216,140 c -4.40028,0 -8,3.65368 -8,8.04688 v 50.67188 c 9.29696,-3.30784 16,-12.19784 16,-22.57812 v -19.84376 -8.25 C 224,143.65368 220.39912,140 216,140 Z"
         id="path3-20" />
    </g>
  </g>
  <g
     id="Highlights">
    <path
       id="rect653"
       style="opacity:0.2;fill:#ffffff"
       d="M 80,44 C 53.408027,44 32,65.408027 32,92 v 2 C 32,67.408027 53.408027,46 80,46 h 128 c 26.59197,0 48,21.408027 48,48 V 92 C 256,65.408027 234.59197,44 208,44 Z"
       sodipodi:nodetypes="sscsscsss" />
    <path
       id="rect773"
       style="opacity:0.2;fill:#ffffff"
       d="m 312,34 c -9.97199,0 -18,8.02801 -18,18 v 1 c 0,-9.97199 8.02801,-18 18,-18 h 48 c 9.97199,0 18,8.02801 18,18 v -1 c 0,-9.97199 -8.02801,-18 -18,-18 z" />
    <path
       id="rect1135"
       style="opacity:0.2;fill:#ffffff;fill-opacity:1"
       d="m 304,144 c -6.64799,0 -12,5.35201 -12,12 v 1 c 0,-6.64799 5.35201,-12 12,-12 h 32 c 6.64799,0 12,5.35201 12,12 v -1 c 0,-6.64799 -5.35201,-12 -12,-12 z" />
    <path
       id="rect1265"
       style="opacity:0.2;fill:#ffffff;fill-opacity:1"
       d="m 300,223 c -4.986,0 -9,4.014 -9,9 v 1 c 0,-4.986 4.014,-9 9,-9 h 24 c 4.986,0 9,4.014 9,9 v -1 c 0,-4.986 -4.014,-9 -9,-9 z" />
    <path
       id="rect1368"
       style="opacity:0.2;fill:#ffffff;fill-opacity:1"
       d="m 424,54 c -3.324,0 -6,2.676003 -6,6 v 1 c 0,-3.323997 2.676,-6 6,-6 h 16 c 3.324,0 6,2.676003 6,6 v -1 c 0,-3.323997 -2.676,-6 -6,-6 z" />
    <path
       id="rect1402"
       style="opacity:0.2;fill:#ffffff;fill-opacity:1"
       d="m 420,140 c -2.216,0 -4,1.784 -4,4 v 1 c 0,-2.216 1.784,-4 4,-4 h 8 c 2.216,0 4,1.784 4,4 v -1 c 0,-2.216 -1.784,-4 -4,-4 z" />
    <path
       id="rect1436"
       style="opacity:0.2;fill:#ffffff;fill-opacity:1"
       d="m 422,102 c -2.216,0 -4,1.784 -4,4 v 1 c 0,-2.216 1.784,-4 4,-4 h 12 c 2.216,0 4,1.784 4,4 v -1 c 0,-2.216 -1.784,-4 -4,-4 z" />
  </g>
</svg>
