<?xml version="1.0" encoding="UTF-8" standalone="no"?>
<!-- Created with Inkscape (http://www.inkscape.org/) -->

<svg
   width="480"
   height="300"
   viewBox="0 0 480 300"
   version="1.1"
   id="svg5"
   inkscape:version="1.3.2 (091e20ef0f, 2023-11-25, custom)"
   sodipodi:docname="redshift.svg"
   xmlns:inkscape="http://www.inkscape.org/namespaces/inkscape"
   xmlns:sodipodi="http://sodipodi.sourceforge.net/DTD/sodipodi-0.dtd"
   xmlns="http://www.w3.org/2000/svg"
   xmlns:svg="http://www.w3.org/2000/svg">
  <sodipodi:namedview
     id="namedview7"
     pagecolor="#888888"
     bordercolor="#000000"
     borderopacity="0.25"
     inkscape:showpageshadow="true"
     inkscape:pageopacity="0"
     inkscape:pagecheckerboard="0"
     inkscape:deskcolor="#888888"
     inkscape:document-units="px"
     showgrid="false"
     showborder="false"
     inkscape:zoom="2.65"
     inkscape:cx="239.81132"
     inkscape:cy="150"
     inkscape:window-width="1920"
     inkscape:window-height="1008"
     inkscape:window-x="0"
     inkscape:window-y="0"
     inkscape:window-maximized="1"
     inkscape:current-layer="svg5" />
  <defs
     id="defs2" />
  <g
     id="Baseplate"
     style="display:none">
    <text
       y="19.774782"
       xml:space="preserve"
       x="15.006946"
       style="font-style:normal;font-variant:normal;font-weight:normal;font-stretch:normal;line-height:0%;font-family:'DejaVu Sans';-inkscape-font-specification:'DejaVu Sans';display:inline;fill:#000000;fill-opacity:1;stroke:none;enable-background:new"
       inkscape:label="context"
       id="context"><tspan
         style="font-style:normal;font-variant:normal;font-weight:normal;font-stretch:normal;font-size:18px;line-height:1.25;font-family:'DejaVu Sans';-inkscape-font-specification:'DejaVu Sans'"
         y="19.774782"
         x="15.006946"
         sodipodi:role="line"
         id="tspan3933">apps</tspan></text>
    <text
       y="19.774782"
       xml:space="preserve"
       x="122.48839"
       style="font-style:normal;font-variant:normal;font-weight:bold;font-stretch:normal;line-height:0%;font-family:'DejaVu Sans';-inkscape-font-specification:'DejaVu Sans Bold';text-align:start;writing-mode:lr-tb;text-anchor:start;display:inline;fill:#000000;fill-opacity:1;stroke:none;enable-background:new"
       inkscape:label="icon-name"
       id="icon-name"><tspan
         style="font-style:normal;font-variant:normal;font-weight:bold;font-stretch:normal;font-size:18px;line-height:1.25;font-family:'DejaVu Sans';-inkscape-font-specification:'DejaVu Sans Bold'"
         y="19.774782"
         x="122.48839"
         sodipodi:role="line"
         id="tspan3937">redshift</tspan></text>
    <rect
       style="fill:#ffffff"
       id="256x256"
       width="256"
       height="256"
       x="16"
       y="28" />
    <rect
       style="fill:#ffffff"
       id="96x96"
       width="96"
       height="96"
       x="288"
       y="28" />
    <rect
       style="fill:#ffffff"
       id="64x64"
       width="64"
       height="64"
       x="288"
       y="140" />
    <rect
       style="fill:#ffffff"
       id="48x48"
       width="48"
       height="48"
       x="288"
       y="220" />
    <rect
       style="fill:#ffffff"
       id="32x32"
       width="32"
       height="32"
       x="416"
       y="52" />
    <rect
       style="fill:#ffffff"
       id="24x24"
       width="24"
       height="24"
       x="416"
       y="100" />
    <rect
       style="fill:#ffffff"
       id="22x22"
       width="22"
       height="22"
       x="417"
       y="101" />
    <rect
       style="fill:#ffffff"
       id="16x16"
       width="16"
       height="16"
       x="416"
       y="140" />
  </g>
  <g
     id="Shadow">
    <rect
       style="opacity:0.2;fill:#000000"
       id="rect651"
       width="224"
       height="224"
       x="32"
       y="46"
       ry="48" />
    <rect
       style="opacity:0.2;fill:#000000"
       id="rect769"
       width="84"
       height="85"
       x="294"
       y="34"
       ry="18" />
    <rect
       style="opacity:0.2;fill:#000000;fill-opacity:1"
       id="rect1131"
       width="56"
       height="56"
       x="292"
       y="145"
       ry="12" />
    <rect
       style="opacity:0.2;fill:#000000;fill-opacity:1"
       id="rect1261"
       width="42"
       height="42"
       x="291"
       y="224"
       ry="9" />
    <rect
       style="opacity:0.2;fill:#000000;fill-opacity:1"
       id="rect1364"
       width="28"
       height="29"
       x="418"
       y="54"
       ry="6" />
    <rect
       style="opacity:0.2;fill:#000000;fill-opacity:1"
       id="rect1398"
       width="16"
       height="16"
       x="416"
       y="141"
       ry="4" />
    <rect
       style="opacity:0.2;fill:#000000;fill-opacity:1"
       id="rect1432"
       width="20"
       height="20"
       x="418"
       y="103"
       ry="4" />
  </g>
  <g
     id="Background">
    <rect
       style="fill:#612c2c;fill-opacity:1"
       id="rect597"
       width="224"
       height="224"
       x="32"
       y="44"
       ry="48" />
    <rect
       style="opacity:1;fill:#612c2c;fill-opacity:1"
       id="rect771"
       width="84"
       height="84"
       x="294"
       y="34"
       ry="18" />
    <rect
       style="opacity:1;fill:#612c2c;fill-opacity:1"
       id="rect1133"
       width="56"
       height="56"
       x="292"
       y="144"
       ry="12" />
    <rect
       style="opacity:1;fill:#612c2c;fill-opacity:1"
       id="rect1263"
       width="42"
       height="42"
       x="291"
       y="223"
       ry="9" />
    <rect
       style="opacity:1;fill:#612c2c;fill-opacity:1"
       id="rect1366"
       width="28"
       height="28"
       x="418"
       y="54"
       ry="6" />
    <rect
       style="opacity:1;fill:#612c2c;fill-opacity:1"
       id="rect1400"
       width="16"
       height="16"
       x="416"
       y="140"
       ry="4" />
    <rect
       style="opacity:1;fill:#612c2c;fill-opacity:1"
       id="rect1434"
       width="20"
       height="20"
       x="418"
       y="102"
       ry="4" />
  </g>
  <g
     id="g9">
    <g
       id="g1">
      <path
         id="path1"
         style="opacity:0.2;fill:#000000;stroke-width:0.591611"
         d="m 424,143.5 c -1.65679,0 -3.00006,1.16594 -3,3.05664 -6e-5,1.02597 0.89999,2.77669 1.5,3.94336 l 0.5,2.40039 c 0.058,0.32475 0.22303,0.59961 0.5,0.59961 h 1 c 0.27682,0 0.43843,-0.27561 0.5,-0.59961 L 425.5,150.5 c 0.60001,-1.16667 1.5,-2.91745 1.5,-3.94336 0,-1.89076 -1.34333,-3.05664 -3,-3.05664 z" />
      <path
         id="path2"
         style="fill:#727272;fill-opacity:1;stroke-width:0.75"
         d="m 422.5,150 0.5,2.40039 c 0.058,0.32475 0.22303,0.59961 0.5,0.59961 h 1 c 0.27682,0 0.43843,-0.27561 0.5,-0.59961 L 425.5,150 Z" />
      <path
         id="path3"
         style="fill:#e74c3c;fill-opacity:1;stroke-width:0.591611"
         d="m 424,143 c -1.65679,0 -3.00006,1.16594 -3,3.05664 -6e-5,1.02597 0.89999,2.77669 1.5,3.94336 h 3 c 0.60001,-1.16667 1.5,-2.91745 1.5,-3.94336 C 427,144.16588 425.65667,143 424,143 Z" />
      <path
         id="path4"
         style="opacity:0.2;fill:#ffffff;fill-opacity:1;stroke-width:0.591611"
         d="m 424,143 c -1.65679,0 -3.00006,1.16594 -3,3.05664 0,0.0682 0.004,0.14062 0.0117,0.21484 C 421.14,144.54965 422.42831,143.5 424,143.5 c 1.57157,0 2.85994,1.0496 2.98828,2.77148 0.008,-0.0742 0.0117,-0.14664 0.0117,-0.21484 C 427,144.16589 425.65667,143 424,143 Z" />
    </g>
    <g
       id="g2">
      <path
         id="path1-2"
         d="m 428.00003,105 c -2.347,0 -4.25,1.90694 -4.25,4.25879 -0.009,1.2755 1.11782,2.39001 1.63477,3.60351 0.2305,0.541 0.65332,1.6377 0.65332,1.6377 h 3.92383 c 0,0 0.42286,-1.0969 0.65332,-1.6377 0.517,-1.2135 1.61226,-2.34201 1.63476,-3.60351 0,-2.35185 -1.903,-4.25879 -4.25,-4.25879 z"
         style="fill:#e74c3c;fill-opacity:1;stroke-width:0.5" />
      <path
         id="path2-7"
         d="m 426.03812,114.5 0.6543,2.84961 c 0.0759,0.35211 0.29206,0.65039 0.65429,0.65039 h 1.30762 c 0.362,0 0.57282,-0.29939 0.65332,-0.65039 l 0.6543,-2.84961 z"
         style="fill:#727272;fill-opacity:1;stroke-width:0.5" />
      <path
         fill="#ffffff"
         opacity="0.2"
         d="m 428.00003,105 c -2.347,0 -4.25,1.9068 -4.25,4.259 -5e-4,0.0825 0.004,0.1645 0.0127,0.246 0.1317,-2.23325 1.9758,-4.005 4.2373,-4.005 2.228,0 4.0525,1.7191 4.2325,3.9055 0.004,-0.0495 0.0165,-0.097 0.0175,-0.1465 0,-2.3522 -1.903,-4.259 -4.25,-4.259 z"
         id="path4-0"
         style="stroke-width:0.5" />
      <path
         id="path5-9"
         d="m 432.23245,109.40528 c -0.1,1.20199 -1.12018,2.29102 -1.61718,3.45703 -0.23,0.5405 -0.65332,1.63769 -0.65332,1.63769 h -3.92383 c 0,0 -0.42332,-1.09719 -0.65332,-1.63769 -0.4838,-1.135 -1.49942,-2.18343 -1.62207,-3.35742 -0.005,0.0845 -0.0127,0.1679 -0.0127,0.2539 -0.009,1.275 1.11746,2.39002 1.63476,3.60352 0.23,0.5405 0.65332,1.63769 0.65332,1.63769 h 3.92383 c 0,0 0.42332,-1.09719 0.65332,-1.63769 0.5175,-1.2135 1.61227,-2.34252 1.63477,-3.60352 0,-0.1195 -0.008,-0.23701 -0.0176,-0.35351 z"
         style="opacity:0.2;fill:#000000;stroke-width:0.5" />
      <path
         id="path6-3"
         d="m 426.03812,115 0.6543,2.84961 c 0.076,0.352 0.29132,0.65039 0.65332,0.65039 h 1.30859 c 0.362,0 0.57282,-0.29939 0.65332,-0.65039 L 429.96195,115 h -0.11524 l -0.53906,2.34961 c -0.0805,0.351 -0.29132,0.65039 -0.65332,0.65039 h -1.30859 c -0.362,0 -0.57733,-0.29839 -0.65332,-0.65039 L 426.15335,115 Z"
         style="opacity:0.2;fill:#000000;stroke-width:0.5" />
    </g>
    <g
       id="g3">
      <path
         id="path1-5"
         d="m 432.00011,58 c -3.5899,0 -6.5,2.910204 -6.5,6.5 -0.0135,1.946498 1.709,3.648002 2.5,5.5 0.3525,0.825499 1,2.5 1,2.5 h 6 c 0,0 0.6475,-1.674501 1,-2.5 0.791,-1.851998 2.4655,-3.575002 2.5,-5.5 0,-3.589796 -2.91,-6.5 -6.5,-6.5 z"
         style="fill:#e74c3c;fill-opacity:1" />
      <path
         id="path1-5-28"
         style="fill:#ffffff;fill-opacity:1;opacity:0.2"
         d="M 432 58 C 428.4101 58 425.5 60.910208 425.5 64.5 C 425.49901 64.642305 425.51082 64.782034 425.52734 64.921875 C 425.82034 61.603373 428.60528 59 432 59 C 435.38222 59 438.1604 61.583887 438.4707 64.884766 C 438.48697 64.757542 438.49769 64.628937 438.5 64.5 C 438.5 60.910208 435.59 58 432 58 z " />
      <path
         id="path2-6-7"
         style="fill:#000000;fill-opacity:1;opacity:0.2"
         d="M 429 73.5 L 430 78 C 430.1161 78.541698 430.446 79 431 79 L 433 79 C 433.554 79 433.87982 78.540798 434 78 L 435 73.5 L 434.77734 73.5 L 434 77 C 433.87982 77.540798 433.554 78 433 78 L 431 78 C 430.446 78 430.1161 77.541698 430 77 L 429.22266 73.5 L 429 73.5 z " />
      <path
         id="path2-6"
         d="m 429.00011,72.5 1,4.5 c 0.1161,0.541699 0.446,1 1,1 h 2 c 0.554,0 0.87982,-0.459201 1,-1 l 1,-4.5 z"
         style="fill:#4f4f4f;fill-opacity:1" />
      <path
         id="path3-2"
         d="m 429.00011,72.5 0.22266,1 h 5.55468 l 0.22266,-1 z m 0.44531,2 0.22266,1 h 4.66601 l 0.22071,-1 z m 0.44336,2 0.11133,0.5 c 0.039,0.1815 0.10391,0.3515 0.19141,0.5 h 3.61523 c 0.0875,-0.1485 0.15286,-0.3185 0.19336,-0.5 l 0.11133,-0.5 z"
         style="opacity:0.2;fill:#ffffff" />
      <path
         id="path1-5-2"
         style="fill:#000000;fill-opacity:1;opacity:0.2"
         d="M 438.4707 64.884766 C 438.2441 66.656964 436.73802 68.272051 436 70 C 435.6475 70.825498 435 72.5 435 72.5 L 429 72.5 C 429 72.5 428.3525 70.825498 428 70 C 427.26656 68.282768 425.73599 66.693659 425.52734 64.919922 C 425.51038 65.111349 425.5 65.304165 425.5 65.5 C 425.4865 67.446496 427.209 69.148004 428 71 C 428.3525 71.825498 429 73.5 429 73.5 L 435 73.5 C 435 73.5 435.6475 71.825498 436 71 C 436.791 69.148004 438.4655 67.424996 438.5 65.5 C 438.5 65.292237 438.48977 65.087544 438.4707 64.884766 z " />
    </g>
    <g
       id="g4">
      <path
         id="path1-5-6"
         d="m 312.00018,229 c -5.38485,0 -9.75,4.3653 -9.75,9.75 -0.0202,2.91975 2.5635,5.472 3.75,8.25 0.52875,1.23825 1.5,3.75 1.5,3.75 h 9 c 0,0 0.97125,-2.51175 1.5,-3.75 1.1865,-2.778 3.69825,-5.3625 3.75,-8.25 0,-5.3847 -4.365,-9.75 -9.75,-9.75 z"
         style="fill:#e74c3c;fill-opacity:1;stroke-width:1.5" />
      <path
         id="path1-5-28-1"
         style="opacity:0.2;fill:#ffffff;fill-opacity:1;stroke-width:1.5"
         d="M 312 229 C 306.61516 229 302.25 233.36532 302.25 238.75 C 302.24935 238.88786 302.25785 239.02443 302.26953 239.16016 C 302.57466 234.05029 306.81334 230 312 230 C 317.17283 230 321.40309 234.02876 321.72852 239.11914 C 321.73989 238.99648 321.74783 238.87348 321.75 238.75 C 321.75 233.36532 317.38499 229 312 229 z " />
      <path
         id="path2-6-7-2"
         style="opacity:0.2;fill:#000000;fill-opacity:1;stroke-width:1.5"
         d="m 307.5,251.75 1.5,6.75 c 0.17415,0.81255 0.669,1.5 1.5,1.5 h 3 c 0.831,0 1.31973,-0.6888 1.5,-1.5 l 1.5,-6.75 h -0.33399 L 315,257 c -0.18027,0.8112 -0.669,1.5 -1.5,1.5 h -3 c -0.831,0 -1.32585,-0.68745 -1.5,-1.5 l -1.16601,-5.25 z" />
      <path
         id="path2-6-9"
         d="m 307.50018,250.75 1.5,6.75 c 0.17415,0.81255 0.669,1.5 1.5,1.5 h 3 c 0.831,0 1.31973,-0.6888 1.5,-1.5 l 1.5,-6.75 z"
         style="fill:#4f4f4f;fill-opacity:1;stroke-width:1.5" />
      <path
         id="path3-2-3"
         d="m 307.50018,250.75 0.33399,1.5 h 8.33202 l 0.33399,-1.5 z m 0.66797,3 0.33399,1.5 h 6.99901 l 0.33107,-1.5 z m 0.66504,3 0.16699,0.75 c 0.0585,0.27225 0.15587,0.52725 0.28712,0.75 h 5.42284 c 0.13125,-0.22275 0.22929,-0.47775 0.29004,-0.75 l 0.167,-0.75 z"
         style="opacity:0.2;fill:#ffffff;stroke-width:1.5" />
      <path
         id="path1-5-6-8"
         style="fill:#000000;fill-opacity:1;stroke-width:1.5;opacity:0.2"
         d="M 321.72656 239.0957 C 321.49283 241.84443 319.13877 244.33374 318 247 C 317.47125 248.23825 316.5 250.75 316.5 250.75 L 307.5 250.75 C 307.5 250.75 306.52875 248.23825 306 247 C 304.87368 244.36291 302.48938 241.92912 302.26758 239.19141 C 302.25713 239.37634 302.25 239.56245 302.25 239.75 C 302.2298 242.66975 304.8135 245.222 306 248 C 306.52875 249.23825 307.5 251.75 307.5 251.75 L 316.5 251.75 C 316.5 251.75 317.47125 249.23825 318 248 C 319.1865 245.222 321.69825 242.6375 321.75 239.75 C 321.75 239.52986 321.74093 239.31221 321.72656 239.0957 z " />
    </g>
    <g
       id="g5"
       transform="translate(0.99983,-2)">
      <path
         id="path1-1"
         d="m 319.00016,154 c -7.17999,0 -13,5.82031 -13,13 -0.027,3.893 3.418,7.296 5,11 0.705,1.651 2,5 2,5 h 12 c 0,0 1.295,-3.349 2,-5 1.582,-3.704 4.931,-7.15 5,-11 0,-7.17969 -5.82001,-13 -13,-13 z"
         style="fill:#e74c3c;fill-opacity:1" />
      <path
         id="path2-0"
         d="m 313.00016,183 2,9 c 0.2322,1.08341 0.892,2 2,2 h 4 c 1.108,0 1.75964,-0.9184 2,-2 l 2,-9 z"
         style="fill:#4f4f4f;fill-opacity:1" />
      <path
         id="path3-6"
         d="m 313.00016,183 0.44531,2 h 11.10938 l 0.44531,-2 z m 0.88867,4 0.44531,2 h 9.33204 l 0.44531,-2 z m 0.88867,4 0.22266,1 c 0.078,0.363 0.20781,0.703 0.38281,1 h 7.23047 c 0.175,-0.297 0.30572,-0.637 0.38672,-1 l 0.22266,-1 z"
         style="opacity:0.2;fill:#ffffff" />
      <path
         id="path4-3"
         d="m 319.00016,154 c -7.17999,0 -13,5.82031 -13,13 -10e-4,0.171 0.0144,0.33881 0.0254,0.50781 0.261,-6.94999 5.96062,-12.50781 12.97461,-12.50781 6.98199,0 12.6617,5.50807 12.9707,12.41406 0.011,-0.138 0.0273,-0.27506 0.0293,-0.41406 0,-7.17969 -5.82001,-13 -13,-13 z"
         style="opacity:0.2;fill:#ffffff" />
      <path
         id="path5"
         d="m 331.97086,167.41406 c -0.289,3.684 -3.4457,7.01594 -4.9707,10.58594 -0.705,1.651 -2,5 -2,5 h -12 c 0,0 -1.295,-3.349 -2,-5 -1.512,-3.542 -4.71861,-6.80919 -4.97461,-10.49219 -0.006,0.164 -0.0254,0.32619 -0.0254,0.49219 -0.027,3.893 3.418,7.296 5,11 0.705,1.651 2,5 2,5 h 12 c 0,0 1.295,-3.349 2,-5 1.582,-3.704 4.931,-7.15 5,-11 0,-0.198 -0.0213,-0.38994 -0.0293,-0.58594 z"
         style="opacity:0.2;fill:#000000" />
      <path
         id="path6"
         d="m 313.00016,184 2,9 c 0.232,1.083 0.892,2 2,2 h 4 c 1.108,0 1.76,-0.918 2,-2 l 2,-9 h -0.22266 l -1.77734,8 c -0.24,1.082 -0.892,2 -2,2 h -4 c -1.108,0 -1.768,-0.917 -2,-2 l -1.77734,-8 z"
         style="opacity:0.2;fill:#000000" />
    </g>
    <g
       id="g6"
       transform="translate(0,1)">
      <path
         id="path1-0"
         d="m 336.00004,45 c -10.76992,0 -19.49988,8.730404 -19.49988,19.499874 -0.0405,5.839456 5.12697,10.943936 7.49996,16.499894 1.05749,2.476481 2.99998,7.499951 2.99998,7.499951 h 17.99988 c 0,0 1.94249,-5.02347 2.99998,-7.499951 2.37299,-5.555958 7.39645,-10.724937 7.49995,-16.499894 C 355.49991,53.730404 346.76995,45 336.00004,45 Z"
         style="fill:#e74c3c;fill-opacity:1;stroke-width:1.49999" />
      <path
         id="path2-61"
         d="m 327.0001,88.499719 2.99998,13.499911 c 0.34829,1.62511 1.33799,2.99998 2.99998,2.99998 h 5.99996 c 1.66199,0 2.63944,-1.37759 2.99998,-2.99998 l 2.99998,-13.499911 z"
         style="fill:#4f4f4f;fill-opacity:1;stroke-width:1.49999" />
      <path
         id="path3-5"
         d="m 327.0001,88.499719 0.66796,2.999981 h 16.66396 l 0.66796,-2.999981 z m 1.33299,5.999961 0.66796,2.99998 h 13.99797 l 0.66796,-2.99998 z m 1.333,5.99996 0.33399,1.49999 c 0.117,0.5445 0.31171,1.0545 0.57421,1.49999 h 10.84563 c 0.2625,-0.44549 0.45858,-0.95549 0.58008,-1.49999 l 0.33399,-1.49999 z"
         style="opacity:0.2;fill:#ffffff;stroke-width:1.49999" />
      <path
         id="path1-0-5"
         style="opacity:0.2;fill:#000000;fill-opacity:1;stroke-width:1.49999"
         d="M 355.48047,64.763672 C 355.2319,70.432121 350.33664,75.529144 348,81 c -1.05749,2.476478 -3,7.5 -3,7.5 h -18 c 0,0 -1.94251,-5.023522 -3,-7.5 -2.29883,-5.382331 -7.21976,-10.341489 -7.48828,-15.955078 -0.003,0.151723 -0.0117,0.302518 -0.0117,0.455078 -0.0405,5.83945 5.12701,10.944046 7.5,16.5 1.05749,2.476478 3,7.5 3,7.5 h 18 c 0,0 1.94251,-5.023522 3,-7.5 2.37299,-5.555954 7.3965,-10.725049 7.5,-16.5 0,-0.246851 -0.0104,-0.4917 -0.0195,-0.736328 z" />
      <path
         id="path4-5"
         style="opacity:0.2;fill:#ffffff;stroke-width:1.49999"
         d="m 336,45 c -10.76991,0 -19.5,8.730541 -19.5,19.5 -0.001,0.14145 0.005,0.282233 0.0137,0.421875 C 316.82009,54.420411 325.4239,46 336,46 c 10.52173,0 19.09088,8.333744 19.48047,18.759766 0.007,-0.08652 0.0183,-0.172546 0.0195,-0.259766 C 355.49995,53.730541 346.7699,45 336,45 Z" />
      <path
         id="path6-7"
         style="opacity:0.2;fill:#000000;stroke-width:1.49999"
         d="m 327,89.5 3,13.5 c 0.34799,1.62449 1.33801,3 3,3 h 6 c 1.66199,0 2.64,-1.37701 3,-3 l 3,-13.5 h -0.22266 L 342,102 c -0.36054,1.62239 -1.33801,3 -3,3 h -6 c -1.66199,0 -2.65171,-1.37489 -3,-3 l -2.77734,-12.5 z" />
    </g>
    <g
       id="g8">
      <path
         id="path6-78"
         d="m 120.00048,193.9993 7.99995,35.99974 c 0.92799,4.33197 3.56797,7.99995 7.99994,7.99995 h 15.99989 c 4.43196,0 7.03995,-3.67198 7.99994,-7.99995 l 7.99994,-35.99974 h -0.89063 l -7.10931,31.99977 c -0.95999,4.32797 -3.56798,7.99994 -7.99994,7.99994 h -15.99989 c -4.43197,0 -7.07195,-3.66797 -7.99994,-7.99994 l -7.10931,-31.99977 z"
         style="opacity:0.2;fill:#000000;stroke-width:3.99997" />
      <path
         id="path2-0-4"
         d="m 120.00048,191.99919 7.99995,35.99975 c 0.92879,4.33361 3.56797,7.99994 7.99994,7.99994 h 15.99989 c 4.43196,0 7.03851,-3.67357 7.99994,-7.99994 l 7.99994,-35.99975 z"
         style="fill:#4f4f4f;fill-opacity:1;stroke-width:3.99997" />
      <path
         id="path3-6-4"
         d="m 120.00048,191.99919 1.78123,7.99994 h 44.43721 l 1.78122,-7.99994 z m 3.55466,15.99989 1.78122,7.99994 h 37.3279 l 1.78123,-7.99994 z m 3.55465,15.99988 0.89064,3.99998 c 0.31199,1.45199 0.83123,2.81198 1.53122,3.99997 h 28.92168 c 0.7,-1.18799 1.22287,-2.54798 1.54687,-3.99997 l 0.89063,-3.99998 z"
         style="opacity:0.2;fill:#ffffff;stroke-width:3.99997" />
      <path
         id="path5-0"
         d="m 195.88275,127.65601 c -1.156,14.73589 -13.78271,28.06356 -19.88266,42.34346 -2.81998,6.60395 -7.99995,19.99986 -7.99995,19.99986 h -47.99966 c 0,0 -5.17996,-13.39591 -7.99994,-19.99986 -6.04796,-14.1679 -18.874308,-27.23657 -19.898301,-41.96847 -0.024,0.656 -0.101599,1.30475 -0.101599,1.96875 -0.107999,15.57189 13.6719,29.18379 19.99986,43.99969 2.81998,6.60395 7.99994,19.99986 7.99994,19.99986 h 47.99966 c 0,0 5.17997,-13.39591 7.99995,-19.99986 6.32795,-14.8159 19.72386,-28.5998 19.99985,-43.99969 0,-0.79199 -0.0852,-1.55975 -0.11719,-2.34374 z"
         style="opacity:0.2;fill:#000000;stroke-width:3.99997" />
      <path
         id="path1-1-7"
         d="m 144.00031,76.000012 c -28.71975,0 -51.99963,23.281075 -51.99963,51.999628 -0.107999,15.57189 13.6719,29.1838 19.99986,43.99969 2.81998,6.60396 7.99994,19.99986 7.99994,19.99986 h 47.99966 c 0,0 5.17997,-13.3959 7.99995,-19.99986 6.32795,-14.81589 19.72386,-28.5998 19.99985,-43.99969 0,-28.718553 -23.27987,-51.999628 -51.99963,-51.999628 z"
         style="fill:#e74c3c;fill-opacity:1;stroke-width:3.99997" />
      <path
         id="path4-3-3"
         style="opacity:0.2;fill:#ffffff;stroke-width:3.99997"
         d="m 144.00003,76.000012 c -28.71975,0 -51.99999,23.281475 -51.99999,51.999988 -0.0013,0.2236 0.02,0.4426 0.032,0.66408 0.710795,-28.0992 23.69707,-50.664082 51.96875,-50.664082 28.22316,0 51.17896,22.487562 51.96483,50.519522 0.012,-0.1732 0.032,-0.3452 0.036,-0.51952 0,-28.718513 -23.28023,-51.999988 -51.99995,-51.999988 z" />
    </g>
  </g>
  <g
     id="Highlights">
    <path
       id="rect653"
       style="opacity:0.1;fill:#ffffff"
       d="M 80,44 C 53.408027,44 32,65.408027 32,92 v 2 C 32,67.408027 53.408027,46 80,46 h 128 c 26.59197,0 48,21.408027 48,48 V 92 C 256,65.408027 234.59197,44 208,44 Z"
       sodipodi:nodetypes="sscsscsss" />
    <path
       id="rect773"
       style="opacity:0.1;fill:#ffffff"
       d="m 312,34 c -9.97199,0 -18,8.02801 -18,18 v 1 c 0,-9.97199 8.02801,-18 18,-18 h 48 c 9.97199,0 18,8.02801 18,18 v -1 c 0,-9.97199 -8.02801,-18 -18,-18 z" />
    <path
       id="rect1135"
       style="opacity:0.1;fill:#ffffff;fill-opacity:1"
       d="m 304,144 c -6.64799,0 -12,5.35201 -12,12 v 1 c 0,-6.64799 5.35201,-12 12,-12 h 32 c 6.64799,0 12,5.35201 12,12 v -1 c 0,-6.64799 -5.35201,-12 -12,-12 z" />
    <path
       id="rect1265"
       style="opacity:0.1;fill:#ffffff;fill-opacity:1"
       d="m 300,223 c -4.986,0 -9,4.014 -9,9 v 1 c 0,-4.986 4.014,-9 9,-9 h 24 c 4.986,0 9,4.014 9,9 v -1 c 0,-4.986 -4.014,-9 -9,-9 z" />
    <path
       id="rect1368"
       style="opacity:0.1;fill:#ffffff;fill-opacity:1"
       d="m 424,54 c -3.324,0 -6,2.676003 -6,6 v 1 c 0,-3.323997 2.676,-6 6,-6 h 16 c 3.324,0 6,2.676003 6,6 v -1 c 0,-3.323997 -2.676,-6 -6,-6 z" />
    <path
       id="rect1402"
       style="opacity:0.1;fill:#ffffff;fill-opacity:1"
       d="m 420,140 c -2.216,0 -4,1.784 -4,4 v 1 c 0,-2.216 1.784,-4 4,-4 h 8 c 2.216,0 4,1.784 4,4 v -1 c 0,-2.216 -1.784,-4 -4,-4 z" />
    <path
       id="rect1436"
       style="opacity:0.1;fill:#ffffff;fill-opacity:1"
       d="m 422,102 c -2.216,0 -4,1.784 -4,4 v 1 c 0,-2.216 1.784,-4 4,-4 h 12 c 2.216,0 4,1.784 4,4 v -1 c 0,-2.216 -1.784,-4 -4,-4 z" />
  </g>
</svg>
