<?xml version="1.0" encoding="UTF-8" standalone="no"?>
<!-- Created with Inkscape (http://www.inkscape.org/) -->

<svg
   xmlns:dc="http://purl.org/dc/elements/1.1/"
   xmlns:cc="http://creativecommons.org/ns#"
   xmlns:rdf="http://www.w3.org/1999/02/22-rdf-syntax-ns#"
   xmlns:svg="http://www.w3.org/2000/svg"
   xmlns="http://www.w3.org/2000/svg"
   xmlns:sodipodi="http://sodipodi.sourceforge.net/DTD/sodipodi-0.dtd"
   xmlns:inkscape="http://www.inkscape.org/namespaces/inkscape"
   inkscape:export-ydpi="90.000000"
   inkscape:export-xdpi="90.000000"
   width="480"
   height="300"
   id="svg11300"
   sodipodi:version="0.32"
   inkscape:version="0.92.5 (2060ec1f9f, 2020-04-08)"
   sodipodi:docname="sheet (copy).svg"
   inkscape:output_extension="org.inkscape.output.svg.inkscape"
   version="1.0"
   style="display:inline;enable-background:new"
   inkscape:export-filename="/home/sam/moka-next-template.png">
  <sodipodi:namedview
     stroke="#ef2929"
     fill="#f57900"
     id="base"
     pagecolor="#ffffff"
     bordercolor="#000000"
     borderopacity="0.54509804"
     inkscape:pageopacity="0"
     inkscape:pageshadow="2"
     inkscape:zoom="16"
     inkscape:cx="416.03052"
     inkscape:cy="151.57933"
     inkscape:current-layer="layer2"
     showgrid="false"
     inkscape:grid-bbox="true"
     inkscape:document-units="px"
     inkscape:showpageshadow="false"
     inkscape:window-width="1366"
     inkscape:window-height="697"
     inkscape:window-x="0"
     inkscape:window-y="40"
     width="400px"
     height="300px"
     inkscape:snap-nodes="true"
     inkscape:snap-bbox="true"
     gridtolerance="10000"
     inkscape:object-nodes="true"
     inkscape:snap-grids="true"
     showguides="true"
     inkscape:guide-bbox="true"
     inkscape:window-maximized="1"
     inkscape:bbox-nodes="true"
     inkscape:bbox-paths="true"
     inkscape:snap-bbox-edge-midpoints="true"
     inkscape:snap-bbox-midpoints="true">
    <inkscape:grid
       spacingy="1"
       spacingx="1"
       id="grid5883"
       type="xygrid"
       enabled="true"
       visible="true"
       empspacing="4"
       snapvisiblegridlinesonly="true"
       dotted="false"
       color="#000000"
       opacity="0.1254902"
       empcolor="#203ef3"
       empopacity="0.36470588"
       originx="0"
       originy="0" />
    <inkscape:grid
       type="xygrid"
       id="grid11592"
       empspacing="8"
       visible="true"
       enabled="false"
       spacingx="0.5"
       spacingy="0.5"
       color="#ff0000"
       opacity="0.1254902"
       empcolor="#ff0000"
       empopacity="0.25098039"
       snapvisiblegridlinesonly="true"
       dotted="true"
       originx="0"
       originy="0" />
  </sodipodi:namedview>
  <defs
     id="defs3">
    <linearGradient
       id="linearGradient905">
      <stop
         style="stop-color:#ff7139;stop-opacity:1"
         offset="0"
         id="stop901" />
      <stop
         style="stop-color:#ff7139;stop-opacity:1"
         offset="1"
         id="stop903" />
    </linearGradient>
    <linearGradient
       id="linearGradient3984">
      <stop
         id="stop3986"
         offset="0"
         style="stop-color:#f57d33;stop-opacity:1" />
      <stop
         id="stop3988"
         offset="1"
         style="stop-color:#faa653;stop-opacity:1;" />
    </linearGradient>
  </defs>
  <metadata
     id="metadata4">
    <rdf:RDF>
      <cc:Work
         rdf:about="">
        <dc:format>image/svg+xml</dc:format>
        <dc:type
           rdf:resource="http://purl.org/dc/dcmitype/StillImage" />
        <dc:creator>
          <cc:Agent>
            <dc:title>Sam Hewitt</dc:title>
          </cc:Agent>
        </dc:creator>
        <dc:source />
        <cc:license
           rdf:resource="" />
        <dc:title />
        <dc:subject>
          <rdf:Bag />
        </dc:subject>
        <dc:date />
        <dc:rights>
          <cc:Agent>
            <dc:title />
          </cc:Agent>
        </dc:rights>
        <dc:publisher>
          <cc:Agent>
            <dc:title />
          </cc:Agent>
        </dc:publisher>
        <dc:identifier />
        <dc:relation />
        <dc:language />
        <dc:coverage />
        <dc:description />
        <dc:contributor>
          <cc:Agent>
            <dc:title />
          </cc:Agent>
        </dc:contributor>
      </cc:Work>
      <cc:Work
         rdf:about="">
        <dc:format>image/svg+xml</dc:format>
        <dc:type
           rdf:resource="http://purl.org/dc/dcmitype/StillImage" />
      </cc:Work>
    </rdf:RDF>
  </metadata>
  <g
     style="display:inline"
     inkscape:groupmode="layer"
     inkscape:label="Icon"
     id="layer1">
    <g
       style="display:none"
       inkscape:label="Baseplate"
       id="layer7"
       inkscape:groupmode="layer">
      <text
         y="19.745117"
         xml:space="preserve"
         x="15.006836"
         style="font-style:normal;font-variant:normal;font-weight:normal;font-stretch:normal;line-height:0%;font-family:'DejaVu Sans';-inkscape-font-specification:'DejaVu Sans';display:inline;fill:#000000;fill-opacity:1;stroke:none;enable-background:new"
         inkscape:label="context"
         id="context"><tspan
           style="font-style:normal;font-variant:normal;font-weight:normal;font-stretch:normal;font-size:18px;line-height:1.25;font-family:'DejaVu Sans';-inkscape-font-specification:'DejaVu Sans'"
           y="19.745117"
           x="15.006836"
           sodipodi:role="line"
           id="tspan3933">apps</tspan></text>
      <text
         y="19.745117"
         xml:space="preserve"
         x="122.48828"
         style="font-style:normal;font-variant:normal;font-weight:bold;font-stretch:normal;line-height:0%;font-family:'DejaVu Sans';-inkscape-font-specification:'DejaVu Sans Bold';text-align:start;writing-mode:lr-tb;text-anchor:start;display:inline;fill:#000000;fill-opacity:1;stroke:none;enable-background:new"
         inkscape:label="icon-name"
         id="icon-name"><tspan
           style="font-style:normal;font-variant:normal;font-weight:bold;font-stretch:normal;font-size:18px;line-height:1.25;font-family:'DejaVu Sans';-inkscape-font-specification:'DejaVu Sans Bold'"
           y="19.745117"
           x="122.48828"
           sodipodi:role="line"
           id="tspan3937">firefox</tspan></text>
      <rect
         style="fill:#eeeeec;fill-opacity:1;fill-rule:nonzero;stroke:none;stroke-width:2;marker:none;visibility:visible;display:inline;overflow:visible;enable-background:accumulate"
         id="rect16x16"
         width="16"
         height="16"
         x="416"
         y="140"
         inkscape:label="16x16" />
      <rect
         style="fill:#d4d4d4;fill-opacity:1;fill-rule:nonzero;stroke:none;stroke-width:2;marker:none;visibility:visible;display:inline;overflow:visible;enable-background:accumulate"
         id="rect24x24"
         width="24"
         height="24"
         x="416"
         y="100"
         inkscape:label="24x24" />
      <rect
         style="fill:#eeeeec;fill-opacity:1;fill-rule:nonzero;stroke:none;stroke-width:2;marker:none;visibility:visible;display:inline;overflow:visible;enable-background:accumulate"
         id="rect32x32"
         width="32"
         height="32"
         x="416"
         y="52"
         inkscape:label="32x32" />
      <rect
         inkscape:label="22x22"
         y="101"
         x="417"
         height="22"
         width="22"
         id="rect22x22"
         style="fill:#eeeeec;fill-opacity:1;fill-rule:nonzero;stroke:none;stroke-width:2;marker:none;visibility:visible;display:inline;overflow:visible;enable-background:accumulate" />
      <rect
         inkscape:label="48x48"
         y="220"
         x="288"
         height="48"
         width="48"
         id="rect48x48"
         style="fill:#eeeeec;fill-opacity:1;fill-rule:nonzero;stroke:none;stroke-width:2;marker:none;visibility:visible;display:inline;overflow:visible;enable-background:accumulate" />
      <rect
         style="fill:#eeeeec;fill-opacity:1;fill-rule:nonzero;stroke:none;stroke-width:2;marker:none;visibility:visible;display:inline;overflow:visible;enable-background:accumulate"
         id="rect256x256"
         width="256"
         height="256"
         x="16"
         y="28"
         inkscape:label="256x256" />
      <rect
         style="fill:#eeeeec;fill-opacity:1;fill-rule:nonzero;stroke:none;stroke-width:2;marker:none;visibility:visible;display:inline;overflow:visible;enable-background:accumulate"
         id="rect64x64"
         width="64"
         height="64"
         x="288"
         y="140"
         inkscape:label="64x64" />
      <rect
         style="fill:#eeeeec;fill-opacity:1;fill-rule:nonzero;stroke:none;stroke-width:2;marker:none;visibility:visible;display:inline;overflow:visible;enable-background:accumulate"
         id="rect96x96"
         width="96"
         height="96"
         x="288"
         y="28"
         inkscape:label="96x96" />
    </g>
    <g
       inkscape:groupmode="layer"
       id="layer4"
       inkscape:label="Shadow"
       style="display:inline"
       sodipodi:insensitive="true">
      <rect
         ry="50"
         y="47"
         x="34"
         height="220"
         width="220"
         id="rect4114"
         style="opacity:0.1;color:#bebebe;fill:#000000;fill-opacity:1;fill-rule:nonzero;stroke:none;stroke-width:0;marker:none;visibility:visible;display:inline;overflow:visible;enable-background:accumulate" />
      <rect
         style="opacity:0.1;color:#bebebe;fill:#000000;fill-opacity:1;fill-rule:nonzero;stroke:none;stroke-width:0;marker:none;visibility:visible;display:inline;overflow:visible;enable-background:accumulate"
         id="rect4120"
         width="30"
         height="30"
         x="417"
         y="54"
         ry="7" />
      <rect
         transform="scale(1,-1)"
         ry="9"
         y="-266"
         x="291"
         height="42"
         width="42"
         id="rect4122"
         style="opacity:0.1;color:#bebebe;fill:#000000;fill-opacity:1;fill-rule:nonzero;stroke:none;stroke-width:0;marker:none;visibility:visible;display:inline;overflow:visible;enable-background:accumulate" />
      <rect
         style="opacity:0.1;color:#bebebe;fill:#000000;fill-opacity:1;fill-rule:nonzero;stroke:none;stroke-width:0;marker:none;visibility:visible;display:inline;overflow:visible;enable-background:accumulate"
         id="rect4124"
         width="88"
         height="88"
         x="292"
         y="33"
         ry="18" />
      <rect
         ry="12.5"
         y="143"
         x="290"
         height="60"
         width="60"
         id="rect4126"
         style="opacity:0.1;color:#bebebe;fill:#000000;fill-opacity:1;fill-rule:nonzero;stroke:none;stroke-width:0;marker:none;visibility:visible;display:inline;overflow:visible;enable-background:accumulate" />
      <path
         id="path4268"
         d="m 422,101 c -2.77,0 -5,2.23 -5,5 l 0,12 c 0,2.77 2.23,5 5,5 l 12,0 c 2.77,0 5,-2.23 5,-5 l 0,-12 c 0,-2.77 -2.23,-5 -5,-5 z"
         style="opacity:0.1;color:#bebebe;fill:#000000;fill-opacity:1;fill-rule:nonzero;stroke:none;stroke-width:0;marker:none;visibility:visible;display:inline;overflow:visible;enable-background:accumulate"
         inkscape:connector-curvature="0"
         sodipodi:nodetypes="sssssssss" />
      <path
         id="path4270"
         d="m 419,140 c -1.662,0 -3,1.338 -3,3 l 0,10 c 0,1.662 1.338,3 3,3 l 10,0 c 1.662,0 3,-1.338 3,-3 l 0,-10 c 0,-1.662 -1.338,-3 -3,-3 z"
         style="opacity:0.1;color:#bebebe;fill:#000000;fill-opacity:1;fill-rule:nonzero;stroke:none;stroke-width:0;marker:none;visibility:visible;display:inline;overflow:visible;enable-background:accumulate"
         inkscape:connector-curvature="0"
         sodipodi:nodetypes="sssssssss" />
    </g>
    <g
       inkscape:groupmode="layer"
       id="layer2"
       inkscape:label="Background"
       style="display:inline">
      <g
         id="g302">
        <path
           id="path218"
           d="M 84 46.5 C 56.568735 46.5 34.5 68.568732 34.5 96 L 34.5 216 C 34.5 243.43127 56.568735 265.5 84 265.5 L 204 265.5 C 231.43127 265.5 253.5 243.43127 253.5 216 L 253.5 96 C 253.5 68.568732 231.43127 46.5 204 46.5 L 84 46.5 z "
           style="fill:#c5412b;stroke-width:1.86932921" />
        <path
           style="stroke-width:1.33011079"
           id="path220"
           d="m 65.05659,181.4377 -0.22213,-45.07479 c 0,0 24.05373,8.56857 40.48858,8.85189 l 0.26602,28.88734 c 0,0 -19.34247,-0.007 -40.00974,7.6774"
           inkscape:connector-curvature="0" />
        <path
           id="path222"
           overflow="visible"
           d="m 113.80249,144.95011 13.24791,-0.26603 0.26602,29.41806 h -12.98454 z m 34.71057,5.69553 -8.55394,9.12722 9.10461,9.23363 8.42891,-9.55419 z m -12.98454,-27.3125 28.45506,-0.13301 0.26602,13.76532 h -28.32471 z m 37.05822,40.36621 -20.25094,20.11792 9.92662,9.6606 19.05783,-19.37573 z"
           style="color:#000000;overflow:visible;stroke-width:1.33011079;marker:none"
           inkscape:connector-curvature="0" />
        <path
           style="stroke-width:1.33011079"
           id="path224"
           d="m 127.29913,73.64686 45.07479,-0.22346 c 0,0 -8.96495,25.2455 -9.24826,41.67769 l -27.4322,0.13301 c 0,0 -1.05212,-20.39991 -8.73617,-41.06717 m 96.95443,128.61373 -31.63003,32.1142 c 0,0 -11.57596,-24.1588 -23.02821,-35.94891 l 19.25069,-19.54465 c 0,0 15.20716,13.64162 35.27853,22.76751"
           inkscape:connector-curvature="0" />
      </g>
      <g
         id="g323">
        <path
           id="path304"
           d="M 310 32.5 C 300.29745 32.5 292.5 40.297452 292.5 50 L 292.5 102 C 292.5 111.70255 300.29745 119.5 310 119.5 L 362 119.5 C 371.70255 119.5 379.5 111.70255 379.5 102 L 379.5 50 C 379.5 40.297452 371.70255 32.5 362 32.5 L 310 32.5 z "
           style="fill:#c5412b;stroke-width:0.95169783" />
        <path
           inkscape:connector-curvature="0"
           d="m 304.63892,86.105388 -0.0882,-17.906424 c 0,0 9.55559,3.403953 16.0845,3.516505 l 0.10568,11.475792 c 0,0 -7.684,-0.0028 -15.89428,3.049926"
           id="path306"
           style="stroke-width:0.52840018" />
        <path
           inkscape:connector-curvature="0"
           style="color:#000000;overflow:visible;stroke-width:0.52840018;marker:none"
           d="m 324.00373,71.610318 5.26287,-0.105683 0.10568,11.686626 h -5.15825 z m 13.78913,2.262608 -3.39814,3.625882 3.6169,3.668154 3.34847,-3.7955 z m -5.15824,-10.850172 11.30406,-0.05284 0.10568,5.468415 h -11.25228 z m 14.72175,16.035892 -8.04489,7.99205 3.94345,3.837773 7.57092,-7.697208 z"
           overflow="visible"
           id="path308" />
        <path
           inkscape:connector-curvature="0"
           d="m 329.36541,43.284369 17.90642,-0.08877 c 0,0 -3.56142,10.029034 -3.67397,16.55689 l -10.89772,0.05284 c 0,0 -0.41796,-8.104074 -3.47053,-16.314355 m 38.51614,51.093125 -12.56535,12.757691 c 0,0 -4.59867,-9.597327 -9.1482,-14.281069 l 7.64754,-7.764313 c 0,0 6.0412,5.419274 14.01476,9.044627"
           id="path310"
           style="stroke-width:0.52840018" />
      </g>
      <g
         id="g345">
        <path
           id="path325"
           d="M 302.5 142.5 C 295.84498 142.5 290.5 147.84498 290.5 154.5 L 290.5 189.5 C 290.5 196.15502 295.84498 201.5 302.5 201.5 L 337.5 201.5 C 344.15502 201.5 349.5 196.15502 349.5 189.5 L 349.5 154.5 C 349.5 147.84498 344.15502 142.5 337.5 142.5 L 302.5 142.5 z "
           style="fill:#c5412b;stroke-width:1.07126594" />
        <path
           style="stroke-width:0.35834035"
           id="path327"
           d="m 298.73214,178.85308 -0.0598,-12.14344 c 0,0 6.48023,2.30843 10.90788,2.38476 l 0.0717,7.78243 c 0,0 -5.21098,-0.002 -10.77887,2.06834"
           inkscape:connector-curvature="0" />
        <path
           id="path329"
           overflow="visible"
           d="m 311.8646,169.02309 3.56907,-0.0717 0.0717,7.92541 h -3.49812 z m 9.35125,1.53441 -2.30449,2.45893 2.45284,2.4876 2.2708,-2.57396 z m -3.49812,-7.35816 7.66597,-0.0358 0.0717,3.70847 h -7.63086 z m 9.98372,10.87491 -5.45573,5.4199 2.67429,2.60263 5.1343,-5.21995 z"
           style="color:#000000;overflow:visible;stroke-width:0.35834035;marker:none"
           inkscape:connector-curvature="0" />
        <path
           style="stroke-width:0.35834035"
           id="path331"
           d="m 315.50068,149.81354 12.14343,-0.0602 c 0,0 -2.41521,6.8013 -2.49154,11.22823 l -7.39041,0.0358 c 0,0 -0.28344,-5.49587 -2.35357,-11.06376 m 26.12014,34.64936 -8.52133,8.65177 c 0,0 -3.11864,-6.50854 -6.20395,-9.68487 l 5.18626,-5.26545 c 0,0 4.0969,3.67514 9.50426,6.13371"
           inkscape:connector-curvature="0" />
      </g>
      <g
         id="g366">
        <path
           id="path347"
           d="M 300 223.5 C 295.28469 223.5 291.5 227.28469 291.5 232 L 291.5 256 C 291.5 260.71531 295.28469 264.5 300 264.5 L 324 264.5 C 328.71531 264.5 332.5 260.71531 332.5 256 L 332.5 232 C 332.5 227.28469 328.71531 223.5 324 223.5 L 300 223.5 z "
           style="fill:#c5412b;stroke-width:1.23633969" />
        <path
           inkscape:connector-curvature="0"
           d="m 297.22064,248.76231 -0.0416,-8.43866 c 0,0 4.50321,1.60416 7.58006,1.65721 l 0.0498,5.40813 c 0,0 -3.62119,-0.001 -7.4904,1.43732"
           id="path349"
           style="stroke-width:0.24901618" />
        <path
           inkscape:connector-curvature="0"
           style="color:#000000;overflow:visible;stroke-width:0.24901618;marker:none"
           d="m 306.34659,241.9313 2.4802,-0.0498 0.0498,5.50749 h -2.43089 z m 6.49832,1.06629 -1.60142,1.70875 1.70451,1.72867 1.57802,-1.78869 z m -2.43089,-5.1133 5.3272,-0.0249 0.0498,2.57707 h -5.3028 z m 6.93784,7.55714 -3.79127,3.76637 1.8584,1.80861 3.5679,-3.62742 z"
           overflow="visible"
           id="path351" />
        <path
           inkscape:connector-curvature="0"
           d="m 308.87335,228.58229 8.43866,-0.0418 c 0,0 -1.67837,4.72633 -1.73141,7.80267 l -5.13571,0.0249 c 0,0 -0.19697,-3.81917 -1.63553,-7.68838 m 18.15128,24.07837 -5.9216,6.01225 c 0,0 -2.16719,-4.52289 -4.31122,-6.73017 l 3.60401,-3.65904 c 0,0 2.847,2.55391 6.60466,4.26241"
           id="path353"
           style="stroke-width:0.24901618" />
      </g>
      <g
         id="g387">
        <path
           id="path368"
           d="M 424 53.5 C 420.39346 53.5 417.5 56.393464 417.5 60 L 417.5 76 C 417.5 79.606536 420.39346 82.5 424 82.5 L 440 82.5 C 443.60654 82.5 446.5 79.606536 446.5 76 L 446.5 60 C 446.5 56.393464 443.60654 53.5 440 53.5 L 424 53.5 z "
           style="fill:#c5412b;stroke-width:1.71196771" />
        <path
           style="stroke-width:0.17613339"
           id="path370"
           d="m 421.5463,71.368458 -0.0294,-5.968808 c 0,0 3.1852,1.13465 5.3615,1.172173 l 0.0352,3.825263 c 0,0 -2.56133,-7.08e-4 -5.29809,1.016641"
           inkscape:connector-curvature="0" />
        <path
           id="path372"
           overflow="visible"
           d="m 428.00124,66.536768 1.75429,-0.03522 0.0352,3.895542 h -1.71941 z m 4.59638,0.754205 -1.13272,1.208628 1.20563,1.222718 1.11616,-1.265171 z m -1.71941,-3.616724 3.76801,-0.01761 0.0352,1.822805 h -3.75076 z m 4.90725,5.345294 -2.68163,2.664018 1.31448,1.279261 2.52363,-2.565736 z"
           style="color:#000000;overflow:visible;stroke-width:0.17613339;marker:none"
           inkscape:connector-curvature="0" />
        <path
           style="stroke-width:0.17613339"
           id="path374"
           d="m 429.78846,57.094786 5.96881,-0.02957 c 0,0 -1.18714,3.343014 -1.22465,5.518961 l -3.63258,0.01761 c 0,0 -0.13932,-2.701364 -1.15684,-5.438123 m 12.83871,17.031042 -4.18845,4.252567 c 0,0 -1.53289,-3.199117 -3.0494,-4.760364 l 2.54918,-2.588101 c 0,0 2.01373,1.806424 4.67159,3.014875"
           inkscape:connector-curvature="0" />
      </g>
      <g
         id="g408">
        <path
           id="path389"
           d="M 422 101.5 C 419.50301 101.5 417.5 103.50301 417.5 106 L 417.5 118 C 417.5 120.49699 419.50301 122.5 422 122.5 L 434 122.5 C 436.49699 122.5 438.5 120.49699 438.5 118 L 438.5 106 C 438.5 103.50301 436.49699 101.5 434 101.5 L 422 101.5 z "
           style="fill:#c5412b;stroke-width:2.12657833" />
        <path
           inkscape:connector-curvature="0"
           d="m 420.43008,114.43923 -0.0213,-4.32224 c 0,0 2.30652,0.82164 3.88246,0.84881 l 0.0255,2.77002 c 0,0 -1.85476,-5.1e-4 -3.83655,0.73619"
           id="path391"
           style="stroke-width:0.12754487" />
        <path
           inkscape:connector-curvature="0"
           style="color:#000000;overflow:visible;stroke-width:0.12754487;marker:none"
           d="m 425.10434,110.94042 1.27035,-0.0255 0.0255,2.82091 h -1.24509 z m 3.32842,0.54615 -0.82025,0.87521 0.87304,0.88542 0.80826,-0.91616 z m -1.24509,-2.61901 2.72855,-0.0127 0.0255,1.31996 h -2.71606 z m 3.55352,3.87073 -1.94187,1.92912 0.95187,0.92636 1.82745,-1.85795 z"
           overflow="visible"
           id="path393" />
        <path
           inkscape:connector-curvature="0"
           d="m 426.39854,104.10312 4.32224,-0.0214 c 0,0 -0.85966,2.4208 -0.88682,3.99649 l -2.63049,0.0128 c 0,0 -0.10088,-1.95616 -0.83771,-3.93795 m 9.297,12.33282 -3.03302,3.07945 c 0,0 -1.11002,-2.31661 -2.20818,-3.44716 l 1.84595,-1.87415 c 0,0 1.45822,1.3081 3.38288,2.18319"
           id="path395"
           style="stroke-width:0.12754487" />
      </g>
      <g
         id="g430">
        <path
           id="path410"
           d="M 419 140.5 C 417.6156 140.5 416.5 141.6156 416.5 143 L 416.5 153 C 416.5 154.3844 417.6156 155.5 419 155.5 L 429 155.5 C 430.3844 155.5 431.5 154.3844 431.5 153 L 431.5 143 C 431.5 141.6156 430.3844 140.5 429 140.5 L 419 140.5 z "
           style="fill:#c5412b;stroke-width:2.59119368" />
        <path
           style="stroke-width:0.09110347"
           id="path412"
           d="m 418.59292,149.74231 -0.0152,-3.08732 c 0,0 1.64752,0.58689 2.77319,0.6063 l 0.0182,1.97858 c 0,0 -1.32482,-3.6e-4 -2.74039,0.52585"
           inkscape:connector-curvature="0" />
        <path
           id="path414"
           overflow="visible"
           d="m 421.93168,147.24316 0.90739,-0.0182 0.0182,2.01494 h -0.88935 z m 2.37744,0.3901 -0.58589,0.62515 0.6236,0.63245 0.57732,-0.6544 z m -0.88935,-1.87072 1.94896,-0.009 0.0182,0.94283 h -1.94005 z m 2.53823,2.76481 -1.38705,1.37794 0.6799,0.66169 1.30533,-1.32711 z"
           style="color:#000000;overflow:visible;stroke-width:0.09110347;marker:none"
           inkscape:connector-curvature="0" />
        <path
           style="stroke-width:0.09110347"
           id="path416"
           d="m 422.8561,142.35937 3.08732,-0.0153 c 0,0 -0.61404,1.72914 -0.63344,2.85463 l -1.87893,0.009 c 0,0 -0.0721,-1.39725 -0.59836,-2.81282 m 6.64071,8.80916 -2.16644,2.19961 c 0,0 -0.79287,-1.65472 -1.57727,-2.46226 l 1.31854,-1.33868 c 0,0 1.04158,0.93436 2.41634,1.55942"
           inkscape:connector-curvature="0" />
      </g>
    </g>
    <g
       inkscape:groupmode="layer"
       id="layer6"
       inkscape:label="Symbols"
       style="display:inline" />
    <g
       inkscape:groupmode="layer"
       id="layer5"
       inkscape:label="Highlights"
       style="display:inline"
       sodipodi:insensitive="true">
      <path
         style="opacity:0.12999998;color:#bebebe;fill:#ffffff;fill-opacity:1;fill-rule:nonzero;stroke:none;stroke-width:0;marker:none;visibility:visible;display:inline;overflow:visible;enable-background:accumulate"
         d="M 84,47 C 56.836703,47 35,68.836703 35,96 l 0,1 C 35,69.836703 56.836703,48 84,48 l 120,0 c 27.1633,0 49,21.836703 49,49 l 0,-1 C 253,68.836703 231.1633,47 204,47 L 84,47 z"
         id="rect3894"
         inkscape:connector-curvature="0" />
      <path
         style="opacity:0.12999998;color:#bebebe;fill:#ffffff;fill-opacity:1;fill-rule:nonzero;stroke:none;stroke-width:0;marker:none;visibility:visible;display:inline;overflow:visible;enable-background:accumulate"
         d="m 419,141 c -1.1253,0 -2,0.8747 -2,2 l 0,1 c 0,-1.1253 0.8747,-2 2,-2 l 10,0 c 1.1253,0 2,0.8747 2,2 l 0,-1 c 0,-1.1253 -0.8747,-2 -2,-2 l -10,0 z"
         id="rect3896"
         inkscape:connector-curvature="0" />
      <path
         style="opacity:0.12999998;color:#bebebe;fill:#ffffff;fill-opacity:1;fill-rule:nonzero;stroke:none;stroke-width:0;marker:none;visibility:visible;display:inline;overflow:visible;enable-background:accumulate"
         d="m 422,102 c -2.2333,0 -4,1.7667 -4,4 l 0,1 c 0,-2.2333 1.7667,-4 4,-4 l 12,0 c 2.2333,0 4,1.7667 4,4 l 0,-1 c 0,-2.2333 -1.7667,-4 -4,-4 l -12,0 z"
         id="rect3898"
         inkscape:connector-curvature="0" />
      <path
         style="opacity:0.12999998;color:#bebebe;fill:#ffffff;fill-opacity:1;fill-rule:nonzero;stroke:none;stroke-width:0;marker:none;visibility:visible;display:inline;overflow:visible;enable-background:accumulate"
         d="m 424,54 c -3.3413,0 -6,2.658703 -6,6 l 0,1 c 0,-3.341297 2.6587,-6 6,-6 l 16,0 c 3.3413,0 6,2.658703 6,6 l 0,-1 c 0,-3.341297 -2.6587,-6 -6,-6 l -16,0 z"
         id="rect3900"
         inkscape:connector-curvature="0" />
      <path
         style="opacity:0.12999998;color:#bebebe;fill:#ffffff;fill-opacity:1;fill-rule:nonzero;stroke:none;stroke-width:0;marker:none;visibility:visible;display:inline;overflow:visible;enable-background:accumulate"
         d="m 300,224 c -4.4493,0 -8,3.5507 -8,8 l 0,1 c 0,-4.4493 3.5507,-8 8,-8 l 24,0 c 4.4493,0 8,3.5507 8,8 l 0,-1 c 0,-4.4493 -3.5507,-8 -8,-8 l -24,0 z"
         id="rect3902"
         inkscape:connector-curvature="0" />
      <path
         style="opacity:0.12999998;color:#bebebe;fill:#ffffff;fill-opacity:1;fill-rule:nonzero;stroke:none;stroke-width:0;marker:none;visibility:visible;display:inline;overflow:visible;enable-background:accumulate"
         d="m 310,33 c -9.4353,0 -17,7.564703 -17,17 l 0,1 c 0,-9.435297 7.5647,-17 17,-17 l 52,0 c 9.4353,0 17,7.564703 17,17 l 0,-1 c 0,-9.435297 -7.5647,-17 -17,-17 l -52,0 z"
         id="rect3904"
         inkscape:connector-curvature="0" />
      <path
         style="opacity:0.12999998;color:#bebebe;fill:#ffffff;fill-opacity:1;fill-rule:nonzero;stroke:none;stroke-width:0;marker:none;visibility:visible;display:inline;overflow:visible;enable-background:accumulate"
         d="m 302.5,143 c -6.3883,0 -11.5,5.1117 -11.5,11.5 l 0,1 c 0,-6.3883 5.1117,-11.5 11.5,-11.5 l 35,0 c 6.3883,0 11.5,5.1117 11.5,11.5 l 0,-1 c 0,-6.3883 -5.1117,-11.5 -11.5,-11.5 l -35,0 z"
         id="rect3906"
         inkscape:connector-curvature="0" />
      <path
         id="path4085"
         d="m 204,266 c 27.1633,0 49,-21.8367 49,-49 l 0,-1 c 0,27.1633 -21.8367,49 -49,49 L 84,265 C 56.8367,265 35,243.1633 35,216 l 0,1 c 0,27.1633 21.8367,49 49,49 l 120,0 z"
         style="opacity:0.41;color:#bebebe;fill:#000000;fill-opacity:1;fill-rule:nonzero;stroke:none;stroke-width:0;marker:none;visibility:visible;display:inline;overflow:visible;enable-background:accumulate"
         inkscape:connector-curvature="0" />
      <path
         id="path4087"
         d="m 429,156 c 1.1253,0 2,-0.8747 2,-2 l 0,-1 c 0,1.1253 -0.8747,2 -2,2 l -10,0 c -1.1253,0 -2,-0.8747 -2,-2 l 0,1 c 0,1.1253 0.8747,2 2,2 l 10,0 z"
         style="opacity:0.3;color:#bebebe;fill:#000000;fill-opacity:1;fill-rule:nonzero;stroke:none;stroke-width:0;marker:none;visibility:visible;display:inline;overflow:visible;enable-background:accumulate"
         inkscape:connector-curvature="0" />
      <path
         id="path4089"
         d="m 434,123 c 2.2333,0 4,-1.7667 4,-4 l 0,-1 c 0,2.2333 -1.7667,4 -4,4 l -12,0 c -2.2333,0 -4,-1.7667 -4,-4 l 0,1 c 0,2.2333 1.7667,4 4,4 l 12,0 z"
         style="opacity:0.3;color:#bebebe;fill:#000000;fill-opacity:1;fill-rule:nonzero;stroke:none;stroke-width:0;marker:none;visibility:visible;display:inline;overflow:visible;enable-background:accumulate"
         inkscape:connector-curvature="0" />
      <path
         id="path4091"
         d="m 440,83 c 3.3413,0 6,-2.6587 6,-6 l 0,-1 c 0,3.3413 -2.6587,6 -6,6 l -16,0 c -3.3413,0 -6,-2.6587 -6,-6 l 0,1 c 0,3.3413 2.6587,6 6,6 l 16,0 z"
         style="opacity:0.41;color:#bebebe;fill:#000000;fill-opacity:1;fill-rule:nonzero;stroke:none;stroke-width:0;marker:none;visibility:visible;display:inline;overflow:visible;enable-background:accumulate"
         inkscape:connector-curvature="0" />
      <path
         id="path4093"
         d="m 324,265 c 4.4493,0 8,-3.5507 8,-8 l 0,-1 c 0,4.4493 -3.5507,8 -8,8 l -24,0 c -4.4493,0 -8,-3.5507 -8,-8 l 0,1 c 0,4.4493 3.5507,8 8,8 l 24,0 z"
         style="opacity:0.41;color:#bebebe;fill:#000000;fill-opacity:1;fill-rule:nonzero;stroke:none;stroke-width:0;marker:none;visibility:visible;display:inline;overflow:visible;enable-background:accumulate"
         inkscape:connector-curvature="0" />
      <path
         id="path4095"
         d="m 362,120 c 9.4353,0 17,-7.5647 17,-17 l 0,-1 c 0,9.4353 -7.5647,17 -17,17 l -52,0 c -9.4353,0 -17,-7.5647 -17,-17 l 0,1 c 0,9.4353 7.5647,17 17,17 l 52,0 z"
         style="opacity:0.41;color:#bebebe;fill:#000000;fill-opacity:1;fill-rule:nonzero;stroke:none;stroke-width:0;marker:none;visibility:visible;display:inline;overflow:visible;enable-background:accumulate"
         inkscape:connector-curvature="0" />
      <path
         id="path4097"
         d="m 337.5,202 c 6.3883,0 11.5,-5.1117 11.5,-11.5 l 0,-1 c 0,6.3883 -5.1117,11.5 -11.5,11.5 l -35,0 c -6.3883,0 -11.5,-5.1117 -11.5,-11.5 l 0,1 c 0,6.3883 5.1117,11.5 11.5,11.5 l 35,0 z"
         style="opacity:0.41;color:#bebebe;fill:#000000;fill-opacity:1;fill-rule:nonzero;stroke:none;stroke-width:0;marker:none;visibility:visible;display:inline;overflow:visible;enable-background:accumulate"
         inkscape:connector-curvature="0" />
      <path
         inkscape:connector-curvature="0"
         id="path4280"
         d="M 84,265 C 56.836703,265 35,243.1633 35,216 l 0,-1 c 0,27.1633 21.836703,49 49,49 l 120,0 c 27.1633,0 49,-21.8367 49,-49 l 0,1 c 0,27.1633 -21.8367,49 -49,49 l -120,0 z"
         style="opacity:0.1;color:#bebebe;fill:#ffffff;fill-opacity:1;fill-rule:nonzero;stroke:none;stroke-width:0;marker:none;visibility:visible;display:inline;overflow:visible;enable-background:accumulate" />
      <path
         style="opacity:0.1;color:#bebebe;fill:#ffffff;fill-opacity:1;fill-rule:nonzero;stroke:none;stroke-width:0;marker:none;visibility:visible;display:inline;overflow:visible;enable-background:accumulate"
         d="m 300,264 c -4.4493,0 -8,-3.5507 -8,-8 l 0,-1 c 0,4.4493 3.5507,8 8,8 l 24,0 c 4.4493,0 8,-3.5507 8,-8 l 0,1 c 0,4.4493 -3.5507,8 -8,8 l -24,0 z"
         id="path4294"
         inkscape:connector-curvature="0" />
      <path
         style="opacity:0.1;color:#bebebe;fill:#ffffff;fill-opacity:1;fill-rule:nonzero;stroke:none;stroke-width:0;marker:none;visibility:visible;display:inline;overflow:visible;enable-background:accumulate"
         d="m 302.5,201 c -6.3883,0 -11.5,-5.1117 -11.5,-11.5 l 0,-1 c 0,6.3883 5.1117,11.5 11.5,11.5 l 35,0 c 6.3883,0 11.5,-5.1117 11.5,-11.5 l 0,1 c 0,6.3883 -5.1117,11.5 -11.5,11.5 l -35,0 z"
         id="path4296"
         inkscape:connector-curvature="0" />
      <path
         style="opacity:0.1;color:#bebebe;fill:#ffffff;fill-opacity:1;fill-rule:nonzero;stroke:none;stroke-width:0;marker:none;visibility:visible;display:inline;overflow:visible;enable-background:accumulate"
         d="m 310,119 c -9.4353,0 -17,-7.5647 -17,-17 l 0,-1 c 0,9.4353 7.5647,17 17,17 l 52,0 c 9.4353,0 17,-7.5647 17,-17 l 0,1 c 0,9.4353 -7.5647,17 -17,17 l -52,0 z"
         id="path4298"
         inkscape:connector-curvature="0" />
      <path
         style="opacity:0.1;color:#bebebe;fill:#ffffff;fill-opacity:1;fill-rule:nonzero;stroke:none;stroke-width:0;marker:none;visibility:visible;display:inline;overflow:visible;enable-background:accumulate"
         d="m 424,82 c -3.3413,0 -6,-2.658703 -6,-6 l 0,-1 c 0,3.341297 2.6587,6 6,6 l 16,0 c 3.3413,0 6,-2.658703 6,-6 l 0,1 c 0,3.341297 -2.6587,6 -6,6 l -16,0 z"
         id="path4300"
         inkscape:connector-curvature="0" />
      <path
         style="opacity:0.1;color:#bebebe;fill:#ffffff;fill-opacity:1;fill-rule:nonzero;stroke:none;stroke-width:0;marker:none;visibility:visible;display:inline;overflow:visible;enable-background:accumulate"
         d="m 422,122 c -2.2333,0 -4,-1.7667 -4,-4 l 0,-1 c 0,2.2333 1.7667,4 4,4 l 12,0 c 2.2333,0 4,-1.7667 4,-4 l 0,1 c 0,2.2333 -1.7667,4 -4,4 l -12,0 z"
         id="path4302"
         inkscape:connector-curvature="0" />
      <path
         style="opacity:0.1;color:#bebebe;fill:#ffffff;fill-opacity:1;fill-rule:nonzero;stroke:none;stroke-width:0;marker:none;visibility:visible;display:inline;overflow:visible;enable-background:accumulate"
         d="m 419,154.5 c -1.1253,0 -2,-0.8747 -2,-2 l 0,-1 c 0,1.1253 0.8747,2 2,2 l 10,0 c 1.1253,0 2,-0.8747 2,-2 l 0,1 c 0,1.1253 -0.8747,2 -2,2 l -10,0 z"
         id="path4304"
         inkscape:connector-curvature="0" />
    </g>
    <g
       inkscape:groupmode="layer"
       id="layer3"
       inkscape:label="Border"
       style="display:inline"
       sodipodi:insensitive="true">
      <path
         style="opacity:0.41;color:#bebebe;fill:#000000;fill-opacity:1;fill-rule:nonzero;stroke:none;stroke-width:0;marker:none;visibility:visible;display:inline;overflow:visible;enable-background:accumulate"
         d="m 422,101 c -2.77,0 -5,2.23 -5,5 l 0,12 c 0,2.77 2.23,5 5,5 l 12,0 c 2.77,0 5,-2.23 5,-5 l 0,-12 c 0,-2.77 -2.23,-5 -5,-5 l -12,0 z m 0,1 12,0 c 2.2333,0 4,1.7667 4,4 l 0,12 c 0,2.2333 -1.7667,4 -4,4 l -12,0 c -2.2333,0 -4,-1.7667 -4,-4 l 0,-12 c 0,-2.2333 1.7667,-4 4,-4 z"
         id="rect4099"
         inkscape:connector-curvature="0" />
      <path
         style="opacity:0.41;color:#bebebe;fill:#000000;fill-opacity:1;fill-rule:nonzero;stroke:none;stroke-width:0;marker:none;visibility:visible;display:inline;overflow:visible;enable-background:accumulate"
         d="m 424,53 c -3.878,0 -7,3.122 -7,7 l 0,16 c 0,3.878 3.122,7 7,7 l 16,0 c 3.878,0 7,-3.122 7,-7 l 0,-16 c 0,-3.878 -3.122,-7 -7,-7 l -16,0 z m 0,1 16,0 c 3.3413,0 6,2.658703 6,6 l 0,16 c 0,3.341297 -2.6587,6 -6,6 l -16,0 c -3.3413,0 -6,-2.658703 -6,-6 l 0,-16 c 0,-3.341297 2.6587,-6 6,-6 z"
         id="rect4151"
         inkscape:connector-curvature="0" />
      <path
         style="opacity:0.41;color:#bebebe;fill:#000000;fill-opacity:1;fill-rule:nonzero;stroke:none;stroke-width:0;marker:none;visibility:visible;display:inline;overflow:visible;enable-background:accumulate"
         d="m 419,140 c -1.662,0 -3,1.338 -3,3 l 0,10 c 0,1.662 1.338,3 3,3 l 10,0 c 1.662,0 3,-1.338 3,-3 l 0,-10 c 0,-1.662 -1.338,-3 -3,-3 l -10,0 z m 0,1 10,0 c 1.1253,0 2,0.8747 2,2 l 0,10 c 0,1.1253 -0.8747,2 -2,2 l -10,0 c -1.1253,0 -2,-0.8747 -2,-2 l 0,-10 c 0,-1.1253 0.8747,-2 2,-2 z"
         id="rect4095"
         inkscape:connector-curvature="0" />
      <path
         style="opacity:0.41;color:#bebebe;fill:#000000;fill-opacity:1;fill-rule:nonzero;stroke:none;stroke-width:0;marker:none;visibility:visible;display:inline;overflow:visible;enable-background:accumulate"
         d="m 300,223 c -4.986,0 -9,4.014 -9,9 l 0,24 c 0,4.986 4.014,9 9,9 l 24,0 c 4.986,0 9,-4.014 9,-9 l 0,-24 c 0,-4.986 -4.014,-9 -9,-9 l -24,0 z m 0,1 24,0 c 4.4493,0 8,3.5507 8,8 l 0,24 c 0,4.4493 -3.5507,8 -8,8 l -24,0 c -4.4493,0 -8,-3.5507 -8,-8 l 0,-24 c 0,-4.4493 3.5507,-8 8,-8 z"
         id="rect4783"
         inkscape:connector-curvature="0" />
      <path
         style="opacity:0.41;color:#bebebe;fill:#000000;fill-opacity:1;fill-rule:nonzero;stroke:none;stroke-width:0;marker:none;visibility:visible;display:inline;overflow:visible;enable-background:accumulate"
         d="m 302.5,142 c -6.925,0 -12.5,5.575 -12.5,12.5 l 0,35 c 0,6.925 5.575,12.5 12.5,12.5 l 35,0 c 6.925,0 12.5,-5.575 12.5,-12.5 l 0,-35 c 0,-6.925 -5.575,-12.5 -12.5,-12.5 l -35,0 z m 0,1 35,0 c 6.3883,0 11.5,5.1117 11.5,11.5 l 0,35 c 0,6.3883 -5.1117,11.5 -11.5,11.5 l -35,0 c -6.3883,0 -11.5,-5.1117 -11.5,-11.5 l 0,-35 c 0,-6.3883 5.1117,-11.5 11.5,-11.5 z"
         id="rect4515"
         inkscape:connector-curvature="0" />
      <path
         style="opacity:0.41;color:#bebebe;fill:#000000;fill-opacity:1;fill-rule:nonzero;stroke:none;stroke-width:0;marker:none;visibility:visible;display:inline;overflow:visible;enable-background:accumulate"
         d="m 310,32 c -9.972,0 -18,8.028 -18,18 l 0,52 c 0,9.972 8.028,18 18,18 l 52,0 c 9.972,0 18,-8.028 18,-18 l 0,-52 c 0,-9.972 -8.028,-18 -18,-18 l -52,0 z m 0,1 52,0 c 9.4353,0 17,7.564703 17,17 l 0,52 c 0,9.4353 -7.5647,17 -17,17 l -52,0 c -9.4353,0 -17,-7.5647 -17,-17 l 0,-52 c 0,-9.435297 7.5647,-17 17,-17 z"
         id="rect4511"
         inkscape:connector-curvature="0" />
      <path
         style="opacity:0.41;color:#bebebe;fill:#000000;fill-opacity:1;fill-rule:nonzero;stroke:none;stroke-width:0;marker:none;visibility:visible;display:inline;overflow:visible;enable-background:accumulate"
         d="M 84,46 C 56.3,46 34,68.3 34,96 l 0,120 c 0,27.7 22.3,50 50,50 l 120,0 c 27.7,0 50,-22.3 50,-50 L 254,96 C 254,68.3 231.7,46 204,46 L 84,46 z m 0,1 120,0 c 27.1633,0 49,21.836703 49,49 l 0,120 c 0,27.1633 -21.8367,49 -49,49 L 84,265 C 56.836703,265 35,243.1633 35,216 L 35,96 C 35,68.836703 56.836703,47 84,47 z"
         id="rect4040"
         inkscape:connector-curvature="0" />
    </g>
  </g>
</svg>
