<?xml version="1.0" encoding="UTF-8" standalone="no"?>
<!-- Created with Inkscape (http://www.inkscape.org/) -->

<svg
   width="480"
   height="300"
   viewBox="0 0 480 300"
   version="1.1"
   id="svg5"
   inkscape:version="1.3 (1:1.3+202307231459+0e150ed6c4)"
   sodipodi:docname="scanner.svg"
   xmlns:inkscape="http://www.inkscape.org/namespaces/inkscape"
   xmlns:sodipodi="http://sodipodi.sourceforge.net/DTD/sodipodi-0.dtd"
   xmlns="http://www.w3.org/2000/svg"
   xmlns:svg="http://www.w3.org/2000/svg">
  <sodipodi:namedview
     id="namedview7"
     pagecolor="#888888"
     bordercolor="#000000"
     borderopacity="0.25"
     inkscape:showpageshadow="true"
     inkscape:pageopacity="0"
     inkscape:pagecheckerboard="0"
     inkscape:deskcolor="#888888"
     inkscape:document-units="px"
     showgrid="false"
     showborder="false"
     inkscape:zoom="1.4958333"
     inkscape:cx="240"
     inkscape:cy="150.08357"
     inkscape:window-width="1920"
     inkscape:window-height="1008"
     inkscape:window-x="0"
     inkscape:window-y="0"
     inkscape:window-maximized="1"
     inkscape:current-layer="svg5" />
  <defs
     id="defs2">
    <mask
       maskUnits="userSpaceOnUse"
       id="mask4">
      <rect
         style="opacity:1;fill:#ffffff;fill-opacity:1"
         id="rect5"
         width="16"
         height="16"
         x="416"
         y="-156"
         ry="4" />
    </mask>
    <mask
       maskUnits="userSpaceOnUse"
       id="mask5">
      <rect
         style="opacity:1;fill:#ffffff;fill-opacity:1"
         id="rect6"
         width="20"
         height="20"
         x="418"
         y="-122"
         ry="4" />
    </mask>
    <mask
       maskUnits="userSpaceOnUse"
       id="mask6">
      <rect
         style="opacity:1;fill:#ffffff;fill-opacity:1"
         id="rect7"
         width="28"
         height="28"
         x="418"
         y="-82"
         ry="6" />
    </mask>
    <mask
       maskUnits="userSpaceOnUse"
       id="mask7">
      <rect
         style="opacity:1;fill:#ffffff;fill-opacity:1"
         id="rect8"
         width="56"
         height="56"
         x="292"
         y="-200"
         ry="12" />
    </mask>
    <mask
       maskUnits="userSpaceOnUse"
       id="mask6-3">
      <rect
         style="opacity:1;fill:#ffffff;fill-opacity:1"
         id="rect7-7"
         width="28"
         height="28"
         x="418"
         y="-82"
         ry="6" />
    </mask>
    <mask
       maskUnits="userSpaceOnUse"
       id="mask12">
      <rect
         style="opacity:1;fill:#ffffff;fill-opacity:1;stroke-width:0.999999"
         id="rect13"
         width="224"
         height="224"
         x="32"
         y="-268"
         ry="48" />
    </mask>
    <mask
       maskUnits="userSpaceOnUse"
       id="mask16">
      <rect
         style="opacity:1;fill:#ffffff;fill-opacity:1"
         id="rect16"
         width="84"
         height="84"
         x="294"
         y="-118"
         ry="18" />
    </mask>
    <mask
       maskUnits="userSpaceOnUse"
       id="mask17">
      <rect
         style="opacity:1;fill:#ffffff;fill-opacity:1"
         id="rect17"
         width="42"
         height="42"
         x="291"
         y="-265"
         ry="9" />
    </mask>
    <mask
       maskUnits="userSpaceOnUse"
       id="mask6-2">
      <rect
         style="opacity:1;fill:#ffffff;fill-opacity:1"
         id="rect7-2"
         width="28"
         height="28"
         x="418"
         y="-82"
         ry="6" />
    </mask>
  </defs>
  <g
     id="Baseplate"
     style="display:none">
    <text
       y="19.774782"
       xml:space="preserve"
       x="15.006946"
       style="font-style:normal;font-variant:normal;font-weight:normal;font-stretch:normal;line-height:0%;font-family:'DejaVu Sans';-inkscape-font-specification:'DejaVu Sans';display:inline;fill:#000000;fill-opacity:1;stroke:none;enable-background:new"
       inkscape:label="context"
       id="context"><tspan
         style="font-style:normal;font-variant:normal;font-weight:normal;font-stretch:normal;font-size:18px;line-height:1.25;font-family:'DejaVu Sans';-inkscape-font-specification:'DejaVu Sans'"
         y="19.774782"
         x="15.006946"
         sodipodi:role="line"
         id="tspan3933">apps</tspan></text>
    <text
       y="19.774782"
       xml:space="preserve"
       x="122.48839"
       style="font-style:normal;font-variant:normal;font-weight:bold;font-stretch:normal;line-height:0%;font-family:'DejaVu Sans';-inkscape-font-specification:'DejaVu Sans Bold';text-align:start;writing-mode:lr-tb;text-anchor:start;display:inline;fill:#000000;fill-opacity:1;stroke:none;enable-background:new"
       inkscape:label="icon-name"
       id="icon-name"><tspan
         style="font-style:normal;font-variant:normal;font-weight:bold;font-stretch:normal;font-size:18px;line-height:1.25;font-family:'DejaVu Sans';-inkscape-font-specification:'DejaVu Sans Bold'"
         y="19.774782"
         x="122.48839"
         sodipodi:role="line"
         id="tspan3937">scanner</tspan></text>
    <rect
       style="fill:#ffffff"
       id="256x256"
       width="256"
       height="256"
       x="16"
       y="28" />
    <rect
       style="fill:#ffffff"
       id="96x96"
       width="96"
       height="96"
       x="288"
       y="28" />
    <rect
       style="fill:#ffffff"
       id="64x64"
       width="64"
       height="64"
       x="288"
       y="140" />
    <rect
       style="fill:#ffffff"
       id="48x48"
       width="48"
       height="48"
       x="288"
       y="220" />
    <rect
       style="fill:#ffffff"
       id="32x32"
       width="32"
       height="32"
       x="416"
       y="52" />
    <rect
       style="fill:#ffffff"
       id="24x24"
       width="24"
       height="24"
       x="416"
       y="100" />
    <rect
       style="fill:#ffffff"
       id="22x22"
       width="22"
       height="22"
       x="417"
       y="101" />
    <rect
       style="fill:#ffffff"
       id="16x16"
       width="16"
       height="16"
       x="416"
       y="140" />
  </g>
  <g
     id="Shadow">
    <rect
       style="opacity:0.2;fill:#000000"
       id="rect651"
       width="224"
       height="224"
       x="32"
       y="46"
       ry="48" />
    <rect
       style="opacity:0.2;fill:#000000"
       id="rect769"
       width="84"
       height="85"
       x="294"
       y="34"
       ry="18" />
    <rect
       style="opacity:0.2;fill:#000000;fill-opacity:1"
       id="rect1131"
       width="56"
       height="56"
       x="292"
       y="145"
       ry="12" />
    <rect
       style="opacity:0.2;fill:#000000;fill-opacity:1"
       id="rect1261"
       width="42"
       height="42"
       x="291"
       y="224"
       ry="9" />
    <rect
       style="opacity:0.2;fill:#000000;fill-opacity:1"
       id="rect1364"
       width="28"
       height="29"
       x="418"
       y="54"
       ry="6" />
    <rect
       style="opacity:0.2;fill:#000000;fill-opacity:1"
       id="rect1398"
       width="16"
       height="16"
       x="416"
       y="141"
       ry="4" />
    <rect
       style="opacity:0.2;fill:#000000;fill-opacity:1"
       id="rect1432"
       width="20"
       height="20"
       x="418"
       y="103"
       ry="4" />
  </g>
  <g
     id="Background">
    <rect
       style="fill:#4d4d4d;fill-opacity:1"
       id="rect597"
       width="224"
       height="192"
       x="32"
       y="76"
       ry="48" />
    <rect
       style="opacity:1;fill:#4d4d4d;fill-opacity:1"
       id="rect771"
       width="84"
       height="72"
       x="294"
       y="46"
       ry="18" />
    <rect
       style="opacity:1;fill:#4d4d4d;fill-opacity:1"
       id="rect1133"
       width="56"
       height="48"
       x="292"
       y="152"
       ry="12" />
    <rect
       style="opacity:1;fill:#4d4d4d;fill-opacity:1"
       id="rect1263"
       width="42"
       height="36"
       x="291"
       y="229"
       ry="9" />
    <rect
       style="opacity:1;fill:#4d4d4d;fill-opacity:1"
       id="rect1366"
       width="28"
       height="22"
       x="418"
       y="60"
       ry="6" />
    <rect
       style="opacity:1;fill:#4d4d4d;fill-opacity:1"
       id="rect1400"
       width="16"
       height="14"
       x="416"
       y="142"
       ry="4" />
    <rect
       style="opacity:1;fill:#4d4d4d;fill-opacity:1"
       id="rect1434"
       width="20"
       height="16"
       x="418"
       y="106"
       ry="4" />
  </g>
  <g
     id="Symbols">
    <g
       id="g1444">
      <rect
         style="opacity:0.2;fill:#000000;fill-opacity:1;stroke-width:5;stroke-linecap:round;stroke-linejoin:round"
         id="rect1454"
         width="16"
         height="0.5"
         x="416"
         y="144" />
      <rect
         style="opacity:0.2;fill:#000000;fill-opacity:1;stroke-width:5;stroke-linecap:round;stroke-linejoin:round"
         id="rect1452"
         width="20"
         height="1"
         x="418"
         y="106.5" />
      <rect
         style="opacity:0.2;fill:#000000;fill-opacity:1;stroke-width:5;stroke-linecap:round;stroke-linejoin:round"
         id="rect1450"
         width="28"
         height="2"
         x="418"
         y="60" />
      <rect
         style="opacity:0.2;fill:#000000;fill-opacity:1;stroke-width:5;stroke-linecap:round;stroke-linejoin:round"
         id="rect1448"
         width="42"
         height="2"
         x="291"
         y="232" />
      <rect
         style="opacity:0.2;fill:#000000;fill-opacity:1;stroke-width:5;stroke-linecap:round;stroke-linejoin:round"
         id="rect1446"
         width="56"
         height="2"
         x="292"
         y="157" />
      <rect
         style="opacity:0.2;fill:#000000;fill-opacity:1;stroke-width:5;stroke-linecap:round;stroke-linejoin:round"
         id="rect1439"
         width="84"
         height="2"
         x="294"
         y="53" />
      <rect
         style="opacity:0.2;fill:#000000;fill-opacity:1;stroke-width:5;stroke-linecap:round;stroke-linejoin:round"
         id="rect1376"
         width="224"
         height="4"
         x="32"
         y="92" />
    </g>
    <g
       id="g1385">
      <rect
         style="opacity:1;fill:#495f62;fill-opacity:1;stroke-width:0.894427"
         id="rect1565"
         width="16"
         height="11"
         x="416"
         y="-151"
         mask="url(#mask4)"
         transform="scale(1,-1)" />
      <rect
         style="opacity:1;fill:#495f62;fill-opacity:1;stroke-width:0.912871"
         id="rect1563"
         width="20"
         height="14.5"
         x="418"
         y="-116.5"
         mask="url(#mask5)"
         transform="scale(1,-1)" />
      <rect
         style="opacity:1;fill:#495f62;fill-opacity:1;stroke-width:0.935414"
         id="rect1561"
         width="28"
         height="19"
         x="418"
         y="-73"
         mask="url(#mask6)"
         transform="scale(1,-1)" />
      <rect
         style="fill:#495f62;fill-opacity:1;stroke-width:0.953463"
         id="rect1519"
         width="42"
         height="28"
         x="291"
         y="-251"
         mask="url(#mask17)"
         transform="scale(1,-1)" />
      <rect
         style="opacity:1;fill:#495f62;fill-opacity:1;stroke-width:0.411877"
         id="rect1286"
         width="56"
         height="38"
         x="292"
         y="-182"
         mask="url(#mask7)"
         transform="scale(1,-1)" />
      <rect
         style="opacity:1;fill:#495f62;fill-opacity:1;stroke-width:1.63299"
         id="rect1517"
         width="84"
         height="56"
         x="294"
         y="-90"
         mask="url(#mask16)"
         transform="scale(1,-1)" />
      <rect
         style="opacity:1;fill:#495f62;fill-opacity:1;stroke-width:1.11802"
         id="rect364"
         width="224"
         height="152"
         x="32"
         y="-196"
         mask="url(#mask12)"
         transform="scale(1,-1)" />
    </g>
    <rect
       style="opacity:0.1;fill:#000000;stroke-linecap:round;stroke-linejoin:round"
       id="rect1"
       width="16"
       height="2"
       x="416"
       y="150.5" />
    <rect
       style="opacity:1;fill:#47aebe;stroke-linecap:round;stroke-linejoin:round;fill-opacity:1"
       id="rect2"
       width="16"
       height="2"
       x="416"
       y="150" />
    <rect
       style="opacity:0.1;fill:#000000;stroke-linecap:round;stroke-linejoin:round"
       id="rect3"
       width="20"
       height="2"
       x="418"
       y="115.5" />
    <rect
       style="opacity:1;fill:#47aebe;stroke-linecap:round;stroke-linejoin:round;fill-opacity:1"
       id="rect4"
       width="20"
       height="2"
       x="418"
       y="115" />
    <rect
       style="opacity:0.1;fill:#000000;fill-opacity:1;stroke-width:0.866025;stroke-linecap:round;stroke-linejoin:round"
       id="rect9"
       width="28"
       height="3"
       x="418"
       y="73" />
    <rect
       style="opacity:1;fill:#47aebe;fill-opacity:1;stroke-linecap:round;stroke-linejoin:round"
       id="rect10"
       width="28"
       height="3"
       x="418"
       y="72" />
    <rect
       style="fill:#000000;fill-opacity:1;stroke-width:1.41421;stroke-linecap:round;stroke-linejoin:round;opacity:0.1"
       id="rect18"
       width="42"
       height="4"
       x="291"
       y="251" />
    <rect
       style="fill:#47aebe;fill-opacity:1;stroke-linecap:round;stroke-linejoin:round"
       id="rect19"
       width="42"
       height="4"
       x="291"
       y="250" />
    <rect
       style="opacity:0.1;fill:#000000;fill-opacity:1;stroke-linecap:round;stroke-linejoin:round"
       id="rect11"
       width="56"
       height="6"
       x="292"
       y="181" />
    <rect
       style="opacity:1;fill:#47aebe;fill-opacity:1;stroke-linecap:round;stroke-linejoin:round"
       id="rect12"
       width="56"
       height="6"
       x="292"
       y="180" />
    <rect
       style="opacity:0.1;fill:#000000;fill-opacity:1;stroke-width:2;stroke-linecap:round;stroke-linejoin:round"
       id="rect20"
       width="84"
       height="8"
       x="294"
       y="89" />
    <rect
       style="fill:#47aebe;fill-opacity:1;stroke-width:2;stroke-linecap:round;stroke-linejoin:round"
       id="rect21"
       width="84"
       height="8"
       x="294"
       y="88" />
    <rect
       style="opacity:0.1;fill:#000000;fill-opacity:1;stroke-width:4;stroke-linecap:round;stroke-linejoin:round"
       id="rect14"
       width="224"
       height="24"
       x="32"
       y="190" />
    <rect
       style="opacity:1;fill:#47aebe;fill-opacity:1;stroke-width:4;stroke-linecap:round;stroke-linejoin:round"
       id="rect15"
       width="224"
       height="24"
       x="32"
       y="188" />
  </g>
  <g
     id="Highlights">
    <path
       id="rect653"
       style="opacity:0.1;fill:#ffffff"
       d="M 80,44 C 53.408027,44 32,65.408027 32,92 v 2 C 32,67.408027 53.408027,46 80,46 h 128 c 26.59197,0 48,21.408027 48,48 V 92 C 256,65.408027 234.59197,44 208,44 Z"
       sodipodi:nodetypes="sscsscsss" />
    <path
       id="rect773"
       style="opacity:0.1;fill:#ffffff"
       d="m 312,34 c -9.97199,0 -18,8.02801 -18,18 v 1 c 0,-9.97199 8.02801,-18 18,-18 h 48 c 9.97199,0 18,8.02801 18,18 v -1 c 0,-9.97199 -8.02801,-18 -18,-18 z" />
    <path
       id="rect1135"
       style="opacity:0.1;fill:#ffffff;fill-opacity:1"
       d="m 304,144 c -6.64799,0 -12,5.35201 -12,12 v 1 c 0,-6.64799 5.35201,-12 12,-12 h 32 c 6.64799,0 12,5.35201 12,12 v -1 c 0,-6.64799 -5.35201,-12 -12,-12 z" />
    <path
       id="rect1265"
       style="opacity:0.1;fill:#ffffff;fill-opacity:1"
       d="m 300,223 c -4.986,0 -9,4.014 -9,9 v 1 c 0,-4.986 4.014,-9 9,-9 h 24 c 4.986,0 9,4.014 9,9 v -1 c 0,-4.986 -4.014,-9 -9,-9 z" />
    <path
       id="rect1368"
       style="opacity:0.1;fill:#ffffff;fill-opacity:1"
       d="m 424,54 c -3.324,0 -6,2.676003 -6,6 v 1 c 0,-3.323997 2.676,-6 6,-6 h 16 c 3.324,0 6,2.676003 6,6 v -1 c 0,-3.323997 -2.676,-6 -6,-6 z" />
    <path
       id="rect1402"
       style="opacity:0.1;fill:#ffffff;fill-opacity:1"
       d="m 420,140 c -2.216,0 -4,1.784 -4,4 v 1 c 0,-2.216 1.784,-4 4,-4 h 8 c 2.216,0 4,1.784 4,4 v -1 c 0,-2.216 -1.784,-4 -4,-4 z" />
    <path
       id="rect1436"
       style="opacity:0.1;fill:#ffffff;fill-opacity:1"
       d="m 422,102 c -2.216,0 -4,1.784 -4,4 v 1 c 0,-2.216 1.784,-4 4,-4 h 12 c 2.216,0 4,1.784 4,4 v -1 c 0,-2.216 -1.784,-4 -4,-4 z" />
  </g>
</svg>
