<?xml version="1.0" encoding="UTF-8" standalone="no"?>
<!-- Created with Inkscape (http://www.inkscape.org/) -->

<svg
   inkscape:export-ydpi="90.000000"
   inkscape:export-xdpi="90.000000"
   width="480"
   height="300"
   id="svg11300"
   sodipodi:version="0.32"
   inkscape:version="1.1.2 (0a00cf5339, 2022-02-04)"
   sodipodi:docname="soma.svg"
   inkscape:output_extension="org.inkscape.output.svg.inkscape"
   version="1.0"
   style="display:inline;enable-background:new"
   inkscape:export-filename="/home/sam/moka-next-template.png"
   xmlns:inkscape="http://www.inkscape.org/namespaces/inkscape"
   xmlns:sodipodi="http://sodipodi.sourceforge.net/DTD/sodipodi-0.dtd"
   xmlns:xlink="http://www.w3.org/1999/xlink"
   xmlns="http://www.w3.org/2000/svg"
   xmlns:svg="http://www.w3.org/2000/svg"
   xmlns:rdf="http://www.w3.org/1999/02/22-rdf-syntax-ns#"
   xmlns:cc="http://creativecommons.org/ns#"
   xmlns:dc="http://purl.org/dc/elements/1.1/">
  <sodipodi:namedview
     stroke="#ef2929"
     fill="#f57900"
     id="base"
     pagecolor="#ffffff"
     bordercolor="#000000"
     borderopacity="0.54509804"
     inkscape:pageopacity="0"
     inkscape:pageshadow="2"
     inkscape:zoom="1.4142136"
     inkscape:cx="378.65566"
     inkscape:cy="121.26881"
     inkscape:current-layer="layer2"
     showgrid="false"
     inkscape:grid-bbox="true"
     inkscape:document-units="px"
     inkscape:showpageshadow="false"
     inkscape:window-width="1920"
     inkscape:window-height="1008"
     inkscape:window-x="0"
     inkscape:window-y="40"
     width="400px"
     height="300px"
     inkscape:snap-nodes="true"
     inkscape:snap-bbox="true"
     gridtolerance="10000"
     inkscape:object-nodes="true"
     inkscape:snap-grids="true"
     showguides="true"
     inkscape:guide-bbox="true"
     inkscape:window-maximized="1"
     inkscape:bbox-nodes="true"
     inkscape:bbox-paths="true"
     inkscape:snap-bbox-edge-midpoints="true"
     inkscape:snap-bbox-midpoints="true"
     inkscape:pagecheckerboard="0"
     inkscape:object-paths="true"
     inkscape:snap-intersection-paths="true"
     inkscape:snap-smooth-nodes="true"
     inkscape:snap-midpoints="true"
     inkscape:snap-object-midpoints="true"
     inkscape:snap-global="true">
    <inkscape:grid
       spacingy="1"
       spacingx="1"
       id="grid5883"
       type="xygrid"
       enabled="true"
       visible="true"
       empspacing="4"
       snapvisiblegridlinesonly="true"
       dotted="false"
       color="#000000"
       opacity="0.1254902"
       empcolor="#203ef3"
       empopacity="0.36470588"
       originx="0"
       originy="0" />
    <inkscape:grid
       type="xygrid"
       id="grid11592"
       empspacing="8"
       visible="true"
       enabled="false"
       spacingx="0.5"
       spacingy="0.5"
       color="#ff0000"
       opacity="0.1254902"
       empcolor="#ff0000"
       empopacity="0.25098039"
       snapvisiblegridlinesonly="true"
       dotted="true"
       originx="0"
       originy="0" />
  </sodipodi:namedview>
  <defs
     id="defs3">
    <linearGradient
       inkscape:collect="always"
       id="linearGradient3265">
      <stop
         style="stop-color:#333333;stop-opacity:1;"
         offset="0"
         id="stop3261" />
      <stop
         style="stop-color:#333333;stop-opacity:0;"
         offset="1"
         id="stop3263" />
    </linearGradient>
    <linearGradient
       id="linearGradient905">
      <stop
         style="stop-color:#ff7139;stop-opacity:1"
         offset="0"
         id="stop901" />
      <stop
         style="stop-color:#ff7139;stop-opacity:1"
         offset="1"
         id="stop903" />
    </linearGradient>
    <linearGradient
       id="linearGradient3984">
      <stop
         id="stop3986"
         offset="0"
         style="stop-color:#f57d33;stop-opacity:1" />
      <stop
         id="stop3988"
         offset="1"
         style="stop-color:#faa653;stop-opacity:1;" />
    </linearGradient>
    <linearGradient
       inkscape:collect="always"
       xlink:href="#linearGradient3265"
       id="linearGradient3267"
       x1="34.5"
       y1="156"
       x2="253.5"
       y2="156"
       gradientUnits="userSpaceOnUse" />
    <linearGradient
       inkscape:collect="always"
       xlink:href="#linearGradient3265"
       id="linearGradient4051"
       x1="292.5"
       y1="76"
       x2="379.5"
       y2="76"
       gradientUnits="userSpaceOnUse" />
    <linearGradient
       inkscape:collect="always"
       xlink:href="#linearGradient3265"
       id="linearGradient5158"
       x1="290.5"
       y1="172"
       x2="349.5"
       y2="172"
       gradientUnits="userSpaceOnUse" />
    <linearGradient
       inkscape:collect="always"
       xlink:href="#linearGradient3265"
       id="linearGradient5757"
       x1="291.5"
       y1="244"
       x2="332.5"
       y2="244"
       gradientUnits="userSpaceOnUse" />
    <linearGradient
       inkscape:collect="always"
       xlink:href="#linearGradient3265"
       id="linearGradient6194"
       x1="417.5"
       y1="68"
       x2="446.5"
       y2="68"
       gradientUnits="userSpaceOnUse" />
    <linearGradient
       inkscape:collect="always"
       xlink:href="#linearGradient3265"
       id="linearGradient6196"
       x1="417.5"
       y1="112"
       x2="438.5"
       y2="112"
       gradientUnits="userSpaceOnUse" />
    <linearGradient
       inkscape:collect="always"
       xlink:href="#linearGradient3265"
       id="linearGradient6198"
       x1="416.5"
       y1="148"
       x2="431.5"
       y2="148"
       gradientUnits="userSpaceOnUse" />
  </defs>
  <metadata
     id="metadata4">
    <rdf:RDF>
      <cc:Work
         rdf:about="">
        <dc:format>image/svg+xml</dc:format>
        <dc:type
           rdf:resource="http://purl.org/dc/dcmitype/StillImage" />
        <dc:creator>
          <cc:Agent>
            <dc:title>Sam Hewitt</dc:title>
          </cc:Agent>
        </dc:creator>
        <dc:source />
        <cc:license
           rdf:resource="" />
        <dc:subject>
          <rdf:Bag />
        </dc:subject>
        <dc:date />
        <dc:rights>
          <cc:Agent>
            <dc:title />
          </cc:Agent>
        </dc:rights>
        <dc:publisher>
          <cc:Agent>
            <dc:title />
          </cc:Agent>
        </dc:publisher>
        <dc:identifier />
        <dc:relation />
        <dc:language />
        <dc:coverage />
        <dc:description />
        <dc:contributor>
          <cc:Agent>
            <dc:title />
          </cc:Agent>
        </dc:contributor>
      </cc:Work>
      <cc:Work
         rdf:about="">
        <dc:format>image/svg+xml</dc:format>
        <dc:type
           rdf:resource="http://purl.org/dc/dcmitype/StillImage" />
      </cc:Work>
    </rdf:RDF>
  </metadata>
  <g
     style="display:inline"
     inkscape:groupmode="layer"
     inkscape:label="Icon"
     id="layer1">
    <g
       style="display:none"
       inkscape:label="Baseplate"
       id="layer7"
       inkscape:groupmode="layer">
      <text
         y="19.745117"
         xml:space="preserve"
         x="15.006836"
         style="font-style:normal;font-variant:normal;font-weight:normal;font-stretch:normal;line-height:0%;font-family:'DejaVu Sans';-inkscape-font-specification:'DejaVu Sans';display:inline;fill:#000000;fill-opacity:1;stroke:none;enable-background:new"
         inkscape:label="context"
         id="context"><tspan
           style="font-style:normal;font-variant:normal;font-weight:normal;font-stretch:normal;font-size:18px;line-height:1.25;font-family:'DejaVu Sans';-inkscape-font-specification:'DejaVu Sans'"
           y="19.745117"
           x="15.006836"
           sodipodi:role="line"
           id="tspan3933">apps</tspan></text>
      <text
         y="19.745117"
         xml:space="preserve"
         x="122.48828"
         style="font-style:normal;font-variant:normal;font-weight:bold;font-stretch:normal;line-height:0%;font-family:'DejaVu Sans';-inkscape-font-specification:'DejaVu Sans Bold';text-align:start;writing-mode:lr-tb;text-anchor:start;display:inline;fill:#000000;fill-opacity:1;stroke:none;enable-background:new"
         inkscape:label="icon-name"
         id="icon-name"><tspan
           style="font-style:normal;font-variant:normal;font-weight:bold;font-stretch:normal;font-size:18px;line-height:1.25;font-family:'DejaVu Sans';-inkscape-font-specification:'DejaVu Sans Bold'"
           y="19.745117"
           x="122.48828"
           sodipodi:role="line"
           id="tspan3937">sheet</tspan></text>
      <rect
         style="fill:#eeeeec;fill-opacity:1;fill-rule:nonzero;stroke:none;stroke-width:2;marker:none;visibility:visible;display:inline;overflow:visible;enable-background:accumulate"
         id="rect16x16"
         width="16"
         height="16"
         x="416"
         y="140"
         inkscape:label="16x16" />
      <rect
         style="fill:#d4d4d4;fill-opacity:1;fill-rule:nonzero;stroke:none;stroke-width:2;marker:none;visibility:visible;display:inline;overflow:visible;enable-background:accumulate"
         id="rect24x24"
         width="24"
         height="24"
         x="416"
         y="100"
         inkscape:label="24x24" />
      <rect
         style="fill:#eeeeec;fill-opacity:1;fill-rule:nonzero;stroke:none;stroke-width:2;marker:none;visibility:visible;display:inline;overflow:visible;enable-background:accumulate"
         id="rect32x32"
         width="32"
         height="32"
         x="416"
         y="52"
         inkscape:label="32x32" />
      <rect
         inkscape:label="22x22"
         y="101"
         x="417"
         height="22"
         width="22"
         id="rect22x22"
         style="fill:#eeeeec;fill-opacity:1;fill-rule:nonzero;stroke:none;stroke-width:2;marker:none;visibility:visible;display:inline;overflow:visible;enable-background:accumulate" />
      <rect
         inkscape:label="48x48"
         y="220"
         x="288"
         height="48"
         width="48"
         id="rect48x48"
         style="fill:#eeeeec;fill-opacity:1;fill-rule:nonzero;stroke:none;stroke-width:2;marker:none;visibility:visible;display:inline;overflow:visible;enable-background:accumulate" />
      <rect
         style="fill:#eeeeec;fill-opacity:1;fill-rule:nonzero;stroke:none;stroke-width:2;marker:none;visibility:visible;display:inline;overflow:visible;enable-background:accumulate"
         id="rect256x256"
         width="256"
         height="256"
         x="16"
         y="28"
         inkscape:label="256x256" />
      <rect
         style="fill:#eeeeec;fill-opacity:1;fill-rule:nonzero;stroke:none;stroke-width:2;marker:none;visibility:visible;display:inline;overflow:visible;enable-background:accumulate"
         id="rect64x64"
         width="64"
         height="64"
         x="288"
         y="140"
         inkscape:label="64x64" />
      <rect
         style="fill:#eeeeec;fill-opacity:1;fill-rule:nonzero;stroke:none;stroke-width:2;marker:none;visibility:visible;display:inline;overflow:visible;enable-background:accumulate"
         id="rect96x96"
         width="96"
         height="96"
         x="288"
         y="28"
         inkscape:label="96x96" />
    </g>
    <g
       inkscape:groupmode="layer"
       id="layer4"
       inkscape:label="Shadow"
       style="display:inline"
       sodipodi:insensitive="true">
      <rect
         ry="50"
         y="47"
         x="34"
         height="220"
         width="220"
         id="rect4114"
         style="opacity:0.1;color:#bebebe;fill:#000000;fill-opacity:1;fill-rule:nonzero;stroke:none;stroke-width:0;marker:none;visibility:visible;display:inline;overflow:visible;enable-background:accumulate" />
      <rect
         style="opacity:0.1;color:#bebebe;fill:#000000;fill-opacity:1;fill-rule:nonzero;stroke:none;stroke-width:0;marker:none;visibility:visible;display:inline;overflow:visible;enable-background:accumulate"
         id="rect4120"
         width="30"
         height="30"
         x="417"
         y="54"
         ry="7" />
      <rect
         transform="scale(1,-1)"
         ry="9"
         y="-266"
         x="291"
         height="42"
         width="42"
         id="rect4122"
         style="opacity:0.1;color:#bebebe;fill:#000000;fill-opacity:1;fill-rule:nonzero;stroke:none;stroke-width:0;marker:none;visibility:visible;display:inline;overflow:visible;enable-background:accumulate" />
      <rect
         style="opacity:0.1;color:#bebebe;fill:#000000;fill-opacity:1;fill-rule:nonzero;stroke:none;stroke-width:0;marker:none;visibility:visible;display:inline;overflow:visible;enable-background:accumulate"
         id="rect4124"
         width="88"
         height="88"
         x="292"
         y="33"
         ry="18" />
      <rect
         ry="12.5"
         y="143"
         x="290"
         height="60"
         width="60"
         id="rect4126"
         style="opacity:0.1;color:#bebebe;fill:#000000;fill-opacity:1;fill-rule:nonzero;stroke:none;stroke-width:0;marker:none;visibility:visible;display:inline;overflow:visible;enable-background:accumulate" />
      <path
         id="path4268"
         d="m 422,101 c -2.77,0 -5,2.23 -5,5 l 0,12 c 0,2.77 2.23,5 5,5 l 12,0 c 2.77,0 5,-2.23 5,-5 l 0,-12 c 0,-2.77 -2.23,-5 -5,-5 z"
         style="opacity:0.1;color:#bebebe;fill:#000000;fill-opacity:1;fill-rule:nonzero;stroke:none;stroke-width:0;marker:none;visibility:visible;display:inline;overflow:visible;enable-background:accumulate"
         inkscape:connector-curvature="0"
         sodipodi:nodetypes="sssssssss" />
      <path
         id="path4270"
         d="m 419,140 c -1.662,0 -3,1.338 -3,3 l 0,10 c 0,1.662 1.338,3 3,3 l 10,0 c 1.662,0 3,-1.338 3,-3 l 0,-10 c 0,-1.662 -1.338,-3 -3,-3 z"
         style="opacity:0.1;color:#bebebe;fill:#000000;fill-opacity:1;fill-rule:nonzero;stroke:none;stroke-width:0;marker:none;visibility:visible;display:inline;overflow:visible;enable-background:accumulate"
         inkscape:connector-curvature="0"
         sodipodi:nodetypes="sssssssss" />
    </g>
    <g
       inkscape:groupmode="layer"
       id="layer2"
       inkscape:label="Background"
       style="display:inline">
      <g
         id="g2449">
        <g
           id="g1061">
          <path
             style="color:#bebebe;display:inline;overflow:visible;visibility:visible;fill:#567663;fill-opacity:1;fill-rule:nonzero;stroke:none;stroke-width:2;marker:none;enable-background:accumulate"
             d="M 84,46.5 C 56.568735,46.5 34.5,68.568732 34.5,96 v 120 c 0,27.43127 22.068735,49.5 49.5,49.5 h 120 c 27.43127,0 49.5,-22.06873 49.5,-49.5 V 96 C 253.5,68.568732 231.43127,46.5 204,46.5 Z"
             id="path4200" />
          <path
             style="color:#bebebe;display:inline;overflow:visible;visibility:visible;fill:url(#linearGradient3267);fill-opacity:1;fill-rule:nonzero;stroke:none;stroke-width:2;marker:none;enable-background:accumulate"
             d="M 84,46.5 C 56.56874,46.5 34.5,68.56873 34.5,96 v 120 c 0,27.43127 22.06874,49.5 49.5,49.5 h 120 c 27.43127,0 49.5,-22.06873 49.5,-49.5 V 96 C 253.5,68.56873 231.43127,46.5 204,46.5 Z"
             id="path3241" />
          <path
             id="path839"
             style="fill:#f9f9f9;fill-opacity:1;stroke-width:0.0840549"
             d="m 180.2883,80.987793 c -2.09323,0.003 -8.58819,0.29827 -12.08304,0.55036 -11.4099,0.82567 -21.6747,2.7171 -32.31755,5.95151 -0.53124,0.16145 -0.98572,0.28301 -1.00558,0.25468 -0.0866,-0.0861 -0.12152,-1.40057 -0.14199,-3.64174 H 130.57 c -0.01,1.95177 -0.0157,4.42641 -0.0351,4.61219 -0.0442,0.42289 -0.0888,0.53916 -0.23128,0.59866 -0.097,0.0404 -0.66805,0.24874 -1.26905,0.46401 -1.68008,0.59849 -7.07036,2.76492 -9.41466,3.78519 l -1.82087,0.79333 v 4.50242 l 8.43105,0.006 -2.00092,1.343687 c -3.70055,2.48607 -4.67193,3.22022 -6.43013,4.85371 l -1.06414,0.98801 h -8.02559 -8.02558 l -2.469306,2.46052 c -4.100961,4.0816 -6.538484,6.97452 -9.11607,10.82131 -5.731692,8.55436 -9.778338,18.80921 -12.345049,31.28855 l -0.444964,2.16485 h 5.907585 5.907586 l -0.153689,0.69381 c -0.299172,1.35448 -0.360533,2.336 -0.409839,6.57651 l -0.04836,4.20381 -9.771817,0.0278 -9.771817,0.0278 v 1.05095 1.04949 h 3.993035 3.993041 v 0.96752 0.96606 h -5.977845 -5.976384 l 0.05123,0.31617 c 0.02863,0.17335 0.07479,1.10009 0.103922,2.05945 l 0.05269,1.7433 h 9.776209 c 9.238463,0 9.777209,0.009 9.815731,0.14784 0.02241,0.0807 0.06505,0.37378 0.09514,0.65135 0.03005,0.2773 0.167422,1.2978 0.305917,2.26878 2.155264,15.1376 8.510673,27.68415 18.946444,37.39813 4.67007,4.34729 10.4131,8.2249 16.59862,11.20919 2.99327,1.44457 4.59487,2.09608 8.43836,3.43244 1.2431,0.43196 2.2829,0.80746 2.31123,0.83579 0.006,0.006 0.01,2.13954 0.0161,2.60103 h 4.27407 c 0.003,-0.15035 0.006,-1.4105 0.009,-1.41395 0.0231,-0.0229 0.8175,0.10706 1.76524,0.28834 5.01485,0.96021 6.50751,1.12561 10.29583,1.12561 3.12329,5.7e-4 3.9602,-0.054 7.27179,-0.46839 5.68762,-0.71152 10.3642,-1.7573 15.22711,-3.40609 12.46327,-4.2269 22.71881,-11.58995 30.42495,-21.84607 6.23823,-8.30171 10.81847,-18.87443 12.17233,-28.09471 0.18423,-1.25507 0.42381,-3.74065 0.42448,-4.40288 l 0.002,-0.38789 -0.44205,-0.0527 c -0.24271,-0.0255 -4.7287,-0.0542 -9.96942,-0.0542 h -9.52883 l 0.0629,-0.31617 c 0.0352,-0.17306 0.16425,-1.01376 0.28689,-1.86918 l 0.22249,-1.55593 5.85928,-0.0278 5.85929,-0.0278 v -1.97456 -1.97602 h 9.63569 9.63569 l -0.0513,-0.52549 c -0.0286,-0.28919 -0.16628,-2.5857 -0.30591,-5.10546 -0.25224,-4.5518 -0.3643,-6.05937 -0.464,-6.22082 -0.0338,-0.0509 -1.85694,-0.082 -5.20354,-0.082 -2.83344,0 -5.44014,-0.026 -5.79196,-0.0572 l -0.63964,-0.0557 -0.0849,-0.43033 c -0.0464,-0.23623 -0.23758,-1.2607 -0.42594,-2.27756 -1.45128,-7.83604 -3.76265,-14.98328 -6.7668,-20.92978 -1.10562,-2.18838 -1.81041,-3.40146 -3.30069,-5.67339 -3.75735,-5.72897 -6.98022,-9.22151 -13.55262,-14.68846 -1.41001,-1.17293 -2.57655,-2.16465 -2.58787,-2.20145 -0.0134,-0.0368 3.33385,-0.10087 7.43865,-0.14051 l 7.46353,-0.0747 -1.09194,-0.65283 c -3.11986,-1.86376 -6.54169,-3.31492 -13.45016,-5.704127 l -2.52053,-0.87091 4.18332,-0.0293 4.18186,-0.0278 -0.022,-2.1224 -0.022,-2.12093 -23.12978,-0.0424 c -12.72103,-0.0227 -23.15633,-0.0685 -23.18976,-0.10247 -0.0844,-0.0841 0.18257,-0.17564 2.01555,-0.69087 9.64404,-2.71154 16.6306,-3.63626 31.44225,-4.16283 1.38689,-0.0509 2.75855,-0.10778 3.04747,-0.13613 l 0.52548,-0.0453 v -4.19649 -4.1965 z m -31.99115,45.753067 c 0.55825,-0.002 1.07716,0.0179 1.54277,0.06 5.1095,0.46141 9.6234,1.66778 13.53066,3.61539 2.83577,1.41341 4.93875,2.92154 7.14883,5.12889 3.88655,3.88162 6.49016,8.62142 8.27735,15.06757 0.25993,0.93755 0.49097,1.76342 0.51084,1.8399 0.0316,0.11049 -0.0621,0.13885 -0.55621,0.17564 -0.32642,0.0227 -0.61101,0.0508 -0.63087,0.079 -0.0212,0.0213 0.14486,0.45253 0.37032,0.95727 0.83901,1.87794 1.37366,4.18661 1.68914,7.30545 0.12237,1.2089 0.2455,3.34727 0.1976,3.42657 -0.0206,0.0341 -1.6803,0.0614 -3.68858,0.0614 -2.86183,0 -3.65185,0.0232 -3.65784,0.10538 -0.004,0.0578 -0.088,0.93453 -0.18882,1.94968 -0.18154,1.83032 -0.18527,1.8448 -0.39374,1.90431 -0.11558,0.0283 -0.9708,0.0375 -1.89991,0.0659 l -1.68914,0.0278 0.0673,-0.44057 c 0.0653,-0.43054 0.32788,-3.45048 0.32788,-3.77055 0,-0.16713 -0.10928,-0.16739 -4.01206,-0.13906 l -4.01061,0.0278 -0.22688,1.72281 c -0.12491,0.94774 -0.22819,1.88011 -0.23419,2.07556 -0.006,0.33848 0.005,0.34931 0.2664,0.37763 0.25919,0.025 0.27304,0.0441 0.27079,0.363 -0.002,0.18469 -0.13176,1.02534 -0.28982,1.86772 -0.158,0.84209 -0.26031,1.55712 -0.22688,1.59107 0.0332,0.0369 1.53526,0.0712 3.3373,0.0995 2.87051,0.034 3.2758,0.0536 3.2758,0.16686 0,0.42119 -1.18796,3.38611 -1.86039,4.64146 -1.21374,2.26628 -3.4294,4.89535 -5.78024,6.86195 -3.56377,2.98061 -7.60104,4.75799 -11.90154,5.23866 -0.46231,0.0538 -1.00075,0.11076 -1.19733,0.13905 l -0.35715,0.0424 v 3.83203 3.83202 l 1.49155,-0.06 c 3.54192,-0.13568 6.12024,-0.58336 8.88333,-1.5413 5.90767,-2.04872 10.97403,-6.01481 14.6226,-11.44778 2.16007,-3.21656 3.83183,-6.97373 4.68684,-10.53588 l 0.27811,-1.15634 h 1.81355 c 2.21559,0 2.18474,-0.0104 2.02726,0.76991 -0.16947,0.83983 -0.82449,3.07754 -1.33346,4.55951 -1.42055,4.13569 -3.56896,8.03797 -6.23107,11.31458 -1.58431,1.94959 -4.23113,4.388 -6.31889,5.82123 -4.87968,3.34969 -10.77753,5.30173 -17.18851,5.6895 l 0.002,-0.0234 c -0.78587,0.0482 -1.67404,0.10444 -1.97457,0.0761 -3.26222,-0.0672 -7.91592,-1.1178 -11.17992,-2.5264 -0.53163,-0.23141 -1.01367,-0.43273 -1.07144,-0.46106 -0.0825,-0.0346 -0.10539,-2.64302 -0.10539,-12.64365 v -12.5982 h -2.058 -2.05652 l -0.0235,11.21652 c -0.0167,8.00657 -0.0485,11.24506 -0.11417,11.31019 -0.27229,0.27248 -4.11132,-3.10753 -6.10958,-5.37918 -3.87044,-4.39997 -6.32073,-9.18288 -7.87922,-15.37496 -0.2258,-0.89762 -0.4596,-1.66405 -0.51962,-1.70085 -0.0602,-0.0368 -0.28986,-0.0702 -0.50938,-0.0702 h -0.39813 v -2.05945 -2.05946 h -2.01848 -2.01702 v 2.05946 2.05945 h -7.30103 -7.30106 l -0.13759,-0.44204 c -0.135787,-0.43818 -0.249894,-1.36375 -0.342515,-2.77376 l -0.04836,-0.73479 h 5.938335 5.93977 l -0.0527,-0.81968 c -0.0294,-0.45093 -0.0786,-1.3014 -0.10977,-1.89114 l -0.0571,-1.07144 h 7.70358 7.70504 v 1.97457 1.97602 h 1.93211 1.93358 l 0.002,-0.31617 c 0.003,-1.28849 0.19206,-6.10167 0.29714,-7.54256 0.15281,-2.09603 0.34359,-3.61478 0.78016,-6.19887 0.17788,-1.0517 0.30367,-1.92721 0.28103,-1.95554 -0.0234,-0.0141 -2.64631,-0.0424 -5.82854,-0.0424 -5.18024,0 -5.78609,-0.0141 -5.78609,-0.13026 0,-0.23822 0.76209,-2.40221 1.53544,-4.36483 1.37647,-3.49415 3.29082,-7.0138 5.22549,-9.60495 1.02185,-1.36837 3.02554,-3.48069 4.53462,-4.78052 1.06632,-0.91801 2.56106,-2.00265 2.64349,-1.92334 0.0312,0.0314 0.0692,4.83947 0.0805,10.68372 l 0.0264,10.62517 h 2.05507 2.05653 l 0.019,-11.78444 0.0205,-11.78589 0.67183,-0.28104 c 3.12298,-1.30934 8.96723,-2.34136 12.87492,-2.35367 z m -2.05213,3.53196 c -0.0828,-2.8e-4 -0.10539,0.90301 -0.10539,4.24334 0,2.33453 0.0283,4.24452 0.0629,4.2448 0.0347,0 0.66697,0.0395 1.40664,0.0849 4.16728,0.26058 7.28541,1.03276 10.22996,2.5337 4.07971,2.07932 6.89669,5.34212 8.93457,10.34853 l 0.40253,0.98215 h 4.0223 c 3.16272,0 4.02378,-0.0189 4.02378,-0.10099 -0.002,-0.51806 -1.17772,-4.19157 -1.78135,-5.56362 -4.49449,-10.21306 -13.29707,-15.92824 -25.70445,-16.68791 -0.76279,-0.0482 -1.43374,-0.0849 -1.49153,-0.0849 z m -0.10392,22.42717 -2.03898,0.0293 -2.0375,0.0278 -0.0234,5.79928 c -0.0132,3.18993 -0.005,5.84661 0.0175,5.90612 l 0.003,-0.0117 c 0.0306,0.0765 0.52094,0.10393 2.05945,0.10393 h 2.01994 v -5.92662 z m 42.92222,0.14052 h 1.90284 l 0.19468,0.57964 c 0.62908,1.85952 1.32823,6.52184 1.43444,9.57129 l 0.0527,1.49592 -1.08462,-0.0278 c -1.45675,-0.0198 -2.8672,-0.10012 -2.93037,-0.16247 -0.0284,-0.0286 -0.089,-0.80338 -0.13466,-1.7228 -0.15268,-3.07381 -0.68325,-6.88134 -1.23099,-8.83943 -0.11979,-0.42828 -0.19276,-0.80315 -0.16248,-0.83432 0.0304,-0.0284 0.91195,-0.0317 1.95846,-0.06 z m -40.13822,15.3852 c -0.16435,0.16401 -0.93679,3.56655 -0.93679,4.12624 v 0.0102 c 0,0.0878 0.71862,0.11564 4.37067,0.11564 h 4.37069 v -0.21519 c 0,-0.43026 0.27909,-2.11752 0.50059,-3.02845 l 0.22687,-0.93239 -4.25065,-0.0483 c -2.33798,-0.0566 -4.26438,-0.0562 -4.28138,-0.0278 z" />
        </g>
        <g
           id="g1322">
          <path
             style="color:#bebebe;display:inline;overflow:visible;visibility:visible;fill:#567663;fill-opacity:1;fill-rule:nonzero;stroke:none;stroke-width:2;marker:none;enable-background:accumulate"
             d="m 424,53.5 c -3.60654,0 -6.5,2.893464 -6.5,6.5 v 16 c 0,3.606536 2.89346,6.5 6.5,6.5 h 16 c 3.60654,0 6.5,-2.893464 6.5,-6.5 V 60 c 0,-3.606536 -2.89346,-6.5 -6.5,-6.5 z"
             id="path4206" />
          <path
             style="color:#bebebe;display:inline;overflow:visible;visibility:visible;fill:url(#linearGradient6194);fill-opacity:1;fill-rule:nonzero;stroke:none;stroke-width:2;marker:none;enable-background:accumulate"
             d="m 424,53.5 c -3.60654,0 -6.5,2.893464 -6.5,6.5 v 16 c 0,3.606536 2.89346,6.5 6.5,6.5 h 16 c 3.60654,0 6.5,-2.893464 6.5,-6.5 V 60 c 0,-3.606536 -2.89346,-6.5 -6.5,-6.5 z"
             id="path6182" />
          <path
             id="path1067"
             style="fill:#f9f9f9;fill-opacity:1;stroke-width:0.0111306"
             d="m 436.80545,58.06705 c -0.27718,4e-4 -1.13725,0.0395 -1.60003,0.0729 -1.5109,0.10933 -2.87017,0.3598 -4.2795,0.7881 -0.0703,0.0214 -0.13053,0.0375 -0.13316,0.0337 -0.0115,-0.0114 -0.0161,-0.18546 -0.0188,-0.48224 h -0.55221 c -10e-4,0.25846 -0.002,0.58615 -0.005,0.61075 -0.006,0.056 -0.0118,0.0714 -0.0306,0.0793 -0.0129,0.005 -0.0885,0.0329 -0.16805,0.0614 -0.22248,0.0793 -0.93626,0.36613 -1.24669,0.50123 l -0.24112,0.10506 v 0.59621 l 1.11644,7.9e-4 -0.26496,0.17793 c -0.49002,0.32921 -0.61865,0.42643 -0.85147,0.64273 l -0.14092,0.13084 h -1.06275 -1.06274 l -0.327,0.32582 c -0.54305,0.54048 -0.86582,0.92356 -1.20715,1.43296 -0.75899,1.13277 -1.29485,2.49071 -1.63473,4.14323 l -0.0589,0.28667 h 0.78228 0.78229 l -0.0204,0.0919 c -0.0396,0.17936 -0.0477,0.30934 -0.0543,0.87087 l -0.006,0.55666 -1.29399,0.004 -1.29398,0.004 V 69.24102 69.38 h 0.52876 0.52875 v 0.12812 0.12792 h -0.79158 -0.7914 l 0.007,0.0419 c 0.004,0.023 0.01,0.14567 0.0138,0.27271 l 0.007,0.23085 h 1.29456 c 1.22336,0 1.29469,0.001 1.2998,0.0196 0.003,0.0107 0.009,0.0495 0.0126,0.0862 0.004,0.0367 0.0222,0.17185 0.0405,0.30043 0.2854,2.00452 1.12699,3.66594 2.50889,4.95226 0.61841,0.57567 1.3789,1.08915 2.19799,1.48433 0.39637,0.19129 0.60845,0.27756 1.11741,0.45452 0.16461,0.0572 0.3023,0.10692 0.30605,0.11068 8e-4,7.9e-4 0.001,0.28331 0.002,0.34442 h 0.56597 c 4e-4,-0.0199 7.9e-4,-0.18677 0.001,-0.18723 0.003,-0.003 0.10825,0.0142 0.23375,0.0382 0.66407,0.12715 0.86173,0.14905 1.36338,0.14905 0.41358,8e-5 0.52441,-0.007 0.96293,-0.062 0.75315,-0.0942 1.37243,-0.2327 2.01637,-0.45103 1.65039,-0.55973 3.00843,-1.53475 4.02888,-2.89286 0.82607,-1.09932 1.43258,-2.49936 1.61186,-3.72031 0.0244,-0.16619 0.0561,-0.49533 0.0562,-0.58303 l 2.6e-4,-0.0514 -0.0585,-0.007 c -0.0321,-0.003 -0.62618,-0.007 -1.32015,-0.007 h -1.26181 l 0.008,-0.0419 c 0.005,-0.0229 0.0217,-0.13425 0.038,-0.24752 l 0.0295,-0.20604 0.7759,-0.004 0.77587,-0.004 V 69.3944 69.13273 h 1.27596 1.27596 l -0.007,-0.0696 c -0.004,-0.0383 -0.022,-0.3424 -0.0405,-0.67607 -0.0334,-0.60275 -0.0482,-0.80238 -0.0614,-0.82376 -0.004,-0.007 -0.2459,-0.0109 -0.68906,-0.0109 -0.3752,0 -0.72037,-0.003 -0.76697,-0.008 l -0.0847,-0.007 -0.0112,-0.057 c -0.006,-0.0313 -0.0315,-0.16694 -0.0564,-0.3016 -0.19216,-1.03765 -0.49824,-1.98408 -0.89605,-2.77152 -0.14641,-0.28979 -0.23973,-0.45042 -0.43707,-0.75127 -0.49755,-0.75863 -0.92433,-1.22111 -1.79465,-1.94505 -0.18671,-0.15532 -0.34118,-0.28664 -0.34269,-0.29151 -0.002,-0.005 0.44147,-0.0134 0.98503,-0.0186 l 0.98832,-0.01 -0.14459,-0.0865 c -0.41314,-0.2468 -0.86626,-0.43896 -1.78107,-0.75534 l -0.33378,-0.11533 0.55397,-0.004 0.55376,-0.004 -0.003,-0.28105 -0.003,-0.28085 -3.06285,-0.006 c -1.68452,-0.003 -3.06636,-0.009 -3.07079,-0.0136 -0.0112,-0.0111 0.0242,-0.0233 0.2669,-0.0915 1.27706,-0.35906 2.20222,-0.48151 4.16358,-0.55124 0.18366,-0.007 0.36529,-0.0143 0.40355,-0.018 l 0.0696,-0.006 v -0.5557 -0.5557 z m -4.23627,6.05863 c 0.0739,-2.7e-4 0.14264,0.002 0.2043,0.008 0.6766,0.0611 1.27433,0.22085 1.79173,0.47875 0.37551,0.18717 0.65399,0.38687 0.94665,0.67917 0.51465,0.514 0.85942,1.14165 1.09608,1.99525 0.0344,0.12415 0.065,0.23351 0.0677,0.24364 0.004,0.0146 -0.008,0.0184 -0.0736,0.0233 -0.0432,0.003 -0.0809,0.007 -0.0835,0.0105 -0.003,0.003 0.0192,0.0599 0.049,0.12676 0.1111,0.24868 0.1819,0.55439 0.22368,0.96739 0.0162,0.16008 0.0325,0.44324 0.0262,0.45374 -0.003,0.005 -0.22251,0.008 -0.48845,0.008 -0.37896,0 -0.48358,0.003 -0.48437,0.0139 -5.3e-4,0.008 -0.0116,0.12375 -0.025,0.25818 -0.024,0.24237 -0.0245,0.24429 -0.0521,0.25217 -0.0153,0.004 -0.12855,0.005 -0.25159,0.009 l -0.22367,0.004 0.009,-0.0583 c 0.009,-0.057 0.0434,-0.45691 0.0434,-0.49929 0,-0.0221 -0.0145,-0.0222 -0.53128,-0.0184 l -0.53109,0.004 -0.03,0.22814 c -0.0165,0.1255 -0.0302,0.24896 -0.031,0.27484 -8e-4,0.0448 6.6e-4,0.0463 0.0353,0.05 0.0343,0.003 0.0362,0.006 0.0359,0.0481 -2.6e-4,0.0245 -0.0174,0.13577 -0.0384,0.24732 -0.0209,0.11151 -0.0345,0.2062 -0.0301,0.21069 0.004,0.005 0.2033,0.009 0.44193,0.0132 0.38011,0.005 0.43378,0.007 0.43378,0.0221 0,0.0558 -0.15731,0.44839 -0.24635,0.61463 -0.16073,0.3001 -0.45412,0.64824 -0.76542,0.90866 -0.47192,0.39469 -1.00653,0.63005 -1.57601,0.6937 -0.0612,0.007 -0.13252,0.0147 -0.15855,0.0184 l -0.0473,0.006 v 0.50743 0.50744 l 0.19751,-0.008 c 0.46902,-0.018 0.81044,-0.0772 1.17633,-0.2041 0.7823,-0.2713 1.45318,-0.79649 1.93633,-1.51592 0.28603,-0.42594 0.50741,-0.92346 0.62063,-1.39516 l 0.0368,-0.15312 h 0.24015 c 0.29339,0 0.28931,-0.001 0.26845,0.10195 -0.0224,0.11121 -0.10918,0.40753 -0.17658,0.60377 -0.18811,0.54765 -0.4726,1.06439 -0.82512,1.49828 -0.20979,0.25816 -0.56029,0.58106 -0.83675,0.77084 -0.64616,0.44357 -1.42716,0.70206 -2.2761,0.75341 l 2.6e-4,-0.003 c -0.10406,0.006 -0.22167,0.0138 -0.26147,0.0101 -0.43198,-0.009 -1.04822,-0.14802 -1.48043,-0.33455 -0.0704,-0.0306 -0.13423,-0.0573 -0.14189,-0.061 -0.0109,-0.005 -0.014,-0.34999 -0.014,-1.67428 v -1.66825 h -0.27252 -0.27233 l -0.003,1.48529 c -0.002,1.06023 -0.006,1.48907 -0.0151,1.4977 -0.0361,0.0361 -0.54442,-0.4115 -0.80903,-0.71231 -0.51252,-0.58265 -0.83699,-1.216 -1.04336,-2.03596 -0.0299,-0.11886 -0.0609,-0.22035 -0.0688,-0.22522 -0.008,-0.005 -0.0384,-0.009 -0.0675,-0.009 h -0.0527 v -0.27271 -0.27272 h -0.26729 -0.2671 v 0.27272 0.27271 h -0.9668 -0.96681 l -0.0182,-0.0585 c -0.018,-0.058 -0.0331,-0.18058 -0.0453,-0.3673 l -0.006,-0.0973 h 0.78636 0.78654 l -0.007,-0.10854 c -0.004,-0.0597 -0.0104,-0.17233 -0.0145,-0.25042 l -0.008,-0.14189 h 1.02011 1.02031 v 0.26148 0.26166 h 0.25585 0.25604 l 2.7e-4,-0.0419 c 4e-4,-0.17063 0.0254,-0.80799 0.0394,-0.99879 0.0202,-0.27756 0.0455,-0.47867 0.10331,-0.82086 0.0236,-0.13926 0.0402,-0.2552 0.0372,-0.25895 -0.003,-0.002 -0.35042,-0.006 -0.77182,-0.006 -0.68597,0 -0.76619,-0.002 -0.76619,-0.0172 0,-0.0316 0.10091,-0.3181 0.20332,-0.57799 0.18227,-0.4627 0.43577,-0.92877 0.69196,-1.27189 0.13532,-0.1812 0.40064,-0.46092 0.60048,-0.63304 0.1412,-0.12156 0.33913,-0.26519 0.35005,-0.25469 0.004,0.004 0.009,0.64085 0.0107,1.41474 l 0.003,1.40699 h 0.27214 0.27231 l 0.003,-1.5605 0.003,-1.56069 0.089,-0.0372 c 0.41354,-0.17339 1.18744,-0.31005 1.7049,-0.31168 z m -0.27174,0.4677 c -0.011,-4e-5 -0.014,0.11958 -0.014,0.5619 0,0.30914 0.004,0.56206 0.008,0.5621 0.005,0 0.0883,0.005 0.18627,0.0112 0.55183,0.0345 0.96473,0.13676 1.35465,0.33551 0.54024,0.27535 0.91326,0.70741 1.18312,1.37036 l 0.0533,0.13005 h 0.53263 c 0.41881,0 0.53283,-0.002 0.53283,-0.0134 -2.6e-4,-0.0686 -0.15595,-0.55505 -0.23588,-0.73673 -0.59516,-1.35242 -1.7608,-2.10922 -3.40379,-2.20982 -0.10101,-0.006 -0.18985,-0.0112 -0.19751,-0.0112 z m -0.0138,2.96981 -0.27,0.004 -0.26981,0.004 -0.003,0.76794 c -0.002,0.42241 -6.6e-4,0.77421 0.002,0.78209 l 4e-4,-0.002 c 0.004,0.0101 0.069,0.0138 0.27271,0.0138 h 0.26748 v -0.7848 z m 5.68376,0.0186 h 0.25198 l 0.0258,0.0768 c 0.0833,0.24624 0.17588,0.86362 0.18994,1.26743 l 0.007,0.19809 -0.14362,-0.004 c -0.19291,-0.003 -0.37968,-0.0133 -0.38804,-0.0215 -0.004,-0.004 -0.0118,-0.10639 -0.0178,-0.22814 -0.0202,-0.40703 -0.0905,-0.91123 -0.16301,-1.17052 -0.0159,-0.0567 -0.0255,-0.10635 -0.0215,-0.11048 0.004,-0.004 0.12076,-0.004 0.25934,-0.008 z m -5.3151,2.03731 c -0.0218,0.0217 -0.12405,0.47229 -0.12405,0.5464 v 0.001 c 0,0.0116 0.0952,0.0153 0.57876,0.0153 h 0.57877 v -0.0285 c 0,-0.057 0.0369,-0.2804 0.0663,-0.40103 l 0.03,-0.12347 -0.56287,-0.006 c -0.3096,-0.008 -0.56469,-0.007 -0.56694,-0.004 z" />
        </g>
        <g
           id="g1384">
          <path
             style="color:#bebebe;display:inline;overflow:visible;visibility:visible;fill:#567663;fill-opacity:1;fill-rule:nonzero;stroke:none;stroke-width:2;marker:none;enable-background:accumulate"
             d="m 310,32.5 c -9.70255,0 -17.5,7.797452 -17.5,17.5 v 52 c 0,9.70255 7.79745,17.5 17.5,17.5 h 52 c 9.70255,0 17.5,-7.79745 17.5,-17.5 V 50 c 0,-9.702548 -7.79745,-17.5 -17.5,-17.5 z"
             id="path4210" />
          <path
             style="color:#bebebe;display:inline;overflow:visible;visibility:visible;fill:url(#linearGradient4051);fill-opacity:1;fill-rule:nonzero;stroke:none;stroke-width:2;marker:none;enable-background:accumulate"
             d="m 310,32.5 c -9.70255,0 -17.5,7.797452 -17.5,17.5 v 52 c 0,9.70255 7.79745,17.5 17.5,17.5 h 52 c 9.70255,0 17.5,-7.79745 17.5,-17.5 V 50 c 0,-9.702548 -7.79745,-17.5 -17.5,-17.5 z"
             id="path4043" />
          <path
             id="path1116"
             style="fill:#f9f9f9;fill-opacity:1;stroke-width:0.0333917"
             d="m 350.41587,46.20067 c -0.83156,0.0012 -3.41175,0.11849 -4.80011,0.218636 -4.5327,0.328006 -8.6105,1.079396 -12.83848,2.364298 -0.21104,0.06414 -0.39159,0.112429 -0.39948,0.101174 -0.0344,-0.0342 -0.0483,-0.55639 -0.0564,-1.446718 h -1.65663 c -0.004,0.77536 -0.006,1.758437 -0.0139,1.83224 -0.0176,0.167997 -0.0353,0.214186 -0.0919,0.237823 -0.0385,0.01605 -0.26539,0.09882 -0.50414,0.184333 -0.66743,0.237756 -2.80878,1.098393 -3.74007,1.503706 l -0.72336,0.315158 v 1.788633 l 3.34932,0.0024 -0.79489,0.533794 c -1.47008,0.987617 -1.85597,1.279265 -2.55443,1.928186 l -0.42274,0.392497 h -3.18825 -3.18824 l -0.98096,0.977467 c -1.62915,1.621458 -2.59748,2.7707 -3.62145,4.298877 -2.27698,3.398307 -3.88455,7.472151 -4.9042,12.429705 l -0.17677,0.86 h 2.34685 2.34685 l -0.0611,0.27563 c -0.11885,0.53808 -0.14323,0.928 -0.16282,2.61258 l -0.0192,1.67001 -3.88195,0.011 -3.88196,0.011 v 0.4175 0.41692 h 1.58628 1.58627 v 0.38436 0.38377 h -2.37476 -2.37418 l 0.0204,0.12561 c 0.0114,0.0689 0.0297,0.43702 0.0413,0.81813 l 0.0209,0.69255 h 3.8837 c 3.67007,0 3.8841,0.004 3.8994,0.0587 0.009,0.0321 0.0258,0.14849 0.0378,0.25875 0.0119,0.11016 0.0665,0.51557 0.12153,0.9013 0.8562,6.01357 3.38096,10.99781 7.52667,14.85679 1.85524,1.727011 4.13671,3.267431 6.59398,4.452971 1.1891,0.57387 1.82535,0.83269 3.35222,1.36357 0.49383,0.1716 0.90691,0.32077 0.91816,0.33202 0.002,0.002 0.004,0.84996 0.006,1.03329 h 1.69791 c 10e-4,-0.0597 0.002,-0.56033 0.004,-0.56171 0.009,-0.009 0.32476,0.0425 0.70126,0.11455 1.9922,0.38145 2.58517,0.44716 4.09012,0.44716 1.24076,2.3e-4 1.57323,-0.0214 2.8888,-0.18607 2.25946,-0.28266 4.11728,-0.69811 6.04912,-1.35311 4.95116,-1.67918 9.02528,-4.604221 12.08663,-8.678571 2.4782,-3.29794 4.29774,-7.49806 4.83558,-11.16091 0.0732,-0.49859 0.16836,-1.48602 0.16863,-1.74909 l 7.9e-4,-0.1541 -0.17561,-0.0209 c -0.0964,-0.0101 -1.87852,-0.0215 -3.96045,-0.0215 h -3.78543 l 0.025,-0.12561 c 0.014,-0.0687 0.0652,-0.40272 0.11397,-0.74255 l 0.0884,-0.61811 2.32766,-0.011 2.32767,-0.011 v -0.78442 -0.78499 h 3.82788 3.82787 l -0.0204,-0.20876 c -0.0114,-0.11488 -0.066,-1.02719 -0.12153,-2.02819 -0.1002,-1.80825 -0.14472,-2.40715 -0.18433,-2.47129 -0.0134,-0.0202 -0.73769,-0.0326 -2.06716,-0.0326 -1.12561,0 -2.16115,-0.0103 -2.30092,-0.0227 l -0.2541,-0.0221 -0.0337,-0.17095 c -0.0184,-0.0938 -0.0944,-0.50082 -0.16921,-0.90478 -0.57654,-3.112953 -1.49475,-5.952267 -2.68818,-8.314575 -0.43922,-0.869357 -0.7192,-1.351265 -1.31124,-2.253813 -1.49265,-2.275892 -2.77296,-3.663339 -5.38391,-5.835141 -0.56015,-0.465959 -1.02356,-0.85993 -1.02806,-0.874549 -0.005,-0.01462 1.3244,-0.04007 2.95508,-0.05582 l 2.96496,-0.02967 -0.43377,-0.259344 c -1.23941,-0.740397 -2.59876,-1.316886 -5.34322,-2.266023 l -1.00131,-0.345978 1.66187,-0.01164 1.66129,-0.01104 -0.009,-0.843145 -0.009,-0.842562 -9.18854,-0.01684 c -5.05356,-0.009 -9.19909,-0.02721 -9.21237,-0.04071 -0.0335,-0.03341 0.0725,-0.06978 0.80069,-0.274455 3.8312,-1.077187 6.60667,-1.444542 12.49076,-1.653727 0.55096,-0.02022 1.09586,-0.04282 1.21064,-0.05408 l 0.20875,-0.018 v -1.667099 -1.667102 z m -12.70881,18.175875 c 0.22177,-7.94e-4 0.42791,0.0071 0.61288,0.02384 2.0298,0.1833 3.82299,0.662543 5.37519,1.436251 1.12654,0.561491 1.96197,1.160611 2.83995,2.037504 1.54397,1.542013 2.57828,3.424948 3.28827,5.985739 0.10325,0.37246 0.19503,0.70054 0.20294,0.73092 0.0126,0.0439 -0.0247,0.0552 -0.22096,0.0698 -0.12968,0.009 -0.24274,0.0202 -0.25062,0.0314 -0.008,0.008 0.0575,0.17977 0.1471,0.38029 0.33331,0.74603 0.54571,1.66317 0.67103,2.90216 0.0486,0.48025 0.0975,1.32974 0.0785,1.36124 -0.008,0.0135 -0.66752,0.0244 -1.46533,0.0244 -1.13689,0 -1.45074,0.009 -1.45311,0.0419 -0.002,0.023 -0.035,0.37125 -0.075,0.77453 -0.0721,0.72711 -0.0736,0.73286 -0.15641,0.7565 -0.0459,0.0113 -0.38566,0.0149 -0.75476,0.0262 l -0.67103,0.011 0.0267,-0.17502 c 0.0259,-0.17104 0.13025,-1.37074 0.13025,-1.49789 0,-0.0664 -0.0434,-0.0665 -1.59383,-0.0552 l -1.59326,0.011 -0.0901,0.6844 c -0.0496,0.3765 -0.0907,0.74689 -0.093,0.82454 -0.002,0.13446 0.002,0.13877 0.10583,0.15002 0.10296,0.01 0.10846,0.0175 0.10757,0.1442 -7.9e-4,0.0734 -0.0523,0.40733 -0.11513,0.74197 -0.0628,0.33453 -0.10341,0.61858 -0.0901,0.63207 0.0132,0.0147 0.60989,0.0283 1.32577,0.0395 1.14034,0.0135 1.30135,0.0213 1.30135,0.0663 0,0.16732 -0.47193,1.34516 -0.73906,1.84386 -0.48217,0.90031 -1.36236,1.94473 -2.29626,2.72598 -1.41574,1.18408 -3.01959,1.89016 -4.72801,2.08112 -0.18366,0.0214 -0.39756,0.044 -0.47565,0.0552 l -0.14188,0.0168 v 1.52231 1.52231 l 0.59253,-0.0238 c 1.40707,-0.0539 2.43133,-0.23175 3.529,-0.6123 2.34688,-0.81388 4.35954,-2.38945 5.80897,-4.54775 0.85811,-1.27781 1.52224,-2.77039 1.8619,-4.18549 l 0.11048,-0.45936 h 0.72045 c 0.88017,0 0.86791,-0.004 0.80535,0.30585 -0.0673,0.33363 -0.32754,1.22258 -0.52973,1.81131 -0.56433,1.64295 -1.4178,3.19317 -2.47536,4.49484 -0.62938,0.77449 -1.68086,1.74317 -2.51024,2.31254 -1.9385,1.3307 -4.28148,2.10617 -6.82831,2.26021 l 7.9e-4,-0.009 c -0.31219,0.0192 -0.66503,0.0415 -0.78441,0.0302 -1.29596,-0.0267 -3.14469,-0.44406 -4.44134,-1.00364 -0.2112,-0.0919 -0.40269,-0.17191 -0.42564,-0.18316 -0.0328,-0.0138 -0.0419,-1.04997 -0.0419,-5.02282 v -5.00477 h -0.81756 -0.81698 l -0.009,4.45588 c -0.007,3.18069 -0.0193,4.46722 -0.0454,4.49309 -0.10817,0.10825 -1.63326,-1.2345 -2.42709,-2.13693 -1.53757,-1.74794 -2.51098,-3.648 -3.1301,-6.10787 -0.0897,-0.35658 -0.18258,-0.66106 -0.20643,-0.67568 -0.0239,-0.0146 -0.11515,-0.0279 -0.20235,-0.0279 h -0.15816 v -0.81814 -0.81814 h -0.80187 -0.80128 v 0.81814 0.81814 h -2.90041 -2.90042 l -0.0547,-0.17561 c -0.0539,-0.17407 -0.0993,-0.54176 -0.13606,-1.1019 l -0.0192,-0.29191 h 2.35907 2.35963 l -0.0209,-0.32562 c -0.0117,-0.17914 -0.0312,-0.517 -0.0436,-0.75128 l -0.0227,-0.42564 h 3.06032 3.06091 v 0.78442 0.785 h 0.76755 0.76813 l 8e-4,-0.12561 c 0.001,-0.51186 0.0763,-2.42395 0.11804,-2.99636 0.0607,-0.83267 0.1365,-1.436 0.30993,-2.46256 0.0707,-0.4178 0.12063,-0.7656 0.11164,-0.77686 -0.009,-0.006 -1.05127,-0.0168 -2.31545,-0.0168 -2.0579,0 -2.29858,-0.006 -2.29858,-0.0517 0,-0.0946 0.30275,-0.9543 0.60997,-1.73397 0.54681,-1.388087 1.30731,-2.786304 2.07588,-3.815665 0.40594,-0.543599 1.20192,-1.382739 1.80142,-1.89911 0.42361,-0.364689 1.01741,-0.795574 1.05016,-0.764067 0.0124,0.01247 0.0275,1.922529 0.032,4.244218 l 0.0105,4.220954 h 0.8164 0.81698 l 0.008,-4.681486 0.008,-4.682066 0.26689,-0.111646 c 1.24064,-0.520149 3.56233,-0.930129 5.1147,-0.93502 z m -0.81523,1.403108 c -0.0329,-1.12e-4 -0.0419,0.35873 -0.0419,1.68571 0,0.927416 0.0112,1.686179 0.025,1.68629 0.0138,0 0.26496,0.01569 0.5588,0.03373 1.65549,0.103518 2.8942,0.410274 4.06396,1.006538 1.6207,0.826031 2.73978,2.122212 3.54935,4.111058 l 0.1599,0.39017 h 1.5979 c 1.25644,0 1.59849,-0.008 1.59849,-0.0401 -7.9e-4,-0.2058 -0.46786,-1.665142 -0.70766,-2.210203 -1.78548,-4.057243 -5.2824,-6.327657 -10.21135,-6.629444 -0.30303,-0.01915 -0.56957,-0.03373 -0.59253,-0.03373 z m -0.0413,8.909426 -0.81,0.0116 -0.80942,0.011 -0.009,2.30382 c -0.005,1.26724 -0.002,2.32263 0.007,2.34627 l 0.001,-0.005 c 0.0122,0.0304 0.20695,0.0413 0.81813,0.0413 h 0.80245 v -2.35441 z m 17.0513,0.0558 h 0.75592 l 0.0773,0.23027 c 0.24991,0.73871 0.52765,2.59087 0.56984,3.80229 l 0.0209,0.59427 -0.43088,-0.011 c -0.57871,-0.008 -1.13902,-0.0398 -1.16412,-0.0646 -0.0113,-0.0114 -0.0353,-0.31915 -0.0535,-0.6844 -0.0607,-1.2211 -0.27143,-2.73368 -0.48903,-3.51155 -0.0476,-0.17014 -0.0766,-0.31906 -0.0645,-0.33144 0.0121,-0.0113 0.36228,-0.0126 0.77802,-0.0238 z m -15.94531,6.11193 c -0.0653,0.0652 -0.37215,1.41685 -0.37215,1.63919 v 0.004 c 0,0.0349 0.28548,0.0459 1.73629,0.0459 h 1.7363 v -0.0855 c 0,-0.17092 0.11086,-0.8412 0.19887,-1.20308 l 0.0901,-0.3704 -1.68861,-0.0192 c -0.92879,-0.0225 -1.69407,-0.0223 -1.70082,-0.011 z" />
        </g>
        <g
           id="g1499">
          <path
             style="color:#bebebe;display:inline;overflow:visible;visibility:visible;fill:#567663;fill-opacity:1;fill-rule:nonzero;stroke:none;stroke-width:2;marker:none;enable-background:accumulate"
             d="m 302.5,142.5 c -6.65502,0 -12,5.34498 -12,12 v 35 c 0,6.65502 5.34498,12 12,12 h 35 c 6.65502,0 12,-5.34498 12,-12 v -35 c 0,-6.65502 -5.34498,-12 -12,-12 z"
             id="path4212" />
          <path
             style="color:#bebebe;display:inline;overflow:visible;visibility:visible;fill:url(#linearGradient5158);fill-opacity:1;fill-rule:nonzero;stroke:none;stroke-width:2;marker:none;enable-background:accumulate"
             d="m 302.5,142.5 c -6.65502,0 -12,5.34498 -12,12 v 35 c 0,6.65502 5.34498,12 12,12 h 35 c 6.65502,0 12,-5.34498 12,-12 v -35 c 0,-6.65502 -5.34498,-12 -12,-12 z"
             id="path5150" />
          <path
             id="path1487"
             style="fill:#f9f9f9;fill-opacity:1;stroke-width:0.0226449"
             d="m 329.77627,151.79152 c -0.56393,8.1e-4 -2.31371,0.0803 -3.25525,0.14827 -3.0739,0.22244 -5.8393,0.732 -8.70655,1.60337 -0.14312,0.0435 -0.26556,0.0763 -0.27091,0.0686 -0.0233,-0.0232 -0.0327,-0.37733 -0.0383,-0.98111 h -1.12346 c -0.003,0.52582 -0.004,1.1925 -0.009,1.24255 -0.0119,0.11393 -0.0239,0.14526 -0.0623,0.16128 -0.0261,0.0109 -0.17998,0.067 -0.34189,0.12501 -0.45263,0.16124 -1.9048,0.74489 -2.53637,1.01976 l -0.49056,0.21372 v 1.21299 l 2.27138,0.002 -0.53906,0.362 c -0.99695,0.66976 -1.25865,0.86755 -1.73232,1.30762 l -0.28668,0.26618 h -2.16215 -2.16214 l -0.66525,0.66288 c -1.10482,1.09961 -1.76151,1.87898 -2.45592,2.91533 -1.54416,2.3046 -2.63435,5.06732 -3.32584,8.42933 l -0.11988,0.58323 h 1.59155 1.59154 l -0.0414,0.18691 c -0.0806,0.36491 -0.0971,0.62934 -0.11041,1.77176 l -0.013,1.13253 -2.63259,0.007 -2.63259,0.007 v 0.28313 0.28274 h 1.07575 1.07575 v 0.26066 0.26026 h -1.61047 -1.61007 l 0.0138,0.0852 c 0.008,0.0467 0.0202,0.29637 0.028,0.55483 l 0.0142,0.46965 h 2.63377 c 2.4889,0 2.63405,0.002 2.64443,0.0398 0.006,0.0217 0.0175,0.1007 0.0256,0.17548 0.008,0.0747 0.0451,0.34964 0.0824,0.61122 0.58064,4.07817 2.29282,7.45829 5.10429,10.0753 1.25815,1.17119 2.80536,2.21584 4.47178,3.01983 0.8064,0.38917 1.23788,0.56469 2.27335,0.92472 0.33488,0.11637 0.61502,0.21753 0.62266,0.22516 0.002,0.002 0.003,0.57641 0.004,0.70074 h 1.15146 c 8.1e-4,-0.0405 0.002,-0.38 0.002,-0.38093 0.006,-0.006 0.22024,0.0288 0.47557,0.0777 1.35103,0.25869 1.75316,0.30325 2.77376,0.30325 0.84143,1.5e-4 1.06689,-0.0145 1.95907,-0.12619 1.53228,-0.19169 2.79217,-0.47343 4.10228,-0.91762 3.35768,-1.13875 6.12059,-3.12241 8.19667,-5.88547 1.68061,-2.23654 2.91457,-5.08489 3.27931,-7.5689 0.0496,-0.33812 0.11417,-1.00775 0.11435,-1.18616 l 5.4e-4,-0.1045 -0.1191,-0.0142 c -0.0654,-0.007 -1.27393,-0.0146 -2.68581,-0.0146 h -2.56714 l 0.0169,-0.0852 c 0.009,-0.0466 0.0442,-0.27311 0.0773,-0.50357 l 0.0599,-0.41917 1.57853,-0.007 1.57853,-0.007 v -0.53196 -0.53235 h 2.59591 2.59592 l -0.0138,-0.14158 c -0.008,-0.0779 -0.0448,-0.6966 -0.0824,-1.37544 -0.068,-1.22628 -0.0981,-1.63243 -0.125,-1.67593 -0.009,-0.0137 -0.50027,-0.0221 -1.40186,-0.0221 -0.76335,0 -1.46562,-0.007 -1.56039,-0.0154 l -0.17233,-0.015 -0.0229,-0.11594 c -0.0125,-0.0636 -0.064,-0.33964 -0.11475,-0.61359 -0.39098,-2.11108 -1.01368,-4.03659 -1.82302,-5.63861 -0.29786,-0.58957 -0.48773,-0.91638 -0.88923,-1.52845 -1.01225,-1.54342 -1.88051,-2.48434 -3.65116,-3.95717 -0.37986,-0.31599 -0.69414,-0.58317 -0.69719,-0.59308 -0.004,-0.01 0.89816,-0.0272 2.00402,-0.0379 l 2.01073,-0.0201 -0.29418,-0.17588 c -0.84051,-0.50211 -1.76237,-0.89306 -3.62356,-1.53672 l -0.67905,-0.23463 1.12702,-0.008 1.12662,-0.007 -0.006,-0.57178 -0.006,-0.5714 -6.23131,-0.0114 c -3.42712,-0.006 -6.23846,-0.0185 -6.24747,-0.0276 -0.0227,-0.0226 0.0492,-0.0473 0.54301,-0.18612 2.59816,-0.73051 4.48039,-0.97963 8.47074,-1.12149 0.37364,-0.0137 0.74317,-0.029 0.82101,-0.0367 l 0.14156,-0.0122 v -1.13056 -1.13057 z m -8.61862,12.32617 c 0.1504,-5.4e-4 0.29019,0.005 0.41563,0.0162 1.37653,0.12431 2.59261,0.44931 3.64525,0.97401 0.76397,0.38078 1.33053,0.78708 1.92594,1.38176 1.04706,1.04573 1.74849,2.32266 2.22997,4.0593 0.07,0.25258 0.13227,0.47507 0.13762,0.49568 0.009,0.0298 -0.0167,0.0374 -0.14984,0.0473 -0.0879,0.006 -0.16461,0.0137 -0.16996,0.0213 -0.006,0.006 0.039,0.12191 0.0998,0.25789 0.22604,0.50593 0.37008,1.1279 0.45507,1.96814 0.033,0.32568 0.0661,0.90177 0.0532,0.92314 -0.006,0.009 -0.45268,0.0165 -0.99372,0.0165 -0.771,0 -0.98384,0.006 -0.98545,0.0284 -0.001,0.0156 -0.0237,0.25177 -0.0509,0.52526 -0.0489,0.4931 -0.0499,0.497 -0.10608,0.51303 -0.0311,0.008 -0.26153,0.0101 -0.51184,0.0178 l -0.45507,0.007 0.0181,-0.11869 c 0.0176,-0.11599 0.0883,-0.92958 0.0883,-1.01581 0,-0.045 -0.0294,-0.0451 -1.08088,-0.0375 l -1.08048,0.007 -0.0611,0.46413 c -0.0336,0.25533 -0.0615,0.50652 -0.0631,0.55917 -0.002,0.0912 0.001,0.0941 0.0718,0.10174 0.0698,0.007 0.0736,0.0119 0.0729,0.0978 -5.3e-4,0.0498 -0.0355,0.27623 -0.0781,0.50318 -0.0426,0.22686 -0.0701,0.4195 -0.0611,0.42864 0.009,0.01 0.41361,0.0192 0.89909,0.0268 0.77334,0.009 0.88252,0.0144 0.88252,0.045 0,0.11347 -0.32004,0.91224 -0.5012,1.25044 -0.32699,0.61055 -0.9239,1.31884 -1.55723,1.84865 -0.9601,0.803 -2.04777,1.28184 -3.20635,1.41133 -0.12455,0.0145 -0.26961,0.0298 -0.32257,0.0375 l -0.0962,0.0114 v 1.03237 1.03237 l 0.40183,-0.0162 c 0.95422,-0.0365 1.64884,-0.15716 2.39323,-0.41523 1.59156,-0.55194 2.95647,-1.62043 3.93942,-3.08411 0.58194,-0.86656 1.03232,-1.87876 1.26267,-2.83843 l 0.0749,-0.31152 h 0.48858 c 0.5969,0 0.58859,-0.003 0.54616,0.20741 -0.0457,0.22626 -0.22212,0.82911 -0.35924,1.22836 -0.38271,1.11419 -0.9615,2.16549 -1.67869,3.04823 -0.42683,0.52523 -1.1399,1.18215 -1.70235,1.56827 -1.31462,0.90243 -2.90354,1.42832 -4.6307,1.53279 l 5.4e-4,-0.006 c -0.21172,0.013 -0.45099,0.0281 -0.53196,0.0205 -0.87886,-0.0181 -2.1326,-0.30115 -3.01194,-0.68063 -0.14323,-0.0623 -0.27309,-0.11658 -0.28865,-0.12421 -0.0222,-0.009 -0.0284,-0.71205 -0.0284,-3.40628 v -3.39404 h -0.55444 -0.55403 l -0.006,3.0218 c -0.004,2.15702 -0.0131,3.02949 -0.0308,3.04704 -0.0734,0.0734 -1.10762,-0.83719 -1.64596,-1.44919 -1.04273,-1.18538 -1.70285,-2.47392 -2.12272,-4.14211 -0.0608,-0.24182 -0.12382,-0.4483 -0.13998,-0.45822 -0.0162,-0.01 -0.0781,-0.0189 -0.13724,-0.0189 h -0.10725 v -0.55483 -0.55483 h -0.5438 -0.54339 v 0.55483 0.55483 h -1.96695 -1.96695 l -0.0371,-0.11909 c -0.0366,-0.11805 -0.0673,-0.3674 -0.0923,-0.74727 l -0.013,-0.19795 h 1.59982 1.60022 l -0.0142,-0.22083 c -0.008,-0.12148 -0.0212,-0.35061 -0.0296,-0.50949 l -0.0154,-0.28865 h 2.0754 2.07578 v 0.53196 0.53235 h 0.52053 0.52091 l 5.4e-4,-0.0852 c 8.1e-4,-0.34713 0.0517,-1.64383 0.08,-2.03202 0.0412,-0.56468 0.0926,-0.97384 0.21018,-1.67001 0.0479,-0.28334 0.0818,-0.51921 0.0757,-0.52684 -0.006,-0.004 -0.71294,-0.0114 -1.57025,-0.0114 -1.39559,0 -1.55881,-0.004 -1.55881,-0.0351 0,-0.0642 0.20531,-0.64717 0.41366,-1.17592 0.37083,-0.94134 0.88657,-1.88956 1.40778,-2.58763 0.27529,-0.36865 0.8151,-0.93772 1.22165,-1.2879 0.28728,-0.24732 0.68997,-0.53953 0.71218,-0.51816 0.008,0.008 0.0186,1.30378 0.0217,2.87826 l 0.007,2.86249 h 0.55365 0.55404 l 0.005,-3.17481 0.006,-3.17519 0.18099,-0.0757 c 0.84136,-0.35275 2.41583,-0.63078 3.46859,-0.6341 z m -0.55286,0.95153 c -0.0223,-8e-5 -0.0284,0.24328 -0.0284,1.14318 0,0.62894 0.008,1.1435 0.017,1.14358 0.009,0 0.17968,0.0106 0.37895,0.0229 1.1227,0.0702 1.96274,0.27823 2.75602,0.6826 1.0991,0.56018 1.85801,1.4392 2.40703,2.78796 l 0.10844,0.26459 h 1.08364 c 0.85205,0 1.08403,-0.005 1.08403,-0.0272 -5.4e-4,-0.13957 -0.31729,-1.12924 -0.47991,-1.49888 -1.21084,-2.75146 -3.58231,-4.29117 -6.92494,-4.49583 -0.2055,-0.013 -0.38626,-0.0229 -0.40183,-0.0229 z m -0.028,6.04202 -0.54932,0.008 -0.54891,0.007 -0.006,1.56236 c -0.004,0.85939 -10e-4,1.57511 0.005,1.59115 l 8.1e-4,-0.003 c 0.008,0.0206 0.14034,0.028 0.55482,0.028 h 0.54419 v -1.59667 z m 11.56352,0.0379 h 0.51263 l 0.0525,0.15616 c 0.16948,0.50097 0.35784,1.75702 0.38645,2.57857 l 0.0142,0.40301 -0.29221,-0.007 c -0.39245,-0.005 -0.77244,-0.027 -0.78946,-0.0438 -0.008,-0.008 -0.024,-0.21644 -0.0363,-0.46414 -0.0411,-0.8281 -0.18407,-1.85387 -0.33163,-2.3814 -0.0323,-0.11538 -0.0519,-0.21637 -0.0438,-0.22477 0.008,-0.008 0.24569,-0.009 0.52763,-0.0162 z m -10.8135,4.14487 c -0.0443,0.0442 -0.25237,0.96085 -0.25237,1.11164 v 0.003 c 0,0.0237 0.1936,0.0312 1.17748,0.0312 h 1.17749 v -0.058 c 0,-0.11592 0.0752,-0.57048 0.13487,-0.81589 l 0.0611,-0.25119 -1.14516,-0.013 c -0.62986,-0.0153 -1.14885,-0.0151 -1.15343,-0.007 z" />
        </g>
        <g
           id="g1776">
          <path
             style="color:#bebebe;display:inline;overflow:visible;visibility:visible;fill:#567663;fill-opacity:1;fill-rule:nonzero;stroke:none;stroke-width:2;marker:none;enable-background:accumulate"
             d="m 300,223.5 c -4.71531,0 -8.5,3.78469 -8.5,8.5 v 24 c 0,4.71531 3.78469,8.5 8.5,8.5 h 24 c 4.71531,0 8.5,-3.78469 8.5,-8.5 v -24 c 0,-4.71531 -3.78469,-8.5 -8.5,-8.5 z"
             id="path4208" />
          <path
             style="color:#bebebe;display:inline;overflow:visible;visibility:visible;fill:url(#linearGradient5757);fill-opacity:1;fill-rule:nonzero;stroke:none;stroke-width:2;marker:none;enable-background:accumulate"
             d="m 300,223.5 c -4.71531,0 -8.5,3.78469 -8.5,8.5 v 24 c 0,4.71531 3.78469,8.5 8.5,8.5 h 24 c 4.71531,0 8.5,-3.78469 8.5,-8.5 v -24 c 0,-4.71531 -3.78469,-8.5 -8.5,-8.5 z"
             id="path5749" />
          <path
             id="path1764"
             style="fill:#f9f9f9;fill-opacity:1;stroke-width:0.0157363"
             d="m 318.79361,229.95682 c -0.39188,5.6e-4 -1.60783,0.0558 -2.26212,0.10303 -2.1361,0.15458 -4.05782,0.50868 -6.05032,1.11421 -0.0995,0.0302 -0.18454,0.053 -0.18825,0.0477 -0.0162,-0.0161 -0.0227,-0.2622 -0.0266,-0.68178 h -0.78071 c -0.002,0.3654 -0.003,0.82868 -0.007,0.86347 -0.008,0.0792 -0.0166,0.10093 -0.0433,0.11207 -0.0182,0.008 -0.12507,0.0466 -0.23757,0.0869 -0.31455,0.11205 -1.32369,0.51764 -1.76257,0.70865 l -0.34089,0.14852 v 0.84292 l 1.57842,10e-4 -0.3746,0.25156 c -0.6928,0.46543 -0.87466,0.60287 -1.20382,0.90868 l -0.19922,0.18497 h -1.50251 -1.5025 l -0.46229,0.46065 c -0.76776,0.76413 -1.2241,1.30573 -1.70667,2.02591 -1.07305,1.6015 -1.83064,3.52136 -2.31117,5.85767 l -0.0833,0.40529 h 1.10598 1.10599 l -0.0288,0.12989 c -0.056,0.25358 -0.0675,0.43734 -0.0767,1.23122 l -0.009,0.78702 -1.82942,0.005 -1.82943,0.005 v 0.19675 0.19648 h 0.74756 0.74755 v 0.18113 0.18086 h -1.11914 -1.11888 l 0.01,0.0592 c 0.005,0.0325 0.014,0.20596 0.0195,0.38556 l 0.01,0.32638 h 1.83024 c 1.72958,0 1.83044,0.002 1.83765,0.0277 0.004,0.0151 0.0122,0.07 0.0178,0.12195 0.006,0.0519 0.0314,0.24296 0.0573,0.42474 0.40349,2.83398 1.59332,5.18288 3.54705,7.00148 0.8743,0.81388 1.94948,1.53982 3.10751,2.09852 0.56038,0.27045 0.86023,0.39242 1.57979,0.64261 0.23271,0.0809 0.42739,0.15117 0.43268,0.15647 10e-4,0.001 0.002,0.40055 0.003,0.48695 h 0.80016 c 5.7e-4,-0.0282 10e-4,-0.26407 0.002,-0.26471 0.004,-0.004 0.15306,0.02 0.33049,0.054 0.93885,0.17976 1.2183,0.21073 1.92753,0.21073 0.58472,1.1e-4 0.7414,-0.0101 1.36138,-0.0877 1.06481,-0.13321 1.94033,-0.32899 2.85073,-0.63767 2.33331,-0.79134 4.25329,-2.16981 5.69601,-4.0899 1.16788,-1.5542 2.02537,-3.53357 2.27883,-5.25974 0.0345,-0.23497 0.0793,-0.70031 0.0795,-0.82429 l 3.8e-4,-0.0726 -0.0828,-0.01 c -0.0454,-0.005 -0.88529,-0.0101 -1.86642,-0.0101 h -1.78394 l 0.0118,-0.0592 c 0.007,-0.0324 0.0308,-0.18979 0.0537,-0.34994 l 0.0417,-0.29129 1.09694,-0.005 1.09695,-0.005 v -0.36967 -0.36994 h 1.80394 1.80394 l -0.01,-0.0984 c -0.005,-0.0541 -0.0311,-0.48408 -0.0573,-0.95581 -0.0472,-0.85217 -0.0682,-1.1344 -0.0869,-1.16463 -0.006,-0.01 -0.34765,-0.0153 -0.97418,-0.0153 -0.53046,0 -1.01847,-0.005 -1.08434,-0.0107 l -0.11975,-0.0104 -0.0159,-0.0806 c -0.009,-0.0442 -0.0445,-0.23602 -0.0797,-0.4264 -0.27171,-1.46702 -0.70443,-2.80508 -1.26685,-3.91836 -0.20699,-0.40969 -0.33893,-0.6368 -0.61794,-1.06214 -0.70343,-1.07254 -1.3068,-1.7264 -2.53724,-2.74989 -0.26398,-0.21959 -0.48237,-0.40526 -0.48449,-0.41215 -0.003,-0.007 0.62414,-0.0189 1.39262,-0.0263 l 1.39728,-0.014 -0.20442,-0.12221 c -0.58409,-0.34893 -1.2247,-0.62061 -2.51807,-1.0679 l -0.47188,-0.16305 0.78318,-0.005 0.7829,-0.005 -0.004,-0.39734 -0.004,-0.39707 -4.33024,-0.008 c -2.38156,-0.004 -4.3352,-0.0128 -4.34146,-0.0192 -0.0158,-0.0158 0.0342,-0.0329 0.37734,-0.12934 1.80551,-0.50764 3.11349,-0.68076 5.88645,-0.77935 0.25965,-0.01 0.51644,-0.0202 0.57053,-0.0255 l 0.0984,-0.008 v -0.78565 -0.78564 z m -5.98921,8.56564 c 0.10452,-3.7e-4 0.20166,0.003 0.28883,0.0112 0.95658,0.0864 1.80164,0.31224 2.53314,0.67686 0.5309,0.26461 0.92461,0.54695 1.33836,0.9602 0.72762,0.7267 1.21506,1.61406 1.54965,2.82087 0.0487,0.17552 0.0919,0.33014 0.0956,0.34446 0.006,0.0207 -0.0116,0.026 -0.10413,0.0329 -0.0611,0.004 -0.11439,0.01 -0.11811,0.0148 -0.004,0.004 0.0271,0.0847 0.0693,0.17921 0.15708,0.35158 0.25717,0.7838 0.31623,1.36769 0.0229,0.22632 0.046,0.62666 0.037,0.6415 -0.004,0.006 -0.31458,0.0115 -0.69056,0.0115 -0.53577,0 -0.68368,0.004 -0.6848,0.0197 -7.5e-4,0.0108 -0.0165,0.17496 -0.0354,0.36501 -0.034,0.34266 -0.0347,0.34537 -0.0737,0.35651 -0.0216,0.005 -0.18175,0.007 -0.35569,0.0123 l -0.31624,0.005 0.0126,-0.0825 c 0.0122,-0.0806 0.0614,-0.64598 0.0614,-0.7059 0,-0.0313 -0.0205,-0.0313 -0.75113,-0.026 l -0.75083,0.005 -0.0425,0.32254 c -0.0234,0.17743 -0.0427,0.35198 -0.0438,0.38857 -10e-4,0.0634 9.2e-4,0.0654 0.0499,0.0707 0.0485,0.005 0.0511,0.008 0.0507,0.068 -3.8e-4,0.0346 -0.0247,0.19196 -0.0543,0.34966 -0.0296,0.15765 -0.0487,0.29152 -0.0425,0.29787 0.006,0.007 0.28743,0.0133 0.6248,0.0186 0.5374,0.006 0.61327,0.01 0.61327,0.0312 0,0.0788 -0.2224,0.63393 -0.34829,0.86895 -0.22723,0.42428 -0.64203,0.91648 -1.08214,1.28466 -0.66719,0.55801 -1.42303,0.89076 -2.22815,0.98075 -0.0865,0.0101 -0.18735,0.0207 -0.22415,0.026 l -0.0669,0.008 v 0.71741 0.71741 l 0.27924,-0.0112 c 0.6631,-0.0254 1.1458,-0.10921 1.66309,-0.28855 1.106,-0.38355 2.0545,-1.12606 2.73757,-2.1432 0.40439,-0.60218 0.71737,-1.30558 0.87744,-1.97247 l 0.0521,-0.21648 h 0.33952 c 0.41479,0 0.40902,-0.002 0.37953,0.14414 -0.0317,0.15723 -0.15435,0.57616 -0.24964,0.8536 -0.26595,0.77427 -0.66816,1.50483 -1.16655,2.11826 -0.2966,0.36499 -0.79213,0.8215 -1.18299,1.08982 -0.91354,0.62711 -2.01771,0.99256 -3.21794,1.06516 l 3.8e-4,-0.004 c -0.14713,0.009 -0.31341,0.0196 -0.36967,0.0142 -0.61074,-0.0126 -1.48198,-0.20927 -2.09305,-0.47298 -0.0995,-0.0433 -0.18977,-0.081 -0.20058,-0.0863 -0.0155,-0.006 -0.0197,-0.49482 -0.0197,-2.36708 v -2.35857 h -0.38529 -0.38501 l -0.004,2.0999 c -0.003,1.49895 -0.009,2.10524 -0.0214,2.11743 -0.051,0.051 -0.7697,-0.58177 -1.1438,-1.00706 -0.7246,-0.82374 -1.18333,-1.71917 -1.4751,-2.87842 -0.0423,-0.16804 -0.0861,-0.31153 -0.0973,-0.31842 -0.0113,-0.007 -0.0543,-0.0131 -0.0954,-0.0131 h -0.0745 v -0.38556 -0.38556 h -0.37789 -0.37762 v 0.38556 0.38556 h -1.36686 -1.36686 l -0.0258,-0.0828 c -0.0254,-0.082 -0.0468,-0.25531 -0.0641,-0.51929 l -0.009,-0.13756 h 1.11174 1.11202 l -0.01,-0.15346 c -0.006,-0.0844 -0.0147,-0.24364 -0.0205,-0.35405 l -0.0107,-0.20058 h 1.44222 1.4425 v 0.36966 0.36994 h 0.36172 0.36199 l 3.8e-4,-0.0592 c 5.6e-4,-0.24122 0.036,-1.14232 0.0556,-1.41208 0.0286,-0.3924 0.0643,-0.67674 0.14606,-1.16051 0.0333,-0.1969 0.0568,-0.36081 0.0526,-0.36611 -0.004,-0.003 -0.49542,-0.008 -1.09118,-0.008 -0.96982,0 -1.08324,-0.003 -1.08324,-0.0244 0,-0.0446 0.14267,-0.44973 0.28745,-0.81716 0.2577,-0.65416 0.61609,-1.31309 0.97829,-1.79819 0.19131,-0.25618 0.56643,-0.65164 0.84895,-0.89498 0.19963,-0.17187 0.47947,-0.37493 0.4949,-0.36008 0.006,0.006 0.0129,0.90602 0.0151,2.00015 l 0.005,1.98918 h 0.38474 0.38501 l 0.004,-2.20622 0.004,-2.20649 0.12577,-0.0526 c 0.58468,-0.24513 1.67881,-0.43834 2.41038,-0.44064 z m -0.38419,0.66124 c -0.0155,-6e-5 -0.0197,0.16905 -0.0197,0.79441 0,0.43706 0.005,0.79464 0.0118,0.79469 0.007,0 0.12487,0.007 0.26334,0.0159 0.78018,0.0488 1.36394,0.19335 1.9152,0.47435 0.76378,0.38928 1.29116,1.00012 1.67268,1.9374 l 0.0754,0.18387 h 0.75304 c 0.5921,0 0.75331,-0.004 0.75331,-0.0189 -3.8e-4,-0.097 -0.22049,-0.78472 -0.3335,-1.04159 -0.84143,-1.91203 -2.4894,-2.982 -4.81225,-3.12422 -0.1428,-0.009 -0.26841,-0.0159 -0.27923,-0.0159 z m -0.0195,4.19869 -0.38173,0.005 -0.38145,0.005 -0.004,1.08571 c -0.002,0.5972 -9.3e-4,1.09457 0.003,1.10571 l 5.6e-4,-0.002 c 0.006,0.0143 0.0975,0.0195 0.38556,0.0195 h 0.37816 v -1.10955 z m 8.03567,0.0263 h 0.35624 l 0.0364,0.10851 c 0.11778,0.34813 0.24867,1.22099 0.26855,1.79189 l 0.01,0.28006 -0.20306,-0.005 c -0.27273,-0.004 -0.53678,-0.0187 -0.54861,-0.0304 -0.005,-0.005 -0.0167,-0.15041 -0.0252,-0.32254 -0.0286,-0.57546 -0.12791,-1.28829 -0.23046,-1.65487 -0.0224,-0.0802 -0.0361,-0.15036 -0.0304,-0.1562 0.006,-0.005 0.17073,-0.006 0.36666,-0.0112 z m -7.51447,2.88033 c -0.0308,0.0307 -0.17538,0.66771 -0.17538,0.77249 v 0.002 c 0,0.0164 0.13454,0.0217 0.81826,0.0217 h 0.81825 v -0.0403 c 0,-0.0806 0.0523,-0.39644 0.0937,-0.56697 l 0.0425,-0.17456 -0.79579,-0.009 c -0.4377,-0.0106 -0.79835,-0.0105 -0.80154,-0.005 z" />
        </g>
        <g
           id="g2074">
          <path
             style="color:#bebebe;display:inline;overflow:visible;visibility:visible;fill:#567663;fill-opacity:1;fill-rule:nonzero;stroke:none;stroke-width:2;marker:none;enable-background:accumulate"
             d="m 419,140.5 c -1.3844,0 -2.5,1.1156 -2.5,2.5 v 10 c 0,1.3844 1.1156,2.5 2.5,2.5 h 10 c 1.3844,0 2.5,-1.1156 2.5,-2.5 v -10 c 0,-1.3844 -1.1156,-2.5 -2.5,-2.5 z"
             id="path4202" />
          <path
             style="color:#bebebe;display:inline;overflow:visible;visibility:visible;fill:url(#linearGradient6198);fill-opacity:1;fill-rule:nonzero;stroke:none;stroke-width:2;marker:none;enable-background:accumulate"
             d="m 419,140.5 c -1.3844,0 -2.5,1.1156 -2.5,2.5 v 10 c 0,1.3844 1.1156,2.5 2.5,2.5 h 10 c 1.3844,0 2.5,-1.1156 2.5,-2.5 v -10 c 0,-1.3844 -1.1156,-2.5 -2.5,-2.5 z"
             id="path6186" />
          <path
             id="path2044"
             style="fill:#f9f9f9;fill-opacity:1;stroke-width:0.00575719"
             d="m 426.4847,142.86283 c -0.14337,2.1e-4 -0.58823,0.0204 -0.82761,0.0377 -0.7815,0.0566 -1.48457,0.1861 -2.21353,0.40764 -0.0364,0.011 -0.0675,0.0194 -0.0689,0.0174 -0.006,-0.006 -0.008,-0.0959 -0.01,-0.24943 h -0.28562 c -6.9e-4,0.13368 -0.001,0.30317 -0.002,0.3159 -0.003,0.029 -0.006,0.0369 -0.0159,0.041 -0.007,0.003 -0.0457,0.017 -0.0869,0.0318 -0.11507,0.041 -0.48427,0.18938 -0.64484,0.25926 l -0.12471,0.0543 v 0.30839 l 0.57747,4.1e-4 -0.13705,0.092 c -0.25347,0.17028 -0.32,0.22057 -0.44042,0.33245 l -0.0729,0.0677 h -0.5497 -0.54969 l -0.16913,0.16853 c -0.28089,0.27956 -0.44785,0.47771 -0.62439,0.74119 -0.39259,0.58591 -0.66975,1.2883 -0.84555,2.14305 l -0.0305,0.14827 h 0.40463 0.40463 l -0.0105,0.0475 c -0.0205,0.0928 -0.0247,0.16 -0.0281,0.45044 l -0.003,0.28793 -0.6693,0.002 -0.66931,0.002 v 0.072 0.0719 h 0.2735 0.2735 v 0.0663 0.0662 h -0.40945 -0.40934 l 0.004,0.0217 c 0.002,0.0119 0.005,0.0753 0.007,0.14105 l 0.004,0.11941 h 0.66961 c 0.63277,0 0.66967,6.9e-4 0.67231,0.0101 0.002,0.006 0.004,0.0256 0.007,0.0446 0.002,0.019 0.0115,0.0889 0.021,0.1554 0.14762,1.03682 0.58292,1.89617 1.2977,2.56151 0.31987,0.29776 0.71324,0.56335 1.13689,0.76776 0.20502,0.0989 0.31473,0.14356 0.57797,0.2351 0.0851,0.0296 0.15637,0.0553 0.15831,0.0572 3.4e-4,3.4e-4 6.9e-4,0.14654 0.001,0.17815 h 0.29274 c 1.8e-4,-0.0103 3.5e-4,-0.0966 6.9e-4,-0.0968 0.002,-0.002 0.056,0.007 0.12091,0.0197 0.34348,0.0658 0.44572,0.0771 0.70519,0.0771 0.21393,4e-5 0.27125,-0.004 0.49807,-0.0321 0.38956,-0.0487 0.70988,-0.12036 1.04295,-0.23329 0.85365,-0.28952 1.55609,-0.79383 2.08391,-1.49631 0.42727,-0.56861 0.74099,-1.29277 0.83372,-1.92429 0.0126,-0.086 0.029,-0.25621 0.0291,-0.30157 l 1.4e-4,-0.0266 -0.0303,-0.004 c -0.0166,-0.002 -0.32388,-0.004 -0.68284,-0.004 h -0.65266 l 0.004,-0.0217 c 0.002,-0.0118 0.0112,-0.0694 0.0196,-0.12802 l 0.0152,-0.10657 0.40132,-0.002 0.40133,-0.002 v -0.13524 -0.13534 h 0.65998 0.65997 l -0.004,-0.036 c -0.002,-0.0198 -0.0114,-0.1771 -0.021,-0.34968 -0.0173,-0.31177 -0.0249,-0.41503 -0.0318,-0.42609 -0.002,-0.003 -0.12719,-0.006 -0.3564,-0.006 -0.19408,0 -0.37262,-0.002 -0.39671,-0.004 l -0.0438,-0.004 -0.006,-0.0295 c -0.003,-0.0162 -0.0163,-0.0863 -0.0292,-0.15599 -0.0994,-0.53672 -0.25772,-1.02626 -0.46348,-1.43355 -0.0757,-0.14989 -0.12401,-0.23298 -0.22607,-0.38859 -0.25736,-0.3924 -0.4781,-0.63161 -0.92827,-1.00606 -0.0966,-0.0803 -0.17647,-0.14826 -0.17726,-0.15078 -8.5e-4,-0.003 0.22835,-0.007 0.50951,-0.01 l 0.51119,-0.005 -0.0748,-0.0447 c -0.21368,-0.12765 -0.44806,-0.22705 -0.92124,-0.39069 l -0.17264,-0.0597 0.28654,-0.002 0.28643,-0.002 -0.002,-0.14537 -0.002,-0.14527 -1.58423,-0.003 c -0.8713,-0.002 -1.58605,-0.005 -1.58834,-0.007 -0.006,-0.006 0.0125,-0.012 0.13805,-0.0473 0.66055,-0.18573 1.13908,-0.24906 2.15358,-0.28513 0.095,-0.003 0.18894,-0.007 0.20873,-0.009 l 0.036,-0.003 v -0.28743 -0.28743 z m -2.19118,3.13377 c 0.0382,-1.3e-4 0.0738,0.001 0.10567,0.004 0.34997,0.0316 0.65914,0.11424 0.92676,0.24763 0.19423,0.0968 0.33827,0.20011 0.48965,0.3513 0.2662,0.26586 0.44453,0.59051 0.56694,1.03202 0.0178,0.0642 0.0336,0.12078 0.035,0.12602 0.002,0.008 -0.004,0.01 -0.0381,0.012 -0.0224,0.002 -0.0419,0.003 -0.0432,0.005 -10e-4,10e-4 0.01,0.031 0.0254,0.0656 0.0575,0.12862 0.0941,0.28675 0.1157,0.50037 0.008,0.0828 0.0168,0.22927 0.0135,0.2347 -10e-4,0.002 -0.11509,0.004 -0.25264,0.004 -0.19601,0 -0.25013,0.002 -0.25054,0.007 -3.4e-4,0.004 -0.006,0.064 -0.0129,0.13354 -0.0124,0.12536 -0.0127,0.12635 -0.027,0.13043 -0.008,0.002 -0.0665,0.003 -0.13013,0.005 l -0.1157,0.002 0.005,-0.0302 c 0.004,-0.0295 0.0225,-0.23634 0.0225,-0.25826 0,-0.0114 -0.007,-0.0115 -0.2748,-0.01 l -0.2747,0.002 -0.0155,0.118 c -0.009,0.0649 -0.0156,0.12877 -0.016,0.14216 -3.4e-4,0.0232 3.5e-4,0.0239 0.0183,0.0259 0.0177,0.002 0.0187,0.003 0.0186,0.0249 -1.4e-4,0.0127 -0.009,0.0702 -0.0199,0.12792 -0.0108,0.0577 -0.0178,0.10666 -0.0155,0.10898 0.002,0.003 0.10516,0.005 0.22858,0.007 0.19661,0.002 0.22437,0.004 0.22437,0.0114 0,0.0289 -0.0814,0.23193 -0.12742,0.31791 -0.0831,0.15523 -0.23489,0.3353 -0.39591,0.47 -0.24409,0.20415 -0.52062,0.32589 -0.81517,0.35881 -0.0317,0.004 -0.0685,0.008 -0.082,0.01 l -0.0245,0.003 v 0.26247 0.26247 l 0.10216,-0.004 c 0.2426,-0.009 0.41919,-0.04 0.60845,-0.10557 0.40463,-0.14033 0.75164,-0.41198 1.00154,-0.7841 0.14795,-0.22031 0.26246,-0.47765 0.32102,-0.72163 l 0.019,-0.0792 h 0.12421 c 0.15176,0 0.14964,-6.9e-4 0.13886,0.0527 -0.0116,0.0575 -0.0565,0.21079 -0.0913,0.31229 -0.0973,0.28327 -0.24444,0.55055 -0.42678,0.77498 -0.10852,0.13353 -0.2898,0.30054 -0.4328,0.39871 -0.33423,0.22943 -0.73819,0.36313 -1.1773,0.38969 l 1.4e-4,-0.002 c -0.0538,0.003 -0.11466,0.007 -0.13524,0.005 -0.22344,-0.005 -0.54219,-0.0766 -0.76575,-0.17305 -0.0364,-0.0158 -0.0694,-0.0296 -0.0734,-0.0316 -0.006,-0.002 -0.007,-0.18103 -0.007,-0.86601 v -0.86289 h -0.14096 -0.14086 l -0.002,0.76826 c -0.001,0.54839 -0.003,0.77021 -0.008,0.77467 -0.0187,0.0187 -0.28159,-0.21285 -0.41846,-0.36844 -0.2651,-0.30137 -0.43293,-0.62897 -0.53967,-1.05308 -0.0155,-0.0615 -0.0315,-0.11398 -0.0356,-0.1165 -0.004,-0.003 -0.0198,-0.005 -0.0349,-0.005 h -0.0273 v -0.14106 -0.14106 h -0.13826 -0.13815 v 0.14106 0.14106 h -0.50007 -0.50007 l -0.009,-0.0303 c -0.009,-0.03 -0.0171,-0.0934 -0.0235,-0.18998 l -0.003,-0.0503 h 0.40674 0.40683 l -0.004,-0.0561 c -0.002,-0.0309 -0.005,-0.0891 -0.008,-0.12953 l -0.004,-0.0734 h 0.52764 0.52775 v 0.13525 0.13534 h 0.13233 0.13244 l 1.4e-4,-0.0216 c 1.7e-4,-0.0883 0.0131,-0.41793 0.0203,-0.51662 0.0105,-0.14356 0.0235,-0.24758 0.0534,-0.42458 0.0122,-0.072 0.0208,-0.132 0.0192,-0.13394 -0.002,-0.001 -0.18125,-0.003 -0.39921,-0.003 -0.35481,0 -0.39632,-10e-4 -0.39632,-0.009 0,-0.0163 0.0522,-0.16453 0.10517,-0.29896 0.0943,-0.23932 0.22539,-0.4804 0.35791,-0.65787 0.07,-0.0937 0.20722,-0.23841 0.31058,-0.32743 0.073,-0.0629 0.17541,-0.13717 0.18106,-0.13174 0.002,0.002 0.005,0.33147 0.006,0.73176 l 0.002,0.72775 h 0.14076 0.14086 l 10e-4,-0.80715 0.001,-0.80725 0.046,-0.0192 c 0.2139,-0.0897 0.6142,-0.16037 0.88185,-0.16121 z m -0.14055,0.24192 c -0.006,-2e-5 -0.007,0.0618 -0.007,0.29064 0,0.1599 0.002,0.29072 0.004,0.29074 0.002,0 0.0457,0.003 0.0963,0.006 0.28543,0.0178 0.499,0.0707 0.70068,0.17355 0.27943,0.14241 0.47238,0.36589 0.61196,0.7088 l 0.0276,0.0673 h 0.2755 c 0.21662,0 0.2756,-0.001 0.2756,-0.007 -1.4e-4,-0.0355 -0.0807,-0.2871 -0.12201,-0.38107 -0.30784,-0.69953 -0.91076,-1.09098 -1.76058,-1.14301 -0.0522,-0.003 -0.0982,-0.006 -0.10216,-0.006 z m -0.007,1.53611 -0.13966,0.002 -0.13955,0.002 -0.002,0.39721 c -8.6e-4,0.21849 -3.4e-4,0.40046 0.001,0.40453 l 1.7e-4,-8.6e-4 c 0.002,0.005 0.0357,0.007 0.14106,0.007 h 0.13835 v -0.40593 z m 2.93988,0.01 h 0.13033 l 0.0133,0.0397 c 0.0431,0.12736 0.091,0.4467 0.0983,0.65557 l 0.004,0.10246 -0.0743,-0.002 c -0.0998,-0.001 -0.19639,-0.007 -0.20071,-0.0111 -0.002,-0.002 -0.006,-0.055 -0.009,-0.118 -0.0105,-0.21053 -0.0468,-0.47132 -0.0843,-0.60544 -0.008,-0.0293 -0.0132,-0.055 -0.0111,-0.0571 0.002,-0.002 0.0625,-0.002 0.13414,-0.004 z m -2.7492,1.05378 c -0.0112,0.0112 -0.0642,0.24428 -0.0642,0.28262 v 6.9e-4 c 0,0.006 0.0492,0.008 0.29936,0.008 h 0.29936 v -0.0147 c 0,-0.0295 0.0191,-0.14503 0.0343,-0.20743 l 0.0155,-0.0639 -0.29114,-0.003 c -0.16014,-0.004 -0.29209,-0.004 -0.29325,-0.002 z" />
        </g>
        <g
           id="g2066">
          <path
             style="color:#bebebe;display:inline;overflow:visible;visibility:visible;fill:#567663;fill-opacity:1;fill-rule:nonzero;stroke:none;stroke-width:2;marker:none;enable-background:accumulate"
             d="m 422,101.5 c -2.49699,0 -4.5,2.00301 -4.5,4.5 v 12 c 0,2.49699 2.00301,4.5 4.5,4.5 h 12 c 2.49699,0 4.5,-2.00301 4.5,-4.5 v -12 c 0,-2.49699 -2.00301,-4.5 -4.5,-4.5 z"
             id="path4204" />
          <path
             style="color:#bebebe;display:inline;overflow:visible;visibility:visible;fill:url(#linearGradient6196);fill-opacity:1;fill-rule:nonzero;stroke:none;stroke-width:2;marker:none;enable-background:accumulate"
             d="m 422,101.5 c -2.49699,0 -4.5,2.00301 -4.5,4.5 v 12 c 0,2.49699 2.00301,4.5 4.5,4.5 h 12 c 2.49699,0 4.5,-2.00301 4.5,-4.5 v -12 c 0,-2.49699 -2.00301,-4.5 -4.5,-4.5 z"
             id="path6184" />
          <path
             id="path2054"
             style="fill:#f9f9f9;fill-opacity:1;stroke-width:0.00806007"
             d="m 431.47999,104.80702 c -0.20072,2.9e-4 -0.82352,0.0286 -1.15865,0.0528 -1.0941,0.0792 -2.07839,0.26054 -3.09894,0.57069 -0.0509,0.0155 -0.0945,0.0271 -0.0964,0.0244 -0.008,-0.008 -0.0116,-0.1343 -0.0136,-0.34921 h -0.39988 c -9.6e-4,0.18716 -10e-4,0.42445 -0.003,0.44227 -0.004,0.0405 -0.009,0.0517 -0.0222,0.0574 -0.009,0.004 -0.0641,0.0239 -0.12169,0.0445 -0.16111,0.0574 -0.67798,0.26513 -0.90278,0.36296 l -0.1746,0.0761 v 0.43174 l 0.80845,5.8e-4 -0.19187,0.12885 c -0.35484,0.23839 -0.44799,0.30878 -0.61658,0.46542 l -0.10204,0.0947 h -0.76958 -0.76958 l -0.23678,0.23594 c -0.39324,0.39139 -0.62698,0.66879 -0.87414,1.03766 -0.54962,0.82028 -0.93765,1.80362 -1.18377,3.00027 l -0.0427,0.20759 h 0.56648 0.56648 l -0.0147,0.0665 c -0.0287,0.12988 -0.0346,0.224 -0.0393,0.63062 l -0.005,0.40311 -0.93702,0.003 -0.93702,0.003 v 0.10077 0.10064 h 0.38289 0.3829 v 0.0928 0.0926 h -0.57322 -0.57308 l 0.005,0.0303 c 0.003,0.0166 0.007,0.10549 0.01,0.19748 l 0.005,0.16717 h 0.93744 c 0.88588,0 0.93754,9.6e-4 0.94124,0.0142 0.002,0.008 0.006,0.0358 0.009,0.0625 0.003,0.0266 0.0161,0.12445 0.0293,0.21755 0.20666,1.45155 0.81609,2.65465 1.81678,3.58612 0.44781,0.41687 0.99851,0.78869 1.59165,1.07486 0.28702,0.13852 0.4406,0.20099 0.80915,0.32914 0.11921,0.0414 0.21891,0.0774 0.22163,0.0801 4.8e-4,4.8e-4 9.7e-4,0.20516 10e-4,0.24941 h 0.40984 c 2.4e-4,-0.0144 4.8e-4,-0.13525 9.6e-4,-0.13558 0.002,-0.002 0.0784,0.0103 0.16927,0.0276 0.48088,0.0921 0.62401,0.10793 0.98727,0.10793 0.2995,6e-5 0.37975,-0.005 0.6973,-0.0449 0.54539,-0.0682 0.99383,-0.16851 1.46013,-0.32661 1.19511,-0.40532 2.17852,-1.11136 2.91747,-2.09483 0.59818,-0.79605 1.03738,-1.80987 1.1672,-2.69401 0.0177,-0.12035 0.0406,-0.3587 0.0407,-0.42219 l 1.9e-4,-0.0372 -0.0424,-0.005 c -0.0233,-0.002 -0.45344,-0.005 -0.95597,-0.005 h -0.91373 l 0.006,-0.0303 c 0.003,-0.0166 0.0157,-0.0972 0.0275,-0.17924 l 0.0213,-0.1492 0.56185,-0.003 0.56185,-0.003 v -0.18934 -0.18948 h 0.92397 0.92397 l -0.005,-0.0504 c -0.003,-0.0277 -0.0159,-0.24794 -0.0293,-0.48957 -0.0242,-0.43647 -0.0349,-0.58103 -0.0445,-0.59651 -0.003,-0.005 -0.17806,-0.008 -0.49896,-0.008 -0.2717,0 -0.52166,-0.002 -0.5554,-0.005 l -0.0613,-0.005 -0.008,-0.0413 c -0.004,-0.0226 -0.0228,-0.12089 -0.0408,-0.2184 -0.13917,-0.7514 -0.3608,-1.43675 -0.64887,-2.00696 -0.10602,-0.20985 -0.1736,-0.32617 -0.31651,-0.54403 -0.36029,-0.54935 -0.66933,-0.88425 -1.29956,-1.40848 -0.13521,-0.11247 -0.24707,-0.20757 -0.24816,-0.2111 -0.001,-0.004 0.31969,-0.01 0.7133,-0.0135 l 0.71568,-0.007 -0.1047,-0.0626 c -0.29917,-0.17872 -0.62729,-0.31787 -1.28975,-0.54697 l -0.24169,-0.0835 0.40114,-0.003 0.401,-0.003 -0.002,-0.20352 -0.002,-0.20338 -2.21792,-0.004 c -1.21982,-0.002 -2.22047,-0.007 -2.22367,-0.01 -0.008,-0.008 0.0175,-0.0168 0.19327,-0.0662 0.92477,-0.26001 1.59471,-0.34868 3.01501,-0.39917 0.13299,-0.005 0.26451,-0.0103 0.29222,-0.0131 l 0.0504,-0.004 v -0.4024 -0.40241 z m -3.06764,4.38728 c 0.0535,-1.9e-4 0.10329,0.002 0.14793,0.006 0.48996,0.0442 0.92279,0.15992 1.29746,0.34668 0.27193,0.13553 0.47358,0.28015 0.68551,0.49181 0.37268,0.37221 0.62234,0.82671 0.79372,1.44483 0.0249,0.0899 0.0471,0.1691 0.049,0.17643 0.003,0.0106 -0.006,0.0133 -0.0533,0.0168 -0.0313,0.002 -0.0586,0.005 -0.0605,0.008 -0.002,0.002 0.0139,0.0434 0.0355,0.0918 0.0805,0.18008 0.13172,0.40146 0.16197,0.70053 0.0117,0.11592 0.0235,0.32097 0.019,0.32857 -0.002,0.003 -0.16112,0.006 -0.3537,0.006 -0.27442,0 -0.35018,0.002 -0.35075,0.0101 -4.8e-4,0.006 -0.008,0.0896 -0.0181,0.18696 -0.0174,0.17551 -0.0178,0.17689 -0.0378,0.1826 -0.0111,0.003 -0.0931,0.004 -0.18218,0.006 l -0.16197,0.003 0.006,-0.0422 c 0.006,-0.0413 0.0314,-0.33087 0.0314,-0.36156 0,-0.016 -0.0105,-0.0161 -0.38472,-0.0133 l -0.38458,0.003 -0.0217,0.1652 c -0.012,0.0909 -0.0219,0.18028 -0.0225,0.19903 -4.8e-4,0.0325 4.8e-4,0.0335 0.0255,0.0362 0.0249,0.002 0.0262,0.004 0.026,0.0348 -1.9e-4,0.0177 -0.0126,0.0983 -0.0278,0.17909 -0.0152,0.0807 -0.025,0.14932 -0.0217,0.15257 0.003,0.004 0.14722,0.007 0.32001,0.01 0.27526,0.003 0.31412,0.005 0.31412,0.016 0,0.0404 -0.11391,0.3247 -0.17839,0.44507 -0.11639,0.21732 -0.32885,0.46942 -0.55427,0.658 -0.34173,0.28581 -0.72887,0.45624 -1.14124,0.50234 -0.0443,0.005 -0.096,0.0106 -0.11482,0.0133 l -0.0342,0.004 v 0.36745 0.36746 l 0.14302,-0.006 c 0.33964,-0.013 0.58687,-0.0559 0.85183,-0.1478 0.56649,-0.19645 1.0523,-0.57676 1.40216,-1.09773 0.20713,-0.30844 0.36744,-0.66872 0.44943,-1.01029 l 0.0267,-0.11088 h 0.1739 c 0.21245,0 0.20949,-9.7e-4 0.19439,0.0738 -0.0162,0.0805 -0.0791,0.2951 -0.12786,0.43721 -0.13622,0.39657 -0.34223,0.77076 -0.5975,1.08496 -0.15192,0.18695 -0.40573,0.42076 -0.60592,0.5582 -0.46792,0.3212 -1.03347,0.50838 -1.64822,0.54557 l 1.9e-4,-0.002 c -0.0754,0.005 -0.16052,0.01 -0.18934,0.007 -0.31281,-0.006 -0.75906,-0.10719 -1.07204,-0.24226 -0.051,-0.0222 -0.0972,-0.0415 -0.10275,-0.0442 -0.008,-0.003 -0.0101,-0.25344 -0.0101,-1.21241 v -1.20804 h -0.19734 -0.1972 l -0.002,1.07555 c -0.002,0.76776 -0.005,1.0783 -0.011,1.08454 -0.0261,0.0261 -0.39424,-0.29798 -0.58585,-0.51581 -0.37114,-0.42191 -0.6061,-0.88055 -0.75554,-1.47431 -0.0217,-0.0861 -0.0441,-0.15957 -0.0498,-0.1631 -0.006,-0.003 -0.0278,-0.007 -0.0489,-0.007 h -0.0382 v -0.19748 -0.19748 h -0.19356 -0.19341 v 0.19748 0.19748 h -0.7001 -0.7001 l -0.0132,-0.0424 c -0.013,-0.042 -0.024,-0.13077 -0.0328,-0.26597 l -0.005,-0.0705 h 0.56943 0.56957 l -0.005,-0.0786 c -0.003,-0.0432 -0.008,-0.12479 -0.0105,-0.18135 l -0.005,-0.10274 h 0.7387 0.73884 v 0.18935 0.18948 h 0.18527 0.18541 l 1.9e-4,-0.0303 c 2.4e-4,-0.12355 0.0184,-0.58509 0.0285,-0.72326 0.0147,-0.20099 0.033,-0.34662 0.0748,-0.59441 0.0171,-0.10085 0.0291,-0.1848 0.0269,-0.18752 -0.002,-0.001 -0.25375,-0.004 -0.5589,-0.004 -0.49673,0 -0.55483,-0.001 -0.55483,-0.0125 0,-0.0228 0.0731,-0.23035 0.14723,-0.41854 0.13199,-0.33506 0.31556,-0.67256 0.50108,-0.92103 0.098,-0.13121 0.29012,-0.33376 0.43482,-0.4584 0.10226,-0.088 0.24559,-0.19204 0.25349,-0.18443 0.003,0.003 0.007,0.46406 0.008,1.02446 l 0.003,1.01886 h 0.19706 0.1972 l 0.002,-1.13002 0.002,-1.13015 0.0644,-0.0269 c 0.29946,-0.12556 0.85987,-0.22452 1.23458,-0.2257 z m -0.19678,0.33868 c -0.008,-3e-5 -0.0101,0.0866 -0.0101,0.40689 0,0.22386 0.003,0.40701 0.006,0.40704 0.003,0 0.0639,0.004 0.13488,0.008 0.3996,0.025 0.6986,0.099 0.98096,0.24296 0.3912,0.19938 0.66132,0.51226 0.85674,0.99232 l 0.0386,0.0942 h 0.3857 c 0.30328,0 0.38585,-0.002 0.38585,-0.01 -2e-4,-0.0497 -0.11294,-0.40193 -0.17082,-0.5335 -0.43098,-0.97933 -1.27506,-1.52736 -2.46481,-1.60021 -0.0731,-0.005 -0.13748,-0.008 -0.14302,-0.008 z m -0.01,2.15055 -0.19552,0.003 -0.19538,0.003 -0.002,0.55609 c -0.001,0.30589 -4.8e-4,0.56064 0.002,0.56634 l 2.4e-4,-0.001 c 0.003,0.007 0.05,0.01 0.19748,0.01 h 0.1937 v -0.5683 z m 4.11583,0.0135 h 0.18246 l 0.0187,0.0556 c 0.0603,0.17831 0.12737,0.62538 0.13755,0.91779 l 0.005,0.14345 -0.104,-0.003 c -0.13969,-0.002 -0.27494,-0.01 -0.281,-0.0156 -0.003,-0.003 -0.009,-0.077 -0.0129,-0.1652 -0.0147,-0.29475 -0.0655,-0.65986 -0.11804,-0.84762 -0.0115,-0.0411 -0.0185,-0.077 -0.0156,-0.08 0.003,-0.003 0.0874,-0.003 0.1878,-0.006 z m -3.84887,1.47529 c -0.0158,0.0157 -0.0898,0.342 -0.0898,0.39567 v 9.7e-4 c 0,0.008 0.0689,0.0111 0.41911,0.0111 h 0.4191 v -0.0206 c 0,-0.0413 0.0268,-0.20305 0.048,-0.2904 l 0.0217,-0.0894 -0.4076,-0.005 c -0.22419,-0.005 -0.40891,-0.005 -0.41054,-0.003 z" />
        </g>
      </g>
    </g>
    <g
       inkscape:groupmode="layer"
       id="layer6"
       inkscape:label="Symbols"
       style="display:inline" />
    <g
       inkscape:groupmode="layer"
       id="layer5"
       inkscape:label="Highlights"
       style="display:inline"
       sodipodi:insensitive="true">
      <path
         style="opacity:0.12999998;color:#bebebe;fill:#ffffff;fill-opacity:1;fill-rule:nonzero;stroke:none;stroke-width:0;marker:none;visibility:visible;display:inline;overflow:visible;enable-background:accumulate"
         d="M 84,47 C 56.836703,47 35,68.836703 35,96 l 0,1 C 35,69.836703 56.836703,48 84,48 l 120,0 c 27.1633,0 49,21.836703 49,49 l 0,-1 C 253,68.836703 231.1633,47 204,47 L 84,47 z"
         id="rect3894"
         inkscape:connector-curvature="0" />
      <path
         style="opacity:0.12999998;color:#bebebe;fill:#ffffff;fill-opacity:1;fill-rule:nonzero;stroke:none;stroke-width:0;marker:none;visibility:visible;display:inline;overflow:visible;enable-background:accumulate"
         d="m 419,141 c -1.1253,0 -2,0.8747 -2,2 l 0,1 c 0,-1.1253 0.8747,-2 2,-2 l 10,0 c 1.1253,0 2,0.8747 2,2 l 0,-1 c 0,-1.1253 -0.8747,-2 -2,-2 l -10,0 z"
         id="rect3896"
         inkscape:connector-curvature="0" />
      <path
         style="opacity:0.12999998;color:#bebebe;fill:#ffffff;fill-opacity:1;fill-rule:nonzero;stroke:none;stroke-width:0;marker:none;visibility:visible;display:inline;overflow:visible;enable-background:accumulate"
         d="m 422,102 c -2.2333,0 -4,1.7667 -4,4 l 0,1 c 0,-2.2333 1.7667,-4 4,-4 l 12,0 c 2.2333,0 4,1.7667 4,4 l 0,-1 c 0,-2.2333 -1.7667,-4 -4,-4 l -12,0 z"
         id="rect3898"
         inkscape:connector-curvature="0" />
      <path
         style="opacity:0.12999998;color:#bebebe;fill:#ffffff;fill-opacity:1;fill-rule:nonzero;stroke:none;stroke-width:0;marker:none;visibility:visible;display:inline;overflow:visible;enable-background:accumulate"
         d="m 424,54 c -3.3413,0 -6,2.658703 -6,6 l 0,1 c 0,-3.341297 2.6587,-6 6,-6 l 16,0 c 3.3413,0 6,2.658703 6,6 l 0,-1 c 0,-3.341297 -2.6587,-6 -6,-6 l -16,0 z"
         id="rect3900"
         inkscape:connector-curvature="0" />
      <path
         style="opacity:0.12999998;color:#bebebe;fill:#ffffff;fill-opacity:1;fill-rule:nonzero;stroke:none;stroke-width:0;marker:none;visibility:visible;display:inline;overflow:visible;enable-background:accumulate"
         d="m 300,224 c -4.4493,0 -8,3.5507 -8,8 l 0,1 c 0,-4.4493 3.5507,-8 8,-8 l 24,0 c 4.4493,0 8,3.5507 8,8 l 0,-1 c 0,-4.4493 -3.5507,-8 -8,-8 l -24,0 z"
         id="rect3902"
         inkscape:connector-curvature="0" />
      <path
         style="opacity:0.12999998;color:#bebebe;fill:#ffffff;fill-opacity:1;fill-rule:nonzero;stroke:none;stroke-width:0;marker:none;visibility:visible;display:inline;overflow:visible;enable-background:accumulate"
         d="m 310,33 c -9.4353,0 -17,7.564703 -17,17 l 0,1 c 0,-9.435297 7.5647,-17 17,-17 l 52,0 c 9.4353,0 17,7.564703 17,17 l 0,-1 c 0,-9.435297 -7.5647,-17 -17,-17 l -52,0 z"
         id="rect3904"
         inkscape:connector-curvature="0" />
      <path
         style="opacity:0.12999998;color:#bebebe;fill:#ffffff;fill-opacity:1;fill-rule:nonzero;stroke:none;stroke-width:0;marker:none;visibility:visible;display:inline;overflow:visible;enable-background:accumulate"
         d="m 302.5,143 c -6.3883,0 -11.5,5.1117 -11.5,11.5 l 0,1 c 0,-6.3883 5.1117,-11.5 11.5,-11.5 l 35,0 c 6.3883,0 11.5,5.1117 11.5,11.5 l 0,-1 c 0,-6.3883 -5.1117,-11.5 -11.5,-11.5 l -35,0 z"
         id="rect3906"
         inkscape:connector-curvature="0" />
      <path
         id="path4085"
         d="m 204,266 c 27.1633,0 49,-21.8367 49,-49 l 0,-1 c 0,27.1633 -21.8367,49 -49,49 L 84,265 C 56.8367,265 35,243.1633 35,216 l 0,1 c 0,27.1633 21.8367,49 49,49 l 120,0 z"
         style="opacity:0.41;color:#bebebe;fill:#000000;fill-opacity:1;fill-rule:nonzero;stroke:none;stroke-width:0;marker:none;visibility:visible;display:inline;overflow:visible;enable-background:accumulate"
         inkscape:connector-curvature="0" />
      <path
         id="path4087"
         d="m 429,156 c 1.1253,0 2,-0.8747 2,-2 l 0,-1 c 0,1.1253 -0.8747,2 -2,2 l -10,0 c -1.1253,0 -2,-0.8747 -2,-2 l 0,1 c 0,1.1253 0.8747,2 2,2 l 10,0 z"
         style="opacity:0.3;color:#bebebe;fill:#000000;fill-opacity:1;fill-rule:nonzero;stroke:none;stroke-width:0;marker:none;visibility:visible;display:inline;overflow:visible;enable-background:accumulate"
         inkscape:connector-curvature="0" />
      <path
         id="path4089"
         d="m 434,123 c 2.2333,0 4,-1.7667 4,-4 l 0,-1 c 0,2.2333 -1.7667,4 -4,4 l -12,0 c -2.2333,0 -4,-1.7667 -4,-4 l 0,1 c 0,2.2333 1.7667,4 4,4 l 12,0 z"
         style="opacity:0.3;color:#bebebe;fill:#000000;fill-opacity:1;fill-rule:nonzero;stroke:none;stroke-width:0;marker:none;visibility:visible;display:inline;overflow:visible;enable-background:accumulate"
         inkscape:connector-curvature="0" />
      <path
         id="path4091"
         d="m 440,83 c 3.3413,0 6,-2.6587 6,-6 l 0,-1 c 0,3.3413 -2.6587,6 -6,6 l -16,0 c -3.3413,0 -6,-2.6587 -6,-6 l 0,1 c 0,3.3413 2.6587,6 6,6 l 16,0 z"
         style="opacity:0.41;color:#bebebe;fill:#000000;fill-opacity:1;fill-rule:nonzero;stroke:none;stroke-width:0;marker:none;visibility:visible;display:inline;overflow:visible;enable-background:accumulate"
         inkscape:connector-curvature="0" />
      <path
         id="path4093"
         d="m 324,265 c 4.4493,0 8,-3.5507 8,-8 l 0,-1 c 0,4.4493 -3.5507,8 -8,8 l -24,0 c -4.4493,0 -8,-3.5507 -8,-8 l 0,1 c 0,4.4493 3.5507,8 8,8 l 24,0 z"
         style="opacity:0.41;color:#bebebe;fill:#000000;fill-opacity:1;fill-rule:nonzero;stroke:none;stroke-width:0;marker:none;visibility:visible;display:inline;overflow:visible;enable-background:accumulate"
         inkscape:connector-curvature="0" />
      <path
         id="path4095"
         d="m 362,120 c 9.4353,0 17,-7.5647 17,-17 l 0,-1 c 0,9.4353 -7.5647,17 -17,17 l -52,0 c -9.4353,0 -17,-7.5647 -17,-17 l 0,1 c 0,9.4353 7.5647,17 17,17 l 52,0 z"
         style="opacity:0.41;color:#bebebe;fill:#000000;fill-opacity:1;fill-rule:nonzero;stroke:none;stroke-width:0;marker:none;visibility:visible;display:inline;overflow:visible;enable-background:accumulate"
         inkscape:connector-curvature="0" />
      <path
         id="path4097"
         d="m 337.5,202 c 6.3883,0 11.5,-5.1117 11.5,-11.5 l 0,-1 c 0,6.3883 -5.1117,11.5 -11.5,11.5 l -35,0 c -6.3883,0 -11.5,-5.1117 -11.5,-11.5 l 0,1 c 0,6.3883 5.1117,11.5 11.5,11.5 l 35,0 z"
         style="opacity:0.41;color:#bebebe;fill:#000000;fill-opacity:1;fill-rule:nonzero;stroke:none;stroke-width:0;marker:none;visibility:visible;display:inline;overflow:visible;enable-background:accumulate"
         inkscape:connector-curvature="0" />
      <path
         inkscape:connector-curvature="0"
         id="path4280"
         d="M 84,265 C 56.836703,265 35,243.1633 35,216 l 0,-1 c 0,27.1633 21.836703,49 49,49 l 120,0 c 27.1633,0 49,-21.8367 49,-49 l 0,1 c 0,27.1633 -21.8367,49 -49,49 l -120,0 z"
         style="opacity:0.1;color:#bebebe;fill:#ffffff;fill-opacity:1;fill-rule:nonzero;stroke:none;stroke-width:0;marker:none;visibility:visible;display:inline;overflow:visible;enable-background:accumulate" />
      <path
         style="opacity:0.1;color:#bebebe;fill:#ffffff;fill-opacity:1;fill-rule:nonzero;stroke:none;stroke-width:0;marker:none;visibility:visible;display:inline;overflow:visible;enable-background:accumulate"
         d="m 300,264 c -4.4493,0 -8,-3.5507 -8,-8 l 0,-1 c 0,4.4493 3.5507,8 8,8 l 24,0 c 4.4493,0 8,-3.5507 8,-8 l 0,1 c 0,4.4493 -3.5507,8 -8,8 l -24,0 z"
         id="path4294"
         inkscape:connector-curvature="0" />
      <path
         style="opacity:0.1;color:#bebebe;fill:#ffffff;fill-opacity:1;fill-rule:nonzero;stroke:none;stroke-width:0;marker:none;visibility:visible;display:inline;overflow:visible;enable-background:accumulate"
         d="m 302.5,201 c -6.3883,0 -11.5,-5.1117 -11.5,-11.5 l 0,-1 c 0,6.3883 5.1117,11.5 11.5,11.5 l 35,0 c 6.3883,0 11.5,-5.1117 11.5,-11.5 l 0,1 c 0,6.3883 -5.1117,11.5 -11.5,11.5 l -35,0 z"
         id="path4296"
         inkscape:connector-curvature="0" />
      <path
         style="opacity:0.1;color:#bebebe;fill:#ffffff;fill-opacity:1;fill-rule:nonzero;stroke:none;stroke-width:0;marker:none;visibility:visible;display:inline;overflow:visible;enable-background:accumulate"
         d="m 310,119 c -9.4353,0 -17,-7.5647 -17,-17 l 0,-1 c 0,9.4353 7.5647,17 17,17 l 52,0 c 9.4353,0 17,-7.5647 17,-17 l 0,1 c 0,9.4353 -7.5647,17 -17,17 l -52,0 z"
         id="path4298"
         inkscape:connector-curvature="0" />
      <path
         style="opacity:0.1;color:#bebebe;fill:#ffffff;fill-opacity:1;fill-rule:nonzero;stroke:none;stroke-width:0;marker:none;visibility:visible;display:inline;overflow:visible;enable-background:accumulate"
         d="m 424,82 c -3.3413,0 -6,-2.658703 -6,-6 l 0,-1 c 0,3.341297 2.6587,6 6,6 l 16,0 c 3.3413,0 6,-2.658703 6,-6 l 0,1 c 0,3.341297 -2.6587,6 -6,6 l -16,0 z"
         id="path4300"
         inkscape:connector-curvature="0" />
      <path
         style="opacity:0.1;color:#bebebe;fill:#ffffff;fill-opacity:1;fill-rule:nonzero;stroke:none;stroke-width:0;marker:none;visibility:visible;display:inline;overflow:visible;enable-background:accumulate"
         d="m 422,122 c -2.2333,0 -4,-1.7667 -4,-4 l 0,-1 c 0,2.2333 1.7667,4 4,4 l 12,0 c 2.2333,0 4,-1.7667 4,-4 l 0,1 c 0,2.2333 -1.7667,4 -4,4 l -12,0 z"
         id="path4302"
         inkscape:connector-curvature="0" />
      <path
         style="opacity:0.1;color:#bebebe;fill:#ffffff;fill-opacity:1;fill-rule:nonzero;stroke:none;stroke-width:0;marker:none;visibility:visible;display:inline;overflow:visible;enable-background:accumulate"
         d="m 419,154.5 c -1.1253,0 -2,-0.8747 -2,-2 l 0,-1 c 0,1.1253 0.8747,2 2,2 l 10,0 c 1.1253,0 2,-0.8747 2,-2 l 0,1 c 0,1.1253 -0.8747,2 -2,2 l -10,0 z"
         id="path4304"
         inkscape:connector-curvature="0" />
    </g>
    <g
       inkscape:groupmode="layer"
       id="layer3"
       inkscape:label="Border"
       style="display:inline"
       sodipodi:insensitive="true">
      <path
         style="opacity:0.41;color:#bebebe;fill:#000000;fill-opacity:1;fill-rule:nonzero;stroke:none;stroke-width:0;marker:none;visibility:visible;display:inline;overflow:visible;enable-background:accumulate"
         d="m 422,101 c -2.77,0 -5,2.23 -5,5 l 0,12 c 0,2.77 2.23,5 5,5 l 12,0 c 2.77,0 5,-2.23 5,-5 l 0,-12 c 0,-2.77 -2.23,-5 -5,-5 l -12,0 z m 0,1 12,0 c 2.2333,0 4,1.7667 4,4 l 0,12 c 0,2.2333 -1.7667,4 -4,4 l -12,0 c -2.2333,0 -4,-1.7667 -4,-4 l 0,-12 c 0,-2.2333 1.7667,-4 4,-4 z"
         id="rect4099"
         inkscape:connector-curvature="0" />
      <path
         style="opacity:0.41;color:#bebebe;fill:#000000;fill-opacity:1;fill-rule:nonzero;stroke:none;stroke-width:0;marker:none;visibility:visible;display:inline;overflow:visible;enable-background:accumulate"
         d="m 424,53 c -3.878,0 -7,3.122 -7,7 l 0,16 c 0,3.878 3.122,7 7,7 l 16,0 c 3.878,0 7,-3.122 7,-7 l 0,-16 c 0,-3.878 -3.122,-7 -7,-7 l -16,0 z m 0,1 16,0 c 3.3413,0 6,2.658703 6,6 l 0,16 c 0,3.341297 -2.6587,6 -6,6 l -16,0 c -3.3413,0 -6,-2.658703 -6,-6 l 0,-16 c 0,-3.341297 2.6587,-6 6,-6 z"
         id="rect4151"
         inkscape:connector-curvature="0" />
      <path
         style="opacity:0.41;color:#bebebe;fill:#000000;fill-opacity:1;fill-rule:nonzero;stroke:none;stroke-width:0;marker:none;visibility:visible;display:inline;overflow:visible;enable-background:accumulate"
         d="m 419,140 c -1.662,0 -3,1.338 -3,3 l 0,10 c 0,1.662 1.338,3 3,3 l 10,0 c 1.662,0 3,-1.338 3,-3 l 0,-10 c 0,-1.662 -1.338,-3 -3,-3 l -10,0 z m 0,1 10,0 c 1.1253,0 2,0.8747 2,2 l 0,10 c 0,1.1253 -0.8747,2 -2,2 l -10,0 c -1.1253,0 -2,-0.8747 -2,-2 l 0,-10 c 0,-1.1253 0.8747,-2 2,-2 z"
         id="rect4095"
         inkscape:connector-curvature="0" />
      <path
         style="opacity:0.41;color:#bebebe;fill:#000000;fill-opacity:1;fill-rule:nonzero;stroke:none;stroke-width:0;marker:none;visibility:visible;display:inline;overflow:visible;enable-background:accumulate"
         d="m 300,223 c -4.986,0 -9,4.014 -9,9 l 0,24 c 0,4.986 4.014,9 9,9 l 24,0 c 4.986,0 9,-4.014 9,-9 l 0,-24 c 0,-4.986 -4.014,-9 -9,-9 l -24,0 z m 0,1 24,0 c 4.4493,0 8,3.5507 8,8 l 0,24 c 0,4.4493 -3.5507,8 -8,8 l -24,0 c -4.4493,0 -8,-3.5507 -8,-8 l 0,-24 c 0,-4.4493 3.5507,-8 8,-8 z"
         id="rect4783"
         inkscape:connector-curvature="0" />
      <path
         style="opacity:0.41;color:#bebebe;fill:#000000;fill-opacity:1;fill-rule:nonzero;stroke:none;stroke-width:0;marker:none;visibility:visible;display:inline;overflow:visible;enable-background:accumulate"
         d="m 302.5,142 c -6.925,0 -12.5,5.575 -12.5,12.5 l 0,35 c 0,6.925 5.575,12.5 12.5,12.5 l 35,0 c 6.925,0 12.5,-5.575 12.5,-12.5 l 0,-35 c 0,-6.925 -5.575,-12.5 -12.5,-12.5 l -35,0 z m 0,1 35,0 c 6.3883,0 11.5,5.1117 11.5,11.5 l 0,35 c 0,6.3883 -5.1117,11.5 -11.5,11.5 l -35,0 c -6.3883,0 -11.5,-5.1117 -11.5,-11.5 l 0,-35 c 0,-6.3883 5.1117,-11.5 11.5,-11.5 z"
         id="rect4515"
         inkscape:connector-curvature="0" />
      <path
         style="opacity:0.41;color:#bebebe;fill:#000000;fill-opacity:1;fill-rule:nonzero;stroke:none;stroke-width:0;marker:none;visibility:visible;display:inline;overflow:visible;enable-background:accumulate"
         d="m 310,32 c -9.972,0 -18,8.028 -18,18 l 0,52 c 0,9.972 8.028,18 18,18 l 52,0 c 9.972,0 18,-8.028 18,-18 l 0,-52 c 0,-9.972 -8.028,-18 -18,-18 l -52,0 z m 0,1 52,0 c 9.4353,0 17,7.564703 17,17 l 0,52 c 0,9.4353 -7.5647,17 -17,17 l -52,0 c -9.4353,0 -17,-7.5647 -17,-17 l 0,-52 c 0,-9.435297 7.5647,-17 17,-17 z"
         id="rect4511"
         inkscape:connector-curvature="0" />
      <path
         style="opacity:0.41;color:#bebebe;fill:#000000;fill-opacity:1;fill-rule:nonzero;stroke:none;stroke-width:0;marker:none;visibility:visible;display:inline;overflow:visible;enable-background:accumulate"
         d="M 84,46 C 56.3,46 34,68.3 34,96 l 0,120 c 0,27.7 22.3,50 50,50 l 120,0 c 27.7,0 50,-22.3 50,-50 L 254,96 C 254,68.3 231.7,46 204,46 L 84,46 z m 0,1 120,0 c 27.1633,0 49,21.836703 49,49 l 0,120 c 0,27.1633 -21.8367,49 -49,49 L 84,265 C 56.836703,265 35,243.1633 35,216 L 35,96 C 35,68.836703 56.836703,47 84,47 z"
         id="rect4040"
         inkscape:connector-curvature="0" />
    </g>
  </g>
  <style
     type="text/css"
     id="style134">
	.st0{fill:#EF443B;}
</style>
</svg>
