<?xml version="1.0" encoding="UTF-8" standalone="no"?>
<!-- Created with Inkscape (http://www.inkscape.org/) -->

<svg
   width="480"
   height="300"
   viewBox="0 0 480 300"
   version="1.1"
   id="svg5"
   inkscape:version="1.3 (1:1.3+202307231459+0e150ed6c4)"
   sodipodi:docname="system-error.svg"
   xmlns:inkscape="http://www.inkscape.org/namespaces/inkscape"
   xmlns:sodipodi="http://sodipodi.sourceforge.net/DTD/sodipodi-0.dtd"
   xmlns="http://www.w3.org/2000/svg"
   xmlns:svg="http://www.w3.org/2000/svg">
  <sodipodi:namedview
     id="namedview7"
     pagecolor="#888888"
     bordercolor="#000000"
     borderopacity="0.25"
     inkscape:showpageshadow="true"
     inkscape:pageopacity="0"
     inkscape:pagecheckerboard="0"
     inkscape:deskcolor="#888888"
     inkscape:document-units="px"
     showgrid="false"
     showborder="false"
     inkscape:zoom="1.4958333"
     inkscape:cx="240"
     inkscape:cy="150.08357"
     inkscape:window-width="1920"
     inkscape:window-height="1008"
     inkscape:window-x="0"
     inkscape:window-y="0"
     inkscape:window-maximized="1"
     inkscape:current-layer="svg5" />
  <defs
     id="defs2" />
  <g
     id="Baseplate"
     style="display:none">
    <text
       y="19.774782"
       xml:space="preserve"
       x="15.006946"
       style="font-style:normal;font-variant:normal;font-weight:normal;font-stretch:normal;line-height:0%;font-family:'DejaVu Sans';-inkscape-font-specification:'DejaVu Sans';display:inline;fill:#000000;fill-opacity:1;stroke:none;enable-background:new"
       inkscape:label="context"
       id="context"><tspan
         style="font-style:normal;font-variant:normal;font-weight:normal;font-stretch:normal;font-size:18px;line-height:1.25;font-family:'DejaVu Sans';-inkscape-font-specification:'DejaVu Sans'"
         y="19.774782"
         x="15.006946"
         sodipodi:role="line"
         id="tspan3933">apps</tspan></text>
    <text
       y="19.774782"
       xml:space="preserve"
       x="122.48839"
       style="font-style:normal;font-variant:normal;font-weight:bold;font-stretch:normal;line-height:0%;font-family:'DejaVu Sans';-inkscape-font-specification:'DejaVu Sans Bold';text-align:start;writing-mode:lr-tb;text-anchor:start;display:inline;fill:#000000;fill-opacity:1;stroke:none;enable-background:new"
       inkscape:label="icon-name"
       id="icon-name"><tspan
         style="font-style:normal;font-variant:normal;font-weight:bold;font-stretch:normal;font-size:18px;line-height:1.25;font-family:'DejaVu Sans';-inkscape-font-specification:'DejaVu Sans Bold'"
         y="19.774782"
         x="122.48839"
         sodipodi:role="line"
         id="tspan3937">system-error</tspan></text>
    <rect
       style="fill:#ffffff"
       id="256x256"
       width="256"
       height="256"
       x="16"
       y="28" />
    <rect
       style="fill:#ffffff"
       id="96x96"
       width="96"
       height="96"
       x="288"
       y="28" />
    <rect
       style="fill:#ffffff"
       id="64x64"
       width="64"
       height="64"
       x="288"
       y="140" />
    <rect
       style="fill:#ffffff"
       id="48x48"
       width="48"
       height="48"
       x="288"
       y="220" />
    <rect
       style="fill:#ffffff"
       id="32x32"
       width="32"
       height="32"
       x="416"
       y="52" />
    <rect
       style="fill:#ffffff"
       id="24x24"
       width="24"
       height="24"
       x="416"
       y="100" />
    <rect
       style="fill:#ffffff"
       id="22x22"
       width="22"
       height="22"
       x="417"
       y="101" />
    <rect
       style="fill:#ffffff"
       id="16x16"
       width="16"
       height="16"
       x="416"
       y="140" />
  </g>
  <g
     id="Shadow">
    <rect
       style="opacity:0.2;fill:#000000"
       id="rect651"
       width="224"
       height="224"
       x="32"
       y="46"
       ry="48" />
    <rect
       style="opacity:0.2;fill:#000000"
       id="rect769"
       width="84"
       height="85"
       x="294"
       y="34"
       ry="18" />
    <rect
       style="opacity:0.2;fill:#000000;fill-opacity:1"
       id="rect1131"
       width="56"
       height="56"
       x="292"
       y="145"
       ry="12" />
    <rect
       style="opacity:0.2;fill:#000000;fill-opacity:1"
       id="rect1261"
       width="42"
       height="42"
       x="291"
       y="224"
       ry="9" />
    <rect
       style="opacity:0.2;fill:#000000;fill-opacity:1"
       id="rect1364"
       width="28"
       height="29"
       x="418"
       y="54"
       ry="6" />
    <rect
       style="opacity:0.2;fill:#000000;fill-opacity:1"
       id="rect1398"
       width="16"
       height="16"
       x="416"
       y="141"
       ry="4" />
    <rect
       style="opacity:0.2;fill:#000000;fill-opacity:1"
       id="rect1432"
       width="20"
       height="20"
       x="418"
       y="103"
       ry="4" />
  </g>
  <g
     id="Background">
    <rect
       style="fill:#c2352a;fill-opacity:1"
       id="rect597"
       width="224"
       height="224"
       x="32"
       y="44"
       ry="48" />
    <rect
       style="opacity:1;fill:#c2352a;fill-opacity:1"
       id="rect771"
       width="84"
       height="84"
       x="294"
       y="34"
       ry="18" />
    <rect
       style="opacity:1;fill:#c2352a;fill-opacity:1"
       id="rect1133"
       width="56"
       height="56"
       x="292"
       y="144"
       ry="12" />
    <rect
       style="opacity:1;fill:#c2352a;fill-opacity:1"
       id="rect1263"
       width="42"
       height="42"
       x="291"
       y="223"
       ry="9" />
    <rect
       style="opacity:1;fill:#c2352a;fill-opacity:1"
       id="rect1366"
       width="28"
       height="28"
       x="418"
       y="54"
       ry="6" />
    <rect
       style="opacity:1;fill:#c2352a;fill-opacity:1"
       id="rect1400"
       width="16"
       height="16"
       x="416"
       y="140"
       ry="4" />
    <rect
       style="opacity:1;fill:#c2352a;fill-opacity:1"
       id="rect1434"
       width="20"
       height="20"
       x="418"
       y="102"
       ry="4" />
  </g>
  <g
     id="g654">
    <g
       id="g628">
      <path
         id="rect621"
         style="opacity:0.2;fill:#000000;stroke-width:2;stroke-linecap:square"
         d="M 423 143.5 L 423 149.5 L 425 149.5 L 425 143.5 L 423 143.5 z M 424 151.5 A 1 1 0 0 0 423 152.5 A 1 1 0 0 0 424 153.5 A 1 1 0 0 0 425 152.5 A 1 1 0 0 0 424 151.5 z " />
      <path
         id="rect616"
         style="opacity:1;fill:#ffffff;stroke-width:2;stroke-linecap:square"
         d="M 423 143 L 423 149 L 425 149 L 425 143 L 423 143 z M 424 151 A 1 1 0 0 0 423 152 A 1 1 0 0 0 424 153 A 1 1 0 0 0 425 152 A 1 1 0 0 0 424 151 z " />
    </g>
    <g
       id="g611">
      <path
         id="rect599"
         style="opacity:0.2;fill:#000000;stroke-width:2;stroke-linecap:square"
         d="M 427 105.5 L 427 115.5 L 429 115.5 L 429 105.5 L 427 105.5 z M 428 117.5 A 1 1 0 0 0 427 118.5 A 1 1 0 0 0 428 119.5 A 1 1 0 0 0 429 118.5 A 1 1 0 0 0 428 117.5 z " />
      <path
         id="rect604"
         style="opacity:1;fill:#ffffff;stroke-width:2;stroke-linecap:square"
         d="M 427 105 L 427 115 L 429 115 L 429 105 L 427 105 z M 428 117 A 1 1 0 0 0 427 118 A 1 1 0 0 0 428 119 A 1 1 0 0 0 429 118 A 1 1 0 0 0 428 117 z " />
    </g>
    <g
       id="g591">
      <path
         id="rect584"
         style="opacity:0.2;fill:#000000;stroke-width:2;stroke-linecap:square"
         d="M 430 59 L 430 73 L 433 73 L 433 59 L 430 59 z M 431.5 76 A 1.5 1.5 0 0 0 430 77.5 A 1.5 1.5 0 0 0 431.5 79 A 1.5 1.5 0 0 0 433 77.5 A 1.5 1.5 0 0 0 431.5 76 z " />
      <path
         id="rect578"
         style="opacity:1;fill:#ffffff;stroke-width:1.5;stroke-linecap:square"
         d="M 430 58 L 430 72 L 433 72 L 433 58 L 430 58 z M 431.5 75 A 1.5 1.5 0 0 0 430 76.5 A 1.5 1.5 0 0 0 431.5 78 A 1.5 1.5 0 0 0 433 76.5 A 1.5 1.5 0 0 0 431.5 75 z " />
    </g>
    <g
       id="g439">
      <path
         id="rect380"
         style="opacity:0.2;fill:#000000;stroke-width:2;stroke-linecap:square"
         d="M 317 153 L 317 181 L 323 181 L 323 153 L 317 153 z M 320 187 A 3 3 0 0 0 317 190 A 3 3 0 0 0 320 193 A 3 3 0 0 0 323 190 A 3 3 0 0 0 320 187 z " />
      <path
         id="rect321"
         style="fill:#ffffff;stroke-width:2;stroke-linecap:square"
         d="M 317 152 L 317 180 L 323 180 L 323 152 L 317 152 z M 320 186 A 3 3 0 0 0 317 189 A 3 3 0 0 0 320 192 A 3 3 0 0 0 323 189 A 3 3 0 0 0 320 186 z " />
    </g>
    <g
       id="g513">
      <path
         id="rect505"
         style="opacity:0.2;fill:#000000;stroke-width:2;stroke-linecap:square"
         d="M 310 230 L 310 252 L 314 252 L 314 230 L 310 230 z M 312 256 A 2 2 0 0 0 310 258 A 2 2 0 0 0 312 260 A 2 2 0 0 0 314 258 A 2 2 0 0 0 312 256 z " />
      <path
         id="rect500"
         style="opacity:1;fill:#ffffff;stroke-width:2;stroke-linecap:square"
         d="M 310 229 L 310 251 L 314 251 L 314 229 L 310 229 z M 312 255 A 2 2 0 0 0 310 257 A 2 2 0 0 0 312 259 A 2 2 0 0 0 314 257 A 2 2 0 0 0 312 255 z " />
    </g>
    <g
       id="g527"
       transform="matrix(2,0,0,2,-288,-412)">
      <path
         id="rect515"
         style="opacity:0.2;fill:#000000;stroke-width:2;stroke-linecap:square"
         d="M 310 229.5 L 310 251.5 L 314 251.5 L 314 229.5 L 310 229.5 z M 312 255.5 A 2 2 0 0 0 310 257.5 A 2 2 0 0 0 312 259.5 A 2 2 0 0 0 314 257.5 A 2 2 0 0 0 312 255.5 z " />
      <path
         id="rect520"
         style="opacity:1;fill:#ffffff;stroke-width:2;stroke-linecap:square"
         d="M 310 229 L 310 251 L 314 251 L 314 229 L 310 229 z M 312 255 A 2 2 0 0 0 310 257 A 2 2 0 0 0 312 259 A 2 2 0 0 0 314 257 A 2 2 0 0 0 312 255 z " />
    </g>
    <g
       id="g496"
       transform="matrix(4,0,0,4,-1136,-532)">
      <path
         id="rect484"
         style="opacity:0.2;fill:#000000;stroke-width:2;stroke-linecap:square"
         d="M 317 152.5 L 317 180.5 L 323 180.5 L 323 152.5 L 317 152.5 z M 320 186.5 A 3 3 0 0 0 317 189.5 A 3 3 0 0 0 320 192.5 A 3 3 0 0 0 323 189.5 A 3 3 0 0 0 320 186.5 z " />
      <path
         id="rect489"
         style="opacity:1;fill:#ffffff;stroke-width:2;stroke-linecap:square"
         d="M 317 152 L 317 180 L 323 180 L 323 152 L 317 152 z M 320 186 A 3 3 0 0 0 317 189 A 3 3 0 0 0 320 192 A 3 3 0 0 0 323 189 A 3 3 0 0 0 320 186 z " />
    </g>
  </g>
  <g
     id="Highlights">
    <path
       id="rect653"
       style="opacity:0.2;fill:#ffffff"
       d="M 80,44 C 53.408027,44 32,65.408027 32,92 v 2 C 32,67.408027 53.408027,46 80,46 h 128 c 26.59197,0 48,21.408027 48,48 V 92 C 256,65.408027 234.59197,44 208,44 Z"
       sodipodi:nodetypes="sscsscsss" />
    <path
       id="rect773"
       style="opacity:0.2;fill:#ffffff"
       d="m 312,34 c -9.97199,0 -18,8.02801 -18,18 v 1 c 0,-9.97199 8.02801,-18 18,-18 h 48 c 9.97199,0 18,8.02801 18,18 v -1 c 0,-9.97199 -8.02801,-18 -18,-18 z" />
    <path
       id="rect1135"
       style="opacity:0.2;fill:#ffffff;fill-opacity:1"
       d="m 304,144 c -6.64799,0 -12,5.35201 -12,12 v 1 c 0,-6.64799 5.35201,-12 12,-12 h 32 c 6.64799,0 12,5.35201 12,12 v -1 c 0,-6.64799 -5.35201,-12 -12,-12 z" />
    <path
       id="rect1265"
       style="opacity:0.2;fill:#ffffff;fill-opacity:1"
       d="m 300,223 c -4.986,0 -9,4.014 -9,9 v 1 c 0,-4.986 4.014,-9 9,-9 h 24 c 4.986,0 9,4.014 9,9 v -1 c 0,-4.986 -4.014,-9 -9,-9 z" />
    <path
       id="rect1368"
       style="opacity:0.2;fill:#ffffff;fill-opacity:1"
       d="m 424,54 c -3.324,0 -6,2.676003 -6,6 v 1 c 0,-3.323997 2.676,-6 6,-6 h 16 c 3.324,0 6,2.676003 6,6 v -1 c 0,-3.323997 -2.676,-6 -6,-6 z" />
    <path
       id="rect1402"
       style="opacity:0.2;fill:#ffffff;fill-opacity:1"
       d="m 420,140 c -2.216,0 -4,1.784 -4,4 v 1 c 0,-2.216 1.784,-4 4,-4 h 8 c 2.216,0 4,1.784 4,4 v -1 c 0,-2.216 -1.784,-4 -4,-4 z" />
    <path
       id="rect1436"
       style="opacity:0.2;fill:#ffffff;fill-opacity:1"
       d="m 422,102 c -2.216,0 -4,1.784 -4,4 v 1 c 0,-2.216 1.784,-4 4,-4 h 12 c 2.216,0 4,1.784 4,4 v -1 c 0,-2.216 -1.784,-4 -4,-4 z" />
  </g>
</svg>
