<?xml version="1.0" encoding="UTF-8" standalone="no"?>
<!-- Created with Inkscape (http://www.inkscape.org/) -->

<svg
   inkscape:export-ydpi="90.000000"
   inkscape:export-xdpi="90.000000"
   width="480"
   height="300"
   id="svg11300"
   sodipodi:version="0.32"
   inkscape:version="1.1.2 (0a00cf5339, 2022-02-04)"
   sodipodi:docname="terraria.svg"
   inkscape:output_extension="org.inkscape.output.svg.inkscape"
   version="1.0"
   style="display:inline;enable-background:new"
   inkscape:export-filename="/home/sam/moka-next-template.png"
   xmlns:inkscape="http://www.inkscape.org/namespaces/inkscape"
   xmlns:sodipodi="http://sodipodi.sourceforge.net/DTD/sodipodi-0.dtd"
   xmlns:xlink="http://www.w3.org/1999/xlink"
   xmlns="http://www.w3.org/2000/svg"
   xmlns:svg="http://www.w3.org/2000/svg"
   xmlns:rdf="http://www.w3.org/1999/02/22-rdf-syntax-ns#"
   xmlns:cc="http://creativecommons.org/ns#"
   xmlns:dc="http://purl.org/dc/elements/1.1/">
  <sodipodi:namedview
     stroke="#ef2929"
     fill="#f57900"
     id="base"
     pagecolor="#ffffff"
     bordercolor="#000000"
     borderopacity="0.54509804"
     inkscape:pageopacity="0"
     inkscape:pageshadow="2"
     inkscape:zoom="2"
     inkscape:cx="287.25"
     inkscape:cy="143.25"
     inkscape:current-layer="layer2"
     showgrid="false"
     inkscape:grid-bbox="true"
     inkscape:document-units="px"
     inkscape:showpageshadow="false"
     inkscape:window-width="1920"
     inkscape:window-height="1008"
     inkscape:window-x="0"
     inkscape:window-y="40"
     width="400px"
     height="300px"
     inkscape:snap-nodes="true"
     inkscape:snap-bbox="true"
     gridtolerance="10000"
     inkscape:object-nodes="true"
     inkscape:snap-grids="true"
     showguides="true"
     inkscape:guide-bbox="true"
     inkscape:window-maximized="1"
     inkscape:bbox-nodes="true"
     inkscape:bbox-paths="true"
     inkscape:snap-bbox-edge-midpoints="true"
     inkscape:snap-bbox-midpoints="true"
     inkscape:pagecheckerboard="0">
    <inkscape:grid
       spacingy="1"
       spacingx="1"
       id="grid5883"
       type="xygrid"
       enabled="true"
       visible="true"
       empspacing="4"
       snapvisiblegridlinesonly="true"
       dotted="false"
       color="#000000"
       opacity="0.1254902"
       empcolor="#203ef3"
       empopacity="0.36470588"
       originx="0"
       originy="0" />
    <inkscape:grid
       type="xygrid"
       id="grid11592"
       empspacing="8"
       visible="true"
       enabled="false"
       spacingx="0.5"
       spacingy="0.5"
       color="#ff0000"
       opacity="0.1254902"
       empcolor="#ff0000"
       empopacity="0.25098039"
       snapvisiblegridlinesonly="true"
       dotted="true"
       originx="0"
       originy="0" />
  </sodipodi:namedview>
  <defs
     id="defs3">
    <linearGradient
       inkscape:collect="always"
       id="linearGradient3355">
      <stop
         style="stop-color:#00ffff;stop-opacity:1;"
         offset="0"
         id="stop3351" />
      <stop
         style="stop-color:#00ffff;stop-opacity:0;"
         offset="1"
         id="stop3353" />
    </linearGradient>
    <linearGradient
       inkscape:collect="always"
       id="linearGradient3190">
      <stop
         style="stop-color:#00ffff;stop-opacity:1;"
         offset="0"
         id="stop3186" />
      <stop
         style="stop-color:#00ffff;stop-opacity:0;"
         offset="1"
         id="stop3188" />
    </linearGradient>
    <linearGradient
       inkscape:collect="always"
       id="linearGradient2945">
      <stop
         style="stop-color:#00ffff;stop-opacity:1;"
         offset="0"
         id="stop2941" />
      <stop
         style="stop-color:#00ffff;stop-opacity:0;"
         offset="1"
         id="stop2943" />
    </linearGradient>
    <linearGradient
       inkscape:collect="always"
       id="linearGradient2599">
      <stop
         style="stop-color:#00ffff;stop-opacity:1;"
         offset="0"
         id="stop2595" />
      <stop
         style="stop-color:#00ffff;stop-opacity:0;"
         offset="1"
         id="stop2597" />
    </linearGradient>
    <linearGradient
       inkscape:collect="always"
       id="linearGradient2338">
      <stop
         style="stop-color:#00ffff;stop-opacity:1;"
         offset="0"
         id="stop2334" />
      <stop
         style="stop-color:#00ffff;stop-opacity:0;"
         offset="1"
         id="stop2336" />
    </linearGradient>
    <linearGradient
       inkscape:collect="always"
       id="linearGradient1432">
      <stop
         style="stop-color:#00ffff;stop-opacity:1;"
         offset="0"
         id="stop1428" />
      <stop
         style="stop-color:#00ffff;stop-opacity:0;"
         offset="1"
         id="stop1430" />
    </linearGradient>
    <linearGradient
       inkscape:collect="always"
       id="linearGradient1236">
      <stop
         style="stop-color:#00ffff;stop-opacity:1;"
         offset="0"
         id="stop1232" />
      <stop
         style="stop-color:#00ffff;stop-opacity:0;"
         offset="1"
         id="stop1234" />
    </linearGradient>
    <linearGradient
       id="linearGradient905">
      <stop
         style="stop-color:#ff7139;stop-opacity:1"
         offset="0"
         id="stop901" />
      <stop
         style="stop-color:#ff7139;stop-opacity:1"
         offset="1"
         id="stop903" />
    </linearGradient>
    <linearGradient
       id="linearGradient3984">
      <stop
         id="stop3986"
         offset="0"
         style="stop-color:#f57d33;stop-opacity:1" />
      <stop
         id="stop3988"
         offset="1"
         style="stop-color:#faa653;stop-opacity:1;" />
    </linearGradient>
    <linearGradient
       inkscape:collect="always"
       xlink:href="#linearGradient1236"
       id="linearGradient1238"
       x1="35"
       y1="156"
       x2="203.5"
       y2="156.5"
       gradientUnits="userSpaceOnUse"
       gradientTransform="rotate(90,144.5,156)" />
    <linearGradient
       inkscape:collect="always"
       xlink:href="#linearGradient1432"
       id="linearGradient1434"
       x1="292.5"
       y1="76"
       x2="361"
       y2="76"
       gradientUnits="userSpaceOnUse"
       gradientTransform="rotate(90,336,76)" />
    <linearGradient
       inkscape:collect="always"
       xlink:href="#linearGradient2338"
       id="linearGradient2340"
       x1="290.5"
       y1="172"
       x2="336.5"
       y2="172"
       gradientUnits="userSpaceOnUse"
       gradientTransform="rotate(90,320,172)" />
    <linearGradient
       inkscape:collect="always"
       xlink:href="#linearGradient2599"
       id="linearGradient2601"
       x1="291.5"
       y1="244"
       x2="323"
       y2="244"
       gradientUnits="userSpaceOnUse"
       gradientTransform="rotate(90,312,244)" />
    <linearGradient
       inkscape:collect="always"
       xlink:href="#linearGradient2945"
       id="linearGradient2947"
       x1="417.5"
       y1="68"
       x2="439"
       y2="68"
       gradientUnits="userSpaceOnUse"
       gradientTransform="rotate(90,432,68)" />
    <linearGradient
       inkscape:collect="always"
       xlink:href="#linearGradient3190"
       id="linearGradient3192"
       x1="417.5"
       y1="112"
       x2="433"
       y2="112"
       gradientUnits="userSpaceOnUse"
       gradientTransform="rotate(90,428,112)" />
    <linearGradient
       inkscape:collect="always"
       xlink:href="#linearGradient3355"
       id="linearGradient3357"
       x1="416.5"
       y1="148"
       x2="428"
       y2="148"
       gradientUnits="userSpaceOnUse"
       gradientTransform="rotate(90,424,148)" />
  </defs>
  <metadata
     id="metadata4">
    <rdf:RDF>
      <cc:Work
         rdf:about="">
        <dc:format>image/svg+xml</dc:format>
        <dc:type
           rdf:resource="http://purl.org/dc/dcmitype/StillImage" />
        <dc:creator>
          <cc:Agent>
            <dc:title>Sam Hewitt</dc:title>
          </cc:Agent>
        </dc:creator>
        <dc:source />
        <cc:license
           rdf:resource="" />
        <dc:title />
        <dc:subject>
          <rdf:Bag />
        </dc:subject>
        <dc:date />
        <dc:rights>
          <cc:Agent>
            <dc:title />
          </cc:Agent>
        </dc:rights>
        <dc:publisher>
          <cc:Agent>
            <dc:title />
          </cc:Agent>
        </dc:publisher>
        <dc:identifier />
        <dc:relation />
        <dc:language />
        <dc:coverage />
        <dc:description />
        <dc:contributor>
          <cc:Agent>
            <dc:title />
          </cc:Agent>
        </dc:contributor>
      </cc:Work>
      <cc:Work
         rdf:about="">
        <dc:format>image/svg+xml</dc:format>
        <dc:type
           rdf:resource="http://purl.org/dc/dcmitype/StillImage" />
      </cc:Work>
    </rdf:RDF>
  </metadata>
  <g
     style="display:inline"
     inkscape:groupmode="layer"
     inkscape:label="Icon"
     id="layer1">
    <g
       style="display:none"
       inkscape:label="Baseplate"
       id="layer7"
       inkscape:groupmode="layer">
      <text
         y="19.745117"
         xml:space="preserve"
         x="15.006836"
         style="font-style:normal;font-variant:normal;font-weight:normal;font-stretch:normal;line-height:0%;font-family:'DejaVu Sans';-inkscape-font-specification:'DejaVu Sans';display:inline;fill:#000000;fill-opacity:1;stroke:none;enable-background:new"
         inkscape:label="context"
         id="context"><tspan
           style="font-style:normal;font-variant:normal;font-weight:normal;font-stretch:normal;font-size:18px;line-height:1.25;font-family:'DejaVu Sans';-inkscape-font-specification:'DejaVu Sans'"
           y="19.745117"
           x="15.006836"
           sodipodi:role="line"
           id="tspan3933">apps</tspan></text>
      <text
         y="19.745117"
         xml:space="preserve"
         x="122.48828"
         style="font-style:normal;font-variant:normal;font-weight:bold;font-stretch:normal;line-height:0%;font-family:'DejaVu Sans';-inkscape-font-specification:'DejaVu Sans Bold';text-align:start;writing-mode:lr-tb;text-anchor:start;display:inline;fill:#000000;fill-opacity:1;stroke:none;enable-background:new"
         inkscape:label="icon-name"
         id="icon-name"><tspan
           style="font-style:normal;font-variant:normal;font-weight:bold;font-stretch:normal;font-size:18px;line-height:1.25;font-family:'DejaVu Sans';-inkscape-font-specification:'DejaVu Sans Bold'"
           y="19.745117"
           x="122.48828"
           sodipodi:role="line"
           id="tspan3937">sheet</tspan></text>
      <rect
         style="fill:#eeeeec;fill-opacity:1;fill-rule:nonzero;stroke:none;stroke-width:2;marker:none;visibility:visible;display:inline;overflow:visible;enable-background:accumulate"
         id="rect16x16"
         width="16"
         height="16"
         x="416"
         y="140"
         inkscape:label="16x16" />
      <rect
         style="fill:#d4d4d4;fill-opacity:1;fill-rule:nonzero;stroke:none;stroke-width:2;marker:none;visibility:visible;display:inline;overflow:visible;enable-background:accumulate"
         id="rect24x24"
         width="24"
         height="24"
         x="416"
         y="100"
         inkscape:label="24x24" />
      <rect
         style="fill:#eeeeec;fill-opacity:1;fill-rule:nonzero;stroke:none;stroke-width:2;marker:none;visibility:visible;display:inline;overflow:visible;enable-background:accumulate"
         id="rect32x32"
         width="32"
         height="32"
         x="416"
         y="52"
         inkscape:label="32x32" />
      <rect
         inkscape:label="22x22"
         y="101"
         x="417"
         height="22"
         width="22"
         id="rect22x22"
         style="fill:#eeeeec;fill-opacity:1;fill-rule:nonzero;stroke:none;stroke-width:2;marker:none;visibility:visible;display:inline;overflow:visible;enable-background:accumulate" />
      <rect
         inkscape:label="48x48"
         y="220"
         x="288"
         height="48"
         width="48"
         id="rect48x48"
         style="fill:#eeeeec;fill-opacity:1;fill-rule:nonzero;stroke:none;stroke-width:2;marker:none;visibility:visible;display:inline;overflow:visible;enable-background:accumulate" />
      <rect
         style="fill:#eeeeec;fill-opacity:1;fill-rule:nonzero;stroke:none;stroke-width:2;marker:none;visibility:visible;display:inline;overflow:visible;enable-background:accumulate"
         id="rect256x256"
         width="256"
         height="256"
         x="16"
         y="28"
         inkscape:label="256x256" />
      <rect
         style="fill:#eeeeec;fill-opacity:1;fill-rule:nonzero;stroke:none;stroke-width:2;marker:none;visibility:visible;display:inline;overflow:visible;enable-background:accumulate"
         id="rect64x64"
         width="64"
         height="64"
         x="288"
         y="140"
         inkscape:label="64x64" />
      <rect
         style="fill:#eeeeec;fill-opacity:1;fill-rule:nonzero;stroke:none;stroke-width:2;marker:none;visibility:visible;display:inline;overflow:visible;enable-background:accumulate"
         id="rect96x96"
         width="96"
         height="96"
         x="288"
         y="28"
         inkscape:label="96x96" />
    </g>
    <g
       inkscape:groupmode="layer"
       id="layer4"
       inkscape:label="Shadow"
       style="display:inline"
       sodipodi:insensitive="true">
      <rect
         ry="50"
         y="47"
         x="34"
         height="220"
         width="220"
         id="rect4114"
         style="opacity:0.1;color:#bebebe;fill:#000000;fill-opacity:1;fill-rule:nonzero;stroke:none;stroke-width:0;marker:none;visibility:visible;display:inline;overflow:visible;enable-background:accumulate" />
      <rect
         style="opacity:0.1;color:#bebebe;fill:#000000;fill-opacity:1;fill-rule:nonzero;stroke:none;stroke-width:0;marker:none;visibility:visible;display:inline;overflow:visible;enable-background:accumulate"
         id="rect4120"
         width="30"
         height="30"
         x="417"
         y="54"
         ry="7" />
      <rect
         transform="scale(1,-1)"
         ry="9"
         y="-266"
         x="291"
         height="42"
         width="42"
         id="rect4122"
         style="opacity:0.1;color:#bebebe;fill:#000000;fill-opacity:1;fill-rule:nonzero;stroke:none;stroke-width:0;marker:none;visibility:visible;display:inline;overflow:visible;enable-background:accumulate" />
      <rect
         style="opacity:0.1;color:#bebebe;fill:#000000;fill-opacity:1;fill-rule:nonzero;stroke:none;stroke-width:0;marker:none;visibility:visible;display:inline;overflow:visible;enable-background:accumulate"
         id="rect4124"
         width="88"
         height="88"
         x="292"
         y="33"
         ry="18" />
      <rect
         ry="12.5"
         y="143"
         x="290"
         height="60"
         width="60"
         id="rect4126"
         style="opacity:0.1;color:#bebebe;fill:#000000;fill-opacity:1;fill-rule:nonzero;stroke:none;stroke-width:0;marker:none;visibility:visible;display:inline;overflow:visible;enable-background:accumulate" />
      <path
         id="path4268"
         d="m 422,101 c -2.77,0 -5,2.23 -5,5 l 0,12 c 0,2.77 2.23,5 5,5 l 12,0 c 2.77,0 5,-2.23 5,-5 l 0,-12 c 0,-2.77 -2.23,-5 -5,-5 z"
         style="opacity:0.1;color:#bebebe;fill:#000000;fill-opacity:1;fill-rule:nonzero;stroke:none;stroke-width:0;marker:none;visibility:visible;display:inline;overflow:visible;enable-background:accumulate"
         inkscape:connector-curvature="0"
         sodipodi:nodetypes="sssssssss" />
      <path
         id="path4270"
         d="m 419,140 c -1.662,0 -3,1.338 -3,3 l 0,10 c 0,1.662 1.338,3 3,3 l 10,0 c 1.662,0 3,-1.338 3,-3 l 0,-10 c 0,-1.662 -1.338,-3 -3,-3 z"
         style="opacity:0.1;color:#bebebe;fill:#000000;fill-opacity:1;fill-rule:nonzero;stroke:none;stroke-width:0;marker:none;visibility:visible;display:inline;overflow:visible;enable-background:accumulate"
         inkscape:connector-curvature="0"
         sodipodi:nodetypes="sssssssss" />
    </g>
    <g
       inkscape:groupmode="layer"
       id="layer2"
       inkscape:label="Background"
       style="display:inline">
      <g
         id="g1269">
        <g
           id="g1202">
          <path
             style="color:#bebebe;display:inline;overflow:visible;visibility:visible;fill:#99ff55;fill-opacity:1;fill-rule:nonzero;stroke:none;stroke-width:2;marker:none;enable-background:accumulate"
             d="M 84.5,46.5 C 57.068735,46.5 35,68.568732 35,96 v 120 c 0,27.43127 22.068735,49.5 49.5,49.5 h 120 c 27.43127,0 49.5,-22.06873 49.5,-49.5 V 96 C 254,68.568732 231.93127,46.5 204.5,46.5 Z"
             id="path4200" />
          <path
             style="color:#bebebe;display:inline;overflow:visible;visibility:visible;fill:url(#linearGradient1238);fill-opacity:1;fill-rule:nonzero;stroke:none;stroke-width:2;marker:none;enable-background:accumulate"
             d="M 84.5,46.5 C 57.06874,46.5 35,68.56873 35,96 v 120 c 0,27.43127 22.06874,49.5 49.5,49.5 h 120 c 27.43127,0 49.5,-22.06873 49.5,-49.5 V 96 C 254,68.56873 231.93127,46.5 204.5,46.5 Z"
             id="path903" />
          <path
             id="path1234"
             style="fill:#333333;fill-opacity:1;stroke:none;stroke-width:9.99994;stroke-opacity:1"
             d="m 139.9375,63.515625 -5.3125,0.625 -1.25,5 h -4.6875 l -0.3125,4.0625 -8.125,-0.9375 -0.625,-3.4375 -10.3125,0.9375 -1.25,3.75 -5.625,-0.9375 -3.125,5 -5,1.5625 0.625,8.4375 5,1.25 -0.9375,6.875 -4.0625,-1.25 -0.625,6.249995 h -5 l -4.060547,5.625 v 5 l 5.310547,3.75 1.5625,3.125 -1.25,2.5 -6.873047,-0.3125 0.310547,16.25 4.0625,0.3125 v 2.8125 l 3.125,1.5625 0.3125,4.375 6.5625,4.375 1.25,-4.0625 3.4375,3.4375 2.8125,2.1875 -0.625,6.5625 5.9375,5.3125 1.5625,-4.0625 2.8125,-0.9375 1.5625,-3.125 2.8125,0.9375 0.9375,3.4375 3.12305,2.1875 10,0.3125 v 41.25 c 0,13.44 -10,2.8125 -10,2.8125 l -2.18555,-2.1875 0.31055,-0.625 -2.8125,-5 -0.31055,-0.9375 4.99805,-1.875 v -5.625 l -4.37305,-0.9375 c 0,0 0.68649,-3.125 -0.3125,-3.125 h -6.25 l -1.25,-2.5 h -3.4375 l -1.5625,2.8125 h -5 l -5.9375,-0.9375 -8.4375,7.8125 -1.5625,5.3125 5,1.875 -1.5625,2.5 -5.3125,2.8125 v 6.875 l 7.1875,-0.625 3.4375,4.6875 -0.3125,4.6875 2.8125,0.625 1.5625,1.5625 4.0625,-2.5 c 0,0 6.91999,1.808 6.25,0.9375 -0.66999,-0.87 -1.25,-4.375 -1.25,-4.375 l 4.0625,0.3125 1.25,-3.125 5,-0.3125 15.9375,16.25 V 265.5 h 20 v -3.23438 l 21.5625,-15.9375 0.625,1.5625 4.0625,-0.3125 c 0,0 -0.58001,3.505 -1.25,4.375 -0.66999,0.87001 6.25,-0.9375 6.25,-0.9375 l 4.0625,2.5 1.5625,-1.5625 2.8125,-0.625 -0.3125,-4.6875 3.4375,-4.6875 7.1875,0.625 v -6.875 l -5.3125,-2.8125 -1.5625,-2.5 5,-1.875 -1.5625,-5.3125 -8.4375,-7.8125 -5.9375,0.9375 h -5 l -1.56445,-2.8125 h -3.4375 l -1.25,2.5 h -6.25 c -0.99999,0 -0.31055,3.125 -0.31055,3.125 L 164,220.07617 v 5.625 l 5,1.875 -0.3125,0.9375 -2.8125,5 3.125,5 -5,3.75 c -4.07995,3.06 -10,0.1 -10,-5 v -83.75 l 2.5,0.625 1.5625,3.75 4.6875,-5.3125 7.8125,1.25 2.8125,2.5 5.625,-0.9375 1.5625,-2.8125 2.5,-4.0625 6.25,0.625 c 0.94999,-3 3.4375,-3.75 3.4375,-3.75 l -0.625,-5.3125 h 3.75 l 0.625,-6.25 3.75,-0.31055 -0.9375,-25.3125 4.6875,-1.875 -0.625,-5 -3.75,0.625 v -3.437495 h -6.875 l -0.625,-5.9375 -4.0625,-0.3125 v -3.75 l -4.375,0.3125 0.3125,-3.4375 -2.8125,-1.5625 0.9375,-5.625 -7.5,-3.125 -4.375,-5.9375 -3.125,3.4375 -4.375,1.25 -2.1875,-4.375 -4.375,-0.625 -2.5,-4.6875 -5.9375,-0.3125 -0.625,3.75 -4.375,-0.625 z" />
        </g>
        <g
           id="g1207">
          <path
             style="color:#bebebe;display:inline;overflow:visible;visibility:visible;fill:#99ff55;fill-opacity:1;fill-rule:nonzero;stroke:none;stroke-width:2;marker:none;enable-background:accumulate"
             d="m 310,32.5 c -9.70255,0 -17.5,7.797452 -17.5,17.5 v 52 c 0,9.70255 7.79745,17.5 17.5,17.5 h 52 c 9.70255,0 17.5,-7.79745 17.5,-17.5 V 50 c 0,-9.702548 -7.79745,-17.5 -17.5,-17.5 z"
             id="path4210" />
          <path
             style="color:#bebebe;display:inline;overflow:visible;visibility:visible;fill:url(#linearGradient1434);fill-opacity:1;fill-rule:nonzero;stroke:none;stroke-width:2;marker:none;enable-background:accumulate"
             d="m 379.5,50 c 0,-9.70255 -7.79745,-17.5 -17.5,-17.5 h -52 c -9.70255,0 -17.5,7.79745 -17.5,17.5 v 52 c 0,9.70255 7.79745,17.5 17.5,17.5 h 52 c 9.70255,0 17.5,-7.79745 17.5,-17.5 z"
             id="path1408" />
          <path
             id="path2855"
             style="fill:#333333;fill-opacity:1;stroke-width:3.97258"
             d="m 334.38613,38.759625 -2.11045,0.24829 -0.49657,1.9863 h -1.86216 l -0.12414,1.61387 -3.22774,-0.37243 -0.24829,-1.36558 -4.09675,0.37243 -0.49657,1.48973 -2.23459,-0.37243 -1.24144,1.9863 -1.9863,0.62072 0.24829,3.35188 1.9863,0.49657 -0.37243,2.73117 -1.61387,-0.49658 -0.24829,2.48288 h -1.9863 l -1.6131,2.23459 v 1.9863 l 2.10967,1.48973 0.62072,1.24143 -0.49657,0.99315 -2.73039,-0.12414 0.12337,6.45548 1.61387,0.12414 v 1.1173 l 1.24143,0.62072 0.12415,1.73801 2.60702,1.73801 0.49657,-1.61387 1.36559,1.36559 1.11729,0.869 -0.24829,2.60702 2.35874,2.11045 0.62072,-1.61387 1.11729,-0.37243 0.62072,-1.24144 1.11729,0.37243 0.37244,1.36558 1.24066,0.86901 3.9726,0.12414 v 16.38699 c 0,5.33918 -3.9726,1.11729 -3.9726,1.11729 l -0.86823,-0.869 0.12337,-0.24829 -1.1173,-1.9863 -0.12337,-0.37243 1.98553,-0.74487 v -2.23458 l -1.73724,-0.37244 c 0,0 0.27272,-1.24143 -0.12414,-1.24143 h -2.48288 l -0.49658,-0.99316 h -1.36558 l -0.62072,1.1173 h -1.9863 l -2.35873,-0.37243 -3.35189,3.10359 -0.62071,2.11045 1.9863,0.74486 -0.62072,0.99315 -2.11045,1.1173 v 2.73116 l 2.85531,-0.24829 1.36558,1.86216 -0.12414,1.862165 1.11729,0.24829 0.62072,0.62072 1.61387,-0.99316 c 0,0 2.74904,0.71825 2.48288,0.37244 -0.26616,-0.34562 -0.49658,-1.738025 -0.49658,-1.738025 l 1.61387,0.124155 0.49658,-1.241445 1.9863,-0.12415 6.33134,6.455475 V 119 h 7.9452 v -1.28489 l 8.56593,-6.33133 0.24828,0.62071 1.61387,-0.12414 c 0,0 -0.23041,1.3924 -0.49657,1.73801 -0.26616,0.34562 2.48288,-0.37243 2.48288,-0.37243 l 1.61386,0.99315 0.62072,-0.62072 1.1173,-0.24828 -0.12415,-1.86216 1.36559,-1.86216 2.85531,0.24829 v -2.73116 l -2.11045,-1.1173 -0.62072,-0.99315 1.9863,-0.74486 -0.62072,-2.11045 -3.35188,-3.103595 -2.35873,0.37243 h -1.9863 l -0.6215,-1.1173 h -1.36558 l -0.49658,0.99315 h -2.48287 c -0.39726,0 -0.12337,1.241435 -0.12337,1.241435 l -1.73802,0.37167 v 2.23459 l 1.98631,0.74486 -0.12415,0.37243 -1.11729,1.9863 1.24144,1.9863 -1.98631,1.48973 c -1.6208,1.21562 -3.9726,0.0397 -3.9726,-1.9863 V 74.512275 l 0.99315,0.24829 0.62072,1.48973 1.86216,-2.11045 3.10359,0.49658 1.1173,0.99315 2.23459,-0.37244 0.62072,-1.11729 0.99315,-1.61387 2.48287,0.24829 c 0.3774,-1.19178 1.36559,-1.48973 1.36559,-1.48973 l -0.24829,-2.11044 h 1.48973 l 0.24828,-2.48288 1.48973,-0.12337 -0.37243,-10.05565 1.86216,-0.74486 -0.24829,-1.9863 -1.48973,0.24828 v -1.36558 h -2.73116 l -0.24829,-2.35873 -1.61387,-0.12414 v -1.48973 l -1.73801,0.12414 0.12414,-1.36558 -1.11729,-0.62072 0.37243,-2.23459 -2.97946,-1.24143 -1.73801,-2.35874 -1.24144,1.36559 -1.73801,0.49657 -0.86901,-1.73801 -1.73801,-0.24829 -0.99315,-1.86216 -2.35874,-0.12414 -0.24828,1.48972 -1.73802,-0.24828 z" />
        </g>
        <g
           id="g1233">
          <g
             id="g1217">
            <path
               style="color:#bebebe;display:inline;overflow:visible;visibility:visible;fill:#99ff55;fill-opacity:1;fill-rule:nonzero;stroke:none;stroke-width:2;marker:none;enable-background:accumulate"
               d="m 302.5,142.5 c -6.65502,0 -12,5.34498 -12,12 v 35 c 0,6.65502 5.34498,12 12,12 h 35 c 6.65502,0 12,-5.34498 12,-12 v -35 c 0,-6.65502 -5.34498,-12 -12,-12 z"
               id="path4212" />
            <path
               style="color:#bebebe;display:inline;overflow:visible;visibility:visible;fill:url(#linearGradient2340);fill-opacity:1;fill-rule:nonzero;stroke:none;stroke-width:2;marker:none;enable-background:accumulate"
               d="m 349.5,154.5 c 0,-6.65502 -5.34498,-12 -12,-12 h -35 c -6.65502,0 -12,5.34498 -12,12 v 35 c 0,6.65502 5.34498,12 12,12 h 35 c 6.65502,0 12,-5.34498 12,-12 z"
               id="path2314" />
            <path
               id="path3108"
               style="fill:#333333;fill-opacity:1;stroke-width:2.69405"
               d="m 318.90554,146.58412 -1.43122,0.16837 -0.33676,1.34704 h -1.26285 l -0.0842,1.09446 -2.18893,-0.25257 -0.16838,-0.92608 -2.77825,0.25257 -0.33676,1.01027 -1.51541,-0.25257 -0.8419,1.34703 -1.34703,0.42095 0.16838,2.27312 1.34703,0.33675 -0.25257,1.85217 -1.09446,-0.33675 -0.16838,1.68378 h -1.34703 l -1.09394,1.51541 v 1.34704 l 1.4307,1.01027 0.42094,0.8419 -0.33675,0.67351 -1.85165,-0.0842 0.0837,4.37786 1.09446,0.0842 v 0.7577 l 0.84189,0.42095 0.0842,1.17865 1.76798,1.17865 0.33676,-1.09446 0.92609,0.92609 0.7577,0.58932 -0.16838,1.76798 1.5996,1.43122 0.42095,-1.09446 0.75771,-0.25257 0.42094,-0.84189 0.75771,0.25256 0.25257,0.92609 0.84137,0.58933 2.69406,0.0842 v 11.11302 c 0,3.62082 -2.69406,0.7577 -2.69406,0.7577 l -0.5888,-0.58932 0.0837,-0.16838 -0.75771,-1.34703 -0.0837,-0.25257 1.34651,-0.50514 v -1.51541 l -1.17813,-0.25257 c 0,0 0.18494,-0.84189 -0.0842,-0.84189 h -1.68379 l -0.33676,-0.67352 h -0.92608 l -0.42095,0.75771 h -1.34703 l -1.5996,-0.25257 -2.27312,2.10474 -0.42095,1.43122 1.34704,0.50513 -0.42095,0.67352 -1.43122,0.7577 v 1.85217 l 1.93636,-0.16838 0.92608,1.26285 -0.0842,1.26284 0.75771,0.16838 0.42094,0.42095 1.09447,-0.67352 c 0,0 1.86429,0.48709 1.68379,0.25257 -0.1805,-0.23438 -0.33676,-1.17865 -0.33676,-1.17865 l 1.09446,0.0842 0.33676,-0.8419 1.34703,-0.0842 4.29367,4.37785 V 201 h 5.38812 v -0.87137 l 5.80908,-4.29366 0.16838,0.42095 1.09446,-0.0842 c 0,0 -0.15626,0.94427 -0.33676,1.17865 -0.1805,0.23439 1.68379,-0.25257 1.68379,-0.25257 l 1.09447,0.67352 0.42094,-0.42095 0.75771,-0.16838 -0.0842,-1.26284 0.92609,-1.26284 1.93635,0.16838 v -1.85217 l -1.43122,-0.75771 -0.42095,-0.67351 1.34704,-0.50514 -0.42095,-1.43122 -2.27312,-2.10474 -1.5996,0.25257 h -1.34703 l -0.42147,-0.75771 h -0.92609 l -0.33675,0.67352 h -1.68379 c -0.26941,0 -0.0837,0.84189 -0.0837,0.84189 l -1.17865,0.25205 v 1.51541 l 1.34703,0.50513 -0.0842,0.25257 -0.75771,1.34703 0.8419,1.34704 -1.34703,1.01027 c -1.09917,0.82438 -2.69407,0.0269 -2.69407,-1.34703 v -22.56279 l 0.67352,0.16838 0.42095,1.01028 1.26284,-1.43122 2.10474,0.33675 0.7577,0.67352 1.51541,-0.25257 0.42095,-0.7577 0.67352,-1.09447 1.68379,0.16838 c 0.25593,-0.80822 0.92608,-1.01027 0.92608,-1.01027 l -0.16838,-1.43122 h 1.01028 l 0.16838,-1.68379 1.01027,-0.0837 -0.25257,-6.81935 1.26284,-0.50514 -0.16838,-1.34703 -1.01027,0.16838 v -0.92608 h -1.85217 l -0.16838,-1.5996 -1.09446,-0.0842 v -1.01028 l -1.17865,0.0842 0.0842,-0.92608 -0.75771,-0.42095 0.25257,-1.51541 -2.02055,-0.84189 -1.17865,-1.5996 -0.8419,0.92608 -1.17865,0.33676 -0.58933,-1.17865 -1.17865,-0.16838 -0.67352,-1.26285 -1.5996,-0.0842 -0.16837,1.01028 -1.17866,-0.16838 z" />
          </g>
        </g>
        <g
           id="g1238">
          <path
             style="color:#bebebe;display:inline;overflow:visible;visibility:visible;fill:#99ff55;fill-opacity:1;fill-rule:nonzero;stroke:none;stroke-width:2;marker:none;enable-background:accumulate"
             d="m 300,223.5 c -4.71531,0 -8.5,3.78469 -8.5,8.5 v 24 c 0,4.71531 3.78469,8.5 8.5,8.5 h 24 c 4.71531,0 8.5,-3.78469 8.5,-8.5 v -24 c 0,-4.71531 -3.78469,-8.5 -8.5,-8.5 z"
             id="path4208" />
          <path
             style="color:#bebebe;display:inline;overflow:visible;visibility:visible;fill:url(#linearGradient2601);fill-opacity:1;fill-rule:nonzero;stroke:none;stroke-width:2;marker:none;enable-background:accumulate"
             d="m 332.5,232 c 0,-4.71531 -3.78469,-8.5 -8.5,-8.5 h -24 c -4.71531,0 -8.5,3.78469 -8.5,8.5 v 24 c 0,4.71531 3.78469,8.5 8.5,8.5 h 24 c 4.71531,0 8.5,-3.78469 8.5,-8.5 z"
             id="path2575" />
          <path
             id="path3574"
             style="fill:#333333;fill-opacity:1;stroke-width:1.87213"
             d="m 311.23945,226.68558 -0.99458,0.117 -0.23402,0.93608 h -0.87756 l -0.0585,0.76056 -1.52112,-0.17552 -0.11701,-0.64355 -1.93065,0.17552 -0.23402,0.70205 -1.05308,-0.17551 -0.58504,0.93607 -0.93608,0.29252 0.11701,1.57963 0.93608,0.23402 -0.17552,1.2871 -0.76056,-0.23402 -0.11701,1.17009 h -0.93606 l -0.7602,1.05308 v 0.93607 l 0.99421,0.70206 0.29253,0.58504 -0.23402,0.46804 -1.28673,-0.0585 0.0581,3.04224 0.76056,0.0585 v 0.52654 l 0.58504,0.29252 0.0585,0.81906 1.22859,0.81907 0.23402,-0.76056 0.64355,0.64355 0.52654,0.40953 -0.11701,1.2286 1.11159,0.99457 0.29252,-0.76055 0.52654,-0.17552 0.29253,-0.58504 0.52654,0.17551 0.17551,0.64355 0.58468,0.40953 1.87215,0.0585 v 7.7226 c 0,2.51616 -1.87215,0.52654 -1.87215,0.52654 l -0.40917,-0.40953 0.0581,-0.11701 -0.52654,-0.93607 -0.0581,-0.17552 0.9357,-0.35103 v -1.05308 l -0.81869,-0.17551 c 0,0 0.12851,-0.58505 -0.0585,-0.58505 h -1.17009 l -0.23402,-0.46803 h -0.64355 l -0.29253,0.52654 h -0.93608 l -1.11158,-0.17552 -1.57963,1.46262 -0.29252,0.99458 0.93607,0.35102 -0.29252,0.46804 -0.99458,0.52654 v 1.2871 l 1.34561,-0.11701 0.64355,0.87757 -0.0585,0.87757 0.52654,0.11701 0.29253,0.29252 0.76056,-0.46804 c 0,0 1.29552,0.33849 1.17009,0.17552 -0.12543,-0.16288 -0.23402,-0.81907 -0.23402,-0.81907 l 0.76056,0.0585 0.23402,-0.58505 0.93607,-0.0585 2.98373,3.04224 V 264.5 h 3.74429 v -0.60552 l 4.03682,-2.98374 0.11701,0.29253 0.76056,-0.0585 c 0,0 -0.10859,0.65619 -0.23402,0.81907 -0.12543,0.16288 1.17009,-0.17552 1.17009,-0.17552 l 0.76056,0.46804 0.29252,-0.29252 0.52654,-0.11701 -0.0585,-0.87757 0.64355,-0.87757 1.34561,0.11701 v -1.2871 l -0.99457,-0.52654 -0.29253,-0.46804 0.93607,-0.35103 -0.29252,-0.99457 -1.57963,-1.46262 -1.11158,0.17552 h -0.93608 l -0.29289,-0.52654 h -0.64355 l -0.23401,0.46803 h -1.1701 c -0.18721,0 -0.0581,0.58505 -0.0581,0.58505 l -0.81906,0.17515 v 1.05308 l 0.93607,0.35103 -0.0585,0.17551 -0.52654,0.93607 0.58504,0.93608 -0.93607,0.70205 c -0.76383,0.57288 -1.87215,0.0187 -1.87215,-0.93607 v -15.67923 l 0.46804,0.11701 0.29252,0.70206 0.87757,-0.99458 1.46262,0.23402 0.52654,0.46803 1.05308,-0.17551 0.29252,-0.52654 0.46804,-0.76056 1.17009,0.11701 c 0.17785,-0.56164 0.64355,-0.70206 0.64355,-0.70206 l -0.11701,-0.99457 h 0.70207 l 0.11701,-1.17009 0.70204,-0.0581 -0.1755,-4.73887 0.87757,-0.35103 -0.11701,-0.93607 -0.70207,0.11701 v -0.64355 h -1.2871 l -0.11701,-1.11159 -0.76056,-0.0585 v -0.70206 l -0.81905,0.0585 0.0585,-0.64355 -0.52654,-0.29253 0.17552,-1.05308 -1.40411,-0.58505 -0.81907,-1.11158 -0.58504,0.64355 -0.81907,0.23402 -0.40953,-0.81907 -0.81906,-0.11701 -0.46803,-0.87757 -1.11159,-0.0585 -0.11701,0.70205 -0.81906,-0.117 z" />
        </g>
        <g
           id="g1212">
          <path
             style="color:#bebebe;display:inline;overflow:visible;visibility:visible;fill:#99ff55;fill-opacity:1;fill-rule:nonzero;stroke:none;stroke-width:2;marker:none;enable-background:accumulate"
             d="m 424,53.5 c -3.60654,0 -6.5,2.893464 -6.5,6.5 v 16 c 0,3.606536 2.89346,6.5 6.5,6.5 h 16 c 3.60654,0 6.5,-2.893464 6.5,-6.5 V 60 c 0,-3.606536 -2.89346,-6.5 -6.5,-6.5 z"
             id="path4206" />
          <path
             style="color:#bebebe;display:inline;overflow:visible;visibility:visible;fill:url(#linearGradient2947);fill-opacity:1;fill-rule:nonzero;stroke:none;stroke-width:2;marker:none;enable-background:accumulate"
             d="m 446.5,60 c 0,-3.60654 -2.89346,-6.5 -6.5,-6.5 h -16 c -3.60654,0 -6.5,2.89346 -6.5,6.5 v 16 c 0,3.60654 2.89346,6.5 6.5,6.5 h 16 c 3.60654,0 6.5,-2.89346 6.5,-6.5 z"
             id="path2921" />
          <path
             id="path2432"
             style="fill:#333333;fill-opacity:1;stroke-width:1.32419"
             d="m 431.46214,55.75321 -0.70349,0.0828 -0.16552,0.6621 h -0.62072 l -0.0414,0.53795 -1.07591,-0.12414 -0.0828,-0.45519 -1.36558,0.12414 -0.16552,0.49658 -0.74487,-0.12415 -0.41381,0.6621 -0.6621,0.20691 0.0828,1.11729 0.6621,0.16553 -0.12414,0.91039 -0.53796,-0.16553 -0.0828,0.82763 h -0.6621 l -0.5377,0.74486 v 0.6621 l 0.70322,0.49658 0.20691,0.41381 -0.16552,0.33105 -0.91013,-0.0414 0.0411,2.15182 0.53796,0.0414 v 0.37244 l 0.41381,0.2069 0.0414,0.57934 0.86901,0.57934 0.16552,-0.53796 0.4552,0.4552 0.37243,0.28966 -0.0828,0.86901 0.78625,0.70348 0.20691,-0.53795 0.37243,-0.12415 0.2069,-0.41381 0.37243,0.12414 0.12415,0.4552 0.41355,0.28967 1.3242,0.0414 v 5.46233 c 0,1.77972 -1.3242,0.37243 -1.3242,0.37243 l -0.28941,-0.28967 0.0411,-0.0828 -0.37244,-0.6621 -0.0411,-0.12415 0.66184,-0.24829 v -0.74486 l -0.57908,-0.12414 c 0,0 0.0909,-0.41381 -0.0414,-0.41381 h -0.82762 l -0.16553,-0.33106 h -0.45519 l -0.20691,0.37244 h -0.6621 l -0.78624,-0.12415 -1.1173,1.03453 -0.2069,0.70349 0.6621,0.24828 -0.20691,0.33105 -0.70348,0.37244 v 0.91038 l 0.95177,-0.0828 0.45519,0.62072 -0.0414,0.62072 0.37243,0.0828 0.20691,0.20691 0.53795,-0.33105 c 0,0 0.91635,0.23941 0.82763,0.12414 -0.0887,-0.1152 -0.16553,-0.57934 -0.16553,-0.57934 l 0.53796,0.0414 0.16553,-0.41382 0.6621,-0.0414 2.11044,2.15183 V 82.5 h 2.6484 v -0.42829 l 2.85531,-2.11045 0.0828,0.20691 0.53796,-0.0414 c 0,0 -0.0768,0.46413 -0.16552,0.57933 -0.0887,0.11521 0.82762,-0.12414 0.82762,-0.12414 l 0.53796,0.33105 0.2069,-0.20691 0.37244,-0.0828 -0.0414,-0.62072 0.4552,-0.62072 0.95177,0.0828 v -0.91039 l -0.70348,-0.37243 -0.20691,-0.33105 0.6621,-0.24829 -0.20691,-0.70348 -1.11729,-1.03453 -0.78624,0.12414 h -0.6621 L 436.7172,75.6162 h -0.45519 l -0.16553,0.33105 h -0.82762 c -0.13242,0 -0.0411,0.41381 -0.0411,0.41381 l -0.57934,0.12389 v 0.74486 l 0.66211,0.24829 -0.0414,0.12414 -0.37243,0.6621 0.41382,0.6621 -0.66211,0.49658 c -0.54026,0.4052 -1.3242,0.0132 -1.3242,-0.6621 V 67.67073 l 0.33105,0.0828 0.20691,0.49657 0.62072,-0.70348 1.03453,0.16553 0.37243,0.33105 0.74487,-0.12415 0.2069,-0.37243 0.33105,-0.53796 0.82763,0.0828 c 0.1258,-0.39726 0.45519,-0.49658 0.45519,-0.49658 l -0.0828,-0.70348 h 0.49658 l 0.0828,-0.82763 0.49657,-0.0411 -0.12414,-3.35188 0.62072,-0.24829 -0.0828,-0.6621 -0.49658,0.0828 v -0.45519 h -0.91039 l -0.0828,-0.78625 -0.53796,-0.0414 v -0.49657 l -0.57933,0.0414 0.0414,-0.4552 -0.37243,-0.2069 0.12414,-0.74487 -0.99315,-0.41381 -0.57934,-0.78624 -0.41381,0.45519 -0.57934,0.16553 -0.28967,-0.57934 -0.57934,-0.0828 -0.33105,-0.62072 -0.78624,-0.0414 -0.0828,0.49657 -0.57934,-0.0828 z" />
        </g>
        <g
           id="g1222">
          <path
             style="color:#bebebe;display:inline;overflow:visible;visibility:visible;fill:#99ff55;fill-opacity:1;fill-rule:nonzero;stroke:none;stroke-width:2;marker:none;enable-background:accumulate"
             d="m 422,101.5 c -2.49699,0 -4.5,2.00301 -4.5,4.5 v 12 c 0,2.49699 2.00301,4.5 4.5,4.5 h 12 c 2.49699,0 4.5,-2.00301 4.5,-4.5 v -12 c 0,-2.49699 -2.00301,-4.5 -4.5,-4.5 z"
             id="path4204" />
          <path
             style="color:#bebebe;display:inline;overflow:visible;visibility:visible;fill:url(#linearGradient3192);fill-opacity:1;fill-rule:nonzero;stroke:none;stroke-width:2;marker:none;enable-background:accumulate"
             d="m 438.5,106 c 0,-2.49699 -2.00301,-4.5 -4.5,-4.5 h -12 c -2.49699,0 -4.5,2.00301 -4.5,4.5 v 12 c 0,2.49699 2.00301,4.5 4.5,4.5 h 12 c 2.49699,0 4.5,-2.00301 4.5,-4.5 z"
             id="path3166" />
          <path
             id="path4138"
             style="fill:#333333;fill-opacity:1;stroke-width:0.958898"
             d="m 427.61045,103.13163 -0.50941,0.0599 -0.11987,0.47945 h -0.44948 l -0.03,0.38956 -0.77911,-0.0899 -0.0599,-0.32962 -0.98887,0.0899 -0.11986,0.35959 -0.53939,-0.0899 -0.29965,0.47945 -0.47946,0.14983 0.0599,0.80907 0.47945,0.11987 -0.0899,0.65924 -0.38955,-0.11986 -0.0599,0.59931 H 422.756 l -0.38937,0.53939 v 0.47945 l 0.50924,0.35959 0.14982,0.29966 -0.11986,0.23972 -0.65907,-0.03 0.0298,1.55822 0.38955,0.03 v 0.26969 l 0.29966,0.14983 0.03,0.41952 0.62928,0.41952 0.11987,-0.38955 0.32963,0.32962 0.26969,0.20976 -0.0599,0.62928 0.56934,0.50942 0.14983,-0.38955 0.2697,-0.0899 0.14982,-0.29966 0.2697,0.0899 0.0899,0.32962 0.29946,0.20976 0.95891,0.03 v 3.95548 c 0,1.28876 -0.95891,0.26969 -0.95891,0.26969 l -0.20956,-0.20976 0.0298,-0.0599 -0.26969,-0.47946 -0.0298,-0.0899 0.47926,-0.1798 v -0.53938 l -0.41933,-0.0899 c 0,0 0.0658,-0.29966 -0.03,-0.29966 h -0.59931 l -0.11987,-0.23972 h -0.32963 l -0.14983,0.26969 h -0.47945 l -0.56934,-0.0899 -0.80908,0.74915 -0.14983,0.50941 0.47945,0.1798 -0.14983,0.23972 -0.50942,0.2697 v 0.65924 l 0.68922,-0.0599 0.32962,0.44949 -0.03,0.44948 0.2697,0.0599 0.14982,0.14982 0.38956,-0.23972 c 0,0 0.66356,0.17337 0.59931,0.0899 -0.0642,-0.0834 -0.11986,-0.41952 -0.11986,-0.41952 l 0.38956,0.03 0.11986,-0.29966 0.47945,-0.03 1.52825,1.55822 V 122.5 h 1.91781 v -0.31014 l 2.06764,-1.52826 0.0599,0.14983 0.38956,-0.03 c 0,0 -0.0556,0.33609 -0.11987,0.41952 -0.0642,0.0834 0.59932,-0.0899 0.59932,-0.0899 l 0.38955,0.23973 0.14983,-0.14983 0.26969,-0.0599 -0.03,-0.44949 0.32961,-0.44949 0.68921,0.0599 v -0.65925 l -0.50941,-0.26969 -0.14983,-0.23973 0.47945,-0.17979 -0.14983,-0.50942 -0.80907,-0.74915 -0.56935,0.0899 h -0.47946 l -0.15001,-0.26969 h -0.32963 l -0.11986,0.23973 h -0.59931 c -0.0959,0 -0.0298,0.29965 -0.0298,0.29965 l -0.41952,0.0897 v 0.53939 l 0.47945,0.17979 -0.03,0.0899 -0.26969,0.47945 0.29966,0.47945 -0.47945,0.35959 c -0.39123,0.29343 -0.95891,0.01 -0.95891,-0.47945 v -8.03082 l 0.23973,0.0599 0.14983,0.35959 0.44948,-0.50942 0.74915,0.11986 0.26969,0.23973 0.53938,-0.0899 0.14983,-0.26969 0.23973,-0.38955 0.59931,0.0599 c 0.0911,-0.28767 0.32963,-0.35959 0.32963,-0.35959 l -0.0599,-0.50942 h 0.35958 l 0.0599,-0.59931 0.35958,-0.0298 -0.0899,-2.42723 0.44948,-0.17979 -0.0599,-0.47946 -0.35959,0.0599 v -0.32963 h -0.65924 l -0.0599,-0.56935 -0.38956,-0.03 v -0.35959 l -0.41952,0.03 0.03,-0.32963 -0.2697,-0.14983 0.0899,-0.53938 -0.71918,-0.29966 -0.41952,-0.56935 -0.29966,0.32963 -0.41952,0.11986 -0.20976,-0.41952 -0.41952,-0.0599 -0.23972,-0.44949 -0.56935,-0.03 -0.0599,0.35958 -0.41952,-0.0599 z" />
        </g>
        <g
           id="g1227">
          <path
             style="color:#bebebe;display:inline;overflow:visible;visibility:visible;fill:#99ff55;fill-opacity:1;fill-rule:nonzero;stroke:none;stroke-width:2;marker:none;enable-background:accumulate"
             d="m 419,140.5 c -1.3844,0 -2.5,1.1156 -2.5,2.5 v 10 c 0,1.3844 1.1156,2.5 2.5,2.5 h 10 c 1.3844,0 2.5,-1.1156 2.5,-2.5 v -10 c 0,-1.3844 -1.1156,-2.5 -2.5,-2.5 z"
             id="path4202" />
          <path
             style="color:#bebebe;display:inline;overflow:visible;visibility:visible;fill:url(#linearGradient3357);fill-opacity:1;fill-rule:nonzero;stroke:none;stroke-width:2;marker:none;enable-background:accumulate"
             d="m 431.5,143 c 0,-1.3844 -1.1156,-2.5 -2.5,-2.5 h -10 c -1.3844,0 -2.5,1.1156 -2.5,2.5 v 10 c 0,1.3844 1.1156,2.5 2.5,2.5 h 10 c 1.3844,0 2.5,-1.1156 2.5,-2.5 z"
             id="path3331" />
          <path
             id="path4132"
             style="fill:#333333;fill-opacity:1;stroke-width:0.684927"
             d="m 423.72164,141.66541 -0.36387,0.0428 -0.0856,0.34247 h -0.32106 l -0.0214,0.27825 -0.55651,-0.0642 -0.0428,-0.23544 -0.70633,0.0642 -0.0856,0.25685 -0.38527,-0.0642 -0.21404,0.34247 -0.34247,0.10702 0.0428,0.57791 0.34246,0.0856 -0.0642,0.47089 -0.27825,-0.0856 -0.0428,0.42808 h -0.34247 l -0.27812,0.38528 v 0.34246 l 0.36374,0.25685 0.10702,0.21404 -0.0856,0.17124 -0.47076,-0.0214 0.0213,1.11302 0.27825,0.0214 v 0.19264 l 0.21404,0.10702 0.0214,0.29966 0.44948,0.29965 0.0856,-0.27825 0.23545,0.23544 0.19263,0.14983 -0.0428,0.44949 0.40668,0.36387 0.10702,-0.27825 0.19264,-0.0642 0.10702,-0.21404 0.19264,0.0642 0.0642,0.23544 0.21391,0.14983 0.68493,0.0214 v 2.82535 c 0,0.92054 -0.68493,0.19263 -0.68493,0.19263 l -0.1497,-0.14983 0.0213,-0.0428 -0.19263,-0.34247 -0.0213,-0.0642 0.34234,-0.12843 v -0.38527 l -0.29953,-0.0642 c 0,0 0.047,-0.21404 -0.0214,-0.21404 h -0.42808 l -0.0856,-0.17124 h -0.23544 l -0.10703,0.19264 h -0.34246 l -0.40668,-0.0642 -0.57791,0.5351 -0.10701,0.36387 0.34247,0.12842 -0.10704,0.17124 -0.36387,0.19263 v 0.4709 l 0.4923,-0.0428 0.23544,0.32106 -0.0214,0.32106 0.19264,0.0428 0.10702,0.10702 0.27825,-0.17123 c 0,0 0.47397,0.12383 0.42808,0.0642 -0.0459,-0.0596 -0.0856,-0.29966 -0.0856,-0.29966 l 0.27825,0.0214 0.0856,-0.21404 0.34247,-0.0214 1.09161,1.11301 V 155.5 h 1.36987 v -0.22153 l 1.47688,-1.09161 0.0428,0.10702 0.27825,-0.0214 c 0,0 -0.0397,0.24006 -0.0856,0.29965 -0.0459,0.0596 0.42809,-0.0642 0.42809,-0.0642 l 0.27825,0.17123 0.10702,-0.10702 0.19263,-0.0428 -0.0214,-0.32106 0.23545,-0.32106 0.4923,0.0428 v -0.47089 l -0.36388,-0.19264 -0.10701,-0.17123 0.34246,-0.12843 -0.10701,-0.36387 -0.57791,-0.5351 -0.40668,0.0642 h -0.34246 l -0.10715,-0.19263 h -0.23546 l -0.0856,0.17123 h -0.42809 c -0.0685,0 -0.0213,0.21404 -0.0213,0.21404 l -0.29965,0.0641 v 0.38527 l 0.34246,0.12843 -0.0214,0.0642 -0.19264,0.34247 0.21404,0.34246 -0.34246,0.25685 c -0.27945,0.20959 -0.68493,0.007 -0.68493,-0.34246 v -5.73631 l 0.17122,0.0428 0.10702,0.25685 0.32106,-0.36387 0.5351,0.0856 0.19264,0.17123 0.38527,-0.0642 0.10701,-0.19264 0.17124,-0.27825 0.42809,0.0428 c 0.0651,-0.20548 0.23544,-0.25685 0.23544,-0.25685 l -0.0428,-0.36387 h 0.25684 l 0.0428,-0.42808 0.25685,-0.0213 -0.0642,-1.73374 0.32106,-0.12842 -0.0428,-0.34247 -0.25684,0.0428 v -0.23544 h -0.4709 l -0.0428,-0.40668 -0.27826,-0.0214 v -0.25685 l -0.29965,0.0214 0.0214,-0.23544 -0.19264,-0.10702 0.0642,-0.38527 -0.51369,-0.21404 -0.29966,-0.40668 -0.21404,0.23544 -0.29966,0.0856 -0.14983,-0.29966 -0.29967,-0.0428 -0.17122,-0.32107 -0.40668,-0.0214 -0.0428,0.25685 -0.29965,-0.0428 z" />
        </g>
      </g>
    </g>
    <g
       inkscape:groupmode="layer"
       id="layer6"
       inkscape:label="Symbols"
       style="display:inline" />
    <g
       inkscape:groupmode="layer"
       id="layer5"
       inkscape:label="Highlights"
       style="display:inline"
       sodipodi:insensitive="true">
      <path
         style="opacity:0.12999998;color:#bebebe;fill:#ffffff;fill-opacity:1;fill-rule:nonzero;stroke:none;stroke-width:0;marker:none;visibility:visible;display:inline;overflow:visible;enable-background:accumulate"
         d="M 84,47 C 56.836703,47 35,68.836703 35,96 l 0,1 C 35,69.836703 56.836703,48 84,48 l 120,0 c 27.1633,0 49,21.836703 49,49 l 0,-1 C 253,68.836703 231.1633,47 204,47 L 84,47 z"
         id="rect3894"
         inkscape:connector-curvature="0" />
      <path
         style="opacity:0.12999998;color:#bebebe;fill:#ffffff;fill-opacity:1;fill-rule:nonzero;stroke:none;stroke-width:0;marker:none;visibility:visible;display:inline;overflow:visible;enable-background:accumulate"
         d="m 419,141 c -1.1253,0 -2,0.8747 -2,2 l 0,1 c 0,-1.1253 0.8747,-2 2,-2 l 10,0 c 1.1253,0 2,0.8747 2,2 l 0,-1 c 0,-1.1253 -0.8747,-2 -2,-2 l -10,0 z"
         id="rect3896"
         inkscape:connector-curvature="0" />
      <path
         style="opacity:0.12999998;color:#bebebe;fill:#ffffff;fill-opacity:1;fill-rule:nonzero;stroke:none;stroke-width:0;marker:none;visibility:visible;display:inline;overflow:visible;enable-background:accumulate"
         d="m 422,102 c -2.2333,0 -4,1.7667 -4,4 l 0,1 c 0,-2.2333 1.7667,-4 4,-4 l 12,0 c 2.2333,0 4,1.7667 4,4 l 0,-1 c 0,-2.2333 -1.7667,-4 -4,-4 l -12,0 z"
         id="rect3898"
         inkscape:connector-curvature="0" />
      <path
         style="opacity:0.12999998;color:#bebebe;fill:#ffffff;fill-opacity:1;fill-rule:nonzero;stroke:none;stroke-width:0;marker:none;visibility:visible;display:inline;overflow:visible;enable-background:accumulate"
         d="m 424,54 c -3.3413,0 -6,2.658703 -6,6 l 0,1 c 0,-3.341297 2.6587,-6 6,-6 l 16,0 c 3.3413,0 6,2.658703 6,6 l 0,-1 c 0,-3.341297 -2.6587,-6 -6,-6 l -16,0 z"
         id="rect3900"
         inkscape:connector-curvature="0" />
      <path
         style="opacity:0.12999998;color:#bebebe;fill:#ffffff;fill-opacity:1;fill-rule:nonzero;stroke:none;stroke-width:0;marker:none;visibility:visible;display:inline;overflow:visible;enable-background:accumulate"
         d="m 300,224 c -4.4493,0 -8,3.5507 -8,8 l 0,1 c 0,-4.4493 3.5507,-8 8,-8 l 24,0 c 4.4493,0 8,3.5507 8,8 l 0,-1 c 0,-4.4493 -3.5507,-8 -8,-8 l -24,0 z"
         id="rect3902"
         inkscape:connector-curvature="0" />
      <path
         style="opacity:0.12999998;color:#bebebe;fill:#ffffff;fill-opacity:1;fill-rule:nonzero;stroke:none;stroke-width:0;marker:none;visibility:visible;display:inline;overflow:visible;enable-background:accumulate"
         d="m 310,33 c -9.4353,0 -17,7.564703 -17,17 l 0,1 c 0,-9.435297 7.5647,-17 17,-17 l 52,0 c 9.4353,0 17,7.564703 17,17 l 0,-1 c 0,-9.435297 -7.5647,-17 -17,-17 l -52,0 z"
         id="rect3904"
         inkscape:connector-curvature="0" />
      <path
         style="opacity:0.12999998;color:#bebebe;fill:#ffffff;fill-opacity:1;fill-rule:nonzero;stroke:none;stroke-width:0;marker:none;visibility:visible;display:inline;overflow:visible;enable-background:accumulate"
         d="m 302.5,143 c -6.3883,0 -11.5,5.1117 -11.5,11.5 l 0,1 c 0,-6.3883 5.1117,-11.5 11.5,-11.5 l 35,0 c 6.3883,0 11.5,5.1117 11.5,11.5 l 0,-1 c 0,-6.3883 -5.1117,-11.5 -11.5,-11.5 l -35,0 z"
         id="rect3906"
         inkscape:connector-curvature="0" />
      <path
         id="path4085"
         d="m 204,266 c 27.1633,0 49,-21.8367 49,-49 l 0,-1 c 0,27.1633 -21.8367,49 -49,49 L 84,265 C 56.8367,265 35,243.1633 35,216 l 0,1 c 0,27.1633 21.8367,49 49,49 l 120,0 z"
         style="opacity:0.41;color:#bebebe;fill:#000000;fill-opacity:1;fill-rule:nonzero;stroke:none;stroke-width:0;marker:none;visibility:visible;display:inline;overflow:visible;enable-background:accumulate"
         inkscape:connector-curvature="0" />
      <path
         id="path4087"
         d="m 429,156 c 1.1253,0 2,-0.8747 2,-2 l 0,-1 c 0,1.1253 -0.8747,2 -2,2 l -10,0 c -1.1253,0 -2,-0.8747 -2,-2 l 0,1 c 0,1.1253 0.8747,2 2,2 l 10,0 z"
         style="opacity:0.3;color:#bebebe;fill:#000000;fill-opacity:1;fill-rule:nonzero;stroke:none;stroke-width:0;marker:none;visibility:visible;display:inline;overflow:visible;enable-background:accumulate"
         inkscape:connector-curvature="0" />
      <path
         id="path4089"
         d="m 434,123 c 2.2333,0 4,-1.7667 4,-4 l 0,-1 c 0,2.2333 -1.7667,4 -4,4 l -12,0 c -2.2333,0 -4,-1.7667 -4,-4 l 0,1 c 0,2.2333 1.7667,4 4,4 l 12,0 z"
         style="opacity:0.3;color:#bebebe;fill:#000000;fill-opacity:1;fill-rule:nonzero;stroke:none;stroke-width:0;marker:none;visibility:visible;display:inline;overflow:visible;enable-background:accumulate"
         inkscape:connector-curvature="0" />
      <path
         id="path4091"
         d="m 440,83 c 3.3413,0 6,-2.6587 6,-6 l 0,-1 c 0,3.3413 -2.6587,6 -6,6 l -16,0 c -3.3413,0 -6,-2.6587 -6,-6 l 0,1 c 0,3.3413 2.6587,6 6,6 l 16,0 z"
         style="opacity:0.41;color:#bebebe;fill:#000000;fill-opacity:1;fill-rule:nonzero;stroke:none;stroke-width:0;marker:none;visibility:visible;display:inline;overflow:visible;enable-background:accumulate"
         inkscape:connector-curvature="0" />
      <path
         id="path4093"
         d="m 324,265 c 4.4493,0 8,-3.5507 8,-8 l 0,-1 c 0,4.4493 -3.5507,8 -8,8 l -24,0 c -4.4493,0 -8,-3.5507 -8,-8 l 0,1 c 0,4.4493 3.5507,8 8,8 l 24,0 z"
         style="opacity:0.41;color:#bebebe;fill:#000000;fill-opacity:1;fill-rule:nonzero;stroke:none;stroke-width:0;marker:none;visibility:visible;display:inline;overflow:visible;enable-background:accumulate"
         inkscape:connector-curvature="0" />
      <path
         id="path4095"
         d="m 362,120 c 9.4353,0 17,-7.5647 17,-17 l 0,-1 c 0,9.4353 -7.5647,17 -17,17 l -52,0 c -9.4353,0 -17,-7.5647 -17,-17 l 0,1 c 0,9.4353 7.5647,17 17,17 l 52,0 z"
         style="opacity:0.41;color:#bebebe;fill:#000000;fill-opacity:1;fill-rule:nonzero;stroke:none;stroke-width:0;marker:none;visibility:visible;display:inline;overflow:visible;enable-background:accumulate"
         inkscape:connector-curvature="0" />
      <path
         id="path4097"
         d="m 337.5,202 c 6.3883,0 11.5,-5.1117 11.5,-11.5 l 0,-1 c 0,6.3883 -5.1117,11.5 -11.5,11.5 l -35,0 c -6.3883,0 -11.5,-5.1117 -11.5,-11.5 l 0,1 c 0,6.3883 5.1117,11.5 11.5,11.5 l 35,0 z"
         style="opacity:0.41;color:#bebebe;fill:#000000;fill-opacity:1;fill-rule:nonzero;stroke:none;stroke-width:0;marker:none;visibility:visible;display:inline;overflow:visible;enable-background:accumulate"
         inkscape:connector-curvature="0" />
      <path
         inkscape:connector-curvature="0"
         id="path4280"
         d="M 84,265 C 56.836703,265 35,243.1633 35,216 l 0,-1 c 0,27.1633 21.836703,49 49,49 l 120,0 c 27.1633,0 49,-21.8367 49,-49 l 0,1 c 0,27.1633 -21.8367,49 -49,49 l -120,0 z"
         style="opacity:0.1;color:#bebebe;fill:#ffffff;fill-opacity:1;fill-rule:nonzero;stroke:none;stroke-width:0;marker:none;visibility:visible;display:inline;overflow:visible;enable-background:accumulate" />
      <path
         style="opacity:0.1;color:#bebebe;fill:#ffffff;fill-opacity:1;fill-rule:nonzero;stroke:none;stroke-width:0;marker:none;visibility:visible;display:inline;overflow:visible;enable-background:accumulate"
         d="m 300,264 c -4.4493,0 -8,-3.5507 -8,-8 l 0,-1 c 0,4.4493 3.5507,8 8,8 l 24,0 c 4.4493,0 8,-3.5507 8,-8 l 0,1 c 0,4.4493 -3.5507,8 -8,8 l -24,0 z"
         id="path4294"
         inkscape:connector-curvature="0" />
      <path
         style="opacity:0.1;color:#bebebe;fill:#ffffff;fill-opacity:1;fill-rule:nonzero;stroke:none;stroke-width:0;marker:none;visibility:visible;display:inline;overflow:visible;enable-background:accumulate"
         d="m 302.5,201 c -6.3883,0 -11.5,-5.1117 -11.5,-11.5 l 0,-1 c 0,6.3883 5.1117,11.5 11.5,11.5 l 35,0 c 6.3883,0 11.5,-5.1117 11.5,-11.5 l 0,1 c 0,6.3883 -5.1117,11.5 -11.5,11.5 l -35,0 z"
         id="path4296"
         inkscape:connector-curvature="0" />
      <path
         style="opacity:0.1;color:#bebebe;fill:#ffffff;fill-opacity:1;fill-rule:nonzero;stroke:none;stroke-width:0;marker:none;visibility:visible;display:inline;overflow:visible;enable-background:accumulate"
         d="m 310,119 c -9.4353,0 -17,-7.5647 -17,-17 l 0,-1 c 0,9.4353 7.5647,17 17,17 l 52,0 c 9.4353,0 17,-7.5647 17,-17 l 0,1 c 0,9.4353 -7.5647,17 -17,17 l -52,0 z"
         id="path4298"
         inkscape:connector-curvature="0" />
      <path
         style="opacity:0.1;color:#bebebe;fill:#ffffff;fill-opacity:1;fill-rule:nonzero;stroke:none;stroke-width:0;marker:none;visibility:visible;display:inline;overflow:visible;enable-background:accumulate"
         d="m 424,82 c -3.3413,0 -6,-2.658703 -6,-6 l 0,-1 c 0,3.341297 2.6587,6 6,6 l 16,0 c 3.3413,0 6,-2.658703 6,-6 l 0,1 c 0,3.341297 -2.6587,6 -6,6 l -16,0 z"
         id="path4300"
         inkscape:connector-curvature="0" />
      <path
         style="opacity:0.1;color:#bebebe;fill:#ffffff;fill-opacity:1;fill-rule:nonzero;stroke:none;stroke-width:0;marker:none;visibility:visible;display:inline;overflow:visible;enable-background:accumulate"
         d="m 422,122 c -2.2333,0 -4,-1.7667 -4,-4 l 0,-1 c 0,2.2333 1.7667,4 4,4 l 12,0 c 2.2333,0 4,-1.7667 4,-4 l 0,1 c 0,2.2333 -1.7667,4 -4,4 l -12,0 z"
         id="path4302"
         inkscape:connector-curvature="0" />
      <path
         style="opacity:0.1;color:#bebebe;fill:#ffffff;fill-opacity:1;fill-rule:nonzero;stroke:none;stroke-width:0;marker:none;visibility:visible;display:inline;overflow:visible;enable-background:accumulate"
         d="m 419,154.5 c -1.1253,0 -2,-0.8747 -2,-2 l 0,-1 c 0,1.1253 0.8747,2 2,2 l 10,0 c 1.1253,0 2,-0.8747 2,-2 l 0,1 c 0,1.1253 -0.8747,2 -2,2 l -10,0 z"
         id="path4304"
         inkscape:connector-curvature="0" />
    </g>
    <g
       inkscape:groupmode="layer"
       id="layer3"
       inkscape:label="Border"
       style="display:inline"
       sodipodi:insensitive="true">
      <path
         style="opacity:0.41;color:#bebebe;fill:#000000;fill-opacity:1;fill-rule:nonzero;stroke:none;stroke-width:0;marker:none;visibility:visible;display:inline;overflow:visible;enable-background:accumulate"
         d="m 422,101 c -2.77,0 -5,2.23 -5,5 l 0,12 c 0,2.77 2.23,5 5,5 l 12,0 c 2.77,0 5,-2.23 5,-5 l 0,-12 c 0,-2.77 -2.23,-5 -5,-5 l -12,0 z m 0,1 12,0 c 2.2333,0 4,1.7667 4,4 l 0,12 c 0,2.2333 -1.7667,4 -4,4 l -12,0 c -2.2333,0 -4,-1.7667 -4,-4 l 0,-12 c 0,-2.2333 1.7667,-4 4,-4 z"
         id="rect4099"
         inkscape:connector-curvature="0" />
      <path
         style="opacity:0.41;color:#bebebe;fill:#000000;fill-opacity:1;fill-rule:nonzero;stroke:none;stroke-width:0;marker:none;visibility:visible;display:inline;overflow:visible;enable-background:accumulate"
         d="m 424,53 c -3.878,0 -7,3.122 -7,7 l 0,16 c 0,3.878 3.122,7 7,7 l 16,0 c 3.878,0 7,-3.122 7,-7 l 0,-16 c 0,-3.878 -3.122,-7 -7,-7 l -16,0 z m 0,1 16,0 c 3.3413,0 6,2.658703 6,6 l 0,16 c 0,3.341297 -2.6587,6 -6,6 l -16,0 c -3.3413,0 -6,-2.658703 -6,-6 l 0,-16 c 0,-3.341297 2.6587,-6 6,-6 z"
         id="rect4151"
         inkscape:connector-curvature="0" />
      <path
         style="opacity:0.41;color:#bebebe;fill:#000000;fill-opacity:1;fill-rule:nonzero;stroke:none;stroke-width:0;marker:none;visibility:visible;display:inline;overflow:visible;enable-background:accumulate"
         d="m 419,140 c -1.662,0 -3,1.338 -3,3 l 0,10 c 0,1.662 1.338,3 3,3 l 10,0 c 1.662,0 3,-1.338 3,-3 l 0,-10 c 0,-1.662 -1.338,-3 -3,-3 l -10,0 z m 0,1 10,0 c 1.1253,0 2,0.8747 2,2 l 0,10 c 0,1.1253 -0.8747,2 -2,2 l -10,0 c -1.1253,0 -2,-0.8747 -2,-2 l 0,-10 c 0,-1.1253 0.8747,-2 2,-2 z"
         id="rect4095"
         inkscape:connector-curvature="0" />
      <path
         style="opacity:0.41;color:#bebebe;fill:#000000;fill-opacity:1;fill-rule:nonzero;stroke:none;stroke-width:0;marker:none;visibility:visible;display:inline;overflow:visible;enable-background:accumulate"
         d="m 300,223 c -4.986,0 -9,4.014 -9,9 l 0,24 c 0,4.986 4.014,9 9,9 l 24,0 c 4.986,0 9,-4.014 9,-9 l 0,-24 c 0,-4.986 -4.014,-9 -9,-9 l -24,0 z m 0,1 24,0 c 4.4493,0 8,3.5507 8,8 l 0,24 c 0,4.4493 -3.5507,8 -8,8 l -24,0 c -4.4493,0 -8,-3.5507 -8,-8 l 0,-24 c 0,-4.4493 3.5507,-8 8,-8 z"
         id="rect4783"
         inkscape:connector-curvature="0" />
      <path
         style="opacity:0.41;color:#bebebe;fill:#000000;fill-opacity:1;fill-rule:nonzero;stroke:none;stroke-width:0;marker:none;visibility:visible;display:inline;overflow:visible;enable-background:accumulate"
         d="m 302.5,142 c -6.925,0 -12.5,5.575 -12.5,12.5 l 0,35 c 0,6.925 5.575,12.5 12.5,12.5 l 35,0 c 6.925,0 12.5,-5.575 12.5,-12.5 l 0,-35 c 0,-6.925 -5.575,-12.5 -12.5,-12.5 l -35,0 z m 0,1 35,0 c 6.3883,0 11.5,5.1117 11.5,11.5 l 0,35 c 0,6.3883 -5.1117,11.5 -11.5,11.5 l -35,0 c -6.3883,0 -11.5,-5.1117 -11.5,-11.5 l 0,-35 c 0,-6.3883 5.1117,-11.5 11.5,-11.5 z"
         id="rect4515"
         inkscape:connector-curvature="0" />
      <path
         style="opacity:0.41;color:#bebebe;fill:#000000;fill-opacity:1;fill-rule:nonzero;stroke:none;stroke-width:0;marker:none;visibility:visible;display:inline;overflow:visible;enable-background:accumulate"
         d="m 310,32 c -9.972,0 -18,8.028 -18,18 l 0,52 c 0,9.972 8.028,18 18,18 l 52,0 c 9.972,0 18,-8.028 18,-18 l 0,-52 c 0,-9.972 -8.028,-18 -18,-18 l -52,0 z m 0,1 52,0 c 9.4353,0 17,7.564703 17,17 l 0,52 c 0,9.4353 -7.5647,17 -17,17 l -52,0 c -9.4353,0 -17,-7.5647 -17,-17 l 0,-52 c 0,-9.435297 7.5647,-17 17,-17 z"
         id="rect4511"
         inkscape:connector-curvature="0" />
      <path
         style="opacity:0.41;color:#bebebe;fill:#000000;fill-opacity:1;fill-rule:nonzero;stroke:none;stroke-width:0;marker:none;visibility:visible;display:inline;overflow:visible;enable-background:accumulate"
         d="M 84,46 C 56.3,46 34,68.3 34,96 l 0,120 c 0,27.7 22.3,50 50,50 l 120,0 c 27.7,0 50,-22.3 50,-50 L 254,96 C 254,68.3 231.7,46 204,46 L 84,46 z m 0,1 120,0 c 27.1633,0 49,21.836703 49,49 l 0,120 c 0,27.1633 -21.8367,49 -49,49 L 84,265 C 56.836703,265 35,243.1633 35,216 L 35,96 C 35,68.836703 56.836703,47 84,47 z"
         id="rect4040"
         inkscape:connector-curvature="0" />
    </g>
  </g>
  <style
     type="text/css"
     id="style134">
	.st0{fill:#EF443B;}
</style>
</svg>
