<?xml version="1.0" encoding="UTF-8" standalone="no"?>
<!-- Created with Inkscape (http://www.inkscape.org/) -->

<svg
   inkscape:export-ydpi="90.000000"
   inkscape:export-xdpi="90.000000"
   width="480"
   height="300"
   id="svg11300"
   sodipodi:version="0.32"
   inkscape:version="1.1.2 (0a00cf5339, 2022-02-04)"
   sodipodi:docname="firefox.svg"
   inkscape:output_extension="org.inkscape.output.svg.inkscape"
   version="1.0"
   style="display:inline;enable-background:new"
   inkscape:export-filename="/home/sam/moka-next-template.png"
   xmlns:inkscape="http://www.inkscape.org/namespaces/inkscape"
   xmlns:sodipodi="http://sodipodi.sourceforge.net/DTD/sodipodi-0.dtd"
   xmlns="http://www.w3.org/2000/svg"
   xmlns:svg="http://www.w3.org/2000/svg"
   xmlns:rdf="http://www.w3.org/1999/02/22-rdf-syntax-ns#"
   xmlns:cc="http://creativecommons.org/ns#"
   xmlns:dc="http://purl.org/dc/elements/1.1/">
  <sodipodi:namedview
     stroke="#ef2929"
     fill="#f57900"
     id="base"
     pagecolor="#777777"
     bordercolor="#666666"
     borderopacity="0.25490196"
     inkscape:pageopacity="0"
     inkscape:pageshadow="2"
     inkscape:zoom="1"
     inkscape:cx="441.5"
     inkscape:cy="180.5"
     inkscape:current-layer="layer2"
     showgrid="false"
     inkscape:grid-bbox="true"
     inkscape:document-units="px"
     inkscape:showpageshadow="false"
     inkscape:window-width="1920"
     inkscape:window-height="1008"
     inkscape:window-x="0"
     inkscape:window-y="40"
     width="400px"
     height="300px"
     inkscape:snap-nodes="true"
     inkscape:snap-bbox="true"
     gridtolerance="10000"
     inkscape:object-nodes="true"
     inkscape:snap-grids="true"
     showguides="true"
     inkscape:guide-bbox="true"
     inkscape:window-maximized="1"
     inkscape:bbox-nodes="true"
     inkscape:bbox-paths="true"
     inkscape:snap-bbox-edge-midpoints="true"
     inkscape:snap-bbox-midpoints="true"
     inkscape:pagecheckerboard="0">
    <inkscape:grid
       spacingy="1"
       spacingx="1"
       id="grid5883"
       type="xygrid"
       enabled="true"
       visible="true"
       empspacing="4"
       snapvisiblegridlinesonly="true"
       dotted="false"
       color="#000000"
       opacity="0.1254902"
       empcolor="#203ef3"
       empopacity="0.36470588"
       originx="0"
       originy="0" />
    <inkscape:grid
       type="xygrid"
       id="grid11592"
       empspacing="8"
       visible="true"
       enabled="false"
       spacingx="0.5"
       spacingy="0.5"
       color="#ff0000"
       opacity="0.1254902"
       empcolor="#ff0000"
       empopacity="0.25098039"
       snapvisiblegridlinesonly="true"
       dotted="true"
       originx="0"
       originy="0" />
  </sodipodi:namedview>
  <defs
     id="defs3">
    <linearGradient
       id="linearGradient905">
      <stop
         style="stop-color:#ff7139;stop-opacity:1"
         offset="0"
         id="stop901" />
      <stop
         style="stop-color:#ff7139;stop-opacity:1"
         offset="1"
         id="stop903" />
    </linearGradient>
    <linearGradient
       id="linearGradient3984">
      <stop
         id="stop3986"
         offset="0"
         style="stop-color:#f57d33;stop-opacity:1" />
      <stop
         id="stop3988"
         offset="1"
         style="stop-color:#faa653;stop-opacity:1;" />
    </linearGradient>
  </defs>
  <metadata
     id="metadata4">
    <rdf:RDF>
      <cc:Work
         rdf:about="">
        <dc:format>image/svg+xml</dc:format>
        <dc:type
           rdf:resource="http://purl.org/dc/dcmitype/StillImage" />
        <dc:creator>
          <cc:Agent>
            <dc:title>Sam Hewitt</dc:title>
          </cc:Agent>
        </dc:creator>
        <dc:source />
        <cc:license
           rdf:resource="" />
        <dc:title />
        <dc:subject>
          <rdf:Bag />
        </dc:subject>
        <dc:date />
        <dc:rights>
          <cc:Agent>
            <dc:title />
          </cc:Agent>
        </dc:rights>
        <dc:publisher>
          <cc:Agent>
            <dc:title />
          </cc:Agent>
        </dc:publisher>
        <dc:identifier />
        <dc:relation />
        <dc:language />
        <dc:coverage />
        <dc:description />
        <dc:contributor>
          <cc:Agent>
            <dc:title />
          </cc:Agent>
        </dc:contributor>
      </cc:Work>
      <cc:Work
         rdf:about="">
        <dc:format>image/svg+xml</dc:format>
        <dc:type
           rdf:resource="http://purl.org/dc/dcmitype/StillImage" />
      </cc:Work>
    </rdf:RDF>
  </metadata>
  <g
     style="display:inline"
     inkscape:groupmode="layer"
     inkscape:label="Icon"
     id="layer1">
    <g
       style="display:none"
       inkscape:label="Baseplate"
       id="layer7"
       inkscape:groupmode="layer">
      <text
         y="19.745117"
         xml:space="preserve"
         x="15.006836"
         style="font-style:normal;font-variant:normal;font-weight:normal;font-stretch:normal;line-height:0%;font-family:'DejaVu Sans';-inkscape-font-specification:'DejaVu Sans';display:inline;fill:#000000;fill-opacity:1;stroke:none;enable-background:new"
         inkscape:label="context"
         id="context"><tspan
           style="font-style:normal;font-variant:normal;font-weight:normal;font-stretch:normal;font-size:18px;line-height:1.25;font-family:'DejaVu Sans';-inkscape-font-specification:'DejaVu Sans'"
           y="19.745117"
           x="15.006836"
           sodipodi:role="line"
           id="tspan3933">apps</tspan></text>
      <text
         y="19.745117"
         xml:space="preserve"
         x="122.48828"
         style="font-style:normal;font-variant:normal;font-weight:bold;font-stretch:normal;line-height:0%;font-family:'DejaVu Sans';-inkscape-font-specification:'DejaVu Sans Bold';text-align:start;writing-mode:lr-tb;text-anchor:start;display:inline;fill:#000000;fill-opacity:1;stroke:none;enable-background:new"
         inkscape:label="icon-name"
         id="icon-name"><tspan
           style="font-style:normal;font-variant:normal;font-weight:bold;font-stretch:normal;font-size:18px;line-height:1.25;font-family:'DejaVu Sans';-inkscape-font-specification:'DejaVu Sans Bold'"
           y="19.745117"
           x="122.48828"
           sodipodi:role="line"
           id="tspan3937">firefox</tspan></text>
      <rect
         style="fill:#eeeeec;fill-opacity:1;fill-rule:nonzero;stroke:none;stroke-width:2;marker:none;visibility:visible;display:inline;overflow:visible;enable-background:accumulate"
         id="rect16x16"
         width="16"
         height="16"
         x="416"
         y="140"
         inkscape:label="16x16" />
      <rect
         style="fill:#d4d4d4;fill-opacity:1;fill-rule:nonzero;stroke:none;stroke-width:2;marker:none;visibility:visible;display:inline;overflow:visible;enable-background:accumulate"
         id="rect24x24"
         width="24"
         height="24"
         x="416"
         y="100"
         inkscape:label="24x24" />
      <rect
         style="fill:#eeeeec;fill-opacity:1;fill-rule:nonzero;stroke:none;stroke-width:2;marker:none;visibility:visible;display:inline;overflow:visible;enable-background:accumulate"
         id="rect32x32"
         width="32"
         height="32"
         x="416"
         y="52"
         inkscape:label="32x32" />
      <rect
         inkscape:label="22x22"
         y="101"
         x="417"
         height="22"
         width="22"
         id="rect22x22"
         style="fill:#eeeeec;fill-opacity:1;fill-rule:nonzero;stroke:none;stroke-width:2;marker:none;visibility:visible;display:inline;overflow:visible;enable-background:accumulate" />
      <rect
         inkscape:label="48x48"
         y="220"
         x="288"
         height="48"
         width="48"
         id="rect48x48"
         style="fill:#eeeeec;fill-opacity:1;fill-rule:nonzero;stroke:none;stroke-width:2;marker:none;visibility:visible;display:inline;overflow:visible;enable-background:accumulate" />
      <rect
         style="fill:#eeeeec;fill-opacity:1;fill-rule:nonzero;stroke:none;stroke-width:2;marker:none;visibility:visible;display:inline;overflow:visible;enable-background:accumulate"
         id="rect256x256"
         width="256"
         height="256"
         x="16"
         y="28"
         inkscape:label="256x256" />
      <rect
         style="fill:#eeeeec;fill-opacity:1;fill-rule:nonzero;stroke:none;stroke-width:2;marker:none;visibility:visible;display:inline;overflow:visible;enable-background:accumulate"
         id="rect64x64"
         width="64"
         height="64"
         x="288"
         y="140"
         inkscape:label="64x64" />
      <rect
         style="fill:#eeeeec;fill-opacity:1;fill-rule:nonzero;stroke:none;stroke-width:2;marker:none;visibility:visible;display:inline;overflow:visible;enable-background:accumulate"
         id="rect96x96"
         width="96"
         height="96"
         x="288"
         y="28"
         inkscape:label="96x96" />
    </g>
    <g
       inkscape:groupmode="layer"
       id="layer4"
       inkscape:label="Shadow"
       style="display:inline"
       sodipodi:insensitive="true">
      <rect
         ry="50"
         y="47"
         x="34"
         height="220"
         width="220"
         id="rect4114"
         style="opacity:0.1;color:#bebebe;fill:#000000;fill-opacity:1;fill-rule:nonzero;stroke:none;stroke-width:0;marker:none;visibility:visible;display:inline;overflow:visible;enable-background:accumulate" />
      <rect
         style="opacity:0.1;color:#bebebe;fill:#000000;fill-opacity:1;fill-rule:nonzero;stroke:none;stroke-width:0;marker:none;visibility:visible;display:inline;overflow:visible;enable-background:accumulate"
         id="rect4120"
         width="30"
         height="30"
         x="417"
         y="54"
         ry="7" />
      <rect
         transform="scale(1,-1)"
         ry="9"
         y="-266"
         x="291"
         height="42"
         width="42"
         id="rect4122"
         style="opacity:0.1;color:#bebebe;fill:#000000;fill-opacity:1;fill-rule:nonzero;stroke:none;stroke-width:0;marker:none;visibility:visible;display:inline;overflow:visible;enable-background:accumulate" />
      <rect
         style="opacity:0.1;color:#bebebe;fill:#000000;fill-opacity:1;fill-rule:nonzero;stroke:none;stroke-width:0;marker:none;visibility:visible;display:inline;overflow:visible;enable-background:accumulate"
         id="rect4124"
         width="88"
         height="88"
         x="292"
         y="33"
         ry="18" />
      <rect
         ry="12.5"
         y="143"
         x="290"
         height="60"
         width="60"
         id="rect4126"
         style="opacity:0.1;color:#bebebe;fill:#000000;fill-opacity:1;fill-rule:nonzero;stroke:none;stroke-width:0;marker:none;visibility:visible;display:inline;overflow:visible;enable-background:accumulate" />
      <path
         id="path4268"
         d="m 422,101 c -2.77,0 -5,2.23 -5,5 l 0,12 c 0,2.77 2.23,5 5,5 l 12,0 c 2.77,0 5,-2.23 5,-5 l 0,-12 c 0,-2.77 -2.23,-5 -5,-5 z"
         style="opacity:0.1;color:#bebebe;fill:#000000;fill-opacity:1;fill-rule:nonzero;stroke:none;stroke-width:0;marker:none;visibility:visible;display:inline;overflow:visible;enable-background:accumulate"
         inkscape:connector-curvature="0"
         sodipodi:nodetypes="sssssssss" />
      <path
         id="path4270"
         d="m 419,140 c -1.662,0 -3,1.338 -3,3 l 0,10 c 0,1.662 1.338,3 3,3 l 10,0 c 1.662,0 3,-1.338 3,-3 l 0,-10 c 0,-1.662 -1.338,-3 -3,-3 z"
         style="opacity:0.1;color:#bebebe;fill:#000000;fill-opacity:1;fill-rule:nonzero;stroke:none;stroke-width:0;marker:none;visibility:visible;display:inline;overflow:visible;enable-background:accumulate"
         inkscape:connector-curvature="0"
         sodipodi:nodetypes="sssssssss" />
    </g>
    <g
       inkscape:groupmode="layer"
       id="layer2"
       inkscape:label="Background"
       style="display:inline">
      <g
         id="g2190">
        <g
           id="g1541">
          <path
             style="color:#bebebe;display:inline;overflow:visible;visibility:visible;fill:#1373d9;fill-opacity:1;fill-rule:nonzero;stroke:none;stroke-width:2;marker:none;enable-background:accumulate"
             d="M 84,46.5 C 56.568735,46.5 34.5,68.568732 34.5,96 v 120 c 0,27.43127 22.068735,49.5 49.5,49.5 h 120 c 27.43127,0 49.5,-22.06873 49.5,-49.5 V 96 C 253.5,68.568732 231.43127,46.5 204,46.5 Z"
             id="path4200" />
          <path
             fill-rule="evenodd"
             clip-rule="evenodd"
             d="m 131.17712,108.77937 h -0.0146 -0.0195 c -11.99998,4.92736 -13.28591,15.94108 -11.35734,21.8659 0,0 2.1e-4,0.0446 -0.003,0.12554 6.94692,-4.88451 15.83033,-7.51679 24.21682,-7.51679 20.37104,0 36.88516,13.4714 36.88516,30.08923 0,16.61784 -16.51412,30.08924 -36.88516,30.08924 -0.15728,0 -0.33171,-0.007 -0.51621,-0.0135 h -4.3e-4 c -0.96814,-0.036 -2.21528,-0.0823 -2.72057,0.7406 -0.60193,0.9799 0.72514,2.48682 1.48929,3.35125 7.96348,9.00634 19.51454,10.13814 22.54818,10.43549 0.195,0.0191 0.35485,0.0347 0.47635,0.0489 -26.75953,2.58729 -58.15191,-14.50379 -58.16177,-44.21276 -0.002,-7.00283 2.58535,-12.95465 6.71635,-17.692 -0.0167,-0.002 -0.0334,-0.005 -0.0504,-0.007 0.90921,-15.20196 -4.92921,-33.38114 -15.85026,-36.955816 -0.77272,-0.253015 -1.53836,0.32799 -1.63479,1.135216 -1.43614,12.02468 -4.54606,16.19259 -7.9007,20.6889 v 0 c -5.03314,6.74555 -8.69056,14.54192 -8.53113,23.10374 -1.82657,-3.82192 -3.3075,-7.81201 -4.40657,-11.9377 -0.14892,-0.55915 -1.06885,-2.27623 -2.08092,-1.70037 -0.8085,0.46017 -1.4175,1.71815 -1.85293,3.02968 C 69.85885,139.69158 69,146.3538 69,152.80414 c 0,40.84287 34.21709,74.98175 75.0001,74.98175 41.42137,0 74.9999,-33.57052 74.9999,-74.98153 0,-15.78897 -4.88121,-30.438 -13.21734,-42.52117 0.34736,-0.006 0.69557,-0.01 1.04464,-0.01 3.23721,0 6.39471,0.27679 9.43884,0.80273 -4.5887,-5.09747 -10.77919,-9.2178 -17.98476,-11.893997 4.8105,-1.744075 10.06606,-2.824875 15.59034,-3.098455 -8.91749,-7.28113 -21.92868,-11.86936 -36.41866,-11.86936 -20.97276,0 -41.55316,8.05859 -46.27601,24.565012 z m 4.26128,57.27539 c -5.43235,-5.65253 -21.70197,-24.42834 -21.70197,-24.42834 l 1.25936,0.054 25.46867,19.01852 c 1.90822,1.38567 4.62793,1.37174 6.51878,-0.0334 l 24.97432,-18.96047 1.326,-0.10305 c 0,0 -15.73776,18.33106 -21.7654,24.3705 -6.02785,6.03944 -10.64762,5.73459 -16.07976,0.0823 z m 17.33805,-63.00056 c 0,0 0.34543,3.90675 -3.60171,5.14952 -4.512,1.42058 -6.51192,-2.37392 -6.51192,-2.37392 0,0 0.56721,-2.60571 4.22806,-3.81099 3.9105,-1.28754 5.88557,1.03539 5.88557,1.03539 z"
             fill="#1373d9"
             id="path1021"
             style="fill:#ffffff;stroke-width:0.214259" />
        </g>
        <g
           id="g1624">
          <path
             style="color:#bebebe;display:inline;overflow:visible;visibility:visible;fill:#1373d9;fill-opacity:1;fill-rule:nonzero;stroke:none;stroke-width:2;marker:none;enable-background:accumulate"
             d="m 424,53.5 c -3.60654,0 -6.5,2.893464 -6.5,6.5 v 16 c 0,3.606536 2.89346,6.5 6.5,6.5 h 16 c 3.60654,0 6.5,-2.893464 6.5,-6.5 V 60 c 0,-3.606536 -2.89346,-6.5 -6.5,-6.5 z"
             id="path4206" />
          <path
             fill-rule="evenodd"
             clip-rule="evenodd"
             d="m 430.30282,61.747552 h -0.002 -0.003 c -1.58904,0.65249 -1.75932,2.11092 -1.50394,2.89549 0,0 3e-5,0.006 -4e-4,0.0166 0.91992,-0.6468 2.09626,-0.99537 3.2068,-0.99537 2.69753,0 4.88433,1.78388 4.88433,3.98442 0,2.20053 -2.1868,3.98442 -4.88433,3.98442 -0.0208,0 -0.0439,-9.3e-4 -0.0684,-0.002 h -6e-5 c -0.1282,-0.005 -0.29334,-0.0109 -0.36025,0.0981 -0.0797,0.12976 0.096,0.3293 0.19721,0.44377 1.05452,1.192625 2.58411,1.342505 2.98583,1.381874 0.0258,0.003 0.047,0.005 0.0631,0.006 -3.5435,0.34261 -7.70048,-1.920604 -7.70179,-5.854665 -2.6e-4,-0.927319 0.34235,-1.715459 0.88938,-2.34278 -0.002,-2.6e-4 -0.004,-6.6e-4 -0.007,-9.19e-4 0.12039,-2.013051 -0.65273,-4.42034 -2.0989,-4.8937 -0.10232,-0.0335 -0.20371,0.0434 -0.21648,0.15033 -0.19017,1.592309 -0.60199,2.14422 -1.04621,2.73962 v 0 c -0.66649,0.893249 -1.1508,1.92565 -1.12969,3.0594 -0.24187,-0.506101 -0.43797,-1.03446 -0.58352,-1.58079 -0.0197,-0.074 -0.14154,-0.30142 -0.27555,-0.22516 -0.10707,0.0609 -0.18771,0.22752 -0.24537,0.40119 -0.22036,0.82689 -0.33409,1.7091 -0.33409,2.56326 0,5.408415 4.53103,9.929095 9.93152,9.929095 5.48502,0 9.93149,-4.44541 9.93149,-9.929065 0,-2.09078 -0.64637,-4.03061 -1.75024,-5.63066 0.046,-7.9e-4 0.0921,-10e-4 0.13833,-10e-4 0.42867,0 0.84679,0.0367 1.24989,0.10629 -0.60763,-0.675 -1.42738,-1.22062 -2.38154,-1.575 0.63701,-0.23095 1.33295,-0.374071 2.06447,-0.410301 -1.18085,-0.96417 -2.9038,-1.57174 -4.82256,-1.57174 -2.77721,0 -5.50247,1.06712 -6.12787,3.2529 z m 0.56428,7.58442 c -0.71936,-0.74851 -2.87378,-3.23481 -2.87378,-3.23481 l 0.16676,0.007 3.37257,2.51844 c 0.25268,0.183491 0.61283,0.18164 0.86321,-0.004 l 3.30711,-2.51075 0.17558,-0.0137 c 0,0 -2.08398,2.4274 -2.88216,3.22715 -0.7982,0.79974 -1.40996,0.75937 -2.12928,0.0109 z m 2.2959,-8.34254 c 0,0 0.0457,0.51733 -0.47694,0.6819 -0.59748,0.18811 -0.86231,-0.31436 -0.86231,-0.31436 0,0 0.0751,-0.34505 0.55989,-0.50465 0.51783,-0.1705 0.77936,0.137111 0.77936,0.13711 z"
             fill="#1373d9"
             id="path1370"
             style="fill:#ffffff;stroke-width:0.0283722" />
        </g>
        <g
           id="g1713">
          <path
             style="color:#bebebe;fill:#1373d9;fill-opacity:1;fill-rule:nonzero;stroke:none;stroke-width:2;marker:none;visibility:visible;display:inline;overflow:visible;enable-background:accumulate"
             d="M 310 32.5 C 300.29745 32.5 292.5 40.297452 292.5 50 L 292.5 102 C 292.5 111.70255 300.29745 119.5 310 119.5 L 362 119.5 C 371.70255 119.5 379.5 111.70255 379.5 102 L 379.5 50 C 379.5 40.297452 371.70255 32.5 362 32.5 L 310 32.5 z "
             id="path4210" />
          <path
             fill-rule="evenodd"
             clip-rule="evenodd"
             d="m 330.90622,57.240815 h -0.006 -0.008 c -4.76711,1.957444 -5.27796,6.332758 -4.51182,8.686453 0,0 9e-5,0.01772 -0.001,0.04987 2.75974,-1.940421 6.28876,-2.986122 9.62038,-2.986122 8.09261,0 14.65301,5.351652 14.65301,11.95326 0,6.60161 -6.5604,11.95326 -14.65301,11.95326 -0.0625,0 -0.13177,-0.003 -0.20507,-0.005 h -1.7e-4 c -0.3846,-0.0143 -0.88004,-0.0327 -1.08077,0.29422 -0.23913,0.38927 0.28806,0.98791 0.59163,1.33131 3.16358,3.57786 7.75235,4.02748 8.9575,4.14561 0.0775,0.008 0.14096,0.0138 0.18923,0.0194 -10.6305,1.02782 -23.10144,-5.76178 -23.10536,-17.56398 -7.9e-4,-2.78194 1.02706,-5.146367 2.66814,-7.028328 -0.007,-7.95e-4 -0.0133,-0.002 -0.02,-0.0028 0.36119,-6.039135 -1.95818,-13.261001 -6.29668,-14.681077 -0.30697,-0.100513 -0.61113,0.130297 -0.64944,0.450976 -0.57052,4.776927 -1.80597,6.432672 -3.13863,8.218878 v 0 c -1.99947,2.679739 -3.45242,5.776927 -3.38908,9.178198 -0.72562,-1.518297 -1.31394,-3.103401 -1.75056,-4.742374 -0.0592,-0.222128 -0.42461,-0.904256 -0.82666,-0.67549 -0.32119,0.182808 -0.56312,0.682553 -0.7361,1.203572 -0.66109,2.480676 -1.00228,5.127315 -1.00228,7.689775 0,16.22525 13.59309,29.787274 29.79456,29.787274 16.45506,0 29.79448,-13.336234 29.79448,-29.787184 0,-6.272333 -1.93911,-12.091811 -5.25072,-16.891974 0.13799,-0.0024 0.27632,-0.004 0.41499,-0.004 1.28601,0 2.54036,0.109958 3.74968,0.318893 -1.82291,-2.025022 -4.28215,-3.661866 -7.14464,-4.725012 1.91103,-0.692852 3.99885,-1.122211 6.19343,-1.230894 -3.54257,-2.892503 -8.7114,-4.715225 -14.46769,-4.715225 -8.33164,0 -16.50742,3.201358 -18.38362,9.758704 z m 1.69284,22.753241 c -2.15806,-2.24553 -8.62134,-9.704413 -8.62134,-9.704413 l 0.5003,0.02145 10.11769,7.555303 c 0.75806,0.55047 1.83849,0.54494 2.58965,-0.0133 l 9.92131,-7.532241 0.52676,-0.04094 c 0,0 -6.25198,7.282201 -8.64652,9.681431 -2.39463,2.39922 -4.22988,2.27812 -6.38785,0.0327 z m 6.88771,-25.027624 c 0,0 0.13723,1.551997 -1.43081,2.0457 -1.79244,0.56434 -2.58693,-0.943064 -2.58693,-0.943064 0,0 0.22533,-1.035145 1.67964,-1.513955 1.55349,-0.511488 2.3381,0.411319 2.3381,0.411319 z"
             fill="#1373d9"
             id="path1705"
             style="fill:#ffffff;stroke-width:0.0851166" />
        </g>
        <g
           id="g1805">
          <path
             style="color:#bebebe;fill:#1373d9;fill-opacity:1;fill-rule:nonzero;stroke:none;stroke-width:2;marker:none;visibility:visible;display:inline;overflow:visible;enable-background:accumulate"
             d="M 302.5 142.5 C 295.84498 142.5 290.5 147.84498 290.5 154.5 L 290.5 189.5 C 290.5 196.15502 295.84498 201.5 302.5 201.5 L 337.5 201.5 C 344.15502 201.5 349.5 196.15502 349.5 189.5 L 349.5 154.5 C 349.5 147.84498 344.15502 142.5 337.5 142.5 L 302.5 142.5 z "
             id="path4212" />
          <path
             fill-rule="evenodd"
             clip-rule="evenodd"
             d="m 316.54527,159.27845 h -0.004 -0.005 c -3.23287,1.32746 -3.57931,4.29462 -3.05974,5.89081 0,0 5e-5,0.012 -8.1e-4,0.0338 1.87154,-1.31592 4.26479,-2.02507 6.52417,-2.02507 5.48808,0 9.93709,3.62928 9.93709,8.10623 0,4.47695 -4.44901,8.10623 -9.93709,8.10623 -0.0424,0 -0.0894,-0.002 -0.13907,-0.004 h -1.2e-4 c -0.26082,-0.01 -0.59681,-0.0222 -0.73294,0.19952 -0.16216,0.264 0.19536,0.66997 0.40122,0.90285 2.14542,2.42637 5.25735,2.73128 6.07463,2.81139 0.0525,0.005 0.0956,0.009 0.12833,0.0132 -7.20919,0.69703 -15.6665,-3.90741 -15.66915,-11.9112 -5.4e-4,-1.88661 0.69651,-3.49006 1.80943,-4.76634 -0.005,-5.4e-4 -0.009,-0.001 -0.0136,-0.002 0.24494,-4.0955 -1.32796,-8.99309 -4.27016,-9.95613 -0.20818,-0.0682 -0.41445,0.0884 -0.44043,0.30583 -0.3869,3.23953 -1.22473,4.36239 -2.1285,5.57373 v 0 c -1.35596,1.81729 -2.34129,3.91768 -2.29834,6.22429 -0.49209,-1.02965 -0.89106,-2.1046 -1.18716,-3.21609 -0.0401,-0.15064 -0.28795,-0.61323 -0.56061,-0.45809 -0.21781,0.12397 -0.38188,0.46288 -0.49919,0.81621 -0.44833,1.6823 -0.67971,3.47715 -0.67971,5.21491 0,11.00333 9.2183,20.20056 20.20551,20.20056 11.15918,0 20.20545,-9.04411 20.20545,-20.2005 0,-4.25365 -1.31503,-8.20019 -3.56084,-11.45548 0.0936,-0.002 0.18739,-0.003 0.28144,-0.003 0.87212,0 1.72277,0.0746 2.54288,0.21626 -1.23623,-1.37329 -2.90398,-2.48333 -4.84521,-3.20432 1.29598,-0.46986 2.71186,-0.76104 4.20014,-0.83474 -2.40243,-1.96158 -5.90773,-3.19768 -9.81142,-3.19768 -5.6502,0 -11.19469,2.17103 -12.46705,6.61797 z m 1.14802,15.43035 c -1.46351,-1.52283 -5.84665,-6.58115 -5.84665,-6.58115 l 0.33928,0.0146 6.86142,5.12371 c 0.51409,0.37331 1.2468,0.36956 1.7562,-0.009 l 6.72825,-5.10807 0.35723,-0.0278 c 0,0 -4.23985,4.93851 -5.86374,6.56557 -1.62394,1.62706 -2.86854,1.54493 -4.33199,0.0222 z m 4.67098,-16.97275 c 0,0 0.0931,1.0525 -0.97032,1.38731 -1.21556,0.38272 -1.75435,-0.63955 -1.75435,-0.63955 0,0 0.15281,-0.70199 1.13906,-1.0267 1.05352,-0.34687 1.58561,0.27894 1.58561,0.27894 z"
             fill="#1373d9"
             id="path1797"
             style="fill:#ffffff;stroke-width:0.0577227" />
        </g>
        <g
           id="g1897">
          <path
             style="color:#bebebe;fill:#1373d9;fill-opacity:1;fill-rule:nonzero;stroke:none;stroke-width:2;marker:none;visibility:visible;display:inline;overflow:visible;enable-background:accumulate"
             d="M 300 223.5 C 295.28469 223.5 291.5 227.28469 291.5 232 L 291.5 256 C 291.5 260.71531 295.28469 264.5 300 264.5 L 324 264.5 C 328.71531 264.5 332.5 260.71531 332.5 256 L 332.5 232 C 332.5 227.28469 328.71531 223.5 324 223.5 L 300 223.5 z "
             id="path4208" />
          <path
             fill-rule="evenodd"
             clip-rule="evenodd"
             d="m 309.59948,235.15954 h -0.003 -0.004 c -2.24657,0.92248 -2.48732,2.98441 -2.12626,4.09362 0,0 4e-5,0.008 -5.6e-4,0.0235 1.30056,-0.91445 2.96367,-1.40725 4.53374,-1.40725 3.81376,0 6.90544,2.52204 6.90544,5.63314 0,3.1111 -3.09168,5.63314 -6.90544,5.63314 -0.0294,0 -0.0621,-0.001 -0.0966,-0.002 h -8e-5 c -0.18125,-0.007 -0.41474,-0.0154 -0.50933,0.13866 -0.11269,0.18345 0.13575,0.46556 0.27881,0.6274 1.49088,1.68612 3.65341,1.89801 4.22135,1.95367 0.0365,0.004 0.0664,0.006 0.0892,0.009 -5.00977,0.48438 -10.88688,-2.71532 -10.88873,-8.27727 -3.8e-4,-1.31103 0.48401,-2.4253 1.2574,-3.3122 -0.003,-3.8e-4 -0.006,-9.4e-4 -0.009,-0.001 0.17022,-2.84603 -0.92282,-6.24944 -2.9674,-6.91867 -0.14466,-0.0474 -0.288,0.0614 -0.30605,0.21253 -0.26887,2.25119 -0.85109,3.03149 -1.47913,3.87326 v 0 c -0.94228,1.26287 -1.627,2.72246 -1.59715,4.32536 -0.34196,-0.71552 -0.61922,-1.46252 -0.82498,-2.23491 -0.0279,-0.10468 -0.2001,-0.42614 -0.38958,-0.31834 -0.15136,0.0862 -0.26537,0.32167 -0.34689,0.56721 -0.31155,1.16905 -0.47233,2.41631 -0.47233,3.62391 0,7.64638 6.40593,14.03768 14.0411,14.03768 7.75469,0 14.04108,-6.28489 14.04108,-14.03764 0,-2.95592 -0.91383,-5.69844 -2.47448,-7.96058 0.065,-0.001 0.13022,-0.002 0.19557,-0.002 0.60606,0 1.19719,0.0518 1.76709,0.15028 -0.85907,-0.95432 -2.01802,-1.72571 -3.36701,-2.22673 0.9006,-0.32651 1.88451,-0.52886 2.91874,-0.58007 -1.66948,-1.36314 -4.10537,-2.22212 -6.8181,-2.22212 -3.92641,0 -7.77936,1.50868 -8.66355,4.59893 z m 0.79778,10.72279 c -1.01702,-1.05823 -4.06293,-4.57334 -4.06293,-4.57334 l 0.23577,0.0101 4.76811,3.56054 c 0.35725,0.25942 0.86642,0.25681 1.22041,-0.006 l 4.67556,-3.54967 0.24824,-0.0193 c 0,0 -2.94633,3.43184 -4.0748,4.56251 -1.1285,1.13067 -1.99339,1.0736 -3.01036,0.0154 z m 3.24593,-11.79462 c 0,0 0.0647,0.7314 -0.67429,0.96406 -0.84471,0.26596 -1.21913,-0.44443 -1.21913,-0.44443 0,0 0.10619,-0.48783 0.79156,-0.71347 0.7321,-0.24105 1.10186,0.19384 1.10186,0.19384 z"
             fill="#1373d9"
             id="path1889"
             style="fill:#ffffff;stroke-width:0.0401124" />
        </g>
        <g
           id="g2069">
          <path
             style="color:#bebebe;fill:#1373d9;fill-opacity:1;fill-rule:nonzero;stroke:none;stroke-width:2;marker:none;visibility:visible;display:inline;overflow:visible;enable-background:accumulate"
             d="M 422 101.5 C 419.50301 101.5 417.5 103.50301 417.5 106 L 417.5 118 C 417.5 120.49699 419.50301 122.5 422 122.5 L 434 122.5 C 436.49699 122.5 438.5 120.49699 438.5 118 L 438.5 106 C 438.5 103.50301 436.49699 101.5 434 101.5 L 422 101.5 z "
             id="path4204" />
          <path
             fill-rule="evenodd"
             clip-rule="evenodd"
             d="m 426.77028,107.47144 h -0.001 -0.002 c -1.15069,0.47248 -1.27399,1.52859 -1.08906,2.09672 0,0 2e-5,0.004 -2.9e-4,0.012 0.66614,-0.46838 1.51798,-0.72078 2.32216,-0.72078 1.95339,0 3.53693,1.29178 3.53693,2.88527 0,1.59349 -1.58354,2.88527 -3.53693,2.88527 -0.0151,0 -0.0318,-6.7e-4 -0.0495,-0.001 h -4e-5 c -0.0928,-0.003 -0.21242,-0.008 -0.26088,0.071 -0.0577,0.094 0.0695,0.23846 0.14281,0.32135 0.76362,0.86361 1.87126,0.97215 2.16216,1.00065 0.0187,0.002 0.034,0.003 0.0457,0.005 -2.56598,0.2481 -5.57621,-1.39077 -5.57715,-4.23958 -1.9e-4,-0.6715 0.24791,-1.24222 0.64403,-1.69649 -0.002,-1.9e-4 -0.003,-4.8e-4 -0.005,-6.7e-4 0.0872,-1.45772 -0.47267,-3.20093 -1.51989,-3.54371 -0.0741,-0.0243 -0.14751,0.0314 -0.15676,0.10886 -0.13771,1.15305 -0.43592,1.55272 -0.7576,1.98387 v 0 c -0.48263,0.64683 -0.83334,1.39444 -0.81805,2.21543 -0.17516,-0.36648 -0.31716,-0.74909 -0.42255,-1.14472 -0.0143,-0.0536 -0.1025,-0.21827 -0.19954,-0.16305 -0.0775,0.0441 -0.13593,0.16476 -0.17768,0.29052 -0.15958,0.59879 -0.24193,1.23763 -0.24193,1.85615 0,3.91644 3.28109,7.19004 7.19179,7.19004 3.97191,0 7.19177,-3.21909 7.19177,-7.19001 0,-1.51401 -0.46806,-2.91871 -1.26742,-4.07737 0.0333,-5.8e-4 0.0667,-9.7e-4 0.10017,-9.7e-4 0.31042,0 0.6132,0.0265 0.9051,0.077 -0.44001,-0.4888 -1.03362,-0.8839 -1.72457,-1.14052 0.46128,-0.16724 0.96524,-0.27088 1.49497,-0.29712 -0.8551,-0.69819 -2.10275,-1.13815 -3.4922,-1.13815 -2.01109,0 -3.98455,0.77274 -4.43743,2.35555 z m 0.40861,5.49215 c -0.52091,-0.54201 -2.08101,-2.34243 -2.08101,-2.34243 l 0.12076,0.005 2.4422,1.82371 c 0.18298,0.13286 0.44378,0.13152 0.62509,-0.003 l 2.3948,-1.81812 0.12715,-0.01 c 0,0 -1.5091,1.75776 -2.08709,2.33688 -0.57801,0.57914 -1.02101,0.5499 -1.5419,0.008 z m 1.66256,-6.04115 c 0,0 0.0331,0.37462 -0.34537,0.4938 -0.43266,0.13621 -0.62443,-0.22764 -0.62443,-0.22764 0,0 0.0544,-0.24986 0.40543,-0.36543 0.37498,-0.12347 0.56437,0.0993 0.56437,0.0993 z"
             fill="#1373d9"
             id="path1981"
             style="fill:#ffffff;stroke-width:0.0205454" />
        </g>
        <g
           id="g2087">
          <path
             style="color:#bebebe;fill:#1373d9;fill-opacity:1;fill-rule:nonzero;stroke:none;stroke-width:2;marker:none;visibility:visible;display:inline;overflow:visible;enable-background:accumulate"
             d="M 419 140.5 C 417.6156 140.5 416.5 141.6156 416.5 143 L 416.5 153 C 416.5 154.3844 417.6156 155.5 419 155.5 L 429 155.5 C 430.3844 155.5 431.5 154.3844 431.5 153 L 431.5 143 C 431.5 141.6156 430.3844 140.5 429 140.5 L 419 140.5 z "
             id="path4202" />
          <path
             fill-rule="evenodd"
             clip-rule="evenodd"
             d="m 423.1209,144.76564 h -9.9e-4 -10e-4 c -0.82191,0.33749 -0.90999,1.09185 -0.7779,1.49766 0,0 2e-5,0.003 -2e-4,0.009 0.47581,-0.33455 1.08427,-0.51485 1.65868,-0.51485 1.39528,0 2.52638,0.9227 2.52638,2.06091 0,1.13821 -1.1311,2.06091 -2.52638,2.06091 -0.0108,0 -0.0227,-4.8e-4 -0.0353,-9.3e-4 h -3e-5 c -0.0663,-0.002 -0.15173,-0.006 -0.18634,0.0507 -0.0412,0.0671 0.0497,0.17033 0.102,0.22953 0.54545,0.61688 1.33662,0.6944 1.5444,0.71476 0.0134,10e-4 0.0243,0.002 0.0326,0.003 -1.83285,0.17721 -3.98301,-0.99341 -3.98369,-3.02827 -1.3e-4,-0.47964 0.17708,-0.8873 0.46003,-1.21178 -10e-4,-1.4e-4 -0.002,-3.4e-4 -0.003,-4.8e-4 0.0623,-1.04123 -0.33761,-2.28638 -1.08563,-2.53122 -0.0529,-0.0173 -0.10537,0.0225 -0.11197,0.0778 -0.0984,0.8236 -0.31138,1.10908 -0.54115,1.41704 v 0 c -0.34473,0.46203 -0.59524,0.99603 -0.58432,1.58245 -0.12511,-0.26177 -0.22654,-0.53507 -0.30182,-0.81765 -0.0102,-0.0383 -0.0732,-0.1559 -0.14253,-0.11646 -0.0554,0.0315 -0.0971,0.11768 -0.12691,0.20751 -0.11398,0.4277 -0.17281,0.88402 -0.17281,1.32582 0,2.79746 2.34363,5.13574 5.13699,5.13574 2.83708,0 5.13698,-2.29935 5.13698,-5.13572 0,-1.08143 -0.33433,-2.0848 -0.90529,-2.91241 0.0238,-4e-4 0.0476,-6.8e-4 0.0716,-6.8e-4 0.22172,0 0.43799,0.019 0.64649,0.055 -0.3143,-0.34916 -0.7383,-0.63136 -1.23183,-0.81466 0.32949,-0.11946 0.68946,-0.19349 1.06783,-0.21222 -0.61079,-0.49871 -1.50196,-0.81298 -2.49444,-0.81298 -1.43648,0 -2.84609,0.55196 -3.16959,1.68254 z m 0.29187,3.92297 c -0.37207,-0.38716 -1.48644,-1.67317 -1.48644,-1.67317 l 0.0863,0.004 1.74443,1.30264 c 0.1307,0.0949 0.31698,0.094 0.44649,-0.002 l 1.71058,-1.29867 0.0908,-0.007 c 0,0 -1.07793,1.25556 -1.49078,1.66922 -0.41287,0.41366 -0.72929,0.39278 -1.10135,0.006 z m 1.18753,-4.31511 c 0,0 0.0237,0.26759 -0.24669,0.35271 -0.30904,0.0973 -0.44601,-0.1626 -0.44601,-0.1626 0,0 0.0389,-0.17847 0.28958,-0.26102 0.26785,-0.0882 0.40312,0.0709 0.40312,0.0709 z"
             fill="#1373d9"
             id="path2073"
             style="fill:#ffffff;stroke-width:0.0146753" />
        </g>
      </g>
    </g>
    <g
       inkscape:groupmode="layer"
       id="layer6"
       inkscape:label="Symbols"
       style="display:inline" />
    <g
       inkscape:groupmode="layer"
       id="layer5"
       inkscape:label="Highlights"
       style="display:inline"
       sodipodi:insensitive="true">
      <path
         style="opacity:0.12999998;color:#bebebe;fill:#ffffff;fill-opacity:1;fill-rule:nonzero;stroke:none;stroke-width:0;marker:none;visibility:visible;display:inline;overflow:visible;enable-background:accumulate"
         d="M 84,47 C 56.836703,47 35,68.836703 35,96 l 0,1 C 35,69.836703 56.836703,48 84,48 l 120,0 c 27.1633,0 49,21.836703 49,49 l 0,-1 C 253,68.836703 231.1633,47 204,47 L 84,47 z"
         id="rect3894"
         inkscape:connector-curvature="0" />
      <path
         style="opacity:0.12999998;color:#bebebe;fill:#ffffff;fill-opacity:1;fill-rule:nonzero;stroke:none;stroke-width:0;marker:none;visibility:visible;display:inline;overflow:visible;enable-background:accumulate"
         d="m 419,141 c -1.1253,0 -2,0.8747 -2,2 l 0,1 c 0,-1.1253 0.8747,-2 2,-2 l 10,0 c 1.1253,0 2,0.8747 2,2 l 0,-1 c 0,-1.1253 -0.8747,-2 -2,-2 l -10,0 z"
         id="rect3896"
         inkscape:connector-curvature="0" />
      <path
         style="opacity:0.12999998;color:#bebebe;fill:#ffffff;fill-opacity:1;fill-rule:nonzero;stroke:none;stroke-width:0;marker:none;visibility:visible;display:inline;overflow:visible;enable-background:accumulate"
         d="m 422,102 c -2.2333,0 -4,1.7667 -4,4 l 0,1 c 0,-2.2333 1.7667,-4 4,-4 l 12,0 c 2.2333,0 4,1.7667 4,4 l 0,-1 c 0,-2.2333 -1.7667,-4 -4,-4 l -12,0 z"
         id="rect3898"
         inkscape:connector-curvature="0" />
      <path
         style="opacity:0.12999998;color:#bebebe;fill:#ffffff;fill-opacity:1;fill-rule:nonzero;stroke:none;stroke-width:0;marker:none;visibility:visible;display:inline;overflow:visible;enable-background:accumulate"
         d="m 424,54 c -3.3413,0 -6,2.658703 -6,6 l 0,1 c 0,-3.341297 2.6587,-6 6,-6 l 16,0 c 3.3413,0 6,2.658703 6,6 l 0,-1 c 0,-3.341297 -2.6587,-6 -6,-6 l -16,0 z"
         id="rect3900"
         inkscape:connector-curvature="0" />
      <path
         style="opacity:0.12999998;color:#bebebe;fill:#ffffff;fill-opacity:1;fill-rule:nonzero;stroke:none;stroke-width:0;marker:none;visibility:visible;display:inline;overflow:visible;enable-background:accumulate"
         d="m 300,224 c -4.4493,0 -8,3.5507 -8,8 l 0,1 c 0,-4.4493 3.5507,-8 8,-8 l 24,0 c 4.4493,0 8,3.5507 8,8 l 0,-1 c 0,-4.4493 -3.5507,-8 -8,-8 l -24,0 z"
         id="rect3902"
         inkscape:connector-curvature="0" />
      <path
         style="opacity:0.12999998;color:#bebebe;fill:#ffffff;fill-opacity:1;fill-rule:nonzero;stroke:none;stroke-width:0;marker:none;visibility:visible;display:inline;overflow:visible;enable-background:accumulate"
         d="m 310,33 c -9.4353,0 -17,7.564703 -17,17 l 0,1 c 0,-9.435297 7.5647,-17 17,-17 l 52,0 c 9.4353,0 17,7.564703 17,17 l 0,-1 c 0,-9.435297 -7.5647,-17 -17,-17 l -52,0 z"
         id="rect3904"
         inkscape:connector-curvature="0" />
      <path
         style="opacity:0.12999998;color:#bebebe;fill:#ffffff;fill-opacity:1;fill-rule:nonzero;stroke:none;stroke-width:0;marker:none;visibility:visible;display:inline;overflow:visible;enable-background:accumulate"
         d="m 302.5,143 c -6.3883,0 -11.5,5.1117 -11.5,11.5 l 0,1 c 0,-6.3883 5.1117,-11.5 11.5,-11.5 l 35,0 c 6.3883,0 11.5,5.1117 11.5,11.5 l 0,-1 c 0,-6.3883 -5.1117,-11.5 -11.5,-11.5 l -35,0 z"
         id="rect3906"
         inkscape:connector-curvature="0" />
      <path
         id="path4085"
         d="m 204,266 c 27.1633,0 49,-21.8367 49,-49 l 0,-1 c 0,27.1633 -21.8367,49 -49,49 L 84,265 C 56.8367,265 35,243.1633 35,216 l 0,1 c 0,27.1633 21.8367,49 49,49 l 120,0 z"
         style="opacity:0.41;color:#bebebe;fill:#000000;fill-opacity:1;fill-rule:nonzero;stroke:none;stroke-width:0;marker:none;visibility:visible;display:inline;overflow:visible;enable-background:accumulate"
         inkscape:connector-curvature="0" />
      <path
         id="path4087"
         d="m 429,156 c 1.1253,0 2,-0.8747 2,-2 l 0,-1 c 0,1.1253 -0.8747,2 -2,2 l -10,0 c -1.1253,0 -2,-0.8747 -2,-2 l 0,1 c 0,1.1253 0.8747,2 2,2 l 10,0 z"
         style="opacity:0.3;color:#bebebe;fill:#000000;fill-opacity:1;fill-rule:nonzero;stroke:none;stroke-width:0;marker:none;visibility:visible;display:inline;overflow:visible;enable-background:accumulate"
         inkscape:connector-curvature="0" />
      <path
         id="path4089"
         d="m 434,123 c 2.2333,0 4,-1.7667 4,-4 l 0,-1 c 0,2.2333 -1.7667,4 -4,4 l -12,0 c -2.2333,0 -4,-1.7667 -4,-4 l 0,1 c 0,2.2333 1.7667,4 4,4 l 12,0 z"
         style="opacity:0.3;color:#bebebe;fill:#000000;fill-opacity:1;fill-rule:nonzero;stroke:none;stroke-width:0;marker:none;visibility:visible;display:inline;overflow:visible;enable-background:accumulate"
         inkscape:connector-curvature="0" />
      <path
         id="path4091"
         d="m 440,83 c 3.3413,0 6,-2.6587 6,-6 l 0,-1 c 0,3.3413 -2.6587,6 -6,6 l -16,0 c -3.3413,0 -6,-2.6587 -6,-6 l 0,1 c 0,3.3413 2.6587,6 6,6 l 16,0 z"
         style="opacity:0.41;color:#bebebe;fill:#000000;fill-opacity:1;fill-rule:nonzero;stroke:none;stroke-width:0;marker:none;visibility:visible;display:inline;overflow:visible;enable-background:accumulate"
         inkscape:connector-curvature="0" />
      <path
         id="path4093"
         d="m 324,265 c 4.4493,0 8,-3.5507 8,-8 l 0,-1 c 0,4.4493 -3.5507,8 -8,8 l -24,0 c -4.4493,0 -8,-3.5507 -8,-8 l 0,1 c 0,4.4493 3.5507,8 8,8 l 24,0 z"
         style="opacity:0.41;color:#bebebe;fill:#000000;fill-opacity:1;fill-rule:nonzero;stroke:none;stroke-width:0;marker:none;visibility:visible;display:inline;overflow:visible;enable-background:accumulate"
         inkscape:connector-curvature="0" />
      <path
         id="path4095"
         d="m 362,120 c 9.4353,0 17,-7.5647 17,-17 l 0,-1 c 0,9.4353 -7.5647,17 -17,17 l -52,0 c -9.4353,0 -17,-7.5647 -17,-17 l 0,1 c 0,9.4353 7.5647,17 17,17 l 52,0 z"
         style="opacity:0.41;color:#bebebe;fill:#000000;fill-opacity:1;fill-rule:nonzero;stroke:none;stroke-width:0;marker:none;visibility:visible;display:inline;overflow:visible;enable-background:accumulate"
         inkscape:connector-curvature="0" />
      <path
         id="path4097"
         d="m 337.5,202 c 6.3883,0 11.5,-5.1117 11.5,-11.5 l 0,-1 c 0,6.3883 -5.1117,11.5 -11.5,11.5 l -35,0 c -6.3883,0 -11.5,-5.1117 -11.5,-11.5 l 0,1 c 0,6.3883 5.1117,11.5 11.5,11.5 l 35,0 z"
         style="opacity:0.41;color:#bebebe;fill:#000000;fill-opacity:1;fill-rule:nonzero;stroke:none;stroke-width:0;marker:none;visibility:visible;display:inline;overflow:visible;enable-background:accumulate"
         inkscape:connector-curvature="0" />
      <path
         inkscape:connector-curvature="0"
         id="path4280"
         d="M 84,265 C 56.836703,265 35,243.1633 35,216 l 0,-1 c 0,27.1633 21.836703,49 49,49 l 120,0 c 27.1633,0 49,-21.8367 49,-49 l 0,1 c 0,27.1633 -21.8367,49 -49,49 l -120,0 z"
         style="opacity:0.1;color:#bebebe;fill:#ffffff;fill-opacity:1;fill-rule:nonzero;stroke:none;stroke-width:0;marker:none;visibility:visible;display:inline;overflow:visible;enable-background:accumulate" />
      <path
         style="opacity:0.1;color:#bebebe;fill:#ffffff;fill-opacity:1;fill-rule:nonzero;stroke:none;stroke-width:0;marker:none;visibility:visible;display:inline;overflow:visible;enable-background:accumulate"
         d="m 300,264 c -4.4493,0 -8,-3.5507 -8,-8 l 0,-1 c 0,4.4493 3.5507,8 8,8 l 24,0 c 4.4493,0 8,-3.5507 8,-8 l 0,1 c 0,4.4493 -3.5507,8 -8,8 l -24,0 z"
         id="path4294"
         inkscape:connector-curvature="0" />
      <path
         style="opacity:0.1;color:#bebebe;fill:#ffffff;fill-opacity:1;fill-rule:nonzero;stroke:none;stroke-width:0;marker:none;visibility:visible;display:inline;overflow:visible;enable-background:accumulate"
         d="m 302.5,201 c -6.3883,0 -11.5,-5.1117 -11.5,-11.5 l 0,-1 c 0,6.3883 5.1117,11.5 11.5,11.5 l 35,0 c 6.3883,0 11.5,-5.1117 11.5,-11.5 l 0,1 c 0,6.3883 -5.1117,11.5 -11.5,11.5 l -35,0 z"
         id="path4296"
         inkscape:connector-curvature="0" />
      <path
         style="opacity:0.1;color:#bebebe;fill:#ffffff;fill-opacity:1;fill-rule:nonzero;stroke:none;stroke-width:0;marker:none;visibility:visible;display:inline;overflow:visible;enable-background:accumulate"
         d="m 310,119 c -9.4353,0 -17,-7.5647 -17,-17 l 0,-1 c 0,9.4353 7.5647,17 17,17 l 52,0 c 9.4353,0 17,-7.5647 17,-17 l 0,1 c 0,9.4353 -7.5647,17 -17,17 l -52,0 z"
         id="path4298"
         inkscape:connector-curvature="0" />
      <path
         style="opacity:0.1;color:#bebebe;fill:#ffffff;fill-opacity:1;fill-rule:nonzero;stroke:none;stroke-width:0;marker:none;visibility:visible;display:inline;overflow:visible;enable-background:accumulate"
         d="m 424,82 c -3.3413,0 -6,-2.658703 -6,-6 l 0,-1 c 0,3.341297 2.6587,6 6,6 l 16,0 c 3.3413,0 6,-2.658703 6,-6 l 0,1 c 0,3.341297 -2.6587,6 -6,6 l -16,0 z"
         id="path4300"
         inkscape:connector-curvature="0" />
      <path
         style="opacity:0.1;color:#bebebe;fill:#ffffff;fill-opacity:1;fill-rule:nonzero;stroke:none;stroke-width:0;marker:none;visibility:visible;display:inline;overflow:visible;enable-background:accumulate"
         d="m 422,122 c -2.2333,0 -4,-1.7667 -4,-4 l 0,-1 c 0,2.2333 1.7667,4 4,4 l 12,0 c 2.2333,0 4,-1.7667 4,-4 l 0,1 c 0,2.2333 -1.7667,4 -4,4 l -12,0 z"
         id="path4302"
         inkscape:connector-curvature="0" />
      <path
         style="opacity:0.1;color:#bebebe;fill:#ffffff;fill-opacity:1;fill-rule:nonzero;stroke:none;stroke-width:0;marker:none;visibility:visible;display:inline;overflow:visible;enable-background:accumulate"
         d="m 419,154.5 c -1.1253,0 -2,-0.8747 -2,-2 l 0,-1 c 0,1.1253 0.8747,2 2,2 l 10,0 c 1.1253,0 2,-0.8747 2,-2 l 0,1 c 0,1.1253 -0.8747,2 -2,2 l -10,0 z"
         id="path4304"
         inkscape:connector-curvature="0" />
    </g>
    <g
       inkscape:groupmode="layer"
       id="layer3"
       inkscape:label="Border"
       style="display:inline"
       sodipodi:insensitive="true">
      <path
         style="opacity:0.41;color:#bebebe;fill:#000000;fill-opacity:1;fill-rule:nonzero;stroke:none;stroke-width:0;marker:none;visibility:visible;display:inline;overflow:visible;enable-background:accumulate"
         d="m 422,101 c -2.77,0 -5,2.23 -5,5 l 0,12 c 0,2.77 2.23,5 5,5 l 12,0 c 2.77,0 5,-2.23 5,-5 l 0,-12 c 0,-2.77 -2.23,-5 -5,-5 l -12,0 z m 0,1 12,0 c 2.2333,0 4,1.7667 4,4 l 0,12 c 0,2.2333 -1.7667,4 -4,4 l -12,0 c -2.2333,0 -4,-1.7667 -4,-4 l 0,-12 c 0,-2.2333 1.7667,-4 4,-4 z"
         id="rect4099"
         inkscape:connector-curvature="0" />
      <path
         style="opacity:0.41;color:#bebebe;fill:#000000;fill-opacity:1;fill-rule:nonzero;stroke:none;stroke-width:0;marker:none;visibility:visible;display:inline;overflow:visible;enable-background:accumulate"
         d="m 424,53 c -3.878,0 -7,3.122 -7,7 l 0,16 c 0,3.878 3.122,7 7,7 l 16,0 c 3.878,0 7,-3.122 7,-7 l 0,-16 c 0,-3.878 -3.122,-7 -7,-7 l -16,0 z m 0,1 16,0 c 3.3413,0 6,2.658703 6,6 l 0,16 c 0,3.341297 -2.6587,6 -6,6 l -16,0 c -3.3413,0 -6,-2.658703 -6,-6 l 0,-16 c 0,-3.341297 2.6587,-6 6,-6 z"
         id="rect4151"
         inkscape:connector-curvature="0" />
      <path
         style="opacity:0.41;color:#bebebe;fill:#000000;fill-opacity:1;fill-rule:nonzero;stroke:none;stroke-width:0;marker:none;visibility:visible;display:inline;overflow:visible;enable-background:accumulate"
         d="m 419,140 c -1.662,0 -3,1.338 -3,3 l 0,10 c 0,1.662 1.338,3 3,3 l 10,0 c 1.662,0 3,-1.338 3,-3 l 0,-10 c 0,-1.662 -1.338,-3 -3,-3 l -10,0 z m 0,1 10,0 c 1.1253,0 2,0.8747 2,2 l 0,10 c 0,1.1253 -0.8747,2 -2,2 l -10,0 c -1.1253,0 -2,-0.8747 -2,-2 l 0,-10 c 0,-1.1253 0.8747,-2 2,-2 z"
         id="rect4095"
         inkscape:connector-curvature="0" />
      <path
         style="opacity:0.41;color:#bebebe;fill:#000000;fill-opacity:1;fill-rule:nonzero;stroke:none;stroke-width:0;marker:none;visibility:visible;display:inline;overflow:visible;enable-background:accumulate"
         d="m 300,223 c -4.986,0 -9,4.014 -9,9 l 0,24 c 0,4.986 4.014,9 9,9 l 24,0 c 4.986,0 9,-4.014 9,-9 l 0,-24 c 0,-4.986 -4.014,-9 -9,-9 l -24,0 z m 0,1 24,0 c 4.4493,0 8,3.5507 8,8 l 0,24 c 0,4.4493 -3.5507,8 -8,8 l -24,0 c -4.4493,0 -8,-3.5507 -8,-8 l 0,-24 c 0,-4.4493 3.5507,-8 8,-8 z"
         id="rect4783"
         inkscape:connector-curvature="0" />
      <path
         style="opacity:0.41;color:#bebebe;fill:#000000;fill-opacity:1;fill-rule:nonzero;stroke:none;stroke-width:0;marker:none;visibility:visible;display:inline;overflow:visible;enable-background:accumulate"
         d="m 302.5,142 c -6.925,0 -12.5,5.575 -12.5,12.5 l 0,35 c 0,6.925 5.575,12.5 12.5,12.5 l 35,0 c 6.925,0 12.5,-5.575 12.5,-12.5 l 0,-35 c 0,-6.925 -5.575,-12.5 -12.5,-12.5 l -35,0 z m 0,1 35,0 c 6.3883,0 11.5,5.1117 11.5,11.5 l 0,35 c 0,6.3883 -5.1117,11.5 -11.5,11.5 l -35,0 c -6.3883,0 -11.5,-5.1117 -11.5,-11.5 l 0,-35 c 0,-6.3883 5.1117,-11.5 11.5,-11.5 z"
         id="rect4515"
         inkscape:connector-curvature="0" />
      <path
         style="opacity:0.41;color:#bebebe;fill:#000000;fill-opacity:1;fill-rule:nonzero;stroke:none;stroke-width:0;marker:none;visibility:visible;display:inline;overflow:visible;enable-background:accumulate"
         d="m 310,32 c -9.972,0 -18,8.028 -18,18 l 0,52 c 0,9.972 8.028,18 18,18 l 52,0 c 9.972,0 18,-8.028 18,-18 l 0,-52 c 0,-9.972 -8.028,-18 -18,-18 l -52,0 z m 0,1 52,0 c 9.4353,0 17,7.564703 17,17 l 0,52 c 0,9.4353 -7.5647,17 -17,17 l -52,0 c -9.4353,0 -17,-7.5647 -17,-17 l 0,-52 c 0,-9.435297 7.5647,-17 17,-17 z"
         id="rect4511"
         inkscape:connector-curvature="0" />
      <path
         style="opacity:0.41;color:#bebebe;fill:#000000;fill-opacity:1;fill-rule:nonzero;stroke:none;stroke-width:0;marker:none;visibility:visible;display:inline;overflow:visible;enable-background:accumulate"
         d="M 84,46 C 56.3,46 34,68.3 34,96 l 0,120 c 0,27.7 22.3,50 50,50 l 120,0 c 27.7,0 50,-22.3 50,-50 L 254,96 C 254,68.3 231.7,46 204,46 L 84,46 z m 0,1 120,0 c 27.1633,0 49,21.836703 49,49 l 0,120 c 0,27.1633 -21.8367,49 -49,49 L 84,265 C 56.836703,265 35,243.1633 35,216 L 35,96 C 35,68.836703 56.836703,47 84,47 z"
         id="rect4040"
         inkscape:connector-curvature="0" />
    </g>
  </g>
</svg>
