<?xml version="1.0" encoding="UTF-8" standalone="no"?>
<!-- Created with Inkscape (http://www.inkscape.org/) -->

<svg
   inkscape:export-ydpi="90"
   inkscape:export-xdpi="90"
   width="480"
   height="300"
   id="svg11300"
   sodipodi:version="0.32"
   inkscape:version="1.2.2 (b0a8486541, 2022-12-01)"
   sodipodi:docname="vinegar.svg"
   inkscape:output_extension="org.inkscape.output.svg.inkscape"
   version="1.0"
   style="display:inline;enable-background:new"
   inkscape:export-filename="sober-plain.svg"
   xml:space="preserve"
   xmlns:inkscape="http://www.inkscape.org/namespaces/inkscape"
   xmlns:sodipodi="http://sodipodi.sourceforge.net/DTD/sodipodi-0.dtd"
   xmlns:xlink="http://www.w3.org/1999/xlink"
   xmlns="http://www.w3.org/2000/svg"
   xmlns:svg="http://www.w3.org/2000/svg"
   xmlns:rdf="http://www.w3.org/1999/02/22-rdf-syntax-ns#"
   xmlns:cc="http://creativecommons.org/ns#"
   xmlns:dc="http://purl.org/dc/elements/1.1/"><sodipodi:namedview
     stroke="#ef2929"
     fill="#f57900"
     id="base"
     pagecolor="#777777"
     bordercolor="#666666"
     borderopacity="0.25490196"
     inkscape:pageopacity="0"
     inkscape:pageshadow="2"
     inkscape:zoom="1.4142136"
     inkscape:cx="72.124891"
     inkscape:cy="98.287842"
     inkscape:current-layer="g30219"
     showgrid="false"
     inkscape:grid-bbox="true"
     inkscape:document-units="px"
     inkscape:showpageshadow="false"
     inkscape:window-width="1920"
     inkscape:window-height="1048"
     inkscape:window-x="0"
     inkscape:window-y="0"
     width="400px"
     height="300px"
     inkscape:snap-nodes="true"
     inkscape:snap-bbox="true"
     gridtolerance="10000"
     inkscape:object-nodes="true"
     inkscape:snap-grids="true"
     showguides="true"
     inkscape:guide-bbox="true"
     inkscape:window-maximized="1"
     inkscape:bbox-nodes="true"
     inkscape:bbox-paths="true"
     inkscape:snap-bbox-edge-midpoints="true"
     inkscape:snap-bbox-midpoints="true"
     inkscape:pagecheckerboard="0"
     inkscape:deskcolor="#505050"><inkscape:grid
       spacingy="1px"
       spacingx="1px"
       id="grid5883"
       type="xygrid"
       enabled="true"
       visible="true"
       empspacing="4"
       snapvisiblegridlinesonly="true"
       dotted="false"
       color="#000000"
       opacity="0.1254902"
       empcolor="#203ef3"
       empopacity="0.36470588"
       originx="0"
       originy="0"
       units="px" /><inkscape:grid
       type="xygrid"
       id="grid11592"
       empspacing="8"
       visible="true"
       enabled="false"
       spacingx="0.5px"
       spacingy="0.5px"
       color="#ff0000"
       opacity="0.1254902"
       empcolor="#ff0000"
       empopacity="0.25098039"
       snapvisiblegridlinesonly="true"
       dotted="true"
       originx="0"
       originy="0"
       units="px" /></sodipodi:namedview><defs
     id="defs3"><linearGradient
       gradientTransform="matrix(-0.6804,-0.7328,0.7328,-0.6804,685.7452,990.4276)"
       y2="274.4072"
       x2="1015.8838"
       y1="274.4072"
       x1="919.75293"
       gradientUnits="userSpaceOnUse"
       id="linearGradient12"><stop
         id="stop11"
         style="stop-color:#b70213;stop-opacity:1"
         offset="0.28650001" /><stop
         id="stop12"
         style="stop-color:#730211;stop-opacity:0.99607843"
         offset="1" /></linearGradient><linearGradient
       gradientTransform="matrix(-0.6804,-0.7328,0.7328,-0.6804,685.7452,990.4276)"
       y2="274.4072"
       x2="1015.8838"
       y1="274.4072"
       x1="919.75293"
       gradientUnits="userSpaceOnUse"
       id="linearGradient10"><stop
         id="stop9"
         style="stop-color:#b70213;stop-opacity:1"
         offset="0.28650001" /><stop
         id="stop10"
         style="stop-color:#730211;stop-opacity:0.99607843"
         offset="1" /></linearGradient><linearGradient
       gradientTransform="matrix(-0.6804,-0.7328,0.7328,-0.6804,685.7452,990.4276)"
       y2="274.4072"
       x2="1015.8838"
       y1="274.4072"
       x1="919.75293"
       gradientUnits="userSpaceOnUse"
       id="linearGradient8"><stop
         id="stop7"
         style="stop-color:#b70213;stop-opacity:1"
         offset="0.28650001" /><stop
         id="stop8"
         style="stop-color:#730211;stop-opacity:0.99607843"
         offset="1" /></linearGradient><linearGradient
       gradientTransform="matrix(-0.6804,-0.7328,0.7328,-0.6804,685.7452,990.4276)"
       y2="274.4072"
       x2="1015.8838"
       y1="274.4072"
       x1="919.75293"
       gradientUnits="userSpaceOnUse"
       id="linearGradient6"><stop
         id="stop5"
         style="stop-color:#b70213;stop-opacity:1"
         offset="0.28650001" /><stop
         id="stop6"
         style="stop-color:#730211;stop-opacity:0.99607843"
         offset="1" /></linearGradient><linearGradient
       gradientTransform="matrix(-0.6804,-0.7328,0.7328,-0.6804,685.7452,990.4276)"
       y2="274.4072"
       x2="1015.8838"
       y1="274.4072"
       x1="919.75293"
       gradientUnits="userSpaceOnUse"
       id="linearGradient4"><stop
         id="stop3"
         style="stop-color:#b70213;stop-opacity:1"
         offset="0.28650001" /><stop
         id="stop4"
         style="stop-color:#730211;stop-opacity:0.99607843"
         offset="1" /></linearGradient><linearGradient
       gradientTransform="matrix(-0.6804,-0.7328,0.7328,-0.6804,685.7452,990.4276)"
       y2="274.4072"
       x2="1015.8838"
       y1="274.4072"
       x1="919.75293"
       gradientUnits="userSpaceOnUse"
       id="linearGradient2"><stop
         id="stop1"
         style="stop-color:#b70213;stop-opacity:1"
         offset="0.28650001" /><stop
         id="stop2"
         style="stop-color:#6f0313;stop-opacity:0.90980393"
         offset="1" /></linearGradient><linearGradient
       gradientTransform="matrix(-0.6804,-0.7328,0.7328,-0.6804,685.7452,990.4276)"
       y2="274.4072"
       x2="1015.8838"
       y1="274.4072"
       x1="919.75293"
       gradientUnits="userSpaceOnUse"
       id="linearGradient3854"><stop
         id="stop3856"
         style="stop-color:#b70213;stop-opacity:1"
         offset="0.28650001" /><stop
         id="stop3862"
         style="stop-color:#730211;stop-opacity:0.99607843"
         offset="1" /></linearGradient><linearGradient
       inkscape:collect="always"
       xlink:href="#linearGradient2"
       id="linearGradient5114"
       gradientUnits="userSpaceOnUse"
       gradientTransform="rotate(90,144,156)"
       x1="35"
       y1="156"
       x2="253"
       y2="156" /><linearGradient
       inkscape:collect="always"
       xlink:href="#linearGradient3854"
       id="linearGradient5116"
       gradientUnits="userSpaceOnUse"
       gradientTransform="matrix(0,1,-1,0,572,-276)"
       x1="417"
       y1="148"
       x2="431"
       y2="148" /><linearGradient
       inkscape:collect="always"
       xlink:href="#linearGradient10"
       id="linearGradient5118"
       gradientUnits="userSpaceOnUse"
       gradientTransform="rotate(90,428,112)"
       x1="418"
       y1="112"
       x2="438"
       y2="112" /><linearGradient
       inkscape:collect="always"
       xlink:href="#linearGradient12"
       id="linearGradient5120"
       gradientUnits="userSpaceOnUse"
       gradientTransform="matrix(0,1,-1,0,500,-364)"
       x1="418"
       y1="68"
       x2="446"
       y2="68" /><linearGradient
       inkscape:collect="always"
       xlink:href="#linearGradient6"
       id="linearGradient5122"
       gradientUnits="userSpaceOnUse"
       gradientTransform="matrix(0,1,-1,0,556,-68)"
       x1="292"
       y1="244"
       x2="332"
       y2="244" /><linearGradient
       inkscape:collect="always"
       xlink:href="#linearGradient8"
       id="linearGradient5124"
       gradientUnits="userSpaceOnUse"
       gradientTransform="matrix(0,1,-1,0,412,-260)"
       x1="293"
       y1="76"
       x2="379"
       y2="76" /><linearGradient
       inkscape:collect="always"
       xlink:href="#linearGradient4"
       id="linearGradient5126"
       gradientUnits="userSpaceOnUse"
       gradientTransform="matrix(0,1,-1,0,492,-148)"
       x1="291"
       y1="172"
       x2="349"
       y2="172" /><linearGradient
       id="a"><stop
         style="stop-color:#b70213;stop-opacity:1"
         offset="0"
         id="stop413" /><stop
         style="stop-color:#700413;stop-opacity:1"
         offset="1"
         id="stop415" /></linearGradient><linearGradient
       xlink:href="#a"
       id="d"
       x1="33.129"
       y1="67.671"
       x2="91.562"
       y2="6.588"
       gradientUnits="userSpaceOnUse" /><linearGradient
       id="c"><stop
         style="stop-color:#1592dc;stop-opacity:1"
         offset="0"
         id="stop419" /><stop
         style="stop-color:#1591dd;stop-opacity:1"
         offset=".245"
         id="stop421" /><stop
         style="stop-color:#0c98e9;stop-opacity:1"
         offset=".485"
         id="stop423" /><stop
         style="stop-color:#56e1fc;stop-opacity:1"
         offset=".782"
         id="stop425" /></linearGradient><linearGradient
       xlink:href="#c"
       id="b"
       gradientUnits="userSpaceOnUse"
       x1="23.985"
       y1="33.016"
       x2="14.049"
       y2=".776" /></defs><metadata
     id="metadata4"><rdf:RDF><cc:Work
         rdf:about=""><dc:format>image/svg+xml</dc:format><dc:type
           rdf:resource="http://purl.org/dc/dcmitype/StillImage" /><dc:source /><dc:subject><rdf:Bag /></dc:subject><dc:date /><dc:rights><cc:Agent><dc:title /></cc:Agent></dc:rights><dc:publisher><cc:Agent><dc:title /></cc:Agent></dc:publisher><dc:identifier /><dc:relation /><dc:language /><dc:coverage /><dc:description /><dc:contributor><cc:Agent><dc:title /></cc:Agent></dc:contributor><cc:license
           rdf:resource="http://creativecommons.org/licenses/by-sa/4.0/" /><dc:creator><cc:Agent><dc:title>Ashtaka</dc:title></cc:Agent></dc:creator></cc:Work><cc:Work
         rdf:about=""><dc:format>image/svg+xml</dc:format><dc:type
           rdf:resource="http://purl.org/dc/dcmitype/StillImage" /></cc:Work><cc:License
         rdf:about="http://creativecommons.org/licenses/by-sa/4.0/"><cc:permits
           rdf:resource="http://creativecommons.org/ns#Reproduction" /><cc:permits
           rdf:resource="http://creativecommons.org/ns#Distribution" /><cc:requires
           rdf:resource="http://creativecommons.org/ns#Notice" /><cc:requires
           rdf:resource="http://creativecommons.org/ns#Attribution" /><cc:permits
           rdf:resource="http://creativecommons.org/ns#DerivativeWorks" /><cc:requires
           rdf:resource="http://creativecommons.org/ns#ShareAlike" /></cc:License></rdf:RDF></metadata><g
     style="display:inline"
     inkscape:groupmode="layer"
     inkscape:label="Icon"
     id="layer1"><g
       style="display:none"
       inkscape:label="Baseplate"
       id="layer7"
       inkscape:groupmode="layer"><text
         y="19.745117"
         xml:space="preserve"
         x="15.006836"
         style="font-style:normal;font-variant:normal;font-weight:normal;font-stretch:normal;line-height:0%;font-family:'DejaVu Sans';-inkscape-font-specification:'DejaVu Sans';display:inline;fill:#000000;fill-opacity:1;stroke:none;enable-background:new"
         inkscape:label="context"
         id="context"><tspan
           style="font-style:normal;font-variant:normal;font-weight:normal;font-stretch:normal;font-size:18px;line-height:1.25;font-family:'DejaVu Sans';-inkscape-font-specification:'DejaVu Sans'"
           y="19.745117"
           x="15.006836"
           id="tspan3933"
           sodipodi:role="line">apps</tspan></text><text
         y="19.745117"
         xml:space="preserve"
         x="122.48828"
         style="font-style:normal;font-variant:normal;font-weight:bold;font-stretch:normal;font-size:18px;line-height:0%;font-family:'DejaVu Sans';-inkscape-font-specification:'DejaVu Sans, Bold';font-variant-ligatures:normal;font-variant-caps:normal;font-variant-numeric:normal;font-variant-east-asian:normal;text-align:start;writing-mode:lr-tb;text-anchor:start;display:inline;fill:#000000;fill-opacity:1;stroke:none;enable-background:new"
         inkscape:label="icon-name"
         id="icon-name"><tspan
           sodipodi:role="line"
           id="tspan1"
           x="122.48828"
           y="19.745117">vinegar</tspan></text><rect
         style="display:inline;overflow:visible;visibility:visible;fill:#eeeeec;fill-opacity:1;fill-rule:nonzero;stroke:none;stroke-width:2;marker:none;enable-background:accumulate"
         id="rect16x16"
         width="16"
         height="16"
         x="416"
         y="140"
         inkscape:label="16x16" /><rect
         style="display:inline;overflow:visible;visibility:visible;fill:#d4d4d4;fill-opacity:1;fill-rule:nonzero;stroke:none;stroke-width:2;marker:none;enable-background:accumulate"
         id="rect24x24"
         width="24"
         height="24"
         x="416"
         y="100"
         inkscape:label="24x24" /><rect
         style="display:inline;overflow:visible;visibility:visible;fill:#eeeeec;fill-opacity:1;fill-rule:nonzero;stroke:none;stroke-width:2;marker:none;enable-background:accumulate"
         id="rect32x32"
         width="32"
         height="32"
         x="416"
         y="52"
         inkscape:label="32x32" /><rect
         inkscape:label="22x22"
         y="101"
         x="417"
         height="22"
         width="22"
         id="rect22x22"
         style="display:inline;overflow:visible;visibility:visible;fill:#eeeeec;fill-opacity:1;fill-rule:nonzero;stroke:none;stroke-width:2;marker:none;enable-background:accumulate" /><rect
         inkscape:label="48x48"
         y="220"
         x="288"
         height="48"
         width="48"
         id="rect48x48"
         style="display:inline;overflow:visible;visibility:visible;fill:#eeeeec;fill-opacity:1;fill-rule:nonzero;stroke:none;stroke-width:2;marker:none;enable-background:accumulate" /><rect
         style="display:inline;overflow:visible;visibility:visible;fill:#eeeeec;fill-opacity:1;fill-rule:nonzero;stroke:none;stroke-width:2;marker:none;enable-background:accumulate"
         id="rect256x256"
         width="256"
         height="256"
         x="16"
         y="28"
         inkscape:label="256x256" /><rect
         style="display:inline;overflow:visible;visibility:visible;fill:#eeeeec;fill-opacity:1;fill-rule:nonzero;stroke:none;stroke-width:2;marker:none;enable-background:accumulate"
         id="rect64x64"
         width="64"
         height="64"
         x="288"
         y="140"
         inkscape:label="64x64" /><rect
         style="display:inline;overflow:visible;visibility:visible;fill:#eeeeec;fill-opacity:1;fill-rule:nonzero;stroke:none;stroke-width:2;marker:none;enable-background:accumulate"
         id="rect96x96"
         width="96"
         height="96"
         x="288"
         y="28"
         inkscape:label="96x96" /></g><g
       inkscape:groupmode="layer"
       id="layer4"
       inkscape:label="Shadow"
       style="display:inline"
       sodipodi:insensitive="true"><rect
         ry="50"
         y="47"
         x="34"
         height="220"
         width="220"
         id="rect4114"
         style="opacity:0.1;color:#bebebe;fill:#000000;fill-opacity:1;fill-rule:nonzero;stroke:none;stroke-width:0;marker:none;visibility:visible;display:inline;overflow:visible;enable-background:accumulate" /><rect
         style="opacity:0.1;color:#bebebe;fill:#000000;fill-opacity:1;fill-rule:nonzero;stroke:none;stroke-width:0;marker:none;visibility:visible;display:inline;overflow:visible;enable-background:accumulate"
         id="rect4120"
         width="30"
         height="30"
         x="417"
         y="54"
         ry="7" /><rect
         transform="scale(1,-1)"
         ry="9"
         y="-266"
         x="291"
         height="42"
         width="42"
         id="rect4122"
         style="opacity:0.1;color:#bebebe;fill:#000000;fill-opacity:1;fill-rule:nonzero;stroke:none;stroke-width:0;marker:none;visibility:visible;display:inline;overflow:visible;enable-background:accumulate" /><rect
         style="opacity:0.1;color:#bebebe;fill:#000000;fill-opacity:1;fill-rule:nonzero;stroke:none;stroke-width:0;marker:none;visibility:visible;display:inline;overflow:visible;enable-background:accumulate"
         id="rect4124"
         width="88"
         height="88"
         x="292"
         y="33"
         ry="18" /><rect
         ry="12.5"
         y="143"
         x="290"
         height="60"
         width="60"
         id="rect4126"
         style="opacity:0.1;color:#bebebe;fill:#000000;fill-opacity:1;fill-rule:nonzero;stroke:none;stroke-width:0;marker:none;visibility:visible;display:inline;overflow:visible;enable-background:accumulate" /><path
         id="path4268"
         d="m 422,101 c -2.77,0 -5,2.23 -5,5 l 0,12 c 0,2.77 2.23,5 5,5 l 12,0 c 2.77,0 5,-2.23 5,-5 l 0,-12 c 0,-2.77 -2.23,-5 -5,-5 z"
         style="opacity:0.1;color:#bebebe;fill:#000000;fill-opacity:1;fill-rule:nonzero;stroke:none;stroke-width:0;marker:none;visibility:visible;display:inline;overflow:visible;enable-background:accumulate"
         inkscape:connector-curvature="0"
         sodipodi:nodetypes="sssssssss" /><path
         id="path4270"
         d="m 419,140 c -1.662,0 -3,1.338 -3,3 l 0,10 c 0,1.662 1.338,3 3,3 l 10,0 c 1.662,0 3,-1.338 3,-3 l 0,-10 c 0,-1.662 -1.338,-3 -3,-3 z"
         style="opacity:0.1;color:#bebebe;fill:#000000;fill-opacity:1;fill-rule:nonzero;stroke:none;stroke-width:0;marker:none;visibility:visible;display:inline;overflow:visible;enable-background:accumulate"
         inkscape:connector-curvature="0"
         sodipodi:nodetypes="sssssssss" /></g><g
       inkscape:groupmode="layer"
       id="layer2"
       inkscape:label="Background"
       style="display:inline"><path
         style="color:#bebebe;display:inline;overflow:visible;visibility:visible;fill:url(#linearGradient5114);fill-opacity:1;fill-rule:nonzero;stroke:none;stroke-width:2;marker:none;enable-background:accumulate"
         d="m 204,265.5 c 27.43126,0 49.5,-22.06873 49.5,-49.5 V 96 C 253.5,68.56873 231.43126,46.5 204,46.5 H 84 C 56.56873,46.5 34.5,68.56873 34.5,96 v 120 c 0,27.43127 22.06873,49.5 49.5,49.5 z"
         id="path4200"
         inkscape:connector-curvature="0" /><path
         style="color:#bebebe;fill:url(#linearGradient5116);fill-opacity:1;fill-rule:nonzero;stroke:none;stroke-width:2;marker:none;visibility:visible;display:inline;overflow:visible;enable-background:accumulate"
         d="m 429,155.5 c 1.3844,0 2.5,-1.1156 2.5,-2.5 l 0,-10 c 0,-1.3844 -1.1156,-2.5 -2.5,-2.5 l -10,0 c -1.3844,0 -2.5,1.1156 -2.5,2.5 l 0,10 c 0,1.3844 1.1156,2.5 2.5,2.5 l 10,0 z"
         id="path4202"
         inkscape:connector-curvature="0" /><path
         style="color:#bebebe;display:inline;overflow:visible;visibility:visible;fill:url(#linearGradient5118);fill-opacity:1;fill-rule:nonzero;stroke:none;stroke-width:2;marker:none;enable-background:accumulate"
         d="m 434,122.5 c 2.49699,0 4.5,-2.00301 4.5,-4.5 v -12 c 0,-2.49699 -2.00301,-4.5 -4.5,-4.5 h -12 c -2.49699,0 -4.5,2.00301 -4.5,4.5 v 12 c 0,2.49699 2.00301,4.5 4.5,4.5 z"
         id="path4204"
         inkscape:connector-curvature="0" /><path
         style="color:#bebebe;fill:url(#linearGradient5120);fill-opacity:1;fill-rule:nonzero;stroke:none;stroke-width:2;marker:none;visibility:visible;display:inline;overflow:visible;enable-background:accumulate"
         d="m 440,82.5 c 3.60654,0 6.5,-2.89346 6.5,-6.5 l 0,-16 c 0,-3.60654 -2.89346,-6.5 -6.5,-6.5 l -16,0 c -3.60654,0 -6.5,2.89346 -6.5,6.5 l 0,16 c 0,3.60654 2.89346,6.5 6.5,6.5 l 16,0 z"
         id="path4206"
         inkscape:connector-curvature="0" /><path
         style="color:#bebebe;fill:url(#linearGradient5122);fill-opacity:1;fill-rule:nonzero;stroke:none;stroke-width:2;marker:none;visibility:visible;display:inline;overflow:visible;enable-background:accumulate"
         d="m 324,264.5 c 4.71531,0 8.5,-3.78469 8.5,-8.5 l 0,-24 c 0,-4.71531 -3.78469,-8.5 -8.5,-8.5 l -24,0 c -4.71531,0 -8.5,3.78469 -8.5,8.5 l 0,24 c 0,4.71531 3.78469,8.5 8.5,8.5 l 24,0 z"
         id="path4208"
         inkscape:connector-curvature="0" /><path
         style="color:#bebebe;fill:url(#linearGradient5124);fill-opacity:1;fill-rule:nonzero;stroke:none;stroke-width:2;marker:none;visibility:visible;display:inline;overflow:visible;enable-background:accumulate"
         d="m 362,119.5 c 9.70255,0 17.5,-7.79745 17.5,-17.5 l 0,-52 c 0,-9.70255 -7.79745,-17.5 -17.5,-17.5 l -52,0 c -9.70255,0 -17.5,7.79745 -17.5,17.5 l 0,52 c 0,9.70255 7.79745,17.5 17.5,17.5 l 52,0 z"
         id="path4210"
         inkscape:connector-curvature="0"
         inkscape:label="path4210" /><path
         style="color:#bebebe;fill:url(#linearGradient5126);fill-opacity:1;fill-rule:nonzero;stroke:none;stroke-width:2;marker:none;visibility:visible;display:inline;overflow:visible;enable-background:accumulate"
         d="m 337.5,201.5 c 6.65502,0 12,-5.34498 12,-12 l 0,-35 c 0,-6.65502 -5.34498,-12 -12,-12 l -35,0 c -6.65502,0 -12,5.34498 -12,12 l 0,35 c 0,6.65502 5.34498,12 12,12 l 35,0 z"
         id="path4212"
         inkscape:connector-curvature="0" /></g><g
       inkscape:groupmode="layer"
       id="layer6"
       inkscape:label="Symbols"
       style="display:inline"><g
         inkscape:groupmode="layer"
         id="layer9"
         inkscape:label="vinegar1"
         style="display:inline;enable-background:new"><g
           id="g451"
           transform="matrix(3.7795232,0,0,3.7795232,90.996059,149.70474)"
           style="display:inline;enable-background:new"><path
             style="display:inline;fill:#6c010f;fill-opacity:0.85;stroke-width:0.138385;enable-background:new"
             d="m 2.1425423,-20.159316 a 1.7308147,1.6625521 0 0 0 -1.22363126,1.175552 L -7.7258852,12.006627 a 1.7308147,1.6625521 0 0 0 1.2234493,2.036092 l 32.2628209,8.30385 a 1.7308147,1.6625521 0 0 0 2.119806,-1.175602 l 8.644796,-30.9903891 a 1.7308147,1.6625521 0 0 0 -1.22387,-2.0362019 L 3.0387173,-20.159365 a 1.7308147,1.6625521 0 0 0 -0.8957538,1.57e-4 z M 12.525602,-4.1618082 a 2.0914555,2.0089696 0 0 1 0.46299,0.067126 l 5.332698,1.3725371 a 2.0914555,2.0089696 0 0 1 1.479303,2.46058387 L 18.371702,4.8608172 A 2.0914555,2.0089696 0 0 1 15.81009,6.2817782 L 10.477393,4.9092402 A 2.0914555,2.0089696 0 0 1 8.998087,2.4486568 l 1.429006,-5.1227833 a 2.0914555,2.0089696 0 0 1 2.09893,-1.4875731 z"
             id="path5505" /><path
             style="display:inline;fill:#6c010f;fill-opacity:0.992314;stroke-width:0.137543;enable-background:new"
             d="m 2.1288176,-20.235378 a 1.7204964,1.6522338 0 0 0 -1.2163366,1.168256 l -8.5932602,30.798055 a 1.7204964,1.6522338 0 0 0 1.2161557,2.023456 l 32.0704855,8.252314 a 1.7204964,1.6522338 0 0 0 2.107169,-1.168306 l 8.59326,-30.7980528 A 1.7204964,1.6522338 0 0 0 35.089717,-11.983221 L 3.0196501,-20.235427 a 1.7204964,1.6522338 0 0 0 -0.8904138,1.56e-4 z M 12.449978,-4.3371547 a 2.0789873,1.9965013 0 0 1 0.46023,0.066709 l 5.300907,1.3640187 a 2.0789873,1.9965013 0 0 1 1.470484,2.44531286 L 18.261226,4.6294735 a 2.0789873,1.9965013 0 0 1 -2.54634,1.4121419 L 10.413979,4.6775962 A 2.0789873,1.9965013 0 0 1 8.9434929,2.2322838 L 10.363979,-2.858706 a 2.0789873,1.9965013 0 0 1 2.086418,-1.4783408 z"
             id="path451" /><path
             id="path431"
             style="fill:#ffffff;fill-opacity:1;stroke-width:0.137543"
             d="M 2.4246702 -20.285517 A 1.7204964 1.6522338 0 0 0 2.1290807 -20.235391 L 2.1285639 -20.235391 A 1.7204964 1.6522338 0 0 0 0.91261604 -19.066986 L -7.6806678 11.73117 A 1.7204964 1.6522338 0 0 0 -6.4647199 13.754305 L 18.286769 20.123432 L 16.895638 19.764797 A 12.978329 12.4634 0 0 0 17.279595 18.872861 C 17.704151 17.757597 17.965765 16.869094 18.099184 16.099901 C 18.260571 15.168679 18.277677 15.195985 18.360667 13.916052 C 18.399639 13.320335 18.220616 11.892538 18.033555 11.387521 C 17.84145 10.867977 17.632394 10.517144 17.399484 9.8914868 L 17.425839 9.9307609 C 17.317178 9.7216218 17.215696 9.5074989 17.127666 9.2811874 C 16.854867 8.5833225 16.677594 7.8130611 16.572143 7.01569 C 16.534154 6.7294717 16.459241 6.3963191 16.435201 6.1020496 A 2.0789873 1.9965013 0 0 1 15.71483 6.0415881 L 10.413856 4.6778455 A 2.0789873 1.9965013 0 0 1 8.9436596 2.2325139 L 10.36373 -2.8586541 A 2.0789873 1.9965013 0 0 1 12.44991 -4.3371185 L 12.450426 -4.3371185 A 2.0789873 1.9965013 0 0 1 12.910347 -4.2704558 L 18.211322 -2.9061964 A 2.0789873 1.9965013 0 0 1 18.383921 -2.8529697 A 2.0789873 1.9965013 0 0 1 18.384955 -2.8529697 A 2.0789873 1.9965013 0 0 1 18.630935 -2.7485831 C 19.084801 -2.5485601 19.843014 -2.1428237 20.272697 -1.9532819 C 21.027821 -1.5821144 21.811901 -1.3360721 22.631212 -1.2427302 A 6.5334081 6.2741881 0 0 0 24.746331 -1.3409155 C 25.389585 -1.4686007 26.004703 -1.6754429 26.610819 -1.9264102 C 27.186217 -2.1646088 27.714638 -2.4260914 28.239145 -2.6788199 C 28.736599 -2.9183394 29.205909 -3.1379851 29.640095 -3.2824013 A 3.4844844 3.3462336 0 0 1 30.250911 -3.4332967 A 2.1654236 2.0795082 0 0 1 30.530481 -3.4570678 A 1.6753034 1.6088339 0 0 1 30.795581 -3.4425984 A 1.4075483 1.3517023 0 0 1 31.288575 -3.2829181 A 1.7743361 1.7039374 0 0 1 31.700953 -2.9718256 C 31.659228 -2.8247674 31.608444 -2.6441808 31.547474 -2.4328398 A 64.290569 61.739771 0 0 1 30.531514 0.77058596 C 29.873131 2.6594449 29.054385 4.6835923 28.085149 6.5108107 C 26.828443 8.8787082 26.436958 9.5604435 25.431044 10.478015 C 24.693802 11.150784 24.405365 11.373143 23.694714 11.891367 C 22.932713 12.447898 22.806586 12.51195 22.145453 12.969855 C 21.581975 13.494245 21.30336 13.901475 20.939324 14.64469 C 20.707789 15.117124 20.291639 16.248125 20.074776 17.08072 C 19.885422 17.806766 19.651624 18.538602 19.448974 19.461456 C 19.375667 19.797208 19.327218 20.094741 19.28826 20.380781 L 25.605711 22.006524 A 1.7204964 1.6522338 0 0 0 27.713078 20.838635 L 36.306362 -9.9595208 A 1.7204964 1.6522338 0 0 0 35.089897 -11.983172 L 3.0194666 -20.235391 A 1.7204964 1.6522338 0 0 0 2.4246702 -20.285517 z M 22.686506 -12.649282 A 15.116244 14.516489 0 0 1 23.562939 -12.609491 A 18.059715 17.343176 0 0 1 24.666749 -12.496837 L 26.086819 -12.252924 A 15.031882 14.435476 0 0 1 27.204065 -11.976971 A 33.542288 32.211461 0 0 1 29.63286 -11.175985 C 30.382023 -10.895961 31.079023 -10.599487 31.670464 -10.303169 A 10.041275 9.6428766 0 0 1 32.452846 -9.8716708 C 32.681628 -9.730777 32.875564 -9.593601 33.030073 -9.462393 C 33.184582 -9.3311858 33.294962 -9.2105229 33.362352 -9.1022078 A 0.60061505 0.576785 0 0 1 33.429532 -8.9549298 A 0.31635449 0.3038028 0 0 1 33.438834 -8.8360739 C 33.277448 -7.6895498 32.977359 -6.6535517 32.700893 -5.8429715 A 30.778083 29.55693 0 0 1 32.304535 -4.7598322 C 32.245851 -4.6066102 32.192942 -4.4712898 32.148472 -4.3541717 L 32.114882 -4.2663217 C 31.955787 -4.3750742 31.794003 -4.4638465 31.627573 -4.5329724 A 2.3717418 2.2776402 0 0 0 30.915987 -4.7091892 A 2.7985911 2.6875539 0 0 0 30.197167 -4.6843845 A 4.3368075 4.16474 0 0 0 29.473696 -4.5055839 C 28.994581 -4.3479588 28.502983 -4.1182701 27.984897 -3.8668624 C 27.481021 -3.6216189 26.947219 -3.352823 26.39016 -3.1185868 C 25.841355 -2.8869926 25.262811 -2.6857912 24.650729 -2.5682322 C 24.047824 -2.4519943 23.409331 -2.4155567 22.729397 -2.5124216 C 22.056344 -2.6084055 21.33664 -2.8364281 20.563636 -3.2529457 C 19.813097 -3.6575755 19.011444 -4.2400746 18.154994 -5.0559385 A 265.14037 254.62064 0 0 1 18.748757 -7.5364101 C 18.928484 -8.2686181 19.127635 -9.0649065 19.327534 -9.8349805 C 19.535228 -10.635874 19.737786 -11.385343 19.920263 -12.010561 A 0.35991054 0.34563071 0 0 1 19.985892 -12.131484 A 0.62812414 0.60320264 0 0 1 20.118701 -12.249306 C 20.239283 -12.331642 20.405528 -12.399499 20.600843 -12.454979 A 4.5738442 4.392372 0 0 1 21.326897 -12.591405 C 21.652881 -12.629275 21.975984 -12.643965 22.236404 -12.648765 C 22.366155 -12.651006 22.516867 -12.651882 22.686506 -12.649282 z " /></g></g><g
         inkscape:groupmode="layer"
         id="layer9-6-1"
         inkscape:label="vinegar3"
         style="display:inline;enable-background:new"
         transform="matrix(0.29267836,0,0,0.29045106,277.76391,126.62702)"><g
           id="g5600"
           transform="matrix(3.8046959,0,0,3.9458747,88.906261,153.08266)"
           style="display:inline;enable-background:new"><path
             style="display:inline;fill:#6c010f;fill-opacity:0.85;stroke-width:0.138385;enable-background:new"
             d="m 2.1425423,-20.159316 a 1.7308147,1.6625521 0 0 0 -1.22363126,1.175552 L -7.7258852,12.006627 a 1.7308147,1.6625521 0 0 0 1.2234493,2.036092 l 32.2628209,8.30385 a 1.7308147,1.6625521 0 0 0 2.119806,-1.175602 l 8.644796,-30.9903891 a 1.7308147,1.6625521 0 0 0 -1.22387,-2.0362019 L 3.0387173,-20.159365 a 1.7308147,1.6625521 0 0 0 -0.8957538,1.57e-4 z M 12.525602,-4.1618082 a 2.0914555,2.0089696 0 0 1 0.46299,0.067126 l 5.332698,1.3725371 a 2.0914555,2.0089696 0 0 1 1.479303,2.46058387 L 18.371702,4.8608172 A 2.0914555,2.0089696 0 0 1 15.81009,6.2817782 L 10.477393,4.9092402 A 2.0914555,2.0089696 0 0 1 8.998087,2.4486568 l 1.429006,-5.1227833 a 2.0914555,2.0089696 0 0 1 2.09893,-1.4875731 z"
             id="path5594" /><path
             style="display:inline;fill:#6c010f;fill-opacity:0.992314;stroke-width:0.137543;enable-background:new"
             d="m 2.1288176,-20.235378 a 1.7204964,1.6522338 0 0 0 -1.2163366,1.168256 l -8.5932602,30.798055 a 1.7204964,1.6522338 0 0 0 1.2161557,2.023456 l 32.0704855,8.252314 a 1.7204964,1.6522338 0 0 0 2.107169,-1.168306 l 8.59326,-30.7980528 A 1.7204964,1.6522338 0 0 0 35.089717,-11.983221 L 3.0196501,-20.235427 a 1.7204964,1.6522338 0 0 0 -0.8904138,1.56e-4 z M 12.449978,-4.3371547 a 2.0789873,1.9965013 0 0 1 0.46023,0.066709 l 5.300907,1.3640187 a 2.0789873,1.9965013 0 0 1 1.470484,2.44531286 L 18.261226,4.6294735 a 2.0789873,1.9965013 0 0 1 -2.54634,1.4121419 L 10.413979,4.6775962 A 2.0789873,1.9965013 0 0 1 8.9434929,2.2322838 L 10.363979,-2.858706 a 2.0789873,1.9965013 0 0 1 2.086418,-1.4783408 z"
             id="path5596" /><path
             id="path5598"
             style="fill:#ffffff;fill-opacity:1;stroke-width:0.137543"
             d="m 2.4246702,-20.285517 a 1.7204964,1.6522338 0 0 0 -0.2955895,0.05013 h -5.168e-4 a 1.7204964,1.6522338 0 0 0 -1.21594786,1.168405 L -7.6806678,11.73117 a 1.7204964,1.6522338 0 0 0 1.2159479,2.023135 l 24.7514889,6.369127 -1.391131,-0.358635 a 12.978329,12.4634 0 0 0 0.383957,-0.891936 c 0.424556,-1.115264 0.68617,-2.003767 0.819589,-2.77296 0.161387,-0.931222 0.178493,-0.903916 0.261483,-2.183849 0.03897,-0.595717 -0.140051,-2.023514 -0.327112,-2.528531 -0.192105,-0.519544 -0.401161,-0.870377 -0.634071,-1.4960342 l 0.02635,0.039274 C 17.317178,9.7216218 17.215696,9.5074989 17.127666,9.2811874 16.854867,8.5833225 16.677594,7.8130611 16.572143,7.01569 16.534154,6.7294717 16.459241,6.3963191 16.435201,6.1020496 A 2.0789873,1.9965013 0 0 1 15.71483,6.0415881 L 10.413856,4.6778455 A 2.0789873,1.9965013 0 0 1 8.9436596,2.2325139 l 1.4200704,-5.091168 a 2.0789873,1.9965013 0 0 1 2.08618,-1.4784644 h 5.16e-4 a 2.0789873,1.9965013 0 0 1 0.459921,0.066663 l 5.300975,1.3642594 a 2.0789873,1.9965013 0 0 1 0.172599,0.053227 2.0789873,1.9965013 0 0 1 10e-4,0 2.0789873,1.9965013 0 0 1 0.24598,0.1043866 c 0.453866,0.200023 1.212079,0.6057594 1.641762,0.7953012 0.755124,0.3711675 1.539204,0.6172098 2.358515,0.7105517 a 6.5334081,6.2741881 0 0 0 2.115119,-0.098185 c 0.643254,-0.1276852 1.258372,-0.3345274 1.864488,-0.5854947 0.575398,-0.2381986 1.103819,-0.4996812 1.628326,-0.7524097 0.497454,-0.2395195 0.966764,-0.4591652 1.40095,-0.6035814 a 3.4844844,3.3462336 0 0 1 0.610816,-0.1508954 2.1654236,2.0795082 0 0 1 0.27957,-0.023771 1.6753034,1.6088339 0 0 1 0.2651,0.014469 1.4075483,1.3517023 0 0 1 0.492994,0.1596803 1.7743361,1.7039374 0 0 1 0.412378,0.3110925 c -0.04172,0.1470582 -0.09251,0.3276448 -0.153479,0.5389858 A 64.290569,61.739771 0 0 1 30.53148,0.77058656 C 29.873131,2.6594449 29.054385,4.6835923 28.085149,6.5108107 c -1.256706,2.3678975 -1.648191,3.0496328 -2.654105,3.9672043 -0.737242,0.672769 -1.025679,0.895128 -1.73633,1.413352 -0.762001,0.556531 -0.888128,0.620583 -1.549261,1.078488 -0.563478,0.52439 -0.842093,0.93162 -1.206129,1.674835 -0.231535,0.472434 -0.647685,1.603435 -0.864548,2.43603 -0.189354,0.726046 -0.423152,1.457882 -0.625802,2.380736 -0.07331,0.335752 -0.121756,0.633285 -0.160714,0.919325 l 6.317451,1.625743 a 1.7204964,1.6522338 0 0 0 2.107367,-1.167889 L 36.306362,-9.9595208 A 1.7204964,1.6522338 0 0 0 35.089897,-11.983172 L 3.0194666,-20.235391 a 1.7204964,1.6522338 0 0 0 -0.5947964,-0.05013 z m 20.2618358,7.636235 a 15.116244,14.516489 0 0 1 0.876433,0.03979 18.059715,17.343176 0 0 1 1.10381,0.112654 l 1.42007,0.243913 a 15.031882,14.435476 0 0 1 1.117246,0.275953 33.542288,32.211461 0 0 1 2.428795,0.800986 c 0.749163,0.280024 1.446163,0.576498 2.037604,0.872816 a 10.041275,9.6428766 0 0 1 0.782382,0.4314982 c 0.228782,0.1408938 0.422718,0.2780698 0.577227,0.4092778 0.154509,0.1312072 0.264889,0.2518701 0.332279,0.3601852 a 0.60061505,0.576785 0 0 1 0.06718,0.147278 0.31635449,0.3038028 0 0 1 0.0093,0.1188559 c -0.161386,1.1465241 -0.461475,2.1825222 -0.737941,2.9931024 a 30.778083,29.55693 0 0 1 -0.396358,1.0831393 c -0.05868,0.153222 -0.111593,0.2885424 -0.156063,0.4056605 l -0.03359,0.08785 c -0.159095,-0.1087525 -0.320879,-0.1975248 -0.487309,-0.2666507 a 2.3717418,2.2776402 0 0 0 -0.711586,-0.1762168 2.7985911,2.6875539 0 0 0 -0.71882,0.024805 4.3368075,4.16474 0 0 0 -0.723471,0.1788006 c -0.479115,0.1576251 -0.970713,0.3873138 -1.488799,0.6387215 -0.503876,0.2452435 -1.037678,0.5140394 -1.594737,0.7482756 -0.548805,0.2315942 -1.127349,0.4327956 -1.739431,0.5503546 -0.602905,0.1162379 -1.241398,0.1526755 -1.921332,0.055811 -0.673053,-0.095984 -1.392757,-0.3240065 -2.165761,-0.7405241 -0.750539,-0.4046298 -1.552192,-0.9871289 -2.408642,-1.8029928 a 265.14037,254.62064 0 0 1 0.593763,-2.4804716 c 0.179727,-0.732208 0.378878,-1.5284964 0.578777,-2.2985704 0.207694,-0.8008932 0.410252,-1.5503622 0.592729,-2.1755802 a 0.35991054,0.34563071 0 0 1 0.06563,-0.120923 0.62812414,0.60320264 0 0 1 0.132809,-0.117822 c 0.120582,-0.08234 0.286827,-0.150193 0.482142,-0.205673 a 4.5738442,4.392372 0 0 1 0.726054,-0.136426 c 0.325984,-0.03787 0.649087,-0.05256 0.909507,-0.05736 0.129751,-0.0022 0.280463,-0.0031 0.450103,-5.17e-4 z" /></g></g><g
         inkscape:groupmode="layer"
         id="layer9-6-1-0"
         inkscape:label="vinegar4"
         style="display:inline;enable-background:new"
         transform="matrix(0.19934044,0,0,0.19788036,283.33628,213.06002)"><g
           id="g5612"
           transform="matrix(3.8133299,0,0,3.9481584,89.441905,152.90135)"
           style="display:inline;enable-background:new"><path
             style="display:inline;fill:#6c010f;fill-opacity:0.85;stroke-width:0.138385;enable-background:new"
             d="m 2.1425423,-20.159316 a 1.7308147,1.6625521 0 0 0 -1.22363126,1.175552 L -7.7258852,12.006627 a 1.7308147,1.6625521 0 0 0 1.2234493,2.036092 l 32.2628209,8.30385 a 1.7308147,1.6625521 0 0 0 2.119806,-1.175602 l 8.644796,-30.9903891 a 1.7308147,1.6625521 0 0 0 -1.22387,-2.0362019 L 3.0387173,-20.159365 a 1.7308147,1.6625521 0 0 0 -0.8957538,1.57e-4 z M 12.525602,-4.1618082 a 2.0914555,2.0089696 0 0 1 0.46299,0.067126 l 5.332698,1.3725371 a 2.0914555,2.0089696 0 0 1 1.479303,2.46058387 L 18.371702,4.8608172 A 2.0914555,2.0089696 0 0 1 15.81009,6.2817782 L 10.477393,4.9092402 A 2.0914555,2.0089696 0 0 1 8.998087,2.4486568 l 1.429006,-5.1227833 a 2.0914555,2.0089696 0 0 1 2.09893,-1.4875731 z"
             id="path5606" /><path
             style="display:inline;fill:#6c010f;fill-opacity:0.992314;stroke-width:0.137543;enable-background:new"
             d="m 2.1288176,-20.235378 a 1.7204964,1.6522338 0 0 0 -1.2163366,1.168256 l -8.5932602,30.798055 a 1.7204964,1.6522338 0 0 0 1.2161557,2.023456 l 32.0704855,8.252314 a 1.7204964,1.6522338 0 0 0 2.107169,-1.168306 l 8.59326,-30.7980528 A 1.7204964,1.6522338 0 0 0 35.089717,-11.983221 L 3.0196501,-20.235427 a 1.7204964,1.6522338 0 0 0 -0.8904138,1.56e-4 z M 12.449978,-4.3371547 a 2.0789873,1.9965013 0 0 1 0.46023,0.066709 l 5.300907,1.3640187 a 2.0789873,1.9965013 0 0 1 1.470484,2.44531286 L 18.261226,4.6294735 a 2.0789873,1.9965013 0 0 1 -2.54634,1.4121419 L 10.413979,4.6775962 A 2.0789873,1.9965013 0 0 1 8.9434929,2.2322838 L 10.363979,-2.858706 a 2.0789873,1.9965013 0 0 1 2.086418,-1.4783408 z"
             id="path5608" /><path
             id="path5610"
             style="fill:#ffffff;fill-opacity:1;stroke-width:0.137543"
             d="m 2.4246702,-20.285517 a 1.7204964,1.6522338 0 0 0 -0.2955895,0.05013 h -5.168e-4 a 1.7204964,1.6522338 0 0 0 -1.21594786,1.168405 L -7.6806678,11.73117 a 1.7204964,1.6522338 0 0 0 1.2159479,2.023135 l 24.7514889,6.369127 -1.391131,-0.358635 a 12.978329,12.4634 0 0 0 0.383957,-0.891936 c 0.424556,-1.115264 0.68617,-2.003767 0.819589,-2.77296 0.161387,-0.931222 0.178493,-0.903916 0.261483,-2.183849 0.03897,-0.595717 -0.140051,-2.023514 -0.327112,-2.528531 -0.192105,-0.519544 -0.401161,-0.870377 -0.634071,-1.4960342 l 0.02635,0.039274 C 17.317178,9.7216218 17.215696,9.5074989 17.127666,9.2811874 16.854867,8.5833225 16.677594,7.8130611 16.572143,7.01569 16.534154,6.7294717 16.459241,6.3963191 16.435201,6.1020496 A 2.0789873,1.9965013 0 0 1 15.71483,6.0415881 L 10.413856,4.6778455 A 2.0789873,1.9965013 0 0 1 8.9436596,2.2325139 l 1.4200704,-5.091168 a 2.0789873,1.9965013 0 0 1 2.08618,-1.4784644 h 5.16e-4 a 2.0789873,1.9965013 0 0 1 0.459921,0.066663 l 5.300975,1.3642594 a 2.0789873,1.9965013 0 0 1 0.172599,0.053227 2.0789873,1.9965013 0 0 1 10e-4,0 2.0789873,1.9965013 0 0 1 0.24598,0.1043866 c 0.453866,0.200023 1.212079,0.6057594 1.641762,0.7953012 0.755124,0.3711675 1.539204,0.6172098 2.358515,0.7105517 a 6.5334081,6.2741881 0 0 0 2.115119,-0.098185 c 0.643254,-0.1276852 1.258372,-0.3345274 1.864488,-0.5854947 0.575398,-0.2381986 1.103819,-0.4996812 1.628326,-0.7524097 0.497454,-0.2395195 0.966764,-0.4591652 1.40095,-0.6035814 a 3.4844844,3.3462336 0 0 1 0.610816,-0.1508954 2.1654236,2.0795082 0 0 1 0.27957,-0.023771 1.6753034,1.6088339 0 0 1 0.2651,0.014469 1.4075483,1.3517023 0 0 1 0.492994,0.1596803 1.7743361,1.7039374 0 0 1 0.412378,0.3110925 c -0.04172,0.1470582 -0.09251,0.3276448 -0.153479,0.5389858 A 64.290569,61.739771 0 0 1 30.53148,0.77058656 C 29.873131,2.6594449 29.054385,4.6835923 28.085149,6.5108107 c -1.256706,2.3678975 -1.648191,3.0496328 -2.654105,3.9672043 -0.737242,0.672769 -1.025679,0.895128 -1.73633,1.413352 -0.762001,0.556531 -0.888128,0.620583 -1.549261,1.078488 -0.563478,0.52439 -0.842093,0.93162 -1.206129,1.674835 -0.231535,0.472434 -0.647685,1.603435 -0.864548,2.43603 -0.189354,0.726046 -0.423152,1.457882 -0.625802,2.380736 -0.07331,0.335752 -0.121756,0.633285 -0.160714,0.919325 l 6.317451,1.625743 a 1.7204964,1.6522338 0 0 0 2.107367,-1.167889 L 36.306362,-9.9595208 A 1.7204964,1.6522338 0 0 0 35.089897,-11.983172 L 3.0194666,-20.235391 a 1.7204964,1.6522338 0 0 0 -0.5947964,-0.05013 z m 20.2618358,7.636235 a 15.116244,14.516489 0 0 1 0.876433,0.03979 18.059715,17.343176 0 0 1 1.10381,0.112654 l 1.42007,0.243913 a 15.031882,14.435476 0 0 1 1.117246,0.275953 33.542288,32.211461 0 0 1 2.428795,0.800986 c 0.749163,0.280024 1.446163,0.576498 2.037604,0.872816 a 10.041275,9.6428766 0 0 1 0.782382,0.4314982 c 0.228782,0.1408938 0.422718,0.2780698 0.577227,0.4092778 0.154509,0.1312072 0.264889,0.2518701 0.332279,0.3601852 a 0.60061505,0.576785 0 0 1 0.06718,0.147278 0.31635449,0.3038028 0 0 1 0.0093,0.1188559 c -0.161386,1.1465241 -0.461475,2.1825222 -0.737941,2.9931024 a 30.778083,29.55693 0 0 1 -0.396358,1.0831393 c -0.05868,0.153222 -0.111593,0.2885424 -0.156063,0.4056605 l -0.03359,0.08785 c -0.159095,-0.1087525 -0.320879,-0.1975248 -0.487309,-0.2666507 a 2.3717418,2.2776402 0 0 0 -0.711586,-0.1762168 2.7985911,2.6875539 0 0 0 -0.71882,0.024805 4.3368075,4.16474 0 0 0 -0.723471,0.1788006 c -0.479115,0.1576251 -0.970713,0.3873138 -1.488799,0.6387215 -0.503876,0.2452435 -1.037678,0.5140394 -1.594737,0.7482756 -0.548805,0.2315942 -1.127349,0.4327956 -1.739431,0.5503546 -0.602905,0.1162379 -1.241398,0.1526755 -1.921332,0.055811 -0.673053,-0.095984 -1.392757,-0.3240065 -2.165761,-0.7405241 -0.750539,-0.4046298 -1.552192,-0.9871289 -2.408642,-1.8029928 a 265.14037,254.62064 0 0 1 0.593763,-2.4804716 c 0.179727,-0.732208 0.378878,-1.5284964 0.578777,-2.2985704 0.207694,-0.8008932 0.410252,-1.5503622 0.592729,-2.1755802 a 0.35991054,0.34563071 0 0 1 0.06563,-0.120923 0.62812414,0.60320264 0 0 1 0.132809,-0.117822 c 0.120582,-0.08234 0.286827,-0.150193 0.482142,-0.205673 a 4.5738442,4.392372 0 0 1 0.726054,-0.136426 c 0.325984,-0.03787 0.649087,-0.05256 0.909507,-0.05736 0.129751,-0.0022 0.280463,-0.0031 0.450103,-5.17e-4 z" /></g></g><g
         inkscape:groupmode="layer"
         id="g30199"
         inkscape:label="vinegar5"
         style="display:inline;enable-background:new"
         transform="matrix(0.14222364,0,0,0.14005896,411.75063,46.084793)"><g
           id="g5624"
           transform="matrix(3.7925323,0,0,3.9409259,89.495871,152.80338)"
           style="display:inline;enable-background:new"><path
             style="display:inline;fill:#6c010f;fill-opacity:0.85;stroke-width:0.138385;enable-background:new"
             d="m 2.1425423,-20.159316 a 1.7308147,1.6625521 0 0 0 -1.22363126,1.175552 L -7.7258852,12.006627 a 1.7308147,1.6625521 0 0 0 1.2234493,2.036092 l 32.2628209,8.30385 a 1.7308147,1.6625521 0 0 0 2.119806,-1.175602 l 8.644796,-30.9903891 a 1.7308147,1.6625521 0 0 0 -1.22387,-2.0362019 L 3.0387173,-20.159365 a 1.7308147,1.6625521 0 0 0 -0.8957538,1.57e-4 z M 12.525602,-4.1618082 a 2.0914555,2.0089696 0 0 1 0.46299,0.067126 l 5.332698,1.3725371 a 2.0914555,2.0089696 0 0 1 1.479303,2.46058387 L 18.371702,4.8608172 A 2.0914555,2.0089696 0 0 1 15.81009,6.2817782 L 10.477393,4.9092402 A 2.0914555,2.0089696 0 0 1 8.998087,2.4486568 l 1.429006,-5.1227833 a 2.0914555,2.0089696 0 0 1 2.09893,-1.4875731 z"
             id="path5618" /><path
             style="display:inline;fill:#6c010f;fill-opacity:0.992314;stroke-width:0.137543;enable-background:new"
             d="m 2.1288176,-20.235378 a 1.7204964,1.6522338 0 0 0 -1.2163366,1.168256 l -8.5932602,30.798055 a 1.7204964,1.6522338 0 0 0 1.2161557,2.023456 l 32.0704855,8.252314 a 1.7204964,1.6522338 0 0 0 2.107169,-1.168306 l 8.59326,-30.7980528 A 1.7204964,1.6522338 0 0 0 35.089717,-11.983221 L 3.0196501,-20.235427 a 1.7204964,1.6522338 0 0 0 -0.8904138,1.56e-4 z M 12.449978,-4.3371547 a 2.0789873,1.9965013 0 0 1 0.46023,0.066709 l 5.300907,1.3640187 a 2.0789873,1.9965013 0 0 1 1.470484,2.44531286 L 18.261226,4.6294735 a 2.0789873,1.9965013 0 0 1 -2.54634,1.4121419 L 10.413979,4.6775962 A 2.0789873,1.9965013 0 0 1 8.9434929,2.2322838 L 10.363979,-2.858706 a 2.0789873,1.9965013 0 0 1 2.086418,-1.4783408 z"
             id="path5620" /><path
             id="path5622"
             style="fill:#ffffff;fill-opacity:1;stroke-width:0.137543"
             d="m 2.4246702,-20.285517 a 1.7204964,1.6522338 0 0 0 -0.2955895,0.05013 h -5.168e-4 a 1.7204964,1.6522338 0 0 0 -1.21594786,1.168405 L -7.6806678,11.73117 a 1.7204964,1.6522338 0 0 0 1.2159479,2.023135 l 24.7514889,6.369127 -1.391131,-0.358635 a 12.978329,12.4634 0 0 0 0.383957,-0.891936 c 0.424556,-1.115264 0.68617,-2.003767 0.819589,-2.77296 0.161387,-0.931222 0.178493,-0.903916 0.261483,-2.183849 0.03897,-0.595717 -0.140051,-2.023514 -0.327112,-2.528531 -0.192105,-0.519544 -0.401161,-0.870377 -0.634071,-1.4960342 l 0.02635,0.039274 C 17.317178,9.7216218 17.215696,9.5074989 17.127666,9.2811874 16.854867,8.5833225 16.677594,7.8130611 16.572143,7.01569 16.534154,6.7294717 16.459241,6.3963191 16.435201,6.1020496 A 2.0789873,1.9965013 0 0 1 15.71483,6.0415881 L 10.413856,4.6778455 A 2.0789873,1.9965013 0 0 1 8.9436596,2.2325139 l 1.4200704,-5.091168 a 2.0789873,1.9965013 0 0 1 2.08618,-1.4784644 h 5.16e-4 a 2.0789873,1.9965013 0 0 1 0.459921,0.066663 l 5.300975,1.3642594 a 2.0789873,1.9965013 0 0 1 0.172599,0.053227 2.0789873,1.9965013 0 0 1 10e-4,0 2.0789873,1.9965013 0 0 1 0.24598,0.1043866 c 0.453866,0.200023 1.212079,0.6057594 1.641762,0.7953012 0.755124,0.3711675 1.539204,0.6172098 2.358515,0.7105517 a 6.5334081,6.2741881 0 0 0 2.115119,-0.098185 c 0.643254,-0.1276852 1.258372,-0.3345274 1.864488,-0.5854947 0.575398,-0.2381986 1.103819,-0.4996812 1.628326,-0.7524097 0.497454,-0.2395195 0.966764,-0.4591652 1.40095,-0.6035814 a 3.4844844,3.3462336 0 0 1 0.610816,-0.1508954 2.1654236,2.0795082 0 0 1 0.27957,-0.023771 1.6753034,1.6088339 0 0 1 0.2651,0.014469 1.4075483,1.3517023 0 0 1 0.492994,0.1596803 1.7743361,1.7039374 0 0 1 0.412378,0.3110925 c -0.04172,0.1470582 -0.09251,0.3276448 -0.153479,0.5389858 A 64.290569,61.739771 0 0 1 30.53148,0.77058656 C 29.873131,2.6594449 29.054385,4.6835923 28.085149,6.5108107 c -1.256706,2.3678975 -1.648191,3.0496328 -2.654105,3.9672043 -0.737242,0.672769 -1.025679,0.895128 -1.73633,1.413352 -0.762001,0.556531 -0.888128,0.620583 -1.549261,1.078488 -0.563478,0.52439 -0.842093,0.93162 -1.206129,1.674835 -0.231535,0.472434 -0.647685,1.603435 -0.864548,2.43603 -0.189354,0.726046 -0.423152,1.457882 -0.625802,2.380736 -0.07331,0.335752 -0.121756,0.633285 -0.160714,0.919325 l 6.317451,1.625743 a 1.7204964,1.6522338 0 0 0 2.107367,-1.167889 L 36.306362,-9.9595208 A 1.7204964,1.6522338 0 0 0 35.089897,-11.983172 L 3.0194666,-20.235391 a 1.7204964,1.6522338 0 0 0 -0.5947964,-0.05013 z m 20.2618358,7.636235 a 15.116244,14.516489 0 0 1 0.876433,0.03979 18.059715,17.343176 0 0 1 1.10381,0.112654 l 1.42007,0.243913 a 15.031882,14.435476 0 0 1 1.117246,0.275953 33.542288,32.211461 0 0 1 2.428795,0.800986 c 0.749163,0.280024 1.446163,0.576498 2.037604,0.872816 a 10.041275,9.6428766 0 0 1 0.782382,0.4314982 c 0.228782,0.1408938 0.422718,0.2780698 0.577227,0.4092778 0.154509,0.1312072 0.264889,0.2518701 0.332279,0.3601852 a 0.60061505,0.576785 0 0 1 0.06718,0.147278 0.31635449,0.3038028 0 0 1 0.0093,0.1188559 c -0.161386,1.1465241 -0.461475,2.1825222 -0.737941,2.9931024 a 30.778083,29.55693 0 0 1 -0.396358,1.0831393 c -0.05868,0.153222 -0.111593,0.2885424 -0.156063,0.4056605 l -0.03359,0.08785 c -0.159095,-0.1087525 -0.320879,-0.1975248 -0.487309,-0.2666507 a 2.3717418,2.2776402 0 0 0 -0.711586,-0.1762168 2.7985911,2.6875539 0 0 0 -0.71882,0.024805 4.3368075,4.16474 0 0 0 -0.723471,0.1788006 c -0.479115,0.1576251 -0.970713,0.3873138 -1.488799,0.6387215 -0.503876,0.2452435 -1.037678,0.5140394 -1.594737,0.7482756 -0.548805,0.2315942 -1.127349,0.4327956 -1.739431,0.5503546 -0.602905,0.1162379 -1.241398,0.1526755 -1.921332,0.055811 -0.673053,-0.095984 -1.392757,-0.3240065 -2.165761,-0.7405241 -0.750539,-0.4046298 -1.552192,-0.9871289 -2.408642,-1.8029928 a 265.14037,254.62064 0 0 1 0.593763,-2.4804716 c 0.179727,-0.732208 0.378878,-1.5284964 0.578777,-2.2985704 0.207694,-0.8008932 0.410252,-1.5503622 0.592729,-2.1755802 a 0.35991054,0.34563071 0 0 1 0.06563,-0.120923 0.62812414,0.60320264 0 0 1 0.132809,-0.117822 c 0.120582,-0.08234 0.286827,-0.150193 0.482142,-0.205673 a 4.5738442,4.392372 0 0 1 0.726054,-0.136426 c 0.325984,-0.03787 0.649087,-0.05256 0.909507,-0.05736 0.129751,-0.0022 0.280463,-0.0031 0.450103,-5.17e-4 z" /></g></g><g
         inkscape:groupmode="layer"
         id="g30209"
         inkscape:label="vinegar6"
         style="display:inline;enable-background:new"
         transform="matrix(0.09278107,0,0,0.09197142,414.42687,97.480597)"><g
           id="g5636"
           transform="matrix(3.8104382,0,0,3.9506285,90.36717,153.09438)"
           style="display:inline;enable-background:new"><path
             style="display:inline;fill:#6c010f;fill-opacity:0.85;stroke-width:0.138385;enable-background:new"
             d="m 2.1425423,-20.159316 a 1.7308147,1.6625521 0 0 0 -1.22363126,1.175552 L -7.7258852,12.006627 a 1.7308147,1.6625521 0 0 0 1.2234493,2.036092 l 32.2628209,8.30385 a 1.7308147,1.6625521 0 0 0 2.119806,-1.175602 l 8.644796,-30.9903891 a 1.7308147,1.6625521 0 0 0 -1.22387,-2.0362019 L 3.0387173,-20.159365 a 1.7308147,1.6625521 0 0 0 -0.8957538,1.57e-4 z M 12.525602,-4.1618082 a 2.0914555,2.0089696 0 0 1 0.46299,0.067126 l 5.332698,1.3725371 a 2.0914555,2.0089696 0 0 1 1.479303,2.46058387 L 18.371702,4.8608172 A 2.0914555,2.0089696 0 0 1 15.81009,6.2817782 L 10.477393,4.9092402 A 2.0914555,2.0089696 0 0 1 8.998087,2.4486568 l 1.429006,-5.1227833 a 2.0914555,2.0089696 0 0 1 2.09893,-1.4875731 z"
             id="path5630" /><path
             style="display:inline;fill:#6c010f;fill-opacity:0.992314;stroke-width:0.137543;enable-background:new"
             d="m 2.1288176,-20.235378 a 1.7204964,1.6522338 0 0 0 -1.2163366,1.168256 l -8.5932602,30.798055 a 1.7204964,1.6522338 0 0 0 1.2161557,2.023456 l 32.0704855,8.252314 a 1.7204964,1.6522338 0 0 0 2.107169,-1.168306 l 8.59326,-30.7980528 A 1.7204964,1.6522338 0 0 0 35.089717,-11.983221 L 3.0196501,-20.235427 a 1.7204964,1.6522338 0 0 0 -0.8904138,1.56e-4 z M 12.449978,-4.3371547 a 2.0789873,1.9965013 0 0 1 0.46023,0.066709 l 5.300907,1.3640187 a 2.0789873,1.9965013 0 0 1 1.470484,2.44531286 L 18.261226,4.6294735 a 2.0789873,1.9965013 0 0 1 -2.54634,1.4121419 L 10.413979,4.6775962 A 2.0789873,1.9965013 0 0 1 8.9434929,2.2322838 L 10.363979,-2.858706 a 2.0789873,1.9965013 0 0 1 2.086418,-1.4783408 z"
             id="path5632" /><path
             id="path5634"
             style="fill:#ffffff;fill-opacity:1;stroke-width:0.137543"
             d="m 2.4246702,-20.285517 a 1.7204964,1.6522338 0 0 0 -0.2955895,0.05013 h -5.168e-4 a 1.7204964,1.6522338 0 0 0 -1.21594786,1.168405 L -7.6806678,11.73117 a 1.7204964,1.6522338 0 0 0 1.2159479,2.023135 l 24.7514889,6.369127 -1.391131,-0.358635 a 12.978329,12.4634 0 0 0 0.383957,-0.891936 c 0.424556,-1.115264 0.68617,-2.003767 0.819589,-2.77296 0.161387,-0.931222 0.178493,-0.903916 0.261483,-2.183849 0.03897,-0.595717 -0.140051,-2.023514 -0.327112,-2.528531 -0.192105,-0.519544 -0.401161,-0.870377 -0.634071,-1.4960342 l 0.02635,0.039274 C 17.317178,9.7216218 17.215696,9.5074989 17.127666,9.2811874 16.854867,8.5833225 16.677594,7.8130611 16.572143,7.01569 16.534154,6.7294717 16.459241,6.3963191 16.435201,6.1020496 A 2.0789873,1.9965013 0 0 1 15.71483,6.0415881 L 10.413856,4.6778455 A 2.0789873,1.9965013 0 0 1 8.9436596,2.2325139 l 1.4200704,-5.091168 a 2.0789873,1.9965013 0 0 1 2.08618,-1.4784644 h 5.16e-4 a 2.0789873,1.9965013 0 0 1 0.459921,0.066663 l 5.300975,1.3642594 a 2.0789873,1.9965013 0 0 1 0.172599,0.053227 2.0789873,1.9965013 0 0 1 10e-4,0 2.0789873,1.9965013 0 0 1 0.24598,0.1043866 c 0.453866,0.200023 1.212079,0.6057594 1.641762,0.7953012 0.755124,0.3711675 1.539204,0.6172098 2.358515,0.7105517 a 6.5334081,6.2741881 0 0 0 2.115119,-0.098185 c 0.643254,-0.1276852 1.258372,-0.3345274 1.864488,-0.5854947 0.575398,-0.2381986 1.103819,-0.4996812 1.628326,-0.7524097 0.497454,-0.2395195 0.966764,-0.4591652 1.40095,-0.6035814 a 3.4844844,3.3462336 0 0 1 0.610816,-0.1508954 2.1654236,2.0795082 0 0 1 0.27957,-0.023771 1.6753034,1.6088339 0 0 1 0.2651,0.014469 1.4075483,1.3517023 0 0 1 0.492994,0.1596803 1.7743361,1.7039374 0 0 1 0.412378,0.3110925 c -0.04172,0.1470582 -0.09251,0.3276448 -0.153479,0.5389858 A 64.290569,61.739771 0 0 1 30.53148,0.77058656 C 29.873131,2.6594449 29.054385,4.6835923 28.085149,6.5108107 c -1.256706,2.3678975 -1.648191,3.0496328 -2.654105,3.9672043 -0.737242,0.672769 -1.025679,0.895128 -1.73633,1.413352 -0.762001,0.556531 -0.888128,0.620583 -1.549261,1.078488 -0.563478,0.52439 -0.842093,0.93162 -1.206129,1.674835 -0.231535,0.472434 -0.647685,1.603435 -0.864548,2.43603 -0.189354,0.726046 -0.423152,1.457882 -0.625802,2.380736 -0.07331,0.335752 -0.121756,0.633285 -0.160714,0.919325 l 6.317451,1.625743 a 1.7204964,1.6522338 0 0 0 2.107367,-1.167889 L 36.306362,-9.9595208 A 1.7204964,1.6522338 0 0 0 35.089897,-11.983172 L 3.0194666,-20.235391 a 1.7204964,1.6522338 0 0 0 -0.5947964,-0.05013 z m 20.2618358,7.636235 a 15.116244,14.516489 0 0 1 0.876433,0.03979 18.059715,17.343176 0 0 1 1.10381,0.112654 l 1.42007,0.243913 a 15.031882,14.435476 0 0 1 1.117246,0.275953 33.542288,32.211461 0 0 1 2.428795,0.800986 c 0.749163,0.280024 1.446163,0.576498 2.037604,0.872816 a 10.041275,9.6428766 0 0 1 0.782382,0.4314982 c 0.228782,0.1408938 0.422718,0.2780698 0.577227,0.4092778 0.154509,0.1312072 0.264889,0.2518701 0.332279,0.3601852 a 0.60061505,0.576785 0 0 1 0.06718,0.147278 0.31635449,0.3038028 0 0 1 0.0093,0.1188559 c -0.161386,1.1465241 -0.461475,2.1825222 -0.737941,2.9931024 a 30.778083,29.55693 0 0 1 -0.396358,1.0831393 c -0.05868,0.153222 -0.111593,0.2885424 -0.156063,0.4056605 l -0.03359,0.08785 c -0.159095,-0.1087525 -0.320879,-0.1975248 -0.487309,-0.2666507 a 2.3717418,2.2776402 0 0 0 -0.711586,-0.1762168 2.7985911,2.6875539 0 0 0 -0.71882,0.024805 4.3368075,4.16474 0 0 0 -0.723471,0.1788006 c -0.479115,0.1576251 -0.970713,0.3873138 -1.488799,0.6387215 -0.503876,0.2452435 -1.037678,0.5140394 -1.594737,0.7482756 -0.548805,0.2315942 -1.127349,0.4327956 -1.739431,0.5503546 -0.602905,0.1162379 -1.241398,0.1526755 -1.921332,0.055811 -0.673053,-0.095984 -1.392757,-0.3240065 -2.165761,-0.7405241 -0.750539,-0.4046298 -1.552192,-0.9871289 -2.408642,-1.8029928 a 265.14037,254.62064 0 0 1 0.593763,-2.4804716 c 0.179727,-0.732208 0.378878,-1.5284964 0.578777,-2.2985704 0.207694,-0.8008932 0.410252,-1.5503622 0.592729,-2.1755802 a 0.35991054,0.34563071 0 0 1 0.06563,-0.120923 0.62812414,0.60320264 0 0 1 0.132809,-0.117822 c 0.120582,-0.08234 0.286827,-0.150193 0.482142,-0.205673 a 4.5738442,4.392372 0 0 1 0.726054,-0.136426 c 0.325984,-0.03787 0.649087,-0.05256 0.909507,-0.05736 0.129751,-0.0022 0.280463,-0.0031 0.450103,-5.17e-4 z" /></g></g><g
         inkscape:groupmode="layer"
         id="g30219"
         inkscape:label="vinegar7"
         style="display:inline;enable-background:new"
         transform="matrix(0.06775189,0,0,0.06741064,414.26998,137.5654)"><g
           id="g5648"
           transform="matrix(3.7833429,0,0,3.9536565,89.480939,152.39029)"
           style="display:inline;enable-background:new"><path
             style="display:inline;fill:#6c010f;fill-opacity:0.85;stroke-width:0.138385;enable-background:new"
             d="m 2.1425423,-20.159316 a 1.7308147,1.6625521 0 0 0 -1.22363126,1.175552 L -7.7258852,12.006627 a 1.7308147,1.6625521 0 0 0 1.2234493,2.036092 l 32.2628209,8.30385 a 1.7308147,1.6625521 0 0 0 2.119806,-1.175602 l 8.644796,-30.9903891 a 1.7308147,1.6625521 0 0 0 -1.22387,-2.0362019 L 3.0387173,-20.159365 a 1.7308147,1.6625521 0 0 0 -0.8957538,1.57e-4 z M 12.525602,-4.1618082 a 2.0914555,2.0089696 0 0 1 0.46299,0.067126 l 5.332698,1.3725371 a 2.0914555,2.0089696 0 0 1 1.479303,2.46058387 L 18.371702,4.8608172 A 2.0914555,2.0089696 0 0 1 15.81009,6.2817782 L 10.477393,4.9092402 A 2.0914555,2.0089696 0 0 1 8.998087,2.4486568 l 1.429006,-5.1227833 a 2.0914555,2.0089696 0 0 1 2.09893,-1.4875731 z"
             id="path5642" /><path
             style="display:inline;fill:#6c010f;fill-opacity:0.992314;stroke-width:0.137543;enable-background:new"
             d="m 2.1288176,-20.235378 a 1.7204964,1.6522338 0 0 0 -1.2163366,1.168256 l -8.5932602,30.798055 a 1.7204964,1.6522338 0 0 0 1.2161557,2.023456 l 32.0704855,8.252314 a 1.7204964,1.6522338 0 0 0 2.107169,-1.168306 l 8.59326,-30.7980528 A 1.7204964,1.6522338 0 0 0 35.089717,-11.983221 L 3.0196501,-20.235427 a 1.7204964,1.6522338 0 0 0 -0.8904138,1.56e-4 z M 12.449978,-4.3371547 a 2.0789873,1.9965013 0 0 1 0.46023,0.066709 l 5.300907,1.3640187 a 2.0789873,1.9965013 0 0 1 1.470484,2.44531286 L 18.261226,4.6294735 a 2.0789873,1.9965013 0 0 1 -2.54634,1.4121419 L 10.413979,4.6775962 A 2.0789873,1.9965013 0 0 1 8.9434929,2.2322838 L 10.363979,-2.858706 a 2.0789873,1.9965013 0 0 1 2.086418,-1.4783408 z"
             id="path5644" /><path
             id="path5646"
             style="fill:#ffffff;fill-opacity:1;stroke-width:0.137543"
             d="m 2.4246702,-20.285517 a 1.7204964,1.6522338 0 0 0 -0.2955895,0.05013 h -5.168e-4 a 1.7204964,1.6522338 0 0 0 -1.21594786,1.168405 L -7.6806678,11.73117 a 1.7204964,1.6522338 0 0 0 1.2159479,2.023135 l 24.7514889,6.369127 -1.391131,-0.358635 a 12.978329,12.4634 0 0 0 0.383957,-0.891936 c 0.424556,-1.115264 0.68617,-2.003767 0.819589,-2.77296 0.161387,-0.931222 0.178493,-0.903916 0.261483,-2.183849 0.03897,-0.595717 -0.140051,-2.023514 -0.327112,-2.528531 -0.192105,-0.519544 -0.401161,-0.870377 -0.634071,-1.4960342 l 0.02635,0.039274 C 17.317178,9.7216218 17.215696,9.5074989 17.127666,9.2811874 16.854867,8.5833225 16.677594,7.8130611 16.572143,7.01569 16.534154,6.7294717 16.459241,6.3963191 16.435201,6.1020496 A 2.0789873,1.9965013 0 0 1 15.71483,6.0415881 L 10.413856,4.6778455 A 2.0789873,1.9965013 0 0 1 8.9436596,2.2325139 l 1.4200704,-5.091168 a 2.0789873,1.9965013 0 0 1 2.08618,-1.4784644 h 5.16e-4 a 2.0789873,1.9965013 0 0 1 0.459921,0.066663 l 5.300975,1.3642594 a 2.0789873,1.9965013 0 0 1 0.172599,0.053227 2.0789873,1.9965013 0 0 1 10e-4,0 2.0789873,1.9965013 0 0 1 0.24598,0.1043866 c 0.453866,0.200023 1.212079,0.6057594 1.641762,0.7953012 0.755124,0.3711675 1.539204,0.6172098 2.358515,0.7105517 a 6.5334081,6.2741881 0 0 0 2.115119,-0.098185 c 0.643254,-0.1276852 1.258372,-0.3345274 1.864488,-0.5854947 0.575398,-0.2381986 1.103819,-0.4996812 1.628326,-0.7524097 0.497454,-0.2395195 0.966764,-0.4591652 1.40095,-0.6035814 a 3.4844844,3.3462336 0 0 1 0.610816,-0.1508954 2.1654236,2.0795082 0 0 1 0.27957,-0.023771 1.6753034,1.6088339 0 0 1 0.2651,0.014469 1.4075483,1.3517023 0 0 1 0.492994,0.1596803 1.7743361,1.7039374 0 0 1 0.412378,0.3110925 c -0.04172,0.1470582 -0.09251,0.3276448 -0.153479,0.5389858 A 64.290569,61.739771 0 0 1 30.53148,0.77058656 C 29.873131,2.6594449 29.054385,4.6835923 28.085149,6.5108107 c -1.256706,2.3678975 -1.648191,3.0496328 -2.654105,3.9672043 -0.737242,0.672769 -1.025679,0.895128 -1.73633,1.413352 -0.762001,0.556531 -0.888128,0.620583 -1.549261,1.078488 -0.563478,0.52439 -0.842093,0.93162 -1.206129,1.674835 -0.231535,0.472434 -0.647685,1.603435 -0.864548,2.43603 -0.189354,0.726046 -0.423152,1.457882 -0.625802,2.380736 -0.07331,0.335752 -0.121756,0.633285 -0.160714,0.919325 l 6.317451,1.625743 a 1.7204964,1.6522338 0 0 0 2.107367,-1.167889 L 36.306362,-9.9595208 A 1.7204964,1.6522338 0 0 0 35.089897,-11.983172 L 3.0194666,-20.235391 a 1.7204964,1.6522338 0 0 0 -0.5947964,-0.05013 z m 20.2618358,7.636235 a 15.116244,14.516489 0 0 1 0.876433,0.03979 18.059715,17.343176 0 0 1 1.10381,0.112654 l 1.42007,0.243913 a 15.031882,14.435476 0 0 1 1.117246,0.275953 33.542288,32.211461 0 0 1 2.428795,0.800986 c 0.749163,0.280024 1.446163,0.576498 2.037604,0.872816 a 10.041275,9.6428766 0 0 1 0.782382,0.4314982 c 0.228782,0.1408938 0.422718,0.2780698 0.577227,0.4092778 0.154509,0.1312072 0.264889,0.2518701 0.332279,0.3601852 a 0.60061505,0.576785 0 0 1 0.06718,0.147278 0.31635449,0.3038028 0 0 1 0.0093,0.1188559 c -0.161386,1.1465241 -0.461475,2.1825222 -0.737941,2.9931024 a 30.778083,29.55693 0 0 1 -0.396358,1.0831393 c -0.05868,0.153222 -0.111593,0.2885424 -0.156063,0.4056605 l -0.03359,0.08785 c -0.159095,-0.1087525 -0.320879,-0.1975248 -0.487309,-0.2666507 a 2.3717418,2.2776402 0 0 0 -0.711586,-0.1762168 2.7985911,2.6875539 0 0 0 -0.71882,0.024805 4.3368075,4.16474 0 0 0 -0.723471,0.1788006 c -0.479115,0.1576251 -0.970713,0.3873138 -1.488799,0.6387215 -0.503876,0.2452435 -1.037678,0.5140394 -1.594737,0.7482756 -0.548805,0.2315942 -1.127349,0.4327956 -1.739431,0.5503546 -0.602905,0.1162379 -1.241398,0.1526755 -1.921332,0.055811 -0.673053,-0.095984 -1.392757,-0.3240065 -2.165761,-0.7405241 -0.750539,-0.4046298 -1.552192,-0.9871289 -2.408642,-1.8029928 a 265.14037,254.62064 0 0 1 0.593763,-2.4804716 c 0.179727,-0.732208 0.378878,-1.5284964 0.578777,-2.2985704 0.207694,-0.8008932 0.410252,-1.5503622 0.592729,-2.1755802 a 0.35991054,0.34563071 0 0 1 0.06563,-0.120923 0.62812414,0.60320264 0 0 1 0.132809,-0.117822 c 0.120582,-0.08234 0.286827,-0.150193 0.482142,-0.205673 a 4.5738442,4.392372 0 0 1 0.726054,-0.136426 c 0.325984,-0.03787 0.649087,-0.05256 0.909507,-0.05736 0.129751,-0.0022 0.280463,-0.0031 0.450103,-5.17e-4 z" /></g></g><g
         inkscape:groupmode="layer"
         id="layer9-6"
         inkscape:label="vinegar2"
         style="display:inline;enable-background:new"
         transform="matrix(0.41308384,0,0,0.40732251,276.66769,13.202007)"><g
           id="g5584"
           transform="matrix(3.7833279,0,0,3.9412624,89.787439,152.61287)"
           style="display:inline;enable-background:new"><path
             style="display:inline;fill:#6c010f;fill-opacity:0.85;stroke-width:0.138385;enable-background:new"
             d="m 2.1425423,-20.159316 a 1.7308147,1.6625521 0 0 0 -1.22363126,1.175552 L -7.7258852,12.006627 a 1.7308147,1.6625521 0 0 0 1.2234493,2.036092 l 32.2628209,8.30385 a 1.7308147,1.6625521 0 0 0 2.119806,-1.175602 l 8.644796,-30.9903891 a 1.7308147,1.6625521 0 0 0 -1.22387,-2.0362019 L 3.0387173,-20.159365 a 1.7308147,1.6625521 0 0 0 -0.8957538,1.57e-4 z M 12.525602,-4.1618082 a 2.0914555,2.0089696 0 0 1 0.46299,0.067126 l 5.332698,1.3725371 a 2.0914555,2.0089696 0 0 1 1.479303,2.46058387 L 18.371702,4.8608172 A 2.0914555,2.0089696 0 0 1 15.81009,6.2817782 L 10.477393,4.9092402 A 2.0914555,2.0089696 0 0 1 8.998087,2.4486568 l 1.429006,-5.1227833 a 2.0914555,2.0089696 0 0 1 2.09893,-1.4875731 z"
             id="path5578" /><path
             style="display:inline;fill:#6c010f;fill-opacity:0.992314;stroke-width:0.137543;enable-background:new"
             d="m 2.1288176,-20.235378 a 1.7204964,1.6522338 0 0 0 -1.2163366,1.168256 l -8.5932602,30.798055 a 1.7204964,1.6522338 0 0 0 1.2161557,2.023456 l 32.0704855,8.252314 a 1.7204964,1.6522338 0 0 0 2.107169,-1.168306 l 8.59326,-30.7980528 A 1.7204964,1.6522338 0 0 0 35.089717,-11.983221 L 3.0196501,-20.235427 a 1.7204964,1.6522338 0 0 0 -0.8904138,1.56e-4 z M 12.449978,-4.3371547 a 2.0789873,1.9965013 0 0 1 0.46023,0.066709 l 5.300907,1.3640187 a 2.0789873,1.9965013 0 0 1 1.470484,2.44531286 L 18.261226,4.6294735 a 2.0789873,1.9965013 0 0 1 -2.54634,1.4121419 L 10.413979,4.6775962 A 2.0789873,1.9965013 0 0 1 8.9434929,2.2322838 L 10.363979,-2.858706 a 2.0789873,1.9965013 0 0 1 2.086418,-1.4783408 z"
             id="path5580" /><path
             id="path5582"
             style="fill:#ffffff;fill-opacity:1;stroke-width:0.137543"
             d="m 2.4246702,-20.285517 a 1.7204964,1.6522338 0 0 0 -0.2955895,0.05013 h -5.168e-4 a 1.7204964,1.6522338 0 0 0 -1.21594786,1.168405 L -7.6806678,11.73117 a 1.7204964,1.6522338 0 0 0 1.2159479,2.023135 l 24.7514889,6.369127 -1.391131,-0.358635 a 12.978329,12.4634 0 0 0 0.383957,-0.891936 c 0.424556,-1.115264 0.68617,-2.003767 0.819589,-2.77296 0.161387,-0.931222 0.178493,-0.903916 0.261483,-2.183849 0.03897,-0.595717 -0.140051,-2.023514 -0.327112,-2.528531 -0.192105,-0.519544 -0.401161,-0.870377 -0.634071,-1.4960342 l 0.02635,0.039274 C 17.317178,9.7216218 17.215696,9.5074989 17.127666,9.2811874 16.854867,8.5833225 16.677594,7.8130611 16.572143,7.01569 16.534154,6.7294717 16.459241,6.3963191 16.435201,6.1020496 A 2.0789873,1.9965013 0 0 1 15.71483,6.0415881 L 10.413856,4.6778455 A 2.0789873,1.9965013 0 0 1 8.9436596,2.2325139 l 1.4200704,-5.091168 a 2.0789873,1.9965013 0 0 1 2.08618,-1.4784644 h 5.16e-4 a 2.0789873,1.9965013 0 0 1 0.459921,0.066663 l 5.300975,1.3642594 a 2.0789873,1.9965013 0 0 1 0.172599,0.053227 2.0789873,1.9965013 0 0 1 10e-4,0 2.0789873,1.9965013 0 0 1 0.24598,0.1043866 c 0.453866,0.200023 1.212079,0.6057594 1.641762,0.7953012 0.755124,0.3711675 1.539204,0.6172098 2.358515,0.7105517 a 6.5334081,6.2741881 0 0 0 2.115119,-0.098185 c 0.643254,-0.1276852 1.258372,-0.3345274 1.864488,-0.5854947 0.575398,-0.2381986 1.103819,-0.4996812 1.628326,-0.7524097 0.497454,-0.2395195 0.966764,-0.4591652 1.40095,-0.6035814 a 3.4844844,3.3462336 0 0 1 0.610816,-0.1508954 2.1654236,2.0795082 0 0 1 0.27957,-0.023771 1.6753034,1.6088339 0 0 1 0.2651,0.014469 1.4075483,1.3517023 0 0 1 0.492994,0.1596803 1.7743361,1.7039374 0 0 1 0.412378,0.3110925 c -0.04172,0.1470582 -0.09251,0.3276448 -0.153479,0.5389858 A 64.290569,61.739771 0 0 1 30.53148,0.77058656 C 29.873131,2.6594449 29.054385,4.6835923 28.085149,6.5108107 c -1.256706,2.3678975 -1.648191,3.0496328 -2.654105,3.9672043 -0.737242,0.672769 -1.025679,0.895128 -1.73633,1.413352 -0.762001,0.556531 -0.888128,0.620583 -1.549261,1.078488 -0.563478,0.52439 -0.842093,0.93162 -1.206129,1.674835 -0.231535,0.472434 -0.647685,1.603435 -0.864548,2.43603 -0.189354,0.726046 -0.423152,1.457882 -0.625802,2.380736 -0.07331,0.335752 -0.121756,0.633285 -0.160714,0.919325 l 6.317451,1.625743 a 1.7204964,1.6522338 0 0 0 2.107367,-1.167889 L 36.306362,-9.9595208 A 1.7204964,1.6522338 0 0 0 35.089897,-11.983172 L 3.0194666,-20.235391 a 1.7204964,1.6522338 0 0 0 -0.5947964,-0.05013 z m 20.2618358,7.636235 a 15.116244,14.516489 0 0 1 0.876433,0.03979 18.059715,17.343176 0 0 1 1.10381,0.112654 l 1.42007,0.243913 a 15.031882,14.435476 0 0 1 1.117246,0.275953 33.542288,32.211461 0 0 1 2.428795,0.800986 c 0.749163,0.280024 1.446163,0.576498 2.037604,0.872816 a 10.041275,9.6428766 0 0 1 0.782382,0.4314982 c 0.228782,0.1408938 0.422718,0.2780698 0.577227,0.4092778 0.154509,0.1312072 0.264889,0.2518701 0.332279,0.3601852 a 0.60061505,0.576785 0 0 1 0.06718,0.147278 0.31635449,0.3038028 0 0 1 0.0093,0.1188559 c -0.161386,1.1465241 -0.461475,2.1825222 -0.737941,2.9931024 a 30.778083,29.55693 0 0 1 -0.396358,1.0831393 c -0.05868,0.153222 -0.111593,0.2885424 -0.156063,0.4056605 l -0.03359,0.08785 c -0.159095,-0.1087525 -0.320879,-0.1975248 -0.487309,-0.2666507 a 2.3717418,2.2776402 0 0 0 -0.711586,-0.1762168 2.7985911,2.6875539 0 0 0 -0.71882,0.024805 4.3368075,4.16474 0 0 0 -0.723471,0.1788006 c -0.479115,0.1576251 -0.970713,0.3873138 -1.488799,0.6387215 -0.503876,0.2452435 -1.037678,0.5140394 -1.594737,0.7482756 -0.548805,0.2315942 -1.127349,0.4327956 -1.739431,0.5503546 -0.602905,0.1162379 -1.241398,0.1526755 -1.921332,0.055811 -0.673053,-0.095984 -1.392757,-0.3240065 -2.165761,-0.7405241 -0.750539,-0.4046298 -1.552192,-0.9871289 -2.408642,-1.8029928 a 265.14037,254.62064 0 0 1 0.593763,-2.4804716 c 0.179727,-0.732208 0.378878,-1.5284964 0.578777,-2.2985704 0.207694,-0.8008932 0.410252,-1.5503622 0.592729,-2.1755802 a 0.35991054,0.34563071 0 0 1 0.06563,-0.120923 0.62812414,0.60320264 0 0 1 0.132809,-0.117822 c 0.120582,-0.08234 0.286827,-0.150193 0.482142,-0.205673 a 4.5738442,4.392372 0 0 1 0.726054,-0.136426 c 0.325984,-0.03787 0.649087,-0.05256 0.909507,-0.05736 0.129751,-0.0022 0.280463,-0.0031 0.450103,-5.17e-4 z" /></g></g></g><g
       inkscape:groupmode="layer"
       id="layer5"
       inkscape:label="Highlights"
       style="display:inline"
       sodipodi:insensitive="true"><path
         style="opacity:0.12999998;color:#bebebe;fill:#ffffff;fill-opacity:1;fill-rule:nonzero;stroke:none;stroke-width:0;marker:none;visibility:visible;display:inline;overflow:visible;enable-background:accumulate"
         d="M 84,47 C 56.836703,47 35,68.836703 35,96 l 0,1 C 35,69.836703 56.836703,48 84,48 l 120,0 c 27.1633,0 49,21.836703 49,49 l 0,-1 C 253,68.836703 231.1633,47 204,47 L 84,47 z"
         id="rect3894"
         inkscape:connector-curvature="0" /><path
         style="opacity:0.12999998;color:#bebebe;fill:#ffffff;fill-opacity:1;fill-rule:nonzero;stroke:none;stroke-width:0;marker:none;visibility:visible;display:inline;overflow:visible;enable-background:accumulate"
         d="m 419,141 c -1.1253,0 -2,0.8747 -2,2 l 0,1 c 0,-1.1253 0.8747,-2 2,-2 l 10,0 c 1.1253,0 2,0.8747 2,2 l 0,-1 c 0,-1.1253 -0.8747,-2 -2,-2 l -10,0 z"
         id="rect3896"
         inkscape:connector-curvature="0" /><path
         style="opacity:0.12999998;color:#bebebe;fill:#ffffff;fill-opacity:1;fill-rule:nonzero;stroke:none;stroke-width:0;marker:none;visibility:visible;display:inline;overflow:visible;enable-background:accumulate"
         d="m 422,102 c -2.2333,0 -4,1.7667 -4,4 l 0,1 c 0,-2.2333 1.7667,-4 4,-4 l 12,0 c 2.2333,0 4,1.7667 4,4 l 0,-1 c 0,-2.2333 -1.7667,-4 -4,-4 l -12,0 z"
         id="rect3898"
         inkscape:connector-curvature="0" /><path
         style="opacity:0.12999998;color:#bebebe;fill:#ffffff;fill-opacity:1;fill-rule:nonzero;stroke:none;stroke-width:0;marker:none;visibility:visible;display:inline;overflow:visible;enable-background:accumulate"
         d="m 424,54 c -3.3413,0 -6,2.658703 -6,6 l 0,1 c 0,-3.341297 2.6587,-6 6,-6 l 16,0 c 3.3413,0 6,2.658703 6,6 l 0,-1 c 0,-3.341297 -2.6587,-6 -6,-6 l -16,0 z"
         id="rect3900"
         inkscape:connector-curvature="0" /><path
         style="opacity:0.12999998;color:#bebebe;fill:#ffffff;fill-opacity:1;fill-rule:nonzero;stroke:none;stroke-width:0;marker:none;visibility:visible;display:inline;overflow:visible;enable-background:accumulate"
         d="m 300,224 c -4.4493,0 -8,3.5507 -8,8 l 0,1 c 0,-4.4493 3.5507,-8 8,-8 l 24,0 c 4.4493,0 8,3.5507 8,8 l 0,-1 c 0,-4.4493 -3.5507,-8 -8,-8 l -24,0 z"
         id="rect3902"
         inkscape:connector-curvature="0" /><path
         style="opacity:0.12999998;color:#bebebe;fill:#ffffff;fill-opacity:1;fill-rule:nonzero;stroke:none;stroke-width:0;marker:none;visibility:visible;display:inline;overflow:visible;enable-background:accumulate"
         d="m 310,33 c -9.4353,0 -17,7.564703 -17,17 l 0,1 c 0,-9.435297 7.5647,-17 17,-17 l 52,0 c 9.4353,0 17,7.564703 17,17 l 0,-1 c 0,-9.435297 -7.5647,-17 -17,-17 l -52,0 z"
         id="rect3904"
         inkscape:connector-curvature="0" /><path
         style="opacity:0.12999998;color:#bebebe;fill:#ffffff;fill-opacity:1;fill-rule:nonzero;stroke:none;stroke-width:0;marker:none;visibility:visible;display:inline;overflow:visible;enable-background:accumulate"
         d="m 302.5,143 c -6.3883,0 -11.5,5.1117 -11.5,11.5 l 0,1 c 0,-6.3883 5.1117,-11.5 11.5,-11.5 l 35,0 c 6.3883,0 11.5,5.1117 11.5,11.5 l 0,-1 c 0,-6.3883 -5.1117,-11.5 -11.5,-11.5 l -35,0 z"
         id="rect3906"
         inkscape:connector-curvature="0" /><path
         id="path4085"
         d="m 204,266 c 27.1633,0 49,-21.8367 49,-49 l 0,-1 c 0,27.1633 -21.8367,49 -49,49 L 84,265 C 56.8367,265 35,243.1633 35,216 l 0,1 c 0,27.1633 21.8367,49 49,49 l 120,0 z"
         style="opacity:0.5;color:#bebebe;fill:#000000;fill-opacity:1;fill-rule:nonzero;stroke:none;stroke-width:0;marker:none;visibility:visible;display:inline;overflow:visible;enable-background:accumulate"
         inkscape:connector-curvature="0" /><path
         id="path4087"
         d="m 429,156 c 1.1253,0 2,-0.8747 2,-2 l 0,-1 c 0,1.1253 -0.8747,2 -2,2 l -10,0 c -1.1253,0 -2,-0.8747 -2,-2 l 0,1 c 0,1.1253 0.8747,2 2,2 l 10,0 z"
         style="opacity:0.3;color:#bebebe;fill:#000000;fill-opacity:1;fill-rule:nonzero;stroke:none;stroke-width:0;marker:none;visibility:visible;display:inline;overflow:visible;enable-background:accumulate"
         inkscape:connector-curvature="0" /><path
         id="path4089"
         d="m 434,123 c 2.2333,0 4,-1.7667 4,-4 l 0,-1 c 0,2.2333 -1.7667,4 -4,4 l -12,0 c -2.2333,0 -4,-1.7667 -4,-4 l 0,1 c 0,2.2333 1.7667,4 4,4 l 12,0 z"
         style="opacity:0.3;color:#bebebe;fill:#000000;fill-opacity:1;fill-rule:nonzero;stroke:none;stroke-width:0;marker:none;visibility:visible;display:inline;overflow:visible;enable-background:accumulate"
         inkscape:connector-curvature="0" /><path
         id="path4091"
         d="m 440,83 c 3.3413,0 6,-2.6587 6,-6 l 0,-1 c 0,3.3413 -2.6587,6 -6,6 l -16,0 c -3.3413,0 -6,-2.6587 -6,-6 l 0,1 c 0,3.3413 2.6587,6 6,6 l 16,0 z"
         style="opacity:0.5;color:#bebebe;fill:#000000;fill-opacity:1;fill-rule:nonzero;stroke:none;stroke-width:0;marker:none;visibility:visible;display:inline;overflow:visible;enable-background:accumulate"
         inkscape:connector-curvature="0" /><path
         id="path4093"
         d="m 324,265 c 4.4493,0 8,-3.5507 8,-8 l 0,-1 c 0,4.4493 -3.5507,8 -8,8 l -24,0 c -4.4493,0 -8,-3.5507 -8,-8 l 0,1 c 0,4.4493 3.5507,8 8,8 l 24,0 z"
         style="opacity:0.5;color:#bebebe;fill:#000000;fill-opacity:1;fill-rule:nonzero;stroke:none;stroke-width:0;marker:none;visibility:visible;display:inline;overflow:visible;enable-background:accumulate"
         inkscape:connector-curvature="0" /><path
         id="path4095"
         d="m 362,120 c 9.4353,0 17,-7.5647 17,-17 l 0,-1 c 0,9.4353 -7.5647,17 -17,17 l -52,0 c -9.4353,0 -17,-7.5647 -17,-17 l 0,1 c 0,9.4353 7.5647,17 17,17 l 52,0 z"
         style="opacity:0.5;color:#bebebe;fill:#000000;fill-opacity:1;fill-rule:nonzero;stroke:none;stroke-width:0;marker:none;visibility:visible;display:inline;overflow:visible;enable-background:accumulate"
         inkscape:connector-curvature="0" /><path
         id="path4097"
         d="m 337.5,202 c 6.3883,0 11.5,-5.1117 11.5,-11.5 l 0,-1 c 0,6.3883 -5.1117,11.5 -11.5,11.5 l -35,0 c -6.3883,0 -11.5,-5.1117 -11.5,-11.5 l 0,1 c 0,6.3883 5.1117,11.5 11.5,11.5 l 35,0 z"
         style="opacity:0.5;color:#bebebe;fill:#000000;fill-opacity:1;fill-rule:nonzero;stroke:none;stroke-width:0;marker:none;visibility:visible;display:inline;overflow:visible;enable-background:accumulate"
         inkscape:connector-curvature="0" /><path
         inkscape:connector-curvature="0"
         id="path4280"
         d="M 84,265 C 56.836703,265 35,243.1633 35,216 l 0,-1 c 0,27.1633 21.836703,49 49,49 l 120,0 c 27.1633,0 49,-21.8367 49,-49 l 0,1 c 0,27.1633 -21.8367,49 -49,49 l -120,0 z"
         style="opacity:0.1;color:#bebebe;fill:#ffffff;fill-opacity:1;fill-rule:nonzero;stroke:none;stroke-width:0;marker:none;visibility:visible;display:inline;overflow:visible;enable-background:accumulate" /><path
         style="opacity:0.1;color:#bebebe;fill:#ffffff;fill-opacity:1;fill-rule:nonzero;stroke:none;stroke-width:0;marker:none;visibility:visible;display:inline;overflow:visible;enable-background:accumulate"
         d="m 300,264 c -4.4493,0 -8,-3.5507 -8,-8 l 0,-1 c 0,4.4493 3.5507,8 8,8 l 24,0 c 4.4493,0 8,-3.5507 8,-8 l 0,1 c 0,4.4493 -3.5507,8 -8,8 l -24,0 z"
         id="path4294"
         inkscape:connector-curvature="0" /><path
         style="opacity:0.1;color:#bebebe;fill:#ffffff;fill-opacity:1;fill-rule:nonzero;stroke:none;stroke-width:0;marker:none;visibility:visible;display:inline;overflow:visible;enable-background:accumulate"
         d="m 302.5,201 c -6.3883,0 -11.5,-5.1117 -11.5,-11.5 l 0,-1 c 0,6.3883 5.1117,11.5 11.5,11.5 l 35,0 c 6.3883,0 11.5,-5.1117 11.5,-11.5 l 0,1 c 0,6.3883 -5.1117,11.5 -11.5,11.5 l -35,0 z"
         id="path4296"
         inkscape:connector-curvature="0" /><path
         style="opacity:0.1;color:#bebebe;fill:#ffffff;fill-opacity:1;fill-rule:nonzero;stroke:none;stroke-width:0;marker:none;visibility:visible;display:inline;overflow:visible;enable-background:accumulate"
         d="m 310,119 c -9.4353,0 -17,-7.5647 -17,-17 l 0,-1 c 0,9.4353 7.5647,17 17,17 l 52,0 c 9.4353,0 17,-7.5647 17,-17 l 0,1 c 0,9.4353 -7.5647,17 -17,17 l -52,0 z"
         id="path4298"
         inkscape:connector-curvature="0" /><path
         style="opacity:0.1;color:#bebebe;fill:#ffffff;fill-opacity:1;fill-rule:nonzero;stroke:none;stroke-width:0;marker:none;visibility:visible;display:inline;overflow:visible;enable-background:accumulate"
         d="m 424,82 c -3.3413,0 -6,-2.658703 -6,-6 l 0,-1 c 0,3.341297 2.6587,6 6,6 l 16,0 c 3.3413,0 6,-2.658703 6,-6 l 0,1 c 0,3.341297 -2.6587,6 -6,6 l -16,0 z"
         id="path4300"
         inkscape:connector-curvature="0" /><path
         style="opacity:0.1;color:#bebebe;fill:#ffffff;fill-opacity:1;fill-rule:nonzero;stroke:none;stroke-width:0;marker:none;visibility:visible;display:inline;overflow:visible;enable-background:accumulate"
         d="m 422,122 c -2.2333,0 -4,-1.7667 -4,-4 l 0,-1 c 0,2.2333 1.7667,4 4,4 l 12,0 c 2.2333,0 4,-1.7667 4,-4 l 0,1 c 0,2.2333 -1.7667,4 -4,4 l -12,0 z"
         id="path4302"
         inkscape:connector-curvature="0" /><path
         style="opacity:0.1;color:#bebebe;fill:#ffffff;fill-opacity:1;fill-rule:nonzero;stroke:none;stroke-width:0;marker:none;visibility:visible;display:inline;overflow:visible;enable-background:accumulate"
         d="m 419,154.5 c -1.1253,0 -2,-0.8747 -2,-2 l 0,-1 c 0,1.1253 0.8747,2 2,2 l 10,0 c 1.1253,0 2,-0.8747 2,-2 l 0,1 c 0,1.1253 -0.8747,2 -2,2 l -10,0 z"
         id="path4304"
         inkscape:connector-curvature="0" /></g><g
       inkscape:groupmode="layer"
       id="layer3"
       inkscape:label="Border"
       style="display:inline"
       sodipodi:insensitive="true"><path
         style="opacity:0.41000001;color:#bebebe;fill:#000000;fill-opacity:1;fill-rule:nonzero;stroke:none;stroke-width:0;marker:none;visibility:visible;display:inline;overflow:visible;enable-background:accumulate"
         d="m 422,101 c -2.77,0 -5,2.23 -5,5 l 0,12 c 0,2.77 2.23,5 5,5 l 12,0 c 2.77,0 5,-2.23 5,-5 l 0,-12 c 0,-2.77 -2.23,-5 -5,-5 l -12,0 z m 0,1 12,0 c 2.2333,0 4,1.7667 4,4 l 0,12 c 0,2.2333 -1.7667,4 -4,4 l -12,0 c -2.2333,0 -4,-1.7667 -4,-4 l 0,-12 c 0,-2.2333 1.7667,-4 4,-4 z"
         id="rect4099"
         inkscape:connector-curvature="0" /><path
         style="opacity:0.41000001;color:#bebebe;fill:#000000;fill-opacity:1;fill-rule:nonzero;stroke:none;stroke-width:0;marker:none;visibility:visible;display:inline;overflow:visible;enable-background:accumulate"
         d="m 424,53 c -3.878,0 -7,3.122 -7,7 l 0,16 c 0,3.878 3.122,7 7,7 l 16,0 c 3.878,0 7,-3.122 7,-7 l 0,-16 c 0,-3.878 -3.122,-7 -7,-7 l -16,0 z m 0,1 16,0 c 3.3413,0 6,2.658703 6,6 l 0,16 c 0,3.341297 -2.6587,6 -6,6 l -16,0 c -3.3413,0 -6,-2.658703 -6,-6 l 0,-16 c 0,-3.341297 2.6587,-6 6,-6 z"
         id="rect4151"
         inkscape:connector-curvature="0" /><path
         style="opacity:0.41000001;color:#bebebe;fill:#000000;fill-opacity:1;fill-rule:nonzero;stroke:none;stroke-width:0;marker:none;visibility:visible;display:inline;overflow:visible;enable-background:accumulate"
         d="m 419,140 c -1.662,0 -3,1.338 -3,3 l 0,10 c 0,1.662 1.338,3 3,3 l 10,0 c 1.662,0 3,-1.338 3,-3 l 0,-10 c 0,-1.662 -1.338,-3 -3,-3 l -10,0 z m 0,1 10,0 c 1.1253,0 2,0.8747 2,2 l 0,10 c 0,1.1253 -0.8747,2 -2,2 l -10,0 c -1.1253,0 -2,-0.8747 -2,-2 l 0,-10 c 0,-1.1253 0.8747,-2 2,-2 z"
         id="rect4095"
         inkscape:connector-curvature="0" /><path
         style="opacity:0.41000001;color:#bebebe;fill:#000000;fill-opacity:1;fill-rule:nonzero;stroke:none;stroke-width:0;marker:none;visibility:visible;display:inline;overflow:visible;enable-background:accumulate"
         d="m 300,223 c -4.986,0 -9,4.014 -9,9 l 0,24 c 0,4.986 4.014,9 9,9 l 24,0 c 4.986,0 9,-4.014 9,-9 l 0,-24 c 0,-4.986 -4.014,-9 -9,-9 l -24,0 z m 0,1 24,0 c 4.4493,0 8,3.5507 8,8 l 0,24 c 0,4.4493 -3.5507,8 -8,8 l -24,0 c -4.4493,0 -8,-3.5507 -8,-8 l 0,-24 c 0,-4.4493 3.5507,-8 8,-8 z"
         id="rect4783"
         inkscape:connector-curvature="0" /><path
         style="color:#bebebe;display:inline;overflow:visible;visibility:visible;opacity:0.41;fill:#000000;fill-opacity:1;fill-rule:nonzero;stroke:none;stroke-width:0;marker:none;enable-background:accumulate"
         d="m 302.5,142 c -6.925,0 -12.5,5.575 -12.5,12.5 v 35 c 0,6.925 5.575,12.5 12.5,12.5 h 35 c 6.925,0 12.5,-5.575 12.5,-12.5 v -35 c 0,-6.925 -5.575,-12.5 -12.5,-12.5 z m 0,1 h 35 c 6.3883,0 11.5,5.1117 11.5,11.5 v 35 c 0,6.3883 -5.1117,11.5 -11.5,11.5 h -35 c -6.3883,0 -11.5,-5.1117 -11.5,-11.5 v -35 c 0,-6.3883 5.1117,-11.5 11.5,-11.5 z"
         id="rect4515"
         inkscape:connector-curvature="0" /><path
         style="opacity:0.41000001;color:#bebebe;fill:#000000;fill-opacity:1;fill-rule:nonzero;stroke:none;stroke-width:0;marker:none;visibility:visible;display:inline;overflow:visible;enable-background:accumulate"
         d="m 310,32 c -9.972,0 -18,8.028 -18,18 l 0,52 c 0,9.972 8.028,18 18,18 l 52,0 c 9.972,0 18,-8.028 18,-18 l 0,-52 c 0,-9.972 -8.028,-18 -18,-18 l -52,0 z m 0,1 52,0 c 9.4353,0 17,7.564703 17,17 l 0,52 c 0,9.4353 -7.5647,17 -17,17 l -52,0 c -9.4353,0 -17,-7.5647 -17,-17 l 0,-52 c 0,-9.435297 7.5647,-17 17,-17 z"
         id="rect4511"
         inkscape:connector-curvature="0" /><path
         style="opacity:0.41000001;color:#bebebe;fill:#000000;fill-opacity:1;fill-rule:nonzero;stroke:none;stroke-width:0;marker:none;visibility:visible;display:inline;overflow:visible;enable-background:accumulate"
         d="M 84,46 C 56.3,46 34,68.3 34,96 l 0,120 c 0,27.7 22.3,50 50,50 l 120,0 c 27.7,0 50,-22.3 50,-50 L 254,96 C 254,68.3 231.7,46 204,46 L 84,46 z m 0,1 120,0 c 27.1633,0 49,21.836703 49,49 l 0,120 c 0,27.1633 -21.8367,49 -49,49 L 84,265 C 56.836703,265 35,243.1633 35,216 L 35,96 C 35,68.836703 56.836703,47 84,47 z"
         id="rect4040"
         inkscape:connector-curvature="0" /></g></g></svg>
