<?xml version="1.0" encoding="UTF-8" standalone="no"?>
<!-- Created with Inkscape (http://www.inkscape.org/) -->

<svg
   inkscape:export-ydpi="90"
   inkscape:export-xdpi="90"
   width="480"
   height="300"
   id="svg11300"
   sodipodi:version="0.32"
   inkscape:version="1.2.2 (b0a8486541, 2022-12-01)"
   sodipodi:docname="sober.svg"
   inkscape:output_extension="org.inkscape.output.svg.inkscape"
   version="1.0"
   style="display:inline;enable-background:new"
   inkscape:export-filename="sober-plain.svg"
   xml:space="preserve"
   xmlns:inkscape="http://www.inkscape.org/namespaces/inkscape"
   xmlns:sodipodi="http://sodipodi.sourceforge.net/DTD/sodipodi-0.dtd"
   xmlns:xlink="http://www.w3.org/1999/xlink"
   xmlns="http://www.w3.org/2000/svg"
   xmlns:svg="http://www.w3.org/2000/svg"
   xmlns:rdf="http://www.w3.org/1999/02/22-rdf-syntax-ns#"
   xmlns:cc="http://creativecommons.org/ns#"
   xmlns:dc="http://purl.org/dc/elements/1.1/"><sodipodi:namedview
     stroke="#ef2929"
     fill="#f57900"
     id="base"
     pagecolor="#777777"
     bordercolor="#666666"
     borderopacity="0.25490196"
     inkscape:pageopacity="0"
     inkscape:pageshadow="2"
     inkscape:zoom="1"
     inkscape:cx="-172"
     inkscape:cy="72"
     inkscape:current-layer="layer9-6"
     showgrid="false"
     inkscape:grid-bbox="true"
     inkscape:document-units="px"
     inkscape:showpageshadow="false"
     inkscape:window-width="1920"
     inkscape:window-height="1048"
     inkscape:window-x="0"
     inkscape:window-y="1080"
     width="400px"
     height="300px"
     inkscape:snap-nodes="true"
     inkscape:snap-bbox="true"
     gridtolerance="10000"
     inkscape:object-nodes="true"
     inkscape:snap-grids="true"
     showguides="true"
     inkscape:guide-bbox="true"
     inkscape:window-maximized="1"
     inkscape:bbox-nodes="true"
     inkscape:bbox-paths="true"
     inkscape:snap-bbox-edge-midpoints="true"
     inkscape:snap-bbox-midpoints="true"
     inkscape:pagecheckerboard="0"
     inkscape:deskcolor="#505050"><inkscape:grid
       spacingy="1px"
       spacingx="1px"
       id="grid5883"
       type="xygrid"
       enabled="true"
       visible="true"
       empspacing="4"
       snapvisiblegridlinesonly="true"
       dotted="false"
       color="#000000"
       opacity="0.1254902"
       empcolor="#203ef3"
       empopacity="0.36470588"
       originx="0"
       originy="0"
       units="px" /><inkscape:grid
       type="xygrid"
       id="grid11592"
       empspacing="8"
       visible="true"
       enabled="false"
       spacingx="0.5px"
       spacingy="0.5px"
       color="#ff0000"
       opacity="0.1254902"
       empcolor="#ff0000"
       empopacity="0.25098039"
       snapvisiblegridlinesonly="true"
       dotted="true"
       originx="0"
       originy="0"
       units="px" /></sodipodi:namedview><defs
     id="defs3"><linearGradient
       gradientTransform="matrix(-0.6804,-0.7328,0.7328,-0.6804,685.7452,990.4276)"
       y2="274.4072"
       x2="1015.8838"
       y1="274.4072"
       x1="919.75293"
       gradientUnits="userSpaceOnUse"
       id="linearGradient12"><stop
         id="stop11"
         style="stop-color:#b70213;stop-opacity:1"
         offset="0.28650001" /><stop
         id="stop12"
         style="stop-color:#730211;stop-opacity:0.99607843"
         offset="1" /></linearGradient><linearGradient
       gradientTransform="matrix(-0.6804,-0.7328,0.7328,-0.6804,685.7452,990.4276)"
       y2="274.4072"
       x2="1015.8838"
       y1="274.4072"
       x1="919.75293"
       gradientUnits="userSpaceOnUse"
       id="linearGradient10"><stop
         id="stop9"
         style="stop-color:#b70213;stop-opacity:1"
         offset="0.28650001" /><stop
         id="stop10"
         style="stop-color:#730211;stop-opacity:0.99607843"
         offset="1" /></linearGradient><linearGradient
       gradientTransform="matrix(-0.6804,-0.7328,0.7328,-0.6804,685.7452,990.4276)"
       y2="274.4072"
       x2="1015.8838"
       y1="274.4072"
       x1="919.75293"
       gradientUnits="userSpaceOnUse"
       id="linearGradient8"><stop
         id="stop7"
         style="stop-color:#b70213;stop-opacity:1"
         offset="0.28650001" /><stop
         id="stop8"
         style="stop-color:#730211;stop-opacity:0.99607843"
         offset="1" /></linearGradient><linearGradient
       gradientTransform="matrix(-0.6804,-0.7328,0.7328,-0.6804,685.7452,990.4276)"
       y2="274.4072"
       x2="1015.8838"
       y1="274.4072"
       x1="919.75293"
       gradientUnits="userSpaceOnUse"
       id="linearGradient6"><stop
         id="stop5"
         style="stop-color:#b70213;stop-opacity:1"
         offset="0.28650001" /><stop
         id="stop6"
         style="stop-color:#730211;stop-opacity:0.99607843"
         offset="1" /></linearGradient><linearGradient
       gradientTransform="matrix(-0.6804,-0.7328,0.7328,-0.6804,685.7452,990.4276)"
       y2="274.4072"
       x2="1015.8838"
       y1="274.4072"
       x1="919.75293"
       gradientUnits="userSpaceOnUse"
       id="linearGradient4"><stop
         id="stop3"
         style="stop-color:#b70213;stop-opacity:1"
         offset="0.28650001" /><stop
         id="stop4"
         style="stop-color:#730211;stop-opacity:0.99607843"
         offset="1" /></linearGradient><linearGradient
       gradientTransform="matrix(-0.6804,-0.7328,0.7328,-0.6804,685.7452,990.4276)"
       y2="274.4072"
       x2="1015.8838"
       y1="274.4072"
       x1="919.75293"
       gradientUnits="userSpaceOnUse"
       id="linearGradient2"><stop
         id="stop1"
         style="stop-color:#b70213;stop-opacity:1"
         offset="0.28650001" /><stop
         id="stop2"
         style="stop-color:#6f0313;stop-opacity:0.90980393"
         offset="1" /></linearGradient><linearGradient
       gradientTransform="matrix(-0.6804,-0.7328,0.7328,-0.6804,685.7452,990.4276)"
       y2="274.4072"
       x2="1015.8838"
       y1="274.4072"
       x1="919.75293"
       gradientUnits="userSpaceOnUse"
       id="linearGradient3854"><stop
         id="stop3856"
         style="stop-color:#b70213;stop-opacity:1"
         offset="0.28650001" /><stop
         id="stop3862"
         style="stop-color:#730211;stop-opacity:0.99607843"
         offset="1" /></linearGradient><linearGradient
       inkscape:collect="always"
       xlink:href="#linearGradient2"
       id="linearGradient5114"
       gradientUnits="userSpaceOnUse"
       gradientTransform="rotate(90,144,156)"
       x1="35"
       y1="156"
       x2="253"
       y2="156" /><linearGradient
       inkscape:collect="always"
       xlink:href="#linearGradient3854"
       id="linearGradient5116"
       gradientUnits="userSpaceOnUse"
       gradientTransform="matrix(0,1,-1,0,572,-276)"
       x1="417"
       y1="148"
       x2="431"
       y2="148" /><linearGradient
       inkscape:collect="always"
       xlink:href="#linearGradient10"
       id="linearGradient5118"
       gradientUnits="userSpaceOnUse"
       gradientTransform="rotate(90,428,112)"
       x1="418"
       y1="112"
       x2="438"
       y2="112" /><linearGradient
       inkscape:collect="always"
       xlink:href="#linearGradient12"
       id="linearGradient5120"
       gradientUnits="userSpaceOnUse"
       gradientTransform="matrix(0,1,-1,0,500,-364)"
       x1="418"
       y1="68"
       x2="446"
       y2="68" /><linearGradient
       inkscape:collect="always"
       xlink:href="#linearGradient6"
       id="linearGradient5122"
       gradientUnits="userSpaceOnUse"
       gradientTransform="matrix(0,1,-1,0,556,-68)"
       x1="292"
       y1="244"
       x2="332"
       y2="244" /><linearGradient
       inkscape:collect="always"
       xlink:href="#linearGradient8"
       id="linearGradient5124"
       gradientUnits="userSpaceOnUse"
       gradientTransform="matrix(0,1,-1,0,412,-260)"
       x1="293"
       y1="76"
       x2="379"
       y2="76" /><linearGradient
       inkscape:collect="always"
       xlink:href="#linearGradient4"
       id="linearGradient5126"
       gradientUnits="userSpaceOnUse"
       gradientTransform="matrix(0,1,-1,0,492,-148)"
       x1="291"
       y1="172"
       x2="349"
       y2="172" /></defs><metadata
     id="metadata4"><rdf:RDF><cc:Work
         rdf:about=""><dc:format>image/svg+xml</dc:format><dc:type
           rdf:resource="http://purl.org/dc/dcmitype/StillImage" /><dc:source /><dc:subject><rdf:Bag /></dc:subject><dc:date /><dc:rights><cc:Agent><dc:title /></cc:Agent></dc:rights><dc:publisher><cc:Agent><dc:title /></cc:Agent></dc:publisher><dc:identifier /><dc:relation /><dc:language /><dc:coverage /><dc:description /><dc:contributor><cc:Agent><dc:title /></cc:Agent></dc:contributor><cc:license
           rdf:resource="http://creativecommons.org/licenses/by-sa/4.0/" /><dc:creator><cc:Agent><dc:title>Ashtaka</dc:title></cc:Agent></dc:creator></cc:Work><cc:Work
         rdf:about=""><dc:format>image/svg+xml</dc:format><dc:type
           rdf:resource="http://purl.org/dc/dcmitype/StillImage" /></cc:Work><cc:License
         rdf:about="http://creativecommons.org/licenses/by-sa/4.0/"><cc:permits
           rdf:resource="http://creativecommons.org/ns#Reproduction" /><cc:permits
           rdf:resource="http://creativecommons.org/ns#Distribution" /><cc:requires
           rdf:resource="http://creativecommons.org/ns#Notice" /><cc:requires
           rdf:resource="http://creativecommons.org/ns#Attribution" /><cc:permits
           rdf:resource="http://creativecommons.org/ns#DerivativeWorks" /><cc:requires
           rdf:resource="http://creativecommons.org/ns#ShareAlike" /></cc:License></rdf:RDF></metadata><g
     style="display:inline"
     inkscape:groupmode="layer"
     inkscape:label="Icon"
     id="layer1"><g
       style="display:none"
       inkscape:label="Baseplate"
       id="layer7"
       inkscape:groupmode="layer"><text
         y="19.745117"
         xml:space="preserve"
         x="15.006836"
         style="font-style:normal;font-variant:normal;font-weight:normal;font-stretch:normal;line-height:0%;font-family:'DejaVu Sans';-inkscape-font-specification:'DejaVu Sans';display:inline;fill:#000000;fill-opacity:1;stroke:none;enable-background:new"
         inkscape:label="context"
         id="context"><tspan
           style="font-style:normal;font-variant:normal;font-weight:normal;font-stretch:normal;font-size:18px;line-height:1.25;font-family:'DejaVu Sans';-inkscape-font-specification:'DejaVu Sans'"
           y="19.745117"
           x="15.006836"
           id="tspan3933"
           sodipodi:role="line">apps</tspan></text><text
         y="19.745117"
         xml:space="preserve"
         x="122.48828"
         style="font-style:normal;font-variant:normal;font-weight:bold;font-stretch:normal;font-size:18px;line-height:0%;font-family:'DejaVu Sans';-inkscape-font-specification:'DejaVu Sans, Bold';font-variant-ligatures:normal;font-variant-caps:normal;font-variant-numeric:normal;font-variant-east-asian:normal;text-align:start;writing-mode:lr-tb;text-anchor:start;display:inline;fill:#000000;fill-opacity:1;stroke:none;enable-background:new"
         inkscape:label="icon-name"
         id="icon-name"><tspan
           sodipodi:role="line"
           id="tspan1"
           x="122.48828"
           y="19.745117">vinegar</tspan></text><rect
         style="display:inline;overflow:visible;visibility:visible;fill:#eeeeec;fill-opacity:1;fill-rule:nonzero;stroke:none;stroke-width:2;marker:none;enable-background:accumulate"
         id="rect16x16"
         width="16"
         height="16"
         x="416"
         y="140"
         inkscape:label="16x16" /><rect
         style="display:inline;overflow:visible;visibility:visible;fill:#d4d4d4;fill-opacity:1;fill-rule:nonzero;stroke:none;stroke-width:2;marker:none;enable-background:accumulate"
         id="rect24x24"
         width="24"
         height="24"
         x="416"
         y="100"
         inkscape:label="24x24" /><rect
         style="display:inline;overflow:visible;visibility:visible;fill:#eeeeec;fill-opacity:1;fill-rule:nonzero;stroke:none;stroke-width:2;marker:none;enable-background:accumulate"
         id="rect32x32"
         width="32"
         height="32"
         x="416"
         y="52"
         inkscape:label="32x32" /><rect
         inkscape:label="22x22"
         y="101"
         x="417"
         height="22"
         width="22"
         id="rect22x22"
         style="display:inline;overflow:visible;visibility:visible;fill:#eeeeec;fill-opacity:1;fill-rule:nonzero;stroke:none;stroke-width:2;marker:none;enable-background:accumulate" /><rect
         inkscape:label="48x48"
         y="220"
         x="288"
         height="48"
         width="48"
         id="rect48x48"
         style="display:inline;overflow:visible;visibility:visible;fill:#eeeeec;fill-opacity:1;fill-rule:nonzero;stroke:none;stroke-width:2;marker:none;enable-background:accumulate" /><rect
         style="display:inline;overflow:visible;visibility:visible;fill:#eeeeec;fill-opacity:1;fill-rule:nonzero;stroke:none;stroke-width:2;marker:none;enable-background:accumulate"
         id="rect256x256"
         width="256"
         height="256"
         x="16"
         y="28"
         inkscape:label="256x256" /><rect
         style="display:inline;overflow:visible;visibility:visible;fill:#eeeeec;fill-opacity:1;fill-rule:nonzero;stroke:none;stroke-width:2;marker:none;enable-background:accumulate"
         id="rect64x64"
         width="64"
         height="64"
         x="288"
         y="140"
         inkscape:label="64x64" /><rect
         style="display:inline;overflow:visible;visibility:visible;fill:#eeeeec;fill-opacity:1;fill-rule:nonzero;stroke:none;stroke-width:2;marker:none;enable-background:accumulate"
         id="rect96x96"
         width="96"
         height="96"
         x="288"
         y="28"
         inkscape:label="96x96" /></g><g
       inkscape:groupmode="layer"
       id="layer4"
       inkscape:label="Shadow"
       style="display:inline"
       sodipodi:insensitive="true"><rect
         ry="50"
         y="47"
         x="34"
         height="220"
         width="220"
         id="rect4114"
         style="opacity:0.1;color:#bebebe;fill:#000000;fill-opacity:1;fill-rule:nonzero;stroke:none;stroke-width:0;marker:none;visibility:visible;display:inline;overflow:visible;enable-background:accumulate" /><rect
         style="opacity:0.1;color:#bebebe;fill:#000000;fill-opacity:1;fill-rule:nonzero;stroke:none;stroke-width:0;marker:none;visibility:visible;display:inline;overflow:visible;enable-background:accumulate"
         id="rect4120"
         width="30"
         height="30"
         x="417"
         y="54"
         ry="7" /><rect
         transform="scale(1,-1)"
         ry="9"
         y="-266"
         x="291"
         height="42"
         width="42"
         id="rect4122"
         style="opacity:0.1;color:#bebebe;fill:#000000;fill-opacity:1;fill-rule:nonzero;stroke:none;stroke-width:0;marker:none;visibility:visible;display:inline;overflow:visible;enable-background:accumulate" /><rect
         style="opacity:0.1;color:#bebebe;fill:#000000;fill-opacity:1;fill-rule:nonzero;stroke:none;stroke-width:0;marker:none;visibility:visible;display:inline;overflow:visible;enable-background:accumulate"
         id="rect4124"
         width="88"
         height="88"
         x="292"
         y="33"
         ry="18" /><rect
         ry="12.5"
         y="143"
         x="290"
         height="60"
         width="60"
         id="rect4126"
         style="opacity:0.1;color:#bebebe;fill:#000000;fill-opacity:1;fill-rule:nonzero;stroke:none;stroke-width:0;marker:none;visibility:visible;display:inline;overflow:visible;enable-background:accumulate" /><path
         id="path4268"
         d="m 422,101 c -2.77,0 -5,2.23 -5,5 l 0,12 c 0,2.77 2.23,5 5,5 l 12,0 c 2.77,0 5,-2.23 5,-5 l 0,-12 c 0,-2.77 -2.23,-5 -5,-5 z"
         style="opacity:0.1;color:#bebebe;fill:#000000;fill-opacity:1;fill-rule:nonzero;stroke:none;stroke-width:0;marker:none;visibility:visible;display:inline;overflow:visible;enable-background:accumulate"
         inkscape:connector-curvature="0"
         sodipodi:nodetypes="sssssssss" /><path
         id="path4270"
         d="m 419,140 c -1.662,0 -3,1.338 -3,3 l 0,10 c 0,1.662 1.338,3 3,3 l 10,0 c 1.662,0 3,-1.338 3,-3 l 0,-10 c 0,-1.662 -1.338,-3 -3,-3 z"
         style="opacity:0.1;color:#bebebe;fill:#000000;fill-opacity:1;fill-rule:nonzero;stroke:none;stroke-width:0;marker:none;visibility:visible;display:inline;overflow:visible;enable-background:accumulate"
         inkscape:connector-curvature="0"
         sodipodi:nodetypes="sssssssss" /></g><g
       inkscape:groupmode="layer"
       id="layer2"
       inkscape:label="Background"
       style="display:inline"><path
         style="color:#bebebe;display:inline;overflow:visible;visibility:visible;fill:url(#linearGradient5114);fill-opacity:1;fill-rule:nonzero;stroke:none;stroke-width:2;marker:none;enable-background:accumulate"
         d="m 204,265.5 c 27.43126,0 49.5,-22.06873 49.5,-49.5 V 96 C 253.5,68.56873 231.43126,46.5 204,46.5 H 84 C 56.56873,46.5 34.5,68.56873 34.5,96 v 120 c 0,27.43127 22.06873,49.5 49.5,49.5 z"
         id="path4200"
         inkscape:connector-curvature="0" /><path
         style="color:#bebebe;fill:url(#linearGradient5116);fill-opacity:1;fill-rule:nonzero;stroke:none;stroke-width:2;marker:none;visibility:visible;display:inline;overflow:visible;enable-background:accumulate"
         d="m 429,155.5 c 1.3844,0 2.5,-1.1156 2.5,-2.5 l 0,-10 c 0,-1.3844 -1.1156,-2.5 -2.5,-2.5 l -10,0 c -1.3844,0 -2.5,1.1156 -2.5,2.5 l 0,10 c 0,1.3844 1.1156,2.5 2.5,2.5 l 10,0 z"
         id="path4202"
         inkscape:connector-curvature="0" /><path
         style="color:#bebebe;display:inline;overflow:visible;visibility:visible;fill:url(#linearGradient5118);fill-opacity:1;fill-rule:nonzero;stroke:none;stroke-width:2;marker:none;enable-background:accumulate"
         d="m 434,122.5 c 2.49699,0 4.5,-2.00301 4.5,-4.5 v -12 c 0,-2.49699 -2.00301,-4.5 -4.5,-4.5 h -12 c -2.49699,0 -4.5,2.00301 -4.5,4.5 v 12 c 0,2.49699 2.00301,4.5 4.5,4.5 z"
         id="path4204"
         inkscape:connector-curvature="0" /><path
         style="color:#bebebe;fill:url(#linearGradient5120);fill-opacity:1;fill-rule:nonzero;stroke:none;stroke-width:2;marker:none;visibility:visible;display:inline;overflow:visible;enable-background:accumulate"
         d="m 440,82.5 c 3.60654,0 6.5,-2.89346 6.5,-6.5 l 0,-16 c 0,-3.60654 -2.89346,-6.5 -6.5,-6.5 l -16,0 c -3.60654,0 -6.5,2.89346 -6.5,6.5 l 0,16 c 0,3.60654 2.89346,6.5 6.5,6.5 l 16,0 z"
         id="path4206"
         inkscape:connector-curvature="0" /><path
         style="color:#bebebe;fill:url(#linearGradient5122);fill-opacity:1;fill-rule:nonzero;stroke:none;stroke-width:2;marker:none;visibility:visible;display:inline;overflow:visible;enable-background:accumulate"
         d="m 324,264.5 c 4.71531,0 8.5,-3.78469 8.5,-8.5 l 0,-24 c 0,-4.71531 -3.78469,-8.5 -8.5,-8.5 l -24,0 c -4.71531,0 -8.5,3.78469 -8.5,8.5 l 0,24 c 0,4.71531 3.78469,8.5 8.5,8.5 l 24,0 z"
         id="path4208"
         inkscape:connector-curvature="0" /><path
         style="color:#bebebe;fill:url(#linearGradient5124);fill-opacity:1;fill-rule:nonzero;stroke:none;stroke-width:2;marker:none;visibility:visible;display:inline;overflow:visible;enable-background:accumulate"
         d="m 362,119.5 c 9.70255,0 17.5,-7.79745 17.5,-17.5 l 0,-52 c 0,-9.70255 -7.79745,-17.5 -17.5,-17.5 l -52,0 c -9.70255,0 -17.5,7.79745 -17.5,17.5 l 0,52 c 0,9.70255 7.79745,17.5 17.5,17.5 l 52,0 z"
         id="path4210"
         inkscape:connector-curvature="0"
         inkscape:label="path4210" /><path
         style="color:#bebebe;fill:url(#linearGradient5126);fill-opacity:1;fill-rule:nonzero;stroke:none;stroke-width:2;marker:none;visibility:visible;display:inline;overflow:visible;enable-background:accumulate"
         d="m 337.5,201.5 c 6.65502,0 12,-5.34498 12,-12 l 0,-35 c 0,-6.65502 -5.34498,-12 -12,-12 l -35,0 c -6.65502,0 -12,5.34498 -12,12 l 0,35 c 0,6.65502 5.34498,12 12,12 l 35,0 z"
         id="path4212"
         inkscape:connector-curvature="0" /></g><g
       inkscape:groupmode="layer"
       id="layer6"
       inkscape:label="Symbols"
       style="display:inline"><g
         inkscape:groupmode="layer"
         id="layer9"
         inkscape:label="vinegar1"
         style="display:inline;enable-background:new"><path
           d="M 223.46402,105.88187 100.67141,73.0117 c -3.399712,-0.910061 -6.89337,1.108656 -7.802678,4.50857 l -13.234509,49.48394 c -0.909509,3.40061 1.108981,6.89487 4.509173,7.80594 l 36.456634,9.7685 c 3.40046,0.91113 6.89604,-1.10533 7.80972,-4.5051 l 0.13845,-0.51512 c 0.9137,-3.39977 4.4093,-5.41621 7.80976,-4.50505 l 25.38403,6.80162 c 3.39971,0.91096 5.41724,4.40544 4.50629,7.80515 l -0.13809,0.51519 c -0.91099,3.39974 1.10657,6.89427 4.50633,7.80521 l 36.31148,9.72963 c 3.39924,0.9108 6.89299,-1.10742 7.80224,-4.50707 l 13.24332,-49.51682 c 0.90943,-3.40035 -1.10939,-6.89423 -4.50954,-7.80442 z M 73.269728,150.79623 60.026417,200.31301 c -0.909386,3.40034 1.109449,6.89417 4.509575,7.80435 l 122.792608,32.8702 c 3.39969,0.91005 6.89332,-1.10865 7.80265,-4.50853 l 22.1742,-83.35935 c 0.90947,-3.40058 -10.04872,26.98059 -13.44887,26.0695 L 167.541,169.45844 c -3.39971,-0.91093 -6.89418,1.10662 -7.80512,4.50633 l -0.2896,1.0807 c -0.91094,3.39994 -4.40534,5.41791 -7.80543,4.50755 l -25.41542,-6.80517 c -3.39887,-0.91008 -5.41501,-4.40471 -4.50155,-7.80267 l 0.29234,-1.08739 c 0.91354,-3.39818 -1.10236,-6.89313 -4.50129,-7.80385 L 81.072017,146.2891 c -3.39927,-0.91083 -6.893071,1.10743 -7.802289,4.50713 z"
           fill="url(#a)"
           id="path15"
           style="display:inline;opacity:0.2;fill:#000000;fill-opacity:1;stroke-width:3.18648;enable-background:new"
           inkscape:label="vinegar1shadow"
           sodipodi:nodetypes="ccscccssccsscccccccccccccsccsssccc" /><path
           d="M 223.46402,104.88224 100.67141,72.012074 c -3.399712,-0.91006 -6.889911,1.109584 -7.802676,4.50857 L 72.67719,151.7106 c -0.909509,3.40061 4.959651,-6.65097 8.359841,-5.73989 l 36.229369,10.02651 c 3.40046,0.91113 3.12919,12.62536 4.05056,9.22767 l 7.23124,-26.66609 c 0.92138,-3.3977 4.4093,-5.41621 7.80976,-4.50505 l 25.38403,6.80162 c 3.39971,0.91096 5.41724,4.40544 4.50629,7.80515 l -0.13809,0.51519 c -0.91099,3.39974 1.10657,6.89427 4.50633,7.80521 l 36.31148,9.72963 c 3.39924,0.9108 6.89299,-1.10742 7.80224,-4.50707 l 13.24332,-49.51682 c 0.90943,-3.40035 -1.10939,-6.89423 -4.50954,-7.80442 z M 73.26973,149.7966 60.026419,199.31338 c -0.909386,3.40034 1.109449,6.89417 4.509575,7.80435 l 122.792606,32.8702 c 3.39969,0.91005 6.89332,-1.10865 7.80265,-4.50853 l 20.38439,-76.40473 c 0.90947,-3.40058 -4.57183,7.44905 -7.97198,6.53796 l -36.46511,-9.78015 c -3.39971,-0.91093 -3.31485,-13.34492 -4.21185,-9.9415 l -7.42042,28.15486 c -0.91094,3.39994 -4.40534,5.41791 -7.80543,4.50755 l -25.41542,-6.80517 c -3.39887,-0.91008 -5.41501,-4.40471 -4.50155,-7.80267 l 0.29234,-1.08739 c 0.91354,-3.39818 -1.10236,-6.89313 -4.50129,-7.80385 l -36.442911,-9.76484 c -3.39927,-0.91083 -6.893071,1.10743 -7.802289,4.50713 z"
           fill="url(#a)"
           id="path16"
           style="display:inline;fill:#ffffff;fill-opacity:1;stroke-width:3.18648;enable-background:new"
           inkscape:label="vinegar1"
           sodipodi:nodetypes="ccscccssccsscccccccccccccsccsssccc" /><path
           style="display:inline;fill:#990213;fill-opacity:0.964706;enable-background:new"
           d="m 159.70905,131.24161 4.29551,2.81163 3.74632,2.78811 1.9684,0.83441 1.88035,0.8797 1.6658,0.92078 2.27385,0.60751 h 1.61024 2.72434 l 2.48809,-0.003 2.74747,-0.25707 3.38592,-0.76954 2.53061,-1.12349 2.1358,-1.03766 3.01118,-1.82061 1.7356,-1.03337 1.72577,-1.08966 2.89933,-0.87111 1.78816,-0.34414 h 2.97647 l 2.78688,0.0445 0.92256,0.0911 1.11809,0.56246 1.03573,0.95893 0.5762,0.2283 4.88522,-18.67178 -2.91706,-2.51312 -5.20578,-2.59452 -3.53206,-1.74512 -5.13129,-2.09548 -3.666,-1.09747 -3.29638,-1.3246 -5.40818,-1.67554 -3.41448,-0.61677 -4.98779,-0.80052 -5.50398,-0.008 -3.81104,0.17678 -3.08323,0.95589 z"
           id="path14761" /><path
           style="display:inline;fill:#990213;fill-opacity:0.964706;enable-background:new"
           d="m 163.18671,141.4246 1.93896,1.7295 0.93818,1.86741 0.3475,2.03921 -1.3871,5.30819 -1.26216,4.67346 -1.01562,4.19438 -2.46221,9.22467 -1.29196,4.47431 -2.59053,2.90439 -2.36623,0.85132 0.10058,1.50313 0.26212,1.93031 1.49594,5.38481 2.26094,6.20845 1.86695,5.41068 0.35811,4.94804 -0.375,5.13579 -0.87496,6.2083 -1.62214,7.09222 -1.4157,5.35464 -1.46703,3.40247 10.04353,2.75674 0.73261,-5.71652 1.23776,-6.05755 1.25502,-5.04949 1.8398,-5.84495 2.79122,-5.03749 3.89176,-3.89498 4.57578,-2.97599 5.22961,-3.96988 4.76905,-5.13538 4.59858,-7.81044 7.51203,-15.19499 6.38554,-17.46577 2.23888,-9.14208 -0.28093,-2.79832 -2.23772,-0.81966 -2.0509,0.2263 -2.66889,0.47258 -1.46336,0.95124 -2.22067,1.26681 -2.32761,1.46648 -2.91157,1.1904 -3.23627,0.96083 -3.88729,1.34991 -3.43884,0.74845 -3.70342,0.4858 -4.26503,-0.34297 -4.67953,-0.86442 -3.52175,-1.55883 -3.12449,-1.30587 z"
           id="path14763"
           sodipodi:nodetypes="ccccccccccccccccccccccccccccccccccccccccccccccccccccc" /></g><g
         inkscape:groupmode="layer"
         id="layer9-6"
         inkscape:label="vinegar2"
         style="display:inline;enable-background:new"
         transform="matrix(0.41308384,0,0,0.40732251,276.66769,13.202007)"><path
           d="M 223.46402,105.88187 100.67141,73.0117 c -3.399712,-0.910061 -6.89337,1.108656 -7.802678,4.50857 l -13.234509,49.48394 c -0.909509,3.40061 1.108981,6.89487 4.509173,7.80594 l 36.456634,9.7685 c 3.40046,0.91113 6.89604,-1.10533 7.80972,-4.5051 l 0.13845,-0.51512 c 0.9137,-3.39977 4.4093,-5.41621 7.80976,-4.50505 l 25.38403,6.80162 c 3.39971,0.91096 5.41724,4.40544 4.50629,7.80515 l -0.13809,0.51519 c -0.91099,3.39974 1.10657,6.89427 4.50633,7.80521 l 36.31148,9.72963 c 3.39924,0.9108 6.89299,-1.10742 7.80224,-4.50707 l 13.24332,-49.51682 c 0.90943,-3.40035 -1.10939,-6.89423 -4.50954,-7.80442 z M 73.269728,150.79623 60.026417,200.31301 c -0.909386,3.40034 1.109449,6.89417 4.509575,7.80435 l 122.792608,32.8702 c 3.39969,0.91005 6.89332,-1.10865 7.80265,-4.50853 l 22.1742,-83.35935 c 0.90947,-3.40058 -10.04872,26.98059 -13.44887,26.0695 L 167.541,169.45844 c -3.39971,-0.91093 -6.89418,1.10662 -7.80512,4.50633 l -0.2896,1.0807 c -0.91094,3.39994 -4.40534,5.41791 -7.80543,4.50755 l -25.41542,-6.80517 c -3.39887,-0.91008 -5.41501,-4.40471 -4.50155,-7.80267 l 0.29234,-1.08739 c 0.91354,-3.39818 -1.10236,-6.89313 -4.50129,-7.80385 L 81.072017,146.2891 c -3.39927,-0.91083 -6.893071,1.10743 -7.802289,4.50713 z"
           fill="url(#a)"
           id="path15-0"
           style="display:inline;opacity:0.2;fill:#000000;fill-opacity:1;stroke-width:3.18648;enable-background:new"
           inkscape:label="vinegar2shadow"
           sodipodi:nodetypes="ccscccssccsscccccccccccccsccsssccc" /><path
           d="M 223.46402,104.88224 100.67141,72.012074 c -3.399712,-0.91006 -6.889911,1.109584 -7.802676,4.50857 L 72.67719,151.7106 c -0.909509,3.40061 4.959651,-6.65097 8.359841,-5.73989 l 36.229369,10.02651 c 3.40046,0.91113 3.12919,12.62536 4.05056,9.22767 l 7.23124,-26.66609 c 0.92138,-3.3977 4.4093,-5.41621 7.80976,-4.50505 l 25.38403,6.80162 c 3.39971,0.91096 5.41724,4.40544 4.50629,7.80515 l -0.13809,0.51519 c -0.91099,3.39974 1.10657,6.89427 4.50633,7.80521 l 36.31148,9.72963 c 3.39924,0.9108 6.89299,-1.10742 7.80224,-4.50707 l 13.24332,-49.51682 c 0.90943,-3.40035 -1.10939,-6.89423 -4.50954,-7.80442 z M 73.26973,149.7966 60.026419,199.31338 c -0.909386,3.40034 1.109449,6.89417 4.509575,7.80435 l 122.792606,32.8702 c 3.39969,0.91005 6.89332,-1.10865 7.80265,-4.50853 l 20.38439,-76.40473 c 0.90947,-3.40058 -4.57183,7.44905 -7.97198,6.53796 l -36.46511,-9.78015 c -3.39971,-0.91093 -3.31485,-13.34492 -4.21185,-9.9415 l -7.42042,28.15486 c -0.91094,3.39994 -4.40534,5.41791 -7.80543,4.50755 l -25.41542,-6.80517 c -3.39887,-0.91008 -5.41501,-4.40471 -4.50155,-7.80267 l 0.29234,-1.08739 c 0.91354,-3.39818 -1.10236,-6.89313 -4.50129,-7.80385 l -36.442911,-9.76484 c -3.39927,-0.91083 -6.893071,1.10743 -7.802289,4.50713 z"
           fill="url(#a)"
           id="path16-6"
           style="display:inline;fill:#ffffff;fill-opacity:1;stroke-width:3.18648;enable-background:new"
           inkscape:label="vinegar2"
           sodipodi:nodetypes="ccscccssccsscccccccccccccsccsssccc" /><path
           style="display:inline;fill:#990213;fill-opacity:0.964706;enable-background:new"
           d="m 159.70905,131.24161 4.29551,2.81163 3.74632,2.78811 1.9684,0.83441 1.88035,0.8797 1.6658,0.92078 2.27385,0.60751 h 1.61024 2.72434 l 2.48809,-0.003 2.74747,-0.25707 3.38592,-0.76954 2.53061,-1.12349 2.1358,-1.03766 3.01118,-1.82061 1.7356,-1.03337 1.72577,-1.08966 2.89933,-0.87111 1.78816,-0.34414 h 2.97647 l 2.78688,0.0445 0.92256,0.0911 1.11809,0.56246 1.03573,0.95893 0.5762,0.2283 4.88522,-18.67178 -2.91706,-2.51312 -5.20578,-2.59452 -3.53206,-1.74512 -5.13129,-2.09548 -3.666,-1.09747 -3.29638,-1.3246 -5.40818,-1.67554 -3.41448,-0.61677 -4.98779,-0.80052 -5.50398,-0.008 -3.81104,0.17678 -3.08323,0.95589 z"
           id="path14761-2" /><path
           style="display:inline;fill:#990213;fill-opacity:0.964706;enable-background:new"
           d="m 163.18671,141.4246 1.93896,1.7295 0.93818,1.86741 0.3475,2.03921 -1.3871,5.30819 -1.26216,4.67346 -1.01562,4.19438 -2.46221,9.22467 -1.29196,4.47431 -2.59053,2.90439 -2.36623,0.85132 0.10058,1.50313 0.26212,1.93031 1.49594,5.38481 2.26094,6.20845 1.86695,5.41068 0.35811,4.94804 -0.375,5.13579 -0.87496,6.2083 -1.62214,7.09222 -1.4157,5.35464 -1.46703,3.40247 10.04353,2.75674 0.73261,-5.71652 1.23776,-6.05755 1.25502,-5.04949 1.8398,-5.84495 2.79122,-5.03749 3.89176,-3.89498 4.57578,-2.97599 5.22961,-3.96988 4.76905,-5.13538 4.59858,-7.81044 7.51203,-15.19499 6.38554,-17.46577 2.23888,-9.14208 -0.28093,-2.79832 -2.23772,-0.81966 -2.0509,0.2263 -2.66889,0.47258 -1.46336,0.95124 -2.22067,1.26681 -2.32761,1.46648 -2.91157,1.1904 -3.23627,0.96083 -3.88729,1.34991 -3.43884,0.74845 -3.70342,0.4858 -4.26503,-0.34297 -4.67953,-0.86442 -3.52175,-1.55883 -3.12449,-1.30587 z"
           id="path14763-6"
           sodipodi:nodetypes="ccccccccccccccccccccccccccccccccccccccccccccccccccccc" /></g><g
         inkscape:groupmode="layer"
         id="layer9-6-1"
         inkscape:label="vinegar3"
         style="display:inline;enable-background:new"
         transform="matrix(0.29267836,0,0,0.29045106,277.76391,126.62702)"><path
           d="M 223.46402,105.88187 100.67141,73.0117 c -3.399712,-0.910061 -6.89337,1.108656 -7.802678,4.50857 l -13.234509,49.48394 c -0.909509,3.40061 1.108981,6.89487 4.509173,7.80594 l 36.456634,9.7685 c 3.40046,0.91113 6.89604,-1.10533 7.80972,-4.5051 l 0.13845,-0.51512 c 0.9137,-3.39977 4.4093,-5.41621 7.80976,-4.50505 l 25.38403,6.80162 c 3.39971,0.91096 5.41724,4.40544 4.50629,7.80515 l -0.13809,0.51519 c -0.91099,3.39974 1.10657,6.89427 4.50633,7.80521 l 36.31148,9.72963 c 3.39924,0.9108 6.89299,-1.10742 7.80224,-4.50707 l 13.24332,-49.51682 c 0.90943,-3.40035 -1.10939,-6.89423 -4.50954,-7.80442 z M 73.269728,150.79623 60.026417,200.31301 c -0.909386,3.40034 1.109449,6.89417 4.509575,7.80435 l 122.792608,32.8702 c 3.39969,0.91005 6.89332,-1.10865 7.80265,-4.50853 l 22.1742,-83.35935 c 0.90947,-3.40058 -10.04872,26.98059 -13.44887,26.0695 L 167.541,169.45844 c -3.39971,-0.91093 -6.89418,1.10662 -7.80512,4.50633 l -0.2896,1.0807 c -0.91094,3.39994 -4.40534,5.41791 -7.80543,4.50755 l -25.41542,-6.80517 c -3.39887,-0.91008 -5.41501,-4.40471 -4.50155,-7.80267 l 0.29234,-1.08739 c 0.91354,-3.39818 -1.10236,-6.89313 -4.50129,-7.80385 L 81.072017,146.2891 c -3.39927,-0.91083 -6.893071,1.10743 -7.802289,4.50713 z"
           fill="url(#a)"
           id="path15-0-8"
           style="display:inline;opacity:0.2;fill:#000000;fill-opacity:1;stroke-width:3.18648;enable-background:new"
           inkscape:label="vinegar3shadow"
           sodipodi:nodetypes="ccscccssccsscccccccccccccsccsssccc" /><path
           d="M 223.46402,104.88224 100.67141,72.012074 c -3.399712,-0.91006 -6.889911,1.109584 -7.802676,4.50857 L 72.67719,151.7106 c -0.909509,3.40061 4.959651,-6.65097 8.359841,-5.73989 l 36.229369,10.02651 c 3.40046,0.91113 3.12919,12.62536 4.05056,9.22767 l 7.23124,-26.66609 c 0.92138,-3.3977 4.4093,-5.41621 7.80976,-4.50505 l 25.38403,6.80162 c 3.39971,0.91096 5.41724,4.40544 4.50629,7.80515 l -0.13809,0.51519 c -0.91099,3.39974 1.10657,6.89427 4.50633,7.80521 l 36.31148,9.72963 c 3.39924,0.9108 6.89299,-1.10742 7.80224,-4.50707 l 13.24332,-49.51682 c 0.90943,-3.40035 -1.10939,-6.89423 -4.50954,-7.80442 z M 73.26973,149.7966 60.026419,199.31338 c -0.909386,3.40034 1.109449,6.89417 4.509575,7.80435 l 122.792606,32.8702 c 3.39969,0.91005 6.89332,-1.10865 7.80265,-4.50853 l 20.38439,-76.40473 c 0.90947,-3.40058 -4.57183,7.44905 -7.97198,6.53796 l -36.46511,-9.78015 c -3.39971,-0.91093 -3.31485,-13.34492 -4.21185,-9.9415 l -7.42042,28.15486 c -0.91094,3.39994 -4.40534,5.41791 -7.80543,4.50755 l -25.41542,-6.80517 c -3.39887,-0.91008 -5.41501,-4.40471 -4.50155,-7.80267 l 0.29234,-1.08739 c 0.91354,-3.39818 -1.10236,-6.89313 -4.50129,-7.80385 l -36.442911,-9.76484 c -3.39927,-0.91083 -6.893071,1.10743 -7.802289,4.50713 z"
           fill="url(#a)"
           id="path16-6-7"
           style="display:inline;fill:#ffffff;fill-opacity:1;stroke-width:3.18648;enable-background:new"
           inkscape:label="vinegar3"
           sodipodi:nodetypes="ccscccssccsscccccccccccccsccsssccc" /><path
           style="display:inline;fill:#990213;fill-opacity:0.964706;enable-background:new"
           d="m 159.70905,131.24161 4.29551,2.81163 3.74632,2.78811 1.9684,0.83441 1.88035,0.8797 1.6658,0.92078 2.27385,0.60751 h 1.61024 2.72434 l 2.48809,-0.003 2.74747,-0.25707 3.38592,-0.76954 2.53061,-1.12349 2.1358,-1.03766 3.01118,-1.82061 1.7356,-1.03337 1.72577,-1.08966 2.89933,-0.87111 1.78816,-0.34414 h 2.97647 l 2.78688,0.0445 0.92256,0.0911 1.11809,0.56246 1.03573,0.95893 0.5762,0.2283 4.88522,-18.67178 -2.91706,-2.51312 -5.20578,-2.59452 -3.53206,-1.74512 -5.13129,-2.09548 -3.666,-1.09747 -3.29638,-1.3246 -5.40818,-1.67554 -3.41448,-0.61677 -4.98779,-0.80052 -5.50398,-0.008 -3.81104,0.17678 -3.08323,0.95589 z"
           id="path14761-2-9" /><path
           style="display:inline;fill:#990213;fill-opacity:0.964706;enable-background:new"
           d="m 163.18671,141.4246 1.93896,1.7295 0.93818,1.86741 0.3475,2.03921 -1.3871,5.30819 -1.26216,4.67346 -1.01562,4.19438 -2.46221,9.22467 -1.29196,4.47431 -2.59053,2.90439 -2.36623,0.85132 0.10058,1.50313 0.26212,1.93031 1.49594,5.38481 2.26094,6.20845 1.86695,5.41068 0.35811,4.94804 -0.375,5.13579 -0.87496,6.2083 -1.62214,7.09222 -1.4157,5.35464 -1.46703,3.40247 10.04353,2.75674 0.73261,-5.71652 1.23776,-6.05755 1.25502,-5.04949 1.8398,-5.84495 2.79122,-5.03749 3.89176,-3.89498 4.57578,-2.97599 5.22961,-3.96988 4.76905,-5.13538 4.59858,-7.81044 7.51203,-15.19499 6.38554,-17.46577 2.23888,-9.14208 -0.28093,-2.79832 -2.23772,-0.81966 -2.0509,0.2263 -2.66889,0.47258 -1.46336,0.95124 -2.22067,1.26681 -2.32761,1.46648 -2.91157,1.1904 -3.23627,0.96083 -3.88729,1.34991 -3.43884,0.74845 -3.70342,0.4858 -4.26503,-0.34297 -4.67953,-0.86442 -3.52175,-1.55883 -3.12449,-1.30587 z"
           id="path14763-6-2"
           sodipodi:nodetypes="ccccccccccccccccccccccccccccccccccccccccccccccccccccc" /></g><g
         inkscape:groupmode="layer"
         id="layer9-6-1-0"
         inkscape:label="vinegar4"
         style="display:inline;enable-background:new"
         transform="matrix(0.19934044,0,0,0.19788036,283.33628,213.06002)"><path
           d="M 223.46402,105.88187 100.67141,73.0117 c -3.399712,-0.910061 -6.89337,1.108656 -7.802678,4.50857 l -13.234509,49.48394 c -0.909509,3.40061 1.108981,6.89487 4.509173,7.80594 l 36.456634,9.7685 c 3.40046,0.91113 6.89604,-1.10533 7.80972,-4.5051 l 0.13845,-0.51512 c 0.9137,-3.39977 4.4093,-5.41621 7.80976,-4.50505 l 25.38403,6.80162 c 3.39971,0.91096 5.41724,4.40544 4.50629,7.80515 l -0.13809,0.51519 c -0.91099,3.39974 1.10657,6.89427 4.50633,7.80521 l 36.31148,9.72963 c 3.39924,0.9108 6.89299,-1.10742 7.80224,-4.50707 l 13.24332,-49.51682 c 0.90943,-3.40035 -1.10939,-6.89423 -4.50954,-7.80442 z M 73.269728,150.79623 60.026417,200.31301 c -0.909386,3.40034 1.109449,6.89417 4.509575,7.80435 l 122.792608,32.8702 c 3.39969,0.91005 6.89332,-1.10865 7.80265,-4.50853 l 22.1742,-83.35935 c 0.90947,-3.40058 -10.04872,26.98059 -13.44887,26.0695 L 167.541,169.45844 c -3.39971,-0.91093 -6.89418,1.10662 -7.80512,4.50633 l -0.2896,1.0807 c -0.91094,3.39994 -4.40534,5.41791 -7.80543,4.50755 l -25.41542,-6.80517 c -3.39887,-0.91008 -5.41501,-4.40471 -4.50155,-7.80267 l 0.29234,-1.08739 c 0.91354,-3.39818 -1.10236,-6.89313 -4.50129,-7.80385 L 81.072017,146.2891 c -3.39927,-0.91083 -6.893071,1.10743 -7.802289,4.50713 z"
           fill="url(#a)"
           id="path15-0-8-2"
           style="display:inline;opacity:0.2;fill:#000000;fill-opacity:1;stroke-width:3.18648;enable-background:new"
           inkscape:label="vinegar4shadow"
           sodipodi:nodetypes="ccscccssccsscccccccccccccsccsssccc" /><path
           d="M 223.46402,104.88224 100.67141,72.012074 c -3.399712,-0.91006 -6.889911,1.109584 -7.802676,4.50857 L 72.67719,151.7106 c -0.909509,3.40061 4.959651,-6.65097 8.359841,-5.73989 l 36.229369,10.02651 c 3.40046,0.91113 3.12919,12.62536 4.05056,9.22767 l 7.23124,-26.66609 c 0.92138,-3.3977 4.4093,-5.41621 7.80976,-4.50505 l 25.38403,6.80162 c 3.39971,0.91096 5.41724,4.40544 4.50629,7.80515 l -0.13809,0.51519 c -0.91099,3.39974 1.10657,6.89427 4.50633,7.80521 l 36.31148,9.72963 c 3.39924,0.9108 6.89299,-1.10742 7.80224,-4.50707 l 13.24332,-49.51682 c 0.90943,-3.40035 -1.10939,-6.89423 -4.50954,-7.80442 z M 73.26973,149.7966 60.026419,199.31338 c -0.909386,3.40034 1.109449,6.89417 4.509575,7.80435 l 122.792606,32.8702 c 3.39969,0.91005 6.89332,-1.10865 7.80265,-4.50853 l 20.38439,-76.40473 c 0.90947,-3.40058 -4.57183,7.44905 -7.97198,6.53796 l -36.46511,-9.78015 c -3.39971,-0.91093 -3.31485,-13.34492 -4.21185,-9.9415 l -7.42042,28.15486 c -0.91094,3.39994 -4.40534,5.41791 -7.80543,4.50755 l -25.41542,-6.80517 c -3.39887,-0.91008 -5.41501,-4.40471 -4.50155,-7.80267 l 0.29234,-1.08739 c 0.91354,-3.39818 -1.10236,-6.89313 -4.50129,-7.80385 l -36.442911,-9.76484 c -3.39927,-0.91083 -6.893071,1.10743 -7.802289,4.50713 z"
           fill="url(#a)"
           id="path16-6-7-3"
           style="display:inline;fill:#ffffff;fill-opacity:1;stroke-width:3.18648;enable-background:new"
           inkscape:label="vinegar4"
           sodipodi:nodetypes="ccscccssccsscccccccccccccsccsssccc" /><path
           style="display:inline;fill:#990213;fill-opacity:0.964706;enable-background:new"
           d="m 159.70905,131.24161 4.29551,2.81163 3.74632,2.78811 1.9684,0.83441 1.88035,0.8797 1.6658,0.92078 2.27385,0.60751 h 1.61024 2.72434 l 2.48809,-0.003 2.74747,-0.25707 3.38592,-0.76954 2.53061,-1.12349 2.1358,-1.03766 3.01118,-1.82061 1.7356,-1.03337 1.72577,-1.08966 2.89933,-0.87111 1.78816,-0.34414 h 2.97647 l 2.78688,0.0445 0.92256,0.0911 1.11809,0.56246 1.03573,0.95893 0.5762,0.2283 4.88522,-18.67178 -2.91706,-2.51312 -5.20578,-2.59452 -3.53206,-1.74512 -5.13129,-2.09548 -3.666,-1.09747 -3.29638,-1.3246 -5.40818,-1.67554 -3.41448,-0.61677 -4.98779,-0.80052 -5.50398,-0.008 -3.81104,0.17678 -3.08323,0.95589 z"
           id="path14761-2-9-7" /><path
           style="display:inline;fill:#990213;fill-opacity:0.964706;enable-background:new"
           d="m 163.18671,141.4246 1.93896,1.7295 0.93818,1.86741 0.3475,2.03921 -1.3871,5.30819 -1.26216,4.67346 -1.01562,4.19438 -2.46221,9.22467 -1.29196,4.47431 -2.59053,2.90439 -2.36623,0.85132 0.10058,1.50313 0.26212,1.93031 1.49594,5.38481 2.26094,6.20845 1.86695,5.41068 0.35811,4.94804 -0.375,5.13579 -0.87496,6.2083 -1.62214,7.09222 -1.4157,5.35464 -1.46703,3.40247 10.04353,2.75674 0.73261,-5.71652 1.23776,-6.05755 1.25502,-5.04949 1.8398,-5.84495 2.79122,-5.03749 3.89176,-3.89498 4.57578,-2.97599 5.22961,-3.96988 4.76905,-5.13538 4.59858,-7.81044 7.51203,-15.19499 6.38554,-17.46577 2.23888,-9.14208 -0.28093,-2.79832 -2.23772,-0.81966 -2.0509,0.2263 -2.66889,0.47258 -1.46336,0.95124 -2.22067,1.26681 -2.32761,1.46648 -2.91157,1.1904 -3.23627,0.96083 -3.88729,1.34991 -3.43884,0.74845 -3.70342,0.4858 -4.26503,-0.34297 -4.67953,-0.86442 -3.52175,-1.55883 -3.12449,-1.30587 z"
           id="path14763-6-2-5"
           sodipodi:nodetypes="ccccccccccccccccccccccccccccccccccccccccccccccccccccc" /></g><g
         inkscape:groupmode="layer"
         id="g30199"
         inkscape:label="vinegar5"
         style="display:inline;enable-background:new"
         transform="matrix(0.14222364,0,0,0.14005896,411.75063,46.084793)"><path
           d="M 223.46402,105.88187 100.67141,73.0117 c -3.399712,-0.910061 -6.89337,1.108656 -7.802678,4.50857 l -13.234509,49.48394 c -0.909509,3.40061 1.108981,6.89487 4.509173,7.80594 l 36.456634,9.7685 c 3.40046,0.91113 6.89604,-1.10533 7.80972,-4.5051 l 0.13845,-0.51512 c 0.9137,-3.39977 4.4093,-5.41621 7.80976,-4.50505 l 25.38403,6.80162 c 3.39971,0.91096 5.41724,4.40544 4.50629,7.80515 l -0.13809,0.51519 c -0.91099,3.39974 1.10657,6.89427 4.50633,7.80521 l 36.31148,9.72963 c 3.39924,0.9108 6.89299,-1.10742 7.80224,-4.50707 l 13.24332,-49.51682 c 0.90943,-3.40035 -1.10939,-6.89423 -4.50954,-7.80442 z M 73.269728,150.79623 60.026417,200.31301 c -0.909386,3.40034 1.109449,6.89417 4.509575,7.80435 l 122.792608,32.8702 c 3.39969,0.91005 6.89332,-1.10865 7.80265,-4.50853 l 22.1742,-83.35935 c 0.90947,-3.40058 -10.04872,26.98059 -13.44887,26.0695 L 167.541,169.45844 c -3.39971,-0.91093 -6.89418,1.10662 -7.80512,4.50633 l -0.2896,1.0807 c -0.91094,3.39994 -4.40534,5.41791 -7.80543,4.50755 l -25.41542,-6.80517 c -3.39887,-0.91008 -5.41501,-4.40471 -4.50155,-7.80267 l 0.29234,-1.08739 c 0.91354,-3.39818 -1.10236,-6.89313 -4.50129,-7.80385 L 81.072017,146.2891 c -3.39927,-0.91083 -6.893071,1.10743 -7.802289,4.50713 z"
           fill="url(#a)"
           id="path30191"
           style="display:inline;opacity:0.2;fill:#000000;fill-opacity:1;stroke-width:3.18648;enable-background:new"
           inkscape:label="vinegar5shadow"
           sodipodi:nodetypes="ccscccssccsscccccccccccccsccsssccc" /><path
           d="M 223.46402,104.88224 100.67141,72.012074 c -3.399712,-0.91006 -6.889911,1.109584 -7.802676,4.50857 L 72.67719,151.7106 c -0.909509,3.40061 4.959651,-6.65097 8.359841,-5.73989 l 36.229369,10.02651 c 3.40046,0.91113 3.12919,12.62536 4.05056,9.22767 l 7.23124,-26.66609 c 0.92138,-3.3977 4.4093,-5.41621 7.80976,-4.50505 l 25.38403,6.80162 c 3.39971,0.91096 5.41724,4.40544 4.50629,7.80515 l -0.13809,0.51519 c -0.91099,3.39974 1.10657,6.89427 4.50633,7.80521 l 36.31148,9.72963 c 3.39924,0.9108 6.89299,-1.10742 7.80224,-4.50707 l 13.24332,-49.51682 c 0.90943,-3.40035 -1.10939,-6.89423 -4.50954,-7.80442 z M 73.26973,149.7966 60.026419,199.31338 c -0.909386,3.40034 1.109449,6.89417 4.509575,7.80435 l 122.792606,32.8702 c 3.39969,0.91005 6.89332,-1.10865 7.80265,-4.50853 l 20.38439,-76.40473 c 0.90947,-3.40058 -4.57183,7.44905 -7.97198,6.53796 l -36.46511,-9.78015 c -3.39971,-0.91093 -3.31485,-13.34492 -4.21185,-9.9415 l -7.42042,28.15486 c -0.91094,3.39994 -4.40534,5.41791 -7.80543,4.50755 l -25.41542,-6.80517 c -3.39887,-0.91008 -5.41501,-4.40471 -4.50155,-7.80267 l 0.29234,-1.08739 c 0.91354,-3.39818 -1.10236,-6.89313 -4.50129,-7.80385 l -36.442911,-9.76484 c -3.39927,-0.91083 -6.893071,1.10743 -7.802289,4.50713 z"
           fill="url(#a)"
           id="path30193"
           style="display:inline;fill:#ffffff;fill-opacity:1;stroke-width:3.18648;enable-background:new"
           inkscape:label="vinegar5"
           sodipodi:nodetypes="ccscccssccsscccccccccccccsccsssccc" /><path
           style="display:inline;fill:#990213;fill-opacity:0.964706;enable-background:new"
           d="m 159.70905,131.24161 4.29551,2.81163 3.74632,2.78811 1.9684,0.83441 1.88035,0.8797 1.6658,0.92078 2.27385,0.60751 h 1.61024 2.72434 l 2.48809,-0.003 2.74747,-0.25707 3.38592,-0.76954 2.53061,-1.12349 2.1358,-1.03766 3.01118,-1.82061 1.7356,-1.03337 1.72577,-1.08966 2.89933,-0.87111 1.78816,-0.34414 h 2.97647 l 2.78688,0.0445 0.92256,0.0911 1.11809,0.56246 1.03573,0.95893 0.5762,0.2283 4.88522,-18.67178 -2.91706,-2.51312 -5.20578,-2.59452 -3.53206,-1.74512 -5.13129,-2.09548 -3.666,-1.09747 -3.29638,-1.3246 -5.40818,-1.67554 -3.41448,-0.61677 -4.98779,-0.80052 -5.50398,-0.008 -3.81104,0.17678 -3.08323,0.95589 z"
           id="path30195" /><path
           style="display:inline;fill:#990213;fill-opacity:0.964706;enable-background:new"
           d="m 163.18671,141.4246 1.93896,1.7295 0.93818,1.86741 0.3475,2.03921 -1.3871,5.30819 -1.26216,4.67346 -1.01562,4.19438 -2.46221,9.22467 -1.29196,4.47431 -2.59053,2.90439 -2.36623,0.85132 0.10058,1.50313 0.26212,1.93031 1.49594,5.38481 2.26094,6.20845 1.86695,5.41068 0.35811,4.94804 -0.375,5.13579 -0.87496,6.2083 -1.62214,7.09222 -1.4157,5.35464 -1.46703,3.40247 10.04353,2.75674 0.73261,-5.71652 1.23776,-6.05755 1.25502,-5.04949 1.8398,-5.84495 2.79122,-5.03749 3.89176,-3.89498 4.57578,-2.97599 5.22961,-3.96988 4.76905,-5.13538 4.59858,-7.81044 7.51203,-15.19499 6.38554,-17.46577 2.23888,-9.14208 -0.28093,-2.79832 -2.23772,-0.81966 -2.0509,0.2263 -2.66889,0.47258 -1.46336,0.95124 -2.22067,1.26681 -2.32761,1.46648 -2.91157,1.1904 -3.23627,0.96083 -3.88729,1.34991 -3.43884,0.74845 -3.70342,0.4858 -4.26503,-0.34297 -4.67953,-0.86442 -3.52175,-1.55883 -3.12449,-1.30587 z"
           id="path30197"
           sodipodi:nodetypes="ccccccccccccccccccccccccccccccccccccccccccccccccccccc" /></g><g
         inkscape:groupmode="layer"
         id="g30209"
         inkscape:label="vinegar6"
         style="display:inline;enable-background:new"
         transform="matrix(0.09278107,0,0,0.09197142,414.42687,97.480597)"><path
           d="M 223.46402,105.88187 100.67141,73.0117 c -3.399712,-0.910061 -6.89337,1.108656 -7.802678,4.50857 l -13.234509,49.48394 c -0.909509,3.40061 1.108981,6.89487 4.509173,7.80594 l 36.456634,9.7685 c 3.40046,0.91113 6.89604,-1.10533 7.80972,-4.5051 l 0.13845,-0.51512 c 0.9137,-3.39977 4.4093,-5.41621 7.80976,-4.50505 l 25.38403,6.80162 c 3.39971,0.91096 5.41724,4.40544 4.50629,7.80515 l -0.13809,0.51519 c -0.91099,3.39974 1.10657,6.89427 4.50633,7.80521 l 36.31148,9.72963 c 3.39924,0.9108 6.89299,-1.10742 7.80224,-4.50707 l 13.24332,-49.51682 c 0.90943,-3.40035 -1.10939,-6.89423 -4.50954,-7.80442 z M 73.269728,150.79623 60.026417,200.31301 c -0.909386,3.40034 1.109449,6.89417 4.509575,7.80435 l 122.792608,32.8702 c 3.39969,0.91005 6.89332,-1.10865 7.80265,-4.50853 l 22.1742,-83.35935 c 0.90947,-3.40058 -10.04872,26.98059 -13.44887,26.0695 L 167.541,169.45844 c -3.39971,-0.91093 -6.89418,1.10662 -7.80512,4.50633 l -0.2896,1.0807 c -0.91094,3.39994 -4.40534,5.41791 -7.80543,4.50755 l -25.41542,-6.80517 c -3.39887,-0.91008 -5.41501,-4.40471 -4.50155,-7.80267 l 0.29234,-1.08739 c 0.91354,-3.39818 -1.10236,-6.89313 -4.50129,-7.80385 L 81.072017,146.2891 c -3.39927,-0.91083 -6.893071,1.10743 -7.802289,4.50713 z"
           fill="url(#a)"
           id="path30201"
           style="display:inline;opacity:0.2;fill:#000000;fill-opacity:1;stroke-width:3.18648;enable-background:new"
           inkscape:label="vinegar6shadow"
           sodipodi:nodetypes="ccscccssccsscccccccccccccsccsssccc" /><path
           d="M 223.46402,104.88224 100.67141,72.012074 c -3.399712,-0.91006 -6.889911,1.109584 -7.802676,4.50857 L 72.67719,151.7106 c -0.909509,3.40061 4.959651,-6.65097 8.359841,-5.73989 l 36.229369,10.02651 c 3.40046,0.91113 3.12919,12.62536 4.05056,9.22767 l 7.23124,-26.66609 c 0.92138,-3.3977 4.4093,-5.41621 7.80976,-4.50505 l 25.38403,6.80162 c 3.39971,0.91096 5.41724,4.40544 4.50629,7.80515 l -0.13809,0.51519 c -0.91099,3.39974 1.10657,6.89427 4.50633,7.80521 l 36.31148,9.72963 c 3.39924,0.9108 6.89299,-1.10742 7.80224,-4.50707 l 13.24332,-49.51682 c 0.90943,-3.40035 -1.10939,-6.89423 -4.50954,-7.80442 z M 73.26973,149.7966 60.026419,199.31338 c -0.909386,3.40034 1.109449,6.89417 4.509575,7.80435 l 122.792606,32.8702 c 3.39969,0.91005 6.89332,-1.10865 7.80265,-4.50853 l 20.38439,-76.40473 c 0.90947,-3.40058 -4.57183,7.44905 -7.97198,6.53796 l -36.46511,-9.78015 c -3.39971,-0.91093 -3.31485,-13.34492 -4.21185,-9.9415 l -7.42042,28.15486 c -0.91094,3.39994 -4.40534,5.41791 -7.80543,4.50755 l -25.41542,-6.80517 c -3.39887,-0.91008 -5.41501,-4.40471 -4.50155,-7.80267 l 0.29234,-1.08739 c 0.91354,-3.39818 -1.10236,-6.89313 -4.50129,-7.80385 l -36.442911,-9.76484 c -3.39927,-0.91083 -6.893071,1.10743 -7.802289,4.50713 z"
           fill="url(#a)"
           id="path30203"
           style="display:inline;fill:#ffffff;fill-opacity:1;stroke-width:3.18648;enable-background:new"
           inkscape:label="vinegar6"
           sodipodi:nodetypes="ccscccssccsscccccccccccccsccsssccc" /><path
           style="display:inline;fill:#990213;fill-opacity:0.964706;enable-background:new"
           d="m 159.70905,131.24161 4.29551,2.81163 3.74632,2.78811 1.9684,0.83441 1.88035,0.8797 1.6658,0.92078 2.27385,0.60751 h 1.61024 2.72434 l 2.48809,-0.003 2.74747,-0.25707 3.38592,-0.76954 2.53061,-1.12349 2.1358,-1.03766 3.01118,-1.82061 1.7356,-1.03337 1.72577,-1.08966 2.89933,-0.87111 1.78816,-0.34414 h 2.97647 l 2.78688,0.0445 0.92256,0.0911 1.11809,0.56246 1.03573,0.95893 0.5762,0.2283 4.88522,-18.67178 -2.91706,-2.51312 -5.20578,-2.59452 -3.53206,-1.74512 -5.13129,-2.09548 -3.666,-1.09747 -3.29638,-1.3246 -5.40818,-1.67554 -3.41448,-0.61677 -4.98779,-0.80052 -5.50398,-0.008 -3.81104,0.17678 -3.08323,0.95589 z"
           id="path30205" /><path
           style="display:inline;fill:#990213;fill-opacity:0.964706;enable-background:new"
           d="m 163.18671,141.4246 1.93896,1.7295 0.93818,1.86741 0.3475,2.03921 -1.3871,5.30819 -1.26216,4.67346 -1.01562,4.19438 -2.46221,9.22467 -1.29196,4.47431 -2.59053,2.90439 -2.36623,0.85132 0.10058,1.50313 0.26212,1.93031 1.49594,5.38481 2.26094,6.20845 1.86695,5.41068 0.35811,4.94804 -0.375,5.13579 -0.87496,6.2083 -1.62214,7.09222 -1.4157,5.35464 -1.46703,3.40247 10.04353,2.75674 0.73261,-5.71652 1.23776,-6.05755 1.25502,-5.04949 1.8398,-5.84495 2.79122,-5.03749 3.89176,-3.89498 4.57578,-2.97599 5.22961,-3.96988 4.76905,-5.13538 4.59858,-7.81044 7.51203,-15.19499 6.38554,-17.46577 2.23888,-9.14208 -0.28093,-2.79832 -2.23772,-0.81966 -2.0509,0.2263 -2.66889,0.47258 -1.46336,0.95124 -2.22067,1.26681 -2.32761,1.46648 -2.91157,1.1904 -3.23627,0.96083 -3.88729,1.34991 -3.43884,0.74845 -3.70342,0.4858 -4.26503,-0.34297 -4.67953,-0.86442 -3.52175,-1.55883 -3.12449,-1.30587 z"
           id="path30207"
           sodipodi:nodetypes="ccccccccccccccccccccccccccccccccccccccccccccccccccccc" /></g><g
         inkscape:groupmode="layer"
         id="g30219"
         inkscape:label="vinegar7"
         style="display:inline;enable-background:new"
         transform="matrix(0.06775189,0,0,0.06741064,414.26998,137.5654)"><path
           d="M 223.46402,105.88187 100.67141,73.0117 c -3.399712,-0.910061 -6.89337,1.108656 -7.802678,4.50857 l -13.234509,49.48394 c -0.909509,3.40061 1.108981,6.89487 4.509173,7.80594 l 36.456634,9.7685 c 3.40046,0.91113 6.89604,-1.10533 7.80972,-4.5051 l 0.13845,-0.51512 c 0.9137,-3.39977 4.4093,-5.41621 7.80976,-4.50505 l 25.38403,6.80162 c 3.39971,0.91096 5.41724,4.40544 4.50629,7.80515 l -0.13809,0.51519 c -0.91099,3.39974 1.10657,6.89427 4.50633,7.80521 l 36.31148,9.72963 c 3.39924,0.9108 6.89299,-1.10742 7.80224,-4.50707 l 13.24332,-49.51682 c 0.90943,-3.40035 -1.10939,-6.89423 -4.50954,-7.80442 z M 73.269728,150.79623 60.026417,200.31301 c -0.909386,3.40034 1.109449,6.89417 4.509575,7.80435 l 122.792608,32.8702 c 3.39969,0.91005 6.89332,-1.10865 7.80265,-4.50853 l 22.1742,-83.35935 c 0.90947,-3.40058 -10.04872,26.98059 -13.44887,26.0695 L 167.541,169.45844 c -3.39971,-0.91093 -6.89418,1.10662 -7.80512,4.50633 l -0.2896,1.0807 c -0.91094,3.39994 -4.40534,5.41791 -7.80543,4.50755 l -25.41542,-6.80517 c -3.39887,-0.91008 -5.41501,-4.40471 -4.50155,-7.80267 l 0.29234,-1.08739 c 0.91354,-3.39818 -1.10236,-6.89313 -4.50129,-7.80385 L 81.072017,146.2891 c -3.39927,-0.91083 -6.893071,1.10743 -7.802289,4.50713 z"
           fill="url(#a)"
           id="path30211"
           style="display:inline;opacity:0.2;fill:#000000;fill-opacity:1;stroke-width:3.18648;enable-background:new"
           inkscape:label="vinegar7shadow"
           sodipodi:nodetypes="ccscccssccsscccccccccccccsccsssccc" /><path
           d="M 223.46402,104.88224 100.67141,72.012074 c -3.399712,-0.91006 -6.889911,1.109584 -7.802676,4.50857 L 72.67719,151.7106 c -0.909509,3.40061 4.959651,-6.65097 8.359841,-5.73989 l 36.229369,10.02651 c 3.40046,0.91113 3.12919,12.62536 4.05056,9.22767 l 7.23124,-26.66609 c 0.92138,-3.3977 4.4093,-5.41621 7.80976,-4.50505 l 25.38403,6.80162 c 3.39971,0.91096 5.41724,4.40544 4.50629,7.80515 l -0.13809,0.51519 c -0.91099,3.39974 1.10657,6.89427 4.50633,7.80521 l 36.31148,9.72963 c 3.39924,0.9108 6.89299,-1.10742 7.80224,-4.50707 l 13.24332,-49.51682 c 0.90943,-3.40035 -1.10939,-6.89423 -4.50954,-7.80442 z M 73.26973,149.7966 60.026419,199.31338 c -0.909386,3.40034 1.109449,6.89417 4.509575,7.80435 l 122.792606,32.8702 c 3.39969,0.91005 6.89332,-1.10865 7.80265,-4.50853 l 20.38439,-76.40473 c 0.90947,-3.40058 -4.57183,7.44905 -7.97198,6.53796 l -36.46511,-9.78015 c -3.39971,-0.91093 -3.31485,-13.34492 -4.21185,-9.9415 l -7.42042,28.15486 c -0.91094,3.39994 -4.40534,5.41791 -7.80543,4.50755 l -25.41542,-6.80517 c -3.39887,-0.91008 -5.41501,-4.40471 -4.50155,-7.80267 l 0.29234,-1.08739 c 0.91354,-3.39818 -1.10236,-6.89313 -4.50129,-7.80385 l -36.442911,-9.76484 c -3.39927,-0.91083 -6.893071,1.10743 -7.802289,4.50713 z"
           fill="url(#a)"
           id="path30213"
           style="display:inline;fill:#ffffff;fill-opacity:1;stroke-width:3.18648;enable-background:new"
           inkscape:label="vinegar7"
           sodipodi:nodetypes="ccscccssccsscccccccccccccsccsssccc" /><path
           style="display:inline;fill:#990213;fill-opacity:0.964706;enable-background:new"
           d="m 159.70905,131.24161 4.29551,2.81163 3.74632,2.78811 1.9684,0.83441 1.88035,0.8797 1.6658,0.92078 2.27385,0.60751 h 1.61024 2.72434 l 2.48809,-0.003 2.74747,-0.25707 3.38592,-0.76954 2.53061,-1.12349 2.1358,-1.03766 3.01118,-1.82061 1.7356,-1.03337 1.72577,-1.08966 2.89933,-0.87111 1.78816,-0.34414 h 2.97647 l 2.78688,0.0445 0.92256,0.0911 1.11809,0.56246 1.03573,0.95893 0.5762,0.2283 4.88522,-18.67178 -2.91706,-2.51312 -5.20578,-2.59452 -3.53206,-1.74512 -5.13129,-2.09548 -3.666,-1.09747 -3.29638,-1.3246 -5.40818,-1.67554 -3.41448,-0.61677 -4.98779,-0.80052 -5.50398,-0.008 -3.81104,0.17678 -3.08323,0.95589 z"
           id="path30215" /><path
           style="display:inline;fill:#990213;fill-opacity:0.964706;enable-background:new"
           d="m 163.18671,141.4246 1.93896,1.7295 0.93818,1.86741 0.3475,2.03921 -1.3871,5.30819 -1.26216,4.67346 -1.01562,4.19438 -2.46221,9.22467 -1.29196,4.47431 -2.59053,2.90439 -2.36623,0.85132 0.10058,1.50313 0.26212,1.93031 1.49594,5.38481 2.26094,6.20845 1.86695,5.41068 0.35811,4.94804 -0.375,5.13579 -0.87496,6.2083 -1.62214,7.09222 -1.4157,5.35464 -1.46703,3.40247 10.04353,2.75674 0.73261,-5.71652 1.23776,-6.05755 1.25502,-5.04949 1.8398,-5.84495 2.79122,-5.03749 3.89176,-3.89498 4.57578,-2.97599 5.22961,-3.96988 4.76905,-5.13538 4.59858,-7.81044 7.51203,-15.19499 6.38554,-17.46577 2.23888,-9.14208 -0.28093,-2.79832 -2.23772,-0.81966 -2.0509,0.2263 -2.66889,0.47258 -1.46336,0.95124 -2.22067,1.26681 -2.32761,1.46648 -2.91157,1.1904 -3.23627,0.96083 -3.88729,1.34991 -3.43884,0.74845 -3.70342,0.4858 -4.26503,-0.34297 -4.67953,-0.86442 -3.52175,-1.55883 -3.12449,-1.30587 z"
           id="path30217"
           sodipodi:nodetypes="ccccccccccccccccccccccccccccccccccccccccccccccccccccc" /></g></g><g
       inkscape:groupmode="layer"
       id="layer5"
       inkscape:label="Highlights"
       style="display:inline"
       sodipodi:insensitive="true"><path
         style="opacity:0.12999998;color:#bebebe;fill:#ffffff;fill-opacity:1;fill-rule:nonzero;stroke:none;stroke-width:0;marker:none;visibility:visible;display:inline;overflow:visible;enable-background:accumulate"
         d="M 84,47 C 56.836703,47 35,68.836703 35,96 l 0,1 C 35,69.836703 56.836703,48 84,48 l 120,0 c 27.1633,0 49,21.836703 49,49 l 0,-1 C 253,68.836703 231.1633,47 204,47 L 84,47 z"
         id="rect3894"
         inkscape:connector-curvature="0" /><path
         style="opacity:0.12999998;color:#bebebe;fill:#ffffff;fill-opacity:1;fill-rule:nonzero;stroke:none;stroke-width:0;marker:none;visibility:visible;display:inline;overflow:visible;enable-background:accumulate"
         d="m 419,141 c -1.1253,0 -2,0.8747 -2,2 l 0,1 c 0,-1.1253 0.8747,-2 2,-2 l 10,0 c 1.1253,0 2,0.8747 2,2 l 0,-1 c 0,-1.1253 -0.8747,-2 -2,-2 l -10,0 z"
         id="rect3896"
         inkscape:connector-curvature="0" /><path
         style="opacity:0.12999998;color:#bebebe;fill:#ffffff;fill-opacity:1;fill-rule:nonzero;stroke:none;stroke-width:0;marker:none;visibility:visible;display:inline;overflow:visible;enable-background:accumulate"
         d="m 422,102 c -2.2333,0 -4,1.7667 -4,4 l 0,1 c 0,-2.2333 1.7667,-4 4,-4 l 12,0 c 2.2333,0 4,1.7667 4,4 l 0,-1 c 0,-2.2333 -1.7667,-4 -4,-4 l -12,0 z"
         id="rect3898"
         inkscape:connector-curvature="0" /><path
         style="opacity:0.12999998;color:#bebebe;fill:#ffffff;fill-opacity:1;fill-rule:nonzero;stroke:none;stroke-width:0;marker:none;visibility:visible;display:inline;overflow:visible;enable-background:accumulate"
         d="m 424,54 c -3.3413,0 -6,2.658703 -6,6 l 0,1 c 0,-3.341297 2.6587,-6 6,-6 l 16,0 c 3.3413,0 6,2.658703 6,6 l 0,-1 c 0,-3.341297 -2.6587,-6 -6,-6 l -16,0 z"
         id="rect3900"
         inkscape:connector-curvature="0" /><path
         style="opacity:0.12999998;color:#bebebe;fill:#ffffff;fill-opacity:1;fill-rule:nonzero;stroke:none;stroke-width:0;marker:none;visibility:visible;display:inline;overflow:visible;enable-background:accumulate"
         d="m 300,224 c -4.4493,0 -8,3.5507 -8,8 l 0,1 c 0,-4.4493 3.5507,-8 8,-8 l 24,0 c 4.4493,0 8,3.5507 8,8 l 0,-1 c 0,-4.4493 -3.5507,-8 -8,-8 l -24,0 z"
         id="rect3902"
         inkscape:connector-curvature="0" /><path
         style="opacity:0.12999998;color:#bebebe;fill:#ffffff;fill-opacity:1;fill-rule:nonzero;stroke:none;stroke-width:0;marker:none;visibility:visible;display:inline;overflow:visible;enable-background:accumulate"
         d="m 310,33 c -9.4353,0 -17,7.564703 -17,17 l 0,1 c 0,-9.435297 7.5647,-17 17,-17 l 52,0 c 9.4353,0 17,7.564703 17,17 l 0,-1 c 0,-9.435297 -7.5647,-17 -17,-17 l -52,0 z"
         id="rect3904"
         inkscape:connector-curvature="0" /><path
         style="opacity:0.12999998;color:#bebebe;fill:#ffffff;fill-opacity:1;fill-rule:nonzero;stroke:none;stroke-width:0;marker:none;visibility:visible;display:inline;overflow:visible;enable-background:accumulate"
         d="m 302.5,143 c -6.3883,0 -11.5,5.1117 -11.5,11.5 l 0,1 c 0,-6.3883 5.1117,-11.5 11.5,-11.5 l 35,0 c 6.3883,0 11.5,5.1117 11.5,11.5 l 0,-1 c 0,-6.3883 -5.1117,-11.5 -11.5,-11.5 l -35,0 z"
         id="rect3906"
         inkscape:connector-curvature="0" /><path
         id="path4085"
         d="m 204,266 c 27.1633,0 49,-21.8367 49,-49 l 0,-1 c 0,27.1633 -21.8367,49 -49,49 L 84,265 C 56.8367,265 35,243.1633 35,216 l 0,1 c 0,27.1633 21.8367,49 49,49 l 120,0 z"
         style="opacity:0.5;color:#bebebe;fill:#000000;fill-opacity:1;fill-rule:nonzero;stroke:none;stroke-width:0;marker:none;visibility:visible;display:inline;overflow:visible;enable-background:accumulate"
         inkscape:connector-curvature="0" /><path
         id="path4087"
         d="m 429,156 c 1.1253,0 2,-0.8747 2,-2 l 0,-1 c 0,1.1253 -0.8747,2 -2,2 l -10,0 c -1.1253,0 -2,-0.8747 -2,-2 l 0,1 c 0,1.1253 0.8747,2 2,2 l 10,0 z"
         style="opacity:0.3;color:#bebebe;fill:#000000;fill-opacity:1;fill-rule:nonzero;stroke:none;stroke-width:0;marker:none;visibility:visible;display:inline;overflow:visible;enable-background:accumulate"
         inkscape:connector-curvature="0" /><path
         id="path4089"
         d="m 434,123 c 2.2333,0 4,-1.7667 4,-4 l 0,-1 c 0,2.2333 -1.7667,4 -4,4 l -12,0 c -2.2333,0 -4,-1.7667 -4,-4 l 0,1 c 0,2.2333 1.7667,4 4,4 l 12,0 z"
         style="opacity:0.3;color:#bebebe;fill:#000000;fill-opacity:1;fill-rule:nonzero;stroke:none;stroke-width:0;marker:none;visibility:visible;display:inline;overflow:visible;enable-background:accumulate"
         inkscape:connector-curvature="0" /><path
         id="path4091"
         d="m 440,83 c 3.3413,0 6,-2.6587 6,-6 l 0,-1 c 0,3.3413 -2.6587,6 -6,6 l -16,0 c -3.3413,0 -6,-2.6587 -6,-6 l 0,1 c 0,3.3413 2.6587,6 6,6 l 16,0 z"
         style="opacity:0.5;color:#bebebe;fill:#000000;fill-opacity:1;fill-rule:nonzero;stroke:none;stroke-width:0;marker:none;visibility:visible;display:inline;overflow:visible;enable-background:accumulate"
         inkscape:connector-curvature="0" /><path
         id="path4093"
         d="m 324,265 c 4.4493,0 8,-3.5507 8,-8 l 0,-1 c 0,4.4493 -3.5507,8 -8,8 l -24,0 c -4.4493,0 -8,-3.5507 -8,-8 l 0,1 c 0,4.4493 3.5507,8 8,8 l 24,0 z"
         style="opacity:0.5;color:#bebebe;fill:#000000;fill-opacity:1;fill-rule:nonzero;stroke:none;stroke-width:0;marker:none;visibility:visible;display:inline;overflow:visible;enable-background:accumulate"
         inkscape:connector-curvature="0" /><path
         id="path4095"
         d="m 362,120 c 9.4353,0 17,-7.5647 17,-17 l 0,-1 c 0,9.4353 -7.5647,17 -17,17 l -52,0 c -9.4353,0 -17,-7.5647 -17,-17 l 0,1 c 0,9.4353 7.5647,17 17,17 l 52,0 z"
         style="opacity:0.5;color:#bebebe;fill:#000000;fill-opacity:1;fill-rule:nonzero;stroke:none;stroke-width:0;marker:none;visibility:visible;display:inline;overflow:visible;enable-background:accumulate"
         inkscape:connector-curvature="0" /><path
         id="path4097"
         d="m 337.5,202 c 6.3883,0 11.5,-5.1117 11.5,-11.5 l 0,-1 c 0,6.3883 -5.1117,11.5 -11.5,11.5 l -35,0 c -6.3883,0 -11.5,-5.1117 -11.5,-11.5 l 0,1 c 0,6.3883 5.1117,11.5 11.5,11.5 l 35,0 z"
         style="opacity:0.5;color:#bebebe;fill:#000000;fill-opacity:1;fill-rule:nonzero;stroke:none;stroke-width:0;marker:none;visibility:visible;display:inline;overflow:visible;enable-background:accumulate"
         inkscape:connector-curvature="0" /><path
         inkscape:connector-curvature="0"
         id="path4280"
         d="M 84,265 C 56.836703,265 35,243.1633 35,216 l 0,-1 c 0,27.1633 21.836703,49 49,49 l 120,0 c 27.1633,0 49,-21.8367 49,-49 l 0,1 c 0,27.1633 -21.8367,49 -49,49 l -120,0 z"
         style="opacity:0.1;color:#bebebe;fill:#ffffff;fill-opacity:1;fill-rule:nonzero;stroke:none;stroke-width:0;marker:none;visibility:visible;display:inline;overflow:visible;enable-background:accumulate" /><path
         style="opacity:0.1;color:#bebebe;fill:#ffffff;fill-opacity:1;fill-rule:nonzero;stroke:none;stroke-width:0;marker:none;visibility:visible;display:inline;overflow:visible;enable-background:accumulate"
         d="m 300,264 c -4.4493,0 -8,-3.5507 -8,-8 l 0,-1 c 0,4.4493 3.5507,8 8,8 l 24,0 c 4.4493,0 8,-3.5507 8,-8 l 0,1 c 0,4.4493 -3.5507,8 -8,8 l -24,0 z"
         id="path4294"
         inkscape:connector-curvature="0" /><path
         style="opacity:0.1;color:#bebebe;fill:#ffffff;fill-opacity:1;fill-rule:nonzero;stroke:none;stroke-width:0;marker:none;visibility:visible;display:inline;overflow:visible;enable-background:accumulate"
         d="m 302.5,201 c -6.3883,0 -11.5,-5.1117 -11.5,-11.5 l 0,-1 c 0,6.3883 5.1117,11.5 11.5,11.5 l 35,0 c 6.3883,0 11.5,-5.1117 11.5,-11.5 l 0,1 c 0,6.3883 -5.1117,11.5 -11.5,11.5 l -35,0 z"
         id="path4296"
         inkscape:connector-curvature="0" /><path
         style="opacity:0.1;color:#bebebe;fill:#ffffff;fill-opacity:1;fill-rule:nonzero;stroke:none;stroke-width:0;marker:none;visibility:visible;display:inline;overflow:visible;enable-background:accumulate"
         d="m 310,119 c -9.4353,0 -17,-7.5647 -17,-17 l 0,-1 c 0,9.4353 7.5647,17 17,17 l 52,0 c 9.4353,0 17,-7.5647 17,-17 l 0,1 c 0,9.4353 -7.5647,17 -17,17 l -52,0 z"
         id="path4298"
         inkscape:connector-curvature="0" /><path
         style="opacity:0.1;color:#bebebe;fill:#ffffff;fill-opacity:1;fill-rule:nonzero;stroke:none;stroke-width:0;marker:none;visibility:visible;display:inline;overflow:visible;enable-background:accumulate"
         d="m 424,82 c -3.3413,0 -6,-2.658703 -6,-6 l 0,-1 c 0,3.341297 2.6587,6 6,6 l 16,0 c 3.3413,0 6,-2.658703 6,-6 l 0,1 c 0,3.341297 -2.6587,6 -6,6 l -16,0 z"
         id="path4300"
         inkscape:connector-curvature="0" /><path
         style="opacity:0.1;color:#bebebe;fill:#ffffff;fill-opacity:1;fill-rule:nonzero;stroke:none;stroke-width:0;marker:none;visibility:visible;display:inline;overflow:visible;enable-background:accumulate"
         d="m 422,122 c -2.2333,0 -4,-1.7667 -4,-4 l 0,-1 c 0,2.2333 1.7667,4 4,4 l 12,0 c 2.2333,0 4,-1.7667 4,-4 l 0,1 c 0,2.2333 -1.7667,4 -4,4 l -12,0 z"
         id="path4302"
         inkscape:connector-curvature="0" /><path
         style="opacity:0.1;color:#bebebe;fill:#ffffff;fill-opacity:1;fill-rule:nonzero;stroke:none;stroke-width:0;marker:none;visibility:visible;display:inline;overflow:visible;enable-background:accumulate"
         d="m 419,154.5 c -1.1253,0 -2,-0.8747 -2,-2 l 0,-1 c 0,1.1253 0.8747,2 2,2 l 10,0 c 1.1253,0 2,-0.8747 2,-2 l 0,1 c 0,1.1253 -0.8747,2 -2,2 l -10,0 z"
         id="path4304"
         inkscape:connector-curvature="0" /></g><g
       inkscape:groupmode="layer"
       id="layer3"
       inkscape:label="Border"
       style="display:inline"
       sodipodi:insensitive="true"><path
         style="opacity:0.41000001;color:#bebebe;fill:#000000;fill-opacity:1;fill-rule:nonzero;stroke:none;stroke-width:0;marker:none;visibility:visible;display:inline;overflow:visible;enable-background:accumulate"
         d="m 422,101 c -2.77,0 -5,2.23 -5,5 l 0,12 c 0,2.77 2.23,5 5,5 l 12,0 c 2.77,0 5,-2.23 5,-5 l 0,-12 c 0,-2.77 -2.23,-5 -5,-5 l -12,0 z m 0,1 12,0 c 2.2333,0 4,1.7667 4,4 l 0,12 c 0,2.2333 -1.7667,4 -4,4 l -12,0 c -2.2333,0 -4,-1.7667 -4,-4 l 0,-12 c 0,-2.2333 1.7667,-4 4,-4 z"
         id="rect4099"
         inkscape:connector-curvature="0" /><path
         style="opacity:0.41000001;color:#bebebe;fill:#000000;fill-opacity:1;fill-rule:nonzero;stroke:none;stroke-width:0;marker:none;visibility:visible;display:inline;overflow:visible;enable-background:accumulate"
         d="m 424,53 c -3.878,0 -7,3.122 -7,7 l 0,16 c 0,3.878 3.122,7 7,7 l 16,0 c 3.878,0 7,-3.122 7,-7 l 0,-16 c 0,-3.878 -3.122,-7 -7,-7 l -16,0 z m 0,1 16,0 c 3.3413,0 6,2.658703 6,6 l 0,16 c 0,3.341297 -2.6587,6 -6,6 l -16,0 c -3.3413,0 -6,-2.658703 -6,-6 l 0,-16 c 0,-3.341297 2.6587,-6 6,-6 z"
         id="rect4151"
         inkscape:connector-curvature="0" /><path
         style="opacity:0.41000001;color:#bebebe;fill:#000000;fill-opacity:1;fill-rule:nonzero;stroke:none;stroke-width:0;marker:none;visibility:visible;display:inline;overflow:visible;enable-background:accumulate"
         d="m 419,140 c -1.662,0 -3,1.338 -3,3 l 0,10 c 0,1.662 1.338,3 3,3 l 10,0 c 1.662,0 3,-1.338 3,-3 l 0,-10 c 0,-1.662 -1.338,-3 -3,-3 l -10,0 z m 0,1 10,0 c 1.1253,0 2,0.8747 2,2 l 0,10 c 0,1.1253 -0.8747,2 -2,2 l -10,0 c -1.1253,0 -2,-0.8747 -2,-2 l 0,-10 c 0,-1.1253 0.8747,-2 2,-2 z"
         id="rect4095"
         inkscape:connector-curvature="0" /><path
         style="opacity:0.41000001;color:#bebebe;fill:#000000;fill-opacity:1;fill-rule:nonzero;stroke:none;stroke-width:0;marker:none;visibility:visible;display:inline;overflow:visible;enable-background:accumulate"
         d="m 300,223 c -4.986,0 -9,4.014 -9,9 l 0,24 c 0,4.986 4.014,9 9,9 l 24,0 c 4.986,0 9,-4.014 9,-9 l 0,-24 c 0,-4.986 -4.014,-9 -9,-9 l -24,0 z m 0,1 24,0 c 4.4493,0 8,3.5507 8,8 l 0,24 c 0,4.4493 -3.5507,8 -8,8 l -24,0 c -4.4493,0 -8,-3.5507 -8,-8 l 0,-24 c 0,-4.4493 3.5507,-8 8,-8 z"
         id="rect4783"
         inkscape:connector-curvature="0" /><path
         style="color:#bebebe;display:inline;overflow:visible;visibility:visible;opacity:0.41;fill:#000000;fill-opacity:1;fill-rule:nonzero;stroke:none;stroke-width:0;marker:none;enable-background:accumulate"
         d="m 302.5,142 c -6.925,0 -12.5,5.575 -12.5,12.5 v 35 c 0,6.925 5.575,12.5 12.5,12.5 h 35 c 6.925,0 12.5,-5.575 12.5,-12.5 v -35 c 0,-6.925 -5.575,-12.5 -12.5,-12.5 z m 0,1 h 35 c 6.3883,0 11.5,5.1117 11.5,11.5 v 35 c 0,6.3883 -5.1117,11.5 -11.5,11.5 h -35 c -6.3883,0 -11.5,-5.1117 -11.5,-11.5 v -35 c 0,-6.3883 5.1117,-11.5 11.5,-11.5 z"
         id="rect4515"
         inkscape:connector-curvature="0" /><path
         style="opacity:0.41000001;color:#bebebe;fill:#000000;fill-opacity:1;fill-rule:nonzero;stroke:none;stroke-width:0;marker:none;visibility:visible;display:inline;overflow:visible;enable-background:accumulate"
         d="m 310,32 c -9.972,0 -18,8.028 -18,18 l 0,52 c 0,9.972 8.028,18 18,18 l 52,0 c 9.972,0 18,-8.028 18,-18 l 0,-52 c 0,-9.972 -8.028,-18 -18,-18 l -52,0 z m 0,1 52,0 c 9.4353,0 17,7.564703 17,17 l 0,52 c 0,9.4353 -7.5647,17 -17,17 l -52,0 c -9.4353,0 -17,-7.5647 -17,-17 l 0,-52 c 0,-9.435297 7.5647,-17 17,-17 z"
         id="rect4511"
         inkscape:connector-curvature="0" /><path
         style="opacity:0.41000001;color:#bebebe;fill:#000000;fill-opacity:1;fill-rule:nonzero;stroke:none;stroke-width:0;marker:none;visibility:visible;display:inline;overflow:visible;enable-background:accumulate"
         d="M 84,46 C 56.3,46 34,68.3 34,96 l 0,120 c 0,27.7 22.3,50 50,50 l 120,0 c 27.7,0 50,-22.3 50,-50 L 254,96 C 254,68.3 231.7,46 204,46 L 84,46 z m 0,1 120,0 c 27.1633,0 49,21.836703 49,49 l 0,120 c 0,27.1633 -21.8367,49 -49,49 L 84,265 C 56.836703,265 35,243.1633 35,216 L 35,96 C 35,68.836703 56.836703,47 84,47 z"
         id="rect4040"
         inkscape:connector-curvature="0" /></g></g></svg>
