<?xml version="1.0" encoding="UTF-8" standalone="no"?>
<!-- Created with Inkscape (http://www.inkscape.org/) -->

<svg
   inkscape:export-ydpi="90.000000"
   inkscape:export-xdpi="90.000000"
   width="480"
   height="300"
   id="svg11300"
   sodipodi:version="0.32"
   inkscape:version="1.1.2 (0a00cf5339, 2022-02-04)"
   sodipodi:docname="vscodium-insiders.svg"
   inkscape:output_extension="org.inkscape.output.svg.inkscape"
   version="1.0"
   style="display:inline;enable-background:new"
   inkscape:export-filename="/home/sam/moka-next-template.png"
   xmlns:inkscape="http://www.inkscape.org/namespaces/inkscape"
   xmlns:sodipodi="http://sodipodi.sourceforge.net/DTD/sodipodi-0.dtd"
   xmlns:xlink="http://www.w3.org/1999/xlink"
   xmlns="http://www.w3.org/2000/svg"
   xmlns:svg="http://www.w3.org/2000/svg"
   xmlns:rdf="http://www.w3.org/1999/02/22-rdf-syntax-ns#"
   xmlns:cc="http://creativecommons.org/ns#"
   xmlns:dc="http://purl.org/dc/elements/1.1/">
  <sodipodi:namedview
     stroke="#ef2929"
     fill="#f57900"
     id="base"
     pagecolor="#b2b2b2"
     bordercolor="#666666"
     borderopacity="0.25490196"
     inkscape:pageopacity="0"
     inkscape:pageshadow="2"
     inkscape:zoom="1"
     inkscape:cx="239.5"
     inkscape:cy="210"
     inkscape:current-layer="layer2"
     showgrid="false"
     inkscape:grid-bbox="true"
     inkscape:document-units="px"
     inkscape:showpageshadow="false"
     inkscape:window-width="1920"
     inkscape:window-height="1008"
     inkscape:window-x="1920"
     inkscape:window-y="0"
     width="400px"
     height="300px"
     inkscape:snap-nodes="true"
     inkscape:snap-bbox="true"
     gridtolerance="10000"
     inkscape:object-nodes="true"
     inkscape:snap-grids="true"
     showguides="true"
     inkscape:guide-bbox="true"
     inkscape:window-maximized="1"
     inkscape:bbox-nodes="true"
     inkscape:bbox-paths="true"
     inkscape:snap-bbox-edge-midpoints="true"
     inkscape:snap-bbox-midpoints="true"
     inkscape:pagecheckerboard="0">
    <inkscape:grid
       spacingy="1"
       spacingx="1"
       id="grid5883"
       type="xygrid"
       enabled="true"
       visible="true"
       empspacing="4"
       snapvisiblegridlinesonly="true"
       dotted="false"
       color="#000000"
       opacity="0.1254902"
       empcolor="#203ef3"
       empopacity="0.36470588"
       originx="0"
       originy="0" />
    <inkscape:grid
       type="xygrid"
       id="grid11592"
       empspacing="8"
       visible="true"
       enabled="false"
       spacingx="0.5"
       spacingy="0.5"
       color="#ff0000"
       opacity="0.1254902"
       empcolor="#ff0000"
       empopacity="0.25098039"
       snapvisiblegridlinesonly="true"
       dotted="true"
       originx="0"
       originy="0" />
  </sodipodi:namedview>
  <defs
     id="defs3">
    <linearGradient
       inkscape:collect="always"
       xlink:href="#outerBackgroundGradient"
       id="linearGradient4260"
       x1="446.5"
       y1="53.5"
       x2="417.5"
       y2="82.5"
       gradientUnits="userSpaceOnUse"
       gradientTransform="rotate(-90,432,68)" />
    <linearGradient
       inkscape:collect="always"
       xlink:href="#outerBackgroundGradient"
       id="linearGradient4262"
       x1="332.5"
       y1="223.5"
       x2="291.5"
       y2="264.5"
       gradientUnits="userSpaceOnUse"
       gradientTransform="rotate(-90,312,244)" />
    <linearGradient
       inkscape:collect="always"
       xlink:href="#outerBackgroundGradient"
       id="linearGradient4264"
       x1="379.5"
       y1="32.5"
       x2="292.5"
       y2="119.5"
       gradientUnits="userSpaceOnUse"
       gradientTransform="rotate(-90,336,76)" />
    <linearGradient
       inkscape:collect="always"
       xlink:href="#outerBackgroundGradient"
       id="linearGradient4266"
       x1="349.5"
       y1="142.5"
       x2="290.5"
       y2="201.5"
       gradientUnits="userSpaceOnUse"
       gradientTransform="rotate(-90,320,172)" />
    <linearGradient
       inkscape:collect="always"
       xlink:href="#outerBackgroundGradient"
       id="linearGradient3870"
       gradientUnits="userSpaceOnUse"
       gradientTransform="rotate(-90,428,112)"
       x1="438.5"
       y1="101.5"
       x2="417.5"
       y2="122.5" />
    <linearGradient
       id="outerBackgroundGradient"
       gradientUnits="userSpaceOnUse"
       x1="199.997"
       y1="214.302"
       x2="296.665"
       y2="307.573"
       gradientTransform="translate(-213.22745,-253.8304)">
      <stop
         offset="0"
         stop-color="#FFA348"
         id="stop908" />
      <stop
         offset="1"
         stop-color="#C64600"
         id="stop910" />
    </linearGradient>
    <linearGradient
       inkscape:collect="always"
       xlink:href="#outerBackgroundGradient"
       id="linearGradient1346"
       gradientUnits="userSpaceOnUse"
       gradientTransform="rotate(-90,144,156)"
       x1="253.5"
       y1="46.5"
       x2="34.5"
       y2="265.5" />
    <linearGradient
       inkscape:collect="always"
       xlink:href="#outerBackgroundGradient"
       id="linearGradient7202"
       gradientUnits="userSpaceOnUse"
       gradientTransform="rotate(-90,424,148)"
       x1="431.5"
       y1="140.5"
       x2="416.5"
       y2="155.5" />
  </defs>
  <metadata
     id="metadata4">
    <rdf:RDF>
      <cc:Work
         rdf:about="">
        <dc:format>image/svg+xml</dc:format>
        <dc:type
           rdf:resource="http://purl.org/dc/dcmitype/StillImage" />
        <dc:creator>
          <cc:Agent>
            <dc:title>Sam Hewitt</dc:title>
          </cc:Agent>
        </dc:creator>
        <dc:source />
        <cc:license
           rdf:resource="" />
        <dc:subject>
          <rdf:Bag />
        </dc:subject>
        <dc:date />
        <dc:rights>
          <cc:Agent>
            <dc:title />
          </cc:Agent>
        </dc:rights>
        <dc:publisher>
          <cc:Agent>
            <dc:title />
          </cc:Agent>
        </dc:publisher>
        <dc:identifier />
        <dc:relation />
        <dc:language />
        <dc:coverage />
        <dc:description />
        <dc:contributor>
          <cc:Agent>
            <dc:title />
          </cc:Agent>
        </dc:contributor>
      </cc:Work>
      <cc:Work
         rdf:about="">
        <dc:format>image/svg+xml</dc:format>
        <dc:type
           rdf:resource="http://purl.org/dc/dcmitype/StillImage" />
      </cc:Work>
    </rdf:RDF>
  </metadata>
  <g
     style="display:inline"
     inkscape:groupmode="layer"
     inkscape:label="Icon"
     id="layer1">
    <g
       style="display:none"
       inkscape:label="Baseplate"
       id="layer7"
       inkscape:groupmode="layer">
      <text
         y="19.745117"
         xml:space="preserve"
         x="15.006836"
         style="font-style:normal;font-variant:normal;font-weight:normal;font-stretch:normal;line-height:0%;font-family:'DejaVu Sans';-inkscape-font-specification:'DejaVu Sans';display:inline;fill:#000000;fill-opacity:1;stroke:none;enable-background:new"
         inkscape:label="context"
         id="context"><tspan
           style="font-style:normal;font-variant:normal;font-weight:normal;font-stretch:normal;font-size:18px;line-height:1.25;font-family:'DejaVu Sans';-inkscape-font-specification:'DejaVu Sans'"
           y="19.745117"
           x="15.006836"
           sodipodi:role="line"
           id="tspan3933">apps</tspan></text>
      <text
         y="19.745117"
         xml:space="preserve"
         x="122.48828"
         style="font-style:normal;font-variant:normal;font-weight:bold;font-stretch:normal;line-height:0%;font-family:'DejaVu Sans';-inkscape-font-specification:'DejaVu Sans Bold';text-align:start;writing-mode:lr-tb;text-anchor:start;display:inline;fill:#000000;fill-opacity:1;stroke:none;enable-background:new"
         inkscape:label="icon-name"
         id="icon-name"><tspan
           style="font-style:normal;font-variant:normal;font-weight:bold;font-stretch:normal;font-size:18px;line-height:1.25;font-family:'DejaVu Sans';-inkscape-font-specification:'DejaVu Sans Bold'"
           y="19.745117"
           x="122.48828"
           sodipodi:role="line"
           id="tspan3937">vscodium-insiders</tspan></text>
      <rect
         style="display:inline;overflow:visible;visibility:visible;fill:#eeeeec;fill-opacity:1;fill-rule:nonzero;stroke:none;stroke-width:2;marker:none;enable-background:accumulate"
         id="rect16x16"
         width="16"
         height="16"
         x="416"
         y="140"
         inkscape:label="16x16" />
      <rect
         style="display:inline;overflow:visible;visibility:visible;fill:#d4d4d4;fill-opacity:1;fill-rule:nonzero;stroke:none;stroke-width:2;marker:none;enable-background:accumulate"
         id="rect24x24"
         width="24"
         height="24"
         x="416"
         y="100"
         inkscape:label="24x24" />
      <rect
         style="display:inline;overflow:visible;visibility:visible;fill:#eeeeec;fill-opacity:1;fill-rule:nonzero;stroke:none;stroke-width:2;marker:none;enable-background:accumulate"
         id="rect32x32"
         width="32"
         height="32"
         x="416"
         y="52"
         inkscape:label="32x32" />
      <rect
         inkscape:label="22x22"
         y="101"
         x="417"
         height="22"
         width="22"
         id="rect22x22"
         style="display:inline;overflow:visible;visibility:visible;fill:#eeeeec;fill-opacity:1;fill-rule:nonzero;stroke:none;stroke-width:2;marker:none;enable-background:accumulate" />
      <rect
         inkscape:label="48x48"
         y="220"
         x="288"
         height="48"
         width="48"
         id="rect48x48"
         style="display:inline;overflow:visible;visibility:visible;fill:#eeeeec;fill-opacity:1;fill-rule:nonzero;stroke:none;stroke-width:2;marker:none;enable-background:accumulate" />
      <rect
         style="display:inline;overflow:visible;visibility:visible;fill:#eeeeec;fill-opacity:1;fill-rule:nonzero;stroke:none;stroke-width:2;marker:none;enable-background:accumulate"
         id="rect256x256"
         width="256"
         height="256"
         x="16"
         y="28"
         inkscape:label="256x256" />
      <rect
         style="display:inline;overflow:visible;visibility:visible;fill:#eeeeec;fill-opacity:1;fill-rule:nonzero;stroke:none;stroke-width:2;marker:none;enable-background:accumulate"
         id="rect64x64"
         width="64"
         height="64"
         x="288"
         y="140"
         inkscape:label="64x64" />
      <rect
         style="display:inline;overflow:visible;visibility:visible;fill:#eeeeec;fill-opacity:1;fill-rule:nonzero;stroke:none;stroke-width:2;marker:none;enable-background:accumulate"
         id="rect96x96"
         width="96"
         height="96"
         x="288"
         y="28"
         inkscape:label="96x96" />
    </g>
    <g
       inkscape:groupmode="layer"
       id="layer4"
       inkscape:label="Shadow"
       style="display:inline"
       sodipodi:insensitive="true">
      <rect
         ry="50"
         y="47"
         x="34"
         height="220"
         width="220"
         id="rect4114"
         style="color:#bebebe;display:inline;overflow:visible;visibility:visible;opacity:0.1;fill:#000000;fill-opacity:1;fill-rule:nonzero;stroke:none;stroke-width:0;marker:none;enable-background:accumulate" />
      <rect
         style="color:#bebebe;display:inline;overflow:visible;visibility:visible;opacity:0.1;fill:#000000;fill-opacity:1;fill-rule:nonzero;stroke:none;stroke-width:0;marker:none;enable-background:accumulate"
         id="rect4120"
         width="30"
         height="30"
         x="417"
         y="54"
         ry="7" />
      <rect
         transform="scale(1,-1)"
         ry="9"
         y="-266"
         x="291"
         height="42"
         width="42"
         id="rect4122"
         style="color:#bebebe;display:inline;overflow:visible;visibility:visible;opacity:0.1;fill:#000000;fill-opacity:1;fill-rule:nonzero;stroke:none;stroke-width:0;marker:none;enable-background:accumulate" />
      <rect
         style="color:#bebebe;display:inline;overflow:visible;visibility:visible;opacity:0.1;fill:#000000;fill-opacity:1;fill-rule:nonzero;stroke:none;stroke-width:0;marker:none;enable-background:accumulate"
         id="rect4124"
         width="88"
         height="88"
         x="292"
         y="33"
         ry="18" />
      <rect
         ry="12.5"
         y="143"
         x="290"
         height="60"
         width="60"
         id="rect4126"
         style="color:#bebebe;display:inline;overflow:visible;visibility:visible;opacity:0.1;fill:#000000;fill-opacity:1;fill-rule:nonzero;stroke:none;stroke-width:0;marker:none;enable-background:accumulate" />
      <path
         id="path4268"
         d="m 422,101 c -2.77,0 -5,2.23 -5,5 v 12 c 0,2.77 2.23,5 5,5 h 12 c 2.77,0 5,-2.23 5,-5 v -12 c 0,-2.77 -2.23,-5 -5,-5 z"
         style="color:#bebebe;display:inline;overflow:visible;visibility:visible;opacity:0.1;fill:#000000;fill-opacity:1;fill-rule:nonzero;stroke:none;stroke-width:0;marker:none;enable-background:accumulate"
         inkscape:connector-curvature="0"
         sodipodi:nodetypes="sssssssss" />
      <path
         id="path4270"
         d="m 419,140 c -1.662,0 -3,1.338 -3,3 v 10 c 0,1.662 1.338,3 3,3 h 10 c 1.662,0 3,-1.338 3,-3 v -10 c 0,-1.662 -1.338,-3 -3,-3 z"
         style="color:#bebebe;display:inline;overflow:visible;visibility:visible;opacity:0.1;fill:#000000;fill-opacity:1;fill-rule:nonzero;stroke:none;stroke-width:0;marker:none;enable-background:accumulate"
         inkscape:connector-curvature="0"
         sodipodi:nodetypes="sssssssss" />
    </g>
    <g
       inkscape:groupmode="layer"
       id="layer2"
       inkscape:label="Background"
       style="display:inline">
      <path
         style="color:#bebebe;display:inline;overflow:visible;visibility:visible;fill:url(#linearGradient1346);fill-opacity:1;fill-rule:nonzero;stroke:none;stroke-width:2;marker:none;enable-background:accumulate"
         d="M 84,46.5 C 56.568735,46.5 34.5,68.568732 34.5,96 v 120 c 0,27.43127 22.068735,49.5 49.5,49.5 h 120 c 27.43127,0 49.5,-22.06873 49.5,-49.5 V 96 C 253.5,68.568732 231.43127,46.5 204,46.5 Z"
         id="path4200" />
      <path
         style="color:#bebebe;display:inline;overflow:visible;visibility:visible;fill:url(#linearGradient7202);fill-opacity:1;fill-rule:nonzero;stroke:none;stroke-width:2;marker:none;enable-background:accumulate"
         d="m 419,140.5 c -1.3844,0 -2.5,1.1156 -2.5,2.5 v 10 c 0,1.3844 1.1156,2.5 2.5,2.5 h 10 c 1.3844,0 2.5,-1.1156 2.5,-2.5 v -10 c 0,-1.3844 -1.1156,-2.5 -2.5,-2.5 z"
         id="path4202" />
      <path
         style="color:#bebebe;display:inline;overflow:visible;visibility:visible;fill:url(#linearGradient3870);fill-opacity:1;fill-rule:nonzero;stroke:none;stroke-width:2;marker:none;enable-background:accumulate"
         d="m 422,101.5 c -2.49699,0 -4.5,2.00301 -4.5,4.5 v 12 c 0,2.49699 2.00301,4.5 4.5,4.5 h 12 c 2.49699,0 4.5,-2.00301 4.5,-4.5 v -12 c 0,-2.49699 -2.00301,-4.5 -4.5,-4.5 z"
         id="path4204" />
      <path
         style="color:#bebebe;display:inline;overflow:visible;visibility:visible;fill:url(#linearGradient4260);fill-opacity:1;fill-rule:nonzero;stroke:none;stroke-width:2;marker:none;enable-background:accumulate"
         d="m 424,53.5 c -3.60654,0 -6.5,2.893464 -6.5,6.5 v 16 c 0,3.606536 2.89346,6.5 6.5,6.5 h 16 c 3.60654,0 6.5,-2.893464 6.5,-6.5 V 60 c 0,-3.606536 -2.89346,-6.5 -6.5,-6.5 z"
         id="path4206" />
      <path
         style="color:#bebebe;display:inline;overflow:visible;visibility:visible;fill:url(#linearGradient4262);fill-opacity:1;fill-rule:nonzero;stroke:none;stroke-width:2;marker:none;enable-background:accumulate"
         d="m 300,223.5 c -4.71531,0 -8.5,3.78469 -8.5,8.5 v 24 c 0,4.71531 3.78469,8.5 8.5,8.5 h 24 c 4.71531,0 8.5,-3.78469 8.5,-8.5 v -24 c 0,-4.71531 -3.78469,-8.5 -8.5,-8.5 z"
         id="path4208" />
      <path
         style="color:#bebebe;display:inline;overflow:visible;visibility:visible;fill:url(#linearGradient4264);fill-opacity:1;fill-rule:nonzero;stroke:none;stroke-width:2;marker:none;enable-background:accumulate"
         d="m 310,32.5 c -9.70255,0 -17.5,7.797452 -17.5,17.5 v 52 c 0,9.70255 7.79745,17.5 17.5,17.5 h 52 c 9.70255,0 17.5,-7.79745 17.5,-17.5 V 50 c 0,-9.702548 -7.79745,-17.5 -17.5,-17.5 z"
         id="path4210" />
      <path
         style="color:#bebebe;display:inline;overflow:visible;visibility:visible;fill:url(#linearGradient4266);fill-opacity:1;fill-rule:nonzero;stroke:none;stroke-width:2;marker:none;enable-background:accumulate"
         d="m 302.5,142.5 c -6.65502,0 -12,5.34498 -12,12 v 35 c 0,6.65502 5.34498,12 12,12 h 35 c 6.65502,0 12,-5.34498 12,-12 v -35 c 0,-6.65502 -5.34498,-12 -12,-12 z"
         id="path4212" />
      <path
         d="m 141.36168,84.475452 c -4.33487,2.78107 -5.58491,8.54217 -2.79169,12.86185 15.35432,23.778018 18.97836,41.712918 17.40633,57.430248 -6.35499,30.09807 -20.16917,36.20395 -32.2412,36.20395 -11.78649,0 -8.63026,-19.39757 0.22935,-25.07513 5.28873,-3.30204 12.06292,-5.44821 17.26203,-5.44821 5.15203,0 9.32894,-4.16325 9.32894,-9.30009 0,-5.13836 -4.17691,-9.3016 -9.32894,-9.3016 -6.07247,0 -12.0295,1.27586 -17.59011,3.44785 1.13612,-5.36012 1.55533,-11.15311 0.0866,-17.31064 -2.22971,-9.3502 -8.64848,-18.2812 -19.794,-26.9388 -1.95176,-1.518878 -4.42754,-2.200848 -6.88356,-1.897078 -2.45603,0.30378 -4.69029,1.567478 -6.21069,3.514678 -3.1623,4.05541 -2.4302,9.90004 1.63735,13.05475 9.07985,7.05215 12.07812,12.27253 13.10336,16.56943 1.02524,4.2969 0.20049,8.90669 -1.85911,15.24041 -2.63221,8.53609 -5.6882,16.15629 -7.02785,23.46361 -0.65919,3.5967 -0.71539,7.51084 -0.8855,10.63821 -6.53877,-6.37321 -9.09808,-14.78778 -9.09808,-27.08309 -0.001,-5.13684 -4.17843,-9.3016 -9.32894,-9.30008 -5.147468,0.005 -9.318308,4.16628 -9.319828,9.30008 0,16.7927 4.91053,32.77129 18.071598,43.43076 11.91407,11.35058 42.21112,7.15543 42.21112,25.3774 0,5.14292 7.52755,7.64603 12.67806,7.64603 5.28265,0 11.93078,-3.53139 11.93078,-7.64603 0,-20.67495 21.78829,-33.24062 57.65656,-33.18594 5.15203,0.008 9.33198,-4.15261 9.33958,-9.28945 0.009,-5.13836 -4.15869,-9.31072 -9.31072,-9.31983 -2.45298,-0.003 -4.8437,0.0805 -7.20099,0.22024 4.00983,-9.43071 5.78844,-19.81375 5.42087,-31.02914 -0.17012,-5.13532 -4.48069,-9.16035 -9.62816,-8.99327 -5.15355,0.16708 -9.19073,4.47006 -9.02213,9.60842 0.48604,14.6845 -0.0638,27.79696 -11.00426,34.70937 -3.11066,1.96391 -6.72711,3.66809 -10.15673,3.66809 2.66259,-7.24201 4.67358,-14.88652 5.49681,-23.12642 0.52553,-5.25835 0.58173,-11.50549 -0.0182,-16.35831 -0.93107,-7.51844 -2.05504,-16.04541 0.79893,-22.46874 2.56387,-5.53175 8.30826,-7.84804 16.74258,-7.84804 5.14748,-0.005 9.31831,-4.1678 9.31983,-9.30008 0.003,-5.138358 -4.16932,-9.306158 -9.31983,-9.310718 -12.53377,0 -22.03434,6.59649 -27.42028,14.566028 -2.816,-6.014748 -6.24562,-12.213288 -10.38912,-18.629018 -1.33813,-2.07327 -3.44633,-3.52987 -5.86286,-4.05388 -1.19688,-0.25973 -2.43325,-0.28251 -3.63923,-0.0668 -1.20599,0.2172 -2.3573,0.6683 -3.38862,1.32901 z"
         fill="url(#Gradient_1)"
         id="path6008-9"
         style="display:inline;fill:#000000;fill-opacity:0.4;stroke-width:1.51888;enable-background:new" />
      <path
         d="m 335.00167,50.55829 c -1.64022,1.052294 -2.11321,3.232169 -1.05632,4.866645 5.80975,8.997088 7.181,15.783266 6.58618,21.730364 -2.40459,11.388459 -7.63158,13.69879 -12.19937,13.69879 -4.45975,0 -3.2655,-7.339619 0.0868,-9.487885 2.00114,-1.249421 4.56435,-2.061485 6.53158,-2.061485 1.94942,0 3.52987,-1.575284 3.52987,-3.518953 0,-1.944244 -1.58045,-3.519524 -3.52987,-3.519524 -2.29769,0 -4.5517,0.482758 -6.65572,1.304592 0.42988,-2.028154 0.5885,-4.220096 0.0328,-6.549972 -0.84367,-3.537914 -3.2724,-6.917211 -7.48962,-10.19306 -0.73851,-0.574711 -1.67528,-0.832754 -2.60459,-0.717814 -0.92931,0.114944 -1.77471,0.593101 -2.34999,1.329879 -1.19655,1.53448 -0.91954,3.745961 0.61953,4.939635 3.43562,2.668381 4.5701,4.64366 4.95803,6.269514 0.38793,1.625854 0.0759,3.370099 -0.70344,5.766642 -0.99598,3.229872 -2.15229,6.113191 -2.65919,8.878123 -0.24942,1.360913 -0.27069,2.841939 -0.33506,4.025268 -2.47412,-2.411485 -3.44251,-5.595376 -3.44251,-10.247655 -7.5e-4,-1.94367 -1.58103,-3.519525 -3.52987,-3.51895 -1.94769,0.0019 -3.52584,1.576431 -3.52642,3.51895 0,6.353994 1.85804,12.399947 6.8379,16.433265 4.50803,4.29481 15.97177,2.70746 15.97177,9.602251 0,1.94597 2.84827,2.89309 4.79711,2.89309 1.99884,0 4.51435,-1.3362 4.51435,-2.89309 0,-7.822951 8.24422,-12.577531 21.81599,-12.556841 1.94942,0.003 3.53102,-1.571255 3.5339,-3.514925 0.003,-1.944244 -1.57356,-3.522975 -3.52298,-3.526422 -0.92815,-0.0011 -1.83275,0.03046 -2.7247,0.08333 1.51724,-3.568376 2.19022,-7.497094 2.05114,-11.740755 -0.0644,-1.943094 -1.69539,-3.466079 -3.64308,-3.402859 -1.95,0.06322 -3.47758,1.691374 -3.41378,3.635618 0.1839,5.556297 -0.0241,10.517769 -4.16378,13.133275 -1.177,0.743101 -2.54539,1.387926 -3.84308,1.387926 1.00746,-2.74022 1.76838,-5.632737 2.07987,-8.750537 0.19885,-1.989646 0.22011,-4.353429 -0.007,-6.189631 -0.35229,-2.844815 -0.77758,-6.071236 0.3023,-8.501685 0.97012,-2.093095 3.14367,-2.969529 6.33503,-2.969529 1.9477,-0.0019 3.52585,-1.577005 3.52642,-3.518949 0.001,-1.944245 -1.57758,-3.521249 -3.52642,-3.522973 -4.74251,0 -8.33732,2.495966 -10.37524,5.511468 -1.06551,-2.275851 -2.36321,-4.621243 -3.93102,-7.048818 -0.50632,-0.784479 -1.30401,-1.335626 -2.21838,-1.533902 -0.45287,-0.09828 -0.92069,-0.106896 -1.377,-0.02529 -0.45632,0.08218 -0.89195,0.252873 -1.28218,0.502872 z"
         fill="url(#Gradient_1)"
         id="path6008-5-0"
         style="display:inline;fill:#000000;fill-opacity:0.4;stroke-width:0.574711;enable-background:new" />
      <path
         d="m 319.34041,154.86891 c -1.08372,0.69527 -1.39623,2.13554 -0.69792,3.21546 3.83858,5.94449 4.74458,10.42822 4.35158,14.35755 -1.58875,7.52451 -5.0423,9.05098 -8.0603,9.05098 -2.94662,0 -2.15756,-4.84939 0.0573,-6.26878 1.32218,-0.82551 3.01573,-1.36205 4.31551,-1.36205 1.28801,0 2.33223,-1.04081 2.33223,-2.32502 0,-1.28459 -1.04422,-2.3254 -2.33223,-2.3254 -1.51812,0 -3.00737,0.31897 -4.39753,0.86196 0.28403,-1.34003 0.38883,-2.78827 0.0217,-4.32766 -0.55742,-2.33754 -2.16212,-4.57029 -4.94849,-6.73469 -0.48795,-0.37972 -1.10688,-0.55021 -1.72089,-0.47427 -0.61401,0.0759 -1.17258,0.39187 -1.55267,0.87867 -0.79058,1.01385 -0.60756,2.47501 0.40933,3.26368 2.26996,1.76304 3.01953,3.06813 3.27584,4.14236 0.25631,1.07422 0.0501,2.22667 -0.46477,3.8101 -0.65806,2.13402 -1.42205,4.03907 -1.75697,5.8659 -0.16479,0.89917 -0.17885,1.87771 -0.22138,2.65955 -1.63468,-1.59331 -2.27451,-3.69695 -2.27451,-6.77077 -5e-4,-1.28421 -1.04461,-2.3254 -2.33223,-2.32502 -1.28687,10e-4 -2.32958,1.04157 -2.32996,2.32502 0,4.19817 1.22763,8.19282 4.5179,10.85768 2.97851,2.83765 10.55277,1.78886 10.55277,6.34435 0,1.28573 1.88189,1.9115 3.16951,1.9115 1.32066,0 2.9827,-0.88284 2.9827,-1.9115 0,-5.16873 5.44707,-8.31015 14.41412,-8.29648 1.28801,0.002 2.333,-1.03815 2.3349,-2.32236 0.002,-1.28459 -1.03967,-2.32768 -2.32768,-2.32996 -0.61324,-6.6e-4 -1.21092,0.0202 -1.80025,0.055 1.00246,-2.35767 1.44711,-4.95343 1.35522,-7.75728 -0.0426,-1.28383 -1.12017,-2.29008 -2.40704,-2.24831 -1.28839,0.0418 -2.29768,1.11751 -2.25553,2.4021 0.12151,3.67112 -0.0159,6.94924 -2.75106,8.67733 -0.77766,0.49098 -1.68178,0.91703 -2.53918,0.91703 0.66564,-1.8105 1.16839,-3.72163 1.3742,-5.7816 0.13138,-1.31459 0.14543,-2.87638 -0.005,-4.08958 -0.23276,-1.87961 -0.51375,-4.01135 0.19974,-5.61718 0.64097,-1.38294 2.07706,-1.96201 4.18564,-1.96201 1.28687,-0.001 2.32958,-1.04195 2.32995,-2.32502 6.6e-4,-1.28459 -1.04233,-2.32653 -2.32995,-2.32768 -3.13344,0 -5.50858,1.64913 -6.85507,3.64151 -0.70399,-1.50369 -1.5614,-3.05332 -2.59727,-4.65726 -0.33454,-0.51831 -0.86158,-0.88246 -1.46572,-1.01346 -0.29922,-0.0649 -0.60831,-0.0706 -0.9098,-0.0167 -0.3015,0.0543 -0.58933,0.16707 -0.84716,0.33225 z"
         fill="url(#Gradient_1)"
         id="path6008-5-06-1"
         style="display:inline;fill:#000000;fill-opacity:0.4;stroke-width:0.37972;enable-background:new" />
      <path
         d="m 311.50083,231.27917 c -0.82011,0.52615 -1.05661,1.61609 -0.52815,2.43332 2.90487,4.49854 3.59049,7.89163 3.29308,10.86517 -1.2023,5.69422 -3.81579,6.84939 -6.09968,6.84939 -2.22988,0 -1.63275,-3.66981 0.0434,-4.74394 1.00057,-0.62471 2.28217,-1.03074 3.26579,-1.03074 0.97471,0 1.76493,-0.78765 1.76493,-1.75947 0,-0.97213 -0.79022,-1.75977 -1.76493,-1.75977 -1.14885,0 -2.27585,0.24139 -3.32786,0.65229 0.21494,-1.01407 0.29425,-2.11003 0.0164,-3.27497 -0.42183,-1.76895 -1.6362,-3.45861 -3.7448,-5.09653 -0.36926,-0.28735 -0.83763,-0.41637 -1.3023,-0.3589 -0.46465,0.0574 -0.88735,0.29655 -1.17498,0.66494 -0.59828,0.76723 -0.45978,1.87298 0.30976,2.4698 1.7178,1.3342 2.28504,2.32184 2.47901,3.13477 0.19397,0.81292 0.0379,1.68504 -0.35171,2.88331 -0.498,1.61493 -1.07615,3.05659 -1.32961,4.43905 -0.1247,0.68046 -0.13534,1.42097 -0.16753,2.01264 -1.23705,-1.20575 -1.72125,-2.79769 -1.72125,-5.12383 -3.7e-4,-0.97183 -0.79051,-1.75976 -1.76492,-1.75947 -0.97385,7.4e-4 -1.76293,0.78822 -1.76322,1.75947 0,3.177 0.92902,6.19997 3.41895,8.21662 2.25401,2.14741 7.98588,1.35374 7.98588,4.80113 0,0.97299 1.42413,1.44654 2.39855,1.44654 0.99941,0 2.25717,-0.6681 2.25717,-1.44654 0,-3.91147 4.12211,-6.28876 10.90797,-6.27842 0.97472,0.001 1.76552,-0.78562 1.76696,-1.75746 10e-4,-0.97211 -0.78678,-1.76148 -1.76149,-1.7632 -0.46408,-5e-4 -0.91637,0.0153 -1.36235,0.0416 0.75862,-1.78419 1.09511,-3.74855 1.02557,-5.87037 -0.0322,-0.97155 -0.84769,-1.73303 -1.82154,-1.70143 -0.975,0.0316 -1.73878,0.84569 -1.70689,1.81781 0.092,2.77814 -0.012,5.25888 -2.08188,6.56662 -0.5885,0.37155 -1.27269,0.69397 -1.92154,0.69397 0.50373,-1.37011 0.88419,-2.81637 1.03993,-4.37526 0.0994,-0.99483 0.11006,-2.17672 -0.004,-3.09482 -0.17614,-1.4224 -0.38879,-3.03561 0.15115,-4.25083 0.48506,-1.04655 1.57183,-1.48477 3.16751,-1.48477 0.97385,-7.3e-4 1.76292,-0.7885 1.7632,-1.75947 5e-4,-0.97213 -0.78879,-1.76062 -1.7632,-1.76149 -2.37125,0 -4.16866,1.24799 -5.18762,2.75573 -0.53274,-1.13792 -1.1816,-2.31061 -1.9655,-3.5244 -0.25316,-0.39224 -0.652,-0.66781 -1.10919,-0.76695 -0.22643,-0.0491 -0.46034,-0.0534 -0.68849,-0.0126 -0.22817,0.0411 -0.44599,0.12643 -0.6411,0.25144 z"
         fill="url(#Gradient_1)"
         id="path6008-5-06-9-2"
         style="display:inline;fill:#000000;fill-opacity:0.4;stroke-width:0.287355;enable-background:new" />
      <path
         d="m 431.73228,61.649559 c -0.43935,0.281867 -0.56604,0.865763 -0.28294,1.303565 1.55618,2.409933 1.92348,4.227661 1.76415,5.820629 -0.64409,3.050476 -2.04417,3.669317 -3.26769,3.669317 -1.19458,0 -0.87468,-1.96597 0.0233,-2.541397 0.53602,-0.334666 1.2226,-0.552182 1.74953,-0.552182 0.52217,0 0.9455,-0.421956 0.9455,-0.942574 0,-0.520784 -0.42333,-0.942734 -0.9455,-0.942734 -0.61545,0 -1.2192,0.129316 -1.78278,0.349441 0.11515,-0.543252 0.15764,-1.130374 0.009,-1.754449 -0.22598,-0.947652 -0.87654,-1.852827 -2.00615,-2.730285 -0.19781,-0.153937 -0.44873,-0.223055 -0.69766,-0.192268 -0.24892,0.03075 -0.47536,0.158867 -0.62945,0.356218 -0.32051,0.411017 -0.24631,1.003383 0.16594,1.323108 0.92025,0.71475 1.22413,1.243843 1.32804,1.679342 0.10392,0.435493 0.0203,0.9027 -0.18841,1.544631 -0.26679,0.865141 -0.57651,1.637459 -0.71229,2.378063 -0.0668,0.364532 -0.0725,0.761234 -0.0897,1.0782 -0.66271,-0.645937 -0.9221,-1.498763 -0.9221,-2.74491 -2e-4,-0.520623 -0.42349,-0.942729 -0.94549,-0.942573 -0.52171,3.96e-4 -0.94443,0.422261 -0.94459,0.942573 0,1.701965 0.49769,3.321414 1.83158,4.401763 1.20751,1.150398 4.27816,0.725218 4.27816,2.572034 0,0.521245 0.76292,0.774933 1.28493,0.774933 0.5354,0 1.2092,-0.357911 1.2092,-0.774933 0,-2.095431 2.20828,-3.368979 5.84356,-3.36344 0.52217,5.36e-4 0.94582,-0.420868 0.94659,-0.941497 5.3e-4,-0.520773 -0.42149,-0.94365 -0.94366,-0.944572 -0.24861,-2.67e-4 -0.49091,0.0082 -0.72983,0.02229 0.4064,-0.955816 0.58667,-2.008152 0.54941,-3.144842 -0.0172,-0.520473 -0.45412,-0.928409 -0.97582,-0.911481 -0.52232,0.01693 -0.93149,0.453049 -0.91441,0.973827 0.0493,1.48829 -0.006,2.817259 -1.11529,3.517834 -0.31527,0.199045 -0.6818,0.37177 -1.0294,0.37177 0.26986,-0.733988 0.47368,-1.508771 0.55711,-2.34389 0.0532,-0.532945 0.059,-1.166101 -0.002,-1.65794 -0.0944,-0.762001 -0.20828,-1.626221 0.081,-2.277231 0.25985,-0.560652 0.84205,-0.795413 1.69688,-0.795413 0.5217,-3.91e-4 0.94442,-0.422411 0.94457,-0.942574 2.7e-4,-0.520784 -0.42257,-0.943189 -0.94457,-0.943655 -1.27031,0 -2.23321,0.668566 -2.77908,1.476284 -0.2854,-0.6096 -0.633,-1.237827 -1.05295,-1.888072 -0.13562,-0.210129 -0.34929,-0.357756 -0.59421,-0.410866 -0.1213,-0.0263 -0.24661,-0.02861 -0.36883,-0.0068 -0.12224,0.02202 -0.23893,0.06773 -0.34345,0.1347 z"
         fill="url(#Gradient_1)"
         id="path6008-5-06-9-5-2"
         style="display:inline;fill:#000000;fill-opacity:0.4;stroke-width:0.15394;enable-background:new" />
      <path
         d="m 427.79896,107.48717 c -0.32951,0.2114 -0.42453,0.64932 -0.2122,0.97767 1.16713,1.80745 1.4426,3.17074 1.32311,4.36547 -0.48307,2.28785 -1.53313,2.75199 -2.45077,2.75199 -0.89593,0 -0.65601,-1.47448 0.0175,-1.90605 0.40201,-0.251 0.91695,-0.41414 1.31214,-0.41414 0.39163,0 0.70913,-0.31647 0.70913,-0.70693 0,-0.39058 -0.3175,-0.70705 -0.70913,-0.70705 -0.46158,0 -0.9144,0.097 -1.33708,0.26208 0.0864,-0.40743 0.11823,-0.84777 0.007,-1.31583 -0.16948,-0.71074 -0.6574,-1.38962 -1.50461,-2.04771 -0.14836,-0.11545 -0.33655,-0.16729 -0.52324,-0.1442 -0.18669,0.023 -0.35652,0.11914 -0.47209,0.26716 -0.24038,0.30826 -0.18473,0.75254 0.12445,0.99233 0.69019,0.53606 0.9181,0.93288 0.99603,1.25951 0.0779,0.32661 0.0152,0.67702 -0.14131,1.15847 -0.20009,0.64885 -0.43238,1.22809 -0.53421,1.78354 -0.0501,0.2734 -0.0544,0.57092 -0.0673,0.80865 -0.49703,-0.48445 -0.69157,-1.12407 -0.69157,-2.05868 -1.5e-4,-0.39046 -0.31762,-0.70705 -0.70912,-0.70693 -0.39128,3e-4 -0.70832,0.3167 -0.70844,0.70693 0,1.27647 0.37327,2.49105 1.37368,3.30132 0.90564,0.86279 3.20862,0.54391 3.20862,1.92902 0,0.39093 0.57219,0.5812 0.9637,0.5812 0.40154,0 0.90689,-0.26843 0.90689,-0.5812 0,-1.57157 1.65621,-2.52673 4.38267,-2.52257 0.39162,3.9e-4 0.70936,-0.31566 0.70994,-0.70613 4e-4,-0.39057 -0.31612,-0.70773 -0.70774,-0.70842 -0.18646,-2.1e-4 -0.36819,0.006 -0.54738,0.0167 0.3048,-0.71686 0.44001,-1.50611 0.41206,-2.35863 -0.0129,-0.39036 -0.34059,-0.6963 -0.73186,-0.68361 -0.39174,0.0127 -0.69862,0.33978 -0.68581,0.73037 0.037,1.11621 -0.005,2.11294 -0.83647,2.63838 -0.23645,0.14927 -0.51135,0.27882 -0.77205,0.27882 0.2024,-0.55049 0.35526,-1.13158 0.41784,-1.75791 0.0399,-0.39971 0.0442,-0.87458 -0.002,-1.24346 -0.0708,-0.5715 -0.15621,-1.21967 0.0608,-1.70792 0.19488,-0.42049 0.63153,-0.59656 1.27265,-0.59656 0.39128,-2.9e-4 0.70832,-0.31681 0.70843,-0.70693 2e-4,-0.39059 -0.31693,-0.70739 -0.70843,-0.70774 -0.95273,0 -1.6749,0.50143 -2.0843,1.10722 -0.21405,-0.4572 -0.47475,-0.92838 -0.78971,-1.41606 -0.10172,-0.15759 -0.26197,-0.26831 -0.44566,-0.30815 -0.091,-0.0197 -0.18496,-0.0215 -0.27662,-0.005 -0.0917,0.0165 -0.1792,0.0508 -0.25759,0.10103 z"
         fill="url(#Gradient_1)"
         id="path6008-5-06-9-5-7-1"
         style="display:inline;fill:#000000;fill-opacity:0.4;stroke-width:0.115455;enable-background:new" />
      <path
         d="m 423.86561,145.32471 c -0.21967,0.14093 -0.28302,0.43288 -0.14146,0.65178 0.77808,1.20496 0.96173,2.11382 0.88207,2.91031 -0.32205,1.52523 -1.02209,1.83466 -1.63385,1.83466 -0.59728,0 -0.43734,-0.98299 0.0117,-1.2707 0.26801,-0.16733 0.6113,-0.27609 0.87476,-0.27609 0.26109,0 0.47275,-0.21098 0.47275,-0.47129 0,-0.26039 -0.21166,-0.47137 -0.47275,-0.47137 -0.30772,0 -0.6096,0.0647 -0.89139,0.17472 0.0576,-0.27162 0.0788,-0.56518 0.005,-0.87722 -0.11299,-0.47382 -0.43827,-0.92641 -1.00307,-1.36514 -0.0989,-0.077 -0.22437,-0.11152 -0.34883,-0.0961 -0.12446,0.0153 -0.23768,0.0794 -0.31473,0.17811 -0.16025,0.2055 -0.12315,0.50169 0.083,0.66155 0.46013,0.35737 0.61207,0.62192 0.66402,0.83967 0.0519,0.21774 0.0101,0.45135 -0.0942,0.77232 -0.13339,0.43256 -0.28825,0.81872 -0.35614,1.18902 -0.0334,0.18227 -0.0363,0.38062 -0.0449,0.5391 -0.33136,-0.32296 -0.46105,-0.74938 -0.46105,-1.37245 -1e-4,-0.26031 -0.21175,-0.47137 -0.47275,-0.47129 -0.26085,2e-4 -0.47221,0.21114 -0.47229,0.47129 0,0.85098 0.24885,1.6607 0.91579,2.20088 0.60376,0.5752 2.13908,0.36261 2.13908,1.28602 0,0.26062 0.38146,0.38746 0.64246,0.38746 0.2677,0 0.6046,-0.17895 0.6046,-0.38746 0,-1.04772 1.10414,-1.68449 2.92178,-1.68172 0.26108,2.6e-4 0.47291,-0.21044 0.47329,-0.47075 2.7e-4,-0.26038 -0.21074,-0.47182 -0.47183,-0.47228 -0.1243,-1.4e-4 -0.24546,0.004 -0.36492,0.0111 0.2032,-0.47791 0.29334,-1.00407 0.27471,-1.57242 -0.009,-0.26024 -0.22706,-0.4642 -0.48791,-0.45574 -0.26116,0.008 -0.46574,0.22652 -0.4572,0.48691 0.0247,0.74414 -0.003,1.40863 -0.55765,1.75892 -0.15763,0.0995 -0.3409,0.18588 -0.5147,0.18588 0.13493,-0.36699 0.23684,-0.75438 0.27856,-1.17194 0.0266,-0.26647 0.0295,-0.58305 -10e-4,-0.82897 -0.0472,-0.381 -0.10414,-0.81311 0.0405,-1.13861 0.12992,-0.28033 0.42102,-0.39771 0.84843,-0.39771 0.26086,-1.9e-4 0.47222,-0.21121 0.47229,-0.47129 1.3e-4,-0.26039 -0.21129,-0.47159 -0.47229,-0.47182 -0.63515,0 -1.1166,0.33428 -1.38953,0.73814 -0.1427,-0.3048 -0.3165,-0.61892 -0.52647,-0.94404 -0.0678,-0.10506 -0.17465,-0.17887 -0.29711,-0.20543 -0.0607,-0.0131 -0.12331,-0.0143 -0.18441,-0.003 -0.0611,0.011 -0.11947,0.0339 -0.17173,0.0674 z"
         fill="url(#Gradient_1)"
         id="path6008-5-06-9-5-7-3-4"
         style="display:inline;fill:#000000;fill-opacity:0.4;stroke-width:0.07697;enable-background:new" />
    </g>
    <g
       inkscape:groupmode="layer"
       id="layer6"
       inkscape:label="Symbols"
       style="display:inline">
      <path
         d="m 141.36168,83.475456 c -4.33487,2.78107 -5.58491,8.54217 -2.79169,12.86185 15.35432,23.778024 18.97836,41.712924 17.40633,57.430254 -6.35499,30.09807 -20.16917,36.20395 -32.2412,36.20395 -11.78649,0 -8.63026,-19.39757 0.22935,-25.07513 5.28873,-3.30204 12.06292,-5.44821 17.26203,-5.44821 5.15203,0 9.32894,-4.16325 9.32894,-9.30009 0,-5.13836 -4.17691,-9.3016 -9.32894,-9.3016 -6.07247,0 -12.0295,1.27586 -17.59011,3.44785 1.13612,-5.36012 1.55533,-11.15311 0.0866,-17.31064 -2.22971,-9.3502 -8.64848,-18.2812 -19.794,-26.9388 -1.95176,-1.518884 -4.427537,-2.200854 -6.883557,-1.897084 -2.45603,0.30378 -4.69029,1.56748 -6.21069,3.514684 -3.1623,4.05541 -2.4302,9.90004 1.63735,13.05475 9.079847,7.05215 12.078117,12.27253 13.103357,16.56943 1.02524,4.2969 0.20049,8.90669 -1.85911,15.24041 -2.63221,8.53609 -5.688197,16.15629 -7.027847,23.46361 -0.65919,3.5967 -0.71539,7.51084 -0.8855,10.63821 -6.53877,-6.37321 -9.09808,-14.78778 -9.09808,-27.08309 -0.001,-5.13684 -4.17843,-9.3016 -9.32894,-9.30008 -5.14747,0.005 -9.31831,4.16628 -9.31983,9.30008 0,16.7927 4.91053,32.77129 18.0716,43.43076 11.91407,11.35058 42.211117,7.15543 42.211117,25.3774 0,5.14292 7.52755,7.64603 12.67806,7.64603 5.28265,0 11.93078,-3.53139 11.93078,-7.64603 0,-20.67495 21.78829,-33.24062 57.65656,-33.18594 5.15203,0.008 9.33198,-4.15261 9.33958,-9.28945 0.009,-5.13836 -4.15869,-9.31072 -9.31072,-9.31983 -2.45298,-0.003 -4.8437,0.0805 -7.20099,0.22024 4.00983,-9.43071 5.78844,-19.81375 5.42087,-31.02914 -0.17012,-5.13532 -4.48069,-9.16035 -9.62816,-8.99327 -5.15355,0.16708 -9.19073,4.47006 -9.02213,9.60842 0.48604,14.6845 -0.0638,27.79696 -11.00426,34.70937 -3.11066,1.96391 -6.72711,3.66809 -10.15673,3.66809 2.66259,-7.24201 4.67358,-14.88652 5.49681,-23.12642 0.52553,-5.25835 0.58173,-11.50549 -0.0182,-16.35831 -0.93107,-7.51844 -2.05504,-16.04541 0.79893,-22.46874 2.56387,-5.53175 8.30826,-7.84804 16.74258,-7.84804 5.14748,-0.005 9.31831,-4.1678 9.31983,-9.300084 0.003,-5.13836 -4.16932,-9.30616 -9.31983,-9.31072 -12.53377,0 -22.03434,6.59649 -27.42028,14.566034 -2.816,-6.014754 -6.24562,-12.213294 -10.38912,-18.629024 -1.33813,-2.07327 -3.44633,-3.52987 -5.86286,-4.05388 -1.19688,-0.25973 -2.43325,-0.28251 -3.63923,-0.0668 -1.20599,0.2172 -2.3573,0.6683 -3.38862,1.32901 z"
         fill="url(#Gradient_1)"
         id="path6008"
         style="fill:#ffffff;fill-opacity:1;stroke-width:1.51888" />
      <path
         d="m 335.00167,49.55829 c -1.64022,1.052294 -2.11321,3.232169 -1.05632,4.866645 5.80975,8.997088 7.181,15.783266 6.58618,21.730364 -2.40459,11.388459 -7.63158,13.698792 -12.19937,13.698792 -4.45975,0 -3.2655,-7.339621 0.0868,-9.487887 2.00114,-1.249421 4.56435,-2.061485 6.53158,-2.061485 1.94942,0 3.52987,-1.575284 3.52987,-3.518953 0,-1.944244 -1.58045,-3.519524 -3.52987,-3.519524 -2.29769,0 -4.5517,0.482758 -6.65572,1.304592 0.42988,-2.028154 0.5885,-4.220096 0.0328,-6.549972 -0.84367,-3.537914 -3.2724,-6.917211 -7.48962,-10.19306 -0.73851,-0.574711 -1.67528,-0.832754 -2.60459,-0.717814 -0.92931,0.114944 -1.77471,0.593101 -2.34999,1.329879 -1.19655,1.53448 -0.91954,3.745961 0.61953,4.939635 3.43562,2.668381 4.5701,4.64366 4.95803,6.269514 0.38793,1.625854 0.0759,3.370099 -0.70344,5.766642 -0.99598,3.229872 -2.15229,6.113191 -2.65919,8.878123 -0.24942,1.360913 -0.27069,2.841939 -0.33506,4.025268 -2.47412,-2.411485 -3.44251,-5.595376 -3.44251,-10.247655 -7.5e-4,-1.94367 -1.58103,-3.519525 -3.52987,-3.51895 -1.94769,0.0019 -3.52584,1.576431 -3.52642,3.51895 0,6.353994 1.85804,12.399947 6.8379,16.43326 4.50803,4.294814 15.97177,2.70746 15.97177,9.602256 0,1.94597 2.84827,2.89309 4.79711,2.89309 1.99884,0 4.51435,-1.3362 4.51435,-2.89309 0,-7.82295 8.24422,-12.577528 21.81599,-12.556839 1.94942,0.003 3.53102,-1.571257 3.5339,-3.514927 0.003,-1.944244 -1.57356,-3.522975 -3.52298,-3.526422 -0.92815,-0.0011 -1.83275,0.03046 -2.7247,0.08333 1.51724,-3.568376 2.19022,-7.497094 2.05114,-11.740755 -0.0644,-1.943094 -1.69539,-3.466079 -3.64308,-3.402859 -1.95,0.06322 -3.47758,1.691374 -3.41378,3.635618 0.1839,5.556297 -0.0241,10.517769 -4.16378,13.133275 -1.177,0.743101 -2.54539,1.387926 -3.84308,1.387926 1.00746,-2.74022 1.76838,-5.632737 2.07987,-8.750537 0.19885,-1.989646 0.22011,-4.353429 -0.007,-6.189631 -0.35229,-2.844815 -0.77758,-6.071236 0.3023,-8.501685 0.97012,-2.093095 3.14367,-2.969529 6.33503,-2.969529 1.9477,-0.0019 3.52585,-1.577005 3.52642,-3.518949 0.001,-1.944245 -1.57758,-3.521249 -3.52642,-3.522973 -4.74251,0 -8.33732,2.495966 -10.37524,5.511468 -1.06551,-2.275851 -2.36321,-4.621243 -3.93102,-7.048818 -0.50632,-0.784479 -1.30401,-1.335626 -2.21838,-1.533902 -0.45287,-0.09828 -0.92069,-0.106896 -1.377,-0.02529 -0.45632,0.08218 -0.89195,0.252873 -1.28218,0.502872 z"
         fill="url(#Gradient_1)"
         id="path6008-5"
         style="display:inline;fill:#fffff2;fill-opacity:1;stroke-width:0.574711;enable-background:new" />
      <path
         d="m 319.34041,153.8689 c -1.08372,0.69527 -1.39623,2.13554 -0.69792,3.21546 3.83858,5.94449 4.74458,10.42822 4.35158,14.35755 -1.58875,7.52451 -5.0423,9.05098 -8.0603,9.05098 -2.94662,0 -2.15756,-4.84939 0.0573,-6.26878 1.32218,-0.82551 3.01573,-1.36205 4.31551,-1.36205 1.28801,0 2.33223,-1.04081 2.33223,-2.32502 0,-1.28459 -1.04422,-2.3254 -2.33223,-2.3254 -1.51812,0 -3.00737,0.31897 -4.39753,0.86196 0.28403,-1.34003 0.38883,-2.78827 0.0217,-4.32766 -0.55742,-2.33754 -2.16212,-4.57029 -4.94849,-6.73469 -0.48795,-0.37972 -1.10688,-0.55021 -1.72089,-0.47427 -0.61401,0.0759 -1.17258,0.39187 -1.55267,0.87867 -0.79058,1.01385 -0.60756,2.47501 0.40933,3.26368 2.26996,1.76304 3.01953,3.06813 3.27584,4.14236 0.25631,1.07422 0.0501,2.22667 -0.46477,3.8101 -0.65806,2.13402 -1.42205,4.03907 -1.75697,5.8659 -0.16479,0.89917 -0.17885,1.87771 -0.22138,2.65955 -1.63468,-1.59331 -2.27451,-3.69695 -2.27451,-6.77077 -5e-4,-1.28421 -1.04461,-2.3254 -2.33223,-2.32502 -1.28687,0.001 -2.32958,1.04157 -2.32996,2.32502 0,4.19817 1.22763,8.19282 4.5179,10.85768 2.97851,2.83765 10.55277,1.78886 10.55277,6.34435 0,1.28573 1.88189,1.9115 3.16951,1.9115 1.32066,0 2.9827,-0.88284 2.9827,-1.9115 0,-5.16873 5.44707,-8.31015 14.41412,-8.29648 1.28801,0.002 2.333,-1.03815 2.3349,-2.32236 0.002,-1.28459 -1.03967,-2.32768 -2.32768,-2.32996 -0.61324,-6.6e-4 -1.21092,0.0202 -1.80025,0.055 1.00246,-2.35767 1.44711,-4.95343 1.35522,-7.75728 -0.0426,-1.28383 -1.12017,-2.29008 -2.40704,-2.24831 -1.28839,0.0418 -2.29768,1.11751 -2.25553,2.4021 0.12151,3.67112 -0.0159,6.94924 -2.75106,8.67733 -0.77766,0.49098 -1.68178,0.91703 -2.53918,0.91703 0.66564,-1.8105 1.16839,-3.72163 1.3742,-5.7816 0.13138,-1.31459 0.14543,-2.87638 -0.005,-4.08958 -0.23276,-1.87961 -0.51375,-4.01135 0.19974,-5.61718 0.64097,-1.38294 2.07706,-1.96201 4.18564,-1.96201 1.28687,-0.001 2.32958,-1.04195 2.32995,-2.32502 6.6e-4,-1.28459 -1.04233,-2.32653 -2.32995,-2.32768 -3.13344,0 -5.50858,1.64913 -6.85507,3.64151 -0.70399,-1.50369 -1.5614,-3.05332 -2.59727,-4.65726 -0.33454,-0.51831 -0.86158,-0.88246 -1.46572,-1.01346 -0.29922,-0.0649 -0.60831,-0.0706 -0.9098,-0.0167 -0.3015,0.0543 -0.58933,0.16707 -0.84716,0.33225 z"
         fill="url(#Gradient_1)"
         id="path6008-5-06"
         style="display:inline;fill:#ffffff;fill-opacity:1;stroke-width:0.37972;enable-background:new" />
      <path
         d="m 311.50083,230.27918 c -0.82011,0.52615 -1.05661,1.61609 -0.52815,2.43332 2.90487,4.49854 3.59049,7.89163 3.29308,10.86517 -1.2023,5.69422 -3.81579,6.84939 -6.09968,6.84939 -2.22988,0 -1.63275,-3.66981 0.0434,-4.74394 1.00057,-0.62471 2.28217,-1.03074 3.26579,-1.03074 0.97471,0 1.76493,-0.78765 1.76493,-1.75947 0,-0.97213 -0.79022,-1.75977 -1.76493,-1.75977 -1.14885,0 -2.27585,0.24139 -3.32786,0.65229 0.21494,-1.01407 0.29425,-2.11003 0.0164,-3.27497 -0.42183,-1.76895 -1.6362,-3.45861 -3.7448,-5.09653 -0.36926,-0.28735 -0.83763,-0.41637 -1.3023,-0.3589 -0.46465,0.0574 -0.88735,0.29655 -1.17498,0.66494 -0.59828,0.76723 -0.45978,1.87298 0.30976,2.4698 1.7178,1.3342 2.28504,2.32184 2.47901,3.13477 0.19397,0.81292 0.0379,1.68504 -0.35171,2.88331 -0.498,1.61493 -1.07615,3.05659 -1.32961,4.43905 -0.1247,0.68046 -0.13534,1.42097 -0.16753,2.01264 -1.23705,-1.20575 -1.72125,-2.79769 -1.72125,-5.12383 -3.7e-4,-0.97183 -0.79051,-1.75976 -1.76492,-1.75947 -0.97385,7.4e-4 -1.76293,0.78822 -1.76322,1.75947 0,3.177 0.92902,6.19997 3.41895,8.21662 2.25401,2.14741 7.98588,1.35374 7.98588,4.80113 0,0.97299 1.42413,1.44654 2.39855,1.44654 0.99941,0 2.25717,-0.6681 2.25717,-1.44654 0,-3.91147 4.12211,-6.28876 10.90797,-6.27842 0.97472,0.001 1.76552,-0.78562 1.76696,-1.75746 10e-4,-0.97211 -0.78678,-1.76148 -1.76149,-1.7632 -0.46408,-5e-4 -0.91637,0.0153 -1.36235,0.0416 0.75862,-1.78419 1.09511,-3.74855 1.02557,-5.87037 -0.0322,-0.97155 -0.84769,-1.73303 -1.82154,-1.70143 -0.975,0.0316 -1.73878,0.84569 -1.70689,1.81781 0.092,2.77814 -0.012,5.25888 -2.08188,6.56662 -0.5885,0.37155 -1.27269,0.69397 -1.92154,0.69397 0.50373,-1.37011 0.88419,-2.81637 1.03993,-4.37526 0.0994,-0.99483 0.11006,-2.17672 -0.004,-3.09482 -0.17614,-1.4224 -0.38879,-3.03561 0.15115,-4.25083 0.48506,-1.04655 1.57183,-1.48477 3.16751,-1.48477 0.97385,-7.3e-4 1.76292,-0.7885 1.7632,-1.75947 5e-4,-0.97213 -0.78879,-1.76062 -1.7632,-1.76149 -2.37125,0 -4.16866,1.24799 -5.18762,2.75573 -0.53274,-1.13792 -1.1816,-2.31061 -1.9655,-3.5244 -0.25316,-0.39224 -0.652,-0.66781 -1.10919,-0.76695 -0.22643,-0.0491 -0.46034,-0.0534 -0.68849,-0.0126 -0.22817,0.0411 -0.44599,0.12643 -0.6411,0.25144 z"
         fill="url(#Gradient_1)"
         id="path6008-5-06-9"
         style="display:inline;fill:#ffffff;fill-opacity:0.999972;stroke-width:0.287355;enable-background:new" />
      <path
         d="m 431.73228,60.649557 c -0.43935,0.281867 -0.56604,0.865763 -0.28294,1.303565 1.55618,2.409933 1.92348,4.227661 1.76415,5.820629 -0.64409,3.050476 -2.04417,3.669317 -3.26769,3.669317 -1.19458,0 -0.87468,-1.96597 0.0233,-2.541397 0.53602,-0.334666 1.2226,-0.552182 1.74953,-0.552182 0.52217,0 0.9455,-0.421956 0.9455,-0.942574 0,-0.520784 -0.42333,-0.942734 -0.9455,-0.942734 -0.61545,0 -1.2192,0.129316 -1.78278,0.349441 0.11515,-0.543252 0.15764,-1.130374 0.009,-1.754449 -0.22598,-0.947652 -0.87654,-1.852827 -2.00615,-2.730285 -0.19781,-0.153937 -0.44873,-0.223055 -0.69766,-0.192268 -0.24892,0.03075 -0.47536,0.158867 -0.62945,0.356218 -0.32051,0.411017 -0.24631,1.003383 0.16594,1.323108 0.92025,0.71475 1.22413,1.243843 1.32804,1.679342 0.10392,0.435493 0.0203,0.9027 -0.18841,1.544631 -0.26679,0.865141 -0.57651,1.637459 -0.71229,2.378063 -0.0668,0.364532 -0.0725,0.761234 -0.0897,1.0782 -0.66271,-0.645937 -0.9221,-1.498763 -0.9221,-2.74491 -2e-4,-0.520623 -0.42349,-0.942729 -0.94549,-0.942573 -0.52171,3.96e-4 -0.94443,0.422261 -0.94459,0.942573 0,1.701965 0.49769,3.321414 1.83158,4.401763 1.20751,1.150398 4.27816,0.725218 4.27816,2.572034 0,0.521245 0.76292,0.774933 1.28493,0.774933 0.5354,0 1.2092,-0.357911 1.2092,-0.774933 0,-2.095431 2.20828,-3.368979 5.84356,-3.36344 0.52217,5.36e-4 0.94582,-0.420868 0.94659,-0.941497 5.3e-4,-0.520773 -0.42149,-0.94365 -0.94366,-0.944572 -0.24861,-2.67e-4 -0.49091,0.0082 -0.72983,0.02229 0.4064,-0.955816 0.58667,-2.008152 0.54941,-3.144842 -0.0172,-0.520473 -0.45412,-0.928409 -0.97582,-0.911481 -0.52232,0.01693 -0.93149,0.453049 -0.91441,0.973827 0.0493,1.48829 -0.006,2.817259 -1.11529,3.517834 -0.31527,0.199045 -0.6818,0.37177 -1.0294,0.37177 0.26986,-0.733988 0.47368,-1.508771 0.55711,-2.34389 0.0532,-0.532945 0.059,-1.166101 -0.002,-1.65794 -0.0944,-0.762001 -0.20828,-1.626221 0.081,-2.277231 0.25985,-0.560652 0.84205,-0.795413 1.69688,-0.795413 0.5217,-3.91e-4 0.94442,-0.422411 0.94457,-0.942574 2.7e-4,-0.520784 -0.42257,-0.943189 -0.94457,-0.943655 -1.27031,0 -2.23321,0.668566 -2.77908,1.476284 -0.2854,-0.6096 -0.633,-1.237827 -1.05295,-1.888072 -0.13562,-0.210129 -0.34929,-0.357756 -0.59421,-0.410866 -0.1213,-0.0263 -0.24661,-0.02861 -0.36883,-0.0068 -0.12224,0.02202 -0.23893,0.06773 -0.34345,0.1347 z"
         fill="url(#Gradient_1)"
         id="path6008-5-06-9-5"
         style="display:inline;fill:#ffffff;fill-opacity:0.921268;stroke-width:0.15394;enable-background:new" />
      <path
         d="m 427.79896,106.48718 c -0.32951,0.2114 -0.42453,0.64932 -0.2122,0.97767 1.16713,1.80745 1.4426,3.17074 1.32311,4.36547 -0.48307,2.28785 -1.53313,2.75199 -2.45077,2.75199 -0.89593,0 -0.65601,-1.47448 0.0175,-1.90605 0.40201,-0.251 0.91695,-0.41414 1.31214,-0.41414 0.39163,0 0.70913,-0.31647 0.70913,-0.70693 0,-0.39058 -0.3175,-0.70705 -0.70913,-0.70705 -0.46158,0 -0.9144,0.097 -1.33708,0.26208 0.0864,-0.40743 0.11823,-0.84777 0.007,-1.31583 -0.16948,-0.71074 -0.6574,-1.38962 -1.50461,-2.04771 -0.14836,-0.11545 -0.33655,-0.16729 -0.52324,-0.1442 -0.18669,0.023 -0.35652,0.11914 -0.47209,0.26716 -0.24038,0.30826 -0.18473,0.75254 0.12445,0.99233 0.69019,0.53606 0.9181,0.93288 0.99603,1.25951 0.0779,0.32661 0.0152,0.67702 -0.14131,1.15847 -0.20009,0.64885 -0.43238,1.22809 -0.53421,1.78354 -0.0501,0.2734 -0.0544,0.57092 -0.0673,0.80865 -0.49703,-0.48445 -0.69157,-1.12407 -0.69157,-2.05868 -1.5e-4,-0.39046 -0.31762,-0.70705 -0.70912,-0.70693 -0.39128,3e-4 -0.70832,0.3167 -0.70844,0.70693 0,1.27647 0.37327,2.49105 1.37368,3.30132 0.90564,0.86279 3.20862,0.54391 3.20862,1.92902 0,0.39093 0.57219,0.5812 0.9637,0.5812 0.40154,0 0.90689,-0.26843 0.90689,-0.5812 0,-1.57157 1.65621,-2.52673 4.38267,-2.52257 0.39162,3.9e-4 0.70936,-0.31566 0.70994,-0.70613 4e-4,-0.39057 -0.31612,-0.70773 -0.70774,-0.70842 -0.18646,-2.1e-4 -0.36819,0.006 -0.54738,0.0167 0.3048,-0.71686 0.44001,-1.50611 0.41206,-2.35863 -0.0129,-0.39036 -0.34059,-0.6963 -0.73186,-0.68361 -0.39174,0.0127 -0.69862,0.33978 -0.68581,0.73037 0.037,1.11621 -0.005,2.11294 -0.83647,2.63838 -0.23645,0.14927 -0.51135,0.27882 -0.77205,0.27882 0.2024,-0.55049 0.35526,-1.13158 0.41784,-1.75791 0.0399,-0.39971 0.0442,-0.87458 -0.002,-1.24346 -0.0708,-0.5715 -0.15621,-1.21967 0.0608,-1.70792 0.19488,-0.42049 0.63153,-0.59656 1.27265,-0.59656 0.39128,-2.9e-4 0.70832,-0.31681 0.70843,-0.70693 2e-4,-0.39059 -0.31693,-0.70739 -0.70843,-0.70774 -0.95273,0 -1.6749,0.50143 -2.0843,1.10722 -0.21405,-0.4572 -0.47475,-0.92838 -0.78971,-1.41606 -0.10172,-0.15759 -0.26197,-0.26831 -0.44566,-0.30815 -0.091,-0.0197 -0.18496,-0.0215 -0.27662,-0.005 -0.0917,0.0165 -0.1792,0.0508 -0.25759,0.10103 z"
         fill="url(#Gradient_1)"
         id="path6008-5-06-9-5-7"
         style="display:inline;fill:#ffffff;fill-opacity:1;stroke-width:0.115455;enable-background:new" />
      <path
         d="m 423.86561,144.32473 c -0.21967,0.14093 -0.28302,0.43288 -0.14146,0.65178 0.77808,1.20496 0.96173,2.11382 0.88207,2.91031 -0.32205,1.52523 -1.02209,1.83466 -1.63385,1.83466 -0.59728,0 -0.43734,-0.98299 0.0117,-1.2707 0.26801,-0.16733 0.6113,-0.27609 0.87476,-0.27609 0.26109,0 0.47275,-0.21098 0.47275,-0.47129 0,-0.26039 -0.21166,-0.47137 -0.47275,-0.47137 -0.30772,0 -0.6096,0.0647 -0.89139,0.17472 0.0576,-0.27162 0.0788,-0.56518 0.005,-0.87722 -0.11299,-0.47382 -0.43827,-0.92641 -1.00307,-1.36514 -0.0989,-0.077 -0.22437,-0.11152 -0.34883,-0.0961 -0.12446,0.0153 -0.23768,0.0794 -0.31473,0.17811 -0.16025,0.2055 -0.12315,0.50169 0.083,0.66155 0.46013,0.35737 0.61207,0.62192 0.66402,0.83967 0.0519,0.21774 0.0101,0.45135 -0.0942,0.77232 -0.13339,0.43256 -0.28825,0.81872 -0.35614,1.18902 -0.0334,0.18227 -0.0363,0.38062 -0.0449,0.5391 -0.33136,-0.32296 -0.46105,-0.74938 -0.46105,-1.37245 -1e-4,-0.26031 -0.21175,-0.47137 -0.47275,-0.47129 -0.26085,2e-4 -0.47221,0.21114 -0.47229,0.47129 0,0.85098 0.24885,1.6607 0.91579,2.20088 0.60376,0.5752 2.13908,0.36261 2.13908,1.28602 0,0.26062 0.38146,0.38746 0.64246,0.38746 0.2677,0 0.6046,-0.17895 0.6046,-0.38746 0,-1.04772 1.10414,-1.68449 2.92178,-1.68172 0.26108,2.6e-4 0.47291,-0.21044 0.47329,-0.47075 2.7e-4,-0.26038 -0.21074,-0.47182 -0.47183,-0.47228 -0.1243,-1.4e-4 -0.24546,0.004 -0.36492,0.0111 0.2032,-0.47791 0.29334,-1.00407 0.27471,-1.57242 -0.009,-0.26024 -0.22706,-0.4642 -0.48791,-0.45574 -0.26116,0.008 -0.46574,0.22652 -0.4572,0.48691 0.0247,0.74414 -0.003,1.40863 -0.55765,1.75892 -0.15763,0.0995 -0.3409,0.18588 -0.5147,0.18588 0.13493,-0.36699 0.23684,-0.75438 0.27856,-1.17194 0.0266,-0.26647 0.0295,-0.58305 -10e-4,-0.82897 -0.0472,-0.381 -0.10414,-0.81311 0.0405,-1.13861 0.12992,-0.28033 0.42102,-0.39771 0.84843,-0.39771 0.26086,-1.9e-4 0.47222,-0.21121 0.47229,-0.47129 1.3e-4,-0.26039 -0.21129,-0.47159 -0.47229,-0.47182 -0.63515,0 -1.1166,0.33428 -1.38953,0.73814 -0.1427,-0.3048 -0.3165,-0.61892 -0.52647,-0.94404 -0.0678,-0.10506 -0.17465,-0.17887 -0.29711,-0.20543 -0.0607,-0.0131 -0.12331,-0.0143 -0.18441,-0.003 -0.0611,0.011 -0.11947,0.0339 -0.17173,0.0674 z"
         fill="url(#Gradient_1)"
         id="path6008-5-06-9-5-7-3"
         style="display:inline;fill:#ffffff;fill-opacity:0.983797;stroke-width:0.07697;enable-background:new" />
    </g>
    <g
       inkscape:groupmode="layer"
       id="layer5"
       inkscape:label="Highlights"
       style="display:inline"
       sodipodi:insensitive="true">
      <path
         style="color:#bebebe;display:inline;overflow:visible;visibility:visible;opacity:0.13;fill:#ffffff;fill-opacity:1;fill-rule:nonzero;stroke:none;stroke-width:0;marker:none;enable-background:accumulate"
         d="M 84,47 C 56.836703,47 35,68.836703 35,96 v 1 C 35,69.836703 56.836703,48 84,48 h 120 c 27.1633,0 49,21.836703 49,49 V 96 C 253,68.836703 231.1633,47 204,47 Z"
         id="rect3894"
         inkscape:connector-curvature="0" />
      <path
         style="color:#bebebe;display:inline;overflow:visible;visibility:visible;opacity:0.13;fill:#ffffff;fill-opacity:1;fill-rule:nonzero;stroke:none;stroke-width:0;marker:none;enable-background:accumulate"
         d="m 419,141 c -1.1253,0 -2,0.8747 -2,2 v 1 c 0,-1.1253 0.8747,-2 2,-2 h 10 c 1.1253,0 2,0.8747 2,2 v -1 c 0,-1.1253 -0.8747,-2 -2,-2 z"
         id="rect3896"
         inkscape:connector-curvature="0" />
      <path
         style="color:#bebebe;display:inline;overflow:visible;visibility:visible;opacity:0.13;fill:#ffffff;fill-opacity:1;fill-rule:nonzero;stroke:none;stroke-width:0;marker:none;enable-background:accumulate"
         d="m 422,102 c -2.2333,0 -4,1.7667 -4,4 v 1 c 0,-2.2333 1.7667,-4 4,-4 h 12 c 2.2333,0 4,1.7667 4,4 v -1 c 0,-2.2333 -1.7667,-4 -4,-4 z"
         id="rect3898"
         inkscape:connector-curvature="0" />
      <path
         style="color:#bebebe;display:inline;overflow:visible;visibility:visible;opacity:0.13;fill:#ffffff;fill-opacity:1;fill-rule:nonzero;stroke:none;stroke-width:0;marker:none;enable-background:accumulate"
         d="m 424,54 c -3.3413,0 -6,2.658703 -6,6 v 1 c 0,-3.341297 2.6587,-6 6,-6 h 16 c 3.3413,0 6,2.658703 6,6 v -1 c 0,-3.341297 -2.6587,-6 -6,-6 z"
         id="rect3900"
         inkscape:connector-curvature="0" />
      <path
         style="color:#bebebe;display:inline;overflow:visible;visibility:visible;opacity:0.13;fill:#ffffff;fill-opacity:1;fill-rule:nonzero;stroke:none;stroke-width:0;marker:none;enable-background:accumulate"
         d="m 300,224 c -4.4493,0 -8,3.5507 -8,8 v 1 c 0,-4.4493 3.5507,-8 8,-8 h 24 c 4.4493,0 8,3.5507 8,8 v -1 c 0,-4.4493 -3.5507,-8 -8,-8 z"
         id="rect3902"
         inkscape:connector-curvature="0" />
      <path
         style="color:#bebebe;display:inline;overflow:visible;visibility:visible;opacity:0.13;fill:#ffffff;fill-opacity:1;fill-rule:nonzero;stroke:none;stroke-width:0;marker:none;enable-background:accumulate"
         d="m 310,33 c -9.4353,0 -17,7.564703 -17,17 v 1 c 0,-9.435297 7.5647,-17 17,-17 h 52 c 9.4353,0 17,7.564703 17,17 v -1 c 0,-9.435297 -7.5647,-17 -17,-17 z"
         id="rect3904"
         inkscape:connector-curvature="0" />
      <path
         style="color:#bebebe;display:inline;overflow:visible;visibility:visible;opacity:0.13;fill:#ffffff;fill-opacity:1;fill-rule:nonzero;stroke:none;stroke-width:0;marker:none;enable-background:accumulate"
         d="m 302.5,143 c -6.3883,0 -11.5,5.1117 -11.5,11.5 v 1 c 0,-6.3883 5.1117,-11.5 11.5,-11.5 h 35 c 6.3883,0 11.5,5.1117 11.5,11.5 v -1 c 0,-6.3883 -5.1117,-11.5 -11.5,-11.5 z"
         id="rect3906"
         inkscape:connector-curvature="0" />
      <path
         id="path4085"
         d="m 204,266 c 27.1633,0 49,-21.8367 49,-49 v -1 c 0,27.1633 -21.8367,49 -49,49 H 84 C 56.8367,265 35,243.1633 35,216 v 1 c 0,27.1633 21.8367,49 49,49 z"
         style="color:#bebebe;display:inline;overflow:visible;visibility:visible;opacity:0.5;fill:#000000;fill-opacity:1;fill-rule:nonzero;stroke:none;stroke-width:0;marker:none;enable-background:accumulate"
         inkscape:connector-curvature="0" />
      <path
         id="path4087"
         d="m 429,156 c 1.1253,0 2,-0.8747 2,-2 v -1 c 0,1.1253 -0.8747,2 -2,2 h -10 c -1.1253,0 -2,-0.8747 -2,-2 v 1 c 0,1.1253 0.8747,2 2,2 z"
         style="color:#bebebe;display:inline;overflow:visible;visibility:visible;opacity:0.3;fill:#000000;fill-opacity:1;fill-rule:nonzero;stroke:none;stroke-width:0;marker:none;enable-background:accumulate"
         inkscape:connector-curvature="0" />
      <path
         id="path4089"
         d="m 434,123 c 2.2333,0 4,-1.7667 4,-4 v -1 c 0,2.2333 -1.7667,4 -4,4 h -12 c -2.2333,0 -4,-1.7667 -4,-4 v 1 c 0,2.2333 1.7667,4 4,4 z"
         style="color:#bebebe;display:inline;overflow:visible;visibility:visible;opacity:0.3;fill:#000000;fill-opacity:1;fill-rule:nonzero;stroke:none;stroke-width:0;marker:none;enable-background:accumulate"
         inkscape:connector-curvature="0" />
      <path
         id="path4091"
         d="m 440,83 c 3.3413,0 6,-2.6587 6,-6 v -1 c 0,3.3413 -2.6587,6 -6,6 h -16 c -3.3413,0 -6,-2.6587 -6,-6 v 1 c 0,3.3413 2.6587,6 6,6 z"
         style="color:#bebebe;display:inline;overflow:visible;visibility:visible;opacity:0.5;fill:#000000;fill-opacity:1;fill-rule:nonzero;stroke:none;stroke-width:0;marker:none;enable-background:accumulate"
         inkscape:connector-curvature="0" />
      <path
         id="path4093"
         d="m 324,265 c 4.4493,0 8,-3.5507 8,-8 v -1 c 0,4.4493 -3.5507,8 -8,8 h -24 c -4.4493,0 -8,-3.5507 -8,-8 v 1 c 0,4.4493 3.5507,8 8,8 z"
         style="color:#bebebe;display:inline;overflow:visible;visibility:visible;opacity:0.5;fill:#000000;fill-opacity:1;fill-rule:nonzero;stroke:none;stroke-width:0;marker:none;enable-background:accumulate"
         inkscape:connector-curvature="0" />
      <path
         id="path4095"
         d="m 362,120 c 9.4353,0 17,-7.5647 17,-17 v -1 c 0,9.4353 -7.5647,17 -17,17 h -52 c -9.4353,0 -17,-7.5647 -17,-17 v 1 c 0,9.4353 7.5647,17 17,17 z"
         style="color:#bebebe;display:inline;overflow:visible;visibility:visible;opacity:0.5;fill:#000000;fill-opacity:1;fill-rule:nonzero;stroke:none;stroke-width:0;marker:none;enable-background:accumulate"
         inkscape:connector-curvature="0" />
      <path
         id="path4097"
         d="m 337.5,202 c 6.3883,0 11.5,-5.1117 11.5,-11.5 v -1 c 0,6.3883 -5.1117,11.5 -11.5,11.5 h -35 c -6.3883,0 -11.5,-5.1117 -11.5,-11.5 v 1 c 0,6.3883 5.1117,11.5 11.5,11.5 z"
         style="color:#bebebe;display:inline;overflow:visible;visibility:visible;opacity:0.5;fill:#000000;fill-opacity:1;fill-rule:nonzero;stroke:none;stroke-width:0;marker:none;enable-background:accumulate"
         inkscape:connector-curvature="0" />
      <path
         inkscape:connector-curvature="0"
         id="path4280"
         d="M 84,265 C 56.836703,265 35,243.1633 35,216 v -1 c 0,27.1633 21.836703,49 49,49 h 120 c 27.1633,0 49,-21.8367 49,-49 v 1 c 0,27.1633 -21.8367,49 -49,49 z"
         style="color:#bebebe;display:inline;overflow:visible;visibility:visible;opacity:0.1;fill:#ffffff;fill-opacity:1;fill-rule:nonzero;stroke:none;stroke-width:0;marker:none;enable-background:accumulate" />
      <path
         style="color:#bebebe;display:inline;overflow:visible;visibility:visible;opacity:0.1;fill:#ffffff;fill-opacity:1;fill-rule:nonzero;stroke:none;stroke-width:0;marker:none;enable-background:accumulate"
         d="m 300,264 c -4.4493,0 -8,-3.5507 -8,-8 v -1 c 0,4.4493 3.5507,8 8,8 h 24 c 4.4493,0 8,-3.5507 8,-8 v 1 c 0,4.4493 -3.5507,8 -8,8 z"
         id="path4294"
         inkscape:connector-curvature="0" />
      <path
         style="color:#bebebe;display:inline;overflow:visible;visibility:visible;opacity:0.1;fill:#ffffff;fill-opacity:1;fill-rule:nonzero;stroke:none;stroke-width:0;marker:none;enable-background:accumulate"
         d="m 302.5,201 c -6.3883,0 -11.5,-5.1117 -11.5,-11.5 v -1 c 0,6.3883 5.1117,11.5 11.5,11.5 h 35 c 6.3883,0 11.5,-5.1117 11.5,-11.5 v 1 c 0,6.3883 -5.1117,11.5 -11.5,11.5 z"
         id="path4296"
         inkscape:connector-curvature="0" />
      <path
         style="color:#bebebe;display:inline;overflow:visible;visibility:visible;opacity:0.1;fill:#ffffff;fill-opacity:1;fill-rule:nonzero;stroke:none;stroke-width:0;marker:none;enable-background:accumulate"
         d="m 310,119 c -9.4353,0 -17,-7.5647 -17,-17 v -1 c 0,9.4353 7.5647,17 17,17 h 52 c 9.4353,0 17,-7.5647 17,-17 v 1 c 0,9.4353 -7.5647,17 -17,17 z"
         id="path4298"
         inkscape:connector-curvature="0" />
      <path
         style="color:#bebebe;display:inline;overflow:visible;visibility:visible;opacity:0.1;fill:#ffffff;fill-opacity:1;fill-rule:nonzero;stroke:none;stroke-width:0;marker:none;enable-background:accumulate"
         d="m 424,82 c -3.3413,0 -6,-2.658703 -6,-6 v -1 c 0,3.341297 2.6587,6 6,6 h 16 c 3.3413,0 6,-2.658703 6,-6 v 1 c 0,3.341297 -2.6587,6 -6,6 z"
         id="path4300"
         inkscape:connector-curvature="0" />
      <path
         style="color:#bebebe;display:inline;overflow:visible;visibility:visible;opacity:0.1;fill:#ffffff;fill-opacity:1;fill-rule:nonzero;stroke:none;stroke-width:0;marker:none;enable-background:accumulate"
         d="m 422,122 c -2.2333,0 -4,-1.7667 -4,-4 v -1 c 0,2.2333 1.7667,4 4,4 h 12 c 2.2333,0 4,-1.7667 4,-4 v 1 c 0,2.2333 -1.7667,4 -4,4 z"
         id="path4302"
         inkscape:connector-curvature="0" />
      <path
         style="color:#bebebe;display:inline;overflow:visible;visibility:visible;opacity:0.1;fill:#ffffff;fill-opacity:1;fill-rule:nonzero;stroke:none;stroke-width:0;marker:none;enable-background:accumulate"
         d="m 419,154.5 c -1.1253,0 -2,-0.8747 -2,-2 v -1 c 0,1.1253 0.8747,2 2,2 h 10 c 1.1253,0 2,-0.8747 2,-2 v 1 c 0,1.1253 -0.8747,2 -2,2 z"
         id="path4304"
         inkscape:connector-curvature="0" />
    </g>
    <g
       inkscape:groupmode="layer"
       id="layer3"
       inkscape:label="Border"
       style="display:inline"
       sodipodi:insensitive="true">
      <path
         style="color:#bebebe;display:inline;overflow:visible;visibility:visible;opacity:0.41;fill:#000000;fill-opacity:1;fill-rule:nonzero;stroke:none;stroke-width:0;marker:none;enable-background:accumulate"
         d="m 422,101 c -2.77,0 -5,2.23 -5,5 v 12 c 0,2.77 2.23,5 5,5 h 12 c 2.77,0 5,-2.23 5,-5 v -12 c 0,-2.77 -2.23,-5 -5,-5 z m 0,1 h 12 c 2.2333,0 4,1.7667 4,4 v 12 c 0,2.2333 -1.7667,4 -4,4 h -12 c -2.2333,0 -4,-1.7667 -4,-4 v -12 c 0,-2.2333 1.7667,-4 4,-4 z"
         id="rect4099"
         inkscape:connector-curvature="0" />
      <path
         style="color:#bebebe;display:inline;overflow:visible;visibility:visible;opacity:0.41;fill:#000000;fill-opacity:1;fill-rule:nonzero;stroke:none;stroke-width:0;marker:none;enable-background:accumulate"
         d="m 424,53 c -3.878,0 -7,3.122 -7,7 v 16 c 0,3.878 3.122,7 7,7 h 16 c 3.878,0 7,-3.122 7,-7 V 60 c 0,-3.878 -3.122,-7 -7,-7 z m 0,1 h 16 c 3.3413,0 6,2.658703 6,6 v 16 c 0,3.341297 -2.6587,6 -6,6 h -16 c -3.3413,0 -6,-2.658703 -6,-6 V 60 c 0,-3.341297 2.6587,-6 6,-6 z"
         id="rect4151"
         inkscape:connector-curvature="0" />
      <path
         style="color:#bebebe;display:inline;overflow:visible;visibility:visible;opacity:0.41;fill:#000000;fill-opacity:1;fill-rule:nonzero;stroke:none;stroke-width:0;marker:none;enable-background:accumulate"
         d="m 419,140 c -1.662,0 -3,1.338 -3,3 v 10 c 0,1.662 1.338,3 3,3 h 10 c 1.662,0 3,-1.338 3,-3 v -10 c 0,-1.662 -1.338,-3 -3,-3 z m 0,1 h 10 c 1.1253,0 2,0.8747 2,2 v 10 c 0,1.1253 -0.8747,2 -2,2 h -10 c -1.1253,0 -2,-0.8747 -2,-2 v -10 c 0,-1.1253 0.8747,-2 2,-2 z"
         id="rect4095"
         inkscape:connector-curvature="0" />
      <path
         style="color:#bebebe;display:inline;overflow:visible;visibility:visible;opacity:0.41;fill:#000000;fill-opacity:1;fill-rule:nonzero;stroke:none;stroke-width:0;marker:none;enable-background:accumulate"
         d="m 300,223 c -4.986,0 -9,4.014 -9,9 v 24 c 0,4.986 4.014,9 9,9 h 24 c 4.986,0 9,-4.014 9,-9 v -24 c 0,-4.986 -4.014,-9 -9,-9 z m 0,1 h 24 c 4.4493,0 8,3.5507 8,8 v 24 c 0,4.4493 -3.5507,8 -8,8 h -24 c -4.4493,0 -8,-3.5507 -8,-8 v -24 c 0,-4.4493 3.5507,-8 8,-8 z"
         id="rect4783"
         inkscape:connector-curvature="0" />
      <path
         style="color:#bebebe;display:inline;overflow:visible;visibility:visible;opacity:0.41;fill:#000000;fill-opacity:1;fill-rule:nonzero;stroke:none;stroke-width:0;marker:none;enable-background:accumulate"
         d="m 302.5,142 c -6.925,0 -12.5,5.575 -12.5,12.5 v 35 c 0,6.925 5.575,12.5 12.5,12.5 h 35 c 6.925,0 12.5,-5.575 12.5,-12.5 v -35 c 0,-6.925 -5.575,-12.5 -12.5,-12.5 z m 0,1 h 35 c 6.3883,0 11.5,5.1117 11.5,11.5 v 35 c 0,6.3883 -5.1117,11.5 -11.5,11.5 h -35 c -6.3883,0 -11.5,-5.1117 -11.5,-11.5 v -35 c 0,-6.3883 5.1117,-11.5 11.5,-11.5 z"
         id="rect4515"
         inkscape:connector-curvature="0" />
      <path
         style="color:#bebebe;display:inline;overflow:visible;visibility:visible;opacity:0.41;fill:#000000;fill-opacity:1;fill-rule:nonzero;stroke:none;stroke-width:0;marker:none;enable-background:accumulate"
         d="m 310,32 c -9.972,0 -18,8.028 -18,18 v 52 c 0,9.972 8.028,18 18,18 h 52 c 9.972,0 18,-8.028 18,-18 V 50 c 0,-9.972 -8.028,-18 -18,-18 z m 0,1 h 52 c 9.4353,0 17,7.564703 17,17 v 52 c 0,9.4353 -7.5647,17 -17,17 h -52 c -9.4353,0 -17,-7.5647 -17,-17 V 50 c 0,-9.435297 7.5647,-17 17,-17 z"
         id="rect4511"
         inkscape:connector-curvature="0" />
      <path
         style="color:#bebebe;display:inline;overflow:visible;visibility:visible;opacity:0.41;fill:#000000;fill-opacity:1;fill-rule:nonzero;stroke:none;stroke-width:0;marker:none;enable-background:accumulate"
         d="M 84,46 C 56.3,46 34,68.3 34,96 v 120 c 0,27.7 22.3,50 50,50 h 120 c 27.7,0 50,-22.3 50,-50 V 96 C 254,68.3 231.7,46 204,46 Z m 0,1 h 120 c 27.1633,0 49,21.836703 49,49 v 120 c 0,27.1633 -21.8367,49 -49,49 H 84 C 56.836703,265 35,243.1633 35,216 V 96 C 35,68.836703 56.836703,47 84,47 Z"
         id="rect4040"
         inkscape:connector-curvature="0" />
    </g>
  </g>
</svg>
