<?xml version="1.0" encoding="UTF-8" standalone="no"?>
<!-- Created with Inkscape (http://www.inkscape.org/) -->

<svg
   width="480"
   height="300"
   viewBox="0 0 480 300"
   version="1.1"
   id="svg5"
   inkscape:version="1.3.2 (091e20ef0f, 2023-11-25, custom)"
   sodipodi:docname="waydroid.svg"
   xmlns:inkscape="http://www.inkscape.org/namespaces/inkscape"
   xmlns:sodipodi="http://sodipodi.sourceforge.net/DTD/sodipodi-0.dtd"
   xmlns="http://www.w3.org/2000/svg"
   xmlns:svg="http://www.w3.org/2000/svg">
  <sodipodi:namedview
     id="namedview7"
     pagecolor="#888888"
     bordercolor="#000000"
     borderopacity="0.25"
     inkscape:showpageshadow="true"
     inkscape:pageopacity="0"
     inkscape:pagecheckerboard="0"
     inkscape:deskcolor="#888888"
     inkscape:document-units="px"
     showgrid="false"
     showborder="false"
     inkscape:zoom="2.65"
     inkscape:cx="239.81132"
     inkscape:cy="150"
     inkscape:window-width="1920"
     inkscape:window-height="1008"
     inkscape:window-x="0"
     inkscape:window-y="0"
     inkscape:window-maximized="1"
     inkscape:current-layer="g2" />
  <defs
     id="defs2" />
  <g
     id="Baseplate"
     style="display:none">
    <text
       y="19.774782"
       xml:space="preserve"
       x="15.006946"
       style="font-style:normal;font-variant:normal;font-weight:normal;font-stretch:normal;line-height:0%;font-family:'DejaVu Sans';-inkscape-font-specification:'DejaVu Sans';display:inline;fill:#000000;fill-opacity:1;stroke:none;enable-background:new"
       inkscape:label="context"
       id="context"><tspan
         style="font-style:normal;font-variant:normal;font-weight:normal;font-stretch:normal;font-size:18px;line-height:1.25;font-family:'DejaVu Sans';-inkscape-font-specification:'DejaVu Sans'"
         y="19.774782"
         x="15.006946"
         sodipodi:role="line"
         id="tspan3933">apps</tspan></text>
    <text
       y="19.774782"
       xml:space="preserve"
       x="122.48839"
       style="font-style:normal;font-variant:normal;font-weight:bold;font-stretch:normal;line-height:0%;font-family:'DejaVu Sans';-inkscape-font-specification:'DejaVu Sans Bold';text-align:start;writing-mode:lr-tb;text-anchor:start;display:inline;fill:#000000;fill-opacity:1;stroke:none;enable-background:new"
       inkscape:label="icon-name"
       id="icon-name"><tspan
         style="font-style:normal;font-variant:normal;font-weight:bold;font-stretch:normal;font-size:18px;line-height:1.25;font-family:'DejaVu Sans';-inkscape-font-specification:'DejaVu Sans Bold'"
         y="19.774782"
         x="122.48839"
         sodipodi:role="line"
         id="tspan3937">waydroid</tspan></text>
    <rect
       style="fill:#ffffff"
       id="256x256"
       width="256"
       height="256"
       x="16"
       y="28" />
    <rect
       style="fill:#ffffff"
       id="96x96"
       width="96"
       height="96"
       x="288"
       y="28" />
    <rect
       style="fill:#ffffff"
       id="64x64"
       width="64"
       height="64"
       x="288"
       y="140" />
    <rect
       style="fill:#ffffff"
       id="48x48"
       width="48"
       height="48"
       x="288"
       y="220" />
    <rect
       style="fill:#ffffff"
       id="32x32"
       width="32"
       height="32"
       x="416"
       y="52" />
    <rect
       style="fill:#ffffff"
       id="24x24"
       width="24"
       height="24"
       x="416"
       y="100" />
    <rect
       style="fill:#ffffff"
       id="22x22"
       width="22"
       height="22"
       x="417"
       y="101" />
    <rect
       style="fill:#ffffff"
       id="16x16"
       width="16"
       height="16"
       x="416"
       y="140" />
  </g>
  <g
     id="Shadow">
    <rect
       style="opacity:0.2;fill:#000000"
       id="rect651"
       width="224"
       height="224"
       x="32"
       y="46"
       ry="48" />
    <rect
       style="opacity:0.2;fill:#000000"
       id="rect769"
       width="84"
       height="85"
       x="294"
       y="34"
       ry="18" />
    <rect
       style="opacity:0.2;fill:#000000;fill-opacity:1"
       id="rect1131"
       width="56"
       height="56"
       x="292"
       y="145"
       ry="12" />
    <rect
       style="opacity:0.2;fill:#000000;fill-opacity:1"
       id="rect1261"
       width="42"
       height="42"
       x="291"
       y="224"
       ry="9" />
    <rect
       style="opacity:0.2;fill:#000000;fill-opacity:1"
       id="rect1364"
       width="28"
       height="29"
       x="418"
       y="54"
       ry="6" />
    <rect
       style="opacity:0.2;fill:#000000;fill-opacity:1"
       id="rect1398"
       width="16"
       height="16"
       x="416"
       y="141"
       ry="4" />
    <rect
       style="opacity:0.2;fill:#000000;fill-opacity:1"
       id="rect1432"
       width="20"
       height="20"
       x="418"
       y="103"
       ry="4" />
  </g>
  <g
     id="Background">
    <rect
       style="fill:#ccf2e0;fill-opacity:1"
       id="rect597"
       width="224"
       height="224"
       x="32"
       y="44"
       ry="48" />
    <rect
       style="opacity:1;fill:#ccf2e0;fill-opacity:1"
       id="rect771"
       width="84"
       height="84"
       x="294"
       y="34"
       ry="18" />
    <rect
       style="opacity:1;fill:#ccf2e0;fill-opacity:1"
       id="rect1133"
       width="56"
       height="56"
       x="292"
       y="144"
       ry="12" />
    <rect
       style="opacity:1;fill:#ccf2e0;fill-opacity:1"
       id="rect1263"
       width="42"
       height="42"
       x="291"
       y="223"
       ry="9" />
    <rect
       style="opacity:1;fill:#ccf2e0;fill-opacity:1"
       id="rect1366"
       width="28"
       height="28"
       x="418"
       y="54"
       ry="6" />
    <rect
       style="opacity:1;fill:#ccf2e0;fill-opacity:1"
       id="rect1400"
       width="16"
       height="16"
       x="416"
       y="140"
       ry="4" />
    <rect
       style="opacity:1;fill:#ccf2e0;fill-opacity:1"
       id="rect1434"
       width="20"
       height="20"
       x="418"
       y="102"
       ry="4" />
  </g>
  <g
     id="g2"
     transform="translate(3,2.9999972)">
    <g
       id="g1">
      <path
         d="m 416.97272,140.5012 c -0.0986,0.005 -0.19337,0.0396 -0.27246,0.0986 -0.22123,0.16551 -0.26628,0.47909 -0.10059,0.70019 l 0.9668,1.28809 c -0.7871,0.67738 -1.3379,1.62287 -1.50977,2.69433 -0.005,0.0311 -0.005,0.0624 -0.003,0.0947 -0.0323,0.20618 -0.0503,0.41437 -0.0537,0.62305 0,2.48528 2.01472,4.5 4.5,4.5 2.48528,0 4.5,-2.01472 4.5,-4.5 -0.002,-0.21383 -0.0187,-0.42726 -0.0508,-0.63868 10e-4,-0.0161 10e-4,-0.0319 -0.001,-0.0478 -0.16602,-1.08419 -0.71916,-2.04159 -1.51367,-2.72558 l 0.96582,-1.28809 c 0.16571,-0.2211 0.12067,-0.53468 -0.10056,-0.70019 -0.10597,-0.0793 -0.23907,-0.11339 -0.37012,-0.0947 -0.13162,0.0186 -0.25039,0.0889 -0.33008,0.19531 l -0.99219,1.32324 c -0.6287,-0.33385 -1.34595,-0.52343 -2.10742,-0.52343 -0.7617,0 -1.47858,0.18939 -2.10742,0.52343 l -0.99219,-1.32324 c -0.0797,-0.10639 -0.19846,-0.17667 -0.33008,-0.19531 -0.0323,-0.005 -0.065,-0.006 -0.0976,-0.004 z"
         style="opacity:0.2;fill:#000000;stroke-width:0.473684"
         id="path1" />
      <path
         style="fill:#37ce87;stroke-width:0.473684"
         d="m 424.65274,145.51478 c 0,2.48528 -1.57124,4.00208 -4.05652,4.00208 -2.48528,0 -4.39138,-1.49794 -4.39138,-3.98322 0,-0.24446 -0.18529,-0.5179 -0.14777,-0.75178 0.34389,-2.14389 2.20217,-3.78175 4.44299,-3.78175 2.25179,0 4.11728,1.65394 4.44793,3.81327 0.0343,0.2239 -0.29525,0.46791 -0.29525,0.7014 z"
         id="path2" />
      <path
         style="fill:#fd9c01;stroke-width:0.473684"
         d="m 424.92651,144.69568 c -1.66655,0.36071 -3.49344,0.56759 -4.42645,0.56759 -0.97361,0 -2.81597,-0.18533 -4.42552,-0.53474 a 4.5,4.5 0 0 0 -0.0745,0.77158 4.5,4.5 0 0 0 4.5,4.5 4.5,4.5 0 0 0 4.5,-4.5 4.5,4.5 0 0 0 -0.0736,-0.80443 z"
         id="path3" />
      <path
         id="path9"
         style="opacity:0.2;fill:#ffffff;stroke-width:0.473684"
         d="m 424.92682,144.69543 c -1.66655,0.3607 -3.49375,0.56738 -4.42676,0.56738 -0.97361,0 -2.81623,-0.18477 -4.42578,-0.53418 a 4.5,4.5 0 0 0 -0.0742,0.77148 4.5,4.5 0 0 0 0.0147,0.22461 4.5,4.5 0 0 1 0.0596,-0.49609 c 1.60955,0.34941 3.45217,0.53515 4.42578,0.53515 0.93301,0 2.76021,-0.20765 4.42676,-0.56835 a 4.5,4.5 0 0 1 0.0596,0.51171 4.5,4.5 0 0 0 0.0137,-0.20703 4.5,4.5 0 0 0 -0.0732,-0.80468 z" />
      <path
         style="opacity:0.2;fill:#000000;stroke-width:0.473684"
         d="m 424.31498,145.32011 c -0.50552,0.0965 -1.01057,0.17645 -1.49368,0.24286 l -0.43853,1.68334 -1.25591,-1.5071 c -0.23355,0.0145 -0.45017,0.0241 -0.6268,0.0241 -0.17838,0 -0.39363,-0.009 -0.62356,-0.0208 l -1.25869,1.47564 -0.42141,-1.63245 c -0.5053,-0.0642 -1.03112,-0.1441 -1.55011,-0.24194 l 1.24249,3.7166 c 0.17619,0.35864 0.40346,0.29244 0.64669,0.0916 l 1.98402,-2.11467 1.91833,2.05407 c 0.23095,0.31308 0.55228,0.33702 0.7133,-0.22528 z"
         id="path5" />
      <path
         style="color:#000000;fill:#37ce87;stroke-width:0.5;stroke-linecap:round;stroke-linejoin:round;-inkscape-stroke:none"
         d="m 417.07037,140.005 a 0.5,0.5 0 0 0 -0.37011,0.0947 0.5,0.5 0 0 0 -0.10059,0.7002 l 1.5,2 a 0.5,0.5 0 0 0 0.70019,0.10058 0.5,0.5 0 0 0 0.10059,-0.70019 l -1.5,-2 a 0.5,0.5 0 0 0 -0.33008,-0.19531 z"
         id="path4" />
      <path
         style="fill:#ffffff;stroke-width:0.473684"
         d="m 424.31498,144.82012 c -0.50552,0.0965 -1.01057,0.17644 -1.49368,0.24285 l -0.43853,1.68334 -1.25591,-1.50709 c -0.23355,0.0145 -0.45017,0.0241 -0.6268,0.0241 -0.17838,0 -0.39363,-0.009 -0.62356,-0.0208 l -1.25869,1.47564 -0.42141,-1.63245 c -0.5053,-0.0642 -1.03112,-0.1441 -1.55011,-0.24193 l 1.24249,3.71659 c 0.17619,0.35864 0.40346,0.29244 0.64669,0.0916 l 1.98402,-2.11467 1.91833,2.05407 c 0.23095,0.31308 0.55228,0.33702 0.7133,-0.22527 z"
         id="path6" />
      <path
         style="color:#000000;fill:#37ce87;stroke-width:0.5;stroke-linecap:round;stroke-linejoin:round;-inkscape-stroke:none"
         d="m 423.92975,140.005 a 0.5,0.5 0 0 0 -0.33008,0.19531 l -1.5,2 a 0.5,0.5 0 0 0 0.10059,0.70019 0.5,0.5 0 0 0 0.70019,-0.10058 l 1.5,-2 a 0.5,0.5 0 0 0 -0.10058,-0.7002 0.5,0.5 0 0 0 -0.37012,-0.0947 z"
         id="path7" />
      <path
         id="path8"
         style="opacity:0.2;fill:#ffffff;stroke-width:0.473684"
         d="m 416.97272,140.00109 c -0.0986,0.005 -0.19337,0.0396 -0.27246,0.0986 -0.20442,0.15294 -0.25651,0.43146 -0.13282,0.64746 0.0327,-0.0559 0.0777,-0.10624 0.13282,-0.14746 0.0791,-0.059 0.17389,-0.0934 0.27246,-0.0986 0.0326,-0.002 0.0653,-6e-4 0.0976,0.004 0.13162,0.0186 0.25039,0.0889 0.33008,0.19531 l 0.99219,1.32324 c 0.62884,-0.33404 1.34572,-0.52344 2.10742,-0.52344 0.76147,0 1.47872,0.18959 2.10742,0.52344 l 0.99219,-1.32324 c 0.0797,-0.10639 0.19846,-0.17668 0.33008,-0.19531 0.13105,-0.0187 0.26415,0.0154 0.37012,0.0947 0.0551,0.0412 0.1001,0.0916 0.13281,0.14746 0.12371,-0.216 0.0716,-0.49452 -0.13281,-0.64746 -0.10597,-0.0793 -0.23907,-0.11339 -0.37012,-0.0947 -0.13162,0.0186 -0.25039,0.0889 -0.33008,0.19531 l -0.99219,1.32324 c -0.6287,-0.33385 -1.34595,-0.52344 -2.10742,-0.52344 -0.7617,0 -1.47858,0.1894 -2.10742,0.52344 l -0.99219,-1.32324 c -0.0797,-0.10639 -0.19846,-0.17668 -0.33008,-0.19531 -0.0323,-0.005 -0.065,-0.006 -0.0976,-0.004 z m 0.37207,2.29199 c -0.6682,0.65745 -1.13288,1.52168 -1.28809,2.48926 -0.005,0.0311 -0.005,0.0624 -0.003,0.0947 -0.0323,0.20618 -0.0503,0.41437 -0.0537,0.62304 0,0.0979 0.005,0.19465 0.0107,0.29102 0.009,-0.13857 0.0215,-0.27683 0.043,-0.41406 -0.002,-0.0323 -0.002,-0.0636 0.003,-0.0947 0.17187,-1.07147 0.72267,-2.01695 1.50977,-2.69434 z m 6.31152,0 -0.22168,0.29492 c 0.79451,0.68399 1.34765,1.6414 1.51367,2.72559 0.002,0.0159 0.002,0.0317 10e-4,0.0478 0.021,0.13825 0.033,0.27747 0.041,0.41699 0.006,-0.0922 0.01,-0.18471 0.01,-0.27832 -0.002,-0.21382 -0.0187,-0.42726 -0.0508,-0.63867 10e-4,-0.0161 0.002,-0.0319 -10e-4,-0.0478 -0.15004,-0.98004 -0.61692,-1.85597 -1.29197,-2.52051 z" />
    </g>
    <g
       id="g3"
       transform="translate(1.50005,-9.0001015)">
      <path
         style="opacity:0.2;fill:#000000;stroke-width:0.5"
         d="m 418.71779,111.50113 a 0.75,0.75 0 0 0 -0.41113,0.14356 0.75,0.75 0 0 0 -0.16211,1.04882 l 1.27832,1.74512 c -1.22211,0.98582 -2.08109,2.40521 -2.34082,4.02441 -0.003,0.0192 -0.002,0.039 -0.003,0.0586 -0.0449,0.32315 -0.0763,0.69383 -0.0791,0.97851 0,3.58985 2.91015,6.5 6.5,6.5 3.58985,0 6.5,-2.91015 6.5,-6.5 -3.7e-4,-0.28979 -0.0309,-0.66273 -0.0752,-0.99219 0,0 0,-10e-4 0,-10e-4 -3.5e-4,-0.002 -6e-4,-0.005 -0.001,-0.007 -0.015,-0.11051 -0.0313,-0.21568 -0.0488,-0.31152 -0.002,5e-4 -0.005,0.001 -0.007,0.002 -0.30789,-1.50504 -1.13682,-2.81987 -2.28904,-3.74998 l 1.27927,-1.74715 a 0.75,0.75 0 0 0 -0.16211,-1.04882 0.75,0.75 0 0 0 -1.04785,0.16211 l -1.34082,1.83007 c -0.84995,-0.40777 -1.80189,-0.63672 -2.8076,-0.63672 -1.00496,0 -1.95617,0.22855 -2.80566,0.63575 l -1.33887,-1.8291 a 0.75,0.75 0 0 0 -0.49121,-0.29786 0.75,0.75 0 0 0 -0.14649,-0.008 z"
         id="path1-6" />
      <path
         style="fill:#37ce87;stroke-width:0.5"
         d="m 429.49833,119.02134 c 0,3.58985 -2.26956,5.78078 -5.85941,5.78078 -3.58985,0 -6.3431,-2.16369 -6.3431,-5.75354 0,-0.35311 -0.26764,-0.74807 -0.21345,-1.08591 0.49673,-3.09672 3.18091,-5.46252 6.41765,-5.46252 3.25258,0 5.94718,2.38902 6.42479,5.50805 0.0495,0.32342 -0.42648,0.67587 -0.42648,1.01314 z"
         id="path2-7" />
      <path
         style="fill:#fd9c01;stroke-width:0.5"
         d="m 429.87502,117.68823 c -2.40724,0.52102 -5.02731,0.81985 -6.375,0.81985 -1.40633,0 -4.05009,-0.2677 -6.375,-0.77241 -0.0679,0.36772 -0.12127,0.89058 -0.125,1.26449 0,3.58985 2.91015,6.49999 6.5,6.49999 3.58985,0 6.5,-2.91014 6.5,-6.5 -5e-4,-0.38972 -0.0548,-0.92857 -0.125,-1.31192 z"
         id="path3-5" />
      <path
         style="color:#000000;fill:#37ce87;stroke-width:0.5;stroke-linecap:round;stroke-linejoin:round;-inkscape-stroke:none"
         d="m 418.86428,111.00879 a 0.75,0.75 0 0 0 -0.55762,0.13672 0.75,0.75 0 0 0 -0.16211,1.04785 l 2.05274,2.80274 a 0.75,0.75 0 0 0 1.04882,0.16211 0.75,0.75 0 0 0 0.16114,-1.04883 l -2.05176,-2.80273 a 0.75,0.75 0 0 0 -0.49121,-0.29786 z"
         id="path4-3" />
      <path
         style="opacity:0.2;fill:#000000;stroke-width:0.5"
         d="m 429.01045,118.36794 c -0.73018,0.13939 -1.4597,0.25486 -2.15753,0.35079 l -0.63343,2.58145 -1.81409,-2.32688 c -0.33736,0.0209 -0.65024,0.0347 -0.90538,0.0347 -0.25766,0 -0.56858,-0.0123 -0.9007,-0.0301 l -1.8181,2.28145 -0.60871,-2.50795 c -0.72987,-0.0927 -1.4894,-0.20814 -2.23905,-0.34946 l 1.79472,5.46828 c 0.25449,0.51804 0.58276,0.42242 0.9341,0.1323 l 2.8658,-3.00442 2.77092,2.91689 c 0.3336,0.45222 0.79774,0.4868 1.03033,-0.3254 z"
         id="path5-5" />
      <path
         style="fill:#ffffff;stroke-width:0.5"
         d="m 429.01045,117.86797 c -0.73018,0.1394 -1.4597,0.25487 -2.15753,0.35079 l -0.63343,2.58146 -1.81409,-2.32689 c -0.33736,0.0209 -0.65024,0.0347 -0.90538,0.0347 -0.25766,0 -0.56858,-0.0123 -0.9007,-0.0301 l -1.8181,2.28145 -0.60871,-2.50796 c -0.72987,-0.0927 -1.4894,-0.20813 -2.23905,-0.34944 l 1.79472,5.46827 c 0.25449,0.51804 0.58276,0.42242 0.9341,0.1323 l 2.8658,-3.00442 2.77092,2.91689 c 0.3336,0.45222 0.79774,0.4868 1.03033,-0.3254 z"
         id="path6-6" />
      <path
         style="color:#000000;fill:#37ce87;stroke-width:0.5;stroke-linecap:round;stroke-linejoin:round;-inkscape-stroke:none"
         d="m 428.69631,111.14551 a 0.75,0.75 0 0 0 -1.04785,0.16114 l -2.05274,2.80273 a 0.75,0.75 0 0 0 0.16211,1.04883 0.75,0.75 0 0 0 1.04785,-0.16211 l 2.05274,-2.80274 a 0.75,0.75 0 0 0 -0.16211,-1.04785 z"
         id="path7-2" />
      <path
         style="opacity:0.2;fill:#ffffff;stroke-width:0.5"
         d="m 418.71779,111.00113 a 0.75,0.75 0 0 0 -0.41113,0.14356 0.75,0.75 0 0 0 -0.25098,0.85937 0.75,0.75 0 0 1 0.25098,-0.35937 0.75,0.75 0 0 1 0.41113,-0.14356 0.75,0.75 0 0 1 0.14649,0.008 0.75,0.75 0 0 1 0.49121,0.29785 l 1.33887,1.8291 c 0.84949,-0.40719 1.8007,-0.63574 2.80566,-0.63574 1.00571,0 1.95765,0.22895 2.80762,0.63672 l 1.34082,-1.83008 a 0.75,0.75 0 0 1 1.04785,-0.16211 0.75,0.75 0 0 1 0.26367,0.35742 0.75,0.75 0 0 0 -0.26367,-0.85742 0.75,0.75 0 0 0 -1.04785,0.16211 l -1.34082,1.83008 c -0.84997,-0.40777 -1.80191,-0.63672 -2.80762,-0.63672 -1.00496,0 -1.95617,0.22855 -2.80566,0.63575 l -1.33887,-1.8291 a 0.75,0.75 0 0 0 -0.49121,-0.29786 0.75,0.75 0 0 0 -0.14649,-0.008 z m 0.47852,3.12891 c -1.10121,0.97401 -1.87091,2.31595 -2.11426,3.833 -0.003,0.0192 -0.002,0.039 -0.003,0.0586 -0.0449,0.32315 -0.0763,0.69383 -0.0791,0.97851 0,0.10924 0.003,0.21825 0.009,0.32617 0.0104,-0.25462 0.0336,-0.54071 0.0703,-0.80468 10e-4,-0.0196 -1.5e-4,-0.0394 0.003,-0.0586 0.25973,-1.6192 1.11871,-3.03859 2.34082,-4.02441 z m 8.6084,0.002 -0.22559,0.30859 c 1.15223,0.9301 1.98118,2.24496 2.28906,3.75 0.002,-5e-4 0.005,-0.001 0.007,-0.002 0.0176,0.0958 0.0339,0.20101 0.0488,0.31152 4e-4,0.002 6.5e-4,0.005 0.001,0.007 v 0.001 c 0.0358,0.26598 0.0582,0.55062 0.0674,0.80664 0.005,-0.1041 0.008,-0.20916 0.008,-0.31447 -3.7e-4,-0.28979 -0.0309,-0.66273 -0.0752,-0.99219 v -10e-4 c -3.5e-4,-0.002 -6e-4,-0.005 -0.001,-0.007 -0.015,-0.11051 -0.0313,-0.21568 -0.0488,-0.31152 -0.002,4.9e-4 -0.005,0.002 -0.007,0.002 -0.28738,-1.40468 -1.02917,-2.64344 -2.06348,-3.5586 z"
         id="path8-9" />
      <path
         style="opacity:0.2;fill:#ffffff;stroke-width:0.5"
         d="m 429.87502,117.68863 c -2.40724,0.52102 -5.02731,0.81934 -6.375,0.81934 -1.40633,0 -4.05009,-0.26776 -6.375,-0.77246 -0.0679,0.36771 -0.12127,0.89074 -0.125,1.26464 0,0.0998 0.003,0.1992 0.008,0.29786 0.0161,-0.346 0.0606,-0.75597 0.11719,-1.0625 2.3249,0.5047 4.96867,0.77246 6.375,0.77246 1.34769,0 3.96776,-0.29832 6.375,-0.81934 0.0574,0.31363 0.10276,0.72706 0.11816,1.08203 0.004,-0.0897 0.007,-0.17991 0.007,-0.27051 -5e-4,-0.38972 -0.0548,-0.92817 -0.125,-1.31152 z"
         id="path9-1" />
    </g>
    <g
       id="g4"
       transform="translate(0,-2)">
      <path
         d="m 421.94531,58.002405 c -0.19713,0.01053 -0.38673,0.07916 -0.54492,0.197266 -0.44246,0.331036 -0.53255,0.958189 -0.20117,1.40039 l 1.93359,2.576172 c -1.5742,1.354775 -2.67579,3.245739 -3.01953,5.388672 -0.01,0.06218 -0.01,0.124797 -0.006,0.189453 -0.0646,0.412371 -0.10051,0.828741 -0.10738,1.246094 0,4.970563 4.02944,9 9,9 4.97056,0 9,-4.029437 9,-9 -0.003,-0.427653 -0.0374,-0.854516 -0.10156,-1.277344 0.002,-0.03221 0.003,-0.06388 -0.002,-0.0957 -0.33204,-2.168389 -1.43833,-4.083195 -3.02735,-5.451175 l 1.93164,-2.576172 c 0.33143,-0.442201 0.24134,-1.069354 -0.20112,-1.40039 -0.21194,-0.158646 -0.47814,-0.226776 -0.74024,-0.189453 -0.26322,0.03728 -0.50077,0.17784 -0.66015,0.390625 l -1.98438,2.646484 c -1.25741,-0.667703 -2.6919,-1.046875 -4.21484,-1.046875 -1.52341,0 -2.95715,0.378786 -4.21484,1.046875 l -1.98438,-2.646484 c -0.15938,-0.212785 -0.39693,-0.353347 -0.66016,-0.390625 -0.0647,-0.009 -0.13011,-0.01159 -0.19531,-0.0078 z"
         style="opacity:0.2;fill:#000000;stroke-width:0.947368"
         id="path1-7" />
      <path
         style="fill:#37ce87;stroke-width:0.947368"
         d="m 437.30535,68.029557 c 0,4.970562 -3.14247,8.004162 -8.11303,8.004162 -4.97056,0 -8.78276,-2.995878 -8.78276,-7.96644 0,-0.488924 -0.37057,-1.035794 -0.29554,-1.503567 0.68779,-4.287764 4.40434,-7.563486 8.88598,-7.563486 4.50358,0 8.23456,3.307873 8.89586,7.62653 0.0686,0.44781 -0.59051,0.935817 -0.59051,1.402801 z"
         id="path2-0" />
      <path
         style="fill:#fd9c01;stroke-width:0.947368"
         d="m 437.8529,66.391365 c -3.33311,0.721409 -6.98687,1.135177 -8.8529,1.135177 -1.94722,0 -5.63195,-0.370663 -8.85105,-1.06949 A 9,9 0 0 0 420,68.000226 a 9,9 0 0 0 9,9 9,9 0 0 0 9,-9 9,9 0 0 0 -0.1471,-1.608861 z"
         id="path3-9" />
      <path
         id="path9-3"
         style="opacity:0.2;fill:#ffffff;stroke-width:0.947368"
         d="m 437.85352,66.390851 c -3.3331,0.721408 -6.98749,1.134766 -8.85352,1.134766 -1.94722,0 -5.63246,-0.369533 -8.85156,-1.06836 A 9,9 0 0 0 420,68.000226 a 9,9 0 0 0 0.0293,0.449219 9,9 0 0 1 0.11914,-0.992188 c 3.2191,0.698827 6.90434,1.070313 8.85156,1.070313 1.86603,0 5.52042,-0.415311 8.85352,-1.136719 a 9,9 0 0 1 0.11914,1.023437 9,9 0 0 0 0.0273,-0.414062 9,9 0 0 0 -0.14648,-1.609375 z" />
      <path
         style="opacity:0.2;fill:#000000;stroke-width:0.947368"
         d="m 436.62983,67.640226 c -1.01103,0.193015 -2.02113,0.352896 -2.98736,0.485712 l -0.87705,3.366674 -2.51182,-3.014187 c -0.46711,0.02894 -0.90033,0.04811 -1.2536,0.04811 -0.35676,0 -0.78727,-0.01701 -1.24712,-0.04164 l -2.51737,2.951281 -0.84283,-3.264905 c -1.0106,-0.12834 -2.06225,-0.288193 -3.10023,-0.483861 l 2.485,7.433185 c 0.35237,0.717282 0.8069,0.584886 1.29338,0.183182 l 3.96803,-4.22934 3.83665,4.108144 c 0.46191,0.626148 1.10456,0.674034 1.42661,-0.450555 z"
         id="path5-6" />
      <path
         style="color:#000000;fill:#37ce87;stroke-linecap:round;stroke-linejoin:round;-inkscape-stroke:none"
         d="m 422.14062,57.009992 a 1,1 0 0 0 -0.74023,0.189453 1,1 0 0 0 -0.20117,1.40039 l 3,4 a 1,1 0 0 0 1.40039,0.201172 1,1 0 0 0 0.20117,-1.40039 l -3,-4 a 1,1 0 0 0 -0.66016,-0.390625 z"
         id="path4-0" />
      <path
         style="fill:#ffffff;stroke-width:0.947368"
         d="m 436.62983,66.640234 c -1.01103,0.193015 -2.02113,0.352896 -2.98736,0.485712 l -0.87705,3.366674 -2.51182,-3.014187 c -0.46711,0.02894 -0.90033,0.04811 -1.2536,0.04811 -0.35676,0 -0.78727,-0.01701 -1.24712,-0.04164 l -2.51737,2.951281 -0.84283,-3.264905 c -1.0106,-0.12834 -2.06225,-0.288193 -3.10023,-0.483861 l 2.485,7.433185 c 0.35237,0.717282 0.8069,0.584886 1.29338,0.183182 l 3.96803,-4.22934 3.83665,4.108144 c 0.46191,0.626148 1.10456,0.674034 1.42661,-0.450555 z"
         id="path6-62" />
      <path
         style="color:#000000;fill:#37ce87;stroke-linecap:round;stroke-linejoin:round;-inkscape-stroke:none"
         d="m 435.85937,57.009992 a 1,1 0 0 0 -0.66015,0.390625 l -3,4 a 1,1 0 0 0 0.20117,1.40039 1,1 0 0 0 1.40039,-0.201172 l 3,-4 a 1,1 0 0 0 -0.20117,-1.40039 1,1 0 0 0 -0.74024,-0.189453 z"
         id="path7-6" />
      <path
         id="path8-1"
         style="opacity:0.2;fill:#ffffff;stroke-width:0.947368"
         d="m 421.94531,57.002179 c -0.19713,0.01053 -0.38673,0.07916 -0.54492,0.197266 -0.40884,0.30588 -0.51301,0.862918 -0.26562,1.294922 0.0654,-0.111724 0.15544,-0.212492 0.26562,-0.294922 0.15819,-0.118106 0.34779,-0.186736 0.54492,-0.197266 0.0652,-0.0038 0.13063,-0.0012 0.19531,0.0078 0.26323,0.03728 0.50078,0.17784 0.66016,0.390625 l 1.98438,2.646487 c 1.25768,-0.668088 2.69143,-1.046875 4.21484,-1.046875 1.52293,0 2.95743,0.379173 4.21484,1.046875 l 1.98438,-2.646484 c 0.15938,-0.212785 0.39693,-0.353347 0.66015,-0.390625 0.2621,-0.03732 0.5283,0.03081 0.74024,0.189453 0.11017,0.08243 0.20021,0.183198 0.26562,0.294922 0.24743,-0.432004 0.14322,-0.989042 -0.26562,-1.294922 -0.21194,-0.158646 -0.47814,-0.226776 -0.74024,-0.189453 -0.26322,0.03728 -0.50077,0.17784 -0.66015,0.390625 l -1.98438,2.646484 C 431.95743,59.379399 430.52293,59.000226 429,59.000226 c -1.52341,0 -2.95716,0.378787 -4.21484,1.046875 l -1.98438,-2.646484 c -0.15938,-0.212785 -0.39693,-0.353347 -0.66016,-0.390625 -0.0647,-0.009 -0.1301,-0.0116 -0.19531,-0.0078 z m 0.74414,4.583985 c -1.33639,1.314901 -2.26575,3.043348 -2.57617,4.978515 -0.01,0.06218 -0.01,0.124797 -0.006,0.189453 -0.0646,0.412371 -0.10055,0.828741 -0.10742,1.246094 0,0.195838 0.009,0.389304 0.0215,0.582031 0.0175,-0.277128 0.0429,-0.55365 0.0859,-0.828125 -0.004,-0.06466 -0.004,-0.127273 0.006,-0.189453 0.34374,-2.142931 1.44533,-4.033898 3.01953,-5.388672 z m 12.62305,0 -0.44336,0.589843 c 1.58902,1.367979 2.6953,3.282785 3.02734,5.451172 0.005,0.03182 0.004,0.06349 0.002,0.0957 0.042,0.276505 0.066,0.554936 0.082,0.833985 0.0112,-0.18437 0.0195,-0.36943 0.0195,-0.556638 -0.003,-0.427653 -0.0374,-0.854516 -0.10156,-1.277344 0.002,-0.03221 0.003,-0.06388 -0.002,-0.0957 -0.3001,-1.960073 -1.23385,-3.711935 -2.58394,-5.041018 z" />
    </g>
    <g
       id="g6"
       transform="translate(3.50023,-1.0001843)">
      <path
         d="m 294.91797,228.00345 c -0.2957,0.0158 -0.5801,0.11874 -0.81738,0.2959 -0.66369,0.49655 -0.79883,1.43728 -0.30176,2.10058 l 2.90039,3.86426 c -2.3613,2.03216 -4.01369,4.86861 -4.5293,8.08301 -0.015,0.0933 -0.0145,0.18719 -0.009,0.28418 -0.0969,0.61855 -0.15077,1.24311 -0.16107,1.86914 0,7.45584 6.04415,13.5 13.5,13.5 7.45584,0 13.5,-6.04416 13.5,-13.5 -0.005,-0.64148 -0.0561,-1.28177 -0.15234,-1.91602 0.003,-0.0483 0.004,-0.0958 -0.003,-0.14355 -0.49806,-3.25258 -2.1575,-6.12479 -4.54102,-8.17676 l 2.89746,-3.86426 c 0.49714,-0.6633 0.362,-1.60403 -0.30169,-2.10058 -0.31791,-0.23797 -0.71721,-0.34017 -1.11035,-0.28418 -0.39484,0.0559 -0.75116,0.26676 -0.99023,0.58593 l -2.97656,3.96973 c -1.88612,-1.00155 -4.03787,-1.57031 -6.32227,-1.57031 -2.28511,0 -4.43573,0.56818 -6.32227,1.57031 l -2.97656,-3.96973 c -0.23907,-0.31917 -0.59539,-0.53002 -0.99023,-0.58593 -0.097,-0.0135 -0.19517,-0.0174 -0.29297,-0.0117 z"
         style="opacity:0.2;fill:#000000;stroke-width:1.42105"
         id="path1-8" />
      <path
         style="fill:#37ce87;stroke-width:1.42105"
         d="m 317.95803,243.54452 c 0,7.45584 -4.71371,12.00624 -12.16955,12.00624 -7.45584,0 -13.17414,-4.49382 -13.17414,-11.94966 0,-0.73339 -0.55586,-1.55369 -0.44331,-2.25535 1.03168,-6.43165 6.60651,-11.34523 13.32897,-11.34523 6.75537,0 12.35184,4.96181 13.34379,11.43979 0.10286,0.67172 -0.88576,1.40373 -0.88576,2.10421 z"
         id="path2-9" />
      <path
         style="fill:#fd9c01;stroke-width:1.42105"
         d="m 318.77935,241.08723 c -4.99966,1.08211 -10.48031,1.70276 -13.27935,1.70276 -2.92083,0 -8.44792,-0.55599 -13.27657,-1.60423 A 13.5,13.5 0 0 0 292,243.50052 a 13.5,13.5 0 0 0 13.5,13.5 13.5,13.5 0 0 0 13.5,-13.5 13.5,13.5 0 0 0 -0.22065,-2.41329 z"
         id="path3-7" />
      <path
         id="path9-36"
         style="opacity:0.2;fill:#ffffff;stroke-width:1.42105"
         d="m 318.78125,241.08612 c -4.99964,1.08211 -10.48221,1.70312 -13.28125,1.70312 -2.92083,0 -8.4487,-0.55527 -13.27734,-1.60351 A 13.5,13.5 0 0 0 292,243.50018 a 13.5,13.5 0 0 0 0.0293,0.44727 13.5,13.5 0 0 1 0.19336,-1.76172 c 4.82864,1.04824 10.35651,1.60351 13.27734,1.60351 2.79904,0 8.27965,-0.61906 13.2793,-1.70117 a 13.5,13.5 0 0 1 0.19336,1.82617 13.5,13.5 0 0 0 0.0273,-0.41406 13.5,13.5 0 0 0 -0.21875,-2.41406 z" />
      <path
         style="opacity:0.2;fill:#000000;stroke-width:1.42105"
         d="m 316.94475,242.46018 c -1.51654,0.28952 -3.03169,0.52934 -4.48104,0.72857 l -1.31558,5.05001 -3.76773,-4.52128 c -0.70066,0.0434 -1.3505,0.0722 -1.8804,0.0722 -0.53514,0 -1.1809,-0.0255 -1.87068,-0.0625 l -3.77606,4.42693 -1.26424,-4.89736 c -1.5159,-0.19251 -3.09337,-0.43229 -4.65034,-0.72579 l 3.72749,11.14977 c 0.52856,1.07593 1.21036,0.87733 1.94007,0.27478 l 5.95204,-6.34401 5.75499,6.16221 c 0.69286,0.93922 1.65684,1.01105 2.1399,-0.67583 z"
         id="path5-1" />
      <path
         style="color:#000000;fill:#37ce87;stroke-width:1.5;stroke-linecap:round;stroke-linejoin:round;-inkscape-stroke:none"
         d="m 295.21094,227.01517 a 1.5,1.5 0 0 0 -1.11035,0.28418 1.5,1.5 0 0 0 -0.30176,2.10058 l 4.5,6 a 1.5,1.5 0 0 0 2.10058,0.30176 1.5,1.5 0 0 0 0.30176,-2.10058 l -4.5,-6.00001 a 1.5,1.5 0 0 0 -0.99023,-0.58593 z"
         id="path4-2" />
      <path
         style="fill:#ffffff;stroke-width:1.42105"
         d="m 316.94475,241.46053 c -1.51654,0.28952 -3.03169,0.52934 -4.48104,0.72857 l -1.31558,5.05001 -3.76773,-4.52128 c -0.70066,0.0434 -1.3505,0.0722 -1.8804,0.0722 -0.53514,0 -1.1809,-0.0255 -1.87068,-0.0625 l -3.77606,4.42693 -1.26424,-4.89736 c -1.5159,-0.19251 -3.09338,-0.43229 -4.65034,-0.72579 l 3.72749,11.14977 c 0.52856,1.07593 1.21036,0.87733 1.94007,0.27478 l 5.95204,-6.34401 5.75499,6.16221 c 0.69286,0.93922 1.65684,1.01105 2.1399,-0.67583 z"
         id="path6-9" />
      <path
         style="color:#000000;fill:#37ce87;stroke-width:1.5;stroke-linecap:round;stroke-linejoin:round;-inkscape-stroke:none"
         d="m 315.78906,227.01517 a 1.5,1.5 0 0 0 -0.99023,0.58593 l -4.5,6.00001 a 1.5,1.5 0 0 0 0.30176,2.10058 1.5,1.5 0 0 0 2.10058,-0.30176 l 4.5,-6 a 1.5,1.5 0 0 0 -0.30176,-2.10058 1.5,1.5 0 0 0 -1.11035,-0.28418 z"
         id="path7-3" />
      <path
         id="path8-19"
         style="opacity:0.2;fill:#ffffff;stroke-width:1.42105"
         d="m 316.08398,227.00213 c -0.0977,-0.005 -0.19663,-3.2e-4 -0.29492,0.0137 -0.39484,0.0559 -0.75116,0.26676 -0.99023,0.58593 l -2.97656,3.96875 c -1.88612,-1.00155 -4.03787,-1.57031 -6.32227,-1.57031 -2.28511,0 -4.43574,0.56818 -6.32227,1.57031 l -2.97656,-3.96875 c -0.23907,-0.31917 -0.59539,-0.53002 -0.99023,-0.58594 -0.097,-0.0135 -0.19517,-0.0174 -0.29297,-0.0117 -0.2957,0.0158 -0.57913,0.11776 -0.81641,0.29492 -0.53731,0.402 -0.72336,1.09248 -0.51172,1.69336 0.096,-0.26663 0.26783,-0.51089 0.51172,-0.69336 0.23728,-0.17716 0.52071,-0.27913 0.81641,-0.29492 0.0978,-0.006 0.19593,-0.002 0.29297,0.0117 0.39484,0.0559 0.75116,0.26677 0.99023,0.58594 l 2.97656,3.96875 c 1.88654,-1.00213 4.03716,-1.57031 6.32227,-1.57031 2.2844,0 4.43615,0.56876 6.32227,1.57031 l 2.97656,-3.96875 c 0.23907,-0.31917 0.59539,-0.53002 0.99023,-0.58594 0.39314,-0.056 0.79147,0.0452 1.10938,0.28321 0.24389,0.18247 0.41572,0.42673 0.51172,0.69336 0.21166,-0.60088 0.0256,-1.29136 -0.51172,-1.69336 -0.23843,-0.17848 -0.52139,-0.2806 -0.81446,-0.29688 z m -20.04882,6.87696 c -2.0046,1.97234 -3.39962,4.566 -3.86524,7.46875 -0.015,0.0933 -0.0155,0.18621 -0.01,0.2832 -0.0969,0.61855 -0.14985,1.24311 -0.16015,1.86914 0,0.21172 0.009,0.42192 0.0195,0.63086 0.022,-0.50217 0.0628,-1.00323 0.14063,-1.5 -0.006,-0.097 -0.005,-0.18993 0.01,-0.2832 0.49896,-3.1106 2.06437,-5.86644 4.30468,-7.88282 z m 18.93359,0 -0.44141,0.58789 c 2.26178,2.03665 3.83431,4.82627 4.31641,7.97461 0.007,0.0477 0.007,0.0943 0.004,0.14257 0.0742,0.48922 0.1127,0.98238 0.13281,1.47657 0.009,-0.18607 0.0195,-0.37225 0.0195,-0.56055 -0.005,-0.64148 -0.0561,-1.28177 -0.15234,-1.91602 0.003,-0.0483 0.003,-0.0949 -0.004,-0.14257 -0.45015,-2.94011 -1.84988,-5.56888 -3.875,-7.5625 z" />
    </g>
    <g
       id="g7"
       transform="translate(-2,0.9990728)">
      <path
         style="opacity:0.2;fill:#000000"
         d="m 304.89062,147.00288 a 2,2 0 0 0 -1.08984,0.39844 2,2 0 0 0 -0.40039,2.79883 l 3.75,4.99804 A 19,19 0 0 0 300,170.00093 a 19,19 0 0 0 19,19 19,19 0 0 0 19,-19 19,19 0 0 0 -7.12891,-14.83008 l 3.72852,-4.9707 a 2,2 0 0 0 -0.40039,-2.79883 2,2 0 0 0 -1.48242,-0.38086 2,2 0 0 0 -1.31641,0.78125 l -3.9082,5.20898 A 19,19 0 0 0 319,151.00093 a 19,19 0 0 0 -8.47461,2.03515 l -3.92578,-5.23437 a 2,2 0 0 0 -1.31641,-0.78125 2,2 0 0 0 -0.39258,-0.0176 z"
         id="path1-78" />
      <path
         id="path2-4"
         style="fill:#37ce87"
         d="m 304.89062,146.00288 a 2,2 0 0 0 -1.08984,0.39844 2,2 0 0 0 -0.40039,2.79883 l 3.72656,4.96875 c -3.59695,2.88306 -6.12423,7.04535 -6.88672,11.79882 -0.1584,0.98752 0.625,2.14166 0.625,3.17383 0,10.4934 8.04762,16.81836 18.54102,16.81836 10.4934,0 17.12695,-6.40308 17.12695,-16.89648 0,-0.98586 1.39086,-2.01752 1.2461,-2.96289 -0.73632,-4.80859 -3.27604,-9.02171 -6.90625,-11.93164 l 3.72656,-4.96875 a 2,2 0 0 0 -0.40039,-2.79883 2,2 0 0 0 -1.48242,-0.38086 2,2 0 0 0 -1.31641,0.78125 l -3.9043,5.20508 c -2.55718,-1.28099 -5.44129,-2.00586 -8.49609,-2.00586 -3.05488,0 -5.93886,0.72481 -8.49609,2.00586 l -3.9043,-5.20508 a 2,2 0 0 0 -1.31641,-0.78125 2,2 0 0 0 -0.39258,-0.0176 z" />
      <path
         style="fill:#fd9c01"
         d="m 337.68945,165.60444 c -7.03655,1.52298 -14.75006,2.39649 -18.68945,2.39649 -4.1108,0 -11.88967,-0.78251 -18.68555,-2.25782 A 19,19 0 0 0 300,169.00093 a 19,19 0 0 0 19,19 19,19 0 0 0 19,-19 19,19 0 0 0 -0.31055,-3.39649 z"
         id="path3-50" />
      <path
         style="opacity:0.2;fill:#000000"
         d="m 335.10742,167.12935 c -2.13439,0.40748 -4.26682,0.74501 -6.30664,1.0254 l -1.85156,7.10742 -5.30274,-6.36328 c -0.98611,0.0611 -1.90069,0.10156 -2.64648,0.10156 -0.75315,0 -1.66201,-0.0359 -2.63281,-0.0879 l -5.31446,6.23047 -1.77929,-6.89258 c -2.13349,-0.27094 -4.35364,-0.60841 -6.54492,-1.02148 l 5.24609,15.69228 c 0.7439,1.51426 1.70347,1.23476 2.73047,0.38671 l 8.37695,-8.92861 8.09961,8.67275 c 0.97514,1.32187 2.33185,1.42297 3.01172,-0.95117 z"
         id="path5-3" />
      <path
         style="fill:#ffffff"
         d="m 335.10742,166.12983 c -2.13439,0.40748 -4.26682,0.74501 -6.30664,1.02539 l -1.85156,7.10743 -5.30274,-6.36329 c -0.98611,0.0611 -1.90069,0.10157 -2.64648,0.10157 -0.75315,0 -1.66201,-0.0359 -2.63281,-0.0879 l -5.31446,6.23046 -1.77929,-6.89257 c -2.13349,-0.27094 -4.35364,-0.60841 -6.54492,-1.02149 l 5.24609,15.69228 c 0.7439,1.51427 1.70347,1.23476 2.73047,0.38672 l 8.37695,-8.92861 8.09961,8.67275 c 0.97514,1.32187 2.33185,1.42296 3.01172,-0.95117 z"
         id="path6-61" />
      <path
         style="opacity:0.2;fill:#ffffff"
         d="m 337.68945,165.60444 c -7.03655,1.52298 -14.75006,2.39649 -18.68945,2.39649 -4.1108,0 -11.88967,-0.78251 -18.68555,-2.25782 A 19,19 0 0 0 300,169.00093 a 19,19 0 0 0 0.0293,0.45117 19,19 0 0 1 0.28516,-2.70899 c 6.79587,1.47531 14.57474,2.25782 18.68554,2.25782 3.93939,0 11.6529,-0.87351 18.68945,-2.39649 a 19,19 0 0 1 0.28321,2.8086 19,19 0 0 0 0.0273,-0.41211 19,19 0 0 0 -0.31055,-3.39649 z"
         id="path8-0" />
      <path
         style="opacity:0.2;fill:#ffffff"
         d="m 304.89062,146.00288 a 2,2 0 0 0 -1.08984,0.39844 2,2 0 0 0 -0.7168,2.13867 2,2 0 0 1 0.7168,-1.13867 2,2 0 0 1 1.08984,-0.39844 2,2 0 0 1 0.39258,0.0176 2,2 0 0 1 1.31641,0.78125 l 3.92578,5.23438 A 19,19 0 0 1 319,151.00093 a 19,19 0 0 1 8.49219,2.00976 l 3.9082,-5.20898 a 2,2 0 0 1 1.31641,-0.78125 2,2 0 0 1 1.48242,0.38086 2,2 0 0 1 0.73047,1.09765 2,2 0 0 0 -0.73047,-2.09765 2,2 0 0 0 -1.48242,-0.38086 2,2 0 0 0 -1.31641,0.78125 l -3.9082,5.20898 A 19,19 0 0 0 319,150.00093 a 19,19 0 0 0 -8.47461,2.03515 l -3.92578,-5.23437 a 2,2 0 0 0 -1.31641,-0.78125 2,2 0 0 0 -0.39258,-0.0176 z m 26.42188,8.57812 -0.44141,0.58985 a 19,19 0 0 1 7.0918,14.34375 A 19,19 0 0 0 338,169.00093 19,19 0 0 0 331.3125,154.581 Z m -24.60352,0.0274 A 19,19 0 0 0 300,169.00093 a 19,19 0 0 0 0.0371,0.51953 19,19 0 0 1 7.11328,-14.32227 z"
         id="path9-6" />
    </g>
    <g
       id="g5"
       transform="translate(-41.5,-0.99999793)">
      <path
         style="opacity:0.2;fill:#000000;stroke-width:1.5"
         d="m 353.33594,43.00482 a 3,3 0 0 0 -1.63477,0.597657 3,3 0 0 0 -0.60058,4.198242 l 5.625,7.49707 A 28.5,28.5 0 0 0 346,77.50189 a 28.5,28.5 0 0 0 28.5,28.5 28.5,28.5 0 0 0 28.5,-28.5 28.5,28.5 0 0 0 -10.69336,-22.245117 l 5.59277,-7.456054 a 3,3 0 0 0 -0.60058,-4.198242 3,3 0 0 0 -2.22363,-0.57129 3,3 0 0 0 -1.97461,1.171875 l -5.86231,7.813477 A 28.5,28.5 0 0 0 374.5,49.00189 28.5,28.5 0 0 0 361.78809,52.054624 l -5.88868,-7.851562 a 3,3 0 0 0 -1.97461,-1.171875 3,3 0 0 0 -0.58886,-0.02637 z"
         id="path1-79" />
      <path
         id="path2-2"
         style="fill:#37ce87;stroke-width:1.5"
         d="m 353.33594,42.00432 a 3,3 0 0 0 -1.63477,0.597657 3,3 0 0 0 -0.60058,4.198242 l 5.58984,7.453125 c -5.39543,4.3246 -9.18634,10.568038 -10.33008,17.698242 -0.23761,1.481278 0.9375,3.212485 0.9375,4.760742 0,15.7401 12.07142,25.227542 27.81152,25.227542 15.7401,0 25.69043,-9.604629 25.69043,-25.34473 0,-1.478781 2.08629,-3.026275 1.86915,-4.444336 -1.10449,-7.212879 -4.91406,-13.532565 -10.35938,-17.89746 l 5.58984,-7.453125 a 3,3 0 0 0 -0.60058,-4.198242 3,3 0 0 0 -2.22363,-0.57129 3,3 0 0 0 -1.97461,1.171875 l -5.85645,7.807618 C 383.40836,49.088698 379.0822,48.00139 374.5,48.00139 c -4.58232,0 -8.90829,1.087214 -12.74414,3.00879 l -5.85645,-7.807618 a 3,3 0 0 0 -1.97461,-1.171875 3,3 0 0 0 -0.58886,-0.02637 z" />
      <path
         style="fill:#fd9c01;stroke-width:1.5"
         d="M 402.53418,71.406664 C 391.97935,73.691125 380.40909,75.00139 374.5,75.00139 c -6.1662,0 -17.8345,-1.173766 -28.02832,-3.386718 A 28.5,28.5 0 0 0 346,76.50139 a 28.5,28.5 0 0 0 28.5,28.5 28.5,28.5 0 0 0 28.5,-28.5 28.5,28.5 0 0 0 -0.46582,-5.094726 z"
         id="path3-0" />
      <path
         style="opacity:0.2;fill:#000000;stroke-width:1.5"
         d="m 398.66113,73.1945 c -3.20158,0.611213 -6.40023,1.117503 -9.45996,1.538087 l -2.77734,10.661133 -7.9541,-9.544922 c -1.47918,0.09164 -2.85105,0.152343 -3.96973,0.152343 -1.12973,0 -2.49302,-0.05387 -3.94922,-0.131835 l -7.97168,9.345702 -2.66894,-10.338867 c -3.20023,-0.40641 -6.53047,-0.912608 -9.81739,-1.532226 l 7.86914,23.538422 c 1.11585,2.271391 2.5552,1.85214 4.09571,0.580077 L 374.62305,84.0695 386.77246,97.078625 c 1.46271,1.982804 3.49778,2.134442 4.51758,-1.426757 z"
         id="path5-2" />
      <path
         style="fill:#ffffff;stroke-width:1.5"
         d="m 398.66113,72.194749 c -3.20158,0.611213 -6.40023,1.117503 -9.45996,1.538087 l -2.77734,10.661133 -7.9541,-9.544922 c -1.47918,0.09164 -2.85105,0.152343 -3.96973,0.152343 -1.12973,0 -2.49302,-0.05387 -3.94922,-0.131835 l -7.97168,9.345702 -2.66894,-10.338867 c -3.20023,-0.40641 -6.53047,-0.912608 -9.81739,-1.532226 l 7.86914,23.538422 c 1.11585,2.271392 2.5552,1.85214 4.09571,0.580077 l 12.56543,-13.392914 12.14941,13.009126 c 1.46271,1.982803 3.49778,2.134441 4.51758,-1.426759 z"
         id="path6-3" />
      <path
         id="path8-7"
         style="opacity:0.2;fill:#ffffff;stroke-width:1.5"
         d="M 402.5332,71.405797 C 391.97838,73.690256 380.40908,75.0015 374.5,75.0015 c -6.1662,0 -17.83549,-1.173769 -28.0293,-3.386719 A 28.5,28.5 0 0 0 346,76.5015 a 28.5,28.5 0 0 0 0.0293,0.445312 28.5,28.5 0 0 1 0.44141,-4.332031 c 10.1938,2.21295 21.86309,3.386719 28.02929,3.386719 5.90908,0 17.47838,-1.311244 28.0332,-3.595703 a 28.5,28.5 0 0 1 0.43946,4.507812 A 28.5,28.5 0 0 0 403,76.5015 28.5,28.5 0 0 0 402.5332,71.405797 Z" />
      <path
         id="path9-5"
         style="opacity:0.2;fill:#ffffff;stroke-width:1.5"
         d="m 353.33594,42.005406 a 3,3 0 0 0 -1.63477,0.597656 3,3 0 0 0 -1.12305,2.839844 3,3 0 0 1 1.12305,-1.839844 3,3 0 0 1 1.63477,-0.597656 3,3 0 0 1 0.58789,0.02734 3,3 0 0 1 1.97461,1.171875 l 5.89062,7.851563 A 28.5,28.5 0 0 1 374.5,49.003453 a 28.5,28.5 0 0 1 12.73828,3.013672 l 5.86328,-7.8125 a 3,3 0 0 1 1.97461,-1.171875 3,3 0 0 1 2.22266,0.570312 3,3 0 0 1 1.15625,1.914063 3,3 0 0 0 -1.15625,-2.914063 3,3 0 0 0 -2.22266,-0.570312 3,3 0 0 0 -1.97461,1.171875 l -5.86328,7.8125 A 28.5,28.5 0 0 0 374.5,48.003453 28.5,28.5 0 0 0 361.78906,51.056188 l -5.89062,-7.851563 a 3,3 0 0 0 -1.97461,-1.171875 3,3 0 0 0 -0.58789,-0.02734 z m 39.41211,12.664063 -0.44141,0.58789 A 28.5,28.5 0 0 1 402.96289,77.015172 28.5,28.5 0 0 0 403,76.503453 28.5,28.5 0 0 0 392.74805,54.669469 Z m -36.46289,0.03906 A 28.5,28.5 0 0 0 346,76.503453 a 28.5,28.5 0 0 0 0.0371,0.519531 28.5,28.5 0 0 1 10.68945,-21.724609 z" />
    </g>
    <g
       id="g8"
       transform="translate(0,0.99999899)">
      <path
         style="opacity:0.2;fill:#000000;stroke-width:4"
         d="m 84.5625,66.007523 a 8,8 0 0 0 -4.359376,1.593752 8,8 0 0 0 -1.60156,11.195312 l 15,19.992188 A 76,76 0 0 0 65,157.99971 76,76 0 0 0 141,233.9997 76,76 0 0 0 217,157.99971 76,76 0 0 0 188.48438,98.679399 l 14.91406,-19.882812 a 8,8 0 0 0 -1.60156,-11.195312 8,8 0 0 0 -5.92969,-1.52344 8,8 0 0 0 -5.26563,3.125 l -15.63281,20.83594 A 76,76 0 0 0 141,81.999711 76,76 0 0 0 107.10156,90.140335 l -15.703124,-20.9375 a 8,8 0 0 0 -5.265624,-3.125 8,8 0 0 0 -1.570312,-0.07032 z"
         id="path1-2" />
      <path
         id="path2-06"
         style="fill:#37ce87;stroke-width:4"
         d="m 84.5625,64.007523 a 8,8 0 0 0 -4.359376,1.593752 8,8 0 0 0 -1.60156,11.195312 l 14.906248,19.875 C 79.120004,108.20386 69.010896,124.85302 65.960936,143.8669 c -0.63362,3.95007 2.5,8.56662 2.5,12.69531 0,41.9736 32.190464,67.27343 74.164064,67.27343 41.9736,0 68.50782,-25.61233 68.50782,-67.58593 0,-3.94342 5.56342,-8.07007 4.98436,-11.85157 -2.94528,-19.23434 -13.10414,-36.08683 -27.62499,-47.726553 l 14.90625,-19.875 a 8,8 0 0 0 -1.60156,-11.195312 8,8 0 0 0 -5.92969,-1.52344 8,8 0 0 0 -5.26563,3.125 L 174.98438,88.023151 C 164.75564,82.899199 153.21919,79.999711 141,79.999711 c -12.21951,0 -23.75544,2.899236 -33.98438,8.02344 L 91.398436,67.202835 a 8,8 0 0 0 -5.265624,-3.125 8,8 0 0 0 -1.570312,-0.07032 z" />
      <path
         style="fill:#fd9c01;stroke-width:4"
         d="m 215.75782,142.41377 c -28.14622,6.0919 -59.00025,9.58594 -74.75782,9.58594 -16.44321,0 -47.558664,-3.13005 -74.742188,-9.03125 A 76,76 0 0 0 65,155.99971 a 76,76 0 0 0 76,75.99999 76,76 0 0 0 76,-75.99999 76,76 0 0 0 -1.24218,-13.58594 z"
         id="path3-1" />
      <path
         style="opacity:0.2;fill:#000000;stroke-width:4"
         d="m 205.42968,146.512 c -8.53755,1.6299 -17.06728,2.98001 -25.22656,4.10156 l -7.40624,28.42969 -21.21094,-25.45312 c -3.94446,0.24437 -7.6028,0.40625 -10.58594,0.40625 -3.01262,0 -6.64804,-0.14364 -10.53125,-0.35156 l -21.25781,24.92187 -7.11719,-27.57031 c -8.533942,-1.08376 -17.414566,-2.43363 -26.179686,-4.08594 l 20.984372,62.76912 c 2.975604,6.05704 6.813864,4.93904 10.921874,1.54688 l 33.50781,-35.71444 32.39844,34.691 c 3.90057,5.28748 9.3274,5.69184 12.04688,-3.80469 z"
         id="path5-55" />
      <path
         style="fill:#ffffff;stroke-width:4"
         d="m 205.42968,144.51533 c -8.53755,1.6299 -17.06728,2.98001 -25.22656,4.10157 l -7.40624,28.42968 -21.21094,-25.45312 c -3.94446,0.24437 -7.6028,0.40625 -10.58594,0.40625 -3.01262,0 -6.64804,-0.14364 -10.53125,-0.35156 l -21.25781,24.92187 -7.11719,-27.57031 c -8.533942,-1.08376 -17.414566,-2.43363 -26.179686,-4.08594 l 20.984372,62.76913 c 2.975604,6.05704 6.813864,4.93904 10.921874,1.54686 l 33.50781,-35.71443 32.39844,34.69101 c 3.90057,5.28746 9.3274,5.69184 12.04688,-3.8047 z"
         id="path6-4" />
      <path
         id="path8-76"
         style="opacity:0.2;fill:#ffffff;stroke-width:4"
         d="M 215.75782,142.41406 C 187.61166,148.50594 156.75754,152 141,152 124.55682,152 93.44128,148.86994 66.257812,142.96875 A 76,76 0 0 0 65,156 a 76,76 0 0 0 0.06252,0.89844 76,76 0 0 1 1.195312,-11.92969 C 93.44128,150.86994 124.55682,154 141,154 c 15.75754,0 46.61166,-3.49406 74.75782,-9.58594 a 76,76 0 0 1 1.1875,12.41406 A 76,76 0 0 0 217,156 76,76 0 0 0 215.75782,142.41406 Z" />
      <path
         id="path9-56"
         style="opacity:0.2;fill:#ffffff;stroke-width:4"
         d="m 84.5625,64.007815 a 8,8 0 0 0 -4.359376,1.593752 8,8 0 0 0 -3.023436,7.007812 8,8 0 0 1 3.023436,-5.007812 8,8 0 0 1 4.359376,-1.593752 8,8 0 0 1 1.570312,0.07032 8,8 0 0 1 5.265624,3.125 l 15.617184,20.820312 c 10.22892,-5.124196 21.7649,-8.023444 33.98438,-8.023444 12.21916,0 23.75566,2.8995 33.98438,8.023436 l 15.61718,-20.820312 a 8,8 0 0 1 5.26563,-3.125 8,8 0 0 1 5.92969,1.52344 8,8 0 0 1 3.11718,5.406248 8,8 0 0 0 -3.11718,-7.406248 8,8 0 0 0 -5.92969,-1.52344 8,8 0 0 0 -5.26563,3.125 L 174.98438,88.023439 C 164.75566,82.899503 153.21916,80.000003 141,80.000003 c -12.21948,0 -23.75546,2.899248 -33.98438,8.023436 L 91.398436,67.203127 a 8,8 0 0 0 -5.265624,-3.125 8,8 0 0 0 -1.570312,-0.07032 z m 8.023436,33.4375 c -13.891064,11.497855 -23.641432,27.821935 -26.625,46.421875 -0.10808,0.67382 -0.08472,1.37124 -0.008,2.07812 0.0038,-0.0256 0.0038,-0.0525 0.008,-0.0781 3.04996,-19.01383 13.1591,-35.66306 27.546876,-47.195307 z m 96.828124,0 -0.92187,1.226564 c 14.40373,11.545831 24.50231,28.224721 27.53905,47.265621 0.1158,-0.51954 0.1638,-1.03072 0.086,-1.53906 -2.88184,-18.81957 -12.68082,-35.34574 -26.7032,-46.953125 z" />
    </g>
  </g>
  <g
     id="Highlights">
    <path
       id="rect653"
       style="opacity:0.2;fill:#ffffff"
       d="M 80,44 C 53.408027,44 32,65.408027 32,92 v 2 C 32,67.408027 53.408027,46 80,46 h 128 c 26.59197,0 48,21.408027 48,48 V 92 C 256,65.408027 234.59197,44 208,44 Z"
       sodipodi:nodetypes="sscsscsss" />
    <path
       id="rect773"
       style="opacity:0.2;fill:#ffffff"
       d="m 312,34 c -9.97199,0 -18,8.02801 -18,18 v 1 c 0,-9.97199 8.02801,-18 18,-18 h 48 c 9.97199,0 18,8.02801 18,18 v -1 c 0,-9.97199 -8.02801,-18 -18,-18 z" />
    <path
       id="rect1135"
       style="opacity:0.2;fill:#ffffff;fill-opacity:1"
       d="m 304,144 c -6.64799,0 -12,5.35201 -12,12 v 1 c 0,-6.64799 5.35201,-12 12,-12 h 32 c 6.64799,0 12,5.35201 12,12 v -1 c 0,-6.64799 -5.35201,-12 -12,-12 z" />
    <path
       id="rect1265"
       style="opacity:0.2;fill:#ffffff;fill-opacity:1"
       d="m 300,223 c -4.986,0 -9,4.014 -9,9 v 1 c 0,-4.986 4.014,-9 9,-9 h 24 c 4.986,0 9,4.014 9,9 v -1 c 0,-4.986 -4.014,-9 -9,-9 z" />
    <path
       id="rect1368"
       style="opacity:0.2;fill:#ffffff;fill-opacity:1"
       d="m 424,54 c -3.324,0 -6,2.676003 -6,6 v 1 c 0,-3.323997 2.676,-6 6,-6 h 16 c 3.324,0 6,2.676003 6,6 v -1 c 0,-3.323997 -2.676,-6 -6,-6 z" />
    <path
       id="rect1402"
       style="opacity:0.2;fill:#ffffff;fill-opacity:1"
       d="m 420,140 c -2.216,0 -4,1.784 -4,4 v 1 c 0,-2.216 1.784,-4 4,-4 h 8 c 2.216,0 4,1.784 4,4 v -1 c 0,-2.216 -1.784,-4 -4,-4 z" />
    <path
       id="rect1436"
       style="opacity:0.2;fill:#ffffff;fill-opacity:1"
       d="m 422,102 c -2.216,0 -4,1.784 -4,4 v 1 c 0,-2.216 1.784,-4 4,-4 h 12 c 2.216,0 4,1.784 4,4 v -1 c 0,-2.216 -1.784,-4 -4,-4 z" />
  </g>
</svg>
