<?xml version="1.0" encoding="UTF-8" standalone="no"?>
<!-- Created with Inkscape (http://www.inkscape.org/) -->

<svg
   width="480"
   height="300"
   viewBox="0 0 480 300"
   version="1.1"
   id="svg5"
   inkscape:version="1.3.2 (091e20ef0f, 2023-11-25, custom)"
   sodipodi:docname="wayland.svg"
   xmlns:inkscape="http://www.inkscape.org/namespaces/inkscape"
   xmlns:sodipodi="http://sodipodi.sourceforge.net/DTD/sodipodi-0.dtd"
   xmlns="http://www.w3.org/2000/svg"
   xmlns:svg="http://www.w3.org/2000/svg">
  <sodipodi:namedview
     id="namedview7"
     pagecolor="#888888"
     bordercolor="#000000"
     borderopacity="0.25"
     inkscape:showpageshadow="true"
     inkscape:pageopacity="0"
     inkscape:pagecheckerboard="0"
     inkscape:deskcolor="#888888"
     inkscape:document-units="px"
     showgrid="false"
     showborder="false"
     inkscape:zoom="2.65"
     inkscape:cx="239.81132"
     inkscape:cy="150"
     inkscape:window-width="1920"
     inkscape:window-height="1008"
     inkscape:window-x="0"
     inkscape:window-y="0"
     inkscape:window-maximized="1"
     inkscape:current-layer="svg5" />
  <defs
     id="defs2" />
  <g
     id="Baseplate"
     style="display:none">
    <text
       y="19.774782"
       xml:space="preserve"
       x="15.006946"
       style="font-style:normal;font-variant:normal;font-weight:normal;font-stretch:normal;line-height:0%;font-family:'DejaVu Sans';-inkscape-font-specification:'DejaVu Sans';display:inline;fill:#000000;fill-opacity:1;stroke:none;enable-background:new"
       inkscape:label="context"
       id="context"><tspan
         style="font-style:normal;font-variant:normal;font-weight:normal;font-stretch:normal;font-size:18px;line-height:1.25;font-family:'DejaVu Sans';-inkscape-font-specification:'DejaVu Sans'"
         y="19.774782"
         x="15.006946"
         sodipodi:role="line"
         id="tspan3933">apps</tspan></text>
    <text
       y="19.774782"
       xml:space="preserve"
       x="122.48839"
       style="font-style:normal;font-variant:normal;font-weight:bold;font-stretch:normal;line-height:0%;font-family:'DejaVu Sans';-inkscape-font-specification:'DejaVu Sans Bold';text-align:start;writing-mode:lr-tb;text-anchor:start;display:inline;fill:#000000;fill-opacity:1;stroke:none;enable-background:new"
       inkscape:label="icon-name"
       id="icon-name"><tspan
         style="font-style:normal;font-variant:normal;font-weight:bold;font-stretch:normal;font-size:18px;line-height:1.25;font-family:'DejaVu Sans';-inkscape-font-specification:'DejaVu Sans Bold'"
         y="19.774782"
         x="122.48839"
         sodipodi:role="line"
         id="tspan3937">wayland</tspan></text>
    <rect
       style="fill:#ffffff"
       id="256x256"
       width="256"
       height="256"
       x="16"
       y="28" />
    <rect
       style="fill:#ffffff"
       id="96x96"
       width="96"
       height="96"
       x="288"
       y="28" />
    <rect
       style="fill:#ffffff"
       id="64x64"
       width="64"
       height="64"
       x="288"
       y="140" />
    <rect
       style="fill:#ffffff"
       id="48x48"
       width="48"
       height="48"
       x="288"
       y="220" />
    <rect
       style="fill:#ffffff"
       id="32x32"
       width="32"
       height="32"
       x="416"
       y="52" />
    <rect
       style="fill:#ffffff"
       id="24x24"
       width="24"
       height="24"
       x="416"
       y="100" />
    <rect
       style="fill:#ffffff"
       id="22x22"
       width="22"
       height="22"
       x="417"
       y="101" />
    <rect
       style="fill:#ffffff"
       id="16x16"
       width="16"
       height="16"
       x="416"
       y="140" />
  </g>
  <g
     id="Shadow">
    <rect
       style="opacity:0.2;fill:#000000"
       id="rect651"
       width="224"
       height="224"
       x="32"
       y="46"
       ry="48" />
    <rect
       style="opacity:0.2;fill:#000000"
       id="rect769"
       width="84"
       height="85"
       x="294"
       y="34"
       ry="18" />
    <rect
       style="opacity:0.2;fill:#000000;fill-opacity:1"
       id="rect1131"
       width="56"
       height="56"
       x="292"
       y="145"
       ry="12" />
    <rect
       style="opacity:0.2;fill:#000000;fill-opacity:1"
       id="rect1261"
       width="42"
       height="42"
       x="291"
       y="224"
       ry="9" />
    <rect
       style="opacity:0.2;fill:#000000;fill-opacity:1"
       id="rect1364"
       width="28"
       height="29"
       x="418"
       y="54"
       ry="6" />
    <rect
       style="opacity:0.2;fill:#000000;fill-opacity:1"
       id="rect1398"
       width="16"
       height="16"
       x="416"
       y="141"
       ry="4" />
    <rect
       style="opacity:0.2;fill:#000000;fill-opacity:1"
       id="rect1432"
       width="20"
       height="20"
       x="418"
       y="103"
       ry="4" />
  </g>
  <g
     id="Background">
    <rect
       style="fill:#fbe7b3;fill-opacity:1"
       id="rect597"
       width="224"
       height="224"
       x="32"
       y="44"
       ry="48" />
    <rect
       style="opacity:1;fill:#fbe7b3;fill-opacity:1"
       id="rect771"
       width="84"
       height="84"
       x="294"
       y="34"
       ry="18" />
    <rect
       style="opacity:1;fill:#fbe7b3;fill-opacity:1"
       id="rect1133"
       width="56"
       height="56"
       x="292"
       y="144"
       ry="12" />
    <rect
       style="opacity:1;fill:#fbe7b3;fill-opacity:1"
       id="rect1263"
       width="42"
       height="42"
       x="291"
       y="223"
       ry="9" />
    <rect
       style="opacity:1;fill:#fbe7b3;fill-opacity:1"
       id="rect1366"
       width="28"
       height="28"
       x="418"
       y="54"
       ry="6" />
    <rect
       style="opacity:1;fill:#fbe7b3;fill-opacity:1"
       id="rect1400"
       width="16"
       height="16"
       x="416"
       y="140"
       ry="4" />
    <rect
       style="opacity:1;fill:#fbe7b3;fill-opacity:1"
       id="rect1434"
       width="20"
       height="20"
       x="418"
       y="102"
       ry="4" />
  </g>
  <g
     id="g8">
    <g
       id="g1">
      <circle
         style="opacity:0.2;fill:#000000"
         id="path1"
         cx="424"
         cy="148.5"
         r="5" />
      <circle
         style="fill:#f3b616;fill-opacity:1"
         id="path2"
         cx="424"
         cy="148"
         r="5" />
      <path
         id="path3"
         style="opacity:0.2;fill:#ffffff;fill-opacity:1"
         d="m 424,143 a 5,5 0 0 0 -5,5 5,5 0 0 0 0.0176,0.25 5,5 0 0 1 4.9824,-4.75 5,5 0 0 1 4.98828,4.66797 A 5,5 0 0 0 429,148 a 5,5 0 0 0 -5,-5 z" />
      <path
         style="opacity:0.2;stroke-width:0.5"
         d="m 427.72452,143.5 c 0.17653,1e-5 0.27518,0.13977 0.29595,0.41929 l -0.22296,1.31635 h 0.0545 l 0.11682,-0.0975 h 0.0312 v 0.0293 c -0.16097,0.12352 -0.31673,0.46154 -0.46729,1.01408 -0.0571,0.47455 -0.15318,0.91333 -0.28817,1.31636 -0.11942,0.41604 -0.17913,0.79957 -0.17912,1.1506 l -0.22586,0.69231 c 0,0.0585 0.0857,0.11701 0.25701,0.17551 -0.0312,0.13651 -0.0779,0.20477 -0.14019,0.20477 v 0.039 h 0.0545 v 0.0292 c 0,0.0715 -0.0883,0.10727 -0.26479,0.10726 l 0.0311,0.039 v 0.13651 h -0.0545 c 0.0363,0.13651 0.11422,0.20477 0.23364,0.20477 v 0.0683 h -0.23364 v 0.039 c 0.0779,0 0.11681,0.0585 0.11682,0.17551 l -0.3271,0.13651 0.0311,0.039 v 0.0293 c -1e-5,0.0455 -0.0389,0.0683 -0.11682,0.0683 v 0.039 c 0.0986,10e-6 0.14797,0.0228 0.14797,0.0683 -0.14019,0.0585 -0.32451,0.34778 -0.55296,0.86783 -0.23365,0.46152 -0.43615,0.69229 -0.60748,0.69229 h -0.0623 c -0.12981,-0.10401 -0.23625,-0.44854 -0.31932,-1.03359 -0.3323,-0.89057 -0.49845,-1.41386 -0.49844,-1.56988 -1e-5,-0.40303 -0.10645,-0.58214 -0.31932,-1.03718 -0.0571,-0.20152 -0.096,-0.5539 -0.11682,-0.85943 h -0.14019 c -0.35306,0.66956 -0.53738,1.00279 -0.55296,1.37982 -0.0987,0.22102 -0.17653,0.48754 -0.23364,0.79957 0.21287,0.0715 0.31931,0.13976 0.31932,0.20476 v 0.039 c -0.16616,-0.026 -0.28298,-0.0747 -0.35047,-0.14626 -0.0727,0.17552 -0.16875,0.46302 -0.28816,1.26258 -0.0935,0.37054 -0.21029,0.51057 -0.35047,0.51057 -0.3946,-0.16251 -0.7243,-0.3838 -0.9891,-0.75434 -0.0415,1e-5 -0.10903,-0.18526 -0.20249,-0.55579 -0.0571,0 -0.0961,-0.18527 -0.11682,-0.5558 -0.1973,-0.52654 -0.3323,-0.9278 -0.40499,-1.60386 v -1.01408 h -0.0312 l -0.14019,0.039 v -0.039 c 0,-0.0455 0.0467,-0.0683 0.14019,-0.0683 l -0.0311,-0.58505 V 146.4546 L 420.5,144.74205 V 144.118 c 0.0987,-0.39003 0.26999,-0.58504 0.51402,-0.58505 l 0.0935,0.0975 -0.0935,-0.0292 c 0.37903,0.52005 0.60229,1.20866 0.66978,1.56618 h 0.2648 v 0.0683 h -0.20249 v 0.078 c 0.0779,0.29903 0.13499,0.44855 0.17134,0.44854 h 0.0623 l 0.14018,-0.039 0.0312,0.039 0.0312,-0.039 0.0311,0.039 v 0.0292 c -0.10384,0.078 -0.17394,0.18527 -0.21028,0.32178 h -0.0234 v 0.0682 h 0.0545 c 0.0727,1.0856 0.20768,1.65773 0.40498,2.21678 l 0.11682,0.0975 h 0.0623 c 0.0779,1e-5 0.24143,0.11983 0.49065,-0.64074 0.16096,-0.34452 0.27778,-0.59679 0.35047,-0.85682 l -0.0312,-0.10726 c 0.16095,-0.25351 0.3271,-0.38027 0.49844,-0.38028 h 0.0545 c 0.10903,1e-5 0.18691,0.0715 0.23364,0.21452 0.14538,0.21452 0.2622,0.48629 0.35047,0.91532 l 0.43614,1.01409 c 0.0571,0.0715 0.0857,0.15276 0.0857,0.24377 0.16095,0.38353 0.30632,0.47814 0.43613,0.60165 h 0.0935 c 0.10903,0 0.25441,-0.56554 0.43614,-1.51463 0.0311,10e-6 0.11681,-0.25351 0.25701,-0.76056 v -0.039 l -0.14817,-0.0683 -0.11683,0.039 h -0.14797 v -0.078 l 0.29595,-0.0293 h 0.23384 c 0.22325,-0.83856 0.42834,-1.48861 0.61526,-1.95016 0.0623,-0.94907 0.14797,-1.42361 0.25701,-1.42362 l 0.4255,-0.17541"
         id="path4" />
      <path
         style="fill:#ffffff;stroke-width:0.5"
         d="m 427.72452,143 c 0.17653,1e-5 0.27518,0.13977 0.29595,0.41929 l -0.22296,1.31635 h 0.0545 l 0.11682,-0.0975 h 0.0312 v 0.0293 c -0.16097,0.12352 -0.31673,0.46154 -0.46729,1.01408 -0.0571,0.47455 -0.15318,0.91333 -0.28817,1.31636 -0.11942,0.41604 -0.17913,0.79957 -0.17912,1.1506 l -0.22586,0.69231 c 0,0.0585 0.0857,0.11701 0.25701,0.17551 -0.0312,0.13651 -0.0779,0.20477 -0.14019,0.20477 v 0.039 h 0.0545 v 0.0292 c 0,0.0715 -0.0883,0.10727 -0.26479,0.10726 l 0.0311,0.039 v 0.13651 h -0.0545 c 0.0363,0.13651 0.11422,0.20477 0.23364,0.20477 v 0.0683 h -0.23364 v 0.039 c 0.0779,0 0.11681,0.0585 0.11682,0.17551 l -0.3271,0.13651 0.0311,0.039 v 0.0293 c -1e-5,0.0455 -0.0389,0.0683 -0.11682,0.0683 v 0.039 c 0.0986,10e-6 0.14797,0.0228 0.14797,0.0683 -0.14019,0.0585 -0.32451,0.34778 -0.55296,0.86783 -0.23357,0.46137 -0.43607,0.69214 -0.6074,0.69214 h -0.0623 c -0.12981,-0.10401 -0.23625,-0.44854 -0.31932,-1.03359 -0.3323,-0.89057 -0.49845,-1.41386 -0.49844,-1.56988 -10e-6,-0.40303 -0.10645,-0.58214 -0.31932,-1.03718 -0.0571,-0.20152 -0.096,-0.5539 -0.11682,-0.85943 h -0.14019 c -0.35306,0.66956 -0.53738,1.00279 -0.55296,1.37982 -0.0987,0.22102 -0.17653,0.48754 -0.23364,0.79957 0.21287,0.0715 0.31931,0.13976 0.31932,0.20476 v 0.039 c -0.16616,-0.026 -0.28298,-0.0748 -0.35047,-0.14627 -0.0727,0.17552 -0.16875,0.46302 -0.28816,1.26259 -0.0935,0.37053 -0.21029,0.51056 -0.35047,0.51056 -0.3946,-0.16251 -0.7243,-0.3838 -0.9891,-0.75433 -0.0415,0 -0.10903,-0.18527 -0.20249,-0.5558 -0.0571,0 -0.0961,-0.18526 -0.11682,-0.55579 -0.1973,-0.52655 -0.3323,-0.92781 -0.40499,-1.60387 v -1.01408 h -0.0312 l -0.14019,0.039 v -0.039 c 0,-0.0455 0.0467,-0.0683 0.14019,-0.0683 l -0.0311,-0.58505 v -0.45829 L 420.5,144.24205 V 143.618 c 0.0987,-0.39003 0.26999,-0.58504 0.51402,-0.58505 l 0.0935,0.0975 -0.0935,-0.0292 c 0.37903,0.52005 0.60229,1.20866 0.66978,1.56618 h 0.2648 v 0.0683 h -0.20249 v 0.078 c 0.0779,0.29903 0.13499,0.44855 0.17134,0.44854 h 0.0623 l 0.14018,-0.039 0.0312,0.039 0.0312,-0.039 0.0311,0.039 v 0.0292 c -0.10384,0.078 -0.17394,0.18527 -0.21028,0.32178 h -0.0234 v 0.0682 h 0.0545 c 0.0727,1.0856 0.20768,1.65773 0.40498,2.21678 l 0.11682,0.0975 h 0.0623 c 0.0779,1e-5 0.24143,0.11983 0.49065,-0.64074 0.16096,-0.34452 0.27778,-0.59679 0.35047,-0.85682 l -0.0312,-0.10726 c 0.16095,-0.25351 0.3271,-0.38027 0.49844,-0.38028 h 0.0545 c 0.10903,1e-5 0.18691,0.0715 0.23364,0.21452 0.14538,0.21452 0.2622,0.4863 0.35047,0.91532 l 0.43614,1.01409 c 0.0571,0.0715 0.0857,0.15276 0.0857,0.24377 0.16095,0.38353 0.30632,0.47814 0.43613,0.60165 h 0.0935 c 0.10903,0 0.25441,-0.56554 0.43614,-1.51463 0.0311,10e-6 0.11681,-0.25351 0.25701,-0.76056 v -0.039 l -0.14817,-0.0683 -0.11683,0.039 h -0.14797 v -0.078 l 0.29595,-0.0293 h 0.23384 c 0.22325,-0.83856 0.42834,-1.48861 0.61526,-1.95016 0.0623,-0.94907 0.14797,-1.42361 0.25701,-1.42361 L 427.72453,143"
         id="path5" />
    </g>
    <g
       id="g2">
      <circle
         style="opacity:0.2;fill:#000000;stroke-width:1.4"
         id="path1-6"
         cx="428"
         cy="112.5"
         r="7" />
      <circle
         style="fill:#f3b616;fill-opacity:1;stroke-width:1.4"
         id="path2-7"
         cx="428"
         cy="112"
         r="7" />
      <path
         id="path3-5"
         style="opacity:0.2;fill:#ffffff;fill-opacity:1;stroke-width:1.4"
         d="m 428,105 a 7,7 0 0 0 -7,7 7,7 0 0 0 0.0176,0.25293 A 7,7 0 0 1 428,105.5 7,7 0 0 1 434.99023,112.14063 7,7 0 0 0 435,112 a 7,7 0 0 0 -7,-7 z" />
      <path
         id="path4-3"
         style="opacity:0.2;fill:#000000;stroke-width:0.5"
         d="m 433.08691,105.5 -0.59375,0.24414 c -0.15224,1e-5 -0.27239,0.65841 -0.35937,1.97656 -0.26098,0.64104 -0.54669,1.54432 -0.8584,2.70899 h -0.32715 l -0.41308,0.04 v 0.1084 h 0.20703 l 0.16308,-0.0537 0.20703,0.0947 v 0.0547 c -0.19573,0.70422 -0.31588,1.05566 -0.35937,1.05565 C 430.4992,113.04766 430.29676,114 430.14453,114 h -0.13086 c -0.18124,-0.17154 -0.38466,-0.81692 -0.60937,-1.34961 -10e-6,-0.12639 -0.0394,-0.23857 -0.11914,-0.33789 l -0.60938,-1.25879 c -0.12324,-0.59587 -0.28629,-0.97354 -0.48926,-1.27148 -0.0652,-0.19862 -0.17394,-0.28222 -0.32617,-0.28223 h -0.0762 c -0.23922,1e-5 -0.47059,0.16059 -0.69531,0.5127 l 0.043,0.14843 c -0.1015,0.36115 -0.26454,0.71193 -0.48926,1.19043 -0.34796,1.05635 -0.57584,1.64845 -0.68457,1.64844 h -0.0869 l -0.16308,-0.14941 c -0.27547,-0.77645 -0.46395,-2.11821 -0.56543,-3.62598 h -0.0762 v -0.0947 h 0.0322 c 0.0507,-0.18959 0.14896,-0.33891 0.29395,-0.44726 v -0.041 l -0.0439,-0.0537 -0.043,0.0537 -0.0439,-0.0537 -0.19532,0.0537 h -0.0869 c -0.0507,1e-5 -0.13052,-0.20773 -0.23926,-0.62304 v -0.1084 h 0.28223 v -0.0947 h -0.37012 c -0.0942,-0.49656 -0.40538,-1.00525 -0.93457,-1.72754 l 0.13086,0.04 -0.13086,-0.13476 c -0.3407,10e-6 -0.58004,0.2708 -0.71777,0.8125 v 0.7666 l 0.31543,2.03125 v 0.63672 l 0.043,0.8125 c -0.13048,0 -0.19531,0.0315 -0.19531,0.0947 v 0.0537 l 0.19531,-0.0537 h 0.0439 v 1.4082 c 0.10149,0.93897 0.28996,1.62416 0.56543,2.35547 0.029,0.51462 0.0834,0.77246 0.16309,0.77246 0.13048,0.51463 0.22521,0.77149 0.2832,0.77148 0.36971,0.51463 0.82992,0.81921 1.38086,1.04492 0.19573,0 0.35877,-0.19142 0.48926,-0.70605 0.16673,-1.1105 0.30086,-1.63806 0.40235,-1.88184 0.0942,0.0993 0.25727,0.16702 0.48925,0.20313 v -0.0537 c 0,-0.0903 -0.14908,-0.18584 -0.44629,-0.28516 0.0797,-0.43336 0.18844,-0.80338 0.32617,-1.11035 0.0217,-0.52365 0.27952,-1.23314 0.77247,-2.16309 h 0.19531 c 0.029,0.42435 0.0833,0.91349 0.16309,1.19336 0.2972,0.632 0.44628,1.12774 0.44628,1.6875 0,0.21669 0.23136,0.94376 0.69532,2.18067 0.11598,0.81257 0.26505,1.29109 0.44628,1.43555 h 0.0869 c 0.23921,0 0.52241,-0.32089 0.84863,-0.96192 0.31895,-0.72228 0.57575,-1.12382 0.77148,-1.20508 0,-0.0632 -0.0683,-0.0947 -0.20605,-0.0947 v -0.0537 c 0.10873,0 0.16308,-0.0315 0.16308,-0.0947 v -0.041 l -0.0439,-0.0547 0.45704,-0.18945 c -1e-5,-0.16251 -0.0544,-0.24316 -0.16309,-0.24316 v -0.0547 h 0.32617 v -0.0947 c -0.16674,0 -0.27543,-0.0946 -0.32617,-0.28418 h 0.0762 v -0.18946 l -0.0439,-0.0547 c 0.24646,10e-6 0.37011,-0.0491 0.37012,-0.14844 v -0.041 h -0.0762 v -0.0537 c 0.087,0 0.15181,-0.0956 0.19531,-0.28516 -0.23923,-0.0812 -0.35841,-0.1619 -0.3584,-0.24317 l 0.31543,-0.96191 c -10e-6,-0.48754 0.0833,-1.01982 0.25,-1.59766 0.18847,-0.55976 0.32259,-1.16903 0.40234,-1.82812 0.21022,-0.76741 0.42761,-1.23763 0.65235,-1.40918 v -0.04 h -0.0439 l -0.16308,0.13477 h -0.0762 l 0.3114,-1.82828 c -0.029,-0.38821 -0.16663,-0.58202 -0.41309,-0.58203 z" />
      <path
         id="path5-5"
         style="fill:#ffffff;stroke-width:0.5"
         d="m 433.08691,105 -0.59375,0.24414 c -0.15224,1e-5 -0.27239,0.65841 -0.35937,1.97656 -0.26098,0.64104 -0.54669,1.54432 -0.8584,2.70899 h -0.32715 l -0.41308,0.04 v 0.1084 h 0.20703 l 0.16308,-0.0537 0.20703,0.0947 v 0.0547 c -0.19573,0.70422 -0.31588,1.05566 -0.35937,1.05565 -0.25373,1.31817 -0.45617,2.27051 -0.6084,2.27051 h -0.13086 c -0.18124,-0.17154 -0.38466,-0.81692 -0.60937,-1.34961 -10e-6,-0.12639 -0.0394,-0.23857 -0.11914,-0.33789 l -0.60938,-1.25879 c -0.12324,-0.59587 -0.28629,-0.97354 -0.48926,-1.27148 -0.0652,-0.19862 -0.17394,-0.28222 -0.32617,-0.28223 h -0.0762 c -0.23922,1e-5 -0.47059,0.16059 -0.69531,0.5127 l 0.043,0.14843 c -0.1015,0.36115 -0.26454,0.71193 -0.48926,1.19043 -0.34796,1.05635 -0.57584,1.64845 -0.68457,1.64844 h -0.0869 l -0.16308,-0.14941 c -0.27547,-0.77645 -0.46395,-2.11821 -0.56543,-3.62598 h -0.0762 v -0.0947 h 0.0322 c 0.0507,-0.18959 0.14896,-0.33891 0.29395,-0.44726 v -0.041 l -0.0439,-0.0537 -0.043,0.0537 -0.0439,-0.0537 -0.19532,0.0537 h -0.0869 c -0.0507,1e-5 -0.13052,-0.20773 -0.23926,-0.62304 v -0.1084 h 0.28223 v -0.0947 h -0.37012 c -0.0942,-0.49656 -0.40538,-1.00525 -0.93457,-1.72754 l 0.13086,0.04 -0.13086,-0.13476 c -0.3407,1e-5 -0.58004,0.2708 -0.71777,0.8125 v 0.7666 l 0.31543,2.03125 v 0.63672 l 0.043,0.8125 c -0.13048,0 -0.19531,0.0315 -0.19531,0.0947 v 0.0537 l 0.19531,-0.0537 h 0.0439 v 1.4082 c 0.10149,0.93897 0.28996,1.62416 0.56543,2.35547 0.029,0.51462 0.0834,0.77246 0.16309,0.77246 0.13048,0.51463 0.22521,0.77149 0.2832,0.77148 0.36971,0.51463 0.82992,0.81921 1.38086,1.04492 0.19573,0 0.35877,-0.19142 0.48926,-0.70605 0.16673,-1.1105 0.30086,-1.63806 0.40235,-1.88184 0.0942,0.0993 0.25727,0.16702 0.48925,0.20313 v -0.0537 c 0,-0.0903 -0.14908,-0.18584 -0.44629,-0.28516 0.0797,-0.43336 0.18844,-0.80338 0.32617,-1.11035 0.0217,-0.52365 0.27952,-1.23314 0.77247,-2.16309 h 0.19531 c 0.029,0.42435 0.0833,0.91349 0.16309,1.19336 0.2972,0.632 0.44628,1.12774 0.44628,1.6875 0,0.21669 0.23136,0.94376 0.69532,2.18067 0.11598,0.81257 0.26505,1.29109 0.44628,1.43555 h 0.0869 c 0.23921,0 0.52241,-0.32089 0.84863,-0.96192 0.31895,-0.72228 0.57575,-1.12382 0.77148,-1.20508 0,-0.0632 -0.0683,-0.0947 -0.20605,-0.0947 v -0.0537 c 0.10873,0 0.16308,-0.0315 0.16308,-0.0947 v -0.041 l -0.0439,-0.0547 0.45704,-0.18945 c -1e-5,-0.16251 -0.0544,-0.24316 -0.16309,-0.24316 v -0.0547 h 0.32617 v -0.0947 c -0.16674,0 -0.27543,-0.0946 -0.32617,-0.28418 h 0.0762 v -0.18946 l -0.0439,-0.0547 c 0.24646,1e-5 0.37011,-0.0491 0.37012,-0.14844 v -0.041 h -0.0762 v -0.0537 c 0.087,0 0.15181,-0.0956 0.19531,-0.28516 -0.23923,-0.0812 -0.35841,-0.1619 -0.3584,-0.24317 l 0.31543,-0.96191 c -10e-6,-0.48754 0.0833,-1.01982 0.25,-1.59766 0.18847,-0.55976 0.32259,-1.16903 0.40234,-1.82812 0.21022,-0.76741 0.42761,-1.23763 0.65235,-1.40918 v -0.04 h -0.0439 l -0.16308,0.13477 h -0.0762 l 0.3114,-1.82823 c -0.029,-0.38821 -0.16663,-0.58202 -0.41309,-0.58203 z" />
    </g>
    <g
       id="g3">
      <circle
         style="opacity:0.2;fill:#000000;stroke-width:2"
         id="path1-9"
         cx="432"
         cy="69"
         r="10" />
      <circle
         style="fill:#f3b616;fill-opacity:1;stroke-width:2"
         id="path2-1"
         cx="432"
         cy="68"
         r="10" />
      <path
         id="path3-2"
         style="opacity:0.2;fill:#ffffff;fill-opacity:1;stroke-width:2"
         d="m 432,58.000001 a 10,10 0 0 0 -10,10 10,10 0 0 0 0.0352,0.5 10,10 0 0 1 9.9648,-9.5 10,10 0 0 1 9.97656,9.335938 10,10 0 0 0 0.0234,-0.335938 10,10 0 0 0 -10,-10 z" />
      <path
         style="opacity:0.2;stroke-width:1"
         d="m 439.44905,59.000001 c 0.35305,2.1e-5 0.55035,0.279541 0.5919,0.838572 l -0.44593,2.632718 h 0.10904 l 0.23364,-0.195018 H 440 v 0.05851 c -0.32193,0.247038 -0.63346,0.92309 -0.93458,2.028166 -0.11424,0.949094 -0.30635,1.826666 -0.57633,2.632724 -0.23885,0.832078 -0.35827,1.599138 -0.35825,2.301192 l -0.45172,1.384614 c -1e-5,0.11702 0.17132,0.234026 0.51402,0.351026 -0.0623,0.27303 -0.15578,0.409542 -0.28037,0.409538 v 0.078 h 0.10904 v 0.0585 c -2e-5,0.14302 -0.17654,0.214524 -0.5296,0.21452 l 0.0623,0.078 v 0.273022 h -0.10904 c 0.0727,0.27303 0.22844,0.409538 0.4673,0.409538 v 0.1365 h -0.4673 v 0.07802 c 0.15574,4e-6 0.23364,0.11702 0.23365,0.351032 l -0.6542,0.27302 0.0623,0.078 v 0.05852 c -10e-6,0.09102 -0.0779,0.13652 -0.23365,0.13652 v 0.078 c 0.19728,4e-6 0.29594,0.0455 0.29595,0.13652 -0.28038,0.11702 -0.64902,0.695558 -1.10592,1.735644 -0.46729,0.923066 -0.87227,1.384602 -1.21494,1.384602 h -0.12462 c -0.25961,-0.208018 -0.47249,-0.897078 -0.63863,-2.067176 -0.66459,-1.781144 -0.99689,-2.82773 -0.99688,-3.13976 -1e-5,-0.806058 -0.21289,-1.164292 -0.63863,-2.07437 -0.11424,-0.403026 -0.19212,-1.10779 -0.23365,-1.718852 h -0.28037 c -0.70613,1.339118 -1.07477,2.005582 -1.10592,2.759636 -0.1973,0.442042 -0.35307,0.975086 -0.46729,1.599134 0.42575,0.14302 0.63863,0.279526 0.63863,0.409532 v 0.078 c -0.3323,-0.052 -0.56594,-0.1495 -0.70094,-0.292524 -0.14538,0.351032 -0.33749,0.92604 -0.57632,2.525168 -0.18692,0.741064 -0.42056,1.02113 -0.70093,1.02113 -0.78921,-0.325026 -1.4486,-0.767606 -1.97819,-1.508672 -0.0831,8e-6 -0.21808,-0.370528 -0.40499,-1.11159 -0.11422,4e-6 -0.1921,-0.37053 -0.23364,-1.111594 -0.39461,-1.053072 -0.66459,-1.8556 -0.80997,-3.207714 v -2.028172 h -0.0623 l -0.28037,0.078 v -0.07802 c 0,-0.09098 0.0935,-0.1365 0.28037,-0.1365 l -0.0623,-1.170087 V 64.908991 L 425,61.484102 v -1.248104 c 0.1973,-0.780047 0.53998,-1.170078 1.02804,-1.170098 l 0.18692,0.195018 -0.18692,-0.0585 c 0.75804,1.040101 1.20457,2.41732 1.33956,3.132366 h 0.5296 v 0.136512 h -0.40499 v 0.156014 c 0.15576,0.59806 0.26999,0.897088 0.34268,0.897073 h 0.12462 l 0.28037,-0.07801 0.0623,0.07801 0.0623,-0.07801 0.0623,0.07801 v 0.0585 c -0.20768,0.156026 -0.34787,0.370545 -0.42056,0.643555 h -0.0467 v 0.136508 h 0.10904 c 0.14538,2.171195 0.41537,3.315461 0.80997,4.433549 l 0.23365,0.19502 h 0.1246 c 0.15576,10e-6 0.48286,0.23965 0.98131,-1.281484 0.32191,-0.689044 0.55555,-1.193586 0.70093,-1.71364 l -0.0623,-0.21452 c 0.3219,-0.507032 0.65419,-0.76055 0.99688,-0.760565 h 0.10904 c 0.21806,1.5e-5 0.37382,0.143024 0.46729,0.429039 0.29075,0.429045 0.5244,0.972592 0.70093,1.83065 l 0.87228,2.028168 c 0.11422,0.14302 0.17132,0.305532 0.17134,0.487544 0.3219,0.767066 0.61266,0.956282 0.87228,1.2033 h 0.18692 c 0.21806,6e-6 0.50881,-1.131086 0.87227,-3.029252 0.0623,1e-5 0.23363,-0.507032 0.51402,-1.521126 v -0.07802 l -0.29634,-0.13652 -0.23365,0.078 h -0.29595 v -0.15602 l 0.5919,-0.05852 h 0.46768 c 0.44651,-1.677124 0.85669,-2.977233 1.23053,-3.900324 0.1246,-1.89814 0.29594,-2.847217 0.51402,-2.847233 l 0.85091,-0.350991"
         id="path4-7" />
      <path
         style="fill:#ffffff;stroke-width:1"
         d="m 439.44905,58.000001 c 0.35305,2.1e-5 0.55035,0.279541 0.5919,0.838572 l -0.44593,2.632718 h 0.10904 l 0.23364,-0.195018 H 440 v 0.05851 c -0.32193,0.247038 -0.63346,0.92309 -0.93458,2.028166 -0.11424,0.949094 -0.30635,1.826664 -0.57633,2.632723 -0.23885,0.832079 -0.35827,1.599139 -0.35825,2.301193 l -0.45172,1.384614 c -1e-5,0.11702 0.17132,0.234026 0.51402,0.351026 -0.0623,0.27303 -0.15578,0.409542 -0.28037,0.409538 v 0.078 h 0.10904 v 0.0585 c -2e-5,0.14302 -0.17654,0.214524 -0.5296,0.21452 l 0.0623,0.078 v 0.27302 h -0.10904 c 0.0727,0.273032 0.22844,0.409538 0.4673,0.409538 v 0.1365 h -0.4673 v 0.078 c 0.15574,6e-6 0.23364,0.11702 0.23365,0.351034 l -0.6542,0.27302 0.0623,0.078 v 0.05852 c -10e-6,0.09102 -0.0779,0.13652 -0.23365,0.13652 v 0.078 c 0.19728,4e-6 0.29594,0.0455 0.29595,0.13652 -0.28038,0.11702 -0.64902,0.695558 -1.10592,1.735644 -0.46729,0.923086 -0.87227,1.384622 -1.21494,1.384622 h -0.12462 c -0.25961,-0.208018 -0.47249,-0.897078 -0.63863,-2.067176 -0.66459,-1.781144 -0.99689,-2.82773 -0.99688,-3.13976 -1e-5,-0.806058 -0.21289,-1.164292 -0.63863,-2.07437 -0.11424,-0.403026 -0.19212,-1.10779 -0.23365,-1.718852 h -0.28037 c -0.70613,1.339118 -1.07477,2.005582 -1.10592,2.759636 -0.1973,0.442042 -0.35307,0.975086 -0.46729,1.599134 0.42575,0.14302 0.63863,0.279526 0.63863,0.409532 v 0.078 c -0.3323,-0.052 -0.56594,-0.1495 -0.70094,-0.292524 -0.14538,0.351032 -0.33749,0.92604 -0.57632,2.525168 -0.18692,0.741064 -0.42056,1.02113 -0.70093,1.02113 -0.78921,-0.325026 -1.4486,-0.767606 -1.97819,-1.508672 -0.0831,8e-6 -0.21808,-0.370528 -0.40499,-1.11159 -0.11422,4e-6 -0.1921,-0.37053 -0.23364,-1.111594 -0.39461,-1.053082 -0.66459,-1.85561 -0.80997,-3.207724 v -2.028172 h -0.0623 l -0.28037,0.078 v -0.07802 c 0,-0.09098 0.0935,-0.136496 0.28037,-0.136506 l -0.0623,-1.170071 V 63.908991 L 425,60.484102 v -1.248104 c 0.1973,-0.780047 0.53998,-1.170078 1.02804,-1.170098 l 0.18692,0.195018 -0.18692,-0.0585 c 0.75804,1.040101 1.20457,2.41732 1.33956,3.132366 h 0.5296 v 0.136512 h -0.40499 v 0.156014 c 0.15576,0.59806 0.26999,0.897088 0.34268,0.897073 h 0.12462 l 0.28037,-0.07801 0.0623,0.07801 0.0623,-0.07801 0.0623,0.07801 v 0.0585 c -0.20768,0.156026 -0.34787,0.370545 -0.42056,0.643555 h -0.0467 v 0.136508 h 0.10904 c 0.14538,2.171195 0.41537,3.315461 0.80997,4.433549 l 0.23365,0.19502 h 0.1246 c 0.15576,10e-6 0.48286,0.23965 0.98131,-1.281484 0.32191,-0.689044 0.55555,-1.193587 0.70093,-1.71364 l -0.0623,-0.21452 c 0.3219,-0.507032 0.65419,-0.76055 0.99688,-0.760565 h 0.10904 c 0.21806,1.5e-5 0.37382,0.143024 0.46729,0.429039 0.29075,0.429045 0.5244,0.972592 0.70093,1.83065 l 0.87228,2.028168 c 0.11422,0.14302 0.17132,0.305532 0.17134,0.487544 0.3219,0.767066 0.61266,0.956282 0.87228,1.2033 h 0.18692 c 0.21806,6e-6 0.50881,-1.131086 0.87227,-3.029252 0.0623,1e-5 0.23363,-0.507032 0.51402,-1.521126 v -0.07801 l -0.29634,-0.136513 -0.23364,0.07801 h -0.29595 v -0.156014 l 0.59189,-0.05851 h 0.46769 c 0.44651,-1.677124 0.85668,-2.977234 1.23053,-3.900325 0.1246,-1.898139 0.29594,-2.847217 0.51401,-2.847232 l 0.85091,-0.351034"
         id="path5-0" />
    </g>
    <g
       id="g4"
       transform="translate(-1,-4)">
      <circle
         style="opacity:0.2;fill:#000000;stroke-width:3"
         id="path1-60"
         cx="313"
         cy="249"
         r="15" />
      <circle
         style="fill:#f3b616;fill-opacity:1;stroke-width:3"
         id="path2-6"
         cx="313"
         cy="248"
         r="15" />
      <path
         id="path3-26"
         style="opacity:0.2;fill:#ffffff;fill-opacity:1;stroke-width:3"
         d="M 313 233 A 15 15 0 0 0 298 248 A 15 15 0 0 0 298.03516 248.50391 A 15 15 0 0 1 313 234 A 15 15 0 0 1 327.98242 248.25781 A 15 15 0 0 0 328 248 A 15 15 0 0 0 313 233 z " />
      <path
         style="opacity:0.2;stroke-width:1.5"
         d="m 324.17358,234 c 0.52957,3e-5 0.82552,0.41931 0.88784,1.25785 l -0.66889,3.94909 h 0.16356 l 0.35046,-0.29254 H 325 v 0.0878 c -0.48289,0.37056 -0.95019,1.38463 -1.40187,3.04225 -0.17136,1.42364 -0.45953,2.73999 -0.86449,3.94908 -0.35828,1.24812 -0.53741,2.39871 -0.53738,3.45179 l -0.67758,2.07693 c -1e-5,0.17553 0.25698,0.35103 0.77103,0.52653 -0.0935,0.40954 -0.23367,0.61432 -0.42055,0.6143 v 0.11701 h 0.16356 v 0.0877 c -3e-5,0.21453 -0.26481,0.32179 -0.79441,0.32178 l 0.0935,0.117 v 0.40953 h -0.16357 c 0.10905,0.40954 0.34266,0.61431 0.70096,0.61431 v 0.20475 h -0.70096 v 0.117 c 0.23361,1e-5 0.35046,0.17553 0.35048,0.52654 l -0.9813,0.40953 0.0935,0.117 v 0.0877 c -1e-5,0.1365 -0.11685,0.20478 -0.35048,0.20478 v 0.117 c 0.29592,2e-5 0.44391,0.0682 0.44393,0.20478 -0.42057,0.17553 -0.97353,1.04334 -1.65888,2.60348 -0.70097,1.38459 -1.30844,2.0769 -1.82244,2.0769 h -0.18693 c -0.38942,-0.31203 -0.70874,-1.34562 -0.95795,-3.10077 -0.99688,-2.67171 -1.49533,-4.2416 -1.49532,-4.70964 -10e-6,-1.20908 -0.31933,-1.74644 -0.95794,-3.11156 -0.17136,-0.60453 -0.28818,-1.66168 -0.35047,-2.57827 h -0.42056 c -1.05919,2.00868 -1.61216,3.00837 -1.65888,4.13946 -0.29595,0.66306 -0.52961,1.46262 -0.70094,2.39869 0.63863,0.21453 0.95795,0.4193 0.95795,0.6143 v 0.117 c -0.49845,-0.078 -0.84891,-0.22425 -1.05141,-0.43878 -0.21807,0.52654 -0.50624,1.38906 -0.86448,3.78775 -0.28038,1.11159 -0.63084,1.5317 -1.0514,1.5317 -1.18381,-0.48755 -2.1729,-1.15142 -2.96728,-2.26301 -0.12465,0 -0.32712,-0.55579 -0.60749,-1.66738 -0.17133,0 -0.28815,-0.5558 -0.35046,-1.6674 -0.59191,-1.57961 -0.99688,-2.78341 -1.21495,-4.81157 v -3.04225 h -0.0934 l -0.42056,0.117 v -0.117 c 0,-0.1365 0.14025,-0.20475 0.42056,-0.20475 l -0.0935,-1.75514 v -1.37487 L 302.5,237.72615 V 235.854 c 0.29595,-1.17007 0.80997,-1.75512 1.54206,-1.75515 l 0.28038,0.29253 -0.28038,-0.0877 c 1.13706,1.56015 1.80685,3.62598 2.00934,4.69854 h 0.7944 v 0.20477 h -0.60749 v 0.23402 c 0.23364,0.8971 0.40499,1.34564 0.51402,1.34561 h 0.18693 l 0.42056,-0.117 0.0934,0.117 0.0935,-0.117 0.0935,0.117 v 0.0877 c -0.31152,0.23405 -0.52181,0.55583 -0.63084,0.96534 h -0.07 v 0.20475 h 0.16356 c 0.21807,3.2568 0.62305,4.97321 1.21495,6.65033 l 0.35048,0.29253 h 0.1869 c 0.23364,1e-5 0.72429,0.35947 1.47196,-1.92222 0.48287,-1.03356 0.83333,-1.79039 1.0514,-2.57046 l -0.0935,-0.32178 c 0.48285,-0.76055 0.98129,-1.14083 1.49532,-1.14086 h 0.16356 c 0.32709,3e-5 0.56073,0.21455 0.70093,0.64356 0.43613,0.64358 0.7866,1.4589 1.0514,2.74598 l 1.30842,3.04225 c 0.17133,0.21453 0.25698,0.4583 0.25701,0.73133 0.48285,1.15059 0.91899,1.43442 1.30842,1.80495 h 0.28038 c 0.32709,0 0.76321,-1.69664 1.3084,-4.54389 0.0934,1e-5 0.35045,-0.76055 0.77103,-2.28168 v -0.117 l -0.44451,-0.20478 -0.35047,0.117 h -0.44393 v -0.23403 l 0.88785,-0.0877 h 0.70152 c 0.66977,-2.5157 1.28504,-4.46586 1.8458,-5.8505 0.1869,-2.84721 0.44391,-4.27081 0.77103,-4.27084 L 324.1736,234"
         id="path4-1" />
      <path
         style="fill:#ffffff;stroke-width:1.5"
         d="m 324.17358,233 c 0.52957,3e-5 0.82552,0.41931 0.88784,1.25785 l -0.66889,3.94909 h 0.16356 l 0.35046,-0.29254 H 325 v 0.0878 c -0.48289,0.37056 -0.95019,1.38463 -1.40187,3.04225 -0.17136,1.42364 -0.45953,2.73999 -0.86449,3.94908 -0.35828,1.24812 -0.53741,2.39871 -0.53738,3.45179 l -0.67758,2.07693 c -1e-5,0.17553 0.25698,0.35103 0.77103,0.52653 -0.0935,0.40954 -0.23367,0.61432 -0.42055,0.6143 v 0.11701 h 0.16356 v 0.0877 c -3e-5,0.21453 -0.26481,0.32179 -0.79441,0.32178 l 0.0935,0.117 v 0.40953 h -0.16357 c 0.10905,0.40954 0.34266,0.61431 0.70096,0.61431 v 0.20475 h -0.70096 v 0.117 c 0.23361,1e-5 0.35046,0.17553 0.35048,0.52654 l -0.9813,0.40953 0.0935,0.117 v 0.0877 c -1e-5,0.1365 -0.11685,0.20478 -0.35048,0.20478 v 0.117 c 0.29592,2e-5 0.44391,0.0683 0.44393,0.20478 -0.42057,0.17553 -0.97353,1.04334 -1.65888,2.60348 C 318.36446,259.30769 317.757,260 317.24299,260 h -0.18693 c -0.38941,-0.31203 -0.70873,-1.34562 -0.95794,-3.10077 -0.99689,-2.67171 -1.49534,-4.2416 -1.49532,-4.70964 -2e-5,-1.20908 -0.31934,-1.74644 -0.95795,-3.11156 -0.17136,-0.60452 -0.28818,-1.66168 -0.35047,-2.57827 h -0.42056 c -1.05919,2.00868 -1.61215,3.00837 -1.65888,4.13946 -0.29595,0.66306 -0.5296,1.46262 -0.70093,2.39869 0.63862,0.21454 0.95794,0.4193 0.95794,0.6143 v 0.117 c -0.49845,-0.078 -0.84891,-0.22425 -1.05141,-0.43878 -0.21807,0.52655 -0.50623,1.38906 -0.86448,3.78775 -0.28038,1.1116 -0.63084,1.5317 -1.0514,1.5317 -1.18381,-0.48755 -2.17289,-1.15142 -2.96728,-2.263 -0.12465,0 -0.32712,-0.5558 -0.60749,-1.66739 -0.17132,0 -0.28814,-0.5558 -0.35045,-1.6674 -0.59192,-1.57962 -0.99689,-2.78342 -1.21496,-4.81158 v -3.04225 h -0.0935 l -0.42055,0.11699 v -0.11699 c 0,-0.13651 0.14024,-0.20476 0.42055,-0.20477 l -0.0935,-1.75511 v -1.37487 L 302.5,236.72615 V 234.854 c 0.29595,-1.17007 0.80997,-1.75512 1.54206,-1.75515 l 0.28038,0.29253 -0.28038,-0.0877 c 1.13706,1.56015 1.80685,3.62598 2.00934,4.69856 h 0.7944 v 0.20476 h -0.60749 v 0.23401 c 0.23364,0.8971 0.40499,1.34564 0.51402,1.34562 h 0.18693 l 0.42056,-0.117 0.0934,0.117 0.0935,-0.117 0.0935,0.117 v 0.0878 c -0.31152,0.23403 -0.52181,0.55581 -0.63084,0.96532 h -0.07 v 0.20477 h 0.16356 c 0.21807,3.2568 0.62305,4.97319 1.21495,6.65032 l 0.35048,0.29253 h 0.1869 c 0.23364,2e-5 0.72429,0.35948 1.47196,-1.92222 0.48287,-1.03357 0.83333,-1.79039 1.0514,-2.57046 l -0.0935,-0.32178 c 0.48285,-0.76056 0.98129,-1.14082 1.49532,-1.14085 h 0.16356 c 0.32709,3e-5 0.56073,0.21453 0.70093,0.64355 0.43613,0.64356 0.7866,1.45889 1.0514,2.74598 l 1.30842,3.04225 c 0.17133,0.21454 0.25698,0.4583 0.25701,0.73131 0.48285,1.15061 0.91899,1.43442 1.30842,1.80496 h 0.28038 c 0.32709,1e-5 0.76321,-1.69662 1.3084,-4.54388 0.0934,2e-5 0.35045,-0.76054 0.77103,-2.2817 v -0.11699 l -0.44451,-0.20477 -0.35045,0.117 h -0.44393 v -0.23401 l 0.88783,-0.0878 h 0.70154 c 0.66976,-2.51569 1.28502,-4.46586 1.84579,-5.85049 0.1869,-2.84721 0.44391,-4.27081 0.77102,-4.27084 L 324.1736,233"
         id="path5-8" />
    </g>
    <g
       id="g5">
      <circle
         style="opacity:0.2;fill:#000000;stroke-width:4"
         id="path1-0"
         cx="320"
         cy="173"
         r="20" />
      <circle
         style="fill:#f3b616;fill-opacity:1;stroke-width:4"
         id="path2-2"
         cx="320"
         cy="172"
         r="20" />
      <path
         id="path3-3"
         style="opacity:0.2;fill:#ffffff;fill-opacity:1;stroke-width:4"
         d="m 320.00001,152 a 20,20 0 0 0 -20,20 20,20 0 0 0 0.0352,0.504 20,20 0 0 1 19.9648,-19.504 20,20 0 0 1 19.98047,19.254 20,20 0 0 0 0.0195,-0.254 20,20 0 0 0 -20,-20 z" />
      <path
         style="opacity:0.2;stroke-width:2"
         d="m 334.89811,153 c 0.7061,0 1.1007,0.559 1.1838,1.677 l -0.89187,5.266 h 0.21808 l 0.46729,-0.39 h 0.12464 v 0.117 c -0.64386,0.494 -1.26692,1.846 -1.86916,4.056 -0.22848,1.898 -0.61271,3.653 -1.15266,5.265 -0.47769,1.664 -0.71653,3.199 -0.7165,4.603 l -0.90343,2.769 c -2e-5,0.234 0.34264,0.468 1.02803,0.702 -0.12464,0.546 -0.31156,0.819 -0.56074,0.819 v 0.156 h 0.21808 v 0.117 c -3e-5,0.286 -0.35308,0.429 -1.05919,0.429 l 0.1246,0.156 v 0.546 H 330.891 c 0.14536,0.546 0.45688,0.819 0.93458,0.819 v 0.273 H 330.891 v 0.156 c 0.31148,0 0.46727,0.234 0.46729,0.702 l -1.3084,0.546 0.1246,0.156 v 0.117 c -2e-5,0.182 -0.1558,0.273 -0.4673,0.273 v 0.156 c 0.39456,0 0.59188,0.09 0.5919,0.274 -0.56076,0.234 -1.29804,1.391 -2.21183,3.471 -0.93463,1.846 -1.74459,2.769 -2.42993,2.769 h -0.24924 c -0.51922,-0.416 -0.94498,-1.794 -1.27725,-4.134 -1.3292,-3.563 -1.99379,-5.656 -1.99377,-6.28 -2e-5,-1.612 -0.42578,-2.328 -1.27726,-4.149 -0.22848,-0.806 -0.38424,-2.215 -0.46729,-3.437 h -0.56075 c -1.41226,2.678 -2.14954,4.011 -2.21184,5.519 -0.3946,0.884 -0.70613,1.95 -0.93458,3.198 0.8515,0.286 1.27726,0.559 1.27726,0.819 v 0.156 c -0.6646,-0.104 -1.13188,-0.299 -1.40187,-0.585 -0.29076,0.702 -0.67498,1.852 -1.15265,5.051 -0.37384,1.482 -0.84113,2.042 -1.40186,2.042 -1.57841,-0.65 -2.8972,-1.535 -3.95639,-3.018 -0.16616,0 -0.43615,-0.741 -0.80997,-2.223 -0.22844,0 -0.3842,-0.741 -0.46729,-2.223 -0.7892,-2.106 -1.32917,-3.711 -1.61993,-6.415 v -4.057 h -0.1246 l -0.56075,0.156 v -0.156 c 0,-0.182 0.18692,-0.273 0.56075,-0.273 l -0.1246,-2.34 v -1.833 l -0.90344,-6.85 v -2.496 c 0.3946,-1.56 1.07996,-2.34 2.05607,-2.34 l 0.37384,0.39 -0.37384,-0.117 c 1.51609,2.08 2.40914,4.834 2.67913,6.265 h 1.05919 v 0.273 h -0.80997 v 0.312 c 0.31152,1.196 0.53998,1.794 0.68536,1.794 h 0.24924 l 0.56075,-0.156 0.1246,0.156 0.1246,-0.156 0.1246,0.156 v 0.117 c -0.41538,0.312 -0.69575,0.741 -0.84113,1.287 h -0.0934 v 0.273 h 0.21808 c 0.29076,4.342 0.83074,6.631 1.61994,8.867 l 0.46729,0.39 h 0.2492 c 0.31152,0 0.96573,0.479 1.96262,-2.563 0.64382,-1.378 1.1111,-2.387 1.40187,-3.427 l -0.1246,-0.429 c 0.6438,-1.014 1.30839,-1.521 1.99376,-1.521 h 0.21808 c 0.43613,0 0.74765,0.286 0.93458,0.858 0.5815,0.858 1.04879,1.945 1.40187,3.661 l 1.74455,4.056 c 0.22844,0.286 0.34264,0.611 0.34268,0.975 0.64381,1.535 1.22532,1.913 1.74456,2.407 h 0.37384 c 0.43611,0 1.01762,-2.262 1.74454,-6.058 0.1246,0 0.46727,-1.015 1.02803,-3.043 v -0.156 l -0.59268,-0.273 -0.46729,0.156 h -0.5919 v -0.312 l 1.1838,-0.117 h 0.93536 c 0.89302,-3.354 1.71337,-5.954 2.46106,-7.801 0.2492,-3.796 0.59188,-5.694 1.02804,-5.694 L 334.89815,153"
         id="path4-75" />
      <path
         style="fill:#ffffff;stroke-width:2"
         d="m 334.89811,152 c 0.7061,0 1.1007,0.559 1.1838,1.677 l -0.89187,5.266 h 0.21808 l 0.46729,-0.39 h 0.12464 v 0.117 c -0.64386,0.494 -1.26692,1.846 -1.86916,4.056 -0.22848,1.898 -0.61271,3.653 -1.15266,5.265 -0.47769,1.664 -0.71653,3.199 -0.7165,4.603 l -0.90343,2.769 c -2e-5,0.234 0.34264,0.468 1.02803,0.702 -0.12464,0.546 -0.31156,0.819 -0.56074,0.819 v 0.156 h 0.21808 v 0.117 c -3e-5,0.286 -0.35308,0.429 -1.05919,0.429 l 0.1246,0.156 v 0.546 H 330.891 c 0.14536,0.546 0.45688,0.819 0.93458,0.819 v 0.273 H 330.891 v 0.156 c 0.31148,0 0.46727,0.234 0.46729,0.702 l -1.3084,0.546 0.1246,0.156 v 0.117 c -2e-5,0.182 -0.1558,0.273 -0.4673,0.273 v 0.156 c 0.39456,0 0.59188,0.09 0.5919,0.273 -0.56076,0.235 -1.29804,1.392 -2.21183,3.472 -0.93463,1.846 -1.74459,2.769 -2.42993,2.769 h -0.24924 c -0.51922,-0.416 -0.94498,-1.794 -1.27725,-4.134 -1.3292,-3.563 -1.99379,-5.656 -1.99377,-6.28 -2e-5,-1.612 -0.42578,-2.328 -1.27726,-4.149 -0.22848,-0.806 -0.38424,-2.215 -0.46729,-3.437 h -0.56075 c -1.41226,2.678 -2.14954,4.011 -2.21184,5.519 -0.3946,0.884 -0.70613,1.95 -0.93458,3.198 0.8515,0.286 1.27726,0.559 1.27726,0.819 v 0.156 c -0.6646,-0.104 -1.13188,-0.299 -1.40187,-0.585 -0.29076,0.702 -0.67498,1.852 -1.15265,5.051 -0.37384,1.482 -0.84113,2.042 -1.40186,2.042 -1.57841,-0.65 -2.8972,-1.535 -3.95639,-3.018 -0.16616,0 -0.43615,-0.741 -0.80997,-2.223 -0.22844,0 -0.3842,-0.741 -0.46729,-2.223 -0.7892,-2.106 -1.32917,-3.711 -1.61993,-6.415 v -4.057 h -0.1246 l -0.56075,0.156 v -0.156 c 0,-0.182 0.18692,-0.273 0.56075,-0.273 l -0.1246,-2.34 v -1.833 l -0.90344,-6.85 v -2.496 c 0.3946,-1.56 1.07996,-2.34 2.05607,-2.34 l 0.37384,0.39 -0.37384,-0.117 c 1.51609,2.08 2.40914,4.834 2.67913,6.265 h 1.05919 v 0.273 h -0.80997 v 0.312 c 0.31152,1.196 0.53998,1.794 0.68536,1.794 h 0.24924 l 0.56075,-0.156 0.1246,0.156 0.1246,-0.156 0.1246,0.156 v 0.117 c -0.41538,0.312 -0.69575,0.741 -0.84113,1.287 h -0.0934 v 0.273 h 0.21808 c 0.29076,4.342 0.83074,6.631 1.61994,8.867 l 0.46729,0.39 h 0.2492 c 0.31152,0 0.96573,0.479 1.96262,-2.563 0.64382,-1.378 1.1111,-2.387 1.40187,-3.427 l -0.1246,-0.429 c 0.6438,-1.014 1.30839,-1.521 1.99376,-1.521 h 0.21808 c 0.43613,0 0.74765,0.286 0.93458,0.858 0.5815,0.858 1.04879,1.945 1.40187,3.661 l 1.74455,4.056 c 0.22844,0.286 0.34264,0.611 0.34268,0.975 0.64381,1.535 1.22532,1.913 1.74456,2.407 h 0.37384 c 0.43611,0 1.01762,-2.262 1.74454,-6.059 0.1246,0.001 0.46727,-1.014 1.02803,-3.042 v -0.156 l -0.59267,-0.273 -0.46729,0.156 h -0.5919 v -0.312 l 1.1838,-0.117 h 0.93537 c 0.89302,-3.354 1.71336,-5.954 2.46105,-7.8 0.2492,-3.797 0.59188,-5.695 1.02804,-5.695 L 334.89815,152"
         id="path5-9" />
    </g>
    <g
       id="g6"
       transform="translate(15,-2)">
      <circle
         style="opacity:0.2;fill:#000000;stroke-width:6"
         id="path1-2"
         cx="321"
         cy="79"
         r="30" />
      <circle
         style="fill:#f3b616;fill-opacity:1;stroke-width:6"
         id="path2-8"
         cx="321"
         cy="78"
         r="30" />
      <path
         id="path3-9"
         style="opacity:0.2;fill:#ffffff;fill-opacity:1;stroke-width:6"
         d="m 321,48 a 30,30 0 0 0 -30,30 30,30 0 0 0 0.0352,0.503906 A 30,30 0 0 1 321,49 30,30 0 0 1 350.98242,78.265625 30,30 0 0 0 351,78 30,30 0 0 0 321,48 Z" />
      <path
         style="opacity:0.2;stroke-width:3"
         d="m 343.34715,49 c 1.05914,6.3e-5 1.65105,0.838623 1.7757,2.515716 l -1.3378,7.898154 h 0.32712 l 0.70092,-0.585054 h 0.18696 v 0.17553 c -0.96578,0.741114 -1.90036,2.76927 -2.80374,6.084498 -0.34272,2.847282 -0.91905,5.479998 -1.72898,7.898172 -0.71654,2.496234 -1.0748,4.797414 -1.07476,6.903576 l -1.35514,4.153842 c -3e-5,0.35106 0.51396,0.702078 1.54206,1.053078 -0.18696,0.81909 -0.46734,1.228626 -0.84112,1.228614 v 0.234 h 0.32712 v 0.1755 c -5e-5,0.42906 -0.52962,0.643572 -1.58879,0.64356 l 0.1869,0.234 v 0.819066 h -0.32712 c 0.21804,0.81909 0.68532,1.228614 1.40188,1.228614 v 0.4095 h -1.40188 v 0.23406 c 0.46722,1.2e-5 0.70091,0.35106 0.70094,1.053096 l -1.96261,0.81906 0.1869,0.234 v 0.17556 c -3e-5,0.27306 -0.2337,0.40956 -0.70093,0.40956 v 0.234 c 0.59184,1.2e-5 0.88782,0.1365 0.88785,0.40956 -0.84115,0.35106 -1.94707,2.086674 -3.31776,5.206932 C 331.72894,101.61539 330.51398,103 329.48599,103 h -0.37386 c -0.77884,-0.62405 -1.41748,-2.69123 -1.91589,-6.201528 -1.99379,-5.343432 -2.99068,-8.48319 -2.99065,-9.41928 -3e-5,-2.418174 -0.63866,-3.492876 -1.91589,-6.22311 -0.34272,-1.209078 -0.57636,-3.32337 -0.70094,-5.156556 h -0.84111 c -2.11841,4.017354 -3.22432,6.016746 -3.31777,8.278908 -0.5919,1.326126 -1.0592,2.925258 -1.40186,4.797402 1.27724,0.42906 1.91587,0.838578 1.91589,1.228596 v 0.234 c -0.99692,-0.156 -1.69784,-0.4485 -2.10282,-0.877572 -0.43614,1.053096 -1.01247,2.77812 -1.72896,7.575504 -0.56076,2.223192 -1.2617,3.063386 -2.1028,3.063386 -2.36762,-0.975074 -4.34581,-2.302814 -5.93458,-4.526012 -0.24924,2.4e-5 -0.65422,-1.111584 -1.21495,-3.33477 -0.34266,1.2e-5 -0.5763,-1.11159 -0.70094,-3.334782 -1.18381,-3.159216 -1.99377,-5.5668 -2.42991,-9.623142 v -6.084516 h -0.1869 l -0.84111,0.234 v -0.23406 c 0,-0.27294 0.28038,-0.4095 0.84111,-0.4095 l -0.1869,-3.510261 V 66.72697 L 300,56.452303 v -3.744312 c 0.5919,-2.340141 1.61995,-3.510234 3.08411,-3.510294 l 0.56076,0.585054 -0.56076,-0.1755 c 2.27414,3.120303 3.61371,7.25196 4.01869,9.397098 h 1.58879 v 0.409536 h -1.21495 v 0.468042 c 0.46728,1.79418 0.80995,2.691264 1.02804,2.691219 h 0.37386 l 0.84111,-0.23403 0.1869,0.23403 0.1869,-0.23403 0.1869,0.23403 v 0.1755 c -0.62306,0.468078 -1.04361,1.111635 -1.26168,1.930665 h -0.14016 v 0.409524 h 0.32712 c 0.43614,6.513585 1.24609,9.946383 2.4299,13.300647 l 0.70094,0.58506 h 0.3738 c 0.46728,3e-5 1.44859,0.71895 2.94393,-3.844452 0.96573,-2.067132 1.66665,-3.580758 2.1028,-5.14092 l -0.1869,-0.64356 c 0.9657,-1.521096 1.96258,-2.28165 2.99064,-2.281695 h 0.32712 c 0.65419,4.5e-5 1.12147,0.429072 1.40187,1.287117 0.87225,1.287135 1.57319,2.917776 2.1028,5.49195 l 2.61683,6.084504 c 0.34266,0.42906 0.51396,0.916596 0.51402,1.462632 0.96571,2.301198 1.83797,2.868846 2.61683,3.6099 h 0.56076 c 0.65418,1.8e-5 1.52644,-3.393258 2.61681,-9.087756 0.1869,3e-5 0.70091,-1.521096 1.54206,-4.563378 v -0.23406 l -0.88902,-0.40956 -0.70094,0.234 h -0.88785 v -0.46806 l 1.77569,-0.17556 h 1.40306 c 1.33953,-5.031372 2.57005,-8.931699 3.69158,-11.700972 0.3738,-5.69442 0.88782,-8.541651 1.54205,-8.541699 L 343.3472,49"
         id="path4-73" />
      <path
         style="fill:#ffffff;stroke-width:3"
         d="m 343.34715,48 c 1.05914,6.2e-5 1.65105,0.838624 1.7757,2.515717 l -1.3378,7.898153 h 0.32712 l 0.70092,-0.585054 h 0.18696 v 0.17553 c -0.96578,0.741114 -1.90036,2.76927 -2.80374,6.084498 -0.34272,2.847282 -0.91905,5.479992 -1.72898,7.898169 -0.71654,2.496237 -1.0748,4.797417 -1.07476,6.903579 l -1.35514,4.153842 c -3e-5,0.35106 0.51396,0.702078 1.54206,1.053078 -0.18696,0.81909 -0.46734,1.228626 -0.84112,1.228614 v 0.234 h 0.32712 v 0.1755 c -5e-5,0.42906 -0.52962,0.643572 -1.58879,0.64356 l 0.1869,0.234 v 0.81906 h -0.32712 c 0.21804,0.819096 0.68532,1.228614 1.40188,1.228614 v 0.4095 h -1.40188 v 0.234 c 0.46722,1.8e-5 0.70091,0.35106 0.70094,1.053102 l -1.96261,0.81906 0.1869,0.234 v 0.17556 c -3e-5,0.27306 -0.2337,0.40956 -0.70093,0.40956 v 0.234 c 0.59184,1.2e-5 0.88782,0.1365 0.88785,0.40956 -0.84115,0.35106 -1.94707,2.086674 -3.31776,5.206932 C 331.72894,100.61539 330.51398,102 329.48599,102 h -0.37386 c -0.77884,-0.62405 -1.41748,-2.691234 -1.91589,-6.201528 -1.99379,-5.343432 -2.99068,-8.48319 -2.99065,-9.41928 -3e-5,-2.418174 -0.63866,-3.492876 -1.91589,-6.22311 -0.34272,-1.209078 -0.57636,-3.32337 -0.70094,-5.156556 h -0.84111 c -2.11841,4.017354 -3.22432,6.016746 -3.31777,8.278908 -0.5919,1.326126 -1.0592,2.925258 -1.40186,4.797402 1.27724,0.42906 1.91587,0.838578 1.91589,1.228596 v 0.234 c -0.99692,-0.156 -1.69784,-0.4485 -2.10282,-0.877572 -0.43614,1.053096 -1.01247,2.77812 -1.72896,7.575504 -0.56076,2.223192 -1.2617,3.06339 -2.1028,3.06339 -2.36762,-0.975078 -4.34581,-2.302818 -5.93458,-4.526016 -0.24924,2.4e-5 -0.65422,-1.111584 -1.21495,-3.33477 -0.34266,1.2e-5 -0.5763,-1.11159 -0.70094,-3.334782 -1.18381,-3.159246 -1.99377,-5.56683 -2.42991,-9.623172 v -6.084516 h -0.1869 l -0.84111,0.234 v -0.23406 c 0,-0.27294 0.28038,-0.409488 0.84111,-0.409518 l -0.1869,-3.510213 V 65.72697 L 300,55.452303 v -3.744312 c 0.5919,-2.340141 1.61995,-3.510234 3.08411,-3.510295 l 0.56076,0.585054 -0.56076,-0.175512 c 2.27414,3.120304 3.61371,7.251961 4.01869,9.397099 h 1.58879 v 0.409536 h -1.21495 v 0.468042 c 0.46728,1.79418 0.80995,2.691264 1.02804,2.691219 h 0.37386 l 0.84111,-0.23403 0.1869,0.23403 0.1869,-0.23403 0.1869,0.23403 v 0.1755 c -0.62306,0.468078 -1.04361,1.111635 -1.26168,1.930665 h -0.14016 v 0.409524 h 0.32712 c 0.43614,6.513585 1.24609,9.946383 2.4299,13.300647 l 0.70094,0.58506 h 0.3738 c 0.46728,3e-5 1.44859,0.71895 2.94393,-3.844452 0.96573,-2.067132 1.66665,-3.580761 2.1028,-5.14092 l -0.1869,-0.64356 c 0.9657,-1.521096 1.96258,-2.28165 2.99064,-2.281695 h 0.32712 c 0.65419,4.5e-5 1.12147,0.429072 1.40187,1.287117 0.87225,1.287135 1.57319,2.917776 2.1028,5.49195 l 2.61683,6.084504 c 0.34266,0.42906 0.51396,0.916596 0.51402,1.462632 0.96571,2.301198 1.83797,2.868846 2.61683,3.6099 h 0.56076 c 0.65418,1.8e-5 1.52644,-3.393258 2.61681,-9.087756 0.1869,3e-5 0.70091,-1.521096 1.54206,-4.563378 v -0.23403 l -0.889,-0.409539 -0.70094,0.23403 h -0.88785 v -0.468042 l 1.77569,-0.17553 h 1.40305 c 1.33953,-5.031372 2.57006,-8.931702 3.69159,-11.700975 0.3738,-5.694417 0.88782,-8.54165 1.54205,-8.541697 L 343.3472,48"
         id="path5-6" />
    </g>
    <g
       id="g7"
       transform="translate(-2,-10)">
      <circle
         style="opacity:0.2;fill:#000000;stroke-width:16"
         id="path1-29"
         cx="146"
         cy="168"
         r="80" />
      <circle
         style="fill:#f3b616;fill-opacity:1;stroke-width:16"
         id="path2-3"
         cx="146"
         cy="166"
         r="80" />
      <path
         id="path3-1"
         style="opacity:0.2;fill:#ffffff;fill-opacity:1;stroke-width:16"
         d="m 146,86 a 80,80 0 0 0 -80,80 80,80 0 0 0 0.07031,1.00781 A 80,80 0 0 1 146,88 80,80 0 0 1 225.96094,166.47656 80,80 0 0 0 226,166 80,80 0 0 0 146,86 Z" />
      <path
         style="opacity:0.2;stroke-width:8"
         d="m 205.5924,88 c 2.82438,1.68e-4 4.4028,2.236328 4.7352,6.708576 l -3.56748,21.061744 h 0.87232 l 1.86914,-1.56014 h 0.49856 v 0.46808 c -2.57542,1.9763 -5.06764,7.38472 -7.47664,16.22532 -0.91392,7.59276 -2.45081,14.61333 -4.61062,21.0618 -1.91077,6.65662 -2.86613,12.7931 -2.86602,18.40953 l -3.61371,11.07691 c -8e-5,0.93616 1.37056,1.87221 4.11215,2.80821 -0.49856,2.18424 -1.24624,3.27634 -2.24298,3.27631 v 0.624 h 0.87232 v 0.468 c -1.3e-4,1.14416 -1.41232,1.71619 -4.23677,1.71616 l 0.4984,0.624 v 2.18417 h -0.87232 c 0.58144,2.18424 1.82752,3.27631 3.73834,3.27631 v 1.092 h -3.73834 v 0.62416 c 1.24592,3e-5 1.86909,0.93616 1.86917,2.80825 l -5.23362,2.18416 0.4984,0.624 v 0.46816 c -8e-5,0.72816 -0.6232,1.09216 -1.86916,1.09216 v 0.624 c 1.57824,3e-5 2.36752,0.364 2.3676,1.09216 -2.24306,0.93616 -5.19218,5.56447 -8.84735,13.88515 C 174.6105,228.30772 171.37062,232 168.6293,232 h -0.99696 c -2.0769,-1.66414 -3.77994,-7.17662 -5.10903,-16.53741 -5.31678,-14.24915 -7.97515,-22.62184 -7.97507,-25.11808 -8e-5,-6.44846 -1.7031,-9.31433 -5.10904,-16.59496 -0.91392,-3.22421 -1.53696,-8.86232 -1.86917,-13.75081 h -2.24297 c -5.64908,10.71294 -8.59818,16.04465 -8.84738,22.07708 -1.5784,3.53634 -2.82453,7.80069 -3.7383,12.79308 3.40598,1.14416 5.109,2.2362 5.10904,3.27625 v 0.624 c -2.65844,-0.416 -4.52756,-1.196 -5.60751,-2.34019 -1.16304,2.80826 -2.69992,7.40832 -4.61057,20.20134 -1.49536,5.92852 -3.36453,8.16904 -5.60746,8.16904 -6.31365,-2.6002 -11.58882,-6.14084 -15.82555,-12.06937 -0.66464,6e-5 -1.74459,-2.96423 -3.23987,-8.89272 -0.91376,3e-5 -1.5368,-2.96424 -1.86917,-8.89275 -3.156818,-8.42458 -5.316706,-14.8448 -6.479746,-25.66172 v -16.22537 h -0.4984 l -2.242976,0.624 v -0.62416 c 0,-0.72784 0.74768,-1.092 2.242976,-1.092 l -0.4984,-9.3607 v -7.33263 L 90,107.87281 v -9.984834 c 1.5784,-6.240376 4.319856,-9.360624 8.224288,-9.360784 l 1.49536,1.560144 -1.49536,-0.468 c 6.064372,8.320808 9.636562,19.338564 10.716512,25.058924 h 4.23677 v 1.0921 h -3.23987 v 1.24811 c 1.24608,4.78448 2.15988,7.17671 2.74144,7.17659 h 0.99696 l 2.24297,-0.62408 0.4984,0.62408 0.4984,-0.62408 0.4984,0.62408 v 0.468 c -1.6615,1.2482 -2.78297,2.96436 -3.36449,5.14844 h -0.37376 v 1.09206 h 0.87232 c 1.16304,17.36956 3.32292,26.52369 6.47974,35.46839 l 1.86917,1.56016 h 0.9968 c 1.24608,8e-5 3.86291,1.9172 7.85048,-10.25187 2.57528,-5.51235 4.4444,-9.54869 5.60747,-13.70912 l -0.4984,-1.71616 c 2.5752,-4.05626 5.23355,-6.0844 7.97504,-6.08452 h 0.87232 c 1.74451,1.2e-4 2.99059,1.14419 3.73832,3.43231 2.326,3.43236 4.19517,7.78074 5.60747,14.6452 l 6.97821,16.22535 c 0.91376,1.14416 1.37056,2.44425 1.37072,3.90035 2.57523,6.13653 4.90126,7.65025 6.97822,9.6264 h 1.49536 c 1.74447,5e-5 4.0705,-9.04869 6.97816,-24.23402 0.4984,8e-5 1.86909,-4.05625 4.11215,-12.16901 v -0.62416 l -2.37072,-1.09216 -1.86917,0.624 h -2.3676 v -1.24816 l 4.73518,-0.46816 h 3.74148 c 3.57208,-13.41699 6.85347,-23.81786 9.84422,-31.20259 0.9968,-15.185118 2.36752,-22.777734 4.11214,-22.777862 L 205.59254,88"
         id="path4-9" />
      <path
         style="fill:#ffffff;stroke-width:8"
         d="m 205.5924,86 c 2.82438,1.64e-4 4.4028,2.236328 4.7352,6.70858 l -3.56748,21.06174 h 0.87232 l 1.86914,-1.56014 h 0.49856 v 0.46808 c -2.57542,1.9763 -5.06764,7.38472 -7.47664,16.22532 -0.91392,7.59276 -2.45081,14.61332 -4.61062,21.06179 -1.91077,6.65663 -2.86613,12.79311 -2.86602,18.40954 l -3.61371,11.07691 c -8e-5,0.93616 1.37056,1.87221 4.11215,2.80821 -0.49856,2.18424 -1.24624,3.27634 -2.24298,3.27631 v 0.624 h 0.87232 v 0.468 c -1.3e-4,1.14416 -1.41232,1.71619 -4.23677,1.71616 l 0.4984,0.624 v 2.18416 h -0.87232 c 0.58144,2.18425 1.82752,3.2763 3.73834,3.2763 v 1.092 h -3.73834 v 0.624 c 1.24592,5e-5 1.86909,0.93616 1.86917,2.80827 l -5.23362,2.18416 0.4984,0.624 v 0.46816 c -8e-5,0.72816 -0.6232,1.09216 -1.86916,1.09216 v 0.624 c 1.57824,3e-5 2.36752,0.364 2.3676,1.09216 -2.24306,0.93616 -5.19218,5.56447 -8.84735,13.88515 C 174.6105,226.30772 171.37062,230 168.6293,230 h -0.99696 c -2.0769,-1.66414 -3.77994,-7.17662 -5.10903,-16.53741 -5.31678,-14.24915 -7.97515,-22.62184 -7.97507,-25.11808 -8e-5,-6.44846 -1.7031,-9.31433 -5.10904,-16.59496 -0.91392,-3.22421 -1.53696,-8.86232 -1.86917,-13.75081 h -2.24297 c -5.64908,10.71294 -8.59818,16.04465 -8.84738,22.07708 -1.5784,3.53634 -2.82453,7.80069 -3.7383,12.79308 3.40598,1.14416 5.109,2.2362 5.10904,3.27625 v 0.624 c -2.65844,-0.416 -4.52756,-1.196 -5.60751,-2.34019 -1.16304,2.80826 -2.69992,7.40832 -4.61057,20.20134 -1.49536,5.92852 -3.36453,8.16904 -5.60746,8.16904 -6.31365,-2.6002 -11.58882,-6.14084 -15.82555,-12.06937 -0.66464,6e-5 -1.74459,-2.96423 -3.23987,-8.89272 -0.91376,3e-5 -1.5368,-2.96424 -1.86917,-8.89275 -3.156818,-8.42466 -5.316706,-14.84488 -6.479746,-25.6618 v -16.22537 h -0.4984 l -2.242976,0.624 v -0.62416 c 0,-0.72784 0.74768,-1.09197 2.242976,-1.09205 l -0.4984,-9.36057 v -7.33263 L 90,105.87281 v -9.984834 c 1.5784,-6.240376 4.319856,-9.360624 8.224288,-9.360788 l 1.49536,1.560144 -1.49536,-0.468032 c 6.064372,8.320812 9.636562,19.33856 10.716512,25.05893 h 4.23677 v 1.0921 h -3.23987 v 1.24811 c 1.24608,4.78448 2.15988,7.1767 2.74144,7.17658 h 0.99696 l 2.24297,-0.62408 0.4984,0.62408 0.4984,-0.62408 0.4984,0.62408 v 0.468 c -1.6615,1.24821 -2.78297,2.96436 -3.36449,5.14844 h -0.37376 v 1.09207 h 0.87232 c 1.16304,17.36956 3.32292,26.52369 6.47974,35.46839 l 1.86917,1.56016 h 0.9968 c 1.24608,8e-5 3.86291,1.9172 7.85048,-10.25187 2.57528,-5.51235 4.4444,-9.5487 5.60747,-13.70912 l -0.4984,-1.71616 c 2.5752,-4.05626 5.23355,-6.0844 7.97504,-6.08452 h 0.87232 c 1.74451,1.2e-4 2.99059,1.14419 3.73832,3.43231 2.326,3.43236 4.19517,7.78074 5.60747,14.6452 l 6.97821,16.22534 c 0.91376,1.14416 1.37056,2.44426 1.37072,3.90036 2.57523,6.13652 4.90126,7.65025 6.97822,9.6264 h 1.49536 c 1.74447,4e-5 4.0705,-9.04869 6.97816,-24.23402 0.4984,8e-5 1.86909,-4.05626 4.11215,-12.16901 v -0.62408 l -2.37067,-1.0921 -1.86917,0.62408 h -2.3676 v -1.24811 l 4.73518,-0.46808 h 3.74147 c 3.57208,-13.417 6.85348,-23.81788 9.84423,-31.2026 0.9968,-15.185116 2.36752,-22.77774 4.11214,-22.77786 L 205.59254,86"
         id="path5-4" />
    </g>
  </g>
  <g
     id="Highlights">
    <path
       id="rect653"
       style="opacity:0.2;fill:#ffffff"
       d="M 80,44 C 53.408027,44 32,65.408027 32,92 v 2 C 32,67.408027 53.408027,46 80,46 h 128 c 26.59197,0 48,21.408027 48,48 V 92 C 256,65.408027 234.59197,44 208,44 Z"
       sodipodi:nodetypes="sscsscsss" />
    <path
       id="rect773"
       style="opacity:0.2;fill:#ffffff"
       d="m 312,34 c -9.97199,0 -18,8.02801 -18,18 v 1 c 0,-9.97199 8.02801,-18 18,-18 h 48 c 9.97199,0 18,8.02801 18,18 v -1 c 0,-9.97199 -8.02801,-18 -18,-18 z" />
    <path
       id="rect1135"
       style="opacity:0.2;fill:#ffffff;fill-opacity:1"
       d="m 304,144 c -6.64799,0 -12,5.35201 -12,12 v 1 c 0,-6.64799 5.35201,-12 12,-12 h 32 c 6.64799,0 12,5.35201 12,12 v -1 c 0,-6.64799 -5.35201,-12 -12,-12 z" />
    <path
       id="rect1265"
       style="opacity:0.2;fill:#ffffff;fill-opacity:1"
       d="m 300,223 c -4.986,0 -9,4.014 -9,9 v 1 c 0,-4.986 4.014,-9 9,-9 h 24 c 4.986,0 9,4.014 9,9 v -1 c 0,-4.986 -4.014,-9 -9,-9 z" />
    <path
       id="rect1368"
       style="opacity:0.2;fill:#ffffff;fill-opacity:1"
       d="m 424,54 c -3.324,0 -6,2.676003 -6,6 v 1 c 0,-3.323997 2.676,-6 6,-6 h 16 c 3.324,0 6,2.676003 6,6 v -1 c 0,-3.323997 -2.676,-6 -6,-6 z" />
    <path
       id="rect1402"
       style="opacity:0.2;fill:#ffffff;fill-opacity:1"
       d="m 420,140 c -2.216,0 -4,1.784 -4,4 v 1 c 0,-2.216 1.784,-4 4,-4 h 8 c 2.216,0 4,1.784 4,4 v -1 c 0,-2.216 -1.784,-4 -4,-4 z" />
    <path
       id="rect1436"
       style="opacity:0.2;fill:#ffffff;fill-opacity:1"
       d="m 422,102 c -2.216,0 -4,1.784 -4,4 v 1 c 0,-2.216 1.784,-4 4,-4 h 12 c 2.216,0 4,1.784 4,4 v -1 c 0,-2.216 -1.784,-4 -4,-4 z" />
  </g>
</svg>
