<?xml version="1.0" encoding="UTF-8" standalone="no"?>
<!-- Created with Inkscape (http://www.inkscape.org/) -->

<svg
   inkscape:export-ydpi="90.000000"
   inkscape:export-xdpi="90.000000"
   width="480"
   height="300"
   id="svg11300"
   sodipodi:version="0.32"
   inkscape:version="1.2.1 (9c6d41e, 2022-07-14)"
   sodipodi:docname="web-crucible.svg"
   inkscape:output_extension="org.inkscape.output.svg.inkscape"
   version="1.0"
   style="display:inline;enable-background:new"
   inkscape:export-filename="/home/sam/moka-next-template.png"
   xmlns:inkscape="http://www.inkscape.org/namespaces/inkscape"
   xmlns:sodipodi="http://sodipodi.sourceforge.net/DTD/sodipodi-0.dtd"
   xmlns:xlink="http://www.w3.org/1999/xlink"
   xmlns="http://www.w3.org/2000/svg"
   xmlns:svg="http://www.w3.org/2000/svg"
   xmlns:rdf="http://www.w3.org/1999/02/22-rdf-syntax-ns#"
   xmlns:cc="http://creativecommons.org/ns#"
   xmlns:dc="http://purl.org/dc/elements/1.1/">
  <sodipodi:namedview
     stroke="#ef2929"
     fill="#f57900"
     id="base"
     pagecolor="#777777"
     bordercolor="#666666"
     borderopacity="0.25490196"
     inkscape:pageopacity="0"
     inkscape:pageshadow="2"
     inkscape:zoom="1"
     inkscape:cx="226.5"
     inkscape:cy="190.5"
     inkscape:current-layer="layer6"
     showgrid="false"
     inkscape:grid-bbox="true"
     inkscape:document-units="px"
     inkscape:showpageshadow="false"
     inkscape:window-width="1366"
     inkscape:window-height="703"
     inkscape:window-x="0"
     inkscape:window-y="0"
     width="400px"
     height="300px"
     inkscape:snap-nodes="true"
     inkscape:snap-bbox="true"
     gridtolerance="10000"
     inkscape:object-nodes="true"
     inkscape:snap-grids="true"
     showguides="true"
     inkscape:guide-bbox="true"
     inkscape:window-maximized="1"
     inkscape:bbox-nodes="true"
     inkscape:bbox-paths="true"
     inkscape:snap-bbox-edge-midpoints="true"
     inkscape:snap-bbox-midpoints="true"
     inkscape:snap-global="true"
     inkscape:pagecheckerboard="1"
     inkscape:deskcolor="#777777">
    <inkscape:grid
       spacingy="1px"
       spacingx="1px"
       id="grid5883"
       type="xygrid"
       enabled="true"
       visible="true"
       empspacing="4"
       snapvisiblegridlinesonly="true"
       dotted="false"
       color="#000000"
       opacity="0.1254902"
       empcolor="#203ef3"
       empopacity="0.36470588" />
    <inkscape:grid
       type="xygrid"
       id="grid11592"
       empspacing="8"
       visible="true"
       enabled="false"
       spacingx="0.5px"
       spacingy="0.5px"
       color="#ff0000"
       opacity="0.1254902"
       empcolor="#ff0000"
       empopacity="0.25098039"
       snapvisiblegridlinesonly="true"
       dotted="true" />
  </sodipodi:namedview>
  <defs
     id="defs3">
    <linearGradient
       id="linearGradient4448">
      <stop
         id="stop4450"
         offset="0"
         style="stop-color:#eeeeee;stop-opacity:1" />
      <stop
         id="stop4452"
         offset="1"
         style="stop-color:#ffffff;stop-opacity:1" />
    </linearGradient>
    <linearGradient
       inkscape:collect="always"
       xlink:href="#linearGradient4448"
       id="linearGradient4256"
       x1="417"
       y1="148"
       x2="431"
       y2="148"
       gradientUnits="userSpaceOnUse"
       gradientTransform="rotate(-90,424,148)" />
    <linearGradient
       inkscape:collect="always"
       xlink:href="#linearGradient4448"
       id="linearGradient4260"
       x1="418"
       y1="68"
       x2="446"
       y2="68"
       gradientUnits="userSpaceOnUse"
       gradientTransform="matrix(0,-1,1,0,364,500)" />
    <linearGradient
       inkscape:collect="always"
       xlink:href="#linearGradient4448"
       id="linearGradient4262"
       x1="292"
       y1="244"
       x2="332"
       y2="244"
       gradientUnits="userSpaceOnUse"
       gradientTransform="matrix(0,-1,1,0,68,556)" />
    <linearGradient
       inkscape:collect="always"
       xlink:href="#linearGradient4448"
       id="linearGradient4264"
       x1="293"
       y1="76"
       x2="379"
       y2="76"
       gradientUnits="userSpaceOnUse"
       gradientTransform="matrix(0,-1,1,0,260,412)" />
    <linearGradient
       inkscape:collect="always"
       xlink:href="#linearGradient4448"
       id="linearGradient4266"
       x1="291"
       y1="172"
       x2="349"
       y2="172"
       gradientUnits="userSpaceOnUse"
       gradientTransform="rotate(-90,320,172)" />
    <linearGradient
       inkscape:collect="always"
       xlink:href="#linearGradient4448"
       id="linearGradient3870"
       gradientUnits="userSpaceOnUse"
       x1="418"
       y1="112"
       x2="438"
       y2="112"
       gradientTransform="matrix(0,-1,1,0,316,540)" />
    <linearGradient
       inkscape:collect="always"
       xlink:href="#linearGradient4448"
       id="linearGradient5310"
       gradientUnits="userSpaceOnUse"
       x1="35"
       y1="156"
       x2="253"
       y2="156"
       gradientTransform="matrix(0,-1,1,0,-12,300)" />
    <linearGradient
       id="paint0_linear"
       x1="10.8206"
       y1="8.6311903"
       x2="10.8206"
       y2="0.88602"
       gradientUnits="userSpaceOnUse"
       gradientTransform="matrix(6.7398706,0,0,6.7398706,68.72246,91.98297)">
      <stop
         stop-color="#0052CC"
         id="stop295" />
      <stop
         offset="1"
         stop-color="#2684FF"
         id="stop297" />
    </linearGradient>
    <linearGradient
       id="paint0_linear-4"
       x1="10.8206"
       y1="8.6311903"
       x2="10.8206"
       y2="0.88602"
       gradientUnits="userSpaceOnUse"
       gradientTransform="matrix(2.6959483,0,0,2.6959483,276.98192,123.33699)">
      <stop
         stop-color="#0052CC"
         id="stop295-6" />
      <stop
         offset="1"
         stop-color="#2684FF"
         id="stop297-2" />
    </linearGradient>
    <linearGradient
       id="paint0_linear-6"
       x1="10.8206"
       y1="8.6311903"
       x2="10.8206"
       y2="0.88602"
       gradientUnits="userSpaceOnUse"
       gradientTransform="matrix(1.7972988,0,0,1.7972988,300.57009,147.65691)">
      <stop
         stop-color="#0052CC"
         id="stop295-2" />
      <stop
         offset="1"
         stop-color="#2684FF"
         id="stop297-8" />
    </linearGradient>
    <linearGradient
       id="paint0_linear-2"
       x1="10.8206"
       y1="8.6311903"
       x2="10.8206"
       y2="0.88602"
       gradientUnits="userSpaceOnUse"
       gradientTransform="matrix(1.2581092,0,0,1.2581092,298.39909,226.25985)">
      <stop
         stop-color="#0052CC"
         id="stop295-4" />
      <stop
         offset="1"
         stop-color="#2684FF"
         id="stop297-0" />
    </linearGradient>
    <linearGradient
       id="paint0_linear-9"
       x1="10.8206"
       y1="8.6311903"
       x2="10.8206"
       y2="0.88602"
       gradientUnits="userSpaceOnUse"
       gradientTransform="matrix(0.89864942,0,0,0.89864942,416.58429,59.942)">
      <stop
         stop-color="#0052CC"
         id="stop295-9" />
      <stop
         offset="1"
         stop-color="#2684FF"
         id="stop297-08" />
    </linearGradient>
    <linearGradient
       id="paint0_linear-1"
       x1="10.8206"
       y1="8.6311903"
       x2="10.8206"
       y2="0.88602"
       gradientUnits="userSpaceOnUse"
       gradientTransform="matrix(0.71891963,0,0,0.71891963,415.18945,92.837039)">
      <stop
         stop-color="#0052CC"
         id="stop295-1" />
      <stop
         offset="1"
         stop-color="#2684FF"
         id="stop297-03" />
    </linearGradient>
    <linearGradient
       id="paint0_linear-19"
       x1="10.8206"
       y1="8.6311903"
       x2="10.8206"
       y2="0.88602"
       gradientUnits="userSpaceOnUse"
       gradientTransform="matrix(0.53918965,0,0,0.53918965,425.68945,116.47083)">
      <stop
         stop-color="#0052CC"
         id="stop295-69" />
      <stop
         offset="1"
         stop-color="#2684FF"
         id="stop297-3" />
    </linearGradient>
  </defs>
  <metadata
     id="metadata4">
    <rdf:RDF>
      <cc:Work
         rdf:about="">
        <dc:format>image/svg+xml</dc:format>
        <dc:type
           rdf:resource="http://purl.org/dc/dcmitype/StillImage" />
        <dc:creator>
          <cc:Agent>
            <dc:title>Sam Hewitt</dc:title>
          </cc:Agent>
        </dc:creator>
        <dc:source />
        <cc:license
           rdf:resource="" />
        <dc:subject>
          <rdf:Bag />
        </dc:subject>
        <dc:date />
        <dc:rights>
          <cc:Agent>
            <dc:title />
          </cc:Agent>
        </dc:rights>
        <dc:publisher>
          <cc:Agent>
            <dc:title />
          </cc:Agent>
        </dc:publisher>
        <dc:identifier />
        <dc:relation />
        <dc:language />
        <dc:coverage />
        <dc:description />
        <dc:contributor>
          <cc:Agent>
            <dc:title />
          </cc:Agent>
        </dc:contributor>
      </cc:Work>
      <cc:Work
         rdf:about="">
        <dc:format>image/svg+xml</dc:format>
        <dc:type
           rdf:resource="http://purl.org/dc/dcmitype/StillImage" />
      </cc:Work>
    </rdf:RDF>
  </metadata>
  <g
     style="display:inline"
     inkscape:groupmode="layer"
     inkscape:label="Icon"
     id="layer1">
    <g
       style="display:none"
       inkscape:label="Baseplate"
       id="layer7"
       inkscape:groupmode="layer">
      <text
         y="19.745117"
         xml:space="preserve"
         x="15.006836"
         style="font-style:normal;font-variant:normal;font-weight:normal;font-stretch:normal;font-size:18px;font-family:'DejaVu Sans';-inkscape-font-specification:'DejaVu Sans';display:inline;fill:#000000;fill-opacity:1;stroke:none;enable-background:new"
         inkscape:label="context"
         id="context"><tspan
           style="font-style:normal;font-variant:normal;font-weight:normal;font-stretch:normal;font-family:'DejaVu Sans';-inkscape-font-specification:'DejaVu Sans'"
           y="19.745117"
           x="15.006836"
           sodipodi:role="line"
           id="tspan3933">apps</tspan></text>
      <text
         y="19.745117"
         xml:space="preserve"
         x="122.48828"
         style="font-style:normal;font-variant:normal;font-weight:bold;font-stretch:normal;font-size:18px;line-height:125%;font-family:'DejaVu Sans';-inkscape-font-specification:'DejaVu Sans Bold';text-align:start;writing-mode:lr-tb;text-anchor:start;display:inline;fill:#000000;fill-opacity:1;stroke:none;enable-background:new"
         inkscape:label="icon-name"
         id="icon-name"><tspan
           style="font-style:normal;font-variant:normal;font-weight:bold;font-stretch:normal;font-size:18px;font-family:'DejaVu Sans';-inkscape-font-specification:'DejaVu Sans Bold';opacity:0.98999999"
           y="19.745117"
           x="122.48828"
           sodipodi:role="line"
           id="tspan3937">web-crucible</tspan></text>
      <rect
         style="display:inline;overflow:visible;visibility:visible;fill:#eeeeec;fill-opacity:1;fill-rule:nonzero;stroke:none;stroke-width:2;marker:none;enable-background:accumulate"
         id="rect16x16"
         width="16"
         height="16"
         x="416"
         y="140"
         inkscape:label="16x16" />
      <rect
         style="display:inline;overflow:visible;visibility:visible;fill:#d4d4d4;fill-opacity:1;fill-rule:nonzero;stroke:none;stroke-width:2;marker:none;enable-background:accumulate"
         id="rect24x24"
         width="24"
         height="24"
         x="416"
         y="100"
         inkscape:label="24x24" />
      <rect
         style="display:inline;overflow:visible;visibility:visible;fill:#eeeeec;fill-opacity:1;fill-rule:nonzero;stroke:none;stroke-width:2;marker:none;enable-background:accumulate"
         id="rect32x32"
         width="32"
         height="32"
         x="416"
         y="52"
         inkscape:label="32x32" />
      <rect
         inkscape:label="22x22"
         y="101"
         x="417"
         height="22"
         width="22"
         id="rect22x22"
         style="display:inline;overflow:visible;visibility:visible;fill:#eeeeec;fill-opacity:1;fill-rule:nonzero;stroke:none;stroke-width:2;marker:none;enable-background:accumulate" />
      <rect
         inkscape:label="48x48"
         y="220"
         x="288"
         height="48"
         width="48"
         id="rect48x48"
         style="display:inline;overflow:visible;visibility:visible;fill:#eeeeec;fill-opacity:1;fill-rule:nonzero;stroke:none;stroke-width:2;marker:none;enable-background:accumulate" />
      <rect
         style="display:inline;overflow:visible;visibility:visible;fill:#eeeeec;fill-opacity:1;fill-rule:nonzero;stroke:none;stroke-width:2;marker:none;enable-background:accumulate"
         id="rect256x256"
         width="256"
         height="256"
         x="16"
         y="28"
         inkscape:label="256x256" />
      <rect
         style="display:inline;overflow:visible;visibility:visible;fill:#eeeeec;fill-opacity:1;fill-rule:nonzero;stroke:none;stroke-width:2;marker:none;enable-background:accumulate"
         id="rect64x64"
         width="64"
         height="64"
         x="288"
         y="140"
         inkscape:label="64x64" />
      <rect
         style="display:inline;overflow:visible;visibility:visible;fill:#eeeeec;fill-opacity:1;fill-rule:nonzero;stroke:none;stroke-width:2;marker:none;enable-background:accumulate"
         id="rect96x96"
         width="96"
         height="96"
         x="288"
         y="28"
         inkscape:label="96x96" />
    </g>
    <g
       inkscape:groupmode="layer"
       id="layer4"
       inkscape:label="Shadow"
       style="display:inline"
       sodipodi:insensitive="true">
      <rect
         ry="50"
         y="47"
         x="34"
         height="220"
         width="220"
         id="rect4114"
         style="opacity:0.1;color:#bebebe;fill:#000000;fill-opacity:1;fill-rule:nonzero;stroke:none;stroke-width:0;marker:none;visibility:visible;display:inline;overflow:visible;enable-background:accumulate" />
      <rect
         style="opacity:0.1;color:#bebebe;fill:#000000;fill-opacity:1;fill-rule:nonzero;stroke:none;stroke-width:0;marker:none;visibility:visible;display:inline;overflow:visible;enable-background:accumulate"
         id="rect4120"
         width="30"
         height="30"
         x="417"
         y="54"
         ry="7" />
      <rect
         transform="scale(1,-1)"
         ry="9"
         y="-266"
         x="291"
         height="42"
         width="42"
         id="rect4122"
         style="opacity:0.1;color:#bebebe;fill:#000000;fill-opacity:1;fill-rule:nonzero;stroke:none;stroke-width:0;marker:none;visibility:visible;display:inline;overflow:visible;enable-background:accumulate" />
      <rect
         style="opacity:0.1;color:#bebebe;fill:#000000;fill-opacity:1;fill-rule:nonzero;stroke:none;stroke-width:0;marker:none;visibility:visible;display:inline;overflow:visible;enable-background:accumulate"
         id="rect4124"
         width="88"
         height="88"
         x="292"
         y="33"
         ry="18" />
      <rect
         ry="12.5"
         y="143"
         x="290"
         height="60"
         width="60"
         id="rect4126"
         style="opacity:0.1;color:#bebebe;fill:#000000;fill-opacity:1;fill-rule:nonzero;stroke:none;stroke-width:0;marker:none;visibility:visible;display:inline;overflow:visible;enable-background:accumulate" />
      <path
         id="path4268"
         d="m 422,101 c -2.77,0 -5,2.23 -5,5 l 0,12 c 0,2.77 2.23,5 5,5 l 12,0 c 2.77,0 5,-2.23 5,-5 l 0,-12 c 0,-2.77 -2.23,-5 -5,-5 z"
         style="opacity:0.1;color:#bebebe;fill:#000000;fill-opacity:1;fill-rule:nonzero;stroke:none;stroke-width:0;marker:none;visibility:visible;display:inline;overflow:visible;enable-background:accumulate"
         inkscape:connector-curvature="0"
         sodipodi:nodetypes="sssssssss" />
      <path
         id="path4270"
         d="m 419,140 c -1.662,0 -3,1.338 -3,3 l 0,10 c 0,1.662 1.338,3 3,3 l 10,0 c 1.662,0 3,-1.338 3,-3 l 0,-10 c 0,-1.662 -1.338,-3 -3,-3 z"
         style="opacity:0.1;color:#bebebe;fill:#000000;fill-opacity:1;fill-rule:nonzero;stroke:none;stroke-width:0;marker:none;visibility:visible;display:inline;overflow:visible;enable-background:accumulate"
         inkscape:connector-curvature="0"
         sodipodi:nodetypes="sssssssss" />
    </g>
    <g
       inkscape:groupmode="layer"
       id="layer2"
       inkscape:label="Background"
       style="display:inline">
      <path
         style="color:#bebebe;fill:url(#linearGradient5310);fill-opacity:1.0;fill-rule:nonzero;stroke:none;stroke-width:2;marker:none;visibility:visible;display:inline;overflow:visible;enable-background:accumulate"
         d="M 84,46.5 C 56.56874,46.5 34.5,68.56873 34.5,96 l 0,120 c 0,27.43127 22.06874,49.5 49.5,49.5 l 120,0 c 27.43127,0 49.5,-22.06873 49.5,-49.5 l 0,-120 C 253.5,68.56873 231.43127,46.5 204,46.5 l -120,0 z"
         id="path4200"
         inkscape:connector-curvature="0" />
      <path
         style="color:#bebebe;display:inline;overflow:visible;visibility:visible;fill:url(#linearGradient4256);fill-opacity:1;fill-rule:nonzero;stroke:none;stroke-width:2;marker:none;enable-background:accumulate"
         d="m 419,140.5 c -1.3844,0 -2.5,1.1156 -2.5,2.5 v 10 c 0,1.3844 1.1156,2.5 2.5,2.5 h 10 c 1.3844,0 2.5,-1.1156 2.5,-2.5 v -10 c 0,-1.3844 -1.1156,-2.5 -2.5,-2.5 z"
         id="path4202"
         inkscape:connector-curvature="0" />
      <path
         style="color:#bebebe;fill:url(#linearGradient3870);fill-opacity:1.0;fill-rule:nonzero;stroke:none;stroke-width:2;marker:none;visibility:visible;display:inline;overflow:visible;enable-background:accumulate"
         d="m 422,101.5 c -2.49699,0 -4.5,2.00301 -4.5,4.5 l 0,12 c 0,2.49699 2.00301,4.5 4.5,4.5 l 12,0 c 2.49699,0 4.5,-2.00301 4.5,-4.5 l 0,-12 c 0,-2.49699 -2.00301,-4.5 -4.5,-4.5 l -12,0 z"
         id="path4204"
         inkscape:connector-curvature="0" />
      <path
         style="color:#bebebe;fill:url(#linearGradient4260);fill-opacity:1.0;fill-rule:nonzero;stroke:none;stroke-width:2;marker:none;visibility:visible;display:inline;overflow:visible;enable-background:accumulate"
         d="m 424,53.5 c -3.60654,0 -6.5,2.89346 -6.5,6.5 l 0,16 c 0,3.60654 2.89346,6.5 6.5,6.5 l 16,0 c 3.60654,0 6.5,-2.89346 6.5,-6.5 l 0,-16 c 0,-3.60654 -2.89346,-6.5 -6.5,-6.5 l -16,0 z"
         id="path4206"
         inkscape:connector-curvature="0" />
      <path
         style="color:#bebebe;fill:url(#linearGradient4262);fill-opacity:1.0;fill-rule:nonzero;stroke:none;stroke-width:2;marker:none;visibility:visible;display:inline;overflow:visible;enable-background:accumulate"
         d="m 300,223.5 c -4.71531,0 -8.5,3.78469 -8.5,8.5 l 0,24 c 0,4.71531 3.78469,8.5 8.5,8.5 l 24,0 c 4.71531,0 8.5,-3.78469 8.5,-8.5 l 0,-24 c 0,-4.71531 -3.78469,-8.5 -8.5,-8.5 l -24,0 z"
         id="path4208"
         inkscape:connector-curvature="0" />
      <path
         style="color:#bebebe;fill:url(#linearGradient4264);fill-opacity:1.0;fill-rule:nonzero;stroke:none;stroke-width:2;marker:none;visibility:visible;display:inline;overflow:visible;enable-background:accumulate"
         d="m 310,32.5 c -9.70255,0 -17.5,7.79745 -17.5,17.5 l 0,52 c 0,9.70255 7.79745,17.5 17.5,17.5 l 52,0 c 9.70255,0 17.5,-7.79745 17.5,-17.5 l 0,-52 c 0,-9.70255 -7.79745,-17.5 -17.5,-17.5 l -52,0 z"
         id="path4210"
         inkscape:connector-curvature="0" />
      <path
         style="color:#bebebe;display:inline;overflow:visible;visibility:visible;fill:url(#linearGradient4266);fill-opacity:1;fill-rule:nonzero;stroke:none;stroke-width:2;marker:none;enable-background:accumulate"
         d="m 302.5,142.5 c -6.65502,0 -12,5.34498 -12,12 v 35 c 0,6.65502 5.34498,12 12,12 h 35 c 6.65502,0 12,-5.34498 12,-12 v -35 c 0,-6.65502 -5.34498,-12 -12,-12 z"
         id="path4212"
         inkscape:connector-curvature="0" />
    </g>
    <g
       inkscape:groupmode="layer"
       id="layer6"
       inkscape:label="Symbols"
       style="display:inline">
      <g
         id="g6134"
         style="display:inline;enable-background:new"
         transform="translate(-7.51843,25.12781)">
        <path
           id="path291-3"
           d="m 425.68945,119.31829 c 0,0.0573 -1.6e-4,0.13326 0.019,0.2097 l 1.03204,5.38874 c 0.43955,2.29301 2.44641,3.95546 4.77794,3.95546 2.3315,0 4.33839,-1.66245 4.77794,-3.95546 l 1.03204,-5.3887 c 0.0191,-0.0764 0.019,-0.13331 0.019,-0.20974 -2.02087,-0.1305 -1.94977,-0.077 -1.94977,1.83375 -0.15291,0.0573 -0.28668,0.11537 -0.45869,0.15359 -1.87282,0.57323 -1.73875,4.49044 -3.42048,4.49044 -1.68177,0 -1.54763,-3.89807 -3.42048,-4.49044 -0.15289,-0.0573 -0.3064,-0.0954 -0.45929,-0.1527 0.15956,-2.02174 -0.0659,-1.83464 -1.94917,-1.83464 z"
           style="fill:#2684ff;fill-opacity:1;stroke-width:0.53919"
           sodipodi:nodetypes="cccscccccsccc" />
        <path
           d="m 427.63875,121.15204 c 1.03198,-0.38213 2.38884,-0.63048 3.8795,-0.63048 1.49065,0 2.84746,0.22924 3.87947,0.63048 1.18487,-0.43945 1.94928,-1.10815 1.94928,-1.8342 0,-1.35657 -2.59906,-2.44565 -5.82875,-2.44565 -3.22974,0 -5.8288,1.08908 -5.8288,2.44565 0.0191,0.72605 0.76443,1.39475 1.9493,1.8342 z"
           fill="url(#paint0_linear)"
           id="path293-80"
           style="fill:url(#paint0_linear-19);stroke-width:0.53919" />
      </g>
      <g
         id="g6095"
         style="display:inline;enable-background:new"
         transform="translate(5.038615,10.627809)">
        <path
           id="path291-40"
           d="m 415.18945,96.633655 c 0,0.07643 -2.1e-4,0.177689 0.0253,0.279603 l 1.37605,7.184982 c 0.58606,3.05735 3.26188,5.27395 6.37059,5.27395 3.10867,0 5.78452,-2.2166 6.37058,-5.27395 l 1.37605,-7.184926 c 0.0254,-0.101914 0.0253,-0.177745 0.0253,-0.279659 -2.69449,-0.173999 -2.59968,-0.102646 -2.59968,2.445004 -0.20389,0.07644 -0.38225,0.153827 -0.61159,0.204784 -2.49709,0.764317 -2.31834,5.987257 -4.56065,5.987257 -2.24235,0 -2.0635,-5.19742 -4.56064,-5.987257 -0.20385,-0.07643 -0.40854,-0.127163 -0.61238,-0.203598 0.21274,-2.695654 -0.0879,-2.44619 -2.59889,-2.44619 z"
           style="fill:#2684ff;fill-opacity:1;stroke-width:0.71892"
           sodipodi:nodetypes="cccscccccsccc" />
        <path
           d="m 417.78852,99.078659 c 1.37597,-0.509506 3.18512,-0.84064 5.17267,-0.84064 1.98752,0 3.79661,0.305656 5.17262,0.84064 1.57983,-0.585934 2.59904,-1.47754 2.59904,-2.445601 0,-1.808759 -3.46541,-3.260865 -7.77166,-3.260865 -4.30632,0 -7.77174,1.452106 -7.77174,3.260865 0.0254,0.968061 1.01924,1.859667 2.59907,2.445601 z"
           fill="url(#paint0_linear)"
           id="path293-39"
           style="fill:url(#paint0_linear-1);stroke-width:0.71892" />
      </g>
      <g
         id="g6062"
         style="display:inline;enable-background:new"
         transform="translate(5.70081,-2.61094)">
        <path
           id="path291-1"
           d="m 416.58429,64.68777 c 0,0.0956 -2.6e-4,0.22211 0.0316,0.3495 l 1.72007,8.98123 c 0.73258,3.82169 4.07734,6.59244 7.96323,6.59244 3.88584,0 7.23065,-2.77075 7.96322,-6.59244 l 1.72008,-8.98115 c 0.0318,-0.1274 0.0316,-0.22219 0.0316,-0.34958 -3.36812,-0.2175 -3.24961,-0.12831 -3.24961,3.05625 C 432.50963,67.83962 432.28667,67.93631 432,68 c -3.12137,0.95539 -2.89792,7.48407 -5.7008,7.48407 -2.80295,0 -2.57939,-6.49677 -5.70081,-7.48407 -0.25481,-0.0955 -0.51067,-0.15895 -0.76547,-0.25449 0.26593,-3.36957 -0.10987,-3.05774 -3.24862,-3.05774 z"
           style="fill:#2684ff;fill-opacity:1;stroke-width:0.898649"
           sodipodi:nodetypes="cccscccccsccc" />
        <path
           d="m 419.83312,67.74402 c 1.71996,-0.63688 3.98141,-1.0508 6.46584,-1.0508 2.48441,0 4.74577,0.38207 6.46578,1.0508 1.97478,-0.73241 3.2488,-1.84692 3.2488,-3.05699 0,-2.26095 -4.33176,-4.07609 -9.71458,-4.07609 -5.3829,0 -9.71467,1.81514 -9.71467,4.07609 0.0318,1.21007 1.27405,2.32458 3.24883,3.05699 z"
           fill="url(#paint0_linear)"
           id="path293-3"
           style="fill:url(#paint0_linear-9);stroke-width:0.898649" />
      </g>
      <g
         id="g6029"
         style="display:inline;enable-background:new"
         transform="translate(-4.962625e-6,2.80364)">
        <path
           id="path291-6"
           d="m 298.39909,232.90392 c 0,0.13377 -3.6e-4,0.31096 0.0443,0.48931 l 2.40809,12.57372 c 1.02561,5.35036 5.70828,9.22941 11.14852,9.22941 5.44018,0 10.12291,-3.87905 11.14851,-9.22941 l 2.40811,-12.57362 c 0.0445,-0.17835 0.0443,-0.31106 0.0443,-0.48941 -4.71536,-0.3045 -4.54945,-0.17963 -4.54945,4.27876 -0.3568,0.13376 -0.66894,0.26919 -1.07028,0.35837 -4.36991,1.33755 -4.05708,10.4777 -7.98113,10.4777 -3.92412,0 -3.61114,-9.09549 -7.98113,-10.4777 -0.35673,-0.13375 -0.71493,-0.22253 -1.07165,-0.3563 0.3723,-4.71739 -0.15382,-4.28083 -4.54807,-4.28083 z"
           style="fill:#2684ff;fill-opacity:1;stroke-width:1.25811"
           sodipodi:nodetypes="cccscccccsccc" />
        <path
           d="m 302.94746,237.18268 c 2.40794,-0.89164 5.57396,-1.47112 9.05217,-1.47112 3.47817,0 6.64407,0.5349 9.05209,1.47112 2.7647,-1.02539 4.54832,-2.58569 4.54832,-4.2798 0,-3.16533 -6.06446,-5.70652 -13.60041,-5.70652 -7.53606,0 -13.60054,2.54119 -13.60054,5.70652 0.0445,1.69411 1.78367,3.25441 4.54837,4.2798 z"
           fill="url(#paint0_linear)"
           id="path293-2"
           style="fill:url(#paint0_linear-2);stroke-width:1.25811" />
      </g>
      <g
         id="g5996"
         transform="translate(5.3745964e-8,3.0052)"
         style="display:inline;enable-background:new">
        <path
           id="path291-4"
           d="m 300.5701,157.14846 c 0,0.19109 -5.2e-4,0.44422 0.0633,0.69901 l 3.44014,17.96245 c 1.46516,7.64338 8.15469,13.18488 15.92646,13.18488 7.77168,0 14.4613,-5.5415 15.92646,-13.18488 l 3.44014,-17.96231 c 0.0636,-0.25478 0.0633,-0.44436 0.0633,-0.69915 -6.73622,-0.435 -6.49921,-0.25662 -6.49921,6.11251 -0.50971,0.19109 -0.95562,0.38457 -1.52896,0.51196 -6.24274,1.91078 -5.79584,14.96814 -11.40162,14.96814 -5.60588,0 -5.15877,-12.99356 -11.40161,-14.96814 -0.50963,-0.19107 -1.02133,-0.31791 -1.53094,-0.509 0.53186,-6.73913 -0.21974,-6.11547 -6.49724,-6.11547 z"
           style="fill:#2684ff;fill-opacity:1;stroke-width:1.7973"
           sodipodi:nodetypes="cccscccccsccc" />
        <path
           d="m 307.06777,163.26097 c 3.43992,-1.27377 7.9628,-2.1016 12.93167,-2.1016 4.96881,0 9.49153,0.76414 12.93156,2.1016 3.94957,-1.46484 6.4976,-3.69385 6.4976,-6.114 0,-4.5219 -8.66352,-8.15217 -19.42916,-8.15217 -10.7658,0 -19.42934,3.63027 -19.42934,8.15217 0.0636,2.42015 2.5481,4.64916 6.49767,6.114 z"
           fill="url(#paint0_linear)"
           id="path293-7"
           style="fill:url(#paint0_linear-6);stroke-width:1.7973" />
      </g>
      <g
         id="g5951"
         style="display:inline;enable-background:new"
         transform="translate(29.873295,-79.3438)">
        <path
           id="path291-5"
           d="m 276.98191,137.57429 c 0,0.28664 -7.8e-4,0.66633 0.0949,1.04851 l 5.1602,26.94369 c 2.19774,11.46505 12.23203,19.77731 23.88969,19.77731 11.65752,0 21.69195,-8.31226 23.88969,-19.77731 l 5.16021,-26.94347 c 0.0954,-0.38218 0.0949,-0.66655 0.0949,-1.04873 -10.10433,-0.6525 -9.74882,-0.38492 -9.74882,9.16876 -0.76457,0.28663 -1.43343,0.57685 -2.29344,0.76794 -9.36411,2.86617 -8.69376,22.45221 -17.10242,22.45221 -8.40883,0 -7.73815,-19.49033 -17.10242,-22.45221 -0.76444,-0.2866 -1.532,-0.47686 -2.29641,-0.76349 0.79778,-10.1087 -0.32961,-9.17321 -9.74585,-9.17321 z"
           style="fill:#2684ff;fill-opacity:1;stroke-width:2.69595"
           sodipodi:nodetypes="cccscccccsccc" />
        <path
           d="m 286.72841,146.74305 c 5.15988,-1.91064 11.94421,-3.1524 19.39751,-3.1524 7.45322,0 14.2373,1.14621 19.39735,3.1524 5.92434,-2.19725 9.74639,-5.54077 9.74639,-9.17099 0,-6.78285 -12.99528,-12.22826 -29.14374,-12.22826 -16.1487,0 -29.14401,5.44541 -29.14401,12.22826 0.0954,3.63022 3.82215,6.97374 9.7465,9.17099 z"
           fill="url(#paint0_linear)"
           id="path293-8"
           style="fill:url(#paint0_linear-4);stroke-width:2.69595" />
      </g>
      <g
         id="g5918"
         transform="translate(2.4155902,-16)"
         style="display:inline;enable-background:new">
        <path
           id="path291"
           d="m 68.72243,127.57623 c 0,0.71659 -0.002,1.66583 0.23724,2.62127 l 12.90052,67.35921 C 87.35453,226.21936 112.44026,247 141.58441,247 c 29.14381,0 54.22987,-20.78064 59.72415,-49.44329 l 12.90058,-67.35867 c 0.23859,-0.95544 0.23725,-1.66636 0.23725,-2.62181 -25.2609,-1.63125 -24.37205,-0.96232 -24.37205,22.9219 -1.91143,0.71658 -3.58359,1.44213 -5.73361,1.91985 -23.41026,7.16543 -21.7344,56.13052 -42.75605,56.13052 -21.02206,0 -19.34539,-48.72583 -42.75606,-56.13052 -1.91109,-0.71652 -3.83,-1.19215 -5.74102,-1.90873 1.99446,-25.27175 -0.82401,-22.93302 -24.36463,-22.93302 z"
           style="fill:#2684ff;fill-opacity:1;stroke-width:6.73987"
           sodipodi:nodetypes="cccscccccsccc" />
        <path
           d="m 93.08868,150.49813 c 12.89971,-4.77662 29.86053,-7.881 48.49377,-7.881 18.63305,0 35.59326,2.86552 48.49337,7.881 C 204.88669,145.005 214.4418,136.64621 214.4418,127.57064 214.4418,110.61353 181.95361,97 141.58245,97 c -40.37175,0 -72.86002,13.61353 -72.86002,30.57064 0.23859,9.07557 9.55538,17.43436 24.36625,22.92749 z"
           fill="url(#paint0_linear)"
           id="path293"
           style="fill:url(#paint0_linear);stroke-width:6.73987" />
      </g>
    </g>
    <g
       inkscape:groupmode="layer"
       id="layer5"
       inkscape:label="Highlights"
       style="display:inline"
       sodipodi:insensitive="true">
      <path
         style="opacity:0.12999998;color:#bebebe;fill:#ffffff;fill-opacity:1;fill-rule:nonzero;stroke:none;stroke-width:0;marker:none;visibility:visible;display:inline;overflow:visible;enable-background:accumulate"
         d="M 84,47 C 56.836703,47 35,68.836703 35,96 l 0,1 C 35,69.836703 56.836703,48 84,48 l 120,0 c 27.1633,0 49,21.836703 49,49 l 0,-1 C 253,68.836703 231.1633,47 204,47 L 84,47 z"
         id="rect3894"
         inkscape:connector-curvature="0" />
      <path
         style="opacity:0.12999998;color:#bebebe;fill:#ffffff;fill-opacity:1;fill-rule:nonzero;stroke:none;stroke-width:0;marker:none;visibility:visible;display:inline;overflow:visible;enable-background:accumulate"
         d="m 419,141 c -1.1253,0 -2,0.8747 -2,2 l 0,1 c 0,-1.1253 0.8747,-2 2,-2 l 10,0 c 1.1253,0 2,0.8747 2,2 l 0,-1 c 0,-1.1253 -0.8747,-2 -2,-2 l -10,0 z"
         id="rect3896"
         inkscape:connector-curvature="0" />
      <path
         style="opacity:0.12999998;color:#bebebe;fill:#ffffff;fill-opacity:1;fill-rule:nonzero;stroke:none;stroke-width:0;marker:none;visibility:visible;display:inline;overflow:visible;enable-background:accumulate"
         d="m 422,102 c -2.2333,0 -4,1.7667 -4,4 l 0,1 c 0,-2.2333 1.7667,-4 4,-4 l 12,0 c 2.2333,0 4,1.7667 4,4 l 0,-1 c 0,-2.2333 -1.7667,-4 -4,-4 l -12,0 z"
         id="rect3898"
         inkscape:connector-curvature="0" />
      <path
         style="opacity:0.12999998;color:#bebebe;fill:#ffffff;fill-opacity:1;fill-rule:nonzero;stroke:none;stroke-width:0;marker:none;visibility:visible;display:inline;overflow:visible;enable-background:accumulate"
         d="m 424,54 c -3.3413,0 -6,2.658703 -6,6 l 0,1 c 0,-3.341297 2.6587,-6 6,-6 l 16,0 c 3.3413,0 6,2.658703 6,6 l 0,-1 c 0,-3.341297 -2.6587,-6 -6,-6 l -16,0 z"
         id="rect3900"
         inkscape:connector-curvature="0" />
      <path
         style="opacity:0.12999998;color:#bebebe;fill:#ffffff;fill-opacity:1;fill-rule:nonzero;stroke:none;stroke-width:0;marker:none;visibility:visible;display:inline;overflow:visible;enable-background:accumulate"
         d="m 300,224 c -4.4493,0 -8,3.5507 -8,8 l 0,1 c 0,-4.4493 3.5507,-8 8,-8 l 24,0 c 4.4493,0 8,3.5507 8,8 l 0,-1 c 0,-4.4493 -3.5507,-8 -8,-8 l -24,0 z"
         id="rect3902"
         inkscape:connector-curvature="0" />
      <path
         style="opacity:0.12999998;color:#bebebe;fill:#ffffff;fill-opacity:1;fill-rule:nonzero;stroke:none;stroke-width:0;marker:none;visibility:visible;display:inline;overflow:visible;enable-background:accumulate"
         d="m 310,33 c -9.4353,0 -17,7.564703 -17,17 l 0,1 c 0,-9.435297 7.5647,-17 17,-17 l 52,0 c 9.4353,0 17,7.564703 17,17 l 0,-1 c 0,-9.435297 -7.5647,-17 -17,-17 l -52,0 z"
         id="rect3904"
         inkscape:connector-curvature="0" />
      <path
         style="opacity:0.12999998;color:#bebebe;fill:#ffffff;fill-opacity:1;fill-rule:nonzero;stroke:none;stroke-width:0;marker:none;visibility:visible;display:inline;overflow:visible;enable-background:accumulate"
         d="m 302.5,143 c -6.3883,0 -11.5,5.1117 -11.5,11.5 l 0,1 c 0,-6.3883 5.1117,-11.5 11.5,-11.5 l 35,0 c 6.3883,0 11.5,5.1117 11.5,11.5 l 0,-1 c 0,-6.3883 -5.1117,-11.5 -11.5,-11.5 l -35,0 z"
         id="rect3906"
         inkscape:connector-curvature="0" />
      <path
         id="path4085"
         d="m 204,266 c 27.1633,0 49,-21.8367 49,-49 l 0,-1 c 0,27.1633 -21.8367,49 -49,49 L 84,265 C 56.8367,265 35,243.1633 35,216 l 0,1 c 0,27.1633 21.8367,49 49,49 l 120,0 z"
         style="opacity:0.5;color:#bebebe;fill:#000000;fill-opacity:1;fill-rule:nonzero;stroke:none;stroke-width:0;marker:none;visibility:visible;display:inline;overflow:visible;enable-background:accumulate"
         inkscape:connector-curvature="0" />
      <path
         id="path4087"
         d="m 429,156 c 1.1253,0 2,-0.8747 2,-2 l 0,-1 c 0,1.1253 -0.8747,2 -2,2 l -10,0 c -1.1253,0 -2,-0.8747 -2,-2 l 0,1 c 0,1.1253 0.8747,2 2,2 l 10,0 z"
         style="opacity:0.3;color:#bebebe;fill:#000000;fill-opacity:1;fill-rule:nonzero;stroke:none;stroke-width:0;marker:none;visibility:visible;display:inline;overflow:visible;enable-background:accumulate"
         inkscape:connector-curvature="0" />
      <path
         id="path4089"
         d="m 434,123 c 2.2333,0 4,-1.7667 4,-4 l 0,-1 c 0,2.2333 -1.7667,4 -4,4 l -12,0 c -2.2333,0 -4,-1.7667 -4,-4 l 0,1 c 0,2.2333 1.7667,4 4,4 l 12,0 z"
         style="opacity:0.3;color:#bebebe;fill:#000000;fill-opacity:1;fill-rule:nonzero;stroke:none;stroke-width:0;marker:none;visibility:visible;display:inline;overflow:visible;enable-background:accumulate"
         inkscape:connector-curvature="0" />
      <path
         id="path4091"
         d="m 440,83 c 3.3413,0 6,-2.6587 6,-6 l 0,-1 c 0,3.3413 -2.6587,6 -6,6 l -16,0 c -3.3413,0 -6,-2.6587 -6,-6 l 0,1 c 0,3.3413 2.6587,6 6,6 l 16,0 z"
         style="opacity:0.5;color:#bebebe;fill:#000000;fill-opacity:1;fill-rule:nonzero;stroke:none;stroke-width:0;marker:none;visibility:visible;display:inline;overflow:visible;enable-background:accumulate"
         inkscape:connector-curvature="0" />
      <path
         id="path4093"
         d="m 324,265 c 4.4493,0 8,-3.5507 8,-8 l 0,-1 c 0,4.4493 -3.5507,8 -8,8 l -24,0 c -4.4493,0 -8,-3.5507 -8,-8 l 0,1 c 0,4.4493 3.5507,8 8,8 l 24,0 z"
         style="opacity:0.5;color:#bebebe;fill:#000000;fill-opacity:1;fill-rule:nonzero;stroke:none;stroke-width:0;marker:none;visibility:visible;display:inline;overflow:visible;enable-background:accumulate"
         inkscape:connector-curvature="0" />
      <path
         id="path4095"
         d="m 362,120 c 9.4353,0 17,-7.5647 17,-17 l 0,-1 c 0,9.4353 -7.5647,17 -17,17 l -52,0 c -9.4353,0 -17,-7.5647 -17,-17 l 0,1 c 0,9.4353 7.5647,17 17,17 l 52,0 z"
         style="opacity:0.5;color:#bebebe;fill:#000000;fill-opacity:1;fill-rule:nonzero;stroke:none;stroke-width:0;marker:none;visibility:visible;display:inline;overflow:visible;enable-background:accumulate"
         inkscape:connector-curvature="0" />
      <path
         id="path4097"
         d="m 337.5,202 c 6.3883,0 11.5,-5.1117 11.5,-11.5 l 0,-1 c 0,6.3883 -5.1117,11.5 -11.5,11.5 l -35,0 c -6.3883,0 -11.5,-5.1117 -11.5,-11.5 l 0,1 c 0,6.3883 5.1117,11.5 11.5,11.5 l 35,0 z"
         style="opacity:0.5;color:#bebebe;fill:#000000;fill-opacity:1;fill-rule:nonzero;stroke:none;stroke-width:0;marker:none;visibility:visible;display:inline;overflow:visible;enable-background:accumulate"
         inkscape:connector-curvature="0" />
      <path
         inkscape:connector-curvature="0"
         id="path4280"
         d="M 84,265 C 56.836703,265 35,243.1633 35,216 l 0,-1 c 0,27.1633 21.836703,49 49,49 l 120,0 c 27.1633,0 49,-21.8367 49,-49 l 0,1 c 0,27.1633 -21.8367,49 -49,49 l -120,0 z"
         style="opacity:0.1;color:#bebebe;fill:#ffffff;fill-opacity:1;fill-rule:nonzero;stroke:none;stroke-width:0;marker:none;visibility:visible;display:inline;overflow:visible;enable-background:accumulate" />
      <path
         style="opacity:0.1;color:#bebebe;fill:#ffffff;fill-opacity:1;fill-rule:nonzero;stroke:none;stroke-width:0;marker:none;visibility:visible;display:inline;overflow:visible;enable-background:accumulate"
         d="m 300,264 c -4.4493,0 -8,-3.5507 -8,-8 l 0,-1 c 0,4.4493 3.5507,8 8,8 l 24,0 c 4.4493,0 8,-3.5507 8,-8 l 0,1 c 0,4.4493 -3.5507,8 -8,8 l -24,0 z"
         id="path4294"
         inkscape:connector-curvature="0" />
      <path
         style="opacity:0.1;color:#bebebe;fill:#ffffff;fill-opacity:1;fill-rule:nonzero;stroke:none;stroke-width:0;marker:none;visibility:visible;display:inline;overflow:visible;enable-background:accumulate"
         d="m 302.5,201 c -6.3883,0 -11.5,-5.1117 -11.5,-11.5 l 0,-1 c 0,6.3883 5.1117,11.5 11.5,11.5 l 35,0 c 6.3883,0 11.5,-5.1117 11.5,-11.5 l 0,1 c 0,6.3883 -5.1117,11.5 -11.5,11.5 l -35,0 z"
         id="path4296"
         inkscape:connector-curvature="0" />
      <path
         style="opacity:0.1;color:#bebebe;fill:#ffffff;fill-opacity:1;fill-rule:nonzero;stroke:none;stroke-width:0;marker:none;visibility:visible;display:inline;overflow:visible;enable-background:accumulate"
         d="m 310,119 c -9.4353,0 -17,-7.5647 -17,-17 l 0,-1 c 0,9.4353 7.5647,17 17,17 l 52,0 c 9.4353,0 17,-7.5647 17,-17 l 0,1 c 0,9.4353 -7.5647,17 -17,17 l -52,0 z"
         id="path4298"
         inkscape:connector-curvature="0" />
      <path
         style="opacity:0.1;color:#bebebe;fill:#ffffff;fill-opacity:1;fill-rule:nonzero;stroke:none;stroke-width:0;marker:none;visibility:visible;display:inline;overflow:visible;enable-background:accumulate"
         d="m 424,82 c -3.3413,0 -6,-2.658703 -6,-6 l 0,-1 c 0,3.341297 2.6587,6 6,6 l 16,0 c 3.3413,0 6,-2.658703 6,-6 l 0,1 c 0,3.341297 -2.6587,6 -6,6 l -16,0 z"
         id="path4300"
         inkscape:connector-curvature="0" />
      <path
         style="opacity:0.1;color:#bebebe;fill:#ffffff;fill-opacity:1;fill-rule:nonzero;stroke:none;stroke-width:0;marker:none;visibility:visible;display:inline;overflow:visible;enable-background:accumulate"
         d="m 422,122 c -2.2333,0 -4,-1.7667 -4,-4 l 0,-1 c 0,2.2333 1.7667,4 4,4 l 12,0 c 2.2333,0 4,-1.7667 4,-4 l 0,1 c 0,2.2333 -1.7667,4 -4,4 l -12,0 z"
         id="path4302"
         inkscape:connector-curvature="0" />
      <path
         style="opacity:0.1;color:#bebebe;fill:#ffffff;fill-opacity:1;fill-rule:nonzero;stroke:none;stroke-width:0;marker:none;visibility:visible;display:inline;overflow:visible;enable-background:accumulate"
         d="m 419,154.5 c -1.1253,0 -2,-0.8747 -2,-2 l 0,-1 c 0,1.1253 0.8747,2 2,2 l 10,0 c 1.1253,0 2,-0.8747 2,-2 l 0,1 c 0,1.1253 -0.8747,2 -2,2 l -10,0 z"
         id="path4304"
         inkscape:connector-curvature="0" />
    </g>
    <g
       inkscape:groupmode="layer"
       id="layer3"
       inkscape:label="Border"
       style="display:inline"
       sodipodi:insensitive="true">
      <path
         style="opacity:0.41000001;color:#bebebe;fill:#000000;fill-opacity:1;fill-rule:nonzero;stroke:none;stroke-width:0;marker:none;visibility:visible;display:inline;overflow:visible;enable-background:accumulate"
         d="m 422,101 c -2.77,0 -5,2.23 -5,5 l 0,12 c 0,2.77 2.23,5 5,5 l 12,0 c 2.77,0 5,-2.23 5,-5 l 0,-12 c 0,-2.77 -2.23,-5 -5,-5 l -12,0 z m 0,1 12,0 c 2.2333,0 4,1.7667 4,4 l 0,12 c 0,2.2333 -1.7667,4 -4,4 l -12,0 c -2.2333,0 -4,-1.7667 -4,-4 l 0,-12 c 0,-2.2333 1.7667,-4 4,-4 z"
         id="rect4099"
         inkscape:connector-curvature="0" />
      <path
         style="opacity:0.41000001;color:#bebebe;fill:#000000;fill-opacity:1;fill-rule:nonzero;stroke:none;stroke-width:0;marker:none;visibility:visible;display:inline;overflow:visible;enable-background:accumulate"
         d="m 424,53 c -3.878,0 -7,3.122 -7,7 l 0,16 c 0,3.878 3.122,7 7,7 l 16,0 c 3.878,0 7,-3.122 7,-7 l 0,-16 c 0,-3.878 -3.122,-7 -7,-7 l -16,0 z m 0,1 16,0 c 3.3413,0 6,2.658703 6,6 l 0,16 c 0,3.341297 -2.6587,6 -6,6 l -16,0 c -3.3413,0 -6,-2.658703 -6,-6 l 0,-16 c 0,-3.341297 2.6587,-6 6,-6 z"
         id="rect4151"
         inkscape:connector-curvature="0" />
      <path
         style="opacity:0.41000001;color:#bebebe;fill:#000000;fill-opacity:1;fill-rule:nonzero;stroke:none;stroke-width:0;marker:none;visibility:visible;display:inline;overflow:visible;enable-background:accumulate"
         d="m 419,140 c -1.662,0 -3,1.338 -3,3 l 0,10 c 0,1.662 1.338,3 3,3 l 10,0 c 1.662,0 3,-1.338 3,-3 l 0,-10 c 0,-1.662 -1.338,-3 -3,-3 l -10,0 z m 0,1 10,0 c 1.1253,0 2,0.8747 2,2 l 0,10 c 0,1.1253 -0.8747,2 -2,2 l -10,0 c -1.1253,0 -2,-0.8747 -2,-2 l 0,-10 c 0,-1.1253 0.8747,-2 2,-2 z"
         id="rect4095"
         inkscape:connector-curvature="0" />
      <path
         style="opacity:0.41000001;color:#bebebe;fill:#000000;fill-opacity:1;fill-rule:nonzero;stroke:none;stroke-width:0;marker:none;visibility:visible;display:inline;overflow:visible;enable-background:accumulate"
         d="m 300,223 c -4.986,0 -9,4.014 -9,9 l 0,24 c 0,4.986 4.014,9 9,9 l 24,0 c 4.986,0 9,-4.014 9,-9 l 0,-24 c 0,-4.986 -4.014,-9 -9,-9 l -24,0 z m 0,1 24,0 c 4.4493,0 8,3.5507 8,8 l 0,24 c 0,4.4493 -3.5507,8 -8,8 l -24,0 c -4.4493,0 -8,-3.5507 -8,-8 l 0,-24 c 0,-4.4493 3.5507,-8 8,-8 z"
         id="rect4783"
         inkscape:connector-curvature="0" />
      <path
         style="opacity:0.41000001;color:#bebebe;fill:#000000;fill-opacity:1;fill-rule:nonzero;stroke:none;stroke-width:0;marker:none;visibility:visible;display:inline;overflow:visible;enable-background:accumulate"
         d="m 302.5,142 c -6.925,0 -12.5,5.575 -12.5,12.5 l 0,35 c 0,6.925 5.575,12.5 12.5,12.5 l 35,0 c 6.925,0 12.5,-5.575 12.5,-12.5 l 0,-35 c 0,-6.925 -5.575,-12.5 -12.5,-12.5 l -35,0 z m 0,1 35,0 c 6.3883,0 11.5,5.1117 11.5,11.5 l 0,35 c 0,6.3883 -5.1117,11.5 -11.5,11.5 l -35,0 c -6.3883,0 -11.5,-5.1117 -11.5,-11.5 l 0,-35 c 0,-6.3883 5.1117,-11.5 11.5,-11.5 z"
         id="rect4515"
         inkscape:connector-curvature="0" />
      <path
         style="opacity:0.41000001;color:#bebebe;fill:#000000;fill-opacity:1;fill-rule:nonzero;stroke:none;stroke-width:0;marker:none;visibility:visible;display:inline;overflow:visible;enable-background:accumulate"
         d="m 310,32 c -9.972,0 -18,8.028 -18,18 l 0,52 c 0,9.972 8.028,18 18,18 l 52,0 c 9.972,0 18,-8.028 18,-18 l 0,-52 c 0,-9.972 -8.028,-18 -18,-18 l -52,0 z m 0,1 52,0 c 9.4353,0 17,7.564703 17,17 l 0,52 c 0,9.4353 -7.5647,17 -17,17 l -52,0 c -9.4353,0 -17,-7.5647 -17,-17 l 0,-52 c 0,-9.435297 7.5647,-17 17,-17 z"
         id="rect4511"
         inkscape:connector-curvature="0" />
      <path
         style="opacity:0.41000001;color:#bebebe;fill:#000000;fill-opacity:1;fill-rule:nonzero;stroke:none;stroke-width:0;marker:none;visibility:visible;display:inline;overflow:visible;enable-background:accumulate"
         d="M 84,46 C 56.3,46 34,68.3 34,96 l 0,120 c 0,27.7 22.3,50 50,50 l 120,0 c 27.7,0 50,-22.3 50,-50 L 254,96 C 254,68.3 231.7,46 204,46 L 84,46 z m 0,1 120,0 c 27.1633,0 49,21.836703 49,49 l 0,120 c 0,27.1633 -21.8367,49 -49,49 L 84,265 C 56.836703,265 35,243.1633 35,216 L 35,96 C 35,68.836703 56.836703,47 84,47 z"
         id="rect4040"
         inkscape:connector-curvature="0" />
    </g>
  </g>
</svg>
