<?xml version="1.0" encoding="UTF-8" standalone="no"?>
<!-- Created with Inkscape (http://www.inkscape.org/) -->

<svg
   inkscape:export-ydpi="90.000000"
   inkscape:export-xdpi="90.000000"
   width="480"
   height="300"
   id="svg11300"
   sodipodi:version="0.32"
   inkscape:version="1.2.2 (b0a8486541, 2022-12-01)"
   sodipodi:docname="web-teams.svg"
   inkscape:output_extension="org.inkscape.output.svg.inkscape"
   version="1.0"
   style="display:inline;enable-background:new"
   inkscape:export-filename="/home/sam/moka-next-template.png"
   xml:space="preserve"
   xmlns:inkscape="http://www.inkscape.org/namespaces/inkscape"
   xmlns:sodipodi="http://sodipodi.sourceforge.net/DTD/sodipodi-0.dtd"
   xmlns:xlink="http://www.w3.org/1999/xlink"
   xmlns="http://www.w3.org/2000/svg"
   xmlns:svg="http://www.w3.org/2000/svg"
   xmlns:rdf="http://www.w3.org/1999/02/22-rdf-syntax-ns#"
   xmlns:cc="http://creativecommons.org/ns#"
   xmlns:dc="http://purl.org/dc/elements/1.1/"><sodipodi:namedview
     stroke="#ef2929"
     fill="#f57900"
     id="base"
     pagecolor="#777777"
     bordercolor="#666666"
     borderopacity="0.25490196"
     inkscape:pageopacity="0"
     inkscape:pageshadow="2"
     inkscape:zoom="1"
     inkscape:cx="192.5"
     inkscape:cy="138"
     inkscape:current-layer="layer6"
     showgrid="false"
     inkscape:grid-bbox="true"
     inkscape:document-units="px"
     inkscape:showpageshadow="false"
     inkscape:window-width="1920"
     inkscape:window-height="1008"
     inkscape:window-x="0"
     inkscape:window-y="0"
     width="400px"
     height="300px"
     inkscape:snap-nodes="true"
     inkscape:snap-bbox="true"
     gridtolerance="10000"
     inkscape:object-nodes="true"
     inkscape:snap-grids="true"
     showguides="true"
     inkscape:guide-bbox="true"
     inkscape:window-maximized="1"
     inkscape:bbox-nodes="true"
     inkscape:bbox-paths="true"
     inkscape:snap-bbox-edge-midpoints="true"
     inkscape:snap-bbox-midpoints="true"
     inkscape:pagecheckerboard="0"
     inkscape:deskcolor="#d1d1d1"><inkscape:grid
       spacingy="1"
       spacingx="1"
       id="grid5883"
       type="xygrid"
       enabled="true"
       visible="true"
       empspacing="4"
       snapvisiblegridlinesonly="true"
       dotted="false"
       color="#000000"
       opacity="0.1254902"
       empcolor="#203ef3"
       empopacity="0.36470588"
       originx="0"
       originy="0" /><inkscape:grid
       type="xygrid"
       id="grid11592"
       empspacing="8"
       visible="true"
       enabled="false"
       spacingx="0.5"
       spacingy="0.5"
       color="#ff0000"
       opacity="0.1254902"
       empcolor="#ff0000"
       empopacity="0.25098039"
       snapvisiblegridlinesonly="true"
       dotted="true"
       originx="0"
       originy="0" /></sodipodi:namedview><defs
     id="defs3"><linearGradient
       id="linearGradient2263"
       inkscape:swatch="solid"><stop
         style="stop-color:#000000;stop-opacity:1;"
         offset="0"
         id="stop2261" /></linearGradient><linearGradient
       inkscape:collect="always"
       xlink:href="#outerBackgroundGradient-3"
       id="linearGradient4254"
       x1="35"
       y1="156"
       x2="253"
       y2="156"
       gradientUnits="userSpaceOnUse"
       gradientTransform="rotate(-90,144,156.00001)" /><linearGradient
       inkscape:collect="always"
       xlink:href="#outerBackgroundGradient-3"
       id="linearGradient4256"
       x1="417"
       y1="148"
       x2="431"
       y2="148"
       gradientUnits="userSpaceOnUse"
       gradientTransform="matrix(0,-1,1,0,276,572)" /><linearGradient
       inkscape:collect="always"
       xlink:href="#outerBackgroundGradient-3"
       id="linearGradient4260"
       x1="418"
       y1="68"
       x2="446"
       y2="68"
       gradientUnits="userSpaceOnUse"
       gradientTransform="matrix(0,-1,1,0,364,500)" /><linearGradient
       inkscape:collect="always"
       xlink:href="#outerBackgroundGradient-3"
       id="linearGradient4262"
       x1="292"
       y1="244"
       x2="332"
       y2="244"
       gradientUnits="userSpaceOnUse"
       gradientTransform="matrix(0,-1,1,0,68,556)" /><linearGradient
       inkscape:collect="always"
       xlink:href="#outerBackgroundGradient-3"
       id="linearGradient4264"
       x1="293"
       y1="76"
       x2="379"
       y2="76"
       gradientUnits="userSpaceOnUse"
       gradientTransform="matrix(0,-1,1,0,260,412)" /><linearGradient
       inkscape:collect="always"
       xlink:href="#outerBackgroundGradient-3"
       id="linearGradient4266"
       x1="291"
       y1="172"
       x2="349"
       y2="172"
       gradientUnits="userSpaceOnUse"
       gradientTransform="matrix(0,-1,1,0,148,492)" /><linearGradient
       inkscape:collect="always"
       xlink:href="#outerBackgroundGradient-3"
       id="linearGradient3870"
       gradientUnits="userSpaceOnUse"
       gradientTransform="matrix(0,-1,1,0,316,540)"
       x1="418"
       y1="112"
       x2="438"
       y2="112" /><linearGradient
       id="outerBackgroundGradient-3"><stop
         style="stop-color:#3940ab;stop-opacity:1;"
         offset="0"
         id="stop3864-8-6-2" /><stop
         style="stop-color:#5a62c3;stop-opacity:1;"
         offset="1"
         id="stop3866-9-1-6" /></linearGradient></defs><metadata
     id="metadata4"><rdf:RDF><cc:Work
         rdf:about=""><dc:format>image/svg+xml</dc:format><dc:type
           rdf:resource="http://purl.org/dc/dcmitype/StillImage" /><dc:creator><cc:Agent><dc:title>Sam Hewitt</dc:title></cc:Agent></dc:creator><dc:source /><cc:license
           rdf:resource="" /><dc:subject><rdf:Bag /></dc:subject><dc:date /><dc:rights><cc:Agent><dc:title /></cc:Agent></dc:rights><dc:publisher><cc:Agent><dc:title /></cc:Agent></dc:publisher><dc:identifier /><dc:relation /><dc:language /><dc:coverage /><dc:description /><dc:contributor><cc:Agent><dc:title /></cc:Agent></dc:contributor></cc:Work><cc:Work
         rdf:about=""><dc:format>image/svg+xml</dc:format><dc:type
           rdf:resource="http://purl.org/dc/dcmitype/StillImage" /></cc:Work></rdf:RDF></metadata><g
     style="display:inline"
     inkscape:groupmode="layer"
     inkscape:label="Icon"
     id="layer1"><g
       style="display:none"
       inkscape:label="Baseplate"
       id="layer7"
       inkscape:groupmode="layer"><text
         y="19.745117"
         xml:space="preserve"
         x="15.006836"
         style="font-style:normal;font-variant:normal;font-weight:normal;font-stretch:normal;line-height:0%;font-family:'DejaVu Sans';-inkscape-font-specification:'DejaVu Sans';display:inline;fill:#000000;fill-opacity:1;stroke:none;enable-background:new"
         inkscape:label="context"
         id="context"><tspan
           style="font-style:normal;font-variant:normal;font-weight:normal;font-stretch:normal;font-size:18px;line-height:1.25;font-family:'DejaVu Sans';-inkscape-font-specification:'DejaVu Sans'"
           y="19.745117"
           x="15.006836"
           sodipodi:role="line"
           id="tspan3933">apps</tspan></text><text
         y="19.745117"
         xml:space="preserve"
         x="122.48828"
         style="font-style:normal;font-variant:normal;font-weight:bold;font-stretch:normal;line-height:0%;font-family:'DejaVu Sans';-inkscape-font-specification:'DejaVu Sans Bold';text-align:start;writing-mode:lr-tb;text-anchor:start;display:inline;fill:#000000;fill-opacity:1;stroke:none;enable-background:new"
         inkscape:label="icon-name"
         id="icon-name"><tspan
           style="font-style:normal;font-variant:normal;font-weight:bold;font-stretch:normal;font-size:18px;line-height:1.25;font-family:'DejaVu Sans';-inkscape-font-specification:'DejaVu Sans Bold'"
           y="19.745117"
           x="122.48828"
           sodipodi:role="line"
           id="tspan3937">web-teams</tspan></text><rect
         style="display:inline;overflow:visible;visibility:visible;fill:#eeeeec;fill-opacity:1;fill-rule:nonzero;stroke:none;stroke-width:2;marker:none;enable-background:accumulate"
         id="rect16x16"
         width="16"
         height="16"
         x="416"
         y="140"
         inkscape:label="16x16" /><rect
         style="display:inline;overflow:visible;visibility:visible;fill:#d4d4d4;fill-opacity:1;fill-rule:nonzero;stroke:none;stroke-width:2;marker:none;enable-background:accumulate"
         id="rect24x24"
         width="24"
         height="24"
         x="416"
         y="100"
         inkscape:label="24x24" /><rect
         style="display:inline;overflow:visible;visibility:visible;fill:#eeeeec;fill-opacity:1;fill-rule:nonzero;stroke:none;stroke-width:2;marker:none;enable-background:accumulate"
         id="rect32x32"
         width="32"
         height="32"
         x="416"
         y="52"
         inkscape:label="32x32" /><rect
         inkscape:label="22x22"
         y="101"
         x="417"
         height="22"
         width="22"
         id="rect22x22"
         style="display:inline;overflow:visible;visibility:visible;fill:#eeeeec;fill-opacity:1;fill-rule:nonzero;stroke:none;stroke-width:2;marker:none;enable-background:accumulate" /><rect
         inkscape:label="48x48"
         y="220"
         x="288"
         height="48"
         width="48"
         id="rect48x48"
         style="display:inline;overflow:visible;visibility:visible;fill:#eeeeec;fill-opacity:1;fill-rule:nonzero;stroke:none;stroke-width:2;marker:none;enable-background:accumulate" /><rect
         style="display:inline;overflow:visible;visibility:visible;fill:#eeeeec;fill-opacity:1;fill-rule:nonzero;stroke:none;stroke-width:2;marker:none;enable-background:accumulate"
         id="rect256x256"
         width="256"
         height="256"
         x="16"
         y="28"
         inkscape:label="256x256" /><rect
         style="display:inline;overflow:visible;visibility:visible;fill:#eeeeec;fill-opacity:1;fill-rule:nonzero;stroke:none;stroke-width:2;marker:none;enable-background:accumulate"
         id="rect64x64"
         width="64"
         height="64"
         x="288"
         y="140"
         inkscape:label="64x64" /><rect
         style="display:inline;overflow:visible;visibility:visible;fill:#eeeeec;fill-opacity:1;fill-rule:nonzero;stroke:none;stroke-width:2;marker:none;enable-background:accumulate"
         id="rect96x96"
         width="96"
         height="96"
         x="288"
         y="28"
         inkscape:label="96x96" /></g><g
       inkscape:groupmode="layer"
       id="layer4"
       inkscape:label="Shadow"
       style="display:inline"
       sodipodi:insensitive="true"><rect
         ry="50"
         y="47"
         x="34"
         height="220"
         width="220"
         id="rect4114"
         style="color:#bebebe;display:inline;overflow:visible;visibility:visible;opacity:0.1;fill:#000000;fill-opacity:1;fill-rule:nonzero;stroke:none;stroke-width:0;marker:none;enable-background:accumulate" /><rect
         style="color:#bebebe;display:inline;overflow:visible;visibility:visible;opacity:0.1;fill:#000000;fill-opacity:1;fill-rule:nonzero;stroke:none;stroke-width:0;marker:none;enable-background:accumulate"
         id="rect4120"
         width="30"
         height="30"
         x="417"
         y="54"
         ry="7" /><rect
         transform="scale(1,-1)"
         ry="9"
         y="-266"
         x="291"
         height="42"
         width="42"
         id="rect4122"
         style="color:#bebebe;display:inline;overflow:visible;visibility:visible;opacity:0.1;fill:#000000;fill-opacity:1;fill-rule:nonzero;stroke:none;stroke-width:0;marker:none;enable-background:accumulate" /><rect
         style="color:#bebebe;display:inline;overflow:visible;visibility:visible;opacity:0.1;fill:#000000;fill-opacity:1;fill-rule:nonzero;stroke:none;stroke-width:0;marker:none;enable-background:accumulate"
         id="rect4124"
         width="88"
         height="88"
         x="292"
         y="33"
         ry="18" /><rect
         ry="12.5"
         y="143"
         x="290"
         height="60"
         width="60"
         id="rect4126"
         style="color:#bebebe;display:inline;overflow:visible;visibility:visible;opacity:0.1;fill:#000000;fill-opacity:1;fill-rule:nonzero;stroke:none;stroke-width:0;marker:none;enable-background:accumulate" /><path
         id="path4268"
         d="m 422,101 c -2.77,0 -5,2.23 -5,5 v 12 c 0,2.77 2.23,5 5,5 h 12 c 2.77,0 5,-2.23 5,-5 v -12 c 0,-2.77 -2.23,-5 -5,-5 z"
         style="color:#bebebe;display:inline;overflow:visible;visibility:visible;opacity:0.1;fill:#000000;fill-opacity:1;fill-rule:nonzero;stroke:none;stroke-width:0;marker:none;enable-background:accumulate"
         inkscape:connector-curvature="0"
         sodipodi:nodetypes="sssssssss" /><path
         id="path4270"
         d="m 419,140 c -1.662,0 -3,1.338 -3,3 v 10 c 0,1.662 1.338,3 3,3 h 10 c 1.662,0 3,-1.338 3,-3 v -10 c 0,-1.662 -1.338,-3 -3,-3 z"
         style="color:#bebebe;display:inline;overflow:visible;visibility:visible;opacity:0.1;fill:#000000;fill-opacity:1;fill-rule:nonzero;stroke:none;stroke-width:0;marker:none;enable-background:accumulate"
         inkscape:connector-curvature="0"
         sodipodi:nodetypes="sssssssss" /></g><g
       inkscape:groupmode="layer"
       id="layer2"
       inkscape:label="Background"
       style="display:inline"><path
         style="color:#bebebe;display:inline;overflow:visible;visibility:visible;fill:url(#linearGradient4254);fill-opacity:1;fill-rule:nonzero;stroke:none;stroke-width:2;marker:none;enable-background:accumulate"
         d="M 84,46.5 C 56.568735,46.5 34.5,68.568732 34.5,96 v 120 c 0,27.43127 22.068735,49.5 49.5,49.5 h 120 c 27.43127,0 49.5,-22.06873 49.5,-49.5 V 96 C 253.5,68.568732 231.43127,46.5 204,46.5 Z"
         id="path4200" /><path
         style="color:#bebebe;fill:url(#linearGradient4256);fill-opacity:1.0;fill-rule:nonzero;stroke:none;stroke-width:2;marker:none;visibility:visible;display:inline;overflow:visible;enable-background:accumulate"
         d="M 419 140.5 C 417.6156 140.5 416.5 141.6156 416.5 143 L 416.5 153 C 416.5 154.3844 417.6156 155.5 419 155.5 L 429 155.5 C 430.3844 155.5 431.5 154.3844 431.5 153 L 431.5 143 C 431.5 141.6156 430.3844 140.5 429 140.5 L 419 140.5 z "
         id="path4202" /><path
         style="color:#bebebe;fill:url(#linearGradient3870);fill-opacity:1.0;fill-rule:nonzero;stroke:none;stroke-width:2;marker:none;visibility:visible;display:inline;overflow:visible;enable-background:accumulate"
         d="M 422 101.5 C 419.50301 101.5 417.5 103.50301 417.5 106 L 417.5 118 C 417.5 120.49699 419.50301 122.5 422 122.5 L 434 122.5 C 436.49699 122.5 438.5 120.49699 438.5 118 L 438.5 106 C 438.5 103.50301 436.49699 101.5 434 101.5 L 422 101.5 z "
         id="path4204" /><path
         style="color:#bebebe;fill:url(#linearGradient4260);fill-opacity:1.0;fill-rule:nonzero;stroke:none;stroke-width:2;marker:none;visibility:visible;display:inline;overflow:visible;enable-background:accumulate"
         d="M 424 53.5 C 420.39346 53.5 417.5 56.393464 417.5 60 L 417.5 76 C 417.5 79.606536 420.39346 82.5 424 82.5 L 440 82.5 C 443.60654 82.5 446.5 79.606536 446.5 76 L 446.5 60 C 446.5 56.393464 443.60654 53.5 440 53.5 L 424 53.5 z "
         id="path4206" /><path
         style="color:#bebebe;fill:url(#linearGradient4262);fill-opacity:1.0;fill-rule:nonzero;stroke:none;stroke-width:2;marker:none;visibility:visible;display:inline;overflow:visible;enable-background:accumulate"
         d="M 300 223.5 C 295.28469 223.5 291.5 227.28469 291.5 232 L 291.5 256 C 291.5 260.71531 295.28469 264.5 300 264.5 L 324 264.5 C 328.71531 264.5 332.5 260.71531 332.5 256 L 332.5 232 C 332.5 227.28469 328.71531 223.5 324 223.5 L 300 223.5 z "
         id="path4208" /><path
         style="color:#bebebe;fill:url(#linearGradient4264);fill-opacity:1.0;fill-rule:nonzero;stroke:none;stroke-width:2;marker:none;visibility:visible;display:inline;overflow:visible;enable-background:accumulate"
         d="M 310 32.5 C 300.29745 32.5 292.5 40.297452 292.5 50 L 292.5 102 C 292.5 111.70255 300.29745 119.5 310 119.5 L 362 119.5 C 371.70255 119.5 379.5 111.70255 379.5 102 L 379.5 50 C 379.5 40.297452 371.70255 32.5 362 32.5 L 310 32.5 z "
         id="path4210" /><path
         style="color:#bebebe;fill:url(#linearGradient4266);fill-opacity:1.0;fill-rule:nonzero;stroke:none;stroke-width:2;marker:none;visibility:visible;display:inline;overflow:visible;enable-background:accumulate"
         d="M 302.5 142.5 C 295.84498 142.5 290.5 147.84498 290.5 154.5 L 290.5 189.5 C 290.5 196.15502 295.84498 201.5 302.5 201.5 L 337.5 201.5 C 344.15502 201.5 349.5 196.15502 349.5 189.5 L 349.5 154.5 C 349.5 147.84498 344.15502 142.5 337.5 142.5 L 302.5 142.5 z "
         id="path4212" /></g><g
       inkscape:groupmode="layer"
       id="layer6"
       inkscape:label="Symbols"
       style="display:inline"><path
         id="path4379"
         style="display:inline;opacity:0.2;fill:#000000;fill-opacity:1;enable-background:new"
         d="m 424.5,144 c -0.63419,0.002 -1.19877,0.40208 -1.41016,1 h 0.48438 c 0.77586,0 1.42577,0.64993 1.42578,1.42578 v 0.48438 c 0.59792,-0.21139 0.99829,-0.77597 1,-1.41016 0,-0.82843 -0.67157,-1.5 -1.5,-1.5 z m 3.52344,1 c -0.5652,-1e-4 -1.02344,0.44765 -1.02344,1 0,0.55235 0.45824,1.0001 1.02344,1 0.5652,1e-4 1.02343,-0.44765 1.02344,-1 0,-0.55235 -0.45824,-1.0001 -1.02344,-1 z m -8.59766,1 c -0.23543,0 -0.42579,0.19035 -0.42578,0.42578 v 4.14844 c -10e-6,0.23543 0.19035,0.42578 0.42578,0.42578 h 4.26367 c 0.23541,0 0.31054,-0.19035 0.31055,-0.42578 v -4.14844 C 424,146.19035 423.80965,146 423.57422,146 Z M 420,147 h 3 v 1 h -1 v 2 h -1 v -2 h -1 z m 5,1 v 2.57422 c -10e-6,0.22334 -0.0115,0.50061 -0.2168,0.83008 -0.20533,0.32947 -0.70385,0.5957 -1.09179,0.5957 h -1.50977 c 0.36902,0.94561 1.26081,1.62391 2.31836,1.65039 1.41407,-0.0354 2.53288,-1.23461 2.5,-2.68164 v -2.52148 c 0.006,-0.24114 -0.18037,-0.44131 -0.41602,-0.44727 z m 2.92773,0 c 0.0492,0.15006 0.0763,0.30927 0.0723,0.47266 v 2.47461 c 0.01,0.43626 -0.0581,0.85696 -0.19141,1.25 0.68664,-0.18953 1.1914,-0.81755 1.19141,-1.56446 v -2.1914 C 428.99996,148.19737 428.80263,148 428.55859,148 Z"
         sodipodi:nodetypes="ccssccccscscsccsscssscccccccccccssccccccccccscsc" /><path
         id="path4381"
         style="display:inline;opacity:0.2;fill:#000000;fill-opacity:1;enable-background:new"
         d="m 429,106 c -1.10457,0 -2,0.89543 -2,2 h 0.40234 C 428.27238,108 429,108.72762 429,109.59766 V 110 c 1.10457,0 2,-0.89543 2,-2 0,-1.10457 -0.89543,-2 -2,-2 z m 4.5,1 c -0.82843,0 -1.5,0.67157 -1.5,1.5 0,0.82843 0.67157,1.5 1.5,1.5 0.82843,0 1.5,-0.67157 1.5,-1.5 0,-0.82843 -0.67157,-1.5 -1.5,-1.5 z m -11.90234,2 C 421.26806,109 421,109.26806 421,109.59766 v 5.80468 c 0,0.3296 0.26806,0.59766 0.59766,0.59766 h 5.80468 C 427.73194,116 428,115.73194 428,115.40234 v -5.80468 C 428,109.26806 427.73194,109 427.40234,109 Z m 1.41406,1 H 426 v 1 h -0.99805 v 3 H 424 v -3 h -0.98828 z M 429,111 v 4.40234 C 429,116.27238 428.27238,117 427.40234,117 h -2.21875 c 0.46434,1.42756 1.7623,2.47279 3.31641,2.51172 1.97947,-0.0496 3.54605,-1.73002 3.5,-3.75586 v -4.12891 c 0.008,-0.33759 -0.25412,-0.6186 -0.58398,-0.62695 z m 3.875,0 c 0.0841,0.20152 0.13014,0.42102 0.125,0.64844 v 4.08398 c 0.0145,0.63945 -0.10063,1.2548 -0.32031,1.81836 1.29584,-0.0817 2.32031,-1.06353 2.32031,-2.26562 v -3.66602 C 435,111.27749 434.69704,111 434.32227,111 Z"
         sodipodi:nodetypes="scsscssssssssssssssssccccccccccssccccccccccsssc" /><path
         id="path4377"
         style="display:inline;opacity:0.2;fill:#000000;fill-opacity:1;enable-background:new"
         d="m 434,60 c -1.30582,0 -2.41624,0.83524 -2.82812,2 H 433 c 1.09545,0 2,0.904551 2,2 v 1.828125 c 1.1652,-0.412121 2,-1.522534 2,-2.828125 0,-1.656339 -1.34233,-3 -3,-3 z m 6,2 c -1.105,0 -2,0.896003 -2,2 0,1.103997 0.895,2 2,2 1.105,0 2,-0.896003 2,-2 0,-1.103997 -0.895,-2 -2,-2 z m -17,1 c -0.55,0 -1,0.450004 -1,1 v 10 c 0,0.549996 0.45,1 1,1 h 10 c 0.55,0 1,-0.450004 1,-1 V 64 c 0,-0.549996 -0.45,-1 -1,-1 z m 2,2 h 6 v 2 h -2 v 6 h -2 v -6 h -2 z m 10,2 v 7 c 0,1.095449 -0.90455,2 -2,2 h -3.25977 c 0.79139,1.179568 2.13655,1.955078 3.66407,1.955078 h 0.17968 c 2.436,0 4.41016,-1.974168 4.41016,-4.410156 V 67.898438 C 437.99414,67.402438 437.5917,67 437.0957,67 Z m 3.76172,0 c 0.14681,0.268475 0.23242,0.575016 0.23242,0.898438 v 5.646484 c 0,0.751542 -0.15562,1.469171 -0.43555,2.121094 0.0982,0.0092 0.19631,0.01367 0.29688,0.01367 1.73735,0 3.14453,-1.401868 3.14453,-3.13086 V 67.939453 C 442,67.421457 441.57784,67 441.05664,67 Z"
         sodipodi:nodetypes="scsscssssssssssssssssccccccccccsscsssssccsscssssc" /><path
         id="path4383"
         style="display:inline;opacity:0.2;fill:#000000;fill-opacity:1;enable-background:new"
         d="m 313.5,232.00003 c -2.48528,1e-5 -4.5,2.01472 -4.5,4.5 0.007,0.16745 0.0233,0.33437 0.0488,0.5 h 1.75781 c 1.19964,0 2.19336,0.99373 2.19336,2.19336 v 1.75781 c 0.16563,0.0256 0.33255,0.0419 0.5,0.0488 2.48528,-1e-5 4.5,-2.01472 4.5,-4.5 0,-2.48528 -2.01472,-4.49999 -4.5,-4.5 z m 8.5,3 c -1.65686,0 -3,1.34315 -3,3 0,1.65685 1.34314,3 3,3 1.65686,0 3,-1.34315 3,-3 0,-1.65685 -1.34314,-3 -3,-3 z m -22.80664,3 c -0.65919,0 -1.19336,0.53418 -1.19336,1.19336 v 11.61328 c 0,0.65919 0.53416,1.19336 1.19336,1.19336 h 11.61328 c 0.65919,0 1.19336,-0.53416 1.19336,-1.19336 v -11.61328 c 0,-0.65918 -0.53416,-1.19336 -1.19336,-1.19336 z m 2.80664,3 6,0 v 2 l -2,0 v 6 h -2 v -6 h -2 z m 11,1 v 8.80664 c 0,1.19964 -0.99373,2.19336 -2.19336,2.19336 h -4.44336 c 0.92866,2.85541 3.52786,4.94558 6.63672,5.02344 3.9595,-0.0992 7.09212,-3.46202 7,-7.51367 v -7.25782 c 0.0153,-0.67518 -0.50621,-1.23525 -1.16602,-1.25195 z m 7.62891,0 c 0.24252,0.36837 0.38163,0.8092 0.37109,1.27539 v 7.21289 c 0.028,1.2302 -0.21111,2.4068 -0.66016,3.47266 0.36759,0.0985 0.75223,0.1563 1.15039,0.15625 h 0.0215 c 2.47925,0 4.48828,-2.03755 4.48828,-4.54883 v -6.33203 c -2e-5,-0.68329 -0.54613,-1.23633 -1.22071,-1.23633 z"
         sodipodi:nodetypes="sccssccsssssssscssssssscccccccccccsccccccccccssscscc" /><path
         id="path4375"
         style="display:inline;enable-background:new;opacity:0.2;fill:#000000;fill-opacity:1"
         d="m 322,154 c -3.3137,0 -6,2.6863 -6,6 0.005,0.68225 0.12676,1.35862 0.35938,2 h 1.93554 c 1.48215,0 2.70508,1.22294 2.70508,2.70508 v 1.20312 c 0.33018,0.0585 0.6647,0.0892 1,0.0918 3.31371,0 6,-2.68629 6,-6 0,-3.3137 -2.68629,-6 -6,-6 z m 13,4 c -2.20914,1e-5 -4,1.79086 -4,4 0,2.20914 1.79086,3.99999 4,4 2.20914,-1e-5 4,-1.79086 4,-4 0,-2.20914 -1.79086,-3.99999 -4,-4 z m -33.29492,5 C 300.76339,163 300,163.76338 300,164.70508 v 16.58984 c 0,0.9417 0.76337,1.70508 1.70508,1.70508 h 16.58984 C 319.23662,183 320,182.23664 320,181.29492 V 164.70508 C 320,163.76338 319.23663,163 318.29492,163 Z M 306,168 h 8 v 2 h -3 v 8 h -2 v -8 h -3 z m 15,0 v 13.29492 C 321,182.77708 319.77705,184 318.29492,184 h -6.88086 c 1.26038,4.29354 5.26392,7.48265 10.08594,7.59766 5.93753,-0.14161 10.63423,-4.94402 10.49609,-10.73047 v -11.07813 c 0.0229,-0.96426 -0.75861,-1.7652 -1.74804,-1.78906 z m 11.34766,0 c 0.41615,0.49173 0.66475,1.12427 0.64843,1.8125 v 11.03125 c 0.0422,1.76745 -0.32889,3.45064 -1.02539,4.96289 0.48647,0.11649 0.9915,0.18366 1.51368,0.18359 h 0.0312 c 3.58115,0 6.48438,-2.9013 6.48438,-6.48242 v -9.74414 C 340.00004,168.78933 339.21071,168 338.23633,168 Z"
         sodipodi:nodetypes="sccssccssssssssssssssssccccccccccssccccccccccssscsc" /><path
         id="path4385"
         style="display:inline;opacity:0.2;fill:#000000;fill-opacity:1;enable-background:new"
         d="m 339,49 c -4.97056,8e-6 -9,4.029463 -9,9 0.008,0.673847 0.0907,1.344725 0.24805,2 h 4.19531 C 336.93681,60 339,62.065169 339,64.558594 V 67 c 4.97055,-8e-6 8.99999,-4.029463 9,-9 0,-4.970537 -4.02945,-8.999992 -9,-9 z m 19,6 c -3.31371,-4e-6 -6,2.686295 -6,6 0,3.313705 2.68629,6.000004 6,6 3.31371,4e-6 6,-2.686295 6,-6 0,-3.313705 -2.68629,-6.000004 -6,-6 z m -49.44141,7 C 307.14607,62 306,63.146059 306,64.558594 V 90.441406 C 305.99999,91.853942 307.14605,93 308.55859,93 h 25.88282 C 335.85391,93 337,91.853972 337,90.441406 V 64.558594 C 337,63.146059 335.85393,62 334.44141,62 Z M 315,69 h 13 v 3 h -5 l -0.0332,14 H 320 V 72 h -5 z m 24,1 V 90.443359 C 339,92.936812 336.93677,95 334.44336,95 h -10.3457 c 2.21782,5.6641 7.5657,9.72408 13.90234,9.88281 8.48218,-0.21248 15.19345,-7.415504 14.99609,-16.097654 V 72.683594 C 353.02879,71.23679 351.90954,70.0358 350.49609,70 Z m 15.17188,0 c 0.53646,0.780644 0.84686,1.725706 0.82421,2.728516 v 16.009765 c 0.0605,2.659141 -0.46604,5.198642 -1.45117,7.494141 0.77976,0.191049 1.59121,0.302849 2.43164,0.302734 h 0.0469 c 5.5094,0 9.97655,-4.36285 9.97656,-9.74414 V 72.650391 C 365.99995,71.186187 364.78419,70 363.28516,70 Z"
         sodipodi:nodetypes="sccsscssssssssscssssssccccccccccssccccccccccssscsc" /><path
         id="path4387"
         style="display:inline;enable-background:new;opacity:0.2;fill:#000000;fill-opacity:1"
         d="m 152,83 c -13.25479,3.9e-5 -23.99996,10.745206 -24,24 0.01,1.68157 0.19644,3.35744 0.55664,5 h 10.61133 C 145.10297,112 150,116.89711 150,122.83203 v 7.9707 c 0.66362,0.0936 1.33087,0.15947 2,0.19727 13.2548,-4e-5 23.99996,-10.7452 24,-24 -4e-5,-13.254794 -10.7452,-23.999961 -24,-24 z m 51.5,15 c -9.11269,2.7e-5 -16.49997,7.38731 -16.5,16.5 3e-5,9.11269 7.38731,16.49997 16.5,16.5 9.11269,-3e-5 16.49997,-7.38731 16.5,-16.5 -3e-5,-9.11269 -7.38731,-16.499973 -16.5,-16.5 z M 70.832031,116 C 67.058844,116 64,119.05883 64,122.83203 v 68.33594 C 64,194.94113 67.058774,198 70.832031,198 H 139.16797 C 142.94116,198 146,194.9412 146,191.16797 V 122.83203 C 146,119.05883 142.94123,116 139.16797,116 Z M 87,135 h 36 v 7 h -14 v 37 h -8 V 142 H 87 Z m 63,3 v 53.16797 C 150,197.10297 145.10292,202 139.16797,202 h -28.25781 c 5.229,16.68018 20.61697,28.96664 39.08984,29.41797 23.19123,-0.56661 41.53959,-19.77927 41,-42.93164 v -43.33008 c 0.0895,-3.85817 -2.96744,-7.06078 -6.83203,-7.15625 z m 42.44531,0 c 1.64145,1.97328 2.6182,4.51009 2.55469,7.24805 v 43.14453 c 0.16377,7.02666 -1.27556,13.72587 -3.97461,19.7539 2.19145,0.59989 4.48733,0.9476 6.86914,0.94727 h 0.12305 C 212.36771,209.09375 224,197.45952 224,183.10938 V 145.07031 C 224,141.16579 220.83422,138 216.92969,138 Z"
         sodipodi:nodetypes="cccsscccccccccsssssssssccccccccccssccccccccccsssssc" /><path
         id="path4339"
         style="display:inline;fill:#ffffff;fill-opacity:1;enable-background:new"
         d="m 424.5,143 c -0.63419,0.002 -1.19877,0.40208 -1.41016,1 h 0.48438 c 0.77586,0 1.42577,0.64993 1.42578,1.42578 v 0.48438 c 0.59792,-0.21139 0.99829,-0.77597 1,-1.41016 0,-0.82843 -0.67157,-1.5 -1.5,-1.5 z m 3.52344,1 c -0.5652,-1e-4 -1.02344,0.44765 -1.02344,1 0,0.55235 0.45824,1.0001 1.02344,1 0.5652,1e-4 1.02344,-0.44765 1.02344,-1 0,-0.55235 -0.45824,-1.0001 -1.02344,-1 z m -8.59766,1 c -0.23543,0 -0.42579,0.19035 -0.42578,0.42578 v 4.14844 c -10e-6,0.23543 0.19035,0.42578 0.42578,0.42578 h 4.26367 c 0.23541,0 0.31054,-0.19035 0.31055,-0.42578 v -4.14844 C 424,145.19035 423.80965,145 423.57422,145 Z M 420,146 h 3 v 1 h -1 v 2 h -1 v -2 h -1 z m 5,1 v 2.57422 c -10e-6,0.22334 -0.0115,0.50061 -0.2168,0.83008 -0.20533,0.32947 -0.70385,0.5957 -1.09179,0.5957 h -1.50977 c 0.36902,0.94561 1.26081,1.62391 2.31836,1.65039 1.41407,-0.0354 2.53288,-1.23461 2.5,-2.68164 v -2.52148 c 0.006,-0.24114 -0.18037,-0.44131 -0.41602,-0.44727 z m 2.92773,0 c 0.0492,0.15006 0.0763,0.30927 0.0723,0.47266 v 2.47461 c 0.01,0.43626 -0.0581,0.85696 -0.19141,1.25 0.68664,-0.18953 1.1914,-0.81755 1.19141,-1.56446 v -2.1914 C 428.99999,147.19737 428.80263,147 428.55859,147 Z"
         sodipodi:nodetypes="ccssccccscscsccsscssscccccccccccssccccccccccsssc" /><path
         id="path4341"
         style="display:inline;fill:#ffffff;fill-opacity:1;enable-background:new"
         d="m 428.98828,105 c -1.10457,0 -2,0.89544 -2,2 h 0.40234 c 0.87004,0 1.59766,0.72763 1.59766,1.59767 V 109 c 1.10457,0 2,-0.89543 2,-2 0,-1.10456 -0.89543,-2 -2,-2 z m 4.5,1 c -0.82843,0 -1.5,0.67158 -1.5,1.5 0,0.82843 0.67157,1.5 1.5,1.5 0.82843,0 1.5,-0.67157 1.5,-1.5 0,-0.82842 -0.67157,-1.5 -1.5,-1.5 z m -11.90234,2 c -0.3296,0 -0.59766,0.26807 -0.59766,0.59767 v 5.80468 c 0,0.3296 0.26806,0.59766 0.59766,0.59766 h 5.80468 c 0.3296,0 0.59766,-0.26806 0.59766,-0.59766 v -5.80468 c 0,-0.3296 -0.26806,-0.59767 -0.59766,-0.59767 z M 423,109 h 2.98828 v 1 h -0.99805 v 3 h -1.00195 v -3 H 423 Z m 5.98828,1 v 4.40234 c 0,0.87004 -0.72762,1.59766 -1.59766,1.59766 h -2.21875 c 0.46434,1.42756 1.7623,2.4728 3.31641,2.51172 1.97947,-0.0496 3.54605,-1.73002 3.5,-3.75586 v -4.12891 c 0.008,-0.33759 -0.25412,-0.6186 -0.58398,-0.62695 z m 3.875,0 c 0.0841,0.20153 0.13014,0.42102 0.125,0.64844 v 4.08398 c 0.0145,0.63945 -0.10063,1.2548 -0.32031,1.81836 1.29584,-0.0817 2.32031,-1.06353 2.32031,-2.26562 v -3.66602 c 0,-0.34165 -0.30296,-0.61914 -0.67773,-0.61914 z"
         sodipodi:nodetypes="scsscssssssssssssssssccccccccccssccccccccccsssc" /><path
         id="path7689"
         style="display:inline;fill:#ffffff;fill-opacity:1;enable-background:new"
         d="m 434,59 c -1.30582,0 -2.41623,0.835239 -2.82812,2 H 433 c 1.09545,0 2,0.90455 2,2 v 1.828125 c 1.1652,-0.412121 2,-1.522533 2,-2.828125 0,-1.656341 -1.34233,-3 -3,-3 z m 6,2 c -1.105,0 -2,0.896002 -2,2 0,1.103998 0.895,2 2,2 1.105,0 2,-0.896002 2,-2 0,-1.103998 -0.895,-2 -2,-2 z m -17,1 c -0.55,0 -1,0.450003 -1,1 v 10 c 0,0.549997 0.45,1 1,1 h 10 c 0.55,0 1,-0.450003 1,-1 V 63 c 0,-0.549997 -0.45,-1 -1,-1 z m 2,2 h 6 v 2 h -2 v 6 h -2 v -6 h -2 z m 10,2 v 7 c 0,1.09545 -0.90455,2 -2,2 h -3.25977 c 0.79139,1.179569 2.13655,1.955078 3.66407,1.955078 h 0.17968 c 2.436,0 4.41016,-1.974165 4.41016,-4.410156 V 66.898438 C 437.99414,66.402438 437.5917,66 437.0957,66 Z m 3.76172,0 c 0.14681,0.268475 0.23242,0.575016 0.23242,0.898438 v 5.646484 c 0,0.751543 -0.15562,1.469171 -0.43555,2.121094 0.0982,0.0092 0.19631,0.01367 0.29688,0.01367 1.73735,0 3.14453,-1.401866 3.14453,-3.13086 V 66.939453 C 442,66.421456 441.57784,66 441.05664,66 Z"
         sodipodi:nodetypes="scsscssssssssssssssssccccccccccsscsssssccsscssssc" /><path
         id="path4361"
         style="display:inline;fill:#ffffff;fill-opacity:1;enable-background:new"
         d="m 313.5,231 c -2.48528,1e-5 -4.5,2.01472 -4.5,4.5 0.007,0.16745 0.0233,0.33437 0.0488,0.5 h 1.75781 c 1.19964,0 2.19336,0.99373 2.19336,2.19336 v 1.75781 c 0.16563,0.0256 0.33255,0.0419 0.5,0.0488 2.48528,-1e-5 4.5,-2.01472 4.5,-4.5 0,-2.48528 -2.01472,-4.49999 -4.5,-4.5 z m 8.5,3 c -1.65686,0 -3,1.34315 -3,3 0,1.65685 1.34314,3 3,3 1.65686,0 3,-1.34315 3,-3 0,-1.65685 -1.34314,-3 -3,-3 z m -22.80664,3 C 298.53417,237 298,237.53418 298,238.19336 v 11.61328 c 0,0.65919 0.53416,1.19336 1.19336,1.19336 h 11.61328 C 311.46583,251 312,250.46584 312,249.80664 V 238.19336 C 312,237.53418 311.46584,237 310.80664,237 Z M 302,240 h 6 v 2 h -2 v 6 h -2 v -6 h -2 z m 11,1 v 8.80664 C 313,251.00628 312.00627,252 310.80664,252 h -4.44336 c 0.92866,2.85541 3.52786,4.94558 6.63672,5.02344 3.9595,-0.0992 7.09212,-3.46201 7,-7.51367 v -7.25782 c 0.0153,-0.67518 -0.50621,-1.23525 -1.16602,-1.25195 z m 7.62891,0 c 0.24252,0.36837 0.38163,0.8092 0.37109,1.27539 v 7.21289 c 0.028,1.2302 -0.21111,2.4068 -0.66016,3.47266 0.36759,0.0985 0.75223,0.1563 1.15039,0.15625 h 0.0215 c 2.47925,0 4.48828,-2.03755 4.48828,-4.54883 v -6.33203 C 326,241.55304 325.45388,241 324.7793,241 Z"
         sodipodi:nodetypes="sccssccsssssssscssssssscccccccccccsccccccccccssssscc" /><path
         id="path4297"
         style="display:inline;enable-background:new;fill:#ffffff;fill-opacity:1"
         d="m 322,153 c -3.3137,0 -6,2.6863 -6,6 0.005,0.68225 0.12676,1.35862 0.35938,2 h 1.93554 c 1.48215,0 2.70508,1.22294 2.70508,2.70508 v 1.20312 c 0.33018,0.0585 0.6647,0.0892 1,0.0918 3.31371,0 6,-2.68629 6,-6 0,-3.3137 -2.68629,-6 -6,-6 z m 13,4 c -2.20914,1e-5 -4,1.79086 -4,4 0,2.20914 1.79086,3.99999 4,4 2.20914,-1e-5 4,-1.79086 4,-4 0,-2.20914 -1.79086,-3.99999 -4,-4 z m -33.29492,5 C 300.76339,162 300,162.76338 300,163.70508 v 16.58984 c 0,0.9417 0.76337,1.70508 1.70508,1.70508 h 16.58984 C 319.23662,182 320,181.23664 320,180.29492 V 163.70508 C 320,162.76338 319.23663,162 318.29492,162 Z M 306,167 h 8 v 2 h -3 v 8 h -2 v -8 h -3 z m 15,0 v 13.29492 C 321,181.77708 319.77705,183 318.29492,183 h -6.88086 c 1.26038,4.29354 5.26392,7.48265 10.08594,7.59766 5.93754,-0.14161 10.63423,-4.94401 10.49609,-10.73047 v -11.07813 c 0.0229,-0.96426 -0.75861,-1.7652 -1.74804,-1.78906 z m 11.34766,0 c 0.41615,0.49173 0.66475,1.12427 0.64843,1.8125 v 11.03125 c 0.0422,1.76745 -0.32889,3.45064 -1.02539,4.96289 0.48647,0.11649 0.9915,0.18366 1.51368,0.18359 h 0.0312 c 3.58115,0 6.48438,-2.9013 6.48438,-6.48242 v -9.74414 C 340,167.78933 339.21071,167 338.23633,167 Z"
         sodipodi:nodetypes="sccssccssssssssssssssssccccccccccssccccccccccsssssc" /><path
         id="path4371"
         style="display:inline;fill:#ffffff;fill-opacity:1;enable-background:new"
         d="M 339 48 C 334.02944 48.000008 330 52.029458 330 57 C 330.008 57.673848 330.0907 58.344724 330.24805 59 L 334.44336 59 C 336.93681 59 339 61.065167 339 63.558594 L 339 66 C 343.97055 65.999992 347.99999 61.970542 348 57 C 348 52.029458 343.97055 48.000008 339 48 z M 358 54 C 354.68629 53.999996 352 56.686292 352 60 C 352 63.313708 354.68629 66.000004 358 66 C 361.31371 66.000004 364 63.313708 364 60 C 364 56.686292 361.31371 53.999996 358 54 z M 308.55859 61 C 307.14606 61 306 62.146058 306 63.558594 L 306 89.441406 C 305.99999 90.853943 307.14604 92 308.55859 92 L 334.44141 92 C 335.85392 92 337 90.853973 337 89.441406 L 337 63.558594 C 337 62.146058 335.85394 61 334.44141 61 L 308.55859 61 z M 315 68 L 328 68 L 328 71 L 323 71 L 322.9668 85 L 320 85 L 320 71 L 315 71 L 315 68 z M 339 69 L 339 89.443359 C 339 91.936814 336.93677 94 334.44336 94 L 324.09766 94 C 326.31549 99.664108 331.66335 103.72408 338 103.88281 C 346.48219 103.67033 353.19345 96.467314 352.99609 87.785156 L 352.99609 71.683594 C 353.02879 70.236789 351.90954 69.0358 350.49609 69 L 339 69 z M 354.17188 69 C 354.70835 69.780645 355.01874 70.725705 354.99609 71.728516 L 354.99609 87.738281 C 355.05659 90.397424 354.53005 92.936921 353.54492 95.232422 C 354.32468 95.423471 355.13613 95.535271 355.97656 95.535156 L 356.02344 95.535156 C 361.53285 95.535156 365.99999 91.172312 366 85.791016 L 366 71.650391 C 365.99997 70.186186 364.7842 69 363.28516 69 L 354.17188 69 z " /><path
         id="path4373"
         style="display:inline;enable-background:new;fill:#ffffff;stroke:none;stroke-width:8;stroke-dasharray:none;stroke-opacity:1;paint-order:markers stroke fill"
         d="m 152,82 c -13.2548,3.9e-5 -23.99996,10.745195 -24,24 0.01,1.68157 0.19644,3.35744 0.55664,5 h 10.61133 C 145.10298,111 150,115.8971 150,121.83203 v 7.9707 c 0.66362,0.0936 1.33087,0.15947 2,0.19727 13.25481,-4e-5 23.99996,-10.74519 24,-24 -4e-5,-13.254805 -10.74519,-23.999961 -24,-24 z m 51.5,15 A 16.500049,16.500048 0 0 0 187,113.5 16.500049,16.500048 0 0 0 203.5,130 16.500049,16.500048 0 0 0 220,113.5 16.500049,16.500048 0 0 0 203.5,97 Z M 70.832031,115 C 67.05884,115 64,118.05882 64,121.83203 v 68.33594 C 64,193.94114 67.05877,197 70.832031,197 H 139.16797 C 142.94117,197 146,193.94121 146,190.16797 V 121.83203 C 146,118.05882 142.94124,115 139.16797,115 Z M 87,134 h 36 v 7 h -14 v 37 h -8 V 141 H 87 Z m 63,3 v 53.16797 C 150,196.10298 145.10293,201 139.16797,201 h -28.25781 c 5.22901,16.6802 20.61695,28.96664 39.08984,29.41797 23.19125,-0.56661 41.53959,-19.77924 41,-42.93164 v -43.33008 c 0.0895,-3.85817 -2.96743,-7.06078 -6.83203,-7.15625 z m 42.44532,0 c 1.64145,1.97328 2.61819,4.51009 2.55468,7.24805 v 43.14453 c 0.16377,7.02667 -1.27556,13.72586 -3.97461,19.7539 2.19145,0.59989 4.48733,0.9476 6.86914,0.94727 h 0.12305 C 212.36773,208.09375 224,196.45953 224,182.10937 V 144.07031 C 224,140.16578 220.83423,137 216.92969,137 Z" /></g><g
       inkscape:groupmode="layer"
       id="layer5"
       inkscape:label="Highlights"
       style="display:inline"
       sodipodi:insensitive="true"><path
         style="opacity:0.12999998;color:#bebebe;fill:#ffffff;fill-opacity:1;fill-rule:nonzero;stroke:none;stroke-width:0;marker:none;visibility:visible;display:inline;overflow:visible;enable-background:accumulate"
         d="M 84,47 C 56.836703,47 35,68.836703 35,96 l 0,1 C 35,69.836703 56.836703,48 84,48 l 120,0 c 27.1633,0 49,21.836703 49,49 l 0,-1 C 253,68.836703 231.1633,47 204,47 L 84,47 z"
         id="rect3894"
         inkscape:connector-curvature="0" /><path
         style="opacity:0.12999998;color:#bebebe;fill:#ffffff;fill-opacity:1;fill-rule:nonzero;stroke:none;stroke-width:0;marker:none;visibility:visible;display:inline;overflow:visible;enable-background:accumulate"
         d="m 419,141 c -1.1253,0 -2,0.8747 -2,2 l 0,1 c 0,-1.1253 0.8747,-2 2,-2 l 10,0 c 1.1253,0 2,0.8747 2,2 l 0,-1 c 0,-1.1253 -0.8747,-2 -2,-2 l -10,0 z"
         id="rect3896"
         inkscape:connector-curvature="0" /><path
         style="opacity:0.12999998;color:#bebebe;fill:#ffffff;fill-opacity:1;fill-rule:nonzero;stroke:none;stroke-width:0;marker:none;visibility:visible;display:inline;overflow:visible;enable-background:accumulate"
         d="m 422,102 c -2.2333,0 -4,1.7667 -4,4 l 0,1 c 0,-2.2333 1.7667,-4 4,-4 l 12,0 c 2.2333,0 4,1.7667 4,4 l 0,-1 c 0,-2.2333 -1.7667,-4 -4,-4 l -12,0 z"
         id="rect3898"
         inkscape:connector-curvature="0" /><path
         style="opacity:0.12999998;color:#bebebe;fill:#ffffff;fill-opacity:1;fill-rule:nonzero;stroke:none;stroke-width:0;marker:none;visibility:visible;display:inline;overflow:visible;enable-background:accumulate"
         d="m 424,54 c -3.3413,0 -6,2.658703 -6,6 l 0,1 c 0,-3.341297 2.6587,-6 6,-6 l 16,0 c 3.3413,0 6,2.658703 6,6 l 0,-1 c 0,-3.341297 -2.6587,-6 -6,-6 l -16,0 z"
         id="rect3900"
         inkscape:connector-curvature="0" /><path
         style="opacity:0.12999998;color:#bebebe;fill:#ffffff;fill-opacity:1;fill-rule:nonzero;stroke:none;stroke-width:0;marker:none;visibility:visible;display:inline;overflow:visible;enable-background:accumulate"
         d="m 300,224 c -4.4493,0 -8,3.5507 -8,8 l 0,1 c 0,-4.4493 3.5507,-8 8,-8 l 24,0 c 4.4493,0 8,3.5507 8,8 l 0,-1 c 0,-4.4493 -3.5507,-8 -8,-8 l -24,0 z"
         id="rect3902"
         inkscape:connector-curvature="0" /><path
         style="opacity:0.12999998;color:#bebebe;fill:#ffffff;fill-opacity:1;fill-rule:nonzero;stroke:none;stroke-width:0;marker:none;visibility:visible;display:inline;overflow:visible;enable-background:accumulate"
         d="m 310,33 c -9.4353,0 -17,7.564703 -17,17 l 0,1 c 0,-9.435297 7.5647,-17 17,-17 l 52,0 c 9.4353,0 17,7.564703 17,17 l 0,-1 c 0,-9.435297 -7.5647,-17 -17,-17 l -52,0 z"
         id="rect3904"
         inkscape:connector-curvature="0" /><path
         style="opacity:0.12999998;color:#bebebe;fill:#ffffff;fill-opacity:1;fill-rule:nonzero;stroke:none;stroke-width:0;marker:none;visibility:visible;display:inline;overflow:visible;enable-background:accumulate"
         d="m 302.5,143 c -6.3883,0 -11.5,5.1117 -11.5,11.5 l 0,1 c 0,-6.3883 5.1117,-11.5 11.5,-11.5 l 35,0 c 6.3883,0 11.5,5.1117 11.5,11.5 l 0,-1 c 0,-6.3883 -5.1117,-11.5 -11.5,-11.5 l -35,0 z"
         id="rect3906"
         inkscape:connector-curvature="0" /><path
         id="path4085"
         d="m 204,266 c 27.1633,0 49,-21.8367 49,-49 l 0,-1 c 0,27.1633 -21.8367,49 -49,49 L 84,265 C 56.8367,265 35,243.1633 35,216 l 0,1 c 0,27.1633 21.8367,49 49,49 l 120,0 z"
         style="opacity:0.5;color:#bebebe;fill:#000000;fill-opacity:1;fill-rule:nonzero;stroke:none;stroke-width:0;marker:none;visibility:visible;display:inline;overflow:visible;enable-background:accumulate"
         inkscape:connector-curvature="0" /><path
         id="path4087"
         d="m 429,156 c 1.1253,0 2,-0.8747 2,-2 l 0,-1 c 0,1.1253 -0.8747,2 -2,2 l -10,0 c -1.1253,0 -2,-0.8747 -2,-2 l 0,1 c 0,1.1253 0.8747,2 2,2 l 10,0 z"
         style="opacity:0.3;color:#bebebe;fill:#000000;fill-opacity:1;fill-rule:nonzero;stroke:none;stroke-width:0;marker:none;visibility:visible;display:inline;overflow:visible;enable-background:accumulate"
         inkscape:connector-curvature="0" /><path
         id="path4089"
         d="m 434,123 c 2.2333,0 4,-1.7667 4,-4 l 0,-1 c 0,2.2333 -1.7667,4 -4,4 l -12,0 c -2.2333,0 -4,-1.7667 -4,-4 l 0,1 c 0,2.2333 1.7667,4 4,4 l 12,0 z"
         style="opacity:0.3;color:#bebebe;fill:#000000;fill-opacity:1;fill-rule:nonzero;stroke:none;stroke-width:0;marker:none;visibility:visible;display:inline;overflow:visible;enable-background:accumulate"
         inkscape:connector-curvature="0" /><path
         id="path4091"
         d="m 440,83 c 3.3413,0 6,-2.6587 6,-6 l 0,-1 c 0,3.3413 -2.6587,6 -6,6 l -16,0 c -3.3413,0 -6,-2.6587 -6,-6 l 0,1 c 0,3.3413 2.6587,6 6,6 l 16,0 z"
         style="opacity:0.5;color:#bebebe;fill:#000000;fill-opacity:1;fill-rule:nonzero;stroke:none;stroke-width:0;marker:none;visibility:visible;display:inline;overflow:visible;enable-background:accumulate"
         inkscape:connector-curvature="0" /><path
         id="path4093"
         d="m 324,265 c 4.4493,0 8,-3.5507 8,-8 l 0,-1 c 0,4.4493 -3.5507,8 -8,8 l -24,0 c -4.4493,0 -8,-3.5507 -8,-8 l 0,1 c 0,4.4493 3.5507,8 8,8 l 24,0 z"
         style="opacity:0.5;color:#bebebe;fill:#000000;fill-opacity:1;fill-rule:nonzero;stroke:none;stroke-width:0;marker:none;visibility:visible;display:inline;overflow:visible;enable-background:accumulate"
         inkscape:connector-curvature="0" /><path
         id="path4095"
         d="m 362,120 c 9.4353,0 17,-7.5647 17,-17 l 0,-1 c 0,9.4353 -7.5647,17 -17,17 l -52,0 c -9.4353,0 -17,-7.5647 -17,-17 l 0,1 c 0,9.4353 7.5647,17 17,17 l 52,0 z"
         style="opacity:0.5;color:#bebebe;fill:#000000;fill-opacity:1;fill-rule:nonzero;stroke:none;stroke-width:0;marker:none;visibility:visible;display:inline;overflow:visible;enable-background:accumulate"
         inkscape:connector-curvature="0" /><path
         id="path4097"
         d="m 337.5,202 c 6.3883,0 11.5,-5.1117 11.5,-11.5 l 0,-1 c 0,6.3883 -5.1117,11.5 -11.5,11.5 l -35,0 c -6.3883,0 -11.5,-5.1117 -11.5,-11.5 l 0,1 c 0,6.3883 5.1117,11.5 11.5,11.5 l 35,0 z"
         style="opacity:0.5;color:#bebebe;fill:#000000;fill-opacity:1;fill-rule:nonzero;stroke:none;stroke-width:0;marker:none;visibility:visible;display:inline;overflow:visible;enable-background:accumulate"
         inkscape:connector-curvature="0" /><path
         inkscape:connector-curvature="0"
         id="path4280"
         d="M 84,265 C 56.836703,265 35,243.1633 35,216 l 0,-1 c 0,27.1633 21.836703,49 49,49 l 120,0 c 27.1633,0 49,-21.8367 49,-49 l 0,1 c 0,27.1633 -21.8367,49 -49,49 l -120,0 z"
         style="opacity:0.1;color:#bebebe;fill:#ffffff;fill-opacity:1;fill-rule:nonzero;stroke:none;stroke-width:0;marker:none;visibility:visible;display:inline;overflow:visible;enable-background:accumulate" /><path
         style="opacity:0.1;color:#bebebe;fill:#ffffff;fill-opacity:1;fill-rule:nonzero;stroke:none;stroke-width:0;marker:none;visibility:visible;display:inline;overflow:visible;enable-background:accumulate"
         d="m 300,264 c -4.4493,0 -8,-3.5507 -8,-8 l 0,-1 c 0,4.4493 3.5507,8 8,8 l 24,0 c 4.4493,0 8,-3.5507 8,-8 l 0,1 c 0,4.4493 -3.5507,8 -8,8 l -24,0 z"
         id="path4294"
         inkscape:connector-curvature="0" /><path
         style="opacity:0.1;color:#bebebe;fill:#ffffff;fill-opacity:1;fill-rule:nonzero;stroke:none;stroke-width:0;marker:none;visibility:visible;display:inline;overflow:visible;enable-background:accumulate"
         d="m 302.5,201 c -6.3883,0 -11.5,-5.1117 -11.5,-11.5 l 0,-1 c 0,6.3883 5.1117,11.5 11.5,11.5 l 35,0 c 6.3883,0 11.5,-5.1117 11.5,-11.5 l 0,1 c 0,6.3883 -5.1117,11.5 -11.5,11.5 l -35,0 z"
         id="path4296"
         inkscape:connector-curvature="0" /><path
         style="opacity:0.1;color:#bebebe;fill:#ffffff;fill-opacity:1;fill-rule:nonzero;stroke:none;stroke-width:0;marker:none;visibility:visible;display:inline;overflow:visible;enable-background:accumulate"
         d="m 310,119 c -9.4353,0 -17,-7.5647 -17,-17 l 0,-1 c 0,9.4353 7.5647,17 17,17 l 52,0 c 9.4353,0 17,-7.5647 17,-17 l 0,1 c 0,9.4353 -7.5647,17 -17,17 l -52,0 z"
         id="path4298"
         inkscape:connector-curvature="0" /><path
         style="opacity:0.1;color:#bebebe;fill:#ffffff;fill-opacity:1;fill-rule:nonzero;stroke:none;stroke-width:0;marker:none;visibility:visible;display:inline;overflow:visible;enable-background:accumulate"
         d="m 424,82 c -3.3413,0 -6,-2.658703 -6,-6 l 0,-1 c 0,3.341297 2.6587,6 6,6 l 16,0 c 3.3413,0 6,-2.658703 6,-6 l 0,1 c 0,3.341297 -2.6587,6 -6,6 l -16,0 z"
         id="path4300"
         inkscape:connector-curvature="0" /><path
         style="opacity:0.1;color:#bebebe;fill:#ffffff;fill-opacity:1;fill-rule:nonzero;stroke:none;stroke-width:0;marker:none;visibility:visible;display:inline;overflow:visible;enable-background:accumulate"
         d="m 422,122 c -2.2333,0 -4,-1.7667 -4,-4 l 0,-1 c 0,2.2333 1.7667,4 4,4 l 12,0 c 2.2333,0 4,-1.7667 4,-4 l 0,1 c 0,2.2333 -1.7667,4 -4,4 l -12,0 z"
         id="path4302"
         inkscape:connector-curvature="0" /><path
         style="opacity:0.1;color:#bebebe;fill:#ffffff;fill-opacity:1;fill-rule:nonzero;stroke:none;stroke-width:0;marker:none;visibility:visible;display:inline;overflow:visible;enable-background:accumulate"
         d="m 419,154.5 c -1.1253,0 -2,-0.8747 -2,-2 l 0,-1 c 0,1.1253 0.8747,2 2,2 l 10,0 c 1.1253,0 2,-0.8747 2,-2 l 0,1 c 0,1.1253 -0.8747,2 -2,2 l -10,0 z"
         id="path4304"
         inkscape:connector-curvature="0" /></g><g
       inkscape:groupmode="layer"
       id="layer3"
       inkscape:label="Border"
       style="display:inline"
       sodipodi:insensitive="true"><path
         style="opacity:0.41000001;color:#bebebe;fill:#000000;fill-opacity:1;fill-rule:nonzero;stroke:none;stroke-width:0;marker:none;visibility:visible;display:inline;overflow:visible;enable-background:accumulate"
         d="m 422,101 c -2.77,0 -5,2.23 -5,5 l 0,12 c 0,2.77 2.23,5 5,5 l 12,0 c 2.77,0 5,-2.23 5,-5 l 0,-12 c 0,-2.77 -2.23,-5 -5,-5 l -12,0 z m 0,1 12,0 c 2.2333,0 4,1.7667 4,4 l 0,12 c 0,2.2333 -1.7667,4 -4,4 l -12,0 c -2.2333,0 -4,-1.7667 -4,-4 l 0,-12 c 0,-2.2333 1.7667,-4 4,-4 z"
         id="rect4099"
         inkscape:connector-curvature="0" /><path
         style="opacity:0.41000001;color:#bebebe;fill:#000000;fill-opacity:1;fill-rule:nonzero;stroke:none;stroke-width:0;marker:none;visibility:visible;display:inline;overflow:visible;enable-background:accumulate"
         d="m 424,53 c -3.878,0 -7,3.122 -7,7 l 0,16 c 0,3.878 3.122,7 7,7 l 16,0 c 3.878,0 7,-3.122 7,-7 l 0,-16 c 0,-3.878 -3.122,-7 -7,-7 l -16,0 z m 0,1 16,0 c 3.3413,0 6,2.658703 6,6 l 0,16 c 0,3.341297 -2.6587,6 -6,6 l -16,0 c -3.3413,0 -6,-2.658703 -6,-6 l 0,-16 c 0,-3.341297 2.6587,-6 6,-6 z"
         id="rect4151"
         inkscape:connector-curvature="0" /><path
         style="opacity:0.41000001;color:#bebebe;fill:#000000;fill-opacity:1;fill-rule:nonzero;stroke:none;stroke-width:0;marker:none;visibility:visible;display:inline;overflow:visible;enable-background:accumulate"
         d="m 419,140 c -1.662,0 -3,1.338 -3,3 l 0,10 c 0,1.662 1.338,3 3,3 l 10,0 c 1.662,0 3,-1.338 3,-3 l 0,-10 c 0,-1.662 -1.338,-3 -3,-3 l -10,0 z m 0,1 10,0 c 1.1253,0 2,0.8747 2,2 l 0,10 c 0,1.1253 -0.8747,2 -2,2 l -10,0 c -1.1253,0 -2,-0.8747 -2,-2 l 0,-10 c 0,-1.1253 0.8747,-2 2,-2 z"
         id="rect4095"
         inkscape:connector-curvature="0" /><path
         style="opacity:0.41000001;color:#bebebe;fill:#000000;fill-opacity:1;fill-rule:nonzero;stroke:none;stroke-width:0;marker:none;visibility:visible;display:inline;overflow:visible;enable-background:accumulate"
         d="m 300,223 c -4.986,0 -9,4.014 -9,9 l 0,24 c 0,4.986 4.014,9 9,9 l 24,0 c 4.986,0 9,-4.014 9,-9 l 0,-24 c 0,-4.986 -4.014,-9 -9,-9 l -24,0 z m 0,1 24,0 c 4.4493,0 8,3.5507 8,8 l 0,24 c 0,4.4493 -3.5507,8 -8,8 l -24,0 c -4.4493,0 -8,-3.5507 -8,-8 l 0,-24 c 0,-4.4493 3.5507,-8 8,-8 z"
         id="rect4783"
         inkscape:connector-curvature="0" /><path
         style="opacity:0.41000001;color:#bebebe;fill:#000000;fill-opacity:1;fill-rule:nonzero;stroke:none;stroke-width:0;marker:none;visibility:visible;display:inline;overflow:visible;enable-background:accumulate"
         d="m 302.5,142 c -6.925,0 -12.5,5.575 -12.5,12.5 l 0,35 c 0,6.925 5.575,12.5 12.5,12.5 l 35,0 c 6.925,0 12.5,-5.575 12.5,-12.5 l 0,-35 c 0,-6.925 -5.575,-12.5 -12.5,-12.5 l -35,0 z m 0,1 35,0 c 6.3883,0 11.5,5.1117 11.5,11.5 l 0,35 c 0,6.3883 -5.1117,11.5 -11.5,11.5 l -35,0 c -6.3883,0 -11.5,-5.1117 -11.5,-11.5 l 0,-35 c 0,-6.3883 5.1117,-11.5 11.5,-11.5 z"
         id="rect4515"
         inkscape:connector-curvature="0" /><path
         style="opacity:0.41000001;color:#bebebe;fill:#000000;fill-opacity:1;fill-rule:nonzero;stroke:none;stroke-width:0;marker:none;visibility:visible;display:inline;overflow:visible;enable-background:accumulate"
         d="m 310,32 c -9.972,0 -18,8.028 -18,18 l 0,52 c 0,9.972 8.028,18 18,18 l 52,0 c 9.972,0 18,-8.028 18,-18 l 0,-52 c 0,-9.972 -8.028,-18 -18,-18 l -52,0 z m 0,1 52,0 c 9.4353,0 17,7.564703 17,17 l 0,52 c 0,9.4353 -7.5647,17 -17,17 l -52,0 c -9.4353,0 -17,-7.5647 -17,-17 l 0,-52 c 0,-9.435297 7.5647,-17 17,-17 z"
         id="rect4511"
         inkscape:connector-curvature="0" /><path
         style="opacity:0.41000001;color:#bebebe;fill:#000000;fill-opacity:1;fill-rule:nonzero;stroke:none;stroke-width:0;marker:none;visibility:visible;display:inline;overflow:visible;enable-background:accumulate"
         d="M 84,46 C 56.3,46 34,68.3 34,96 l 0,120 c 0,27.7 22.3,50 50,50 l 120,0 c 27.7,0 50,-22.3 50,-50 L 254,96 C 254,68.3 231.7,46 204,46 L 84,46 z m 0,1 120,0 c 27.1633,0 49,21.836703 49,49 l 0,120 c 0,27.1633 -21.8367,49 -49,49 L 84,265 C 56.836703,265 35,243.1633 35,216 L 35,96 C 35,68.836703 56.836703,47 84,47 z"
         id="rect4040"
         inkscape:connector-curvature="0" /></g></g></svg>
