<svg id="Camada_1" data-name="Camada 1" xmlns="http://www.w3.org/2000/svg" xmlns:xlink="http://www.w3.org/1999/xlink" width="16px" height="16px" viewBox="0 0 16 16"><defs><style>.cls-1,.cls-3,.cls-4,.cls-5{isolation:isolate;}.cls-1{opacity:0.15;}.cls-2{fill:url(#Gradiente_sem_nome_205);}.cls-3,.cls-4,.cls-7{fill:#fff;}.cls-3{opacity:0.13;}.cls-4{opacity:0.1;}.cls-5{opacity:0.41;}.cls-10,.cls-11,.cls-6,.cls-7,.cls-8,.cls-9{fill-rule:evenodd;}.cls-6{fill:url(#Gradiente_sem_nome_4);}.cls-8{fill:url(#Gradiente_sem_nome_5);}.cls-9{fill:#161616;}.cls-10{fill:url(#Gradiente_sem_nome_3);}.cls-11{fill:url(#Gradiente_sem_nome_5-2);}.cls-12{fill:#ffac38;}.cls-13{fill:#919191;}.cls-14{fill:#242424;}</style><linearGradient id="Gradiente_sem_nome_205" x1="559" y1="286" x2="573" y2="286" gradientTransform="matrix(0, -1, -1, 0, 294, 574)" gradientUnits="userSpaceOnUse"><stop offset="0" stop-color="#ff6647"/><stop offset="1" stop-color="#ffa64f"/></linearGradient><linearGradient id="Gradiente_sem_nome_4" x1="5.0722" y1="2.7695" x2="12.6136" y2="10.3108" gradientUnits="userSpaceOnUse"><stop offset="0" stop-color="#a39a83"/><stop offset="1" stop-color="#574d36"/></linearGradient><linearGradient id="Gradiente_sem_nome_5" x1="5.5695" y1="6.6751" x2="6.7176" y2="7.8231" gradientUnits="userSpaceOnUse"><stop offset="0" stop-color="#333"/><stop offset="1" stop-color="#1a1a1a"/></linearGradient><linearGradient id="Gradiente_sem_nome_3" x1="1.9928" y1="6.8981" x2="4.6943" y2="9.5997" gradientUnits="userSpaceOnUse"><stop offset="0" stop-color="#575757"/><stop offset="1" stop-color="#1a1a1a"/></linearGradient><linearGradient id="Gradiente_sem_nome_5-2" x1="8.3695" y1="6.6751" x2="9.5176" y2="7.8231" xlink:href="#Gradiente_sem_nome_5"/></defs><path id="path4270" class="cls-1" d="M3,0A2.9934,2.9934,0,0,0,0,3V13a2.9934,2.9934,0,0,0,3,3H13a2.9934,2.9934,0,0,0,3-3V3a2.9934,2.9934,0,0,0-3-3Z"/><path id="path4202" class="cls-2" d="M3,.5A2.4953,2.4953,0,0,0,.5,3V13A2.4953,2.4953,0,0,0,3,15.5H13A2.4953,2.4953,0,0,0,15.5,13V3A2.4953,2.4953,0,0,0,13,.5Z"/><path id="rect3896" class="cls-3" d="M3,1A1.974,1.974,0,0,0,1,3V4A1.974,1.974,0,0,1,3,2H13a1.974,1.974,0,0,1,2,2V3a1.974,1.974,0,0,0-2-2Z"/><path id="path4087" class="cls-1" d="M13,16a1.974,1.974,0,0,0,2-2V13a1.974,1.974,0,0,1-2,2H3a1.974,1.974,0,0,1-2-2v1a1.974,1.974,0,0,0,2,2Z"/><path id="path4304" class="cls-4" d="M3,14.5a1.974,1.974,0,0,1-2-2v-1a1.974,1.974,0,0,0,2,2H13a1.974,1.974,0,0,0,2-2v1a1.974,1.974,0,0,1-2,2Z"/><path id="rect4095" class="cls-5" d="M3,0A2.9934,2.9934,0,0,0,0,3V13a2.9934,2.9934,0,0,0,3,3H13a2.9934,2.9934,0,0,0,3-3V3a2.9934,2.9934,0,0,0-3-3ZM3,1H13a1.974,1.974,0,0,1,2,2V13a1.974,1.974,0,0,1-2,2H3a1.974,1.974,0,0,1-2-2V3A1.974,1.974,0,0,1,3,1Z"/><path class="cls-6" d="M13.3451,2.4584a.2713.2713,0,0,0-.2422.1041.7074.7074,0,0,0-.1233.2427A3.1323,3.1323,0,0,1,11.9752,4.251,6.5168,6.5168,0,0,1,7.7335,5.6491a3.0423,3.0423,0,0,1-2.818-1.8286c-.1342-.2657-.372-.7608-.372-.4458v.4872l-.0068,2.721.0137.0332a.9035.9035,0,0,1-.0069.63c-.1277.3618-.5893.89-1.715,1.2276l-.1376.0409.0262.145a2.2,2.2,0,0,0,.6787,1.0792A7.2058,7.2058,0,0,0,4.828,10.817a8.5893,8.5893,0,0,0,4.0387,1.2312A4.198,4.198,0,0,0,12.61,10.1937c.9229-1.3808,1.3731-3.8962,1.0044-7.3285h-.0007a.7029.7029,0,0,0-.07-.2452.28.28,0,0,0-.1993-.159Z"/><path class="cls-7" d="M5.7432,5.2491a1.6483,1.6483,0,0,0-1.0965.4,1.5641,1.5641,0,0,0-.5032,1.2,1.5628,1.5628,0,0,0,.5032,1.2,1.7026,1.7026,0,0,0,2.193,0,1.5628,1.5628,0,0,0,.5038-1.2,1.5642,1.5642,0,0,0-.5038-1.2A1.6479,1.6479,0,0,0,5.7432,5.2491Z"/><path class="cls-8" d="M6.1435,6.4491a.8209.8209,0,0,0-.5468.2005.8363.8363,0,0,0,0,1.199.846.846,0,0,0,1.0937,0,.8365.8365,0,0,0,0-1.199A.8212.8212,0,0,0,6.1435,6.4491Z"/><path class="cls-9" d="M5.3435,9.65c1.0775-.039,2.6826.1672,3.4247-.3223A2.0968,2.0968,0,0,1,8.5435,8.85a1.9226,1.9226,0,0,1,.7156.5728c.2323.3545-.2548.5729-.3156,1.0265a2.1614,2.1614,0,0,1-.0812-.7061C8,11.0315,6.7088,10.2516,5.3435,9.65Z"/><path class="cls-10" d="M2.9366,6.4491a1.2874,1.2874,0,0,0-.2083.0156,1.1236,1.1236,0,0,0-.4916.2067c-.5762.4275-.728,1.3963-.0163,2.4107s1.6535,1.172,2.23.7445.7285-1.3962.0168-2.4107a1.9755,1.9755,0,0,0-1.53-.9667Z"/><path class="cls-7" d="M8.5432,5.2491a1.6483,1.6483,0,0,0-1.0965.4,1.5641,1.5641,0,0,0-.5032,1.2,1.5628,1.5628,0,0,0,.5032,1.2,1.7026,1.7026,0,0,0,2.193,0,1.5628,1.5628,0,0,0,.5038-1.2,1.5642,1.5642,0,0,0-.5038-1.2A1.6479,1.6479,0,0,0,8.5432,5.2491Z"/><path class="cls-11" d="M8.9435,6.4491a.8209.8209,0,0,0-.5468.2005.8363.8363,0,0,0,0,1.199.846.846,0,0,0,1.0937,0,.8365.8365,0,0,0,0-1.199A.8212.8212,0,0,0,8.9435,6.4491Z"/><path class="cls-12" d="M11.4474,11.6963l.2594-.5165A17.38,17.38,0,0,0,8.8262,9.6987l-.2827.1426A10.9153,10.9153,0,0,0,11.4474,11.6963Z"/><path class="cls-13" d="M11.4564,10.7442l-.1352.089a.8727.8727,0,0,0-.3094.32,1.093,1.093,0,0,0-.1154.5767l.196-.0336s1.0234.2936,1.5079.448l.0566-.1091.2-.3862-1.4-.7172Z"/><path class="cls-14" d="M14.2565,13.5442c-.3563-1.1575-.4827-2.0767-1.4138-1.9949-.75.0659-.8028,1.095-.0275,1.3789C13.5621,13.2018,14.2565,13.5442,14.2565,13.5442Z"/></svg>