<svg id="Camada_1" data-name="Camada 1" xmlns="http://www.w3.org/2000/svg" xmlns:xlink="http://www.w3.org/1999/xlink" width="22px" height="22px" viewBox="0 0 22 22"><defs><style>.cls-1,.cls-3,.cls-4{isolation:isolate;}.cls-1{opacity:0.15;}.cls-2{fill:url(#Gradiente_sem_nome_205);}.cls-3,.cls-6{fill:#fff;}.cls-3{opacity:0.13;}.cls-4{opacity:0.41;}.cls-10,.cls-5,.cls-6,.cls-7,.cls-8,.cls-9{fill-rule:evenodd;}.cls-5{fill:url(#Gradiente_sem_nome_4);}.cls-7{fill:url(#Gradiente_sem_nome_5);}.cls-8{fill:#161616;}.cls-9{fill:url(#Gradiente_sem_nome_2);}.cls-10{fill:url(#Gradiente_sem_nome_5-2);}.cls-11{fill:#ffac38;}.cls-12{fill:#919191;}.cls-13{fill:#242424;}</style><linearGradient id="Gradiente_sem_nome_205" x1="527" y1="329" x2="547" y2="329" gradientTransform="matrix(0, -1, -1, 0, 340, 548)" gradientUnits="userSpaceOnUse"><stop offset="0" stop-color="#ff6647"/><stop offset="1" stop-color="#ffa64f"/></linearGradient><linearGradient id="Gradiente_sem_nome_4" x1="6.6083" y1="3.1542" x2="17.9204" y2="14.4662" gradientUnits="userSpaceOnUse"><stop offset="0" stop-color="#a39a83"/><stop offset="1" stop-color="#574d36"/></linearGradient><linearGradient id="Gradiente_sem_nome_5" x1="7.3543" y1="9.0126" x2="9.0764" y2="10.7347" gradientUnits="userSpaceOnUse"><stop offset="0" stop-color="#333"/><stop offset="1" stop-color="#1a1a1a"/></linearGradient><linearGradient id="Gradiente_sem_nome_2" x1="1.9891" y1="9.3472" x2="6.0414" y2="13.3995" gradientUnits="userSpaceOnUse"><stop offset="0" stop-color="#575757"/><stop offset="1" stop-color="#1a1a1a"/></linearGradient><linearGradient id="Gradiente_sem_nome_5-2" x1="11.5543" y1="9.0126" x2="13.2764" y2="10.7347" xlink:href="#Gradiente_sem_nome_5"/></defs><path id="path4268" class="cls-1" d="M5,0A4.9891,4.9891,0,0,0,0,5V17a4.9891,4.9891,0,0,0,5,5H17a4.9891,4.9891,0,0,0,5-5V5a4.9891,4.9891,0,0,0-5-5Z"/><path id="path4204" class="cls-2" d="M5,.5A4.4851,4.4851,0,0,0,.5,5V17A4.4851,4.4851,0,0,0,5,21.5H17A4.4851,4.4851,0,0,0,21.5,17V5A4.4851,4.4851,0,0,0,17,.5Z"/><path id="rect3898" class="cls-3" d="M5,1A3.97,3.97,0,0,0,1,5V6A3.97,3.97,0,0,1,5,2H17a3.97,3.97,0,0,1,4,4V5a3.97,3.97,0,0,0-4-4Z"/><path id="rect4099" class="cls-4" d="M5,0A4.9891,4.9891,0,0,0,0,5V17a4.9891,4.9891,0,0,0,5,5H17a4.9891,4.9891,0,0,0,5-5V5a4.9891,4.9891,0,0,0-5-5ZM5,1H17a3.97,3.97,0,0,1,4,4V17a3.97,3.97,0,0,1-4,4H5a3.97,3.97,0,0,1-4-4V5A3.97,3.97,0,0,1,5,1Z"/><path class="cls-5" d="M19.0177,2.6877a.4064.4064,0,0,0-.3633.1561,1.0583,1.0583,0,0,0-.185.364,4.6979,4.6979,0,0,1-1.5066,2.1686A9.7747,9.7747,0,0,1,10.6,7.4737,4.5635,4.5635,0,0,1,6.3733,4.7308c-.2014-.3986-.558-1.1413-.558-.6687v.7307l-.01,4.0816.0206.05a1.3555,1.3555,0,0,1-.01.9454c-.1916.5427-.884,1.3347-2.5725,1.8415l-.2064.0613.0392.2174a3.3007,3.3007,0,0,0,1.0181,1.6189A10.8062,10.8062,0,0,0,6.242,15.2255,12.8846,12.8846,0,0,0,12.3,17.0723a6.2968,6.2968,0,0,0,5.6154-2.7817c1.3845-2.0712,2.06-5.8443,1.5066-10.9928h-.0009a1.0557,1.0557,0,0,0-.1046-.3678.421.421,0,0,0-.2989-.2385Z"/><path class="cls-6" d="M7.6149,6.8737a2.4717,2.4717,0,0,0-1.6448.6,2.3458,2.3458,0,0,0-.7548,1.8,2.3442,2.3442,0,0,0,.7548,1.8,2.554,2.554,0,0,0,3.29,0,2.3447,2.3447,0,0,0,.7557-1.7995,2.3463,2.3463,0,0,0-.7557-1.8A2.4717,2.4717,0,0,0,7.6149,6.8737Z"/><path class="cls-7" d="M8.2153,8.6737a1.232,1.232,0,0,0-.82.3007,1.2547,1.2547,0,0,0,0,1.7985,1.2689,1.2689,0,0,0,1.6406,0,1.2547,1.2547,0,0,0,0-1.7985A1.2319,1.2319,0,0,0,8.2153,8.6737Z"/><path class="cls-8" d="M7.0153,13.4742c1.6162-.0584,4.0239.2509,5.137-.4834a3.14,3.14,0,0,1-.337-.7161,2.8823,2.8823,0,0,1,1.0733.8593c.3485.5317-.3821.8593-.4733,1.54a3.2418,3.2418,0,0,1-.1219-1.0591C11,15.5473,9.0632,14.3774,7.0153,13.4742Z"/><path class="cls-9" d="M3.4049,8.6737a1.9243,1.9243,0,0,0-.3124.0234,1.6871,1.6871,0,0,0-.7375.31c-.8643.6412-1.0919,2.0944-.0243,3.6161s2.48,1.7579,3.3444,1.1167,1.0928-2.0943.0252-3.6161a2.9636,2.9636,0,0,0-2.2954-1.45Z"/><path class="cls-6" d="M11.8149,6.8737a2.4717,2.4717,0,0,0-1.6448.6,2.3458,2.3458,0,0,0-.7548,1.8,2.3442,2.3442,0,0,0,.7548,1.8,2.554,2.554,0,0,0,3.29,0,2.3447,2.3447,0,0,0,.7557-1.7995,2.3463,2.3463,0,0,0-.7557-1.8A2.4717,2.4717,0,0,0,11.8149,6.8737Z"/><path class="cls-10" d="M12.4153,8.6737a1.232,1.232,0,0,0-.82.3007,1.2547,1.2547,0,0,0,0,1.7985,1.2689,1.2689,0,0,0,1.6406,0,1.2547,1.2547,0,0,0,0-1.7985A1.2319,1.2319,0,0,0,12.4153,8.6737Z"/><path class="cls-11" d="M16.1711,16.5445,16.56,15.77a26.0677,26.0677,0,0,0-4.3209-2.2216l-.424.2139S14.4382,16.0462,16.1711,16.5445Z"/><path class="cls-12" d="M16.1846,15.1163l-.2028.1335a1.3088,1.3088,0,0,0-.4641.48,1.6387,1.6387,0,0,0-.1731.865l.294-.05s1.5351.44,2.2618.672l.085-.1637.2993-.5792-2.1-1.0758Z"/><path class="cls-13" d="M20.3847,19.3164c-.5344-1.7364-.724-3.1151-2.1206-2.9924-1.1255.0988-1.2043,1.6424-.0413,2.0683C19.3432,18.8027,20.3847,19.3164,20.3847,19.3164Z"/></svg>