<svg id="Camada_1" data-name="Camada 1" xmlns="http://www.w3.org/2000/svg" xmlns:xlink="http://www.w3.org/1999/xlink" width="24px" height="24px" viewBox="0 0 24 24"><defs><style>.cls-1,.cls-3,.cls-4,.cls-5{isolation:isolate;}.cls-1{opacity:0.15;}.cls-2{fill:url(#Gradiente_sem_nome_205);}.cls-3,.cls-4,.cls-7{fill:#fff;}.cls-3{opacity:0.13;}.cls-4{opacity:0.1;}.cls-5{opacity:0.41;}.cls-10,.cls-11,.cls-6,.cls-7,.cls-8,.cls-9{fill-rule:evenodd;}.cls-6{fill:url(#Gradiente_sem_nome_4);}.cls-8{fill:url(#Gradiente_sem_nome_5);}.cls-9{fill:#161616;}.cls-10{fill:url(#Gradiente_sem_nome_2);}.cls-11{fill:url(#Gradiente_sem_nome_5-2);}.cls-12{fill:#ffac38;}.cls-13{fill:#919191;}.cls-14{fill:#242424;}</style><linearGradient id="Gradiente_sem_nome_205" x1="288" y1="330" x2="308" y2="330" gradientTransform="matrix(0, -1, -1, 0, 342, 310)" gradientUnits="userSpaceOnUse"><stop offset="0" stop-color="#ff6647"/><stop offset="1" stop-color="#ffa64f"/></linearGradient><linearGradient id="Gradiente_sem_nome_4" x1="7.9011" y1="4.6772" x2="18.459" y2="15.2351" gradientUnits="userSpaceOnUse"><stop offset="0" stop-color="#a39a83"/><stop offset="1" stop-color="#574d36"/></linearGradient><linearGradient id="Gradiente_sem_nome_5" x1="8.5973" y1="10.1451" x2="10.2046" y2="11.7524" gradientUnits="userSpaceOnUse"><stop offset="0" stop-color="#333"/><stop offset="1" stop-color="#1a1a1a"/></linearGradient><linearGradient id="Gradiente_sem_nome_2" x1="3.5899" y1="10.4574" x2="7.372" y2="14.2395" gradientUnits="userSpaceOnUse"><stop offset="0" stop-color="#575757"/><stop offset="1" stop-color="#1a1a1a"/></linearGradient><linearGradient id="Gradiente_sem_nome_5-2" x1="12.5173" y1="10.1451" x2="14.1246" y2="11.7524" xlink:href="#Gradiente_sem_nome_5"/></defs><path id="path4268" class="cls-1" d="M6,1A4.9891,4.9891,0,0,0,1,6V18a4.9891,4.9891,0,0,0,5,5H18a4.9891,4.9891,0,0,0,5-5V6a4.9891,4.9891,0,0,0-5-5Z"/><path id="path4204" class="cls-2" d="M6,1.5A4.4851,4.4851,0,0,0,1.5,6V18A4.4851,4.4851,0,0,0,6,22.5H18A4.4851,4.4851,0,0,0,22.5,18V6A4.4851,4.4851,0,0,0,18,1.5Z"/><path id="rect3898" class="cls-3" d="M6,2A3.97,3.97,0,0,0,2,6V7A3.97,3.97,0,0,1,6,3H18a3.97,3.97,0,0,1,4,4V6a3.97,3.97,0,0,0-4-4Z"/><path id="path4089" class="cls-1" d="M18,23a3.97,3.97,0,0,0,4-4V18a3.97,3.97,0,0,1-4,4H6a3.97,3.97,0,0,1-4-4v1a3.97,3.97,0,0,0,4,4Z"/><path id="path4302" class="cls-4" d="M6,22a3.97,3.97,0,0,1-4-4V17a3.97,3.97,0,0,0,4,4H18a3.97,3.97,0,0,0,4-4v1a3.97,3.97,0,0,1-4,4Z"/><path id="rect4099" class="cls-5" d="M6,1A4.9891,4.9891,0,0,0,1,6V18a4.9891,4.9891,0,0,0,5,5H18a4.9891,4.9891,0,0,0,5-5V6a4.9891,4.9891,0,0,0-5-5ZM6,2H18a3.97,3.97,0,0,1,4,4V18a3.97,3.97,0,0,1-4,4H6a3.97,3.97,0,0,1-4-4V6A3.97,3.97,0,0,1,6,2Z"/><path class="cls-6" d="M19.4832,4.2418a.3794.3794,0,0,0-.3391.1457.9876.9876,0,0,0-.1726.34,4.3856,4.3856,0,0,1-1.4062,2.024,9.1229,9.1229,0,0,1-5.9385,1.9574,4.2588,4.2588,0,0,1-3.945-2.56c-.188-.372-.5208-1.0653-.5208-.6242v.682l-.01,3.81.0191.0465a1.2649,1.2649,0,0,1-.01.8824c-.1789.5065-.8251,1.2457-2.4011,1.7187l-.1926.0572.0366.2029a3.08,3.08,0,0,0,.95,1.5109,10.09,10.09,0,0,0,2.0051,1.5091,12.0256,12.0256,0,0,0,5.6542,1.7237,5.8776,5.8776,0,0,0,5.2411-2.5963c1.2922-1.9331,1.9224-5.4547,1.4062-10.26H19.86a.984.984,0,0,0-.0976-.3433.3928.3928,0,0,0-.279-.2226Z"/><path class="cls-7" d="M8.8405,8.1487a2.3074,2.3074,0,0,0-1.5351.56,2.19,2.19,0,0,0-.7044,1.68,2.1877,2.1877,0,0,0,.7044,1.6795,2.384,2.384,0,0,0,3.07,0,2.1883,2.1883,0,0,0,.7054-1.6795,2.19,2.19,0,0,0-.7054-1.68A2.3072,2.3072,0,0,0,8.8405,8.1487Z"/><path class="cls-8" d="M9.401,9.8287a1.15,1.15,0,0,0-.7657.2808,1.1711,1.1711,0,0,0,0,1.6785,1.1846,1.1846,0,0,0,1.5313,0,1.1709,1.1709,0,0,0,0-1.6785A1.15,1.15,0,0,0,9.401,9.8287Z"/><path class="cls-9" d="M8.281,14.3093c1.5084-.0545,3.7556.2341,4.7945-.4513a2.9287,2.9287,0,0,1-.3145-.6683,2.6906,2.6906,0,0,1,1.0017.802c.3253.4963-.3566.8021-.4417,1.437a3.0218,3.0218,0,0,1-.1138-.9884C12,16.2441,10.1923,15.1522,8.281,14.3093Z"/><path class="cls-10" d="M4.9112,9.8288a1.8068,1.8068,0,0,0-.2916.0218,1.5734,1.5734,0,0,0-.6882.2894c-.8068.5984-1.0192,1.9547-.0228,3.375S6.2234,15.1557,7.03,14.5573s1.02-1.9548.0235-3.3751A2.7663,2.7663,0,0,0,4.9112,9.8288Z"/><path class="cls-7" d="M12.7605,8.1487a2.3074,2.3074,0,0,0-1.5351.56,2.19,2.19,0,0,0-.7044,1.68,2.1877,2.1877,0,0,0,.7044,1.6795,2.384,2.384,0,0,0,3.07,0,2.1883,2.1883,0,0,0,.7054-1.6795,2.19,2.19,0,0,0-.7054-1.68A2.3072,2.3072,0,0,0,12.7605,8.1487Z"/><path class="cls-11" d="M13.321,9.8287a1.15,1.15,0,0,0-.7657.2808,1.1711,1.1711,0,0,0,0,1.6785,1.1846,1.1846,0,0,0,1.5313,0,1.1709,1.1709,0,0,0,0-1.6785A1.15,1.15,0,0,0,13.321,9.8287Z"/><path class="cls-12" d="M16.8264,17.1749l.3631-.7232a24.33,24.33,0,0,0-4.0329-2.0735l-.3956.2A15.2829,15.2829,0,0,0,16.8264,17.1749Z"/><path class="cls-13" d="M16.839,15.8419l-.1894.1245a1.2223,1.2223,0,0,0-.4331.448,1.5288,1.5288,0,0,0-.1615.8073l.2744-.047s1.4327.411,2.111.6272l.0793-.1528.2793-.5406-1.96-1.0041Z"/><path class="cls-14" d="M20.759,19.7619c-.4987-1.6206-.6757-2.9074-1.9792-2.7929-1.05.0923-1.124,1.533-.0385,1.93C19.787,19.2825,20.759,19.7619,20.759,19.7619Z"/></svg>