<svg id="Camada_1" data-name="Camada 1" xmlns="http://www.w3.org/2000/svg" xmlns:xlink="http://www.w3.org/1999/xlink" width="256px" height="256px" viewBox="0 0 256 256"><defs><style>.cls-1,.cls-3,.cls-4,.cls-5,.cls-6{isolation:isolate;}.cls-1{opacity:0.15;}.cls-2{fill:url(#Gradiente_sem_nome_194);}.cls-3,.cls-5,.cls-8{fill:#fff;}.cls-3,.cls-4{opacity:0.13;}.cls-5{opacity:0.1;}.cls-6{opacity:0.41;}.cls-10,.cls-11,.cls-12,.cls-7,.cls-8,.cls-9{fill-rule:evenodd;}.cls-7{fill:url(#Gradiente_sem_nome_6);}.cls-9{fill:url(#Gradiente_sem_nome_5);}.cls-10{fill:#161616;}.cls-11{fill:url(#Gradiente_sem_nome_3);}.cls-12{fill:url(#Gradiente_sem_nome_5-2);}.cls-13{fill:#ffac38;}.cls-14{fill:#919191;}.cls-15{fill:#242424;}</style><linearGradient id="Gradiente_sem_nome_194" x1="305" y1="118" x2="523" y2="118" gradientTransform="matrix(0, -1, -1, 0, 246, 542)" gradientUnits="userSpaceOnUse"><stop offset="0" stop-color="#ff6647"/><stop offset="1" stop-color="#ffa751"/></linearGradient><linearGradient id="Gradiente_sem_nome_6" x1="81.1554" y1="44.3113" x2="201.8172" y2="164.9731" gradientUnits="userSpaceOnUse"><stop offset="0" stop-color="#a39a83"/><stop offset="1" stop-color="#574d36"/></linearGradient><linearGradient id="Gradiente_sem_nome_5" x1="89.112" y1="106.8011" x2="107.4812" y2="125.1703" gradientUnits="userSpaceOnUse"><stop offset="0" stop-color="#333"/><stop offset="1" stop-color="#1a1a1a"/></linearGradient><linearGradient id="Gradiente_sem_nome_3" x1="31.884" y1="110.3701" x2="75.1084" y2="153.5945" gradientUnits="userSpaceOnUse"><stop offset="0" stop-color="#575757"/><stop offset="1" stop-color="#1a1a1a"/></linearGradient><linearGradient id="Gradiente_sem_nome_5-2" x1="133.912" y1="106.8011" x2="152.2812" y2="125.1703" xlink:href="#Gradiente_sem_nome_5"/></defs><rect id="rect4114" class="cls-1" x="18" y="19" width="220" height="220" rx="50"/><path id="path4200" class="cls-2" d="M68,18.5A49.3812,49.3812,0,0,0,18.5,68V188A49.3812,49.3812,0,0,0,68,237.5H188A49.3812,49.3812,0,0,0,237.5,188V68A49.3812,49.3812,0,0,0,188,18.5Z"/><path id="rect3894" class="cls-3" d="M68,19A48.8708,48.8708,0,0,0,19,68v1A48.8708,48.8708,0,0,1,68,20H188a48.8708,48.8708,0,0,1,49,49V68a48.8708,48.8708,0,0,0-49-49Z"/><path id="path4085" class="cls-4" d="M188,238a48.8708,48.8708,0,0,0,49-49v-1a48.8708,48.8708,0,0,1-49,49H68a48.8708,48.8708,0,0,1-49-49v1a48.8708,48.8708,0,0,0,49,49Z"/><path id="path4280" class="cls-5" d="M68,237a48.8708,48.8708,0,0,1-49-49v-1a48.8708,48.8708,0,0,0,49,49H188a48.8708,48.8708,0,0,0,49-49v1a48.8708,48.8708,0,0,1-49,49Z"/><path id="rect4040" class="cls-6" d="M68,18A49.8906,49.8906,0,0,0,18,68V188a49.8906,49.8906,0,0,0,50,50H188a49.8906,49.8906,0,0,0,50-50V68a49.8906,49.8906,0,0,0-50-50Zm0,1H188a48.8708,48.8708,0,0,1,49,49V188a48.8708,48.8708,0,0,1-49,49H68a48.8708,48.8708,0,0,1-49-49V68A48.8708,48.8708,0,0,1,68,19Z"/><path class="cls-7" d="M213.5221,39.3352a4.3359,4.3359,0,0,0-3.8756,1.6653,11.3,11.3,0,0,0-1.9727,3.8825c-.897,2.76-4.1913,13.0059-16.07,23.1324s-32.364,21.4568-67.8682,22.37c-21.5889.2526-36.4778-12.2222-45.0865-29.2571-2.1485-4.2513-5.9521-12.1738-5.9521-7.1328V61.79l-.11,43.5372.2192.531a14.458,14.458,0,0,1-.11,10.0846c-2.0436,5.7887-9.43,14.2362-27.44,19.642l-2.2018.6543.4184,2.3187c.999,5.617,4.9811,11.3739,10.86,17.2678a115.3208,115.3208,0,0,0,22.915,17.2467c18.3308,10.7813,41.809,19.301,64.62,19.6992s45.13-7.5779,59.8978-29.6716,21.97-62.34,16.07-117.2564h-.01A11.2386,11.2386,0,0,0,216.71,41.92a4.4884,4.4884,0,0,0-3.1882-2.544Z"/><path class="cls-8" d="M91.8919,83.9857a26.3693,26.3693,0,0,0-17.544,6.401c-4.8458,4.3075-8.0513,10.8718-8.0513,19.2036s3.2055,14.8869,8.0513,19.1944a27.243,27.243,0,0,0,35.088,0c4.8458-4.3075,8.0607-10.8626,8.0607-19.1944s-3.2149-14.8961-8.0607-19.2036A26.37,26.37,0,0,0,91.8919,83.9857Z"/><path class="cls-9" d="M98.2966,103.1857a13.1383,13.1383,0,0,0-8.75,3.2082,13.3833,13.3833,0,0,0,0,19.1836,13.5364,13.5364,0,0,0,17.5,0,13.3833,13.3833,0,0,0,0-19.1836A13.1383,13.1383,0,0,0,98.2966,103.1857Z"/><path class="cls-10" d="M85.4966,154.3918c17.24-.6232,42.9211,2.6759,54.7946-5.1571a33.4943,33.4943,0,0,1-3.5946-7.6378s7.72,3.4776,11.4484,9.1654c3.7176,5.672-4.0755,9.1664-5.0484,16.4234-2.1659-6.3737-.7527-8.7642-1.3-11.2969C128.0016,176.5042,107.3405,164.0256,85.4966,154.3918Z"/><path class="cls-11" d="M46.9855,103.1857a20.5938,20.5938,0,0,0-3.3327.25,17.9939,17.9939,0,0,0-7.8658,3.3072c-9.22,6.8395-11.6478,22.34-.26,38.5719s26.4546,18.7512,35.6742,11.9116,11.6567-22.34.2688-38.5718c-7.4733-10.6522-16.533-15.396-24.4846-15.4675Z"/><path class="cls-8" d="M136.6919,83.9857a26.3693,26.3693,0,0,0-17.544,6.401c-4.8458,4.3075-8.0513,10.8718-8.0513,19.2036s3.2055,14.8869,8.0513,19.1944a27.243,27.243,0,0,0,35.088,0c4.8458-4.3075,8.0607-10.8626,8.0607-19.1944s-3.2149-14.8961-8.0608-19.2036A26.3692,26.3692,0,0,0,136.6919,83.9857Z"/><path class="cls-12" d="M143.0966,103.1857a13.1386,13.1386,0,0,0-8.75,3.2082,13.3833,13.3833,0,0,0,0,19.1836,13.5364,13.5364,0,0,0,17.5,0,13.3833,13.3833,0,0,0,0-19.1836A13.1383,13.1383,0,0,0,143.0966,103.1857Z"/><path class="cls-13" d="M183.1585,187.1416l4.15-8.2652c-15.44-11.2957-46.09-23.6969-46.09-23.6969l-4.5222,2.2814S164.6737,181.8264,183.1585,187.1416Z"/><path class="cls-14" d="M183.3029,171.9076l-2.1642,1.4232a13.9683,13.9683,0,0,0-4.95,5.1189c-1.5094,3.5456-2.1054,5.7628-1.846,9.2269l3.1361-.537s16.3742,4.6975,24.1256,7.1681l.9067-1.7467,3.192-6.1783-22.4-11.4753Z"/><path class="cls-15" d="M228.1034,216.7079c-5.7005-18.5215-7.7224-33.2275-22.62-31.9189-12.0051,1.0546-12.8456,17.5192-.44,22.0626C216.9941,211.2283,228.1034,216.7079,228.1034,216.7079Z"/></svg>