<?xml version="1.0" encoding="UTF-8"?>
<svg xmlns="http://www.w3.org/2000/svg" xmlns:xlink="http://www.w3.org/1999/xlink" width="32px" height="32px" viewBox="0 0 32 32" version="1.1">
<defs>
<filter id="alpha" filterUnits="objectBoundingBox" x="0%" y="0%" width="100%" height="100%">
  <feColorMatrix type="matrix" in="SourceGraphic" values="0 0 0 0 1 0 0 0 0 1 0 0 0 0 1 0 0 0 1 0"/>
</filter>
<mask id="mask0">
  <g filter="url(#alpha)">
<rect x="0" y="0" width="32" height="32" style="fill:rgb(0%,0%,0%);fill-opacity:0.101961;stroke:none;"/>
  </g>
</mask>
<clipPath id="clip1">
  <rect x="0" y="0" width="32" height="32"/>
</clipPath>
<g id="surface5" clip-path="url(#clip1)">
<path style=" stroke:none;fill-rule:nonzero;fill:rgb(0%,0%,0%);fill-opacity:1;" d="M 8 2 L 24 2 C 27.867188 2 31 5.132812 31 9 L 31 25 C 31 28.867188 27.867188 32 24 32 L 8 32 C 4.132812 32 1 28.867188 1 25 L 1 9 C 1 5.132812 4.132812 2 8 2 Z M 8 2 "/>
</g>
<linearGradient id="linear0" gradientUnits="userSpaceOnUse" x1="-199.2757" y1="-242" x2="-171.2755" y2="-242" gradientTransform="matrix(0.000000000000000061,-1,1,0.000000000000000061,258,-169.2756)">
<stop offset="0" style="stop-color:rgb(100%,40%,27.843137%);stop-opacity:1;"/>
<stop offset="1" style="stop-color:rgb(100%,65.098039%,30.980392%);stop-opacity:1;"/>
</linearGradient>
<mask id="mask1">
  <g filter="url(#alpha)">
<rect x="0" y="0" width="32" height="32" style="fill:rgb(0%,0%,0%);fill-opacity:0.129412;stroke:none;"/>
  </g>
</mask>
<clipPath id="clip2">
  <rect x="0" y="0" width="32" height="32"/>
</clipPath>
<g id="surface8" clip-path="url(#clip2)">
<path style=" stroke:none;fill-rule:nonzero;fill:rgb(100%,100%,100%);fill-opacity:1;" d="M 8 2 C 4.707031 1.980469 2.019531 4.636719 2 7.929688 C 2 7.953125 2 7.976562 2 8 L 2 9 C 1.980469 5.707031 4.636719 3.019531 7.929688 3 C 7.953125 3 7.976562 3 8 3 L 24 3 C 27.292969 2.980469 29.980469 5.636719 30 8.929688 C 30 8.953125 30 8.976562 30 9 L 30 8 C 30.019531 4.707031 27.363281 2.019531 24.070312 2 Z M 8 2 "/>
</g>
<mask id="mask2">
  <g filter="url(#alpha)">
<rect x="0" y="0" width="32" height="32" style="fill:rgb(0%,0%,0%);fill-opacity:0.411765;stroke:none;"/>
  </g>
</mask>
<clipPath id="clip3">
  <rect x="0" y="0" width="32" height="32"/>
</clipPath>
<g id="surface11" clip-path="url(#clip3)">
<path style=" stroke:none;fill-rule:nonzero;fill:rgb(0%,0%,0%);fill-opacity:1;" d="M 24 31 C 27.292969 31.019531 29.980469 28.363281 30 25.070312 C 30 25.046875 30 25.023438 30 25 L 30 24 C 30.019531 27.292969 27.363281 29.980469 24.070312 30 L 8 30 C 4.707031 30.019531 2.019531 27.363281 2 24.070312 C 2 24.046875 2 24.023438 2 24 L 2 25 C 1.980469 28.292969 4.636719 30.980469 7.929688 31 Z M 24 31 "/>
</g>
<mask id="mask3">
  <g filter="url(#alpha)">
<rect x="0" y="0" width="32" height="32" style="fill:rgb(0%,0%,0%);fill-opacity:0.101961;stroke:none;"/>
  </g>
</mask>
<clipPath id="clip4">
  <rect x="0" y="0" width="32" height="32"/>
</clipPath>
<g id="surface14" clip-path="url(#clip4)">
<path style=" stroke:none;fill-rule:nonzero;fill:rgb(100%,100%,100%);fill-opacity:1;" d="M 8 30 C 4.707031 30.019531 2.019531 27.363281 2 24.070312 C 2 24.046875 2 24.023438 2 24 L 2 23 C 1.980469 26.292969 4.636719 28.980469 7.929688 29 L 24 29 C 27.292969 29.019531 29.980469 26.363281 30 23.070312 C 30 23.046875 30 23.023438 30 23 L 30 24 C 30.019531 27.292969 27.363281 29.980469 24.070312 30 Z M 8 30 "/>
</g>
<mask id="mask4">
  <g filter="url(#alpha)">
<rect x="0" y="0" width="32" height="32" style="fill:rgb(0%,0%,0%);fill-opacity:0.411765;stroke:none;"/>
  </g>
</mask>
<clipPath id="clip5">
  <rect x="0" y="0" width="32" height="32"/>
</clipPath>
<g id="surface17" clip-path="url(#clip5)">
<path style=" stroke:none;fill-rule:nonzero;fill:rgb(0%,0%,0%);fill-opacity:1;" d="M 8 1 C 4.140625 0.992188 1.007812 4.113281 1 7.96875 L 1 24 C 0.992188 27.859375 4.113281 30.992188 7.96875 31 L 24 31 C 27.859375 31.007812 30.992188 27.886719 31 24.03125 L 31 8 C 31.007812 4.140625 27.886719 1.007812 24.03125 1 Z M 8 2 L 24 2 C 27.292969 1.980469 29.980469 4.636719 30 7.929688 C 30 7.953125 30 7.976562 30 8 L 30 24 C 30.019531 27.292969 27.363281 29.980469 24.070312 30 L 8 30 C 4.707031 30.019531 2.019531 27.363281 2 24.070312 C 2 24.046875 2 24.023438 2 24 L 2 8 C 1.980469 4.707031 4.636719 2.019531 7.929688 2 Z M 8 2 "/>
</g>
<linearGradient id="linear1" gradientUnits="userSpaceOnUse" x1="10.1444" y1="5.5389" x2="25.2272" y2="20.6216" >
<stop offset="0" style="stop-color:rgb(63.921569%,60.392157%,51.372549%);stop-opacity:1;"/>
<stop offset="1" style="stop-color:rgb(34.117647%,30.196078%,21.176471%);stop-opacity:1;"/>
</linearGradient>
<linearGradient id="linear2" gradientUnits="userSpaceOnUse" x1="11.139" y1="13.3501" x2="13.4352" y2="15.6463" >
<stop offset="0" style="stop-color:rgb(20%,20%,20%);stop-opacity:1;"/>
<stop offset="1" style="stop-color:rgb(10.196078%,10.196078%,10.196078%);stop-opacity:1;"/>
</linearGradient>
<linearGradient id="linear3" gradientUnits="userSpaceOnUse" x1="3.9855" y1="13.7963" x2="9.3886" y2="19.1993" >
<stop offset="0" style="stop-color:rgb(34.117647%,34.117647%,34.117647%);stop-opacity:1;"/>
<stop offset="1" style="stop-color:rgb(10.196078%,10.196078%,10.196078%);stop-opacity:1;"/>
</linearGradient>
<linearGradient id="linear4" gradientUnits="userSpaceOnUse" x1="16.739" y1="13.3501" x2="19.0352" y2="15.6463" >
<stop offset="0" style="stop-color:rgb(20%,20%,20%);stop-opacity:1;"/>
<stop offset="1" style="stop-color:rgb(10.196078%,10.196078%,10.196078%);stop-opacity:1;"/>
</linearGradient>
</defs>
<g id="surface1">
<use xlink:href="#surface5" mask="url(#mask0)"/>
<path style=" stroke:none;fill-rule:nonzero;fill:url(#linear0);" d="M 8 1.5 C 4.421875 1.488281 1.511719 4.378906 1.5 7.957031 L 1.5 24 C 1.488281 27.578125 4.378906 30.488281 7.957031 30.5 L 24 30.5 C 27.578125 30.511719 30.488281 27.621094 30.5 24.042969 L 30.5 8 C 30.511719 4.421875 27.621094 1.511719 24.042969 1.5 Z M 8 1.5 "/>
<use xlink:href="#surface8" mask="url(#mask1)"/>
<use xlink:href="#surface11" mask="url(#mask2)"/>
<use xlink:href="#surface14" mask="url(#mask3)"/>
<use xlink:href="#surface17" mask="url(#mask4)"/>
<path style=" stroke:none;fill-rule:evenodd;fill:url(#linear1);" d="M 26.691406 4.917969 C 26.503906 4.898438 26.320312 4.976562 26.207031 5.125 C 26.09375 5.269531 26.007812 5.433594 25.957031 5.609375 C 25.578125 6.746094 24.882812 7.75 23.949219 8.5 C 22.464844 9.769531 19.90625 11.183594 15.464844 11.296875 C 13.023438 11.320312 10.804688 9.878906 9.832031 7.640625 C 9.5625 7.109375 9.085938 6.121094 9.085938 6.75 L 9.085938 7.722656 L 9.074219 13.164062 L 9.101562 13.230469 C 9.246094 13.640625 9.242188 14.089844 9.085938 14.492188 C 8.832031 15.214844 7.910156 16.273438 5.65625 16.949219 L 5.382812 17.03125 L 5.433594 17.320312 C 5.664062 18.15625 6.136719 18.910156 6.792969 19.476562 C 7.652344 20.3125 8.617188 21.039062 9.65625 21.632812 C 12.101562 23.113281 14.878906 23.960938 17.734375 24.097656 C 20.710938 24.277344 23.5625 22.867188 25.21875 20.386719 C 27.066406 17.625 27.96875 12.59375 27.230469 5.730469 C 27.210938 5.558594 27.164062 5.394531 27.089844 5.238281 C 27.015625 5.078125 26.867188 4.957031 26.691406 4.921875 Z M 26.691406 4.917969 "/>
<path style=" stroke:none;fill-rule:evenodd;fill:rgb(100%,100%,100%);fill-opacity:1;" d="M 11.488281 10.5 C 10.683594 10.488281 9.902344 10.773438 9.292969 11.296875 C 8.625 11.914062 8.257812 12.789062 8.285156 13.699219 C 8.257812 14.605469 8.625 15.484375 9.292969 16.097656 C 10.5625 17.164062 12.410156 17.164062 13.679688 16.097656 C 14.347656 15.484375 14.714844 14.605469 14.6875 13.699219 C 14.714844 12.789062 14.347656 11.914062 13.679688 11.296875 C 13.070312 10.773438 12.289062 10.488281 11.488281 10.5 Z M 11.488281 10.5 "/>
<path style=" stroke:none;fill-rule:evenodd;fill:url(#linear2);" d="M 12.285156 12.898438 C 11.886719 12.894531 11.496094 13.035156 11.191406 13.300781 C 10.871094 13.613281 10.6875 14.046875 10.6875 14.5 C 10.6875 14.949219 10.871094 15.382812 11.191406 15.695312 C 11.824219 16.230469 12.75 16.230469 13.378906 15.695312 C 13.703125 15.382812 13.886719 14.949219 13.886719 14.5 C 13.886719 14.046875 13.703125 13.613281 13.378906 13.300781 C 13.078125 13.035156 12.6875 12.894531 12.285156 12.898438 Z M 12.285156 12.898438 "/>
<path style=" stroke:none;fill-rule:evenodd;fill:rgb(8.627451%,8.627451%,8.627451%);fill-opacity:1;" d="M 10.6875 19.300781 C 12.84375 19.222656 16.050781 19.632812 17.535156 18.65625 C 17.347656 18.355469 17.195312 18.035156 17.085938 17.699219 C 17.648438 17.960938 18.140625 18.355469 18.519531 18.84375 C 18.984375 19.554688 18.007812 19.992188 17.886719 20.898438 C 17.753906 20.441406 17.699219 19.960938 17.722656 19.484375 C 16 22.0625 13.417969 20.503906 10.6875 19.300781 Z M 10.6875 19.300781 "/>
<path style=" stroke:none;fill-rule:evenodd;fill:url(#linear3);" d="M 5.875 12.898438 C 5.734375 12.898438 5.59375 12.90625 5.457031 12.929688 C 5.101562 12.988281 4.761719 13.128906 4.472656 13.34375 C 3.320312 14.199219 3.015625 16.136719 4.441406 18.164062 C 5.863281 20.191406 7.746094 20.507812 8.898438 19.652344 C 10.050781 18.796875 10.355469 16.859375 8.933594 14.832031 C 8.285156 13.730469 7.144531 13.011719 5.871094 12.898438 Z M 5.875 12.898438 "/>
<path style=" stroke:none;fill-rule:evenodd;fill:rgb(100%,100%,100%);fill-opacity:1;" d="M 17.085938 10.5 C 16.28125 10.488281 15.503906 10.773438 14.894531 11.296875 C 14.226562 11.914062 13.859375 12.789062 13.886719 13.699219 C 13.859375 14.605469 14.226562 15.484375 14.894531 16.097656 C 16.160156 17.164062 18.011719 17.164062 19.28125 16.097656 C 19.949219 15.484375 20.316406 14.605469 20.285156 13.699219 C 20.316406 12.789062 19.949219 11.914062 19.28125 11.296875 C 18.671875 10.773438 17.890625 10.488281 17.085938 10.5 Z M 17.085938 10.5 "/>
<path style=" stroke:none;fill-rule:evenodd;fill:url(#linear4);" d="M 17.886719 12.898438 C 17.484375 12.894531 17.097656 13.035156 16.792969 13.300781 C 16.46875 13.613281 16.285156 14.046875 16.285156 14.5 C 16.285156 14.949219 16.46875 15.382812 16.792969 15.695312 C 17.425781 16.230469 18.351562 16.230469 18.980469 15.695312 C 19.304688 15.382812 19.488281 14.949219 19.488281 14.5 C 19.488281 14.046875 19.304688 13.613281 18.980469 13.300781 C 18.675781 13.035156 18.289062 12.894531 17.886719 12.898438 Z M 17.886719 12.898438 "/>
<path style=" stroke:none;fill-rule:nonzero;fill:rgb(100%,67.45098%,21.960784%);fill-opacity:1;" d="M 22.894531 23.394531 L 23.414062 22.359375 C 21.589844 21.195312 19.660156 20.203125 17.652344 19.398438 L 17.085938 19.683594 C 17.085938 19.683594 20.585938 22.726562 22.894531 23.394531 Z M 22.894531 23.394531 "/>
<path style=" stroke:none;fill-rule:nonzero;fill:rgb(56.862745%,56.862745%,56.862745%);fill-opacity:1;" d="M 22.914062 21.488281 L 22.640625 21.667969 C 22.382812 21.824219 22.171875 22.042969 22.023438 22.304688 C 21.84375 22.664062 21.761719 23.0625 21.792969 23.460938 L 22.183594 23.394531 C 22.183594 23.394531 24.230469 23.980469 25.199219 24.289062 L 25.3125 24.070312 L 25.714844 23.296875 L 22.914062 21.863281 Z M 22.914062 21.488281 "/>
<path style=" stroke:none;fill-rule:nonzero;fill:rgb(14.117647%,14.117647%,14.117647%);fill-opacity:1;" d="M 28.511719 27.089844 C 27.800781 24.773438 27.546875 22.933594 25.683594 23.097656 C 24.183594 23.230469 24.078125 25.289062 25.628906 25.855469 C 27.125 26.402344 28.511719 27.089844 28.511719 27.089844 Z M 28.511719 27.089844 "/>
</g>
</svg>
