<svg id="Camada_1" data-name="Camada 1" xmlns="http://www.w3.org/2000/svg" xmlns:xlink="http://www.w3.org/1999/xlink" width="48px" height="48px" viewBox="0 0 48 48"><defs><style>.cls-1,.cls-3,.cls-4,.cls-5,.cls-6{isolation:isolate;}.cls-1{opacity:0.15;}.cls-2{fill:url(#Gradiente_sem_nome_194);}.cls-3,.cls-5,.cls-8{fill:#fff;}.cls-3,.cls-4{opacity:0.13;}.cls-5{opacity:0.1;}.cls-6{opacity:0.41;}.cls-10,.cls-11,.cls-12,.cls-7,.cls-8,.cls-9{fill-rule:evenodd;}.cls-7{fill:url(#Gradiente_sem_nome_6);}.cls-9{fill:url(#Gradiente_sem_nome_2);}.cls-10{fill:#161616;}.cls-11{fill:url(#Gradiente_sem_nome_5);}.cls-12{fill:url(#Gradiente_sem_nome_2-2);}.cls-13{fill:#ffac38;}.cls-14{fill:#919191;}.cls-15{fill:#242424;}</style><linearGradient id="Gradiente_sem_nome_194" x1="24" y1="44.5" x2="24" y2="3.5" gradientUnits="userSpaceOnUse"><stop offset="0" stop-color="#ff6647"/><stop offset="1" stop-color="#ffa751"/></linearGradient><linearGradient id="Gradiente_sem_nome_6" x1="15.2166" y1="8.3084" x2="37.8407" y2="30.9325" gradientUnits="userSpaceOnUse"><stop offset="0" stop-color="#a39a83"/><stop offset="1" stop-color="#574d36"/></linearGradient><linearGradient id="Gradiente_sem_nome_2" x1="16.7085" y1="20.0252" x2="20.1527" y2="23.4694" gradientUnits="userSpaceOnUse"><stop offset="0" stop-color="#333"/><stop offset="1" stop-color="#1a1a1a"/></linearGradient><linearGradient id="Gradiente_sem_nome_5" x1="5.9783" y1="20.6944" x2="14.0828" y2="28.799" gradientUnits="userSpaceOnUse"><stop offset="0" stop-color="#575757"/><stop offset="1" stop-color="#1a1a1a"/></linearGradient><linearGradient id="Gradiente_sem_nome_2-2" x1="25.1085" y1="20.0252" x2="28.5527" y2="23.4694" xlink:href="#Gradiente_sem_nome_2"/></defs><rect id="rect4122" class="cls-1" x="3" y="4" width="42" height="42" rx="9"/><path id="path4208" class="cls-2" d="M12,3.5A8.4734,8.4734,0,0,0,3.5,12V36A8.4734,8.4734,0,0,0,12,44.5H36A8.4734,8.4734,0,0,0,44.5,36V12A8.4734,8.4734,0,0,0,36,3.5Z"/><path id="rect3902" class="cls-3" d="M12,4a7.9606,7.9606,0,0,0-8,8v1a7.9606,7.9606,0,0,1,8-8H36a7.9606,7.9606,0,0,1,8,8V12a7.9606,7.9606,0,0,0-8-8Z"/><path id="path4093" class="cls-4" d="M36,45a7.9606,7.9606,0,0,0,8-8V36a7.9606,7.9606,0,0,1-8,8H12a7.9606,7.9606,0,0,1-8-8v1a7.9606,7.9606,0,0,0,8,8Z"/><path id="path4294" class="cls-5" d="M12,44a7.9606,7.9606,0,0,1-8-8V35a7.9606,7.9606,0,0,0,8,8H36a7.9606,7.9606,0,0,0,8-8v1a7.9606,7.9606,0,0,1-8,8Z"/><path id="rect4783" class="cls-6" d="M12,3a8.98,8.98,0,0,0-9,9V36a8.98,8.98,0,0,0,9,9H36a8.98,8.98,0,0,0,9-9V12a8.98,8.98,0,0,0-9-9Zm0,1H36a7.9606,7.9606,0,0,1,8,8V36a7.9606,7.9606,0,0,1-8,8H12a7.9606,7.9606,0,0,1-8-8V12A7.9606,7.9606,0,0,1,12,4Z"/><path class="cls-7" d="M40.0354,7.3753a.8132.8132,0,0,0-.7267.3123,2.1208,2.1208,0,0,0-.37.728,9.3969,9.3969,0,0,1-3.0132,4.3373C33.6983,14.6517,29.8574,16.776,23.2,16.9473c-4.048.0474-6.84-2.2916-8.4538-5.4857-.4028-.7971-1.116-2.2826-1.116-1.3374v1.4614L13.61,19.7488l.0411.1a2.7112,2.7112,0,0,1-.0206,1.8909c-.3832,1.0854-1.768,2.6693-5.145,3.6828l-.4129.1227.0785.4348a6.6007,6.6007,0,0,0,2.0362,3.2377,21.6225,21.6225,0,0,0,4.2965,3.2338A25.7715,25.7715,0,0,0,26.6,36.1447a12.5946,12.5946,0,0,0,11.2309-5.5635C40.6,26.4388,41.95,18.8925,40.8443,8.5956h-.002a2.1071,2.1071,0,0,0-.2091-.7356.8418.8418,0,0,0-.5978-.477Z"/><path class="cls-8" d="M17.23,15.7473a4.9446,4.9446,0,0,0-3.29,1.2,4.692,4.692,0,0,0-1.51,3.6007,4.6878,4.6878,0,0,0,1.51,3.5989,5.108,5.108,0,0,0,6.579,0,4.6889,4.6889,0,0,0,1.5114-3.5989,4.6931,4.6931,0,0,0-1.5114-3.6007A4.9444,4.9444,0,0,0,17.23,15.7473Z"/><path class="cls-9" d="M18.4306,19.3473a2.4631,2.4631,0,0,0-1.6406.6016,2.5093,2.5093,0,0,0,0,3.5969,2.5381,2.5381,0,0,0,3.2812,0,2.5093,2.5093,0,0,0,0-3.5969A2.4631,2.4631,0,0,0,18.4306,19.3473Z"/><path class="cls-10" d="M16.0306,28.9485c3.2325-.1169,8.0477.5017,10.274-.967a6.2786,6.2786,0,0,1-.674-1.4321,5.7662,5.7662,0,0,1,2.1466,1.7185c.697,1.0635-.7642,1.7187-.9466,3.0794a6.479,6.479,0,0,1-.2437-2.1182C24,33.0945,20.1263,30.7548,16.0306,28.9485Z"/><path class="cls-11" d="M8.81,19.3473a3.8612,3.8612,0,0,0-.6249.0468,3.373,3.373,0,0,0-1.4748.62c-1.7287,1.2824-2.184,4.1888-.0488,7.2322s4.96,3.5159,6.689,2.2335,2.1856-4.1888.05-7.2322c-1.4012-1.9973-3.1-2.8868-4.5908-2.9Z"/><path class="cls-8" d="M25.63,15.7473a4.9446,4.9446,0,0,0-3.29,1.2,4.692,4.692,0,0,0-1.51,3.6007,4.6878,4.6878,0,0,0,1.51,3.5989,5.108,5.108,0,0,0,6.579,0,4.6889,4.6889,0,0,0,1.5114-3.5989,4.6931,4.6931,0,0,0-1.5114-3.6007A4.9444,4.9444,0,0,0,25.63,15.7473Z"/><path class="cls-12" d="M26.8306,19.3473a2.4631,2.4631,0,0,0-1.6406.6016,2.5093,2.5093,0,0,0,0,3.5969,2.5381,2.5381,0,0,0,3.2812,0,2.5093,2.5093,0,0,0,0-3.5969A2.4631,2.4631,0,0,0,26.8306,19.3473Z"/><path class="cls-13" d="M34.3422,35.089l.7782-1.55a52.1357,52.1357,0,0,0-8.6419-4.4431l-.8479.4277S30.8763,34.0925,34.3422,35.089Z"/><path class="cls-14" d="M34.3693,32.2327l-.4058.2668a2.62,2.62,0,0,0-.9281.96,3.2767,3.2767,0,0,0-.3461,1.73l.588-.1007s3.07.8808,4.5235,1.344l.17-.3275.5985-1.1584-4.2-2.1517Z"/><path class="cls-15" d="M42.7694,40.6327c-1.0689-3.4727-1.448-6.23-4.2412-5.9848-2.251.1978-2.4086,3.2849-.0825,4.1368C40.6864,39.6053,42.7694,40.6327,42.7694,40.6327Z"/></svg>