<svg id="Camada_1" data-name="Camada 1" xmlns="http://www.w3.org/2000/svg" xmlns:xlink="http://www.w3.org/1999/xlink" width="64px" height="64px" viewBox="0 0 64 64"><defs><style>.cls-1,.cls-3,.cls-4,.cls-5,.cls-6{isolation:isolate;}.cls-1{opacity:0.15;}.cls-2{fill:url(#Gradiente_sem_nome_194);}.cls-3,.cls-5,.cls-8{fill:#fff;}.cls-3,.cls-4{opacity:0.13;}.cls-5{opacity:0.1;}.cls-6{opacity:0.41;}.cls-10,.cls-11,.cls-12,.cls-7,.cls-8,.cls-9{fill-rule:evenodd;}.cls-7{fill:url(#Gradiente_sem_nome_6);}.cls-9{fill:url(#Gradiente_sem_nome_5);}.cls-10{fill:#161616;}.cls-11{fill:url(#Gradiente_sem_nome_4);}.cls-12{fill:url(#Gradiente_sem_nome_5-2);}.cls-13{fill:#ffac38;}.cls-14{fill:#919191;}.cls-15{fill:#242424;}</style><linearGradient id="Gradiente_sem_nome_194" x1="481" y1="182" x2="539" y2="182" gradientTransform="matrix(0, -1, -1, 0, 214, 542)" gradientUnits="userSpaceOnUse"><stop offset="0" stop-color="#ff6647"/><stop offset="1" stop-color="#ffa751"/></linearGradient><linearGradient id="Gradiente_sem_nome_6" x1="20.2888" y1="11.0778" x2="50.4543" y2="41.2433" gradientUnits="userSpaceOnUse"><stop offset="0" stop-color="#a39a83"/><stop offset="1" stop-color="#574d36"/></linearGradient><linearGradient id="Gradiente_sem_nome_5" x1="22.278" y1="26.7003" x2="26.8703" y2="31.2926" gradientUnits="userSpaceOnUse"><stop offset="0" stop-color="#333"/><stop offset="1" stop-color="#1a1a1a"/></linearGradient><linearGradient id="Gradiente_sem_nome_4" x1="7.971" y1="27.5925" x2="18.7771" y2="38.3986" gradientUnits="userSpaceOnUse"><stop offset="0" stop-color="#575757"/><stop offset="1" stop-color="#1a1a1a"/></linearGradient><linearGradient id="Gradiente_sem_nome_5-2" x1="33.478" y1="26.7003" x2="38.0703" y2="31.2926" xlink:href="#Gradiente_sem_nome_5"/></defs><rect id="rect4126" class="cls-1" x="2" y="3" width="60" height="60" rx="12.5"/><path id="path4212" class="cls-2" d="M14.5,2.5a11.9649,11.9649,0,0,0-12,12v35a11.9649,11.9649,0,0,0,12,12h35a11.9649,11.9649,0,0,0,12-12v-35a11.9649,11.9649,0,0,0-12-12Z"/><path id="rect3906" class="cls-3" d="M14.5,3A11.4529,11.4529,0,0,0,3,14.5v1A11.4529,11.4529,0,0,1,14.5,4h35A11.4529,11.4529,0,0,1,61,15.5v-1A11.4529,11.4529,0,0,0,49.5,3Z"/><path id="path4097" class="cls-4" d="M49.5,62A11.4529,11.4529,0,0,0,61,50.5v-1A11.4529,11.4529,0,0,1,49.5,61h-35A11.4529,11.4529,0,0,1,3,49.5v1A11.4529,11.4529,0,0,0,14.5,62Z"/><path id="path4296" class="cls-5" d="M14.5,61A11.4529,11.4529,0,0,1,3,49.5v-1A11.4529,11.4529,0,0,0,14.5,60h35A11.4529,11.4529,0,0,0,61,48.5v1A11.4529,11.4529,0,0,1,49.5,61Z"/><path id="rect4515" class="cls-6" d="M14.5,2A12.4727,12.4727,0,0,0,2,14.5v35A12.4727,12.4727,0,0,0,14.5,62h35A12.4727,12.4727,0,0,0,62,49.5v-35A12.4727,12.4727,0,0,0,49.5,2Zm0,1h35A11.4529,11.4529,0,0,1,61,14.5v35A11.4529,11.4529,0,0,1,49.5,61h-35A11.4529,11.4529,0,0,1,3,49.5v-35A11.4529,11.4529,0,0,1,14.5,3Z"/><path class="cls-7" d="M53.3805,9.8338a1.0839,1.0839,0,0,0-.9689.4163,2.8241,2.8241,0,0,0-.4931.9706,12.531,12.531,0,0,1-4.0176,5.7832c-2.97,2.5317-8.0911,5.3641-16.9671,5.5925-5.3972.0632-9.12-3.0555-11.2716-7.3143-.5371-1.0628-1.488-3.0434-1.488-1.7832v1.9486l-.0274,10.8843.0548.1328a3.6145,3.6145,0,0,1-.0274,2.5211c-.511,1.4472-2.3575,3.559-6.86,4.91l-.55.1636.1046.58a8.802,8.802,0,0,0,2.715,4.317,28.8274,28.8274,0,0,0,5.7287,4.3117A34.3623,34.3623,0,0,0,35.467,48.1929c5.7028.1,11.2825-1.8945,14.9744-7.4179S55.9339,25.19,54.459,11.4609h-.0025a2.8114,2.8114,0,0,0-.2789-.9809,1.1221,1.1221,0,0,0-.7971-.636Z"/><path class="cls-8" d="M22.973,20.9964a6.592,6.592,0,0,0-4.386,1.6,6.2555,6.2555,0,0,0-2.0128,4.8009,6.2506,6.2506,0,0,0,2.0128,4.7986,6.8109,6.8109,0,0,0,8.772,0,6.2524,6.2524,0,0,0,2.0152-4.7986,6.2573,6.2573,0,0,0-2.0152-4.8009A6.5922,6.5922,0,0,0,22.973,20.9964Z"/><path class="cls-9" d="M24.5742,25.7964a3.2841,3.2841,0,0,0-2.1875.8021,3.3458,3.3458,0,0,0,0,4.7959,3.3843,3.3843,0,0,0,4.375,0,3.3458,3.3458,0,0,0,0-4.7959A3.2845,3.2845,0,0,0,24.5742,25.7964Z"/><path class="cls-10" d="M21.3742,38.598c4.31-.1558,10.73.6689,13.6986-1.2893a8.3725,8.3725,0,0,1-.8986-1.91,7.6881,7.6881,0,0,1,2.8621,2.2914c.9293,1.418-1.0189,2.2916-1.2621,4.1058a8.6423,8.6423,0,0,1-.3251-2.8242C32,44.1261,26.8351,41.0064,21.3742,38.598Z"/><path class="cls-11" d="M11.7464,25.7964a5.1485,5.1485,0,0,0-.8332.0624,4.4992,4.4992,0,0,0-1.9665.8268c-2.3049,1.71-2.9119,5.5851-.0649,9.643s6.6136,4.6878,8.9185,2.9779,2.9142-5.585.0672-9.643c-1.8683-2.663-4.1332-3.849-6.1211-3.8668Z"/><path class="cls-8" d="M34.173,20.9964a6.592,6.592,0,0,0-4.386,1.6,6.2555,6.2555,0,0,0-2.0128,4.8009,6.2506,6.2506,0,0,0,2.0128,4.7986,6.8109,6.8109,0,0,0,8.772,0,6.2524,6.2524,0,0,0,2.0152-4.7986,6.2573,6.2573,0,0,0-2.0152-4.8009A6.5922,6.5922,0,0,0,34.173,20.9964Z"/><path class="cls-12" d="M35.7742,25.7964a3.2841,3.2841,0,0,0-2.1875.8021,3.3458,3.3458,0,0,0,0,4.7959,3.3843,3.3843,0,0,0,4.375,0,3.3458,3.3458,0,0,0,0-4.7959A3.2845,3.2845,0,0,0,35.7742,25.7964Z"/><path class="cls-13" d="M45.79,46.7854l1.0376-2.0663c-3.86-2.8239-11.5225-5.9242-11.5225-5.9242l-1.13.57S41.1684,45.4566,45.79,46.7854Z"/><path class="cls-14" d="M45.8257,42.9769l-.541.3558a3.4915,3.4915,0,0,0-1.2375,1.28,4.37,4.37,0,0,0-.4615,2.3068l.784-.1343s4.0936,1.1744,6.0314,1.792l.2267-.4367.798-1.5445-5.6-2.8689Z"/><path class="cls-15" d="M57.0258,54.177c-1.4251-4.63-1.93-8.3069-5.6549-7.98-3.0013.2637-3.2114,4.38-.11,5.5157C54.2485,52.8071,57.0258,54.177,57.0258,54.177Z"/></svg>