<svg id="Camada_1" data-name="Camada 1" xmlns="http://www.w3.org/2000/svg" xmlns:xlink="http://www.w3.org/1999/xlink" width="96px" height="96px" viewBox="0 0 96 96"><defs><style>.cls-1,.cls-3,.cls-4,.cls-5,.cls-6{isolation:isolate;}.cls-1{opacity:0.15;}.cls-2{fill:url(#Gradiente_sem_nome_194);}.cls-3,.cls-5,.cls-8{fill:#fff;}.cls-3,.cls-4{opacity:0.13;}.cls-5{opacity:0.1;}.cls-6{opacity:0.41;}.cls-10,.cls-11,.cls-12,.cls-7,.cls-8,.cls-9{fill-rule:evenodd;}.cls-7{fill:url(#Gradiente_sem_nome_6);}.cls-9{fill:url(#Gradiente_sem_nome_5);}.cls-10{fill:#161616;}.cls-11{fill:url(#Gradiente_sem_nome_4);}.cls-12{fill:url(#Gradiente_sem_nome_5-2);}.cls-13{fill:#ffac38;}.cls-14{fill:#919191;}.cls-15{fill:#242424;}</style><linearGradient id="Gradiente_sem_nome_194" x1="403" y1="310" x2="489" y2="310" gradientTransform="matrix(0, -1, -1, 0, 358, 494)" gradientUnits="userSpaceOnUse"><stop offset="0" stop-color="#ff6647"/><stop offset="1" stop-color="#ffa751"/></linearGradient><linearGradient id="Gradiente_sem_nome_6" x1="30.4333" y1="16.6167" x2="75.6815" y2="61.8649" gradientUnits="userSpaceOnUse"><stop offset="0" stop-color="#a39a83"/><stop offset="1" stop-color="#574d36"/></linearGradient><linearGradient id="Gradiente_sem_nome_5" x1="33.417" y1="40.0504" x2="40.3055" y2="46.9389" gradientUnits="userSpaceOnUse"><stop offset="0" stop-color="#333"/><stop offset="1" stop-color="#1a1a1a"/></linearGradient><linearGradient id="Gradiente_sem_nome_4" x1="11.9565" y1="41.3888" x2="28.1657" y2="57.5979" gradientUnits="userSpaceOnUse"><stop offset="0" stop-color="#575757"/><stop offset="1" stop-color="#1a1a1a"/></linearGradient><linearGradient id="Gradiente_sem_nome_5-2" x1="50.217" y1="40.0504" x2="57.1055" y2="46.9389" xlink:href="#Gradiente_sem_nome_5"/></defs><rect id="rect4124" class="cls-1" x="4" y="5" width="88" height="88" rx="18"/><path id="path4210" class="cls-2" d="M22,4.5A17.4522,17.4522,0,0,0,4.5,22V74A17.4521,17.4521,0,0,0,22,91.5H74A17.4521,17.4521,0,0,0,91.5,74V22A17.4522,17.4522,0,0,0,74,4.5Z"/><path id="rect3904" class="cls-3" d="M22,5A16.9409,16.9409,0,0,0,5,22v1A16.9409,16.9409,0,0,1,22,6H74A16.9409,16.9409,0,0,1,91,23V22A16.9409,16.9409,0,0,0,74,5Z"/><path id="path4095" class="cls-4" d="M74,92A16.9409,16.9409,0,0,0,91,75V74A16.9409,16.9409,0,0,1,74,91H22A16.9409,16.9409,0,0,1,5,74v1A16.9409,16.9409,0,0,0,22,92Z"/><path id="path4298" class="cls-5" d="M22,91A16.9409,16.9409,0,0,1,5,74V73A16.9409,16.9409,0,0,0,22,90H74A16.9409,16.9409,0,0,0,91,73v1A16.9409,16.9409,0,0,1,74,91Z"/><path id="rect4511" class="cls-6" d="M22,4A17.9606,17.9606,0,0,0,4,22V74A17.9606,17.9606,0,0,0,22,92H74A17.9606,17.9606,0,0,0,92,74V22A17.9606,17.9606,0,0,0,74,4Zm0,1H74A16.9409,16.9409,0,0,1,91,22V74A16.9409,16.9409,0,0,1,74,91H22A16.9409,16.9409,0,0,1,5,74V22A16.9409,16.9409,0,0,1,22,5Z"/><path class="cls-7" d="M80.0708,14.7507a1.6262,1.6262,0,0,0-1.4534.6245,4.2366,4.2366,0,0,0-.74,1.4559,18.7951,18.7951,0,0,1-6.0264,8.6747c-4.4547,3.7976-12.1365,8.0463-25.4506,8.3888-8.0958.0948-13.6792-4.5833-16.9074-10.9714-.8057-1.5942-2.2321-4.5652-2.2321-2.6748v2.9228L27.22,39.4977l.0822.1991a5.4216,5.4216,0,0,1-.0411,3.7817c-.7663,2.1708-3.5361,5.3386-10.29,7.3658l-.8257.2454.1569.87c.3747,2.1063,1.8679,4.2652,4.0724,6.4754a43.2457,43.2457,0,0,0,8.5932,6.4675c6.874,4.043,15.6783,7.2379,24.2326,7.3872s16.9238-2.8417,22.4616-11.1268,8.2387-23.3775,6.0264-43.9712h-.0038a4.2171,4.2171,0,0,0-.4183-1.4713,1.6834,1.6834,0,0,0-1.1956-.954Z"/><path class="cls-8" d="M34.4594,31.4946a9.8881,9.8881,0,0,0-6.5789,2.4,9.3837,9.3837,0,0,0-3.0193,7.2014,9.376,9.376,0,0,0,3.0193,7.1979,10.2162,10.2162,0,0,0,13.1579,0,9.3782,9.3782,0,0,0,3.0228-7.1979,9.3858,9.3858,0,0,0-3.0228-7.2014A9.8882,9.8882,0,0,0,34.4594,31.4946Z"/><path class="cls-9" d="M36.8612,38.6946A4.9268,4.9268,0,0,0,33.58,39.8977a5.0187,5.0187,0,0,0,0,7.1939,5.0764,5.0764,0,0,0,6.5625,0,5.0189,5.0189,0,0,0,0-7.1939A4.9268,4.9268,0,0,0,36.8612,38.6946Z"/><path class="cls-10" d="M32.0612,57.8969c6.4649-.2337,16.0955,1.0035,20.548-1.9339a12.5646,12.5646,0,0,1-1.348-2.8641,11.5309,11.5309,0,0,1,4.2932,3.437c1.3941,2.127-1.5283,3.4374-1.8932,6.1587-.8122-2.39-.2822-3.2865-.4875-4.2363C48.0006,66.1891,40.2527,61.51,32.0612,57.8969Z"/><path class="cls-11" d="M17.62,38.6946a7.7232,7.7232,0,0,0-1.25.0936,6.7481,6.7481,0,0,0-2.95,1.24c-3.4574,2.5649-4.3679,8.3776-.0974,14.4645s9.92,7.0317,13.3778,4.4669,4.3713-8.3776.1008-14.4645c-2.8025-3.9945-6.2-5.7735-9.1817-5.8Z"/><path class="cls-8" d="M51.2594,31.4946a9.8881,9.8881,0,0,0-6.5789,2.4,9.3837,9.3837,0,0,0-3.0193,7.2014,9.376,9.376,0,0,0,3.0193,7.1979,10.2162,10.2162,0,0,0,13.1579,0,9.3782,9.3782,0,0,0,3.0228-7.1979,9.3858,9.3858,0,0,0-3.0228-7.2014A9.8882,9.8882,0,0,0,51.2594,31.4946Z"/><path class="cls-12" d="M53.6612,38.6946A4.9268,4.9268,0,0,0,50.38,39.8977a5.0187,5.0187,0,0,0,0,7.1939,5.0764,5.0764,0,0,0,6.5625,0,5.0189,5.0189,0,0,0,0-7.1939A4.9268,4.9268,0,0,0,53.6612,38.6946Z"/><path class="cls-13" d="M68.6845,70.1781l1.5563-3.0994c-5.79-4.2359-17.2837-8.8864-17.2837-8.8864l-1.6959.8555S61.7526,68.1849,68.6845,70.1781Z"/><path class="cls-14" d="M68.7386,64.4653l-.8116.5338a5.2381,5.2381,0,0,0-1.8562,1.9195,6.5544,6.5544,0,0,0-.6922,3.46l1.176-.2014s6.14,1.7616,9.0471,2.6881l.34-.655,1.197-2.3169-8.4-4.3032Z"/><path class="cls-15" d="M85.5388,81.2655c-2.1377-6.9456-2.8959-12.46-8.4824-11.97-4.5019.3954-4.8171,6.57-.165,8.2735C81.3728,79.2106,85.5388,81.2655,85.5388,81.2655Z"/></svg>