<?xml version="1.0" encoding="UTF-8" standalone="no"?>
<svg
   xmlns:dc="http://purl.org/dc/elements/1.1/"
   xmlns:cc="http://creativecommons.org/ns#"
   xmlns:rdf="http://www.w3.org/1999/02/22-rdf-syntax-ns#"
   xmlns:svg="http://www.w3.org/2000/svg"
   xmlns="http://www.w3.org/2000/svg"
   xmlns:xlink="http://www.w3.org/1999/xlink"
   xmlns:sodipodi="http://sodipodi.sourceforge.net/DTD/sodipodi-0.dtd"
   xmlns:inkscape="http://www.inkscape.org/namespaces/inkscape"
   id="svg3844"
   height="64"
   width="64"
   version="1.1"
   inkscape:version="0.91 r13725"
   sodipodi:docname="font-x-generic.svg">
  <sodipodi:namedview
     pagecolor="#ffffff"
     bordercolor="#666666"
     borderopacity="1"
     objecttolerance="10"
     gridtolerance="10"
     guidetolerance="10"
     inkscape:pageopacity="0"
     inkscape:pageshadow="2"
     inkscape:window-width="1920"
     inkscape:window-height="1026"
     id="namedview12"
     showgrid="false"
     inkscape:zoom="3.6875"
     inkscape:cx="32.542373"
     inkscape:cy="32"
     inkscape:window-x="0"
     inkscape:window-y="0"
     inkscape:window-maximized="1"
     inkscape:current-layer="svg3844" />
  <defs
     id="defs3846">
    <linearGradient
       gradientTransform="matrix(1.0843523,0,0,1.1997367,79.550862,-4.1628601)"
       gradientUnits="userSpaceOnUse"
       xlink:href="#linearGradient3104-6"
       id="linearGradient3033"
       y2="2.9062471"
       x2="-51.786404"
       y1="50.786446"
       x1="-51.786404" />
    <linearGradient
       id="linearGradient3104-6">
      <stop
         offset="0"
         style="stop-color:#000000;stop-opacity:0.31782946"
         id="stop3106-3" />
      <stop
         offset="1"
         style="stop-color:#000000;stop-opacity:0.24031007"
         id="stop3108-9" />
    </linearGradient>
  </defs>
  <metadata
     id="metadata3849">
    <rdf:RDF>
      <cc:Work
         rdf:about="">
        <dc:format>image/svg+xml</dc:format>
        <dc:type
           rdf:resource="http://purl.org/dc/dcmitype/StillImage" />
        <dc:title />
      </cc:Work>
    </rdf:RDF>
  </metadata>
  <path
     d="m 9,0.9998799 c 10.540935,0 45.999945,0.004 45.999945,0.004 L 55,59.00002 c 0,0 -30.666666,0 -46,0 0,-19.3334 0,-38.6665 0,-57.9998201 z"
     id="path4160-6"
     style="display:inline;fill:#fafafa;fill-opacity:1;stroke:none" />
  <path
     d="m 8.4999684,0.4998999 c 10.7700936,0 47.0000286,0.004 47.0000286,0.004 l 4.9e-5,58.9962201 c 0,0 -31.333384,0 -47.0000776,0 0,-19.6668 0,-39.3334 0,-58.9999701 z"
     id="path4160-6-1"
     style="display:inline;fill:none;stroke:url(#linearGradient3033);stroke-width:0.9999218;stroke-linecap:butt;stroke-linejoin:round;stroke-miterlimit:4;stroke-dasharray:none;stroke-dashoffset:0;stroke-opacity:1" />
  <path
     style="color:#000000;font-style:normal;font-variant:normal;font-weight:bold;font-stretch:normal;font-size:32.3381424px;line-height:125%;font-family:'Open Sans';-inkscape-font-specification:'Open Sans Bold';text-align:start;letter-spacing:0px;word-spacing:0px;writing-mode:lr-tb;text-anchor:start;display:inline;overflow:visible;visibility:visible;opacity:0.65;fill:#000000;fill-opacity:1;fill-rule:nonzero;stroke:none;marker:none;enable-background:accumulate"
     d="m 20.526233,18.340121 -8.062648,23.009555 5.209711,0 1.67455,-5.457792 8.341739,0 1.67455,5.457792 5.24072,0 -8.124668,-23.009555 z m 3.007988,3.566171 3.007987,9.923259 -5.984964,0 c 1.629558,-5.275193 2.632249,-8.586159 2.976977,-9.923259 z m 19.815507,1.581519 c -2.099968,0.115407 -4.034848,0.658373 -5.798905,1.581519 l 1.58152,3.22506 c 1.890711,-0.846109 3.530852,-1.271404 4.930619,-1.271418 1.817585,1.4e-5 2.728884,0.891077 2.728896,2.666876 l 0,0.744245 -3.038998,0.09303 c -2.621942,0.09402 -4.586195,0.600592 -5.891935,1.488489 -1.2953,0.877469 -1.922632,2.233971 -1.922632,4.093344 0,1.775815 0.46544,3.163328 1.426468,4.124354 0.97147,0.961029 2.287501,1.426468 3.969304,1.426468 1.368412,0 2.502969,-0.171683 3.3491,-0.558183 0.856558,-0.396945 1.676465,-1.126443 2.480815,-2.139703 l 0.124041,0 0.930304,2.387784 3.31809,0 0,-11.659828 c -1.7e-5,-2.089178 -0.607113,-3.658819 -1.860611,-4.682538 -1.253529,-1.023686 -3.076454,-1.519481 -5.426782,-1.519499 -0.306851,2e-6 -0.599301,-0.01648 -0.899295,0 z m 3.44213,9.737198 0,1.457478 c -1.2e-5,1.055047 -0.323797,1.905637 -0.992326,2.542835 -0.658105,0.637208 -1.528603,0.961319 -2.635866,0.961316 -1.546007,3e-6 -2.325769,-0.69914 -2.325763,-2.046672 -6e-6,-0.94013 0.344342,-1.618054 1.023336,-2.077683 0.678979,-0.459614 1.711697,-0.733462 3.101018,-0.775254 z"
     id="text3911"
     inkscape:connector-curvature="0" />
</svg>
