<?xml version="1.0" encoding="UTF-8" standalone="no"?>
<!-- Created with Inkscape (http://www.inkscape.org/) -->

<svg
   width="480"
   height="300"
   viewBox="0 0 480 300"
   version="1.1"
   id="svg5"
   inkscape:version="1.3 (1:1.3+202307231459+0e150ed6c4)"
   sodipodi:docname="applications-office.svg"
   xmlns:inkscape="http://www.inkscape.org/namespaces/inkscape"
   xmlns:sodipodi="http://sodipodi.sourceforge.net/DTD/sodipodi-0.dtd"
   xmlns="http://www.w3.org/2000/svg"
   xmlns:svg="http://www.w3.org/2000/svg">
  <sodipodi:namedview
     id="namedview7"
     pagecolor="#888888"
     bordercolor="#000000"
     borderopacity="0.25"
     inkscape:showpageshadow="true"
     inkscape:pageopacity="0"
     inkscape:pagecheckerboard="0"
     inkscape:deskcolor="#888888"
     inkscape:document-units="px"
     showgrid="false"
     showborder="false"
     inkscape:zoom="1.4958333"
     inkscape:cx="240"
     inkscape:cy="150.08357"
     inkscape:window-width="1920"
     inkscape:window-height="1008"
     inkscape:window-x="0"
     inkscape:window-y="0"
     inkscape:window-maximized="1"
     inkscape:current-layer="svg5" />
  <defs
     id="defs2" />
  <g
     id="Baseplate"
     style="display:none">
    <text
       y="19.774782"
       xml:space="preserve"
       x="15.006946"
       style="font-style:normal;font-variant:normal;font-weight:normal;font-stretch:normal;line-height:0%;font-family:'DejaVu Sans';-inkscape-font-specification:'DejaVu Sans';display:inline;fill:#000000;fill-opacity:1;stroke:none;enable-background:new"
       inkscape:label="context"
       id="context"><tspan
         style="font-style:normal;font-variant:normal;font-weight:normal;font-stretch:normal;font-size:18px;line-height:1.25;font-family:'DejaVu Sans';-inkscape-font-specification:'DejaVu Sans'"
         y="19.774782"
         x="15.006946"
         sodipodi:role="line"
         id="tspan3933">categories</tspan></text>
    <text
       y="19.774782"
       xml:space="preserve"
       x="122.48839"
       style="font-style:normal;font-variant:normal;font-weight:bold;font-stretch:normal;line-height:0%;font-family:'DejaVu Sans';-inkscape-font-specification:'DejaVu Sans Bold';text-align:start;writing-mode:lr-tb;text-anchor:start;display:inline;fill:#000000;fill-opacity:1;stroke:none;enable-background:new"
       inkscape:label="icon-name"
       id="icon-name"><tspan
         style="font-style:normal;font-variant:normal;font-weight:bold;font-stretch:normal;font-size:18px;line-height:1.25;font-family:'DejaVu Sans';-inkscape-font-specification:'DejaVu Sans Bold'"
         y="19.774782"
         x="122.48839"
         sodipodi:role="line"
         id="tspan3937">applications-office</tspan></text>
    <rect
       style="fill:#ffffff"
       id="256x256"
       width="256"
       height="256"
       x="16"
       y="28" />
    <rect
       style="fill:#ffffff"
       id="96x96"
       width="96"
       height="96"
       x="288"
       y="28" />
    <rect
       style="fill:#ffffff"
       id="64x64"
       width="64"
       height="64"
       x="288"
       y="140" />
    <rect
       style="fill:#ffffff"
       id="48x48"
       width="48"
       height="48"
       x="288"
       y="220" />
    <rect
       style="fill:#ffffff"
       id="32x32"
       width="32"
       height="32"
       x="416"
       y="52" />
    <rect
       style="fill:#ffffff"
       id="24x24"
       width="24"
       height="24"
       x="416"
       y="100" />
    <rect
       style="fill:#ffffff"
       id="22x22"
       width="22"
       height="22"
       x="417"
       y="101" />
    <rect
       style="fill:#ffffff"
       id="16x16"
       width="16"
       height="16"
       x="416"
       y="140" />
  </g>
  <g
     id="Shadow">
    <rect
       style="opacity:0.2;fill:#000000"
       id="rect651"
       width="224"
       height="224"
       x="32"
       y="46"
       ry="48" />
    <rect
       style="opacity:0.2;fill:#000000"
       id="rect769"
       width="84"
       height="85"
       x="294"
       y="34"
       ry="18" />
    <rect
       style="opacity:0.2;fill:#000000;fill-opacity:1"
       id="rect1131"
       width="56"
       height="56"
       x="292"
       y="145"
       ry="12" />
    <rect
       style="opacity:0.2;fill:#000000;fill-opacity:1"
       id="rect1261"
       width="42"
       height="42"
       x="291"
       y="224"
       ry="9" />
    <rect
       style="opacity:0.2;fill:#000000;fill-opacity:1"
       id="rect1364"
       width="28"
       height="29"
       x="418"
       y="54"
       ry="6" />
    <rect
       style="opacity:0.2;fill:#000000;fill-opacity:1"
       id="rect1398"
       width="16"
       height="16"
       x="416"
       y="141"
       ry="4" />
    <rect
       style="opacity:0.2;fill:#000000;fill-opacity:1"
       id="rect1432"
       width="20"
       height="20"
       x="418"
       y="103"
       ry="4" />
  </g>
  <g
     id="Background">
    <rect
       style="fill:#e4e4e4;fill-opacity:1"
       id="rect597"
       width="224"
       height="224"
       x="32"
       y="44"
       ry="48" />
    <rect
       style="opacity:1;fill:#e4e4e4;fill-opacity:1"
       id="rect771"
       width="84"
       height="84"
       x="294"
       y="34"
       ry="18" />
    <rect
       style="opacity:1;fill:#e4e4e4;fill-opacity:1"
       id="rect1133"
       width="56"
       height="56"
       x="292"
       y="144"
       ry="12" />
    <rect
       style="opacity:1;fill:#e4e4e4;fill-opacity:1"
       id="rect1263"
       width="42"
       height="42"
       x="291"
       y="223"
       ry="9" />
    <rect
       style="opacity:1;fill:#e4e4e4;fill-opacity:1"
       id="rect1366"
       width="28"
       height="28"
       x="418"
       y="54"
       ry="6" />
    <rect
       style="opacity:1;fill:#e4e4e4;fill-opacity:1"
       id="rect1400"
       width="16"
       height="16"
       x="416"
       y="140"
       ry="4" />
    <rect
       style="opacity:1;fill:#e4e4e4;fill-opacity:1"
       id="rect1434"
       width="20"
       height="20"
       x="418"
       y="102"
       ry="4" />
  </g>
  <g
     id="g8">
    <g
       id="g7">
      <path
         id="path2"
         style="opacity:0.3;fill:#000000"
         d="m 426,143 v 1 h 3 v -1 z m 0,2 v 1 h 3 v -1 z m 0,2 v 1 h 3 v -1 z m -7,3 v 1 h 10 v -1 z m 0,2 v 1 h 8 v -1 z"
         sodipodi:nodetypes="ccccccccccccccccccccccccc" />
      <rect
         style="opacity:0.1;fill:#000000;stroke-linecap:round;stroke-linejoin:round"
         id="rect8-0"
         width="5.9999962"
         height="6"
         x="419"
         y="143.5"
         ry="0.5" />
      <rect
         style="fill:#2196f3"
         width="5.9999962"
         height="6"
         x="419"
         y="143"
         ry="0.5"
         id="rect5-8" />
      <path
         id="path6"
         style="fill:#2158f3"
         d="m 423.50001,145.80078 -2,1.94922 -1.25,-1.15039 -1.25,1.40039 v 0.5 c 0,0.277 0.223,0.5 0.5,0.5 h 5 c 0.277,0 0.5,-0.223 0.5,-0.5 v -1.25 z" />
      <ellipse
         style="opacity:0.2;fill:#000000;stroke-linecap:round;stroke-linejoin:round"
         id="path9-3"
         cx="421"
         cy="145.5"
         rx="0.99999934"
         ry="1" />
      <ellipse
         style="fill:#ffeb3b;fill-opacity:1;stroke-linecap:round;stroke-linejoin:round"
         id="path11-61"
         cx="421"
         cy="145"
         rx="0.99999934"
         ry="1" />
      <path
         id="path10-0"
         style="opacity:0.2;fill:#ffffff;stroke-linecap:round;stroke-linejoin:round"
         d="m 421.00001,144 a 0.99999935,1 0 0 0 -1,1 0.99999935,1 0 0 0 0.0332,0.25 0.99999935,1 0 0 1 0.9668,-0.75 0.99999935,1 0 0 1 0.9668,0.74414 0.99999935,1 0 0 0 0.0332,-0.24414 0.99999935,1 0 0 0 -1,-1 z" />
    </g>
    <g
       id="g5">
      <path
         id="path4-6"
         style="opacity:0.3"
         d="m 430,105 v 1 h 5 v -1 z m 0,3 v 1 h 5 v -1 z m 0,3 v 1 h 5 v -1 z m -9,3 v 1 h 14 v -1 z m 0,3 v 1 h 10 v -1 z"
         sodipodi:nodetypes="ccccccccccccccccccccccccc" />
      <rect
         style="opacity:0.1;fill:#000000;stroke-linecap:round;stroke-linejoin:round"
         id="rect13-9"
         width="7"
         height="7"
         x="421"
         y="105.5"
         ry="1" />
      <rect
         style="fill:#2196f3;fill-opacity:1;stroke-linecap:round;stroke-linejoin:round"
         id="rect14"
         width="7"
         height="7"
         x="421"
         y="105"
         ry="1" />
      <path
         id="path11-2"
         style="fill:#2158f3"
         d="m 426,107.99999 -2,2.25 -1.5,-1.25 -1.5,1.5 v 0.5 c 0,0.554 0.446,1 1,1 h 5 c 0.554,0 1,-0.446 1,-1 v -1 z" />
      <circle
         style="opacity:0.2;fill:#000000;fill-opacity:1;stroke-linecap:round;stroke-linejoin:round"
         id="path14-2"
         cx="423"
         cy="107.5"
         r="1" />
      <circle
         style="fill:#ffeb3b;fill-opacity:1;stroke-linecap:round;stroke-linejoin:round"
         id="path15-8"
         cx="423"
         cy="107"
         r="1" />
      <path
         style="opacity:0.2;fill:#ffffff"
         d="m 422.97559,105.99999 a 1,1 0 0 0 -0.97559,1 1,1 0 0 0 0.0322,0.25098 1,1 0 0 1 0.9678,-0.75098 1,1 0 0 1 0.96777,0.74902 1,1 0 0 0 0.0322,-0.24902 1,1 0 0 0 -1,-1 1,1 0 0 0 -0.0244,0 z"
         id="path12-97" />
    </g>
    <g
       id="g6">
      <path
         id="path3-7"
         style="opacity:0.3;fill:#000000"
         d="m 434,58 v 2 h 8 v -2 z m 0,4 v 2 h 8 v -2 z m 0,4 v 2 h 8 v -2 z m -12,4 v 2 h 20 v -2 z m 0,4 v 2 h 14 v -2 z"
         sodipodi:nodetypes="ccccccccccccccccccccccccc" />
      <rect
         style="opacity:0.1;fill:#000000"
         width="10"
         height="10"
         x="422"
         y="59"
         ry="1"
         id="rect2" />
      <rect
         style="fill:#2196f3"
         width="10"
         height="10"
         x="422"
         y="58"
         ry="1"
         id="rect8" />
      <path
         style="fill:#2158f3"
         d="m 429,62 -3,3.5 -2,-2 -2,2.5 v 1 c 0,0.554 0.446,1 1,1 h 8 c 0.554,0 1,-0.446 1,-1 v -2 z"
         id="path9"
         sodipodi:nodetypes="ccccsssscc" />
      <circle
         style="opacity:0.2;fill:#000000;stroke-linecap:round;stroke-linejoin:round"
         id="path13-29"
         cx="424.5"
         cy="61.5"
         r="1.5" />
      <circle
         style="fill:#ffeb3b;stroke-linecap:round;stroke-linejoin:round"
         id="path12-3"
         cx="424.5"
         cy="60.5"
         r="1.5" />
      <path
         style="opacity:0.2;fill:#ffffff"
         d="m 424.5,59 a 1.5,1.5 0 0 0 -1.5,1.5 1.5,1.5 0 0 0 0.0859,0.498047 A 1.5,1.5 0 0 1 424.5,60 a 1.5,1.5 0 0 1 1.41406,1.001953 1.5,1.5 0 0 0 0.0859,-0.501953 1.5,1.5 0 0 0 -1.5,-1.5 z"
         id="path11-19" />
    </g>
    <g
       id="g3">
      <path
         id="path3"
         style="opacity:0.3;fill:#000000"
         d="m 315,229 v 3 h 12 v -3 z m 0,6 v 3 h 12 v -3 z m 0,6 v 3 h 12 v -3 z m -18,6 v 3 h 30 v -3 z m 0,6 v 3 h 20 v -3 z"
         sodipodi:nodetypes="ccccccccccccccccccccccccc" />
      <rect
         style="opacity:0.1;fill:#000000"
         width="15"
         height="15"
         x="297"
         y="230"
         ry="2"
         id="rect9" />
      <rect
         style="fill:#2196f3"
         width="15"
         height="15"
         x="297"
         y="229"
         ry="2"
         id="rect10" />
      <path
         id="path10"
         style="fill:#2158f3"
         d="m 307.99999,236 -4,4 -3,-3 -4,4 v 1 c 0,1.108 0.892,2 2,2 h 11 c 1.108,0 2,-0.892 2,-2 v -2 z" />
      <circle
         style="opacity:0.2;fill:#000000;stroke-linecap:round;stroke-linejoin:round"
         id="path12-93"
         cx="301"
         cy="234"
         r="2" />
      <circle
         style="fill:#ffeb3b;fill-opacity:1;stroke-linecap:round;stroke-linejoin:round"
         id="path13"
         cx="301"
         cy="233"
         r="2" />
      <path
         style="opacity:0.2;fill:#ffffff"
         d="m 300.95116,231 a 2,2 0 0 0 -1.95117,2 2,2 0 0 0 0.0645,0.50195 2,2 0 0 1 1.9355,-1.50195 2,2 0 0 1 1.93555,1.49805 2,2 0 0 0 0.0644,-0.49805 2,2 0 0 0 -2,-2 2,2 0 0 0 -0.0488,0 z"
         id="path11-6" />
    </g>
    <g
       id="g1">
      <path
         id="path4"
         style="opacity:0.3;fill:#000000;fill-opacity:1"
         d="m 324,152 v 4 h 16 v -4 z m 0,8 v 4 h 16 v -4 z m 0,8 v 4 h 16 v -4 z m -24,8 v 4 h 40 v -4 z m 0,8 v 4 h 26 v -4 z" />
      <rect
         style="opacity:0.2;fill:#000000;fill-opacity:1;stroke-linecap:round;stroke-linejoin:round"
         id="rect15"
         width="20"
         height="20"
         x="300"
         y="153"
         ry="2" />
      <rect
         style="fill:#2196f3;fill-opacity:1;stroke-linecap:round;stroke-linejoin:round"
         id="rect13"
         width="20"
         height="20"
         x="300"
         y="152"
         ry="2" />
      <circle
         style="opacity:0.2;fill:#000000;fill-opacity:1;stroke-linecap:round;stroke-linejoin:round"
         id="path14"
         cx="305.5"
         cy="158.5"
         r="2.5" />
      <circle
         style="fill:#ffeb3b;fill-opacity:1;stroke-linecap:round;stroke-linejoin:round"
         id="path15"
         cx="305.49408"
         cy="157.5"
         r="2.5" />
      <path
         style="opacity:0.2;fill:#ffffff"
         d="m 305.5,155 a 2.5,2.5 0 0 0 -2.5,2.5 2.5,2.5 0 0 0 0.0508,0.49805 A 2.5,2.5 0 0 1 305.5,156 2.5,2.5 0 0 1 307.94922,158.00195 2.5,2.5 0 0 0 308,157.5 2.5,2.5 0 0 0 305.5,155 Z"
         id="path12" />
      <path
         id="path11"
         style="fill:#2158f3"
         d="m 315,161 -6,7 -4,-4 -5,4.9082 V 170 c 0,1.108 0.892,2 2,2 h 16 c 1.108,0 2,-0.892 2,-2 v -4 z" />
    </g>
    <g
       id="g4"
       transform="translate(9,-183)">
      <path
         id="path3-6"
         style="opacity:0.3;fill:#000000;stroke-width:2"
         d="m 333,229 v 6 h 23.99999 v -6 z m 0,12 v 5.99999 h 23.99999 V 241 Z m 0,11.99999 v 6 h 23.99999 v -6 z m -35.99999,12 v 6 h 59.99998 v -6 z m 0,11.99999 v 6 h 39.99998 v -6 z"
         sodipodi:nodetypes="ccccccccccccccccccccccccc" />
      <rect
         style="opacity:0.1;fill:#000000;stroke-width:2"
         width="29.99999"
         height="29.99999"
         x="297"
         y="230"
         ry="3.9999986"
         id="rect9-1" />
      <rect
         style="fill:#2196f3;stroke-width:2"
         width="29.99999"
         height="29.99999"
         x="297"
         y="229"
         ry="3.9999986"
         id="rect10-8" />
      <path
         id="path10-7"
         style="fill:#2158f3;stroke-width:2"
         d="m 318.99998,243 -7.99999,7.99999 -6,-6 -8,8 v 2 c 0,2.216 1.784,4 4,4 h 21.99999 c 2.216,0 4,-1.784 4,-4 v -4 z" />
      <circle
         style="opacity:0.2;fill:#000000;stroke-width:2;stroke-linecap:round;stroke-linejoin:round"
         id="path12-93-9"
         cx="305"
         cy="238"
         r="3.9999986" />
      <circle
         style="fill:#ffeb3b;fill-opacity:1;stroke-width:2;stroke-linecap:round;stroke-linejoin:round"
         id="path13-2"
         cx="305"
         cy="237"
         r="3.9999986" />
      <path
         id="path11-6-0"
         style="opacity:0.2;fill:#ffffff;stroke-width:2"
         d="m 304.90235,233 a 3.9999987,3.9999987 0 0 0 -3.90234,4 3.9999987,3.9999987 0 0 0 0.0312,0.51562 3.9999987,3.9999987 0 0 1 3.96876,-3.51562 3.9999987,3.9999987 0 0 1 3.96876,3.5039 3.9999987,3.9999987 0 0 0 0.0312,-0.5039 3.9999987,3.9999987 0 0 0 -4,-4 3.9999987,3.9999987 0 0 0 -0.0977,0 z" />
    </g>
    <g
       id="g2"
       transform="matrix(4,0,0,4,-1136,-532.00002)">
      <path
         id="path4-5"
         style="opacity:0.3;fill:#000000;fill-opacity:1"
         d="m 324,152 v 4 h 16 v -4 z m 0,8 v 4 h 16 v -4 z m 0,8 v 4 h 16 v -4 z m -24,8 v 4 h 40 v -4 z m 0,8 v 4 h 26 v -4 z" />
      <rect
         style="opacity:0.2;fill:#000000;fill-opacity:1;stroke-linecap:round;stroke-linejoin:round"
         id="rect15-3"
         width="20"
         height="20"
         x="300"
         y="152.5"
         ry="2" />
      <rect
         style="fill:#2196f3;fill-opacity:1;stroke-linecap:round;stroke-linejoin:round"
         id="rect13-5"
         width="20"
         height="20"
         x="300"
         y="152"
         ry="2" />
      <circle
         style="opacity:0.2;fill:#000000;fill-opacity:1;stroke-linecap:round;stroke-linejoin:round"
         id="path14-6"
         cx="305.5"
         cy="158"
         r="2.5" />
      <circle
         style="fill:#ffeb3b;fill-opacity:1;stroke-linecap:round;stroke-linejoin:round"
         id="path15-2"
         cx="305.49408"
         cy="157.5"
         r="2.5" />
      <path
         id="path12-9"
         style="opacity:0.2;fill:#ffffff"
         d="m 305.5,155 a 2.5,2.5 0 0 0 -2.5,2.5 2.5,2.5 0 0 0 0.0156,0.26953 A 2.5,2.5 0 0 1 305.5,155.5 2.5,2.5 0 0 1 307.98828,157.75 2.5,2.5 0 0 0 308,157.5 2.5,2.5 0 0 0 305.5,155 Z" />
      <path
         id="path11-1"
         style="fill:#2158f3"
         d="m 315,161 -6,7 -4,-4 -5,4.9082 V 170 c 0,1.108 0.892,2 2,2 h 16 c 1.108,0 2,-0.892 2,-2 v -4 z" />
    </g>
  </g>
  <g
     id="Highlights">
    <path
       id="rect653"
       style="opacity:0.2;fill:#ffffff"
       d="M 80,44 C 53.408027,44 32,65.408027 32,92 v 2 C 32,67.408027 53.408027,46 80,46 h 128 c 26.59197,0 48,21.408027 48,48 V 92 C 256,65.408027 234.59197,44 208,44 Z"
       sodipodi:nodetypes="sscsscsss" />
    <path
       id="rect773"
       style="opacity:0.2;fill:#ffffff"
       d="m 312,34 c -9.97199,0 -18,8.02801 -18,18 v 1 c 0,-9.97199 8.02801,-18 18,-18 h 48 c 9.97199,0 18,8.02801 18,18 v -1 c 0,-9.97199 -8.02801,-18 -18,-18 z" />
    <path
       id="rect1135"
       style="opacity:0.2;fill:#ffffff;fill-opacity:1"
       d="m 304,144 c -6.64799,0 -12,5.35201 -12,12 v 1 c 0,-6.64799 5.35201,-12 12,-12 h 32 c 6.64799,0 12,5.35201 12,12 v -1 c 0,-6.64799 -5.35201,-12 -12,-12 z" />
    <path
       id="rect1265"
       style="opacity:0.2;fill:#ffffff;fill-opacity:1"
       d="m 300,223 c -4.986,0 -9,4.014 -9,9 v 1 c 0,-4.986 4.014,-9 9,-9 h 24 c 4.986,0 9,4.014 9,9 v -1 c 0,-4.986 -4.014,-9 -9,-9 z" />
    <path
       id="rect1368"
       style="opacity:0.2;fill:#ffffff;fill-opacity:1"
       d="m 424,54 c -3.324,0 -6,2.676003 -6,6 v 1 c 0,-3.323997 2.676,-6 6,-6 h 16 c 3.324,0 6,2.676003 6,6 v -1 c 0,-3.323997 -2.676,-6 -6,-6 z" />
    <path
       id="rect1402"
       style="opacity:0.2;fill:#ffffff;fill-opacity:1"
       d="m 420,140 c -2.216,0 -4,1.784 -4,4 v 1 c 0,-2.216 1.784,-4 4,-4 h 8 c 2.216,0 4,1.784 4,4 v -1 c 0,-2.216 -1.784,-4 -4,-4 z" />
    <path
       id="rect1436"
       style="opacity:0.2;fill:#ffffff;fill-opacity:1"
       d="m 422,102 c -2.216,0 -4,1.784 -4,4 v 1 c 0,-2.216 1.784,-4 4,-4 h 12 c 2.216,0 4,1.784 4,4 v -1 c 0,-2.216 -1.784,-4 -4,-4 z" />
  </g>
</svg>
