<?xml version="1.0" encoding="UTF-8" standalone="no"?>
<!-- Created with Inkscape (http://www.inkscape.org/) -->

<svg
   width="480"
   height="300"
   viewBox="0 0 480 300"
   version="1.1"
   id="svg5"
   inkscape:version="1.3 (1:1.3+202307231459+0e150ed6c4)"
   sodipodi:docname="cs-tablet.svg"
   xmlns:inkscape="http://www.inkscape.org/namespaces/inkscape"
   xmlns:sodipodi="http://sodipodi.sourceforge.net/DTD/sodipodi-0.dtd"
   xmlns="http://www.w3.org/2000/svg"
   xmlns:svg="http://www.w3.org/2000/svg">
  <sodipodi:namedview
     id="namedview7"
     pagecolor="#888888"
     bordercolor="#000000"
     borderopacity="0.25"
     inkscape:showpageshadow="true"
     inkscape:pageopacity="0"
     inkscape:pagecheckerboard="0"
     inkscape:deskcolor="#888888"
     inkscape:document-units="px"
     showgrid="false"
     showborder="false"
     inkscape:zoom="2.6833333"
     inkscape:cx="239.81366"
     inkscape:cy="150"
     inkscape:window-width="1920"
     inkscape:window-height="1008"
     inkscape:window-x="0"
     inkscape:window-y="0"
     inkscape:window-maximized="1"
     inkscape:current-layer="svg5" />
  <defs
     id="defs2" />
  <g
     id="Baseplate"
     style="display:none">
    <text
       y="19.774782"
       xml:space="preserve"
       x="15.006946"
       style="font-style:normal;font-variant:normal;font-weight:normal;font-stretch:normal;line-height:0%;font-family:'DejaVu Sans';-inkscape-font-specification:'DejaVu Sans';display:inline;fill:#000000;fill-opacity:1;stroke:none;enable-background:new"
       inkscape:label="context"
       id="context"><tspan
         style="font-style:normal;font-variant:normal;font-weight:normal;font-stretch:normal;font-size:18px;line-height:1.25;font-family:'DejaVu Sans';-inkscape-font-specification:'DejaVu Sans'"
         y="19.774782"
         x="15.006946"
         sodipodi:role="line"
         id="tspan3933">categories</tspan></text>
    <text
       y="19.774782"
       xml:space="preserve"
       x="122.48839"
       style="font-style:normal;font-variant:normal;font-weight:bold;font-stretch:normal;line-height:0%;font-family:'DejaVu Sans';-inkscape-font-specification:'DejaVu Sans Bold';text-align:start;writing-mode:lr-tb;text-anchor:start;display:inline;fill:#000000;fill-opacity:1;stroke:none;enable-background:new"
       inkscape:label="icon-name"
       id="icon-name"><tspan
         style="font-style:normal;font-variant:normal;font-weight:bold;font-stretch:normal;font-size:18px;line-height:1.25;font-family:'DejaVu Sans';-inkscape-font-specification:'DejaVu Sans Bold'"
         y="19.774782"
         x="122.48839"
         sodipodi:role="line"
         id="tspan3937">cs-tablet</tspan></text>
    <rect
       style="fill:#ffffff"
       id="256x256"
       width="256"
       height="256"
       x="16"
       y="28" />
    <rect
       style="fill:#ffffff"
       id="96x96"
       width="96"
       height="96"
       x="288"
       y="28" />
    <rect
       style="fill:#ffffff"
       id="64x64"
       width="64"
       height="64"
       x="288"
       y="140" />
    <rect
       style="fill:#ffffff"
       id="48x48"
       width="48"
       height="48"
       x="288"
       y="220" />
    <rect
       style="fill:#ffffff"
       id="32x32"
       width="32"
       height="32"
       x="416"
       y="52" />
    <rect
       style="fill:#ffffff"
       id="24x24"
       width="24"
       height="24"
       x="416"
       y="100" />
    <rect
       style="fill:#ffffff"
       id="22x22"
       width="22"
       height="22"
       x="417"
       y="101" />
    <rect
       style="fill:#ffffff"
       id="16x16"
       width="16"
       height="16"
       x="416"
       y="140" />
  </g>
  <g
     id="Shadow">
    <rect
       style="opacity:0.2;fill:#000000"
       id="rect651"
       width="224"
       height="224"
       x="32"
       y="46"
       ry="48" />
    <rect
       style="opacity:0.2;fill:#000000"
       id="rect769"
       width="84"
       height="85"
       x="294"
       y="34"
       ry="18" />
    <rect
       style="opacity:0.2;fill:#000000;fill-opacity:1"
       id="rect1131"
       width="56"
       height="56"
       x="292"
       y="145"
       ry="12" />
    <rect
       style="opacity:0.2;fill:#000000;fill-opacity:1"
       id="rect1261"
       width="42"
       height="42"
       x="291"
       y="224"
       ry="9" />
    <rect
       style="opacity:0.2;fill:#000000;fill-opacity:1"
       id="rect1364"
       width="28"
       height="29"
       x="418"
       y="54"
       ry="6" />
    <rect
       style="opacity:0.2;fill:#000000;fill-opacity:1"
       id="rect1398"
       width="16"
       height="16"
       x="416"
       y="141"
       ry="4" />
    <rect
       style="opacity:0.2;fill:#000000;fill-opacity:1"
       id="rect1432"
       width="20"
       height="20"
       x="418"
       y="103"
       ry="4" />
  </g>
  <g
     id="Background">
    <rect
       style="fill:#bdbdbd;fill-opacity:1"
       id="rect597"
       width="224"
       height="224"
       x="32"
       y="44"
       ry="48" />
    <rect
       style="opacity:1;fill:#bdbdbd;fill-opacity:1"
       id="rect771"
       width="84"
       height="84"
       x="294"
       y="34"
       ry="18" />
    <rect
       style="opacity:1;fill:#bdbdbd;fill-opacity:1"
       id="rect1133"
       width="56"
       height="56"
       x="292"
       y="144"
       ry="12" />
    <rect
       style="opacity:1;fill:#bdbdbd;fill-opacity:1"
       id="rect1263"
       width="42"
       height="42"
       x="291"
       y="223"
       ry="9" />
    <rect
       style="opacity:1;fill:#bdbdbd;fill-opacity:1"
       id="rect1366"
       width="28"
       height="28"
       x="418"
       y="54"
       ry="6" />
    <rect
       style="opacity:1;fill:#bdbdbd;fill-opacity:1"
       id="rect1400"
       width="16"
       height="16"
       x="416"
       y="140"
       ry="4" />
    <rect
       style="opacity:1;fill:#bdbdbd;fill-opacity:1"
       id="rect1434"
       width="20"
       height="20"
       x="418"
       y="102"
       ry="4" />
  </g>
  <g
     id="g15">
    <rect
       style="opacity:0.2;fill:#ffffff;stroke-linecap:round;stroke-linejoin:round"
       id="rect1"
       width="10"
       height="8"
       x="419"
       y="144.5"
       ry="1" />
    <rect
       style="opacity:0.2;fill:#ffffff;fill-opacity:1;stroke-linecap:round;stroke-linejoin:round"
       id="rect4"
       width="14"
       height="11"
       x="421"
       y="106.5"
       ry="1.5" />
    <rect
       style="opacity:0.2;fill:#ffffff;fill-opacity:1;stroke-linecap:round;stroke-linejoin:round"
       id="rect6"
       width="20"
       height="16"
       x="422"
       y="60"
       ry="2" />
    <rect
       style="opacity:0.2;fill:#ffffff;fill-opacity:1;stroke-linecap:round;stroke-linejoin:round"
       id="rect8"
       width="30"
       height="24"
       x="297"
       y="231"
       ry="3" />
    <rect
       style="opacity:0.2;fill:#ffffff;fill-opacity:1;stroke-linecap:round;stroke-linejoin:round"
       id="rect10"
       width="40"
       height="32"
       x="300"
       y="155"
       ry="4" />
    <rect
       style="opacity:0.2;fill:#ffffff;fill-opacity:1;stroke-width:1.5;stroke-linecap:round;stroke-linejoin:round"
       id="rect14"
       width="60"
       height="48"
       x="306"
       y="50"
       ry="6" />
    <rect
       style="opacity:0.2;fill:#f9f9f9;fill-opacity:1;stroke-width:4;stroke-linecap:round;stroke-linejoin:round"
       id="rect12"
       width="160"
       height="128"
       x="64"
       y="84"
       ry="16" />
  </g>
  <g
     id="g16">
    <rect
       style="fill:#8e8e8e;stroke-linecap:round;stroke-linejoin:round;fill-opacity:1"
       id="rect3"
       width="10"
       height="8"
       x="419"
       y="144"
       ry="1" />
    <rect
       style="opacity:1;fill:#8e8e8e;fill-opacity:1;stroke-linecap:round;stroke-linejoin:round"
       id="rect5"
       width="14"
       height="11"
       x="421"
       y="106"
       ry="1.5" />
    <rect
       style="opacity:1;fill:#8e8e8e;fill-opacity:1;stroke-linecap:round;stroke-linejoin:round"
       id="rect7"
       width="20"
       height="16"
       x="422"
       y="59"
       ry="2" />
    <rect
       style="opacity:1;fill:#8e8e8e;fill-opacity:1;stroke-linecap:round;stroke-linejoin:round"
       id="rect9"
       width="30"
       height="24"
       x="297"
       y="230"
       ry="3" />
    <rect
       style="opacity:1;fill:#8e8e8e;fill-opacity:1;stroke-linecap:round;stroke-linejoin:round"
       id="rect11"
       width="40"
       height="32"
       x="300"
       y="154"
       ry="4" />
    <rect
       style="opacity:1;fill:#8e8e8e;fill-opacity:1;stroke-linecap:round;stroke-linejoin:round"
       id="rect15"
       width="60"
       height="48"
       x="306"
       y="49"
       ry="6" />
    <rect
       style="opacity:1;fill:#8e8e8e;fill-opacity:1;stroke-width:4;stroke-linecap:round;stroke-linejoin:round"
       id="rect13"
       width="160"
       height="128"
       x="64"
       y="82"
       ry="16" />
  </g>
  <g
     id="g17">
    <path
       d="m 428.58579,143.5 1.41421,1.41421 -4.94974,4.94975 h -1.41422 v -1.41422 z"
       style="stroke-linecap:round;stroke-linejoin:round;fill:#000000;opacity:0.2"
       id="path1" />
    <path
       d="m 435.12804,105.62951 c -0.19675,-0.17789 -0.49941,-0.17179 -0.68915,0.018 l -6.59619,6.5962 v 1.41421 h 1.41421 l 6.59619,-6.59619 c 0.19587,-0.19587 0.19587,-0.51124 0,-0.70711 l -0.7071,-0.70711 c -0.006,-0.006 -0.0116,-0.0122 -0.018,-0.018 z"
       style="opacity:0.2;fill:#000000;fill-opacity:1;stroke-linecap:round;stroke-linejoin:round"
       id="path1-1" />
    <path
       id="path1-3"
       style="opacity:0.2;fill:#000000;stroke-width:1.99999;stroke-linecap:round;stroke-linejoin:round"
       d="m 442.29198,58.29412 c -0.39173,-0.391737 -1.02247,-0.391737 -1.41421,0 l -9.19239,9.192389 v 2.828428 h 2.82843 l 9.19239,-9.19239 c 0.39173,-0.391737 0.39173,-1.022476 0,-1.414213 z"
       sodipodi:nodetypes="sscccsss" />
    <path
       d="m 326.43796,228.44071 c -0.5876,-0.58762 -1.53371,-0.58762 -2.12132,0 l -13.78858,13.78858 v 4.24264 h 4.24264 l 13.78858,-13.78858 c 0.5876,-0.58761 0.5876,-1.53372 10e-6,-2.12133 z"
       style="opacity:0.2;fill:#000000;stroke-width:2.99998;stroke-linecap:round;stroke-linejoin:round"
       id="path1-7" />
    <path
       id="path1-3-5"
       style="opacity:0.2;fill:#000000;stroke-width:4.0001;stroke-linecap:round;stroke-linejoin:round"
       d="m 340.58386,151.58762 c -0.78348,-0.7835 -2.045,-0.7835 -2.82851,0 L 319.37,169.97298 v 5.65701 h 5.65704 l 18.38535,-18.38533 c 0.78348,-0.7835 0.78348,-2.04502 0,-2.82852 z"
       sodipodi:nodetypes="sscccsss" />
    <path
       d="m 364.87593,43.881419 c -1.1752,-1.17522 -3.06742,-1.17522 -4.24264,0 l -27.57716,27.57716 v 8.48528 h 8.48528 l 27.57716,-27.57716 c 1.1752,-1.17522 1.1752,-3.06742 2e-5,-4.24266 z"
       style="opacity:0.2;fill:#000000;stroke-width:5.99996;stroke-linecap:round;stroke-linejoin:round"
       id="path1-7-0" />
    <path
       id="path1-3-5-5"
       style="opacity:0.2;fill:#000000;stroke-width:16.0004;stroke-linecap:round;stroke-linejoin:round"
       d="m 226.3354,72.350479 c -3.13392,-3.134 -8.18,-3.134 -11.31404,0 l -73.5414,73.541441 v 22.62804 h 22.62816 l 73.5414,-73.541321 c 3.13392,-3.134 3.13392,-8.18008 0,-11.31408 z"
       sodipodi:nodetypes="sscccsss" />
  </g>
  <g
     id="g18">
    <path
       id="rect2"
       style="opacity:1;stroke-linecap:round;stroke-linejoin:round;fill:#464646;fill-opacity:1"
       d="m 428.58579,143 1.41421,1.41421 -4.94974,4.94975 h -1.41422 v -1.41422 z"
       sodipodi:nodetypes="cccccc" />
    <path
       id="rect2-9"
       style="fill:#464646;fill-opacity:1;stroke-linecap:round;stroke-linejoin:round"
       d="m 435.12804,105.12903 c -0.19675,-0.17789 -0.49941,-0.17179 -0.68915,0.018 l -6.59619,6.5962 v 1.41421 h 1.41421 l 6.59619,-6.59619 c 0.19587,-0.19587 0.19587,-0.51124 0,-0.70711 l -0.7071,-0.70711 c -0.006,-0.006 -0.0116,-0.0122 -0.018,-0.018 z"
       sodipodi:nodetypes="sscccsssss" />
    <path
       id="rect2-6"
       style="fill:#464646;fill-opacity:1;stroke-width:1.99999;stroke-linecap:round;stroke-linejoin:round"
       d="m 442.29198,57.293803 c -0.39174,-0.391738 -1.02248,-0.391738 -1.41421,0 l -9.19239,9.192388 v 2.828427 h 2.82843 l 9.19238,-9.192388 c 0.39174,-0.391737 0.39174,-1.022476 0,-1.414214 z"
       sodipodi:nodetypes="sscccsss" />
    <path
       id="rect2-6-2"
       style="fill:#464646;fill-opacity:1;stroke-width:2.99998;stroke-linecap:round;stroke-linejoin:round"
       d="m 326.43797,227.4407 c -0.58761,-0.5876 -1.53372,-0.58761 -2.12132,0 l -13.78858,13.78858 v 4.24264 h 4.24264 l 13.78858,-13.78857 c 0.58761,-0.58761 0.58761,-1.53371 -10e-6,-2.12134 z"
       sodipodi:nodetypes="sscccsss" />
    <path
       id="rect2-6-3"
       style="fill:#464646;fill-opacity:1;stroke-width:4.0001;stroke-linecap:round;stroke-linejoin:round"
       d="m 340.58386,150.58762 c -0.7835,-0.7835 -2.04502,-0.7835 -2.82851,0 L 319.37,168.97297 V 174.63 h 5.65704 l 18.38533,-18.38535 c 0.7835,-0.7835 0.7835,-2.04502 0,-2.82852 z"
       sodipodi:nodetypes="sscccsss" />
    <path
       id="rect2-6-2-9"
       style="fill:#464646;fill-opacity:1;stroke-width:5.99996;stroke-linecap:round;stroke-linejoin:round"
       d="m 364.87593,42.881399 c -1.17522,-1.1752 -3.06744,-1.17522 -4.24264,0 l -27.57716,27.57716 v 8.48528 h 8.48528 l 27.57716,-27.57714 c 1.17522,-1.17522 1.17522,-3.06742 -2e-5,-4.24268 z"
       sodipodi:nodetypes="sscccsss" />
    <path
       id="rect2-6-3-6"
       style="fill:#464646;fill-opacity:1;stroke-width:16.0004;stroke-linecap:round;stroke-linejoin:round"
       d="m 226.33544,70.350479 c -3.134,-3.134 -8.18008,-3.134 -11.31404,0 L 141.48,143.89188 V 166.52 h 22.62816 l 73.54132,-73.541401 c 3.134,-3.134 3.134,-8.18008 0,-11.31408 z"
       sodipodi:nodetypes="sscccsss" />
  </g>
  <g
     id="Highlights">
    <path
       id="rect653"
       style="opacity:0.2;fill:#ffffff"
       d="M 80,44 C 53.408027,44 32,65.408027 32,92 v 2 C 32,67.408027 53.408027,46 80,46 h 128 c 26.59197,0 48,21.408027 48,48 V 92 C 256,65.408027 234.59197,44 208,44 Z"
       sodipodi:nodetypes="sscsscsss" />
    <path
       id="rect773"
       style="opacity:0.2;fill:#ffffff"
       d="m 312,34 c -9.97199,0 -18,8.02801 -18,18 v 1 c 0,-9.97199 8.02801,-18 18,-18 h 48 c 9.97199,0 18,8.02801 18,18 v -1 c 0,-9.97199 -8.02801,-18 -18,-18 z" />
    <path
       id="rect1135"
       style="opacity:0.2;fill:#ffffff;fill-opacity:1"
       d="m 304,144 c -6.64799,0 -12,5.35201 -12,12 v 1 c 0,-6.64799 5.35201,-12 12,-12 h 32 c 6.64799,0 12,5.35201 12,12 v -1 c 0,-6.64799 -5.35201,-12 -12,-12 z" />
    <path
       id="rect1265"
       style="opacity:0.2;fill:#ffffff;fill-opacity:1"
       d="m 300,223 c -4.986,0 -9,4.014 -9,9 v 1 c 0,-4.986 4.014,-9 9,-9 h 24 c 4.986,0 9,4.014 9,9 v -1 c 0,-4.986 -4.014,-9 -9,-9 z" />
    <path
       id="rect1368"
       style="opacity:0.2;fill:#ffffff;fill-opacity:1"
       d="m 424,54 c -3.324,0 -6,2.676003 -6,6 v 1 c 0,-3.323997 2.676,-6 6,-6 h 16 c 3.324,0 6,2.676003 6,6 v -1 c 0,-3.323997 -2.676,-6 -6,-6 z" />
    <path
       id="rect1402"
       style="opacity:0.2;fill:#ffffff;fill-opacity:1"
       d="m 420,140 c -2.216,0 -4,1.784 -4,4 v 1 c 0,-2.216 1.784,-4 4,-4 h 8 c 2.216,0 4,1.784 4,4 v -1 c 0,-2.216 -1.784,-4 -4,-4 z" />
    <path
       id="rect1436"
       style="opacity:0.2;fill:#ffffff;fill-opacity:1"
       d="m 422,102 c -2.216,0 -4,1.784 -4,4 v 1 c 0,-2.216 1.784,-4 4,-4 h 12 c 2.216,0 4,1.784 4,4 v -1 c 0,-2.216 -1.784,-4 -4,-4 z" />
  </g>
</svg>
