<?xml version="1.0" encoding="UTF-8" standalone="no"?>
<svg
   xmlns:dc="http://purl.org/dc/elements/1.1/"
   xmlns:cc="http://creativecommons.org/ns#"
   xmlns:rdf="http://www.w3.org/1999/02/22-rdf-syntax-ns#"
   xmlns:svg="http://www.w3.org/2000/svg"
   xmlns="http://www.w3.org/2000/svg"
   xmlns:sodipodi="http://sodipodi.sourceforge.net/DTD/sodipodi-0.dtd"
   xmlns:inkscape="http://www.inkscape.org/namespaces/inkscape"
   version="1.1"
   width="128"
   height="128"
   id="svg3172"
   inkscape:version="0.91 r13725"
   sodipodi:docname="font-x-generic.svg">
  <sodipodi:namedview
     pagecolor="#ffffff"
     bordercolor="#666666"
     borderopacity="1"
     objecttolerance="10"
     gridtolerance="10"
     guidetolerance="10"
     inkscape:pageopacity="0"
     inkscape:pageshadow="2"
     inkscape:window-width="1920"
     inkscape:window-height="1026"
     id="namedview10"
     showgrid="false"
     inkscape:zoom="1.84375"
     inkscape:cx="65.084746"
     inkscape:cy="64"
     inkscape:window-x="0"
     inkscape:window-y="0"
     inkscape:window-maximized="1"
     inkscape:current-layer="svg3172" />
  <defs
     id="defs3174" />
  <metadata
     id="metadata3177">
    <rdf:RDF>
      <cc:Work
         rdf:about="">
        <dc:format>image/svg+xml</dc:format>
        <dc:type
           rdf:resource="http://purl.org/dc/dcmitype/StillImage" />
        <dc:title />
      </cc:Work>
    </rdf:RDF>
  </metadata>
  <path
     d="m 17.499929,1.500412 c 21.311061,0 93.000031,0.007 93.000031,0.007 l 1.1e-4,116.992628 c 0,0 -62.0001,0 -93.00014,0 0,-39.000029 0,-78.000054 0,-117.000079 z"
     id="path4160"
     style="fill:#fafafa;fill-opacity:1;stroke:none;display:inline" />
  <path
     d="m 17.499929,1.5004119 c 21.311061,0 93.000031,0.007 93.000031,0.007 l 1.1e-4,116.9926281 c 0,0 -62.0001,0 -93.00014,0 0,-39.000029 0,-78.000054 0,-117.0000791 z"
     id="path4160-4"
     style="opacity:0.3;fill:none;stroke:#000000;stroke-width:0.99992186;stroke-linecap:butt;stroke-linejoin:round;stroke-miterlimit:4;stroke-opacity:1;stroke-dasharray:none;stroke-dashoffset:0;display:inline" />
  <g
     transform="translate(-3e-6,-931.36219)"
     style="font-style:normal;font-variant:normal;font-weight:bold;font-stretch:normal;font-size:64px;line-height:125%;font-family:'Open Sans';-inkscape-font-specification:'Open Sans Bold';text-align:center;letter-spacing:0px;word-spacing:0px;text-anchor:middle;opacity:0.6;fill:#000000;fill-opacity:1;stroke:none"
     id="text7620">
    <path
       id="path7874"
       d="m 58.734375,1013.9872 -3.3125,-10.875 -16.65625,0 -3.3125,10.875 -10.4375,0 16.125,-45.87502 11.84375,0 16.1875,45.87502 -10.4375,0 m -5.625,-19.00002 c -3.062525,-9.85414 -4.79169,-15.42705 -5.1875,-16.71875 -0.375023,-1.29163 -0.645856,-2.31246 -0.8125,-3.0625 -0.687521,2.66671 -2.656269,9.26045 -5.90625,19.78125 l 11.90625,0"
       inkscape:connector-curvature="0" />
    <path
       id="path7876"
       d="m 96.328125,1013.9872 -1.84375,-4.75 -0.25,0 c -1.60419,2.0208 -3.260438,3.4271 -4.96875,4.2187 -1.687518,0.7709 -3.89585,1.1563 -6.625,1.1563 -3.354177,0 -6.000007,-0.9584 -7.9375,-2.875 -1.91667,-1.9167 -2.875003,-4.6458 -2.875,-8.1875 -3e-6,-3.70834 1.291663,-6.4375 3.875,-8.18752 2.604157,-1.77081 6.52082,-2.74998 11.75,-2.9375 l 6.0625,-0.1875 0,-1.53125 c -2.4e-5,-3.54164 -1.812523,-5.31247 -5.4375,-5.3125 -2.791683,3e-5 -6.07293,0.84378 -9.84375,2.53125 l -3.15625,-6.4375 c 4.020823,-2.10413 8.479152,-3.15621 13.375,-3.15625 4.687476,4e-5 8.281222,1.02087 10.78125,3.0625 2.499965,2.0417 3.749965,5.14586 3.750005,9.3125 l 0,23.28127 -6.656255,0 m -2.8125,-16.18752 -3.6875,0.125 c -2.770851,0.0833 -4.833349,0.58335 -6.1875,1.5 -1.35418,0.91672 -2.031262,2.31252 -2.03125,4.18752 -1.2e-5,2.6875 1.541653,4.0312 4.625,4.0312 2.208314,0 3.968729,-0.6354 5.28125,-1.9062 1.33331,-1.2708 1.999976,-2.9583 2,-5.0625 l 0,-2.87502"
       inkscape:connector-curvature="0" />
  </g>
</svg>
