<?xml version="1.0" encoding="UTF-8" standalone="no"?>
<svg
   xmlns:dc="http://purl.org/dc/elements/1.1/"
   xmlns:cc="http://creativecommons.org/ns#"
   xmlns:rdf="http://www.w3.org/1999/02/22-rdf-syntax-ns#"
   xmlns:svg="http://www.w3.org/2000/svg"
   xmlns="http://www.w3.org/2000/svg"
   xmlns:xlink="http://www.w3.org/1999/xlink"
   xmlns:sodipodi="http://sodipodi.sourceforge.net/DTD/sodipodi-0.dtd"
   xmlns:inkscape="http://www.inkscape.org/namespaces/inkscape"
   version="1.1"
   width="32"
   height="32"
   id="svg3182"
   inkscape:version="0.91 r13725"
   sodipodi:docname="font-x-generic.svg">
  <sodipodi:namedview
     pagecolor="#ffffff"
     bordercolor="#666666"
     borderopacity="1"
     objecttolerance="10"
     gridtolerance="10"
     guidetolerance="10"
     inkscape:pageopacity="0"
     inkscape:pageshadow="2"
     inkscape:window-width="1920"
     inkscape:window-height="1026"
     id="namedview14"
     showgrid="false"
     inkscape:zoom="7.375"
     inkscape:cx="16.271186"
     inkscape:cy="16"
     inkscape:window-x="0"
     inkscape:window-y="0"
     inkscape:window-maximized="1"
     inkscape:current-layer="svg3182" />
  <defs
     id="defs3184">
    <linearGradient
       id="linearGradient3104-6">
      <stop
         offset="0"
         style="stop-color:#000000;stop-opacity:0.31782946"
         id="stop3106-3" />
      <stop
         offset="1"
         style="stop-color:#000000;stop-opacity:0.24031007"
         id="stop3108-9" />
    </linearGradient>
    <linearGradient
       xlink:href="#linearGradient3104-6"
       id="linearGradient3148"
       gradientUnits="userSpaceOnUse"
       gradientTransform="matrix(0.53064141,0,0,0.58970049,39.269607,-1.791918)"
       x1="-51.786404"
       y1="50.786446"
       x2="-51.786404"
       y2="2.9062471" />
  </defs>
  <metadata
     id="metadata3187">
    <rdf:RDF>
      <cc:Work
         rdf:about="">
        <dc:format>image/svg+xml</dc:format>
        <dc:type
           rdf:resource="http://purl.org/dc/dcmitype/StillImage" />
        <dc:title />
      </cc:Work>
    </rdf:RDF>
  </metadata>
  <path
     d="m 5,1 c 5.041316,0 21.999973,0.00179 21.999973,0.00179 L 27,29 C 27,29 12.333334,29 5,29 5,19.666667 5,10.333336 5,1.0000041 z"
     id="path4160-3"
     style="fill:#fafafa;fill-opacity:1;stroke:none;display:inline" />
  <path
     style="fill:none;stroke:url(#linearGradient3148);stroke-width:0.9999218;stroke-linecap:butt;stroke-linejoin:round;stroke-miterlimit:4;stroke-opacity:1;stroke-dasharray:none;stroke-dashoffset:0;display:inline"
     id="path4160-6-1"
     d="m 4.499961,0.499944 c 5.27048,0 23.000054,0.002 23.000054,0.002 l 2.4e-5,28.998112 c 0,0 -15.333385,0 -23.000078,0 0,-9.666722 0,-19.333346 0,-28.999956 z" />
  <g
     transform="translate(-1e-7,-1022.3622)"
     style="font-style:normal;font-variant:normal;font-weight:bold;font-stretch:normal;font-size:16px;line-height:125%;font-family:'Open Sans';-inkscape-font-specification:'Open Sans Bold';text-align:center;letter-spacing:0px;word-spacing:0px;text-anchor:middle;opacity:0.6;fill:#000000;fill-opacity:1;stroke:none"
     id="text7620">
    <path
       id="path7921"
       d="m 14.683594,1043.0184 -0.828125,-2.7187 -4.1640627,0 -0.828125,2.7187 -2.6093751,0 4.0312498,-11.4687 2.960938,0 4.046875,11.4687 -2.609375,0 m -1.40625,-4.75 c -0.765632,-2.4635 -1.197923,-3.8567 -1.296875,-4.1797 -0.09376,-0.3229 -0.161464,-0.5781 -0.203125,-0.7656 -0.171881,0.6667 -0.664068,2.3151 -1.476563,4.9453 l 2.976563,0"
       inkscape:connector-curvature="0" />
    <path
       id="path7923"
       d="m 24.082031,1043.0184 -0.460937,-1.1875 -0.0625,0 c -0.401048,0.5052 -0.81511,0.8568 -1.242188,1.0547 -0.421879,0.1927 -0.973962,0.2891 -1.65625,0.2891 -0.838544,0 -1.500002,-0.2396 -1.984375,-0.7188 -0.479167,-0.4791 -0.71875,-1.1614 -0.71875,-2.0468 0,-0.9271 0.322916,-1.6094 0.96875,-2.0469 0.65104,-0.4427 1.630205,-0.6875 2.9375,-0.7344 l 1.515625,-0.047 0,-0.3828 c -6e-6,-0.8854 -0.45313,-1.3281 -1.359375,-1.3281 -0.69792,0 -1.518232,0.2109 -2.460937,0.6328 l -0.789063,-1.6094 c 1.005206,-0.526 2.119788,-0.789 3.34375,-0.789 1.171869,0 2.070306,0.2552 2.695313,0.7656 0.624992,0.5104 0.937491,1.2865 0.9375,2.3281 l 0,5.8203 -1.664063,0 m -0.703125,-4.0468 -0.921875,0.031 c -0.692713,0.021 -1.208337,0.1458 -1.546875,0.375 -0.338545,0.2292 -0.507815,0.5781 -0.507812,1.0469 -3e-6,0.6719 0.385413,1.0078 1.15625,1.0078 0.552078,0 0.992182,-0.1589 1.320312,-0.4766 0.333328,-0.3177 0.499994,-0.7395 0.5,-1.2656 l 0,-0.7187"
       inkscape:connector-curvature="0" />
  </g>
</svg>
