<?xml version="1.0" encoding="UTF-8" standalone="no"?>
<svg
   xmlns:dc="http://purl.org/dc/elements/1.1/"
   xmlns:cc="http://creativecommons.org/ns#"
   xmlns:rdf="http://www.w3.org/1999/02/22-rdf-syntax-ns#"
   xmlns:svg="http://www.w3.org/2000/svg"
   xmlns="http://www.w3.org/2000/svg"
   xmlns:sodipodi="http://sodipodi.sourceforge.net/DTD/sodipodi-0.dtd"
   xmlns:inkscape="http://www.inkscape.org/namespaces/inkscape"
   version="1.1"
   viewBox="0 0 32 32"
   id="svg8"
   sodipodi:docname="emblem-photos.svg"
   inkscape:version="0.92.5 (2060ec1f9f, 2020-04-08)">
  <metadata
     id="metadata14">
    <rdf:RDF>
      <cc:Work
         rdf:about="">
        <dc:format>image/svg+xml</dc:format>
        <dc:type
           rdf:resource="http://purl.org/dc/dcmitype/StillImage" />
      </cc:Work>
    </rdf:RDF>
  </metadata>
  <defs
     id="defs12" />
  <sodipodi:namedview
     pagecolor="#ffffff"
     bordercolor="#666666"
     borderopacity="1"
     objecttolerance="10"
     gridtolerance="10"
     guidetolerance="10"
     inkscape:pageopacity="0"
     inkscape:pageshadow="2"
     inkscape:window-width="959"
     inkscape:window-height="1015"
     id="namedview10"
     showgrid="true"
     inkscape:zoom="18.649941"
     inkscape:cx="17.360227"
     inkscape:cy="14.099024"
     inkscape:window-x="0"
     inkscape:window-y="0"
     inkscape:window-maximized="0"
     inkscape:current-layer="svg8"
     inkscape:document-rotation="0">
    <inkscape:grid
       type="xygrid"
       id="grid839" />
  </sodipodi:namedview>
  <rect
     style="color:#000000;overflow:visible;fill:#7239b3;fill-opacity:1;stroke:none;stroke-width:0.92592603;stroke-opacity:0.35"
     id="rect2"
     overflow="visible"
     ry="2"
     rx="2"
     height="25"
     width="25"
     y="3.5"
     x="3.5" />
  <path
     style="color:#000000;font-style:normal;font-variant:normal;font-weight:normal;font-stretch:normal;font-size:medium;line-height:normal;font-family:sans-serif;font-variant-ligatures:normal;font-variant-position:normal;font-variant-caps:normal;font-variant-numeric:normal;font-variant-alternates:normal;font-feature-settings:normal;text-indent:0;text-align:start;text-decoration:none;text-decoration-line:none;text-decoration-style:solid;text-decoration-color:#000000;letter-spacing:normal;word-spacing:normal;text-transform:none;writing-mode:lr-tb;direction:ltr;text-orientation:mixed;dominant-baseline:auto;baseline-shift:baseline;text-anchor:start;white-space:normal;shape-padding:0;clip-rule:nonzero;display:inline;overflow:visible;visibility:visible;opacity:0.35;isolation:auto;mix-blend-mode:normal;color-interpolation:sRGB;color-interpolation-filters:linearRGB;solid-color:#000000;solid-opacity:1;vector-effect:none;fill:#000000;fill-opacity:1;fill-rule:nonzero;stroke:none;stroke-width:1;stroke-linecap:butt;stroke-linejoin:miter;stroke-miterlimit:4;stroke-dasharray:none;stroke-dashoffset:0;stroke-opacity:1;color-rendering:auto;image-rendering:auto;shape-rendering:auto;text-rendering:auto;enable-background:accumulate"
     d="M 5.5,3 C 4.123649,3 3,4.1236486 3,5.5 v 21 C 3,27.876351 4.123649,29 5.5,29 h 21 C 27.876351,29 29,27.876351 29,26.5 V 5.5 C 29,4.1236486 27.876351,3 26.5,3 Z m 0,1 h 21 C 27.339649,4 28,4.6603514 28,5.5 v 21 C 28,27.339649 27.339649,28 26.5,28 H 5.5 C 4.660351,28 4,27.339649 4,26.5 V 5.5 C 4,4.6603514 4.660351,4 5.5,4 Z"
     id="rect2-6"
     inkscape:connector-curvature="0" />
  <path
     style="opacity:0.2;fill:#000000;fill-opacity:1;stroke:none;stroke-width:3.57142925;stroke-miterlimit:10"
     d="M 10,8 C 8.355297,8 7,9.355297 7,11 v 12 c 0,1.644703 1.355297,3 3,3 h 12 c 1.644703,0 3,-1.355297 3,-3 V 11 C 25,9.355297 23.644703,8 22,8 Z m 0,2 h 12 c 0.571297,0 1,0.428703 1,1 v 12 c 0,0.571297 -0.428703,1 -1,1 H 10 C 9.428703,24 9,23.571297 9,23 V 11 c 0,-0.571297 0.428703,-1 1,-1 z m 1,1 c -0.552285,0 -1,0.447715 -1,1 0,0.552285 0.447715,1 1,1 0.552285,0 1,-0.447715 1,-1 0,-0.552285 -0.447715,-1 -1,-1 z m 5,1 c -2.761424,0 -5,2.238576 -5,5 0,2.761424 2.238576,5 5,5 2.761424,0 5,-2.238576 5,-5 0,-2.761424 -2.238576,-5 -5,-5 z m 0,2 c 1.656854,0 3,1.343146 3,3 0,1.656854 -1.343146,3 -3,3 -1.656854,0 -3,-1.343146 -3,-3 0,-1.656854 1.343146,-3 3,-3 z m 0,2 c -0.552285,0 -1,0.447715 -1,1 0,0.552285 0.447715,1 1,1 0.552285,0 1,-0.447715 1,-1 0,-0.552285 -0.447715,-1 -1,-1 z"
     id="circle13-9-2"
     inkscape:connector-curvature="0"
     sodipodi:nodetypes="ssssssssssssssssssssssssssssssssssssss" />
  <path
     style="color:#000000;font-style:normal;font-variant:normal;font-weight:normal;font-stretch:normal;font-size:medium;line-height:normal;font-family:sans-serif;font-variant-ligatures:normal;font-variant-position:normal;font-variant-caps:normal;font-variant-numeric:normal;font-variant-alternates:normal;font-feature-settings:normal;text-indent:0;text-align:start;text-decoration:none;text-decoration-line:none;text-decoration-style:solid;text-decoration-color:#000000;letter-spacing:normal;word-spacing:normal;text-transform:none;writing-mode:lr-tb;direction:ltr;text-orientation:mixed;dominant-baseline:auto;baseline-shift:baseline;text-anchor:start;white-space:normal;shape-padding:0;clip-rule:nonzero;display:inline;overflow:visible;visibility:visible;opacity:1;isolation:auto;mix-blend-mode:normal;color-interpolation:sRGB;color-interpolation-filters:linearRGB;solid-color:#000000;solid-opacity:1;vector-effect:none;fill:#ffffff;fill-opacity:1;fill-rule:nonzero;stroke:none;stroke-width:2;stroke-linecap:butt;stroke-linejoin:miter;stroke-miterlimit:4;stroke-dasharray:none;stroke-dashoffset:0;stroke-opacity:1;color-rendering:auto;image-rendering:auto;shape-rendering:auto;text-rendering:auto;enable-background:accumulate"
     d="M 10,7 C 8.355297,7 7,8.355297 7,10 v 12 c 0,1.644703 1.355297,3 3,3 h 12 c 1.644703,0 3,-1.355297 3,-3 V 10 C 25,8.355297 23.644703,7 22,7 Z m 0,2 h 12 c 0.571297,0 1,0.428703 1,1 v 12 c 0,0.571297 -0.428703,1 -1,1 H 10 C 9.428703,23 9,22.571297 9,22 V 10 C 9,9.428703 9.428703,9 10,9 Z"
     id="rect2-9"
     inkscape:connector-curvature="0"
     sodipodi:nodetypes="ssssssssssssssssss" />
  <path
     style="fill:#ffffff;fill-opacity:1;stroke:none;stroke-width:3.57142925;stroke-miterlimit:10"
     d="m 16,11 a 5.0000005,5.0000005 0 0 0 -5,5 5.0000005,5.0000005 0 0 0 5,5 5.0000005,5.0000005 0 0 0 5,-5 5.0000005,5.0000005 0 0 0 -5,-5 z m 0,2 a 3.0000003,3.0000003 0 0 1 3,3 3.0000003,3.0000003 0 0 1 -3,3 3.0000003,3.0000003 0 0 1 -3,-3 3.0000003,3.0000003 0 0 1 3,-3 z"
     id="circle13-9"
     inkscape:connector-curvature="0" />
  <path
     style="fill:#ffffff;fill-opacity:1;stroke:none;stroke-width:0.71428585;stroke-miterlimit:10"
     d="m 17,16 a 1.0000001,1.0000001 0 0 1 -1,1 1.0000001,1.0000001 0 0 1 -1,-1 1.0000001,1.0000001 0 0 1 1,-1 1.0000001,1.0000001 0 0 1 1,1 z"
     id="circle13"
     inkscape:connector-curvature="0" />
  <path
     style="fill:#ffffff;fill-opacity:1;stroke:none;stroke-width:0.71428585;stroke-miterlimit:10"
     d="m 12,11 a 1.0000001,1.0000001 0 0 1 -1,1 1.0000001,1.0000001 0 0 1 -1,-1 1.0000001,1.0000001 0 0 1 1,-1 1.0000001,1.0000001 0 0 1 1,1 z"
     id="circle13-2"
     inkscape:connector-curvature="0" />
</svg>
