<?xml version="1.0" encoding="UTF-8" standalone="no"?>
<svg
   xmlns:dc="http://purl.org/dc/elements/1.1/"
   xmlns:cc="http://creativecommons.org/ns#"
   xmlns:rdf="http://www.w3.org/1999/02/22-rdf-syntax-ns#"
   xmlns:svg="http://www.w3.org/2000/svg"
   xmlns="http://www.w3.org/2000/svg"
   xmlns:sodipodi="http://sodipodi.sourceforge.net/DTD/sodipodi-0.dtd"
   xmlns:inkscape="http://www.inkscape.org/namespaces/inkscape"
   version="1.1"
   viewBox="0 0 32 32"
   id="svg8"
   sodipodi:docname="emblem-unreadable.svg"
   inkscape:version="0.92.5 (2060ec1f9f, 2020-04-08)">
  <metadata
     id="metadata14">
    <rdf:RDF>
      <cc:Work
         rdf:about="">
        <dc:format>image/svg+xml</dc:format>
        <dc:type
           rdf:resource="http://purl.org/dc/dcmitype/StillImage" />
      </cc:Work>
    </rdf:RDF>
  </metadata>
  <defs
     id="defs12" />
  <sodipodi:namedview
     pagecolor="#ffffff"
     bordercolor="#666666"
     borderopacity="1"
     objecttolerance="10"
     gridtolerance="10"
     guidetolerance="10"
     inkscape:pageopacity="0"
     inkscape:pageshadow="2"
     inkscape:window-width="959"
     inkscape:window-height="1015"
     id="namedview10"
     showgrid="true"
     inkscape:zoom="13.1875"
     inkscape:cx="-5.8847682"
     inkscape:cy="29.202328"
     inkscape:window-x="960"
     inkscape:window-y="0"
     inkscape:window-maximized="0"
     inkscape:current-layer="svg8"
     inkscape:document-rotation="0">
    <inkscape:grid
       type="xygrid"
       id="grid839" />
  </sodipodi:namedview>
  <rect
     style="color:#000000;overflow:visible;fill:#d33636;fill-opacity:1;stroke:none;stroke-width:0.92592603;stroke-opacity:0.35"
     id="rect2"
     overflow="visible"
     ry="2"
     rx="2"
     height="25"
     width="25"
     y="3.5"
     x="3.5" />
  <path
     inkscape:connector-curvature="0"
     id="path836"
     d="M 5.470145,3 C 4.1097959,3 3,4.1097959 3,5.470145 v 21.05971 C 3,27.890204 4.1097959,29 5.470145,29 h 21.05971 C 27.890204,29 29,27.890204 29,26.529855 V 5.470145 C 29,4.1097959 27.890204,3 26.529855,3 Z m 0,0.9285714 h 21.05971 c 0.861982,0 1.541574,0.6795913 1.541574,1.5415736 v 21.05971 c 0,0.861982 -0.679592,1.541574 -1.541574,1.541574 H 5.470145 c -0.8619823,0 -1.5415736,-0.679592 -1.5415736,-1.541574 V 5.470145 c 0,-0.8619823 0.6795913,-1.5415736 1.5415736,-1.5415736 z"
     style="color:#000000;font-style:normal;font-variant:normal;font-weight:normal;font-stretch:normal;font-size:medium;line-height:normal;font-family:sans-serif;font-variant-ligatures:normal;font-variant-position:normal;font-variant-caps:normal;font-variant-numeric:normal;font-variant-alternates:normal;font-feature-settings:normal;text-indent:0;text-align:start;text-decoration:none;text-decoration-line:none;text-decoration-style:solid;text-decoration-color:#000000;letter-spacing:normal;word-spacing:normal;text-transform:none;writing-mode:lr-tb;direction:ltr;text-orientation:mixed;dominant-baseline:auto;baseline-shift:baseline;text-anchor:start;white-space:normal;shape-padding:0;clip-rule:nonzero;display:inline;overflow:visible;visibility:visible;opacity:0.35;isolation:auto;mix-blend-mode:normal;color-interpolation:sRGB;color-interpolation-filters:linearRGB;solid-color:#000000;solid-opacity:1;vector-effect:none;fill:#000000;fill-opacity:1;fill-rule:nonzero;stroke:none;stroke-width:0.92857099;stroke-linecap:round;stroke-linejoin:round;stroke-miterlimit:4;stroke-dasharray:none;stroke-dashoffset:0;stroke-opacity:1;color-rendering:auto;image-rendering:auto;shape-rendering:auto;text-rendering:auto;enable-background:accumulate" />
  <path
     style="color:#bebebe;opacity:0.2;fill:#000000;fill-opacity:1;stroke-width:3.5999999"
     d="m 8,9 v 3 l 5,5 -5,5 v 3 h 3 l 5,-5 5,5 h 3 v -3 l -5,-5 5,-5 V 9 h -3 l -5,5 -5,-5 z"
     id="path20031-7"
     inkscape:connector-curvature="0"
     sodipodi:nodetypes="ccccccccccccccccc" />
  <path
     style="color:#bebebe;fill:#ffffff;fill-opacity:1;stroke-width:3.5999999"
     d="m 8,8 v 3 l 5,5 -5,5 v 3 h 3 l 5,-5 5,5 h 3 v -3 l -5,-5 5,-5 V 8 h -3 l -5,5 -5,-5 z"
     id="path20031"
     inkscape:connector-curvature="0"
     sodipodi:nodetypes="ccccccccccccccccc" />
</svg>
