<?xml version="1.0" encoding="UTF-8" standalone="no"?>
<svg
   xmlns:dc="http://purl.org/dc/elements/1.1/"
   xmlns:cc="http://creativecommons.org/ns#"
   xmlns:rdf="http://www.w3.org/1999/02/22-rdf-syntax-ns#"
   xmlns:svg="http://www.w3.org/2000/svg"
   xmlns="http://www.w3.org/2000/svg"
   xmlns:sodipodi="http://sodipodi.sourceforge.net/DTD/sodipodi-0.dtd"
   xmlns:inkscape="http://www.inkscape.org/namespaces/inkscape"
   version="1.1"
   viewBox="0 0 32 32"
   id="svg8"
   sodipodi:docname="emblem-documents.svg"
   inkscape:version="0.92.5 (2060ec1f9f, 2020-04-08)">
  <metadata
     id="metadata14">
    <rdf:RDF>
      <cc:Work
         rdf:about="">
        <dc:format>image/svg+xml</dc:format>
        <dc:type
           rdf:resource="http://purl.org/dc/dcmitype/StillImage" />
      </cc:Work>
    </rdf:RDF>
  </metadata>
  <defs
     id="defs12" />
  <sodipodi:namedview
     pagecolor="#ffffff"
     bordercolor="#666666"
     borderopacity="1"
     objecttolerance="10"
     gridtolerance="10"
     guidetolerance="10"
     inkscape:pageopacity="0"
     inkscape:pageshadow="2"
     inkscape:window-width="1920"
     inkscape:window-height="1015"
     id="namedview10"
     showgrid="true"
     inkscape:zoom="5.6568543"
     inkscape:cx="7.6174284"
     inkscape:cy="23.414554"
     inkscape:window-x="0"
     inkscape:window-y="0"
     inkscape:window-maximized="1"
     inkscape:current-layer="svg8"
     inkscape:document-rotation="0">
    <inkscape:grid
       type="xygrid"
       id="grid839" />
  </sodipodi:namedview>
  <rect
     style="color:#000000;overflow:visible;fill:#fafafa;fill-opacity:1;stroke:none;stroke-width:0.92592603;stroke-opacity:0.35"
     id="rect2"
     overflow="visible"
     ry="2"
     rx="2"
     height="25"
     width="25"
     y="3.5"
     x="3.5" />
  <path
     sodipodi:nodetypes="ccccc"
     inkscape:connector-curvature="0"
     id="rect15710-6-3"
     d="M 3.93,8 H 28.07 V 9 H 3.93 Z"
     style="opacity:0.75;fill:#b9b9b9;fill-opacity:1;fill-rule:nonzero;stroke:none;stroke-width:0.97979587" />
  <path
     sodipodi:nodetypes="ccccc"
     inkscape:connector-curvature="0"
     id="rect15710-6"
     d="m 3.93,13 h 24.14 v 1 H 3.93 Z"
     style="opacity:0.75;fill:#b9b9b9;fill-opacity:1;fill-rule:nonzero;stroke:none;stroke-width:0.98264951" />
  <path
     sodipodi:nodetypes="ccccc"
     inkscape:connector-curvature="0"
     id="rect15710-6-6"
     d="m 3.93,18 h 24.14 v 1 H 3.93 Z"
     style="opacity:0.75;fill:#b9b9b9;fill-opacity:1;fill-rule:nonzero;stroke:none;stroke-width:0.98264951" />
  <path
     sodipodi:nodetypes="ccccc"
     inkscape:connector-curvature="0"
     id="rect9398"
     d="m 3.93,23 h 24.14 v 1 H 3.93 Z"
     style="opacity:0.75;fill:#b9b9b9;fill-opacity:1;fill-rule:nonzero;stroke:none;stroke-width:0.98264951" />
  <path
     inkscape:connector-curvature="0"
     id="path836"
     d="M 5.470145,3 C 4.1097959,3 3,4.1097959 3,5.470145 v 21.05971 C 3,27.890204 4.1097959,29 5.470145,29 h 21.05971 C 27.890204,29 29,27.890204 29,26.529855 V 5.470145 C 29,4.1097959 27.890204,3 26.529855,3 Z m 0,0.9285714 h 21.05971 c 0.861982,0 1.541574,0.6795913 1.541574,1.5415736 v 21.05971 c 0,0.861982 -0.679592,1.541574 -1.541574,1.541574 H 5.470145 c -0.8619823,0 -1.5415736,-0.679592 -1.5415736,-1.541574 V 5.470145 c 0,-0.8619823 0.6795913,-1.5415736 1.5415736,-1.5415736 z"
     style="color:#000000;font-style:normal;font-variant:normal;font-weight:normal;font-stretch:normal;font-size:medium;line-height:normal;font-family:sans-serif;font-variant-ligatures:normal;font-variant-position:normal;font-variant-caps:normal;font-variant-numeric:normal;font-variant-alternates:normal;font-feature-settings:normal;text-indent:0;text-align:start;text-decoration:none;text-decoration-line:none;text-decoration-style:solid;text-decoration-color:#000000;letter-spacing:normal;word-spacing:normal;text-transform:none;writing-mode:lr-tb;direction:ltr;text-orientation:mixed;dominant-baseline:auto;baseline-shift:baseline;text-anchor:start;white-space:normal;shape-padding:0;clip-rule:nonzero;display:inline;overflow:visible;visibility:visible;opacity:0.35;isolation:auto;mix-blend-mode:normal;color-interpolation:sRGB;color-interpolation-filters:linearRGB;solid-color:#000000;solid-opacity:1;vector-effect:none;fill:#000000;fill-opacity:1;fill-rule:nonzero;stroke:none;stroke-width:0.92857099;stroke-linecap:round;stroke-linejoin:round;stroke-miterlimit:4;stroke-dasharray:none;stroke-dashoffset:0;stroke-opacity:1;color-rendering:auto;image-rendering:auto;shape-rendering:auto;text-rendering:auto;enable-background:accumulate" />
  <path
     sodipodi:nodetypes="ccccc"
     inkscape:connector-curvature="0"
     id="rect15708-3"
     d="m 9,3.93 h 1 V 28.07 H 9 Z"
     style="opacity:0.3;fill:#da4d45;fill-opacity:1;fill-rule:nonzero;stroke:none;stroke-width:0.98264951" />
  <path
     style="opacity:1;fill:#9b9b9b;fill-opacity:1;stroke:none;stroke-width:0.73029673;stroke-linejoin:round;stroke-miterlimit:4;stroke-dasharray:none;stroke-opacity:1"
     d="M 8,11 A 1,1 0 0 1 7,12 1,1 0 0 1 6,11 1,1 0 0 1 7,9.9999996 1,1 0 0 1 8,11 Z"
     id="path877"
     inkscape:connector-curvature="0" />
  <path
     style="opacity:1;fill:#9b9b9b;fill-opacity:1;stroke:none;stroke-width:0.73029673;stroke-linejoin:round;stroke-miterlimit:4;stroke-dasharray:none;stroke-opacity:1"
     d="M 8,21 A 1,1 0 0 1 7,22 1,1 0 0 1 6,21 1,1 0 0 1 7,20 1,1 0 0 1 8,21 Z"
     id="path877-7"
     inkscape:connector-curvature="0" />
  <path
     style="fill:none;stroke:#7e8087;stroke-width:0.47695559;stroke-linecap:round;stroke-linejoin:bevel;stroke-miterlimit:0;stroke-dasharray:none;stroke-dashoffset:0;stroke-opacity:1"
     d="m 17.24001,15.241519 0.794922,1.589852 0.794928,-0.794926 0.794928,0.794926 0.794922,-1.589852 0.794928,1.589852 0.794928,-1.589852 0.794922,1.589852 0.794928,-0.794926"
     id="path8313"
     inkscape:connector-curvature="0"
     sodipodi:nodetypes="ccccccccc" />
  <path
     style="fill:none;stroke:#7e8087;stroke-width:0.46018454;stroke-linecap:round;stroke-linejoin:bevel;stroke-miterlimit:0;stroke-dasharray:none;stroke-dashoffset:0;stroke-opacity:1"
     d="m 12.231571,11.766974 0.766971,-1.533948 0.766976,1.533948 0.766976,-0.766975 0.766971,0.766975 0.766976,-0.766975 0.766976,0.766975 0.766971,-1.533948 0.766976,1.533948 0.766975,-1.533948 0.766972,1.533948 0.766975,-0.766975 0.766976,0.766975 0.766971,-1.533948"
     id="path8315"
     inkscape:connector-curvature="0"
     sodipodi:nodetypes="cccccccccccccc" />
  <path
     style="fill:none;stroke:#7e8087;stroke-width:0.47695571;stroke-linecap:round;stroke-linejoin:bevel;stroke-miterlimit:0;stroke-dasharray:none;stroke-dashoffset:0;stroke-opacity:1"
     d="m 12.24001,20.241518 0.794927,1.589852 0.794923,-1.589852 0.794928,1.589852 0.794928,-0.794926 0.794923,0.794926 0.794928,-1.589852 0.794927,1.589852 0.794923,-1.192389 0.794928,1.192389 0.794928,-1.589852 0.794923,1.589852 0.794928,-1.192389 0.794927,1.192389 0.794923,-0.794926 0.794928,0.794926 0.794928,-1.589852"
     id="path8317"
     inkscape:connector-curvature="0"
     sodipodi:nodetypes="ccccccccccccccccc" />
  <path
     sodipodi:nodetypes="ccc"
     style="fill:none;stroke:#7e8087;stroke-width:0.49220896;stroke-linecap:round;stroke-linejoin:bevel;stroke-miterlimit:0;stroke-dasharray:none;stroke-dashoffset:0;stroke-opacity:1"
     d="m 12.247686,15.249242 0.820345,1.640697 0.82035,-1.640697"
     id="path8325"
     inkscape:connector-curvature="0" />
</svg>
