<?xml version="1.0" encoding="UTF-8" standalone="no"?>
<svg
   xmlns:dc="http://purl.org/dc/elements/1.1/"
   xmlns:cc="http://creativecommons.org/ns#"
   xmlns:rdf="http://www.w3.org/1999/02/22-rdf-syntax-ns#"
   xmlns:svg="http://www.w3.org/2000/svg"
   xmlns="http://www.w3.org/2000/svg"
   xmlns:sodipodi="http://sodipodi.sourceforge.net/DTD/sodipodi-0.dtd"
   xmlns:inkscape="http://www.inkscape.org/namespaces/inkscape"
   version="1.1"
   viewBox="0 0 32 32"
   id="svg8"
   sodipodi:docname="emblem-downloads.svg"
   inkscape:version="0.92.5 (2060ec1f9f, 2020-04-08)">
  <metadata
     id="metadata14">
    <rdf:RDF>
      <cc:Work
         rdf:about="">
        <dc:format>image/svg+xml</dc:format>
        <dc:type
           rdf:resource="http://purl.org/dc/dcmitype/StillImage" />
      </cc:Work>
    </rdf:RDF>
  </metadata>
  <defs
     id="defs12" />
  <sodipodi:namedview
     pagecolor="#ffffff"
     bordercolor="#666666"
     borderopacity="1"
     objecttolerance="10"
     gridtolerance="10"
     guidetolerance="10"
     inkscape:pageopacity="0"
     inkscape:pageshadow="2"
     inkscape:window-width="1920"
     inkscape:window-height="1015"
     id="namedview10"
     showgrid="true"
     inkscape:zoom="18.649941"
     inkscape:cx="-5.323404"
     inkscape:cy="14.483315"
     inkscape:window-x="0"
     inkscape:window-y="0"
     inkscape:window-maximized="1"
     inkscape:current-layer="svg8"
     inkscape:document-rotation="0">
    <inkscape:grid
       type="xygrid"
       id="grid839" />
  </sodipodi:namedview>
  <rect
     style="color:#000000;overflow:visible;fill:#3689e6;fill-opacity:1;stroke:none;stroke-width:0.92592603;stroke-opacity:0.35"
     id="rect2"
     overflow="visible"
     ry="2"
     rx="2"
     height="25"
     width="25"
     y="3.5"
     x="3.5" />
  <path
     sodipodi:nodetypes="sccccccscccccs"
     inkscape:connector-curvature="0"
     style="opacity:0.2;vector-effect:none;fill:#000000;fill-opacity:1;stroke:none;stroke-width:1.45867205;stroke-linecap:butt;stroke-linejoin:miter;stroke-miterlimit:4;stroke-dasharray:none;stroke-dashoffset:0;stroke-opacity:1;marker:none;paint-order:normal"
     d="m 16.000004,26 c 0.429784,0 0.859564,-0.163391 1.183164,-0.482458 l 6.306412,-6.065988 c 0.72883,-0.870583 -0.01892,-2.414425 -1.183161,-2.447566 l -3.328975,3.81e-4 V 9.505868 C 18.945124,8.6871747 18.346205,8.0306145 17.488723,7.9996746 L 14.511279,7.999424 c -0.742848,-6.25e-5 -1.481433,0.7804972 -1.488724,1.506194 v 7.4985 l -3.3289728,2.51e-4 c -1.1642343,0.03313 -1.9119938,1.576983 -1.1831642,2.447566 l 6.306423,6.065607 C 15.140425,25.836609 15.570223,26 16.000004,26 Z"
     id="path818-7-3" />
  <path
     sodipodi:nodetypes="sccccccscccccs"
     inkscape:connector-curvature="0"
     style="opacity:1;vector-effect:none;fill:#ffffff;fill-opacity:1;stroke:none;stroke-width:1.45867205;stroke-linecap:butt;stroke-linejoin:miter;stroke-miterlimit:4;stroke-dasharray:none;stroke-dashoffset:0;stroke-opacity:1;marker:none;paint-order:normal"
     d="m 16.000004,25.000229 c 0.429784,0 0.859564,-0.163391 1.183164,-0.482458 L 23.48958,18.451783 C 24.21841,17.5812 23.47066,16.037358 22.306419,16.004217 l -3.328975,3.81e-4 V 8.5060969 C 18.945124,7.6874033 18.346205,7.0308431 17.488723,6.9999032 l -2.977444,-2.506e-4 c -0.742848,-6.25e-5 -1.481433,0.7804972 -1.488724,1.5061937 v 7.4985007 l -3.3289729,2.51e-4 c -1.1642343,0.03313 -1.9119938,1.576983 -1.1831642,2.447566 l 6.3064231,6.065607 c 0.323584,0.319067 0.753382,0.482458 1.183163,0.482458 z"
     id="path818-7" />
  <path
     style="color:#000000;font-style:normal;font-variant:normal;font-weight:normal;font-stretch:normal;font-size:medium;line-height:normal;font-family:sans-serif;font-variant-ligatures:normal;font-variant-position:normal;font-variant-caps:normal;font-variant-numeric:normal;font-variant-alternates:normal;font-feature-settings:normal;text-indent:0;text-align:start;text-decoration:none;text-decoration-line:none;text-decoration-style:solid;text-decoration-color:#000000;letter-spacing:normal;word-spacing:normal;text-transform:none;writing-mode:lr-tb;direction:ltr;text-orientation:mixed;dominant-baseline:auto;baseline-shift:baseline;text-anchor:start;white-space:normal;shape-padding:0;clip-rule:nonzero;display:inline;overflow:visible;visibility:visible;opacity:0.35;isolation:auto;mix-blend-mode:normal;color-interpolation:sRGB;color-interpolation-filters:linearRGB;solid-color:#000000;solid-opacity:1;vector-effect:none;fill:#000000;fill-opacity:1;fill-rule:nonzero;stroke:none;stroke-width:1;stroke-linecap:butt;stroke-linejoin:miter;stroke-miterlimit:4;stroke-dasharray:none;stroke-dashoffset:0;stroke-opacity:1;color-rendering:auto;image-rendering:auto;shape-rendering:auto;text-rendering:auto;enable-background:accumulate"
     d="M 5.5,3 C 4.123649,3 3,4.1236486 3,5.5 v 21 C 3,27.876351 4.123649,29 5.5,29 h 21 C 27.876351,29 29,27.876351 29,26.5 V 5.5 C 29,4.1236486 27.876351,3 26.5,3 Z m 0,1 h 21 C 27.339649,4 28,4.6603514 28,5.5 v 21 C 28,27.339649 27.339649,28 26.5,28 H 5.5 C 4.660351,28 4,27.339649 4,26.5 V 5.5 C 4,4.6603514 4.660351,4 5.5,4 Z"
     id="rect2-6"
     inkscape:connector-curvature="0" />
</svg>
