<?xml version="1.0" encoding="UTF-8" standalone="no"?>
<svg
   xmlns:dc="http://purl.org/dc/elements/1.1/"
   xmlns:cc="http://creativecommons.org/ns#"
   xmlns:rdf="http://www.w3.org/1999/02/22-rdf-syntax-ns#"
   xmlns:svg="http://www.w3.org/2000/svg"
   xmlns="http://www.w3.org/2000/svg"
   xmlns:xlink="http://www.w3.org/1999/xlink"
   xmlns:sodipodi="http://sodipodi.sourceforge.net/DTD/sodipodi-0.dtd"
   xmlns:inkscape="http://www.inkscape.org/namespaces/inkscape"
   version="1.1"
   viewBox="0 0 32 32"
   id="svg8"
   sodipodi:docname="emblem-note.svg"
   inkscape:version="0.92.5 (2060ec1f9f, 2020-04-08)">
  <metadata
     id="metadata14">
    <rdf:RDF>
      <cc:Work
         rdf:about="">
        <dc:format>image/svg+xml</dc:format>
        <dc:type
           rdf:resource="http://purl.org/dc/dcmitype/StillImage" />
      </cc:Work>
    </rdf:RDF>
  </metadata>
  <defs
     id="defs12">
    <linearGradient
       id="r"
       y2="59.820999"
       xlink:href="#a"
       gradientUnits="userSpaceOnUse"
       x2="59.612"
       y1="82.290001"
       x1="82.080002"
       gradientTransform="matrix(0.30280091,0,0,0.30280091,1.6869068,1.8085633)" />
    <linearGradient
       id="a"
       stop-color="#fff">
      <stop
         offset="0"
         id="stop2" />
      <stop
         stop-opacity="0"
         offset="1"
         id="stop4" />
    </linearGradient>
    <linearGradient
       x1="22.004084"
       y1="47.813133"
       x2="22.004084"
       y2="3.3638515"
       id="linearGradient3084"
       xlink:href="#linearGradient3104-5"
       gradientUnits="userSpaceOnUse"
       gradientTransform="matrix(0.66858377,0,0,0.67036989,-0.67961918,1.6917319)" />
    <linearGradient
       id="linearGradient3104-5">
      <stop
         id="stop3106-2"
         style="stop-color:#aaaaaa;stop-opacity:1"
         offset="0" />
      <stop
         id="stop3108-5"
         style="stop-color:#c8c8c8;stop-opacity:1"
         offset="1" />
    </linearGradient>
  </defs>
  <sodipodi:namedview
     pagecolor="#ffffff"
     bordercolor="#666666"
     borderopacity="1"
     objecttolerance="10"
     gridtolerance="10"
     guidetolerance="10"
     inkscape:pageopacity="0"
     inkscape:pageshadow="2"
     inkscape:window-width="959"
     inkscape:window-height="1015"
     id="namedview10"
     showgrid="true"
     inkscape:zoom="18.649941"
     inkscape:cx="17.897557"
     inkscape:cy="12.84366"
     inkscape:window-x="0"
     inkscape:window-y="0"
     inkscape:window-maximized="0"
     inkscape:current-layer="svg8"
     inkscape:document-rotation="0">
    <inkscape:grid
       type="xygrid"
       id="grid839" />
  </sodipodi:namedview>
  <rect
     style="color:#000000;overflow:visible;fill:#fff394;fill-opacity:1;stroke:none;stroke-width:0.92592603;stroke-opacity:0.35"
     id="rect2"
     overflow="visible"
     ry="2"
     rx="2"
     height="25"
     width="25"
     y="3.5"
     x="3.5" />
  <path
     d="m 28.200761,4.060645 c 0.271309,0.3378047 0.435427,0.7708403 0.435427,1.2395152 0,11.1233918 -1.072823,18.1998488 -2.37517,21.1772898 -3.275095,1.523392 -10.802725,2.280394 -21.0825132,2.280394 -0.468676,-6.06e-4 -0.901711,-0.164421 -1.239516,-0.435428 0.36109,0.449963 0.917941,0.737321 1.542316,0.738229 10.2797892,0 17.8074192,-0.757002 21.0825142,-2.280394 1.302347,-2.977441 2.37517,-10.053898 2.37517,-21.1772899 0,-0.6243751 -0.287963,-1.181226 -0.738228,-1.5423161 z"
     id="path75"
     style="opacity:0.3;fill:url(#r);stroke-width:0.30280089"
     inkscape:connector-curvature="0" />
  <path
     style="color:#000000;overflow:visible;fill:#f9c440;fill-opacity:1;stroke:none;stroke-width:0.92592603;stroke-opacity:0.35"
     d="m 5.5,3.5 c -1.108,0 -2,0.892 -2,2 V 7 h 25 V 5.5 c 0,-1.108 -0.892,-2 -2,-2 z"
     id="rect2-3"
     inkscape:connector-curvature="0" />
  <path
     inkscape:connector-curvature="0"
     id="path836"
     d="M 5.470145,3 C 4.1097959,3 3,4.1097959 3,5.470145 v 21.05971 C 3,27.890204 4.1097959,29 5.470145,29 h 21.05971 C 27.890204,29 29,27.890204 29,26.529855 V 5.470145 C 29,4.1097959 27.890204,3 26.529855,3 Z m 0,0.9285714 h 21.05971 c 0.861982,0 1.541574,0.6795913 1.541574,1.5415736 v 21.05971 c 0,0.861982 -0.679592,1.541574 -1.541574,1.541574 H 5.470145 c -0.8619823,0 -1.5415736,-0.679592 -1.5415736,-1.541574 V 5.470145 c 0,-0.8619823 0.6795913,-1.5415736 1.5415736,-1.5415736 z"
     style="color:#000000;font-style:normal;font-variant:normal;font-weight:normal;font-stretch:normal;font-size:medium;line-height:normal;font-family:sans-serif;font-variant-ligatures:normal;font-variant-position:normal;font-variant-caps:normal;font-variant-numeric:normal;font-variant-alternates:normal;font-feature-settings:normal;text-indent:0;text-align:start;text-decoration:none;text-decoration-line:none;text-decoration-style:solid;text-decoration-color:#000000;letter-spacing:normal;word-spacing:normal;text-transform:none;writing-mode:lr-tb;direction:ltr;text-orientation:mixed;dominant-baseline:auto;baseline-shift:baseline;text-anchor:start;white-space:normal;shape-padding:0;clip-rule:nonzero;display:inline;overflow:visible;visibility:visible;opacity:0.35;isolation:auto;mix-blend-mode:normal;color-interpolation:sRGB;color-interpolation-filters:linearRGB;solid-color:#000000;solid-opacity:1;vector-effect:none;fill:#000000;fill-opacity:1;fill-rule:nonzero;stroke:none;stroke-width:0.92857099;stroke-linecap:round;stroke-linejoin:round;stroke-miterlimit:4;stroke-dasharray:none;stroke-dashoffset:0;stroke-opacity:1;color-rendering:auto;image-rendering:auto;shape-rendering:auto;text-rendering:auto;enable-background:accumulate" />
  <rect
     style="opacity:0.2;fill:#fbea6e;fill-opacity:1;stroke:none;stroke-width:2;stroke-linejoin:round;stroke-miterlimit:4;stroke-dasharray:none;stroke-opacity:1"
     id="rect836"
     width="1"
     height="1"
     x="-22"
     y="22"
     rx="2"
     ry="1" />
  <path
     inkscape:connector-curvature="0"
     style="opacity:0.5;fill:#552200;stroke-width:0.35242385"
     d="M 28.5,6 C 28.357668,17.619016 27.171993,22.588105 25.756365,25.847499 22.195346,27.515533 16.797541,28.395739 6,28.5 16.839332,28.46466 22.70316,28.144105 26.261018,26.47745 27.677102,23.217279 28.413222,17.695054 28.499824,6 Z"
     id="path77"
     sodipodi:nodetypes="cccccc" />
  <path
     inkscape:connector-curvature="0"
     style="fill:#fff394;fill-opacity:1;stroke:#7e8087;stroke-width:0.99999994px;stroke-linecap:butt;stroke-linejoin:miter;stroke-opacity:1"
     id="path3475"
     d="m 8,10.567745 h 1.566993 z m 1.7968187,0 h 1.4625263 z m 1.6923523,0 h 1.295381 z m 1.504313,0 h 0.564117 z m 0.793943,0 h 1.253595 z m 1.504313,0 h 3.301133 z m 3.510065,0 h 2.528083 z m 2.737015,0 h 0.77305 z M 8,14.5 h 2.862373 z m 3.092199,0 h 3.0922 z m 3.301132,0 h 1.232701 z m 1.441634,0 h 2.904161 z m 3.092199,0 h 1.984859 z m 2.214684,0 h 0.793944 z m 1.002876,0 h 0.438758 z m 0.668584,0 h 1.232701 z m -14.8133081,5 h 2.6325471 z m 2.8414801,0 h 2.820588 z m 3.02952,0 h 1.086449 z m 1.295381,0 h 2.653442 z m 2.862374,0 h 3.342919 z m 3.572745,0 h 1.232701 z m -13.6015001,4 h 2.4445091 z m 2.7161211,0 h 1.170021 z m 1.378954,0 h 0.58501 z m 0.814836,0 h 1.065555 z m 1.295381,0 h 1.086448 z m 1.295381,0 h 1.734139 z m 1.963965,0 h 2.25647 z m 2.465402,0 h 1.504314 z m 1.713247,0 h 0.376078 z"
     sodipodi:nodetypes="ccccccccccccccccccccccccccccccccccccccccccccccccccccccccccccccccccccccccccccccccccccccccccccc" />
</svg>
