<?xml version="1.0" encoding="UTF-8" standalone="no"?>
<svg
   xmlns:dc="http://purl.org/dc/elements/1.1/"
   xmlns:cc="http://creativecommons.org/ns#"
   xmlns:rdf="http://www.w3.org/1999/02/22-rdf-syntax-ns#"
   xmlns:svg="http://www.w3.org/2000/svg"
   xmlns="http://www.w3.org/2000/svg"
   xmlns:sodipodi="http://sodipodi.sourceforge.net/DTD/sodipodi-0.dtd"
   xmlns:inkscape="http://www.inkscape.org/namespaces/inkscape"
   version="1.1"
   viewBox="0 0 32 32"
   id="svg8"
   sodipodi:docname="emblem-photos.svg"
   inkscape:version="0.92.5 (2060ec1f9f, 2020-04-08)">
  <metadata
     id="metadata14">
    <rdf:RDF>
      <cc:Work
         rdf:about="">
        <dc:format>image/svg+xml</dc:format>
        <dc:type
           rdf:resource="http://purl.org/dc/dcmitype/StillImage" />
      </cc:Work>
    </rdf:RDF>
  </metadata>
  <defs
     id="defs12" />
  <sodipodi:namedview
     pagecolor="#ffffff"
     bordercolor="#666666"
     borderopacity="1"
     objecttolerance="10"
     gridtolerance="10"
     guidetolerance="10"
     inkscape:pageopacity="0"
     inkscape:pageshadow="2"
     inkscape:window-width="1920"
     inkscape:window-height="1015"
     id="namedview10"
     showgrid="true"
     inkscape:zoom="26.374999"
     inkscape:cx="12.719406"
     inkscape:cy="15.629428"
     inkscape:window-x="0"
     inkscape:window-y="0"
     inkscape:window-maximized="1"
     inkscape:current-layer="svg8"
     inkscape:document-rotation="0">
    <inkscape:grid
       type="xygrid"
       id="grid839" />
  </sodipodi:namedview>
  <rect
     style="color:#000000;overflow:visible;fill:#de3e80;fill-opacity:1;stroke:none;stroke-width:0.92592603;stroke-opacity:0.35"
     id="rect2"
     overflow="visible"
     ry="2"
     rx="2"
     height="25"
     width="25"
     y="3.5"
     x="3.5" />
  <path
     style="color:#000000;font-style:normal;font-variant:normal;font-weight:normal;font-stretch:normal;font-size:medium;line-height:normal;font-family:sans-serif;font-variant-ligatures:normal;font-variant-position:normal;font-variant-caps:normal;font-variant-numeric:normal;font-variant-alternates:normal;font-feature-settings:normal;text-indent:0;text-align:start;text-decoration:none;text-decoration-line:none;text-decoration-style:solid;text-decoration-color:#000000;letter-spacing:normal;word-spacing:normal;text-transform:none;writing-mode:lr-tb;direction:ltr;text-orientation:mixed;dominant-baseline:auto;baseline-shift:baseline;text-anchor:start;white-space:normal;shape-padding:0;clip-rule:nonzero;display:inline;overflow:visible;visibility:visible;opacity:0.35;isolation:auto;mix-blend-mode:normal;color-interpolation:sRGB;color-interpolation-filters:linearRGB;solid-color:#000000;solid-opacity:1;vector-effect:none;fill:#000000;fill-opacity:1;fill-rule:nonzero;stroke:none;stroke-width:1;stroke-linecap:butt;stroke-linejoin:miter;stroke-miterlimit:4;stroke-dasharray:none;stroke-dashoffset:0;stroke-opacity:1;color-rendering:auto;image-rendering:auto;shape-rendering:auto;text-rendering:auto;enable-background:accumulate"
     d="M 5.5,3 C 4.123649,3 3,4.1236486 3,5.5 v 21 C 3,27.876351 4.123649,29 5.5,29 h 21 C 27.876351,29 29,27.876351 29,26.5 V 5.5 C 29,4.1236486 27.876351,3 26.5,3 Z m 0,1 h 21 C 27.339649,4 28,4.6603514 28,5.5 v 21 C 28,27.339649 27.339649,28 26.5,28 H 5.5 C 4.660351,28 4,27.339649 4,26.5 V 5.5 C 4,4.6603514 4.660351,4 5.5,4 Z"
     id="rect2-6"
     inkscape:connector-curvature="0" />
  <path
     id="path2-3"
     style="color:#000000;overflow:visible;opacity:0.2;fill:#000000;fill-opacity:1;marker:none"
     overflow="visible"
     d="m 17.938719,9.0020008 a 0.49,0.49 0 0 0 -0.187,0.062 l -5.063,2.9379992 h 3.969 l 0.812,-0.469 0.282,0.469 h 2.280001 l -1.593,-2.7499992 a 0.51,0.51 0 0 0 -0.500001,-0.25 z m -6.937,3.9689992 -2.7499999,1.593 a 0.506,0.506 0 0 0 -0.188,0.688 l 2.9379999,5.062 v -3.968 l -0.47,-0.813 0.47,-0.281 z m 1.5,0.03 c -0.277,0 -0.5,0.224 -0.5,0.5 v 11 c 0,0.278 0.223,0.5 0.5,0.5 H 23.50172 c 0.277,0 0.5,-0.222 0.5,-0.5 v -11 c 0,-0.276 -0.223,-0.5 -0.5,-0.5 z m 1.5,2 h 8.000001 v 7 h -8.000001 z"
     inkscape:connector-curvature="0" />
  <path
     id="path2"
     style="color:#000000;overflow:visible;fill:#ffffff;fill-opacity:1;marker:none"
     overflow="visible"
     d="m 17.93886,8.0022253 a 0.49,0.49 0 0 0 -0.187,0.062 l -5.063,2.9379997 h 3.969 l 0.812,-0.469 0.282,0.469 h 2.28 l -1.593,-2.7499997 a 0.51,0.51 0 0 0 -0.5,-0.25 z m -6.937,3.9689997 -2.7500004,1.593 a 0.506,0.506 0 0 0 -0.188,0.688 l 2.9380004,5.062 v -3.968 l -0.47,-0.813 0.47,-0.281 z m 1.5,0.03 c -0.277,0 -0.5,0.224 -0.5,0.5 v 11 c 0,0.278 0.223,0.5 0.5,0.5 h 11 c 0.277,0 0.5,-0.222 0.5,-0.5 v -11 c 0,-0.276 -0.223,-0.5 -0.5,-0.5 z m 1.5,2 h 8 v 7 h -8 z"
     inkscape:connector-curvature="0" />
</svg>
