<?xml version="1.0" encoding="UTF-8" standalone="no"?>
<svg
   xmlns:dc="http://purl.org/dc/elements/1.1/"
   xmlns:cc="http://creativecommons.org/ns#"
   xmlns:rdf="http://www.w3.org/1999/02/22-rdf-syntax-ns#"
   xmlns:svg="http://www.w3.org/2000/svg"
   xmlns="http://www.w3.org/2000/svg"
   xmlns:sodipodi="http://sodipodi.sourceforge.net/DTD/sodipodi-0.dtd"
   xmlns:inkscape="http://www.inkscape.org/namespaces/inkscape"
   version="1.1"
   viewBox="0 0 32 32"
   id="svg8"
   sodipodi:docname="emblem-documents.svg"
   inkscape:version="0.92.5 (2060ec1f9f, 2020-04-08)">
  <metadata
     id="metadata14">
    <rdf:RDF>
      <cc:Work
         rdf:about="">
        <dc:format>image/svg+xml</dc:format>
        <dc:type
           rdf:resource="http://purl.org/dc/dcmitype/StillImage" />
      </cc:Work>
    </rdf:RDF>
  </metadata>
  <defs
     id="defs12" />
  <sodipodi:namedview
     pagecolor="#ffffff"
     bordercolor="#666666"
     borderopacity="1"
     objecttolerance="10"
     gridtolerance="10"
     guidetolerance="10"
     inkscape:pageopacity="0"
     inkscape:pageshadow="2"
     inkscape:window-width="959"
     inkscape:window-height="1015"
     id="namedview10"
     showgrid="true"
     inkscape:zoom="16"
     inkscape:cx="14.07261"
     inkscape:cy="14.864604"
     inkscape:window-x="0"
     inkscape:window-y="0"
     inkscape:window-maximized="0"
     inkscape:current-layer="svg8"
     inkscape:document-rotation="0">
    <inkscape:grid
       type="xygrid"
       id="grid839" />
  </sodipodi:namedview>
  <rect
     style="color:#000000;overflow:visible;fill:#f6f2b4;fill-opacity:1;stroke:none;stroke-width:0.92592603;stroke-opacity:0.35"
     id="rect2"
     overflow="visible"
     ry="2"
     rx="2"
     height="25"
     width="25"
     y="3.5"
     x="3.5" />
  <path
     sodipodi:nodetypes="ccccc"
     inkscape:connector-curvature="0"
     id="rect15710-6-3"
     d="M 4,8 H 28 V 9 H 4 Z"
     style="opacity:0.9;fill:#b9b9b9;fill-opacity:1;fill-rule:nonzero;stroke:none;stroke-width:0.97695059" />
  <path
     sodipodi:nodetypes="ccccc"
     inkscape:connector-curvature="0"
     id="rect15710-6"
     d="m 4,13 h 24 v 1 H 4 Z"
     style="opacity:0.85;fill:#b9b9b9;fill-opacity:1;fill-rule:nonzero;stroke:none;stroke-width:0.97979593" />
  <path
     sodipodi:nodetypes="ccccc"
     inkscape:connector-curvature="0"
     id="rect15710-6-6"
     d="m 4,18 h 24 v 1 H 4 Z"
     style="opacity:0.85;fill:#b9b9b9;fill-opacity:1;fill-rule:nonzero;stroke:none;stroke-width:0.97979593" />
  <path
     sodipodi:nodetypes="ccccc"
     inkscape:connector-curvature="0"
     id="rect9398"
     d="m 4,23 h 24 v 1 H 4 Z"
     style="opacity:0.9;fill:#b9b9b9;fill-opacity:1;fill-rule:nonzero;stroke:none;stroke-width:0.97979593" />
  <path
     sodipodi:nodetypes="ccccc"
     inkscape:connector-curvature="0"
     id="rect15708-3"
     d="m 9,4 h 1 V 28 H 9 Z"
     style="opacity:0.75;fill:#ff8c82;fill-opacity:1;fill-rule:nonzero;stroke:none;stroke-width:0.97979593" />
  <path
     style="opacity:1;fill:#9b9b9b;fill-opacity:1;stroke:none;stroke-width:0.73029673;stroke-linejoin:round;stroke-miterlimit:4;stroke-dasharray:none;stroke-opacity:1"
     d="M 8,11 A 1,1 0 0 1 7,12 1,1 0 0 1 6,11 1,1 0 0 1 7,9.9999996 1,1 0 0 1 8,11 Z"
     id="path877"
     inkscape:connector-curvature="0" />
  <path
     style="opacity:1;fill:#9b9b9b;fill-opacity:1;stroke:none;stroke-width:0.73029673;stroke-linejoin:round;stroke-miterlimit:4;stroke-dasharray:none;stroke-opacity:1"
     d="M 8,21 A 1,1 0 0 1 7,22 1,1 0 0 1 6,21 1,1 0 0 1 7,20 1,1 0 0 1 8,21 Z"
     id="path877-7"
     inkscape:connector-curvature="0" />
  <path
     style="color:#000000;font-style:normal;font-variant:normal;font-weight:normal;font-stretch:normal;font-size:medium;line-height:normal;font-family:sans-serif;font-variant-ligatures:normal;font-variant-position:normal;font-variant-caps:normal;font-variant-numeric:normal;font-variant-alternates:normal;font-feature-settings:normal;text-indent:0;text-align:start;text-decoration:none;text-decoration-line:none;text-decoration-style:solid;text-decoration-color:#000000;letter-spacing:normal;word-spacing:normal;text-transform:none;writing-mode:lr-tb;direction:ltr;text-orientation:mixed;dominant-baseline:auto;baseline-shift:baseline;text-anchor:start;white-space:normal;shape-padding:0;clip-rule:nonzero;display:inline;overflow:visible;visibility:visible;opacity:0.35;isolation:auto;mix-blend-mode:normal;color-interpolation:sRGB;color-interpolation-filters:linearRGB;solid-color:#000000;solid-opacity:1;vector-effect:none;fill:#000000;fill-opacity:1;fill-rule:nonzero;stroke:none;stroke-width:1;stroke-linecap:butt;stroke-linejoin:miter;stroke-miterlimit:4;stroke-dasharray:none;stroke-dashoffset:0;stroke-opacity:1;color-rendering:auto;image-rendering:auto;shape-rendering:auto;text-rendering:auto;enable-background:accumulate"
     d="M 5.5,3 C 4.123649,3 3,4.123649 3,5.5 v 21 C 3,27.876351 4.123649,29 5.5,29 h 21 C 27.876351,29 29,27.876351 29,26.5 V 5.5 C 29,4.123649 27.876351,3 26.5,3 Z m 0,1 h 21 C 27.339649,4 28,4.660351 28,5.5 v 21 C 28,27.339649 27.339649,28 26.5,28 H 5.5 C 4.660351,28 4,27.339649 4,26.5 V 5.5 C 4,4.660351 4.660351,4 5.5,4 Z"
     id="rect2-6"
     inkscape:connector-curvature="0" />
  <path
     inkscape:connector-curvature="0"
     style="opacity:1;fill:#ff8c82;enable-background:new;fill-opacity:1"
     d="m 21,4 v 7 L 23,9.7 25,11 V 4 Z"
     id="polygon36"
     sodipodi:nodetypes="cccccc" />
</svg>
