<?xml version="1.0" encoding="UTF-8" standalone="no"?>
<svg
   xmlns:dc="http://purl.org/dc/elements/1.1/"
   xmlns:cc="http://creativecommons.org/ns#"
   xmlns:rdf="http://www.w3.org/1999/02/22-rdf-syntax-ns#"
   xmlns:svg="http://www.w3.org/2000/svg"
   xmlns="http://www.w3.org/2000/svg"
   xmlns:sodipodi="http://sodipodi.sourceforge.net/DTD/sodipodi-0.dtd"
   xmlns:inkscape="http://www.inkscape.org/namespaces/inkscape"
   version="1.1"
   viewBox="0 0 32 32"
   id="svg8"
   sodipodi:docname="emblem-symbolic-link.svg"
   inkscape:version="0.92.5 (2060ec1f9f, 2020-04-08)">
  <metadata
     id="metadata14">
    <rdf:RDF>
      <cc:Work
         rdf:about="">
        <dc:format>image/svg+xml</dc:format>
        <dc:type
           rdf:resource="http://purl.org/dc/dcmitype/StillImage" />
      </cc:Work>
    </rdf:RDF>
  </metadata>
  <defs
     id="defs12" />
  <sodipodi:namedview
     pagecolor="#ffffff"
     bordercolor="#666666"
     borderopacity="1"
     objecttolerance="10"
     gridtolerance="10"
     guidetolerance="10"
     inkscape:pageopacity="0"
     inkscape:pageshadow="2"
     inkscape:window-width="1920"
     inkscape:window-height="1015"
     id="namedview10"
     showgrid="true"
     inkscape:zoom="22.627417"
     inkscape:cx="13.678103"
     inkscape:cy="15.427597"
     inkscape:window-x="0"
     inkscape:window-y="0"
     inkscape:window-maximized="1"
     inkscape:current-layer="svg8"
     inkscape:document-rotation="0">
    <inkscape:grid
       type="xygrid"
       id="grid839" />
  </sodipodi:namedview>
  <rect
     style="color:#000000;overflow:visible;fill:#c0c0c0;fill-opacity:1;stroke:none;stroke-width:0.92592603;stroke-opacity:0.35"
     id="rect2"
     overflow="visible"
     ry="2"
     rx="2"
     height="25"
     width="25"
     y="3.5"
     x="3.5" />
  <path
     id="path3970-3"
     d="m 10.625989,16.716712 c -0.9911462,0.991143 -1.0725352,2.5568 -0.256326,3.650438 l 1.149048,-1.149049 C 11.296484,18.77078 11.377177,18.228265 11.75736,17.848082 l 5.091167,-5.091168 c 0.380185,-0.380184 0.922698,-0.460877 1.37002,-0.238648 l 1.149048,-1.149049 c -1.093639,-0.816208 -2.659294,-0.734818 -3.650437,0.256326 z m -3.3764359,7.901917 c 0.173784,0.199121 0.358342,0.393699 0.548008,0.583364 0.189665,0.189666 0.3842427,0.374225 0.5833627,0.548007 l 6.3462842,-6.346283 a 0.80008,0.80008 0 1 0 -1.131371,-1.13137 z M 17.21976,14.648425 a 0.80087854,0.80087854 0 1 0 1.184404,1.078337 L 24.750447,9.380479 C 24.576664,9.181359 24.392103,8.986782 24.202438,8.797116 24.012774,8.607451 23.818196,8.422891 23.619075,8.249108 l -6.346282,6.346284 a 0.80008,0.80008 0 0 0 -0.05303,0.05303 z m -4.587356,7.981467 c 1.09364,0.816208 2.659295,0.734819 3.650438,-0.256326 l 5.09117,-5.091168 c 0.991143,-0.991145 1.072533,-2.5568 0.256326,-3.650439 l -1.149048,1.149048 c 0.222226,0.447322 0.141534,0.989837 -0.23865,1.37002 l -5.091168,5.091169 c -0.380183,0.380182 -0.922698,0.460875 -1.370019,0.238648 z"
     style="opacity:0.2;fill:#000000;fill-opacity:1;fill-rule:nonzero;stroke:none;stroke-width:0.40000001"
     inkscape:connector-curvature="0" />
  <path
     id="path3970"
     d="m 10.625989,15.717158 c -0.9911457,0.991143 -1.0725347,2.5568 -0.256326,3.650438 l 1.149048,-1.149049 c -0.222227,-0.447321 -0.141534,-0.989836 0.238649,-1.370019 l 5.091167,-5.091168 c 0.380185,-0.380184 0.922698,-0.460877 1.37002,-0.238648 l 1.149048,-1.149049 C 18.273956,9.5534549 16.708301,9.6348449 15.717158,10.625989 Z m -3.3764357,7.901917 c 0.173784,0.199121 0.358342,0.393699 0.548008,0.583364 0.189665,0.189666 0.384243,0.374225 0.583363,0.548007 l 6.3462837,-6.346283 a 0.80008,0.80008 0 1 0 -1.131371,-1.13137 z M 17.21976,13.648871 a 0.80087854,0.80087854 0 1 0 1.184404,1.078337 l 6.346283,-6.3462831 c -0.173783,-0.19912 -0.358344,-0.393697 -0.548009,-0.583363 -0.189664,-0.189665 -0.384242,-0.374225 -0.583363,-0.548008 l -6.346282,6.3462841 a 0.80008,0.80008 0 0 0 -0.05303,0.05303 z m -4.587356,7.981467 c 1.09364,0.816208 2.659295,0.734819 3.650438,-0.256326 l 5.09117,-5.091168 c 0.991143,-0.991145 1.072533,-2.5568 0.256326,-3.650439 l -1.149048,1.149048 c 0.222226,0.447322 0.141534,0.989837 -0.23865,1.37002 l -5.091168,5.091169 c -0.380183,0.380182 -0.922698,0.460875 -1.370019,0.238648 z"
     style="fill:#ffffff;fill-opacity:1;fill-rule:nonzero;stroke:none;stroke-width:0.40000001"
     inkscape:connector-curvature="0" />
  <path
     style="color:#000000;font-style:normal;font-variant:normal;font-weight:normal;font-stretch:normal;font-size:medium;line-height:normal;font-family:sans-serif;font-variant-ligatures:normal;font-variant-position:normal;font-variant-caps:normal;font-variant-numeric:normal;font-variant-alternates:normal;font-feature-settings:normal;text-indent:0;text-align:start;text-decoration:none;text-decoration-line:none;text-decoration-style:solid;text-decoration-color:#000000;letter-spacing:normal;word-spacing:normal;text-transform:none;writing-mode:lr-tb;direction:ltr;text-orientation:mixed;dominant-baseline:auto;baseline-shift:baseline;text-anchor:start;white-space:normal;shape-padding:0;clip-rule:nonzero;display:inline;overflow:visible;visibility:visible;opacity:0.35;isolation:auto;mix-blend-mode:normal;color-interpolation:sRGB;color-interpolation-filters:linearRGB;solid-color:#000000;solid-opacity:1;vector-effect:none;fill:#000000;fill-opacity:1;fill-rule:nonzero;stroke:none;stroke-width:1;stroke-linecap:butt;stroke-linejoin:miter;stroke-miterlimit:4;stroke-dasharray:none;stroke-dashoffset:0;stroke-opacity:1;color-rendering:auto;image-rendering:auto;shape-rendering:auto;text-rendering:auto;enable-background:accumulate"
     d="M 5.5,3 C 4.123649,3 3,4.123649 3,5.5 v 21 C 3,27.876351 4.123649,29 5.5,29 h 21 C 27.876351,29 29,27.876351 29,26.5 V 5.5 C 29,4.123649 27.876351,3 26.5,3 Z m 0,1 h 21 C 27.339649,4 28,4.660351 28,5.5 v 21 C 28,27.339649 27.339649,28 26.5,28 H 5.5 C 4.660351,28 4,27.339649 4,26.5 V 5.5 C 4,4.660351 4.660351,4 5.5,4 Z"
     id="rect2-6"
     inkscape:connector-curvature="0" />
</svg>
