<?xml version="1.0" encoding="UTF-8" standalone="no"?>
<svg
   xmlns:dc="http://purl.org/dc/elements/1.1/"
   xmlns:cc="http://creativecommons.org/ns#"
   xmlns:rdf="http://www.w3.org/1999/02/22-rdf-syntax-ns#"
   xmlns:svg="http://www.w3.org/2000/svg"
   xmlns="http://www.w3.org/2000/svg"
   xmlns:sodipodi="http://sodipodi.sourceforge.net/DTD/sodipodi-0.dtd"
   xmlns:inkscape="http://www.inkscape.org/namespaces/inkscape"
   width="16"
   height="16"
   viewBox="0 0 16 16"
   version="1.1"
   id="svg7"
   sodipodi:docname="tools-check-spelling.svg"
   inkscape:version="0.92.3 (2405546, 2018-03-11)">
  <metadata
     id="metadata11">
    <rdf:RDF>
      <cc:Work
         rdf:about="">
        <dc:format>image/svg+xml</dc:format>
        <dc:type
           rdf:resource="http://purl.org/dc/dcmitype/StillImage" />
      </cc:Work>
    </rdf:RDF>
  </metadata>
  <sodipodi:namedview
     pagecolor="#ffffff"
     bordercolor="#666666"
     borderopacity="1"
     objecttolerance="10"
     gridtolerance="10"
     guidetolerance="10"
     inkscape:pageopacity="0"
     inkscape:pageshadow="2"
     inkscape:window-width="1920"
     inkscape:window-height="1012"
     id="namedview9"
     showgrid="true"
     inkscape:zoom="32"
     inkscape:cx="11.345876"
     inkscape:cy="5.597952"
     inkscape:window-x="0"
     inkscape:window-y="0"
     inkscape:window-maximized="1"
     inkscape:current-layer="svg7">
    <inkscape:grid
       type="xygrid"
       id="grid824" />
  </sodipodi:namedview>
  <defs
     id="defs3">
    <style
       id="current-color-scheme"
       type="text/css">
   .ColorScheme-Text { color:#6e6e6e; } .ColorScheme-Highlight { color:#5294e2; }
  </style>
  </defs>
  <path
     style="fill:#6e6e6e;fill-opacity:1"
     d="M 7.9989277,0.9765623 V 10 h 3.0019543 c 0.93855,0 1.768828,-0.372534 2.298828,-0.958984 0.53,-0.58644 0.765739,-1.336606 0.755859,-2.066406 -0.01,-0.7298202 -0.262222,-1.4657697 -0.789062,-2.0429697 -0.53,-0.5769999 -1.349531,-0.955078 -2.269531,-0.955078 H 9.9950217 v -3 z m -5.9941407,1 -0.00479,2.0234375 h 3.0000005 c 0,0.3511268 0,0.7123535 0.0048,0.9941405 H 4.0008807 c -1.7159001,0 -3.03008804,1.1254745 -3.05468804,2.4843747 -0.0123,0.67945 0.30582864,1.362966 0.86132864,1.822266 C 2.3630213,9.760052 3.1228806,10 4.0008807,10 h 3.003906 V 4.0703123 c 0,-1.1712 -0.887134,-2.0820313 -2.0839841,-2.0820313 z m 7.9941407,4 h 1.0019543 c 0.42179,0 0.625509,0.1256935 0.787109,0.3027335 0.161601,0.17705 0.263838,0.4468472 0.267578,0.7226572 0.004,0.27581 -0.0886,0.529485 -0.240234,0.697265 C 11.663715,7.866989 11.459642,8 11.000882,8 H 9.9989277 Z M 4.0008807,6.994141 H 5.0047866 V 8 H 4.0008807 C 3.4814706,8 3.2070888,7.864056 3.0809588,7.759766 2.9548188,7.655486 2.9448932,7.585632 2.9461931,7.513672 c 0.003,-0.14393 0.084891,-0.519531 1.0546876,-0.519531 z m -1.4902344,3.798827 -2.35546864,2.353515 c -0.471355,0.472657 0.23763,1.179689 0.708984,0.707032 l 1.64648464,-1.646484 2.0000003,2 2.0000001,-2 2,2 2.0000003,-2 2,2 2.353516,-2.353515 c 0.471354,-0.472656 -0.23763,-1.179688 -0.708984,-0.707032 l -1.644532,1.646484 -2,-1.999999 -2.0000003,1.999999 -2,-1.999999 -2.0000001,1.999999 z"
     id="path5-3-3"
     inkscape:connector-curvature="0"
     sodipodi:nodetypes="ccscccscccccccsscscscccscccsccsccsccsccccccccccccccccc" />
</svg>
